*
*
G04 PADS VX.2.3 Build Number: 9191294 generated Gerber (RS-274-X) file*
G04 PC Version=2.1*
*
%IN "Plasma_Pipette_V2.0_Mai"*%
*
%MOIN*%
*
%FSLAX35Y35*%
*
*
*
*
G04 PC Standard Apertures*
*
*
G04 Thermal Relief Aperture macro.*
%AMTER*
1,1,$1,0,0*
1,0,$1-$2,0,0*
21,0,$3,$4,0,0,45*
21,0,$3,$4,0,0,135*
%
*
*
G04 Annular Aperture macro.*
%AMANN*
1,1,$1,0,0*
1,0,$2,0,0*
%
*
*
G04 Odd Aperture macro.*
%AMODD*
1,1,$1,0,0*
1,0,$1-0.005,0,0*
%
*
*
G04 PC Custom Aperture Macros*
*
*
*
*
*
*
G04 PC Aperture Table*
*
%ADD010C,0.001*%
%ADD020C,0.00394*%
%ADD023C,0.00787*%
%ADD044C,0.01*%
%ADD091C,0.005*%
*
*
*
*
G04 PC Circuitry*
G04 Layer Name Plasma_Pipette_V2.0_Mai - circuitry*
%LPD*%
*
*
G04 PC Custom Flashes*
G04 Layer Name Plasma_Pipette_V2.0_Mai - flashes*
%LPD*%
*
*
G04 PC Circuitry*
G04 Layer Name Plasma_Pipette_V2.0_Mai - circuitry*
%LPD*%
*
G54D10*
G54D20*
G01X164370Y113780D02*
X200787D01*
Y92126*
X164370*
Y113780*
X162598Y110433D02*
X159449Y108858D01*
Y112008*
X162598Y110433*
X131890Y131718D02*
Y129134D01*
Y131718D02*
X131084D01*
X130816Y131594*
X130727Y131471*
X130637Y131225*
Y130979*
X130727Y130733*
X130816Y130610*
X131084Y130487*
X131890D02*
X131084D01*
X130816Y130364*
X130727Y130241*
X130637Y129995*
Y129626*
X130727Y129380*
X130816Y129257*
X131084Y129134*
X131890*
X129116Y131718D02*
X129832Y129134D01*
X129116Y131718D02*
X128400Y129134D01*
X129563Y129995D02*
X128669D01*
X126969Y131718D02*
Y129134D01*
X127595Y131718D02*
X126342D01*
X124911D02*
Y129134D01*
X125537Y131718D02*
X124284D01*
X100000Y100000D02*
X241732D01*
X258582Y368059*
G75*
G03X251509Y375591I-7073J445D01*
G01X178739*
X178741Y375354*
X170866Y375350D02*
G03X178741Y375357I3938J124D01*
G01X170866Y375354D02*
Y375591D01*
X147244*
Y323228*
X144488Y320472D02*
G03X147244Y323228I0J2756D01*
G01X144488Y320472D02*
X126378D01*
X123622Y323228D02*
G03X126378Y320472I2756J0D01*
G01X123622Y323228D02*
Y375591D01*
X90223*
G03X83151Y368059I0J-7087*
G01X84548Y346437*
X84567Y346379*
Y344764*
X83780Y343976D02*
G03X84567Y344764I-0J788D01*
G01X83780Y343976D02*
X83583D01*
G03X82795Y343189I-0J-787*
G01Y313780*
G03X83976Y312598I1181J-0*
G01X85551*
X86732Y311417D02*
G03X85551Y312598I-1181J0D01*
G01X86732Y311417D02*
Y311153D01*
X86851Y309686*
X100000Y100000*
G54D23*
X153189Y123622D02*
X102795D01*
Y108701*
X153189*
Y123622*
G54D44*
X202362Y112992D02*
X233858D01*
Y20866*
X202362*
Y112992*
G54D91*
X183116Y121391D02*
Y118891D01*
X183229Y118423*
X183343Y118266*
X183570Y118110*
X183797*
X184025Y118266*
X184138Y118423*
X184252Y118891*
Y119204*
X181866Y121391D02*
X180616D01*
X181297Y120141*
X180957*
X180729Y119985*
X180616Y119829*
X180502Y119360*
Y119048*
X180616Y118579*
X180843Y118266*
X181184Y118110*
X181525*
X181866Y118266*
X181979Y118423*
X182093Y118735*
X217761Y121391D02*
Y118891D01*
X217875Y118423*
X217989Y118266*
X218216Y118110*
X218443*
X218670Y118266*
X218784Y118423*
X218898Y118891*
Y119204*
X216625Y120610D02*
Y120766D01*
X216511Y121079*
X216398Y121235*
X216170Y121391*
X215716*
X215489Y121235*
X215375Y121079*
X215261Y120766*
Y120454*
X215375Y120141*
X215602Y119673*
X216739Y118110*
X215148*
G74*
X0Y0D02*
M02*
