%FSDAX33Y33*%
%MOMM*%
%SFA1.000B1.000*%

%MIA0B0*%
%IPPOS*%
%ADD296C,0.30000*%
%ADD298C,0.90100*%
%ADD337R,0.60001X0.60001*%
%ADD338R,1.70008X3.10013*%
%ADD339R,5.89997X6.30002*%
%ADD340R,0.89998X1.40011*%
%ADD341R,2.20021X3.10013*%
%ADD342R,1.50018X2.85020*%
%ADD343R,0.85020X1.10014*%
%ADD344R,5.10013X5.10013*%
%ADD345R,1.40011X0.89998*%
%ADD346R,3.10013X2.20021*%
%ADD347R,1.10014X0.85020*%
%ADD348R,3.10013X3.10013*%
%ADD349R,2.47021X2.53016*%
%ADD350C,0.50110*%
%ADD351C,0.70110*%
%ADD443C,0.80110*%
%ADD447C,0.15018*%
%LNCK-NE*%
%LPD*%
G54D337*
X030838Y006900D03*
X030838Y007700D03*
X035938Y007310D03*
X035138Y007310D03*
X032988Y007300D03*
X032188Y007300D03*
X053819Y007003D03*
X053819Y007803D03*
X055944Y007898D03*
X055144Y007898D03*
X058441Y007893D03*
X057641Y007893D03*
X076338Y002000D03*
X076338Y001200D03*
X076788Y004200D03*
X076788Y005000D03*
X079833Y011018D03*
X079833Y010218D03*
G54D338*
X032423Y010920D03*
X027853Y010920D03*
X024633Y010920D03*
X020063Y010920D03*
X022438Y006850D03*
X022438Y001950D03*
X045538Y006850D03*
X045538Y001950D03*
G54D339*
X030138Y018100D03*
X022348Y018100D03*
G54D340*
X030963Y004700D03*
X032213Y004700D03*
X033463Y004700D03*
X034713Y004700D03*
X053881Y004703D03*
X055131Y004703D03*
X056381Y004703D03*
X057631Y004703D03*
G54D341*
X037263Y001975D03*
X028413Y001975D03*
X060181Y001978D03*
X051331Y001978D03*
G54D342*
X023678Y024140D03*
X026218Y024140D03*
X028758Y024140D03*
X031298Y024140D03*
X033838Y024140D03*
X033838Y047890D03*
X023678Y047890D03*
X046653Y019375D03*
X049193Y019375D03*
X051733Y019375D03*
X054273Y019375D03*
X056813Y019375D03*
X056813Y043125D03*
X046653Y043125D03*
X069678Y014420D03*
X072218Y014420D03*
X074758Y014420D03*
X077298Y014420D03*
X079838Y014420D03*
X079838Y038170D03*
X069678Y038170D03*
G54D343*
X043399Y009978D03*
X044669Y009978D03*
X045939Y009978D03*
X047209Y009978D03*
X047209Y015473D03*
X043399Y015473D03*
X050863Y010005D03*
X052133Y010005D03*
X053403Y010005D03*
X054673Y010005D03*
X054673Y015500D03*
X050863Y015500D03*
G54D344*
X050738Y044300D03*
X074028Y039300D03*
G54D345*
X080148Y003915D03*
X080148Y005165D03*
X080148Y006415D03*
X080148Y007665D03*
G54D346*
X082873Y010215D03*
X082873Y001365D03*
G54D347*
X070943Y006835D03*
X070943Y008105D03*
X070943Y009375D03*
X070943Y010645D03*
X065448Y010645D03*
X065448Y006835D03*
X078133Y006805D03*
X078133Y008075D03*
X078133Y009345D03*
X078133Y010615D03*
X072638Y010615D03*
X072638Y006805D03*
G54D348*
X027238Y048190D03*
G54D349*
X066598Y002900D03*
X072838Y002900D03*
G54D350*
X041738Y042530D03*
X038738Y042530D03*
X041738Y043380D03*
X038738Y043380D03*
X041738Y041700D03*
X038738Y041700D03*
X041738Y040850D03*
X038738Y040850D03*
X041738Y040000D03*
X038738Y040000D03*
X041738Y044230D03*
X038738Y044230D03*
X041738Y045080D03*
X038738Y045080D03*
X041738Y007530D03*
X038738Y007530D03*
X041738Y008380D03*
X038738Y008380D03*
X041738Y006700D03*
X038738Y006700D03*
X041738Y005850D03*
X038738Y005850D03*
X041738Y005000D03*
X038738Y005000D03*
X041738Y009230D03*
X038738Y009230D03*
X041738Y010080D03*
X038738Y010080D03*
X064738Y007530D03*
X061738Y007530D03*
X064738Y008380D03*
X061738Y008380D03*
X064738Y006700D03*
X061738Y006700D03*
X064738Y005850D03*
X061738Y005850D03*
X064738Y005000D03*
X061738Y005000D03*
X064738Y009230D03*
X061738Y009230D03*
X064738Y010080D03*
X061738Y010080D03*
X064738Y033530D03*
X061738Y033530D03*
X064738Y034380D03*
X061738Y034380D03*
X064738Y032700D03*
X061738Y032700D03*
X064738Y031850D03*
X061738Y031850D03*
X064738Y031000D03*
X061738Y031000D03*
X064738Y035230D03*
X061738Y035230D03*
X064738Y036080D03*
X061738Y036080D03*
G54D351*
X041738Y042530D03*
X038738Y042530D03*
X041738Y043380D03*
X038738Y043380D03*
X041738Y041700D03*
X038738Y041700D03*
X041738Y040850D03*
X038738Y040850D03*
X041738Y040000D03*
X038738Y040000D03*
X041738Y044230D03*
X038738Y044230D03*
X041738Y045080D03*
X038738Y045080D03*
X041738Y007530D03*
X038738Y007530D03*
X041738Y008380D03*
X038738Y008380D03*
X041738Y006700D03*
X038738Y006700D03*
X041738Y005850D03*
X038738Y005850D03*
X041738Y005000D03*
X038738Y005000D03*
X041738Y009230D03*
X038738Y009230D03*
X041738Y010080D03*
X038738Y010080D03*
X064738Y007530D03*
X061738Y007530D03*
X064738Y008380D03*
X061738Y008380D03*
X064738Y006700D03*
X061738Y006700D03*
X064738Y005850D03*
X061738Y005850D03*
X064738Y005000D03*
X061738Y005000D03*
X064738Y009230D03*
X061738Y009230D03*
X064738Y010080D03*
X061738Y010080D03*
X064738Y033530D03*
X061738Y033530D03*
X064738Y034380D03*
X061738Y034380D03*
X064738Y032700D03*
X061738Y032700D03*
X064738Y031850D03*
X061738Y031850D03*
X064738Y031000D03*
X061738Y031000D03*
X064738Y035230D03*
X061738Y035230D03*
X064738Y036080D03*
X061738Y036080D03*
G54D443*
X041738Y042530D03*
X038738Y042530D03*
X041738Y043380D03*
X038738Y043380D03*
X041738Y041700D03*
X038738Y041700D03*
X041738Y040850D03*
X038738Y040850D03*
X041738Y040000D03*
X038738Y040000D03*
X041738Y044230D03*
X038738Y044230D03*
X041738Y045080D03*
X038738Y045080D03*
X041738Y007530D03*
X038738Y007530D03*
X041738Y008380D03*
X038738Y008380D03*
X041738Y006700D03*
X038738Y006700D03*
X041738Y005850D03*
X038738Y005850D03*
X041738Y005000D03*
X038738Y005000D03*
X041738Y009230D03*
X038738Y009230D03*
X041738Y010080D03*
X038738Y010080D03*
X064738Y007530D03*
X061738Y007530D03*
X064738Y008380D03*
X061738Y008380D03*
X064738Y006700D03*
X061738Y006700D03*
X064738Y005850D03*
X061738Y005850D03*
X064738Y005000D03*
X061738Y005000D03*
X064738Y009230D03*
X061738Y009230D03*
X064738Y010080D03*
X061738Y010080D03*
X064738Y033530D03*
X061738Y033530D03*
X064738Y034380D03*
X061738Y034380D03*
X064738Y032700D03*
X061738Y032700D03*
X064738Y031850D03*
X061738Y031850D03*
X064738Y031000D03*
X061738Y031000D03*
X064738Y035230D03*
X061738Y035230D03*
X064738Y036080D03*
X061738Y036080D03*
G54D298*
X041738Y042530D03*
X038738Y042530D03*
X041738Y043380D03*
X038738Y043380D03*
X041738Y041700D03*
X038738Y041700D03*
X041738Y040850D03*
X038738Y040850D03*
X041738Y040000D03*
X038738Y040000D03*
X041738Y044230D03*
X038738Y044230D03*
X041738Y045080D03*
X038738Y045080D03*
X041738Y007530D03*
X038738Y007530D03*
X041738Y008380D03*
X038738Y008380D03*
X041738Y006700D03*
X038738Y006700D03*
X041738Y005850D03*
X038738Y005850D03*
X041738Y005000D03*
X038738Y005000D03*
X041738Y009230D03*
X038738Y009230D03*
X041738Y010080D03*
X038738Y010080D03*
X064738Y007530D03*
X061738Y007530D03*
X064738Y008380D03*
X061738Y008380D03*
X064738Y006700D03*
X061738Y006700D03*
X064738Y005850D03*
X061738Y005850D03*
X064738Y005000D03*
X061738Y005000D03*
X064738Y009230D03*
X061738Y009230D03*
X064738Y010080D03*
X061738Y010080D03*
X064738Y033530D03*
X061738Y033530D03*
X064738Y034380D03*
X061738Y034380D03*
X064738Y032700D03*
X061738Y032700D03*
X064738Y031850D03*
X061738Y031850D03*
X064738Y031000D03*
X061738Y031000D03*
X064738Y035230D03*
X061738Y035230D03*
X064738Y036080D03*
X061738Y036080D03*
G54D447*
X047559Y015448D02*
G01X043049Y015448D01*
X043049Y011468D01*
X047559Y011468D01*
X047559Y015448D01*
X043054Y011468D02*
G01X043054Y015448D01*
X043104Y011468D02*
G01X043104Y015448D01*
X043154Y011468D02*
G01X043154Y015448D01*
X043204Y011468D02*
G01X043204Y015448D01*
X043254Y011468D02*
G01X043254Y015448D01*
X043304Y011468D02*
G01X043304Y015448D01*
X043354Y011468D02*
G01X043354Y015448D01*
X043404Y011468D02*
G01X043404Y015448D01*
X043454Y011468D02*
G01X043454Y015448D01*
X043504Y011468D02*
G01X043504Y015448D01*
X043554Y011468D02*
G01X043554Y015448D01*
X043604Y011468D02*
G01X043604Y015448D01*
X043654Y011468D02*
G01X043654Y015448D01*
X043704Y011468D02*
G01X043704Y015448D01*
X043754Y011468D02*
G01X043754Y015448D01*
X043804Y011468D02*
G01X043804Y015448D01*
X043854Y011468D02*
G01X043854Y015448D01*
X043904Y011468D02*
G01X043904Y015448D01*
X043954Y011468D02*
G01X043954Y015448D01*
X044004Y011468D02*
G01X044004Y015448D01*
X044054Y011468D02*
G01X044054Y015448D01*
X044104Y011468D02*
G01X044104Y015448D01*
X044154Y011468D02*
G01X044154Y015448D01*
X044204Y011468D02*
G01X044204Y015448D01*
X044254Y011468D02*
G01X044254Y015448D01*
X044304Y011468D02*
G01X044304Y015448D01*
X044354Y011468D02*
G01X044354Y015448D01*
X044404Y011468D02*
G01X044404Y015448D01*
X044454Y011468D02*
G01X044454Y015448D01*
X044504Y011468D02*
G01X044504Y015448D01*
X044554Y011468D02*
G01X044554Y015448D01*
X044604Y011468D02*
G01X044604Y015448D01*
X044654Y011468D02*
G01X044654Y015448D01*
X044704Y011468D02*
G01X044704Y015448D01*
X044754Y011468D02*
G01X044754Y015448D01*
X044804Y011468D02*
G01X044804Y015448D01*
X044854Y011468D02*
G01X044854Y015448D01*
X044904Y011468D02*
G01X044904Y015448D01*
X044954Y011468D02*
G01X044954Y015448D01*
X045004Y011468D02*
G01X045004Y015448D01*
X045054Y011468D02*
G01X045054Y015448D01*
X045104Y011468D02*
G01X045104Y015448D01*
X045154Y011468D02*
G01X045154Y015448D01*
X045204Y011468D02*
G01X045204Y015448D01*
X045254Y011468D02*
G01X045254Y015448D01*
X045304Y011468D02*
G01X045304Y015448D01*
X045354Y011468D02*
G01X045354Y015448D01*
X045404Y011468D02*
G01X045404Y015448D01*
X045454Y011468D02*
G01X045454Y015448D01*
X045504Y011468D02*
G01X045504Y015448D01*
X045554Y011468D02*
G01X045554Y015448D01*
X045604Y011468D02*
G01X045604Y015448D01*
X045654Y011468D02*
G01X045654Y015448D01*
X045704Y011468D02*
G01X045704Y015448D01*
X045754Y011468D02*
G01X045754Y015448D01*
X045804Y011468D02*
G01X045804Y015448D01*
X045854Y011468D02*
G01X045854Y015448D01*
X045904Y011468D02*
G01X045904Y015448D01*
X045954Y011468D02*
G01X045954Y015448D01*
X046004Y011468D02*
G01X046004Y015448D01*
X046054Y011468D02*
G01X046054Y015448D01*
X046104Y011468D02*
G01X046104Y015448D01*
X046154Y011468D02*
G01X046154Y015448D01*
X046204Y011468D02*
G01X046204Y015448D01*
X046254Y011468D02*
G01X046254Y015448D01*
X046304Y011468D02*
G01X046304Y015448D01*
X046354Y011468D02*
G01X046354Y015448D01*
X046404Y011468D02*
G01X046404Y015448D01*
X046454Y011468D02*
G01X046454Y015448D01*
X046504Y011468D02*
G01X046504Y015448D01*
X046554Y011468D02*
G01X046554Y015448D01*
X046604Y011468D02*
G01X046604Y015448D01*
X046654Y011468D02*
G01X046654Y015448D01*
X046704Y011468D02*
G01X046704Y015448D01*
X046754Y011468D02*
G01X046754Y015448D01*
X046804Y011468D02*
G01X046804Y015448D01*
X046854Y011468D02*
G01X046854Y015448D01*
X046904Y011468D02*
G01X046904Y015448D01*
X046954Y011468D02*
G01X046954Y015448D01*
X047004Y011468D02*
G01X047004Y015448D01*
X047054Y011468D02*
G01X047054Y015448D01*
X047104Y011468D02*
G01X047104Y015448D01*
X047154Y011468D02*
G01X047154Y015448D01*
X047204Y011468D02*
G01X047204Y015448D01*
X047254Y011468D02*
G01X047254Y015448D01*
X047304Y011468D02*
G01X047304Y015448D01*
X047354Y011468D02*
G01X047354Y015448D01*
X047404Y011468D02*
G01X047404Y015448D01*
X047454Y011468D02*
G01X047454Y015448D01*
X047504Y011468D02*
G01X047504Y015448D01*
X047554Y011468D02*
G01X047554Y015448D01*
X048054Y012748D02*
G01X042554Y012748D01*
X042554Y011893D01*
X048054Y011893D01*
X048054Y012748D01*
X042554Y011893D02*
G01X042554Y012748D01*
X042604Y011893D02*
G01X042604Y012748D01*
X042654Y011893D02*
G01X042654Y012748D01*
X042704Y011893D02*
G01X042704Y012748D01*
X042754Y011893D02*
G01X042754Y012748D01*
X042804Y011893D02*
G01X042804Y012748D01*
X042854Y011893D02*
G01X042854Y012748D01*
X042904Y011893D02*
G01X042904Y012748D01*
X042954Y011893D02*
G01X042954Y012748D01*
X043004Y011893D02*
G01X043004Y012748D01*
X043054Y011893D02*
G01X043054Y012748D01*
X043104Y011893D02*
G01X043104Y012748D01*
X043154Y011893D02*
G01X043154Y012748D01*
X043204Y011893D02*
G01X043204Y012748D01*
X043254Y011893D02*
G01X043254Y012748D01*
X043304Y011893D02*
G01X043304Y012748D01*
X043354Y011893D02*
G01X043354Y012748D01*
X043404Y011893D02*
G01X043404Y012748D01*
X043454Y011893D02*
G01X043454Y012748D01*
X043504Y011893D02*
G01X043504Y012748D01*
X043554Y011893D02*
G01X043554Y012748D01*
X043604Y011893D02*
G01X043604Y012748D01*
X043654Y011893D02*
G01X043654Y012748D01*
X043704Y011893D02*
G01X043704Y012748D01*
X043754Y011893D02*
G01X043754Y012748D01*
X043804Y011893D02*
G01X043804Y012748D01*
X043854Y011893D02*
G01X043854Y012748D01*
X043904Y011893D02*
G01X043904Y012748D01*
X043954Y011893D02*
G01X043954Y012748D01*
X044004Y011893D02*
G01X044004Y012748D01*
X044054Y011893D02*
G01X044054Y012748D01*
X044104Y011893D02*
G01X044104Y012748D01*
X044154Y011893D02*
G01X044154Y012748D01*
X044204Y011893D02*
G01X044204Y012748D01*
X044254Y011893D02*
G01X044254Y012748D01*
X044304Y011893D02*
G01X044304Y012748D01*
X044354Y011893D02*
G01X044354Y012748D01*
X044404Y011893D02*
G01X044404Y012748D01*
X044454Y011893D02*
G01X044454Y012748D01*
X044504Y011893D02*
G01X044504Y012748D01*
X044554Y011893D02*
G01X044554Y012748D01*
X044604Y011893D02*
G01X044604Y012748D01*
X044654Y011893D02*
G01X044654Y012748D01*
X044704Y011893D02*
G01X044704Y012748D01*
X044754Y011893D02*
G01X044754Y012748D01*
X044804Y011893D02*
G01X044804Y012748D01*
X044854Y011893D02*
G01X044854Y012748D01*
X044904Y011893D02*
G01X044904Y012748D01*
X044954Y011893D02*
G01X044954Y012748D01*
X045004Y011893D02*
G01X045004Y012748D01*
X045054Y011893D02*
G01X045054Y012748D01*
X045104Y011893D02*
G01X045104Y012748D01*
X045154Y011893D02*
G01X045154Y012748D01*
X045204Y011893D02*
G01X045204Y012748D01*
X045254Y011893D02*
G01X045254Y012748D01*
X045304Y011893D02*
G01X045304Y012748D01*
X045354Y011893D02*
G01X045354Y012748D01*
X045404Y011893D02*
G01X045404Y012748D01*
X045454Y011893D02*
G01X045454Y012748D01*
X045504Y011893D02*
G01X045504Y012748D01*
X045554Y011893D02*
G01X045554Y012748D01*
X045604Y011893D02*
G01X045604Y012748D01*
X045654Y011893D02*
G01X045654Y012748D01*
X045704Y011893D02*
G01X045704Y012748D01*
X045754Y011893D02*
G01X045754Y012748D01*
X045804Y011893D02*
G01X045804Y012748D01*
X045854Y011893D02*
G01X045854Y012748D01*
X045904Y011893D02*
G01X045904Y012748D01*
X045954Y011893D02*
G01X045954Y012748D01*
X046004Y011893D02*
G01X046004Y012748D01*
X046054Y011893D02*
G01X046054Y012748D01*
X046104Y011893D02*
G01X046104Y012748D01*
X046154Y011893D02*
G01X046154Y012748D01*
X046204Y011893D02*
G01X046204Y012748D01*
X046254Y011893D02*
G01X046254Y012748D01*
X046304Y011893D02*
G01X046304Y012748D01*
X046354Y011893D02*
G01X046354Y012748D01*
X046404Y011893D02*
G01X046404Y012748D01*
X046454Y011893D02*
G01X046454Y012748D01*
X046504Y011893D02*
G01X046504Y012748D01*
X046554Y011893D02*
G01X046554Y012748D01*
X046604Y011893D02*
G01X046604Y012748D01*
X046654Y011893D02*
G01X046654Y012748D01*
X046704Y011893D02*
G01X046704Y012748D01*
X046754Y011893D02*
G01X046754Y012748D01*
X046804Y011893D02*
G01X046804Y012748D01*
X046854Y011893D02*
G01X046854Y012748D01*
X046904Y011893D02*
G01X046904Y012748D01*
X046954Y011893D02*
G01X046954Y012748D01*
X047004Y011893D02*
G01X047004Y012748D01*
X047054Y011893D02*
G01X047054Y012748D01*
X047104Y011893D02*
G01X047104Y012748D01*
X047154Y011893D02*
G01X047154Y012748D01*
X047204Y011893D02*
G01X047204Y012748D01*
X047254Y011893D02*
G01X047254Y012748D01*
X047304Y011893D02*
G01X047304Y012748D01*
X047354Y011893D02*
G01X047354Y012748D01*
X047404Y011893D02*
G01X047404Y012748D01*
X047454Y011893D02*
G01X047454Y012748D01*
X047504Y011893D02*
G01X047504Y012748D01*
X047554Y011893D02*
G01X047554Y012748D01*
X047604Y011893D02*
G01X047604Y012748D01*
X047654Y011893D02*
G01X047654Y012748D01*
X047704Y011893D02*
G01X047704Y012748D01*
X047754Y011893D02*
G01X047754Y012748D01*
X047804Y011893D02*
G01X047804Y012748D01*
X047854Y011893D02*
G01X047854Y012748D01*
X047904Y011893D02*
G01X047904Y012748D01*
X047954Y011893D02*
G01X047954Y012748D01*
X048004Y011893D02*
G01X048004Y012748D01*
X055023Y015475D02*
G01X050513Y015475D01*
X050513Y011495D01*
X055023Y011495D01*
X055023Y015475D01*
X050518Y011495D02*
G01X050518Y015475D01*
X050568Y011495D02*
G01X050568Y015475D01*
X050618Y011495D02*
G01X050618Y015475D01*
X050668Y011495D02*
G01X050668Y015475D01*
X050718Y011495D02*
G01X050718Y015475D01*
X050768Y011495D02*
G01X050768Y015475D01*
X050818Y011495D02*
G01X050818Y015475D01*
X050868Y011495D02*
G01X050868Y015475D01*
X050918Y011495D02*
G01X050918Y015475D01*
X050968Y011495D02*
G01X050968Y015475D01*
X051018Y011495D02*
G01X051018Y015475D01*
X051068Y011495D02*
G01X051068Y015475D01*
X051118Y011495D02*
G01X051118Y015475D01*
X051168Y011495D02*
G01X051168Y015475D01*
X051218Y011495D02*
G01X051218Y015475D01*
X051268Y011495D02*
G01X051268Y015475D01*
X051318Y011495D02*
G01X051318Y015475D01*
X051368Y011495D02*
G01X051368Y015475D01*
X051418Y011495D02*
G01X051418Y015475D01*
X051468Y011495D02*
G01X051468Y015475D01*
X051518Y011495D02*
G01X051518Y015475D01*
X051568Y011495D02*
G01X051568Y015475D01*
X051618Y011495D02*
G01X051618Y015475D01*
X051668Y011495D02*
G01X051668Y015475D01*
X051718Y011495D02*
G01X051718Y015475D01*
X051768Y011495D02*
G01X051768Y015475D01*
X051818Y011495D02*
G01X051818Y015475D01*
X051868Y011495D02*
G01X051868Y015475D01*
X051918Y011495D02*
G01X051918Y015475D01*
X051968Y011495D02*
G01X051968Y015475D01*
X052018Y011495D02*
G01X052018Y015475D01*
X052068Y011495D02*
G01X052068Y015475D01*
X052118Y011495D02*
G01X052118Y015475D01*
X052168Y011495D02*
G01X052168Y015475D01*
X052218Y011495D02*
G01X052218Y015475D01*
X052268Y011495D02*
G01X052268Y015475D01*
X052318Y011495D02*
G01X052318Y015475D01*
X052368Y011495D02*
G01X052368Y015475D01*
X052418Y011495D02*
G01X052418Y015475D01*
X052468Y011495D02*
G01X052468Y015475D01*
X052518Y011495D02*
G01X052518Y015475D01*
X052568Y011495D02*
G01X052568Y015475D01*
X052618Y011495D02*
G01X052618Y015475D01*
X052668Y011495D02*
G01X052668Y015475D01*
X052718Y011495D02*
G01X052718Y015475D01*
X052768Y011495D02*
G01X052768Y015475D01*
X052818Y011495D02*
G01X052818Y015475D01*
X052868Y011495D02*
G01X052868Y015475D01*
X052918Y011495D02*
G01X052918Y015475D01*
X052968Y011495D02*
G01X052968Y015475D01*
X053018Y011495D02*
G01X053018Y015475D01*
X053068Y011495D02*
G01X053068Y015475D01*
X053118Y011495D02*
G01X053118Y015475D01*
X053168Y011495D02*
G01X053168Y015475D01*
X053218Y011495D02*
G01X053218Y015475D01*
X053268Y011495D02*
G01X053268Y015475D01*
X053318Y011495D02*
G01X053318Y015475D01*
X053368Y011495D02*
G01X053368Y015475D01*
X053418Y011495D02*
G01X053418Y015475D01*
X053468Y011495D02*
G01X053468Y015475D01*
X053518Y011495D02*
G01X053518Y015475D01*
X053568Y011495D02*
G01X053568Y015475D01*
X053618Y011495D02*
G01X053618Y015475D01*
X053668Y011495D02*
G01X053668Y015475D01*
X053718Y011495D02*
G01X053718Y015475D01*
X053768Y011495D02*
G01X053768Y015475D01*
X053818Y011495D02*
G01X053818Y015475D01*
X053868Y011495D02*
G01X053868Y015475D01*
X053918Y011495D02*
G01X053918Y015475D01*
X053968Y011495D02*
G01X053968Y015475D01*
X054018Y011495D02*
G01X054018Y015475D01*
X054068Y011495D02*
G01X054068Y015475D01*
X054118Y011495D02*
G01X054118Y015475D01*
X054168Y011495D02*
G01X054168Y015475D01*
X054218Y011495D02*
G01X054218Y015475D01*
X054268Y011495D02*
G01X054268Y015475D01*
X054318Y011495D02*
G01X054318Y015475D01*
X054368Y011495D02*
G01X054368Y015475D01*
X054418Y011495D02*
G01X054418Y015475D01*
X054468Y011495D02*
G01X054468Y015475D01*
X054518Y011495D02*
G01X054518Y015475D01*
X054568Y011495D02*
G01X054568Y015475D01*
X054618Y011495D02*
G01X054618Y015475D01*
X054668Y011495D02*
G01X054668Y015475D01*
X054718Y011495D02*
G01X054718Y015475D01*
X054768Y011495D02*
G01X054768Y015475D01*
X054818Y011495D02*
G01X054818Y015475D01*
X054868Y011495D02*
G01X054868Y015475D01*
X054918Y011495D02*
G01X054918Y015475D01*
X054968Y011495D02*
G01X054968Y015475D01*
X055018Y011495D02*
G01X055018Y015475D01*
X055518Y012775D02*
G01X050018Y012775D01*
X050018Y011920D01*
X055518Y011920D01*
X055518Y012775D01*
X050018Y011920D02*
G01X050018Y012775D01*
X050068Y011920D02*
G01X050068Y012775D01*
X050118Y011920D02*
G01X050118Y012775D01*
X050168Y011920D02*
G01X050168Y012775D01*
X050218Y011920D02*
G01X050218Y012775D01*
X050268Y011920D02*
G01X050268Y012775D01*
X050318Y011920D02*
G01X050318Y012775D01*
X050368Y011920D02*
G01X050368Y012775D01*
X050418Y011920D02*
G01X050418Y012775D01*
X050468Y011920D02*
G01X050468Y012775D01*
X050518Y011920D02*
G01X050518Y012775D01*
X050568Y011920D02*
G01X050568Y012775D01*
X050618Y011920D02*
G01X050618Y012775D01*
X050668Y011920D02*
G01X050668Y012775D01*
X050718Y011920D02*
G01X050718Y012775D01*
X050768Y011920D02*
G01X050768Y012775D01*
X050818Y011920D02*
G01X050818Y012775D01*
X050868Y011920D02*
G01X050868Y012775D01*
X050918Y011920D02*
G01X050918Y012775D01*
X050968Y011920D02*
G01X050968Y012775D01*
X051018Y011920D02*
G01X051018Y012775D01*
X051068Y011920D02*
G01X051068Y012775D01*
X051118Y011920D02*
G01X051118Y012775D01*
X051168Y011920D02*
G01X051168Y012775D01*
X051218Y011920D02*
G01X051218Y012775D01*
X051268Y011920D02*
G01X051268Y012775D01*
X051318Y011920D02*
G01X051318Y012775D01*
X051368Y011920D02*
G01X051368Y012775D01*
X051418Y011920D02*
G01X051418Y012775D01*
X051468Y011920D02*
G01X051468Y012775D01*
X051518Y011920D02*
G01X051518Y012775D01*
X051568Y011920D02*
G01X051568Y012775D01*
X051618Y011920D02*
G01X051618Y012775D01*
X051668Y011920D02*
G01X051668Y012775D01*
X051718Y011920D02*
G01X051718Y012775D01*
X051768Y011920D02*
G01X051768Y012775D01*
X051818Y011920D02*
G01X051818Y012775D01*
X051868Y011920D02*
G01X051868Y012775D01*
X051918Y011920D02*
G01X051918Y012775D01*
X051968Y011920D02*
G01X051968Y012775D01*
X052018Y011920D02*
G01X052018Y012775D01*
X052068Y011920D02*
G01X052068Y012775D01*
X052118Y011920D02*
G01X052118Y012775D01*
X052168Y011920D02*
G01X052168Y012775D01*
X052218Y011920D02*
G01X052218Y012775D01*
X052268Y011920D02*
G01X052268Y012775D01*
X052318Y011920D02*
G01X052318Y012775D01*
X052368Y011920D02*
G01X052368Y012775D01*
X052418Y011920D02*
G01X052418Y012775D01*
X052468Y011920D02*
G01X052468Y012775D01*
X052518Y011920D02*
G01X052518Y012775D01*
X052568Y011920D02*
G01X052568Y012775D01*
X052618Y011920D02*
G01X052618Y012775D01*
X052668Y011920D02*
G01X052668Y012775D01*
X052718Y011920D02*
G01X052718Y012775D01*
X052768Y011920D02*
G01X052768Y012775D01*
X052818Y011920D02*
G01X052818Y012775D01*
X052868Y011920D02*
G01X052868Y012775D01*
X052918Y011920D02*
G01X052918Y012775D01*
X052968Y011920D02*
G01X052968Y012775D01*
X053018Y011920D02*
G01X053018Y012775D01*
X053068Y011920D02*
G01X053068Y012775D01*
X053118Y011920D02*
G01X053118Y012775D01*
X053168Y011920D02*
G01X053168Y012775D01*
X053218Y011920D02*
G01X053218Y012775D01*
X053268Y011920D02*
G01X053268Y012775D01*
X053318Y011920D02*
G01X053318Y012775D01*
X053368Y011920D02*
G01X053368Y012775D01*
X053418Y011920D02*
G01X053418Y012775D01*
X053468Y011920D02*
G01X053468Y012775D01*
X053518Y011920D02*
G01X053518Y012775D01*
X053568Y011920D02*
G01X053568Y012775D01*
X053618Y011920D02*
G01X053618Y012775D01*
X053668Y011920D02*
G01X053668Y012775D01*
X053718Y011920D02*
G01X053718Y012775D01*
X053768Y011920D02*
G01X053768Y012775D01*
X053818Y011920D02*
G01X053818Y012775D01*
X053868Y011920D02*
G01X053868Y012775D01*
X053918Y011920D02*
G01X053918Y012775D01*
X053968Y011920D02*
G01X053968Y012775D01*
X054018Y011920D02*
G01X054018Y012775D01*
X054068Y011920D02*
G01X054068Y012775D01*
X054118Y011920D02*
G01X054118Y012775D01*
X054168Y011920D02*
G01X054168Y012775D01*
X054218Y011920D02*
G01X054218Y012775D01*
X054268Y011920D02*
G01X054268Y012775D01*
X054318Y011920D02*
G01X054318Y012775D01*
X054368Y011920D02*
G01X054368Y012775D01*
X054418Y011920D02*
G01X054418Y012775D01*
X054468Y011920D02*
G01X054468Y012775D01*
X054518Y011920D02*
G01X054518Y012775D01*
X054568Y011920D02*
G01X054568Y012775D01*
X054618Y011920D02*
G01X054618Y012775D01*
X054668Y011920D02*
G01X054668Y012775D01*
X054718Y011920D02*
G01X054718Y012775D01*
X054768Y011920D02*
G01X054768Y012775D01*
X054818Y011920D02*
G01X054818Y012775D01*
X054868Y011920D02*
G01X054868Y012775D01*
X054918Y011920D02*
G01X054918Y012775D01*
X054968Y011920D02*
G01X054968Y012775D01*
X055018Y011920D02*
G01X055018Y012775D01*
X055068Y011920D02*
G01X055068Y012775D01*
X055118Y011920D02*
G01X055118Y012775D01*
X055168Y011920D02*
G01X055168Y012775D01*
X055218Y011920D02*
G01X055218Y012775D01*
X055268Y011920D02*
G01X055268Y012775D01*
X055318Y011920D02*
G01X055318Y012775D01*
X055368Y011920D02*
G01X055368Y012775D01*
X055418Y011920D02*
G01X055418Y012775D01*
X055468Y011920D02*
G01X055468Y012775D01*
X065473Y010995D02*
G01X065473Y006485D01*
X069453Y006485D01*
X069453Y010995D01*
X065473Y010995D01*
X065498Y006485D02*
G01X065498Y010995D01*
X065548Y006485D02*
G01X065548Y010995D01*
X065598Y006485D02*
G01X065598Y010995D01*
X065648Y006485D02*
G01X065648Y010995D01*
X065698Y006485D02*
G01X065698Y010995D01*
X065748Y006485D02*
G01X065748Y010995D01*
X065798Y006485D02*
G01X065798Y010995D01*
X065848Y006485D02*
G01X065848Y010995D01*
X065898Y006485D02*
G01X065898Y010995D01*
X065948Y006485D02*
G01X065948Y010995D01*
X065998Y006485D02*
G01X065998Y010995D01*
X066048Y006485D02*
G01X066048Y010995D01*
X066098Y006485D02*
G01X066098Y010995D01*
X066148Y006485D02*
G01X066148Y010995D01*
X066198Y006485D02*
G01X066198Y010995D01*
X066248Y006485D02*
G01X066248Y010995D01*
X066298Y006485D02*
G01X066298Y010995D01*
X066348Y006485D02*
G01X066348Y010995D01*
X066398Y006485D02*
G01X066398Y010995D01*
X066448Y006485D02*
G01X066448Y010995D01*
X066498Y006485D02*
G01X066498Y010995D01*
X066548Y006485D02*
G01X066548Y010995D01*
X066598Y006485D02*
G01X066598Y010995D01*
X066648Y006485D02*
G01X066648Y010995D01*
X066698Y006485D02*
G01X066698Y010995D01*
X066748Y006485D02*
G01X066748Y010995D01*
X066798Y006485D02*
G01X066798Y010995D01*
X066848Y006485D02*
G01X066848Y010995D01*
X066898Y006485D02*
G01X066898Y010995D01*
X066948Y006485D02*
G01X066948Y010995D01*
X066998Y006485D02*
G01X066998Y010995D01*
X067048Y006485D02*
G01X067048Y010995D01*
X067098Y006485D02*
G01X067098Y010995D01*
X067148Y006485D02*
G01X067148Y010995D01*
X067198Y006485D02*
G01X067198Y010995D01*
X067248Y006485D02*
G01X067248Y010995D01*
X067298Y006485D02*
G01X067298Y010995D01*
X067348Y006485D02*
G01X067348Y010995D01*
X067398Y006485D02*
G01X067398Y010995D01*
X067448Y006485D02*
G01X067448Y010995D01*
X067498Y006485D02*
G01X067498Y010995D01*
X067548Y006485D02*
G01X067548Y010995D01*
X067598Y006485D02*
G01X067598Y010995D01*
X067648Y006485D02*
G01X067648Y010995D01*
X067698Y006485D02*
G01X067698Y010995D01*
X067748Y006485D02*
G01X067748Y010995D01*
X067798Y006485D02*
G01X067798Y010995D01*
X067848Y006485D02*
G01X067848Y010995D01*
X067898Y006485D02*
G01X067898Y010995D01*
X067948Y006485D02*
G01X067948Y010995D01*
X067998Y006485D02*
G01X067998Y010995D01*
X068048Y006485D02*
G01X068048Y010995D01*
X068098Y006485D02*
G01X068098Y010995D01*
X068148Y006485D02*
G01X068148Y010995D01*
X068198Y006485D02*
G01X068198Y010995D01*
X068248Y006485D02*
G01X068248Y010995D01*
X068298Y006485D02*
G01X068298Y010995D01*
X068348Y006485D02*
G01X068348Y010995D01*
X068398Y006485D02*
G01X068398Y010995D01*
X068448Y006485D02*
G01X068448Y010995D01*
X068498Y006485D02*
G01X068498Y010995D01*
X068548Y006485D02*
G01X068548Y010995D01*
X068598Y006485D02*
G01X068598Y010995D01*
X068648Y006485D02*
G01X068648Y010995D01*
X068698Y006485D02*
G01X068698Y010995D01*
X068748Y006485D02*
G01X068748Y010995D01*
X068798Y006485D02*
G01X068798Y010995D01*
X068848Y006485D02*
G01X068848Y010995D01*
X068898Y006485D02*
G01X068898Y010995D01*
X068948Y006485D02*
G01X068948Y010995D01*
X068998Y006485D02*
G01X068998Y010995D01*
X069048Y006485D02*
G01X069048Y010995D01*
X069098Y006485D02*
G01X069098Y010995D01*
X069148Y006485D02*
G01X069148Y010995D01*
X069198Y006485D02*
G01X069198Y010995D01*
X069248Y006485D02*
G01X069248Y010995D01*
X069298Y006485D02*
G01X069298Y010995D01*
X069348Y006485D02*
G01X069348Y010995D01*
X069398Y006485D02*
G01X069398Y010995D01*
X069448Y006485D02*
G01X069448Y010995D01*
X068173Y011490D02*
G01X068173Y005990D01*
X069028Y005990D01*
X069028Y011490D01*
X068173Y011490D01*
X068198Y005990D02*
G01X068198Y011490D01*
X068248Y005990D02*
G01X068248Y011490D01*
X068298Y005990D02*
G01X068298Y011490D01*
X068348Y005990D02*
G01X068348Y011490D01*
X068398Y005990D02*
G01X068398Y011490D01*
X068448Y005990D02*
G01X068448Y011490D01*
X068498Y005990D02*
G01X068498Y011490D01*
X068548Y005990D02*
G01X068548Y011490D01*
X068598Y005990D02*
G01X068598Y011490D01*
X068648Y005990D02*
G01X068648Y011490D01*
X068698Y005990D02*
G01X068698Y011490D01*
X068748Y005990D02*
G01X068748Y011490D01*
X068798Y005990D02*
G01X068798Y011490D01*
X068848Y005990D02*
G01X068848Y011490D01*
X068898Y005990D02*
G01X068898Y011490D01*
X068948Y005990D02*
G01X068948Y011490D01*
X068998Y005990D02*
G01X068998Y011490D01*
X072663Y010965D02*
G01X072663Y006455D01*
X076643Y006455D01*
X076643Y010965D01*
X072663Y010965D01*
X072688Y006455D02*
G01X072688Y010965D01*
X072738Y006455D02*
G01X072738Y010965D01*
X072788Y006455D02*
G01X072788Y010965D01*
X072838Y006455D02*
G01X072838Y010965D01*
X072888Y006455D02*
G01X072888Y010965D01*
X072938Y006455D02*
G01X072938Y010965D01*
X072988Y006455D02*
G01X072988Y010965D01*
X073038Y006455D02*
G01X073038Y010965D01*
X073088Y006455D02*
G01X073088Y010965D01*
X073138Y006455D02*
G01X073138Y010965D01*
X073188Y006455D02*
G01X073188Y010965D01*
X073238Y006455D02*
G01X073238Y010965D01*
X073288Y006455D02*
G01X073288Y010965D01*
X073338Y006455D02*
G01X073338Y010965D01*
X073388Y006455D02*
G01X073388Y010965D01*
X073438Y006455D02*
G01X073438Y010965D01*
X073488Y006455D02*
G01X073488Y010965D01*
X073538Y006455D02*
G01X073538Y010965D01*
X073588Y006455D02*
G01X073588Y010965D01*
X073638Y006455D02*
G01X073638Y010965D01*
X073688Y006455D02*
G01X073688Y010965D01*
X073738Y006455D02*
G01X073738Y010965D01*
X073788Y006455D02*
G01X073788Y010965D01*
X073838Y006455D02*
G01X073838Y010965D01*
X073888Y006455D02*
G01X073888Y010965D01*
X073938Y006455D02*
G01X073938Y010965D01*
X073988Y006455D02*
G01X073988Y010965D01*
X074038Y006455D02*
G01X074038Y010965D01*
X074088Y006455D02*
G01X074088Y010965D01*
X074138Y006455D02*
G01X074138Y010965D01*
X074188Y006455D02*
G01X074188Y010965D01*
X074238Y006455D02*
G01X074238Y010965D01*
X074288Y006455D02*
G01X074288Y010965D01*
X074338Y006455D02*
G01X074338Y010965D01*
X074388Y006455D02*
G01X074388Y010965D01*
X074438Y006455D02*
G01X074438Y010965D01*
X074488Y006455D02*
G01X074488Y010965D01*
X074538Y006455D02*
G01X074538Y010965D01*
X074588Y006455D02*
G01X074588Y010965D01*
X074638Y006455D02*
G01X074638Y010965D01*
X074688Y006455D02*
G01X074688Y010965D01*
X074738Y006455D02*
G01X074738Y010965D01*
X074788Y006455D02*
G01X074788Y010965D01*
X074838Y006455D02*
G01X074838Y010965D01*
X074888Y006455D02*
G01X074888Y010965D01*
X074938Y006455D02*
G01X074938Y010965D01*
X074988Y006455D02*
G01X074988Y010965D01*
X075038Y006455D02*
G01X075038Y010965D01*
X075088Y006455D02*
G01X075088Y010965D01*
X075138Y006455D02*
G01X075138Y010965D01*
X075188Y006455D02*
G01X075188Y010965D01*
X075238Y006455D02*
G01X075238Y010965D01*
X075288Y006455D02*
G01X075288Y010965D01*
X075338Y006455D02*
G01X075338Y010965D01*
X075388Y006455D02*
G01X075388Y010965D01*
X075438Y006455D02*
G01X075438Y010965D01*
X075488Y006455D02*
G01X075488Y010965D01*
X075538Y006455D02*
G01X075538Y010965D01*
X075588Y006455D02*
G01X075588Y010965D01*
X075638Y006455D02*
G01X075638Y010965D01*
X075688Y006455D02*
G01X075688Y010965D01*
X075738Y006455D02*
G01X075738Y010965D01*
X075788Y006455D02*
G01X075788Y010965D01*
X075838Y006455D02*
G01X075838Y010965D01*
X075888Y006455D02*
G01X075888Y010965D01*
X075938Y006455D02*
G01X075938Y010965D01*
X075988Y006455D02*
G01X075988Y010965D01*
X076038Y006455D02*
G01X076038Y010965D01*
X076088Y006455D02*
G01X076088Y010965D01*
X076138Y006455D02*
G01X076138Y010965D01*
X076188Y006455D02*
G01X076188Y010965D01*
X076238Y006455D02*
G01X076238Y010965D01*
X076288Y006455D02*
G01X076288Y010965D01*
X076338Y006455D02*
G01X076338Y010965D01*
X076388Y006455D02*
G01X076388Y010965D01*
X076438Y006455D02*
G01X076438Y010965D01*
X076488Y006455D02*
G01X076488Y010965D01*
X076538Y006455D02*
G01X076538Y010965D01*
X076588Y006455D02*
G01X076588Y010965D01*
X076638Y006455D02*
G01X076638Y010965D01*
X075363Y011460D02*
G01X075363Y005960D01*
X076218Y005960D01*
X076218Y011460D01*
X075363Y011460D01*
X075388Y005960D02*
G01X075388Y011460D01*
X075438Y005960D02*
G01X075438Y011460D01*
X075488Y005960D02*
G01X075488Y011460D01*
X075538Y005960D02*
G01X075538Y011460D01*
X075588Y005960D02*
G01X075588Y011460D01*
X075638Y005960D02*
G01X075638Y011460D01*
X075688Y005960D02*
G01X075688Y011460D01*
X075738Y005960D02*
G01X075738Y011460D01*
X075788Y005960D02*
G01X075788Y011460D01*
X075838Y005960D02*
G01X075838Y011460D01*
X075888Y005960D02*
G01X075888Y011460D01*
X075938Y005960D02*
G01X075938Y011460D01*
X075988Y005960D02*
G01X075988Y011460D01*
X076038Y005960D02*
G01X076038Y011460D01*
X076088Y005960D02*
G01X076088Y011460D01*
X076138Y005960D02*
G01X076138Y011460D01*
X076188Y005960D02*
G01X076188Y011460D01*
G54D296*
X018738Y000000D02*
G01X038738Y000000D01*
X038738Y005000D01*
X041738Y005000D01*
X041738Y000000D01*
X061738Y000000D01*
X061738Y005000D01*
X064738Y005000D01*
X064738Y000000D01*
X084738Y000000D01*
X084738Y042000D01*
X064738Y042000D01*
X064738Y036500D01*
X061738Y036500D01*
X061738Y047000D01*
X041738Y047000D01*
X041738Y045000D01*
X038738Y045000D01*
X038738Y050000D01*
X018738Y050000D01*
X018738Y000000D01*
X038738Y040000D02*
G01X041738Y040000D01*
X041738Y010000D01*
X038738Y010000D01*
X038738Y040000D01*
X018738Y000000D02*
G01X038738Y000000D01*
X038738Y005000D01*
X041738Y005000D01*
X041738Y000000D01*
X061738Y000000D01*
X061738Y005000D01*
X064738Y005000D01*
X064738Y000000D01*
X084738Y000000D01*
X084738Y042000D01*
X064738Y042000D01*
X064738Y036500D01*
X061738Y036500D01*
X061738Y047000D01*
X041738Y047000D01*
X041738Y045000D01*
X038738Y045000D01*
X038738Y050000D01*
X018738Y050000D01*
X018738Y000000D01*
X038738Y040000D02*
G01X041738Y040000D01*
X041738Y010000D01*
X038738Y010000D01*
X038738Y040000D01*
X018738Y000000D02*
G01X038738Y000000D01*
X038738Y005000D01*
X041738Y005000D01*
X041738Y000000D01*
X061738Y000000D01*
X061738Y005000D01*
X064738Y005000D01*
X064738Y000000D01*
X084738Y000000D01*
X084738Y042000D01*
X064738Y042000D01*
X064738Y036500D01*
X061738Y036500D01*
X061738Y047000D01*
X041738Y047000D01*
X041738Y045000D01*
X038738Y045000D01*
X038738Y050000D01*
X018738Y050000D01*
X018738Y000000D01*
X038738Y040000D02*
G01X041738Y040000D01*
X041738Y010000D01*
X038738Y010000D01*
X038738Y040000D01*
X018738Y000000D02*
G01X038738Y000000D01*
X038738Y005000D01*
X041738Y005000D01*
X041738Y000000D01*
X061738Y000000D01*
X061738Y005000D01*
X064738Y005000D01*
X064738Y000000D01*
X084738Y000000D01*
X084738Y042000D01*
X064738Y042000D01*
X064738Y036500D01*
X061738Y036500D01*
X061738Y047000D01*
X041738Y047000D01*
X041738Y045000D01*
X038738Y045000D01*
X038738Y050000D01*
X018738Y050000D01*
X018738Y000000D01*
X038738Y040000D02*
G01X041738Y040000D01*
X041738Y010000D01*
X038738Y010000D01*
X038738Y040000D01*
X020458Y025515D02*
G01X037058Y025515D01*
X037058Y046515D01*
X020458Y046515D01*
X020458Y025515D01*
X018738Y000000D02*
G01X038738Y000000D01*
X038738Y005000D01*
X041738Y005000D01*
X041738Y000000D01*
X061738Y000000D01*
X061738Y005000D01*
X064738Y005000D01*
X064738Y000000D01*
X084738Y000000D01*
X084738Y042000D01*
X064738Y042000D01*
X064738Y036500D01*
X061738Y036500D01*
X061738Y047000D01*
X041738Y047000D01*
X041738Y045000D01*
X038738Y045000D01*
X038738Y050000D01*
X018738Y050000D01*
X018738Y000000D01*
X038738Y040000D02*
G01X041738Y040000D01*
X041738Y010000D01*
X038738Y010000D01*
X038738Y040000D01*
X043433Y020750D02*
G01X060033Y020750D01*
X060033Y041750D01*
X043433Y041750D01*
X043433Y020750D01*
X061738Y010500D02*
G01X064738Y010500D01*
X064738Y031000D01*
X061738Y031000D01*
X061738Y010500D01*
X061738Y010500D02*
G01X064738Y010500D01*
X064738Y031000D01*
X061738Y031000D01*
X061738Y010500D01*
X061738Y010500D02*
G01X064738Y010500D01*
X064738Y031000D01*
X061738Y031000D01*
X061738Y010500D01*
X061738Y010500D02*
G01X064738Y010500D01*
X064738Y031000D01*
X061738Y031000D01*
X061738Y010500D01*
X061738Y010500D02*
G01X064738Y010500D01*
X064738Y031000D01*
X061738Y031000D01*
X061738Y010500D01*
X066458Y015795D02*
G01X083058Y015795D01*
X083058Y036795D01*
X066458Y036795D01*
X066458Y015795D01*
X041738Y045380D02*
G01X041738Y039680D01*
X038738Y045380D02*
G01X038738Y039680D01*
X041738Y010380D02*
G01X041738Y004680D01*
X038738Y010380D02*
G01X038738Y004680D01*
X064738Y010380D02*
G01X064738Y004680D01*
X061738Y010380D02*
G01X061738Y004680D01*
X064738Y036380D02*
G01X064738Y030680D01*
X061738Y036380D02*
G01X061738Y030680D01*
M02*
