%FSDAX33Y33*%
%MOMM*%
%SFA1.000B1.000*%

%MIA0B0*%
%IPPOS*%
%ADD130C,0.10008*%
%ADD137C,0.59995*%
%LNSO*%
%LPD*%
G54D137*
X019738Y005500D03*
X019738Y001000D03*
X025238Y001000D03*
X027738Y003000D03*
X027738Y001000D03*
X022438Y001000D03*
X022438Y002900D03*
X027638Y009800D03*
X028288Y009800D03*
X020438Y009900D03*
X019688Y009900D03*
X025778Y005740D03*
X025778Y006400D03*
X026558Y005740D03*
X026558Y006400D03*
X026558Y007060D03*
X025778Y007060D03*
X029438Y007700D03*
X033438Y008500D03*
X037738Y006000D03*
X030738Y001000D03*
X034738Y001000D03*
X037738Y001000D03*
X037738Y003000D03*
X048538Y004300D03*
X045938Y009950D03*
X044688Y009950D03*
X043388Y009950D03*
X042338Y008600D03*
X042338Y004600D03*
X042338Y000600D03*
X048538Y000600D03*
X045538Y001000D03*
X045538Y002800D03*
X048738Y005740D03*
X048738Y006400D03*
X048738Y007060D03*
X034738Y004800D03*
X060738Y010000D03*
X060738Y005500D03*
X056438Y009200D03*
X052488Y007800D03*
X053388Y009950D03*
X052188Y009950D03*
X050888Y009950D03*
X050738Y003000D03*
X050738Y001000D03*
X053338Y000800D03*
X058138Y000800D03*
X060738Y001000D03*
X060738Y003000D03*
X065738Y005500D03*
X067738Y001000D03*
X065918Y002180D03*
X065918Y003640D03*
X049638Y006400D03*
X049638Y005740D03*
X049638Y007060D03*
X057638Y004750D03*
X069738Y002500D03*
X069738Y005000D03*
X083738Y008000D03*
X083738Y003500D03*
X079238Y001000D03*
X072238Y001000D03*
X078518Y005700D03*
X077838Y004340D03*
X074998Y004300D03*
X074298Y005760D03*
X079418Y009040D03*
X083858Y000840D03*
X081898Y000840D03*
X070818Y006820D03*
X070818Y008100D03*
X070818Y009380D03*
X078118Y006800D03*
X078118Y008060D03*
X078118Y009340D03*
X080158Y007660D03*
X075298Y002400D03*
X074638Y002400D03*
X073978Y002400D03*
X073978Y003060D03*
X074638Y003060D03*
X075298Y003060D03*
X022238Y010600D03*
X028288Y010900D03*
X027638Y010900D03*
X027638Y012000D03*
X028288Y012000D03*
X019688Y010900D03*
X020438Y010900D03*
X020438Y011950D03*
X019688Y011950D03*
X026598Y024400D03*
X025838Y024400D03*
X025838Y023740D03*
X026598Y023740D03*
X026598Y023080D03*
X025838Y023080D03*
X030038Y010700D03*
X034238Y015000D03*
X037738Y019500D03*
X037738Y012000D03*
X048838Y020000D03*
X048838Y019200D03*
X048838Y018400D03*
X056738Y011500D03*
X060738Y015000D03*
X049538Y019200D03*
X049538Y020000D03*
X049538Y018400D03*
X081938Y010580D03*
X083838Y010580D03*
X071838Y014740D03*
X071838Y014040D03*
X072598Y014740D03*
X072598Y014040D03*
X072598Y013360D03*
X071838Y013360D03*
X027238Y049200D03*
X026138Y049200D03*
X026138Y048200D03*
X027238Y048200D03*
X028338Y048200D03*
X027238Y047100D03*
X026138Y047100D03*
X028338Y047100D03*
X028338Y049200D03*
X048838Y042300D03*
X048838Y044300D03*
X048838Y046200D03*
X050738Y042300D03*
X050738Y046200D03*
X050738Y044300D03*
X052738Y044300D03*
X052738Y042300D03*
X052738Y046200D03*
X072138Y039400D03*
X073938Y039400D03*
X075938Y039400D03*
X075938Y037600D03*
X073938Y037600D03*
X072138Y037600D03*
X073938Y041200D03*
X075938Y041200D03*
X072138Y041200D03*
G54D130*
X071488Y015019D02*
G01X071559Y015090D01*
X072867Y015090D01*
X072938Y015019D01*
X072938Y004329D01*
X073717Y003550D01*
X075588Y003550D01*
X075588Y001650D01*
X073259Y001650D01*
X071488Y003421D01*
X071488Y015019D01*
X025498Y025389D02*
G01X025569Y025460D01*
X026867Y025460D01*
X026938Y025389D01*
X026938Y005470D01*
X025498Y005470D01*
X025498Y025389D01*
X048468Y020619D02*
G01X048539Y020690D01*
X049837Y020690D01*
X049908Y020619D01*
X049908Y005400D01*
X048468Y005400D01*
X048468Y020619D01*
X071488Y003540D02*
G01X075588Y003540D01*
X071488Y003450D02*
G01X075588Y003450D01*
X071549Y003360D02*
G01X075588Y003360D01*
X071639Y003270D02*
G01X075588Y003270D01*
X071729Y003180D02*
G01X075588Y003180D01*
X071819Y003090D02*
G01X075588Y003090D01*
X071909Y003000D02*
G01X075588Y003000D01*
X071999Y002910D02*
G01X075588Y002910D01*
X072089Y002820D02*
G01X075588Y002820D01*
X072179Y002730D02*
G01X075588Y002730D01*
X072269Y002640D02*
G01X075588Y002640D01*
X072359Y002550D02*
G01X075588Y002550D01*
X072449Y002460D02*
G01X075588Y002460D01*
X072539Y002370D02*
G01X075588Y002370D01*
X072629Y002280D02*
G01X075588Y002280D01*
X072719Y002190D02*
G01X075588Y002190D01*
X072809Y002100D02*
G01X075588Y002100D01*
X072899Y002010D02*
G01X075588Y002010D01*
X072989Y001920D02*
G01X075588Y001920D01*
X073079Y001830D02*
G01X075588Y001830D01*
X073169Y001740D02*
G01X075588Y001740D01*
X071488Y003630D02*
G01X073638Y003630D01*
X071488Y003720D02*
G01X073548Y003720D01*
X071488Y003810D02*
G01X073458Y003810D01*
X071488Y003900D02*
G01X073368Y003900D01*
X071488Y003990D02*
G01X073278Y003990D01*
X071488Y004080D02*
G01X073188Y004080D01*
X071488Y004170D02*
G01X073098Y004170D01*
X071488Y004260D02*
G01X073008Y004260D01*
X071488Y014970D02*
G01X072938Y014970D01*
X071488Y014880D02*
G01X072938Y014880D01*
X071488Y014790D02*
G01X072938Y014790D01*
X071488Y014700D02*
G01X072938Y014700D01*
X071488Y014610D02*
G01X072938Y014610D01*
X071488Y014520D02*
G01X072938Y014520D01*
X071488Y014430D02*
G01X072938Y014430D01*
X071488Y014340D02*
G01X072938Y014340D01*
X071488Y014250D02*
G01X072938Y014250D01*
X071488Y014160D02*
G01X072938Y014160D01*
X071488Y014070D02*
G01X072938Y014070D01*
X071488Y013980D02*
G01X072938Y013980D01*
X071488Y013890D02*
G01X072938Y013890D01*
X071488Y013800D02*
G01X072938Y013800D01*
X071488Y013710D02*
G01X072938Y013710D01*
X071488Y013620D02*
G01X072938Y013620D01*
X071488Y013530D02*
G01X072938Y013530D01*
X071488Y013440D02*
G01X072938Y013440D01*
X071488Y013350D02*
G01X072938Y013350D01*
X071488Y013260D02*
G01X072938Y013260D01*
X071488Y013170D02*
G01X072938Y013170D01*
X071488Y013080D02*
G01X072938Y013080D01*
X071488Y012990D02*
G01X072938Y012990D01*
X071488Y012900D02*
G01X072938Y012900D01*
X071488Y012810D02*
G01X072938Y012810D01*
X071488Y012720D02*
G01X072938Y012720D01*
X071488Y012630D02*
G01X072938Y012630D01*
X071488Y012540D02*
G01X072938Y012540D01*
X071488Y012450D02*
G01X072938Y012450D01*
X071488Y012360D02*
G01X072938Y012360D01*
X071488Y012270D02*
G01X072938Y012270D01*
X071488Y012180D02*
G01X072938Y012180D01*
X071488Y012090D02*
G01X072938Y012090D01*
X071488Y012000D02*
G01X072938Y012000D01*
X071488Y011910D02*
G01X072938Y011910D01*
X071488Y011820D02*
G01X072938Y011820D01*
X071488Y011730D02*
G01X072938Y011730D01*
X071488Y011640D02*
G01X072938Y011640D01*
X071488Y011550D02*
G01X072938Y011550D01*
X071488Y011460D02*
G01X072938Y011460D01*
X071488Y011370D02*
G01X072938Y011370D01*
X071488Y011280D02*
G01X072938Y011280D01*
X071488Y011190D02*
G01X072938Y011190D01*
X071488Y011100D02*
G01X072938Y011100D01*
X071488Y011010D02*
G01X072938Y011010D01*
X071488Y010920D02*
G01X072938Y010920D01*
X071488Y010830D02*
G01X072938Y010830D01*
X071488Y010740D02*
G01X072938Y010740D01*
X071488Y010650D02*
G01X072938Y010650D01*
X071488Y010560D02*
G01X072938Y010560D01*
X071488Y010470D02*
G01X072938Y010470D01*
X071488Y010380D02*
G01X072938Y010380D01*
X071488Y010290D02*
G01X072938Y010290D01*
X071488Y010200D02*
G01X072938Y010200D01*
X071488Y010110D02*
G01X072938Y010110D01*
X071488Y010020D02*
G01X072938Y010020D01*
X071488Y009930D02*
G01X072938Y009930D01*
X071488Y009840D02*
G01X072938Y009840D01*
X071488Y009750D02*
G01X072938Y009750D01*
X071488Y009660D02*
G01X072938Y009660D01*
X071488Y009570D02*
G01X072938Y009570D01*
X071488Y009480D02*
G01X072938Y009480D01*
X071488Y009390D02*
G01X072938Y009390D01*
X071488Y009300D02*
G01X072938Y009300D01*
X071488Y009210D02*
G01X072938Y009210D01*
X071488Y009120D02*
G01X072938Y009120D01*
X071488Y009030D02*
G01X072938Y009030D01*
X071488Y008940D02*
G01X072938Y008940D01*
X071488Y008850D02*
G01X072938Y008850D01*
X071488Y008760D02*
G01X072938Y008760D01*
X071488Y008670D02*
G01X072938Y008670D01*
X071488Y008580D02*
G01X072938Y008580D01*
X071488Y008490D02*
G01X072938Y008490D01*
X071488Y008400D02*
G01X072938Y008400D01*
X071488Y008310D02*
G01X072938Y008310D01*
X071488Y008220D02*
G01X072938Y008220D01*
X071488Y008130D02*
G01X072938Y008130D01*
X071488Y008040D02*
G01X072938Y008040D01*
X071488Y007950D02*
G01X072938Y007950D01*
X071488Y007860D02*
G01X072938Y007860D01*
X071488Y007770D02*
G01X072938Y007770D01*
X071488Y007680D02*
G01X072938Y007680D01*
X071488Y007590D02*
G01X072938Y007590D01*
X071488Y007500D02*
G01X072938Y007500D01*
X071488Y007410D02*
G01X072938Y007410D01*
X071488Y007320D02*
G01X072938Y007320D01*
X071488Y007230D02*
G01X072938Y007230D01*
X071488Y007140D02*
G01X072938Y007140D01*
X071488Y007050D02*
G01X072938Y007050D01*
X071488Y006960D02*
G01X072938Y006960D01*
X071488Y006870D02*
G01X072938Y006870D01*
X071488Y006780D02*
G01X072938Y006780D01*
X071488Y006690D02*
G01X072938Y006690D01*
X071488Y006600D02*
G01X072938Y006600D01*
X071488Y006510D02*
G01X072938Y006510D01*
X071488Y006420D02*
G01X072938Y006420D01*
X071488Y006330D02*
G01X072938Y006330D01*
X071488Y006240D02*
G01X072938Y006240D01*
X071488Y006150D02*
G01X072938Y006150D01*
X071488Y006060D02*
G01X072938Y006060D01*
X071488Y005970D02*
G01X072938Y005970D01*
X071488Y005880D02*
G01X072938Y005880D01*
X071488Y005790D02*
G01X072938Y005790D01*
X071488Y005700D02*
G01X072938Y005700D01*
X071488Y005610D02*
G01X072938Y005610D01*
X071488Y005520D02*
G01X072938Y005520D01*
X071488Y005430D02*
G01X072938Y005430D01*
X071488Y005340D02*
G01X072938Y005340D01*
X071488Y005250D02*
G01X072938Y005250D01*
X071488Y005160D02*
G01X072938Y005160D01*
X071488Y005070D02*
G01X072938Y005070D01*
X071488Y004980D02*
G01X072938Y004980D01*
X071488Y004890D02*
G01X072938Y004890D01*
X071488Y004800D02*
G01X072938Y004800D01*
X071488Y004710D02*
G01X072938Y004710D01*
X071488Y004620D02*
G01X072938Y004620D01*
X071488Y004530D02*
G01X072938Y004530D01*
X071488Y004440D02*
G01X072938Y004440D01*
X071488Y004350D02*
G01X072938Y004350D01*
X071528Y015060D02*
G01X072898Y015060D01*
X025498Y025360D02*
G01X026938Y025360D01*
X025498Y025270D02*
G01X026938Y025270D01*
X025498Y025180D02*
G01X026938Y025180D01*
X025498Y025090D02*
G01X026938Y025090D01*
X025498Y025000D02*
G01X026938Y025000D01*
X025498Y024910D02*
G01X026938Y024910D01*
X025498Y024820D02*
G01X026938Y024820D01*
X025498Y024730D02*
G01X026938Y024730D01*
X025498Y024640D02*
G01X026938Y024640D01*
X025498Y024550D02*
G01X026938Y024550D01*
X025498Y024460D02*
G01X026938Y024460D01*
X025498Y024370D02*
G01X026938Y024370D01*
X025498Y024280D02*
G01X026938Y024280D01*
X025498Y024190D02*
G01X026938Y024190D01*
X025498Y024100D02*
G01X026938Y024100D01*
X025498Y024010D02*
G01X026938Y024010D01*
X025498Y023920D02*
G01X026938Y023920D01*
X025498Y023830D02*
G01X026938Y023830D01*
X025498Y023740D02*
G01X026938Y023740D01*
X025498Y023650D02*
G01X026938Y023650D01*
X025498Y023560D02*
G01X026938Y023560D01*
X025498Y023470D02*
G01X026938Y023470D01*
X025498Y023380D02*
G01X026938Y023380D01*
X025498Y023290D02*
G01X026938Y023290D01*
X025498Y023200D02*
G01X026938Y023200D01*
X025498Y023110D02*
G01X026938Y023110D01*
X025498Y023020D02*
G01X026938Y023020D01*
X025498Y022930D02*
G01X026938Y022930D01*
X025498Y022840D02*
G01X026938Y022840D01*
X025498Y022750D02*
G01X026938Y022750D01*
X025498Y022660D02*
G01X026938Y022660D01*
X025498Y022570D02*
G01X026938Y022570D01*
X025498Y022480D02*
G01X026938Y022480D01*
X025498Y022390D02*
G01X026938Y022390D01*
X025498Y022300D02*
G01X026938Y022300D01*
X025498Y022210D02*
G01X026938Y022210D01*
X025498Y022120D02*
G01X026938Y022120D01*
X025498Y022030D02*
G01X026938Y022030D01*
X025498Y021940D02*
G01X026938Y021940D01*
X025498Y021850D02*
G01X026938Y021850D01*
X025498Y021760D02*
G01X026938Y021760D01*
X025498Y021670D02*
G01X026938Y021670D01*
X025498Y021580D02*
G01X026938Y021580D01*
X025498Y021490D02*
G01X026938Y021490D01*
X025498Y021400D02*
G01X026938Y021400D01*
X025498Y021310D02*
G01X026938Y021310D01*
X025498Y021220D02*
G01X026938Y021220D01*
X025498Y021130D02*
G01X026938Y021130D01*
X025498Y021040D02*
G01X026938Y021040D01*
X025498Y020950D02*
G01X026938Y020950D01*
X025498Y020860D02*
G01X026938Y020860D01*
X025498Y020770D02*
G01X026938Y020770D01*
X025498Y020680D02*
G01X026938Y020680D01*
X025498Y020590D02*
G01X026938Y020590D01*
X025498Y020500D02*
G01X026938Y020500D01*
X025498Y020410D02*
G01X026938Y020410D01*
X025498Y020320D02*
G01X026938Y020320D01*
X025498Y020230D02*
G01X026938Y020230D01*
X025498Y020140D02*
G01X026938Y020140D01*
X025498Y020050D02*
G01X026938Y020050D01*
X025498Y019960D02*
G01X026938Y019960D01*
X025498Y019870D02*
G01X026938Y019870D01*
X025498Y019780D02*
G01X026938Y019780D01*
X025498Y019690D02*
G01X026938Y019690D01*
X025498Y019600D02*
G01X026938Y019600D01*
X025498Y019510D02*
G01X026938Y019510D01*
X025498Y019420D02*
G01X026938Y019420D01*
X025498Y019330D02*
G01X026938Y019330D01*
X025498Y019240D02*
G01X026938Y019240D01*
X025498Y019150D02*
G01X026938Y019150D01*
X025498Y019060D02*
G01X026938Y019060D01*
X025498Y018970D02*
G01X026938Y018970D01*
X025498Y018880D02*
G01X026938Y018880D01*
X025498Y018790D02*
G01X026938Y018790D01*
X025498Y018700D02*
G01X026938Y018700D01*
X025498Y018610D02*
G01X026938Y018610D01*
X025498Y018520D02*
G01X026938Y018520D01*
X025498Y018430D02*
G01X026938Y018430D01*
X025498Y018340D02*
G01X026938Y018340D01*
X025498Y018250D02*
G01X026938Y018250D01*
X025498Y018160D02*
G01X026938Y018160D01*
X025498Y018070D02*
G01X026938Y018070D01*
X025498Y017980D02*
G01X026938Y017980D01*
X025498Y017890D02*
G01X026938Y017890D01*
X025498Y017800D02*
G01X026938Y017800D01*
X025498Y017710D02*
G01X026938Y017710D01*
X025498Y017620D02*
G01X026938Y017620D01*
X025498Y017530D02*
G01X026938Y017530D01*
X025498Y017440D02*
G01X026938Y017440D01*
X025498Y017350D02*
G01X026938Y017350D01*
X025498Y017260D02*
G01X026938Y017260D01*
X025498Y017170D02*
G01X026938Y017170D01*
X025498Y017080D02*
G01X026938Y017080D01*
X025498Y016990D02*
G01X026938Y016990D01*
X025498Y016900D02*
G01X026938Y016900D01*
X025498Y016810D02*
G01X026938Y016810D01*
X025498Y016720D02*
G01X026938Y016720D01*
X025498Y016630D02*
G01X026938Y016630D01*
X025498Y016540D02*
G01X026938Y016540D01*
X025498Y016450D02*
G01X026938Y016450D01*
X025498Y016360D02*
G01X026938Y016360D01*
X025498Y016270D02*
G01X026938Y016270D01*
X025498Y016180D02*
G01X026938Y016180D01*
X025498Y016090D02*
G01X026938Y016090D01*
X025498Y016000D02*
G01X026938Y016000D01*
X025498Y015910D02*
G01X026938Y015910D01*
X025498Y015820D02*
G01X026938Y015820D01*
X025498Y015730D02*
G01X026938Y015730D01*
X025498Y015640D02*
G01X026938Y015640D01*
X025498Y015550D02*
G01X026938Y015550D01*
X025498Y015460D02*
G01X026938Y015460D01*
X025498Y015370D02*
G01X026938Y015370D01*
X025498Y015280D02*
G01X026938Y015280D01*
X025498Y015190D02*
G01X026938Y015190D01*
X025498Y015100D02*
G01X026938Y015100D01*
X025498Y015010D02*
G01X026938Y015010D01*
X025498Y014920D02*
G01X026938Y014920D01*
X025498Y014830D02*
G01X026938Y014830D01*
X025498Y014740D02*
G01X026938Y014740D01*
X025498Y014650D02*
G01X026938Y014650D01*
X025498Y014560D02*
G01X026938Y014560D01*
X025498Y014470D02*
G01X026938Y014470D01*
X025498Y014380D02*
G01X026938Y014380D01*
X025498Y014290D02*
G01X026938Y014290D01*
X025498Y014200D02*
G01X026938Y014200D01*
X025498Y014110D02*
G01X026938Y014110D01*
X025498Y014020D02*
G01X026938Y014020D01*
X025498Y013930D02*
G01X026938Y013930D01*
X025498Y013840D02*
G01X026938Y013840D01*
X025498Y013750D02*
G01X026938Y013750D01*
X025498Y013660D02*
G01X026938Y013660D01*
X025498Y013570D02*
G01X026938Y013570D01*
X025498Y013480D02*
G01X026938Y013480D01*
X025498Y013390D02*
G01X026938Y013390D01*
X025498Y013300D02*
G01X026938Y013300D01*
X025498Y013210D02*
G01X026938Y013210D01*
X025498Y013120D02*
G01X026938Y013120D01*
X025498Y013030D02*
G01X026938Y013030D01*
X025498Y012940D02*
G01X026938Y012940D01*
X025498Y012850D02*
G01X026938Y012850D01*
X025498Y012760D02*
G01X026938Y012760D01*
X025498Y012670D02*
G01X026938Y012670D01*
X025498Y012580D02*
G01X026938Y012580D01*
X025498Y012490D02*
G01X026938Y012490D01*
X025498Y012400D02*
G01X026938Y012400D01*
X025498Y012310D02*
G01X026938Y012310D01*
X025498Y012220D02*
G01X026938Y012220D01*
X025498Y012130D02*
G01X026938Y012130D01*
X025498Y012040D02*
G01X026938Y012040D01*
X025498Y011950D02*
G01X026938Y011950D01*
X025498Y011860D02*
G01X026938Y011860D01*
X025498Y011770D02*
G01X026938Y011770D01*
X025498Y011680D02*
G01X026938Y011680D01*
X025498Y011590D02*
G01X026938Y011590D01*
X025498Y011500D02*
G01X026938Y011500D01*
X025498Y011410D02*
G01X026938Y011410D01*
X025498Y011320D02*
G01X026938Y011320D01*
X025498Y011230D02*
G01X026938Y011230D01*
X025498Y011140D02*
G01X026938Y011140D01*
X025498Y011050D02*
G01X026938Y011050D01*
X025498Y010960D02*
G01X026938Y010960D01*
X025498Y010870D02*
G01X026938Y010870D01*
X025498Y010780D02*
G01X026938Y010780D01*
X025498Y010690D02*
G01X026938Y010690D01*
X025498Y010600D02*
G01X026938Y010600D01*
X025498Y010510D02*
G01X026938Y010510D01*
X025498Y010420D02*
G01X026938Y010420D01*
X025498Y010330D02*
G01X026938Y010330D01*
X025498Y010240D02*
G01X026938Y010240D01*
X025498Y010150D02*
G01X026938Y010150D01*
X025498Y010060D02*
G01X026938Y010060D01*
X025498Y009970D02*
G01X026938Y009970D01*
X025498Y009880D02*
G01X026938Y009880D01*
X025498Y009790D02*
G01X026938Y009790D01*
X025498Y009700D02*
G01X026938Y009700D01*
X025498Y009610D02*
G01X026938Y009610D01*
X025498Y009520D02*
G01X026938Y009520D01*
X025498Y009430D02*
G01X026938Y009430D01*
X025498Y009340D02*
G01X026938Y009340D01*
X025498Y009250D02*
G01X026938Y009250D01*
X025498Y009160D02*
G01X026938Y009160D01*
X025498Y009070D02*
G01X026938Y009070D01*
X025498Y008980D02*
G01X026938Y008980D01*
X025498Y008890D02*
G01X026938Y008890D01*
X025498Y008800D02*
G01X026938Y008800D01*
X025498Y008710D02*
G01X026938Y008710D01*
X025498Y008620D02*
G01X026938Y008620D01*
X025498Y008530D02*
G01X026938Y008530D01*
X025498Y008440D02*
G01X026938Y008440D01*
X025498Y008350D02*
G01X026938Y008350D01*
X025498Y008260D02*
G01X026938Y008260D01*
X025498Y008170D02*
G01X026938Y008170D01*
X025498Y008080D02*
G01X026938Y008080D01*
X025498Y007990D02*
G01X026938Y007990D01*
X025498Y007900D02*
G01X026938Y007900D01*
X025498Y007810D02*
G01X026938Y007810D01*
X025498Y007720D02*
G01X026938Y007720D01*
X025498Y007630D02*
G01X026938Y007630D01*
X025498Y007540D02*
G01X026938Y007540D01*
X025498Y007450D02*
G01X026938Y007450D01*
X025498Y007360D02*
G01X026938Y007360D01*
X025498Y007270D02*
G01X026938Y007270D01*
X025498Y007180D02*
G01X026938Y007180D01*
X025498Y007090D02*
G01X026938Y007090D01*
X025498Y007000D02*
G01X026938Y007000D01*
X025498Y006910D02*
G01X026938Y006910D01*
X025498Y006820D02*
G01X026938Y006820D01*
X025498Y006730D02*
G01X026938Y006730D01*
X025498Y006640D02*
G01X026938Y006640D01*
X025498Y006550D02*
G01X026938Y006550D01*
X025498Y006460D02*
G01X026938Y006460D01*
X025498Y006370D02*
G01X026938Y006370D01*
X025498Y006280D02*
G01X026938Y006280D01*
X025498Y006190D02*
G01X026938Y006190D01*
X025498Y006100D02*
G01X026938Y006100D01*
X025498Y006010D02*
G01X026938Y006010D01*
X025498Y005920D02*
G01X026938Y005920D01*
X025498Y005830D02*
G01X026938Y005830D01*
X025498Y005740D02*
G01X026938Y005740D01*
X025498Y005650D02*
G01X026938Y005650D01*
X025498Y005560D02*
G01X026938Y005560D01*
X025558Y025450D02*
G01X026878Y025450D01*
X048468Y020610D02*
G01X049908Y020610D01*
X048468Y020520D02*
G01X049908Y020520D01*
X048468Y020430D02*
G01X049908Y020430D01*
X048468Y020340D02*
G01X049908Y020340D01*
X048468Y020250D02*
G01X049908Y020250D01*
X048468Y020160D02*
G01X049908Y020160D01*
X048468Y020070D02*
G01X049908Y020070D01*
X048468Y019980D02*
G01X049908Y019980D01*
X048468Y019890D02*
G01X049908Y019890D01*
X048468Y019800D02*
G01X049908Y019800D01*
X048468Y019710D02*
G01X049908Y019710D01*
X048468Y019620D02*
G01X049908Y019620D01*
X048468Y019530D02*
G01X049908Y019530D01*
X048468Y019440D02*
G01X049908Y019440D01*
X048468Y019350D02*
G01X049908Y019350D01*
X048468Y019260D02*
G01X049908Y019260D01*
X048468Y019170D02*
G01X049908Y019170D01*
X048468Y019080D02*
G01X049908Y019080D01*
X048468Y018990D02*
G01X049908Y018990D01*
X048468Y018900D02*
G01X049908Y018900D01*
X048468Y018810D02*
G01X049908Y018810D01*
X048468Y018720D02*
G01X049908Y018720D01*
X048468Y018630D02*
G01X049908Y018630D01*
X048468Y018540D02*
G01X049908Y018540D01*
X048468Y018450D02*
G01X049908Y018450D01*
X048468Y018360D02*
G01X049908Y018360D01*
X048468Y018270D02*
G01X049908Y018270D01*
X048468Y018180D02*
G01X049908Y018180D01*
X048468Y018090D02*
G01X049908Y018090D01*
X048468Y018000D02*
G01X049908Y018000D01*
X048468Y017910D02*
G01X049908Y017910D01*
X048468Y017820D02*
G01X049908Y017820D01*
X048468Y017730D02*
G01X049908Y017730D01*
X048468Y017640D02*
G01X049908Y017640D01*
X048468Y017550D02*
G01X049908Y017550D01*
X048468Y017460D02*
G01X049908Y017460D01*
X048468Y017370D02*
G01X049908Y017370D01*
X048468Y017280D02*
G01X049908Y017280D01*
X048468Y017190D02*
G01X049908Y017190D01*
X048468Y017100D02*
G01X049908Y017100D01*
X048468Y017010D02*
G01X049908Y017010D01*
X048468Y016920D02*
G01X049908Y016920D01*
X048468Y016830D02*
G01X049908Y016830D01*
X048468Y016740D02*
G01X049908Y016740D01*
X048468Y016650D02*
G01X049908Y016650D01*
X048468Y016560D02*
G01X049908Y016560D01*
X048468Y016470D02*
G01X049908Y016470D01*
X048468Y016380D02*
G01X049908Y016380D01*
X048468Y016290D02*
G01X049908Y016290D01*
X048468Y016200D02*
G01X049908Y016200D01*
X048468Y016110D02*
G01X049908Y016110D01*
X048468Y016020D02*
G01X049908Y016020D01*
X048468Y015930D02*
G01X049908Y015930D01*
X048468Y015840D02*
G01X049908Y015840D01*
X048468Y015750D02*
G01X049908Y015750D01*
X048468Y015660D02*
G01X049908Y015660D01*
X048468Y015570D02*
G01X049908Y015570D01*
X048468Y015480D02*
G01X049908Y015480D01*
X048468Y015390D02*
G01X049908Y015390D01*
X048468Y015300D02*
G01X049908Y015300D01*
X048468Y015210D02*
G01X049908Y015210D01*
X048468Y015120D02*
G01X049908Y015120D01*
X048468Y015030D02*
G01X049908Y015030D01*
X048468Y014940D02*
G01X049908Y014940D01*
X048468Y014850D02*
G01X049908Y014850D01*
X048468Y014760D02*
G01X049908Y014760D01*
X048468Y014670D02*
G01X049908Y014670D01*
X048468Y014580D02*
G01X049908Y014580D01*
X048468Y014490D02*
G01X049908Y014490D01*
X048468Y014400D02*
G01X049908Y014400D01*
X048468Y014310D02*
G01X049908Y014310D01*
X048468Y014220D02*
G01X049908Y014220D01*
X048468Y014130D02*
G01X049908Y014130D01*
X048468Y014040D02*
G01X049908Y014040D01*
X048468Y013950D02*
G01X049908Y013950D01*
X048468Y013860D02*
G01X049908Y013860D01*
X048468Y013770D02*
G01X049908Y013770D01*
X048468Y013680D02*
G01X049908Y013680D01*
X048468Y013590D02*
G01X049908Y013590D01*
X048468Y013500D02*
G01X049908Y013500D01*
X048468Y013410D02*
G01X049908Y013410D01*
X048468Y013320D02*
G01X049908Y013320D01*
X048468Y013230D02*
G01X049908Y013230D01*
X048468Y013140D02*
G01X049908Y013140D01*
X048468Y013050D02*
G01X049908Y013050D01*
X048468Y012960D02*
G01X049908Y012960D01*
X048468Y012870D02*
G01X049908Y012870D01*
X048468Y012780D02*
G01X049908Y012780D01*
X048468Y012690D02*
G01X049908Y012690D01*
X048468Y012600D02*
G01X049908Y012600D01*
X048468Y012510D02*
G01X049908Y012510D01*
X048468Y012420D02*
G01X049908Y012420D01*
X048468Y012330D02*
G01X049908Y012330D01*
X048468Y012240D02*
G01X049908Y012240D01*
X048468Y012150D02*
G01X049908Y012150D01*
X048468Y012060D02*
G01X049908Y012060D01*
X048468Y011970D02*
G01X049908Y011970D01*
X048468Y011880D02*
G01X049908Y011880D01*
X048468Y011790D02*
G01X049908Y011790D01*
X048468Y011700D02*
G01X049908Y011700D01*
X048468Y011610D02*
G01X049908Y011610D01*
X048468Y011520D02*
G01X049908Y011520D01*
X048468Y011430D02*
G01X049908Y011430D01*
X048468Y011340D02*
G01X049908Y011340D01*
X048468Y011250D02*
G01X049908Y011250D01*
X048468Y011160D02*
G01X049908Y011160D01*
X048468Y011070D02*
G01X049908Y011070D01*
X048468Y010980D02*
G01X049908Y010980D01*
X048468Y010890D02*
G01X049908Y010890D01*
X048468Y010800D02*
G01X049908Y010800D01*
X048468Y010710D02*
G01X049908Y010710D01*
X048468Y010620D02*
G01X049908Y010620D01*
X048468Y010530D02*
G01X049908Y010530D01*
X048468Y010440D02*
G01X049908Y010440D01*
X048468Y010350D02*
G01X049908Y010350D01*
X048468Y010260D02*
G01X049908Y010260D01*
X048468Y010170D02*
G01X049908Y010170D01*
X048468Y010080D02*
G01X049908Y010080D01*
X048468Y009990D02*
G01X049908Y009990D01*
X048468Y009900D02*
G01X049908Y009900D01*
X048468Y009810D02*
G01X049908Y009810D01*
X048468Y009720D02*
G01X049908Y009720D01*
X048468Y009630D02*
G01X049908Y009630D01*
X048468Y009540D02*
G01X049908Y009540D01*
X048468Y009450D02*
G01X049908Y009450D01*
X048468Y009360D02*
G01X049908Y009360D01*
X048468Y009270D02*
G01X049908Y009270D01*
X048468Y009180D02*
G01X049908Y009180D01*
X048468Y009090D02*
G01X049908Y009090D01*
X048468Y009000D02*
G01X049908Y009000D01*
X048468Y008910D02*
G01X049908Y008910D01*
X048468Y008820D02*
G01X049908Y008820D01*
X048468Y008730D02*
G01X049908Y008730D01*
X048468Y008640D02*
G01X049908Y008640D01*
X048468Y008550D02*
G01X049908Y008550D01*
X048468Y008460D02*
G01X049908Y008460D01*
X048468Y008370D02*
G01X049908Y008370D01*
X048468Y008280D02*
G01X049908Y008280D01*
X048468Y008190D02*
G01X049908Y008190D01*
X048468Y008100D02*
G01X049908Y008100D01*
X048468Y008010D02*
G01X049908Y008010D01*
X048468Y007920D02*
G01X049908Y007920D01*
X048468Y007830D02*
G01X049908Y007830D01*
X048468Y007740D02*
G01X049908Y007740D01*
X048468Y007650D02*
G01X049908Y007650D01*
X048468Y007560D02*
G01X049908Y007560D01*
X048468Y007470D02*
G01X049908Y007470D01*
X048468Y007380D02*
G01X049908Y007380D01*
X048468Y007290D02*
G01X049908Y007290D01*
X048468Y007200D02*
G01X049908Y007200D01*
X048468Y007110D02*
G01X049908Y007110D01*
X048468Y007020D02*
G01X049908Y007020D01*
X048468Y006930D02*
G01X049908Y006930D01*
X048468Y006840D02*
G01X049908Y006840D01*
X048468Y006750D02*
G01X049908Y006750D01*
X048468Y006660D02*
G01X049908Y006660D01*
X048468Y006570D02*
G01X049908Y006570D01*
X048468Y006480D02*
G01X049908Y006480D01*
X048468Y006390D02*
G01X049908Y006390D01*
X048468Y006300D02*
G01X049908Y006300D01*
X048468Y006210D02*
G01X049908Y006210D01*
X048468Y006120D02*
G01X049908Y006120D01*
X048468Y006030D02*
G01X049908Y006030D01*
X048468Y005940D02*
G01X049908Y005940D01*
X048468Y005850D02*
G01X049908Y005850D01*
X048468Y005760D02*
G01X049908Y005760D01*
X048468Y005670D02*
G01X049908Y005670D01*
X048468Y005580D02*
G01X049908Y005580D01*
X048468Y005490D02*
G01X049908Y005490D01*
X061660Y005237D02*
G75*
G03X061694Y005285I-000016J000047D01*
X061694Y005285D02*
G01X061694Y010215D01*
X061694Y010215D02*
G03X061660Y010263I-000050D01*
X061488Y010500D02*
G03X061660Y010263I000250J000000D01*
X061488Y010500D02*
G01X061488Y015920D01*
X061488Y015920D02*
G03X061438Y015970I-000050D01*
X061438Y015970D02*
G01X050258Y015970D01*
X050258Y015970D02*
G03X050208Y015920J-000050D01*
X050208Y015920D02*
G01X050208Y005400D01*
X049908Y005100D02*
G03X050208Y005400J000300D01*
X049908Y005100D02*
G01X048468Y005100D01*
X048168Y005400D02*
G03X048468Y005100I000300D01*
X048168Y005400D02*
G01X048168Y015920D01*
X048168Y015920D02*
G03X048118Y015970I-000050D01*
X048118Y015970D02*
G01X042038Y015970D01*
X042038Y015970D02*
G03X041988Y015920J-000050D01*
X041988Y015920D02*
G01X041988Y010000D01*
X041822Y009765D02*
G03X041988Y010000I-000084J000235D01*
X041822Y009765D02*
G03X041789Y009718I000017J-000047D01*
X041789Y009718D02*
G01X041789Y005282D01*
X041789Y005282D02*
G03X041822Y005235I000050J000000D01*
X041988Y005000D02*
G03X041822Y005235I-000250J000000D01*
X041988Y005000D02*
G01X041988Y000300D01*
X041988Y000300D02*
G03X042038Y000250I000050D01*
X042038Y000250D02*
G01X061438Y000250D01*
X061438Y000250D02*
G03X061488Y000300J000050D01*
X061488Y000300D02*
G01X061488Y005000D01*
X061660Y005237D02*
G03X061488Y005000I000078J-000237D01*
X084488Y000300D02*
G01X084488Y011400D01*
X084488Y011400D02*
G03X084438Y011450I-000050D01*
X084438Y011450D02*
G01X078838Y011450D01*
X078838Y011450D02*
G03X078788Y011400J-000050D01*
X078788Y011400D02*
G01X078788Y010990D01*
X078738Y010940D02*
G03X078788Y010990J000050D01*
X078738Y010940D02*
G01X073288Y010940D01*
X073288Y010940D02*
G03X073238Y010890J-000050D01*
X073238Y010890D02*
G01X073238Y004474D01*
X073238Y004474D02*
G03X073253Y004439I000050D01*
X073253Y004439D02*
G01X073827Y003865D01*
X073827Y003865D02*
G03X073862Y003850I000035J000035D01*
X073862Y003850D02*
G01X075588Y003850D01*
X075888Y003550D02*
G03X075588Y003850I-000300J000000D01*
X075888Y003550D02*
G01X075888Y001650D01*
X075588Y001350D02*
G03X075888Y001650J000300D01*
X075588Y001350D02*
G01X073259Y001350D01*
X073047Y001438D02*
G03X073259Y001350I000212J000212D01*
X073047Y001438D02*
G01X071276Y003209D01*
X071188Y003421D02*
G03X071276Y003209I000300D01*
X071188Y003421D02*
G01X071188Y010890D01*
X071188Y010890D02*
G03X071138Y010940I-000050D01*
X071138Y010940D02*
G01X065038Y010940D01*
X065038Y010940D02*
G03X064988Y010890I000000J-000050D01*
X064988Y010890D02*
G01X064988Y010500D01*
X064822Y010265D02*
G03X064988Y010500I-000084J000236D01*
X064822Y010265D02*
G03X064789Y010217I000017J-000047D01*
X064789Y010217D02*
G01X064789Y005282D01*
X064789Y005282D02*
G03X064822Y005235I000050J000000D01*
X064988Y005000D02*
G03X064822Y005235I-000250J000000D01*
X064988Y005000D02*
G01X064988Y000300D01*
X064988Y000300D02*
G03X065038Y000250I000050J000000D01*
X065038Y000250D02*
G01X084438Y000250D01*
X084438Y000250D02*
G03X084488Y000300J000050D01*
X038617Y005219D02*
G03X038643Y005263I-000024J000044D01*
X038643Y005263D02*
G01X038643Y009737D01*
X038643Y009737D02*
G03X038617Y009781I-000050J000000D01*
X038488Y010000D02*
G03X038617Y009781I000250J000000D01*
X038488Y010000D02*
G01X038488Y021100D01*
X038488Y021100D02*
G03X038438Y021150I-000050D01*
X038438Y021150D02*
G01X027288Y021150D01*
X027288Y021150D02*
G03X027238Y021100I000000J-000050D01*
X027238Y021100D02*
G01X027238Y005470D01*
X026938Y005170D02*
G03X027238Y005470I000000J000300D01*
X026938Y005170D02*
G01X025498Y005170D01*
X025198Y005470D02*
G03X025498Y005170I000300D01*
X025198Y005470D02*
G01X025198Y021100D01*
X025198Y021100D02*
G03X025148Y021150I-000050D01*
X025148Y021150D02*
G01X019038Y021150D01*
X019038Y021150D02*
G03X018988Y021100J-000050D01*
X018988Y021100D02*
G01X018988Y000300D01*
X018988Y000300D02*
G03X019038Y000250I000050D01*
X019038Y000250D02*
G01X038438Y000250D01*
X038438Y000250D02*
G03X038488Y000300J000050D01*
X038488Y000300D02*
G01X038488Y005000D01*
X038617Y005219D02*
G03X038488Y005000I000121J-000219D01*
X050206Y005362D02*
G01X061694Y005362D01*
X050208Y005452D02*
G01X061694Y005452D01*
X050208Y005542D02*
G01X061694Y005542D01*
X050208Y005632D02*
G01X061694Y005632D01*
X050208Y005722D02*
G01X061694Y005722D01*
X050208Y005812D02*
G01X061694Y005812D01*
X050208Y005902D02*
G01X061694Y005902D01*
X050208Y005992D02*
G01X061694Y005992D01*
X050208Y006082D02*
G01X061694Y006082D01*
X050208Y006172D02*
G01X061694Y006172D01*
X050208Y006262D02*
G01X061694Y006262D01*
X050208Y006352D02*
G01X061694Y006352D01*
X050208Y006442D02*
G01X061694Y006442D01*
X050208Y006532D02*
G01X061694Y006532D01*
X050208Y006622D02*
G01X061694Y006622D01*
X050208Y006712D02*
G01X061694Y006712D01*
X050208Y006802D02*
G01X061694Y006802D01*
X050208Y006892D02*
G01X061694Y006892D01*
X050208Y006982D02*
G01X061694Y006982D01*
X050208Y007072D02*
G01X061694Y007072D01*
X050208Y007162D02*
G01X061694Y007162D01*
X050208Y007252D02*
G01X061694Y007252D01*
X050208Y007342D02*
G01X061694Y007342D01*
X050208Y007432D02*
G01X061694Y007432D01*
X050208Y007522D02*
G01X061694Y007522D01*
X050208Y007612D02*
G01X061694Y007612D01*
X050208Y007702D02*
G01X061694Y007702D01*
X050208Y007792D02*
G01X061694Y007792D01*
X050208Y007882D02*
G01X061694Y007882D01*
X050208Y007972D02*
G01X061694Y007972D01*
X050208Y008062D02*
G01X061694Y008062D01*
X050208Y008152D02*
G01X061694Y008152D01*
X050208Y008242D02*
G01X061694Y008242D01*
X050208Y008332D02*
G01X061694Y008332D01*
X050208Y008422D02*
G01X061694Y008422D01*
X050208Y008512D02*
G01X061694Y008512D01*
X050208Y008602D02*
G01X061694Y008602D01*
X050208Y008692D02*
G01X061694Y008692D01*
X050208Y008782D02*
G01X061694Y008782D01*
X050208Y008872D02*
G01X061694Y008872D01*
X050208Y008962D02*
G01X061694Y008962D01*
X050208Y009052D02*
G01X061694Y009052D01*
X050208Y009142D02*
G01X061694Y009142D01*
X050208Y009232D02*
G01X061694Y009232D01*
X050208Y009322D02*
G01X061694Y009322D01*
X050208Y009412D02*
G01X061694Y009412D01*
X050208Y009502D02*
G01X061694Y009502D01*
X050208Y009592D02*
G01X061694Y009592D01*
X050208Y009682D02*
G01X061694Y009682D01*
X050208Y009772D02*
G01X061694Y009772D01*
X050208Y009862D02*
G01X061694Y009862D01*
X050208Y009952D02*
G01X061694Y009952D01*
X050208Y010042D02*
G01X061694Y010042D01*
X050208Y010132D02*
G01X061694Y010132D01*
X050208Y010222D02*
G01X061693Y010222D01*
X050179Y005272D02*
G01X061692Y005272D01*
X050208Y010312D02*
G01X061574Y010312D01*
X050114Y005182D02*
G01X061566Y005182D01*
X050208Y010402D02*
G01X061508Y010402D01*
X041971Y005092D02*
G01X061506Y005092D01*
X050208Y010492D02*
G01X061488Y010492D01*
X041988Y005002D02*
G01X061488Y005002D01*
X050208Y015892D02*
G01X061488Y015892D01*
X050208Y015802D02*
G01X061488Y015802D01*
X050208Y015712D02*
G01X061488Y015712D01*
X050208Y015622D02*
G01X061488Y015622D01*
X050208Y015532D02*
G01X061488Y015532D01*
X050208Y015442D02*
G01X061488Y015442D01*
X050208Y015352D02*
G01X061488Y015352D01*
X050208Y015262D02*
G01X061488Y015262D01*
X050208Y015172D02*
G01X061488Y015172D01*
X050208Y015082D02*
G01X061488Y015082D01*
X050208Y014992D02*
G01X061488Y014992D01*
X050208Y014902D02*
G01X061488Y014902D01*
X050208Y014812D02*
G01X061488Y014812D01*
X050208Y014722D02*
G01X061488Y014722D01*
X050208Y014632D02*
G01X061488Y014632D01*
X050208Y014542D02*
G01X061488Y014542D01*
X050208Y014452D02*
G01X061488Y014452D01*
X050208Y014362D02*
G01X061488Y014362D01*
X050208Y014272D02*
G01X061488Y014272D01*
X050208Y014182D02*
G01X061488Y014182D01*
X050208Y014092D02*
G01X061488Y014092D01*
X050208Y014002D02*
G01X061488Y014002D01*
X050208Y013912D02*
G01X061488Y013912D01*
X050208Y013822D02*
G01X061488Y013822D01*
X050208Y013732D02*
G01X061488Y013732D01*
X050208Y013642D02*
G01X061488Y013642D01*
X050208Y013552D02*
G01X061488Y013552D01*
X050208Y013462D02*
G01X061488Y013462D01*
X050208Y013372D02*
G01X061488Y013372D01*
X050208Y013282D02*
G01X061488Y013282D01*
X050208Y013192D02*
G01X061488Y013192D01*
X050208Y013102D02*
G01X061488Y013102D01*
X050208Y013012D02*
G01X061488Y013012D01*
X050208Y012922D02*
G01X061488Y012922D01*
X050208Y012832D02*
G01X061488Y012832D01*
X050208Y012742D02*
G01X061488Y012742D01*
X050208Y012652D02*
G01X061488Y012652D01*
X050208Y012562D02*
G01X061488Y012562D01*
X050208Y012472D02*
G01X061488Y012472D01*
X050208Y012382D02*
G01X061488Y012382D01*
X050208Y012292D02*
G01X061488Y012292D01*
X050208Y012202D02*
G01X061488Y012202D01*
X050208Y012112D02*
G01X061488Y012112D01*
X050208Y012022D02*
G01X061488Y012022D01*
X050208Y011932D02*
G01X061488Y011932D01*
X050208Y011842D02*
G01X061488Y011842D01*
X050208Y011752D02*
G01X061488Y011752D01*
X050208Y011662D02*
G01X061488Y011662D01*
X050208Y011572D02*
G01X061488Y011572D01*
X050208Y011482D02*
G01X061488Y011482D01*
X050208Y011392D02*
G01X061488Y011392D01*
X050208Y011302D02*
G01X061488Y011302D01*
X050208Y011212D02*
G01X061488Y011212D01*
X050208Y011122D02*
G01X061488Y011122D01*
X050208Y011032D02*
G01X061488Y011032D01*
X050208Y010942D02*
G01X061488Y010942D01*
X050208Y010852D02*
G01X061488Y010852D01*
X050208Y010762D02*
G01X061488Y010762D01*
X050208Y010672D02*
G01X061488Y010672D01*
X050208Y010582D02*
G01X061488Y010582D01*
X041988Y004912D02*
G01X061488Y004912D01*
X041988Y004822D02*
G01X061488Y004822D01*
X041988Y004732D02*
G01X061488Y004732D01*
X041988Y004642D02*
G01X061488Y004642D01*
X041988Y004552D02*
G01X061488Y004552D01*
X041988Y004462D02*
G01X061488Y004462D01*
X041988Y004372D02*
G01X061488Y004372D01*
X041988Y004282D02*
G01X061488Y004282D01*
X041988Y004192D02*
G01X061488Y004192D01*
X041988Y004102D02*
G01X061488Y004102D01*
X041988Y004012D02*
G01X061488Y004012D01*
X041988Y003922D02*
G01X061488Y003922D01*
X041988Y003832D02*
G01X061488Y003832D01*
X041988Y003742D02*
G01X061488Y003742D01*
X041988Y003652D02*
G01X061488Y003652D01*
X041988Y003562D02*
G01X061488Y003562D01*
X041988Y003472D02*
G01X061488Y003472D01*
X041988Y003382D02*
G01X061488Y003382D01*
X041988Y003292D02*
G01X061488Y003292D01*
X041988Y003202D02*
G01X061488Y003202D01*
X041988Y003112D02*
G01X061488Y003112D01*
X041988Y003022D02*
G01X061488Y003022D01*
X041988Y002932D02*
G01X061488Y002932D01*
X041988Y002842D02*
G01X061488Y002842D01*
X041988Y002752D02*
G01X061488Y002752D01*
X041988Y002662D02*
G01X061488Y002662D01*
X041988Y002572D02*
G01X061488Y002572D01*
X041988Y002482D02*
G01X061488Y002482D01*
X041988Y002392D02*
G01X061488Y002392D01*
X041988Y002302D02*
G01X061488Y002302D01*
X041988Y002212D02*
G01X061488Y002212D01*
X041988Y002122D02*
G01X061488Y002122D01*
X041988Y002032D02*
G01X061488Y002032D01*
X041988Y001942D02*
G01X061488Y001942D01*
X041988Y001852D02*
G01X061488Y001852D01*
X041988Y001762D02*
G01X061488Y001762D01*
X041988Y001672D02*
G01X061488Y001672D01*
X041988Y001582D02*
G01X061488Y001582D01*
X041988Y001492D02*
G01X061488Y001492D01*
X041988Y001402D02*
G01X061488Y001402D01*
X041988Y001312D02*
G01X061488Y001312D01*
X041988Y001222D02*
G01X061488Y001222D01*
X041988Y001132D02*
G01X061488Y001132D01*
X041988Y001042D02*
G01X061488Y001042D01*
X041988Y000952D02*
G01X061488Y000952D01*
X041988Y000862D02*
G01X061488Y000862D01*
X041988Y000772D02*
G01X061488Y000772D01*
X041988Y000682D02*
G01X061488Y000682D01*
X041988Y000592D02*
G01X061488Y000592D01*
X041988Y000502D02*
G01X061488Y000502D01*
X041988Y000412D02*
G01X061488Y000412D01*
X041988Y000322D02*
G01X061488Y000322D01*
X041910Y005182D02*
G01X048262Y005182D01*
X041790Y005272D02*
G01X048197Y005272D01*
X041789Y005362D02*
G01X048171Y005362D01*
X041988Y015892D02*
G01X048168Y015892D01*
X041988Y015802D02*
G01X048168Y015802D01*
X041988Y015712D02*
G01X048168Y015712D01*
X041988Y015622D02*
G01X048168Y015622D01*
X041988Y015532D02*
G01X048168Y015532D01*
X041988Y015442D02*
G01X048168Y015442D01*
X041988Y015352D02*
G01X048168Y015352D01*
X041988Y015262D02*
G01X048168Y015262D01*
X041988Y015172D02*
G01X048168Y015172D01*
X041988Y015082D02*
G01X048168Y015082D01*
X041988Y014992D02*
G01X048168Y014992D01*
X041988Y014902D02*
G01X048168Y014902D01*
X041988Y014812D02*
G01X048168Y014812D01*
X041988Y014722D02*
G01X048168Y014722D01*
X041988Y014632D02*
G01X048168Y014632D01*
X041988Y014542D02*
G01X048168Y014542D01*
X041988Y014452D02*
G01X048168Y014452D01*
X041988Y014362D02*
G01X048168Y014362D01*
X041988Y014272D02*
G01X048168Y014272D01*
X041988Y014182D02*
G01X048168Y014182D01*
X041988Y014092D02*
G01X048168Y014092D01*
X041988Y014002D02*
G01X048168Y014002D01*
X041988Y013912D02*
G01X048168Y013912D01*
X041988Y013822D02*
G01X048168Y013822D01*
X041988Y013732D02*
G01X048168Y013732D01*
X041988Y013642D02*
G01X048168Y013642D01*
X041988Y013552D02*
G01X048168Y013552D01*
X041988Y013462D02*
G01X048168Y013462D01*
X041988Y013372D02*
G01X048168Y013372D01*
X041988Y013282D02*
G01X048168Y013282D01*
X041988Y013192D02*
G01X048168Y013192D01*
X041988Y013102D02*
G01X048168Y013102D01*
X041988Y013012D02*
G01X048168Y013012D01*
X041988Y012922D02*
G01X048168Y012922D01*
X041988Y012832D02*
G01X048168Y012832D01*
X041988Y012742D02*
G01X048168Y012742D01*
X041988Y012652D02*
G01X048168Y012652D01*
X041988Y012562D02*
G01X048168Y012562D01*
X041988Y012472D02*
G01X048168Y012472D01*
X041988Y012382D02*
G01X048168Y012382D01*
X041988Y012292D02*
G01X048168Y012292D01*
X041988Y012202D02*
G01X048168Y012202D01*
X041988Y012112D02*
G01X048168Y012112D01*
X041988Y012022D02*
G01X048168Y012022D01*
X041988Y011932D02*
G01X048168Y011932D01*
X041988Y011842D02*
G01X048168Y011842D01*
X041988Y011752D02*
G01X048168Y011752D01*
X041988Y011662D02*
G01X048168Y011662D01*
X041988Y011572D02*
G01X048168Y011572D01*
X041988Y011482D02*
G01X048168Y011482D01*
X041988Y011392D02*
G01X048168Y011392D01*
X041988Y011302D02*
G01X048168Y011302D01*
X041988Y011212D02*
G01X048168Y011212D01*
X041988Y011122D02*
G01X048168Y011122D01*
X041988Y011032D02*
G01X048168Y011032D01*
X041988Y010942D02*
G01X048168Y010942D01*
X041988Y010852D02*
G01X048168Y010852D01*
X041988Y010762D02*
G01X048168Y010762D01*
X041988Y010672D02*
G01X048168Y010672D01*
X041988Y010582D02*
G01X048168Y010582D01*
X041988Y010492D02*
G01X048168Y010492D01*
X041988Y010402D02*
G01X048168Y010402D01*
X041988Y010312D02*
G01X048168Y010312D01*
X041988Y010222D02*
G01X048168Y010222D01*
X041988Y010132D02*
G01X048168Y010132D01*
X041988Y010042D02*
G01X048168Y010042D01*
X041983Y009952D02*
G01X048168Y009952D01*
X041946Y009862D02*
G01X048168Y009862D01*
X041840Y009772D02*
G01X048168Y009772D01*
X041789Y009682D02*
G01X048168Y009682D01*
X041789Y009592D02*
G01X048168Y009592D01*
X041789Y009502D02*
G01X048168Y009502D01*
X041789Y009412D02*
G01X048168Y009412D01*
X041789Y009322D02*
G01X048168Y009322D01*
X041789Y009232D02*
G01X048168Y009232D01*
X041789Y009142D02*
G01X048168Y009142D01*
X041789Y009052D02*
G01X048168Y009052D01*
X041789Y008962D02*
G01X048168Y008962D01*
X041789Y008872D02*
G01X048168Y008872D01*
X041789Y008782D02*
G01X048168Y008782D01*
X041789Y008692D02*
G01X048168Y008692D01*
X041789Y008602D02*
G01X048168Y008602D01*
X041789Y008512D02*
G01X048168Y008512D01*
X041789Y008422D02*
G01X048168Y008422D01*
X041789Y008332D02*
G01X048168Y008332D01*
X041789Y008242D02*
G01X048168Y008242D01*
X041789Y008152D02*
G01X048168Y008152D01*
X041789Y008062D02*
G01X048168Y008062D01*
X041789Y007972D02*
G01X048168Y007972D01*
X041789Y007882D02*
G01X048168Y007882D01*
X041789Y007792D02*
G01X048168Y007792D01*
X041789Y007702D02*
G01X048168Y007702D01*
X041789Y007612D02*
G01X048168Y007612D01*
X041789Y007522D02*
G01X048168Y007522D01*
X041789Y007432D02*
G01X048168Y007432D01*
X041789Y007342D02*
G01X048168Y007342D01*
X041789Y007252D02*
G01X048168Y007252D01*
X041789Y007162D02*
G01X048168Y007162D01*
X041789Y007072D02*
G01X048168Y007072D01*
X041789Y006982D02*
G01X048168Y006982D01*
X041789Y006892D02*
G01X048168Y006892D01*
X041789Y006802D02*
G01X048168Y006802D01*
X041789Y006712D02*
G01X048168Y006712D01*
X041789Y006622D02*
G01X048168Y006622D01*
X041789Y006532D02*
G01X048168Y006532D01*
X041789Y006442D02*
G01X048168Y006442D01*
X041789Y006352D02*
G01X048168Y006352D01*
X041789Y006262D02*
G01X048168Y006262D01*
X041789Y006172D02*
G01X048168Y006172D01*
X041789Y006082D02*
G01X048168Y006082D01*
X041789Y005992D02*
G01X048168Y005992D01*
X041789Y005902D02*
G01X048168Y005902D01*
X041789Y005812D02*
G01X048168Y005812D01*
X041789Y005722D02*
G01X048168Y005722D01*
X041789Y005632D02*
G01X048168Y005632D01*
X041789Y005542D02*
G01X048168Y005542D01*
X041789Y005452D02*
G01X048168Y005452D01*
X078788Y011392D02*
G01X084488Y011392D01*
X078788Y011302D02*
G01X084488Y011302D01*
X078788Y011212D02*
G01X084488Y011212D01*
X078788Y011122D02*
G01X084488Y011122D01*
X078788Y011032D02*
G01X084488Y011032D01*
X078751Y010942D02*
G01X084488Y010942D01*
X073238Y010852D02*
G01X084488Y010852D01*
X073238Y010762D02*
G01X084488Y010762D01*
X073238Y010672D02*
G01X084488Y010672D01*
X073238Y010582D02*
G01X084488Y010582D01*
X073238Y010492D02*
G01X084488Y010492D01*
X073238Y010402D02*
G01X084488Y010402D01*
X073238Y010312D02*
G01X084488Y010312D01*
X073238Y010222D02*
G01X084488Y010222D01*
X073238Y010132D02*
G01X084488Y010132D01*
X073238Y010042D02*
G01X084488Y010042D01*
X073238Y009952D02*
G01X084488Y009952D01*
X073238Y009862D02*
G01X084488Y009862D01*
X073238Y009772D02*
G01X084488Y009772D01*
X073238Y009682D02*
G01X084488Y009682D01*
X073238Y009592D02*
G01X084488Y009592D01*
X073238Y009502D02*
G01X084488Y009502D01*
X073238Y009412D02*
G01X084488Y009412D01*
X073238Y009322D02*
G01X084488Y009322D01*
X073238Y009232D02*
G01X084488Y009232D01*
X073238Y009142D02*
G01X084488Y009142D01*
X073238Y009052D02*
G01X084488Y009052D01*
X073238Y008962D02*
G01X084488Y008962D01*
X073238Y008872D02*
G01X084488Y008872D01*
X073238Y008782D02*
G01X084488Y008782D01*
X073238Y008692D02*
G01X084488Y008692D01*
X073238Y008602D02*
G01X084488Y008602D01*
X073238Y008512D02*
G01X084488Y008512D01*
X073238Y008422D02*
G01X084488Y008422D01*
X073238Y008332D02*
G01X084488Y008332D01*
X073238Y008242D02*
G01X084488Y008242D01*
X073238Y008152D02*
G01X084488Y008152D01*
X073238Y008062D02*
G01X084488Y008062D01*
X073238Y007972D02*
G01X084488Y007972D01*
X073238Y007882D02*
G01X084488Y007882D01*
X073238Y007792D02*
G01X084488Y007792D01*
X073238Y007702D02*
G01X084488Y007702D01*
X073238Y007612D02*
G01X084488Y007612D01*
X073238Y007522D02*
G01X084488Y007522D01*
X073238Y007432D02*
G01X084488Y007432D01*
X073238Y007342D02*
G01X084488Y007342D01*
X073238Y007252D02*
G01X084488Y007252D01*
X073238Y007162D02*
G01X084488Y007162D01*
X073238Y007072D02*
G01X084488Y007072D01*
X073238Y006982D02*
G01X084488Y006982D01*
X073238Y006892D02*
G01X084488Y006892D01*
X073238Y006802D02*
G01X084488Y006802D01*
X073238Y006712D02*
G01X084488Y006712D01*
X073238Y006622D02*
G01X084488Y006622D01*
X073238Y006532D02*
G01X084488Y006532D01*
X073238Y006442D02*
G01X084488Y006442D01*
X073238Y006352D02*
G01X084488Y006352D01*
X073238Y006262D02*
G01X084488Y006262D01*
X073238Y006172D02*
G01X084488Y006172D01*
X073238Y006082D02*
G01X084488Y006082D01*
X073238Y005992D02*
G01X084488Y005992D01*
X073238Y005902D02*
G01X084488Y005902D01*
X073238Y005812D02*
G01X084488Y005812D01*
X073238Y005722D02*
G01X084488Y005722D01*
X073238Y005632D02*
G01X084488Y005632D01*
X073238Y005542D02*
G01X084488Y005542D01*
X073238Y005452D02*
G01X084488Y005452D01*
X073238Y005362D02*
G01X084488Y005362D01*
X073238Y005272D02*
G01X084488Y005272D01*
X073238Y005182D02*
G01X084488Y005182D01*
X073238Y005092D02*
G01X084488Y005092D01*
X073238Y005002D02*
G01X084488Y005002D01*
X073238Y004912D02*
G01X084488Y004912D01*
X073238Y004822D02*
G01X084488Y004822D01*
X073238Y004732D02*
G01X084488Y004732D01*
X073238Y004642D02*
G01X084488Y004642D01*
X073238Y004552D02*
G01X084488Y004552D01*
X073240Y004462D02*
G01X084488Y004462D01*
X073320Y004372D02*
G01X084488Y004372D01*
X073410Y004282D02*
G01X084488Y004282D01*
X073500Y004192D02*
G01X084488Y004192D01*
X073590Y004102D02*
G01X084488Y004102D01*
X073680Y004012D02*
G01X084488Y004012D01*
X073770Y003922D02*
G01X084488Y003922D01*
X075691Y003832D02*
G01X084488Y003832D01*
X075819Y003742D02*
G01X084488Y003742D01*
X075870Y003652D02*
G01X084488Y003652D01*
X075888Y003562D02*
G01X084488Y003562D01*
X075888Y003472D02*
G01X084488Y003472D01*
X075888Y003382D02*
G01X084488Y003382D01*
X075888Y003292D02*
G01X084488Y003292D01*
X075888Y003202D02*
G01X084488Y003202D01*
X075888Y003112D02*
G01X084488Y003112D01*
X075888Y003022D02*
G01X084488Y003022D01*
X075888Y002932D02*
G01X084488Y002932D01*
X075888Y002842D02*
G01X084488Y002842D01*
X075888Y002752D02*
G01X084488Y002752D01*
X075888Y002662D02*
G01X084488Y002662D01*
X075888Y002572D02*
G01X084488Y002572D01*
X075888Y002482D02*
G01X084488Y002482D01*
X075888Y002392D02*
G01X084488Y002392D01*
X075888Y002302D02*
G01X084488Y002302D01*
X075888Y002212D02*
G01X084488Y002212D01*
X075888Y002122D02*
G01X084488Y002122D01*
X075888Y002032D02*
G01X084488Y002032D01*
X075888Y001942D02*
G01X084488Y001942D01*
X075888Y001852D02*
G01X084488Y001852D01*
X075888Y001762D02*
G01X084488Y001762D01*
X075888Y001672D02*
G01X084488Y001672D01*
X075880Y001582D02*
G01X084488Y001582D01*
X075843Y001492D02*
G01X084488Y001492D01*
X075756Y001402D02*
G01X084488Y001402D01*
X064988Y001312D02*
G01X084488Y001312D01*
X064988Y001222D02*
G01X084488Y001222D01*
X064988Y001132D02*
G01X084488Y001132D01*
X064988Y001042D02*
G01X084488Y001042D01*
X064988Y000952D02*
G01X084488Y000952D01*
X064988Y000862D02*
G01X084488Y000862D01*
X064988Y000772D02*
G01X084488Y000772D01*
X064988Y000682D02*
G01X084488Y000682D01*
X064988Y000592D02*
G01X084488Y000592D01*
X064988Y000502D02*
G01X084488Y000502D01*
X064988Y000412D02*
G01X084488Y000412D01*
X064988Y000322D02*
G01X084488Y000322D01*
X064988Y001402D02*
G01X073090Y001402D01*
X064988Y001492D02*
G01X072993Y001492D01*
X064988Y001582D02*
G01X072903Y001582D01*
X064988Y001672D02*
G01X072813Y001672D01*
X064988Y001762D02*
G01X072723Y001762D01*
X064988Y001852D02*
G01X072633Y001852D01*
X064988Y001942D02*
G01X072543Y001942D01*
X064988Y002032D02*
G01X072453Y002032D01*
X064988Y002122D02*
G01X072363Y002122D01*
X064988Y002212D02*
G01X072273Y002212D01*
X064988Y002302D02*
G01X072183Y002302D01*
X064988Y002392D02*
G01X072093Y002392D01*
X064988Y002482D02*
G01X072003Y002482D01*
X064988Y002572D02*
G01X071913Y002572D01*
X064988Y002662D02*
G01X071823Y002662D01*
X064988Y002752D02*
G01X071733Y002752D01*
X064988Y002842D02*
G01X071643Y002842D01*
X064988Y002932D02*
G01X071553Y002932D01*
X064988Y003022D02*
G01X071463Y003022D01*
X064988Y003112D02*
G01X071373Y003112D01*
X064988Y003202D02*
G01X071283Y003202D01*
X064988Y003292D02*
G01X071217Y003292D01*
X064988Y003382D02*
G01X071191Y003382D01*
X064988Y010852D02*
G01X071188Y010852D01*
X064988Y010762D02*
G01X071188Y010762D01*
X064988Y010672D02*
G01X071188Y010672D01*
X064988Y010582D02*
G01X071188Y010582D01*
X064988Y010492D02*
G01X071188Y010492D01*
X064968Y010402D02*
G01X071188Y010402D01*
X064903Y010312D02*
G01X071188Y010312D01*
X064789Y010222D02*
G01X071188Y010222D01*
X064789Y010132D02*
G01X071188Y010132D01*
X064789Y010042D02*
G01X071188Y010042D01*
X064789Y009952D02*
G01X071188Y009952D01*
X064789Y009862D02*
G01X071188Y009862D01*
X064789Y009772D02*
G01X071188Y009772D01*
X064789Y009682D02*
G01X071188Y009682D01*
X064789Y009592D02*
G01X071188Y009592D01*
X064789Y009502D02*
G01X071188Y009502D01*
X064789Y009412D02*
G01X071188Y009412D01*
X064789Y009322D02*
G01X071188Y009322D01*
X064789Y009232D02*
G01X071188Y009232D01*
X064789Y009142D02*
G01X071188Y009142D01*
X064789Y009052D02*
G01X071188Y009052D01*
X064789Y008962D02*
G01X071188Y008962D01*
X064789Y008872D02*
G01X071188Y008872D01*
X064789Y008782D02*
G01X071188Y008782D01*
X064789Y008692D02*
G01X071188Y008692D01*
X064789Y008602D02*
G01X071188Y008602D01*
X064789Y008512D02*
G01X071188Y008512D01*
X064789Y008422D02*
G01X071188Y008422D01*
X064789Y008332D02*
G01X071188Y008332D01*
X064789Y008242D02*
G01X071188Y008242D01*
X064789Y008152D02*
G01X071188Y008152D01*
X064789Y008062D02*
G01X071188Y008062D01*
X064789Y007972D02*
G01X071188Y007972D01*
X064789Y007882D02*
G01X071188Y007882D01*
X064789Y007792D02*
G01X071188Y007792D01*
X064789Y007702D02*
G01X071188Y007702D01*
X064789Y007612D02*
G01X071188Y007612D01*
X064789Y007522D02*
G01X071188Y007522D01*
X064789Y007432D02*
G01X071188Y007432D01*
X064789Y007342D02*
G01X071188Y007342D01*
X064789Y007252D02*
G01X071188Y007252D01*
X064789Y007162D02*
G01X071188Y007162D01*
X064789Y007072D02*
G01X071188Y007072D01*
X064789Y006982D02*
G01X071188Y006982D01*
X064789Y006892D02*
G01X071188Y006892D01*
X064789Y006802D02*
G01X071188Y006802D01*
X064789Y006712D02*
G01X071188Y006712D01*
X064789Y006622D02*
G01X071188Y006622D01*
X064789Y006532D02*
G01X071188Y006532D01*
X064789Y006442D02*
G01X071188Y006442D01*
X064789Y006352D02*
G01X071188Y006352D01*
X064789Y006262D02*
G01X071188Y006262D01*
X064789Y006172D02*
G01X071188Y006172D01*
X064789Y006082D02*
G01X071188Y006082D01*
X064789Y005992D02*
G01X071188Y005992D01*
X064789Y005902D02*
G01X071188Y005902D01*
X064789Y005812D02*
G01X071188Y005812D01*
X064789Y005722D02*
G01X071188Y005722D01*
X064789Y005632D02*
G01X071188Y005632D01*
X064789Y005542D02*
G01X071188Y005542D01*
X064789Y005452D02*
G01X071188Y005452D01*
X064789Y005362D02*
G01X071188Y005362D01*
X064790Y005272D02*
G01X071188Y005272D01*
X064910Y005182D02*
G01X071188Y005182D01*
X064971Y005092D02*
G01X071188Y005092D01*
X064988Y005002D02*
G01X071188Y005002D01*
X064988Y004912D02*
G01X071188Y004912D01*
X064988Y004822D02*
G01X071188Y004822D01*
X064988Y004732D02*
G01X071188Y004732D01*
X064988Y004642D02*
G01X071188Y004642D01*
X064988Y004552D02*
G01X071188Y004552D01*
X064988Y004462D02*
G01X071188Y004462D01*
X064988Y004372D02*
G01X071188Y004372D01*
X064988Y004282D02*
G01X071188Y004282D01*
X064988Y004192D02*
G01X071188Y004192D01*
X064988Y004102D02*
G01X071188Y004102D01*
X064988Y004012D02*
G01X071188Y004012D01*
X064988Y003922D02*
G01X071188Y003922D01*
X064988Y003832D02*
G01X071188Y003832D01*
X064988Y003742D02*
G01X071188Y003742D01*
X064988Y003652D02*
G01X071188Y003652D01*
X064988Y003562D02*
G01X071188Y003562D01*
X064988Y003472D02*
G01X071188Y003472D01*
X027192Y005310D02*
G01X038643Y005310D01*
X027230Y005400D02*
G01X038643Y005400D01*
X027238Y005490D02*
G01X038643Y005490D01*
X027238Y005580D02*
G01X038643Y005580D01*
X027238Y005670D02*
G01X038643Y005670D01*
X027238Y005760D02*
G01X038643Y005760D01*
X027238Y005850D02*
G01X038643Y005850D01*
X027238Y005940D02*
G01X038643Y005940D01*
X027238Y006030D02*
G01X038643Y006030D01*
X027238Y006120D02*
G01X038643Y006120D01*
X027238Y006210D02*
G01X038643Y006210D01*
X027238Y006300D02*
G01X038643Y006300D01*
X027238Y006390D02*
G01X038643Y006390D01*
X027238Y006480D02*
G01X038643Y006480D01*
X027238Y006570D02*
G01X038643Y006570D01*
X027238Y006660D02*
G01X038643Y006660D01*
X027238Y006750D02*
G01X038643Y006750D01*
X027238Y006840D02*
G01X038643Y006840D01*
X027238Y006930D02*
G01X038643Y006930D01*
X027238Y007020D02*
G01X038643Y007020D01*
X027238Y007110D02*
G01X038643Y007110D01*
X027238Y007200D02*
G01X038643Y007200D01*
X027238Y007290D02*
G01X038643Y007290D01*
X027238Y007380D02*
G01X038643Y007380D01*
X027238Y007470D02*
G01X038643Y007470D01*
X027238Y007560D02*
G01X038643Y007560D01*
X027238Y007650D02*
G01X038643Y007650D01*
X027238Y007740D02*
G01X038643Y007740D01*
X027238Y007830D02*
G01X038643Y007830D01*
X027238Y007920D02*
G01X038643Y007920D01*
X027238Y008010D02*
G01X038643Y008010D01*
X027238Y008100D02*
G01X038643Y008100D01*
X027238Y008190D02*
G01X038643Y008190D01*
X027238Y008280D02*
G01X038643Y008280D01*
X027238Y008370D02*
G01X038643Y008370D01*
X027238Y008460D02*
G01X038643Y008460D01*
X027238Y008550D02*
G01X038643Y008550D01*
X027238Y008640D02*
G01X038643Y008640D01*
X027238Y008730D02*
G01X038643Y008730D01*
X027238Y008820D02*
G01X038643Y008820D01*
X027238Y008910D02*
G01X038643Y008910D01*
X027238Y009000D02*
G01X038643Y009000D01*
X027238Y009090D02*
G01X038643Y009090D01*
X027238Y009180D02*
G01X038643Y009180D01*
X027238Y009270D02*
G01X038643Y009270D01*
X027238Y009360D02*
G01X038643Y009360D01*
X027238Y009450D02*
G01X038643Y009450D01*
X027238Y009540D02*
G01X038643Y009540D01*
X027238Y009630D02*
G01X038643Y009630D01*
X027238Y009720D02*
G01X038643Y009720D01*
X027103Y005220D02*
G01X038619Y005220D01*
X027238Y009810D02*
G01X038576Y009810D01*
X018988Y005130D02*
G01X038524Y005130D01*
X027238Y009900D02*
G01X038509Y009900D01*
X018988Y005040D02*
G01X038491Y005040D01*
X027238Y009990D02*
G01X038488Y009990D01*
X027238Y021060D02*
G01X038488Y021060D01*
X027238Y020970D02*
G01X038488Y020970D01*
X027238Y020880D02*
G01X038488Y020880D01*
X027238Y020790D02*
G01X038488Y020790D01*
X027238Y020700D02*
G01X038488Y020700D01*
X027238Y020610D02*
G01X038488Y020610D01*
X027238Y020520D02*
G01X038488Y020520D01*
X027238Y020430D02*
G01X038488Y020430D01*
X027238Y020340D02*
G01X038488Y020340D01*
X027238Y020250D02*
G01X038488Y020250D01*
X027238Y020160D02*
G01X038488Y020160D01*
X027238Y020070D02*
G01X038488Y020070D01*
X027238Y019980D02*
G01X038488Y019980D01*
X027238Y019890D02*
G01X038488Y019890D01*
X027238Y019800D02*
G01X038488Y019800D01*
X027238Y019710D02*
G01X038488Y019710D01*
X027238Y019620D02*
G01X038488Y019620D01*
X027238Y019530D02*
G01X038488Y019530D01*
X027238Y019440D02*
G01X038488Y019440D01*
X027238Y019350D02*
G01X038488Y019350D01*
X027238Y019260D02*
G01X038488Y019260D01*
X027238Y019170D02*
G01X038488Y019170D01*
X027238Y019080D02*
G01X038488Y019080D01*
X027238Y018990D02*
G01X038488Y018990D01*
X027238Y018900D02*
G01X038488Y018900D01*
X027238Y018810D02*
G01X038488Y018810D01*
X027238Y018720D02*
G01X038488Y018720D01*
X027238Y018630D02*
G01X038488Y018630D01*
X027238Y018540D02*
G01X038488Y018540D01*
X027238Y018450D02*
G01X038488Y018450D01*
X027238Y018360D02*
G01X038488Y018360D01*
X027238Y018270D02*
G01X038488Y018270D01*
X027238Y018180D02*
G01X038488Y018180D01*
X027238Y018090D02*
G01X038488Y018090D01*
X027238Y018000D02*
G01X038488Y018000D01*
X027238Y017910D02*
G01X038488Y017910D01*
X027238Y017820D02*
G01X038488Y017820D01*
X027238Y017730D02*
G01X038488Y017730D01*
X027238Y017640D02*
G01X038488Y017640D01*
X027238Y017550D02*
G01X038488Y017550D01*
X027238Y017460D02*
G01X038488Y017460D01*
X027238Y017370D02*
G01X038488Y017370D01*
X027238Y017280D02*
G01X038488Y017280D01*
X027238Y017190D02*
G01X038488Y017190D01*
X027238Y017100D02*
G01X038488Y017100D01*
X027238Y017010D02*
G01X038488Y017010D01*
X027238Y016920D02*
G01X038488Y016920D01*
X027238Y016830D02*
G01X038488Y016830D01*
X027238Y016740D02*
G01X038488Y016740D01*
X027238Y016650D02*
G01X038488Y016650D01*
X027238Y016560D02*
G01X038488Y016560D01*
X027238Y016470D02*
G01X038488Y016470D01*
X027238Y016380D02*
G01X038488Y016380D01*
X027238Y016290D02*
G01X038488Y016290D01*
X027238Y016200D02*
G01X038488Y016200D01*
X027238Y016110D02*
G01X038488Y016110D01*
X027238Y016020D02*
G01X038488Y016020D01*
X027238Y015930D02*
G01X038488Y015930D01*
X027238Y015840D02*
G01X038488Y015840D01*
X027238Y015750D02*
G01X038488Y015750D01*
X027238Y015660D02*
G01X038488Y015660D01*
X027238Y015570D02*
G01X038488Y015570D01*
X027238Y015480D02*
G01X038488Y015480D01*
X027238Y015390D02*
G01X038488Y015390D01*
X027238Y015300D02*
G01X038488Y015300D01*
X027238Y015210D02*
G01X038488Y015210D01*
X027238Y015120D02*
G01X038488Y015120D01*
X027238Y015030D02*
G01X038488Y015030D01*
X027238Y014940D02*
G01X038488Y014940D01*
X027238Y014850D02*
G01X038488Y014850D01*
X027238Y014760D02*
G01X038488Y014760D01*
X027238Y014670D02*
G01X038488Y014670D01*
X027238Y014580D02*
G01X038488Y014580D01*
X027238Y014490D02*
G01X038488Y014490D01*
X027238Y014400D02*
G01X038488Y014400D01*
X027238Y014310D02*
G01X038488Y014310D01*
X027238Y014220D02*
G01X038488Y014220D01*
X027238Y014130D02*
G01X038488Y014130D01*
X027238Y014040D02*
G01X038488Y014040D01*
X027238Y013950D02*
G01X038488Y013950D01*
X027238Y013860D02*
G01X038488Y013860D01*
X027238Y013770D02*
G01X038488Y013770D01*
X027238Y013680D02*
G01X038488Y013680D01*
X027238Y013590D02*
G01X038488Y013590D01*
X027238Y013500D02*
G01X038488Y013500D01*
X027238Y013410D02*
G01X038488Y013410D01*
X027238Y013320D02*
G01X038488Y013320D01*
X027238Y013230D02*
G01X038488Y013230D01*
X027238Y013140D02*
G01X038488Y013140D01*
X027238Y013050D02*
G01X038488Y013050D01*
X027238Y012960D02*
G01X038488Y012960D01*
X027238Y012870D02*
G01X038488Y012870D01*
X027238Y012780D02*
G01X038488Y012780D01*
X027238Y012690D02*
G01X038488Y012690D01*
X027238Y012600D02*
G01X038488Y012600D01*
X027238Y012510D02*
G01X038488Y012510D01*
X027238Y012420D02*
G01X038488Y012420D01*
X027238Y012330D02*
G01X038488Y012330D01*
X027238Y012240D02*
G01X038488Y012240D01*
X027238Y012150D02*
G01X038488Y012150D01*
X027238Y012060D02*
G01X038488Y012060D01*
X027238Y011970D02*
G01X038488Y011970D01*
X027238Y011880D02*
G01X038488Y011880D01*
X027238Y011790D02*
G01X038488Y011790D01*
X027238Y011700D02*
G01X038488Y011700D01*
X027238Y011610D02*
G01X038488Y011610D01*
X027238Y011520D02*
G01X038488Y011520D01*
X027238Y011430D02*
G01X038488Y011430D01*
X027238Y011340D02*
G01X038488Y011340D01*
X027238Y011250D02*
G01X038488Y011250D01*
X027238Y011160D02*
G01X038488Y011160D01*
X027238Y011070D02*
G01X038488Y011070D01*
X027238Y010980D02*
G01X038488Y010980D01*
X027238Y010890D02*
G01X038488Y010890D01*
X027238Y010800D02*
G01X038488Y010800D01*
X027238Y010710D02*
G01X038488Y010710D01*
X027238Y010620D02*
G01X038488Y010620D01*
X027238Y010530D02*
G01X038488Y010530D01*
X027238Y010440D02*
G01X038488Y010440D01*
X027238Y010350D02*
G01X038488Y010350D01*
X027238Y010260D02*
G01X038488Y010260D01*
X027238Y010170D02*
G01X038488Y010170D01*
X027238Y010080D02*
G01X038488Y010080D01*
X018988Y004950D02*
G01X038488Y004950D01*
X018988Y004860D02*
G01X038488Y004860D01*
X018988Y004770D02*
G01X038488Y004770D01*
X018988Y004680D02*
G01X038488Y004680D01*
X018988Y004590D02*
G01X038488Y004590D01*
X018988Y004500D02*
G01X038488Y004500D01*
X018988Y004410D02*
G01X038488Y004410D01*
X018988Y004320D02*
G01X038488Y004320D01*
X018988Y004230D02*
G01X038488Y004230D01*
X018988Y004140D02*
G01X038488Y004140D01*
X018988Y004050D02*
G01X038488Y004050D01*
X018988Y003960D02*
G01X038488Y003960D01*
X018988Y003870D02*
G01X038488Y003870D01*
X018988Y003780D02*
G01X038488Y003780D01*
X018988Y003690D02*
G01X038488Y003690D01*
X018988Y003600D02*
G01X038488Y003600D01*
X018988Y003510D02*
G01X038488Y003510D01*
X018988Y003420D02*
G01X038488Y003420D01*
X018988Y003330D02*
G01X038488Y003330D01*
X018988Y003240D02*
G01X038488Y003240D01*
X018988Y003150D02*
G01X038488Y003150D01*
X018988Y003060D02*
G01X038488Y003060D01*
X018988Y002970D02*
G01X038488Y002970D01*
X018988Y002880D02*
G01X038488Y002880D01*
X018988Y002790D02*
G01X038488Y002790D01*
X018988Y002700D02*
G01X038488Y002700D01*
X018988Y002610D02*
G01X038488Y002610D01*
X018988Y002520D02*
G01X038488Y002520D01*
X018988Y002430D02*
G01X038488Y002430D01*
X018988Y002340D02*
G01X038488Y002340D01*
X018988Y002250D02*
G01X038488Y002250D01*
X018988Y002160D02*
G01X038488Y002160D01*
X018988Y002070D02*
G01X038488Y002070D01*
X018988Y001980D02*
G01X038488Y001980D01*
X018988Y001890D02*
G01X038488Y001890D01*
X018988Y001800D02*
G01X038488Y001800D01*
X018988Y001710D02*
G01X038488Y001710D01*
X018988Y001620D02*
G01X038488Y001620D01*
X018988Y001530D02*
G01X038488Y001530D01*
X018988Y001440D02*
G01X038488Y001440D01*
X018988Y001350D02*
G01X038488Y001350D01*
X018988Y001260D02*
G01X038488Y001260D01*
X018988Y001170D02*
G01X038488Y001170D01*
X018988Y001080D02*
G01X038488Y001080D01*
X018988Y000990D02*
G01X038488Y000990D01*
X018988Y000900D02*
G01X038488Y000900D01*
X018988Y000810D02*
G01X038488Y000810D01*
X018988Y000720D02*
G01X038488Y000720D01*
X018988Y000630D02*
G01X038488Y000630D01*
X018988Y000540D02*
G01X038488Y000540D01*
X018988Y000450D02*
G01X038488Y000450D01*
X018988Y000360D02*
G01X038488Y000360D01*
X018998Y000270D02*
G01X038478Y000270D01*
X027282Y021150D02*
G01X038444Y021150D01*
X018988Y005220D02*
G01X025333Y005220D01*
X018988Y005310D02*
G01X025244Y005310D01*
X018988Y005400D02*
G01X025206Y005400D01*
X018988Y021060D02*
G01X025198Y021060D01*
X018988Y020970D02*
G01X025198Y020970D01*
X018988Y020880D02*
G01X025198Y020880D01*
X018988Y020790D02*
G01X025198Y020790D01*
X018988Y020700D02*
G01X025198Y020700D01*
X018988Y020610D02*
G01X025198Y020610D01*
X018988Y020520D02*
G01X025198Y020520D01*
X018988Y020430D02*
G01X025198Y020430D01*
X018988Y020340D02*
G01X025198Y020340D01*
X018988Y020250D02*
G01X025198Y020250D01*
X018988Y020160D02*
G01X025198Y020160D01*
X018988Y020070D02*
G01X025198Y020070D01*
X018988Y019980D02*
G01X025198Y019980D01*
X018988Y019890D02*
G01X025198Y019890D01*
X018988Y019800D02*
G01X025198Y019800D01*
X018988Y019710D02*
G01X025198Y019710D01*
X018988Y019620D02*
G01X025198Y019620D01*
X018988Y019530D02*
G01X025198Y019530D01*
X018988Y019440D02*
G01X025198Y019440D01*
X018988Y019350D02*
G01X025198Y019350D01*
X018988Y019260D02*
G01X025198Y019260D01*
X018988Y019170D02*
G01X025198Y019170D01*
X018988Y019080D02*
G01X025198Y019080D01*
X018988Y018990D02*
G01X025198Y018990D01*
X018988Y018900D02*
G01X025198Y018900D01*
X018988Y018810D02*
G01X025198Y018810D01*
X018988Y018720D02*
G01X025198Y018720D01*
X018988Y018630D02*
G01X025198Y018630D01*
X018988Y018540D02*
G01X025198Y018540D01*
X018988Y018450D02*
G01X025198Y018450D01*
X018988Y018360D02*
G01X025198Y018360D01*
X018988Y018270D02*
G01X025198Y018270D01*
X018988Y018180D02*
G01X025198Y018180D01*
X018988Y018090D02*
G01X025198Y018090D01*
X018988Y018000D02*
G01X025198Y018000D01*
X018988Y017910D02*
G01X025198Y017910D01*
X018988Y017820D02*
G01X025198Y017820D01*
X018988Y017730D02*
G01X025198Y017730D01*
X018988Y017640D02*
G01X025198Y017640D01*
X018988Y017550D02*
G01X025198Y017550D01*
X018988Y017460D02*
G01X025198Y017460D01*
X018988Y017370D02*
G01X025198Y017370D01*
X018988Y017280D02*
G01X025198Y017280D01*
X018988Y017190D02*
G01X025198Y017190D01*
X018988Y017100D02*
G01X025198Y017100D01*
X018988Y017010D02*
G01X025198Y017010D01*
X018988Y016920D02*
G01X025198Y016920D01*
X018988Y016830D02*
G01X025198Y016830D01*
X018988Y016740D02*
G01X025198Y016740D01*
X018988Y016650D02*
G01X025198Y016650D01*
X018988Y016560D02*
G01X025198Y016560D01*
X018988Y016470D02*
G01X025198Y016470D01*
X018988Y016380D02*
G01X025198Y016380D01*
X018988Y016290D02*
G01X025198Y016290D01*
X018988Y016200D02*
G01X025198Y016200D01*
X018988Y016110D02*
G01X025198Y016110D01*
X018988Y016020D02*
G01X025198Y016020D01*
X018988Y015930D02*
G01X025198Y015930D01*
X018988Y015840D02*
G01X025198Y015840D01*
X018988Y015750D02*
G01X025198Y015750D01*
X018988Y015660D02*
G01X025198Y015660D01*
X018988Y015570D02*
G01X025198Y015570D01*
X018988Y015480D02*
G01X025198Y015480D01*
X018988Y015390D02*
G01X025198Y015390D01*
X018988Y015300D02*
G01X025198Y015300D01*
X018988Y015210D02*
G01X025198Y015210D01*
X018988Y015120D02*
G01X025198Y015120D01*
X018988Y015030D02*
G01X025198Y015030D01*
X018988Y014940D02*
G01X025198Y014940D01*
X018988Y014850D02*
G01X025198Y014850D01*
X018988Y014760D02*
G01X025198Y014760D01*
X018988Y014670D02*
G01X025198Y014670D01*
X018988Y014580D02*
G01X025198Y014580D01*
X018988Y014490D02*
G01X025198Y014490D01*
X018988Y014400D02*
G01X025198Y014400D01*
X018988Y014310D02*
G01X025198Y014310D01*
X018988Y014220D02*
G01X025198Y014220D01*
X018988Y014130D02*
G01X025198Y014130D01*
X018988Y014040D02*
G01X025198Y014040D01*
X018988Y013950D02*
G01X025198Y013950D01*
X018988Y013860D02*
G01X025198Y013860D01*
X018988Y013770D02*
G01X025198Y013770D01*
X018988Y013680D02*
G01X025198Y013680D01*
X018988Y013590D02*
G01X025198Y013590D01*
X018988Y013500D02*
G01X025198Y013500D01*
X018988Y013410D02*
G01X025198Y013410D01*
X018988Y013320D02*
G01X025198Y013320D01*
X018988Y013230D02*
G01X025198Y013230D01*
X018988Y013140D02*
G01X025198Y013140D01*
X018988Y013050D02*
G01X025198Y013050D01*
X018988Y012960D02*
G01X025198Y012960D01*
X018988Y012870D02*
G01X025198Y012870D01*
X018988Y012780D02*
G01X025198Y012780D01*
X018988Y012690D02*
G01X025198Y012690D01*
X018988Y012600D02*
G01X025198Y012600D01*
X018988Y012510D02*
G01X025198Y012510D01*
X018988Y012420D02*
G01X025198Y012420D01*
X018988Y012330D02*
G01X025198Y012330D01*
X018988Y012240D02*
G01X025198Y012240D01*
X018988Y012150D02*
G01X025198Y012150D01*
X018988Y012060D02*
G01X025198Y012060D01*
X018988Y011970D02*
G01X025198Y011970D01*
X018988Y011880D02*
G01X025198Y011880D01*
X018988Y011790D02*
G01X025198Y011790D01*
X018988Y011700D02*
G01X025198Y011700D01*
X018988Y011610D02*
G01X025198Y011610D01*
X018988Y011520D02*
G01X025198Y011520D01*
X018988Y011430D02*
G01X025198Y011430D01*
X018988Y011340D02*
G01X025198Y011340D01*
X018988Y011250D02*
G01X025198Y011250D01*
X018988Y011160D02*
G01X025198Y011160D01*
X018988Y011070D02*
G01X025198Y011070D01*
X018988Y010980D02*
G01X025198Y010980D01*
X018988Y010890D02*
G01X025198Y010890D01*
X018988Y010800D02*
G01X025198Y010800D01*
X018988Y010710D02*
G01X025198Y010710D01*
X018988Y010620D02*
G01X025198Y010620D01*
X018988Y010530D02*
G01X025198Y010530D01*
X018988Y010440D02*
G01X025198Y010440D01*
X018988Y010350D02*
G01X025198Y010350D01*
X018988Y010260D02*
G01X025198Y010260D01*
X018988Y010170D02*
G01X025198Y010170D01*
X018988Y010080D02*
G01X025198Y010080D01*
X018988Y009990D02*
G01X025198Y009990D01*
X018988Y009900D02*
G01X025198Y009900D01*
X018988Y009810D02*
G01X025198Y009810D01*
X018988Y009720D02*
G01X025198Y009720D01*
X018988Y009630D02*
G01X025198Y009630D01*
X018988Y009540D02*
G01X025198Y009540D01*
X018988Y009450D02*
G01X025198Y009450D01*
X018988Y009360D02*
G01X025198Y009360D01*
X018988Y009270D02*
G01X025198Y009270D01*
X018988Y009180D02*
G01X025198Y009180D01*
X018988Y009090D02*
G01X025198Y009090D01*
X018988Y009000D02*
G01X025198Y009000D01*
X018988Y008910D02*
G01X025198Y008910D01*
X018988Y008820D02*
G01X025198Y008820D01*
X018988Y008730D02*
G01X025198Y008730D01*
X018988Y008640D02*
G01X025198Y008640D01*
X018988Y008550D02*
G01X025198Y008550D01*
X018988Y008460D02*
G01X025198Y008460D01*
X018988Y008370D02*
G01X025198Y008370D01*
X018988Y008280D02*
G01X025198Y008280D01*
X018988Y008190D02*
G01X025198Y008190D01*
X018988Y008100D02*
G01X025198Y008100D01*
X018988Y008010D02*
G01X025198Y008010D01*
X018988Y007920D02*
G01X025198Y007920D01*
X018988Y007830D02*
G01X025198Y007830D01*
X018988Y007740D02*
G01X025198Y007740D01*
X018988Y007650D02*
G01X025198Y007650D01*
X018988Y007560D02*
G01X025198Y007560D01*
X018988Y007470D02*
G01X025198Y007470D01*
X018988Y007380D02*
G01X025198Y007380D01*
X018988Y007290D02*
G01X025198Y007290D01*
X018988Y007200D02*
G01X025198Y007200D01*
X018988Y007110D02*
G01X025198Y007110D01*
X018988Y007020D02*
G01X025198Y007020D01*
X018988Y006930D02*
G01X025198Y006930D01*
X018988Y006840D02*
G01X025198Y006840D01*
X018988Y006750D02*
G01X025198Y006750D01*
X018988Y006660D02*
G01X025198Y006660D01*
X018988Y006570D02*
G01X025198Y006570D01*
X018988Y006480D02*
G01X025198Y006480D01*
X018988Y006390D02*
G01X025198Y006390D01*
X018988Y006300D02*
G01X025198Y006300D01*
X018988Y006210D02*
G01X025198Y006210D01*
X018988Y006120D02*
G01X025198Y006120D01*
X018988Y006030D02*
G01X025198Y006030D01*
X018988Y005940D02*
G01X025198Y005940D01*
X018988Y005850D02*
G01X025198Y005850D01*
X018988Y005760D02*
G01X025198Y005760D01*
X018988Y005670D02*
G01X025198Y005670D01*
X018988Y005580D02*
G01X025198Y005580D01*
X018988Y005490D02*
G01X025198Y005490D01*
X019032Y021150D02*
G01X025154Y021150D01*
M02*
