%
T1C.01181F0S0
X014409Y009685
X015295Y007815
X02Y012756
X023307Y010236
X020236Y014567
X018091Y012913
X017618Y013819
X017402Y012913
X016929Y013228
X015157Y013268
X013661Y014094
X010787Y016693
X012756Y016693
X013543Y017283
X013937Y016299
X014839Y017008
X015551Y01761
X020157Y016142
X020866Y016102
X022913Y017008
X023307Y017795
X024173Y019843
X022953Y019291
X022205Y019961
X021732Y020079
X021299Y017835
X020866Y019764
X020157Y019764
X019606Y019764
X019055Y018268
X017559Y018661
X017165Y020157
X015906Y018307
X015118Y020236
X014252Y019488
X012362Y018661
X011181Y020236
X010787Y018661
X009681Y021543
X012953Y021811
X015079Y021496
X017874Y021417
X019055Y021417
X019055Y02063
X019213Y022362
X019921Y022362
X020236Y021614
X021063Y021319
X023858Y025157
X022008Y024764
X021732Y024488
X021398Y024823
X021118Y023319
X021098Y024579
X020807Y024882
X020433Y024764
X020236Y023386
X019921Y024094
X018898Y024094
X018858Y023386
X017913Y024331
X017874Y02378
X015906Y024567
X014331Y023386
X014213Y024213
X012362Y023386
X011736Y025
X011575Y022992
X011181Y024764
X009409Y026142
X010118Y027598
X011736Y026705
X011969Y027323
X012535Y02648
X01311Y027283
X013327Y026677
X013701Y026614
X014449Y02685
X015197Y027087
X015906Y026142
X017874Y025748
X018858Y025748
X019055Y027323
X019449Y026102
X019843Y027717
X020236Y026142
X021024Y026339
X021772Y026181
X022205Y02752
X022331Y02674
X022402Y026339
X022756Y025669
X023189Y025945
X024626Y026051
X024961Y030079
X02378Y028425
X023543Y028701
X023189Y029685
X021811Y029291
X021024Y029409
X020827Y028898
X020591Y029252
X020315Y029016
X020039Y029252
X019213Y02811
X018976Y027874
X018571Y029772
X018169Y030189
X017677Y029291
X016496Y028898
X016256Y028425
X016067Y030169
X015374Y028425
X014606Y028031
X014409Y030157
X013937Y029685
X012087Y028425
X011969Y029685
X009213Y029291
X008504Y032441
X009646Y032441
X010551Y032598
X01315Y031654
X014094Y031102
X014409Y030709
X015945Y032441
X01689Y030866
X017874Y030496
X017874Y031063
X01811Y032638
X018268Y032244
X019646Y032244
X020866Y03063
X021181Y032638
X021693Y032087
X021811Y030866
X023189Y030669
X024134Y030669
X025354Y035197
X022598Y032835
X022008Y034409
X020866Y035039
X01937Y033976
X019331Y033268
X019213Y033622
X018661Y033228
X018661Y034016
X01748Y034646
X01748Y033425
X015433Y034803
X015118Y033622
X011969Y034803
X011024Y033071
X010787Y032835
X009646Y033228
X008504Y033228
X008819Y035591
X010394Y037165
X011969Y037165
X015512Y037165
X016181Y036299
X016772Y035472
X016772Y037244
X01815Y037244
X01874Y036299
X019843Y035591
X020394Y037165
X020866Y037165
X021929Y035984
X022205Y035591
X022283Y037165
X02378Y037165
T2C.01969F0S0
X015846Y007815
X016339Y007815
X016831Y007815
X017323Y007815
X017815Y007815
X018307Y007815
T3C.02362F0S0
X010104Y033917G85X010104Y03376
X010104Y031909G85X010104Y031752
X008933Y033907G85X009209Y033907
X008933Y031762G85X009209Y031762
T4C.03937F0S0
X011732Y009252
X012717Y009252
X021535Y009252
X02252Y009252
T5C.07087F0S0
X01748Y037559
X01748Y035394
T6C.07874F0S0
X009213Y036772
X024961Y036772
M30
