*
*
G04 PADS 9.5 Build Number: 522968 generated Gerber (RS-274-X) file*
G04 PC Version=2.1*
*
%IN "Plasma_Pipette_V5.0_Mai"*%
*
%MOIN*%
*
%FSLAX35Y35*%
*
*
*
*
G04 PC Standard Apertures*
*
*
G04 Thermal Relief Aperture macro.*
%AMTER*
1,1,$1,0,0*
1,0,$1-$2,0,0*
21,0,$3,$4,0,0,45*
21,0,$3,$4,0,0,135*
%
*
*
G04 Annular Aperture macro.*
%AMANN*
1,1,$1,0,0*
1,0,$2,0,0*
%
*
*
G04 Odd Aperture macro.*
%AMODD*
1,1,$1,0,0*
1,0,$1-0.005,0,0*
%
*
*
G04 PC Custom Aperture Macros*
*
*
*
*
*
*
G04 PC Aperture Table*
*
%ADD010C,0.001*%
%ADD020C,0.00394*%
%ADD045R,0.02165X0.02165*%
%ADD046R,0.04921X0.04921*%
%ADD047O,0.08858X0.05315*%
%ADD048C,0.0374*%
%ADD050R,0.03346X0.03346*%
%ADD051C,0.08071*%
%ADD052C,0.07283*%
%ADD053R,0.06496X0.02165*%
%ADD055R,0.02559X0.04134*%
%ADD059R,0.02224X0.20197*%
%ADD060R,0.05512X0.01772*%
%ADD061R,0.08071X0.06201*%
%ADD062R,0.09055X0.04921*%
%ADD064R,0.0374X0.01772*%
%ADD065R,0.06102X0.08071*%
%ADD066R,0.08071X0.08858*%
%ADD067R,0.04921X0.07283*%
%ADD069R,0.01378X0.06102*%
%ADD070R,0.06102X0.01378*%
%ADD085R,0.03346X0.08071*%
%ADD096R,0.02953X0.04134*%
%ADD097R,0.02362X0.0252*%
%ADD105R,0.09094X0.08701*%
%ADD106R,0.07283X0.07283*%
%ADD107R,0.04134X0.04134*%
%ADD108R,0.02559X0.01575*%
%ADD109R,0.06496X0.08465*%
%ADD111R,0.0374X0.04134*%
%ADD113R,0.0374X0.06496*%
*
*
*
*
G04 PC Circuitry*
G04 Layer Name Plasma_Pipette_V5.0_Mai - circuitry*
%LPD*%
*
*
G04 PC Custom Flashes*
G04 Layer Name Plasma_Pipette_V5.0_Mai - flashes*
%LPD*%
*
*
G04 PC Circuitry*
G04 Layer Name Plasma_Pipette_V5.0_Mai - circuitry*
%LPD*%
*
G54D10*
G54D20*
G01X163091Y147539D02*
X169783D01*
Y167421*
X163091*
Y164828*
X163291Y164737*
X163683Y164535*
X164062Y164311*
X164429Y164067*
X164782Y163803*
X165120Y163521*
X165442Y163220*
X165747Y162903*
X166034Y162569*
X166303Y162220*
X166552Y161856*
X166781Y161480*
X166989Y161092*
X167175Y160693*
X167340Y160284*
X167482Y159867*
X167600Y159443*
X167696Y159013*
X167768Y158578*
X167816Y158140*
X167840Y157701*
Y157260*
X167816Y156820*
X167768Y156382*
X167696Y155948*
X167600Y155518*
X167482Y155094*
X167340Y154677*
X167175Y154268*
X166989Y153869*
X166781Y153481*
X166552Y153104*
X166303Y152741*
X166034Y152392*
X165747Y152058*
X165442Y151740*
X165120Y151440*
X164782Y151157*
X164429Y150894*
X164062Y150650*
X163683Y150426*
X163291Y150223*
X163091Y150133*
Y147539*
X163189D02*
Y150177D01*
Y164783D02*
Y167421D01*
X163386Y147539D02*
Y150272D01*
Y164688D02*
Y167421D01*
X163583Y147539D02*
Y150374D01*
Y164586D02*
Y167421D01*
X163780Y147539D02*
Y150483D01*
Y164478D02*
Y167421D01*
X163976Y147539D02*
Y150599D01*
Y164362D02*
Y167421D01*
X164173Y147539D02*
Y150723D01*
Y164237D02*
Y167421D01*
X164370Y147539D02*
Y150854D01*
Y164106D02*
Y167421D01*
X164567Y147539D02*
Y150997D01*
Y163964D02*
Y167421D01*
X164764Y147539D02*
Y151144D01*
Y163817D02*
Y167421D01*
X164961Y147539D02*
Y151307D01*
Y163654D02*
Y167421D01*
X165157Y147539D02*
Y151475D01*
Y163486D02*
Y167421D01*
X165354Y147539D02*
Y151659D01*
Y163302D02*
Y167421D01*
X165551Y147539D02*
Y151854D01*
Y163106D02*
Y167421D01*
X165748Y147539D02*
Y152060D01*
Y162901D02*
Y167421D01*
X165945Y147539D02*
Y152288D01*
Y162672D02*
Y167421D01*
X166142Y147539D02*
Y152532D01*
Y162429D02*
Y167421D01*
X166339Y147539D02*
Y152794D01*
Y162167D02*
Y167421D01*
X166535Y147539D02*
Y153081D01*
Y161880D02*
Y167421D01*
X166732Y147539D02*
Y153401D01*
Y161560D02*
Y167421D01*
X166929Y147539D02*
Y153758D01*
Y161203D02*
Y167421D01*
X167126Y147539D02*
Y154163D01*
Y160798D02*
Y167421D01*
X167323Y147539D02*
Y154635D01*
Y160326D02*
Y167421D01*
X167520Y147539D02*
Y155230D01*
Y159731D02*
Y167421D01*
X167717Y147539D02*
Y156072D01*
Y158888D02*
Y167421D01*
X167913Y147539D02*
Y167421D01*
X168110Y147539D02*
Y167421D01*
X168307Y147539D02*
Y167421D01*
X168504Y147539D02*
Y167421D01*
X168701Y147539D02*
Y167421D01*
X168898Y147539D02*
Y167421D01*
X169094Y147539D02*
Y167421D01*
X169291Y147539D02*
Y167421D01*
X169488Y147539D02*
Y167421D01*
X169685Y147539D02*
Y167421D01*
X149902Y147539D02*
X156594D01*
Y150133*
X156393Y150223*
X156393D02*
X156002Y150425D01*
X155622Y150649*
X155255Y150893*
X154902Y151156*
X154564Y151439*
X154241Y151739*
X153936Y152057*
X153648Y152391*
X153379Y152740*
X153130Y153103*
X152901Y153479*
X152692Y153868*
X152506Y154267*
X152341Y154676*
X152199Y155093*
X152080Y155517*
X151984Y155947*
X151912Y156382*
X151864Y156820*
X151840Y157260*
Y157701*
X151864Y158141*
X151912Y158579*
X151984Y159013*
X152080Y159444*
X152199Y159868*
X152341Y160285*
X152506Y160694*
X152692Y161093*
X152901Y161481*
X153130Y161858*
X153379Y162221*
X153648Y162570*
X153936Y162904*
X154241Y163222*
X154564Y163522*
X154902Y163805*
X155255Y164068*
X155622Y164312*
X156002Y164535*
X156393Y164737*
X156393D02*
X156594Y164828D01*
Y167421*
X149902*
Y147539*
X150000D02*
Y167421D01*
X150197Y147539D02*
Y167421D01*
X150394Y147539D02*
Y167421D01*
X150591Y147539D02*
Y167421D01*
X150787Y147539D02*
Y167421D01*
X150984Y147539D02*
Y167421D01*
X151181Y147539D02*
Y167421D01*
X151378Y147539D02*
Y167421D01*
X151575Y147539D02*
Y167421D01*
X151772Y147539D02*
Y167421D01*
X151969Y147539D02*
Y156043D01*
Y158918D02*
Y167421D01*
X152165Y147539D02*
Y155213D01*
Y159748D02*
Y167421D01*
X152362Y147539D02*
Y154623D01*
Y160338D02*
Y167421D01*
X152559Y147539D02*
Y154153D01*
Y160808D02*
Y167421D01*
X152756Y147539D02*
Y153749D01*
Y161211D02*
Y167421D01*
X152953Y147539D02*
Y153394D01*
Y161567D02*
Y167421D01*
X153150Y147539D02*
Y153074D01*
Y161886D02*
Y167421D01*
X153346Y147539D02*
Y152788D01*
Y162173D02*
Y167421D01*
X153543Y147539D02*
Y152527D01*
Y162434D02*
Y167421D01*
X153740Y147539D02*
Y152284D01*
Y162677D02*
Y167421D01*
X153937Y147539D02*
Y152055D01*
Y162905D02*
Y167421D01*
X154134Y147539D02*
Y151851D01*
Y163110D02*
Y167421D01*
X154331Y147539D02*
Y151656D01*
Y163305D02*
Y167421D01*
X154528Y147539D02*
Y151472D01*
Y163489D02*
Y167421D01*
X154724Y147539D02*
Y151304D01*
Y163656D02*
Y167421D01*
X154921Y147539D02*
Y151142D01*
Y163819D02*
Y167421D01*
X155118Y147539D02*
Y150995D01*
Y163966D02*
Y167421D01*
X155315Y147539D02*
Y150853D01*
Y164108D02*
Y167421D01*
X155512Y147539D02*
Y150722D01*
Y164239D02*
Y167421D01*
X155709Y147539D02*
Y150598D01*
Y164363D02*
Y167421D01*
X155906Y147539D02*
Y150482D01*
Y164478D02*
Y167421D01*
X156102Y147539D02*
Y150374D01*
Y164587D02*
Y167421D01*
X156299Y147539D02*
Y150272D01*
Y164689D02*
Y167421D01*
X156496Y147539D02*
Y150177D01*
Y164784D02*
Y167421D01*
X102224Y335531D02*
X102378Y335543D01*
X102529Y335575*
X102674Y335629*
X102810Y335703*
X102933Y335796*
X103043Y335905*
X103135Y336029*
X103209Y336164*
X103263Y336309*
X103296Y336460*
X103307Y336614*
Y343701*
X103296Y343855*
X103263Y344006*
X103209Y344151*
X103135Y344286*
X103043Y344410*
X102933Y344519*
X102810Y344612*
X102674Y344686*
X102529Y344740*
X102378Y344772*
X102224Y344783*
X99862*
X99708Y344772*
X99557Y344740*
X99412Y344686*
X99277Y344612*
X99153Y344519*
X99044Y344410*
X98951Y344286*
X98877Y344151*
X98823Y344006*
X98791Y343855*
X98780Y343701*
Y336614*
X98791Y336460*
X98823Y336309*
X98877Y336164*
X98951Y336029*
X99044Y335905*
X99153Y335796*
X99277Y335703*
X99412Y335629*
X99557Y335575*
X99708Y335543*
X99862Y335531*
X102224*
X98780Y336614D02*
Y343701D01*
X98976Y335995D02*
Y344319D01*
X99173Y335781D02*
Y344534D01*
X99370Y335652D02*
Y344662D01*
X99567Y335573D02*
Y344742D01*
X99764Y335539D02*
Y344776D01*
X99961Y335531D02*
Y344783D01*
X100157Y335531D02*
Y344783D01*
X100354Y335531D02*
Y344783D01*
X100551Y335531D02*
Y344783D01*
X100748Y335531D02*
Y344783D01*
X100945Y335531D02*
Y344783D01*
X101142Y335531D02*
Y344783D01*
X101339Y335531D02*
Y344783D01*
X101535Y335531D02*
Y344783D01*
X101732Y335531D02*
Y344783D01*
X101929Y335531D02*
Y344783D01*
X102126Y335531D02*
Y344783D01*
X102323Y335539D02*
Y344776D01*
X102520Y335573D02*
Y344742D01*
X102717Y335652D02*
Y344662D01*
X102913Y335781D02*
Y344534D01*
X103110Y335995D02*
Y344319D01*
X102224Y311909D02*
X102378Y311920D01*
X102529Y311953*
X102674Y312007*
X102810Y312081*
X102933Y312174*
X103043Y312283*
X103135Y312407*
X103209Y312542*
X103263Y312687*
X103296Y312838*
X103307Y312992*
Y320079*
X103296Y320233*
X103263Y320384*
X103209Y320529*
X103209D02*
X103135Y320664D01*
X103043Y320788*
X102933Y320897*
X102810Y320990*
X102674Y321064*
X102529Y321118*
X102378Y321150*
X102224Y321161*
X99862*
X99708Y321150*
X99557Y321118*
X99412Y321064*
X99277Y320990*
X99153Y320897*
X99044Y320788*
X98951Y320664*
X98877Y320529*
X98877D02*
X98823Y320384D01*
X98791Y320233*
X98780Y320079*
Y312992*
X98791Y312838*
X98823Y312687*
X98877Y312542*
X98951Y312407*
X99044Y312283*
X99153Y312174*
X99277Y312081*
X99412Y312007*
X99557Y311953*
X99708Y311920*
X99862Y311909*
X102224*
X98780Y312992D02*
Y320079D01*
X98976Y312373D02*
Y320697D01*
X99173Y312159D02*
Y320912D01*
X99370Y312030D02*
Y321040D01*
X99567Y311951D02*
Y321120D01*
X99764Y311916D02*
Y321154D01*
X99961Y311909D02*
Y321161D01*
X100157Y311909D02*
Y321161D01*
X100354Y311909D02*
Y321161D01*
X100551Y311909D02*
Y321161D01*
X100748Y311909D02*
Y321161D01*
X100945Y311909D02*
Y321161D01*
X101142Y311909D02*
Y321161D01*
X101339Y311909D02*
Y321161D01*
X101535Y311909D02*
Y321161D01*
X101732Y311909D02*
Y321161D01*
X101929Y311909D02*
Y321161D01*
X102126Y311909D02*
Y321161D01*
X102323Y311916D02*
Y321154D01*
X102520Y311951D02*
Y321120D01*
X102717Y312030D02*
Y321040D01*
X102913Y312159D02*
Y320912D01*
X103110Y312373D02*
Y320697D01*
X103937Y68521D02*
X237795Y68481D01*
Y129527*
X239764Y131496D02*
G75*
G03X237795Y129527I0J-1969D01*
G01X239764Y131496D02*
X243684Y131495D01*
X249134Y218110*
Y218147*
Y218152D02*
G03Y218147I74J-5D01*
G01Y218152D02*
X251613Y257480D01*
X251614*
X258582Y368059*
G03X251509Y375591I-7073J445*
G01X178739*
X178741Y375354*
X170866Y375350D02*
G03X178741Y375357I3938J124D01*
G01X170866Y375354D02*
Y375591D01*
X147244*
Y323228*
X144488Y320472D02*
G03X147244Y323228I0J2756D01*
G01X144488Y320472D02*
X126378D01*
X123622Y323228D02*
G03X126378Y320472I2756J0D01*
G01X123622Y323228D02*
Y375591D01*
X90223*
G03X83151Y368059I0J-7087*
G01X84548Y346437*
X84567Y346379*
Y344764*
X83780Y343976D02*
G03X84567Y344764I-0J788D01*
G01X83780Y343976D02*
X83583D01*
G03X82795Y343189I-0J-787*
G01Y313780*
G03X83976Y312598I1181J-0*
G01X85551*
X86732Y311417D02*
G03X85551Y312598I-1181J0D01*
G01X86732Y311417D02*
Y311153D01*
X86851Y309686*
X90136Y257480*
X90141*
X92582Y218110*
X92598*
X98039Y131496*
X101969*
X103937Y129528D02*
G03X101969Y131496I-1968J-0D01*
G01X103937Y129528D02*
Y68521D01*
G54D45*
X202362Y137008D03*
X205512D03*
X164370Y208268D03*
X167520D03*
X172441Y262992D03*
X169291D03*
X172441Y280315D03*
X169291D03*
X225984Y312598D03*
X222835D03*
X224409Y241732D03*
X221260D03*
X241732Y292913D03*
X244882D03*
X193898Y312283D03*
Y315433D03*
X172441Y288976D03*
X169291D03*
X170472Y314173D03*
X167323D03*
X115748Y165354D03*
X118898D03*
X115748Y160630D03*
X118898D03*
X172441Y284252D03*
X169291D03*
X149606Y292913D03*
X152756D03*
X205512Y133071D03*
X202362D03*
Y140945D03*
X205512D03*
X148031Y274803D03*
Y271654D03*
X172441Y272441D03*
X169291D03*
X113386Y273228D03*
Y270079D03*
X222835Y317323D03*
X225984D03*
X125197Y307087D03*
X128346D03*
X149606Y311024D03*
X152756D03*
X149606Y307087D03*
X152756D03*
X135433Y165354D03*
Y168504D03*
X131496Y140551D03*
Y137402D03*
X125197Y303150D03*
X128346D03*
X152756Y297638D03*
X149606D03*
Y301575D03*
X152756D03*
X107874Y160630D03*
X104724D03*
X159843Y284252D03*
X156693D03*
X159843Y288189D03*
X156693D03*
X162205Y176102D03*
X159055D03*
X231496Y339764D03*
X228346D03*
X231496Y336220D03*
X228346D03*
X231496Y332677D03*
X228346D03*
X201575Y188189D03*
Y191339D03*
X208661Y188189D03*
Y191339D03*
X187008Y312087D03*
Y315236D03*
X183858Y312087D03*
Y315236D03*
X227165Y181890D03*
Y185039D03*
X221260Y205512D03*
X224409D03*
X221260Y237008D03*
X224409D03*
X221260Y223622D03*
X224409D03*
X141732Y218898D03*
X138583D03*
X141732Y205512D03*
X138583D03*
Y209449D03*
X141732D03*
X138583Y214961D03*
X141732D03*
X229134Y161417D03*
Y164567D03*
X167323Y317323D03*
X170472D03*
X214173Y350394D03*
X217323D03*
X222441Y181890D03*
Y185039D03*
X162244Y171693D03*
X159094D03*
X233150Y184882D03*
Y181732D03*
X238031D03*
Y184882D03*
G54D46*
X202559Y313780D03*
X210827D03*
G54D47*
X90709Y339075D03*
Y317618D03*
G54D48*
X158465Y78150D03*
X163386D03*
X168307D03*
X173228D03*
X178150D03*
X183071D03*
G54D50*
X115354Y133071D03*
X109055D03*
X143307Y135433D03*
Y129134D03*
X188583Y134252D03*
X182283D03*
X172441Y243307D03*
X166142D03*
X241339Y310236D03*
Y316535D03*
X113386Y307087D03*
Y300787D03*
X203543Y205315D03*
X209449D03*
X203543Y223031D03*
X209449D03*
X203543Y240748D03*
X209449D03*
X155118Y96850D03*
X148819D03*
G54D51*
X92126Y367717D03*
X249606D03*
G54D52*
X174803Y375591D03*
Y353937D03*
X127165Y92520D03*
X225197D03*
G54D53*
X200492Y339764D03*
Y336220D03*
Y332677D03*
X212106D03*
Y336220D03*
Y339764D03*
G54D55*
X164370Y214173D03*
X168110D03*
X171850D03*
Y223622D03*
X164370D03*
X108071Y143307D03*
X111811D03*
X115551D03*
Y152756D03*
X108071D03*
G54D59*
X168799Y157480D03*
X150886D03*
G54D60*
X101024Y333465D03*
Y330906D03*
Y328346D03*
Y325787D03*
Y323228D03*
G54D61*
X90709Y332382D03*
Y324311D03*
G54D62*
X196949Y371850D03*
X215650D03*
X196949Y365157D03*
X215650D03*
G54D64*
X164173Y329331D03*
Y326772D03*
Y324213D03*
X172835D03*
Y329331D03*
G54D65*
X187598Y369685D03*
X162008D03*
G54D66*
X188583Y348031D03*
X161024Y351969D03*
G54D67*
X174803Y340551D03*
G54D69*
X221850Y300394D03*
X219882D03*
X217913D03*
X215945D03*
X213976D03*
X212008D03*
X210039D03*
X208071D03*
X206102D03*
X204134D03*
X202165D03*
X200197D03*
X198228D03*
X196260D03*
X194291D03*
X192323D03*
Y255512D03*
X194291D03*
X196260D03*
X198228D03*
X200197D03*
X202165D03*
X204134D03*
X206102D03*
X208071D03*
X210039D03*
X212008D03*
X213976D03*
X215945D03*
X217913D03*
X219882D03*
X221850D03*
G54D70*
X184646Y292717D03*
Y290748D03*
Y288780D03*
Y286811D03*
Y284843D03*
Y282874D03*
Y280906D03*
Y278937D03*
Y276969D03*
Y275000D03*
Y273031D03*
Y271063D03*
Y269094D03*
Y267126D03*
Y265157D03*
Y263189D03*
X229528D03*
Y265157D03*
Y267126D03*
Y269094D03*
Y271063D03*
Y273031D03*
Y275000D03*
Y276969D03*
Y278937D03*
Y280906D03*
Y282874D03*
Y284843D03*
Y286811D03*
Y288780D03*
Y290748D03*
Y292717D03*
G54D85*
X172244Y232283D03*
X163976D03*
G54D96*
X136811Y262992D03*
X129331D03*
X133071Y253543D03*
X135236Y159055D03*
X127756D03*
X131496Y149606D03*
X121063Y262992D03*
X113583D03*
X117323Y253543D03*
X151772Y262992D03*
X144291D03*
X148031Y253543D03*
X220276Y171654D03*
X212795D03*
X216535Y162205D03*
G54D97*
X169921Y94154D03*
Y102461D03*
X177008Y94154D03*
Y102461D03*
X163110Y94075D03*
Y102382D03*
G54D105*
X191732Y156102D03*
Y175394D03*
G54D106*
X117323Y92520D03*
X215354D03*
G54D107*
X216535Y147244D03*
X226772D03*
G54D108*
X154331Y139961D03*
Y136220D03*
Y132480D03*
X165354D03*
Y136220D03*
Y139961D03*
G54D109*
X159843Y136220D03*
G54D111*
X138386Y242520D03*
X124606D03*
X138386Y227165D03*
X124606D03*
X138386Y195276D03*
X124606D03*
X138386Y179921D03*
X124606D03*
X138386Y289764D03*
X124606D03*
X138386Y274409D03*
X124606D03*
G54D113*
X177953Y144685D03*
X190157D03*
G74*
X0Y0D02*
M02*
