*
*
G04 PADS 9.5 Build Number: 522968 generated Gerber (RS-274-X) file*
G04 PC Version=2.1*
*
%IN "PLASMA_PIPETTE_TRANSFOR"*%
*
%MOIN*%
*
%FSLAX35Y35*%
*
*
*
*
G04 PC Standard Apertures*
*
*
G04 Thermal Relief Aperture macro.*
%AMTER*
1,1,$1,0,0*
1,0,$1-$2,0,0*
21,0,$3,$4,0,0,45*
21,0,$3,$4,0,0,135*
%
*
*
G04 Annular Aperture macro.*
%AMANN*
1,1,$1,0,0*
1,0,$2,0,0*
%
*
*
G04 Odd Aperture macro.*
%AMODD*
1,1,$1,0,0*
1,0,$1-0.005,0,0*
%
*
*
G04 PC Custom Aperture Macros*
*
*
*
*
*
*
G04 PC Aperture Table*
*
%ADD011R,0.01969X0.01969*%
%ADD016C,0.00394*%
%ADD017C,0.02362*%
%ADD019C,0.00787*%
%ADD023R,0.02756X0.09843*%
%ADD024R,0.03937X0.11811*%
%ADD025R,0.0315X0.06299*%
%ADD026R,0.09055X0.12598*%
%ADD043R,0.09331X0.09567*%
%ADD044C,0.02756*%
%ADD047C,0.001*%
%ADD048C,0.00354*%
%ADD050C,0.01575*%
*
*
*
*
G04 PC Circuitry*
G04 Layer Name PLASMA_PIPETTE_TRANSFOR - circuitry*
%LPD*%
*
*
G04 PC Custom Flashes*
G04 Layer Name PLASMA_PIPETTE_TRANSFOR - flashes*
%LPD*%
*
*
G04 PC Circuitry*
G04 Layer Name PLASMA_PIPETTE_TRANSFOR - circuitry*
%LPD*%
*
G54D11*
G01X123622Y274803D03*
X120472D03*
G54D16*
X131818Y170866D02*
X131639Y171358D01*
X131281Y171850*
X130923Y172096*
X130208*
X129850Y171850*
X129492Y171358*
X129313Y170866*
X129134Y170128*
Y168898*
X129313Y168159*
X129492Y167667*
X129850Y167175*
X130208Y166929*
X130923*
X131281Y167175*
X131639Y167667*
X131818Y168159*
X133429Y170374D02*
Y167913D01*
X133608Y167175*
X133966Y166929*
X134503*
X134860Y167175*
X135397Y167913*
Y170374D02*
Y166929D01*
X137545Y172096D02*
Y167913D01*
X137724Y167175*
X138082Y166929*
X138440*
X137008Y170374D02*
X138261D01*
X140587Y172096D02*
Y167913D01*
X140766Y167175*
X141124Y166929*
X141482*
X140050Y170374D02*
X141303D01*
X143092Y172096D02*
X143271Y171850D01*
X143450Y172096*
X143271Y172343*
X143092Y172096*
X143271Y170374D02*
Y166929D01*
X145061Y170374D02*
Y166929D01*
Y169390D02*
X145598Y170128D01*
X145956Y170374*
X146492*
X146850Y170128*
X147029Y169390*
Y166929*
X150787Y170374D02*
Y166437D01*
X150608Y165699*
X150429Y165453*
X150072Y165207*
X149535*
X149177Y165453*
X150787Y169636D02*
X150429Y170128D01*
X150072Y170374*
X149535*
X149177Y170128*
X148819Y169636*
X148640Y168898*
Y168406*
X148819Y167667*
X149177Y167175*
X149535Y166929*
X150072*
X150429Y167175*
X150787Y167667*
X156514Y172096D02*
Y166929D01*
X158661*
X160272Y172096D02*
X160451Y171850D01*
X160630Y172096*
X160451Y172343*
X160272Y172096*
X160451Y170374D02*
Y166929D01*
X162241Y170374D02*
Y166929D01*
Y169390D02*
X162777Y170128D01*
X163135Y170374*
X163672*
X164030Y170128*
X164209Y169390*
Y166929*
X165820Y168898D02*
X167967D01*
Y169390*
X167788Y169882*
X167609Y170128*
X167251Y170374*
X166714*
X166356Y170128*
X165999Y169636*
X165820Y168898*
Y168406*
X165999Y167667*
X166356Y167175*
X166714Y166929*
X167251*
X167609Y167175*
X167967Y167667*
X107874Y101181D02*
G75*
G03X109055Y100000I1181J0D01*
G01X181496*
G03X182677Y101181I0J1181*
G01Y111811*
X186614Y115748D02*
G03X182677Y111811I0J-3937D01*
G01X186614Y115748D02*
X192520D01*
G03X194488Y117717I-0J1969*
G01Y216142*
G03X192520Y218110I-1968J-0*
G01X186614*
X182677Y222047D02*
G03X186614Y218110I3937J0D01*
G01X182677Y222047D02*
Y302756D01*
G03X180709Y304724I-1968J-0*
G01X109843*
G03X107874Y302756I-0J-1968*
G01Y222047*
X103937Y218110D02*
G03X107874Y222047I0J3937D01*
G01X103937Y218110D02*
X98031D01*
G03X96063Y216142I0J-1968*
G01Y117717*
G03X98031Y115748I1968J-0*
G01X103937*
X107874Y111811D02*
G03X103937Y115748I-3937J0D01*
G01X107874Y111811D02*
Y101181D01*
X119685Y202362D02*
G03X115748Y198425I0J-3937D01*
G01X119685Y202362D02*
X170866D01*
X174803Y198425D02*
G03X170866Y202362I-3937J0D01*
G01X174803Y198425D02*
Y135433D01*
X170866Y131496D02*
G03X174803Y135433I0J3937D01*
G01X170866Y131496D02*
X119685D01*
X115748Y135433D02*
G03X119685Y131496I3937J0D01*
G01X115748Y135433D02*
Y198425D01*
G54D17*
X122835Y105748D03*
X176772Y226378D03*
X120669Y239252D03*
X137795Y276378D03*
X142913D03*
X164843Y239724D03*
X170079Y263780D03*
X115748Y296850D03*
Y287008D03*
X119685Y283071D03*
X152756Y287008D03*
X125591Y283071D03*
X147756Y288189D03*
X170866Y283071D03*
X174803Y296850D03*
Y287008D03*
X174409Y293307D03*
X164961Y283071D03*
X162087Y281850D03*
X120472Y276752D02*
Y275787D01*
X118524Y274803D02*
X119488D01*
X120472Y272854D02*
Y273819D01*
X117539Y293228D02*
X118504D01*
X123031Y285965D02*
Y286929D01*
X128524Y293228D02*
X127559D01*
X123031Y300492D02*
Y299528D01*
X157598Y277736D02*
Y278701D01*
X160138Y281850D02*
X159173D01*
X157598Y285965D02*
Y285000D01*
X162043Y293272D02*
X163008D01*
X167535Y286008D02*
Y286972D01*
X173028Y293272D02*
X172063D01*
X167535Y300535D02*
Y299571D01*
X150748Y261024D02*
X151713D01*
X162008D02*
X161043D01*
X156378Y266772D02*
Y265807D01*
X147740Y277772D02*
Y278736D01*
Y286000D02*
Y285035D01*
G54D19*
X137795Y276378D02*
Y281870D01*
X137898Y281886*
X142819D02*
Y276378D01*
X142913*
X147740Y281886D02*
Y288173D01*
X147756Y288189*
X152661Y281886D02*
X152756Y281980D01*
Y287008*
X157598Y281850D02*
X162087D01*
X174374Y293272D02*
X174409Y293307D01*
G54D23*
X169882Y217126D03*
X160039D03*
X130512D03*
X120669D03*
G54D24*
X130512Y115748D03*
X160039D03*
G54D25*
X157598Y281850D03*
X152661Y281886D03*
X147740D03*
X142819D03*
X137898D03*
X132976D03*
G54D26*
X167535Y293272D03*
X123031Y293228D03*
G54D43*
X156378Y261024D03*
X131811D03*
G54D44*
X122835Y105748D02*
X127598D01*
X130512Y108661*
Y115748*
X120669Y217126D02*
Y239252D01*
X160039Y217126D02*
Y229409D01*
X164843Y234213*
Y239724*
G54D47*
G54D48*
X171083Y213066D02*
X170399Y212382D01*
X169365*
X168681Y213066*
Y227683*
X174193Y233194*
Y278223*
X173302Y279114*
X157160*
X156476Y279798*
Y284179*
X157160Y284862*
X177879*
X178563Y284179*
Y225664*
X177879Y224980*
X171974*
X171083Y224089*
Y213066*
X131555Y284179D02*
X132239Y284862D01*
X133667*
X134350Y284179*
Y230191*
X132683Y228524*
X132604*
X131713Y227632*
Y213066*
X131029Y212382*
X129995*
X129311Y213066*
Y274139*
X130585Y275413*
X130625*
X131555Y276344*
Y284179*
X156476Y284133D02*
X178563D01*
X156476Y283814D02*
X178563D01*
X156476Y283495D02*
X178563D01*
X156476Y283176D02*
X178563D01*
X156476Y282857D02*
X178563D01*
X156476Y282538D02*
X178563D01*
X156476Y282219D02*
X178563D01*
X156476Y281900D02*
X178563D01*
X156476Y281581D02*
X178563D01*
X156476Y281262D02*
X178563D01*
X156476Y280944D02*
X178563D01*
X156476Y280625D02*
X178563D01*
X156476Y280306D02*
X178563D01*
X156476Y279987D02*
X178563D01*
X156606Y279668D02*
X178563D01*
X156925Y279349D02*
X178563D01*
X173386Y279030D02*
X178563D01*
X173705Y278711D02*
X178563D01*
X174024Y278392D02*
X178563D01*
X174193Y278073D02*
X178563D01*
X174193Y277755D02*
X178563D01*
X174193Y277436D02*
X178563D01*
X174193Y277117D02*
X178563D01*
X174193Y276798D02*
X178563D01*
X174193Y276479D02*
X178563D01*
X174193Y276160D02*
X178563D01*
X174193Y275841D02*
X178563D01*
X174193Y275522D02*
X178563D01*
X174193Y275203D02*
X178563D01*
X174193Y274885D02*
X178563D01*
X174193Y274566D02*
X178563D01*
X174193Y274247D02*
X178563D01*
X174193Y273928D02*
X178563D01*
X174193Y273609D02*
X178563D01*
X174193Y273290D02*
X178563D01*
X174193Y272971D02*
X178563D01*
X174193Y272652D02*
X178563D01*
X174193Y272333D02*
X178563D01*
X174193Y272014D02*
X178563D01*
X174193Y271696D02*
X178563D01*
X174193Y271377D02*
X178563D01*
X174193Y271058D02*
X178563D01*
X174193Y270739D02*
X178563D01*
X174193Y270420D02*
X178563D01*
X174193Y270101D02*
X178563D01*
X174193Y269782D02*
X178563D01*
X174193Y269463D02*
X178563D01*
X174193Y269144D02*
X178563D01*
X174193Y268825D02*
X178563D01*
X174193Y268507D02*
X178563D01*
X174193Y268188D02*
X178563D01*
X174193Y267869D02*
X178563D01*
X174193Y267550D02*
X178563D01*
X174193Y267231D02*
X178563D01*
X174193Y266912D02*
X178563D01*
X174193Y266593D02*
X178563D01*
X174193Y266274D02*
X178563D01*
X174193Y265955D02*
X178563D01*
X174193Y265636D02*
X178563D01*
X174193Y265318D02*
X178563D01*
X174193Y264999D02*
X178563D01*
X174193Y264680D02*
X178563D01*
X174193Y264361D02*
X178563D01*
X174193Y264042D02*
X178563D01*
X174193Y263723D02*
X178563D01*
X174193Y263404D02*
X178563D01*
X174193Y263085D02*
X178563D01*
X174193Y262766D02*
X178563D01*
X174193Y262448D02*
X178563D01*
X174193Y262129D02*
X178563D01*
X174193Y261810D02*
X178563D01*
X174193Y261491D02*
X178563D01*
X174193Y261172D02*
X178563D01*
X174193Y260853D02*
X178563D01*
X174193Y260534D02*
X178563D01*
X174193Y260215D02*
X178563D01*
X174193Y259896D02*
X178563D01*
X174193Y259577D02*
X178563D01*
X174193Y259259D02*
X178563D01*
X174193Y258940D02*
X178563D01*
X174193Y258621D02*
X178563D01*
X174193Y258302D02*
X178563D01*
X174193Y257983D02*
X178563D01*
X174193Y257664D02*
X178563D01*
X174193Y257345D02*
X178563D01*
X174193Y257026D02*
X178563D01*
X174193Y256707D02*
X178563D01*
X174193Y256388D02*
X178563D01*
X174193Y256070D02*
X178563D01*
X174193Y255751D02*
X178563D01*
X174193Y255432D02*
X178563D01*
X174193Y255113D02*
X178563D01*
X174193Y254794D02*
X178563D01*
X174193Y254475D02*
X178563D01*
X174193Y254156D02*
X178563D01*
X174193Y253837D02*
X178563D01*
X174193Y253518D02*
X178563D01*
X174193Y253199D02*
X178563D01*
X174193Y252881D02*
X178563D01*
X174193Y252562D02*
X178563D01*
X174193Y252243D02*
X178563D01*
X174193Y251924D02*
X178563D01*
X174193Y251605D02*
X178563D01*
X174193Y251286D02*
X178563D01*
X174193Y250967D02*
X178563D01*
X174193Y250648D02*
X178563D01*
X174193Y250329D02*
X178563D01*
X174193Y250010D02*
X178563D01*
X174193Y249692D02*
X178563D01*
X174193Y249373D02*
X178563D01*
X174193Y249054D02*
X178563D01*
X174193Y248735D02*
X178563D01*
X174193Y248416D02*
X178563D01*
X174193Y248097D02*
X178563D01*
X174193Y247778D02*
X178563D01*
X174193Y247459D02*
X178563D01*
X174193Y247140D02*
X178563D01*
X174193Y246822D02*
X178563D01*
X174193Y246503D02*
X178563D01*
X174193Y246184D02*
X178563D01*
X174193Y245865D02*
X178563D01*
X174193Y245546D02*
X178563D01*
X174193Y245227D02*
X178563D01*
X174193Y244908D02*
X178563D01*
X174193Y244589D02*
X178563D01*
X174193Y244270D02*
X178563D01*
X174193Y243951D02*
X178563D01*
X174193Y243633D02*
X178563D01*
X174193Y243314D02*
X178563D01*
X174193Y242995D02*
X178563D01*
X174193Y242676D02*
X178563D01*
X174193Y242357D02*
X178563D01*
X174193Y242038D02*
X178563D01*
X174193Y241719D02*
X178563D01*
X174193Y241400D02*
X178563D01*
X174193Y241081D02*
X178563D01*
X174193Y240762D02*
X178563D01*
X174193Y240444D02*
X178563D01*
X174193Y240125D02*
X178563D01*
X174193Y239806D02*
X178563D01*
X174193Y239487D02*
X178563D01*
X174193Y239168D02*
X178563D01*
X174193Y238849D02*
X178563D01*
X174193Y238530D02*
X178563D01*
X174193Y238211D02*
X178563D01*
X174193Y237892D02*
X178563D01*
X174193Y237573D02*
X178563D01*
X174193Y237255D02*
X178563D01*
X174193Y236936D02*
X178563D01*
X174193Y236617D02*
X178563D01*
X174193Y236298D02*
X178563D01*
X174193Y235979D02*
X178563D01*
X174193Y235660D02*
X178563D01*
X174193Y235341D02*
X178563D01*
X174193Y235022D02*
X178563D01*
X174193Y234703D02*
X178563D01*
X174193Y234385D02*
X178563D01*
X174193Y234066D02*
X178563D01*
X174193Y233747D02*
X178563D01*
X174193Y233428D02*
X178563D01*
X174108Y233109D02*
X178563D01*
X173789Y232790D02*
X178563D01*
X173470Y232471D02*
X178563D01*
X173151Y232152D02*
X178563D01*
X172832Y231833D02*
X178563D01*
X172513Y231514D02*
X178563D01*
X172194Y231196D02*
X178563D01*
X171875Y230877D02*
X178563D01*
X171556Y230558D02*
X178563D01*
X171237Y230239D02*
X178563D01*
X170919Y229920D02*
X178563D01*
X170600Y229601D02*
X178563D01*
X170281Y229282D02*
X178563D01*
X169962Y228963D02*
X178563D01*
X169643Y228644D02*
X178563D01*
X169324Y228325D02*
X178563D01*
X169005Y228007D02*
X178563D01*
X168686Y227688D02*
X178563D01*
X168681Y227369D02*
X178563D01*
X168681Y227050D02*
X178563D01*
X168681Y226731D02*
X178563D01*
X168681Y226412D02*
X178563D01*
X168681Y226093D02*
X178563D01*
X168681Y225774D02*
X178563D01*
X168681Y225455D02*
X178354D01*
X156749Y284451D02*
X178290D01*
X168681Y225136D02*
X178036D01*
X157068Y284770D02*
X177971D01*
X168681Y224818D02*
X171811D01*
X168681Y224499D02*
X171492D01*
X168681Y224180D02*
X171173D01*
X168681Y223861D02*
X171083D01*
X168681Y223542D02*
X171083D01*
X168681Y223223D02*
X171083D01*
X168681Y222904D02*
X171083D01*
X168681Y222585D02*
X171083D01*
X168681Y222266D02*
X171083D01*
X168681Y221948D02*
X171083D01*
X168681Y221629D02*
X171083D01*
X168681Y221310D02*
X171083D01*
X168681Y220991D02*
X171083D01*
X168681Y220672D02*
X171083D01*
X168681Y220353D02*
X171083D01*
X168681Y220034D02*
X171083D01*
X168681Y219715D02*
X171083D01*
X168681Y219396D02*
X171083D01*
X168681Y219077D02*
X171083D01*
X168681Y218759D02*
X171083D01*
X168681Y218440D02*
X171083D01*
X168681Y218121D02*
X171083D01*
X168681Y217802D02*
X171083D01*
X168681Y217483D02*
X171083D01*
X168681Y217164D02*
X171083D01*
X168681Y216845D02*
X171083D01*
X168681Y216526D02*
X171083D01*
X168681Y216207D02*
X171083D01*
X168681Y215888D02*
X171083D01*
X168681Y215570D02*
X171083D01*
X168681Y215251D02*
X171083D01*
X168681Y214932D02*
X171083D01*
X168681Y214613D02*
X171083D01*
X168681Y214294D02*
X171083D01*
X168681Y213975D02*
X171083D01*
X168681Y213656D02*
X171083D01*
X168681Y213337D02*
X171083D01*
X168728Y213018D02*
X171036D01*
X169047Y212699D02*
X170717D01*
X131555Y284133D02*
X134350D01*
X131555Y283814D02*
X134350D01*
X131555Y283495D02*
X134350D01*
X131555Y283176D02*
X134350D01*
X131555Y282857D02*
X134350D01*
X131555Y282538D02*
X134350D01*
X131555Y282219D02*
X134350D01*
X131555Y281900D02*
X134350D01*
X131555Y281581D02*
X134350D01*
X131555Y281262D02*
X134350D01*
X131555Y280944D02*
X134350D01*
X131555Y280625D02*
X134350D01*
X131555Y280306D02*
X134350D01*
X131555Y279987D02*
X134350D01*
X131555Y279668D02*
X134350D01*
X131555Y279349D02*
X134350D01*
X131555Y279030D02*
X134350D01*
X131555Y278711D02*
X134350D01*
X131555Y278392D02*
X134350D01*
X131555Y278073D02*
X134350D01*
X131555Y277755D02*
X134350D01*
X131555Y277436D02*
X134350D01*
X131555Y277117D02*
X134350D01*
X131555Y276798D02*
X134350D01*
X131555Y276479D02*
X134350D01*
X131371Y276160D02*
X134350D01*
X131052Y275841D02*
X134350D01*
X130733Y275522D02*
X134350D01*
X130375Y275203D02*
X134350D01*
X130056Y274885D02*
X134350D01*
X129737Y274566D02*
X134350D01*
X129419Y274247D02*
X134350D01*
X129311Y273928D02*
X134350D01*
X129311Y273609D02*
X134350D01*
X129311Y273290D02*
X134350D01*
X129311Y272971D02*
X134350D01*
X129311Y272652D02*
X134350D01*
X129311Y272333D02*
X134350D01*
X129311Y272014D02*
X134350D01*
X129311Y271696D02*
X134350D01*
X129311Y271377D02*
X134350D01*
X129311Y271058D02*
X134350D01*
X129311Y270739D02*
X134350D01*
X129311Y270420D02*
X134350D01*
X129311Y270101D02*
X134350D01*
X129311Y269782D02*
X134350D01*
X129311Y269463D02*
X134350D01*
X129311Y269144D02*
X134350D01*
X129311Y268825D02*
X134350D01*
X129311Y268507D02*
X134350D01*
X129311Y268188D02*
X134350D01*
X129311Y267869D02*
X134350D01*
X129311Y267550D02*
X134350D01*
X129311Y267231D02*
X134350D01*
X129311Y266912D02*
X134350D01*
X129311Y266593D02*
X134350D01*
X129311Y266274D02*
X134350D01*
X129311Y265955D02*
X134350D01*
X129311Y265636D02*
X134350D01*
X129311Y265318D02*
X134350D01*
X129311Y264999D02*
X134350D01*
X129311Y264680D02*
X134350D01*
X129311Y264361D02*
X134350D01*
X129311Y264042D02*
X134350D01*
X129311Y263723D02*
X134350D01*
X129311Y263404D02*
X134350D01*
X129311Y263085D02*
X134350D01*
X129311Y262766D02*
X134350D01*
X129311Y262448D02*
X134350D01*
X129311Y262129D02*
X134350D01*
X129311Y261810D02*
X134350D01*
X129311Y261491D02*
X134350D01*
X129311Y261172D02*
X134350D01*
X129311Y260853D02*
X134350D01*
X129311Y260534D02*
X134350D01*
X129311Y260215D02*
X134350D01*
X129311Y259896D02*
X134350D01*
X129311Y259577D02*
X134350D01*
X129311Y259259D02*
X134350D01*
X129311Y258940D02*
X134350D01*
X129311Y258621D02*
X134350D01*
X129311Y258302D02*
X134350D01*
X129311Y257983D02*
X134350D01*
X129311Y257664D02*
X134350D01*
X129311Y257345D02*
X134350D01*
X129311Y257026D02*
X134350D01*
X129311Y256707D02*
X134350D01*
X129311Y256388D02*
X134350D01*
X129311Y256070D02*
X134350D01*
X129311Y255751D02*
X134350D01*
X129311Y255432D02*
X134350D01*
X129311Y255113D02*
X134350D01*
X129311Y254794D02*
X134350D01*
X129311Y254475D02*
X134350D01*
X129311Y254156D02*
X134350D01*
X129311Y253837D02*
X134350D01*
X129311Y253518D02*
X134350D01*
X129311Y253199D02*
X134350D01*
X129311Y252881D02*
X134350D01*
X129311Y252562D02*
X134350D01*
X129311Y252243D02*
X134350D01*
X129311Y251924D02*
X134350D01*
X129311Y251605D02*
X134350D01*
X129311Y251286D02*
X134350D01*
X129311Y250967D02*
X134350D01*
X129311Y250648D02*
X134350D01*
X129311Y250329D02*
X134350D01*
X129311Y250010D02*
X134350D01*
X129311Y249692D02*
X134350D01*
X129311Y249373D02*
X134350D01*
X129311Y249054D02*
X134350D01*
X129311Y248735D02*
X134350D01*
X129311Y248416D02*
X134350D01*
X129311Y248097D02*
X134350D01*
X129311Y247778D02*
X134350D01*
X129311Y247459D02*
X134350D01*
X129311Y247140D02*
X134350D01*
X129311Y246822D02*
X134350D01*
X129311Y246503D02*
X134350D01*
X129311Y246184D02*
X134350D01*
X129311Y245865D02*
X134350D01*
X129311Y245546D02*
X134350D01*
X129311Y245227D02*
X134350D01*
X129311Y244908D02*
X134350D01*
X129311Y244589D02*
X134350D01*
X129311Y244270D02*
X134350D01*
X129311Y243951D02*
X134350D01*
X129311Y243633D02*
X134350D01*
X129311Y243314D02*
X134350D01*
X129311Y242995D02*
X134350D01*
X129311Y242676D02*
X134350D01*
X129311Y242357D02*
X134350D01*
X129311Y242038D02*
X134350D01*
X129311Y241719D02*
X134350D01*
X129311Y241400D02*
X134350D01*
X129311Y241081D02*
X134350D01*
X129311Y240762D02*
X134350D01*
X129311Y240444D02*
X134350D01*
X129311Y240125D02*
X134350D01*
X129311Y239806D02*
X134350D01*
X129311Y239487D02*
X134350D01*
X129311Y239168D02*
X134350D01*
X129311Y238849D02*
X134350D01*
X129311Y238530D02*
X134350D01*
X129311Y238211D02*
X134350D01*
X129311Y237892D02*
X134350D01*
X129311Y237573D02*
X134350D01*
X129311Y237255D02*
X134350D01*
X129311Y236936D02*
X134350D01*
X129311Y236617D02*
X134350D01*
X129311Y236298D02*
X134350D01*
X129311Y235979D02*
X134350D01*
X129311Y235660D02*
X134350D01*
X129311Y235341D02*
X134350D01*
X129311Y235022D02*
X134350D01*
X129311Y234703D02*
X134350D01*
X129311Y234385D02*
X134350D01*
X129311Y234066D02*
X134350D01*
X129311Y233747D02*
X134350D01*
X129311Y233428D02*
X134350D01*
X129311Y233109D02*
X134350D01*
X129311Y232790D02*
X134350D01*
X129311Y232471D02*
X134350D01*
X129311Y232152D02*
X134350D01*
X129311Y231833D02*
X134350D01*
X129311Y231514D02*
X134350D01*
X129311Y231196D02*
X134350D01*
X129311Y230877D02*
X134350D01*
X129311Y230558D02*
X134350D01*
X129311Y230239D02*
X134350D01*
X129311Y229920D02*
X134079D01*
X131828Y284451D02*
X134078D01*
X129311Y229601D02*
X133760D01*
X132147Y284770D02*
X133759D01*
X129311Y229282D02*
X133441D01*
X129311Y228963D02*
X133122D01*
X129311Y228644D02*
X132803D01*
X129311Y228325D02*
X132406D01*
X129311Y228007D02*
X132087D01*
X129311Y227688D02*
X131768D01*
X129311Y227369D02*
X131713D01*
X129311Y227050D02*
X131713D01*
X129311Y226731D02*
X131713D01*
X129311Y226412D02*
X131713D01*
X129311Y226093D02*
X131713D01*
X129311Y225774D02*
X131713D01*
X129311Y225455D02*
X131713D01*
X129311Y225136D02*
X131713D01*
X129311Y224818D02*
X131713D01*
X129311Y224499D02*
X131713D01*
X129311Y224180D02*
X131713D01*
X129311Y223861D02*
X131713D01*
X129311Y223542D02*
X131713D01*
X129311Y223223D02*
X131713D01*
X129311Y222904D02*
X131713D01*
X129311Y222585D02*
X131713D01*
X129311Y222266D02*
X131713D01*
X129311Y221948D02*
X131713D01*
X129311Y221629D02*
X131713D01*
X129311Y221310D02*
X131713D01*
X129311Y220991D02*
X131713D01*
X129311Y220672D02*
X131713D01*
X129311Y220353D02*
X131713D01*
X129311Y220034D02*
X131713D01*
X129311Y219715D02*
X131713D01*
X129311Y219396D02*
X131713D01*
X129311Y219077D02*
X131713D01*
X129311Y218759D02*
X131713D01*
X129311Y218440D02*
X131713D01*
X129311Y218121D02*
X131713D01*
X129311Y217802D02*
X131713D01*
X129311Y217483D02*
X131713D01*
X129311Y217164D02*
X131713D01*
X129311Y216845D02*
X131713D01*
X129311Y216526D02*
X131713D01*
X129311Y216207D02*
X131713D01*
X129311Y215888D02*
X131713D01*
X129311Y215570D02*
X131713D01*
X129311Y215251D02*
X131713D01*
X129311Y214932D02*
X131713D01*
X129311Y214613D02*
X131713D01*
X129311Y214294D02*
X131713D01*
X129311Y213975D02*
X131713D01*
X129311Y213656D02*
X131713D01*
X129311Y213337D02*
X131713D01*
X129358Y213018D02*
X131665D01*
X129677Y212699D02*
X131347D01*
X180531Y256063D02*
Y302402D01*
G03X180354Y302579I-177J-0*
G01X110197*
G03X110020Y302402I-0J-177*
G01Y256063*
G03X110197Y255886I177J-0*
G01X126018*
G03X126193Y256090I-0J177*
G01X126181Y256240D02*
G03X126193Y256090I965J0D01*
G01X126181Y256240D02*
Y265807D01*
X127146Y266772D02*
G03X126181Y265807I-0J-965D01*
G01X127146Y266772D02*
X127992D01*
G03X128169Y266949I0J177*
G01Y272874*
G03X127992Y273051I-177J-0*
G01X125247*
G03X125148Y273021I0J-177*
G01X124606Y272854D02*
G03X125148Y273021I0J965D01*
G01X124606Y272854D02*
X122638D01*
X122139Y272993D02*
G03X122638Y272854I499J826D01*
G01X122139Y272993D02*
G03X121956I-92J-151D01*
G01X121457Y272854D02*
G03X121956Y272993I-0J965D01*
G01X121457Y272854D02*
X119488D01*
X118524Y273819D02*
G03X119488Y272854I964J-0D01*
G01X118524Y273819D02*
Y275787D01*
X119488Y276752D02*
G03X118524Y275787I0J-965D01*
G01X119488Y276752D02*
X121457D01*
X121956Y276613D02*
G03X121457Y276752I-499J-826D01*
G01X121956Y276613D02*
G03X122139I91J152D01*
G01X122638Y276752D02*
G03X122139Y276613I-0J-965D01*
G01X122638Y276752D02*
X124606D01*
X125148Y276586D02*
G03X124606Y276752I-542J-799D01*
G01X125148Y276586D02*
G03X125247Y276555I99J146D01*
G01X130078*
G03X130204Y276607I0J177*
G01X130361Y276765*
G03X130413Y276890I-125J125*
G01Y284179*
X130434Y284394D02*
G03X130413Y284179I1121J-215D01*
G01X130434Y284394D02*
G03X130437Y284427I-174J33D01*
G01Y285035*
X131402Y286000D02*
G03X130437Y285035I-0J-965D01*
G01X131402Y286000D02*
X132137D01*
G03X132151Y286001I-0J177*
G01X132239Y286004D02*
G03X132151Y286001I-0J-1142D01*
G01X132239Y286004D02*
X133667D01*
X133755Y286001D02*
G03X133667Y286004I-88J-1139D01*
G01X133755Y286001D02*
G03X133769Y286000I14J176D01*
G01X134551*
X135300Y285644D02*
G03X134551Y286000I-749J-609D01*
G01X135300Y285644D02*
G03X135574I137J112D01*
G01X136323Y286000D02*
G03X135574Y285644I-0J-965D01*
G01X136323Y286000D02*
X139472D01*
X140221Y285644D02*
G03X139472Y286000I-749J-609D01*
G01X140221Y285644D02*
G03X140496I137J112D01*
G01X141244Y286000D02*
G03X140496Y285644I0J-965D01*
G01X141244Y286000D02*
X144394D01*
X145142Y285644D02*
G03X144394Y286000I-748J-609D01*
G01X145142Y285644D02*
G03X145417I138J112D01*
G01X146165Y286000D02*
G03X145417Y285644I0J-965D01*
G01X146165Y286000D02*
X149315D01*
X150063Y285644D02*
G03X149315Y286000I-748J-609D01*
G01X150063Y285644D02*
G03X150338I138J112D01*
G01X150698Y285918D02*
G03X150338Y285644I389J-883D01*
G01X150698Y285918D02*
G03X150789Y286151I-72J162D01*
G01X154689Y286076D02*
G03X150789Y286151I-1933J932D01*
G01X154689Y286076D02*
G03X154753Y285850I159J-77D01*
G01X155003Y285620D02*
G03X154753Y285850I-767J-585D01*
G01X155003Y285620D02*
G03X155280Y285615I141J108D01*
G01X156024Y285965D02*
G03X155280Y285615I-0J-965D01*
G01X156024Y285965D02*
X159173D01*
X160138Y285000D02*
G03X159173Y285965I-965J0D01*
G01X160138Y285000D02*
Y278701D01*
X159173Y277736D02*
G03X160138Y278701I0J965D01*
G01X159173Y277736D02*
X156024D01*
X155257Y278116D02*
G03X156024Y277736I767J585D01*
G01X155257Y278116D02*
G03X154979Y278121I-141J-108D01*
G01X154236Y277772D02*
G03X154979Y278121I0J964D01*
G01X154236Y277772D02*
X151087D01*
X150338Y278128D02*
G03X151087Y277772I749J608D01*
G01X150338Y278128D02*
G03X150063I-137J-112D01*
G01X149315Y277772D02*
G03X150063Y278128I-0J964D01*
G01X149315Y277772D02*
X146165D01*
X145417Y278128D02*
G03X146165Y277772I748J608D01*
G01X145417Y278128D02*
G03X145142I-137J-112D01*
G01X144766Y277847D02*
G03X145142Y278128I-372J889D01*
G01X144766Y277847D02*
G03X144688Y277584I69J-164D01*
G01X141107Y277535D02*
G03X144688Y277584I1806J-1157D01*
G01X141107Y277535D02*
G03X141002Y277803I-149J96D01*
G01X140496Y278128D02*
G03X141002Y277803I748J608D01*
G01X140496Y278128D02*
G03X140221I-138J-112D01*
G01X139709Y277801D02*
G03X140221Y278128I-237J935D01*
G01X139709Y277801D02*
G03X139603Y277534I43J-172D01*
G01X135831Y275513D02*
G03X139603Y277534I1964J865D01*
G01X135831Y275513D02*
G03X135492Y275442I-162J-71D01*
G01Y266949*
G03X135669Y266772I177J-0*
G01X136476*
X137441Y265807D02*
G03X136476Y266772I-965J0D01*
G01X137441Y265807D02*
Y256240D01*
X137429Y256090D02*
G03X137441Y256240I-953J150D01*
G01X137429Y256090D02*
G03X137604Y255886I175J-27D01*
G01X150585*
G03X150760Y256090I-0J177*
G01X150748Y256240D02*
G03X150760Y256090I965J0D01*
G01X150748Y256240D02*
Y265807D01*
X151713Y266772D02*
G03X150748Y265807I-0J-965D01*
G01X151713Y266772D02*
X161043D01*
X162008Y265807D02*
G03X161043Y266772I-965J0D01*
G01X162008Y265807D02*
Y256240D01*
X161996Y256090D02*
G03X162008Y256240I-953J150D01*
G01X161996Y256090D02*
G03X162171Y255886I175J-27D01*
G01X180354*
G03X180531Y256063I0J177*
G01X173028Y299571D02*
Y286972D01*
X172063Y286008D02*
G03X173028Y286972I-0J964D01*
G01X172063Y286008D02*
X163008D01*
X162043Y286972D02*
G03X163008Y286008I965J0D01*
G01X162043Y286972D02*
Y299571D01*
X163008Y300535D02*
G03X162043Y299571I-0J-964D01*
G01X163008Y300535D02*
X172063D01*
X173028Y299571D02*
G03X172063Y300535I-965J-0D01*
G01X128524Y299528D02*
Y286929D01*
X127559Y285965D02*
G03X128524Y286929I0J964D01*
G01X127559Y285965D02*
X118504D01*
X117539Y286929D02*
G03X118504Y285965I965J0D01*
G01X117539Y286929D02*
Y299528D01*
X118504Y300492D02*
G03X117539Y299528I-0J-964D01*
G01X118504Y300492D02*
X127559D01*
X128524Y299528D02*
G03X127559Y300492I-965J-0D01*
G01X110020Y302125D02*
X180531D01*
X110020Y301806D02*
X180531D01*
X110020Y301487D02*
X180531D01*
X110020Y301168D02*
X180531D01*
X110020Y300849D02*
X180531D01*
X172164Y300530D02*
X180531D01*
X172784Y300211D02*
X180531D01*
X172972Y299892D02*
X180531D01*
X173028Y299573D02*
X180531D01*
X173028Y299255D02*
X180531D01*
X173028Y298936D02*
X180531D01*
X173028Y298617D02*
X180531D01*
X173028Y298298D02*
X180531D01*
X173028Y297979D02*
X180531D01*
X173028Y297660D02*
X180531D01*
X173028Y297341D02*
X180531D01*
X173028Y297022D02*
X180531D01*
X173028Y296703D02*
X180531D01*
X173028Y296385D02*
X180531D01*
X173028Y296066D02*
X180531D01*
X173028Y295747D02*
X180531D01*
X173028Y295428D02*
X180531D01*
X173028Y295109D02*
X180531D01*
X173028Y294790D02*
X180531D01*
X173028Y294471D02*
X180531D01*
X173028Y294152D02*
X180531D01*
X173028Y293833D02*
X180531D01*
X173028Y293514D02*
X180531D01*
X173028Y293196D02*
X180531D01*
X173028Y292877D02*
X180531D01*
X173028Y292558D02*
X180531D01*
X173028Y292239D02*
X180531D01*
X173028Y291920D02*
X180531D01*
X173028Y291601D02*
X180531D01*
X173028Y291282D02*
X180531D01*
X173028Y290963D02*
X180531D01*
X173028Y290644D02*
X180531D01*
X173028Y290325D02*
X180531D01*
X173028Y290007D02*
X180531D01*
X173028Y289688D02*
X180531D01*
X173028Y289369D02*
X180531D01*
X173028Y289050D02*
X180531D01*
X173028Y288731D02*
X180531D01*
X173028Y288412D02*
X180531D01*
X173028Y288093D02*
X180531D01*
X173028Y287774D02*
X180531D01*
X173028Y287455D02*
X180531D01*
X173028Y287136D02*
X180531D01*
X173015Y286818D02*
X180531D01*
X172903Y286499D02*
X180531D01*
X172613Y286180D02*
X180531D01*
X159608Y285861D02*
X180531D01*
X159971Y285542D02*
X180531D01*
X160112Y285223D02*
X180531D01*
X160138Y284904D02*
X180531D01*
X160138Y284585D02*
X180531D01*
X160138Y284266D02*
X180531D01*
X160138Y283948D02*
X180531D01*
X160138Y283629D02*
X180531D01*
X160138Y283310D02*
X180531D01*
X160138Y282991D02*
X180531D01*
X160138Y282672D02*
X180531D01*
X160138Y282353D02*
X180531D01*
X160138Y282034D02*
X180531D01*
X160138Y281715D02*
X180531D01*
X160138Y281396D02*
X180531D01*
X160138Y281077D02*
X180531D01*
X160138Y280759D02*
X180531D01*
X160138Y280440D02*
X180531D01*
X160138Y280121D02*
X180531D01*
X160138Y279802D02*
X180531D01*
X160138Y279483D02*
X180531D01*
X160138Y279164D02*
X180531D01*
X160138Y278845D02*
X180531D01*
X160122Y278526D02*
X180531D01*
X160002Y278207D02*
X180531D01*
X159693Y277888D02*
X180531D01*
X144698Y277570D02*
X180531D01*
X144874Y277251D02*
X180531D01*
X144986Y276932D02*
X180531D01*
X145046Y276613D02*
X180531D01*
X145057Y276294D02*
X180531D01*
X145021Y275975D02*
X180531D01*
X144934Y275656D02*
X180531D01*
X144790Y275337D02*
X180531D01*
X144573Y275018D02*
X180531D01*
X144250Y274699D02*
X180531D01*
X143697Y274381D02*
X180531D01*
X135492Y274062D02*
X180531D01*
X135492Y273743D02*
X180531D01*
X135492Y273424D02*
X180531D01*
X135492Y273105D02*
X180531D01*
X135492Y272786D02*
X180531D01*
X135492Y272467D02*
X180531D01*
X135492Y272148D02*
X180531D01*
X135492Y271829D02*
X180531D01*
X135492Y271510D02*
X180531D01*
X135492Y271192D02*
X180531D01*
X135492Y270873D02*
X180531D01*
X135492Y270554D02*
X180531D01*
X135492Y270235D02*
X180531D01*
X135492Y269916D02*
X180531D01*
X135492Y269597D02*
X180531D01*
X135492Y269278D02*
X180531D01*
X135492Y268959D02*
X180531D01*
X135492Y268640D02*
X180531D01*
X135492Y268322D02*
X180531D01*
X135492Y268003D02*
X180531D01*
X135492Y267684D02*
X180531D01*
X135492Y267365D02*
X180531D01*
X135492Y267046D02*
X180531D01*
X161333Y266727D02*
X180531D01*
X161798Y266408D02*
X180531D01*
X161966Y266089D02*
X180531D01*
X162008Y265770D02*
X180531D01*
X162008Y265451D02*
X180531D01*
X162008Y265133D02*
X180531D01*
X162008Y264814D02*
X180531D01*
X162008Y264495D02*
X180531D01*
X162008Y264176D02*
X180531D01*
X162008Y263857D02*
X180531D01*
X162008Y263538D02*
X180531D01*
X162008Y263219D02*
X180531D01*
X162008Y262900D02*
X180531D01*
X162008Y262581D02*
X180531D01*
X162008Y262262D02*
X180531D01*
X162008Y261944D02*
X180531D01*
X162008Y261625D02*
X180531D01*
X162008Y261306D02*
X180531D01*
X162008Y260987D02*
X180531D01*
X162008Y260668D02*
X180531D01*
X162008Y260349D02*
X180531D01*
X162008Y260030D02*
X180531D01*
X162008Y259711D02*
X180531D01*
X162008Y259392D02*
X180531D01*
X162008Y259073D02*
X180531D01*
X162008Y258755D02*
X180531D01*
X162008Y258436D02*
X180531D01*
X162008Y258117D02*
X180531D01*
X162008Y257798D02*
X180531D01*
X162008Y257479D02*
X180531D01*
X162008Y257160D02*
X180531D01*
X162008Y256841D02*
X180531D01*
X162008Y256522D02*
X180531D01*
X162007Y256203D02*
X180531D01*
X110025Y302444D02*
X180526D01*
X110020Y300530D02*
X162907D01*
X154735Y286180D02*
X162458D01*
X128239Y300211D02*
X162287D01*
X154840Y286499D02*
X162168D01*
X128452Y299892D02*
X162098D01*
X154893Y286818D02*
X162056D01*
X128523Y299573D02*
X162043D01*
X128524Y299255D02*
X162043D01*
X128524Y298936D02*
X162043D01*
X128524Y298617D02*
X162043D01*
X128524Y298298D02*
X162043D01*
X128524Y297979D02*
X162043D01*
X128524Y297660D02*
X162043D01*
X128524Y297341D02*
X162043D01*
X128524Y297022D02*
X162043D01*
X128524Y296703D02*
X162043D01*
X128524Y296385D02*
X162043D01*
X128524Y296066D02*
X162043D01*
X128524Y295747D02*
X162043D01*
X128524Y295428D02*
X162043D01*
X128524Y295109D02*
X162043D01*
X128524Y294790D02*
X162043D01*
X128524Y294471D02*
X162043D01*
X128524Y294152D02*
X162043D01*
X128524Y293833D02*
X162043D01*
X128524Y293514D02*
X162043D01*
X128524Y293196D02*
X162043D01*
X128524Y292877D02*
X162043D01*
X128524Y292558D02*
X162043D01*
X128524Y292239D02*
X162043D01*
X128524Y291920D02*
X162043D01*
X128524Y291601D02*
X162043D01*
X128524Y291282D02*
X162043D01*
X128524Y290963D02*
X162043D01*
X128524Y290644D02*
X162043D01*
X128524Y290325D02*
X162043D01*
X128524Y290007D02*
X162043D01*
X128524Y289688D02*
X162043D01*
X128524Y289369D02*
X162043D01*
X153415Y289050D02*
X162043D01*
X154035Y288731D02*
X162043D01*
X154378Y288412D02*
X162043D01*
X154607Y288093D02*
X162043D01*
X154760Y287774D02*
X162043D01*
X154854Y287455D02*
X162043D01*
X154898Y287136D02*
X162043D01*
X154738Y285861D02*
X155589D01*
X154696Y277888D02*
X155503D01*
X128524Y289050D02*
X152097D01*
X128524Y288731D02*
X151477D01*
X136766Y266727D02*
X151423D01*
X128524Y288412D02*
X151133D01*
X137231Y266408D02*
X150958D01*
X128524Y288093D02*
X150905D01*
X137399Y266089D02*
X150790D01*
X128166Y286180D02*
X150776D01*
X128524Y287774D02*
X150752D01*
X137440Y256203D02*
X150749D01*
X137441Y265770D02*
X150748D01*
X137441Y265451D02*
X150748D01*
X137441Y265133D02*
X150748D01*
X137441Y264814D02*
X150748D01*
X137441Y264495D02*
X150748D01*
X137441Y264176D02*
X150748D01*
X137441Y263857D02*
X150748D01*
X137441Y263538D02*
X150748D01*
X137441Y263219D02*
X150748D01*
X137441Y262900D02*
X150748D01*
X137441Y262581D02*
X150748D01*
X137441Y262262D02*
X150748D01*
X137441Y261944D02*
X150748D01*
X137441Y261625D02*
X150748D01*
X137441Y261306D02*
X150748D01*
X137441Y260987D02*
X150748D01*
X137441Y260668D02*
X150748D01*
X137441Y260349D02*
X150748D01*
X137441Y260030D02*
X150748D01*
X137441Y259711D02*
X150748D01*
X137441Y259392D02*
X150748D01*
X137441Y259073D02*
X150748D01*
X137441Y258755D02*
X150748D01*
X137441Y258436D02*
X150748D01*
X137441Y258117D02*
X150748D01*
X137441Y257798D02*
X150748D01*
X137441Y257479D02*
X150748D01*
X137441Y257160D02*
X150748D01*
X137441Y256841D02*
X150748D01*
X137441Y256522D02*
X150748D01*
X128422Y286499D02*
X150672D01*
X128524Y287455D02*
X150657D01*
X149775Y277888D02*
X150626D01*
X128517Y286818D02*
X150619D01*
X128524Y287136D02*
X150614D01*
X149814Y285861D02*
X150588D01*
X144854Y277888D02*
X145705D01*
X144893Y285861D02*
X145666D01*
X138579Y274381D02*
X142129D01*
X139132Y274699D02*
X141577D01*
X139455Y275018D02*
X141253D01*
X139585Y277570D02*
X141124D01*
X139672Y275337D02*
X141037D01*
X139755Y277251D02*
X140953D01*
X139816Y275656D02*
X140893D01*
X139868Y276932D02*
X140840D01*
X139903Y275975D02*
X140806D01*
X139933Y277888D02*
X140784D01*
X139928Y276613D02*
X140781D01*
X139939Y276294D02*
X140769D01*
X139971Y285861D02*
X140745D01*
X135492Y274381D02*
X137011D01*
X135492Y274699D02*
X136459D01*
X135492Y275018D02*
X136135D01*
X135492Y275337D02*
X135919D01*
X135050Y285861D02*
X135824D01*
X110020D02*
X130903D01*
X110020Y285542D02*
X130581D01*
X110020Y285223D02*
X130455D01*
X110020Y284904D02*
X130437D01*
X110020Y284585D02*
X130437D01*
X110020Y284266D02*
X130417D01*
X110020Y283948D02*
X130413D01*
X110020Y283629D02*
X130413D01*
X110020Y283310D02*
X130413D01*
X110020Y282991D02*
X130413D01*
X110020Y282672D02*
X130413D01*
X110020Y282353D02*
X130413D01*
X110020Y282034D02*
X130413D01*
X110020Y281715D02*
X130413D01*
X110020Y281396D02*
X130413D01*
X110020Y281077D02*
X130413D01*
X110020Y280759D02*
X130413D01*
X110020Y280440D02*
X130413D01*
X110020Y280121D02*
X130413D01*
X110020Y279802D02*
X130413D01*
X110020Y279483D02*
X130413D01*
X110020Y279164D02*
X130413D01*
X110020Y278845D02*
X130413D01*
X110020Y278526D02*
X130413D01*
X110020Y278207D02*
X130413D01*
X110020Y277888D02*
X130413D01*
X110020Y277570D02*
X130413D01*
X110020Y277251D02*
X130413D01*
X110020Y276932D02*
X130413D01*
X125105Y276613D02*
X130209D01*
X110020Y272786D02*
X128169D01*
X110020Y272467D02*
X128169D01*
X110020Y272148D02*
X128169D01*
X110020Y271829D02*
X128169D01*
X110020Y271510D02*
X128169D01*
X110020Y271192D02*
X128169D01*
X110020Y270873D02*
X128169D01*
X110020Y270554D02*
X128169D01*
X110020Y270235D02*
X128169D01*
X110020Y269916D02*
X128169D01*
X110020Y269597D02*
X128169D01*
X110020Y269278D02*
X128169D01*
X110020Y268959D02*
X128169D01*
X110020Y268640D02*
X128169D01*
X110020Y268322D02*
X128169D01*
X110020Y268003D02*
X128169D01*
X110020Y267684D02*
X128169D01*
X110020Y267365D02*
X128169D01*
X110020Y267046D02*
X128169D01*
X110020Y266727D02*
X126856D01*
X110020Y266408D02*
X126391D01*
X110020Y266089D02*
X126223D01*
X110020Y256203D02*
X126182D01*
X110020Y265770D02*
X126181D01*
X110020Y265451D02*
X126181D01*
X110020Y265133D02*
X126181D01*
X110020Y264814D02*
X126181D01*
X110020Y264495D02*
X126181D01*
X110020Y264176D02*
X126181D01*
X110020Y263857D02*
X126181D01*
X110020Y263538D02*
X126181D01*
X110020Y263219D02*
X126181D01*
X110020Y262900D02*
X126181D01*
X110020Y262581D02*
X126181D01*
X110020Y262262D02*
X126181D01*
X110020Y261944D02*
X126181D01*
X110020Y261625D02*
X126181D01*
X110020Y261306D02*
X126181D01*
X110020Y260987D02*
X126181D01*
X110020Y260668D02*
X126181D01*
X110020Y260349D02*
X126181D01*
X110020Y260030D02*
X126181D01*
X110020Y259711D02*
X126181D01*
X110020Y259392D02*
X126181D01*
X110020Y259073D02*
X126181D01*
X110020Y258755D02*
X126181D01*
X110020Y258436D02*
X126181D01*
X110020Y258117D02*
X126181D01*
X110020Y257798D02*
X126181D01*
X110020Y257479D02*
X126181D01*
X110020Y257160D02*
X126181D01*
X110020Y256841D02*
X126181D01*
X110020Y256522D02*
X126181D01*
X121956Y276613D02*
X122139D01*
X110020D02*
X118989D01*
X110020Y273105D02*
X118840D01*
X110020Y276294D02*
X118667D01*
X110020Y273424D02*
X118608D01*
X110020Y275975D02*
X118542D01*
X110020Y273743D02*
X118527D01*
X110020Y275656D02*
X118524D01*
X110020Y275337D02*
X118524D01*
X110020Y275018D02*
X118524D01*
X110020Y274699D02*
X118524D01*
X110020Y274381D02*
X118524D01*
X110020Y274062D02*
X118524D01*
X110020Y286180D02*
X117897D01*
X110020Y300211D02*
X117824D01*
X110020Y286499D02*
X117641D01*
X110020Y299892D02*
X117611D01*
X110020Y286818D02*
X117546D01*
X110020Y299573D02*
X117540D01*
X110020Y299255D02*
X117539D01*
X110020Y298936D02*
X117539D01*
X110020Y298617D02*
X117539D01*
X110020Y298298D02*
X117539D01*
X110020Y297979D02*
X117539D01*
X110020Y297660D02*
X117539D01*
X110020Y297341D02*
X117539D01*
X110020Y297022D02*
X117539D01*
X110020Y296703D02*
X117539D01*
X110020Y296385D02*
X117539D01*
X110020Y296066D02*
X117539D01*
X110020Y295747D02*
X117539D01*
X110020Y295428D02*
X117539D01*
X110020Y295109D02*
X117539D01*
X110020Y294790D02*
X117539D01*
X110020Y294471D02*
X117539D01*
X110020Y294152D02*
X117539D01*
X110020Y293833D02*
X117539D01*
X110020Y293514D02*
X117539D01*
X110020Y293196D02*
X117539D01*
X110020Y292877D02*
X117539D01*
X110020Y292558D02*
X117539D01*
X110020Y292239D02*
X117539D01*
X110020Y291920D02*
X117539D01*
X110020Y291601D02*
X117539D01*
X110020Y291282D02*
X117539D01*
X110020Y290963D02*
X117539D01*
X110020Y290644D02*
X117539D01*
X110020Y290325D02*
X117539D01*
X110020Y290007D02*
X117539D01*
X110020Y289688D02*
X117539D01*
X110020Y289369D02*
X117539D01*
X110020Y289050D02*
X117539D01*
X110020Y288731D02*
X117539D01*
X110020Y288412D02*
X117539D01*
X110020Y288093D02*
X117539D01*
X110020Y287774D02*
X117539D01*
X110020Y287455D02*
X117539D01*
X110020Y287136D02*
X117539D01*
X166929Y178740D02*
X174803D01*
X169291Y173228*
X174803Y178740D02*
X162205Y172441D01*
G54D50*
X123622Y274803D02*
X132976D01*
Y281886*
G74*
X0Y0D02*
M02*
