*
*
G04 PADS 9.5 Build Number: 522968 generated Gerber (RS-274-X) file*
G04 PC Version=2.1*
*
%IN "PLASMA_PIPETTE_TRANSFOR"*%
*
%MOIN*%
*
%FSLAX35Y35*%
*
*
*
*
G04 PC Standard Apertures*
*
*
G04 Thermal Relief Aperture macro.*
%AMTER*
1,1,$1,0,0*
1,0,$1-$2,0,0*
21,0,$3,$4,0,0,45*
21,0,$3,$4,0,0,135*
%
*
*
G04 Annular Aperture macro.*
%AMANN*
1,1,$1,0,0*
1,0,$2,0,0*
%
*
*
G04 Odd Aperture macro.*
%AMODD*
1,1,$1,0,0*
1,0,$1-0.005,0,0*
%
*
*
G04 PC Custom Aperture Macros*
*
*
*
*
*
*
G04 PC Aperture Table*
*
%ADD016C,0.00394*%
%ADD029R,0.02165X0.02165*%
%ADD030R,0.09055X0.04921*%
%ADD033R,0.15945X0.15945*%
%ADD045R,0.0315X0.04134*%
%ADD047C,0.001*%
%ADD048C,0.00354*%
*
*
*
*
G04 PC Circuitry*
G04 Layer Name PLASMA_PIPETTE_TRANSFOR - circuitry*
%LPD*%
*
*
G04 PC Custom Flashes*
G04 Layer Name PLASMA_PIPETTE_TRANSFOR - flashes*
%LPD*%
*
*
G04 PC Circuitry*
G04 Layer Name PLASMA_PIPETTE_TRANSFOR - circuitry*
%LPD*%
*
G54D16*
G01X176594Y237106D02*
X158839D01*
Y252776*
X176594*
Y237106*
X158858D02*
Y252776D01*
X159055Y237106D02*
Y252776D01*
X159252Y237106D02*
Y252776D01*
X159449Y237106D02*
Y252776D01*
X159646Y237106D02*
Y252776D01*
X159843Y237106D02*
Y252776D01*
X160039Y237106D02*
Y252776D01*
X160236Y237106D02*
Y252776D01*
X160433Y237106D02*
Y252776D01*
X160630Y237106D02*
Y252776D01*
X160827Y237106D02*
Y252776D01*
X161024Y237106D02*
Y252776D01*
X161220Y237106D02*
Y252776D01*
X161417Y237106D02*
Y252776D01*
X161614Y237106D02*
Y252776D01*
X161811Y237106D02*
Y252776D01*
X162008Y237106D02*
Y252776D01*
X162205Y237106D02*
Y252776D01*
X162402Y237106D02*
Y252776D01*
X162598Y237106D02*
Y252776D01*
X162795Y237106D02*
Y252776D01*
X162992Y237106D02*
Y252776D01*
X163189Y237106D02*
Y252776D01*
X163386Y237106D02*
Y252776D01*
X163583Y237106D02*
Y252776D01*
X163780Y237106D02*
Y252776D01*
X163976Y237106D02*
Y252776D01*
X164173Y237106D02*
Y252776D01*
X164370Y237106D02*
Y252776D01*
X164567Y237106D02*
Y252776D01*
X164764Y237106D02*
Y252776D01*
X164961Y237106D02*
Y252776D01*
X165157Y237106D02*
Y252776D01*
X165354Y237106D02*
Y252776D01*
X165551Y237106D02*
Y252776D01*
X165748Y237106D02*
Y252776D01*
X165945Y237106D02*
Y252776D01*
X166142Y237106D02*
Y252776D01*
X166339Y237106D02*
Y252776D01*
X166535Y237106D02*
Y252776D01*
X166732Y237106D02*
Y252776D01*
X166929Y237106D02*
Y252776D01*
X167126Y237106D02*
Y252776D01*
X167323Y237106D02*
Y252776D01*
X167520Y237106D02*
Y252776D01*
X167717Y237106D02*
Y252776D01*
X167913Y237106D02*
Y252776D01*
X168110Y237106D02*
Y252776D01*
X168307Y237106D02*
Y252776D01*
X168504Y237106D02*
Y252776D01*
X168701Y237106D02*
Y252776D01*
X168898Y237106D02*
Y252776D01*
X169094Y237106D02*
Y252776D01*
X169291Y237106D02*
Y252776D01*
X169488Y237106D02*
Y252776D01*
X169685Y237106D02*
Y252776D01*
X169882Y237106D02*
Y252776D01*
X170079Y237106D02*
Y252776D01*
X170276Y237106D02*
Y252776D01*
X170472Y237106D02*
Y252776D01*
X170669Y237106D02*
Y252776D01*
X170866Y237106D02*
Y252776D01*
X171063Y237106D02*
Y252776D01*
X171260Y237106D02*
Y252776D01*
X171457Y237106D02*
Y252776D01*
X171654Y237106D02*
Y252776D01*
X171850Y237106D02*
Y252776D01*
X172047Y237106D02*
Y252776D01*
X172244Y237106D02*
Y252776D01*
X172441Y237106D02*
Y252776D01*
X172638Y237106D02*
Y252776D01*
X172835Y237106D02*
Y252776D01*
X173031Y237106D02*
Y252776D01*
X173228Y237106D02*
Y252776D01*
X173425Y237106D02*
Y252776D01*
X173622Y237106D02*
Y252776D01*
X173819Y237106D02*
Y252776D01*
X174016Y237106D02*
Y252776D01*
X174213Y237106D02*
Y252776D01*
X174409Y237106D02*
Y252776D01*
X174606Y237106D02*
Y252776D01*
X174803Y237106D02*
Y252776D01*
X175000Y237106D02*
Y252776D01*
X175197Y237106D02*
Y252776D01*
X175394Y237106D02*
Y252776D01*
X175591Y237106D02*
Y252776D01*
X175787Y237106D02*
Y252776D01*
X175984Y237106D02*
Y252776D01*
X176181Y237106D02*
Y252776D01*
X176378Y237106D02*
Y252776D01*
X176575Y237106D02*
Y252776D01*
X178543Y247736D02*
X156890D01*
Y251102*
X178543*
Y247736*
X156890D02*
Y251102D01*
X157087Y247736D02*
Y251102D01*
X157283Y247736D02*
Y251102D01*
X157480Y247736D02*
Y251102D01*
X157677Y247736D02*
Y251102D01*
X157874Y247736D02*
Y251102D01*
X158071Y247736D02*
Y251102D01*
X158268Y247736D02*
Y251102D01*
X158465Y247736D02*
Y251102D01*
X158661Y247736D02*
Y251102D01*
X158858Y247736D02*
Y251102D01*
X159055Y247736D02*
Y251102D01*
X159252Y247736D02*
Y251102D01*
X159449Y247736D02*
Y251102D01*
X159646Y247736D02*
Y251102D01*
X159843Y247736D02*
Y251102D01*
X160039Y247736D02*
Y251102D01*
X160236Y247736D02*
Y251102D01*
X160433Y247736D02*
Y251102D01*
X160630Y247736D02*
Y251102D01*
X160827Y247736D02*
Y251102D01*
X161024Y247736D02*
Y251102D01*
X161220Y247736D02*
Y251102D01*
X161417Y247736D02*
Y251102D01*
X161614Y247736D02*
Y251102D01*
X161811Y247736D02*
Y251102D01*
X162008Y247736D02*
Y251102D01*
X162205Y247736D02*
Y251102D01*
X162402Y247736D02*
Y251102D01*
X162598Y247736D02*
Y251102D01*
X162795Y247736D02*
Y251102D01*
X162992Y247736D02*
Y251102D01*
X163189Y247736D02*
Y251102D01*
X163386Y247736D02*
Y251102D01*
X163583Y247736D02*
Y251102D01*
X163780Y247736D02*
Y251102D01*
X163976Y247736D02*
Y251102D01*
X164173Y247736D02*
Y251102D01*
X164370Y247736D02*
Y251102D01*
X164567Y247736D02*
Y251102D01*
X164764Y247736D02*
Y251102D01*
X164961Y247736D02*
Y251102D01*
X165157Y247736D02*
Y251102D01*
X165354Y247736D02*
Y251102D01*
X165551Y247736D02*
Y251102D01*
X165748Y247736D02*
Y251102D01*
X165945Y247736D02*
Y251102D01*
X166142Y247736D02*
Y251102D01*
X166339Y247736D02*
Y251102D01*
X166535Y247736D02*
Y251102D01*
X166732Y247736D02*
Y251102D01*
X166929Y247736D02*
Y251102D01*
X167126Y247736D02*
Y251102D01*
X167323Y247736D02*
Y251102D01*
X167520Y247736D02*
Y251102D01*
X167717Y247736D02*
Y251102D01*
X167913Y247736D02*
Y251102D01*
X168110Y247736D02*
Y251102D01*
X168307Y247736D02*
Y251102D01*
X168504Y247736D02*
Y251102D01*
X168701Y247736D02*
Y251102D01*
X168898Y247736D02*
Y251102D01*
X169094Y247736D02*
Y251102D01*
X169291Y247736D02*
Y251102D01*
X169488Y247736D02*
Y251102D01*
X169685Y247736D02*
Y251102D01*
X169882Y247736D02*
Y251102D01*
X170079Y247736D02*
Y251102D01*
X170276Y247736D02*
Y251102D01*
X170472Y247736D02*
Y251102D01*
X170669Y247736D02*
Y251102D01*
X170866Y247736D02*
Y251102D01*
X171063Y247736D02*
Y251102D01*
X171260Y247736D02*
Y251102D01*
X171457Y247736D02*
Y251102D01*
X171654Y247736D02*
Y251102D01*
X171850Y247736D02*
Y251102D01*
X172047Y247736D02*
Y251102D01*
X172244Y247736D02*
Y251102D01*
X172441Y247736D02*
Y251102D01*
X172638Y247736D02*
Y251102D01*
X172835Y247736D02*
Y251102D01*
X173031Y247736D02*
Y251102D01*
X173228Y247736D02*
Y251102D01*
X173425Y247736D02*
Y251102D01*
X173622Y247736D02*
Y251102D01*
X173819Y247736D02*
Y251102D01*
X174016Y247736D02*
Y251102D01*
X174213Y247736D02*
Y251102D01*
X174409Y247736D02*
Y251102D01*
X174606Y247736D02*
Y251102D01*
X174803Y247736D02*
Y251102D01*
X175000Y247736D02*
Y251102D01*
X175197Y247736D02*
Y251102D01*
X175394Y247736D02*
Y251102D01*
X175591Y247736D02*
Y251102D01*
X175787Y247736D02*
Y251102D01*
X175984Y247736D02*
Y251102D01*
X176181Y247736D02*
Y251102D01*
X176378Y247736D02*
Y251102D01*
X176575Y247736D02*
Y251102D01*
X176772Y247736D02*
Y251102D01*
X176969Y247736D02*
Y251102D01*
X177165Y247736D02*
Y251102D01*
X177362Y247736D02*
Y251102D01*
X177559Y247736D02*
Y251102D01*
X177756Y247736D02*
Y251102D01*
X177953Y247736D02*
Y251102D01*
X178150Y247736D02*
Y251102D01*
X178346Y247736D02*
Y251102D01*
X132894Y237106D02*
X115138D01*
Y252776*
X132894*
Y237106*
X115157D02*
Y252776D01*
X115354Y237106D02*
Y252776D01*
X115551Y237106D02*
Y252776D01*
X115748Y237106D02*
Y252776D01*
X115945Y237106D02*
Y252776D01*
X116142Y237106D02*
Y252776D01*
X116339Y237106D02*
Y252776D01*
X116535Y237106D02*
Y252776D01*
X116732Y237106D02*
Y252776D01*
X116929Y237106D02*
Y252776D01*
X117126Y237106D02*
Y252776D01*
X117323Y237106D02*
Y252776D01*
X117520Y237106D02*
Y252776D01*
X117717Y237106D02*
Y252776D01*
X117913Y237106D02*
Y252776D01*
X118110Y237106D02*
Y252776D01*
X118307Y237106D02*
Y252776D01*
X118504Y237106D02*
Y252776D01*
X118701Y237106D02*
Y252776D01*
X118898Y237106D02*
Y252776D01*
X119094Y237106D02*
Y252776D01*
X119291Y237106D02*
Y252776D01*
X119488Y237106D02*
Y252776D01*
X119685Y237106D02*
Y252776D01*
X119882Y237106D02*
Y252776D01*
X120079Y237106D02*
Y252776D01*
X120276Y237106D02*
Y252776D01*
X120472Y237106D02*
Y252776D01*
X120669Y237106D02*
Y252776D01*
X120866Y237106D02*
Y252776D01*
X121063Y237106D02*
Y252776D01*
X121260Y237106D02*
Y252776D01*
X121457Y237106D02*
Y252776D01*
X121654Y237106D02*
Y252776D01*
X121850Y237106D02*
Y252776D01*
X122047Y237106D02*
Y252776D01*
X122244Y237106D02*
Y252776D01*
X122441Y237106D02*
Y252776D01*
X122638Y237106D02*
Y252776D01*
X122835Y237106D02*
Y252776D01*
X123031Y237106D02*
Y252776D01*
X123228Y237106D02*
Y252776D01*
X123425Y237106D02*
Y252776D01*
X123622Y237106D02*
Y252776D01*
X123819Y237106D02*
Y252776D01*
X124016Y237106D02*
Y252776D01*
X124213Y237106D02*
Y252776D01*
X124409Y237106D02*
Y252776D01*
X124606Y237106D02*
Y252776D01*
X124803Y237106D02*
Y252776D01*
X125000Y237106D02*
Y252776D01*
X125197Y237106D02*
Y252776D01*
X125394Y237106D02*
Y252776D01*
X125591Y237106D02*
Y252776D01*
X125787Y237106D02*
Y252776D01*
X125984Y237106D02*
Y252776D01*
X126181Y237106D02*
Y252776D01*
X126378Y237106D02*
Y252776D01*
X126575Y237106D02*
Y252776D01*
X126772Y237106D02*
Y252776D01*
X126969Y237106D02*
Y252776D01*
X127165Y237106D02*
Y252776D01*
X127362Y237106D02*
Y252776D01*
X127559Y237106D02*
Y252776D01*
X127756Y237106D02*
Y252776D01*
X127953Y237106D02*
Y252776D01*
X128150Y237106D02*
Y252776D01*
X128346Y237106D02*
Y252776D01*
X128543Y237106D02*
Y252776D01*
X128740Y237106D02*
Y252776D01*
X128937Y237106D02*
Y252776D01*
X129134Y237106D02*
Y252776D01*
X129331Y237106D02*
Y252776D01*
X129528Y237106D02*
Y252776D01*
X129724Y237106D02*
Y252776D01*
X129921Y237106D02*
Y252776D01*
X130118Y237106D02*
Y252776D01*
X130315Y237106D02*
Y252776D01*
X130512Y237106D02*
Y252776D01*
X130709Y237106D02*
Y252776D01*
X130906Y237106D02*
Y252776D01*
X131102Y237106D02*
Y252776D01*
X131299Y237106D02*
Y252776D01*
X131496Y237106D02*
Y252776D01*
X131693Y237106D02*
Y252776D01*
X131890Y237106D02*
Y252776D01*
X132087Y237106D02*
Y252776D01*
X132283Y237106D02*
Y252776D01*
X132480Y237106D02*
Y252776D01*
X132677Y237106D02*
Y252776D01*
X132874Y237106D02*
Y252776D01*
X134843Y247736D02*
X113189D01*
Y251102*
X134843*
Y247736*
X113189D02*
Y251102D01*
X113386Y247736D02*
Y251102D01*
X113583Y247736D02*
Y251102D01*
X113780Y247736D02*
Y251102D01*
X113976Y247736D02*
Y251102D01*
X114173Y247736D02*
Y251102D01*
X114370Y247736D02*
Y251102D01*
X114567Y247736D02*
Y251102D01*
X114764Y247736D02*
Y251102D01*
X114961Y247736D02*
Y251102D01*
X115157Y247736D02*
Y251102D01*
X115354Y247736D02*
Y251102D01*
X115551Y247736D02*
Y251102D01*
X115748Y247736D02*
Y251102D01*
X115945Y247736D02*
Y251102D01*
X116142Y247736D02*
Y251102D01*
X116339Y247736D02*
Y251102D01*
X116535Y247736D02*
Y251102D01*
X116732Y247736D02*
Y251102D01*
X116929Y247736D02*
Y251102D01*
X117126Y247736D02*
Y251102D01*
X117323Y247736D02*
Y251102D01*
X117520Y247736D02*
Y251102D01*
X117717Y247736D02*
Y251102D01*
X117913Y247736D02*
Y251102D01*
X118110Y247736D02*
Y251102D01*
X118307Y247736D02*
Y251102D01*
X118504Y247736D02*
Y251102D01*
X118701Y247736D02*
Y251102D01*
X118898Y247736D02*
Y251102D01*
X119094Y247736D02*
Y251102D01*
X119291Y247736D02*
Y251102D01*
X119488Y247736D02*
Y251102D01*
X119685Y247736D02*
Y251102D01*
X119882Y247736D02*
Y251102D01*
X120079Y247736D02*
Y251102D01*
X120276Y247736D02*
Y251102D01*
X120472Y247736D02*
Y251102D01*
X120669Y247736D02*
Y251102D01*
X120866Y247736D02*
Y251102D01*
X121063Y247736D02*
Y251102D01*
X121260Y247736D02*
Y251102D01*
X121457Y247736D02*
Y251102D01*
X121654Y247736D02*
Y251102D01*
X121850Y247736D02*
Y251102D01*
X122047Y247736D02*
Y251102D01*
X122244Y247736D02*
Y251102D01*
X122441Y247736D02*
Y251102D01*
X122638Y247736D02*
Y251102D01*
X122835Y247736D02*
Y251102D01*
X123031Y247736D02*
Y251102D01*
X123228Y247736D02*
Y251102D01*
X123425Y247736D02*
Y251102D01*
X123622Y247736D02*
Y251102D01*
X123819Y247736D02*
Y251102D01*
X124016Y247736D02*
Y251102D01*
X124213Y247736D02*
Y251102D01*
X124409Y247736D02*
Y251102D01*
X124606Y247736D02*
Y251102D01*
X124803Y247736D02*
Y251102D01*
X125000Y247736D02*
Y251102D01*
X125197Y247736D02*
Y251102D01*
X125394Y247736D02*
Y251102D01*
X125591Y247736D02*
Y251102D01*
X125787Y247736D02*
Y251102D01*
X125984Y247736D02*
Y251102D01*
X126181Y247736D02*
Y251102D01*
X126378Y247736D02*
Y251102D01*
X126575Y247736D02*
Y251102D01*
X126772Y247736D02*
Y251102D01*
X126969Y247736D02*
Y251102D01*
X127165Y247736D02*
Y251102D01*
X127362Y247736D02*
Y251102D01*
X127559Y247736D02*
Y251102D01*
X127756Y247736D02*
Y251102D01*
X127953Y247736D02*
Y251102D01*
X128150Y247736D02*
Y251102D01*
X128346Y247736D02*
Y251102D01*
X128543Y247736D02*
Y251102D01*
X128740Y247736D02*
Y251102D01*
X128937Y247736D02*
Y251102D01*
X129134Y247736D02*
Y251102D01*
X129331Y247736D02*
Y251102D01*
X129528Y247736D02*
Y251102D01*
X129724Y247736D02*
Y251102D01*
X129921Y247736D02*
Y251102D01*
X130118Y247736D02*
Y251102D01*
X130315Y247736D02*
Y251102D01*
X130512Y247736D02*
Y251102D01*
X130709Y247736D02*
Y251102D01*
X130906Y247736D02*
Y251102D01*
X131102Y247736D02*
Y251102D01*
X131299Y247736D02*
Y251102D01*
X131496Y247736D02*
Y251102D01*
X131693Y247736D02*
Y251102D01*
X131890Y247736D02*
Y251102D01*
X132087Y247736D02*
Y251102D01*
X132283Y247736D02*
Y251102D01*
X132480Y247736D02*
Y251102D01*
X132677Y247736D02*
Y251102D01*
X132874Y247736D02*
Y251102D01*
X133071Y247736D02*
Y251102D01*
X133268Y247736D02*
Y251102D01*
X133465Y247736D02*
Y251102D01*
X133661Y247736D02*
Y251102D01*
X133858Y247736D02*
Y251102D01*
X134055Y247736D02*
Y251102D01*
X134252Y247736D02*
Y251102D01*
X134449Y247736D02*
Y251102D01*
X134646Y247736D02*
Y251102D01*
X131818Y170866D02*
X131639Y171358D01*
X131281Y171850*
X130923Y172096*
X130208*
X129850Y171850*
X129492Y171358*
X129313Y170866*
X129134Y170128*
Y168898*
X129313Y168159*
X129492Y167667*
X129850Y167175*
X130208Y166929*
X130923*
X131281Y167175*
X131639Y167667*
X131818Y168159*
X133429Y170374D02*
Y167913D01*
X133608Y167175*
X133966Y166929*
X134503*
X134860Y167175*
X135397Y167913*
Y170374D02*
Y166929D01*
X137545Y172096D02*
Y167913D01*
X137724Y167175*
X138082Y166929*
X138440*
X137008Y170374D02*
X138261D01*
X140587Y172096D02*
Y167913D01*
X140766Y167175*
X141124Y166929*
X141482*
X140050Y170374D02*
X141303D01*
X143092Y172096D02*
X143271Y171850D01*
X143450Y172096*
X143271Y172343*
X143092Y172096*
X143271Y170374D02*
Y166929D01*
X145061Y170374D02*
Y166929D01*
Y169390D02*
X145598Y170128D01*
X145956Y170374*
X146492*
X146850Y170128*
X147029Y169390*
Y166929*
X150787Y170374D02*
Y166437D01*
X150608Y165699*
X150429Y165453*
X150072Y165207*
X149535*
X149177Y165453*
X150787Y169636D02*
X150429Y170128D01*
X150072Y170374*
X149535*
X149177Y170128*
X148819Y169636*
X148640Y168898*
Y168406*
X148819Y167667*
X149177Y167175*
X149535Y166929*
X150072*
X150429Y167175*
X150787Y167667*
X156514Y172096D02*
Y166929D01*
X158661*
X160272Y172096D02*
X160451Y171850D01*
X160630Y172096*
X160451Y172343*
X160272Y172096*
X160451Y170374D02*
Y166929D01*
X162241Y170374D02*
Y166929D01*
Y169390D02*
X162777Y170128D01*
X163135Y170374*
X163672*
X164030Y170128*
X164209Y169390*
Y166929*
X165820Y168898D02*
X167967D01*
Y169390*
X167788Y169882*
X167609Y170128*
X167251Y170374*
X166714*
X166356Y170128*
X165999Y169636*
X165820Y168898*
Y168406*
X165999Y167667*
X166356Y167175*
X166714Y166929*
X167251*
X167609Y167175*
X167967Y167667*
X107874Y101181D02*
G75*
G03X109055Y100000I1181J0D01*
G01X181496*
G03X182677Y101181I0J1181*
G01Y111811*
X186614Y115748D02*
G03X182677Y111811I0J-3937D01*
G01X186614Y115748D02*
X192520D01*
G03X194488Y117717I-0J1969*
G01Y216142*
G03X192520Y218110I-1968J-0*
G01X186614*
X182677Y222047D02*
G03X186614Y218110I3937J0D01*
G01X182677Y222047D02*
Y302756D01*
G03X180709Y304724I-1968J-0*
G01X109843*
G03X107874Y302756I-0J-1968*
G01Y222047*
X103937Y218110D02*
G03X107874Y222047I0J3937D01*
G01X103937Y218110D02*
X98031D01*
G03X96063Y216142I0J-1968*
G01Y117717*
G03X98031Y115748I1968J-0*
G01X103937*
X107874Y111811D02*
G03X103937Y115748I-3937J0D01*
G01X107874Y111811D02*
Y101181D01*
X119685Y202362D02*
G03X115748Y198425I0J-3937D01*
G01X119685Y202362D02*
X170866D01*
X174803Y198425D02*
G03X170866Y202362I-3937J0D01*
G01X174803Y198425D02*
Y135433D01*
X170866Y131496D02*
G03X174803Y135433I0J3937D01*
G01X170866Y131496D02*
X119685D01*
X115748Y135433D02*
G03X119685Y131496I3937J0D01*
G01X115748Y135433D02*
Y198425D01*
G54D29*
X152756Y278346D03*
Y281496D03*
X128307Y267717D03*
X131457D03*
X172047D03*
X175197D03*
G54D30*
X154626Y300984D03*
X135925D03*
X154626Y294291D03*
X135925D03*
G54D33*
X173031Y109094D03*
X117520Y109213D03*
G54D45*
X160217Y258642D03*
X165217D03*
X170217D03*
X175217D03*
Y237008D03*
X160217D03*
X116516Y258642D03*
X121516D03*
X126516D03*
X131516D03*
Y237008D03*
X116516D03*
G54D47*
G54D48*
X166929Y178740D02*
X174803D01*
X169291Y173228*
X174803Y178740D02*
X162205Y172441D01*
G74*
X0Y0D02*
M02*
