*
*
G04 PADS VX.2.3 Build Number: 9191294 generated Gerber (RS-274-X) file*
G04 PC Version=2.1*
*
%IN "Plasma_Gen_Transformer_"*%
*
%MOIN*%
*
%FSLAX35Y35*%
*
*
*
*
G04 PC Standard Apertures*
*
*
G04 Thermal Relief Aperture macro.*
%AMTER*
1,1,$1,0,0*
1,0,$1-$2,0,0*
21,0,$3,$4,0,0,45*
21,0,$3,$4,0,0,135*
%
*
*
G04 Annular Aperture macro.*
%AMANN*
1,1,$1,0,0*
1,0,$2,0,0*
%
*
*
G04 Odd Aperture macro.*
%AMODD*
1,1,$1,0,0*
1,0,$1-0.005,0,0*
%
*
*
G04 PC Custom Aperture Macros*
*
*
*
*
*
*
G04 PC Aperture Table*
*
%ADD011R,0.01969X0.01969*%
%ADD012R,0.08858X0.04724*%
%ADD015R,0.15748X0.15748*%
%ADD016C,0.00394*%
%ADD017C,0.02362*%
%ADD019C,0.00787*%
%ADD021C,0.01181*%
%ADD041R,0.02953X0.03937*%
%ADD044C,0.02756*%
%ADD047C,0.001*%
%ADD048C,0.00354*%
%ADD049C,0.03937*%
*
*
*
*
G04 PC Circuitry*
G04 Layer Name Plasma_Gen_Transformer_ - circuitry*
%LPD*%
*
*
G04 PC Custom Flashes*
G04 Layer Name Plasma_Gen_Transformer_ - flashes*
%LPD*%
*
*
G04 PC Circuitry*
G04 Layer Name Plasma_Gen_Transformer_ - circuitry*
%LPD*%
*
G54D11*
G01X166614Y283071D03*
X163465D03*
X128307Y267717D03*
X131457D03*
X172047D03*
X175197D03*
G54D12*
X154626Y300984D03*
X135925D03*
X154626Y294291D03*
X135925D03*
G54D15*
X173031Y109094D03*
X117520Y109213D03*
G54D16*
X176496Y237205D02*
X158937D01*
Y252677*
X176496*
Y237205*
X159055D02*
Y252677D01*
X159252Y237205D02*
Y252677D01*
X159449Y237205D02*
Y252677D01*
X159646Y237205D02*
Y252677D01*
X159843Y237205D02*
Y252677D01*
X160039Y237205D02*
Y252677D01*
X160236Y237205D02*
Y252677D01*
X160433Y237205D02*
Y252677D01*
X160630Y237205D02*
Y252677D01*
X160827Y237205D02*
Y252677D01*
X161024Y237205D02*
Y252677D01*
X161220Y237205D02*
Y252677D01*
X161417Y237205D02*
Y252677D01*
X161614Y237205D02*
Y252677D01*
X161811Y237205D02*
Y252677D01*
X162008Y237205D02*
Y252677D01*
X162205Y237205D02*
Y252677D01*
X162402Y237205D02*
Y252677D01*
X162598Y237205D02*
Y252677D01*
X162795Y237205D02*
Y252677D01*
X162992Y237205D02*
Y252677D01*
X163189Y237205D02*
Y252677D01*
X163386Y237205D02*
Y252677D01*
X163583Y237205D02*
Y252677D01*
X163780Y237205D02*
Y252677D01*
X163976Y237205D02*
Y252677D01*
X164173Y237205D02*
Y252677D01*
X164370Y237205D02*
Y252677D01*
X164567Y237205D02*
Y252677D01*
X164764Y237205D02*
Y252677D01*
X164961Y237205D02*
Y252677D01*
X165157Y237205D02*
Y252677D01*
X165354Y237205D02*
Y252677D01*
X165551Y237205D02*
Y252677D01*
X165748Y237205D02*
Y252677D01*
X165945Y237205D02*
Y252677D01*
X166142Y237205D02*
Y252677D01*
X166339Y237205D02*
Y252677D01*
X166535Y237205D02*
Y252677D01*
X166732Y237205D02*
Y252677D01*
X166929Y237205D02*
Y252677D01*
X167126Y237205D02*
Y252677D01*
X167323Y237205D02*
Y252677D01*
X167520Y237205D02*
Y252677D01*
X167717Y237205D02*
Y252677D01*
X167913Y237205D02*
Y252677D01*
X168110Y237205D02*
Y252677D01*
X168307Y237205D02*
Y252677D01*
X168504Y237205D02*
Y252677D01*
X168701Y237205D02*
Y252677D01*
X168898Y237205D02*
Y252677D01*
X169094Y237205D02*
Y252677D01*
X169291Y237205D02*
Y252677D01*
X169488Y237205D02*
Y252677D01*
X169685Y237205D02*
Y252677D01*
X169882Y237205D02*
Y252677D01*
X170079Y237205D02*
Y252677D01*
X170276Y237205D02*
Y252677D01*
X170472Y237205D02*
Y252677D01*
X170669Y237205D02*
Y252677D01*
X170866Y237205D02*
Y252677D01*
X171063Y237205D02*
Y252677D01*
X171260Y237205D02*
Y252677D01*
X171457Y237205D02*
Y252677D01*
X171654Y237205D02*
Y252677D01*
X171850Y237205D02*
Y252677D01*
X172047Y237205D02*
Y252677D01*
X172244Y237205D02*
Y252677D01*
X172441Y237205D02*
Y252677D01*
X172638Y237205D02*
Y252677D01*
X172835Y237205D02*
Y252677D01*
X173031Y237205D02*
Y252677D01*
X173228Y237205D02*
Y252677D01*
X173425Y237205D02*
Y252677D01*
X173622Y237205D02*
Y252677D01*
X173819Y237205D02*
Y252677D01*
X174016Y237205D02*
Y252677D01*
X174213Y237205D02*
Y252677D01*
X174409Y237205D02*
Y252677D01*
X174606Y237205D02*
Y252677D01*
X174803Y237205D02*
Y252677D01*
X175000Y237205D02*
Y252677D01*
X175197Y237205D02*
Y252677D01*
X175394Y237205D02*
Y252677D01*
X175591Y237205D02*
Y252677D01*
X175787Y237205D02*
Y252677D01*
X175984Y237205D02*
Y252677D01*
X176181Y237205D02*
Y252677D01*
X176378Y237205D02*
Y252677D01*
X178445Y247835D02*
X156988D01*
Y251004*
X178445*
Y247835*
X157087D02*
Y251004D01*
X157283Y247835D02*
Y251004D01*
X157480Y247835D02*
Y251004D01*
X157677Y247835D02*
Y251004D01*
X157874Y247835D02*
Y251004D01*
X158071Y247835D02*
Y251004D01*
X158268Y247835D02*
Y251004D01*
X158465Y247835D02*
Y251004D01*
X158661Y247835D02*
Y251004D01*
X158858Y247835D02*
Y251004D01*
X159055Y247835D02*
Y251004D01*
X159252Y247835D02*
Y251004D01*
X159449Y247835D02*
Y251004D01*
X159646Y247835D02*
Y251004D01*
X159843Y247835D02*
Y251004D01*
X160039Y247835D02*
Y251004D01*
X160236Y247835D02*
Y251004D01*
X160433Y247835D02*
Y251004D01*
X160630Y247835D02*
Y251004D01*
X160827Y247835D02*
Y251004D01*
X161024Y247835D02*
Y251004D01*
X161220Y247835D02*
Y251004D01*
X161417Y247835D02*
Y251004D01*
X161614Y247835D02*
Y251004D01*
X161811Y247835D02*
Y251004D01*
X162008Y247835D02*
Y251004D01*
X162205Y247835D02*
Y251004D01*
X162402Y247835D02*
Y251004D01*
X162598Y247835D02*
Y251004D01*
X162795Y247835D02*
Y251004D01*
X162992Y247835D02*
Y251004D01*
X163189Y247835D02*
Y251004D01*
X163386Y247835D02*
Y251004D01*
X163583Y247835D02*
Y251004D01*
X163780Y247835D02*
Y251004D01*
X163976Y247835D02*
Y251004D01*
X164173Y247835D02*
Y251004D01*
X164370Y247835D02*
Y251004D01*
X164567Y247835D02*
Y251004D01*
X164764Y247835D02*
Y251004D01*
X164961Y247835D02*
Y251004D01*
X165157Y247835D02*
Y251004D01*
X165354Y247835D02*
Y251004D01*
X165551Y247835D02*
Y251004D01*
X165748Y247835D02*
Y251004D01*
X165945Y247835D02*
Y251004D01*
X166142Y247835D02*
Y251004D01*
X166339Y247835D02*
Y251004D01*
X166535Y247835D02*
Y251004D01*
X166732Y247835D02*
Y251004D01*
X166929Y247835D02*
Y251004D01*
X167126Y247835D02*
Y251004D01*
X167323Y247835D02*
Y251004D01*
X167520Y247835D02*
Y251004D01*
X167717Y247835D02*
Y251004D01*
X167913Y247835D02*
Y251004D01*
X168110Y247835D02*
Y251004D01*
X168307Y247835D02*
Y251004D01*
X168504Y247835D02*
Y251004D01*
X168701Y247835D02*
Y251004D01*
X168898Y247835D02*
Y251004D01*
X169094Y247835D02*
Y251004D01*
X169291Y247835D02*
Y251004D01*
X169488Y247835D02*
Y251004D01*
X169685Y247835D02*
Y251004D01*
X169882Y247835D02*
Y251004D01*
X170079Y247835D02*
Y251004D01*
X170276Y247835D02*
Y251004D01*
X170472Y247835D02*
Y251004D01*
X170669Y247835D02*
Y251004D01*
X170866Y247835D02*
Y251004D01*
X171063Y247835D02*
Y251004D01*
X171260Y247835D02*
Y251004D01*
X171457Y247835D02*
Y251004D01*
X171654Y247835D02*
Y251004D01*
X171850Y247835D02*
Y251004D01*
X172047Y247835D02*
Y251004D01*
X172244Y247835D02*
Y251004D01*
X172441Y247835D02*
Y251004D01*
X172638Y247835D02*
Y251004D01*
X172835Y247835D02*
Y251004D01*
X173031Y247835D02*
Y251004D01*
X173228Y247835D02*
Y251004D01*
X173425Y247835D02*
Y251004D01*
X173622Y247835D02*
Y251004D01*
X173819Y247835D02*
Y251004D01*
X174016Y247835D02*
Y251004D01*
X174213Y247835D02*
Y251004D01*
X174409Y247835D02*
Y251004D01*
X174606Y247835D02*
Y251004D01*
X174803Y247835D02*
Y251004D01*
X175000Y247835D02*
Y251004D01*
X175197Y247835D02*
Y251004D01*
X175394Y247835D02*
Y251004D01*
X175591Y247835D02*
Y251004D01*
X175787Y247835D02*
Y251004D01*
X175984Y247835D02*
Y251004D01*
X176181Y247835D02*
Y251004D01*
X176378Y247835D02*
Y251004D01*
X176575Y247835D02*
Y251004D01*
X176772Y247835D02*
Y251004D01*
X176969Y247835D02*
Y251004D01*
X177165Y247835D02*
Y251004D01*
X177362Y247835D02*
Y251004D01*
X177559Y247835D02*
Y251004D01*
X177756Y247835D02*
Y251004D01*
X177953Y247835D02*
Y251004D01*
X178150Y247835D02*
Y251004D01*
X178346Y247835D02*
Y251004D01*
X132795Y237205D02*
X115236D01*
Y252677*
X132795*
Y237205*
X115354D02*
Y252677D01*
X115551Y237205D02*
Y252677D01*
X115748Y237205D02*
Y252677D01*
X115945Y237205D02*
Y252677D01*
X116142Y237205D02*
Y252677D01*
X116339Y237205D02*
Y252677D01*
X116535Y237205D02*
Y252677D01*
X116732Y237205D02*
Y252677D01*
X116929Y237205D02*
Y252677D01*
X117126Y237205D02*
Y252677D01*
X117323Y237205D02*
Y252677D01*
X117520Y237205D02*
Y252677D01*
X117717Y237205D02*
Y252677D01*
X117913Y237205D02*
Y252677D01*
X118110Y237205D02*
Y252677D01*
X118307Y237205D02*
Y252677D01*
X118504Y237205D02*
Y252677D01*
X118701Y237205D02*
Y252677D01*
X118898Y237205D02*
Y252677D01*
X119094Y237205D02*
Y252677D01*
X119291Y237205D02*
Y252677D01*
X119488Y237205D02*
Y252677D01*
X119685Y237205D02*
Y252677D01*
X119882Y237205D02*
Y252677D01*
X120079Y237205D02*
Y252677D01*
X120276Y237205D02*
Y252677D01*
X120472Y237205D02*
Y252677D01*
X120669Y237205D02*
Y252677D01*
X120866Y237205D02*
Y252677D01*
X121063Y237205D02*
Y252677D01*
X121260Y237205D02*
Y252677D01*
X121457Y237205D02*
Y252677D01*
X121654Y237205D02*
Y252677D01*
X121850Y237205D02*
Y252677D01*
X122047Y237205D02*
Y252677D01*
X122244Y237205D02*
Y252677D01*
X122441Y237205D02*
Y252677D01*
X122638Y237205D02*
Y252677D01*
X122835Y237205D02*
Y252677D01*
X123031Y237205D02*
Y252677D01*
X123228Y237205D02*
Y252677D01*
X123425Y237205D02*
Y252677D01*
X123622Y237205D02*
Y252677D01*
X123819Y237205D02*
Y252677D01*
X124016Y237205D02*
Y252677D01*
X124213Y237205D02*
Y252677D01*
X124409Y237205D02*
Y252677D01*
X124606Y237205D02*
Y252677D01*
X124803Y237205D02*
Y252677D01*
X125000Y237205D02*
Y252677D01*
X125197Y237205D02*
Y252677D01*
X125394Y237205D02*
Y252677D01*
X125591Y237205D02*
Y252677D01*
X125787Y237205D02*
Y252677D01*
X125984Y237205D02*
Y252677D01*
X126181Y237205D02*
Y252677D01*
X126378Y237205D02*
Y252677D01*
X126575Y237205D02*
Y252677D01*
X126772Y237205D02*
Y252677D01*
X126969Y237205D02*
Y252677D01*
X127165Y237205D02*
Y252677D01*
X127362Y237205D02*
Y252677D01*
X127559Y237205D02*
Y252677D01*
X127756Y237205D02*
Y252677D01*
X127953Y237205D02*
Y252677D01*
X128150Y237205D02*
Y252677D01*
X128346Y237205D02*
Y252677D01*
X128543Y237205D02*
Y252677D01*
X128740Y237205D02*
Y252677D01*
X128937Y237205D02*
Y252677D01*
X129134Y237205D02*
Y252677D01*
X129331Y237205D02*
Y252677D01*
X129528Y237205D02*
Y252677D01*
X129724Y237205D02*
Y252677D01*
X129921Y237205D02*
Y252677D01*
X130118Y237205D02*
Y252677D01*
X130315Y237205D02*
Y252677D01*
X130512Y237205D02*
Y252677D01*
X130709Y237205D02*
Y252677D01*
X130906Y237205D02*
Y252677D01*
X131102Y237205D02*
Y252677D01*
X131299Y237205D02*
Y252677D01*
X131496Y237205D02*
Y252677D01*
X131693Y237205D02*
Y252677D01*
X131890Y237205D02*
Y252677D01*
X132087Y237205D02*
Y252677D01*
X132283Y237205D02*
Y252677D01*
X132480Y237205D02*
Y252677D01*
X132677Y237205D02*
Y252677D01*
X134744Y247835D02*
X113287D01*
Y251004*
X134744*
Y247835*
X113386D02*
Y251004D01*
X113583Y247835D02*
Y251004D01*
X113780Y247835D02*
Y251004D01*
X113976Y247835D02*
Y251004D01*
X114173Y247835D02*
Y251004D01*
X114370Y247835D02*
Y251004D01*
X114567Y247835D02*
Y251004D01*
X114764Y247835D02*
Y251004D01*
X114961Y247835D02*
Y251004D01*
X115157Y247835D02*
Y251004D01*
X115354Y247835D02*
Y251004D01*
X115551Y247835D02*
Y251004D01*
X115748Y247835D02*
Y251004D01*
X115945Y247835D02*
Y251004D01*
X116142Y247835D02*
Y251004D01*
X116339Y247835D02*
Y251004D01*
X116535Y247835D02*
Y251004D01*
X116732Y247835D02*
Y251004D01*
X116929Y247835D02*
Y251004D01*
X117126Y247835D02*
Y251004D01*
X117323Y247835D02*
Y251004D01*
X117520Y247835D02*
Y251004D01*
X117717Y247835D02*
Y251004D01*
X117913Y247835D02*
Y251004D01*
X118110Y247835D02*
Y251004D01*
X118307Y247835D02*
Y251004D01*
X118504Y247835D02*
Y251004D01*
X118701Y247835D02*
Y251004D01*
X118898Y247835D02*
Y251004D01*
X119094Y247835D02*
Y251004D01*
X119291Y247835D02*
Y251004D01*
X119488Y247835D02*
Y251004D01*
X119685Y247835D02*
Y251004D01*
X119882Y247835D02*
Y251004D01*
X120079Y247835D02*
Y251004D01*
X120276Y247835D02*
Y251004D01*
X120472Y247835D02*
Y251004D01*
X120669Y247835D02*
Y251004D01*
X120866Y247835D02*
Y251004D01*
X121063Y247835D02*
Y251004D01*
X121260Y247835D02*
Y251004D01*
X121457Y247835D02*
Y251004D01*
X121654Y247835D02*
Y251004D01*
X121850Y247835D02*
Y251004D01*
X122047Y247835D02*
Y251004D01*
X122244Y247835D02*
Y251004D01*
X122441Y247835D02*
Y251004D01*
X122638Y247835D02*
Y251004D01*
X122835Y247835D02*
Y251004D01*
X123031Y247835D02*
Y251004D01*
X123228Y247835D02*
Y251004D01*
X123425Y247835D02*
Y251004D01*
X123622Y247835D02*
Y251004D01*
X123819Y247835D02*
Y251004D01*
X124016Y247835D02*
Y251004D01*
X124213Y247835D02*
Y251004D01*
X124409Y247835D02*
Y251004D01*
X124606Y247835D02*
Y251004D01*
X124803Y247835D02*
Y251004D01*
X125000Y247835D02*
Y251004D01*
X125197Y247835D02*
Y251004D01*
X125394Y247835D02*
Y251004D01*
X125591Y247835D02*
Y251004D01*
X125787Y247835D02*
Y251004D01*
X125984Y247835D02*
Y251004D01*
X126181Y247835D02*
Y251004D01*
X126378Y247835D02*
Y251004D01*
X126575Y247835D02*
Y251004D01*
X126772Y247835D02*
Y251004D01*
X126969Y247835D02*
Y251004D01*
X127165Y247835D02*
Y251004D01*
X127362Y247835D02*
Y251004D01*
X127559Y247835D02*
Y251004D01*
X127756Y247835D02*
Y251004D01*
X127953Y247835D02*
Y251004D01*
X128150Y247835D02*
Y251004D01*
X128346Y247835D02*
Y251004D01*
X128543Y247835D02*
Y251004D01*
X128740Y247835D02*
Y251004D01*
X128937Y247835D02*
Y251004D01*
X129134Y247835D02*
Y251004D01*
X129331Y247835D02*
Y251004D01*
X129528Y247835D02*
Y251004D01*
X129724Y247835D02*
Y251004D01*
X129921Y247835D02*
Y251004D01*
X130118Y247835D02*
Y251004D01*
X130315Y247835D02*
Y251004D01*
X130512Y247835D02*
Y251004D01*
X130709Y247835D02*
Y251004D01*
X130906Y247835D02*
Y251004D01*
X131102Y247835D02*
Y251004D01*
X131299Y247835D02*
Y251004D01*
X131496Y247835D02*
Y251004D01*
X131693Y247835D02*
Y251004D01*
X131890Y247835D02*
Y251004D01*
X132087Y247835D02*
Y251004D01*
X132283Y247835D02*
Y251004D01*
X132480Y247835D02*
Y251004D01*
X132677Y247835D02*
Y251004D01*
X132874Y247835D02*
Y251004D01*
X133071Y247835D02*
Y251004D01*
X133268Y247835D02*
Y251004D01*
X133465Y247835D02*
Y251004D01*
X133661Y247835D02*
Y251004D01*
X133858Y247835D02*
Y251004D01*
X134055Y247835D02*
Y251004D01*
X134252Y247835D02*
Y251004D01*
X134449Y247835D02*
Y251004D01*
X134646Y247835D02*
Y251004D01*
X107874Y101181D02*
G75*
G03X109055Y100000I1181J0D01*
G01X181496*
G03X182677Y101181I0J1181*
G01Y111811*
X186614Y115748D02*
G03X182677Y111811I0J-3937D01*
G01X186614Y115748D02*
X192520D01*
G03X194488Y117717I-0J1969*
G01Y216142*
G03X192520Y218110I-1968J-0*
G01X186614*
X182677Y222047D02*
G03X186614Y218110I3937J0D01*
G01X182677Y222047D02*
Y302756D01*
G03X180709Y304724I-1968J-0*
G01X109843*
G03X107874Y302756I-0J-1968*
G01Y222047*
X103937Y218110D02*
G03X107874Y222047I0J3937D01*
G01X103937Y218110D02*
X98031D01*
G03X96063Y216142I0J-1968*
G01Y117717*
G03X98031Y115748I1968J-0*
G01X103937*
X107874Y111811D02*
G03X103937Y115748I-3937J0D01*
G01X107874Y111811D02*
Y101181D01*
G54D17*
X122835Y105748D03*
X168189Y105236D03*
X120079Y288583D03*
X125984D03*
Y298031D03*
X120079D03*
X116535Y258661D03*
X121654D03*
X126772D03*
X139370Y265354D03*
Y241732D03*
X127559Y281102D03*
X111811D03*
Y261417D03*
Y233858D03*
X135433D03*
X120669Y239252D03*
X137913Y280079D03*
X145669Y233858D03*
X147638Y280315D03*
X157480D03*
X164567Y288583D03*
X170866D03*
Y298031D03*
X164567D03*
X160236Y258268D03*
X165354Y259055D03*
X170079D03*
X151181Y241732D03*
Y261417D03*
X166929Y269291D03*
X143307D03*
X155118Y233858D03*
X178740Y273228D03*
X152677Y283465D03*
X142835Y279921D03*
X164843Y239724D03*
X178740Y232283D03*
X170866D03*
X136220Y300000D03*
X138976Y301969D03*
X133071D03*
X111811Y300787D03*
X154724Y300000D03*
X157874Y301969D03*
X151575D03*
X178740Y300787D03*
G54D19*
X131457Y267717D02*
X134291D01*
X137913Y271339*
Y280079*
X116516Y237008D02*
Y239252D01*
X120669*
X131516Y258642D02*
Y267303D01*
X131457Y267717*
X135925Y294291D02*
X152677D01*
Y283465*
Y294291D02*
X154626D01*
X175197Y267717D02*
X175217Y267736D01*
Y267913*
X175197Y267717D02*
Y270394D01*
X171850Y273740*
X144409*
X142835Y275315*
Y279921*
X160217Y237008D02*
Y239665D01*
X160157Y239724*
X164843*
X175217Y258642D02*
Y267913D01*
X163465Y283071D02*
Y283465D01*
X152677*
G54D21*
X149232Y300984D02*
X150197D01*
X160020D02*
X159055D01*
X130531D02*
X131496D01*
X141319D02*
X140354D01*
X166614Y281122D02*
Y282087D01*
Y285020D02*
Y284055D01*
X168563Y283071D02*
X167598D01*
X172047Y269665D02*
Y268701D01*
Y265768D02*
Y266732D01*
X170098Y267717D02*
X171063D01*
X170217Y255709D02*
Y256673D01*
Y261575D02*
Y260610D01*
X165217Y255709D02*
Y256673D01*
Y261575D02*
Y260610D01*
X160217Y255709D02*
Y256673D01*
X157776Y258642D02*
X158740D01*
X160217Y261575D02*
Y260610D01*
X128307Y269665D02*
Y268701D01*
Y265768D02*
Y266732D01*
X126358Y267717D02*
X127323D01*
X126516Y255709D02*
Y256673D01*
Y261575D02*
Y260610D01*
X116516Y255709D02*
Y256673D01*
X114075Y258642D02*
X115039D01*
X116516Y261575D02*
Y260610D01*
X121516Y255709D02*
Y256673D01*
Y261575D02*
Y260610D01*
G54D41*
X160217Y258642D03*
X165217D03*
X170217D03*
X175217D03*
Y237008D03*
X160217D03*
X116516Y258642D03*
X121516D03*
X126516D03*
X131516D03*
Y237008D03*
X116516D03*
G54D44*
X122835Y105748D02*
X117520Y105906D01*
Y109213*
X168189Y105236D02*
X172992D01*
X173031Y105276*
Y109094*
G54D47*
G54D48*
X181713Y302756D02*
G03X180709Y303760I-1004J-0D01*
G01X160172*
G03X159999Y303546I0J-177*
G01X160020Y303346D02*
G03X159999Y303546I-965J0D01*
G01X160020Y303346D02*
Y298622D01*
X159544Y297791D02*
G03X160020Y298622I-489J831D01*
G01X159544Y297791D02*
G03Y297485I90J-153D01*
G01X160020Y296654D02*
G03X159544Y297485I-965J-0D01*
G01X160020Y296654D02*
Y291929D01*
X159055Y290965D02*
G03X160020Y291929I0J964D01*
G01X159055Y290965D02*
X154213D01*
G03X154035Y290787I-0J-178*
G01Y285208*
G03X154096Y285075I178J-0*
G01X154287Y284883D02*
G03X154096Y285075I-1610J-1418D01*
G01X154287Y284883D02*
G03X154420Y284823I133J117D01*
G01X161839*
G03X161939Y284853I0J177*
G01X162480Y285020D02*
G03X161939Y284853I0J-965D01*
G01X162480Y285020D02*
X164449D01*
X164948Y284881D02*
G03X164449Y285020I-499J-826D01*
G01X164948Y284881D02*
G03X165131I91J151D01*
G01X165630Y285020D02*
G03X165131Y284881I-0J-965D01*
G01X165630Y285020D02*
X167598D01*
X168563Y284055D02*
G03X167598Y285020I-965J0D01*
G01X168563Y284055D02*
Y282087D01*
X167598Y281122D02*
G03X168563Y282087I0J965D01*
G01X167598Y281122D02*
X165630D01*
X165131Y281261D02*
G03X165630Y281122I499J826D01*
G01X165131Y281261D02*
G03X164948I-92J-152D01*
G01X164449Y281122D02*
G03X164948Y281261I-0J965D01*
G01X164449Y281122D02*
X162480D01*
X161525Y281954D02*
G03X162480Y281122I955J133D01*
G01X161525Y281954D02*
G03X161349Y282106I-176J-25D01*
G01X154420*
G03X154287Y282046I0J-177*
G01X151259Y285075D02*
G03X154287Y282046I1418J-1610D01*
G01X151259Y285075D02*
G03X151319Y285208I-117J133D01*
G01Y290787*
G03X151142Y290965I-177J0*
G01X150197*
X149232Y291929D02*
G03X150197Y290965I965J0D01*
G01X149232Y291929D02*
Y292756D01*
G03X149055Y292933I-177J-0*
G01X141496*
G03X141319Y292756I0J-177*
G01Y291929*
X140354Y290965D02*
G03X141319Y291929I0J964D01*
G01X140354Y290965D02*
X131496D01*
X130531Y291929D02*
G03X131496Y290965I965J0D01*
G01X130531Y291929D02*
Y296654D01*
X131007Y297485D02*
G03X130531Y296654I489J-831D01*
G01X131007Y297485D02*
G03Y297791I-90J153D01*
G01X130531Y298622D02*
G03X131007Y297791I965J0D01*
G01X130531Y298622D02*
Y303346D01*
X130552Y303546D02*
G03X130531Y303346I944J-200D01*
G01X130552Y303546D02*
G03X130379Y303760I-173J37D01*
G01X109843*
G03X108839Y302756I-0J-1004*
G01Y230276*
G03X109016Y230098I177J-0*
G01X181535*
G03X181713Y230276I0J178*
G01Y302756*
X149232Y298622D02*
G03X149708Y297791I965J0D01*
G01X149232Y298622D02*
Y303346D01*
X149253Y303546D02*
G03X149232Y303346I944J-200D01*
G01X149253Y303546D02*
G03X149080Y303760I-173J37D01*
G01X141471*
G03X141298Y303546I0J-177*
G01X141319Y303346D02*
G03X141298Y303546I-965J0D01*
G01X141319Y303346D02*
Y298622D01*
X140843Y297791D02*
G03X141319Y298622I-489J831D01*
G01X140843Y297791D02*
G03Y297485I90J-153D01*
G01X141319Y296654D02*
G03X140843Y297485I-965J-0D01*
G01X141319Y296654D02*
Y295827D01*
G03X141496Y295650I177J-0*
G01X149055*
G03X149232Y295827I0J177*
G01Y296654*
X149708Y297485D02*
G03X149232Y296654I489J-831D01*
G01X149708Y297485D02*
G03Y297791I-90J153D01*
G01X179606Y251201D02*
Y247638D01*
X178642Y246673D02*
G03X179606Y247638I-0J965D01*
G01X178642Y246673D02*
X177835D01*
G03X177658Y246496I-0J-177*
G01X177658D02*
Y235039D01*
X176693Y234075D02*
G03X177658Y235039I-0J964D01*
G01X176693Y234075D02*
X173740D01*
X172776Y235039D02*
G03X173740Y234075I964J0D01*
G01X172776Y235039D02*
Y235866D01*
G03X172598Y236043I-178J0*
G01X162835*
G03X162658Y235866I-0J-177*
G01X162658D02*
Y235039D01*
X161693Y234075D02*
G03X162658Y235039I-0J964D01*
G01X161693Y234075D02*
X158740D01*
X157776Y235039D02*
G03X158740Y234075I964J0D01*
G01X157776Y235039D02*
Y246496D01*
G03X157598Y246673I-178J0*
G01X156791*
X155827Y247638D02*
G03X156791Y246673I964J-0D01*
G01X155827Y247638D02*
Y251201D01*
X156791Y252165D02*
G03X155827Y251201I0J-964D01*
G01X156791Y252165D02*
X157598D01*
G03X157776Y252343I0J178*
G01Y252874*
X158740Y253839D02*
G03X157776Y252874I0J-965D01*
G01X158740Y253839D02*
X176693D01*
X177658Y252874D02*
G03X176693Y253839I-965J0D01*
G01X177658Y252874D02*
Y252343D01*
X177658D02*
G03X177835Y252165I177J-0D01*
G01X178642*
X179606Y251201D02*
G03X178642Y252165I-964J-0D01*
G01X177658Y260610D02*
Y256673D01*
X176693Y255709D02*
G03X177658Y256673I-0J964D01*
G01X176693Y255709D02*
X173740D01*
X172875Y256246D02*
G03X173740Y255709I865J427D01*
G01X172875Y256246D02*
G03X172558I-158J-79D01*
G01X171693Y255709D02*
G03X172558Y256246I-0J964D01*
G01X171693Y255709D02*
X168740D01*
X167875Y256246D02*
G03X168740Y255709I865J427D01*
G01X167875Y256246D02*
G03X167558I-158J-79D01*
G01X166693Y255709D02*
G03X167558Y256246I-0J964D01*
G01X166693Y255709D02*
X163740D01*
X162875Y256246D02*
G03X163740Y255709I865J427D01*
G01X162875Y256246D02*
G03X162558I-158J-79D01*
G01X161693Y255709D02*
G03X162558Y256246I-0J964D01*
G01X161693Y255709D02*
X158740D01*
X157776Y256673D02*
G03X158740Y255709I964J0D01*
G01X157776Y256673D02*
Y260610D01*
X158740Y261575D02*
G03X157776Y260610I0J-965D01*
G01X158740Y261575D02*
X161693D01*
X162558Y261038D02*
G03X161693Y261575I-865J-428D01*
G01X162558Y261038D02*
G03X162875I159J78D01*
G01X163740Y261575D02*
G03X162875Y261038I0J-965D01*
G01X163740Y261575D02*
X166693D01*
X167558Y261038D02*
G03X166693Y261575I-865J-428D01*
G01X167558Y261038D02*
G03X167875I159J78D01*
G01X168740Y261575D02*
G03X167875Y261038I0J-965D01*
G01X168740Y261575D02*
X171693D01*
X172558Y261038D02*
G03X171693Y261575I-865J-428D01*
G01X172558Y261038D02*
G03X172875I159J78D01*
G01X173690Y261574D02*
G03X172875Y261038I50J-964D01*
G01X173690Y261574D02*
G03X173858Y261750I-9J176D01*
G01Y265722*
G03X173764Y265879I-177J-0*
G01X173714Y265907D02*
G03X173764Y265879I499J825D01*
G01X173714Y265907D02*
G03X173530I-92J-152D01*
G01X173031Y265768D02*
G03X173530Y265907I0J964D01*
G01X173031Y265768D02*
X171063D01*
X170098Y266732D02*
G03X171063Y265768I965J0D01*
G01X170098Y266732D02*
Y268701D01*
X171063Y269665D02*
G03X170098Y268701I-0J-964D01*
G01X171063Y269665D02*
X173031D01*
X173530Y269526D02*
G03X173031Y269665I-499J-825D01*
G01X173530Y269526D02*
G03X173714I92J152D01*
G01X173747Y269546D02*
G03X173714Y269526I466J-845D01*
G01X173747Y269546D02*
G03X173839Y269701I-86J155D01*
G01Y269758*
G03X173787Y269883I-178J-0*
G01X171340Y272330*
G03X171214Y272382I-126J-125*
G01X144409*
X143449Y272780D02*
G03X144409Y272382I960J960D01*
G01X143449Y272780D02*
X141874Y274355D01*
X141476Y275315D02*
G03X141874Y274355I1359J-0D01*
G01X141476Y275315D02*
Y278178D01*
G03X141416Y278311I-177J0*
G01X144253D02*
G03X141416I-1418J1610D01*
G01X144253D02*
G03X144193Y278178I117J-133D01*
G01Y275951*
G03X144245Y275826I177J-0*
G01X144920Y275150*
G03X145045Y275098I125J126*
G01X171850*
X172811Y274701D02*
G03X171850Y275098I-961J-961D01*
G01X172811Y274701D02*
X176157Y271354D01*
X176555Y270394D02*
G03X176157Y271354I-1358J-0D01*
G01X176555Y270394D02*
Y269701D01*
G03X176647Y269546I177J-0*
G01X177146Y268701D02*
G03X176647Y269546I-965J-0D01*
G01X177146Y268701D02*
Y266732D01*
X176663Y265897D02*
G03X177146Y266732I-482J835D01*
G01X176663Y265897D02*
G03X176575Y265744I89J-153D01*
G01X176575D02*
Y261750D01*
G03X176743Y261574I177J0*
G01X177657Y260610D02*
G03X176743Y261574I-964J0D01*
G01X135906Y251201D02*
Y247638D01*
X134941Y246673D02*
G03X135906Y247638I-0J965D01*
G01X134941Y246673D02*
X134134D01*
G03X133957Y246496I-0J-177*
G01Y235039*
X132992Y234075D02*
G03X133957Y235039I0J964D01*
G01X132992Y234075D02*
X130039D01*
X129075Y235039D02*
G03X130039Y234075I964J0D01*
G01X129075Y235039D02*
Y235866D01*
G03X128898Y236043I-177J0*
G01X119134*
G03X118957Y235866I-0J-177*
G01Y235039*
X117992Y234075D02*
G03X118957Y235039I0J964D01*
G01X117992Y234075D02*
X115039D01*
X114075Y235039D02*
G03X115039Y234075I964J0D01*
G01X114075Y235039D02*
Y246496D01*
G03X113898Y246673I-177J0*
G01X113091*
X112126Y247638D02*
G03X113091Y246673I965J-0D01*
G01X112126Y247638D02*
Y251201D01*
X113091Y252165D02*
G03X112126Y251201I-0J-964D01*
G01X113091Y252165D02*
X113898D01*
G03X114075Y252343I-0J178*
G01Y252874*
X115039Y253839D02*
G03X114075Y252874I0J-965D01*
G01X115039Y253839D02*
X132992D01*
X133957Y252874D02*
G03X132992Y253839I-965J0D01*
G01X133957Y252874D02*
Y252343D01*
G03X134134Y252165I177J-0*
G01X134941*
X135906Y251201D02*
G03X134941Y252165I-965J-0D01*
G01X139332Y278469D02*
G03X139272Y278336I117J-133D01*
G01Y271339*
X138874Y270378D02*
G03X139272Y271339I-961J961D01*
G01X138874Y270378D02*
X135252Y266756D01*
X134291Y266358D02*
G03X135252Y266756I0J1359D01*
G01X134291Y266358D02*
X133441D01*
G03X133286Y266267I-0J-177*
G01X132957Y265917D02*
G03X133286Y266267I-516J815D01*
G01X132957Y265917D02*
G03X132874Y265767I94J-150D01*
G01Y261750*
G03X133042Y261574I177J0*
G01X133957Y260610D02*
G03X133042Y261574I-965J0D01*
G01X133957Y260610D02*
Y256673D01*
X132992Y255709D02*
G03X133957Y256673I0J964D01*
G01X132992Y255709D02*
X130039D01*
X129175Y256246D02*
G03X130039Y255709I864J427D01*
G01X129175Y256246D02*
G03X128857I-159J-79D01*
G01X127992Y255709D02*
G03X128857Y256246I0J964D01*
G01X127992Y255709D02*
X125039D01*
X124175Y256246D02*
G03X125039Y255709I864J427D01*
G01X124175Y256246D02*
G03X123857I-159J-79D01*
G01X122992Y255709D02*
G03X123857Y256246I0J964D01*
G01X122992Y255709D02*
X120039D01*
X119175Y256246D02*
G03X120039Y255709I864J427D01*
G01X119175Y256246D02*
G03X118857I-159J-79D01*
G01X117992Y255709D02*
G03X118857Y256246I0J964D01*
G01X117992Y255709D02*
X115039D01*
X114075Y256673D02*
G03X115039Y255709I964J0D01*
G01X114075Y256673D02*
Y260610D01*
X115039Y261575D02*
G03X114075Y260610I0J-965D01*
G01X115039Y261575D02*
X117992D01*
X118857Y261038D02*
G03X117992Y261575I-865J-428D01*
G01X118857Y261038D02*
G03X119175I159J78D01*
G01X120039Y261575D02*
G03X119175Y261038I0J-965D01*
G01X120039Y261575D02*
X122992D01*
X123857Y261038D02*
G03X122992Y261575I-865J-428D01*
G01X123857Y261038D02*
G03X124175I159J78D01*
G01X125039Y261575D02*
G03X124175Y261038I0J-965D01*
G01X125039Y261575D02*
X127992D01*
X128857Y261038D02*
G03X127992Y261575I-865J-428D01*
G01X128857Y261038D02*
G03X129175I159J78D01*
G01X129989Y261574D02*
G03X129175Y261038I50J-964D01*
G01X129989Y261574D02*
G03X130157Y261750I-9J176D01*
G01Y265702*
G03X130057Y265862I-177J0*
G01X129974Y265907D02*
G03X130057Y265862I498J825D01*
G01X129974Y265907D02*
G03X129790I-92J-152D01*
G01X129291Y265768D02*
G03X129790Y265907I0J964D01*
G01X129291Y265768D02*
X127323D01*
X126358Y266732D02*
G03X127323Y265768I965J0D01*
G01X126358Y266732D02*
Y268701D01*
X127323Y269665D02*
G03X126358Y268701I-0J-964D01*
G01X127323Y269665D02*
X129291D01*
X129790Y269526D02*
G03X129291Y269665I-499J-825D01*
G01X129790Y269526D02*
G03X129974I92J152D01*
G01X130472Y269665D02*
G03X129974Y269526I0J-964D01*
G01X130472Y269665D02*
X132441D01*
X133286Y269166D02*
G03X132441Y269665I-845J-465D01*
G01X133286Y269166D02*
G03X133441Y269075I155J86D01*
G01X133655*
G03X133781Y269127I0J177*
G01X136503Y271849*
G03X136555Y271975I-125J126*
G01Y278336*
G03X136495Y278469I-177J-0*
G01X139332D02*
G03X136495I-1419J1610D01*
G01X160020Y302487D02*
X181713D01*
X160020Y302168D02*
X181713D01*
X160020Y301849D02*
X181713D01*
X160020Y301530D02*
X181713D01*
X160020Y301211D02*
X181713D01*
X160020Y300892D02*
X181713D01*
X160020Y300573D02*
X181713D01*
X160020Y300255D02*
X181713D01*
X160020Y299936D02*
X181713D01*
X160020Y299617D02*
X181713D01*
X160020Y299298D02*
X181713D01*
X160020Y298979D02*
X181713D01*
X160020Y298660D02*
X181713D01*
X159978Y298341D02*
X181713D01*
X159811Y298022D02*
X181713D01*
X159469Y297703D02*
X181713D01*
X159684Y297385D02*
X181713D01*
X159927Y297066D02*
X181713D01*
X160015Y296747D02*
X181713D01*
X160020Y296428D02*
X181713D01*
X160020Y296109D02*
X181713D01*
X160020Y295790D02*
X181713D01*
X160020Y295471D02*
X181713D01*
X160020Y295152D02*
X181713D01*
X160020Y294833D02*
X181713D01*
X160020Y294514D02*
X181713D01*
X160020Y294196D02*
X181713D01*
X160020Y293877D02*
X181713D01*
X160020Y293558D02*
X181713D01*
X160020Y293239D02*
X181713D01*
X160020Y292920D02*
X181713D01*
X160020Y292601D02*
X181713D01*
X160020Y292282D02*
X181713D01*
X160020Y291963D02*
X181713D01*
X159977Y291644D02*
X181713D01*
X159807Y291325D02*
X181713D01*
X159337Y291007D02*
X181713D01*
X154035Y290688D02*
X181713D01*
X154035Y290369D02*
X181713D01*
X154035Y290050D02*
X181713D01*
X154035Y289731D02*
X181713D01*
X154035Y289412D02*
X181713D01*
X154035Y289093D02*
X181713D01*
X154035Y288774D02*
X181713D01*
X154035Y288455D02*
X181713D01*
X154035Y288136D02*
X181713D01*
X154035Y287818D02*
X181713D01*
X154035Y287499D02*
X181713D01*
X154035Y287180D02*
X181713D01*
X154035Y286861D02*
X181713D01*
X154035Y286542D02*
X181713D01*
X154035Y286223D02*
X181713D01*
X154035Y285904D02*
X181713D01*
X154035Y285585D02*
X181713D01*
X154035Y285266D02*
X181713D01*
X167965Y284948D02*
X181713D01*
X168374Y284629D02*
X181713D01*
X168529Y284310D02*
X181713D01*
X168563Y283991D02*
X181713D01*
X168563Y283672D02*
X181713D01*
X168563Y283353D02*
X181713D01*
X168563Y283034D02*
X181713D01*
X168563Y282715D02*
X181713D01*
X168563Y282396D02*
X181713D01*
X168563Y282077D02*
X181713D01*
X168506Y281759D02*
X181713D01*
X168314Y281440D02*
X181713D01*
X144614Y281121D02*
X181713D01*
X144791Y280802D02*
X181713D01*
X144906Y280483D02*
X181713D01*
X144967Y280164D02*
X181713D01*
X144979Y279845D02*
X181713D01*
X144944Y279526D02*
X181713D01*
X144858Y279207D02*
X181713D01*
X144715Y278888D02*
X181713D01*
X144501Y278570D02*
X181713D01*
X144208Y278251D02*
X181713D01*
X144193Y277932D02*
X181713D01*
X144193Y277613D02*
X181713D01*
X144193Y277294D02*
X181713D01*
X144193Y276975D02*
X181713D01*
X144193Y276656D02*
X181713D01*
X144193Y276337D02*
X181713D01*
X144193Y276018D02*
X181713D01*
X144371Y275699D02*
X181713D01*
X144690Y275381D02*
X181713D01*
X172164Y275062D02*
X181713D01*
X172767Y274743D02*
X181713D01*
X173088Y274424D02*
X181713D01*
X173406Y274105D02*
X181713D01*
X173725Y273786D02*
X181713D01*
X174044Y273467D02*
X181713D01*
X174363Y273148D02*
X181713D01*
X174682Y272829D02*
X181713D01*
X175001Y272510D02*
X181713D01*
X175320Y272192D02*
X181713D01*
X175639Y271873D02*
X181713D01*
X175958Y271554D02*
X181713D01*
X176263Y271235D02*
X181713D01*
X176451Y270916D02*
X181713D01*
X176540Y270597D02*
X181713D01*
X176555Y270278D02*
X181713D01*
X176555Y269959D02*
X181713D01*
X176566Y269640D02*
X181713D01*
X176919Y269322D02*
X181713D01*
X177097Y269003D02*
X181713D01*
X177146Y268684D02*
X181713D01*
X177146Y268365D02*
X181713D01*
X177146Y268046D02*
X181713D01*
X177146Y267727D02*
X181713D01*
X177146Y267408D02*
X181713D01*
X177146Y267089D02*
X181713D01*
X177146Y266770D02*
X181713D01*
X177104Y266451D02*
X181713D01*
X176937Y266133D02*
X181713D01*
X176589Y265814D02*
X181713D01*
X176575Y265495D02*
X181713D01*
X176575Y265176D02*
X181713D01*
X176575Y264857D02*
X181713D01*
X176575Y264538D02*
X181713D01*
X176575Y264219D02*
X181713D01*
X176575Y263900D02*
X181713D01*
X176575Y263581D02*
X181713D01*
X176575Y263262D02*
X181713D01*
X176575Y262944D02*
X181713D01*
X176575Y262625D02*
X181713D01*
X176575Y262306D02*
X181713D01*
X176575Y261987D02*
X181713D01*
X176595Y261668D02*
X181713D01*
X177313Y261349D02*
X181713D01*
X177561Y261030D02*
X181713D01*
X177652Y260711D02*
X181713D01*
X177658Y260392D02*
X181713D01*
X177658Y260073D02*
X181713D01*
X177658Y259755D02*
X181713D01*
X177658Y259436D02*
X181713D01*
X177658Y259117D02*
X181713D01*
X177658Y258798D02*
X181713D01*
X177658Y258479D02*
X181713D01*
X177658Y258160D02*
X181713D01*
X177658Y257841D02*
X181713D01*
X177658Y257522D02*
X181713D01*
X177658Y257203D02*
X181713D01*
X177658Y256885D02*
X181713D01*
X177651Y256566D02*
X181713D01*
X177558Y256247D02*
X181713D01*
X177305Y255928D02*
X181713D01*
X108839Y255609D02*
X181713D01*
X108839Y255290D02*
X181713D01*
X108839Y254971D02*
X181713D01*
X108839Y254652D02*
X181713D01*
X108839Y254333D02*
X181713D01*
X108839Y254014D02*
X181713D01*
X177198Y253696D02*
X181713D01*
X177516Y253377D02*
X181713D01*
X177640Y253058D02*
X181713D01*
X177658Y252739D02*
X181713D01*
X177658Y252420D02*
X181713D01*
X178988Y252101D02*
X181713D01*
X179411Y251782D02*
X181713D01*
X179570Y251463D02*
X181713D01*
X179606Y251144D02*
X181713D01*
X179606Y250825D02*
X181713D01*
X179606Y250507D02*
X181713D01*
X179606Y250188D02*
X181713D01*
X179606Y249869D02*
X181713D01*
X179606Y249550D02*
X181713D01*
X179606Y249231D02*
X181713D01*
X179606Y248912D02*
X181713D01*
X179606Y248593D02*
X181713D01*
X179606Y248274D02*
X181713D01*
X179606Y247955D02*
X181713D01*
X179606Y247636D02*
X181713D01*
X179552Y247318D02*
X181713D01*
X179364Y246999D02*
X181713D01*
X178754Y246680D02*
X181713D01*
X177658Y246361D02*
X181713D01*
X177658Y246042D02*
X181713D01*
X177658Y245723D02*
X181713D01*
X177658Y245404D02*
X181713D01*
X177658Y245085D02*
X181713D01*
X177658Y244766D02*
X181713D01*
X177658Y244448D02*
X181713D01*
X177658Y244129D02*
X181713D01*
X177658Y243810D02*
X181713D01*
X177658Y243491D02*
X181713D01*
X177658Y243172D02*
X181713D01*
X177658Y242853D02*
X181713D01*
X177658Y242534D02*
X181713D01*
X177658Y242215D02*
X181713D01*
X177658Y241896D02*
X181713D01*
X177658Y241577D02*
X181713D01*
X177658Y241259D02*
X181713D01*
X177658Y240940D02*
X181713D01*
X177658Y240621D02*
X181713D01*
X177658Y240302D02*
X181713D01*
X177658Y239983D02*
X181713D01*
X177658Y239664D02*
X181713D01*
X177658Y239345D02*
X181713D01*
X177658Y239026D02*
X181713D01*
X177658Y238707D02*
X181713D01*
X177658Y238388D02*
X181713D01*
X177658Y238070D02*
X181713D01*
X177658Y237751D02*
X181713D01*
X177658Y237432D02*
X181713D01*
X177658Y237113D02*
X181713D01*
X177658Y236794D02*
X181713D01*
X177658Y236475D02*
X181713D01*
X177658Y236156D02*
X181713D01*
X177658Y235837D02*
X181713D01*
X177658Y235518D02*
X181713D01*
X177658Y235199D02*
X181713D01*
X177644Y234881D02*
X181713D01*
X177531Y234562D02*
X181713D01*
X177237Y234243D02*
X181713D01*
X108839Y233924D02*
X181713D01*
X108839Y233605D02*
X181713D01*
X108839Y233286D02*
X181713D01*
X108839Y232967D02*
X181713D01*
X108839Y232648D02*
X181713D01*
X108839Y232329D02*
X181713D01*
X108839Y232010D02*
X181713D01*
X108839Y231692D02*
X181713D01*
X108839Y231373D02*
X181713D01*
X108839Y231054D02*
X181713D01*
X108839Y230735D02*
X181713D01*
X108839Y230416D02*
X181713D01*
X160020Y302806D02*
X181711D01*
X160020Y303125D02*
X181642D01*
X160015Y303444D02*
X181440D01*
X132874Y265495D02*
X173858D01*
X132874Y265176D02*
X173858D01*
X132874Y264857D02*
X173858D01*
X132874Y264538D02*
X173858D01*
X132874Y264219D02*
X173858D01*
X132874Y263900D02*
X173858D01*
X132874Y263581D02*
X173858D01*
X132874Y263262D02*
X173858D01*
X132874Y262944D02*
X173858D01*
X132874Y262625D02*
X173858D01*
X132874Y262306D02*
X173858D01*
X132874Y261987D02*
X173858D01*
X132894Y261668D02*
X173838D01*
X173326Y265814D02*
X173833D01*
X173249Y269640D02*
X173828D01*
X138455Y269959D02*
X173710D01*
X138774Y270278D02*
X173391D01*
X162237Y234243D02*
X173196D01*
X172305Y255928D02*
X173128D01*
X172313Y261349D02*
X173120D01*
X139051Y270597D02*
X173073D01*
X162531Y234562D02*
X172902D01*
X172558Y256247D02*
X172875D01*
X172562Y261030D02*
X172872D01*
X162644Y234881D02*
X172789D01*
X162658Y235837D02*
X172776D01*
X162658Y235518D02*
X172776D01*
X162658Y235199D02*
X172776D01*
X139204Y270916D02*
X172754D01*
X139268Y271235D02*
X172435D01*
X139272Y271554D02*
X172116D01*
X139272Y271873D02*
X171797D01*
X139272Y272192D02*
X171478D01*
X138136Y269640D02*
X170845D01*
X132880Y265814D02*
X170769D01*
X137817Y269322D02*
X170325D01*
X133196Y266133D02*
X170308D01*
X137498Y269003D02*
X170147D01*
X134786Y266451D02*
X170140D01*
X137179Y268684D02*
X170098D01*
X136861Y268365D02*
X170098D01*
X136542Y268046D02*
X170098D01*
X136223Y267727D02*
X170098D01*
X135904Y267408D02*
X170098D01*
X135585Y267089D02*
X170098D01*
X135266Y266770D02*
X170098D01*
X167305Y255928D02*
X168128D01*
X167313Y261349D02*
X168120D01*
X167558Y256247D02*
X167875D01*
X167562Y261030D02*
X167872D01*
X164815Y284948D02*
X165264D01*
X162305Y255928D02*
X163128D01*
X162313Y261349D02*
X163120D01*
X162558Y256247D02*
X162875D01*
X162562Y261030D02*
X162872D01*
X154228Y284948D02*
X162114D01*
X153387Y281440D02*
X161765D01*
X153978Y281759D02*
X161573D01*
X154323Y282077D02*
X161446D01*
X133498Y253696D02*
X158235D01*
X133536Y234243D02*
X158196D01*
X133604Y255928D02*
X158128D01*
X133612Y261349D02*
X158120D01*
X133815Y253377D02*
X157917D01*
X133830Y234562D02*
X157902D01*
X133857Y256247D02*
X157875D01*
X133861Y261030D02*
X157872D01*
X133939Y253058D02*
X157793D01*
X133944Y234881D02*
X157789D01*
X133951Y256566D02*
X157782D01*
X133951Y260711D02*
X157781D01*
X133957Y260392D02*
X157776D01*
X133957Y260073D02*
X157776D01*
X133957Y259755D02*
X157776D01*
X133957Y259436D02*
X157776D01*
X133957Y259117D02*
X157776D01*
X133957Y258798D02*
X157776D01*
X133957Y258479D02*
X157776D01*
X133957Y258160D02*
X157776D01*
X133957Y257841D02*
X157776D01*
X133957Y257522D02*
X157776D01*
X133957Y257203D02*
X157776D01*
X133957Y256885D02*
X157776D01*
X133957Y252739D02*
X157776D01*
X133957Y252420D02*
X157776D01*
X133957Y246361D02*
X157776D01*
X133957Y246042D02*
X157776D01*
X133957Y245723D02*
X157776D01*
X133957Y245404D02*
X157776D01*
X133957Y245085D02*
X157776D01*
X133957Y244766D02*
X157776D01*
X133957Y244448D02*
X157776D01*
X133957Y244129D02*
X157776D01*
X133957Y243810D02*
X157776D01*
X133957Y243491D02*
X157776D01*
X133957Y243172D02*
X157776D01*
X133957Y242853D02*
X157776D01*
X133957Y242534D02*
X157776D01*
X133957Y242215D02*
X157776D01*
X133957Y241896D02*
X157776D01*
X133957Y241577D02*
X157776D01*
X133957Y241259D02*
X157776D01*
X133957Y240940D02*
X157776D01*
X133957Y240621D02*
X157776D01*
X133957Y240302D02*
X157776D01*
X133957Y239983D02*
X157776D01*
X133957Y239664D02*
X157776D01*
X133957Y239345D02*
X157776D01*
X133957Y239026D02*
X157776D01*
X133957Y238707D02*
X157776D01*
X133957Y238388D02*
X157776D01*
X133957Y238070D02*
X157776D01*
X133957Y237751D02*
X157776D01*
X133957Y237432D02*
X157776D01*
X133957Y237113D02*
X157776D01*
X133957Y236794D02*
X157776D01*
X133957Y236475D02*
X157776D01*
X133957Y236156D02*
X157776D01*
X133957Y235837D02*
X157776D01*
X133957Y235518D02*
X157776D01*
X133957Y235199D02*
X157776D01*
X135053Y246680D02*
X156679D01*
X135287Y252101D02*
X156445D01*
X135663Y246999D02*
X156069D01*
X135711Y251782D02*
X156022D01*
X135851Y247318D02*
X155881D01*
X135869Y251463D02*
X155863D01*
X135906Y251144D02*
X155827D01*
X135906Y250825D02*
X155827D01*
X135906Y250507D02*
X155827D01*
X135906Y250188D02*
X155827D01*
X135906Y249869D02*
X155827D01*
X135906Y249550D02*
X155827D01*
X135906Y249231D02*
X155827D01*
X135906Y248912D02*
X155827D01*
X135906Y248593D02*
X155827D01*
X135906Y248274D02*
X155827D01*
X135906Y247955D02*
X155827D01*
X135906Y247636D02*
X155827D01*
X144351Y281440D02*
X151967D01*
X143943Y281759D02*
X151376D01*
X108839Y290688D02*
X151319D01*
X108839Y290369D02*
X151319D01*
X108839Y290050D02*
X151319D01*
X108839Y289731D02*
X151319D01*
X108839Y289412D02*
X151319D01*
X108839Y289093D02*
X151319D01*
X108839Y288774D02*
X151319D01*
X108839Y288455D02*
X151319D01*
X108839Y288136D02*
X151319D01*
X108839Y287818D02*
X151319D01*
X108839Y287499D02*
X151319D01*
X108839Y287180D02*
X151319D01*
X108839Y286861D02*
X151319D01*
X108839Y286542D02*
X151319D01*
X108839Y286223D02*
X151319D01*
X108839Y285904D02*
X151319D01*
X108839Y285585D02*
X151319D01*
X108839Y285266D02*
X151319D01*
X108839Y284948D02*
X151126D01*
X138694Y282077D02*
X151040D01*
X108839Y284629D02*
X150875D01*
X108839Y282396D02*
X150816D01*
X108839Y284310D02*
X150705D01*
X108839Y282715D02*
X150667D01*
X108839Y283991D02*
X150597D01*
X108839Y283034D02*
X150575D01*
X108839Y283672D02*
X150542D01*
X108839Y283353D02*
X150534D01*
X140636Y291007D02*
X149915D01*
X141107Y291325D02*
X149445D01*
X141276Y291644D02*
X149275D01*
X141319Y292601D02*
X149232D01*
X141319Y292282D02*
X149232D01*
X141319Y291963D02*
X149232D01*
X141429Y292920D02*
X149122D01*
X139272Y272510D02*
X143832D01*
X139272Y272829D02*
X143399D01*
X139272Y273148D02*
X143080D01*
X139272Y273467D02*
X142762D01*
X139272Y273786D02*
X142443D01*
X139272Y274105D02*
X142124D01*
X139272Y274424D02*
X141809D01*
X139248Y281759D02*
X141726D01*
X139272Y274743D02*
X141603D01*
X139272Y275062D02*
X141500D01*
X139272Y277932D02*
X141476D01*
X139272Y277613D02*
X141476D01*
X139272Y277294D02*
X141476D01*
X139272Y276975D02*
X141476D01*
X139272Y276656D02*
X141476D01*
X139272Y276337D02*
X141476D01*
X139272Y276018D02*
X141476D01*
X139272Y275699D02*
X141476D01*
X139272Y275381D02*
X141476D01*
X139272Y278251D02*
X141461D01*
X139572Y281440D02*
X141319D01*
X139439Y278570D02*
X141168D01*
X139789Y281121D02*
X141056D01*
X139699Y278888D02*
X140954D01*
X139934Y280802D02*
X140878D01*
X139874Y279207D02*
X140811D01*
X140021Y280483D02*
X140764D01*
X139987Y279526D02*
X140726D01*
X140057Y280164D02*
X140703D01*
X140046Y279845D02*
X140690D01*
X108839Y282077D02*
X137133D01*
X108839Y281759D02*
X136578D01*
X108839Y278251D02*
X136555D01*
X108839Y277932D02*
X136555D01*
X108839Y277613D02*
X136555D01*
X108839Y277294D02*
X136555D01*
X108839Y276975D02*
X136555D01*
X108839Y276656D02*
X136555D01*
X108839Y276337D02*
X136555D01*
X108839Y276018D02*
X136555D01*
X108839Y275699D02*
X136555D01*
X108839Y275381D02*
X136555D01*
X108839Y275062D02*
X136555D01*
X108839Y274743D02*
X136555D01*
X108839Y274424D02*
X136555D01*
X108839Y274105D02*
X136555D01*
X108839Y273786D02*
X136555D01*
X108839Y273467D02*
X136555D01*
X108839Y273148D02*
X136555D01*
X108839Y272829D02*
X136555D01*
X108839Y272510D02*
X136555D01*
X108839Y272192D02*
X136555D01*
X108839Y271873D02*
X136523D01*
X108839Y278570D02*
X136388D01*
X108839Y281440D02*
X136254D01*
X108839Y271554D02*
X136208D01*
X108839Y278888D02*
X136128D01*
X108839Y281121D02*
X136038D01*
X108839Y279207D02*
X135953D01*
X108839Y280802D02*
X135893D01*
X108839Y271235D02*
X135889D01*
X108839Y279526D02*
X135840D01*
X108839Y280483D02*
X135806D01*
X108839Y279845D02*
X135780D01*
X108839Y280164D02*
X135769D01*
X108839Y270916D02*
X135570D01*
X108839Y270597D02*
X135251D01*
X108839Y270278D02*
X134932D01*
X108839Y269959D02*
X134613D01*
X132659Y269640D02*
X134294D01*
X133179Y269322D02*
X133975D01*
X108839Y291007D02*
X131214D01*
X108839Y297703D02*
X131082D01*
X108839Y297385D02*
X130867D01*
X108839Y291325D02*
X130744D01*
X108839Y298022D02*
X130741D01*
X108839Y297066D02*
X130624D01*
X108839Y291644D02*
X130574D01*
X108839Y298341D02*
X130573D01*
X109111Y303444D02*
X130536D01*
X108839Y296747D02*
X130536D01*
X108909Y303125D02*
X130531D01*
X108840Y302806D02*
X130531D01*
X108839Y302487D02*
X130531D01*
X108839Y302168D02*
X130531D01*
X108839Y301849D02*
X130531D01*
X108839Y301530D02*
X130531D01*
X108839Y301211D02*
X130531D01*
X108839Y300892D02*
X130531D01*
X108839Y300573D02*
X130531D01*
X108839Y300255D02*
X130531D01*
X108839Y299936D02*
X130531D01*
X108839Y299617D02*
X130531D01*
X108839Y299298D02*
X130531D01*
X108839Y298979D02*
X130531D01*
X108839Y298660D02*
X130531D01*
X108839Y296428D02*
X130531D01*
X108839Y296109D02*
X130531D01*
X108839Y295790D02*
X130531D01*
X108839Y295471D02*
X130531D01*
X108839Y295152D02*
X130531D01*
X108839Y294833D02*
X130531D01*
X108839Y294514D02*
X130531D01*
X108839Y294196D02*
X130531D01*
X108839Y293877D02*
X130531D01*
X108839Y293558D02*
X130531D01*
X108839Y293239D02*
X130531D01*
X108839Y292920D02*
X130531D01*
X108839Y292601D02*
X130531D01*
X108839Y292282D02*
X130531D01*
X108839Y291963D02*
X130531D01*
X129509Y269640D02*
X130254D01*
X108839Y265495D02*
X130157D01*
X108839Y265176D02*
X130157D01*
X108839Y264857D02*
X130157D01*
X108839Y264538D02*
X130157D01*
X108839Y264219D02*
X130157D01*
X108839Y263900D02*
X130157D01*
X108839Y263581D02*
X130157D01*
X108839Y263262D02*
X130157D01*
X108839Y262944D02*
X130157D01*
X108839Y262625D02*
X130157D01*
X108839Y262306D02*
X130157D01*
X108839Y261987D02*
X130157D01*
X108839Y261668D02*
X130137D01*
X129586Y265814D02*
X130118D01*
X118536Y234243D02*
X129495D01*
X128604Y255928D02*
X129427D01*
X128612Y261349D02*
X129419D01*
X118830Y234562D02*
X129201D01*
X128857Y256247D02*
X129174D01*
X128861Y261030D02*
X129171D01*
X118944Y234881D02*
X129088D01*
X118957Y235837D02*
X129075D01*
X118957Y235518D02*
X129075D01*
X118957Y235199D02*
X129075D01*
X108839Y269640D02*
X127105D01*
X108839Y265814D02*
X127029D01*
X108839Y269322D02*
X126585D01*
X108839Y266133D02*
X126567D01*
X108839Y269003D02*
X126407D01*
X108839Y266451D02*
X126400D01*
X108839Y268684D02*
X126358D01*
X108839Y268365D02*
X126358D01*
X108839Y268046D02*
X126358D01*
X108839Y267727D02*
X126358D01*
X108839Y267408D02*
X126358D01*
X108839Y267089D02*
X126358D01*
X108839Y266770D02*
X126358D01*
X123604Y255928D02*
X124427D01*
X123612Y261349D02*
X124419D01*
X123857Y256247D02*
X124174D01*
X123861Y261030D02*
X124171D01*
X118604Y255928D02*
X119427D01*
X118612Y261349D02*
X119419D01*
X118857Y256247D02*
X119174D01*
X118861Y261030D02*
X119171D01*
X108839Y253696D02*
X114534D01*
X108839Y234243D02*
X114495D01*
X108839Y255928D02*
X114427D01*
X108839Y261349D02*
X114419D01*
X108839Y253377D02*
X114216D01*
X108839Y234562D02*
X114201D01*
X108839Y256247D02*
X114174D01*
X108839Y261030D02*
X114171D01*
X108839Y253058D02*
X114092D01*
X108839Y234881D02*
X114088D01*
X108839Y256566D02*
X114081D01*
X108839Y260711D02*
X114080D01*
X108839Y260392D02*
X114075D01*
X108839Y260073D02*
X114075D01*
X108839Y259755D02*
X114075D01*
X108839Y259436D02*
X114075D01*
X108839Y259117D02*
X114075D01*
X108839Y258798D02*
X114075D01*
X108839Y258479D02*
X114075D01*
X108839Y258160D02*
X114075D01*
X108839Y257841D02*
X114075D01*
X108839Y257522D02*
X114075D01*
X108839Y257203D02*
X114075D01*
X108839Y256885D02*
X114075D01*
X108839Y252739D02*
X114075D01*
X108839Y252420D02*
X114075D01*
X108839Y246361D02*
X114075D01*
X108839Y246042D02*
X114075D01*
X108839Y245723D02*
X114075D01*
X108839Y245404D02*
X114075D01*
X108839Y245085D02*
X114075D01*
X108839Y244766D02*
X114075D01*
X108839Y244448D02*
X114075D01*
X108839Y244129D02*
X114075D01*
X108839Y243810D02*
X114075D01*
X108839Y243491D02*
X114075D01*
X108839Y243172D02*
X114075D01*
X108839Y242853D02*
X114075D01*
X108839Y242534D02*
X114075D01*
X108839Y242215D02*
X114075D01*
X108839Y241896D02*
X114075D01*
X108839Y241577D02*
X114075D01*
X108839Y241259D02*
X114075D01*
X108839Y240940D02*
X114075D01*
X108839Y240621D02*
X114075D01*
X108839Y240302D02*
X114075D01*
X108839Y239983D02*
X114075D01*
X108839Y239664D02*
X114075D01*
X108839Y239345D02*
X114075D01*
X108839Y239026D02*
X114075D01*
X108839Y238707D02*
X114075D01*
X108839Y238388D02*
X114075D01*
X108839Y238070D02*
X114075D01*
X108839Y237751D02*
X114075D01*
X108839Y237432D02*
X114075D01*
X108839Y237113D02*
X114075D01*
X108839Y236794D02*
X114075D01*
X108839Y236475D02*
X114075D01*
X108839Y236156D02*
X114075D01*
X108839Y235837D02*
X114075D01*
X108839Y235518D02*
X114075D01*
X108839Y235199D02*
X114075D01*
X108839Y246680D02*
X112978D01*
X108839Y252101D02*
X112744D01*
X108839Y246999D02*
X112368D01*
X108839Y251782D02*
X112321D01*
X108839Y247318D02*
X112181D01*
X108839Y251463D02*
X112162D01*
X108839Y251144D02*
X112126D01*
X108839Y250825D02*
X112126D01*
X108839Y250507D02*
X112126D01*
X108839Y250188D02*
X112126D01*
X108839Y249869D02*
X112126D01*
X108839Y249550D02*
X112126D01*
X108839Y249231D02*
X112126D01*
X108839Y248912D02*
X112126D01*
X108839Y248593D02*
X112126D01*
X108839Y248274D02*
X112126D01*
X108839Y247955D02*
X112126D01*
X108839Y247636D02*
X112126D01*
X140768Y297703D02*
X149783D01*
X140984Y297385D02*
X149567D01*
X141110Y298022D02*
X149441D01*
X141226Y297066D02*
X149325D01*
X141277Y298341D02*
X149274D01*
X141314Y303444D02*
X149237D01*
X141314Y296747D02*
X149237D01*
X141319Y303125D02*
X149232D01*
X141319Y302806D02*
X149232D01*
X141319Y302487D02*
X149232D01*
X141319Y302168D02*
X149232D01*
X141319Y301849D02*
X149232D01*
X141319Y301530D02*
X149232D01*
X141319Y301211D02*
X149232D01*
X141319Y300892D02*
X149232D01*
X141319Y300573D02*
X149232D01*
X141319Y300255D02*
X149232D01*
X141319Y299936D02*
X149232D01*
X141319Y299617D02*
X149232D01*
X141319Y299298D02*
X149232D01*
X141319Y298979D02*
X149232D01*
X141319Y298660D02*
X149232D01*
X141319Y296428D02*
X149232D01*
X141319Y296109D02*
X149232D01*
X141323Y295790D02*
X149228D01*
G54D49*
X173031Y109094D02*
X188583Y124646D01*
Y209449*
X178740Y219291*
Y232283*
G74*
X0Y0D02*
M02*
