M48
;FILE_FORMAT=2:4
INCH,LZ
FMAT,2
ICI,OFF
;TYPE=PLATED
T1C.01181
%
M72
G90
G93X0Y0
T1C.01181F0S0
X012283Y010575
X011181Y023386
X013543Y023386
X012067Y023925
X011654Y025866
X012165Y025866
X012677Y025866
X011181Y026142
X012756Y02811
X011181Y02811
X012008Y028858
X012598Y028858
X012008Y029803
X012598Y029803
X013622Y03
X011181Y030079
X013307Y030197
X013898Y030197
X015787Y030197
X015157Y030197
X015472Y03
X015268Y028346
X015748Y028031
X014764Y028031
X013791Y028008
X014283Y027992
X014331Y026929
X013937Y026535
X015118Y026142
X016024Y025827
X013937Y024173
X015118Y024173
X014567Y023386
X015512Y023386
X016819Y010524
X017874Y023228
X017087Y023228
X016484Y023972
X017008Y025906
X016535Y025906
X016693Y026929
X017874Y027323
X017087Y028858
X016457Y028858
X016457Y029803
X017087Y029803
X017874Y030079
M30
