*
*
G04 PADS VX.2.3 Build Number: 9191294 generated Gerber (RS-274-X) file*
G04 PC Version=2.1*
*
%IN "Plasma_Gen_Transformer_"*%
*
%MOIN*%
*
%FSLAX35Y35*%
*
*
*
*
G04 PC Standard Apertures*
*
*
G04 Thermal Relief Aperture macro.*
%AMTER*
1,1,$1,0,0*
1,0,$1-$2,0,0*
21,0,$3,$4,0,0,45*
21,0,$3,$4,0,0,135*
%
*
*
G04 Annular Aperture macro.*
%AMANN*
1,1,$1,0,0*
1,0,$2,0,0*
%
*
*
G04 Odd Aperture macro.*
%AMODD*
1,1,$1,0,0*
1,0,$1-0.005,0,0*
%
*
*
G04 PC Custom Aperture Macros*
*
*
*
*
*
*
G04 PC Aperture Table*
*
%ADD016C,0.00394*%
%ADD039C,0.00591*%
%ADD047C,0.001*%
*
*
*
*
G04 PC Circuitry*
G04 Layer Name Plasma_Gen_Transformer_ - circuitry*
%LPD*%
*
*
G04 PC Custom Flashes*
G04 Layer Name Plasma_Gen_Transformer_ - flashes*
%LPD*%
*
*
G04 PC Circuitry*
G04 Layer Name Plasma_Gen_Transformer_ - circuitry*
%LPD*%
*
G54D16*
G01X165827Y284646D02*
X168189D01*
Y281496*
X165827*
X164252Y284646D02*
X161890D01*
Y281496*
X164252*
X154528Y290748D02*
X136024D01*
Y304528*
X154528*
Y290748*
X150394Y308465D02*
X140157D01*
Y304528*
X150394*
Y308465*
X157665Y259823D02*
X177744D01*
Y235807*
X157665*
Y259823*
X113965D02*
X134043D01*
Y235807*
X113965*
Y259823*
X126732Y266142D02*
X133031D01*
Y269291*
X126732*
Y266142*
X170472D02*
X176772D01*
Y269291*
X170472*
Y266142*
X165419Y288108D02*
X165508Y288354D01*
X165687Y288600*
X165866Y288723*
X166224*
X166403Y288600*
X166582Y288354*
X166671Y288108*
X166761Y287739*
Y287124*
X166671Y286754*
X166582Y286508*
X166403Y286262*
X166224Y286139*
X165866*
X165687Y286262*
X165508Y286508*
X165419Y286754*
X164435Y288723D02*
X163450D01*
X163987Y287739*
X163719*
X163540Y287616*
X163450Y287493*
X163361Y287124*
Y286877*
X163450Y286508*
X163629Y286262*
X163898Y286139*
X164166*
X164435Y286262*
X164435D02*
X164524Y286385D01*
X164613Y286631*
X146779Y288435D02*
X146958Y288681D01*
X147226Y288804*
X147584*
X147853Y288681*
X148031Y288435*
Y288189*
X147942Y287943*
X147853Y287820*
X147674Y287697*
X147137Y287451*
X146958Y287328*
X146868Y287205*
X146779Y286959*
Y286590*
X146958Y286344*
X147226Y286220*
X147584*
X147853Y286344*
X148031Y286590*
X145974Y288804D02*
X145526Y286220D01*
X145079Y288804D02*
X145526Y286220D01*
X145079Y288804D02*
X144631Y286220D01*
X144184Y288804D02*
X144631Y286220D01*
X143379Y288312D02*
X143200Y288435D01*
X142931Y288804*
Y286220*
X161038Y265733D02*
X161217Y265610D01*
X161396Y265364*
X161485Y265118*
X161575Y264749*
Y264134*
X161485Y263765*
X161396Y263519*
X161217Y263273*
X161038Y263150*
X160680*
X160501Y263273*
X160322Y263519*
X160233Y263765*
X160143Y264134*
Y264749*
X160233Y265118*
X160322Y265364*
X160501Y265610*
X160680Y265733*
X161038*
X160770Y263642D02*
X160233Y262904D01*
X159338Y265241D02*
X159159Y265364D01*
X158890Y265733*
Y263150*
X120644Y266206D02*
X120823Y266083D01*
X121002Y265837*
X121092Y265591*
X121181Y265221*
Y264606*
X121092Y264237*
X121002Y263991*
X120823Y263745*
X120644Y263622*
X120286*
X120107Y263745*
X119928Y263991*
X119839Y264237*
X119749Y264606*
Y265221*
X119839Y265591*
X119928Y265837*
X120107Y266083*
X120286Y266206*
X120644*
X120376Y264114D02*
X119839Y263376D01*
X118855Y265591D02*
Y265714D01*
X118765Y265960*
X118676Y266083*
X118497Y266206*
X118139*
X117960Y266083*
X117870Y265960*
X117781Y265714*
Y265468*
X117870Y265221*
X118049Y264852*
X118944Y263622*
X117691*
X132110Y273014D02*
Y270431D01*
Y273014D02*
X131305D01*
X131036Y272891*
X130947Y272768*
X130857Y272522*
Y272276*
X130947Y272030*
X131036Y271907*
X131305Y271784*
X132110*
X131484D02*
X130857Y270431D01*
X129962Y272399D02*
Y272522D01*
X129873Y272768*
X129783Y272891*
X129605Y273014*
X129247*
X129068Y272891*
X128978Y272768*
X128889Y272522*
Y272276*
X128978Y272030*
X129157Y271661*
X130052Y270431*
X128799*
X175920Y272542D02*
Y269958D01*
Y272542D02*
X175115D01*
X174846Y272419*
X174757Y272296*
X174667Y272050*
Y271804*
X174757Y271558*
X174846Y271435*
X175115Y271312*
X175920*
X175293D02*
X174667Y269958D01*
X173862Y272050D02*
X173683Y272173D01*
X173414Y272542*
Y269958*
X156394Y105737D02*
Y103153D01*
Y105737D02*
X155589D01*
X155320Y105614*
X155320D02*
X155231Y105490D01*
X155141Y105244*
Y104875*
X155231Y104629*
X155320Y104506*
X155589Y104383*
X156394*
X154336Y105244D02*
X154157Y105367D01*
X153889Y105737*
Y103153*
X136245Y105349D02*
Y102766D01*
Y105349D02*
X135440D01*
X135171Y105226*
X135082Y105103*
X134992Y104857*
Y104488*
X135082Y104242*
X135171Y104119*
X135440Y103996*
X136245*
X133113Y104980D02*
X133203Y105226D01*
X133471Y105349*
X133650*
X133919Y105226*
X134098Y104857*
X134187Y104242*
Y103627*
X134098Y103135*
X133919Y102889*
X133650Y102766*
X133561*
X133292Y102889*
X133113Y103135*
X133024Y103504*
Y103627*
X133113Y103996*
X133292Y104242*
X133561Y104365*
X133650*
X133919Y104242*
X134098Y103996*
X134187Y103627*
X107874Y101181D02*
G75*
G03X109055Y100000I1181J0D01*
G01X181496*
G03X182677Y101181I0J1181*
G01Y111811*
X186614Y115748D02*
G03X182677Y111811I0J-3937D01*
G01X186614Y115748D02*
X192520D01*
G03X194488Y117717I-0J1969*
G01Y216142*
G03X192520Y218110I-1968J-0*
G01X186614*
X182677Y222047D02*
G03X186614Y218110I3937J0D01*
G01X182677Y222047D02*
Y302756D01*
G03X180709Y304724I-1968J-0*
G01X109843*
G03X107874Y302756I-0J-1968*
G01Y222047*
X103937Y218110D02*
G03X107874Y222047I0J3937D01*
G01X103937Y218110D02*
X98031D01*
G03X96063Y216142I0J-1968*
G01Y117717*
G03X98031Y115748I1968J-0*
G01X103937*
X107874Y111811D02*
G03X103937Y115748I-3937J0D01*
G01X107874Y111811D02*
Y101181D01*
G54D39*
X181299Y117362D02*
X164764D01*
Y100827*
X181299*
Y117362*
X125787Y117480D02*
X109252D01*
Y100945*
X125787*
Y117480*
G54D47*
G74*
X0Y0D02*
M02*
