*
*
G04 PADS 9.5 Build Number: 522968 generated Gerber (RS-274-X) file*
G04 PC Version=2.1*
*
%IN "2D_PCB_MPD-190708_KEY.p"*%
*
%MOIN*%
*
%FSLAX35Y35*%
*
*
*
*
G04 PC Standard Apertures*
*
*
G04 Thermal Relief Aperture macro.*
%AMTER*
1,1,$1,0,0*
1,0,$1-$2,0,0*
21,0,$3,$4,0,0,45*
21,0,$3,$4,0,0,135*
%
*
*
G04 Annular Aperture macro.*
%AMANN*
1,1,$1,0,0*
1,0,$2,0,0*
%
*
*
G04 Odd Aperture macro.*
%AMODD*
1,1,$1,0,0*
1,0,$1-0.005,0,0*
%
*
*
G04 PC Custom Aperture Macros*
*
*
*
*
*
*
G04 PC Aperture Table*
*
%ADD010C,0.001*%
%ADD011C,0.01*%
%ADD016C,0.01181*%
%ADD019C,0.04134*%
%ADD020C,0.08465*%
%ADD021R,0.08465X0.05709*%
*
*
*
*
G04 PC Circuitry*
G04 Layer Name 2D_PCB_MPD-190708_KEY.p - circuitry*
%LPD*%
*
*
G04 PC Custom Flashes*
G04 Layer Name 2D_PCB_MPD-190708_KEY.p - flashes*
%LPD*%
*
*
G04 PC Circuitry*
G04 Layer Name 2D_PCB_MPD-190708_KEY.p - circuitry*
%LPD*%
*
G54D10*
G54D11*
G01X287402Y172525D02*
X285742Y170866D01*
X287402Y169207*
X289061Y170866*
X287402Y172525*
X286609Y170000D02*
X288195D01*
X285876Y171000D02*
X288927D01*
X286876Y172000D02*
X287927D01*
X285850Y170758D02*
Y170974D01*
X286850Y169758D02*
Y171974D01*
X287850Y169656D02*
Y172077D01*
X288850Y170656D02*
Y171077D01*
X121292Y154176D02*
X116014Y159455D01*
X112685Y156125*
X117963Y150847*
X121292Y154176*
X117810Y151000D02*
X118116D01*
X116810Y152000D02*
X119116D01*
X115810Y153000D02*
X120116D01*
X114810Y154000D02*
X121116D01*
X113810Y155000D02*
X120469D01*
X112810Y156000D02*
X119469D01*
X113560Y157000D02*
X118469D01*
X114560Y158000D02*
X117469D01*
X115560Y159000D02*
X116469D01*
X112685Y156125D02*
X112685D01*
X113685Y155125D02*
Y157125D01*
X114685Y154125D02*
Y158125D01*
X115685Y153125D02*
Y159125D01*
X116685Y152125D02*
Y158784D01*
X117685Y151125D02*
Y157784D01*
X118685Y151569D02*
Y156784D01*
X119685Y152569D02*
Y155784D01*
X120685Y153569D02*
Y154784D01*
X146626Y128843D02*
X141348Y134121D01*
X138018Y130792*
X143296Y125514*
X146626Y128843*
X142810Y126000D02*
X143783D01*
X141810Y127000D02*
X144783D01*
X140810Y128000D02*
X145783D01*
X139810Y129000D02*
X146469D01*
X138810Y130000D02*
X145469D01*
X138226Y131000D02*
X144469D01*
X139226Y132000D02*
X143469D01*
X140226Y133000D02*
X142469D01*
X141226Y134000D02*
X141469D01*
X138018Y130792D02*
X138018D01*
X139018Y129792D02*
Y131792D01*
X140018Y128792D02*
Y132792D01*
X141018Y127792D02*
Y133792D01*
X142018Y126792D02*
Y133451D01*
X143018Y125792D02*
Y132451D01*
X144018Y126235D02*
Y131451D01*
X145018Y127235D02*
Y130451D01*
X146018Y128235D02*
Y129451D01*
X108765Y141649D02*
X103487Y146927D01*
X100157Y143598*
X105435Y138319*
X108765Y141649*
X104755Y139000D02*
X106116D01*
X103755Y140000D02*
X107116D01*
X102755Y141000D02*
X108116D01*
X101755Y142000D02*
X108414D01*
X100755Y143000D02*
X107414D01*
X100560Y144000D02*
X106414D01*
X101560Y145000D02*
X105414D01*
X102560Y146000D02*
X104414D01*
X100157Y143598D02*
X100157D01*
X101157Y142598D02*
Y144598D01*
X102157Y141598D02*
Y145598D01*
X103157Y140598D02*
Y146598D01*
X104157Y139598D02*
Y146257D01*
X105157Y138598D02*
Y145257D01*
X106157Y139041D02*
Y144257D01*
X107157Y140041D02*
Y143257D01*
X108157Y141041D02*
Y142257D01*
X134098Y116316D02*
X128820Y121594D01*
X125491Y118264*
X130769Y112986*
X134098Y116316*
X130755Y113000D02*
X130783D01*
X129755Y114000D02*
X131783D01*
X128755Y115000D02*
X132783D01*
X127755Y116000D02*
X133783D01*
X126755Y117000D02*
X133414D01*
X125755Y118000D02*
X132414D01*
X126226Y119000D02*
X131414D01*
X127226Y120000D02*
X130414D01*
X128226Y121000D02*
X129414D01*
X125491Y118264D02*
X125491D01*
X126491Y117264D02*
Y119264D01*
X127491Y116264D02*
Y120264D01*
X128491Y115264D02*
Y121264D01*
X129491Y114264D02*
Y120923D01*
X130491Y113264D02*
Y119923D01*
X131491Y113708D02*
Y118923D01*
X132491Y114708D02*
Y117923D01*
X133491Y115708D02*
Y116923D01*
X253304Y134121D02*
X248026Y128843D01*
X251355Y125514*
X256633Y130792*
X253304Y134121*
X250869Y126000D02*
X251841D01*
X249869Y127000D02*
X252841D01*
X248869Y128000D02*
X253841D01*
X248182Y129000D02*
X254841D01*
X249182Y130000D02*
X255841D01*
X250182Y131000D02*
X256425D01*
X251182Y132000D02*
X255425D01*
X252182Y133000D02*
X254425D01*
X253182Y134000D02*
X253425D01*
X248850Y128018D02*
Y129668D01*
X249850Y127018D02*
Y130668D01*
X250850Y126018D02*
Y131668D01*
X251850Y126009D02*
Y132668D01*
X252850Y127009D02*
Y133668D01*
X253850Y128009D02*
Y133575D01*
X254850Y129009D02*
Y132575D01*
X255850Y130009D02*
Y131575D01*
X278637Y159455D02*
X273359Y154177D01*
X276688Y150847*
X281967Y156125*
X278637Y159455*
X276535Y151000D02*
X276841D01*
X275535Y152000D02*
X277841D01*
X274535Y153000D02*
X278841D01*
X273535Y154000D02*
X279841D01*
X274182Y155000D02*
X280841D01*
X275182Y156000D02*
X281841D01*
X276182Y157000D02*
X281092D01*
X277182Y158000D02*
X280092D01*
X278182Y159000D02*
X279092D01*
X273850Y153685D02*
Y154668D01*
X274850Y152685D02*
Y155668D01*
X275850Y151685D02*
Y156668D01*
X276850Y151009D02*
Y157668D01*
X277850Y152009D02*
Y158668D01*
X278850Y153009D02*
Y159242D01*
X279850Y154009D02*
Y158242D01*
X280850Y155009D02*
Y157242D01*
X281850Y156009D02*
Y156242D01*
X265831Y121594D02*
X260553Y116316D01*
X263883Y112986*
X269161Y118264*
X265831Y121594*
X263869Y113000D02*
X263896D01*
X262869Y114000D02*
X264896D01*
X261869Y115000D02*
X265896D01*
X260869Y116000D02*
X266896D01*
X261237Y117000D02*
X267896D01*
X262237Y118000D02*
X268896D01*
X263237Y119000D02*
X268425D01*
X264237Y120000D02*
X267425D01*
X265237Y121000D02*
X266425D01*
X260850Y116018D02*
Y116613D01*
X261850Y115018D02*
Y117613D01*
X262850Y114018D02*
Y118613D01*
X263850Y113018D02*
Y119613D01*
X264850Y113954D02*
Y120613D01*
X265850Y114954D02*
Y121575D01*
X266850Y115954D02*
Y120575D01*
X267850Y116954D02*
Y119575D01*
X268850Y117954D02*
Y118575D01*
X291165Y146927D02*
X285886Y141649D01*
X289216Y138320*
X294494Y143598*
X291165Y146927*
X288535Y139000D02*
X289896D01*
X287535Y140000D02*
X290896D01*
X286535Y141000D02*
X291896D01*
X286237Y142000D02*
X292896D01*
X287237Y143000D02*
X293896D01*
X288237Y144000D02*
X294092D01*
X289237Y145000D02*
X293092D01*
X290237Y146000D02*
X292092D01*
X286850Y140685D02*
Y142613D01*
X287850Y139685D02*
Y143613D01*
X288850Y138685D02*
Y144613D01*
X289850Y138954D02*
Y145613D01*
X290850Y139954D02*
Y146613D01*
X291850Y140954D02*
Y146242D01*
X292850Y141954D02*
Y145242D01*
X293850Y142954D02*
Y144242D01*
G54D16*
X114403Y193964D02*
G75*
G03X112160Y195390I-1901J-513D01*
G01X114415Y193919D02*
G03X175232Y147337I60817J16410D01*
G01X218539*
G03X279356Y193919I-0J62992*
G01X281610Y195390D02*
G03X279368Y193964I-341J-1939D01*
G01X281610Y195390D02*
X324359Y187852D01*
X325936Y185470D02*
G03X324359Y187852I-1918J443D01*
G01X218539Y100093D02*
G03X325950Y185531I-0J110236D01*
G01X218539Y100093D02*
X175232D01*
X67821Y185531D02*
G03X175232Y100093I107411J24798D01*
G01X69411Y187852D02*
G03X67835Y185470I342J-1939D01*
G01X69411Y187852D02*
X112160Y195390D01*
G54D19*
X290881Y167386D03*
X294361Y163906D03*
X297841Y160427D03*
X301321Y156947D03*
G54D20*
X91730Y181860D03*
X302922D03*
X161893Y123540D03*
X232759D03*
G54D21*
X179331Y128543D03*
X215157D03*
X179331Y110827D03*
X215157D03*
G74*
X0Y0D02*
M02*
