*
*
G04 PADS 9.5 Build Number: 522968 generated Gerber (RS-274-X) file*
G04 PC Version=2.1*
*
%IN "2D_PCB_MPD-190708_KEY.p"*%
*
%MOIN*%
*
%FSLAX35Y35*%
*
*
*
*
G04 PC Standard Apertures*
*
*
G04 Thermal Relief Aperture macro.*
%AMTER*
1,1,$1,0,0*
1,0,$1-$2,0,0*
21,0,$3,$4,0,0,45*
21,0,$3,$4,0,0,135*
%
*
*
G04 Annular Aperture macro.*
%AMANN*
1,1,$1,0,0*
1,0,$2,0,0*
%
*
*
G04 Odd Aperture macro.*
%AMODD*
1,1,$1,0,0*
1,0,$1-0.005,0,0*
%
*
*
G04 PC Custom Aperture Macros*
*
*
*
*
*
*
G04 PC Aperture Table*
*
%ADD010C,0.001*%
%ADD016C,0.01181*%
%ADD022C,0.00787*%
%ADD024C,0.005*%
*
*
*
*
G04 PC Circuitry*
G04 Layer Name 2D_PCB_MPD-190708_KEY.p - circuitry*
%LPD*%
*
*
G04 PC Custom Flashes*
G04 Layer Name 2D_PCB_MPD-190708_KEY.p - flashes*
%LPD*%
*
*
G04 PC Circuitry*
G04 Layer Name 2D_PCB_MPD-190708_KEY.p - circuitry*
%LPD*%
*
G54D10*
G54D16*
G01X114403Y193964D02*
G75*
G03X112160Y195390I-1901J-513D01*
G01X114415Y193919D02*
G03X175232Y147337I60817J16410D01*
G01X218539*
G03X279356Y193919I-0J62992*
G01X281610Y195390D02*
G03X279368Y193964I-341J-1939D01*
G01X281610Y195390D02*
X324359Y187852D01*
X325936Y185470D02*
G03X324359Y187852I-1918J443D01*
G01X218539Y100093D02*
G03X325950Y185531I-0J110236D01*
G01X218539Y100093D02*
X175232D01*
X67821Y185531D02*
G03X175232Y100093I107411J24798D01*
G01X69411Y187852D02*
G03X67835Y185470I342J-1939D01*
G01X69411Y187852D02*
X112160Y195390D01*
G54D22*
X280720Y164185D02*
X277101Y163350D01*
X279885Y160566*
X280720Y164185*
X277936Y163071D02*
X279607Y161401D01*
X280163Y163628*
X277936Y163071*
X278772Y162793D02*
X279328Y162236D01*
X279607Y163071*
X278772Y162793*
X286566Y178383D02*
X308837Y156112D01*
X299651Y146925*
X277380Y169196*
X286566Y178383*
X287123Y175599D02*
X306054Y156668D01*
X299094Y149709*
X280163Y168639*
X287123Y175599*
X280720Y165855D02*
X296310Y150265D01*
X297424Y151379*
X281834Y166969*
X280720Y165855*
G54D24*
X281271Y156758D02*
X280970Y156617D01*
X280588Y156557*
X280317Y156607*
X279996Y156928*
X279946Y157199*
X280006Y157581*
X280146Y157882*
X280397Y158294*
X280950Y158847*
X281362Y159098*
X281663Y159238*
X282045Y159299*
X282316Y159248*
X282637Y158927*
X282688Y158656*
X282627Y158274*
X282487Y157973*
X281442Y155482D02*
X283762Y157802D01*
X281442Y155482D02*
X284887Y156677D01*
X282567Y154357D02*
X284887Y156677D01*
X283923Y154106D02*
X283812Y153995D01*
X283812D02*
X283672Y153694D01*
X283642Y153503*
X283692Y153232*
X284013Y152911*
X284285Y152860*
X284475Y152891*
X284777Y153031*
X284998Y153252*
X285138Y153553*
X285309Y154046*
X285610Y155954*
X286735Y154829*
X285620Y151304D02*
X285490Y151655D01*
X285661Y152147*
X286133Y152780*
X286464Y153112*
X287097Y153584*
X287589Y153754*
X287941Y153624*
X288101Y153463*
X288232Y153112*
X288061Y152619*
X287589Y151987*
X287258Y151655*
X286625Y151183*
X286133Y151012*
X285781Y151143*
X285620Y151304*
X287469Y149455D02*
X287338Y149807D01*
X287509Y150299*
X287981Y150932*
X288312Y151263*
X288945Y151735*
X289437Y151906*
X289789Y151776*
X289949Y151615*
X290080Y151263*
X289909Y150771*
X289437Y150138*
X289106Y149807*
X288473Y149335*
X287981Y149164*
X287629Y149295*
X287469Y149455*
G74*
X0Y0D02*
M02*
