%FSDAX33Y33*%
%MOMM*%
%SFA1.000B1.000*%

%MIA0B0*%
%IPPOS*%
%ADD151C,0.15011*%
%ADD168C,0.15000*%
%LNCK*%
%LPD*%
G54D168*
X030438Y007100D02*
G01X030438Y006500D01*
X031238Y006500D01*
X031238Y007100D01*
X030438Y007500D02*
G01X030438Y008100D01*
X031238Y008100D01*
X031238Y007500D01*
X036338Y006910D02*
G01X034738Y006910D01*
X034738Y007710D01*
X036338Y007710D01*
X036338Y006910D01*
X033388Y006900D02*
G01X031788Y006900D01*
X031788Y007700D01*
X033388Y007700D01*
X033388Y006900D01*
X027038Y019200D02*
G01X027038Y012500D01*
X033238Y012500D01*
X033238Y019200D01*
X027038Y019200D01*
X019248Y019200D02*
G01X019248Y012500D01*
X025448Y012500D01*
X025448Y019200D01*
X019248Y019200D01*
X029538Y004700D02*
G01X036138Y004700D01*
X036138Y003500D01*
X038238Y003500D01*
X038238Y000500D01*
X027438Y000500D01*
X027438Y003500D01*
X029538Y003500D01*
X029538Y004700D01*
X052456Y004703D02*
G01X059056Y004703D01*
X059056Y003503D01*
X061156Y003503D01*
X061156Y000503D01*
X050356Y000503D01*
X050356Y003503D01*
X052456Y003503D01*
X052456Y004703D01*
X053419Y007203D02*
G01X053419Y006603D01*
X054219Y006603D01*
X054219Y007203D01*
X053419Y007603D02*
G01X053419Y008203D01*
X054219Y008203D01*
X054219Y007603D01*
X042751Y009678D02*
G01X047851Y009678D01*
X047851Y015778D01*
X042751Y015778D01*
X042751Y009678D01*
X050215Y009705D02*
G01X055315Y009705D01*
X055315Y015805D01*
X050215Y015805D01*
X050215Y009705D01*
X056344Y007498D02*
G01X054744Y007498D01*
X054744Y008298D01*
X056344Y008298D01*
X056344Y007498D01*
X058841Y007493D02*
G01X057241Y007493D01*
X057241Y008293D01*
X058841Y008293D01*
X058841Y007493D01*
X080148Y002490D02*
G01X080148Y009090D01*
X081348Y009090D01*
X081348Y011190D01*
X084348Y011190D01*
X084348Y000390D01*
X081348Y000390D01*
X081348Y002490D01*
X080148Y002490D01*
X076738Y001800D02*
G01X076738Y002400D01*
X075938Y002400D01*
X075938Y001800D01*
X076738Y001400D02*
G01X076738Y000800D01*
X075938Y000800D01*
X075938Y001400D01*
X071243Y006187D02*
G01X071243Y011287D01*
X065143Y011287D01*
X065143Y006187D01*
X071243Y006187D01*
X078433Y006157D02*
G01X078433Y011257D01*
X072333Y011257D01*
X072333Y006157D01*
X078433Y006157D01*
X076388Y003800D02*
G01X076388Y005400D01*
X077188Y005400D01*
X077188Y003800D01*
X076388Y003800D01*
X080233Y011418D02*
G01X080233Y009818D01*
X079433Y009818D01*
X079433Y011418D01*
X080233Y011418D01*
X065918Y000600D02*
G01X073518Y000600D01*
X073518Y005200D01*
X065918Y005200D01*
X065918Y000600D01*
X019138Y001100D02*
G01X019138Y006900D01*
X019938Y007700D01*
X024938Y007700D01*
X025738Y006900D01*
X025738Y001100D01*
X019138Y001100D01*
X042238Y001100D02*
G01X042238Y006900D01*
X043038Y007700D01*
X048038Y007700D01*
X048838Y006900D01*
X048838Y001100D01*
X042238Y001100D01*
X029689Y007189D02*
G01X029627Y007166D01*
X029564Y007121D01*
X029533Y007075D01*
X029533Y006984D01*
X029564Y006939D01*
X029627Y006893D01*
X029689Y006870D01*
X029783Y006848D01*
X029939Y006848D01*
X030033Y006870D01*
X030095Y006893D01*
X030158Y006939D01*
X030189Y006984D01*
X030189Y007075D01*
X030158Y007121D01*
X030095Y007166D01*
X030033Y007189D01*
X029689Y007416D02*
G01X029658Y007416D01*
X029595Y007439D01*
X029564Y007462D01*
X029533Y007507D01*
X029533Y007598D01*
X029564Y007643D01*
X029595Y007666D01*
X029658Y007689D01*
X029720Y007689D01*
X029783Y007666D01*
X029877Y007621D01*
X030189Y007393D01*
X030189Y007711D01*
X036606Y007652D02*
G01X036606Y006996D01*
X036606Y007652D02*
G01X036811Y007652D01*
X036879Y007621D01*
X036902Y007590D01*
X036925Y007527D01*
X036925Y007465D01*
X036902Y007402D01*
X036879Y007371D01*
X036811Y007340D01*
X036606Y007340D01*
X036766Y007340D02*
G01X036925Y006996D01*
X037152Y007496D02*
G01X037152Y007527D01*
X037175Y007590D01*
X037197Y007621D01*
X037243Y007652D01*
X037334Y007652D01*
X037379Y007621D01*
X037402Y007590D01*
X037425Y007527D01*
X037425Y007465D01*
X037402Y007402D01*
X037356Y007308D01*
X037129Y006996D01*
X037447Y006996D01*
X033556Y007591D02*
G01X033556Y006935D01*
X033556Y007591D02*
G01X033761Y007591D01*
X033829Y007560D01*
X033851Y007529D01*
X033874Y007466D01*
X033874Y007404D01*
X033851Y007341D01*
X033829Y007310D01*
X033761Y007279D01*
X033556Y007279D01*
X033715Y007279D02*
G01X033874Y006935D01*
X034079Y007466D02*
G01X034124Y007497D01*
X034192Y007591D01*
X034192Y006935D01*
X052577Y007346D02*
G01X052515Y007324D01*
X052452Y007278D01*
X052421Y007233D01*
X052421Y007233D02*
G01X052421Y007142D01*
X052452Y007097D01*
X052515Y007051D01*
X052577Y007028D01*
X052671Y007006D01*
X052828Y007006D01*
X052921Y007028D01*
X052984Y007051D01*
X053046Y007097D01*
X053078Y007142D01*
X053078Y007233D01*
X053078Y007233D02*
G01X053046Y007278D01*
X052984Y007324D01*
X052921Y007346D01*
X052421Y007778D02*
G01X052859Y007551D01*
X052859Y007892D01*
X052421Y007778D02*
G01X053078Y007778D01*
X055354Y007315D02*
G01X055354Y006659D01*
X055354Y007315D02*
G01X055559Y007315D01*
X055627Y007284D01*
X055650Y007252D01*
X055672Y007190D01*
X055672Y007127D01*
X055650Y007065D01*
X055627Y007034D01*
X055559Y007003D01*
X055354Y007003D01*
X055513Y007003D02*
G01X055672Y006659D01*
X055922Y007315D02*
G01X056173Y007315D01*
X056036Y007065D01*
X056104Y007065D01*
X056150Y007034D01*
X056173Y007003D01*
X056195Y006909D01*
X056195Y006846D01*
X056173Y006753D01*
X056127Y006690D01*
X056059Y006659D01*
X055991Y006659D01*
X055922Y006690D01*
X055900Y006721D01*
X055877Y006784D01*
X058956Y008246D02*
G01X058956Y007590D01*
X058956Y008246D02*
G01X059161Y008246D01*
X059229Y008215D01*
X059252Y008183D01*
X059275Y008121D01*
X059275Y008058D01*
X059252Y007996D01*
X059229Y007965D01*
X059161Y007933D01*
X058956Y007933D01*
X059115Y007933D02*
G01X059275Y007590D01*
X059706Y008246D02*
G01X059479Y007808D01*
X059820Y007808D01*
X059706Y008246D02*
G01X059706Y007590D01*
X077090Y001391D02*
G01X077028Y001368D01*
X077028Y001368D02*
G01X076965Y001323D01*
X076934Y001277D01*
X076934Y001186D01*
X076965Y001141D01*
X077028Y001096D01*
X077090Y001073D01*
X077184Y001050D01*
X077340Y001050D01*
X077434Y001073D01*
X077497Y001096D01*
X077559Y001141D01*
X077590Y001186D01*
X077590Y001277D01*
X077559Y001323D01*
X077497Y001368D01*
X077497Y001368D02*
G01X077434Y001391D01*
X077028Y001868D02*
G01X076965Y001846D01*
X076934Y001777D01*
X076934Y001732D01*
X076965Y001664D01*
X077059Y001618D01*
X077215Y001595D01*
X077372Y001595D01*
X077497Y001618D01*
X077559Y001664D01*
X077590Y001732D01*
X077590Y001755D01*
X077559Y001823D01*
X077497Y001868D01*
X077403Y001891D01*
X077372Y001891D01*
X077278Y001868D01*
X077215Y001823D01*
X077184Y001755D01*
X077184Y001732D01*
X077215Y001664D01*
X077278Y001618D01*
X077372Y001595D01*
X077403Y004286D02*
G01X078059Y004286D01*
X077403Y004286D02*
G01X077403Y004490D01*
X077434Y004559D01*
X077466Y004581D01*
X077528Y004604D01*
X077591Y004604D01*
X077653Y004581D01*
X077685Y004559D01*
X077716Y004490D01*
X077716Y004286D01*
X077716Y004445D02*
G01X078059Y004604D01*
X077403Y005104D02*
G01X077403Y004877D01*
X077685Y004854D01*
X077653Y004877D01*
X077622Y004945D01*
X077622Y005013D01*
X077653Y005081D01*
X077716Y005127D01*
X077810Y005150D01*
X077872Y005127D01*
X077966Y005104D01*
X078028Y005059D01*
X078059Y004990D01*
X078059Y004922D01*
X078028Y004854D01*
X077997Y004831D01*
X077934Y004809D01*
X080999Y010973D02*
G01X080342Y010973D01*
X080999Y010973D02*
G01X080999Y010768D01*
X080967Y010700D01*
X080936Y010677D01*
X080874Y010654D01*
X080811Y010654D01*
X080749Y010677D01*
X080717Y010700D01*
X080686Y010768D01*
X080686Y010973D01*
X080686Y010814D02*
G01X080342Y010654D01*
X080905Y010177D02*
G01X080967Y010200D01*
X080999Y010268D01*
X080999Y010313D01*
X080967Y010382D01*
X080874Y010427D01*
X080717Y010450D01*
X080561Y010450D01*
X080436Y010427D01*
X080374Y010382D01*
X080342Y010313D01*
X080342Y010291D01*
X080374Y010222D01*
X080436Y010177D01*
X080530Y010154D01*
X080561Y010154D01*
X080655Y010177D01*
X080717Y010222D01*
X080749Y010291D01*
X080749Y010313D01*
X080717Y010382D01*
X080655Y010427D01*
X080561Y010450D01*
X030645Y011251D02*
G01X030605Y011309D01*
X030526Y011366D01*
X030447Y011395D01*
X030328Y011424D01*
X030129Y011424D01*
X030010Y011395D01*
X029931Y011366D01*
X029852Y011309D01*
X029812Y011251D01*
X029812Y011135D01*
X029852Y011078D01*
X029931Y011020D01*
X030010Y010991D01*
X030129Y010962D01*
X030328Y010962D01*
X030447Y010991D01*
X030526Y011020D01*
X030605Y011078D01*
X030645Y011135D01*
X030645Y011251D01*
X029970Y011164D02*
G01X029732Y010991D01*
X030447Y010674D02*
G01X030487Y010674D01*
X030566Y010645D01*
X030605Y010616D01*
X030645Y010558D01*
X030645Y010443D01*
X030605Y010385D01*
X030566Y010356D01*
X030487Y010327D01*
X030407Y010327D01*
X030328Y010356D01*
X030209Y010414D01*
X029812Y010702D01*
X029812Y010298D01*
X022710Y011157D02*
G01X022670Y011215D01*
X022591Y011273D01*
X022511Y011301D01*
X022392Y011330D01*
X022194Y011330D01*
X022075Y011301D01*
X021995Y011273D01*
X021916Y011215D01*
X021876Y011157D01*
X021876Y011041D01*
X021916Y010984D01*
X021995Y010926D01*
X022075Y010897D01*
X022194Y010868D01*
X022392Y010868D01*
X022511Y010897D01*
X022591Y010926D01*
X022670Y010984D01*
X022710Y011041D01*
X022710Y011157D01*
X022035Y011070D02*
G01X021797Y010897D01*
X022551Y010609D02*
G01X022591Y010551D01*
X022710Y010464D01*
X021876Y010464D01*
X037103Y005253D02*
G01X037103Y004618D01*
X037074Y004499D01*
X037045Y004459D01*
X036987Y004420D01*
X036930Y004420D01*
X036872Y004459D01*
X036843Y004499D01*
X036814Y004618D01*
X036814Y004697D01*
X037363Y005094D02*
G01X037420Y005134D01*
X037507Y005253D01*
X037507Y004420D01*
X036226Y023840D02*
G01X036226Y023006D01*
X036024Y023840D02*
G01X036428Y023840D01*
X036688Y023840D02*
G01X037092Y023006D01*
X037092Y023840D02*
G01X036688Y023006D01*
X037352Y023681D02*
G01X037410Y023721D01*
X037496Y023840D01*
X037496Y023006D01*
X059936Y005259D02*
G01X059936Y004624D01*
X059907Y004505D01*
X059878Y004466D01*
X059820Y004426D01*
X059763Y004426D01*
X059705Y004466D01*
X059676Y004505D01*
X059647Y004624D01*
X059647Y004704D01*
X060225Y005061D02*
G01X060225Y005101D01*
X060254Y005180D01*
X060282Y005220D01*
X060340Y005259D01*
X060455Y005259D01*
X060513Y005220D01*
X060542Y005180D01*
X060571Y005101D01*
X060571Y005021D01*
X060542Y004942D01*
X060484Y004823D01*
X060196Y004426D01*
X060600Y004426D01*
X059235Y018944D02*
G01X059235Y018110D01*
X059033Y018944D02*
G01X059437Y018944D01*
X059697Y018944D02*
G01X060101Y018110D01*
X060101Y018944D02*
G01X059697Y018110D01*
X060389Y018745D02*
G01X060389Y018785D01*
X060418Y018865D01*
X060447Y018904D01*
X060505Y018944D01*
X060620Y018944D01*
X060678Y018904D01*
X060707Y018865D01*
X060736Y018785D01*
X060736Y018706D01*
X060707Y018626D01*
X060649Y018507D01*
X060360Y018110D01*
X060764Y018110D01*
X048438Y014851D02*
G01X048381Y014812D01*
X048323Y014732D01*
X048294Y014653D01*
X048265Y014534D01*
X048265Y014336D01*
X048294Y014216D01*
X048323Y014137D01*
X048381Y014058D01*
X048438Y014018D01*
X048554Y014018D01*
X048611Y014058D01*
X048669Y014137D01*
X048698Y014216D01*
X048727Y014336D01*
X048727Y014534D01*
X048698Y014653D01*
X048669Y014732D01*
X048611Y014812D01*
X048554Y014851D01*
X048438Y014851D01*
X048525Y014177D02*
G01X048698Y013939D01*
X049044Y014851D02*
G01X049362Y014851D01*
X049189Y014534D01*
X049275Y014534D01*
X049333Y014494D01*
X049362Y014455D01*
X049391Y014336D01*
X049391Y014256D01*
X049362Y014137D01*
X049304Y014058D01*
X049217Y014018D01*
X049131Y014018D01*
X049044Y014058D01*
X049016Y014097D01*
X048987Y014177D01*
X055902Y014879D02*
G01X055844Y014839D01*
X055787Y014759D01*
X055758Y014680D01*
X055729Y014561D01*
X055729Y014362D01*
X055758Y014244D01*
X055787Y014164D01*
X055844Y014085D01*
X055902Y014045D01*
X056018Y014045D01*
X056075Y014085D01*
X056133Y014164D01*
X056162Y014244D01*
X056191Y014362D01*
X056191Y014561D01*
X056162Y014680D01*
X056133Y014759D01*
X056075Y014839D01*
X056018Y014879D01*
X055902Y014879D01*
X055989Y014204D02*
G01X056162Y013966D01*
X056739Y014879D02*
G01X056451Y014323D01*
X056883Y014323D01*
X056739Y014879D02*
G01X056739Y014045D01*
X053995Y046404D02*
G01X053995Y045570D01*
X053995Y046404D02*
G01X054254Y046404D01*
X054341Y046364D01*
X054370Y046324D01*
X054399Y046245D01*
X054399Y046126D01*
X054370Y046046D01*
X054341Y046007D01*
X054254Y045967D01*
X053995Y045967D01*
X054687Y046205D02*
G01X054687Y046245D01*
X054716Y046324D01*
X054745Y046364D01*
X054803Y046404D01*
X054918Y046404D01*
X054976Y046364D01*
X055005Y046324D01*
X055034Y046245D01*
X055034Y046165D01*
X055005Y046086D01*
X054947Y045967D01*
X054658Y045570D01*
X055063Y045570D01*
X079497Y001021D02*
G01X080132Y001021D01*
X080251Y000992D01*
X080291Y000963D01*
X080331Y000905D01*
X080331Y000848D01*
X080291Y000790D01*
X080251Y000761D01*
X080132Y000732D01*
X080053Y000732D01*
X079497Y001338D02*
G01X079497Y001656D01*
X079815Y001483D01*
X079815Y001569D01*
X079854Y001627D01*
X079894Y001656D01*
X080013Y001685D01*
X080093Y001685D01*
X080212Y001656D01*
X080291Y001598D01*
X080331Y001512D01*
X080331Y001425D01*
X080291Y001338D01*
X080251Y001309D01*
X080172Y001281D01*
X081575Y014042D02*
G01X081575Y013208D01*
X081373Y014042D02*
G01X081777Y014042D01*
X082037Y014042D02*
G01X082440Y013208D01*
X082440Y014042D02*
G01X082037Y013208D01*
X082758Y014042D02*
G01X083075Y014042D01*
X082902Y013724D01*
X082989Y013724D01*
X083047Y013685D01*
X083075Y013645D01*
X083104Y013526D01*
X083104Y013447D01*
X083075Y013327D01*
X083018Y013248D01*
X082931Y013208D01*
X082845Y013208D01*
X082758Y013248D01*
X082729Y013288D01*
X082700Y013367D01*
X065743Y012535D02*
G01X065686Y012495D01*
X065628Y012416D01*
X065599Y012336D01*
X065570Y012217D01*
X065570Y012019D01*
X065599Y011900D01*
X065628Y011820D01*
X065686Y011741D01*
X065743Y011701D01*
X065859Y011701D01*
X065916Y011741D01*
X065974Y011820D01*
X066003Y011900D01*
X066032Y012019D01*
X066032Y012217D01*
X066003Y012336D01*
X065974Y012416D01*
X065916Y012495D01*
X065859Y012535D01*
X065743Y012535D01*
X065830Y011860D02*
G01X066003Y011622D01*
X066667Y012535D02*
G01X066378Y012535D01*
X066350Y012177D01*
X066378Y012217D01*
X066465Y012257D01*
X066551Y012257D01*
X066638Y012217D01*
X066696Y012138D01*
X066725Y012019D01*
X066696Y011939D01*
X066667Y011820D01*
X066609Y011741D01*
X066523Y011701D01*
X066436Y011701D01*
X066350Y011741D01*
X066321Y011781D01*
X066292Y011860D01*
X077551Y012465D02*
G01X077493Y012425D01*
X077435Y012346D01*
X077407Y012267D01*
X077378Y012148D01*
X077378Y011949D01*
X077407Y011830D01*
X077435Y011751D01*
X077493Y011671D01*
X077551Y011632D01*
X077666Y011632D01*
X077724Y011671D01*
X077782Y011751D01*
X077811Y011830D01*
X077839Y011949D01*
X077839Y012148D01*
X077811Y012267D01*
X077782Y012346D01*
X077724Y012425D01*
X077666Y012465D01*
X077551Y012465D01*
X077638Y011790D02*
G01X077811Y011552D01*
X078446Y012346D02*
G01X078417Y012425D01*
X078330Y012465D01*
X078273Y012465D01*
X078186Y012425D01*
X078128Y012306D01*
X078099Y012108D01*
X078099Y011909D01*
X078128Y011751D01*
X078186Y011671D01*
X078273Y011632D01*
X078301Y011632D01*
X078388Y011671D01*
X078446Y011751D01*
X078474Y011870D01*
X078474Y011909D01*
X078446Y012028D01*
X078388Y012108D01*
X078301Y012148D01*
X078273Y012148D01*
X078186Y012108D01*
X078128Y012028D01*
X078099Y011909D01*
X029364Y049478D02*
G01X029364Y048645D01*
X029364Y049478D02*
G01X029624Y049478D01*
X029710Y049439D01*
X029739Y049399D01*
X029768Y049320D01*
X029768Y049201D01*
X029739Y049121D01*
X029710Y049081D01*
X029624Y049042D01*
X029364Y049042D01*
X030028Y049320D02*
G01X030085Y049359D01*
X030172Y049478D01*
X030172Y048645D01*
X077167Y041492D02*
G01X077167Y040659D01*
X077167Y041492D02*
G01X077427Y041492D01*
X077513Y041453D01*
X077542Y041413D01*
X077571Y041333D01*
X077571Y041215D01*
X077542Y041135D01*
X077513Y041095D01*
X077427Y041056D01*
X077167Y041056D01*
X077889Y041492D02*
G01X078206Y041492D01*
X078033Y041175D01*
X078119Y041175D01*
X078177Y041135D01*
X078206Y041095D01*
X078235Y040976D01*
X078235Y040897D01*
X078206Y040778D01*
X078148Y040698D01*
X078062Y040659D01*
X077975Y040659D01*
X077889Y040698D01*
X077860Y040738D01*
X077831Y040818D01*
X074796Y004369D02*
G01X074767Y004448D01*
X074709Y004528D01*
X074652Y004567D01*
X074536Y004567D01*
X074479Y004528D01*
X074421Y004448D01*
X074392Y004369D01*
X074363Y004250D01*
X074363Y004051D01*
X074392Y003932D01*
X074421Y003853D01*
X074479Y003773D01*
X074536Y003734D01*
X074652Y003734D01*
X074709Y003773D01*
X074767Y003853D01*
X074796Y003932D01*
X075460Y004567D02*
G01X075171Y003734D01*
X075056Y004567D02*
G01X075460Y004567D01*
X026466Y004568D02*
G01X026438Y004648D01*
X026380Y004727D01*
X026322Y004767D01*
X026207Y004767D01*
X026149Y004727D01*
X026091Y004648D01*
X026062Y004568D01*
X026033Y004449D01*
X026033Y004251D01*
X026062Y004132D01*
X026091Y004052D01*
X026149Y003973D01*
X026207Y003933D01*
X026322Y003933D01*
X026380Y003973D01*
X026438Y004052D01*
X026466Y004132D01*
X026726Y004608D02*
G01X026784Y004648D01*
X026871Y004767D01*
X026871Y003933D01*
X049623Y004836D02*
G01X049594Y004915D01*
X049537Y004994D01*
X049479Y005034D01*
X049364Y005034D01*
X049306Y004994D01*
X049248Y004915D01*
X049219Y004836D01*
X049190Y004717D01*
X049190Y004518D01*
X049219Y004399D01*
X049248Y004320D01*
X049306Y004240D01*
X049364Y004201D01*
X049479Y004201D01*
X049537Y004240D01*
X049594Y004320D01*
X049623Y004399D01*
X049941Y005034D02*
G01X050258Y005034D01*
X050085Y004717D01*
X050172Y004717D01*
X050229Y004677D01*
X050258Y004637D01*
X050287Y004518D01*
X050287Y004439D01*
X050258Y004320D01*
X050200Y004240D01*
X050114Y004201D01*
X050027Y004201D01*
X049941Y004240D01*
X049912Y004280D01*
X049883Y004359D01*
G54D151*
X065777Y041314D02*
G01X065777Y040330D01*
X065538Y041314D02*
G01X066015Y041314D01*
X066322Y041314D02*
G01X066799Y040330D01*
X066799Y041314D02*
G01X066322Y040330D01*
X067890Y040986D02*
G01X068095Y040330D01*
X068299Y040986D02*
G01X068095Y040330D01*
X068606Y041127D02*
G01X068674Y041174D01*
X068777Y041314D01*
X068777Y040330D01*
X069118Y040424D02*
G01X069083Y040377D01*
X069118Y040330D01*
X069152Y040377D01*
X069118Y040424D01*
X069663Y041314D02*
G01X069561Y041267D01*
X069493Y041127D01*
X069458Y040892D01*
X069458Y040752D01*
X069493Y040518D01*
X069561Y040377D01*
X069663Y040330D01*
X069731Y040330D01*
X069833Y040377D01*
X069902Y040518D01*
X069936Y040752D01*
X069936Y040892D01*
X069902Y041127D01*
X069833Y041267D01*
X069731Y041314D01*
X069663Y041314D01*
X042607Y046474D02*
G01X042607Y045490D01*
X042368Y046474D02*
G01X042845Y046474D01*
X043152Y046474D02*
G01X043629Y045490D01*
X043629Y046474D02*
G01X043152Y045490D01*
X044720Y046146D02*
G01X044925Y045490D01*
X045129Y046146D02*
G01X044925Y045490D01*
X045436Y046287D02*
G01X045504Y046334D01*
X045607Y046474D01*
X045607Y045490D01*
X045947Y045584D02*
G01X045913Y045537D01*
X045947Y045490D01*
X045982Y045537D01*
X045947Y045584D01*
X046493Y046474D02*
G01X046391Y046427D01*
X046323Y046287D01*
X046288Y046052D01*
X046288Y045912D01*
X046323Y045678D01*
X046391Y045537D01*
X046493Y045490D01*
X046561Y045490D01*
X046664Y045537D01*
X046732Y045678D01*
X046766Y045912D01*
X046766Y046052D01*
X046732Y046287D01*
X046664Y046427D01*
X046561Y046474D01*
X046493Y046474D01*
X037044Y014719D02*
G01X038028Y014719D01*
X037044Y014480D02*
G01X037044Y014957D01*
X037044Y015264D02*
G01X038028Y015741D01*
X037044Y015741D02*
G01X038028Y015264D01*
X037372Y016832D02*
G01X038028Y017037D01*
X037372Y017241D02*
G01X038028Y017037D01*
X037231Y017548D02*
G01X037184Y017616D01*
X037044Y017719D01*
X038028Y017719D01*
X037934Y018060D02*
G01X037981Y018025D01*
X038028Y018060D01*
X037981Y018094D01*
X037934Y018060D01*
X037044Y018605D02*
G01X037091Y018503D01*
X037231Y018435D01*
X037465Y018401D01*
X037606Y018401D01*
X037841Y018435D01*
X037981Y018503D01*
X038028Y018605D01*
X038028Y018673D01*
X037981Y018775D01*
X037841Y018844D01*
X037606Y018878D01*
X037465Y018878D01*
X037231Y018844D01*
X037091Y018775D01*
X037044Y018673D01*
X037044Y018605D01*
M02*
