%FSDAX33Y33*%
%MOMM*%
%SFA1.000B1.000*%

%MIA0B0*%
%IPPOS*%
%ADD296C,0.30000*%
%ADD298C,0.90100*%
%LNCO-NE*%
%LPD*%
G54D298*
X041738Y042530D03*
X038738Y042530D03*
X041738Y043380D03*
X038738Y043380D03*
X041738Y041700D03*
X038738Y041700D03*
X041738Y040850D03*
X038738Y040850D03*
X041738Y040000D03*
X038738Y040000D03*
X041738Y044230D03*
X038738Y044230D03*
X041738Y045080D03*
X038738Y045080D03*
X041738Y007530D03*
X038738Y007530D03*
X041738Y008380D03*
X038738Y008380D03*
X041738Y006700D03*
X038738Y006700D03*
X041738Y005850D03*
X038738Y005850D03*
X041738Y005000D03*
X038738Y005000D03*
X041738Y009230D03*
X038738Y009230D03*
X041738Y010080D03*
X038738Y010080D03*
X064738Y007530D03*
X061738Y007530D03*
X064738Y008380D03*
X061738Y008380D03*
X064738Y006700D03*
X061738Y006700D03*
X064738Y005850D03*
X061738Y005850D03*
X064738Y005000D03*
X061738Y005000D03*
X064738Y009230D03*
X061738Y009230D03*
X064738Y010080D03*
X061738Y010080D03*
X064738Y033530D03*
X061738Y033530D03*
X064738Y034380D03*
X061738Y034380D03*
X064738Y032700D03*
X061738Y032700D03*
X064738Y031850D03*
X061738Y031850D03*
X064738Y031000D03*
X061738Y031000D03*
X064738Y035230D03*
X061738Y035230D03*
X064738Y036080D03*
X061738Y036080D03*
G54D296*
X018738Y000000D02*
G01X038738Y000000D01*
X038738Y005000D01*
X041738Y005000D01*
X041738Y000000D01*
X061738Y000000D01*
X061738Y005000D01*
X064738Y005000D01*
X064738Y000000D01*
X084738Y000000D01*
X084738Y042000D01*
X064738Y042000D01*
X064738Y036500D01*
X061738Y036500D01*
X061738Y047000D01*
X041738Y047000D01*
X041738Y045000D01*
X038738Y045000D01*
X038738Y050000D01*
X018738Y050000D01*
X018738Y000000D01*
X038738Y040000D02*
G01X041738Y040000D01*
X041738Y010000D01*
X038738Y010000D01*
X038738Y040000D01*
X018738Y000000D02*
G01X038738Y000000D01*
X038738Y005000D01*
X041738Y005000D01*
X041738Y000000D01*
X061738Y000000D01*
X061738Y005000D01*
X064738Y005000D01*
X064738Y000000D01*
X084738Y000000D01*
X084738Y042000D01*
X064738Y042000D01*
X064738Y036500D01*
X061738Y036500D01*
X061738Y047000D01*
X041738Y047000D01*
X041738Y045000D01*
X038738Y045000D01*
X038738Y050000D01*
X018738Y050000D01*
X018738Y000000D01*
X038738Y040000D02*
G01X041738Y040000D01*
X041738Y010000D01*
X038738Y010000D01*
X038738Y040000D01*
X018738Y000000D02*
G01X038738Y000000D01*
X038738Y005000D01*
X041738Y005000D01*
X041738Y000000D01*
X061738Y000000D01*
X061738Y005000D01*
X064738Y005000D01*
X064738Y000000D01*
X084738Y000000D01*
X084738Y042000D01*
X064738Y042000D01*
X064738Y036500D01*
X061738Y036500D01*
X061738Y047000D01*
X041738Y047000D01*
X041738Y045000D01*
X038738Y045000D01*
X038738Y050000D01*
X018738Y050000D01*
X018738Y000000D01*
X038738Y040000D02*
G01X041738Y040000D01*
X041738Y010000D01*
X038738Y010000D01*
X038738Y040000D01*
X018738Y000000D02*
G01X038738Y000000D01*
X038738Y005000D01*
X041738Y005000D01*
X041738Y000000D01*
X061738Y000000D01*
X061738Y005000D01*
X064738Y005000D01*
X064738Y000000D01*
X084738Y000000D01*
X084738Y042000D01*
X064738Y042000D01*
X064738Y036500D01*
X061738Y036500D01*
X061738Y047000D01*
X041738Y047000D01*
X041738Y045000D01*
X038738Y045000D01*
X038738Y050000D01*
X018738Y050000D01*
X018738Y000000D01*
X038738Y040000D02*
G01X041738Y040000D01*
X041738Y010000D01*
X038738Y010000D01*
X038738Y040000D01*
X020458Y025515D02*
G01X037058Y025515D01*
X037058Y046515D01*
X020458Y046515D01*
X020458Y025515D01*
X018738Y000000D02*
G01X038738Y000000D01*
X038738Y005000D01*
X041738Y005000D01*
X041738Y000000D01*
X061738Y000000D01*
X061738Y005000D01*
X064738Y005000D01*
X064738Y000000D01*
X084738Y000000D01*
X084738Y042000D01*
X064738Y042000D01*
X064738Y036500D01*
X061738Y036500D01*
X061738Y047000D01*
X041738Y047000D01*
X041738Y045000D01*
X038738Y045000D01*
X038738Y050000D01*
X018738Y050000D01*
X018738Y000000D01*
X038738Y040000D02*
G01X041738Y040000D01*
X041738Y010000D01*
X038738Y010000D01*
X038738Y040000D01*
X043433Y020750D02*
G01X060033Y020750D01*
X060033Y041750D01*
X043433Y041750D01*
X043433Y020750D01*
X061738Y010500D02*
G01X064738Y010500D01*
X064738Y031000D01*
X061738Y031000D01*
X061738Y010500D01*
X061738Y010500D02*
G01X064738Y010500D01*
X064738Y031000D01*
X061738Y031000D01*
X061738Y010500D01*
X061738Y010500D02*
G01X064738Y010500D01*
X064738Y031000D01*
X061738Y031000D01*
X061738Y010500D01*
X061738Y010500D02*
G01X064738Y010500D01*
X064738Y031000D01*
X061738Y031000D01*
X061738Y010500D01*
X061738Y010500D02*
G01X064738Y010500D01*
X064738Y031000D01*
X061738Y031000D01*
X061738Y010500D01*
X066458Y015795D02*
G01X083058Y015795D01*
X083058Y036795D01*
X066458Y036795D01*
X066458Y015795D01*
X041738Y045380D02*
G01X041738Y039680D01*
X038738Y045380D02*
G01X038738Y039680D01*
X041738Y010380D02*
G01X041738Y004680D01*
X038738Y010380D02*
G01X038738Y004680D01*
X064738Y010380D02*
G01X064738Y004680D01*
X061738Y010380D02*
G01X061738Y004680D01*
X064738Y036380D02*
G01X064738Y030680D01*
X061738Y036380D02*
G01X061738Y030680D01*
M02*
