%FSDAX33Y33*%
%MOMM*%
%SFA1.000B1.000*%

%MIA0B0*%
%IPPOS*%
%ADD20C,0.30000*%
%ADD166C,0.50100*%
%ADD238C,0.00100*%
%LNOUT*%
%LPD*%
G54D20*
X019739Y001001D03*
X025238Y001001D03*
X022439Y001001D03*
X022439Y002901D03*
X019739Y005499D03*
X025779Y005740D03*
X025779Y006401D03*
X025779Y007061D03*
X019688Y009901D03*
X020437Y009901D03*
X022238Y010599D03*
X019688Y010899D03*
X020437Y010899D03*
X020437Y011951D03*
X019688Y011951D03*
X025837Y023081D03*
X025837Y023739D03*
X025837Y024399D03*
X027237Y049200D03*
X026137Y049200D03*
X028339Y049200D03*
X026137Y048199D03*
X027237Y048199D03*
X028339Y048199D03*
X027237Y047099D03*
X026137Y047099D03*
X028339Y047099D03*
X026597Y024399D03*
X026597Y023739D03*
X026597Y023081D03*
X027638Y011999D03*
X028288Y011999D03*
X027638Y010899D03*
X028288Y010899D03*
X030038Y010701D03*
X027638Y009799D03*
X028288Y009799D03*
X029439Y007699D03*
X026559Y007061D03*
X026559Y006401D03*
X026559Y005740D03*
X027737Y003000D03*
X030737Y001001D03*
X027737Y001001D03*
X034737Y001001D03*
X037737Y001001D03*
X037737Y003000D03*
X034737Y004801D03*
X037737Y005999D03*
X033437Y008499D03*
X037737Y011999D03*
X034237Y015001D03*
X037737Y019500D03*
X048837Y046200D03*
X050737Y046200D03*
X048837Y044300D03*
X050737Y044300D03*
X048837Y042301D03*
X050737Y042301D03*
X048837Y020000D03*
X049538Y020000D03*
X048837Y019200D03*
X049538Y019200D03*
X048837Y018400D03*
X049538Y018400D03*
X045939Y009949D03*
X044689Y009949D03*
X050887Y009949D03*
X043389Y009949D03*
X042337Y008600D03*
X049637Y007061D03*
X048738Y007061D03*
X049637Y006401D03*
X048738Y006401D03*
X049637Y005740D03*
X048738Y005740D03*
X042337Y004600D03*
X048537Y004300D03*
X050737Y003000D03*
X045538Y002799D03*
X045538Y001001D03*
X050737Y001001D03*
X048537Y000599D03*
X042337Y000599D03*
X053338Y000800D03*
X057638Y004750D03*
X052487Y007800D03*
X056439Y009200D03*
X053389Y009949D03*
X052187Y009949D03*
X056739Y011501D03*
X052738Y042301D03*
X052738Y044300D03*
X052738Y046200D03*
X060737Y015001D03*
X060737Y010000D03*
X060737Y005499D03*
X065738Y005499D03*
X069739Y005001D03*
X065919Y003640D03*
X060737Y003000D03*
X069739Y002499D03*
X065919Y002179D03*
X060737Y001001D03*
X067737Y001001D03*
X058138Y000800D03*
X072238Y001001D03*
X075299Y002400D03*
X074638Y002400D03*
X073978Y002400D03*
X075299Y003061D03*
X073978Y003061D03*
X074638Y003061D03*
X074999Y004300D03*
X074298Y005761D03*
X070818Y006820D03*
X070818Y008100D03*
X070818Y009380D03*
X071839Y013360D03*
X072599Y013360D03*
X071839Y014041D03*
X072599Y014041D03*
X072599Y014740D03*
X071839Y014740D03*
X075939Y037600D03*
X073937Y037600D03*
X072139Y037600D03*
X072139Y039400D03*
X073937Y039400D03*
X075939Y039400D03*
X073937Y041199D03*
X075939Y041199D03*
X072139Y041199D03*
X081938Y010579D03*
X078118Y009340D03*
X079419Y009040D03*
X078118Y008059D03*
X080158Y007661D03*
X078118Y006800D03*
X078517Y005700D03*
X077839Y004341D03*
X079238Y001001D03*
X081898Y000841D03*
X083859Y000841D03*
X083739Y003500D03*
X083739Y008001D03*
X083838Y010579D03*
G54D166*
X041738Y042530D03*
X038738Y042530D03*
X041738Y043380D03*
X038738Y043380D03*
X041738Y041700D03*
X038738Y041700D03*
X041738Y040850D03*
X038738Y040850D03*
X041738Y040000D03*
X038738Y040000D03*
X041738Y044230D03*
X038738Y044230D03*
X041738Y045080D03*
X038738Y045080D03*
X041738Y007530D03*
X038738Y007530D03*
X041738Y008380D03*
X038738Y008380D03*
X041738Y006700D03*
X038738Y006700D03*
X041738Y005850D03*
X038738Y005850D03*
X041738Y005000D03*
X038738Y005000D03*
X041738Y009230D03*
X038738Y009230D03*
X041738Y010080D03*
X038738Y010080D03*
X064738Y007530D03*
X061738Y007530D03*
X064738Y008380D03*
X061738Y008380D03*
X064738Y006700D03*
X061738Y006700D03*
X064738Y005850D03*
X061738Y005850D03*
X064738Y005000D03*
X061738Y005000D03*
X064738Y009230D03*
X061738Y009230D03*
X064738Y010080D03*
X061738Y010080D03*
X064738Y033530D03*
X061738Y033530D03*
X064738Y034380D03*
X061738Y034380D03*
X064738Y032700D03*
X061738Y032700D03*
X064738Y031850D03*
X061738Y031850D03*
X064738Y031000D03*
X061738Y031000D03*
X064738Y035230D03*
X061738Y035230D03*
X064738Y036080D03*
X061738Y036080D03*
G54D238*
X018738Y000000D02*
G01X038738Y000000D01*
X038738Y005000D01*
X041738Y005000D01*
X041738Y000000D01*
X061738Y000000D01*
X061738Y005000D01*
X064738Y005000D01*
X064738Y000000D01*
X084738Y000000D01*
X084738Y042000D01*
X064738Y042000D01*
X064738Y036500D01*
X061738Y036500D01*
X061738Y047000D01*
X041738Y047000D01*
X041738Y045000D01*
X038738Y045000D01*
X038738Y050000D01*
X018738Y050000D01*
X018738Y000000D01*
X038738Y040000D02*
G01X041738Y040000D01*
X041738Y010000D01*
X038738Y010000D01*
X038738Y040000D01*
X018738Y000000D02*
G01X038738Y000000D01*
X038738Y005000D01*
X041738Y005000D01*
X041738Y000000D01*
X061738Y000000D01*
X061738Y005000D01*
X064738Y005000D01*
X064738Y000000D01*
X084738Y000000D01*
X084738Y042000D01*
X064738Y042000D01*
X064738Y036500D01*
X061738Y036500D01*
X061738Y047000D01*
X041738Y047000D01*
X041738Y045000D01*
X038738Y045000D01*
X038738Y050000D01*
X018738Y050000D01*
X018738Y000000D01*
X038738Y040000D02*
G01X041738Y040000D01*
X041738Y010000D01*
X038738Y010000D01*
X038738Y040000D01*
X018738Y000000D02*
G01X038738Y000000D01*
X038738Y005000D01*
X041738Y005000D01*
X041738Y000000D01*
X061738Y000000D01*
X061738Y005000D01*
X064738Y005000D01*
X064738Y000000D01*
X084738Y000000D01*
X084738Y042000D01*
X064738Y042000D01*
X064738Y036500D01*
X061738Y036500D01*
X061738Y047000D01*
X041738Y047000D01*
X041738Y045000D01*
X038738Y045000D01*
X038738Y050000D01*
X018738Y050000D01*
X018738Y000000D01*
X038738Y040000D02*
G01X041738Y040000D01*
X041738Y010000D01*
X038738Y010000D01*
X038738Y040000D01*
X018738Y000000D02*
G01X038738Y000000D01*
X038738Y005000D01*
X041738Y005000D01*
X041738Y000000D01*
X061738Y000000D01*
X061738Y005000D01*
X064738Y005000D01*
X064738Y000000D01*
X084738Y000000D01*
X084738Y042000D01*
X064738Y042000D01*
X064738Y036500D01*
X061738Y036500D01*
X061738Y047000D01*
X041738Y047000D01*
X041738Y045000D01*
X038738Y045000D01*
X038738Y050000D01*
X018738Y050000D01*
X018738Y000000D01*
X038738Y040000D02*
G01X041738Y040000D01*
X041738Y010000D01*
X038738Y010000D01*
X038738Y040000D01*
X020458Y025515D02*
G01X037058Y025515D01*
X037058Y046515D01*
X020458Y046515D01*
X020458Y025515D01*
X018738Y000000D02*
G01X038738Y000000D01*
X038738Y005000D01*
X041738Y005000D01*
X041738Y000000D01*
X061738Y000000D01*
X061738Y005000D01*
X064738Y005000D01*
X064738Y000000D01*
X084738Y000000D01*
X084738Y042000D01*
X064738Y042000D01*
X064738Y036500D01*
X061738Y036500D01*
X061738Y047000D01*
X041738Y047000D01*
X041738Y045000D01*
X038738Y045000D01*
X038738Y050000D01*
X018738Y050000D01*
X018738Y000000D01*
X038738Y040000D02*
G01X041738Y040000D01*
X041738Y010000D01*
X038738Y010000D01*
X038738Y040000D01*
X043433Y020750D02*
G01X060033Y020750D01*
X060033Y041750D01*
X043433Y041750D01*
X043433Y020750D01*
X061738Y010500D02*
G01X064738Y010500D01*
X064738Y031000D01*
X061738Y031000D01*
X061738Y010500D01*
X061738Y010500D02*
G01X064738Y010500D01*
X064738Y031000D01*
X061738Y031000D01*
X061738Y010500D01*
X061738Y010500D02*
G01X064738Y010500D01*
X064738Y031000D01*
X061738Y031000D01*
X061738Y010500D01*
X061738Y010500D02*
G01X064738Y010500D01*
X064738Y031000D01*
X061738Y031000D01*
X061738Y010500D01*
X061738Y010500D02*
G01X064738Y010500D01*
X064738Y031000D01*
X061738Y031000D01*
X061738Y010500D01*
X066458Y015795D02*
G01X083058Y015795D01*
X083058Y036795D01*
X066458Y036795D01*
X066458Y015795D01*
X041738Y045380D02*
G01X041738Y039680D01*
X038738Y045380D02*
G01X038738Y039680D01*
X041738Y010380D02*
G01X041738Y004680D01*
X038738Y010380D02*
G01X038738Y004680D01*
X064738Y010380D02*
G01X064738Y004680D01*
X061738Y010380D02*
G01X061738Y004680D01*
X064738Y036380D02*
G01X064738Y030680D01*
X061738Y036380D02*
G01X061738Y030680D01*
M02*
