%FSDAX33Y33*%
%MOMM*%
%SFA1.000B1.000*%

%MIA0B0*%
%IPPOS*%
%ADD166C,0.50100*%
%ADD167C,0.70100*%
%ADD240C,0.80100*%
%LNSM*%
%LPD*%
G54D166*
X041738Y042530D03*
X038738Y042530D03*
X041738Y043380D03*
X038738Y043380D03*
X041738Y041700D03*
X038738Y041700D03*
X041738Y040850D03*
X038738Y040850D03*
X041738Y040000D03*
X038738Y040000D03*
X041738Y044230D03*
X038738Y044230D03*
X041738Y045080D03*
X038738Y045080D03*
X041738Y007530D03*
X038738Y007530D03*
X041738Y008380D03*
X038738Y008380D03*
X041738Y006700D03*
X038738Y006700D03*
X041738Y005850D03*
X038738Y005850D03*
X041738Y005000D03*
X038738Y005000D03*
X041738Y009230D03*
X038738Y009230D03*
X041738Y010080D03*
X038738Y010080D03*
X064738Y007530D03*
X061738Y007530D03*
X064738Y008380D03*
X061738Y008380D03*
X064738Y006700D03*
X061738Y006700D03*
X064738Y005850D03*
X061738Y005850D03*
X064738Y005000D03*
X064738Y009230D03*
X061738Y009230D03*
X064738Y010080D03*
X061738Y010080D03*
X064738Y033530D03*
X061738Y033530D03*
X064738Y034380D03*
X061738Y034380D03*
X064738Y032700D03*
X061738Y032700D03*
X064738Y031850D03*
X061738Y031850D03*
X064738Y031000D03*
X061738Y031000D03*
X064738Y035230D03*
X061738Y035230D03*
X064738Y036080D03*
X061738Y036080D03*
G54D167*
X041738Y042530D03*
X038738Y042530D03*
X041738Y043380D03*
X038738Y043380D03*
X041738Y041700D03*
X038738Y041700D03*
X041738Y040850D03*
X038738Y040850D03*
X041738Y040000D03*
X038738Y040000D03*
X041738Y044230D03*
X038738Y044230D03*
X041738Y045080D03*
X038738Y045080D03*
X041738Y007530D03*
X038738Y007530D03*
X041738Y008380D03*
X038738Y008380D03*
X041738Y006700D03*
X038738Y006700D03*
X041738Y005850D03*
X038738Y005850D03*
X041738Y005000D03*
X038738Y005000D03*
X041738Y009230D03*
X038738Y009230D03*
X041738Y010080D03*
X038738Y010080D03*
X064738Y007530D03*
X061738Y007530D03*
X064738Y008380D03*
X061738Y008380D03*
X064738Y006700D03*
X061738Y006700D03*
X064738Y005850D03*
X061738Y005850D03*
X064738Y005000D03*
X064738Y009230D03*
X061738Y009230D03*
X064738Y010080D03*
X061738Y010080D03*
X064738Y033530D03*
X061738Y033530D03*
X064738Y034380D03*
X061738Y034380D03*
X064738Y032700D03*
X061738Y032700D03*
X064738Y031850D03*
X061738Y031850D03*
X064738Y031000D03*
X061738Y031000D03*
X064738Y035230D03*
X061738Y035230D03*
X064738Y036080D03*
X061738Y036080D03*
G54D240*
X041738Y042530D03*
X038738Y042530D03*
X041738Y043380D03*
X038738Y043380D03*
X041738Y041700D03*
X038738Y041700D03*
X041738Y040850D03*
X038738Y040850D03*
X041738Y040000D03*
X038738Y040000D03*
X041738Y044230D03*
X038738Y044230D03*
X041738Y045080D03*
X038738Y045080D03*
X041738Y007530D03*
X038738Y007530D03*
X041738Y008380D03*
X038738Y008380D03*
X041738Y006700D03*
X038738Y006700D03*
X041738Y005850D03*
X038738Y005850D03*
X041738Y005000D03*
X038738Y005000D03*
X041738Y009230D03*
X038738Y009230D03*
X041738Y010080D03*
X038738Y010080D03*
X064738Y007530D03*
X061738Y007530D03*
X064738Y008380D03*
X061738Y008380D03*
X064738Y006700D03*
X061738Y006700D03*
X064738Y005850D03*
X061738Y005850D03*
X064738Y005000D03*
X061738Y005000D03*
X064738Y009230D03*
X061738Y009230D03*
X064738Y010080D03*
X061738Y010080D03*
X064738Y033530D03*
X061738Y033530D03*
X064738Y034380D03*
X061738Y034380D03*
X064738Y032700D03*
X061738Y032700D03*
X064738Y031850D03*
X061738Y031850D03*
X064738Y031000D03*
X061738Y031000D03*
X064738Y035230D03*
X061738Y035230D03*
X064738Y036080D03*
X061738Y036080D03*
M02*
