%
T1C.01181F095S3
X010394Y010394
X012559Y010394
X011457Y010394
X011457Y011142
X010394Y012165
X012772Y01226
X012772Y01252
X012772Y01278
X010374Y013898
X010669Y013898
X011378Y014173
X010374Y014291
X010669Y014291
X010669Y014705
X010374Y014705
X012795Y019087
X012795Y019346
X012795Y019606
X013346Y02937
X012913Y02937
X01378Y02937
X012913Y028976
X013346Y028976
X01378Y028976
X013346Y028543
X012913Y028543
X01378Y028543
X013094Y019606
X013094Y019346
X013094Y019087
X013504Y014724
X01376Y014724
X013504Y014291
X01376Y014291
X014449Y014213
X013504Y013858
X01376Y013858
X014213Y013031
X013079Y01278
X013079Y01252
X013079Y01226
X013543Y011181
X014724Y010394
X013543Y010394
X016299Y010394
X01748Y010394
X01748Y011181
X016299Y01189
X01748Y012362
X015787Y013346
X01748Y014724
X016102Y015906
X01748Y017677
X02185Y028189
X022598Y028189
X02185Y027441
X022598Y027441
X02185Y026654
X022598Y026654
X02185Y017874
X022126Y017874
X02185Y017559
X022126Y017559
X02185Y017244
X022126Y017244
X020709Y013917
X020217Y013917
X022657Y013917
X019705Y013917
X019291Y013386
X022165Y01278
X021811Y01278
X022165Y01252
X021811Y01252
X022165Y01226
X021811Y01226
X019291Y011811
X021732Y011693
X022598Y011181
X020551Y011102
X020551Y010394
X022598Y010394
X021732Y010236
X019291Y010236
X023622Y010315
X025315Y01187
X023287Y013071
X024843Y013622
X023642Y013917
X023169Y013917
X024961Y014528
X023386Y026654
X023386Y027441
X023386Y028189
X026535Y015906
X026535Y013937
X026535Y012165
X028504Y012165
X030079Y011969
X028575Y011433
X026535Y011181
X030079Y010984
X028575Y010858
X026535Y010394
X029291Y010394
X025512Y010315
X031063Y010394
X032268Y010945
X032008Y010945
X031748Y010945
X032268Y011205
X031748Y011205
X032008Y011205
X03215Y011693
X031874Y012268
X030504Y012685
X030504Y013189
X030504Y013693
X030906Y01526
X031205Y01526
X030906Y015528
X031205Y015528
X031205Y015803
X030906Y015803
X03252Y024803
X031732Y024803
X031024Y024803
X031024Y025512
X031732Y025512
X03252Y025512
X031732Y02622
X03252Y02622
X031024Y02622
X034882Y014165
X033378Y013677
X03389Y013559
X033378Y013173
X034181Y013016
X033378Y012677
X033535Y012244
X033268Y011709
X033819Y010394
X034866Y010331
X035638Y010331
X035591Y011378
X035591Y01315
X03563Y014165
M01
M02
M08
M30
