*
*
G04 PADS 9.5 Build Number: 522968 generated Gerber (RS-274-X) file*
G04 PC Version=2.1*
*
%IN "Plasma_Pipette_V3.0_Mai"*%
*
%MOIN*%
*
%FSLAX35Y35*%
*
*
*
*
G04 PC Standard Apertures*
*
*
G04 Thermal Relief Aperture macro.*
%AMTER*
1,1,$1,0,0*
1,0,$1-$2,0,0*
21,0,$3,$4,0,0,45*
21,0,$3,$4,0,0,135*
%
*
*
G04 Annular Aperture macro.*
%AMANN*
1,1,$1,0,0*
1,0,$2,0,0*
%
*
*
G04 Odd Aperture macro.*
%AMODD*
1,1,$1,0,0*
1,0,$1-0.005,0,0*
%
*
*
G04 PC Custom Aperture Macros*
*
*
*
*
*
*
G04 PC Aperture Table*
*
%ADD010C,0.001*%
%ADD014O,0.08661X0.05118*%
%ADD015C,0.03543*%
%ADD018C,0.07874*%
%ADD019C,0.07087*%
%ADD020C,0.00394*%
%ADD021O,0.04724X0.05906*%
%ADD023C,0.00787*%
%ADD024C,0.02362*%
%ADD026C,0.01181*%
%ADD071C,0.01969*%
%ADD099R,0.07087X0.07087*%
*
*
*
*
G04 PC Circuitry*
G04 Layer Name Plasma_Pipette_V3.0_Mai - circuitry*
%LPD*%
*
*
G04 PC Custom Flashes*
G04 Layer Name Plasma_Pipette_V3.0_Mai - flashes*
%LPD*%
*
*
G04 PC Circuitry*
G04 Layer Name Plasma_Pipette_V3.0_Mai - circuitry*
%LPD*%
*
G54D10*
G54D14*
G01X90709Y339075D03*
Y317618D03*
G54D15*
X165157Y109646D03*
X170079D03*
X175000D03*
X179921D03*
X184843D03*
X189764D03*
G54D18*
X92126Y367717D03*
X249606D03*
G54D19*
X174803Y375591D03*
Y353937D03*
X210236Y109055D03*
X225984D03*
X117402Y107756D03*
G54D20*
X102224Y335630D02*
X102378Y335642D01*
X102529Y335678*
X102671Y335737*
X102803Y335818*
X102920Y335918*
X103021Y336036*
X103101Y336167*
X103160Y336310*
X103197Y336460*
X103209Y336614*
Y343701*
X103197Y343855*
X103160Y344005*
X103101Y344148*
X103021Y344279*
X102920Y344397*
X102803Y344497*
X102671Y344578*
X102529Y344637*
X102378Y344673*
X102224Y344685*
X99862*
X99708Y344673*
X99558Y344637*
X99415Y344578*
X99284Y344497*
X99166Y344397*
X99066Y344279*
X98985Y344148*
X98926Y344005*
X98890Y343855*
X98878Y343701*
Y336614*
X98890Y336460*
X98926Y336310*
X98985Y336167*
X99066Y336036*
X99166Y335918*
X99284Y335818*
X99415Y335737*
X99558Y335678*
X99708Y335642*
X99862Y335630*
X102224*
X98976Y336189D02*
Y344126D01*
X99173Y335912D02*
Y344403D01*
X99370Y335765D02*
Y344550D01*
X99567Y335676D02*
Y344639D01*
X99764Y335638D02*
Y344677D01*
X99961Y335630D02*
Y344685D01*
X100157Y335630D02*
Y344685D01*
X100354Y335630D02*
Y344685D01*
X100551Y335630D02*
Y344685D01*
X100748Y335630D02*
Y344685D01*
X100945Y335630D02*
Y344685D01*
X101142Y335630D02*
Y344685D01*
X101339Y335630D02*
Y344685D01*
X101535Y335630D02*
Y344685D01*
X101732Y335630D02*
Y344685D01*
X101929Y335630D02*
Y344685D01*
X102126Y335630D02*
Y344685D01*
X102323Y335638D02*
Y344677D01*
X102520Y335676D02*
Y344639D01*
X102717Y335765D02*
Y344550D01*
X102913Y335912D02*
Y344403D01*
X103110Y336189D02*
Y344126D01*
X102224Y312008D02*
X102378Y312020D01*
X102529Y312056*
X102671Y312115*
X102803Y312196*
X102920Y312296*
X103021Y312414*
X103101Y312545*
X103160Y312688*
X103197Y312838*
X103209Y312992*
Y320079*
X103197Y320233*
X103160Y320383*
X103101Y320526*
X103021Y320657*
X102920Y320775*
X102803Y320875*
X102671Y320956*
X102529Y321015*
X102378Y321051*
X102224Y321063*
X99862*
X99708Y321051*
X99558Y321015*
X99415Y320956*
X99284Y320875*
X99166Y320775*
X99066Y320657*
X98985Y320526*
X98926Y320383*
X98890Y320233*
X98878Y320079*
Y312992*
X98890Y312838*
X98926Y312688*
X98985Y312545*
X99066Y312414*
X99166Y312296*
X99284Y312196*
X99415Y312115*
X99558Y312056*
X99708Y312020*
X99862Y312008*
X102224*
X98976Y312567D02*
Y320504D01*
X99173Y312290D02*
Y320781D01*
X99370Y312143D02*
Y320928D01*
X99567Y312054D02*
Y321017D01*
X99764Y312016D02*
Y321055D01*
X99961Y312008D02*
Y321063D01*
X100157Y312008D02*
Y321063D01*
X100354Y312008D02*
Y321063D01*
X100551Y312008D02*
Y321063D01*
X100748Y312008D02*
Y321063D01*
X100945Y312008D02*
Y321063D01*
X101142Y312008D02*
Y321063D01*
X101339Y312008D02*
Y321063D01*
X101535Y312008D02*
Y321063D01*
X101732Y312008D02*
Y321063D01*
X101929Y312008D02*
Y321063D01*
X102126Y312008D02*
Y321063D01*
X102323Y312016D02*
Y321055D01*
X102520Y312054D02*
Y321017D01*
X102717Y312143D02*
Y320928D01*
X102913Y312290D02*
Y320781D01*
X103110Y312567D02*
Y320504D01*
X123740Y114488D02*
X134134D01*
Y101457*
X123740*
Y114488*
X164291Y113346D02*
X165827D01*
Y105945*
X164291*
Y113346*
X174134Y113386D02*
X175669D01*
Y105984*
X174134*
Y113386*
X123740Y114211D02*
X134134D01*
X123740Y113857D02*
X134134D01*
X123740Y113503D02*
X134134D01*
X123740Y113148D02*
X134134D01*
X123740Y112794D02*
X134134D01*
X123740Y112440D02*
X134134D01*
X123740Y112085D02*
X134134D01*
X123740Y111731D02*
X134134D01*
X123740Y111377D02*
X134134D01*
X123740Y111022D02*
X134134D01*
X123740Y110668D02*
X134134D01*
X123740Y110314D02*
X134134D01*
X123740Y109959D02*
X134134D01*
X123740Y109605D02*
X134134D01*
X123740Y109251D02*
X134134D01*
X123740Y108896D02*
X134134D01*
X123740Y108542D02*
X134134D01*
X123740Y108188D02*
X134134D01*
X123740Y107833D02*
X134134D01*
X123740Y107479D02*
X134134D01*
X123740Y107125D02*
X134134D01*
X123740Y106770D02*
X134134D01*
X123740Y106416D02*
X134134D01*
X123740Y106062D02*
X134134D01*
X123740Y105707D02*
X134134D01*
X123740Y105353D02*
X134134D01*
X123740Y104999D02*
X134134D01*
X123740Y104644D02*
X134134D01*
X123740Y104290D02*
X134134D01*
X123740Y103936D02*
X134134D01*
X123740Y103581D02*
X134134D01*
X123740Y103227D02*
X134134D01*
X123740Y102873D02*
X134134D01*
X123740Y102518D02*
X134134D01*
X123740Y102164D02*
X134134D01*
X123740Y101810D02*
X134134D01*
X164291Y113030D02*
X165827D01*
X164291Y112676D02*
X165827D01*
X164291Y112322D02*
X165827D01*
X164291Y111967D02*
X165827D01*
X164291Y111613D02*
X165827D01*
X164291Y111259D02*
X165827D01*
X164291Y110904D02*
X165827D01*
X164291Y110550D02*
X165827D01*
X164291Y110196D02*
X165827D01*
X164291Y109841D02*
X165827D01*
X164291Y109487D02*
X165827D01*
X164291Y109133D02*
X165827D01*
X164291Y108778D02*
X165827D01*
X164291Y108424D02*
X165827D01*
X164291Y108070D02*
X165827D01*
X164291Y107715D02*
X165827D01*
X164291Y107361D02*
X165827D01*
X164291Y107007D02*
X165827D01*
X164291Y106652D02*
X165827D01*
X164291Y106298D02*
X165827D01*
X174134Y113070D02*
X175669D01*
X174134Y112715D02*
X175669D01*
X174134Y112361D02*
X175669D01*
X174134Y112007D02*
X175669D01*
X174134Y111652D02*
X175669D01*
X174134Y111298D02*
X175669D01*
X174134Y110944D02*
X175669D01*
X174134Y110589D02*
X175669D01*
X174134Y110235D02*
X175669D01*
X174134Y109881D02*
X175669D01*
X174134Y109526D02*
X175669D01*
X174134Y109172D02*
X175669D01*
X174134Y108818D02*
X175669D01*
X174134Y108463D02*
X175669D01*
X174134Y108109D02*
X175669D01*
X174134Y107755D02*
X175669D01*
X174134Y107400D02*
X175669D01*
X174134Y107046D02*
X175669D01*
X174134Y106692D02*
X175669D01*
X174134Y106337D02*
X175669D01*
X254331Y367717D02*
G75*
G03X254331I-4725J0D01*
G01X230512Y109055D02*
G03X230512I-4528J0D01*
G01X214764D02*
G03X214764I-4528J0D01*
G01X179134Y353937D02*
G03X179134I-4331J0D01*
G01X96850Y367717D02*
G03X96850I-4724J0D01*
G01X121929Y107756D02*
G03X121929I-4527J0D01*
G01X257403Y368133D02*
G03X251509Y374409I-5894J371D01*
G01X179969*
G03X179778Y374259I0J-196*
G01X169829D02*
G03X179778I4975J1215D01*
G01X169829D02*
G03X169638Y374409I-191J-46D01*
G01X148622*
G03X148425Y374213I0J-196*
G01Y323228*
X144488Y319291D02*
G03X148425Y323228I0J3937D01*
G01X144488Y319291D02*
X126378D01*
X122441Y323228D02*
G03X126378Y319291I3937J0D01*
G01X122441Y323228D02*
Y374213D01*
G03X122244Y374409I-197J-0*
G01X90223*
G03X84329Y368135I0J-5905*
G01Y368134D02*
X85717Y346659D01*
G03X85721Y346630I196J13*
G01X85748Y346379D02*
G03X85721Y346630I-1181J-0D01*
G01X85748Y346379D02*
Y344764D01*
X84137Y342828D02*
G03X85748Y344764I-357J1936D01*
G01X84137Y342828D02*
G03X83976Y342634I36J-194D01*
G01X83976D02*
Y313976D01*
G03X84173Y313780I197J0*
G01X85551*
X87913Y311417D02*
G03X85551Y313780I-2362J0D01*
G01X87913Y311417D02*
Y311209D01*
G03X87914Y311193I197J-0*
G01X88028Y309781*
X88030Y309760D02*
G03X88028Y309781I-1179J-74D01*
G01X88030Y309760D02*
X91234Y258846D01*
G03X91430Y258661I196J12*
G01X92244*
X95388Y255707D02*
G03X92244Y258661I-3144J-195D01*
G01X95388Y255707D02*
X97585Y220274D01*
X94441Y216929D02*
G03X97585Y220274I0J3150D01*
G01X94441Y216929D02*
X94066D01*
G03X93869Y216720I-0J-197*
G01X99136Y132862*
G03X99333Y132677I197J12*
G01X101969*
X105118Y129528D02*
G03X101969Y132677I-3149J-0D01*
G01X105118Y129528D02*
Y101378D01*
G03X105315Y101181I197J-0*
G01X236417Y101142*
G03X236614Y101339I0J197*
G01Y129527*
Y129528*
X236614*
X239764Y132677D02*
G03X236614Y129528I0J-3150D01*
G01X239764Y132677D02*
X239765D01*
X239765*
X242390Y132676*
G03X242586Y132861I-0J197*
G01X247863Y216720*
G03X247666Y216929I-197J12*
G01X247289*
X244145Y220271D02*
G03X247289Y216929I3144J-192D01*
G01X244145Y220271D02*
X246307Y255704D01*
X249451Y258661D02*
G03X246307Y255704I0J-3149D01*
G01X249451Y258661D02*
X250320D01*
G03X250517Y258846I0J197*
G01X257403Y368133*
X257403*
X239764Y209395D02*
Y249427D01*
G03X239485Y249606I-197J0*
G01X236969Y250131D02*
G03X239485Y249606I1614J1444D01*
G01X236969Y250131D02*
G03X236822Y250197I-147J-131D01*
G01X215539*
G03X215409Y249852I-0J-197*
G01X215420Y246614D02*
G03X215409Y249852I-1444J1614D01*
G01X215420Y246614D02*
G03X215354Y246468I131J-146D01*
G01Y246444*
G03X215699Y246314I197J0*
G01X218766Y243268D02*
G03X215699Y246314I-1443J1614D01*
G01X218766Y243268D02*
G03X218701Y243121I132J-147D01*
G01Y202548*
G03X218766Y202401I197J0*
G01X215879D02*
G03X218766I1444J-1614D01*
G01X215879D02*
G03X215945Y202548I-131J147D01*
G01Y243121*
G03X215879Y243268I-197J0*
G01X215699Y243450D02*
G03X215879Y243268I1624J1432D01*
G01X215699Y243450D02*
G03X215354Y243319I-148J-131D01*
G01Y212008*
X214951Y211034D02*
G03X215354Y212008I-975J974D01*
G01X214951Y211033D02*
X210097Y206180D01*
G03X210039Y206041I139J-139*
G01Y199398*
G03X210105Y199252I197J0*
G01X210420Y196375D02*
G03X210105Y199252I-1759J1263D01*
G01X210420Y196375D02*
G03X210580Y196063I160J-115D01*
G01X218951*
G03X219090Y196121I0J197*
G01X220415Y197445*
G03X220472Y197584I-139J139*
G01Y198044*
G03X220423Y198174I-196J-0*
G01X223479Y201230D02*
G03X220423Y198174I-1432J-1624D01*
G01X223480Y201230D02*
G03X223610Y201181I130J148D01*
G01X231550*
G03X231689Y201239I-0J197*
G01X239706Y209256*
G03X239764Y209395I-139J139*
G01X212544Y249852D02*
G03X212414Y250197I-130J148D01*
G01X210117*
G03X209946Y249902I-0J-197*
G01X209514Y247205D02*
G03X209946Y249902I-1443J1614D01*
G01X209514Y247205D02*
G03X209449Y247058I132J-147D01*
G01Y246654*
X209045Y245679D02*
G03X209449Y246654I-974J975D01*
G01X209045Y245679D02*
X208522Y245156D01*
G03X208465Y245017I139J-139*
G01Y215354*
X208061Y214380D02*
G03X208465Y215354I-974J974D01*
G01X208061Y214380D02*
X203010Y209329D01*
G03X202953Y209190I140J-139*
G01Y199398*
G03X203018Y199252I197J0*
G01X203334Y196375D02*
G03X203018Y199252I-1759J1263D01*
G01X203334Y196375D02*
G03X203494Y196063I160J-115D01*
G01X206743*
G03X206903Y196375I-0J197*
G01X207218Y199252D02*
G03X206903Y196375I1443J-1614D01*
G01X207218Y199252D02*
G03X207283Y199398I-131J146D01*
G01Y206693*
X207687Y207667D02*
G03X207283Y206693I974J-974D01*
G01X207687Y207667D02*
X212541Y212521D01*
G03X212598Y212660I-139J139*
G01Y246468*
G03X212533Y246614I-196J-0*
G01X212544Y249852D02*
G03X212533Y246614I1432J-1624D01*
G01X254331Y367717D02*
G03X254331I-4725J0D01*
G01X230512Y109055D02*
G03X230512I-4528J0D01*
G01X214764D02*
G03X214764I-4528J0D01*
G01X210105Y159410D02*
G03X207218I-1444J1614D01*
G01X210105D02*
G03X210039Y159263I131J-147D01*
G01Y125197*
X209636Y124222D02*
G03X210039Y125197I-975J975D01*
G01X209636Y124222D02*
X199400Y113986D01*
X198425Y113583D02*
G03X199400Y113986I0J1378D01*
G01X198425Y113583D02*
X187266D01*
G03X187127Y113525I0J-197*
G01X186278Y112676*
G03X186220Y112537I139J-139*
G01Y112143*
G03X186312Y111977I197J0*
G01X187139Y111169D02*
G03X186312Y111977I-2296J-1523D01*
G01X187139Y111169D02*
G03X187467I164J109D01*
G01Y108122D02*
G03Y111169I2297J1524D01*
G01Y108122D02*
G03X187139I-164J-109D01*
G01X182546D02*
G03X187139I2297J1524D01*
G01X182546D02*
G03X182218I-164J-109D01*
G01X177625D02*
G03X182218I2296J1524D01*
G01X177625D02*
G03X177297I-164J-109D01*
G01X172703D02*
G03X177297I2297J1524D01*
G01X172703D02*
G03X172375I-164J-109D01*
G01X167782D02*
G03X172375I2297J1524D01*
G01X167782D02*
G03X167454I-164J-109D01*
G01Y111169D02*
G03Y108122I-2297J-1523D01*
G01Y111169D02*
G03X167782I164J109D01*
G01X172375D02*
G03X167782I-2296J-1523D01*
G01X172375D02*
G03X172703I164J109D01*
G01X177297D02*
G03X172703I-2297J-1523D01*
G01X177297D02*
G03X177625I164J109D01*
G01X178451Y111977D02*
G03X177625Y111169I1470J-2331D01*
G01X178451Y111977D02*
G03X178543Y112143I-105J166D01*
G01Y114134*
X178947Y115108D02*
G03X178543Y114134I974J-974D01*
G01X178947Y115108D02*
X182971Y119132D01*
G03X182994Y119161I-139J139*
G01X184134Y119764D02*
G03X182994Y119161I-0J-1378D01*
G01X184134Y119764D02*
X195962D01*
G03X196101Y119821I-0J197*
G01X203958Y127678*
G03X204016Y127818I-139J140*
G01Y150568*
G03X203958Y150707I-197J0*
G01X200600Y154065*
X200197Y155039D02*
G03X200600Y154065I1378J0D01*
G01X200197Y155039D02*
Y159657D01*
G03X200131Y159803I-197J-0*
G01X203018D02*
G03X200131I-1443J1614D01*
G01X203018D02*
G03X202953Y159657I132J-146D01*
G01Y155692*
G03X203010Y155552I197J-0*
G01X206368Y152195*
X206772Y151220D02*
G03X206368Y152195I-1378J0D01*
G01X206772Y151220D02*
Y127165D01*
X206368Y126191D02*
G03X206772Y127165I-974J974D01*
G01X206368Y126191D02*
X197589Y117411D01*
X196614Y117008D02*
G03X197589Y117411I0J1378D01*
G01X196614Y117008D02*
X184826D01*
G03X184686Y116950I-0J-197*
G01X181357Y113621*
G03X181299Y113482I139J-139*
G01Y112143*
G03X181391Y111977I197J0*
G01X182218Y111169D02*
G03X181391Y111977I-2297J-1523D01*
G01X182218Y111169D02*
G03X182546I164J109D01*
G01X183373Y111977D02*
G03X182546Y111169I1470J-2331D01*
G01X183373Y111977D02*
G03X183465Y112143I-105J166D01*
G01Y113189*
X183868Y114163D02*
G03X183465Y113189I975J-974D01*
G01X183868Y114163D02*
X185640Y115935D01*
X186614Y116339D02*
G03X185640Y115935I0J-1378D01*
G01X186614Y116339D02*
X197773D01*
G03X197912Y116396I-0J196*
G01X207226Y125710*
G03X207283Y125849I-139J139*
G01Y159263*
G03X207218Y159410I-196J-0*
G01X225513Y168173D02*
G03Y172142I865J1984D01*
G01Y168173D02*
G03X225434Y168189I-79J-181D01*
G01X149330*
G03X149251Y168173I-0J-197*
G01Y172142D02*
G03Y168173I-865J-1985D01*
G01Y172142D02*
G03X149330Y172126I79J181D01*
G01X225434*
G03X225513Y172142I-0J197*
G01X153898Y174659D02*
G03Y177546I1614J1443D01*
G01Y174659D02*
G03X153751Y174724I-147J-131D01*
G01X147503*
G03X147364Y174667I-0J-196*
G01X145215Y172518*
G03X145158Y172379I139J-139*
G01X145158D02*
Y139511D01*
X145158D02*
G03X145215Y139371I196J-0D01*
G01X150100Y134486*
G03X150351Y134463I139J140*
G01X150135Y131060D02*
G03X150351Y134463I1440J1617D01*
G01X150135Y131060D02*
G03X150023Y131109I-131J-147D01*
G01X149183Y131506D02*
G03X150023Y131109I974J974D01*
G01X149183Y131506D02*
X142805Y137884D01*
X142402Y138858D02*
G03X142805Y137884I1378J0D01*
G01X142402Y138858D02*
Y173031D01*
X142805Y174006D02*
G03X142402Y173031I975J-975D01*
G01X142805Y174006D02*
X145876Y177077D01*
X146850Y177480D02*
G03X145876Y177077I0J-1378D01*
G01X146850Y177480D02*
X153751D01*
G03X153898Y177546I0J197*
G01X157441Y181627D02*
G03Y184514I1614J1444D01*
G01Y181627D02*
G03X157294Y181693I-147J-131D01*
G01X146322*
G03X146182Y181635I-0J-197*
G01X137652Y173105*
G03X137595Y172955I140J-139*
G01X135554Y174997D02*
G03X137595Y172955I-121J-2162D01*
G01X135554Y174997D02*
G03X135704Y175054I10J196D01*
G01X144695Y184045*
X145669Y184449D02*
G03X144695Y184045I0J-1378D01*
G01X145669Y184449D02*
X157294D01*
G03X157441Y184514I0J197*
G01X242963Y305261D02*
G03X239715I-1624J1432D01*
G01X242963D02*
G03X242913Y305130I147J-131D01*
G01Y208661*
X242452Y207548D02*
G03X242913Y208661I-1113J1113D01*
G01X242452Y207548D02*
X233397Y198493D01*
X232283Y198031D02*
G03X233397Y198493I0J1575D01*
G01X232283Y198031D02*
X223819D01*
G03X223622Y197835I-0J-196*
G01Y196850*
X223161Y195737D02*
G03X223622Y196850I-1114J1113D01*
G01X223161Y195737D02*
X222051Y194627D01*
G03X222191Y194291I140J-139*
G01X227767*
G03X227914Y194357I-0J197*
G01Y191470D02*
G03Y194357I1614J1443D01*
G01Y191470D02*
G03X227767Y191535I-147J-131D01*
G01X144488*
X143514Y191939D02*
G03X144488Y191535I974J974D01*
G01X143514Y191939D02*
X142790Y192663D01*
G03X142640Y192720I-139J-140*
G01X144682Y194761D02*
G03X142640Y192720I-2162J121D01*
G01X144682Y194761D02*
G03X144739Y194611I196J-11D01*
G01X145001Y194349*
G03X145141Y194291I140J139*
G01X168754*
G03X168893Y194627I0J197*
G01X150779Y212742*
G03X150652Y212800I-140J-139*
G01X149163Y216393D02*
G03X150652Y212800I1624J-1432D01*
G01X149163Y216393D02*
G03X149213Y216523I-147J130D01*
G01Y230906*
X149674Y232019D02*
G03X149213Y230906I1113J-1113D01*
G01X149674Y232019D02*
X159516Y241862D01*
X160630Y242323D02*
G03X159516Y241862I-0J-1575D01*
G01X160630Y242323D02*
X175841D01*
G03X175980Y242381I-0J197*
G01X176915Y243316*
G03X176973Y243443I-139J139*
G01X179269Y241146D02*
G03X176973Y243443I-135J2161D01*
G01X179269Y241146D02*
G03X179143Y241089I13J-197D01*
G01X177688Y239634*
X176575Y239173D02*
G03X177688Y239634I-0J1575D01*
G01X176575Y239173D02*
X161364D01*
G03X161225Y239116I-0J-197*
G01X152420Y230311*
G03X152362Y230172I139J-139*
G01Y216523*
G03X152411Y216393I197J0*
G01X152949Y215096D02*
G03X152411Y216393I-2162J-135D01*
G01X152949Y215096D02*
G03X153006Y214969I196J13D01*
G01X171855Y196121*
G03X171994Y196063I139J139*
G01X199656*
G03X199816Y196375I0J197*
G01X200131Y199252D02*
G03X199816Y196375I1444J-1614D01*
G01X200131Y199252D02*
G03X200197Y199398I-131J146D01*
G01Y209843*
X200600Y210817D02*
G03X200197Y209843I975J-974D01*
G01X200600Y210817D02*
X205651Y215867D01*
G03X205709Y216007I-139J140*
G01Y245669*
X206112Y246644D02*
G03X205709Y245669I975J-975D01*
G01X206112Y246644D02*
X206509Y247041D01*
G03X206512Y247316I-139J139*
G01X206196Y249902D02*
G03X206512Y247316I1875J-1083D01*
G01X206196Y249902D02*
G03X206025Y250197I-171J98D01*
G01X152227*
G03X152088Y250139I0J-197*
G01X144345Y242397*
G03X144288Y242246I140J-140*
G01X142246Y244288D02*
G03X144288Y242246I-120J-2162D01*
G01X142246Y244288D02*
G03X142397Y244345I11J197D01*
G01X150600Y252549*
X151575Y252953D02*
G03X150600Y252549I-0J-1378D01*
G01X151575Y252953D02*
X236822D01*
G03X236969Y253018I-0J197*
G01X239485Y253543D02*
G03X236969Y253018I-902J-1968D01*
G01X239485Y253543D02*
G03X239764Y253722I82J179D01*
G01Y305130*
G03X239715Y305261I-197J0*
G01X233989Y288622D02*
G03X236877I1444J-1614D01*
G01X233989D02*
G03X234055Y288769I-131J147D01*
G01Y306434*
G03X233997Y306573I-197J0*
G01X221140Y319431*
G03X221001Y319488I-139J-140*
G01X218690*
G03X218543Y319423I-0J-197*
G01Y322310D02*
G03Y319423I-1614J-1444D01*
G01Y322310D02*
G03X218690Y322244I147J131D01*
G01X221654*
X222628Y321841D02*
G03X221654Y322244I-974J-975D01*
G01X222628Y321841D02*
X236407Y308061D01*
X236811Y307087D02*
G03X236407Y308061I-1378J-0D01*
G01X236811Y307087D02*
Y288769D01*
G03X236877Y288622I197J-0*
G01X180381Y324336D02*
G03X179061Y327100I721J2042D01*
G01X180381Y324336D02*
G03X180176Y324290I-66J-185D01*
G01X179321Y323435*
X178346Y323031D02*
G03X179321Y323435I0J1378D01*
G01X178346Y323031D02*
X161210D01*
G03X161063Y322966I-0J-196*
G01Y325853D02*
G03Y322966I-1614J-1444D01*
G01Y325853D02*
G03X161210Y325787I147J131D01*
G01X177694*
G03X177833Y325845I0J197*
G01X179014Y327026*
G03X179061Y327100I-139J139*
G01X179134Y353937D02*
G03X179134I-4331J0D01*
G01X151981Y282087D02*
G03X150355Y285696I-12J2165D01*
G01X151981Y282087D02*
G03X151969Y282086I2J-197D01*
G01X151969D02*
G03X151956Y282087I-15J-196D01*
G01X150355Y282808D02*
G03X151956Y282087I1614J1444D01*
G01X150355Y282808D02*
G03X150208Y282874I-147J-131D01*
G01X146077*
G03X146063Y282873I0J-197*
X146049Y282874I-14J-196*
G01X122627*
G03X122480Y282808I-0J-197*
G01Y285696D02*
G03Y282808I-1614J-1444D01*
G01Y285696D02*
G03X122627Y285630I147J131D01*
G01X150208*
G03X150355Y285696I-0J197*
G01X104390Y320079D02*
Y318898D01*
Y317717*
Y312992*
X102224Y310827D02*
G03X104390Y312992I0J2165D01*
G01X102224Y310827D02*
X99862D01*
X97697Y312992D02*
G03X99862Y310827I2165J0D01*
G01X97697Y312992D02*
Y320079D01*
X99862Y322244D02*
G03X97697Y320079I0J-2165D01*
G01X99862Y322244D02*
X102224D01*
X104390Y320079D02*
G03X102224Y322244I-2166J-0D01*
G01X142481Y305643D02*
G03Y308530I1613J1444D01*
G01Y305643D02*
G03X142334Y305709I-147J-131D01*
G01X129134*
X128159Y306112D02*
G03X129134Y305709I975J975D01*
G01X128159Y306112D02*
X108145Y326127D01*
G03X107994Y326184I-140J-139*
G01X107874Y326181D02*
G03X107994Y326184I0J2165D01*
G01X107874Y326181D02*
G03X107677Y325984I0J-197D01*
G01X107674Y325864D02*
G03X107677Y325984I-2162J120D01*
G01X107674Y325864D02*
G03X107731Y325714I196J-11D01*
G01X130434Y303010*
G03X130574Y302953I140J140*
G01X142334*
G03X142481Y303018I-0J197*
G01Y300131D02*
G03Y303018I1613J1444D01*
G01Y300131D02*
G03X142334Y300197I-147J-131D01*
G01X129921*
X128947Y300600D02*
G03X129921Y300197I974J975D01*
G01X128947Y300600D02*
X105782Y323765D01*
G03X105632Y323822I-139J-139*
G01X105512Y328150D02*
G03X105632Y323822I-0J-2166D01*
G01X105512Y328150D02*
G03X105709Y328346I-0J196D01*
G01X107874Y330512D02*
G03X105709Y328346I0J-2166D01*
G01X107874Y330512D02*
G03X108071Y330709I-0J197D01*
G01X112398Y330588D02*
G03X108071Y330709I-2162J121D01*
G01X112398Y330588D02*
G03X112456Y330438I197J-11D01*
G01X130434Y312459*
G03X130574Y312402I140J139*
G01X139184*
G03X139331Y312467I0J196*
G01X140958Y308858D02*
G03X139331Y312467I-13J2166D01*
G01X140958Y308858D02*
G03X140945I1J-197D01*
X140932I-14J-197*
G01X139331Y309580D02*
G03X140932Y308858I1614J1444D01*
G01X139331Y309580D02*
G03X139184Y309646I-147J-131D01*
G01X129921*
X128947Y310049D02*
G03X129921Y309646I974J975D01*
G01X128947Y310049D02*
X110507Y328489D01*
G03X110357Y328547I-139J-139*
G01X110236Y328543D02*
G03X110357Y328547I0J2166D01*
G01X110236Y328543D02*
G03X110039Y328346I0J-197D01*
G01X110036Y328226D02*
G03X110039Y328346I-2162J120D01*
G01X110036Y328226D02*
G03X110093Y328076I197J-11D01*
G01X129647Y308522*
G03X129786Y308465I139J139*
G01X140931*
G03X140945I-0J196*
X140959I14J196*
G01X142334*
G03X142481Y308530I-0J196*
G01X104390Y343701D02*
Y338976D01*
Y337795*
Y336614*
X102224Y334449D02*
G03X104390Y336614I0J2165D01*
G01X102224Y334449D02*
X99862D01*
X97697Y336614D02*
G03X99862Y334449I2165J0D01*
G01X97697Y336614D02*
Y343701D01*
X99862Y345866D02*
G03X97697Y343701I0J-2165D01*
G01X99862Y345866D02*
X102224D01*
X104390Y343701D02*
G03X102224Y345866I-2166J-0D01*
G01X92480Y314075D02*
G03Y321161I0J3543D01*
G01Y314075D02*
X88937D01*
Y321161D02*
G03Y314075I0J-3543D01*
G01Y321161D02*
X92480D01*
Y335531D02*
G03Y342618I0J3544D01*
G01Y335531D02*
X88937D01*
Y342618D02*
G03Y335531I0J-3543D01*
G01Y342618D02*
X92480D01*
X96850Y367717D02*
G03X96850I-4724J0D01*
G01X121929Y107756D02*
G03X121929I-4527J0D01*
G01X118806Y265433D02*
G03X115919I-1444J1614D01*
G01X118806D02*
G03X118740Y265287I131J-146D01*
G01Y251761*
G03X118806Y251614I197J-0*
G01X115919D02*
G03X118806I1443J-1614D01*
G01X115919D02*
G03X115984Y251761I-132J147D01*
G01Y265287*
G03X115919Y265433I-197J-0*
G01X131772Y111299D02*
Y104213D01*
X130787Y103228D02*
G03X131772Y104213I0J985D01*
G01X130787Y103228D02*
X123701D01*
X122717Y104213D02*
G03X123701Y103228I984J-0D01*
G01X122717Y104213D02*
Y111299D01*
X123701Y112283D02*
G03X122717Y111299I-0J-984D01*
G01X123701Y112283D02*
X130787D01*
X131772Y111299D02*
G03X130787Y112283I-985J0D01*
G01X198386Y126115D02*
G03Y129003I1614J1444D01*
G01Y126115D02*
G03X198239Y126181I-147J-131D01*
G01X189764*
X188624Y126784D02*
G03X189764Y126181I1140J775D01*
G01X188624Y126784D02*
G03X188601Y126813I-163J-110D01*
G01X184566Y130848*
G03X184426Y130905I-140J-139*
G01X171052*
G03X170905Y130840I0J-196*
G01Y133727D02*
G03Y130840I-1614J-1444D01*
G01Y133727D02*
G03X171052Y133661I147J131D01*
G01X185000*
X185313Y133625D02*
G03X185000Y133661I-313J-1342D01*
G01X185313Y133625D02*
G03X185325Y133623I45J192D01*
G01X186073Y133238D02*
G03X185325Y133623I-975J-974D01*
G01X186073Y133238D02*
X190316Y128995D01*
G03X190455Y128937I139J139*
G01X198239*
G03X198386Y129003I0J197*
G01X197599Y222178D02*
G03Y225066I1614J1444D01*
G01Y222178D02*
G03X197452Y222244I-147J-131D01*
G01X193887*
G03X193740Y222178I-0J-197*
G01Y225066D02*
G03Y222178I-1614J-1444D01*
G01Y225066D02*
G03X193887Y225000I147J131D01*
G01X197452*
G03X197599Y225066I-0J197*
G01Y239501D02*
G03Y242388I1614J1444D01*
G01Y239501D02*
G03X197452Y239567I-147J-131D01*
G01X190737*
G03X190590Y239501I0J-197*
G01Y242388D02*
G03Y239501I-1614J-1443D01*
G01Y242388D02*
G03X190737Y242323I147J132D01*
G01X197452*
G03X197599Y242388I-0J197*
G01X225945Y255249D02*
G03Y258137I1614J1444D01*
G01Y255249D02*
G03X225798Y255315I-147J-131D01*
G01X201575*
X200600Y255719D02*
G03X201575Y255315I975J974D01*
G01X200600Y255719D02*
X196731Y259588D01*
G03X196592Y259646I-139J-139*
G01X196249*
G03X196102Y259580I-0J-197*
G01Y262467D02*
G03Y259580I-1614J-1443D01*
G01Y262467D02*
G03X196249Y262402I147J131D01*
G01X197244*
X198218Y261998D02*
G03X197244Y262402I-974J-974D01*
G01X198218Y261998D02*
X200276Y259940D01*
G03X200577Y260191I139J140*
G01X200200Y261538D02*
G03X200578Y260191I2162J-121D01*
G01X200200Y261538D02*
G03X200143Y261688I-196J11D01*
G01X197125Y264706*
G03X196985Y264764I-140J-139*
G01X138769*
G03X138622Y264698I-0J-197*
G01X135592Y267780D02*
G03X138622Y264698I1416J-1638D01*
G01X135592Y267780D02*
G03X135660Y267929I-129J149D01*
G01Y268609*
G03X135602Y268748I-197J0*
G01X132978Y271372*
G03X132694Y271367I-139J-139*
G01X129488Y274278D02*
G03X132694Y271367I1614J-1443D01*
G01X129488Y274278D02*
G03X129342Y274606I-146J131D01*
G01X102942*
G03X102795Y274541I-0J-197*
G01Y277428D02*
G03Y274541I-1614J-1444D01*
G01Y277428D02*
G03X102942Y277362I147J131D01*
G01X137008*
X137982Y276959D02*
G03X137008Y277362I-974J-975D01*
G01X137982Y276959D02*
X140277Y274664D01*
G03X140416Y274606I139J139*
G01X188790*
G03X188937Y274672I0J197*
G01Y271785D02*
G03Y274672I1614J1443D01*
G01Y271785D02*
G03X188790Y271850I-147J-131D01*
G01X139764*
X138789Y272254D02*
G03X139764Y271850I975J974D01*
G01X138789Y272254D02*
X136495Y274549D01*
G03X136356Y274606I-139J-140*
G01X133476*
G03X133475Y274213I0J-197*
G01X134439Y273809D02*
G03X133475Y274213I-974J-974D01*
G01X134439Y273809D02*
X138012Y270236D01*
X138416Y269261D02*
G03X138012Y270236I-1378J0D01*
G01X138416Y269261D02*
Y267875D01*
G03X138479Y267731I197J0*
G01X138622Y267585D02*
G03X138479Y267731I-1614J-1443D01*
G01X138622Y267585D02*
G03X138769Y267520I147J132D01*
G01X197638*
X198612Y267116D02*
G03X197638Y267520I-974J-974D01*
G01X198612Y267116D02*
X202092Y263637D01*
G03X202242Y263579I139J139*
G01X201136Y259633D02*
G03X202242Y263579I1226J1784D01*
G01X201136Y259633D02*
G03X200885Y259331I-112J-163D01*
G01X202088Y258129*
G03X202227Y258071I139J139*
G01X225798*
G03X225945Y258137I0J197*
G01X221865Y263134D02*
G03X224768Y265416I2151J252D01*
G01X221865Y263134D02*
G03X221809Y263250I-195J-23D01*
G01X219431Y265629*
G03X219095Y265489I-140J-140*
G01Y263572*
G03X219160Y263425I196J-0*
G01X216273D02*
G03X219160I1444J-1614D01*
G01X216273D02*
G03X216339Y263572I-131J147D01*
G01Y265489*
G03X216281Y265629I-197J0*
G01X201849Y280060*
G03X201710Y280118I-139J-139*
G01X196772*
X195797Y280522D02*
G03X196772Y280118I975J974D01*
G01X195797Y280522D02*
X194573Y281746D01*
G03X194241Y281565I-139J-139*
G01X192126Y278937D02*
G03X194241Y281565I-0J2165D01*
G01X192126Y278937D02*
G03X191929Y278740I0J-197D01*
G01X187598D02*
G03X191929I2166J0D01*
G01X187598D02*
G03X187402Y278937I-196J0D01*
G01X147824*
G03X147677Y278871I-0J-197*
G01X146050Y282480D02*
G03X147677Y278871I13J-2165D01*
G01X146050Y282480D02*
G03X146063Y282481I-1J197D01*
X146076Y282480I14J196*
G01X147677Y281759D02*
G03X146076Y282480I-1614J-1444D01*
G01X147677Y281759D02*
G03X147824Y281693I147J131D01*
G01X151954*
G03X151969I0J197*
X151983I14J197*
G01X162978*
G03X162992I0J197*
X163006I14J197*
G01X188189*
X189163Y281289D02*
G03X188189Y281693I-974J-974D01*
G01X189163Y281289D02*
X189493Y280960D01*
G03X189643Y280902I139J139*
G01X189764Y280906D02*
G03X189643Y280902I-0J-2166D01*
G01X189764Y280906D02*
G03X189961Y281102I-0J196D01*
G01X189964Y281223D02*
G03X189961Y281102I2162J-121D01*
G01X189964Y281223D02*
G03X189907Y281373I-197J11D01*
G01X188463Y282816*
G03X188324Y282874I-139J-139*
G01X164753*
G03X164606Y282808I-0J-197*
G01X163005Y282087D02*
G03X164606Y282808I-13J2165D01*
G01X163005Y282087D02*
G03X162992Y282086I1J-197D01*
X162979Y282087I-14J-196*
G01X164606Y285696D02*
G03X162979Y282087I-1614J-1444D01*
G01X164606Y285696D02*
G03X164753Y285630I147J131D01*
G01X188976*
X189951Y285226D02*
G03X188976Y285630I-975J-974D01*
G01X189951Y285226D02*
X191855Y283322D01*
G03X192006Y283264I140J139*
G01X192588Y283218D02*
G03X192006Y283264I-462J-2116D01*
G01X192588Y283218D02*
G03X192770Y283549I42J192D01*
G01X185235Y291084*
G03X185096Y291142I-139J-139*
G01X182520*
X181545Y291545D02*
G03X182520Y291142I975J975D01*
G01X181545Y291545D02*
X177766Y295325D01*
X177362Y296299D02*
G03X177766Y295325I1378J0D01*
G01X177362Y296299D02*
Y303200D01*
G03X177297Y303347I-197J-0*
G01X180768Y304202D02*
G03X177297Y303347I-2028J759D01*
G01X180768Y304202D02*
G03X181014Y303946I185J-69D01*
G01X183137Y300276D02*
G03X181014Y303946I-1444J1614D01*
G01X183137Y300276D02*
G03X183071Y300129I131J-147D01*
G01Y297778*
G03X183129Y297639I197J0*
G01X183207Y297560*
G03X183543Y297700I139J140*
G01Y297701*
X187323Y299160D02*
G03X183543Y297701I-1614J-1443D01*
G01X187323Y299160D02*
G03X187469Y299095I146J131D01*
G01X188386*
X189360Y298691D02*
G03X188386Y299095I-974J-974D01*
G01X189360Y298691D02*
X200041Y288010D01*
G03X200180Y287953I139J140*
G01X201905*
G03X202009Y288317I0J197*
G01X200984Y290188D02*
G03X202009Y288317I2166J-31D01*
G01X200984Y290188D02*
G03X200755Y290385I-196J3D01*
G01X198950Y294134D02*
G03X200755Y290385I1444J-1614D01*
G01X198950Y294134D02*
G03X199016Y294280I-131J146D01*
G01Y328088*
G03X198958Y328227I-197J-0*
G01X195944Y331242*
G03X195804Y331299I-140J-140*
G01X195068*
G03X194921Y331234I-0J-197*
G01X191508Y333882D02*
G03X194921Y331234I1799J-1205D01*
G01X191508Y333882D02*
G03X191409Y334177I-164J109D01*
G01X191717Y338347D02*
G03X191409Y334177I409J-2127D01*
G01X191717Y338347D02*
G03X191849Y338642I-37J193D01*
G01X195315Y341207D02*
G03X191849Y338642I-1614J-1443D01*
G01X195315Y341207D02*
G03X195461Y341142I146J132D01*
G01X196850*
X197825Y340738D02*
G03X196850Y341142I-975J-974D01*
G01X197825Y340738D02*
X206092Y332470D01*
X206496Y331496D02*
G03X206092Y332470I-1378J0D01*
G01X206496Y331496D02*
Y307605D01*
G03X206857Y307496I197J0*
G01X207218Y307913D02*
G03X206857Y307496I1443J-1614D01*
G01X207218Y307913D02*
G03X207283Y308060I-131J147D01*
G01Y348633*
G03X207218Y348780I-196J0*
G01X210105D02*
G03X207218I-1444J1614D01*
G01X210105D02*
G03X210039Y348633I131J-147D01*
G01Y328139*
G03X210367Y327992I197J-0*
G01X213255Y324764D02*
G03X210367Y327992I-1444J1614D01*
G01X213255Y324764D02*
G03X213189Y324617I131J-147D01*
G01Y304331*
X212785Y303356D02*
G03X213189Y304331I-974J975D01*
G01X212785Y303356D02*
X211672Y302243D01*
G03X211614Y302104I139J-139*
G01Y295855*
G03X211680Y295708I197J0*
G01X208414Y292924D02*
G03X211680Y295708I1822J1170D01*
G01X208414Y292924D02*
G03X208054Y292793I-165J-106D01*
G01X205544Y290385D02*
G03X208054Y292793I362J2135D01*
G01X205544Y290385D02*
G03X205315Y290188I-32J-194D01*
G01X204265Y288301D02*
G03X205315Y290188I-1115J1856D01*
G01X204265Y288301D02*
G03X204337Y287938I101J-169D01*
G01X205108Y287549D02*
G03X204337Y287938I-974J-974D01*
G01X205108Y287549D02*
X223036Y269621D01*
G03X223187Y269564I140J139*
G01X224709Y265751D02*
G03X223187Y269564I-1402J1651D01*
G01X224709Y265751D02*
G03X224768Y265416I127J-150D01*
G01X209365Y246180D02*
X212598D01*
X209172Y245825D02*
X212598D01*
X208837Y245471D02*
X212598D01*
X208492Y245117D02*
X212598D01*
X208465Y244762D02*
X212598D01*
X208465Y244408D02*
X212598D01*
X208465Y244054D02*
X212598D01*
X208465Y243699D02*
X212598D01*
X208465Y243345D02*
X212598D01*
X208465Y242991D02*
X212598D01*
X208465Y242636D02*
X212598D01*
X208465Y242282D02*
X212598D01*
X208465Y241928D02*
X212598D01*
X208465Y241573D02*
X212598D01*
X208465Y241219D02*
X212598D01*
X208465Y240865D02*
X212598D01*
X208465Y240510D02*
X212598D01*
X208465Y240156D02*
X212598D01*
X208465Y239802D02*
X212598D01*
X208465Y239447D02*
X212598D01*
X208465Y239093D02*
X212598D01*
X208465Y238739D02*
X212598D01*
X208465Y238385D02*
X212598D01*
X208465Y238030D02*
X212598D01*
X208465Y237676D02*
X212598D01*
X208465Y237322D02*
X212598D01*
X208465Y236967D02*
X212598D01*
X208465Y236613D02*
X212598D01*
X208465Y236259D02*
X212598D01*
X208465Y235904D02*
X212598D01*
X208465Y235550D02*
X212598D01*
X208465Y235196D02*
X212598D01*
X208465Y234841D02*
X212598D01*
X208465Y234487D02*
X212598D01*
X208465Y234133D02*
X212598D01*
X208465Y233778D02*
X212598D01*
X208465Y233424D02*
X212598D01*
X208465Y233070D02*
X212598D01*
X208465Y232715D02*
X212598D01*
X208465Y232361D02*
X212598D01*
X208465Y232007D02*
X212598D01*
X208465Y231652D02*
X212598D01*
X208465Y231298D02*
X212598D01*
X208465Y230944D02*
X212598D01*
X208465Y230589D02*
X212598D01*
X208465Y230235D02*
X212598D01*
X208465Y229881D02*
X212598D01*
X208465Y229526D02*
X212598D01*
X208465Y229172D02*
X212598D01*
X208465Y228818D02*
X212598D01*
X208465Y228463D02*
X212598D01*
X208465Y228109D02*
X212598D01*
X208465Y227755D02*
X212598D01*
X208465Y227400D02*
X212598D01*
X208465Y227046D02*
X212598D01*
X208465Y226692D02*
X212598D01*
X208465Y226337D02*
X212598D01*
X208465Y225983D02*
X212598D01*
X208465Y225629D02*
X212598D01*
X208465Y225274D02*
X212598D01*
X208465Y224920D02*
X212598D01*
X208465Y224566D02*
X212598D01*
X208465Y224211D02*
X212598D01*
X208465Y223857D02*
X212598D01*
X208465Y223503D02*
X212598D01*
X208465Y223148D02*
X212598D01*
X208465Y222794D02*
X212598D01*
X208465Y222440D02*
X212598D01*
X208465Y222085D02*
X212598D01*
X208465Y221731D02*
X212598D01*
X208465Y221377D02*
X212598D01*
X208465Y221022D02*
X212598D01*
X208465Y220668D02*
X212598D01*
X208465Y220314D02*
X212598D01*
X208465Y219959D02*
X212598D01*
X208465Y219605D02*
X212598D01*
X208465Y219251D02*
X212598D01*
X208465Y218896D02*
X212598D01*
X208465Y218542D02*
X212598D01*
X208465Y218188D02*
X212598D01*
X208465Y217833D02*
X212598D01*
X208465Y217479D02*
X212598D01*
X208465Y217125D02*
X212598D01*
X208465Y216770D02*
X212598D01*
X208465Y216416D02*
X212598D01*
X208465Y216062D02*
X212598D01*
X208465Y215707D02*
X212598D01*
X208465Y215353D02*
X212598D01*
X208418Y214999D02*
X212598D01*
X208268Y214644D02*
X212598D01*
X207971Y214290D02*
X212598D01*
X207617Y213936D02*
X212598D01*
X207262Y213581D02*
X212598D01*
X206908Y213227D02*
X212598D01*
X206554Y212873D02*
X212598D01*
X209936Y250077D02*
X212595D01*
X209444Y246534D02*
X212587D01*
X206199Y212518D02*
X212538D01*
X210038Y249723D02*
X212410D01*
X209449Y246888D02*
X212275D01*
X205845Y212164D02*
X212184D01*
X210165Y249369D02*
X212136D01*
X209556Y247243D02*
X212048D01*
X210227Y249014D02*
X211959D01*
X209859Y247597D02*
X211905D01*
X210230Y248660D02*
X211854D01*
X205491Y211810D02*
X211829D01*
X210055Y247951D02*
X211829D01*
X210175Y248306D02*
X211812D01*
X205136Y211455D02*
X211475D01*
X204782Y211101D02*
X211121D01*
X204428Y210747D02*
X210766D01*
X204073Y210392D02*
X210412D01*
X203719Y210038D02*
X210058D01*
X203365Y209684D02*
X209703D01*
X203010Y209329D02*
X209349D01*
X202953Y208975D02*
X208995D01*
X202953Y208621D02*
X208640D01*
X202953Y208266D02*
X208286D01*
X202953Y207912D02*
X207932D01*
X202953Y207558D02*
X207589D01*
X202953Y207203D02*
X207381D01*
X202953Y206849D02*
X207292D01*
X202953Y206495D02*
X207283D01*
X202953Y206140D02*
X207283D01*
X202953Y205786D02*
X207283D01*
X202953Y205432D02*
X207283D01*
X202953Y205077D02*
X207283D01*
X202953Y204723D02*
X207283D01*
X202953Y204369D02*
X207283D01*
X202953Y204014D02*
X207283D01*
X202953Y203660D02*
X207283D01*
X202953Y203306D02*
X207283D01*
X202953Y202951D02*
X207283D01*
X202953Y202597D02*
X207283D01*
X202953Y202243D02*
X207283D01*
X202953Y201888D02*
X207283D01*
X202953Y201534D02*
X207283D01*
X202953Y201180D02*
X207283D01*
X202953Y200825D02*
X207283D01*
X202953Y200471D02*
X207283D01*
X202953Y200117D02*
X207283D01*
X202953Y199762D02*
X207283D01*
X202953Y199408D02*
X207283D01*
X203213Y199054D02*
X207023D01*
X203301Y196219D02*
X206935D01*
X203461Y196573D02*
X206776D01*
X203462Y198699D02*
X206774D01*
X203620Y196928D02*
X206616D01*
X203621Y198345D02*
X206615D01*
X203711Y197282D02*
X206525D01*
X203711Y197991D02*
X206525D01*
X203740Y197636D02*
X206496D01*
X215817Y249369D02*
X239764D01*
X215994Y249014D02*
X239764D01*
X216098Y248660D02*
X239764D01*
X216140Y248306D02*
X239764D01*
X216124Y247951D02*
X239764D01*
X216048Y247597D02*
X239764D01*
X215904Y247243D02*
X239764D01*
X218137Y246888D02*
X239764D01*
X218722Y246534D02*
X239764D01*
X219056Y246180D02*
X239764D01*
X219272Y245825D02*
X239764D01*
X219406Y245471D02*
X239764D01*
X219475Y245117D02*
X239764D01*
X219485Y244762D02*
X239764D01*
X219436Y244408D02*
X239764D01*
X219324Y244054D02*
X239764D01*
X219137Y243699D02*
X239764D01*
X218848Y243345D02*
X239764D01*
X218701Y242991D02*
X239764D01*
X218701Y242636D02*
X239764D01*
X218701Y242282D02*
X239764D01*
X218701Y241928D02*
X239764D01*
X218701Y241573D02*
X239764D01*
X218701Y241219D02*
X239764D01*
X218701Y240865D02*
X239764D01*
X218701Y240510D02*
X239764D01*
X218701Y240156D02*
X239764D01*
X218701Y239802D02*
X239764D01*
X218701Y239447D02*
X239764D01*
X218701Y239093D02*
X239764D01*
X218701Y238739D02*
X239764D01*
X218701Y238385D02*
X239764D01*
X218701Y238030D02*
X239764D01*
X218701Y237676D02*
X239764D01*
X218701Y237322D02*
X239764D01*
X218701Y236967D02*
X239764D01*
X218701Y236613D02*
X239764D01*
X218701Y236259D02*
X239764D01*
X218701Y235904D02*
X239764D01*
X218701Y235550D02*
X239764D01*
X218701Y235196D02*
X239764D01*
X218701Y234841D02*
X239764D01*
X218701Y234487D02*
X239764D01*
X218701Y234133D02*
X239764D01*
X218701Y233778D02*
X239764D01*
X218701Y233424D02*
X239764D01*
X218701Y233070D02*
X239764D01*
X218701Y232715D02*
X239764D01*
X218701Y232361D02*
X239764D01*
X218701Y232007D02*
X239764D01*
X218701Y231652D02*
X239764D01*
X218701Y231298D02*
X239764D01*
X218701Y230944D02*
X239764D01*
X218701Y230589D02*
X239764D01*
X218701Y230235D02*
X239764D01*
X218701Y229881D02*
X239764D01*
X218701Y229526D02*
X239764D01*
X218701Y229172D02*
X239764D01*
X218701Y228818D02*
X239764D01*
X218701Y228463D02*
X239764D01*
X218701Y228109D02*
X239764D01*
X218701Y227755D02*
X239764D01*
X218701Y227400D02*
X239764D01*
X218701Y227046D02*
X239764D01*
X218701Y226692D02*
X239764D01*
X218701Y226337D02*
X239764D01*
X218701Y225983D02*
X239764D01*
X218701Y225629D02*
X239764D01*
X218701Y225274D02*
X239764D01*
X218701Y224920D02*
X239764D01*
X218701Y224566D02*
X239764D01*
X218701Y224211D02*
X239764D01*
X218701Y223857D02*
X239764D01*
X218701Y223503D02*
X239764D01*
X218701Y223148D02*
X239764D01*
X218701Y222794D02*
X239764D01*
X218701Y222440D02*
X239764D01*
X218701Y222085D02*
X239764D01*
X218701Y221731D02*
X239764D01*
X218701Y221377D02*
X239764D01*
X218701Y221022D02*
X239764D01*
X218701Y220668D02*
X239764D01*
X218701Y220314D02*
X239764D01*
X218701Y219959D02*
X239764D01*
X218701Y219605D02*
X239764D01*
X218701Y219251D02*
X239764D01*
X218701Y218896D02*
X239764D01*
X218701Y218542D02*
X239764D01*
X218701Y218188D02*
X239764D01*
X218701Y217833D02*
X239764D01*
X218701Y217479D02*
X239764D01*
X218701Y217125D02*
X239764D01*
X218701Y216770D02*
X239764D01*
X218701Y216416D02*
X239764D01*
X218701Y216062D02*
X239764D01*
X218701Y215707D02*
X239764D01*
X218701Y215353D02*
X239764D01*
X218701Y214999D02*
X239764D01*
X218701Y214644D02*
X239764D01*
X218701Y214290D02*
X239764D01*
X218701Y213936D02*
X239764D01*
X218701Y213581D02*
X239764D01*
X218701Y213227D02*
X239764D01*
X218701Y212873D02*
X239764D01*
X218701Y212518D02*
X239764D01*
X218701Y212164D02*
X239764D01*
X218701Y211810D02*
X239764D01*
X218701Y211455D02*
X239764D01*
X218701Y211101D02*
X239764D01*
X218701Y210747D02*
X239764D01*
X218701Y210392D02*
X239764D01*
X218701Y210038D02*
X239764D01*
X218701Y209684D02*
X239764D01*
X218701Y209329D02*
X239752D01*
X218701Y208975D02*
X239425D01*
X218701Y208621D02*
X239071D01*
X218701Y208266D02*
X238716D01*
X218701Y207912D02*
X238362D01*
X218701Y207558D02*
X238008D01*
X218701Y207203D02*
X237653D01*
X215543Y249723D02*
X237460D01*
X218701Y206849D02*
X237299D01*
X215358Y250077D02*
X237018D01*
X218701Y206495D02*
X236945D01*
X218701Y206140D02*
X236590D01*
X218701Y205786D02*
X236236D01*
X218701Y205432D02*
X235882D01*
X218701Y205077D02*
X235527D01*
X218701Y204723D02*
X235173D01*
X218701Y204369D02*
X234819D01*
X218701Y204014D02*
X234464D01*
X218701Y203660D02*
X234110D01*
X218701Y203306D02*
X233756D01*
X218701Y202951D02*
X233401D01*
X218701Y202597D02*
X233047D01*
X218926Y202243D02*
X232693D01*
X219187Y201888D02*
X232338D01*
X223033Y201534D02*
X231984D01*
X219355D02*
X221061D01*
X219452Y201180D02*
X220560D01*
X210798Y197991D02*
X220472D01*
X210827Y197636D02*
X220472D01*
X210708Y198345D02*
X220287D01*
X219488Y200825D02*
X220258D01*
X210797Y197282D02*
X220252D01*
X217897Y198699D02*
X220081D01*
X219465Y200471D02*
X220062D01*
X218620Y199054D02*
X219954D01*
X219382Y200117D02*
X219943D01*
X210707Y196928D02*
X219898D01*
X218992Y199408D02*
X219891D01*
X219230Y199762D02*
X219888D01*
X210547Y196573D02*
X219543D01*
X210388Y196219D02*
X219189D01*
X210549Y198699D02*
X216749D01*
X215677Y246888D02*
X216509D01*
X210300Y199054D02*
X216025D01*
X215354Y242991D02*
X215945D01*
X215354Y242636D02*
X215945D01*
X215354Y242282D02*
X215945D01*
X215354Y241928D02*
X215945D01*
X215354Y241573D02*
X215945D01*
X215354Y241219D02*
X215945D01*
X215354Y240865D02*
X215945D01*
X215354Y240510D02*
X215945D01*
X215354Y240156D02*
X215945D01*
X215354Y239802D02*
X215945D01*
X215354Y239447D02*
X215945D01*
X215354Y239093D02*
X215945D01*
X215354Y238739D02*
X215945D01*
X215354Y238385D02*
X215945D01*
X215354Y238030D02*
X215945D01*
X215354Y237676D02*
X215945D01*
X215354Y237322D02*
X215945D01*
X215354Y236967D02*
X215945D01*
X215354Y236613D02*
X215945D01*
X215354Y236259D02*
X215945D01*
X215354Y235904D02*
X215945D01*
X215354Y235550D02*
X215945D01*
X215354Y235196D02*
X215945D01*
X215354Y234841D02*
X215945D01*
X215354Y234487D02*
X215945D01*
X215354Y234133D02*
X215945D01*
X215354Y233778D02*
X215945D01*
X215354Y233424D02*
X215945D01*
X215354Y233070D02*
X215945D01*
X215354Y232715D02*
X215945D01*
X215354Y232361D02*
X215945D01*
X215354Y232007D02*
X215945D01*
X215354Y231652D02*
X215945D01*
X215354Y231298D02*
X215945D01*
X215354Y230944D02*
X215945D01*
X215354Y230589D02*
X215945D01*
X215354Y230235D02*
X215945D01*
X215354Y229881D02*
X215945D01*
X215354Y229526D02*
X215945D01*
X215354Y229172D02*
X215945D01*
X215354Y228818D02*
X215945D01*
X215354Y228463D02*
X215945D01*
X215354Y228109D02*
X215945D01*
X215354Y227755D02*
X215945D01*
X215354Y227400D02*
X215945D01*
X215354Y227046D02*
X215945D01*
X215354Y226692D02*
X215945D01*
X215354Y226337D02*
X215945D01*
X215354Y225983D02*
X215945D01*
X215354Y225629D02*
X215945D01*
X215354Y225274D02*
X215945D01*
X215354Y224920D02*
X215945D01*
X215354Y224566D02*
X215945D01*
X215354Y224211D02*
X215945D01*
X215354Y223857D02*
X215945D01*
X215354Y223503D02*
X215945D01*
X215354Y223148D02*
X215945D01*
X215354Y222794D02*
X215945D01*
X215354Y222440D02*
X215945D01*
X215354Y222085D02*
X215945D01*
X215354Y221731D02*
X215945D01*
X215354Y221377D02*
X215945D01*
X215354Y221022D02*
X215945D01*
X215354Y220668D02*
X215945D01*
X215354Y220314D02*
X215945D01*
X215354Y219959D02*
X215945D01*
X215354Y219605D02*
X215945D01*
X215354Y219251D02*
X215945D01*
X215354Y218896D02*
X215945D01*
X215354Y218542D02*
X215945D01*
X215354Y218188D02*
X215945D01*
X215354Y217833D02*
X215945D01*
X215354Y217479D02*
X215945D01*
X215354Y217125D02*
X215945D01*
X215354Y216770D02*
X215945D01*
X215354Y216416D02*
X215945D01*
X215354Y216062D02*
X215945D01*
X215354Y215707D02*
X215945D01*
X215354Y215353D02*
X215945D01*
X215354Y214999D02*
X215945D01*
X215354Y214644D02*
X215945D01*
X215354Y214290D02*
X215945D01*
X215354Y213936D02*
X215945D01*
X215354Y213581D02*
X215945D01*
X215354Y213227D02*
X215945D01*
X215354Y212873D02*
X215945D01*
X215354Y212518D02*
X215945D01*
X215354Y212164D02*
X215945D01*
X215340Y211810D02*
X215945D01*
X215239Y211455D02*
X215945D01*
X215014Y211101D02*
X215945D01*
X214664Y210747D02*
X215945D01*
X214310Y210392D02*
X215945D01*
X213955Y210038D02*
X215945D01*
X213601Y209684D02*
X215945D01*
X213247Y209329D02*
X215945D01*
X212892Y208975D02*
X215945D01*
X212538Y208621D02*
X215945D01*
X212184Y208266D02*
X215945D01*
X211829Y207912D02*
X215945D01*
X211475Y207558D02*
X215945D01*
X211121Y207203D02*
X215945D01*
X210766Y206849D02*
X215945D01*
X210412Y206495D02*
X215945D01*
X210067Y206140D02*
X215945D01*
X210039Y205786D02*
X215945D01*
X210039Y205432D02*
X215945D01*
X210039Y205077D02*
X215945D01*
X210039Y204723D02*
X215945D01*
X210039Y204369D02*
X215945D01*
X210039Y204014D02*
X215945D01*
X210039Y203660D02*
X215945D01*
X210039Y203306D02*
X215945D01*
X210039Y202951D02*
X215945D01*
X210039Y202597D02*
X215945D01*
X215366Y246534D02*
X215923D01*
X215356Y243345D02*
X215797D01*
X210039Y202243D02*
X215719D01*
X210039Y199408D02*
X215654D01*
X210039Y201888D02*
X215458D01*
X210039Y199762D02*
X215415D01*
X210039Y201534D02*
X215290D01*
X210039Y200117D02*
X215264D01*
X210039Y201180D02*
X215193D01*
X210039Y200471D02*
X215181D01*
X210039Y200825D02*
X215158D01*
X254277Y368424D02*
X257414D01*
X254210Y368778D02*
X257408D01*
X254318Y368070D02*
X257399D01*
X254114Y369133D02*
X257381D01*
X254331Y367715D02*
X257377D01*
X254317Y367361D02*
X257354D01*
X253987Y369487D02*
X257332D01*
X254277Y367007D02*
X257332D01*
X254209Y366652D02*
X257310D01*
X254113Y366298D02*
X257287D01*
X253985Y365944D02*
X257265D01*
X253826Y369841D02*
X257261D01*
X253825Y365589D02*
X257243D01*
X253626Y365235D02*
X257220D01*
X253385Y364881D02*
X257198D01*
X253091Y364526D02*
X257176D01*
X253628Y370196D02*
X257167D01*
X252730Y364172D02*
X257153D01*
X252274Y363818D02*
X257131D01*
X251663Y363463D02*
X257109D01*
X250650Y363109D02*
X257086D01*
X148425Y362755D02*
X257064D01*
X253387Y370550D02*
X257049D01*
X148425Y362400D02*
X257042D01*
X148425Y362046D02*
X257019D01*
X148425Y361692D02*
X256997D01*
X148425Y361337D02*
X256975D01*
X148425Y360983D02*
X256952D01*
X148425Y360629D02*
X256930D01*
X148425Y360274D02*
X256908D01*
X253093Y370904D02*
X256905D01*
X148425Y359920D02*
X256885D01*
X148425Y359566D02*
X256863D01*
X148425Y359211D02*
X256841D01*
X148425Y358857D02*
X256818D01*
X148425Y358503D02*
X256796D01*
X175813Y358148D02*
X256774D01*
X176773Y357794D02*
X256751D01*
X252733Y371259D02*
X256733D01*
X177350Y357440D02*
X256729D01*
X177777Y357085D02*
X256707D01*
X178112Y356731D02*
X256684D01*
X178381Y356377D02*
X256662D01*
X178599Y356022D02*
X256640D01*
X178773Y355668D02*
X256617D01*
X178909Y355314D02*
X256595D01*
X179011Y354959D02*
X256573D01*
X179082Y354605D02*
X256551D01*
X252278Y371613D02*
X256530D01*
X179123Y354251D02*
X256528D01*
X179134Y353896D02*
X256506D01*
X179116Y353542D02*
X256484D01*
X179069Y353188D02*
X256461D01*
X178991Y352833D02*
X256439D01*
X209245Y352479D02*
X256417D01*
X209962Y352125D02*
X256394D01*
X210333Y351770D02*
X256372D01*
X210570Y351416D02*
X256350D01*
X210721Y351062D02*
X256327D01*
X210804Y350707D02*
X256305D01*
X251668Y371967D02*
X256292D01*
X210826Y350353D02*
X256283D01*
X210790Y349999D02*
X256260D01*
X210693Y349644D02*
X256238D01*
X210524Y349290D02*
X256216D01*
X210262Y348936D02*
X256193D01*
X210039Y348581D02*
X256171D01*
X210039Y348227D02*
X256149D01*
X210039Y347873D02*
X256126D01*
X210039Y347518D02*
X256104D01*
X210039Y347164D02*
X256082D01*
X210039Y346810D02*
X256059D01*
X210039Y346455D02*
X256037D01*
X250662Y372322D02*
X256015D01*
X210039Y346101D02*
X256015D01*
X210039Y345747D02*
X255992D01*
X210039Y345392D02*
X255970D01*
X210039Y345038D02*
X255948D01*
X210039Y344684D02*
X255925D01*
X210039Y344329D02*
X255903D01*
X210039Y343975D02*
X255881D01*
X210039Y343621D02*
X255858D01*
X210039Y343266D02*
X255836D01*
X210039Y342912D02*
X255814D01*
X210039Y342558D02*
X255791D01*
X210039Y342203D02*
X255769D01*
X210039Y341849D02*
X255747D01*
X210039Y341495D02*
X255724D01*
X210039Y341140D02*
X255702D01*
X179092Y372676D02*
X255689D01*
X210039Y340786D02*
X255680D01*
X210039Y340432D02*
X255657D01*
X210039Y340077D02*
X255635D01*
X210039Y339723D02*
X255613D01*
X210039Y339369D02*
X255590D01*
X210039Y339014D02*
X255568D01*
X210039Y338660D02*
X255546D01*
X210039Y338306D02*
X255523D01*
X210039Y337951D02*
X255501D01*
X210039Y337597D02*
X255479D01*
X210039Y337243D02*
X255457D01*
X210039Y336888D02*
X255434D01*
X210039Y336534D02*
X255412D01*
X210039Y336180D02*
X255390D01*
X210039Y335825D02*
X255367D01*
X210039Y335471D02*
X255345D01*
X210039Y335117D02*
X255323D01*
X179303Y373030D02*
X255302D01*
X210039Y334762D02*
X255300D01*
X210039Y334408D02*
X255278D01*
X210039Y334054D02*
X255256D01*
X210039Y333699D02*
X255233D01*
X210039Y333345D02*
X255211D01*
X210039Y332991D02*
X255189D01*
X210039Y332636D02*
X255166D01*
X210039Y332282D02*
X255144D01*
X210039Y331928D02*
X255122D01*
X210039Y331573D02*
X255099D01*
X210039Y331219D02*
X255077D01*
X210039Y330865D02*
X255055D01*
X210039Y330510D02*
X255032D01*
X210039Y330156D02*
X255010D01*
X210039Y329802D02*
X254988D01*
X210039Y329447D02*
X254965D01*
X210039Y329093D02*
X254943D01*
X210039Y328739D02*
X254921D01*
X212625Y328385D02*
X254898D01*
X213211Y328030D02*
X254876D01*
X213544Y327676D02*
X254854D01*
X179478Y373385D02*
X254834D01*
X213760Y327322D02*
X254831D01*
X213895Y326967D02*
X254809D01*
X213964Y326613D02*
X254787D01*
X213973Y326259D02*
X254764D01*
X213924Y325904D02*
X254742D01*
X213812Y325550D02*
X254720D01*
X213625Y325196D02*
X254697D01*
X213337Y324841D02*
X254675D01*
X213189Y324487D02*
X254653D01*
X213189Y324133D02*
X254630D01*
X213189Y323778D02*
X254608D01*
X213189Y323424D02*
X254586D01*
X213189Y323070D02*
X254563D01*
X218056Y322715D02*
X254541D01*
X218496Y322361D02*
X254519D01*
X222427Y322007D02*
X254496D01*
X222816Y321652D02*
X254474D01*
X223171Y321298D02*
X254452D01*
X223525Y320944D02*
X254430D01*
X223879Y320589D02*
X254407D01*
X224234Y320235D02*
X254385D01*
X224588Y319881D02*
X254363D01*
X224942Y319526D02*
X254340D01*
X225297Y319172D02*
X254318D01*
X225651Y318818D02*
X254296D01*
X226005Y318463D02*
X254273D01*
X226360Y318109D02*
X254251D01*
X179621Y373739D02*
X254242D01*
X226714Y317755D02*
X254229D01*
X227068Y317400D02*
X254206D01*
X227423Y317046D02*
X254184D01*
X227777Y316692D02*
X254162D01*
X228131Y316337D02*
X254139D01*
X228486Y315983D02*
X254117D01*
X228840Y315629D02*
X254095D01*
X229194Y315274D02*
X254072D01*
X229548Y314920D02*
X254050D01*
X229903Y314566D02*
X254028D01*
X230257Y314211D02*
X254005D01*
X230611Y313857D02*
X253983D01*
X230966Y313503D02*
X253961D01*
X231320Y313148D02*
X253938D01*
X231674Y312794D02*
X253916D01*
X232029Y312440D02*
X253894D01*
X232383Y312085D02*
X253871D01*
X232737Y311731D02*
X253849D01*
X233092Y311377D02*
X253827D01*
X233446Y311022D02*
X253804D01*
X233800Y310668D02*
X253782D01*
X234155Y310314D02*
X253760D01*
X234509Y309959D02*
X253737D01*
X234863Y309605D02*
X253715D01*
X235218Y309251D02*
X253693D01*
X235572Y308896D02*
X253670D01*
X242465Y308542D02*
X253648D01*
X242905Y308188D02*
X253626D01*
X243179Y307833D02*
X253603D01*
X243356Y307479D02*
X253581D01*
X243460Y307125D02*
X253559D01*
X243503Y306770D02*
X253536D01*
X243486Y306416D02*
X253514D01*
X243410Y306062D02*
X253492D01*
X243267Y305707D02*
X253469D01*
X243040Y305353D02*
X253447D01*
X242913Y304999D02*
X253425D01*
X179734Y374093D02*
X253416D01*
X242913Y304644D02*
X253403D01*
X242913Y304290D02*
X253380D01*
X242913Y303936D02*
X253358D01*
X242913Y303581D02*
X253336D01*
X242913Y303227D02*
X253313D01*
X242913Y302873D02*
X253291D01*
X242913Y302518D02*
X253269D01*
X242913Y302164D02*
X253246D01*
X242913Y301810D02*
X253224D01*
X242913Y301455D02*
X253202D01*
X242913Y301101D02*
X253179D01*
X242913Y300747D02*
X253157D01*
X242913Y300392D02*
X253135D01*
X242913Y300038D02*
X253112D01*
X242913Y299684D02*
X253090D01*
X242913Y299329D02*
X253068D01*
X242913Y298975D02*
X253045D01*
X242913Y298621D02*
X253023D01*
X242913Y298266D02*
X253001D01*
X242913Y297912D02*
X252978D01*
X242913Y297558D02*
X252956D01*
X242913Y297203D02*
X252934D01*
X242913Y296849D02*
X252911D01*
X242913Y296495D02*
X252889D01*
X242913Y296140D02*
X252867D01*
X242913Y295786D02*
X252844D01*
X242913Y295432D02*
X252822D01*
X242913Y295077D02*
X252800D01*
X242913Y294723D02*
X252777D01*
X242913Y294369D02*
X252755D01*
X242913Y294014D02*
X252733D01*
X242913Y293660D02*
X252710D01*
X242913Y293306D02*
X252688D01*
X242913Y292951D02*
X252666D01*
X242913Y292597D02*
X252643D01*
X242913Y292243D02*
X252621D01*
X242913Y291888D02*
X252599D01*
X242913Y291534D02*
X252576D01*
X242913Y291180D02*
X252554D01*
X242913Y290825D02*
X252532D01*
X242913Y290471D02*
X252509D01*
X242913Y290117D02*
X252487D01*
X242913Y289762D02*
X252465D01*
X242913Y289408D02*
X252442D01*
X242913Y289054D02*
X252420D01*
X242913Y288699D02*
X252398D01*
X242913Y288345D02*
X252375D01*
X242913Y287991D02*
X252353D01*
X242913Y287636D02*
X252331D01*
X242913Y287282D02*
X252309D01*
X242913Y286928D02*
X252286D01*
X242913Y286573D02*
X252264D01*
X242913Y286219D02*
X252242D01*
X242913Y285865D02*
X252219D01*
X242913Y285510D02*
X252197D01*
X242913Y285156D02*
X252175D01*
X242913Y284802D02*
X252152D01*
X242913Y284447D02*
X252130D01*
X242913Y284093D02*
X252108D01*
X242913Y283739D02*
X252085D01*
X242913Y283385D02*
X252063D01*
X242913Y283030D02*
X252041D01*
X242913Y282676D02*
X252018D01*
X242913Y282322D02*
X251996D01*
X242913Y281967D02*
X251974D01*
X242913Y281613D02*
X251951D01*
X242913Y281259D02*
X251929D01*
X242913Y280904D02*
X251907D01*
X242913Y280550D02*
X251884D01*
X242913Y280196D02*
X251862D01*
X242913Y279841D02*
X251840D01*
X242913Y279487D02*
X251817D01*
X242913Y279133D02*
X251795D01*
X242913Y278778D02*
X251773D01*
X242913Y278424D02*
X251750D01*
X242913Y278070D02*
X251728D01*
X242913Y277715D02*
X251706D01*
X242913Y277361D02*
X251683D01*
X242913Y277007D02*
X251661D01*
X242913Y276652D02*
X251639D01*
X242913Y276298D02*
X251616D01*
X242913Y275944D02*
X251594D01*
X242913Y275589D02*
X251572D01*
X242913Y275235D02*
X251549D01*
X242913Y274881D02*
X251527D01*
X242913Y274526D02*
X251505D01*
X242913Y274172D02*
X251482D01*
X242913Y273818D02*
X251460D01*
X242913Y273463D02*
X251438D01*
X242913Y273109D02*
X251415D01*
X242913Y272755D02*
X251393D01*
X242913Y272400D02*
X251371D01*
X242913Y272046D02*
X251348D01*
X242913Y271692D02*
X251326D01*
X242913Y271337D02*
X251304D01*
X242913Y270983D02*
X251282D01*
X242913Y270629D02*
X251259D01*
X242913Y270274D02*
X251237D01*
X242913Y269920D02*
X251215D01*
X242913Y269566D02*
X251192D01*
X242913Y269211D02*
X251170D01*
X242913Y268857D02*
X251148D01*
X242913Y268503D02*
X251125D01*
X242913Y268148D02*
X251103D01*
X242913Y267794D02*
X251081D01*
X242913Y267440D02*
X251058D01*
X242913Y267085D02*
X251036D01*
X242913Y266731D02*
X251014D01*
X242913Y266377D02*
X250991D01*
X242913Y266022D02*
X250969D01*
X242913Y265668D02*
X250947D01*
X242913Y265314D02*
X250924D01*
X242913Y264959D02*
X250902D01*
X242913Y264605D02*
X250880D01*
X242913Y264251D02*
X250857D01*
X242913Y263896D02*
X250835D01*
X242913Y263542D02*
X250813D01*
X242913Y263188D02*
X250790D01*
X242913Y262833D02*
X250768D01*
X242913Y262479D02*
X250746D01*
X242913Y262125D02*
X250723D01*
X242913Y261770D02*
X250701D01*
X242913Y261416D02*
X250679D01*
X242913Y261062D02*
X250656D01*
X242913Y260707D02*
X250634D01*
X242913Y260353D02*
X250612D01*
X242913Y259999D02*
X250589D01*
X242913Y259644D02*
X250567D01*
X242913Y259290D02*
X250545D01*
X242913Y258936D02*
X250522D01*
X242913Y258581D02*
X248745D01*
X148425Y363109D02*
X248562D01*
X178839Y372322D02*
X248551D01*
X242913Y216770D02*
X247860D01*
X242913Y258227D02*
X247855D01*
X242913Y216416D02*
X247844D01*
X242913Y216062D02*
X247821D01*
X242913Y215707D02*
X247799D01*
X242913Y215353D02*
X247777D01*
X242913Y214999D02*
X247755D01*
X242913Y214644D02*
X247732D01*
X242913Y214290D02*
X247710D01*
X242913Y213936D02*
X247688D01*
X242913Y213581D02*
X247665D01*
X242913Y213227D02*
X247643D01*
X242913Y212873D02*
X247621D01*
X242913Y212518D02*
X247599D01*
X242913Y212164D02*
X247576D01*
X242913Y211810D02*
X247554D01*
X148425Y363463D02*
X247550D01*
X178535Y371967D02*
X247544D01*
X242913Y211455D02*
X247532D01*
X242913Y211101D02*
X247509D01*
X242913Y210747D02*
X247487D01*
X242913Y210392D02*
X247465D01*
X242913Y210038D02*
X247442D01*
X242913Y209684D02*
X247420D01*
X242913Y209329D02*
X247398D01*
X242913Y208975D02*
X247376D01*
X242913Y257873D02*
X247366D01*
X242913Y208621D02*
X247353D01*
X242863Y208266D02*
X247331D01*
X242724Y207912D02*
X247309D01*
X242462Y207558D02*
X247286D01*
X242108Y207203D02*
X247264D01*
X241753Y206849D02*
X247242D01*
X241399Y206495D02*
X247220D01*
X241045Y206140D02*
X247197D01*
X240690Y205786D02*
X247175D01*
X240336Y205432D02*
X247153D01*
X239982Y205077D02*
X247130D01*
X239627Y204723D02*
X247108D01*
X239273Y204369D02*
X247086D01*
X238919Y204014D02*
X247063D01*
X238564Y203660D02*
X247041D01*
X242913Y257518D02*
X247023D01*
X238210Y203306D02*
X247019D01*
X237856Y202951D02*
X246997D01*
X237501Y202597D02*
X246974D01*
X237147Y202243D02*
X246952D01*
X148425Y363818D02*
X246938D01*
X178167Y371613D02*
X246934D01*
X236793Y201888D02*
X246930D01*
X236438Y201534D02*
X246907D01*
X236084Y201180D02*
X246885D01*
X235730Y200825D02*
X246863D01*
X235375Y200471D02*
X246840D01*
X235021Y200117D02*
X246818D01*
X234667Y199762D02*
X246796D01*
X234312Y199408D02*
X246774D01*
X242913Y257164D02*
X246770D01*
X233958Y199054D02*
X246751D01*
X233604Y198699D02*
X246729D01*
X233227Y198345D02*
X246707D01*
X223699Y197991D02*
X246684D01*
X223622Y197636D02*
X246662D01*
X223622Y197282D02*
X246640D01*
X223622Y196928D02*
X246618D01*
X223598Y196573D02*
X246595D01*
X242913Y256810D02*
X246581D01*
X223490Y196219D02*
X246573D01*
X223276Y195865D02*
X246551D01*
X222934Y195510D02*
X246528D01*
X222580Y195156D02*
X246506D01*
X230587Y194802D02*
X246484D01*
X148425Y364172D02*
X246483D01*
X177710Y371259D02*
X246480D01*
X231056Y194447D02*
X246461D01*
X242913Y256455D02*
X246446D01*
X231343Y194093D02*
X246439D01*
X231529Y193739D02*
X246417D01*
X231641Y193385D02*
X246395D01*
X231690Y193030D02*
X246372D01*
X242913Y256101D02*
X246357D01*
X231680Y192676D02*
X246350D01*
X231610Y192322D02*
X246328D01*
X242913Y255747D02*
X246310D01*
X231475Y191967D02*
X246305D01*
X242913Y255392D02*
X246288D01*
X231259Y191613D02*
X246283D01*
X242913Y255038D02*
X246267D01*
X230924Y191259D02*
X246261D01*
X242913Y254684D02*
X246245D01*
X230335Y190904D02*
X246239D01*
X242913Y254329D02*
X246223D01*
X95513Y190550D02*
X246216D01*
X242913Y253975D02*
X246202D01*
X242913Y217125D02*
X246197D01*
X95535Y190196D02*
X246194D01*
X242913Y253621D02*
X246180D01*
X95557Y189841D02*
X246172D01*
X242913Y253266D02*
X246159D01*
X95580Y189487D02*
X246149D01*
X242913Y252912D02*
X246137D01*
X95602Y189133D02*
X246127D01*
X148425Y364526D02*
X246122D01*
X177113Y370904D02*
X246119D01*
X242913Y252558D02*
X246115D01*
X95624Y188778D02*
X246105D01*
X242913Y252203D02*
X246094D01*
X95646Y188424D02*
X246082D01*
X242913Y251849D02*
X246072D01*
X95669Y188070D02*
X246060D01*
X242913Y251495D02*
X246051D01*
X95691Y187715D02*
X246038D01*
X242913Y251140D02*
X246029D01*
X95713Y187361D02*
X246016D01*
X242913Y250786D02*
X246007D01*
X95736Y187007D02*
X245993D01*
X242913Y250432D02*
X245986D01*
X95758Y186652D02*
X245971D01*
X242913Y250077D02*
X245964D01*
X95780Y186298D02*
X245949D01*
X242913Y249723D02*
X245942D01*
X95802Y185944D02*
X245926D01*
X242913Y249369D02*
X245921D01*
X95825Y185589D02*
X245904D01*
X242913Y249014D02*
X245899D01*
X159131Y185235D02*
X245882D01*
X242913Y248660D02*
X245878D01*
X160244Y184881D02*
X245859D01*
X242913Y248306D02*
X245856D01*
X160658Y184526D02*
X245837D01*
X242913Y247951D02*
X245834D01*
X148425Y364881D02*
X245828D01*
X176208Y370550D02*
X245826D01*
X160920Y184172D02*
X245815D01*
X242913Y247597D02*
X245813D01*
X161088Y183818D02*
X245793D01*
X242913Y247243D02*
X245791D01*
X161185Y183463D02*
X245770D01*
X242913Y246888D02*
X245769D01*
X161220Y183109D02*
X245748D01*
X242913Y246534D02*
X245748D01*
X242913Y246180D02*
X245726D01*
X161197Y182755D02*
X245726D01*
X242913Y245825D02*
X245705D01*
X161114Y182400D02*
X245703D01*
X242913Y245471D02*
X245683D01*
X160963Y182046D02*
X245681D01*
X242913Y245117D02*
X245661D01*
X160724Y181692D02*
X245659D01*
X242913Y244762D02*
X245640D01*
X160353Y181337D02*
X245637D01*
X242913Y244408D02*
X245618D01*
X159629Y180983D02*
X245614D01*
X242913Y244054D02*
X245596D01*
X145176Y180629D02*
X245592D01*
X148425Y365235D02*
X245586D01*
X148425Y370196D02*
X245585D01*
X242913Y243699D02*
X245575D01*
X144821Y180274D02*
X245570D01*
X242913Y243345D02*
X245553D01*
X144467Y179920D02*
X245547D01*
X242913Y242991D02*
X245532D01*
X144113Y179566D02*
X245525D01*
X242913Y217479D02*
X245511D01*
X242913Y242636D02*
X245510D01*
X143758Y179211D02*
X245503D01*
X242913Y242282D02*
X245488D01*
X143404Y178857D02*
X245480D01*
X242913Y241928D02*
X245467D01*
X143050Y178503D02*
X245458D01*
X242913Y241573D02*
X245445D01*
X156221Y178148D02*
X245436D01*
X242913Y241219D02*
X245424D01*
X156864Y177794D02*
X245414D01*
X242913Y240865D02*
X245402D01*
X157215Y177440D02*
X245391D01*
X148425Y365589D02*
X245388D01*
X148425Y369841D02*
X245387D01*
X242913Y240510D02*
X245380D01*
X157441Y177085D02*
X245369D01*
X242913Y240156D02*
X245359D01*
X157584Y176731D02*
X245347D01*
X242913Y239802D02*
X245337D01*
X157660Y176377D02*
X245324D01*
X242913Y239447D02*
X245315D01*
X157676Y176022D02*
X245302D01*
X242913Y239093D02*
X245294D01*
X157633Y175668D02*
X245280D01*
X242913Y238739D02*
X245272D01*
X157528Y175314D02*
X245257D01*
X242913Y238385D02*
X245251D01*
X157351Y174959D02*
X245235D01*
X242913Y238030D02*
X245229D01*
X148425Y365944D02*
X245227D01*
X148425Y369487D02*
X245226D01*
X157076Y174605D02*
X245213D01*
X242913Y237676D02*
X245207D01*
X156634Y174251D02*
X245191D01*
X242913Y237322D02*
X245186D01*
X146593Y173896D02*
X245168D01*
X242913Y236967D02*
X245164D01*
X146239Y173542D02*
X245146D01*
X242913Y236613D02*
X245142D01*
X145884Y173188D02*
X245124D01*
X242913Y236259D02*
X245121D01*
X145530Y172833D02*
X245101D01*
X148425Y366298D02*
X245100D01*
X242913Y235904D02*
X245099D01*
X148425Y369133D02*
X245099D01*
X242913Y217833D02*
X245080D01*
X145185Y172479D02*
X245079D01*
X242913Y235550D02*
X245078D01*
X227283Y172125D02*
X245057D01*
X242913Y235196D02*
X245056D01*
X227823Y171770D02*
X245035D01*
X242913Y234841D02*
X245034D01*
X242913Y234487D02*
X245013D01*
X228140Y171416D02*
X245012D01*
X148425Y366652D02*
X245003D01*
X148425Y368778D02*
X245003D01*
X242913Y234133D02*
X244991D01*
X228346Y171062D02*
X244990D01*
X242913Y233778D02*
X244970D01*
X228472Y170707D02*
X244968D01*
X242913Y233424D02*
X244948D01*
X228534Y170353D02*
X244945D01*
X148425Y367007D02*
X244936D01*
X148425Y368424D02*
X244935D01*
X242913Y233070D02*
X244926D01*
X228537Y169999D02*
X244923D01*
X242913Y232715D02*
X244905D01*
X228482Y169644D02*
X244901D01*
X148425Y367361D02*
X244895D01*
X148425Y368070D02*
X244895D01*
X242913Y232361D02*
X244883D01*
X148425Y367715D02*
X244882D01*
X228362Y169290D02*
X244878D01*
X242913Y232007D02*
X244861D01*
X228166Y168936D02*
X244856D01*
X242913Y231652D02*
X244840D01*
X227863Y168581D02*
X244834D01*
X242913Y231298D02*
X244818D01*
X227359Y168227D02*
X244812D01*
X242913Y230944D02*
X244797D01*
X145158Y167873D02*
X244789D01*
X242913Y230589D02*
X244775D01*
X242913Y218188D02*
X244770D01*
X145158Y167518D02*
X244767D01*
X242913Y230235D02*
X244753D01*
X145158Y167164D02*
X244745D01*
X242913Y229881D02*
X244732D01*
X145158Y166810D02*
X244722D01*
X242913Y229526D02*
X244710D01*
X145158Y166455D02*
X244700D01*
X242913Y229172D02*
X244688D01*
X145158Y166101D02*
X244678D01*
X242913Y228818D02*
X244667D01*
X145158Y165747D02*
X244656D01*
X242913Y228463D02*
X244645D01*
X145158Y165392D02*
X244633D01*
X242913Y228109D02*
X244624D01*
X145158Y165038D02*
X244611D01*
X242913Y227755D02*
X244602D01*
X145158Y164684D02*
X244589D01*
X242913Y227400D02*
X244580D01*
X145158Y164329D02*
X244566D01*
X242913Y227046D02*
X244559D01*
X145158Y163975D02*
X244544D01*
X242913Y218542D02*
X244540D01*
X242913Y226692D02*
X244537D01*
X145158Y163621D02*
X244522D01*
X242913Y226337D02*
X244516D01*
X202702Y163266D02*
X244499D01*
X242913Y225983D02*
X244494D01*
X209721Y162912D02*
X244477D01*
X242913Y225629D02*
X244472D01*
X210190Y162558D02*
X244455D01*
X242913Y225274D02*
X244451D01*
X210477Y162203D02*
X244433D01*
X242913Y224920D02*
X244429D01*
X210663Y161849D02*
X244410D01*
X242913Y224566D02*
X244407D01*
X210775Y161495D02*
X244388D01*
X242913Y224211D02*
X244386D01*
X242913Y218896D02*
X244370D01*
X210824Y161140D02*
X244366D01*
X242913Y223857D02*
X244364D01*
X210814Y160786D02*
X244343D01*
X242913Y223503D02*
X244343D01*
X210744Y160432D02*
X244321D01*
X242913Y223148D02*
X244321D01*
X242913Y222794D02*
X244299D01*
X210609Y160077D02*
X244299D01*
X242913Y222440D02*
X244278D01*
X210393Y159723D02*
X244276D01*
X242913Y222085D02*
X244256D01*
X210070Y159369D02*
X244254D01*
X242913Y219251D02*
X244250D01*
X242913Y221731D02*
X244234D01*
X210039Y159014D02*
X244232D01*
X242913Y221377D02*
X244213D01*
X210039Y158660D02*
X244210D01*
X242913Y221022D02*
X244191D01*
X210039Y158306D02*
X244187D01*
X242913Y219605D02*
X244175D01*
X242913Y220668D02*
X244170D01*
X210039Y157951D02*
X244165D01*
X242913Y220314D02*
X244148D01*
X210039Y157597D02*
X244143D01*
X242913Y219959D02*
X244142D01*
X210039Y157243D02*
X244120D01*
X210039Y156888D02*
X244098D01*
X210039Y156534D02*
X244076D01*
X210039Y156180D02*
X244054D01*
X210039Y155825D02*
X244031D01*
X210039Y155471D02*
X244009D01*
X210039Y155117D02*
X243987D01*
X210039Y154762D02*
X243964D01*
X210039Y154408D02*
X243942D01*
X210039Y154054D02*
X243920D01*
X210039Y153699D02*
X243897D01*
X210039Y153345D02*
X243875D01*
X210039Y152991D02*
X243853D01*
X210039Y152636D02*
X243831D01*
X210039Y152282D02*
X243808D01*
X210039Y151928D02*
X243786D01*
X210039Y151573D02*
X243764D01*
X210039Y151219D02*
X243741D01*
X210039Y150865D02*
X243719D01*
X210039Y150510D02*
X243697D01*
X210039Y150156D02*
X243675D01*
X210039Y149802D02*
X243652D01*
X210039Y149447D02*
X243630D01*
X210039Y149093D02*
X243608D01*
X210039Y148739D02*
X243585D01*
X210039Y148385D02*
X243563D01*
X210039Y148030D02*
X243541D01*
X210039Y147676D02*
X243518D01*
X210039Y147322D02*
X243496D01*
X210039Y146967D02*
X243474D01*
X210039Y146613D02*
X243452D01*
X210039Y146259D02*
X243429D01*
X210039Y145904D02*
X243407D01*
X210039Y145550D02*
X243385D01*
X210039Y145196D02*
X243362D01*
X210039Y144841D02*
X243340D01*
X210039Y144487D02*
X243318D01*
X210039Y144133D02*
X243295D01*
X210039Y143778D02*
X243273D01*
X210039Y143424D02*
X243251D01*
X210039Y143070D02*
X243229D01*
X210039Y142715D02*
X243206D01*
X210039Y142361D02*
X243184D01*
X210039Y142007D02*
X243162D01*
X210039Y141652D02*
X243139D01*
X210039Y141298D02*
X243117D01*
X210039Y140944D02*
X243095D01*
X210039Y140589D02*
X243073D01*
X210039Y140235D02*
X243050D01*
X210039Y139881D02*
X243028D01*
X210039Y139526D02*
X243006D01*
X210039Y139172D02*
X242983D01*
X210039Y138818D02*
X242961D01*
X210039Y138463D02*
X242939D01*
X210039Y138109D02*
X242916D01*
X210039Y137755D02*
X242894D01*
X210039Y137400D02*
X242872D01*
X210039Y137046D02*
X242850D01*
X210039Y136692D02*
X242827D01*
X210039Y136337D02*
X242805D01*
X210039Y135983D02*
X242783D01*
X210039Y135629D02*
X242760D01*
X210039Y135274D02*
X242738D01*
X210039Y134920D02*
X242716D01*
X210039Y134566D02*
X242693D01*
X210039Y134211D02*
X242671D01*
X210039Y133857D02*
X242649D01*
X210039Y133503D02*
X242627D01*
X210039Y133148D02*
X242604D01*
X210039Y132794D02*
X242570D01*
X235926Y308542D02*
X240212D01*
X236281Y308188D02*
X239772D01*
X236811Y304999D02*
X239764D01*
X236811Y304644D02*
X239764D01*
X236811Y304290D02*
X239764D01*
X236811Y303936D02*
X239764D01*
X236811Y303581D02*
X239764D01*
X236811Y303227D02*
X239764D01*
X236811Y302873D02*
X239764D01*
X236811Y302518D02*
X239764D01*
X236811Y302164D02*
X239764D01*
X236811Y301810D02*
X239764D01*
X236811Y301455D02*
X239764D01*
X236811Y301101D02*
X239764D01*
X236811Y300747D02*
X239764D01*
X236811Y300392D02*
X239764D01*
X236811Y300038D02*
X239764D01*
X236811Y299684D02*
X239764D01*
X236811Y299329D02*
X239764D01*
X236811Y298975D02*
X239764D01*
X236811Y298621D02*
X239764D01*
X236811Y298266D02*
X239764D01*
X236811Y297912D02*
X239764D01*
X236811Y297558D02*
X239764D01*
X236811Y297203D02*
X239764D01*
X236811Y296849D02*
X239764D01*
X236811Y296495D02*
X239764D01*
X236811Y296140D02*
X239764D01*
X236811Y295786D02*
X239764D01*
X236811Y295432D02*
X239764D01*
X236811Y295077D02*
X239764D01*
X236811Y294723D02*
X239764D01*
X236811Y294369D02*
X239764D01*
X236811Y294014D02*
X239764D01*
X236811Y293660D02*
X239764D01*
X236811Y293306D02*
X239764D01*
X236811Y292951D02*
X239764D01*
X236811Y292597D02*
X239764D01*
X236811Y292243D02*
X239764D01*
X236811Y291888D02*
X239764D01*
X236811Y291534D02*
X239764D01*
X236811Y291180D02*
X239764D01*
X236811Y290825D02*
X239764D01*
X236811Y290471D02*
X239764D01*
X236811Y290117D02*
X239764D01*
X236811Y289762D02*
X239764D01*
X236811Y289408D02*
X239764D01*
X236811Y289054D02*
X239764D01*
X236824Y288699D02*
X239764D01*
X237136Y288345D02*
X239764D01*
X237363Y287991D02*
X239764D01*
X237505Y287636D02*
X239764D01*
X237581Y287282D02*
X239764D01*
X237597Y286928D02*
X239764D01*
X237554Y286573D02*
X239764D01*
X237450Y286219D02*
X239764D01*
X237272Y285865D02*
X239764D01*
X236997Y285510D02*
X239764D01*
X236556Y285156D02*
X239764D01*
X207856Y284802D02*
X239764D01*
X208210Y284447D02*
X239764D01*
X208564Y284093D02*
X239764D01*
X208919Y283739D02*
X239764D01*
X209273Y283385D02*
X239764D01*
X209627Y283030D02*
X239764D01*
X209982Y282676D02*
X239764D01*
X210336Y282322D02*
X239764D01*
X210690Y281967D02*
X239764D01*
X211045Y281613D02*
X239764D01*
X211399Y281259D02*
X239764D01*
X211753Y280904D02*
X239764D01*
X212108Y280550D02*
X239764D01*
X212462Y280196D02*
X239764D01*
X212816Y279841D02*
X239764D01*
X213171Y279487D02*
X239764D01*
X213525Y279133D02*
X239764D01*
X213879Y278778D02*
X239764D01*
X214234Y278424D02*
X239764D01*
X214588Y278070D02*
X239764D01*
X214942Y277715D02*
X239764D01*
X215297Y277361D02*
X239764D01*
X215651Y277007D02*
X239764D01*
X216005Y276652D02*
X239764D01*
X216360Y276298D02*
X239764D01*
X216714Y275944D02*
X239764D01*
X217068Y275589D02*
X239764D01*
X217423Y275235D02*
X239764D01*
X217777Y274881D02*
X239764D01*
X218131Y274526D02*
X239764D01*
X218486Y274172D02*
X239764D01*
X218840Y273818D02*
X239764D01*
X219194Y273463D02*
X239764D01*
X219548Y273109D02*
X239764D01*
X219903Y272755D02*
X239764D01*
X220257Y272400D02*
X239764D01*
X220611Y272046D02*
X239764D01*
X220966Y271692D02*
X239764D01*
X221320Y271337D02*
X239764D01*
X221674Y270983D02*
X239764D01*
X222029Y270629D02*
X239764D01*
X222383Y270274D02*
X239764D01*
X222737Y269920D02*
X239764D01*
X223383Y269566D02*
X239764D01*
X224496Y269211D02*
X239764D01*
X224910Y268857D02*
X239764D01*
X225172Y268503D02*
X239764D01*
X225340Y268148D02*
X239764D01*
X225437Y267794D02*
X239764D01*
X225472Y267440D02*
X239764D01*
X225449Y267085D02*
X239764D01*
X225366Y266731D02*
X239764D01*
X225215Y266377D02*
X239764D01*
X224976Y266022D02*
X239764D01*
X224651Y265668D02*
X239764D01*
X225002Y265314D02*
X239764D01*
X225503Y264959D02*
X239764D01*
X225805Y264605D02*
X239764D01*
X226001Y264251D02*
X239764D01*
X226120Y263896D02*
X239764D01*
X226175Y263542D02*
X239764D01*
X226172Y263188D02*
X239764D01*
X226109Y262833D02*
X239764D01*
X225982Y262479D02*
X239764D01*
X225776Y262125D02*
X239764D01*
X225458Y261770D02*
X239764D01*
X224915Y261416D02*
X239764D01*
X219748Y261062D02*
X239764D01*
X219580Y260707D02*
X239764D01*
X219317Y260353D02*
X239764D01*
X218902Y259999D02*
X239764D01*
X203605Y259644D02*
X239764D01*
X202766Y259290D02*
X239764D01*
X201281Y258936D02*
X239764D01*
X228619Y258581D02*
X239764D01*
X229087Y258227D02*
X239764D01*
X229375Y257873D02*
X239764D01*
X229561Y257518D02*
X239764D01*
X229673Y257164D02*
X239764D01*
X229721Y256810D02*
X239764D01*
X229711Y256455D02*
X239764D01*
X229642Y256101D02*
X239764D01*
X229507Y255747D02*
X239764D01*
X229290Y255392D02*
X239764D01*
X228956Y255038D02*
X239764D01*
X228367Y254684D02*
X239764D01*
X118740Y254329D02*
X239764D01*
X118740Y253975D02*
X239764D01*
X239292Y253621D02*
X239736D01*
X236811Y305353D02*
X239638D01*
X236591Y307833D02*
X239498D01*
X236811Y305707D02*
X239411D01*
X236754Y307479D02*
X239321D01*
X236811Y306062D02*
X239267D01*
X236811Y307125D02*
X239217D01*
X236811Y306416D02*
X239191D01*
X236811Y306770D02*
X239175D01*
X210039Y132440D02*
X238564D01*
X210039Y132085D02*
X237926D01*
X118740Y253621D02*
X237873D01*
X210039Y131731D02*
X237514D01*
X118740Y253266D02*
X237231D01*
X210039Y131377D02*
X237214D01*
X210039Y131022D02*
X236992D01*
X210039Y130668D02*
X236828D01*
X210039Y130314D02*
X236714D01*
X210039Y129959D02*
X236644D01*
X210039Y129605D02*
X236615D01*
X210039Y129251D02*
X236614D01*
X210039Y128896D02*
X236614D01*
X210039Y128542D02*
X236614D01*
X210039Y128188D02*
X236614D01*
X210039Y127833D02*
X236614D01*
X210039Y127479D02*
X236614D01*
X210039Y127125D02*
X236614D01*
X210039Y126770D02*
X236614D01*
X210039Y126416D02*
X236614D01*
X210039Y126062D02*
X236614D01*
X210039Y125707D02*
X236614D01*
X210039Y125353D02*
X236614D01*
X210025Y124999D02*
X236614D01*
X209924Y124644D02*
X236614D01*
X209699Y124290D02*
X236614D01*
X209349Y123936D02*
X236614D01*
X208995Y123581D02*
X236614D01*
X208640Y123227D02*
X236614D01*
X208286Y122873D02*
X236614D01*
X207932Y122518D02*
X236614D01*
X207577Y122164D02*
X236614D01*
X207223Y121810D02*
X236614D01*
X206869Y121455D02*
X236614D01*
X206514Y121101D02*
X236614D01*
X206160Y120747D02*
X236614D01*
X205806Y120392D02*
X236614D01*
X205451Y120038D02*
X236614D01*
X205097Y119684D02*
X236614D01*
X204743Y119329D02*
X236614D01*
X204388Y118975D02*
X236614D01*
X204034Y118621D02*
X236614D01*
X203680Y118266D02*
X236614D01*
X203325Y117912D02*
X236614D01*
X202971Y117558D02*
X236614D01*
X202617Y117203D02*
X236614D01*
X202262Y116849D02*
X236614D01*
X201908Y116495D02*
X236614D01*
X201554Y116140D02*
X236614D01*
X201199Y115786D02*
X236614D01*
X200845Y115432D02*
X236614D01*
X200491Y115077D02*
X236614D01*
X200136Y114723D02*
X236614D01*
X199782Y114369D02*
X236614D01*
X199428Y114014D02*
X236614D01*
X198881Y113660D02*
X236614D01*
X227543Y113306D02*
X236614D01*
X228290Y112951D02*
X236614D01*
X228804Y112597D02*
X236614D01*
X229200Y112243D02*
X236614D01*
X229516Y111888D02*
X236614D01*
X229773Y111534D02*
X236614D01*
X229982Y111180D02*
X236614D01*
X230151Y110825D02*
X236614D01*
X230285Y110471D02*
X236614D01*
X230386Y110117D02*
X236614D01*
X230456Y109762D02*
X236614D01*
X230498Y109408D02*
X236614D01*
X230512Y109054D02*
X236614D01*
X230498Y108699D02*
X236614D01*
X230456Y108345D02*
X236614D01*
X230385Y107991D02*
X236614D01*
X230284Y107636D02*
X236614D01*
X230150Y107282D02*
X236614D01*
X229981Y106928D02*
X236614D01*
X229771Y106573D02*
X236614D01*
X229514Y106219D02*
X236614D01*
X229197Y105865D02*
X236614D01*
X228801Y105510D02*
X236614D01*
X228286Y105156D02*
X236614D01*
X227536Y104802D02*
X236614D01*
X131772Y104447D02*
X236614D01*
X131764Y104093D02*
X236614D01*
X131650Y103739D02*
X236614D01*
X131319Y103385D02*
X236614D01*
X105118Y103030D02*
X236614D01*
X105118Y102676D02*
X236614D01*
X105118Y102322D02*
X236614D01*
X105118Y101967D02*
X236614D01*
X105118Y101613D02*
X236614D01*
X105158Y101259D02*
X236597D01*
X207501Y285156D02*
X234311D01*
X213189Y306416D02*
X234055D01*
X213189Y306062D02*
X234055D01*
X213189Y305707D02*
X234055D01*
X213189Y305353D02*
X234055D01*
X213189Y304999D02*
X234055D01*
X213189Y304644D02*
X234055D01*
X213188Y304290D02*
X234055D01*
X213131Y303936D02*
X234055D01*
X212967Y303581D02*
X234055D01*
X212656Y303227D02*
X234055D01*
X212302Y302873D02*
X234055D01*
X211947Y302518D02*
X234055D01*
X211624Y302164D02*
X234055D01*
X211614Y301810D02*
X234055D01*
X211614Y301455D02*
X234055D01*
X211614Y301101D02*
X234055D01*
X211614Y300747D02*
X234055D01*
X211614Y300392D02*
X234055D01*
X211614Y300038D02*
X234055D01*
X211614Y299684D02*
X234055D01*
X211614Y299329D02*
X234055D01*
X211614Y298975D02*
X234055D01*
X211614Y298621D02*
X234055D01*
X211614Y298266D02*
X234055D01*
X211614Y297912D02*
X234055D01*
X211614Y297558D02*
X234055D01*
X211614Y297203D02*
X234055D01*
X211614Y296849D02*
X234055D01*
X211614Y296495D02*
X234055D01*
X211614Y296140D02*
X234055D01*
X211627Y295786D02*
X234055D01*
X211939Y295432D02*
X234055D01*
X212166Y295077D02*
X234055D01*
X212308Y294723D02*
X234055D01*
X212384Y294369D02*
X234055D01*
X212400Y294014D02*
X234055D01*
X212358Y293660D02*
X234055D01*
X212253Y293306D02*
X234055D01*
X212075Y292951D02*
X234055D01*
X211800Y292597D02*
X234055D01*
X211359Y292243D02*
X234055D01*
X207977Y291888D02*
X234055D01*
X207834Y291534D02*
X234055D01*
X207607Y291180D02*
X234055D01*
X207254Y290825D02*
X234055D01*
X206607Y290471D02*
X234055D01*
X205315Y290117D02*
X234055D01*
X205279Y289762D02*
X234055D01*
X205181Y289408D02*
X234055D01*
X205013Y289054D02*
X234055D01*
X204751Y288699D02*
X234043D01*
X207147Y285510D02*
X233869D01*
X213189Y306770D02*
X233801D01*
X204335Y288345D02*
X233730D01*
X206793Y285865D02*
X233594D01*
X204229Y287991D02*
X233504D01*
X213189Y307125D02*
X233446D01*
X206438Y286219D02*
X233416D01*
X205012Y287636D02*
X233361D01*
X206084Y286573D02*
X233312D01*
X205375Y287282D02*
X233285D01*
X205730Y286928D02*
X233269D01*
X213189Y307479D02*
X233092D01*
X213189Y307833D02*
X232738D01*
X213189Y308188D02*
X232383D01*
X213189Y308542D02*
X232029D01*
X213189Y308896D02*
X231675D01*
X213189Y309251D02*
X231320D01*
X213189Y309605D02*
X230966D01*
X213189Y309959D02*
X230612D01*
X213189Y310314D02*
X230257D01*
X213189Y310668D02*
X229903D01*
X213189Y311022D02*
X229549D01*
X213189Y311377D02*
X229194D01*
X213189Y311731D02*
X228840D01*
X95491Y190904D02*
X228720D01*
X213189Y312085D02*
X228486D01*
X222226Y194802D02*
X228468D01*
X213189Y312440D02*
X228131D01*
X95468Y191259D02*
X228131D01*
X221998Y194447D02*
X227999D01*
X213189Y312794D02*
X227777D01*
X213189Y313148D02*
X227423D01*
X213189Y313503D02*
X227068D01*
X118740Y254684D02*
X226752D01*
X213189Y313857D02*
X226714D01*
X201635Y258581D02*
X226500D01*
X213189Y314211D02*
X226360D01*
X118740Y255038D02*
X226163D01*
X201989Y258227D02*
X226031D01*
X213189Y314566D02*
X226005D01*
X213189Y314920D02*
X225651D01*
X213189Y315274D02*
X225297D01*
X213189Y315629D02*
X224942D01*
X213189Y315983D02*
X224588D01*
X211788Y104802D02*
X224432D01*
X211795Y113306D02*
X224425D01*
X213189Y316337D02*
X224234D01*
X213189Y316692D02*
X223879D01*
X212538Y105156D02*
X223683D01*
X212542Y112951D02*
X223678D01*
X213189Y317046D02*
X223525D01*
X223146Y269566D02*
X223231D01*
X213189Y317400D02*
X223171D01*
X213053Y105510D02*
X223167D01*
X213056Y112597D02*
X223164D01*
X219846Y261416D02*
X223117D01*
X213189Y317755D02*
X222816D01*
X213449Y105865D02*
X222772D01*
X213451Y112243D02*
X222769D01*
X219882Y261770D02*
X222574D01*
X213189Y318109D02*
X222462D01*
X213766Y106219D02*
X222455D01*
X213768Y111888D02*
X222453D01*
X219859Y262125D02*
X222256D01*
X214023Y106573D02*
X222197D01*
X214025Y111534D02*
X222196D01*
X213189Y318463D02*
X222108D01*
X219776Y262479D02*
X222049D01*
X214233Y106928D02*
X221988D01*
X214234Y111180D02*
X221986D01*
X219625Y262833D02*
X221922D01*
X219388Y263188D02*
X221851D01*
X214402Y107282D02*
X221818D01*
X214403Y110825D02*
X221817D01*
X217631Y318818D02*
X221753D01*
X214536Y107636D02*
X221685D01*
X214537Y110471D02*
X221684D01*
X214637Y107991D02*
X221584D01*
X214638Y110117D02*
X221583D01*
X219097Y263542D02*
X221517D01*
X214708Y108345D02*
X221513D01*
X214708Y109762D02*
X221512D01*
X214750Y108699D02*
X221471D01*
X214750Y109408D02*
X221470D01*
X214764Y109054D02*
X221457D01*
X218278Y319172D02*
X221399D01*
X219095Y263896D02*
X221163D01*
X219095Y264251D02*
X220808D01*
X219095Y264605D02*
X220454D01*
X219095Y264959D02*
X220100D01*
X219095Y265314D02*
X219745D01*
X219209Y265668D02*
X219374D01*
X203998Y259999D02*
X216532D01*
X200415Y265314D02*
X216339D01*
X200769Y264959D02*
X216339D01*
X201123Y264605D02*
X216339D01*
X201478Y264251D02*
X216339D01*
X201832Y263896D02*
X216339D01*
X202780Y263542D02*
X216336D01*
X200060Y265668D02*
X216242D01*
X213189Y318818D02*
X216228D01*
X204248Y260353D02*
X216116D01*
X203609Y263188D02*
X216045D01*
X199706Y266022D02*
X215887D01*
X204408Y260707D02*
X215854D01*
X204000Y262833D02*
X215808D01*
X213189Y322715D02*
X215802D01*
X204498Y261062D02*
X215685D01*
X204249Y262479D02*
X215657D01*
X204528Y261416D02*
X215587D01*
X213189Y319172D02*
X215581D01*
X204409Y262125D02*
X215574D01*
X204499Y261770D02*
X215552D01*
X199352Y266377D02*
X215533D01*
X213189Y322361D02*
X215362D01*
X213189Y319526D02*
X215228D01*
X198997Y266731D02*
X215179D01*
X213189Y322007D02*
X215088D01*
X213189Y319881D02*
X215001D01*
X213189Y321652D02*
X214911D01*
X213189Y320235D02*
X214858D01*
X198643Y267085D02*
X214824D01*
X213189Y321298D02*
X214807D01*
X213189Y320589D02*
X214782D01*
X213189Y320944D02*
X214765D01*
X198101Y267440D02*
X214470D01*
X138433Y267794D02*
X214116D01*
X138416Y268148D02*
X213761D01*
X138416Y268503D02*
X213407D01*
X138416Y268857D02*
X213053D01*
X138416Y269211D02*
X212698D01*
X138382Y269566D02*
X212344D01*
X138248Y269920D02*
X211990D01*
X137974Y270274D02*
X211635D01*
X137619Y270629D02*
X211281D01*
X210039Y328385D02*
X210997D01*
X137265Y270983D02*
X210927D01*
X191606Y271337D02*
X210572D01*
X210072Y328030D02*
X210411D01*
X192077Y271692D02*
X210218D01*
X192365Y272046D02*
X209864D01*
X192552Y272400D02*
X209509D01*
X192664Y272755D02*
X209155D01*
X208053Y292243D02*
X209114D01*
X192713Y273109D02*
X208801D01*
X131772Y104802D02*
X208684D01*
X186908Y113306D02*
X208677D01*
X208070Y292597D02*
X208672D01*
X192704Y273463D02*
X208446D01*
X208105Y292951D02*
X208393D01*
X192635Y273818D02*
X208092D01*
X178881Y352479D02*
X208078D01*
X131772Y105156D02*
X207935D01*
X186554Y112951D02*
X207930D01*
X192500Y274172D02*
X207738D01*
X203142Y162912D02*
X207602D01*
X131772Y105510D02*
X207419D01*
X186230Y112597D02*
X207416D01*
X192284Y274526D02*
X207383D01*
X178736Y352125D02*
X207360D01*
X148425Y348581D02*
X207283D01*
X148425Y348227D02*
X207283D01*
X148425Y347873D02*
X207283D01*
X148425Y347518D02*
X207283D01*
X148425Y347164D02*
X207283D01*
X148425Y346810D02*
X207283D01*
X148425Y346455D02*
X207283D01*
X148425Y346101D02*
X207283D01*
X148425Y345747D02*
X207283D01*
X148425Y345392D02*
X207283D01*
X148425Y345038D02*
X207283D01*
X148425Y344684D02*
X207283D01*
X148425Y344329D02*
X207283D01*
X148425Y343975D02*
X207283D01*
X148425Y343621D02*
X207283D01*
X148425Y343266D02*
X207283D01*
X148425Y342912D02*
X207283D01*
X148425Y342558D02*
X207283D01*
X148425Y342203D02*
X207283D01*
X194284Y341849D02*
X207283D01*
X195002Y341495D02*
X207283D01*
X196911Y341140D02*
X207283D01*
X197774Y340786D02*
X207283D01*
X198131Y340432D02*
X207283D01*
X198486Y340077D02*
X207283D01*
X198840Y339723D02*
X207283D01*
X199194Y339369D02*
X207283D01*
X199548Y339014D02*
X207283D01*
X199903Y338660D02*
X207283D01*
X200257Y338306D02*
X207283D01*
X200611Y337951D02*
X207283D01*
X200966Y337597D02*
X207283D01*
X201320Y337243D02*
X207283D01*
X201674Y336888D02*
X207283D01*
X202029Y336534D02*
X207283D01*
X202383Y336180D02*
X207283D01*
X202737Y335825D02*
X207283D01*
X203092Y335471D02*
X207283D01*
X203446Y335117D02*
X207283D01*
X203800Y334762D02*
X207283D01*
X204155Y334408D02*
X207283D01*
X204509Y334054D02*
X207283D01*
X204863Y333699D02*
X207283D01*
X205218Y333345D02*
X207283D01*
X205572Y332991D02*
X207283D01*
X205926Y332636D02*
X207283D01*
X206250Y332282D02*
X207283D01*
X206427Y331928D02*
X207283D01*
X206494Y331573D02*
X207283D01*
X206496Y331219D02*
X207283D01*
X206496Y330865D02*
X207283D01*
X206496Y330510D02*
X207283D01*
X206496Y330156D02*
X207283D01*
X206496Y329802D02*
X207283D01*
X206496Y329447D02*
X207283D01*
X206496Y329093D02*
X207283D01*
X206496Y328739D02*
X207283D01*
X206496Y328385D02*
X207283D01*
X206496Y328030D02*
X207283D01*
X206496Y327676D02*
X207283D01*
X206496Y327322D02*
X207283D01*
X206496Y326967D02*
X207283D01*
X206496Y326613D02*
X207283D01*
X206496Y326259D02*
X207283D01*
X206496Y325904D02*
X207283D01*
X206496Y325550D02*
X207283D01*
X206496Y325196D02*
X207283D01*
X206496Y324841D02*
X207283D01*
X206496Y324487D02*
X207283D01*
X206496Y324133D02*
X207283D01*
X206496Y323778D02*
X207283D01*
X206496Y323424D02*
X207283D01*
X206496Y323070D02*
X207283D01*
X206496Y322715D02*
X207283D01*
X206496Y322361D02*
X207283D01*
X206496Y322007D02*
X207283D01*
X206496Y321652D02*
X207283D01*
X206496Y321298D02*
X207283D01*
X206496Y320944D02*
X207283D01*
X206496Y320589D02*
X207283D01*
X206496Y320235D02*
X207283D01*
X206496Y319881D02*
X207283D01*
X206496Y319526D02*
X207283D01*
X206496Y319172D02*
X207283D01*
X206496Y318818D02*
X207283D01*
X206496Y318463D02*
X207283D01*
X206496Y318109D02*
X207283D01*
X206496Y317755D02*
X207283D01*
X206496Y317400D02*
X207283D01*
X206496Y317046D02*
X207283D01*
X206496Y316692D02*
X207283D01*
X206496Y316337D02*
X207283D01*
X206496Y315983D02*
X207283D01*
X206496Y315629D02*
X207283D01*
X206496Y315274D02*
X207283D01*
X206496Y314920D02*
X207283D01*
X206496Y314566D02*
X207283D01*
X206496Y314211D02*
X207283D01*
X206496Y313857D02*
X207283D01*
X206496Y313503D02*
X207283D01*
X206496Y313148D02*
X207283D01*
X206496Y312794D02*
X207283D01*
X206496Y312440D02*
X207283D01*
X206496Y312085D02*
X207283D01*
X206496Y311731D02*
X207283D01*
X206496Y311377D02*
X207283D01*
X206496Y311022D02*
X207283D01*
X206496Y310668D02*
X207283D01*
X206496Y310314D02*
X207283D01*
X206496Y309959D02*
X207283D01*
X206496Y309605D02*
X207283D01*
X206496Y309251D02*
X207283D01*
X206496Y308896D02*
X207283D01*
X206496Y308542D02*
X207283D01*
X206496Y308188D02*
X207283D01*
X202953Y159014D02*
X207283D01*
X202953Y158660D02*
X207283D01*
X202953Y158306D02*
X207283D01*
X202953Y157951D02*
X207283D01*
X202953Y157597D02*
X207283D01*
X202953Y157243D02*
X207283D01*
X202953Y156888D02*
X207283D01*
X202953Y156534D02*
X207283D01*
X202953Y156180D02*
X207283D01*
X202953Y155825D02*
X207283D01*
X203092Y155471D02*
X207283D01*
X203446Y155117D02*
X207283D01*
X203800Y154762D02*
X207283D01*
X204155Y154408D02*
X207283D01*
X204509Y154054D02*
X207283D01*
X204863Y153699D02*
X207283D01*
X205218Y153345D02*
X207283D01*
X205572Y152991D02*
X207283D01*
X205926Y152636D02*
X207283D01*
X206281Y152282D02*
X207283D01*
X206576Y151928D02*
X207283D01*
X206726Y151573D02*
X207283D01*
X206772Y151219D02*
X207283D01*
X206772Y150865D02*
X207283D01*
X206772Y150510D02*
X207283D01*
X206772Y150156D02*
X207283D01*
X206772Y149802D02*
X207283D01*
X206772Y149447D02*
X207283D01*
X206772Y149093D02*
X207283D01*
X206772Y148739D02*
X207283D01*
X206772Y148385D02*
X207283D01*
X206772Y148030D02*
X207283D01*
X206772Y147676D02*
X207283D01*
X206772Y147322D02*
X207283D01*
X206772Y146967D02*
X207283D01*
X206772Y146613D02*
X207283D01*
X206772Y146259D02*
X207283D01*
X206772Y145904D02*
X207283D01*
X206772Y145550D02*
X207283D01*
X206772Y145196D02*
X207283D01*
X206772Y144841D02*
X207283D01*
X206772Y144487D02*
X207283D01*
X206772Y144133D02*
X207283D01*
X206772Y143778D02*
X207283D01*
X206772Y143424D02*
X207283D01*
X206772Y143070D02*
X207283D01*
X206772Y142715D02*
X207283D01*
X206772Y142361D02*
X207283D01*
X206772Y142007D02*
X207283D01*
X206772Y141652D02*
X207283D01*
X206772Y141298D02*
X207283D01*
X206772Y140944D02*
X207283D01*
X206772Y140589D02*
X207283D01*
X206772Y140235D02*
X207283D01*
X206772Y139881D02*
X207283D01*
X206772Y139526D02*
X207283D01*
X206772Y139172D02*
X207283D01*
X206772Y138818D02*
X207283D01*
X206772Y138463D02*
X207283D01*
X206772Y138109D02*
X207283D01*
X206772Y137755D02*
X207283D01*
X206772Y137400D02*
X207283D01*
X206772Y137046D02*
X207283D01*
X206772Y136692D02*
X207283D01*
X206772Y136337D02*
X207283D01*
X206772Y135983D02*
X207283D01*
X206772Y135629D02*
X207283D01*
X206772Y135274D02*
X207283D01*
X206772Y134920D02*
X207283D01*
X206772Y134566D02*
X207283D01*
X206772Y134211D02*
X207283D01*
X206772Y133857D02*
X207283D01*
X206772Y133503D02*
X207283D01*
X206772Y133148D02*
X207283D01*
X206772Y132794D02*
X207283D01*
X206772Y132440D02*
X207283D01*
X206772Y132085D02*
X207283D01*
X206772Y131731D02*
X207283D01*
X206772Y131377D02*
X207283D01*
X206772Y131022D02*
X207283D01*
X206772Y130668D02*
X207283D01*
X206772Y130314D02*
X207283D01*
X206772Y129959D02*
X207283D01*
X206772Y129605D02*
X207283D01*
X206772Y129251D02*
X207283D01*
X206772Y128896D02*
X207283D01*
X206772Y128542D02*
X207283D01*
X206772Y128188D02*
X207283D01*
X206772Y127833D02*
X207283D01*
X206772Y127479D02*
X207283D01*
X206771Y127125D02*
X207283D01*
X206714Y126770D02*
X207283D01*
X206550Y126416D02*
X207283D01*
X206239Y126062D02*
X207283D01*
X202953Y159369D02*
X207253D01*
X205884Y125707D02*
X207223D01*
X206496Y307833D02*
X207133D01*
X203416Y162558D02*
X207133D01*
X148425Y348936D02*
X207060D01*
X191951Y274881D02*
X207029D01*
X131772Y105865D02*
X207024D01*
X190686Y112243D02*
X207021D01*
X178553Y351770D02*
X206990D01*
X202964Y159723D02*
X206930D01*
X205530Y125353D02*
X206869D01*
X203592Y162203D02*
X206846D01*
X206542Y307479D02*
X206844D01*
X148425Y349290D02*
X206798D01*
X178324Y351416D02*
X206753D01*
X203276Y160077D02*
X206714D01*
X131772Y106219D02*
X206707D01*
X191365Y111888D02*
X206705D01*
X191365Y275235D02*
X206675D01*
X203697Y161849D02*
X206660D01*
X175376Y349644D02*
X206630D01*
X178042Y351062D02*
X206602D01*
X203503Y160432D02*
X206579D01*
X149192Y247243D02*
X206556D01*
X203739Y161495D02*
X206548D01*
X176604Y349999D02*
X206532D01*
X177688Y350707D02*
X206519D01*
X205176Y124999D02*
X206514D01*
X203646Y160786D02*
X206509D01*
X203722Y161140D02*
X206499D01*
X177234Y350353D02*
X206496D01*
X131772Y106573D02*
X206449D01*
X191771Y111534D02*
X206448D01*
X148837Y246888D02*
X206357D01*
X139352Y275589D02*
X206320D01*
X149546Y247597D02*
X206283D01*
X190220Y106928D02*
X206240D01*
X192053Y111180D02*
X206238D01*
X152026Y250077D02*
X206206D01*
X204821Y124644D02*
X206160D01*
X151672Y249723D02*
X206103D01*
X149900Y247951D02*
X206087D01*
X191181Y107282D02*
X206070D01*
X192254Y110825D02*
X206069D01*
X148483Y246534D02*
X206014D01*
X151318Y249369D02*
X205976D01*
X150255Y248306D02*
X205967D01*
X138997Y275944D02*
X205966D01*
X191650Y107636D02*
X205937D01*
X192393Y110471D02*
X205936D01*
X150963Y249014D02*
X205914D01*
X150609Y248660D02*
X205911D01*
X191968Y107991D02*
X205836D01*
X192479Y110117D02*
X205835D01*
X148129Y246180D02*
X205807D01*
X204467Y124290D02*
X205806D01*
X192194Y108345D02*
X205765D01*
X192517Y109762D02*
X205764D01*
X192352Y108699D02*
X205723D01*
X192509Y109408D02*
X205722D01*
X147774Y245825D02*
X205718D01*
X179210Y245471D02*
X205709D01*
X180323Y245117D02*
X205709D01*
X180737Y244762D02*
X205709D01*
X180998Y244408D02*
X205709D01*
X181166Y244054D02*
X205709D01*
X181263Y243699D02*
X205709D01*
X181299Y243345D02*
X205709D01*
X199922Y242991D02*
X205709D01*
X200564Y242636D02*
X205709D01*
X200916Y242282D02*
X205709D01*
X201142Y241928D02*
X205709D01*
X201285Y241573D02*
X205709D01*
X201361Y241219D02*
X205709D01*
X201376Y240865D02*
X205709D01*
X201334Y240510D02*
X205709D01*
X201229Y240156D02*
X205709D01*
X201052Y239802D02*
X205709D01*
X200777Y239447D02*
X205709D01*
X200335Y239093D02*
X205709D01*
X160848Y238739D02*
X205709D01*
X160494Y238385D02*
X205709D01*
X160139Y238030D02*
X205709D01*
X159785Y237676D02*
X205709D01*
X159431Y237322D02*
X205709D01*
X159076Y236967D02*
X205709D01*
X158722Y236613D02*
X205709D01*
X158368Y236259D02*
X205709D01*
X158013Y235904D02*
X205709D01*
X157659Y235550D02*
X205709D01*
X157305Y235196D02*
X205709D01*
X156950Y234841D02*
X205709D01*
X156596Y234487D02*
X205709D01*
X156242Y234133D02*
X205709D01*
X155887Y233778D02*
X205709D01*
X155533Y233424D02*
X205709D01*
X155179Y233070D02*
X205709D01*
X154824Y232715D02*
X205709D01*
X154470Y232361D02*
X205709D01*
X154116Y232007D02*
X205709D01*
X153761Y231652D02*
X205709D01*
X153407Y231298D02*
X205709D01*
X153053Y230944D02*
X205709D01*
X152698Y230589D02*
X205709D01*
X152373Y230235D02*
X205709D01*
X152362Y229881D02*
X205709D01*
X152362Y229526D02*
X205709D01*
X152362Y229172D02*
X205709D01*
X152362Y228818D02*
X205709D01*
X152362Y228463D02*
X205709D01*
X152362Y228109D02*
X205709D01*
X152362Y227755D02*
X205709D01*
X152362Y227400D02*
X205709D01*
X152362Y227046D02*
X205709D01*
X152362Y226692D02*
X205709D01*
X152362Y226337D02*
X205709D01*
X152362Y225983D02*
X205709D01*
X200027Y225629D02*
X205709D01*
X200612Y225274D02*
X205709D01*
X200946Y224920D02*
X205709D01*
X201162Y224566D02*
X205709D01*
X201296Y224211D02*
X205709D01*
X201365Y223857D02*
X205709D01*
X201375Y223503D02*
X205709D01*
X201326Y223148D02*
X205709D01*
X201213Y222794D02*
X205709D01*
X201027Y222440D02*
X205709D01*
X200738Y222085D02*
X205709D01*
X200267Y221731D02*
X205709D01*
X152362Y221377D02*
X205709D01*
X152362Y221022D02*
X205709D01*
X152362Y220668D02*
X205709D01*
X152362Y220314D02*
X205709D01*
X152362Y219959D02*
X205709D01*
X152362Y219605D02*
X205709D01*
X152362Y219251D02*
X205709D01*
X152362Y218896D02*
X205709D01*
X152362Y218542D02*
X205709D01*
X152362Y218188D02*
X205709D01*
X152362Y217833D02*
X205709D01*
X152362Y217479D02*
X205709D01*
X152362Y217125D02*
X205709D01*
X152362Y216770D02*
X205709D01*
X152394Y216416D02*
X205709D01*
X152652Y216062D02*
X205709D01*
X192455Y109054D02*
X205709D01*
X138643Y276298D02*
X205612D01*
X152820Y215707D02*
X205491D01*
X204113Y123936D02*
X205452D01*
X190338Y276652D02*
X205257D01*
X152917Y215353D02*
X205137D01*
X203758Y123581D02*
X205097D01*
X191061Y277007D02*
X204903D01*
X152982Y214999D02*
X204782D01*
X203404Y123227D02*
X204743D01*
X191433Y277361D02*
X204549D01*
X153331Y214644D02*
X204428D01*
X203050Y122873D02*
X204389D01*
X191671Y277715D02*
X204194D01*
X153685Y214290D02*
X204074D01*
X202695Y122518D02*
X204034D01*
X145158Y150510D02*
X204016D01*
X145158Y150156D02*
X204016D01*
X145158Y149802D02*
X204016D01*
X145158Y149447D02*
X204016D01*
X145158Y149093D02*
X204016D01*
X145158Y148739D02*
X204016D01*
X145158Y148385D02*
X204016D01*
X145158Y148030D02*
X204016D01*
X145158Y147676D02*
X204016D01*
X145158Y147322D02*
X204016D01*
X145158Y146967D02*
X204016D01*
X145158Y146613D02*
X204016D01*
X145158Y146259D02*
X204016D01*
X145158Y145904D02*
X204016D01*
X145158Y145550D02*
X204016D01*
X145158Y145196D02*
X204016D01*
X145158Y144841D02*
X204016D01*
X145158Y144487D02*
X204016D01*
X145158Y144133D02*
X204016D01*
X145158Y143778D02*
X204016D01*
X145158Y143424D02*
X204016D01*
X145158Y143070D02*
X204016D01*
X145158Y142715D02*
X204016D01*
X145158Y142361D02*
X204016D01*
X145158Y142007D02*
X204016D01*
X145158Y141652D02*
X204016D01*
X145158Y141298D02*
X204016D01*
X145158Y140944D02*
X204016D01*
X145158Y140589D02*
X204016D01*
X145158Y140235D02*
X204016D01*
X145158Y139881D02*
X204016D01*
X145158Y139526D02*
X204016D01*
X145415Y139172D02*
X204016D01*
X145769Y138818D02*
X204016D01*
X146123Y138463D02*
X204016D01*
X146478Y138109D02*
X204016D01*
X146832Y137755D02*
X204016D01*
X147186Y137400D02*
X204016D01*
X147541Y137046D02*
X204016D01*
X147895Y136692D02*
X204016D01*
X148249Y136337D02*
X204016D01*
X148604Y135983D02*
X204016D01*
X148958Y135629D02*
X204016D01*
X149312Y135274D02*
X204016D01*
X149667Y134920D02*
X204016D01*
X152634Y134566D02*
X204016D01*
X170277Y134211D02*
X204016D01*
X170779Y133857D02*
X204016D01*
X185702Y133503D02*
X204016D01*
X186163Y133148D02*
X204016D01*
X186517Y132794D02*
X204016D01*
X186871Y132440D02*
X204016D01*
X187226Y132085D02*
X204016D01*
X187580Y131731D02*
X204016D01*
X187934Y131377D02*
X204016D01*
X188289Y131022D02*
X204016D01*
X188643Y130668D02*
X204016D01*
X188997Y130314D02*
X204016D01*
X189352Y129959D02*
X204016D01*
X200709Y129605D02*
X204016D01*
X201352Y129251D02*
X204016D01*
X201703Y128896D02*
X204016D01*
X201929Y128542D02*
X204016D01*
X202072Y128188D02*
X204016D01*
X202148Y127833D02*
X204016D01*
X191823Y278070D02*
X203840D01*
X145158Y150865D02*
X203801D01*
X202164Y127479D02*
X203759D01*
X154039Y213936D02*
X203719D01*
X202341Y122164D02*
X203680D01*
X191906Y278424D02*
X203486D01*
X145158Y151219D02*
X203446D01*
X202121Y127125D02*
X203404D01*
X154394Y213581D02*
X203365D01*
X201987Y121810D02*
X203326D01*
X191933Y278778D02*
X203131D01*
X145158Y151573D02*
X203092D01*
X202017Y126770D02*
X203050D01*
X154748Y213227D02*
X203011D01*
X201632Y121455D02*
X202971D01*
X193025Y279133D02*
X202777D01*
X145158Y151928D02*
X202738D01*
X201839Y126416D02*
X202696D01*
X155102Y212873D02*
X202656D01*
X201278Y121101D02*
X202617D01*
X193568Y279487D02*
X202423D01*
X145158Y152282D02*
X202383D01*
X201564Y126062D02*
X202341D01*
X155457Y212518D02*
X202302D01*
X200924Y120747D02*
X202263D01*
X193886Y279841D02*
X202068D01*
X145158Y152636D02*
X202029D01*
X200064Y287991D02*
X202021D01*
X201122Y125707D02*
X201987D01*
X199706Y288345D02*
X201965D01*
X200926Y259290D02*
X201958D01*
X155811Y212164D02*
X201948D01*
X200569Y120392D02*
X201908D01*
X145158Y152991D02*
X201675D01*
X105118Y125353D02*
X201633D01*
X156165Y211810D02*
X201593D01*
X200215Y120038D02*
X201554D01*
X199352Y288699D02*
X201549D01*
X145158Y153345D02*
X201320D01*
X198997Y289054D02*
X201287D01*
X105118Y124999D02*
X201278D01*
X156520Y211455D02*
X201239D01*
X199861Y119684D02*
X201200D01*
X118740Y255392D02*
X201119D01*
X198643Y289408D02*
X201118D01*
X200932Y259644D02*
X201117D01*
X198289Y289762D02*
X201021D01*
X197934Y290117D02*
X200985D01*
X145158Y153699D02*
X200966D01*
X105118Y124644D02*
X200924D01*
X156874Y211101D02*
X200885D01*
X199506Y119329D02*
X200845D01*
X145158Y154054D02*
X200612D01*
X200218Y259999D02*
X200595D01*
X118740Y255747D02*
X200572D01*
X105118Y124290D02*
X200570D01*
X157228Y210747D02*
X200535D01*
X199152Y118975D02*
X200491D01*
X199863Y260353D02*
X200476D01*
X145158Y163266D02*
X200448D01*
X145158Y154408D02*
X200350D01*
X199509Y260707D02*
X200317D01*
X157583Y210392D02*
X200311D01*
X199155Y261062D02*
X200226D01*
X145158Y154762D02*
X200225D01*
X118740Y256101D02*
X200218D01*
X105118Y123936D02*
X200215D01*
X157937Y210038D02*
X200211D01*
X198800Y261416D02*
X200197D01*
X158291Y209684D02*
X200197D01*
X158646Y209329D02*
X200197D01*
X159000Y208975D02*
X200197D01*
X159354Y208621D02*
X200197D01*
X159709Y208266D02*
X200197D01*
X160063Y207912D02*
X200197D01*
X160417Y207558D02*
X200197D01*
X160772Y207203D02*
X200197D01*
X161126Y206849D02*
X200197D01*
X161480Y206495D02*
X200197D01*
X161835Y206140D02*
X200197D01*
X162189Y205786D02*
X200197D01*
X162543Y205432D02*
X200197D01*
X162898Y205077D02*
X200197D01*
X163252Y204723D02*
X200197D01*
X163606Y204369D02*
X200197D01*
X163961Y204014D02*
X200197D01*
X164315Y203660D02*
X200197D01*
X164669Y203306D02*
X200197D01*
X165024Y202951D02*
X200197D01*
X165378Y202597D02*
X200197D01*
X165732Y202243D02*
X200197D01*
X166087Y201888D02*
X200197D01*
X166441Y201534D02*
X200197D01*
X166795Y201180D02*
X200197D01*
X167150Y200825D02*
X200197D01*
X167504Y200471D02*
X200197D01*
X167858Y200117D02*
X200197D01*
X168213Y199762D02*
X200197D01*
X168567Y199408D02*
X200197D01*
X145158Y159369D02*
X200197D01*
X145158Y159014D02*
X200197D01*
X145158Y158660D02*
X200197D01*
X145158Y158306D02*
X200197D01*
X145158Y157951D02*
X200197D01*
X145158Y157597D02*
X200197D01*
X145158Y157243D02*
X200197D01*
X145158Y156888D02*
X200197D01*
X145158Y156534D02*
X200197D01*
X145158Y156180D02*
X200197D01*
X145158Y155825D02*
X200197D01*
X145158Y155471D02*
X200197D01*
X145158Y155117D02*
X200197D01*
X145158Y159723D02*
X200185D01*
X198798Y118621D02*
X200137D01*
X198446Y261770D02*
X200060D01*
X145158Y162912D02*
X200008D01*
X168921Y199054D02*
X199937D01*
X145158Y160077D02*
X199874D01*
X118740Y256455D02*
X199864D01*
X105118Y123581D02*
X199861D01*
X171756Y196219D02*
X199849D01*
X198443Y118266D02*
X199782D01*
X145158Y162558D02*
X199734D01*
X198073Y262125D02*
X199706D01*
X197580Y290471D02*
X199692D01*
X171402Y196573D02*
X199689D01*
X169276Y198699D02*
X199688D01*
X145158Y160432D02*
X199647D01*
X145158Y162203D02*
X199557D01*
X171047Y196928D02*
X199529D01*
X169630Y198345D02*
X199528D01*
X118740Y256810D02*
X199509D01*
X105118Y123227D02*
X199507D01*
X145158Y160786D02*
X199503D01*
X145158Y161849D02*
X199453D01*
X170693Y197282D02*
X199439D01*
X169984Y197991D02*
X199438D01*
X198089Y117912D02*
X199428D01*
X145158Y161140D02*
X199427D01*
X145158Y161495D02*
X199411D01*
X170339Y197636D02*
X199409D01*
X196092Y262479D02*
X199352D01*
X189706Y129605D02*
X199291D01*
X118740Y257164D02*
X199155D01*
X105118Y122873D02*
X199152D01*
X197735Y117558D02*
X199074D01*
X197226Y290825D02*
X199045D01*
X182502Y328030D02*
X199016D01*
X182836Y327676D02*
X199016D01*
X183051Y327322D02*
X199016D01*
X183186Y326967D02*
X199016D01*
X183255Y326613D02*
X199016D01*
X183264Y326259D02*
X199016D01*
X183215Y325904D02*
X199016D01*
X183103Y325550D02*
X199016D01*
X182916Y325196D02*
X199016D01*
X182628Y324841D02*
X199016D01*
X182157Y324487D02*
X199016D01*
X180018Y324133D02*
X199016D01*
X179664Y323778D02*
X199016D01*
X179310Y323424D02*
X199016D01*
X178668Y323070D02*
X199016D01*
X160797Y322715D02*
X199016D01*
X160150Y322361D02*
X199016D01*
X148231Y322007D02*
X199016D01*
X148096Y321652D02*
X199016D01*
X147919Y321298D02*
X199016D01*
X147694Y320944D02*
X199016D01*
X147410Y320589D02*
X199016D01*
X147045Y320235D02*
X199016D01*
X146560Y319881D02*
X199016D01*
X145828Y319526D02*
X199016D01*
X123722Y319172D02*
X199016D01*
X124076Y318818D02*
X199016D01*
X124430Y318463D02*
X199016D01*
X124785Y318109D02*
X199016D01*
X125139Y317755D02*
X199016D01*
X125493Y317400D02*
X199016D01*
X125848Y317046D02*
X199016D01*
X126202Y316692D02*
X199016D01*
X126556Y316337D02*
X199016D01*
X126911Y315983D02*
X199016D01*
X127265Y315629D02*
X199016D01*
X127619Y315274D02*
X199016D01*
X127974Y314920D02*
X199016D01*
X128328Y314566D02*
X199016D01*
X128682Y314211D02*
X199016D01*
X129037Y313857D02*
X199016D01*
X129391Y313503D02*
X199016D01*
X141363Y313148D02*
X199016D01*
X142192Y312794D02*
X199016D01*
X142583Y312440D02*
X199016D01*
X142832Y312085D02*
X199016D01*
X142991Y311731D02*
X199016D01*
X143081Y311377D02*
X199016D01*
X143110Y311022D02*
X199016D01*
X143081Y310668D02*
X199016D01*
X142991Y310314D02*
X199016D01*
X142831Y309959D02*
X199016D01*
X142581Y309605D02*
X199016D01*
X144171Y309251D02*
X199016D01*
X145284Y308896D02*
X199016D01*
X145698Y308542D02*
X199016D01*
X145959Y308188D02*
X199016D01*
X146127Y307833D02*
X199016D01*
X146224Y307479D02*
X199016D01*
X178816Y307125D02*
X199016D01*
X179929Y306770D02*
X199016D01*
X180344Y306416D02*
X199016D01*
X180605Y306062D02*
X199016D01*
X180773Y305707D02*
X199016D01*
X180870Y305353D02*
X199016D01*
X180905Y304999D02*
X199016D01*
X180882Y304644D02*
X199016D01*
X180799Y304290D02*
X199016D01*
X182402Y303936D02*
X199016D01*
X183045Y303581D02*
X199016D01*
X183396Y303227D02*
X199016D01*
X183622Y302873D02*
X199016D01*
X183765Y302518D02*
X199016D01*
X183841Y302164D02*
X199016D01*
X183857Y301810D02*
X199016D01*
X183814Y301455D02*
X199016D01*
X183710Y301101D02*
X199016D01*
X183532Y300747D02*
X199016D01*
X183257Y300392D02*
X199016D01*
X183071Y300038D02*
X199016D01*
X186614Y299684D02*
X199016D01*
X187154Y299329D02*
X199016D01*
X188947Y298975D02*
X199016D01*
X189430Y298621D02*
X199016D01*
X189785Y298266D02*
X199016D01*
X190139Y297912D02*
X199016D01*
X190493Y297558D02*
X199016D01*
X190848Y297203D02*
X199016D01*
X191202Y296849D02*
X199016D01*
X191556Y296495D02*
X199016D01*
X191911Y296140D02*
X199016D01*
X192265Y295786D02*
X199016D01*
X192619Y295432D02*
X199016D01*
X192974Y295077D02*
X199016D01*
X193328Y294723D02*
X199016D01*
X193682Y294369D02*
X199016D01*
X195677Y262833D02*
X198997D01*
X105118Y125707D02*
X198878D01*
X194037Y294014D02*
X198827D01*
X181916Y328385D02*
X198801D01*
X118740Y257518D02*
X198801D01*
X105118Y122518D02*
X198798D01*
X197322Y117203D02*
X198719D01*
X196871Y291180D02*
X198693D01*
X190060Y129251D02*
X198648D01*
X194564Y263188D02*
X198643D01*
X194391Y293660D02*
X198553D01*
X189686Y242991D02*
X198503D01*
X196517Y291534D02*
X198466D01*
X148425Y328739D02*
X198446D01*
X118740Y257873D02*
X198446D01*
X105118Y122164D02*
X198444D01*
X105118Y126062D02*
X198436D01*
X192940Y225629D02*
X198399D01*
X194745Y293306D02*
X198376D01*
X184585Y116849D02*
X198365D01*
X196163Y291888D02*
X198322D01*
X118740Y263542D02*
X198289D01*
X195100Y292951D02*
X198272D01*
X195808Y292243D02*
X198246D01*
X195454Y292597D02*
X198230D01*
X193181Y221731D02*
X198158D01*
X148425Y329093D02*
X198092D01*
X118740Y258227D02*
X198092D01*
X190099Y239093D02*
X198090D01*
X105118Y121810D02*
X198089D01*
X184231Y116495D02*
X198011D01*
X118740Y263896D02*
X197934D01*
X190328Y242636D02*
X197861D01*
X193526Y225274D02*
X197813D01*
X148425Y329447D02*
X197738D01*
X118740Y258581D02*
X197738D01*
X105118Y121455D02*
X197735D01*
X193652Y222085D02*
X197687D01*
X190541Y239447D02*
X197648D01*
X138063Y264251D02*
X197580D01*
X148425Y329802D02*
X197383D01*
X195062Y258936D02*
X197383D01*
X105118Y121101D02*
X197381D01*
X138533Y264605D02*
X197226D01*
X148425Y330156D02*
X197029D01*
X195786Y259290D02*
X197029D01*
X105118Y120747D02*
X197026D01*
X148425Y330510D02*
X196675D01*
X105118Y120392D02*
X196672D01*
X196226Y259644D02*
X196614D01*
X194492Y330865D02*
X196320D01*
X105118Y120038D02*
X196318D01*
X194092Y280196D02*
X196316D01*
X194908Y331219D02*
X195966D01*
X194220Y280550D02*
X195769D01*
X194282Y280904D02*
X195415D01*
X194286Y281259D02*
X195060D01*
X194237Y281613D02*
X194706D01*
X118740Y263188D02*
X194412D01*
X118740Y258936D02*
X193914D01*
X118740Y262833D02*
X193299D01*
X118740Y259290D02*
X193191D01*
X148425Y341849D02*
X193117D01*
X118740Y262479D02*
X192885D01*
X191793Y283385D02*
X192826D01*
X118740Y259644D02*
X192819D01*
X118740Y262125D02*
X192624D01*
X118740Y259999D02*
X192581D01*
X191438Y283739D02*
X192580D01*
X118740Y261770D02*
X192456D01*
X118740Y260353D02*
X192429D01*
X148425Y341495D02*
X192400D01*
X118740Y261416D02*
X192359D01*
X118740Y260707D02*
X192346D01*
X118740Y261062D02*
X192323D01*
X191084Y284093D02*
X192226D01*
X148425Y330865D02*
X192122D01*
X148425Y341140D02*
X192029D01*
X190730Y284447D02*
X191871D01*
X148425Y338660D02*
X191838D01*
X148425Y340786D02*
X191792D01*
X148425Y331219D02*
X191706D01*
X148425Y339014D02*
X191669D01*
X148425Y340432D02*
X191641D01*
X148425Y339369D02*
X191572D01*
X148425Y340077D02*
X191558D01*
X148425Y338306D02*
X191543D01*
X148425Y339723D02*
X191536D01*
X148425Y334054D02*
X191531D01*
X190375Y284802D02*
X191517D01*
X148425Y331573D02*
X191444D01*
X148425Y333699D02*
X191398D01*
X152362Y225629D02*
X191312D01*
X148425Y331928D02*
X191276D01*
X148425Y333345D02*
X191247D01*
X148425Y332282D02*
X191178D01*
X148425Y332991D02*
X191165D01*
X190021Y285156D02*
X191163D01*
X148425Y332636D02*
X191142D01*
X152362Y221731D02*
X191071D01*
X148425Y334408D02*
X190941D01*
X148425Y337951D02*
X190825D01*
X189538Y285510D02*
X190808D01*
X152362Y225274D02*
X190726D01*
X152362Y222085D02*
X190600D01*
X148425Y334762D02*
X190525D01*
X148425Y337597D02*
X190455D01*
X164437Y285865D02*
X190454D01*
X152362Y224920D02*
X190393D01*
X152362Y222440D02*
X190312D01*
X148425Y335117D02*
X190263D01*
X148425Y337243D02*
X190217D01*
X152362Y224566D02*
X190177D01*
X152362Y222794D02*
X190125D01*
X163897Y286219D02*
X190100D01*
X148425Y335471D02*
X190094D01*
X148425Y336888D02*
X190066D01*
X152362Y224211D02*
X190042D01*
X152362Y223148D02*
X190013D01*
X148425Y335825D02*
X189997D01*
X148425Y336534D02*
X189983D01*
X152362Y223857D02*
X189973D01*
X152362Y223503D02*
X189964D01*
X189194Y281259D02*
X189963D01*
X148425Y336180D02*
X189961D01*
X89489Y286573D02*
X189745D01*
X139706Y275235D02*
X189737D01*
X189602Y280904D02*
X189688D01*
X188652Y281613D02*
X189667D01*
X136911Y271337D02*
X189496D01*
X89467Y286928D02*
X189391D01*
X147463Y281967D02*
X189312D01*
X185299Y106928D02*
X189307D01*
X138289Y276652D02*
X189190D01*
X140060Y274881D02*
X189152D01*
X89444Y287282D02*
X189037D01*
X136556Y271692D02*
X189026D01*
X105118Y126416D02*
X188994D01*
X163973Y282322D02*
X188958D01*
X186220Y112243D02*
X188842D01*
X89422Y287636D02*
X188682D01*
X105118Y126770D02*
X188634D01*
X164477Y282676D02*
X188604D01*
X137932Y277007D02*
X188466D01*
X186260Y107282D02*
X188346D01*
X89400Y287991D02*
X188328D01*
X105118Y127125D02*
X188289D01*
X181276Y242991D02*
X188267D01*
X186444Y111888D02*
X188162D01*
X137069Y277361D02*
X188095D01*
X89377Y288345D02*
X187974D01*
X105118Y127479D02*
X187934D01*
X186729Y107636D02*
X187877D01*
X102482Y277715D02*
X187856D01*
X161202Y239093D02*
X187854D01*
X186850Y111534D02*
X187757D01*
X101765Y278070D02*
X187705D01*
X181193Y242636D02*
X187625D01*
X147118Y278424D02*
X187622D01*
X89355Y288699D02*
X187620D01*
X147589Y278778D02*
X187595D01*
X105118Y127833D02*
X187580D01*
X187046Y107991D02*
X187560D01*
X187132Y111180D02*
X187474D01*
X177463Y239447D02*
X187412D01*
X181041Y242282D02*
X187273D01*
X89333Y289054D02*
X187265D01*
X105118Y128188D02*
X187226D01*
X177856Y239802D02*
X187137D01*
X180803Y241928D02*
X187047D01*
X178210Y240156D02*
X186960D01*
X89310Y289408D02*
X186911D01*
X180431Y241573D02*
X186904D01*
X105118Y128542D02*
X186871D01*
X178564Y240510D02*
X186855D01*
X179708Y241219D02*
X186828D01*
X178919Y240865D02*
X186812D01*
X89288Y289762D02*
X186557D01*
X105118Y128896D02*
X186517D01*
X89266Y290117D02*
X186202D01*
X105118Y129251D02*
X186163D01*
X183877Y116140D02*
X185902D01*
X89244Y290471D02*
X185848D01*
X105117Y129605D02*
X185808D01*
X89221Y290825D02*
X185494D01*
X183522Y115786D02*
X185491D01*
X105088Y129959D02*
X185454D01*
X183168Y115432D02*
X185137D01*
X170191Y130314D02*
X185100D01*
X183071Y299684D02*
X184804D01*
X182814Y115077D02*
X184782D01*
X170733Y130668D02*
X184745D01*
X182459Y114723D02*
X184428D01*
X180378Y106928D02*
X184386D01*
X183071Y299329D02*
X184264D01*
X182105Y114369D02*
X184074D01*
X183071Y298975D02*
X183947D01*
X183071Y298621D02*
X183741D01*
X181751Y114014D02*
X183739D01*
X105118Y119684D02*
X183671D01*
X183071Y298266D02*
X183614D01*
X183071Y297912D02*
X183552D01*
X181396Y113660D02*
X183548D01*
X183210Y297558D02*
X183483D01*
X181299Y113306D02*
X183470D01*
X181299Y112951D02*
X183465D01*
X181299Y112597D02*
X183465D01*
X181299Y112243D02*
X183465D01*
X181339Y107282D02*
X183425D01*
X181523Y111888D02*
X183241D01*
X105118Y119329D02*
X183130D01*
X181808Y107636D02*
X182956D01*
X181928Y111534D02*
X182835D01*
X105118Y118975D02*
X182814D01*
X182125Y107991D02*
X182639D01*
X182211Y111180D02*
X182553D01*
X105118Y118621D02*
X182459D01*
X89199Y291180D02*
X182198D01*
X105118Y118266D02*
X182105D01*
X105118Y117912D02*
X181751D01*
X89177Y291534D02*
X181557D01*
X105118Y117558D02*
X181396D01*
X89154Y291888D02*
X181202D01*
X105118Y117203D02*
X181042D01*
X89132Y292243D02*
X180848D01*
X105118Y116849D02*
X180688D01*
X89110Y292597D02*
X180494D01*
X105118Y116495D02*
X180333D01*
X148425Y328385D02*
X180288D01*
X89087Y292951D02*
X180139D01*
X105118Y116140D02*
X179979D01*
X89065Y293306D02*
X179785D01*
X148425Y328030D02*
X179703D01*
X105118Y115786D02*
X179625D01*
X175456Y106928D02*
X179465D01*
X89043Y293660D02*
X179431D01*
X148425Y327676D02*
X179369D01*
X105118Y115432D02*
X179270D01*
X148425Y327322D02*
X179153D01*
X89021Y294014D02*
X179076D01*
X147420Y245471D02*
X179058D01*
X148425Y326967D02*
X178955D01*
X105118Y115077D02*
X178917D01*
X88998Y294369D02*
X178722D01*
X105118Y114723D02*
X178676D01*
X146260Y307125D02*
X178664D01*
X148425Y326613D02*
X178601D01*
X105118Y114369D02*
X178563D01*
X105118Y114014D02*
X178543D01*
X105118Y113660D02*
X178543D01*
X105118Y113306D02*
X178543D01*
X105118Y112951D02*
X178543D01*
X105118Y112597D02*
X178543D01*
X175922Y112243D02*
X178543D01*
X176417Y107282D02*
X178504D01*
X88976Y294723D02*
X178368D01*
X176602Y111888D02*
X178320D01*
X160576Y326259D02*
X178247D01*
X176886Y107636D02*
X178035D01*
X88954Y295077D02*
X178013D01*
X147066Y245117D02*
X177945D01*
X177007Y111534D02*
X177914D01*
X161016Y325904D02*
X177892D01*
X177204Y107991D02*
X177718D01*
X88931Y295432D02*
X177669D01*
X177289Y111180D02*
X177632D01*
X146237Y306770D02*
X177551D01*
X146711Y244762D02*
X177531D01*
X88909Y295786D02*
X177461D01*
X88887Y296140D02*
X177371D01*
X145828Y302873D02*
X177362D01*
X146043Y302518D02*
X177362D01*
X146178Y302164D02*
X177362D01*
X146247Y301810D02*
X177362D01*
X146257Y301455D02*
X177362D01*
X146207Y301101D02*
X177362D01*
X146095Y300747D02*
X177362D01*
X145909Y300392D02*
X177362D01*
X145620Y300038D02*
X177362D01*
X145149Y299684D02*
X177362D01*
X88686Y299329D02*
X177362D01*
X88708Y298975D02*
X177362D01*
X88731Y298621D02*
X177362D01*
X88753Y298266D02*
X177362D01*
X88775Y297912D02*
X177362D01*
X88798Y297558D02*
X177362D01*
X88820Y297203D02*
X177362D01*
X88842Y296849D02*
X177362D01*
X88864Y296495D02*
X177362D01*
X145494Y303227D02*
X177360D01*
X146357Y244408D02*
X177269D01*
X146153Y306416D02*
X177137D01*
X146003Y244054D02*
X177101D01*
X144908Y303581D02*
X177071D01*
X145648Y243699D02*
X177004D01*
X145294Y243345D02*
X176940D01*
X146002Y306062D02*
X176876D01*
X129509Y303936D02*
X176833D01*
X145764Y305707D02*
X176708D01*
X129155Y304290D02*
X176681D01*
X145392Y305353D02*
X176611D01*
X128800Y304644D02*
X176598D01*
X144940Y242991D02*
X176590D01*
X144668Y304999D02*
X176575D01*
X144585Y242636D02*
X176236D01*
X170535Y106928D02*
X174544D01*
X148425Y349644D02*
X174230D01*
X171001Y112243D02*
X174078D01*
X148425Y358148D02*
X173793D01*
X171496Y107282D02*
X173583D01*
X148425Y370550D02*
X173400D01*
X171680Y111888D02*
X173398D01*
X171965Y107636D02*
X173114D01*
X148425Y349999D02*
X173002D01*
X172086Y111534D02*
X172993D01*
X148425Y357794D02*
X172834D01*
X172282Y107991D02*
X172796D01*
X172368Y111180D02*
X172711D01*
X148425Y370904D02*
X172494D01*
X148425Y350353D02*
X172372D01*
X148425Y357440D02*
X172256D01*
X148425Y350707D02*
X171918D01*
X148425Y371259D02*
X171897D01*
X148425Y357085D02*
X171829D01*
X148425Y351062D02*
X171565D01*
X148425Y356731D02*
X171494D01*
X148425Y371613D02*
X171441D01*
X148425Y351416D02*
X171282D01*
X148425Y356377D02*
X171225D01*
X148425Y371967D02*
X171073D01*
X148425Y351770D02*
X171053D01*
X148425Y356022D02*
X171008D01*
X148425Y352125D02*
X170870D01*
X148425Y355668D02*
X170833D01*
X148425Y372322D02*
X170769D01*
X148425Y352479D02*
X170725D01*
X148425Y355314D02*
X170697D01*
X148425Y352833D02*
X170615D01*
X148425Y354959D02*
X170595D01*
X148425Y353188D02*
X170538D01*
X148425Y354605D02*
X170524D01*
X148425Y372676D02*
X170515D01*
X148425Y353542D02*
X170490D01*
X148425Y354251D02*
X170484D01*
X148425Y353896D02*
X170473D01*
X148425Y373030D02*
X170304D01*
X148425Y373385D02*
X170129D01*
X148425Y373739D02*
X169986D01*
X148425Y374093D02*
X169873D01*
X165614Y106928D02*
X169622D01*
X166080Y112243D02*
X169157D01*
X144903Y194447D02*
X168947D01*
X144684Y194802D02*
X168719D01*
X166575Y107282D02*
X168661D01*
X166759Y111888D02*
X168477D01*
X105018Y130314D02*
X168392D01*
X144668Y195156D02*
X168365D01*
X153103Y134211D02*
X168305D01*
X167044Y107636D02*
X168192D01*
X167165Y111534D02*
X168072D01*
X144592Y195510D02*
X168010D01*
X167361Y107991D02*
X167875D01*
X152382Y130668D02*
X167849D01*
X153391Y133857D02*
X167804D01*
X167447Y111180D02*
X167789D01*
X144449Y195865D02*
X167656D01*
X152971Y131022D02*
X167531D01*
X153577Y133503D02*
X167502D01*
X153306Y131377D02*
X167325D01*
X153688Y133148D02*
X167306D01*
X144223Y196219D02*
X167302D01*
X153523Y131731D02*
X167198D01*
X153737Y132794D02*
X167187D01*
X153658Y132085D02*
X167135D01*
X153727Y132440D02*
X167132D01*
X143871Y196573D02*
X166947D01*
X143229Y196928D02*
X166593D01*
X95090Y197282D02*
X166239D01*
X95068Y197636D02*
X165884D01*
X95046Y197991D02*
X165530D01*
X95023Y198345D02*
X165176D01*
X95001Y198699D02*
X164821D01*
X131772Y106928D02*
X164701D01*
X94979Y199054D02*
X164467D01*
X131068Y112243D02*
X164235D01*
X94957Y199408D02*
X164113D01*
X94934Y199762D02*
X163758D01*
X131772Y107282D02*
X163740D01*
X131576Y111888D02*
X163556D01*
X94912Y200117D02*
X163404D01*
X131772Y107636D02*
X163271D01*
X131743Y111534D02*
X163150D01*
X94890Y200471D02*
X163050D01*
X131772Y107991D02*
X162954D01*
X131772Y111180D02*
X162868D01*
X131772Y108345D02*
X162728D01*
X94868Y200825D02*
X162695D01*
X131772Y110825D02*
X162667D01*
X131772Y108699D02*
X162569D01*
X131772Y110471D02*
X162528D01*
X131772Y109054D02*
X162466D01*
X131772Y110117D02*
X162442D01*
X131772Y109408D02*
X162412D01*
X131772Y109762D02*
X162404D01*
X94845Y201180D02*
X162341D01*
X152874Y286219D02*
X162087D01*
X152949Y282322D02*
X162011D01*
X94823Y201534D02*
X161987D01*
X94801Y201888D02*
X161632D01*
X153413Y285865D02*
X161547D01*
X153453Y282676D02*
X161507D01*
X94779Y202243D02*
X161278D01*
X153731Y285510D02*
X161230D01*
X153756Y283030D02*
X161204D01*
X153936Y285156D02*
X161025D01*
X153953Y283385D02*
X161008D01*
X94756Y202597D02*
X160924D01*
X154063Y284802D02*
X160898D01*
X154072Y283739D02*
X160888D01*
X154125Y284447D02*
X160836D01*
X154128Y284093D02*
X160833D01*
X94734Y202951D02*
X160569D01*
X144289Y242282D02*
X160274D01*
X94712Y203306D02*
X160215D01*
X94689Y203660D02*
X159861D01*
X144282Y241928D02*
X159587D01*
X94667Y204014D02*
X159506D01*
X144220Y241573D02*
X159228D01*
X94645Y204369D02*
X159152D01*
X95847Y185235D02*
X158979D01*
X144092Y241219D02*
X158874D01*
X94623Y204723D02*
X158798D01*
X148328Y322361D02*
X158747D01*
X143886Y240865D02*
X158520D01*
X145530Y180983D02*
X158481D01*
X94600Y205077D02*
X158443D01*
X148425Y326259D02*
X158322D01*
X143568Y240510D02*
X158165D01*
X148392Y322715D02*
X158100D01*
X94578Y205432D02*
X158089D01*
X148425Y325904D02*
X157882D01*
X95869Y184881D02*
X157866D01*
X143025Y240156D02*
X157811D01*
X145884Y181337D02*
X157758D01*
X148422Y323070D02*
X157748D01*
X94556Y205786D02*
X157735D01*
X148425Y325550D02*
X157608D01*
X148425Y323424D02*
X157521D01*
X96374Y239802D02*
X157457D01*
X95891Y184526D02*
X157452D01*
X148425Y325196D02*
X157431D01*
X94534Y206140D02*
X157380D01*
X148425Y323778D02*
X157377D01*
X148425Y324841D02*
X157327D01*
X146299Y181692D02*
X157317D01*
X148425Y324133D02*
X157301D01*
X148425Y324487D02*
X157285D01*
X96396Y239447D02*
X157102D01*
X94511Y206495D02*
X157026D01*
X96418Y239093D02*
X156748D01*
X94489Y206849D02*
X156672D01*
X96440Y238739D02*
X156394D01*
X94467Y207203D02*
X156317D01*
X96462Y238385D02*
X156039D01*
X94445Y207558D02*
X155963D01*
X96484Y238030D02*
X155685D01*
X94422Y207912D02*
X155609D01*
X96506Y237676D02*
X155331D01*
X94400Y208266D02*
X155254D01*
X96528Y237322D02*
X154976D01*
X94378Y208621D02*
X154900D01*
X142695Y178148D02*
X154803D01*
X96550Y236967D02*
X154622D01*
X94356Y208975D02*
X154546D01*
X146947Y174251D02*
X154389D01*
X96572Y236613D02*
X154268D01*
X94333Y209329D02*
X154192D01*
X142341Y177794D02*
X154160D01*
X147302Y174605D02*
X153948D01*
X96594Y236259D02*
X153913D01*
X94311Y209684D02*
X153837D01*
X96616Y235904D02*
X153559D01*
X94289Y210038D02*
X153483D01*
X96638Y235550D02*
X153205D01*
X94267Y210392D02*
X153129D01*
X96660Y235196D02*
X152850D01*
X94244Y210747D02*
X152774D01*
X96682Y234841D02*
X152496D01*
X94222Y211101D02*
X152420D01*
X96703Y234487D02*
X152142D01*
X94200Y211455D02*
X152066D01*
X96725Y234133D02*
X151787D01*
X94178Y211810D02*
X151711D01*
X96747Y233778D02*
X151433D01*
X94155Y212164D02*
X151357D01*
X118740Y252912D02*
X151242D01*
X96769Y233424D02*
X151079D01*
X121771Y286219D02*
X151063D01*
X94133Y212518D02*
X151003D01*
X146877Y282322D02*
X150988D01*
X104904Y130668D02*
X150767D01*
X96791Y233070D02*
X150724D01*
X118740Y252558D02*
X150609D01*
X122311Y285865D02*
X150524D01*
X150021Y134566D02*
X150515D01*
X122351Y282676D02*
X150484D01*
X96813Y232715D02*
X150370D01*
X118740Y252203D02*
X150255D01*
X94111Y212873D02*
X150213D01*
X104741Y131022D02*
X150178D01*
X96835Y232361D02*
X150016D01*
X118740Y251849D02*
X149900D01*
X96857Y232007D02*
X149661D01*
X118929Y251495D02*
X149546D01*
X94089Y213227D02*
X149490D01*
X96879Y231652D02*
X149401D01*
X104518Y131377D02*
X149332D01*
X96901Y231298D02*
X149262D01*
X96923Y230944D02*
X149213D01*
X96945Y230589D02*
X149213D01*
X96967Y230235D02*
X149213D01*
X96989Y229881D02*
X149213D01*
X97011Y229526D02*
X149213D01*
X97033Y229172D02*
X149213D01*
X97055Y228818D02*
X149213D01*
X97077Y228463D02*
X149213D01*
X97099Y228109D02*
X149213D01*
X97121Y227755D02*
X149213D01*
X97143Y227400D02*
X149213D01*
X97165Y227046D02*
X149213D01*
X97187Y226692D02*
X149213D01*
X97209Y226337D02*
X149213D01*
X97231Y225983D02*
X149213D01*
X97253Y225629D02*
X149213D01*
X97275Y225274D02*
X149213D01*
X97297Y224920D02*
X149213D01*
X97319Y224566D02*
X149213D01*
X97341Y224211D02*
X149213D01*
X97363Y223857D02*
X149213D01*
X97384Y223503D02*
X149213D01*
X97406Y223148D02*
X149213D01*
X97428Y222794D02*
X149213D01*
X97450Y222440D02*
X149213D01*
X97472Y222085D02*
X149213D01*
X97494Y221731D02*
X149213D01*
X97516Y221377D02*
X149213D01*
X97538Y221022D02*
X149213D01*
X97560Y220668D02*
X149213D01*
X97582Y220314D02*
X149213D01*
X97588Y219959D02*
X149213D01*
X97555Y219605D02*
X149213D01*
X97480Y219251D02*
X149213D01*
X97360Y218896D02*
X149213D01*
X97190Y218542D02*
X149213D01*
X96960Y218188D02*
X149213D01*
X96650Y217833D02*
X149213D01*
X96219Y217479D02*
X149213D01*
X95534Y217125D02*
X149213D01*
X93873Y216770D02*
X149213D01*
X119203Y251140D02*
X149192D01*
X93888Y216416D02*
X149181D01*
X94066Y213581D02*
X149118D01*
X104219Y131731D02*
X148958D01*
X93911Y216062D02*
X148923D01*
X94044Y213936D02*
X148880D01*
X119380Y250786D02*
X148837D01*
X93933Y215707D02*
X148755D01*
X94022Y214290D02*
X148728D01*
X93955Y215353D02*
X148658D01*
X94000Y214644D02*
X148645D01*
X93977Y214999D02*
X148622D01*
X103806Y132085D02*
X148604D01*
X119484Y250432D02*
X148483D01*
X103169Y132440D02*
X148249D01*
X119526Y250077D02*
X148129D01*
X99153Y132794D02*
X147895D01*
X119510Y249723D02*
X147774D01*
X99118Y133148D02*
X147541D01*
X145158Y172125D02*
X147481D01*
X119434Y249369D02*
X147420D01*
X145158Y168227D02*
X147405D01*
X99096Y133503D02*
X147186D01*
X119290Y249014D02*
X147066D01*
X145158Y171770D02*
X146941D01*
X145158Y168581D02*
X146901D01*
X99074Y133857D02*
X146832D01*
X119063Y248660D02*
X146711D01*
X145158Y171416D02*
X146624D01*
X145158Y168936D02*
X146598D01*
X141987Y177440D02*
X146518D01*
X99052Y134211D02*
X146478D01*
X145158Y171062D02*
X146418D01*
X145158Y169290D02*
X146402D01*
X118711Y248306D02*
X146357D01*
X145158Y170707D02*
X146291D01*
X145158Y169644D02*
X146282D01*
X145158Y170353D02*
X146229D01*
X145158Y169999D02*
X146226D01*
X99029Y134566D02*
X146123D01*
X118064Y247951D02*
X146003D01*
X141632Y177085D02*
X145885D01*
X99007Y134920D02*
X145769D01*
X95891Y247597D02*
X145648D01*
X141278Y176731D02*
X145530D01*
X98985Y135274D02*
X145415D01*
X95913Y247243D02*
X145294D01*
X121847Y282322D02*
X145249D01*
X140924Y176377D02*
X145176D01*
X98963Y135629D02*
X145060D01*
X90002Y278424D02*
X145008D01*
X95935Y246888D02*
X144940D01*
X95914Y184172D02*
X144841D01*
X140569Y176022D02*
X144822D01*
X98940Y135983D02*
X144706D01*
X89779Y281967D02*
X144663D01*
X95957Y246534D02*
X144585D01*
X89979Y278778D02*
X144537D01*
X95936Y183818D02*
X144467D01*
X140215Y175668D02*
X144467D01*
X98918Y136337D02*
X144352D01*
X89801Y281613D02*
X144330D01*
X89957Y279133D02*
X144249D01*
X95979Y246180D02*
X144231D01*
X89823Y281259D02*
X144114D01*
X95958Y183463D02*
X144113D01*
X139861Y175314D02*
X144113D01*
X89935Y279487D02*
X144062D01*
X95446Y191613D02*
X144033D01*
X142188Y309251D02*
X144018D01*
X98896Y136692D02*
X143997D01*
X89846Y280904D02*
X143979D01*
X89912Y279841D02*
X143950D01*
X89868Y280550D02*
X143910D01*
X89890Y280196D02*
X143901D01*
X96000Y245825D02*
X143877D01*
X95980Y183109D02*
X143759D01*
X139506Y174959D02*
X143759D01*
X98874Y137046D02*
X143643D01*
X96022Y245471D02*
X143522D01*
X128446Y304999D02*
X143521D01*
X95424Y191967D02*
X143486D01*
X96003Y182755D02*
X143404D01*
X139152Y174605D02*
X143404D01*
X98851Y137400D02*
X143289D01*
X129863Y303581D02*
X143280D01*
X96044Y245117D02*
X143168D01*
X95402Y192322D02*
X143131D01*
X96025Y182400D02*
X143050D01*
X138798Y174251D02*
X143050D01*
X88664Y299684D02*
X143040D01*
X98829Y137755D02*
X142934D01*
X141349Y308896D02*
X142905D01*
X96066Y244762D02*
X142814D01*
X128092Y305353D02*
X142797D01*
X95379Y192676D02*
X142776D01*
X138443Y173896D02*
X142707D01*
X96047Y182046D02*
X142696D01*
X130218Y303227D02*
X142695D01*
X98807Y138109D02*
X142623D01*
X88641Y300038D02*
X142569D01*
X138089Y173542D02*
X142500D01*
X129627Y308542D02*
X142491D01*
X98785Y138463D02*
X142459D01*
X96088Y244408D02*
X142459D01*
X137735Y173188D02*
X142410D01*
X98762Y138818D02*
X142402D01*
X137598Y172833D02*
X142402D01*
X137569Y172479D02*
X142402D01*
X137479Y172125D02*
X142402D01*
X137319Y171770D02*
X142402D01*
X137069Y171416D02*
X142402D01*
X136676Y171062D02*
X142402D01*
X135837Y170707D02*
X142402D01*
X96782Y170353D02*
X142402D01*
X96804Y169999D02*
X142402D01*
X96826Y169644D02*
X142402D01*
X96848Y169290D02*
X142402D01*
X96871Y168936D02*
X142402D01*
X96893Y168581D02*
X142402D01*
X96915Y168227D02*
X142402D01*
X96937Y167873D02*
X142402D01*
X96960Y167518D02*
X142402D01*
X96982Y167164D02*
X142402D01*
X97004Y166810D02*
X142402D01*
X97026Y166455D02*
X142402D01*
X97049Y166101D02*
X142402D01*
X97071Y165747D02*
X142402D01*
X97093Y165392D02*
X142402D01*
X97115Y165038D02*
X142402D01*
X97138Y164684D02*
X142402D01*
X97160Y164329D02*
X142402D01*
X97182Y163975D02*
X142402D01*
X97204Y163621D02*
X142402D01*
X97227Y163266D02*
X142402D01*
X97249Y162912D02*
X142402D01*
X97271Y162558D02*
X142402D01*
X97293Y162203D02*
X142402D01*
X97316Y161849D02*
X142402D01*
X97338Y161495D02*
X142402D01*
X97360Y161140D02*
X142402D01*
X97382Y160786D02*
X142402D01*
X97405Y160432D02*
X142402D01*
X97427Y160077D02*
X142402D01*
X97449Y159723D02*
X142402D01*
X97471Y159369D02*
X142402D01*
X97494Y159014D02*
X142402D01*
X97516Y158660D02*
X142402D01*
X97538Y158306D02*
X142402D01*
X97560Y157951D02*
X142402D01*
X97583Y157597D02*
X142402D01*
X97605Y157243D02*
X142402D01*
X97627Y156888D02*
X142402D01*
X97650Y156534D02*
X142402D01*
X97672Y156180D02*
X142402D01*
X97694Y155825D02*
X142402D01*
X97716Y155471D02*
X142402D01*
X97739Y155117D02*
X142402D01*
X97761Y154762D02*
X142402D01*
X97783Y154408D02*
X142402D01*
X97805Y154054D02*
X142402D01*
X97828Y153699D02*
X142402D01*
X97850Y153345D02*
X142402D01*
X97872Y152991D02*
X142402D01*
X97894Y152636D02*
X142402D01*
X97917Y152282D02*
X142402D01*
X97939Y151928D02*
X142402D01*
X97961Y151573D02*
X142402D01*
X97983Y151219D02*
X142402D01*
X98006Y150865D02*
X142402D01*
X98028Y150510D02*
X142402D01*
X98050Y150156D02*
X142402D01*
X98072Y149802D02*
X142402D01*
X98095Y149447D02*
X142402D01*
X98117Y149093D02*
X142402D01*
X98139Y148739D02*
X142402D01*
X98161Y148385D02*
X142402D01*
X98184Y148030D02*
X142402D01*
X98206Y147676D02*
X142402D01*
X98228Y147322D02*
X142402D01*
X98250Y146967D02*
X142402D01*
X98273Y146613D02*
X142402D01*
X98295Y146259D02*
X142402D01*
X98317Y145904D02*
X142402D01*
X98339Y145550D02*
X142402D01*
X98362Y145196D02*
X142402D01*
X98384Y144841D02*
X142402D01*
X98406Y144487D02*
X142402D01*
X98428Y144133D02*
X142402D01*
X98451Y143778D02*
X142402D01*
X98473Y143424D02*
X142402D01*
X98495Y143070D02*
X142402D01*
X98517Y142715D02*
X142402D01*
X98540Y142361D02*
X142402D01*
X98562Y142007D02*
X142402D01*
X98584Y141652D02*
X142402D01*
X98607Y141298D02*
X142402D01*
X98629Y140944D02*
X142402D01*
X98651Y140589D02*
X142402D01*
X98673Y140235D02*
X142402D01*
X98696Y139881D02*
X142402D01*
X98718Y139526D02*
X142402D01*
X98740Y139172D02*
X142402D01*
X127737Y305707D02*
X142356D01*
X96069Y181692D02*
X142341D01*
X96092Y181337D02*
X141987D01*
X95112Y196928D02*
X141810D01*
X96114Y180983D02*
X141633D01*
X95357Y193030D02*
X141397D01*
X96136Y180629D02*
X141278D01*
X96352Y240156D02*
X141227D01*
X95135Y196573D02*
X141168D01*
X96110Y244054D02*
X141140D01*
X95335Y193385D02*
X140955D01*
X96158Y180274D02*
X140924D01*
X95157Y196219D02*
X140817D01*
X96330Y240510D02*
X140684D01*
X95313Y193739D02*
X140681D01*
X96132Y243699D02*
X140638D01*
X95179Y195865D02*
X140590D01*
X96181Y179920D02*
X140570D01*
X129273Y308896D02*
X140541D01*
X129745Y313148D02*
X140527D01*
X95290Y194093D02*
X140503D01*
X95201Y195510D02*
X140448D01*
X95268Y194447D02*
X140398D01*
X95224Y195156D02*
X140372D01*
X96308Y240865D02*
X140366D01*
X95246Y194802D02*
X140356D01*
X96154Y243345D02*
X140336D01*
X96203Y179566D02*
X140215D01*
X96286Y241219D02*
X140160D01*
X96176Y242991D02*
X140141D01*
X96264Y241573D02*
X140032D01*
X96198Y242636D02*
X140022D01*
X96242Y241928D02*
X139970D01*
X96220Y242282D02*
X139966D01*
X96225Y179211D02*
X139861D01*
X128919Y309251D02*
X139702D01*
X130100Y312794D02*
X139698D01*
X96247Y178857D02*
X139507D01*
X128564Y309605D02*
X139304D01*
X130457Y312440D02*
X139300D01*
X96270Y178503D02*
X139152D01*
X136202Y272046D02*
X139056D01*
X96292Y178148D02*
X138798D01*
X135848Y272400D02*
X138643D01*
X96314Y177794D02*
X138444D01*
X135493Y272755D02*
X138289D01*
X96336Y177440D02*
X138089D01*
X135139Y273109D02*
X137934D01*
X96359Y177085D02*
X137735D01*
X134785Y273463D02*
X137580D01*
X96381Y176731D02*
X137381D01*
X134430Y273818D02*
X137226D01*
X96403Y176377D02*
X137026D01*
X133797Y274172D02*
X136871D01*
X96425Y176022D02*
X136672D01*
X133318Y274526D02*
X136517D01*
X96448Y175668D02*
X136318D01*
X96470Y175314D02*
X135963D01*
X118740Y264251D02*
X135953D01*
X118966Y268503D02*
X135660D01*
X119227Y268148D02*
X135660D01*
X119395Y267794D02*
X135606D01*
X118551Y268857D02*
X135494D01*
X118740Y264605D02*
X135482D01*
X119492Y267440D02*
X135275D01*
X118740Y264959D02*
X135194D01*
X117438Y269211D02*
X135139D01*
X119527Y267085D02*
X135059D01*
X96759Y170707D02*
X135029D01*
X96492Y174959D02*
X135015D01*
X118742Y265314D02*
X135007D01*
X119504Y266731D02*
X134924D01*
X119031Y265668D02*
X134895D01*
X119421Y266377D02*
X134855D01*
X119270Y266022D02*
X134846D01*
X90559Y269566D02*
X134785D01*
X90537Y269920D02*
X134431D01*
X96737Y171062D02*
X134190D01*
X96514Y174605D02*
X134186D01*
X90515Y270274D02*
X134076D01*
X96715Y171416D02*
X133797D01*
X96537Y174251D02*
X133795D01*
X90492Y270629D02*
X133722D01*
X96693Y171770D02*
X133547D01*
X96559Y173896D02*
X133546D01*
X96670Y172125D02*
X133387D01*
X96581Y173542D02*
X133386D01*
X132225Y270983D02*
X133368D01*
X96648Y172479D02*
X133297D01*
X96603Y173188D02*
X133297D01*
X96626Y172833D02*
X133268D01*
X132667Y271337D02*
X133013D01*
X90470Y270983D02*
X129980D01*
X90448Y271337D02*
X129538D01*
X102782Y274526D02*
X129500D01*
X102366Y274172D02*
X129399D01*
X90425Y271692D02*
X129263D01*
X88619Y300392D02*
X129214D01*
X90292Y273818D02*
X129173D01*
X90403Y272046D02*
X129086D01*
X128210Y309959D02*
X129046D01*
X90314Y273463D02*
X129030D01*
X90381Y272400D02*
X128981D01*
X90336Y273109D02*
X128954D01*
X90358Y272755D02*
X128938D01*
X88597Y300747D02*
X128801D01*
X127856Y310314D02*
X128682D01*
X88575Y301101D02*
X128446D01*
X127501Y310668D02*
X128328D01*
X127383Y306062D02*
X128213D01*
X88552Y301455D02*
X128092D01*
X127147Y311022D02*
X127974D01*
X127029Y306416D02*
X127856D01*
X88530Y301810D02*
X127738D01*
X126793Y311377D02*
X127620D01*
X126674Y306770D02*
X127501D01*
X88508Y302164D02*
X127383D01*
X126438Y311731D02*
X127265D01*
X126320Y307125D02*
X127147D01*
X88485Y302518D02*
X127029D01*
X126084Y312085D02*
X126911D01*
X125966Y307479D02*
X126793D01*
X88463Y302873D02*
X126675D01*
X125730Y312440D02*
X126557D01*
X125611Y307833D02*
X126438D01*
X88441Y303227D02*
X126320D01*
X125375Y312794D02*
X126202D01*
X125257Y308188D02*
X126084D01*
X88418Y303581D02*
X125966D01*
X125021Y313148D02*
X125848D01*
X124903Y308542D02*
X125730D01*
X88396Y303936D02*
X125612D01*
X124667Y313503D02*
X125494D01*
X124548Y308896D02*
X125375D01*
X88374Y304290D02*
X125257D01*
X124312Y313857D02*
X125139D01*
X123367Y319526D02*
X125038D01*
X124194Y309251D02*
X125021D01*
X88352Y304644D02*
X124903D01*
X123958Y314211D02*
X124785D01*
X123840Y309605D02*
X124667D01*
X88329Y304999D02*
X124549D01*
X123604Y314566D02*
X124431D01*
X123486Y309959D02*
X124312D01*
X123013Y319881D02*
X124306D01*
X88307Y305353D02*
X124194D01*
X123249Y314920D02*
X124076D01*
X123131Y310314D02*
X123958D01*
X88285Y305707D02*
X123840D01*
X122659Y320235D02*
X123821D01*
X122895Y315274D02*
X123722D01*
X122777Y310668D02*
X123604D01*
X88262Y306062D02*
X123486D01*
X122304Y320589D02*
X123456D01*
X118007Y112243D02*
X123421D01*
X122541Y315629D02*
X123368D01*
X122423Y311022D02*
X123249D01*
X121950Y320944D02*
X123172D01*
X118580Y103385D02*
X123169D01*
X88240Y306416D02*
X123131D01*
X122186Y315983D02*
X123013D01*
X121596Y321298D02*
X122947D01*
X119251Y111888D02*
X122912D01*
X122068Y311377D02*
X122895D01*
X119490Y103739D02*
X122838D01*
X88218Y306770D02*
X122777D01*
X121241Y321652D02*
X122770D01*
X119896Y111534D02*
X122745D01*
X120063Y104093D02*
X122724D01*
X120364Y111180D02*
X122717D01*
X120730Y110825D02*
X122717D01*
X121025Y110471D02*
X122717D01*
X121265Y110117D02*
X122717D01*
X121460Y109762D02*
X122717D01*
X121617Y109408D02*
X122717D01*
X121739Y109054D02*
X122717D01*
X121830Y108699D02*
X122717D01*
X121891Y108345D02*
X122717D01*
X121923Y107991D02*
X122717D01*
X121928Y107636D02*
X122717D01*
X121904Y107282D02*
X122717D01*
X121853Y106928D02*
X122717D01*
X121772Y106573D02*
X122717D01*
X121660Y106219D02*
X122717D01*
X121515Y105865D02*
X122717D01*
X121333Y105510D02*
X122717D01*
X121108Y105156D02*
X122717D01*
X120833Y104802D02*
X122717D01*
X120492Y104447D02*
X122717D01*
X121832Y316337D02*
X122659D01*
X120887Y322007D02*
X122635D01*
X121714Y311731D02*
X122541D01*
X120533Y322361D02*
X122538D01*
X120178Y322715D02*
X122475D01*
X119824Y323070D02*
X122444D01*
X88317Y374093D02*
X122441D01*
X87490Y373739D02*
X122441D01*
X86898Y373385D02*
X122441D01*
X86430Y373030D02*
X122441D01*
X86044Y372676D02*
X122441D01*
X93182Y372322D02*
X122441D01*
X94188Y371967D02*
X122441D01*
X94798Y371613D02*
X122441D01*
X95252Y371259D02*
X122441D01*
X95613Y370904D02*
X122441D01*
X95907Y370550D02*
X122441D01*
X96148Y370196D02*
X122441D01*
X96346Y369841D02*
X122441D01*
X96506Y369487D02*
X122441D01*
X96633Y369133D02*
X122441D01*
X96730Y368778D02*
X122441D01*
X96797Y368424D02*
X122441D01*
X96837Y368070D02*
X122441D01*
X96850Y367715D02*
X122441D01*
X96837Y367361D02*
X122441D01*
X96797Y367007D02*
X122441D01*
X96729Y366652D02*
X122441D01*
X96632Y366298D02*
X122441D01*
X96505Y365944D02*
X122441D01*
X96344Y365589D02*
X122441D01*
X96146Y365235D02*
X122441D01*
X95905Y364881D02*
X122441D01*
X95611Y364526D02*
X122441D01*
X95249Y364172D02*
X122441D01*
X94794Y363818D02*
X122441D01*
X94183Y363463D02*
X122441D01*
X93170Y363109D02*
X122441D01*
X84677Y362755D02*
X122441D01*
X84700Y362400D02*
X122441D01*
X84723Y362046D02*
X122441D01*
X84746Y361692D02*
X122441D01*
X84768Y361337D02*
X122441D01*
X84791Y360983D02*
X122441D01*
X84814Y360629D02*
X122441D01*
X84837Y360274D02*
X122441D01*
X84860Y359920D02*
X122441D01*
X84883Y359566D02*
X122441D01*
X84906Y359211D02*
X122441D01*
X84929Y358857D02*
X122441D01*
X84952Y358503D02*
X122441D01*
X84975Y358148D02*
X122441D01*
X84997Y357794D02*
X122441D01*
X85020Y357440D02*
X122441D01*
X85043Y357085D02*
X122441D01*
X85066Y356731D02*
X122441D01*
X85089Y356377D02*
X122441D01*
X85112Y356022D02*
X122441D01*
X85135Y355668D02*
X122441D01*
X85158Y355314D02*
X122441D01*
X85181Y354959D02*
X122441D01*
X85203Y354605D02*
X122441D01*
X85226Y354251D02*
X122441D01*
X85249Y353896D02*
X122441D01*
X85272Y353542D02*
X122441D01*
X85295Y353188D02*
X122441D01*
X85318Y352833D02*
X122441D01*
X85341Y352479D02*
X122441D01*
X85364Y352125D02*
X122441D01*
X85387Y351770D02*
X122441D01*
X85410Y351416D02*
X122441D01*
X85432Y351062D02*
X122441D01*
X85455Y350707D02*
X122441D01*
X85478Y350353D02*
X122441D01*
X85501Y349999D02*
X122441D01*
X85524Y349644D02*
X122441D01*
X85547Y349290D02*
X122441D01*
X85570Y348936D02*
X122441D01*
X85593Y348581D02*
X122441D01*
X85616Y348227D02*
X122441D01*
X85638Y347873D02*
X122441D01*
X85661Y347518D02*
X122441D01*
X85684Y347164D02*
X122441D01*
X85707Y346810D02*
X122441D01*
X85746Y346455D02*
X122441D01*
X85748Y346101D02*
X122441D01*
X102934Y345747D02*
X122441D01*
X103576Y345392D02*
X122441D01*
X103928Y345038D02*
X122441D01*
X104154Y344684D02*
X122441D01*
X104297Y344329D02*
X122441D01*
X104372Y343975D02*
X122441D01*
X104390Y343621D02*
X122441D01*
X104390Y343266D02*
X122441D01*
X104390Y342912D02*
X122441D01*
X104390Y342558D02*
X122441D01*
X104390Y342203D02*
X122441D01*
X104390Y341849D02*
X122441D01*
X104390Y341495D02*
X122441D01*
X104390Y341140D02*
X122441D01*
X104390Y340786D02*
X122441D01*
X104390Y340432D02*
X122441D01*
X104390Y340077D02*
X122441D01*
X104390Y339723D02*
X122441D01*
X104390Y339369D02*
X122441D01*
X104390Y339014D02*
X122441D01*
X104390Y338660D02*
X122441D01*
X104390Y338306D02*
X122441D01*
X104390Y337951D02*
X122441D01*
X104390Y337597D02*
X122441D01*
X104390Y337243D02*
X122441D01*
X104390Y336888D02*
X122441D01*
X104388Y336534D02*
X122441D01*
X104346Y336180D02*
X122441D01*
X104241Y335825D02*
X122441D01*
X104064Y335471D02*
X122441D01*
X103789Y335117D02*
X122441D01*
X103347Y334762D02*
X122441D01*
X83976Y334408D02*
X122441D01*
X83976Y334054D02*
X122441D01*
X83976Y333699D02*
X122441D01*
X83976Y333345D02*
X122441D01*
X83976Y332991D02*
X122441D01*
X111222Y332636D02*
X122441D01*
X111724Y332282D02*
X122441D01*
X112026Y331928D02*
X122441D01*
X112221Y331573D02*
X122441D01*
X112341Y331219D02*
X122441D01*
X112396Y330865D02*
X122441D01*
X112410Y330510D02*
X122441D01*
X112737Y330156D02*
X122441D01*
X113092Y329802D02*
X122441D01*
X113446Y329447D02*
X122441D01*
X113800Y329093D02*
X122441D01*
X114155Y328739D02*
X122441D01*
X114509Y328385D02*
X122441D01*
X114863Y328030D02*
X122441D01*
X115218Y327676D02*
X122441D01*
X115572Y327322D02*
X122441D01*
X115926Y326967D02*
X122441D01*
X116281Y326613D02*
X122441D01*
X116635Y326259D02*
X122441D01*
X116989Y325904D02*
X122441D01*
X117344Y325550D02*
X122441D01*
X117698Y325196D02*
X122441D01*
X118052Y324841D02*
X122441D01*
X118407Y324487D02*
X122441D01*
X118761Y324133D02*
X122441D01*
X119115Y323778D02*
X122441D01*
X119470Y323424D02*
X122441D01*
X88195Y307125D02*
X122423D01*
X121478Y316692D02*
X122305D01*
X121360Y312085D02*
X122186D01*
X88173Y307479D02*
X122068D01*
X121123Y317046D02*
X121950D01*
X121005Y312440D02*
X121832D01*
X88151Y307833D02*
X121714D01*
X120769Y317400D02*
X121596D01*
X120651Y312794D02*
X121478D01*
X88129Y308188D02*
X121360D01*
X120415Y317755D02*
X121242D01*
X120297Y313148D02*
X121123D01*
X88106Y308542D02*
X121005D01*
X120060Y318109D02*
X120887D01*
X119942Y313503D02*
X120769D01*
X88084Y308896D02*
X120651D01*
X119706Y318463D02*
X120533D01*
X119588Y313857D02*
X120415D01*
X88062Y309251D02*
X120297D01*
X119352Y318818D02*
X120179D01*
X119234Y314211D02*
X120060D01*
X89511Y286219D02*
X119961D01*
X88039Y309605D02*
X119942D01*
X89756Y282322D02*
X119885D01*
X118997Y319172D02*
X119824D01*
X118879Y314566D02*
X119706D01*
X88014Y309959D02*
X119588D01*
X118643Y319526D02*
X119470D01*
X89533Y285865D02*
X119421D01*
X89734Y282676D02*
X119381D01*
X118525Y314920D02*
X119352D01*
X87985Y310314D02*
X119234D01*
X118289Y319881D02*
X119116D01*
X89556Y285510D02*
X119104D01*
X89712Y283030D02*
X119078D01*
X118171Y315274D02*
X118997D01*
X89578Y285156D02*
X118899D01*
X89690Y283385D02*
X118882D01*
X87956Y310668D02*
X118879D01*
X89600Y284802D02*
X118772D01*
X89667Y283739D02*
X118762D01*
X117934Y320235D02*
X118761D01*
X89623Y284447D02*
X118710D01*
X89645Y284093D02*
X118707D01*
X117816Y315629D02*
X118643D01*
X103124Y311022D02*
X118525D01*
X117580Y320589D02*
X118407D01*
X117462Y315983D02*
X118289D01*
X103666Y311377D02*
X118171D01*
X117226Y320944D02*
X118053D01*
X117108Y316337D02*
X117934D01*
X103985Y311731D02*
X117816D01*
X116871Y321298D02*
X117698D01*
X116753Y316692D02*
X117580D01*
X104191Y312085D02*
X117462D01*
X116517Y321652D02*
X117344D01*
X90581Y269211D02*
X117286D01*
X116399Y317046D02*
X117226D01*
X104318Y312440D02*
X117108D01*
X116163Y322007D02*
X116990D01*
X116045Y317400D02*
X116871D01*
X105118Y112243D02*
X116796D01*
X104381Y312794D02*
X116753D01*
X95869Y247951D02*
X116661D01*
X115808Y322361D02*
X116635D01*
X115690Y317755D02*
X116517D01*
X104390Y313148D02*
X116399D01*
X115454Y322715D02*
X116281D01*
X105118Y103385D02*
X116223D01*
X90604Y268857D02*
X116173D01*
X115336Y318109D02*
X116163D01*
X104390Y313503D02*
X116045D01*
X95847Y248306D02*
X116014D01*
X90849Y264959D02*
X115984D01*
X90871Y264605D02*
X115984D01*
X90894Y264251D02*
X115984D01*
X90916Y263896D02*
X115984D01*
X90938Y263542D02*
X115984D01*
X90961Y263188D02*
X115984D01*
X90983Y262833D02*
X115984D01*
X91005Y262479D02*
X115984D01*
X91027Y262125D02*
X115984D01*
X91050Y261770D02*
X115984D01*
X91072Y261416D02*
X115984D01*
X91094Y261062D02*
X115984D01*
X91117Y260707D02*
X115984D01*
X91139Y260353D02*
X115984D01*
X91161Y259999D02*
X115984D01*
X91184Y259644D02*
X115984D01*
X91206Y259290D02*
X115984D01*
X91228Y258936D02*
X115984D01*
X92950Y258581D02*
X115984D01*
X93840Y258227D02*
X115984D01*
X94329Y257873D02*
X115984D01*
X94672Y257518D02*
X115984D01*
X94926Y257164D02*
X115984D01*
X95114Y256810D02*
X115984D01*
X95249Y256455D02*
X115984D01*
X95338Y256101D02*
X115984D01*
X95385Y255747D02*
X115984D01*
X95407Y255392D02*
X115984D01*
X95429Y255038D02*
X115984D01*
X95451Y254684D02*
X115984D01*
X95473Y254329D02*
X115984D01*
X95495Y253975D02*
X115984D01*
X95517Y253621D02*
X115984D01*
X95539Y253266D02*
X115984D01*
X95561Y252912D02*
X115984D01*
X95583Y252558D02*
X115984D01*
X95605Y252203D02*
X115984D01*
X95627Y251849D02*
X115984D01*
X90827Y265314D02*
X115982D01*
X115100Y323070D02*
X115927D01*
X114982Y318463D02*
X115808D01*
X95649Y251495D02*
X115795D01*
X90626Y268503D02*
X115759D01*
X90804Y265668D02*
X115693D01*
X104390Y313857D02*
X115690D01*
X95825Y248660D02*
X115661D01*
X114745Y323424D02*
X115572D01*
X105118Y111888D02*
X115552D01*
X95671Y251140D02*
X115521D01*
X90648Y268148D02*
X115498D01*
X90782Y266022D02*
X115455D01*
X114627Y318818D02*
X115454D01*
X95803Y249014D02*
X115434D01*
X95693Y250786D02*
X115345D01*
X104390Y314211D02*
X115336D01*
X90671Y267794D02*
X115330D01*
X105118Y103739D02*
X115313D01*
X90760Y266377D02*
X115303D01*
X95781Y249369D02*
X115291D01*
X95715Y250432D02*
X115240D01*
X90693Y267440D02*
X115233D01*
X90738Y266731D02*
X115220D01*
X114391Y323778D02*
X115218D01*
X95759Y249723D02*
X115215D01*
X95737Y250077D02*
X115198D01*
X90715Y267085D02*
X115197D01*
X114273Y319172D02*
X115100D01*
X104390Y314566D02*
X114982D01*
X105118Y111534D02*
X114907D01*
X114037Y324133D02*
X114864D01*
X113919Y319526D02*
X114745D01*
X105118Y104093D02*
X114740D01*
X104390Y314920D02*
X114627D01*
X113682Y324487D02*
X114509D01*
X105118Y111180D02*
X114439D01*
X113564Y319881D02*
X114391D01*
X105118Y104447D02*
X114311D01*
X104390Y315274D02*
X114273D01*
X113328Y324841D02*
X114155D01*
X105118Y110825D02*
X114073D01*
X113210Y320235D02*
X114037D01*
X105118Y104802D02*
X113970D01*
X104390Y315629D02*
X113919D01*
X112974Y325196D02*
X113801D01*
X105118Y110471D02*
X113779D01*
X105118Y105156D02*
X113695D01*
X112856Y320589D02*
X113682D01*
X104390Y315983D02*
X113564D01*
X105118Y110117D02*
X113538D01*
X105118Y105510D02*
X113470D01*
X112619Y325550D02*
X113446D01*
X105118Y109762D02*
X113343D01*
X112501Y320944D02*
X113328D01*
X105118Y105865D02*
X113288D01*
X104390Y316337D02*
X113210D01*
X105118Y109408D02*
X113186D01*
X105118Y106219D02*
X113143D01*
X112265Y325904D02*
X113092D01*
X105118Y109054D02*
X113064D01*
X105118Y106573D02*
X113031D01*
X112147Y321298D02*
X112974D01*
X105118Y108699D02*
X112973D01*
X105118Y106928D02*
X112950D01*
X105118Y108345D02*
X112913D01*
X105118Y107282D02*
X112899D01*
X105118Y107991D02*
X112880D01*
X105118Y107636D02*
X112876D01*
X104390Y316692D02*
X112856D01*
X111911Y326259D02*
X112738D01*
X111793Y321652D02*
X112620D01*
X104390Y317046D02*
X112501D01*
X111556Y326613D02*
X112383D01*
X111438Y322007D02*
X112265D01*
X104390Y317400D02*
X112147D01*
X111202Y326967D02*
X112029D01*
X111084Y322361D02*
X111911D01*
X104390Y317755D02*
X111793D01*
X110848Y327322D02*
X111675D01*
X110730Y322715D02*
X111557D01*
X104390Y318109D02*
X111438D01*
X110493Y327676D02*
X111320D01*
X110375Y323070D02*
X111202D01*
X104390Y318463D02*
X111084D01*
X110139Y328030D02*
X110966D01*
X110021Y323424D02*
X110848D01*
X104390Y318818D02*
X110730D01*
X110043Y328385D02*
X110612D01*
X109667Y323778D02*
X110494D01*
X104390Y319172D02*
X110375D01*
X109312Y324133D02*
X110139D01*
X104390Y319526D02*
X110021D01*
X108958Y324487D02*
X109785D01*
X104390Y319881D02*
X109667D01*
X108604Y324841D02*
X109431D01*
X104384Y320235D02*
X109312D01*
X83976Y332636D02*
X109250D01*
X108249Y325196D02*
X109076D01*
X104329Y320589D02*
X108958D01*
X83976Y332282D02*
X108749D01*
X107895Y325550D02*
X108722D01*
X104210Y320944D02*
X108604D01*
X83976Y331928D02*
X108447D01*
X107676Y325904D02*
X108368D01*
X83976Y331573D02*
X108251D01*
X104014Y321298D02*
X108249D01*
X83976Y331219D02*
X108132D01*
X83976Y330865D02*
X108076D01*
X103712Y321652D02*
X107895D01*
X83976Y330510D02*
X107798D01*
X103211Y322007D02*
X107541D01*
X83976Y322361D02*
X107186D01*
X83976Y322715D02*
X106832D01*
X83976Y330156D02*
X106685D01*
X83976Y323070D02*
X106478D01*
X83976Y329802D02*
X106271D01*
X83976Y323424D02*
X106123D01*
X83976Y329447D02*
X106009D01*
X83976Y329093D02*
X105841D01*
X83976Y323778D02*
X105768D01*
X83976Y328739D02*
X105744D01*
X83976Y328385D02*
X105709D01*
X83976Y328030D02*
X104803D01*
X83976Y324133D02*
X104389D01*
X83976Y327676D02*
X104160D01*
X83976Y324487D02*
X103948D01*
X83976Y327322D02*
X103809D01*
X83976Y324841D02*
X103673D01*
X83976Y326967D02*
X103582D01*
X83976Y325196D02*
X103495D01*
X83976Y326613D02*
X103440D01*
X83976Y325550D02*
X103390D01*
X83976Y326259D02*
X103364D01*
X83976Y325904D02*
X103348D01*
X90024Y278070D02*
X100598D01*
X90269Y274172D02*
X99996D01*
X90046Y277715D02*
X99880D01*
X90247Y274526D02*
X99580D01*
X90069Y277361D02*
X99510D01*
X90225Y274881D02*
X99318D01*
X90091Y277007D02*
X99272D01*
X85748Y345747D02*
X99153D01*
X90202Y275235D02*
X99150D01*
X90113Y276652D02*
X99121D01*
X90180Y275589D02*
X99052D01*
X90135Y276298D02*
X99039D01*
X90158Y275944D02*
X99016D01*
X87928Y311022D02*
X98963D01*
X83976Y322007D02*
X98876D01*
X83976Y334762D02*
X98740D01*
X85748Y345392D02*
X98510D01*
X87913Y311377D02*
X98420D01*
X83976Y321652D02*
X98375D01*
X83976Y335117D02*
X98298D01*
X85748Y345038D02*
X98159D01*
X87892Y311731D02*
X98102D01*
X83976Y321298D02*
X98073D01*
X83976Y335471D02*
X98023D01*
X85746Y344684D02*
X97933D01*
X87817Y312085D02*
X97896D01*
X93704Y320944D02*
X97877D01*
X93893Y335825D02*
X97846D01*
X85700Y344329D02*
X97790D01*
X87681Y312440D02*
X97769D01*
X94411Y320589D02*
X97758D01*
X94523Y336180D02*
X97741D01*
X85583Y343975D02*
X97714D01*
X87471Y312794D02*
X97706D01*
X94869Y320235D02*
X97702D01*
X94950Y336534D02*
X97698D01*
X85382Y343621D02*
X97697D01*
X85057Y343266D02*
X97697D01*
X84448Y342912D02*
X97697D01*
X93132Y342558D02*
X97697D01*
X94144Y342203D02*
X97697D01*
X94685Y341849D02*
X97697D01*
X95069Y341495D02*
X97697D01*
X95359Y341140D02*
X97697D01*
X95583Y340786D02*
X97697D01*
X95754Y340432D02*
X97697D01*
X95879Y340077D02*
X97697D01*
X95964Y339723D02*
X97697D01*
X96011Y339369D02*
X97697D01*
X96023Y339014D02*
X97697D01*
X95999Y338660D02*
X97697D01*
X95939Y338306D02*
X97697D01*
X95841Y337951D02*
X97697D01*
X95701Y337597D02*
X97697D01*
X95513Y337243D02*
X97697D01*
X95269Y336888D02*
X97697D01*
X95207Y319881D02*
X97697D01*
X95466Y319526D02*
X97697D01*
X95665Y319172D02*
X97697D01*
X95814Y318818D02*
X97697D01*
X95921Y318463D02*
X97697D01*
X95989Y318109D02*
X97697D01*
X96021Y317755D02*
X97697D01*
X96017Y317400D02*
X97697D01*
X95977Y317046D02*
X97697D01*
X95900Y316692D02*
X97697D01*
X95784Y316337D02*
X97697D01*
X95624Y315983D02*
X97697D01*
X95412Y315629D02*
X97697D01*
X95138Y315274D02*
X97697D01*
X94777Y314920D02*
X97697D01*
X94280Y314566D02*
X97697D01*
X93454Y314211D02*
X97697D01*
X84017Y313857D02*
X97697D01*
X86661Y313503D02*
X97697D01*
X87159Y313148D02*
X97697D01*
X84654Y363109D02*
X91082D01*
X85718Y372322D02*
X91070D01*
X84631Y363463D02*
X90069D01*
X85440Y371967D02*
X90064D01*
X84608Y363818D02*
X89458D01*
X85202Y371613D02*
X89454D01*
X84585Y364172D02*
X89003D01*
X85000Y371259D02*
X89000D01*
X84562Y364526D02*
X88641D01*
X84828Y370904D02*
X88639D01*
X84540Y364881D02*
X88347D01*
X84683Y370550D02*
X88345D01*
X83976Y342558D02*
X88286D01*
X84517Y365235D02*
X88106D01*
X84565Y370196D02*
X88104D01*
X83976Y314211D02*
X87963D01*
X84494Y365589D02*
X87908D01*
X84471Y369841D02*
X87906D01*
X84471Y365944D02*
X87747D01*
X84400Y369487D02*
X87746D01*
X83976Y320944D02*
X87714D01*
X84448Y366298D02*
X87620D01*
X84351Y369133D02*
X87619D01*
X83976Y335825D02*
X87524D01*
X84425Y366652D02*
X87523D01*
X84324Y368778D02*
X87522D01*
X84402Y367007D02*
X87455D01*
X84318Y368424D02*
X87455D01*
X84379Y367361D02*
X87415D01*
X84333Y368070D02*
X87415D01*
X84356Y367715D02*
X87402D01*
X83976Y342203D02*
X87274D01*
X83976Y314566D02*
X87138D01*
X83976Y320589D02*
X87006D01*
X83976Y336180D02*
X86894D01*
X83976Y341849D02*
X86733D01*
X83976Y314920D02*
X86640D01*
X83976Y320235D02*
X86548D01*
X83976Y336534D02*
X86467D01*
X83976Y341495D02*
X86349D01*
X83976Y315274D02*
X86280D01*
X83976Y319881D02*
X86210D01*
X83976Y336888D02*
X86149D01*
X83976Y341140D02*
X86058D01*
X83976Y315629D02*
X86005D01*
X83976Y319526D02*
X85951D01*
X83976Y337243D02*
X85904D01*
X83976Y340786D02*
X85834D01*
X83976Y315983D02*
X85794D01*
X83976Y319172D02*
X85753D01*
X83976Y337597D02*
X85717D01*
X83976Y340432D02*
X85664D01*
X83976Y316337D02*
X85633D01*
X83976Y318818D02*
X85603D01*
X83976Y337951D02*
X85576D01*
X83976Y340077D02*
X85538D01*
X83976Y316692D02*
X85517D01*
X83976Y318463D02*
X85496D01*
X83976Y338306D02*
X85478D01*
X83976Y339723D02*
X85453D01*
X83976Y317046D02*
X85440D01*
X83976Y318109D02*
X85428D01*
X83976Y338660D02*
X85418D01*
X83976Y339369D02*
X85406D01*
X83976Y317400D02*
X85400D01*
X83976Y317755D02*
X85396D01*
X83976Y339014D02*
X85394D01*
X103937Y100000D02*
X237795Y99961D01*
Y129527*
X239764Y131496D02*
G03X237795Y129527I0J-1969D01*
G01X239764Y131496D02*
X243684Y131495D01*
X249134Y218110*
X247289*
X245324Y220199D02*
G03X247289Y218110I1965J-120D01*
G01X245324Y220199D02*
X247486Y255632D01*
X249451Y257480D02*
G03X247486Y255632I0J-1968D01*
G01X249451Y257480D02*
X251614D01*
X258582Y368059*
G03X251509Y375591I-7073J445*
G01X178739*
X178741Y375354*
X170866Y375350D02*
G03X178741Y375357I3938J124D01*
G01X170866Y375354D02*
Y375591D01*
X147244*
Y323228*
X144488Y320472D02*
G03X147244Y323228I0J2756D01*
G01X144488Y320472D02*
X126378D01*
X123622Y323228D02*
G03X126378Y320472I2756J0D01*
G01X123622Y323228D02*
Y375591D01*
X90223*
G03X83151Y368059I0J-7087*
G01X84548Y346437*
X84567Y346379*
Y344764*
X83780Y343976D02*
G03X84567Y344764I-0J788D01*
G01X83780Y343976D02*
X83583D01*
G03X82795Y343189I-0J-787*
G01Y313780*
G03X83976Y312598I1181J-0*
G01X85551*
X86732Y311417D02*
G03X85551Y312598I-1181J0D01*
G01X86732Y311417D02*
Y311153D01*
X86851Y309686*
X90136Y257480*
X92244*
X94209Y255632D02*
G03X92244Y257480I-1965J-120D01*
G01X94209Y255634D02*
X96406Y220201D01*
X94441Y218110D02*
G03X96406Y220199I0J1969D01*
G01X94441Y218110D02*
X92598D01*
X98039Y131496*
X101969*
X103937Y129528D02*
G03X101969Y131496I-1968J-0D01*
G01X103937Y129528D02*
Y100000D01*
G54D21*
X101043Y338386D03*
Y318307D03*
G54D23*
X150157Y132480D02*
X143780Y138858D01*
Y173031*
X146850Y176102*
X155512*
X150157Y132480D02*
X151378D01*
X151575Y132677*
X200000Y127559D02*
X189764D01*
Y127598*
X185098Y132264*
X185020*
X185000Y132283*
X169291*
X184843Y109646D02*
Y113189D01*
X186614Y114961*
X198425*
X208661Y125197*
Y161024*
X179921Y109646D02*
Y114134D01*
X184134Y118346*
Y118386*
X196614*
X205394Y127165*
Y151220*
X201575Y155039*
Y161417*
X135433Y172835D02*
X145669Y183071D01*
X159055*
X208661Y197638D02*
Y206693D01*
X213976Y212008*
Y248228*
X201575Y197638D02*
Y209843D01*
X207087Y215354*
Y245669*
X208071Y246654*
Y248819*
X199213Y223622D02*
X192126D01*
X217323Y200787D02*
Y244882D01*
X229528Y192913D02*
X144488D01*
X142520Y194882*
X117362Y250000D02*
Y267047D01*
X142126Y242126D02*
X151575Y251575D01*
X238583*
X137008Y266142D02*
X137038D01*
Y269261*
X133465Y272835*
X131102*
X199213Y240945D02*
X188976D01*
X202362Y261417D02*
X197638Y266142D01*
X137038*
Y269261*
X133465Y272835*
X131102*
X223898Y263268D02*
X223740D01*
X203228Y283780*
X198543*
X187677Y294646*
X184173*
X181693Y297126*
Y301890*
X223898Y263268D02*
X224016Y263386D01*
X227559Y256693D02*
X201575D01*
X197244Y261024*
X194488*
X217717Y261811D02*
Y266142D01*
X202362Y281496*
X196772*
X185748Y292520*
X182520*
X178740Y296299*
Y304961*
X223307Y267402D02*
X204134Y286575D01*
X199528*
X188386Y297717*
X185709*
X120866Y284252D02*
X151969D01*
X144094Y301575D02*
X129921D01*
X105512Y325984*
X144094Y307087D02*
X129134D01*
X107874Y328346*
X208661Y306299D02*
Y350394D01*
X200394Y292520D02*
Y328740D01*
X196457Y332677*
X193307*
X203150Y290157D02*
Y329528D01*
X196457Y336220*
X192126*
X205906Y292520D02*
Y303543D01*
X205118Y304331*
Y331496*
X196850Y339764*
X193701*
X210236Y294094D02*
Y302756D01*
X211811Y304331*
Y326378*
X190551Y273228D02*
X139764D01*
X137008Y275984*
X101181*
X192126Y281102D02*
X188976Y284252D01*
X162992*
X189764Y278740D02*
X188189Y280315D01*
X146063*
X235433Y287008D02*
Y307087D01*
X221654Y320866*
X216929*
X159449Y324409D02*
X178346D01*
X180315Y326378*
X181102*
X140945Y311024D02*
X129921D01*
X110236Y330709*
G54D24*
X169291Y132283D03*
X151575Y132677D03*
X156063Y114803D03*
X159449Y109606D03*
X174016Y129134D03*
X136614Y140945D03*
X180906Y129134D03*
X200000Y127559D03*
X202362Y145669D03*
X176181Y138189D03*
X135433Y172835D03*
X107874Y186614D03*
X123622D03*
X107874Y166929D03*
X127559D03*
X159055Y183071D03*
X155512Y176102D03*
X175591Y186614D03*
X139370Y162992D03*
X148386Y170157D03*
X208661Y161024D03*
X201575Y161417D03*
X190551Y182677D03*
X226378Y170157D03*
X229921Y186614D03*
X216142Y182677D03*
X129528Y218110D03*
X96811Y215433D03*
X111811Y202362D03*
X142520Y194882D03*
X151181Y202362D03*
X171654Y201575D03*
X150787Y214961D03*
X208661Y197638D03*
X201575D03*
X192126Y223622D03*
X199213D03*
X196063Y197638D03*
X190551Y206299D03*
X210630Y213189D03*
X202362Y216142D03*
X190551Y214173D03*
X178740D03*
X217323Y200787D03*
X229528Y192913D03*
X241732Y198425D03*
X222047Y199606D03*
X94094Y261417D03*
X117362Y267047D03*
Y250000D03*
X133268Y266772D03*
X125354Y264803D03*
X115748Y229921D03*
X123622Y233858D03*
X111811Y247638D03*
X142126Y242126D03*
X137008Y266142D03*
X159055Y245669D03*
X144488Y268504D03*
X143307Y233858D03*
X159055Y261417D03*
X213976Y248228D03*
X208071Y248819D03*
X188976Y240945D03*
X199213D03*
X194488Y261024D03*
X202362Y261417D03*
X210236Y263386D03*
X178740Y257480D03*
X188583D03*
X204331Y247638D03*
X178740Y237795D03*
X188583Y233858D03*
X202362D03*
X211181Y233189D03*
X210984Y245787D03*
X179134Y243307D03*
X227559Y256693D03*
X238583Y251575D03*
X217717Y261811D03*
X224016Y263386D03*
X217323Y244882D03*
X223307Y267402D03*
X246260Y260512D03*
X231890Y259449D03*
X220079Y247638D03*
X92126Y292913D03*
X101181Y275984D03*
X120866Y284252D03*
X131102Y272835D03*
X119685Y273228D03*
Y296850D03*
X151969Y270866D03*
Y284252D03*
X139370Y296850D03*
X159055Y302756D03*
X164961Y288976D03*
X168898Y308661D03*
X162992Y284252D03*
X146063Y280315D03*
X144094Y301575D03*
Y307087D03*
X208661Y306299D03*
X200394Y292520D03*
X203150Y290157D03*
X205906Y292520D03*
X210236Y294094D03*
X178740Y304961D03*
X181693Y301890D03*
X190551Y273228D03*
X185709Y297717D03*
X176772Y292913D03*
X198425Y277165D03*
X208268Y288976D03*
X192126Y281102D03*
X189764Y278740D03*
X235433Y287008D03*
X218110Y292913D03*
X231890Y306693D03*
Y296850D03*
X222047Y275197D03*
X237795Y284252D03*
X249606Y300787D03*
X218110Y308661D03*
X241339Y306693D03*
X85039Y324409D03*
Y332283D03*
X96457Y324409D03*
Y332283D03*
X119685Y348031D03*
X131496Y316535D03*
X105512Y325984D03*
X107874Y328346D03*
X110236Y330709D03*
X159449Y324409D03*
X174803Y346457D03*
Y334252D03*
X154331Y348031D03*
X151181Y336220D03*
X140945Y311024D03*
X193307Y332677D03*
X192126Y336220D03*
X193701Y339764D03*
X211811Y326378D03*
X181102D03*
X182677Y322441D03*
X186614Y332283D03*
Y340157D03*
X178740Y310630D03*
X196457Y322441D03*
X216929Y320866D03*
X220079Y344094D03*
X225984Y328346D03*
X88189Y355906D03*
X103937Y371654D03*
X119685D03*
X167717Y372441D03*
X161811Y362992D03*
X155118Y371654D03*
X167717Y354724D03*
X208661Y350394D03*
X187402Y362992D03*
X181496Y372441D03*
X198425Y355906D03*
X203937Y371654D03*
X208661D03*
X253543Y351969D03*
X222047Y355906D03*
X237795Y371654D03*
X219291Y359843D03*
X222835Y371654D03*
G54D26*
X150787Y214961D02*
Y230906D01*
X160630Y240748*
X176575*
X179134Y243307*
X219685Y194488D02*
X171260D01*
X150787Y214961*
X219685Y194488D02*
X222047Y196850D01*
Y199606*
X232283*
X241339Y208661*
Y306693*
X165157Y106890D02*
Y107874D01*
X162402Y109646D02*
X163386D01*
X165157Y112402D02*
Y111417D01*
X175000Y106890D02*
Y107874D01*
Y112402D02*
Y111417D01*
X97697Y338386D02*
X98681D01*
X101043Y334449D02*
Y335433D01*
X104390Y338386D02*
X103406D01*
X90709Y335531D02*
Y336516D01*
X96024Y339075D02*
X95039D01*
X90709Y342618D02*
Y341634D01*
X85394Y339075D02*
X86378D01*
X97697Y318307D02*
X98681D01*
X104390D02*
X103406D01*
X101043Y322244D02*
Y321260D01*
X90709Y314075D02*
Y315059D01*
X96024Y317618D02*
X95039D01*
X90709Y321161D02*
Y320177D01*
X85394Y317618D02*
X86378D01*
X127244Y103228D02*
Y104213D01*
X122717Y107756D02*
X123701D01*
X127244Y112283D02*
Y111299D01*
X131772Y107756D02*
X130787D01*
G54D71*
X148386Y170157D02*
X226378D01*
G54D99*
X127244Y107756D03*
G74*
X0Y0D02*
M02*
