%
T1C.01181F0S0
X015157Y013268
X015606Y01148
X015945Y010961
X016929Y013228
X017402Y012913
X018091Y012913
X02Y012756
X022638Y017016
X021614Y018268
X020866Y016102
X020236Y014567
X020157Y016142
X019055Y018268
X017618Y013819
X015551Y01761
X014839Y017016
X013937Y016299
X013661Y014094
X013543Y017283
X012756Y016693
X010787Y016693
X010787Y018661
X011181Y020236
X012362Y018661
X014252Y019488
X015118Y020236
X015906Y018307
X017165Y020157
X017559Y018661
X019055Y02063
X019606Y019764
X020157Y019764
X020866Y019764
X021732Y020079
X022205Y019961
X022953Y019291
X022992Y018661
X024173Y019843
X021063Y021319
X020236Y021614
X019921Y022362
X019213Y022362
X019055Y021417
X017874Y021417
X015079Y021496
X012953Y021811
X011575Y022992
X009681Y021543
X011181Y024764
X011736Y025
X012362Y023386
X014213Y024213
X014331Y023386
X015906Y024567
X017874Y025748
X017874Y02378
X017913Y024331
X018858Y025748
X018858Y023386
X018898Y024094
X019921Y024094
X020236Y023386
X020433Y024764
X020807Y024882
X021098Y024579
X021118Y023319
X021398Y024823
X021732Y024488
X022008Y024764
X022756Y025669
X023858Y025157
X024626Y026051
X023189Y025945
X022402Y026339
X022331Y02674
X022205Y02752
X021772Y026181
X021024Y026339
X020236Y026142
X019843Y027717
X019449Y026102
X019213Y02811
X019055Y027323
X018976Y027874
X015906Y026142
X015197Y027087
X014606Y028031
X014449Y02685
X013701Y026614
X013327Y026677
X01311Y027283
X012535Y02648
X011969Y027323
X011736Y026705
X010118Y027598
X009409Y026142
X009213Y029291
X011969Y029685
X012087Y028425
X013937Y029685
X014409Y030709
X014409Y030157
X015197Y028425
X015906Y030276
X016299Y028425
X016496Y028898
X017677Y029291
X017874Y030496
X018169Y030189
X018571Y029772
X020039Y029252
X020315Y029016
X020591Y029252
X020827Y028898
X020866Y03063
X021024Y029409
X021811Y029291
X023189Y030669
X023189Y029685
X023543Y028701
X02378Y028425
X024134Y030669
X024961Y030079
X022598Y032835
X021811Y030866
X021693Y032087
X021181Y032638
X019646Y032244
X019331Y033268
X018661Y033228
X018268Y032244
X01811Y032638
X017874Y031063
X01689Y030866
X015945Y032441
X014094Y031102
X01315Y031654
X011024Y033071
X010787Y032835
X010551Y032598
X009646Y032441
X009646Y033228
X008504Y032441
X008504Y033228
X008819Y035591
X011969Y034803
X015118Y033622
X015433Y034803
X016772Y035472
X01748Y033425
X01748Y034646
X018661Y034016
X019213Y033622
X01937Y033976
X019843Y035591
X020866Y035039
X022008Y034409
X022205Y035591
X025354Y035197
X02378Y037165
X022283Y037165
X021929Y035984
X020866Y037165
X020394Y037165
X01874Y036299
X01815Y037244
X016772Y037244
X016181Y036299
X015512Y037165
X011969Y037165
X010394Y037165
T2C.01969F0S0
X016516Y010965
X017008Y010965
X0175Y010965
X017992Y010965
X018484Y010965
X018976Y010965
T3C.02362F0S0
X010104Y033917G85X010104Y03376
X010104Y031909G85X010104Y031752
X008933Y033907G85X009209Y033907
X008933Y031762G85X009209Y031762
T4C.03937F0S0
X01174Y010776
X012724Y010776
T5C.04331F0S0
X021024Y010906
X022598Y010906
T6C.07087F0S0
X01748Y035394
X01748Y037559
T7C.07874F0S0
X009213Y036772
X024961Y036772
M30
