*
*
G04 PADS 9.5 Build Number: 522968 generated Gerber (RS-274-X) file*
G04 PC Version=2.1*
*
%IN "Plasma_Pipette_V3.0_Mai"*%
*
%MOIN*%
*
%FSLAX35Y35*%
*
*
*
*
G04 PC Standard Apertures*
*
*
G04 Thermal Relief Aperture macro.*
%AMTER*
1,1,$1,0,0*
1,0,$1-$2,0,0*
21,0,$3,$4,0,0,45*
21,0,$3,$4,0,0,135*
%
*
*
G04 Annular Aperture macro.*
%AMANN*
1,1,$1,0,0*
1,0,$2,0,0*
%
*
*
G04 Odd Aperture macro.*
%AMODD*
1,1,$1,0,0*
1,0,$1-0.005,0,0*
%
*
*
G04 PC Custom Aperture Macros*
*
*
*
*
*
*
G04 PC Aperture Table*
*
%ADD010C,0.001*%
%ADD020C,0.00394*%
*
*
*
*
G04 PC Circuitry*
G04 Layer Name Plasma_Pipette_V3.0_Mai - circuitry*
%LPD*%
*
*
G04 PC Custom Flashes*
G04 Layer Name Plasma_Pipette_V3.0_Mai - flashes*
%LPD*%
*
*
G04 PC Circuitry*
G04 Layer Name Plasma_Pipette_V3.0_Mai - circuitry*
%LPD*%
*
G54D10*
G01X668268Y238189D02*
G75*
G03X668268I-7087J0D01*
G01Y190945D02*
G03X668268I-7087J0D01*
G01Y143701D02*
G03X668268I-7087J0D01*
G01X625354Y323819D02*
G03X625354I-3543J0D01*
G01X782835D02*
G03X782835I-3544J0D01*
G01X784241Y331693D02*
X823393D01*
X771417Y24606D02*
X823393D01*
X819456Y319882D02*
Y189331D01*
Y36417D02*
Y166969D01*
X817488Y319882D02*
X821425D01*
X819456Y331693*
X817488Y319882*
Y36417D02*
X821425D01*
X819456Y24606*
X817488Y36417*
X780304Y331693D02*
X780304D01*
X767480Y24606D02*
X767480D01*
X819456D02*
X819456D01*
X718760Y16732D02*
X682343D01*
X607711Y299405D02*
X608620Y300159D01*
X608214Y298799D02*
X609123Y299553D01*
X609407Y299214D02*
X608495Y298460D01*
X633622Y24606D02*
X767480D01*
X607711Y269493D02*
X608495Y270438D01*
X608620Y268739D02*
X609123Y269345D01*
X609407Y269684D02*
X609123Y269345D01*
X607715Y296260D02*
Y272638D01*
X608639Y296260D02*
Y272638D01*
X609409Y299213D02*
Y269685D01*
X611761Y294390D02*
Y293209D01*
Y275689D02*
Y274508D01*
X613346Y295669D02*
Y295177D01*
Y292421D02*
Y291929D01*
Y276969D02*
Y276476D01*
Y273720D02*
Y273228D01*
X773391Y87598D02*
X769449D01*
X631654D02*
X627711D01*
X612939Y323326D02*
X614258Y302284D01*
X616478Y266855D02*
X627711Y87598D01*
X614331Y273228D02*
Y273720D01*
Y276476D02*
Y276969D01*
Y291929D02*
Y292421D01*
Y295177D02*
Y295669D01*
X614882Y273720D02*
Y275000D01*
Y293898D02*
Y295177D01*
X616102Y273720D02*
Y275593D01*
Y293305D02*
Y295177D01*
X619134Y273720D02*
Y276476D01*
Y292421D02*
Y295177D01*
X623386Y286063D02*
Y282835D01*
X623976Y275118D02*
Y279685D01*
Y289213D02*
Y293780D01*
X624567Y274849D02*
Y275118D01*
Y293780D02*
Y294049D01*
X625079Y293780D02*
Y289213D01*
Y285918D02*
Y282980D01*
Y279685D02*
Y275118D01*
X625157Y294049D02*
Y290811D01*
Y278087D02*
Y274849D01*
X625551Y283819D02*
Y285079D01*
X627909Y279685D02*
Y289213D01*
X627913Y269685D02*
Y279685D01*
Y289213D02*
Y299213D01*
X629094Y272638D02*
Y296260D01*
X633622Y24606D02*
Y85630D01*
X652323Y247047D02*
Y229331D01*
Y199803D02*
Y182087D01*
Y152559D02*
Y134843D01*
X653307Y331693D02*
Y278937D01*
X652323Y134843D02*
X670039D01*
Y152559*
Y182087D02*
Y199803D01*
Y229331D02*
Y247047D01*
Y152559D02*
X652323D01*
X676929Y331693D02*
Y278937D01*
X682343Y16732D02*
Y24606D01*
X729094Y158465D02*
X742874D01*
Y164370D02*
X729094D01*
Y176181D02*
X742874D01*
Y182087D02*
X729094D01*
X652323D02*
X670039D01*
X729094Y193898D02*
X742874D01*
X609407Y269684D02*
X608495Y270438D01*
X608620Y268739D02*
X607711Y269493D01*
X609123Y269345D02*
X608214Y270099D01*
X609123Y299553D02*
X609407Y299214D01*
X608495Y298460D02*
X607711Y299405D01*
X609123Y299553D02*
X608620Y300159D01*
X718760Y16732D02*
Y24606D01*
X742874Y199803D02*
X729094D01*
X670039D02*
X652323D01*
X726732Y317913D02*
Y331693D01*
X729094Y272638D02*
Y266732D01*
Y199803D02*
Y193898D01*
Y182087D02*
Y176181D01*
Y164370D02*
Y158465D01*
X730079Y298228D02*
Y286417D01*
X730866Y331693D02*
Y335630D01*
X741102Y331693D02*
Y335630D01*
X741890Y286417D02*
Y298228D01*
X742874Y158465D02*
Y164370D01*
Y176181D02*
Y182087D01*
Y193898D02*
Y199803D01*
Y266732D02*
Y272638D01*
X745236Y317913D02*
Y331693D01*
X652323Y229331D02*
X670039D01*
X767480Y24606D02*
Y85630D01*
X670039Y247047D02*
X652323D01*
X773391Y87598D02*
X788163Y323326D01*
X729094Y266732D02*
X742874D01*
X614389Y268701D02*
X614514D01*
X627913Y269685D02*
X609408D01*
X608206Y271850D02*
X627913D01*
X742874Y272638D02*
X729094D01*
X629094D02*
X627913D01*
X607715D02*
X608639D01*
X614331Y273242D02*
X613346D01*
X612671Y273720D02*
X613346D01*
X614331D02*
X619134D01*
X616102Y273798D02*
X619134D01*
X612046Y273938D02*
X614882D01*
X627913Y274803D02*
X629094D01*
X625157Y274849D02*
X624567D01*
X619134Y274976D02*
X616102D01*
Y275003D02*
X619134D01*
X624567Y275118D02*
X623976D01*
X625079D02*
X625157D01*
X627913Y275439D02*
X625157D01*
X615472Y275591D02*
X615512D01*
X616102Y275593D02*
X615512D01*
X625157Y276342D02*
X627913D01*
X619134Y276476D02*
X614331D01*
X613346D02*
X612671D01*
X655669Y276575D02*
X674567D01*
X627913Y276957D02*
X629094D01*
X625551Y278410D02*
X626732D01*
X623976Y279685D02*
X629094D01*
X623386Y282835D02*
X624567D01*
Y286063D02*
X623386D01*
X730079Y286417D02*
X741890D01*
X629094Y289213D02*
X623976D01*
X626732Y290488D02*
X625551D01*
X627913Y291940D02*
X629094D01*
X612671Y292421D02*
X613346D01*
X614331D02*
X619134D01*
X627913Y292555D02*
X625157D01*
X615512Y293307D02*
X615472D01*
X625157Y293459D02*
X627913D01*
X623976Y293780D02*
X624567D01*
X625079D02*
X625157D01*
X619134Y293894D02*
X616102D01*
Y293922D02*
X619134D01*
X624567Y294049D02*
X625157D01*
X629094Y294094D02*
X627913D01*
X615512Y293306D02*
X616102Y293305D01*
X614882Y294959D02*
X612043D01*
X619134Y295099D02*
X616102D01*
X619134Y295177D02*
X614331D01*
X613346D02*
X612671D01*
X613346Y295655D02*
X614331D01*
X608639Y296260D02*
X607715D01*
X627913D02*
X629094D01*
X627913Y297047D02*
X608206D01*
X741890Y298228D02*
X730079D01*
X609409Y299213D02*
X627913D01*
X726732Y317913D02*
X745236D01*
X676929Y323819D02*
X653307D01*
X676929Y325787D02*
X653307D01*
Y331693D02*
X620798D01*
X676929D02*
X780304D01*
X730866Y335630D02*
X741102D01*
X788163Y323324D02*
G03X780304Y331693I-7859J495D01*
G01X620798D02*
G03X612940Y323324I0J-7874D01*
G01X674567Y276575D02*
G03X676929Y278937I-0J2362D01*
G01X653307D02*
G03X655669Y276575I2362J0D01*
G01X633622Y85630D02*
G03X631654Y87598I-1968J-0D01*
G01X769449D02*
G03X767480Y85630I-0J-1968D01*
G01X613342Y300496D02*
G03X614258Y302285I-1049J1665D01*
G01X616478Y266856D02*
G03X614514Y268701I-1964J-124D01*
G01X612686Y269682D02*
G03X614389Y268701I1703J987D01*
G01X613340Y300494D02*
G03X612459Y299214I1049J-1666D01*
G01X608496Y298460D02*
G03X609410Y298032I911J757D01*
G01Y270866D02*
G03X608496Y270438I-3J-1185D01*
G01X625551Y285080D02*
G03X624566Y286063I-985J-2D01*
G01X624568Y282835D02*
G03X625551Y283820I-2J985D01*
G01X614882Y293897D02*
G03X615473Y293307I591J1D01*
G01X615472Y275591D02*
G03X614882Y275000I2J-592D01*
G01X614331Y295669D02*
G03X613347I-492J0D01*
G01Y291929D02*
G03X614331I492J0D01*
G01X613347Y273228D02*
G03X614331I492J0D01*
G01Y276968D02*
G03X613347I-492J0D01*
G54D20*
G01X102224Y335630D02*
X102378Y335642D01*
X102529Y335678*
X102671Y335737*
X102803Y335818*
X102920Y335918*
X103021Y336036*
X103101Y336167*
X103160Y336310*
X103197Y336460*
X103209Y336614*
Y343701*
X103197Y343855*
X103160Y344005*
X103101Y344148*
X103021Y344279*
X102920Y344397*
X102803Y344497*
X102671Y344578*
X102529Y344637*
X102378Y344673*
X102224Y344685*
X99862*
X99708Y344673*
X99558Y344637*
X99415Y344578*
X99284Y344497*
X99166Y344397*
X99066Y344279*
X98985Y344148*
X98926Y344005*
X98890Y343855*
X98878Y343701*
Y336614*
X98890Y336460*
X98926Y336310*
X98985Y336167*
X99066Y336036*
X99166Y335918*
X99284Y335818*
X99415Y335737*
X99558Y335678*
X99708Y335642*
X99862Y335630*
X102224*
X98976Y336189D02*
Y344126D01*
X99173Y335912D02*
Y344403D01*
X99370Y335765D02*
Y344550D01*
X99567Y335676D02*
Y344639D01*
X99764Y335638D02*
Y344677D01*
X99961Y335630D02*
Y344685D01*
X100157Y335630D02*
Y344685D01*
X100354Y335630D02*
Y344685D01*
X100551Y335630D02*
Y344685D01*
X100748Y335630D02*
Y344685D01*
X100945Y335630D02*
Y344685D01*
X101142Y335630D02*
Y344685D01*
X101339Y335630D02*
Y344685D01*
X101535Y335630D02*
Y344685D01*
X101732Y335630D02*
Y344685D01*
X101929Y335630D02*
Y344685D01*
X102126Y335630D02*
Y344685D01*
X102323Y335638D02*
Y344677D01*
X102520Y335676D02*
Y344639D01*
X102717Y335765D02*
Y344550D01*
X102913Y335912D02*
Y344403D01*
X103110Y336189D02*
Y344126D01*
X102224Y312008D02*
X102378Y312020D01*
X102529Y312056*
X102671Y312115*
X102803Y312196*
X102920Y312296*
X103021Y312414*
X103101Y312545*
X103160Y312688*
X103197Y312838*
X103209Y312992*
Y320079*
X103197Y320233*
X103160Y320383*
X103101Y320526*
X103021Y320657*
X102920Y320775*
X102803Y320875*
X102671Y320956*
X102529Y321015*
X102378Y321051*
X102224Y321063*
X99862*
X99708Y321051*
X99558Y321015*
X99415Y320956*
X99284Y320875*
X99166Y320775*
X99066Y320657*
X98985Y320526*
X98926Y320383*
X98890Y320233*
X98878Y320079*
Y312992*
X98890Y312838*
X98926Y312688*
X98985Y312545*
X99066Y312414*
X99166Y312296*
X99284Y312196*
X99415Y312115*
X99558Y312056*
X99708Y312020*
X99862Y312008*
X102224*
X98976Y312567D02*
Y320504D01*
X99173Y312290D02*
Y320781D01*
X99370Y312143D02*
Y320928D01*
X99567Y312054D02*
Y321017D01*
X99764Y312016D02*
Y321055D01*
X99961Y312008D02*
Y321063D01*
X100157Y312008D02*
Y321063D01*
X100354Y312008D02*
Y321063D01*
X100551Y312008D02*
Y321063D01*
X100748Y312008D02*
Y321063D01*
X100945Y312008D02*
Y321063D01*
X101142Y312008D02*
Y321063D01*
X101339Y312008D02*
Y321063D01*
X101535Y312008D02*
Y321063D01*
X101732Y312008D02*
Y321063D01*
X101929Y312008D02*
Y321063D01*
X102126Y312008D02*
Y321063D01*
X102323Y312016D02*
Y321055D01*
X102520Y312054D02*
Y321017D01*
X102717Y312143D02*
Y320928D01*
X102913Y312290D02*
Y320781D01*
X103110Y312567D02*
Y320504D01*
X103937Y68521D02*
X237795Y68481D01*
Y129527*
X239764Y131496D02*
G03X237795Y129527I0J-1969D01*
G01X239764Y131496D02*
X243684Y131495D01*
X249134Y218110*
X249141*
G03X249215Y218180I0J74*
G01X251613Y257480*
X251614*
X258582Y368059*
G03X251509Y375591I-7073J445*
G01X178739*
X178741Y375354*
X170866Y375350D02*
G03X178741Y375357I3938J124D01*
G01X170866Y375354D02*
Y375591D01*
X147244*
Y323228*
X144488Y320472D02*
G03X147244Y323228I0J2756D01*
G01X144488Y320472D02*
X126378D01*
X123622Y323228D02*
G03X126378Y320472I2756J0D01*
G01X123622Y323228D02*
Y375591D01*
X90223*
G03X83151Y368059I0J-7087*
G01X84548Y346437*
X84567Y346379*
Y344764*
X83780Y343976D02*
G03X84567Y344764I-0J788D01*
G01X83780Y343976D02*
X83583D01*
G03X82795Y343189I-0J-787*
G01Y313780*
G03X83976Y312598I1181J-0*
G01X85551*
X86732Y311417D02*
G03X85551Y312598I-1181J0D01*
G01X86732Y311417D02*
Y311153D01*
X86851Y309686*
X90136Y257480*
X90141*
X92582Y218110*
X92598*
X98039Y131496*
X101969*
X103937Y129528D02*
G03X101969Y131496I-1968J-0D01*
G01X103937Y129528D02*
Y68521D01*
G74*
X0Y0D02*
M02*
