*
*
G04 PADS 9.5 Build Number: 522968 generated Gerber (RS-274-X) file*
G04 PC Version=2.1*
*
%IN "Plasma_Pipette_V3.0_Mai"*%
*
%MOIN*%
*
%FSLAX35Y35*%
*
*
*
*
G04 PC Standard Apertures*
*
*
G04 Thermal Relief Aperture macro.*
%AMTER*
1,1,$1,0,0*
1,0,$1-$2,0,0*
21,0,$3,$4,0,0,45*
21,0,$3,$4,0,0,135*
%
*
*
G04 Annular Aperture macro.*
%AMANN*
1,1,$1,0,0*
1,0,$2,0,0*
%
*
*
G04 Odd Aperture macro.*
%AMODD*
1,1,$1,0,0*
1,0,$1-0.005,0,0*
%
*
*
G04 PC Custom Aperture Macros*
*
*
*
*
*
*
G04 PC Aperture Table*
*
%ADD010C,0.001*%
%ADD020C,0.00394*%
%ADD022C,0.01575*%
%ADD023C,0.00787*%
%ADD044C,0.01*%
%ADD071C,0.01969*%
%ADD072C,0.00984*%
*
*
*
*
G04 PC Circuitry*
G04 Layer Name Plasma_Pipette_V3.0_Mai - circuitry*
%LPD*%
*
*
G04 PC Custom Flashes*
G04 Layer Name Plasma_Pipette_V3.0_Mai - flashes*
%LPD*%
*
*
G04 PC Circuitry*
G04 Layer Name Plasma_Pipette_V3.0_Mai - circuitry*
%LPD*%
*
G54D10*
G54D20*
G01X203150Y138583D02*
X200787D01*
Y135433*
X203150*
X204724Y138583D02*
X207087D01*
Y135433*
X204724*
X165157Y209843D02*
X162795D01*
Y206693*
X165157*
X166732Y209843D02*
X169094D01*
Y206693*
X166732*
X171654Y261417D02*
X174016D01*
Y264567*
X171654*
X170079Y261417D02*
X167717D01*
Y264567*
X170079*
X171654Y278740D02*
X174016D01*
Y281890*
X171654*
X170079Y278740D02*
X167717D01*
Y281890*
X170079*
X225197Y311024D02*
X227559D01*
Y314173*
X225197*
X223622Y311024D02*
X221260D01*
Y314173*
X223622*
Y240157D02*
X225984D01*
Y243307*
X223622*
X222047Y240157D02*
X219685D01*
Y243307*
X222047*
X242520Y294488D02*
X240157D01*
Y291339*
X242520*
X244094Y294488D02*
X246457D01*
Y291339*
X244094*
X192323Y313071D02*
Y310709D01*
X195472*
Y313071*
X192323Y314646D02*
Y317008D01*
X195472*
Y314646*
X171654Y287402D02*
X174016D01*
Y290551*
X171654*
X170079Y287402D02*
X167717D01*
Y290551*
X170079*
X169685Y312598D02*
X172047D01*
Y315748*
X169685*
X168110Y312598D02*
X165748D01*
Y315748*
X168110*
X116535Y166929D02*
X114173D01*
Y163780*
X116535*
X118110Y166929D02*
X120472D01*
Y163780*
X118110*
X116535Y162205D02*
X114173D01*
Y159055*
X116535*
X118110Y162205D02*
X120472D01*
Y159055*
X118110*
X171654Y282677D02*
X174016D01*
Y285827*
X171654*
X170079Y282677D02*
X167717D01*
Y285827*
X170079*
X117717Y130709D02*
X106693D01*
Y135433*
X117717*
Y130709*
X112520Y132283D02*
Y133858D01*
X111890Y132283D02*
Y133858D01*
X113386Y133071D02*
X112520D01*
X111890D02*
X111024D01*
X145669Y137795D02*
Y126772D01*
X140945*
Y137795*
X145669*
X144094Y132598D02*
X142520D01*
X144094Y131969D02*
X142520D01*
X143307Y133465D02*
Y132598D01*
Y131969D02*
Y131102D01*
X190945Y131890D02*
X179921D01*
Y136614*
X190945*
Y131890*
X185748Y133465D02*
Y135039D01*
X185118Y133465D02*
Y135039D01*
X186614Y134252D02*
X185748D01*
X185118D02*
X184252D01*
X174803Y240945D02*
X163780D01*
Y245669*
X174803*
Y240945*
X169606Y242520D02*
Y244094D01*
X168976Y242520D02*
Y244094D01*
X170472Y243307D02*
X169606D01*
X168976D02*
X168110D01*
X238976Y307874D02*
Y318898D01*
X243701*
Y307874*
X238976*
X240551Y313071D02*
X242126D01*
X240551Y313701D02*
X242126D01*
X241339Y312205D02*
Y313071D01*
Y313701D02*
Y314567D01*
X174016Y222244D02*
Y215551D01*
X166142Y222343D02*
X170079D01*
X162205Y222244D02*
Y215551D01*
X159055Y215354D02*
X161417Y213780D01*
X159055Y212205*
Y215354*
Y213780D02*
X161417D01*
X159055Y213386D02*
X160827D01*
X159055Y212992D02*
X160236D01*
X159055Y212598D02*
X159646D01*
X159055Y214173D02*
X160827D01*
X159055Y214567D02*
X160236D01*
X159055Y214961D02*
X159646D01*
X148031Y294488D02*
X154331D01*
Y291339*
X148031*
Y294488*
X207087Y131496D02*
X200787D01*
Y134646*
X207087*
Y131496*
X200787Y142520D02*
X207087D01*
Y139370*
X200787*
Y142520*
X149606Y276378D02*
Y270079D01*
X146457*
Y276378*
X149606*
X174016Y270866D02*
X167717D01*
Y274016*
X174016*
Y270866*
X114961Y274803D02*
Y268504D01*
X111811*
Y274803*
X114961*
X221260Y318898D02*
X227559D01*
Y315748*
X221260*
Y318898*
X123622Y308661D02*
X129921D01*
Y305512*
X123622*
Y308661*
X148031Y312598D02*
X154331D01*
Y309449*
X148031*
Y312598*
Y308661D02*
X154331D01*
Y305512*
X148031*
Y308661*
X133858Y163780D02*
Y170079D01*
X137008*
Y163780*
X133858*
X133071Y142126D02*
Y135827D01*
X129921*
Y142126*
X133071*
X123622Y304724D02*
X129921D01*
Y301575*
X123622*
Y304724*
X154331Y296063D02*
X148031D01*
Y299213*
X154331*
Y296063*
X148031Y303150D02*
X154331D01*
Y300000*
X148031*
Y303150*
X109449Y159055D02*
X103150D01*
Y162205*
X109449*
Y159055*
X161417Y282677D02*
X155118D01*
Y285827*
X161417*
Y282677*
Y286614D02*
X155118D01*
Y289764*
X161417*
Y286614*
X163780Y174528D02*
X157480D01*
Y177677*
X163780*
Y174528*
X203543Y317323D02*
X199409D01*
Y310236*
X203543*
X199803Y316732D02*
X213583D01*
Y310827*
X199803*
Y316732*
X214585Y314813D02*
Y312598D01*
X213780Y313706D02*
X215390D01*
X182087Y139370D02*
X191929D01*
Y147244*
X182087*
Y139370*
X173031Y236220D02*
X163189D01*
Y228346*
X173031*
Y236220*
X233071Y338189D02*
X226772D01*
Y341339*
X233071*
Y338189*
Y334646D02*
X226772D01*
Y337795*
X233071*
Y334646*
Y331102D02*
X226772D01*
Y334252*
X233071*
Y331102*
X109213Y331890D02*
X106850Y333465D01*
X109213Y335039*
Y331890*
Y333465D02*
X106850D01*
X109213Y333858D02*
X107441D01*
X109213Y334252D02*
X108031D01*
X109213Y334646D02*
X108622D01*
X109213Y333071D02*
X107441D01*
X109213Y332677D02*
X108031D01*
X109213Y332283D02*
X108622D01*
X138976Y256299D02*
X127165D01*
Y260236*
X138976*
Y256299*
X117717Y151378D02*
Y144685D01*
X109843Y151476D02*
X113780D01*
X105906Y151378D02*
Y144685D01*
X102756Y144488D02*
X105118Y142913D01*
X102756Y141339*
Y144488*
Y142913D02*
X105118D01*
X102756Y142520D02*
X104528D01*
X102756Y142126D02*
X103937D01*
X102756Y141732D02*
X103346D01*
X102756Y143307D02*
X104528D01*
X102756Y143701D02*
X103937D01*
X102756Y144094D02*
X103346D01*
X109055Y140157D02*
X107087D01*
X200000Y186614D02*
Y192913D01*
X203150*
Y186614*
X200000*
X207087D02*
Y192913D01*
X210236*
Y186614*
X207087*
X115748Y309449D02*
Y298425D01*
X111024*
Y309449*
X115748*
X113386Y303937D02*
G75*
G03Y304921I-111J492D01*
G01Y303937D02*
G03Y302953I111J-492D01*
G01X185433Y310512D02*
Y316811D01*
X188583*
Y310512*
X185433*
X182283D02*
Y316811D01*
X185433*
Y310512*
X182283*
X218504Y160236D02*
Y166535D01*
X221654*
Y160236*
X218504*
X139567Y246850D02*
X137992Y244488D01*
X136417Y246850*
X139567*
X137992D02*
Y244488D01*
X137598Y246850D02*
Y245079D01*
X137205Y246850D02*
Y245669D01*
X136811Y246850D02*
Y246260D01*
X138386Y246850D02*
Y245079D01*
X138780Y246850D02*
Y245669D01*
X139173Y246850D02*
Y246260D01*
X140354Y243701D02*
Y225984D01*
X122638*
Y243701*
X140354*
X122638D02*
Y225984D01*
X140354*
Y243701*
X122638*
X139567Y199606D02*
X137992Y197244D01*
X136417Y199606*
X139567*
X137992D02*
Y197244D01*
X137598Y199606D02*
Y197835D01*
X137205Y199606D02*
Y198425D01*
X136811Y199606D02*
Y199016D01*
X138386Y199606D02*
Y197835D01*
X138780Y199606D02*
Y198425D01*
X139173Y199606D02*
Y199016D01*
X140354Y196457D02*
Y178740D01*
X122638*
Y196457*
X140354*
X122638D02*
Y178740D01*
X140354*
Y196457*
X122638*
X219685Y207087D02*
X225984D01*
Y203937*
X219685*
Y207087*
Y238583D02*
X225984D01*
Y235433*
X219685*
Y238583*
Y225197D02*
X225984D01*
Y222047*
X219685*
Y225197*
X201579Y207283D02*
X211417D01*
Y203343*
X201579*
Y207283*
X206024Y205315D02*
X207205Y206102D01*
Y204528*
X206024Y205315*
X205827Y206102D02*
Y204528D01*
X206496Y205315D02*
X206929Y205591D01*
Y205039*
X206496Y205315*
X201579Y225000D02*
X211417D01*
Y221059*
X201579*
Y225000*
X206024Y223031D02*
X207205Y223819D01*
Y222244*
X206024Y223031*
X205827Y223819D02*
Y222244D01*
X206496Y223031D02*
X206929Y223307D01*
Y222756*
X206496Y223031*
X201579Y242717D02*
X211417D01*
Y238776*
X201579*
Y242717*
X206024Y240748D02*
X207205Y241535D01*
Y239961*
X206024Y240748*
X205827Y241535D02*
Y239961D01*
X206496Y240748D02*
X206929Y241024D01*
Y240472*
X206496Y240748*
X139567Y294094D02*
X137992Y291732D01*
X136417Y294094*
X139567*
X137992D02*
Y291732D01*
X137598Y294094D02*
Y292323D01*
X137205Y294094D02*
Y292913D01*
X136811Y294094D02*
Y293504D01*
X138386Y294094D02*
Y292323D01*
X138780Y294094D02*
Y292913D01*
X139173Y294094D02*
Y293504D01*
X140354Y290945D02*
Y273228D01*
X122638*
Y290945*
X140354*
X122638D02*
Y273228D01*
X140354*
Y290945*
X122638*
X197047Y361614D02*
X215551D01*
Y375394*
X197047*
Y361614*
X201181Y379331D02*
X211417D01*
Y375394*
X201181*
Y379331*
X140945Y217323D02*
X143307D01*
Y220472*
X140945*
X139370Y217323D02*
X137008D01*
Y220472*
X139370*
X140945Y203937D02*
X143307D01*
Y207087*
X140945*
X139370Y203937D02*
X137008D01*
Y207087*
X139370*
X137008Y211024D02*
X143307D01*
Y207874*
X137008*
Y211024*
Y216535D02*
X143307D01*
Y213386*
X137008*
Y216535*
X224803Y160236D02*
Y166535D01*
X227953*
Y160236*
X224803*
X199488Y156398D02*
Y175098D01*
X183976*
Y156398*
X199488*
X165748Y318898D02*
X172047D01*
Y315748*
X165748*
Y318898*
Y331004D02*
X171260D01*
Y322539*
X165748*
Y331004*
X166535Y326772D02*
X168504D01*
Y328740*
Y324803D02*
Y326772D01*
X170472*
X164961Y387402D02*
Y344094D01*
X184646*
Y387402*
X164961*
X179724Y117913D02*
Y124606D01*
X174606*
Y117913*
X179724*
X186811D02*
Y124606D01*
X181693*
Y117913*
X186811*
X212598Y351969D02*
X218898D01*
Y348819*
X212598*
Y351969*
X137402Y152362D02*
X125591D01*
Y156299*
X137402*
Y152362*
X123228Y256299D02*
X111417D01*
Y260236*
X123228*
Y256299*
X153937D02*
X142126D01*
Y260236*
X153937*
Y256299*
X222441Y144094D02*
X210630D01*
Y148031*
X222441*
Y144094*
X172913Y117835D02*
Y124528D01*
X167795*
Y117835*
X172913*
X164724Y117441D02*
X153701D01*
Y122165*
X164724*
Y117441*
X159528Y119016D02*
Y120591D01*
X158898Y119016D02*
Y120591D01*
X160394Y119803D02*
X159528D01*
X158898D02*
X158031D01*
X213780Y160236D02*
Y166535D01*
X216929*
Y160236*
X213780*
X163819Y170118D02*
X157520D01*
Y173268*
X163819*
Y170118*
X209276Y137694D02*
X209187Y137940D01*
X209008Y138186*
X208829Y138309*
X208471*
X208292Y138186*
X208113Y137940*
X208023Y137694*
X207934Y137325*
Y136710*
X208023Y136340*
X208113Y136094*
X208292Y135848*
X208471Y135725*
X208829*
X209008Y135848*
X209187Y136094*
X209276Y136340*
X210081Y137817D02*
X210260Y137940D01*
X210529Y138309*
Y135725*
X212229Y138309D02*
X211334Y136587D01*
X212676*
X212229Y138309D02*
Y135725D01*
X158241Y208698D02*
X158151Y208944D01*
X157972Y209190*
X157793Y209313*
X157436*
X157257Y209190*
X157078Y208944*
X156988Y208698*
X156899Y208329*
Y207714*
X156988Y207345*
X157078Y207099*
X157257Y206853*
X157436Y206730*
X157793*
X157972Y206853*
X158151Y207099*
X158241Y207345*
X159046Y208821D02*
X159225Y208944D01*
X159494Y209313*
Y206730*
X161462Y209313D02*
X160567D01*
X160478Y208206*
X160567Y208329*
X160836Y208452*
X161104*
X161373Y208329*
X161552Y208083*
X161641Y207714*
X161552Y207468*
X161462Y207099*
X161283Y206853*
X161015Y206730*
X160746*
X160478Y206853*
X160388Y206976*
X160299Y207222*
X163448Y263816D02*
X163359Y264062D01*
X163359D02*
X163180Y264309D01*
X163001Y264432*
X162643*
X162464Y264309*
X162285Y264062*
X162285D02*
X162196Y263816D01*
X162106Y263447*
Y262832*
X162196Y262463*
X162285Y262217*
X162464Y261971*
X162643Y261848*
X163001*
X163180Y261971*
X163359Y262217*
X163448Y262463*
X164254Y263939D02*
X164433Y264062D01*
X164433D02*
X164701Y264432D01*
Y261848*
X166670Y263570D02*
X166580Y263201D01*
X166401Y262955*
X166133Y262832*
X166043*
X165775Y262955*
X165596Y263201*
X165506Y263570*
Y263693*
X165596Y264062*
X165596D02*
X165775Y264309D01*
X166043Y264432*
X166133*
X166401Y264309*
X166580Y264062*
X166580D02*
X166670Y263570D01*
Y262955*
X166580Y262340*
X166401Y261971*
X166133Y261848*
X165954*
X165685Y261971*
X165596Y262217*
X164424Y281139D02*
X164334Y281385D01*
X164155Y281631*
X163976Y281754*
X163618*
X163440Y281631*
X163261Y281385*
X163171Y281139*
X163082Y280770*
Y280155*
X163171Y279786*
X163261Y279540*
X163440Y279294*
X163618Y279171*
X163976*
X164155Y279294*
X164334Y279540*
X164424Y279786*
X165319Y281139D02*
Y281262D01*
X165408Y281508*
X165497Y281631*
X165676Y281754*
X166034*
X166213Y281631*
X166303Y281508*
X166392Y281262*
Y281016*
X166303Y280770*
X166124Y280401*
X165229Y279171*
X166482*
X231111Y313029D02*
X231022Y313275D01*
X230843Y313521*
X230664Y313644*
X230306*
X230127Y313521*
X229948Y313275*
X229859Y313029*
X229769Y312660*
Y312045*
X229859Y311676*
X229948Y311430*
X230127Y311184*
X230306Y311061*
X230664*
X230843Y311184*
X231022Y311430*
X231111Y311676*
X232006Y313029D02*
Y313152D01*
X232096Y313398*
X232185Y313521*
X232364Y313644*
X232722*
X232901Y313521*
X232990Y313398*
X233080Y313152*
Y312906*
X232990Y312660*
X232811Y312291*
X231917Y311061*
X233169*
X234511Y313644D02*
X234243Y313521D01*
X234064Y313152*
X233975Y312537*
Y312168*
X234064Y311553*
X234243Y311184*
X234511Y311061*
X234690*
X234959Y311184*
X235138Y311553*
X235227Y312168*
Y312537*
X235138Y313152*
X234959Y313521*
X234690Y313644*
X234511*
X228758Y242163D02*
X228669Y242409D01*
X228490Y242655*
X228311Y242778*
X227953*
X227774Y242655*
X227595Y242409*
X227505Y242163*
X227416Y241794*
Y241179*
X227505Y240810*
X227595Y240563*
X227774Y240317*
X227953Y240194*
X228311*
X228490Y240317*
X228669Y240563*
X228758Y240810*
X229653Y242163D02*
Y242286D01*
X229742Y242532*
X229832Y242655*
X230011Y242778*
X230369*
X230548Y242655*
X230637Y242532*
X230727Y242286*
Y242040*
X230637Y241794*
X230458Y241425*
X229563Y240194*
X230816*
X231621Y242286D02*
X231800Y242409D01*
X232069Y242778*
Y240194*
X242135Y297675D02*
X242045Y297921D01*
X241867Y298167*
X241867D02*
X241688Y298290D01*
X241330*
X241151Y298167*
X240972Y297921*
X240882Y297675*
X240793Y297306*
Y296690*
X240882Y296321*
X240972Y296075*
X241151Y295829*
X241330Y295706*
X241688*
X241867Y295829*
X241867D02*
X242045Y296075D01*
X242135Y296321*
X243030Y297675D02*
Y297798D01*
X243119Y298044*
X243209Y298167*
X243388Y298290*
X243746*
X243924Y298167*
X244014Y298044*
X244103Y297798*
Y297552*
X244014Y297306*
X243835Y296937*
X242940Y295706*
X244193*
X245088Y297675D02*
Y297798D01*
X245177Y298044*
X245267Y298167*
X245446Y298290*
X245804*
X245982Y298167*
X246072Y298044*
X246161Y297798*
Y297552*
X246072Y297306*
X245893Y296937*
X244998Y295706*
X246251*
X193664Y319379D02*
X193418Y319290D01*
X193172Y319111*
X193049Y318932*
Y318574*
X193172Y318395*
X193418Y318216*
X193664Y318126*
X194033Y318037*
X194648*
X195017Y318126*
X195263Y318216*
X195509Y318395*
X195632Y318574*
Y318932*
X195509Y319111*
X195263Y319290*
X195017Y319379*
X193664Y320274D02*
X193541D01*
X193295Y320363*
X193172Y320453*
X193049Y320632*
Y320990*
X193172Y321169*
X193295Y321258*
X193541Y321348*
X193787*
X194033Y321258*
X194402Y321079*
X195632Y320184*
Y321437*
X193049Y322421D02*
Y323406D01*
X194033Y322869*
Y323137*
X194156Y323316*
X194279Y323406*
X194648Y323495*
X194894*
X195263Y323406*
X195509Y323227*
X195632Y322958*
Y322690*
X195509Y322421*
X195386Y322332*
X195140Y322242*
X168862Y293344D02*
X168772Y293590D01*
X168593Y293836*
X168414Y293959*
X168057*
X167878Y293836*
X167699Y293590*
X167609Y293344*
X167520Y292975*
Y292360*
X167609Y291991*
X167699Y291745*
X167878Y291499*
X168057Y291375*
X168414*
X168593Y291499*
X168772Y291745*
X168862Y291991*
X169757Y293344D02*
Y293467D01*
X169846Y293713*
X169936Y293836*
X170115Y293959*
X170472*
X170651Y293836*
X170741Y293713*
X170830Y293467*
Y293221*
X170741Y292975*
X170562Y292606*
X169667Y291375*
X170920*
X172620Y293959D02*
X171725Y292237D01*
X173067*
X172620Y293959D02*
Y291375D01*
X162062Y314604D02*
X161972Y314850D01*
X161793Y315096*
X161614Y315219*
X161256*
X161077Y315096*
X160898Y314850*
X160809Y314604*
X160719Y314235*
Y313620*
X160809Y313250*
X160898Y313004*
X161077Y312758*
X161256Y312635*
X161614*
X161793Y312758*
X161972Y313004*
X162062Y313250*
X163046Y315219D02*
X164030D01*
X163493Y314235*
X163762*
X163941Y314112*
X164030Y313989*
X164120Y313620*
Y313374*
X164030Y313004*
X163851Y312758*
X163583Y312635*
X163314*
X163046Y312758*
X162956Y312881*
X162867Y313127*
X122647Y166179D02*
X122557Y166425D01*
X122378Y166671*
X122199Y166794*
X121841*
X121662Y166671*
X121484Y166425*
X121394Y166179*
X121305Y165810*
Y165194*
X121394Y164825*
X121484Y164579*
X121662Y164333*
X121841Y164210*
X122199*
X122378Y164333*
X122557Y164579*
X122647Y164825*
X124347Y166794D02*
X123452Y165071D01*
X124794*
X124347Y166794D02*
Y164210D01*
X122647Y161061D02*
X122557Y161307D01*
X122378Y161553*
X122199Y161676*
X121841*
X121662Y161553*
X121484Y161307*
X121394Y161061*
X121305Y160691*
Y160076*
X121394Y159707*
X121484Y159461*
X121662Y159215*
X121841Y159092*
X122199*
X122378Y159215*
X122557Y159461*
X122647Y159707*
X124615Y161676D02*
X123720D01*
X123631Y160568*
X123720Y160691*
X123989Y160814*
X124257*
X124526Y160691*
X124705Y160445*
X124794Y160076*
X124705Y159830*
X124615Y159461*
X124436Y159215*
X124168Y159092*
X123899*
X123631Y159215*
X123542Y159338*
X123452Y159584*
X164469Y285076D02*
X164379Y285322D01*
X164200Y285568*
X164021Y285691*
X163663*
X163484Y285568*
X163305Y285322*
X163216Y285076*
X163126Y284707*
Y284092*
X163216Y283723*
X163305Y283477*
X163484Y283231*
X163663Y283108*
X164021*
X164200Y283231*
X164379Y283477*
X164469Y283723*
X166348Y285322D02*
X166258Y285568D01*
X165990Y285691*
X165811*
X165542Y285568*
X165363Y285199*
X165274Y284584*
Y283969*
X165363Y283477*
X165542Y283231*
X165811Y283108*
X165900*
X166169Y283231*
X166348Y283477*
X166437Y283846*
Y283969*
X166348Y284338*
X166169Y284584*
X165900Y284707*
X165811*
X165542Y284584*
X165363Y284338*
X165274Y283969*
X111972Y129134D02*
X111883Y129380D01*
X111704Y129626*
X111525Y129749*
X111167*
X110988Y129626*
X110809Y129380*
X110719Y129134*
X110630Y128765*
Y128150*
X110719Y127781*
X110809Y127534*
X110988Y127288*
X111167Y127165*
X111525*
X111704Y127288*
X111883Y127534*
X111972Y127781*
X112777Y129257D02*
X112956Y129380D01*
X113225Y129749*
Y127165*
X148819Y132122D02*
X149065Y132212D01*
X149311Y132391*
X149434Y132570*
Y132928*
X149311Y133107*
X149065Y133286*
X148819Y133375*
X148450Y133465*
X147835*
X147466Y133375*
X147219Y133286*
X146973Y133107*
X146850Y132928*
Y132570*
X146973Y132391*
X147219Y132212*
X147466Y132122*
X148942Y131317D02*
X149065Y131138D01*
X149434Y130870*
X146850*
X148819Y129975D02*
X148942D01*
X149188Y129885*
X149311Y129796*
X149434Y129617*
Y129259*
X149311Y129080*
X149188Y128991*
X148942Y128901*
X148696*
X148450Y128991*
X148081Y129170*
X146850Y130064*
Y128812*
X184457Y130499D02*
X184367Y130746D01*
X184188Y130992*
X184009Y131115*
X183651*
X183472Y130992*
X183293Y130746*
X183204Y130499*
X183114Y130130*
Y129515*
X183204Y129146*
X183293Y128900*
X183472Y128654*
X183651Y128531*
X184009*
X184188Y128654*
X184367Y128900*
X184457Y129146*
X185262Y130622D02*
X185441Y130746D01*
X185709Y131115*
Y128531*
X186693Y131115D02*
X187678D01*
X187141Y130130*
X187409*
X187588Y130007*
X187678Y129884*
X187767Y129515*
Y129269*
X187678Y128900*
X187499Y128654*
X187230Y128531*
X186962*
X186693Y128654*
X186604Y128777*
X186515Y129023*
X159216Y244094D02*
X159127Y244341D01*
X158948Y244587*
X158769Y244710*
X158411*
X158232Y244587*
X158053Y244341*
X157963Y244094*
X157874Y243725*
Y243110*
X157963Y242741*
X158053Y242495*
X158232Y242249*
X158411Y242126*
X158769*
X158948Y242249*
X159127Y242495*
X159216Y242741*
X160021Y244218D02*
X160200Y244341D01*
X160469Y244710*
Y242126*
X162348Y244341D02*
X162258Y244587D01*
X161990Y244710*
X161811*
X161543Y244587*
X161364Y244218*
X161274Y243602*
Y242987*
X161364Y242495*
X161543Y242249*
X161811Y242126*
X161901*
X161901D02*
X162169Y242249D01*
X162348Y242495*
X162437Y242864*
Y242987*
X162348Y243356*
X162169Y243602*
X161901Y243725*
X161901D02*
X161811D01*
X161543Y243602*
X161364Y243356*
X161274Y242987*
X245276Y312759D02*
X245030Y312670D01*
X244783Y312491*
X244660Y312312*
Y311954*
X244783Y311775*
X245030Y311596*
X245276Y311507*
X245645Y311417*
X246260*
X246629Y311507*
X246875Y311596*
X247121Y311775*
X247244Y311954*
Y312312*
X247121Y312491*
X246875Y312670*
X246629Y312759*
X245153Y313565D02*
X245030Y313744D01*
X244660Y314012*
X247244*
X244660Y315265D02*
X244783Y314996D01*
X245030Y314907*
X245276*
X245522Y314996*
X245645Y315175*
X245768Y315533*
X245891Y315802*
X246137Y315981*
X246383Y316070*
X246752*
X246998Y315981*
X247121Y315891*
X247244Y315623*
Y315265*
X247121Y314996*
X246998Y314907*
X246752Y314817*
X246383*
X246137Y314907*
X245891Y315086*
X245768Y315354*
X245645Y315712*
X245522Y315891*
X245276Y315981*
X245030*
X244783Y315891*
X244660Y315623*
Y315265*
X157275Y220534D02*
Y218688D01*
X157364Y218319*
X157543Y218073*
X157811Y217950*
X157990*
X158259Y218073*
X158438Y218319*
X158527Y218688*
Y220534*
X160496D02*
X159601D01*
X159511Y219427*
X159601Y219550*
X159869Y219673*
X160138*
X160406Y219550*
X160585Y219304*
X160675Y218935*
X160585Y218688*
X160496Y218319*
X160317Y218073*
X160048Y217950*
X159780*
X159511Y218073*
X159422Y218196*
X159332Y218442*
X155655Y294353D02*
Y291769D01*
Y294353D02*
X156460D01*
X156729Y294230*
X156818Y294107*
X156908Y293861*
Y293615*
X156818Y293369*
X156729Y293246*
X156460Y293123*
X155655*
X156281D02*
X156908Y291769D01*
X157713Y293861D02*
X157892Y293984D01*
X158160Y294353*
Y291769*
X207580Y134560D02*
Y131977D01*
Y134560D02*
X208385D01*
X208654Y134437*
X208743Y134314*
X208833Y134068*
Y133822*
X208743Y133576*
X208654Y133453*
X208385Y133330*
X207580*
X208206D02*
X208833Y131977D01*
X209638Y134068D02*
X209817Y134191D01*
X210085Y134560*
Y131977*
X211427Y134560D02*
X211159Y134437D01*
X210980Y134068*
X210891Y133453*
Y133084*
X210980Y132469*
X211159Y132100*
X211427Y131977*
X211606*
X211875Y132100*
X212054Y132469*
X212143Y133084*
Y133453*
X212054Y134068*
X211875Y134437*
X211606Y134560*
X211427*
X208241Y142187D02*
Y139604D01*
Y142187D02*
X209047D01*
X209315Y142064*
X209405Y141941*
X209494Y141695*
Y141449*
X209405Y141203*
X209315Y141080*
X209047Y140957*
X208241*
X208868D02*
X209494Y139604D01*
X210299Y141695D02*
X210478Y141818D01*
X210747Y142187*
Y139604*
X211552Y141695D02*
X211731Y141818D01*
X211999Y142187*
Y139604*
X146986Y264075D02*
X149569D01*
X146986D02*
Y264880D01*
X147109Y265149*
X147232Y265238*
X147478Y265327*
X147724*
X147970Y265238*
X148093Y265149*
X148216Y264880*
Y264075*
Y264701D02*
X149569Y265327D01*
X147478Y266133D02*
X147355Y266312D01*
X146986Y266580*
X149569*
X147601Y267475D02*
X147478D01*
X147232Y267564*
X147109Y267654*
X146986Y267833*
Y268191*
X147109Y268370*
X147232Y268459*
X147478Y268549*
X147724*
X147970Y268459*
X148339Y268280*
X149569Y267385*
Y268638*
X161713Y273487D02*
Y270903D01*
Y273487D02*
X162518D01*
X162786Y273364*
X162876Y273241*
X162965Y272995*
Y272749*
X162876Y272502*
X162786Y272379*
X162518Y272256*
X161713*
X162339D02*
X162965Y270903D01*
X163771Y272995D02*
X163950Y273118D01*
X164218Y273487*
Y270903*
X165202Y273487D02*
X166186D01*
X165650Y272502*
X165918*
X166097Y272379*
X166186Y272256*
X166276Y271887*
Y271641*
X166186Y271272*
X166008Y271026*
X165739Y270903*
X165471*
X165202Y271026*
X165113Y271149*
X165023Y271395*
X108403Y269148D02*
X110987D01*
X108403D02*
Y269953D01*
X108526Y270222*
X108649Y270311*
X108895Y270401*
X109141*
X109387Y270311*
X109510Y270222*
X109633Y269953*
Y269148*
Y269775D02*
X110987Y270401D01*
X108895Y271206D02*
X108772Y271385D01*
X108403Y271654*
X110987*
X108403Y273354D02*
X110125Y272459D01*
Y273801*
X108403Y273354D02*
X110987D01*
X229868Y318369D02*
Y315785D01*
Y318369D02*
X230673D01*
X230941Y318246*
X231031Y318123*
X231120Y317876*
Y317630*
X231031Y317384*
X230941Y317261*
X230673Y317138*
X229868*
X230494D02*
X231120Y315785D01*
X231926Y317876D02*
X232105Y318000D01*
X232373Y318369*
Y315785*
X234341Y317507D02*
X234252Y317138D01*
X234073Y316892*
X233805Y316769*
X233715*
X233447Y316892*
X233268Y317138*
X233178Y317507*
Y317630*
X233268Y318000*
X233447Y318246*
X233715Y318369*
X233805*
X234073Y318246*
X234252Y318000*
X234341Y317507*
Y316892*
X234252Y316277*
X234073Y315908*
X233805Y315785*
X233626*
X233357Y315908*
X233268Y316154*
X131237Y308132D02*
Y305549D01*
Y308132D02*
X132042D01*
X132310Y308009*
X132400Y307886*
X132489Y307640*
Y307394*
X132400Y307148*
X132310Y307025*
X132042Y306902*
X131237*
X131863D02*
X132489Y305549D01*
X133384Y307517D02*
Y307640D01*
X133474Y307886*
X133563Y308009*
X133742Y308132*
X134100*
X134279Y308009*
X134368Y307886*
X134458Y307640*
Y307394*
X134368Y307148*
X134189Y306779*
X133295Y305549*
X134547*
X156147Y312069D02*
Y309486D01*
Y312069D02*
X156952D01*
X157221Y311946*
X157310Y311823*
X157400Y311577*
Y311331*
X157310Y311085*
X157221Y310962*
X156952Y310839*
X156147*
X156773D02*
X157400Y309486D01*
X158295Y311454D02*
Y311577D01*
X158384Y311823*
X158474Y311946*
X158652Y312069*
X159010*
X159189Y311946*
X159279Y311823*
X159368Y311577*
Y311331*
X159279Y311085*
X159100Y310716*
X158205Y309486*
X159458*
X161158Y312069D02*
X160263Y310347D01*
X161605*
X161158Y312069D02*
Y309486D01*
X156147Y308132D02*
Y305549D01*
Y308132D02*
X156952D01*
X157221Y308009*
X157310Y307886*
X157400Y307640*
Y307394*
X157310Y307148*
X157221Y307025*
X156952Y306902*
X156147*
X156773D02*
X157400Y305549D01*
X158295Y307517D02*
Y307640D01*
X158384Y307886*
X158474Y308009*
X158652Y308132*
X159010*
X159189Y308009*
X159279Y307886*
X159368Y307640*
Y307394*
X159279Y307148*
X159100Y306779*
X158205Y305549*
X159458*
X161426Y308132D02*
X160531D01*
X160531D02*
X160442Y307025D01*
X160531Y307148*
X160531D02*
X160800Y307271D01*
X161068*
X161337Y307148*
X161516Y306902*
X161605Y306533*
X161516Y306287*
X161426Y305918*
X161247Y305672*
X160979Y305549*
X160710*
X160442Y305672*
X160353Y305795*
X160263Y306041*
X130450Y164066D02*
X133034D01*
X130450D02*
Y164871D01*
X130573Y165140*
X130696Y165229*
X130942Y165319*
X131188*
X131435Y165229*
X131558Y165140*
X131681Y164871*
Y164066*
Y164692D02*
X133034Y165319D01*
X131065Y166213D02*
X130942D01*
X130696Y166303*
X130573Y166392*
X130450Y166571*
Y166929*
X130573Y167108*
X130696Y167198*
X130942Y167287*
X131188*
X131435Y167198*
X131804Y167019*
X133034Y166124*
Y167377*
X130450Y168629D02*
X130573Y168361D01*
X130819Y168271*
X131065*
X131312Y168361*
X131435Y168540*
X131558Y168898*
X131681Y169166*
X131927Y169345*
X132173Y169435*
X132542*
X132788Y169345*
X132911Y169256*
X133034Y168987*
Y168629*
X132911Y168361*
X132788Y168271*
X132542Y168182*
X132173*
X131927Y168271*
X131681Y168450*
X131558Y168719*
X131435Y169077*
X131312Y169256*
X131065Y169345*
X130819*
X130573Y169256*
X130450Y168987*
Y168629*
X126120Y136158D02*
X128703D01*
X126120D02*
Y136963D01*
X126243Y137232*
X126366Y137321*
X126612Y137411*
X126858*
X127104Y137321*
X127227Y137232*
X127350Y136963*
Y136158*
Y136784D02*
X128703Y137411D01*
X126735Y138305D02*
X126612D01*
X126366Y138395*
X126243Y138484*
X126120Y138663*
Y139021*
X126243Y139200*
X126366Y139290*
X126612Y139379*
X126858*
X127104Y139290*
X127473Y139111*
X128703Y138216*
Y139469*
X126981Y141437D02*
X127350Y141348D01*
X127596Y141169*
X127719Y140900*
Y140811*
X127596Y140542*
X127350Y140363*
X126981Y140274*
X126858*
X126489Y140363*
X126243Y140542*
X126120Y140811*
Y140900*
X126243Y141169*
X126489Y141348*
X126981Y141437*
X127596*
X128211Y141348*
X128580Y141169*
X128703Y140900*
Y140721*
X128580Y140453*
X128334Y140363*
X131237Y304195D02*
Y301612D01*
Y304195D02*
X132042D01*
X132310Y304072*
X132400Y303949*
X132489Y303703*
Y303457*
X132400Y303211*
X132310Y303088*
X132042Y302965*
X131237*
X131863D02*
X132489Y301612D01*
X133474Y304195D02*
X134458D01*
X133921Y303211*
X134189*
X134368Y303088*
X134458Y302965*
X134547Y302596*
Y302350*
X134458Y301981*
X134279Y301735*
X134010Y301612*
X133742*
X133474Y301735*
X133384Y301858*
X133295Y302104*
X156782Y298684D02*
Y296100D01*
Y298684D02*
X157588D01*
X157856Y298561*
X157946Y298438*
X157946D02*
X158035Y298191D01*
Y297945*
X157946Y297699*
X157856Y297576*
X157588Y297453*
X156782*
X157409D02*
X158035Y296100D01*
X159735Y298684D02*
X158840Y296961D01*
X160183*
X159735Y298684D02*
Y296100D01*
X156389Y302621D02*
Y300037D01*
Y302621D02*
X157194D01*
X157462Y302498*
X157552Y302375*
X157641Y302128*
Y301882*
X157552Y301636*
X157462Y301513*
X157194Y301390*
X156389*
X157015D02*
X157641Y300037D01*
X159610Y302621D02*
X158715D01*
X158626Y301513*
X158715Y301636*
X158984Y301759*
X159252*
X159520Y301636*
X159699Y301390*
X159789Y301021*
X159699Y300775*
X159610Y300406*
X159431Y300160*
X159162Y300037*
X158894*
X158626Y300160*
X158536Y300283*
X158447Y300529*
X104116Y165219D02*
Y162635D01*
Y165219D02*
X104921D01*
X105190Y165096*
X105279Y164973*
X105369Y164727*
Y164481*
X105279Y164235*
X105190Y164112*
X104921Y163989*
X104116*
X104742D02*
X105369Y162635D01*
X107248Y164850D02*
X107158Y165096D01*
X106890Y165219*
X106711*
X106442Y165096*
X106263Y164727*
X106174Y164112*
Y163497*
X106263Y163004*
X106442Y162758*
X106711Y162635*
X106800*
X107069Y162758*
X107248Y163004*
X107337Y163374*
Y163497*
X107248Y163866*
X107069Y164112*
X106800Y164235*
X106711*
X106442Y164112*
X106263Y163866*
X106174Y163497*
X149741Y285298D02*
Y282714D01*
Y285298D02*
X150546D01*
X150814Y285175*
X150904Y285052*
X150993Y284806*
Y284560*
X150904Y284313*
X150814Y284190*
X150546Y284067*
X149741*
X150367D02*
X150993Y282714D01*
X153051Y285298D02*
X152156Y282714D01*
X151798Y285298D02*
X153051D01*
X149741Y289235D02*
Y286651D01*
Y289235D02*
X150546D01*
X150814Y289112*
X150904Y288989*
X150993Y288743*
Y288497*
X150904Y288250*
X150814Y288127*
X150546Y288004*
X149741*
X150367D02*
X150993Y286651D01*
X152246Y289235D02*
X151977Y289112D01*
X151888Y288866*
Y288620*
X151977Y288374*
X152156Y288250*
X152514Y288127*
X152783Y288004*
X152962Y287758*
X153051Y287512*
Y287143*
X152962Y286897*
X152872Y286774*
X152604Y286651*
X152246*
X151977Y286774*
X151888Y286897*
X151798Y287143*
X151798D02*
Y287512D01*
X151798D02*
X151888Y287758D01*
X152067Y288004*
X152335Y288127*
X152693Y288250*
X152872Y288374*
X152962Y288620*
Y288866*
X152872Y289112*
X152604Y289235*
X152246*
X164659Y177509D02*
Y174925D01*
Y177509D02*
X165464D01*
X165732Y177386*
X165822Y177263*
X165911Y177017*
Y176771*
X165822Y176525*
X165732Y176402*
X165464Y176279*
X164659*
X165285D02*
X165911Y174925D01*
X167880Y176648D02*
X167790Y176279D01*
X167611Y176033*
X167343Y175910*
X167254*
X166985Y176033*
X166806Y176279*
X166717Y176648*
Y176771*
X166806Y177140*
X166985Y177386*
X167254Y177509*
X167343*
X167611Y177386*
X167790Y177140*
X167880Y176648*
Y176033*
X167790Y175418*
X167611Y175048*
X167343Y174925*
X167164*
X166896Y175048*
X166806Y175295*
X228686Y304668D02*
Y302822D01*
X228776Y302453*
X228955Y302207*
X229223Y302084*
X229402*
X229671Y302207*
X229850Y302453*
X229939Y302822*
Y304668*
X230744Y304176D02*
X230923Y304299D01*
X231192Y304668*
Y302084*
X203740Y321026D02*
Y318701D01*
X204814*
X205619Y321026D02*
Y318701D01*
Y321026D02*
X206782D01*
X205619Y319919D02*
X206335D01*
X205619Y318701D02*
X206782D01*
X207588Y321026D02*
Y318701D01*
Y321026D02*
X208214D01*
X208482Y320915*
X208661Y320694*
X208751Y320472*
X208840Y320140*
Y319587*
X208751Y319254*
X208661Y319033*
X208482Y318812*
X208214Y318701*
X207588*
X209735Y320472D02*
Y320583D01*
X209825Y320805*
X209914Y320915*
X210093Y321026*
X210451*
X210630Y320915*
X210719Y320805*
X210809Y320583*
Y320362*
X210719Y320140*
X210540Y319808*
X209646Y318701*
X210898*
X182171Y151935D02*
Y149351D01*
Y151935D02*
X182798D01*
X183066Y151812*
X183245Y151566*
X183335Y151320*
X183424Y150951*
Y150335*
X183335Y149966*
X183245Y149720*
X183066Y149474*
X182798Y149351*
X182171*
X184229Y151443D02*
X184408Y151566D01*
X184677Y151935*
Y149351*
X157266Y234117D02*
Y231533D01*
X158339*
X160039Y234117D02*
X159145Y232394D01*
X160487*
X160039Y234117D02*
Y231533D01*
X152294Y172155D02*
Y169571D01*
X153367*
X154352Y172155D02*
X155336D01*
X154799Y171171*
X155067*
X155246Y171048*
X155336Y170925*
X155425Y170555*
Y170309*
X155336Y169940*
X155157Y169694*
X154888Y169571*
X154620*
X154352Y169694*
X154262Y169817*
X154173Y170063*
X203150Y345891D02*
Y343307D01*
X204223*
X205029Y345891D02*
Y343307D01*
Y345891D02*
X206192D01*
X205029Y344660D02*
X205744D01*
X205029Y343307D02*
X206192D01*
X206997Y345891D02*
Y343307D01*
Y345891D02*
X207623D01*
X207892Y345768*
X208071Y345522*
X208160Y345276*
X208250Y344906*
Y344291*
X208160Y343922*
X208071Y343676*
X207892Y343430*
X207623Y343307*
X206997*
X209055Y345399D02*
X209234Y345522D01*
X209503Y345891*
Y343307*
X234109Y340810D02*
Y338226D01*
Y340810D02*
X234914D01*
X235183Y340687*
X235272Y340563*
X235361Y340317*
Y340071*
X235272Y339825*
X235183Y339702*
X234914Y339579*
X234109*
X234735D02*
X235361Y338226D01*
X236167Y340317D02*
X236346Y340440D01*
X236614Y340810*
Y338226*
X238583Y340810D02*
X237688D01*
X237598Y339702*
X237688Y339825*
X237956Y339948*
X238225*
X238493Y339825*
X238672Y339579*
X238762Y339210*
X238672Y338964*
X238583Y338595*
X238404Y338349*
X238135Y338226*
X237867*
X237598Y338349*
X237509Y338472*
X237419Y338718*
X234198Y337266D02*
Y334683D01*
Y337266D02*
X235004D01*
X235272Y337143*
X235361Y337020*
X235451Y336774*
Y336528*
X235361Y336282*
X235272Y336159*
X235004Y336036*
X234198*
X234825D02*
X235451Y334683D01*
X236256Y336774D02*
X236435Y336897D01*
X236704Y337266*
Y334683*
X238583Y336897D02*
X238493Y337143D01*
X238225Y337266*
X238046*
X237777Y337143*
X237598Y336774*
X237509Y336159*
Y335544*
X237598Y335052*
X237777Y334806*
X238046Y334683*
X238135*
X238404Y334806*
X238583Y335052*
X238672Y335421*
Y335544*
X238583Y335913*
X238404Y336159*
X238135Y336282*
X238046*
X237777Y336159*
X237598Y335913*
X237509Y335544*
X234154Y333723D02*
Y331139D01*
Y333723D02*
X234959D01*
X235227Y333600*
X235317Y333477*
X235406Y333231*
Y332985*
X235317Y332739*
X235227Y332616*
X234959Y332493*
X234154*
X234780D02*
X235406Y331139D01*
X236212Y333231D02*
X236390Y333354D01*
X236659Y333723*
Y331139*
X238717Y333723D02*
X237822Y331139D01*
X237464Y333723D02*
X238717D01*
X93414Y350615D02*
Y348647D01*
X93325Y348278*
X93236Y348155*
X93057Y348031*
X92878*
X92699Y348155*
X92609Y348278*
X92520Y348647*
Y348893*
X95115Y350615D02*
X94220Y348893D01*
X95562*
X95115Y350615D02*
Y348031D01*
X124642Y253408D02*
X124463Y253285D01*
X124284Y253039*
X124195Y252793*
X124105Y252424*
Y251809*
X124195Y251439*
X124284Y251193*
X124463Y250947*
X124642Y250824*
X125000*
X125179Y250947*
X125358Y251193*
X125447Y251439*
X125537Y251809*
Y252424*
X125447Y252793*
X125358Y253039*
X125179Y253285*
X125000Y253408*
X124642*
X124911Y251316D02*
X125447Y250578D01*
X127505Y252547D02*
X127416Y252178D01*
X127237Y251932*
X126969Y251809*
X126879*
X126611Y251932*
X126432Y252178*
X126342Y252547*
Y252670*
X126432Y253039*
X126611Y253285*
X126879Y253408*
X126969*
X127237Y253285*
X127416Y253039*
X127505Y252547*
Y251932*
X127416Y251316*
X127237Y250947*
X126969Y250824*
X126790*
X126521Y250947*
X126432Y251193*
X100922Y151833D02*
Y149988D01*
X101011Y149619*
X101190Y149373*
X101458Y149250*
X101637*
X101906Y149373*
X102085Y149619*
X102174Y149988*
Y151833*
X103069Y151218D02*
Y151341D01*
X103159Y151587*
X103248Y151710*
X103427Y151833*
X103785*
X103964Y151710*
X104053Y151587*
X104143Y151341*
Y151095*
X104053Y150849*
X103874Y150480*
X102980Y149250*
X104232*
X196198Y187303D02*
X198782D01*
X196198D02*
Y188108D01*
X196321Y188377*
X196444Y188466*
X196690Y188556*
X196937*
X197183Y188466*
X197306Y188377*
X197429Y188108*
Y187303*
Y187929D02*
X198782Y188556D01*
X196690Y189361D02*
X196567Y189540D01*
X196198Y189809*
X198782*
X196198Y191061D02*
X196321Y190793D01*
X196567Y190703*
X196813*
X197060Y190793*
X197183Y190972*
X197306Y191330*
X197429Y191598*
X197675Y191777*
X197921Y191866*
X197921D02*
X198290D01*
X198290D02*
X198536Y191777D01*
X198659Y191688*
X198782Y191419*
Y191061*
X198659Y190793*
X198536Y190703*
X198290Y190614*
X197921*
X197675Y190703*
X197429Y190882*
X197306Y191151*
X197183Y191509*
X197060Y191688*
X196813Y191777*
X196567*
X196321Y191688*
X196198Y191419*
Y191061*
X211159Y187294D02*
X213743D01*
X211159D02*
Y188099D01*
X211159D02*
X211282Y188368D01*
X211405Y188457*
X211651Y188547*
X211897*
X212143Y188457*
X212266Y188368*
X212389Y188099*
X212389D02*
Y187294D01*
Y187921D02*
X213743Y188547D01*
X211774Y189442D02*
X211651D01*
X211405Y189531*
X211282Y189621*
X211159Y189800*
Y190157*
X211282Y190336*
X211405Y190426*
X211651Y190515*
X211897*
X212143Y190426*
X212512Y190247*
X213743Y189352*
Y190605*
X211159Y192663D02*
X213743Y191768D01*
X211159Y191410D02*
Y192663D01*
X106865Y302362D02*
X109449D01*
Y303436*
X107480Y304331D02*
X107357D01*
X107111Y304420*
X106988Y304510*
X106865Y304689*
Y305047*
X106988Y305225*
X107111Y305315*
X107357Y305404*
X107603*
X107849Y305315*
X108219Y305136*
X109449Y304241*
Y305494*
X185568Y318234D02*
X188152D01*
X185568D02*
Y319039D01*
X185691Y319307*
X185814Y319397*
X186061Y319486*
X186307*
X186553Y319397*
X186676Y319307*
X186799Y319039*
Y318234*
Y318860D02*
X188152Y319486D01*
X185568Y321186D02*
X187291Y320292D01*
Y321634*
X185568Y321186D02*
X188152D01*
X185568Y322976D02*
X185691Y322708D01*
X186061Y322529*
X186676Y322439*
X187045*
X187660Y322529*
X188029Y322708*
X188152Y322976*
Y323155*
X188029Y323423*
X187660Y323602*
X187045Y323692*
X186676*
X186061Y323602*
X185691Y323423*
X185568Y323155*
Y322976*
X182419Y318243D02*
X185002D01*
X182419D02*
Y319048D01*
X182542Y319316*
X182665Y319406*
X182911Y319495*
X183157*
X183403Y319406*
X183526Y319316*
X183649Y319048*
Y318243*
Y318869D02*
X185002Y319495D01*
X182419Y321195D02*
X184141Y320301D01*
Y321643*
X182419Y321195D02*
X185002D01*
X182911Y322448D02*
X182788Y322627D01*
X182419Y322895*
X185002*
X219033Y169193D02*
X221617D01*
X219033D02*
Y169998D01*
X219156Y170267*
X219279Y170356*
X219525Y170446*
X219771*
X220017Y170356*
X220140Y170267*
X220263Y169998*
Y169193*
Y169819D02*
X221617Y170446D01*
X219033Y171430D02*
Y172414D01*
X220017Y171877*
Y172146*
X220140Y172325*
X220263Y172414*
X220632Y172504*
X220878*
X221248Y172414*
X221494Y172235*
X221617Y171967*
Y171698*
X221494Y171430*
X221371Y171340*
X221125Y171251*
X219525Y173309D02*
X219402Y173488D01*
X219033Y173756*
X221617*
X128346Y248056D02*
Y246211D01*
X128436Y245842*
X128615Y245595*
X128883Y245472*
X129062*
X129331Y245595*
X129510Y245842*
X129599Y246211*
Y248056*
X130404D02*
Y245472D01*
Y248056D02*
X131210D01*
X131478Y247933*
X131568Y247810*
X131657Y247564*
Y247195*
X131568Y246949*
X131478Y246826*
X131210Y246703*
X130404*
X125984Y200812D02*
Y198228D01*
Y200812D02*
X126611D01*
X126879Y200689*
X127058Y200443*
X127147Y200197*
X127237Y199828*
Y199213*
X127147Y198844*
X127147D02*
X127058Y198597D01*
X126879Y198351*
X126611Y198228*
X125984*
X128579Y200812D02*
X128400Y200689D01*
X128221Y200443*
X128132Y200197*
X128042Y199828*
Y199213*
X128132Y198844*
X128132D02*
X128221Y198597D01*
X128400Y198351*
X128579Y198228*
X128937*
X129116Y198351*
X129295Y198597*
X129384Y198844*
X129384D02*
X129474Y199213D01*
Y199828*
X129384Y200197*
X129295Y200443*
X129116Y200689*
X128937Y200812*
X128579*
X130279D02*
X130727Y198228D01*
X131174Y200812D02*
X130727Y198228D01*
X131174Y200812D02*
X131621Y198228D01*
X132069Y200812D02*
X131621Y198228D01*
X132874Y200812D02*
Y198228D01*
Y200812D02*
X134127Y198228D01*
Y200812D02*
Y198228D01*
X227067Y206951D02*
Y204368D01*
Y206951D02*
X227872D01*
X228141Y206828*
X228230Y206705*
X228320Y206459*
Y206213*
X228230Y205967*
X228141Y205844*
X227872Y205721*
X227067*
X227693D02*
X228320Y204368D01*
X229214Y206336D02*
Y206459D01*
X229304Y206705*
X229393Y206828*
X229572Y206951*
X229930*
X230109Y206828*
X230199Y206705*
X230288Y206459*
Y206213*
X230199Y205967*
X230020Y205598*
X229125Y204368*
X230378*
X231183Y206459D02*
X231362Y206582D01*
X231630Y206951*
Y204368*
X227845Y238054D02*
Y235470D01*
Y238054D02*
X228651D01*
X228919Y237931*
X229009Y237808*
X229098Y237562*
Y237315*
X229009Y237069*
X228919Y236946*
X228651Y236823*
X227845*
X228472D02*
X229098Y235470D01*
X229993Y237438D02*
Y237562D01*
X230082Y237808*
X230172Y237931*
X230351Y238054*
X230709*
X230888Y237931*
X230977Y237808*
X231067Y237562*
Y237315*
X230977Y237069*
X230798Y236700*
X229903Y235470*
X231156*
X232051Y237438D02*
Y237562D01*
X232140Y237808*
X232230Y237931*
X232409Y238054*
X232767*
X232946Y237931*
X233035Y237808*
X233125Y237562*
Y237315*
X233035Y237069*
X232856Y236700*
X231961Y235470*
X233214*
X227845Y224668D02*
Y222084D01*
Y224668D02*
X228651D01*
X228919Y224545*
X229009Y224422*
X229098Y224176*
Y223930*
X229009Y223684*
X228919Y223561*
X228651Y223437*
X228651D02*
X227845D01*
X228472D02*
X229098Y222084D01*
X229993Y224053D02*
Y224176D01*
X230082Y224422*
X230172Y224545*
X230351Y224668*
X230709*
X230888Y224545*
X230977Y224422*
X231067Y224176*
Y223930*
X230977Y223684*
X230798Y223314*
X229903Y222084*
X231156*
X232140Y224668D02*
X233125D01*
X232588Y223684*
X232856*
X233035Y223561*
X233125Y223437*
X233125D02*
X233214Y223068D01*
Y222822*
X233125Y222453*
X232946Y222207*
X232677Y222084*
X232409*
X232140Y222207*
X232051Y222330*
X231961Y222576*
X203543Y210593D02*
Y208268D01*
X204617*
X205422Y210593D02*
Y208268D01*
Y210593D02*
X206586D01*
X205422Y209486D02*
X206138D01*
X205422Y208268D02*
X206586D01*
X207391Y210593D02*
Y208268D01*
Y210593D02*
X208017D01*
X208286Y210482*
X208465Y210261*
X208554Y210039*
X208644Y209707*
Y209154*
X208554Y208821*
X208465Y208600*
X208286Y208378*
X208017Y208268*
X207391*
X209628Y210593D02*
X210612D01*
X210075Y209707*
X210344*
X210523Y209596*
X210612Y209486*
X210702Y209154*
Y208932*
X210612Y208600*
X210433Y208378*
X210165Y208268*
X209896*
X209628Y208378*
X209538Y208489*
X209449Y208711*
X202756Y228310D02*
Y225984D01*
X203830*
X204635Y228310D02*
Y225984D01*
Y228310D02*
X205798D01*
X204635Y227202D02*
X205351D01*
X204635Y225984D02*
X205798D01*
X206603Y228310D02*
Y225984D01*
Y228310D02*
X207230D01*
X207498Y228199*
X207677Y227977*
X207767Y227756*
X207856Y227424*
Y226870*
X207767Y226538*
X207677Y226316*
X207498Y226095*
X207230Y225984*
X206603*
X209556Y228310D02*
X208661Y226759D01*
X210004*
X209556Y228310D02*
Y225984D01*
X203543Y246026D02*
Y243701D01*
X204617*
X205422Y246026D02*
Y243701D01*
Y246026D02*
X206586D01*
X205422Y244919D02*
X206138D01*
X205422Y243701D02*
X206586D01*
X207391Y246026D02*
Y243701D01*
Y246026D02*
X208017D01*
X208286Y245915*
X208465Y245694*
X208554Y245472*
X208644Y245140*
Y244587*
X208554Y244254*
X208465Y244033*
X208286Y243812*
X208017Y243701*
X207391*
X210612Y246026D02*
X209717D01*
X209628Y245030*
X209717Y245140*
X209986Y245251*
X210254*
X210523Y245140*
X210702Y244919*
X210791Y244587*
X210702Y244365*
X210612Y244033*
X210433Y243812*
X210165Y243701*
X209896*
X209628Y243812*
X209538Y243922*
X209449Y244144*
X125197Y295300D02*
Y292717D01*
Y295300D02*
X126002D01*
X126271Y295177*
X126360Y295054*
X126450Y294808*
Y294439*
X126360Y294193*
X126271Y294070*
X126002Y293947*
X125197*
X127792Y295300D02*
X127613Y295177D01*
X127434Y294931*
X127344Y294685*
X127255Y294316*
Y293701*
X127344Y293332*
X127434Y293086*
X127613Y292840*
X127792Y292717*
X128150*
X128329Y292840*
X128508Y293086*
X128597Y293332*
X128686Y293701*
Y294316*
X128597Y294685*
X128508Y294931*
X128329Y295177*
X128150Y295300*
X127792*
X129492D02*
X129939Y292717D01*
X130387Y295300D02*
X129939Y292717D01*
X130387Y295300D02*
X130834Y292717D01*
X131281Y295300D02*
X130834Y292717D01*
X132087Y295300D02*
Y292717D01*
Y295300D02*
X133250D01*
X132087Y294070D02*
X132802D01*
X132087Y292717D02*
X133250D01*
X134055Y295300D02*
Y292717D01*
Y295300D02*
X134860D01*
X135129Y295177*
X135218Y295054*
X135308Y294808*
Y294562*
X135218Y294316*
X135129Y294193*
X134860Y294070*
X134055*
X134681D02*
X135308Y292717D01*
X205977Y358907D02*
X205798Y359154D01*
X205530Y359277*
X205172*
X204903Y359154*
X204724Y358907*
Y358661*
X204814Y358415*
X204903Y358292*
X205082Y358169*
X205619Y357923*
X205798Y357800*
X205888Y357677*
X205977Y357431*
Y357062*
X205798Y356816*
X205530Y356693*
X205172*
X204903Y356816*
X204724Y357062*
X206782Y359277D02*
X207230Y356693D01*
X207677Y359277D02*
X207230Y356693D01*
X207677Y359277D02*
X208125Y356693D01*
X208572Y359277D02*
X208125Y356693D01*
X209377Y358784D02*
X209556Y358907D01*
X209825Y359277*
Y356693*
X145526Y219328D02*
X145437Y219574D01*
X145258Y219820*
X145079Y219943*
X144721*
X144542Y219820*
X144363Y219574*
X144273Y219328*
X144184Y218959*
Y218344*
X144273Y217975*
X144363Y217729*
X144542Y217483*
X144721Y217360*
X145079*
X145258Y217483*
X145437Y217729*
X145526Y217975*
X147584Y219943D02*
X146689Y217360D01*
X146331Y219943D02*
X147584D01*
X145526Y205942D02*
X145437Y206188D01*
X145258Y206435*
X145079Y206558*
X144721*
X144542Y206435*
X144363Y206188*
X144273Y205942*
X144184Y205573*
Y204958*
X144273Y204589*
X144363Y204343*
X144542Y204097*
X144721Y203974*
X145079*
X145258Y204097*
X145437Y204343*
X145526Y204589*
X146779Y206558D02*
X146510Y206435D01*
X146421Y206188*
Y205942*
X146510Y205696*
X146689Y205573*
X147047Y205450*
X147316Y205327*
X147495Y205081*
X147584Y204835*
Y204466*
X147495Y204220*
X147405Y204097*
X147137Y203974*
X146779*
X146510Y204097*
X146421Y204220*
X146331Y204466*
Y204835*
X146421Y205081*
X146600Y205327*
X146868Y205450*
X147226Y205573*
X147405Y205696*
X147495Y205942*
Y206188*
X147405Y206435*
X147137Y206558*
X146779*
X144381Y210495D02*
Y207911D01*
Y210495D02*
X145186D01*
X145455Y210372*
X145544Y210249*
X145634Y210002*
X145634D02*
Y209756D01*
X145634D02*
X145544Y209510D01*
X145455Y209387*
X145186Y209264*
X144381*
X145007D02*
X145634Y207911D01*
X146528Y209879D02*
Y210002D01*
X146618Y210249*
X146707Y210372*
X146886Y210495*
X147244*
X147423Y210372*
X147513Y210249*
X147602Y210002*
Y209756*
X147513Y209510*
X147334Y209141*
X146439Y207911*
X147691*
X149034Y210495D02*
X148765Y210372D01*
X148586Y210002*
X148497Y209387*
Y209018*
X148586Y208403*
X148765Y208034*
X149034Y207911*
X149213*
X149481Y208034*
X149660Y208403*
X149749Y209018*
Y209387*
X149660Y210002*
X149481Y210372*
X149213Y210495*
X149034*
X144426Y216006D02*
Y213423D01*
Y216006D02*
X145231D01*
X145499Y215883*
X145589Y215760*
X145678Y215514*
Y215268*
X145589Y215022*
X145499Y214899*
X145231Y214776*
X144426*
X145052D02*
X145678Y213423D01*
X146573Y215391D02*
Y215514D01*
X146662Y215760*
X146752Y215883*
X146931Y216006*
X147289*
X147468Y215883*
X147557Y215760*
X147647Y215514*
Y215268*
X147557Y215022*
X147378Y214653*
X146484Y213423*
X147736*
X149615Y215637D02*
X149526Y215883D01*
X149257Y216006*
X149078*
X148810Y215883*
X148631Y215514*
X148542Y214899*
Y214284*
X148631Y213792*
X148810Y213546*
X149078Y213423*
X149168*
X149436Y213546*
X149615Y213792*
X149705Y214161*
Y214284*
X149615Y214653*
X149436Y214899*
X149168Y215022*
X149078*
X148810Y214899*
X148631Y214653*
X148542Y214284*
X229269Y160916D02*
X231853D01*
X229269D02*
Y161722D01*
X229392Y161990*
X229515Y162079*
X229761Y162169*
X230007*
X230253Y162079*
X230376Y161990*
X230500Y161722*
Y160916*
Y161543D02*
X231853Y162169D01*
X229269Y163153D02*
Y164137D01*
X230253Y163601*
Y163869*
X230376Y164048*
X230500Y164137*
X230869Y164227*
X231115*
X231484Y164137*
X231730Y163958*
X231853Y163690*
Y163422*
X231730Y163153*
X231607Y163064*
X231361Y162974*
X229269Y165569D02*
X229392Y165301D01*
X229761Y165122*
X230376Y165032*
X230746*
X231361Y165122*
X231730Y165301*
X231853Y165569*
Y165748*
X231730Y166016*
X231361Y166195*
X230746Y166285*
X230376*
X229761Y166195*
X229392Y166016*
X229269Y165748*
Y165569*
X179224Y166519D02*
Y163935D01*
Y166519D02*
X179850D01*
X180119Y166396*
X180298Y166150*
X180387Y165904*
X180477Y165535*
Y164920*
X180387Y164550*
X180387D02*
X180298Y164304D01*
X180119Y164058*
X179850Y163935*
X179224*
X181371Y165904D02*
Y166027D01*
X181461Y166273*
X181550Y166396*
X181729Y166519*
X182087*
X182266Y166396*
X182356Y166273*
X182445Y166027*
Y165781*
X182356Y165535*
X182177Y165166*
X181282Y163935*
X182535*
X159341Y318369D02*
Y315785D01*
Y318369D02*
X160147D01*
X160415Y318246*
X160505Y318123*
X160594Y317876*
Y317630*
X160505Y317384*
X160415Y317261*
X160147Y317138*
X159341*
X159968D02*
X160594Y315785D01*
X161578Y318369D02*
X162563D01*
X162026Y317384*
X162294*
X162473Y317261*
X162563Y317138*
X162652Y316769*
Y316523*
X162563Y316154*
X162384Y315908*
X162115Y315785*
X161847*
X161578Y315908*
X161489Y316031*
X161399Y316277*
X163547Y317753D02*
Y317876D01*
X163636Y318123*
X163726Y318246*
X163905Y318369*
X164263*
X164442Y318246*
X164531Y318123*
X164621Y317876*
Y317630*
X164531Y317384*
X164352Y317015*
X163457Y315785*
X164710*
X166874Y335017D02*
Y333171D01*
X166963Y332802*
X167142Y332556*
X167411Y332433*
X167590*
X167858Y332556*
X168037Y332802*
X168127Y333171*
Y335017*
X170006Y334648D02*
X169916Y334894D01*
X169648Y335017*
X169469*
X169200Y334894*
X169021Y334525*
X168932Y333909*
Y333294*
X169021Y332802*
X169200Y332556*
X169469Y332433*
X169558*
X169827Y332556*
X170006Y332802*
X170095Y333171*
Y333294*
X170006Y333663*
X169827Y333909*
X169558Y334032*
X169469*
X169200Y333909*
X169021Y333663*
X168932Y333294*
X152470Y352190D02*
Y350221D01*
X152380Y349852*
X152291Y349729*
X152112Y349606*
X151933*
X151754Y349729*
X151664Y349852*
X151575Y350221*
Y350468*
X153275Y351698D02*
X153454Y351821D01*
X153722Y352190*
Y349606*
X175945Y114828D02*
Y112244D01*
Y114828D02*
X176571D01*
X176840Y114705*
X177019Y114459*
X177108Y114213*
X177198Y113844*
Y113228*
X177108Y112859*
X177019Y112613*
X176840Y112367*
X176571Y112244*
X175945*
X178182Y114828D02*
X179166D01*
X178629Y113844*
X178898*
X179077Y113720*
X179166Y113597*
X179256Y113228*
Y112982*
X179166Y112613*
X178987Y112367*
X178719Y112244*
X178450*
X178182Y112367*
X178092Y112490*
X178003Y112736*
X182913Y114946D02*
Y112362D01*
Y114946D02*
X183540D01*
X183808Y114823*
X183987Y114577*
X184077Y114331*
X184166Y113962*
Y113346*
X184077Y112977*
X183987Y112731*
X183808Y112485*
X183540Y112362*
X182913*
X185866Y114946D02*
X184971Y113223D01*
X186314*
X185866Y114946D02*
Y112362D01*
X212885Y355770D02*
Y353187D01*
Y355770D02*
X213690D01*
X213958Y355647*
X214048Y355524*
X214137Y355278*
Y355032*
X214048Y354786*
X213958Y354663*
X213690Y354540*
X212885*
X213511D02*
X214137Y353187D01*
X215122Y355770D02*
X216106D01*
X215569Y354786*
X215838*
X216016Y354663*
X216106Y354540*
X216195Y354171*
Y353925*
X216106Y353556*
X215927Y353310*
X215659Y353187*
X215390*
X215122Y353310*
X215032Y353433*
X214943Y353679*
X217180Y355770D02*
X218164D01*
X217627Y354786*
X217895*
X218074Y354663*
X218164Y354540*
X218253Y354171*
Y353925*
X218164Y353556*
X217985Y353310*
X217717Y353187*
X217448*
X217180Y353310*
X217090Y353433*
X217001Y353679*
X135576Y149077D02*
X135397Y148954D01*
X135218Y148708*
X135129Y148462*
X135039Y148093*
Y147478*
X135129Y147109*
X135218Y146863*
X135397Y146617*
X135576Y146494*
X135934*
X136113Y146617*
X136292Y146863*
X136382Y147109*
X136471Y147478*
Y148093*
X136382Y148462*
X136292Y148708*
X136113Y148954*
X135934Y149077*
X135576*
X135845Y146986D02*
X136382Y146248D01*
X138440Y149077D02*
X137545D01*
X137455Y147970*
X137545Y148093*
X137813Y148216*
X138082*
X138350Y148093*
X138529Y147847*
X138618Y147478*
X138529Y147232*
X138440Y146863*
X138261Y146617*
X137992Y146494*
X137724*
X137455Y146617*
X137366Y146740*
X137276Y146986*
X109646Y253802D02*
X109467Y253679D01*
X109288Y253433*
X109198Y253187*
X109109Y252817*
Y252202*
X109198Y251833*
X109288Y251587*
X109467Y251341*
X109646Y251218*
X110004*
X110183Y251341*
X110361Y251587*
X110451Y251833*
X110540Y252202*
Y252817*
X110451Y253187*
X110361Y253433*
X110183Y253679*
X110004Y253802*
X109646*
X109914Y251710D02*
X110451Y250972D01*
X111346Y253310D02*
X111525Y253433D01*
X111793Y253802*
Y251218*
X140345Y253408D02*
X140166Y253285D01*
X139987Y253039*
X139898Y252793*
X139809Y252424*
Y251809*
X139898Y251439*
X139987Y251193*
X140166Y250947*
X140345Y250824*
X140703*
X140882Y250947*
X141061Y251193*
X141151Y251439*
X141240Y251809*
Y252424*
X141151Y252793*
X141061Y253039*
X140882Y253285*
X140703Y253408*
X140345*
X140614Y251316D02*
X141151Y250578D01*
X142135Y252793D02*
Y252916D01*
X142224Y253162*
X142314Y253285*
X142493Y253408*
X142851*
X143030Y253285*
X143119Y253162*
X143209Y252916*
Y252670*
X143119Y252424*
X142940Y252055*
X142045Y250824*
X143298*
X224204Y147896D02*
X224025Y147773D01*
X223846Y147527*
X223756Y147281*
X223667Y146912*
Y146297*
X223756Y145928*
X223846Y145682*
X224025Y145436*
X224204Y145312*
X224204D02*
X224562D01*
X224562D02*
X224741Y145436D01*
X224919Y145682*
X225009Y145928*
X225098Y146297*
Y146912*
X225009Y147281*
X224919Y147527*
X224741Y147773*
X224562Y147896*
X224204*
X224472Y145805D02*
X225009Y145066D01*
X226083Y147896D02*
X227067D01*
X226530Y146912*
X226798*
X226798D02*
X226977Y146789D01*
X227067Y146666*
X227156Y146297*
Y146051*
X227067Y145682*
X226888Y145436*
X226620Y145312*
X226620D02*
X226351D01*
X226351D02*
X226083Y145436D01*
X225993Y145559*
X225904Y145805*
X168346Y114710D02*
Y112126D01*
Y114710D02*
X168973D01*
X169241Y114587*
X169420Y114341*
X169510Y114094*
X169599Y113725*
Y113110*
X169510Y112741*
X169420Y112495*
X169241Y112249*
X168973Y112126*
X168346*
X171568Y114710D02*
X170673D01*
X170583Y113602*
X170673Y113725*
X170941Y113848*
X171210*
X171478Y113725*
X171657Y113479*
X171747Y113110*
X171657Y112864*
X171568Y112495*
X171389Y112249*
X171120Y112126*
X170852*
X170583Y112249*
X170494Y112372*
X170404Y112618*
X159086Y125753D02*
X158996Y125999D01*
X158817Y126245*
X158638Y126368*
X158280*
X158101Y126245*
X157922Y125999*
X157833Y125753*
X157743Y125384*
Y124769*
X157833Y124400*
X157922Y124154*
X158101Y123908*
X158280Y123785*
X158638*
X158817Y123908*
X158996Y124154*
X159086Y124400*
X161054Y125507D02*
X160965Y125138D01*
X160786Y124892*
X160517Y124769*
X160428*
X160159Y124892*
X159980Y125138*
X159891Y125507*
Y125630*
X159980Y125999*
X160159Y126245*
X160428Y126368*
X160517*
X160786Y126245*
X160965Y125999*
X161054Y125507*
Y124892*
X160965Y124277*
X160786Y123908*
X160517Y123785*
X160338*
X160070Y123908*
X159980Y124154*
X214309Y168746D02*
X216892D01*
X214309D02*
Y169551D01*
X214432Y169819*
X214555Y169909*
X214801Y169998*
X215047*
X215293Y169909*
X215416Y169819*
X215539Y169551*
Y168746*
Y169372D02*
X216892Y169998D01*
X214309Y170982D02*
Y171967D01*
X215293Y171430*
Y171698*
X215416Y171877*
X215539Y171967*
X215908Y172056*
X216154*
X216523Y171967*
X216769Y171788*
X216892Y171519*
Y171251*
X216769Y170982*
X216646Y170893*
X216400Y170804*
X214309Y173756D02*
X216031Y172861D01*
Y174204*
X214309Y173756D02*
X216892D01*
X220079Y136048D02*
Y133465D01*
Y136048D02*
X220705D01*
X220974Y135925*
X221152Y135679*
X221242Y135433*
X221331Y135064*
Y134449*
X221242Y134080*
X221152Y133834*
X220974Y133588*
X220705Y133465*
X220079*
X223210Y135679D02*
X223121Y135925D01*
X222853Y136048*
X222674*
X222405Y135925*
X222226Y135556*
X222137Y134941*
Y134326*
X222226Y133834*
X222405Y133588*
X222674Y133465*
X222763*
X223031Y133588*
X223210Y133834*
X223300Y134203*
Y134326*
X223210Y134695*
X223031Y134941*
X222763Y135064*
X222674*
X222405Y134941*
X222226Y134695*
X222137Y134326*
X168808Y143123D02*
Y141277D01*
X168898Y140908*
X169077Y140662*
X169345Y140539*
X169524*
X169792Y140662*
X169971Y140908*
X170061Y141277*
Y143123*
X171761D02*
X170866Y141400D01*
X172208*
X171761Y143123D02*
Y140539D01*
X164771Y172992D02*
Y170409D01*
Y172992D02*
X165577D01*
X165845Y172869*
X165935Y172746*
X166024Y172500*
Y172254*
X165935Y172008*
X165845Y171885*
X165577Y171762*
X164771*
X165398D02*
X166024Y170409D01*
X167008Y172992D02*
X167993D01*
X167456Y172008*
X167724*
X167903Y171885*
X167993Y171762*
X168082Y171393*
Y171147*
X167993Y170778*
X167814Y170532*
X167545Y170409*
X167277*
X167008Y170532*
X166919Y170655*
X166829Y170901*
X170051Y172992D02*
X169156D01*
X169066Y171885*
X169156Y172008*
X169424Y172131*
X169693*
X169961Y172008*
X170140Y171762*
X170230Y171393*
X170140Y171147*
X170051Y170778*
X169872Y170532*
X169603Y170409*
X169335*
X169066Y170532*
X168977Y170655*
X168887Y170901*
X97581Y244803D02*
X101457D01*
X97581D02*
Y246011D01*
X97766Y246414*
X97950Y246548*
X98319Y246682*
X98873*
X99242Y246548*
X99427Y246414*
X99611Y246011*
Y244803*
X97581Y247890D02*
X101457D01*
X98873Y250709D02*
X101457D01*
X99427D02*
X99058Y250440D01*
X98873Y250172*
Y249769*
X99058Y249501*
X99427Y249232*
X99980Y249098*
X100349*
X100903Y249232*
X101272Y249501*
X101457Y249769*
Y250172*
X101272Y250440*
X100903Y250709*
X99427Y253393D02*
X99058Y253259D01*
X98873Y252856*
Y252453*
X99058Y252051*
X99427Y251917*
X99796Y252051*
X99980Y252319*
X100165Y252990*
X100349Y253259*
X100719Y253393*
X100903*
X101272Y253259*
X101457Y252856*
Y252453*
X101272Y252051*
X100903Y251917*
X98873Y254601D02*
X101457D01*
X99611D02*
X99058Y255004D01*
X98873Y255272*
Y255675*
X99058Y255943*
X99611Y256077*
X101457*
X99611D02*
X99058Y256480D01*
X98873Y256748*
Y257151*
X99058Y257419*
X99611Y257554*
X101457*
X98873Y260372D02*
X101457D01*
X99427D02*
X99058Y260104D01*
X98873Y259835*
Y259433*
X99058Y259164*
X99427Y258896*
X99980Y258762*
X100349*
X100903Y258896*
X101272Y259164*
X101457Y259433*
Y259835*
X101272Y260104*
X100903Y260372*
X97581Y264667D02*
X101457D01*
X97581D02*
Y265875D01*
X97766Y266278*
X97950Y266412*
X98319Y266546*
X98873*
X99242Y266412*
X99427Y266278*
X99611Y265875*
Y264667*
X97581Y267754D02*
X97766Y267888D01*
X97581Y268023*
X97397Y267888*
X97581Y267754*
X98873Y267888D02*
X101457D01*
X98873Y269230D02*
X102749D01*
X99427D02*
X99058Y269499D01*
X98873Y269767*
Y270170*
X99058Y270438*
X99427Y270707*
X99980Y270841*
X100349*
X100903Y270707*
X101272Y270438*
X101457Y270170*
Y269767*
X101272Y269499*
X100903Y269230*
X99980Y272049D02*
Y273660D01*
X99611*
X99242Y273525*
X99058Y273391*
X98873Y273123*
Y272720*
X99058Y272452*
X99427Y272183*
X99980Y272049*
X100349*
X100903Y272183*
X101272Y272452*
X101457Y272720*
Y273123*
X101272Y273391*
X100903Y273660*
X97581Y275270D02*
X100719D01*
X101272Y275404*
X101457Y275673*
Y275941*
X98873Y274868D02*
Y275807D01*
X97581Y277552D02*
X100719D01*
X101272Y277686*
X101457Y277955*
Y278223*
X98873Y277149D02*
Y278089D01*
X99980Y279431D02*
Y281042D01*
X99611*
X99242Y280907*
X99058Y280773*
X98873Y280505*
Y280102*
X99058Y279834*
X99427Y279565*
X99980Y279431*
X100349*
X100903Y279565*
X101272Y279834*
X101457Y280102*
Y280505*
X101272Y280773*
X100903Y281042*
X97581Y285336D02*
X101457D01*
X97581D02*
X101457Y286410D01*
X97581Y287484D02*
X101457Y286410D01*
X97581Y287484D02*
X101457D01*
X98873Y290302D02*
X101457D01*
X99427D02*
X99058Y290034D01*
X98873Y289766*
Y289363*
X99058Y289094*
X99427Y288826*
X99980Y288692*
X100349*
X100903Y288826*
X101272Y289094*
X101457Y289363*
Y289766*
X101272Y290034*
X100903Y290302*
X97581Y291510D02*
X97766Y291645D01*
X97581Y291779*
X97397Y291645*
X97581Y291510*
X98873Y291645D02*
X101457D01*
X98873Y292987D02*
X101457D01*
X99611D02*
X99058Y293389D01*
X98873Y293658*
Y294060*
X99058Y294329*
X99611Y294463*
X101457*
X98873Y298758D02*
X101457Y299563D01*
X98873Y300369D02*
X101457Y299563D01*
X97581Y301845D02*
Y303321D01*
X99058Y302516*
Y302919*
X99242Y303187*
X99427Y303321*
X99980Y303456*
X100349*
X100903Y303321*
X101272Y303053*
X101457Y302650*
Y302248*
X101272Y301845*
X101088Y301711*
X100719Y301577*
X101088Y304798D02*
X101272Y304664D01*
X101457Y304798*
X101272Y304932*
X101088Y304798*
X97581Y306945D02*
X97766Y306543D01*
X98319Y306274*
X99242Y306140*
X99796*
X100719Y306274*
X101272Y306543*
X101457Y306945*
Y307214*
X101272Y307616*
X100719Y307885*
X99796Y308019*
X99242*
X98319Y307885*
X97766Y307616*
X97581Y307214*
Y306945*
X103420Y279209D02*
X103666Y279030D01*
X104035Y278851*
X104528Y278672*
X105143Y278583*
X105635*
X106250Y278672*
X106742Y278851*
X107111Y279030*
X107357Y279209*
X104528Y280104D02*
X104405D01*
X104158Y280193*
X104035Y280283*
X103912Y280462*
Y280820*
X104035Y280999*
X104158Y281088*
X104405Y281178*
X104651*
X104897Y281088*
X105266Y280909*
X106496Y280014*
Y281267*
X103912Y282609D02*
X104035Y282341D01*
X104405Y282162*
X105020Y282072*
X105389*
X106004Y282162*
X106373Y282341*
X106496Y282609*
Y282788*
X106373Y283057*
X106004Y283236*
X105389Y283325*
X105020*
X104405Y283236*
X104035Y283057*
X103912Y282788*
Y282609*
X104405Y284130D02*
X104281Y284309D01*
X103912Y284578*
X106496*
X104774Y286546D02*
X105143Y286457D01*
X105389Y286278*
X105512Y286009*
Y285920*
X105389Y285651*
X105143Y285472*
X104774Y285383*
X104651*
X104281Y285472*
X104035Y285651*
X103912Y285920*
Y286009*
X104035Y286278*
X104281Y286457*
X104774Y286546*
X105389*
X106004Y286457*
X106373Y286278*
X106496Y286009*
Y285830*
X106373Y285562*
X106127Y285472*
X106250Y287441D02*
X106373Y287351D01*
X106496Y287441*
X106373Y287530*
X106250Y287441*
X103912Y288873D02*
X104035Y288604D01*
X104405Y288425*
X105020Y288336*
X105389*
X106004Y288425*
X106373Y288604*
X106496Y288873*
Y289052*
X106373Y289320*
X106004Y289499*
X105389Y289588*
X105020*
X104405Y289499*
X104035Y289320*
X103912Y289052*
Y288873*
X104528Y290483D02*
X104405D01*
X104158Y290573*
X104035Y290662*
X103912Y290841*
Y291199*
X104035Y291378*
X104158Y291467*
X104405Y291557*
X104651*
X104897Y291467*
X105266Y291288*
X106496Y290394*
Y291646*
X106250Y292541D02*
X106373Y292452D01*
X106496Y292541*
X106373Y292631*
X106250Y292541*
X104528Y293525D02*
X104405D01*
X104158Y293615*
X104035Y293704*
X103912Y293883*
Y294241*
X104035Y294420*
X104158Y294510*
X104405Y294599*
X104651*
X104897Y294510*
X105266Y294331*
X106496Y293436*
Y294689*
X103912Y295941D02*
X104035Y295673D01*
X104281Y295583*
X104528*
X104774Y295673*
X104897Y295852*
X105020Y296210*
X105143Y296478*
X105389Y296657*
X105635Y296747*
X106004*
X106250Y296657*
X106373Y296568*
X106496Y296299*
Y295941*
X106373Y295673*
X106250Y295583*
X106004Y295494*
X105635*
X105389Y295583*
X105143Y295762*
X105020Y296031*
X104897Y296389*
X104774Y296568*
X104528Y296657*
X104281*
X104035Y296568*
X103912Y296299*
Y295941*
X103420Y297552D02*
X103666Y297731D01*
X104035Y297910*
X104528Y298089*
X105143Y298178*
X105635*
X106250Y298089*
X106742Y297910*
X107111Y297731*
X107357Y297552*
X103937Y100000D02*
X237795Y99961D01*
Y129527*
X239764Y131496D02*
G03X237795Y129527I0J-1969D01*
G01X239764Y131496D02*
X243684Y131495D01*
X249134Y218110*
X247289*
X245324Y220199D02*
G03X247289Y218110I1965J-120D01*
G01X245324Y220199D02*
X247486Y255632D01*
X249451Y257480D02*
G03X247486Y255632I0J-1968D01*
G01X249451Y257480D02*
X251614D01*
X258582Y368059*
G03X251509Y375591I-7073J445*
G01X178739*
X178741Y375354*
X170866Y375350D02*
G03X178741Y375357I3938J124D01*
G01X170866Y375354D02*
Y375591D01*
X147244*
Y323228*
X144488Y320472D02*
G03X147244Y323228I0J2756D01*
G01X144488Y320472D02*
X126378D01*
X123622Y323228D02*
G03X126378Y320472I2756J0D01*
G01X123622Y323228D02*
Y375591D01*
X90223*
G03X83151Y368059I0J-7087*
G01X84548Y346437*
X84567Y346379*
Y344764*
X83780Y343976D02*
G03X84567Y344764I-0J788D01*
G01X83780Y343976D02*
X83583D01*
G03X82795Y343189I-0J-787*
G01Y313780*
G03X83976Y312598I1181J-0*
G01X85551*
X86732Y311417D02*
G03X85551Y312598I-1181J0D01*
G01X86732Y311417D02*
Y311153D01*
X86851Y309686*
X90136Y257480*
X92244*
X94209Y255632D02*
G03X92244Y257480I-1965J-120D01*
G01X94209Y255634D02*
X96406Y220201D01*
X94441Y218110D02*
G03X96406Y220199I0J1969D01*
G01X94441Y218110D02*
X92598D01*
X98039Y131496*
X101969*
X103937Y129528D02*
G03X101969Y131496I-1968J-0D01*
G01X103937Y129528D02*
Y100000D01*
G54D22*
X197539Y345472D02*
X198819D01*
X198130Y344587*
X197539Y345472*
G54D23*
X188976Y296063D02*
X225197D01*
Y259843*
X188976*
Y296063*
X200394Y341732D02*
X212205D01*
Y330709*
X200394*
Y341732*
X196457Y346063D02*
X200000D01*
X198031Y343307*
X196457Y346063*
X103701Y343110D02*
Y313583D01*
X79685*
Y343110*
X103701*
Y313583*
X84016*
Y343110*
X103701*
G54D44*
X188583Y165748D02*
X194882D01*
X191732D02*
X188583Y162598D01*
X194882*
X191732Y165748*
X188583Y168898*
X194882*
X191732Y165748*
X190157Y163386D02*
X193307D01*
X191732Y164961*
X190157Y163386*
Y168110D02*
X193307D01*
X191732Y166535*
X190157Y168110*
X191732Y163386D02*
Y168110D01*
X211024Y125197D02*
X230709D01*
Y130709*
X211024*
Y125197*
X224803D02*
Y130709D01*
X165945Y130118D02*
Y142323D01*
X153740*
Y130118*
X165945*
X150394Y139961D02*
X148425Y140945D01*
Y138976*
X150394Y139961*
G54D71*
X222638Y292520D02*
G03X222638I-984J0D01*
G54D72*
G01X224902Y302362D02*
G03X224902I-493J0D01*
G74*
G01X0Y0D02*
M02*
