0
SECTION
2
HEADER
999
*** POWERPCB  HEADER ***
9
$EXTMIN
10
-5.26
20
-0.06
9
$EXTMAX
10
40.5
20
73.05
9
$FILLMODE
70
0
9
$GRIDMODE
70
1
9
$GRIDUNIT
10
1
20
1
9
$INSBASE
10
-457.2
20
-458.2
9
$LIMCHECK
70
0
9
$PLINEWID
40
0.01
9
$SNAPMODE
70
1
9
$SNAPUNIT
10
0.01
20
0.01
9
$TEXTSIZE
40
2.54
9
$TEXTSTYLE
7
W0$254
9
$USERI1
70
101
9
$USERI2
70
1
9
$USERI5
70
150
9
$VIEWCTR
10
2.0734253333
20
33.290106
0
ENDSEC
0
SECTION
2
TABLES
999
*** POWERPCB  LTYPE ***
0
TABLE
2
LTYPE
70
6
0
LTYPE
2
CONTINUOUS
70
64
3
---
72
65
73
0
40
0
0
LTYPE
2
TRMIDX_1
70
64
3
---
72
65
73
2
40
2
49
1
49
1
0
LTYPE
2
KEEPOUT_00001000$0
70
64
3
---
72
65
73
2
40
2
49
1
49
1
0
LTYPE
2
TRMIDX_0
70
64
3
---
72
65
73
2
40
2
49
1
49
1
0
LTYPE
2
TRMIDX_5
70
64
3
---
72
65
73
2
40
2
49
1
49
1
0
LTYPE
2
TRMIDX_6
70
64
3
---
72
65
73
2
40
2
49
1
49
1
0
LTYPE
2
KEEPOUT_10000000$0
70
64
3
---
72
65
73
2
40
2
49
1
49
1
0
ENDTAB
999
*** POWERPCB  LAYER ***
0
TABLE
2
LAYER
70
45
0
LAYER
2
DBLAYERS
70
1
62
-254
6
CONTINUOUS
0
LAYER
2
BOARD_OUTLINE_00
70
0
62
254
6
CONTINUOUS
0
LAYER
2
LABEL_INFO
70
1
62
-254
6
CONTINUOUS
0
LAYER
2
LABEL_ATTRIBUTE
70
1
62
-254
6
CONTINUOUS
0
LAYER
2
PART_NAME_01
70
0
62
254
6
CONTINUOUS
0
LAYER
2
PART_TYPE_TOP
70
1
62
-250
6
CONTINUOUS
0
LAYER
2
PART_INFO
70
1
62
-254
6
CONTINUOUS
0
LAYER
2
PART_PTS
70
1
62
-254
6
CONTINUOUS
0
LAYER
2
PART_TYPE_01
70
1
62
-250
6
CONTINUOUS
0
LAYER
2
PART_NAME_127
70
1
62
-250
6
CONTINUOUS
0
LAYER
2
ATTRIBUTE_01
70
1
62
-3
6
CONTINUOUS
0
LAYER
2
PART_NAME_TOP
70
1
62
-250
6
CONTINUOUS
0
LAYER
2
SYM_NAME
70
1
62
-254
6
CONTINUOUS
0
LAYER
2
SYM_PART_NAME_01
70
1
62
-254
6
CONTINUOUS
0
LAYER
2
SYM_TERMINAL
70
1
62
-254
6
CONTINUOUS
0
LAYER
2
PKG_INFO
70
1
62
-254
6
CONTINUOUS
0
LAYER
2
SYM_PART_TYPE_01
70
1
62
-254
6
CONTINUOUS
0
LAYER
2
SYM_PART_NAME_127
70
1
62
-254
6
CONTINUOUS
0
LAYER
2
SYM_ATTRIBUTE_01
70
1
62
-254
6
CONTINUOUS
0
LAYER
2
PART_TOP_2DLINE_01
70
0
62
255
6
CONTINUOUS
0
LAYER
2
PART_TOP_2DLINE_115
70
1
62
-250
6
CONTINUOUS
0
LAYER
2
DRIL_NPLTE_THRU_01
70
0
62
96
6
CONTINUOUS
0
LAYER
2
DRIL_NPLTE_THRU_02
70
1
62
-2
6
CONTINUOUS
0
LAYER
2
PADS_INNER
70
0
62
3
6
CONTINUOUS
0
LAYER
2
PADS_BOT
70
1
62
-34
6
CONTINUOUS
0
LAYER
2
PADS_TOP
70
0
62
3
6
CONTINUOUS
0
LAYER
2
PART_TOP_2DLINE_00
70
0
62
255
6
CONTINUOUS
0
LAYER
2
PART_TOP_2DLINE_127
70
1
62
-250
6
CONTINUOUS
0
LAYER
2
PADS_XR_123
70
1
62
-4
6
CONTINUOUS
0
LAYER
2
PART_TOP_2DLINE_125
70
1
62
-250
6
CONTINUOUS
0
LAYER
2
PART_TOP_2DLINE_120
70
1
62
-1
6
CONTINUOUS
0
LAYER
2
PADS_XR_121
70
1
62
-5
6
CONTINUOUS
0
LAYER
2
PADS_XR_127
70
1
62
-250
6
CONTINUOUS
0
LAYER
2
PART_TOP_COPPER_01
70
0
62
255
6
CONTINUOUS
0
LAYER
2
DRIL_PLTE_THRU_01
70
0
62
96
6
CONTINUOUS
0
LAYER
2
DRIL_PLTE_THRU_02
70
1
62
-2
6
CONTINUOUS
0
LAYER
2
KEEPOUT_01
70
1
62
-4
6
CONTINUOUS
0
LAYER
2
TAG_01
70
0
62
254
6
CONTINUOUS
0
LAYER
2
PART_TOP_2DLINE_130
70
1
62
-250
6
CONTINUOUS
0
LAYER
2
TAG_00
70
0
62
254
6
CONTINUOUS
0
LAYER
2
PART_TOP_COPPER_02
70
1
62
-250
6
CONTINUOUS
0
LAYER
2
PART_TOP_2DLINE_126
70
0
62
254
6
CONTINUOUS
0
LAYER
2
KEEPOUT_00
70
1
62
-4
6
CONTINUOUS
0
LAYER
2
PCB_PARAMS
70
1
62
-254
6
CONTINUOUS
0
LAYER
2
DRIL_SYMBOL
70
0
62
254
6
CONTINUOUS
0
ENDTAB
999
*** POWERPCB  TEXT STYLE ***
0
TABLE
2
STYLE
70
15
0
STYLE
2
W0$1
70
64
40
0
41
0.75
42
0
50
0
71
0
3
simplex
0
STYLE
2
W0$127
70
64
40
0
41
0.75
42
0
50
0
71
0
3
simplex
0
STYLE
2
W0$12
70
64
40
0
41
0.75
42
0
50
0
71
0
3
simplex
0
STYLE
2
W0$02
70
64
40
0
41
0.75
42
0
50
0
71
0
3
simplex
0
STYLE
2
W0$15
70
64
40
0
41
0.75
42
0
50
0
71
0
3
simplex
0
STYLE
2
W0$05
70
64
40
0
41
0.75
42
0
50
0
71
0
3
simplex
0
STYLE
2
W0$254
70
64
40
0
41
0.75
42
0
50
0
71
0
3
simplex
0
STYLE
2
W0$1R2
70
64
40
0
41
0.75
42
0
50
0
71
0
3
simplex
0
STYLE
2
W0$127R0
70
64
40
0
41
0.75
42
0
50
0
71
0
3
simplex
0
STYLE
2
W0$12R2
70
64
40
0
41
0.75
42
0
50
0
71
0
3
simplex
0
STYLE
2
W0$12R0
70
64
40
0
41
0.75
42
0
50
0
71
0
3
simplex
0
STYLE
2
W0$1R0
70
64
40
0
41
0.75
42
0
50
0
71
0
3
simplex
0
STYLE
2
W0$02R0
70
64
40
0
41
0.75
42
0
50
0
71
0
3
simplex
0
STYLE
2
W0$15R1
70
64
40
0
41
0.75
42
0
50
0
71
0
3
simplex
0
STYLE
2
W0$05R0
70
64
40
0
41
0.75
42
0
50
0
71
0
3
simplex
0
ENDTAB
0
ENDSEC
0
SECTION
2
BLOCKS
999
*** POWERPCB  DBLAYER ***
0
BLOCK
2
DBLAYERS
8
0
10
0
20
0
3
DBLAYERS
70
64
0
TEXT
8
DBLAYERS
10
0
20
-3.048
40
1.778
1
__It__Is__Job__Name__:=Plasma_Pipette_V2.0_Main_PCB_20180731_Company.pcb
999
 *  1.Number             2.Type                  3.RouteColor
999
 *  4.ViaColor           5.PadColor              6.CopperColor
999
 *  7.2DLineColor        8.TextColor             9.ErrorColor
999
 * 10.TopComponentColor 11.BottomComponentColor 12.RoutingDirection
999
 * 13.LayerThickness    14.CopperThickness      15.Dielectric
999
 * 16.IsRouteable       17.IsVisible            18.IsSelectable
999
 * 19.IsPrepreg         20.AssSilkScreen        21.AssPasteMask
999
 * 22.AssSolderMask     23.AssAssembly
0
TEXT
8
DBLAYERS
10
0
20
-6.096
40
1.778
1
Top:=1 1 10 10 10 10 8 8 15 15 0 0 381000 51435 4.3000001907 1 1 1 0 126 123 121 127 0 0 1 8 0 10 11 
0
ENDBLK
999
*** POWERPCB  BOARD ***
0
BLOCK
2
BOARD_1
8
0
10
0
20
0
3
BOARD_1
70
64
0
POLYLINE
8
BOARD_OUTLINE_00
66
1
40
0.1
41
0.1
70
1
0
VERTEX
8
BOARD_OUTLINE_00
10
1
20
-1
0
VERTEX
8
BOARD_OUTLINE_00
10
35
20
-1.01
0
VERTEX
8
BOARD_OUTLINE_00
10
35
20
6.499974
42
-0.4142135624
0
VERTEX
8
BOARD_OUTLINE_00
10
35.5001186667
20
6.999974
0
VERTEX
8
BOARD_OUTLINE_00
10
36.4956713333
20
6.9997373333
0
VERTEX
8
BOARD_OUTLINE_00
10
37.88
20
29
0
VERTEX
8
BOARD_OUTLINE_00
10
37.411438
20
29
42
-0.4322206989
0
VERTEX
8
BOARD_OUTLINE_00
10
36.912366
20
29.5304513333
0
VERTEX
8
BOARD_OUTLINE_00
10
37.4615073333
20
38.5304513333
42
-0.3964328274
0
VERTEX
8
BOARD_OUTLINE_00
10
37.9605793333
20
39
0
VERTEX
8
BOARD_OUTLINE_00
10
38.51
20
39
0
VERTEX
8
BOARD_OUTLINE_00
10
40.2797593333
20
67.08708
42
0.4327386422
0
VERTEX
8
BOARD_OUTLINE_00
10
38.4833046667
20
69
0
VERTEX
8
BOARD_OUTLINE_00
10
19.9997753333
20
69
0
VERTEX
8
BOARD_OUTLINE_00
10
20.0002806667
20
68.94
42
-0.9699138635
0
VERTEX
8
BOARD_OUTLINE_00
10
18
20
68.94
0
VERTEX
8
BOARD_OUTLINE_00
10
18
20
69
0
VERTEX
8
BOARD_OUTLINE_00
10
12
20
69
0
VERTEX
8
BOARD_OUTLINE_00
10
12
20
55.7
42
-0.4142135624
0
VERTEX
8
BOARD_OUTLINE_00
10
11.3
20
55
0
VERTEX
8
BOARD_OUTLINE_00
10
6.7
20
55
42
-0.4142135624
0
VERTEX
8
BOARD_OUTLINE_00
10
6
20
55.7
0
VERTEX
8
BOARD_OUTLINE_00
10
6
20
69
0
VERTEX
8
BOARD_OUTLINE_00
10
-2.4833046667
20
69
42
0.4327386422
0
VERTEX
8
BOARD_OUTLINE_00
10
-4.2797593333
20
67.08708
0
VERTEX
8
BOARD_OUTLINE_00
10
-3.924906
20
61.5950946667
0
VERTEX
8
BOARD_OUTLINE_00
10
-3.92
20
61.5801886667
0
VERTEX
8
BOARD_OUTLINE_00
10
-3.92
20
61.17
42
-0.4142135624
0
VERTEX
8
BOARD_OUTLINE_00
10
-4.12
20
60.97
0
VERTEX
8
BOARD_OUTLINE_00
10
-4.17
20
60.97
42
0.4142135624
0
VERTEX
8
BOARD_OUTLINE_00
10
-4.37
20
60.77
0
VERTEX
8
BOARD_OUTLINE_00
10
-4.37
20
53.3000026667
42
0.4142135624
0
VERTEX
8
BOARD_OUTLINE_00
10
-4.0699973333
20
53
0
VERTEX
8
BOARD_OUTLINE_00
10
-3.67
20
53
42
-0.4142135624
0
VERTEX
8
BOARD_OUTLINE_00
10
-3.37
20
52.7
0
VERTEX
8
BOARD_OUTLINE_00
10
-3.37
20
52.6329166667
0
VERTEX
8
BOARD_OUTLINE_00
10
-3.3398793333
20
52.2601206667
0
VERTEX
8
BOARD_OUTLINE_00
10
-2.5053926667
20
39
0
VERTEX
8
BOARD_OUTLINE_00
10
-1.96996
20
39
42
-0.3964328274
0
VERTEX
8
BOARD_OUTLINE_00
10
-1.470918
20
38.5309406667
0
VERTEX
8
BOARD_OUTLINE_00
10
-0.912918
20
29.5309406667
42
-0.4322206989
0
VERTEX
8
BOARD_OUTLINE_00
10
-1.41196
20
29
0
VERTEX
8
BOARD_OUTLINE_00
10
-1.88
20
29
0
VERTEX
8
BOARD_OUTLINE_00
10
-0.498168
20
7
0
VERTEX
8
BOARD_OUTLINE_00
10
0.5
20
7
42
-0.4142135624
0
VERTEX
8
BOARD_OUTLINE_00
10
1
20
6.5
0
SEQEND
0
INSERT
2
SMOOTH_0$1
8
BOARD_OUTLINE_00
10
1
20
-1
0
INSERT
2
SMOOTH_0$1
8
BOARD_OUTLINE_00
10
35
20
-1.01
0
INSERT
2
SMOOTH_0$1
8
BOARD_OUTLINE_00
10
35
20
6.499974
0
ENDBLK
999
*** POWERPCB  2DLINE ***
999
*** POWERPCB  COMPONENT ***
0
BLOCK
2
PART_TOP_0
8
0
10
0
20
0
3
PART_TOP_0
70
64
0
INSERT
2
SYM_TOP_4
8
0
10
0
20
0
0
INSERT
2
PKG_0
8
0
10
0
20
0
0
TEXT
8
LABEL_INFO
10
-1.75
20
0
40
0.7
1
2 324000000 1 1 0 1
72
1
73
1
11
-1.75
21
0
50
180
41
0.75
7
W0$1
0
TEXT
8
LABEL_ATTRIBUTE
10
-1.75
20
0
40
0.7
1
Ref.Des.
72
1
73
1
11
-1.75
21
0
50
180
41
0.75
7
W0$1
0
TEXT
8
PART_NAME_01
10
-1.75
20
0
40
0.7
1
C14
72
1
73
2
11
-1.75
21
0
50
-180
41
0.75
7
W0$1
0
TEXT
8
PART_TYPE_TOP
10
-1.75
20
-1
40
0.7
1
C-1005
72
1
73
2
11
-1.75
21
-1
50
-180
41
0.75
7
W0$1
0
TEXT
8
PART_INFO
10
-1.75
20
-2
40
0.7
1
000000
72
1
73
2
11
-1.75
21
-2
50
-180
41
0.75
7
W0$1
0
TEXT
8
PART_PTS
10
-1.75
20
-3
40
0.7
1
1 2 
72
1
73
2
11
-1.75
21
-3
50
-180
41
0.75
7
W0$1
0
ENDBLK
0
BLOCK
2
PART_TOP_1
8
0
10
0
20
0
3
PART_TOP_1
70
64
0
INSERT
2
SYM_TOP_4
8
0
10
0
20
0
0
INSERT
2
PKG_0
8
0
10
0
20
0
0
TEXT
8
LABEL_INFO
10
-1.6
20
0
40
0.7
1
2 0 1 1 0 1
72
1
73
1
11
-1.6
21
0
41
0.75
7
W0$1
0
TEXT
8
LABEL_ATTRIBUTE
10
-1.6
20
0
40
0.7
1
Ref.Des.
72
1
73
1
11
-1.6
21
0
41
0.75
7
W0$1
0
TEXT
8
PART_NAME_01
10
-1.6
20
0
40
0.7
1
C15
72
1
73
2
11
-1.6
21
0
41
0.75
7
W0$1
0
TEXT
8
PART_TYPE_TOP
10
-1.6
20
-1
40
0.7
1
C-1005
72
1
73
2
11
-1.6
21
-1
41
0.75
7
W0$1
0
TEXT
8
PART_INFO
10
-1.6
20
-2
40
0.7
1
000000
72
1
73
2
11
-1.6
21
-2
41
0.75
7
W0$1
0
TEXT
8
PART_PTS
10
-1.6
20
-3
40
0.7
1
1 2 
72
1
73
2
11
-1.6
21
-3
41
0.75
7
W0$1
0
ENDBLK
0
BLOCK
2
PART_TOP_2
8
0
10
0
20
0
3
PART_TOP_2
70
64
0
INSERT
2
SYM_TOP_4
8
0
10
0
20
0
0
INSERT
2
PKG_0
8
0
10
0
20
0
0
TEXT
8
LABEL_INFO
10
1.55
20
-0.0999993333
40
0.7
1
2 324000000 1 1 0 1
72
1
73
1
11
1.55
21
-0.0999993333
50
180
41
0.75
7
W0$1
0
TEXT
8
LABEL_ATTRIBUTE
10
1.55
20
-0.0999993333
40
0.7
1
Ref.Des.
72
1
73
1
11
1.55
21
-0.0999993333
50
180
41
0.75
7
W0$1
0
TEXT
8
PART_NAME_01
10
1.55
20
-0.0999993333
40
0.7
1
C19
72
1
73
2
11
1.55
21
-0.0999993333
50
-180
41
0.75
7
W0$1
0
TEXT
8
PART_TYPE_TOP
10
1.55
20
-1.0999993333
40
0.7
1
C-1005
72
1
73
2
11
1.55
21
-1.0999993333
50
-180
41
0.75
7
W0$1
0
TEXT
8
PART_INFO
10
1.55
20
-2.0999993333
40
0.7
1
000000
72
1
73
2
11
1.55
21
-2.0999993333
50
-180
41
0.75
7
W0$1
0
TEXT
8
PART_PTS
10
1.55
20
-3.0999993333
40
0.7
1
1 2 
72
1
73
2
11
1.55
21
-3.0999993333
50
-180
41
0.75
7
W0$1
0
ENDBLK
0
BLOCK
2
PART_TOP_3
8
0
10
0
20
0
3
PART_TOP_3
70
64
0
INSERT
2
SYM_TOP_4
8
0
10
0
20
0
0
INSERT
2
PKG_0
8
0
10
0
20
0
0
TEXT
8
LABEL_INFO
10
1.45
20
-0.0999993333
40
0.7
1
2 324000000 1 1 0 1
72
1
73
1
11
1.45
21
-0.0999993333
50
180
41
0.75
7
W0$1
0
TEXT
8
LABEL_ATTRIBUTE
10
1.45
20
-0.0999993333
40
0.7
1
Ref.Des.
72
1
73
1
11
1.45
21
-0.0999993333
50
180
41
0.75
7
W0$1
0
TEXT
8
PART_NAME_01
10
1.45
20
-0.0999993333
40
0.7
1
C2
72
1
73
2
11
1.45
21
-0.0999993333
50
-180
41
0.75
7
W0$1
0
TEXT
8
PART_TYPE_TOP
10
1.45
20
-1.0999993333
40
0.7
1
C-1005
72
1
73
2
11
1.45
21
-1.0999993333
50
-180
41
0.75
7
W0$1
0
TEXT
8
PART_INFO
10
1.45
20
-2.0999993333
40
0.7
1
000000
72
1
73
2
11
1.45
21
-2.0999993333
50
-180
41
0.75
7
W0$1
0
TEXT
8
PART_PTS
10
1.45
20
-3.0999993333
40
0.7
1
1 2 
72
1
73
2
11
1.45
21
-3.0999993333
50
-180
41
0.75
7
W0$1
0
ENDBLK
0
BLOCK
2
PART_TOP_4
8
0
10
0
20
0
3
PART_TOP_4
70
64
0
INSERT
2
SYM_TOP_4
8
0
10
0
20
0
0
INSERT
2
PKG_0
8
0
10
0
20
0
0
TEXT
8
LABEL_INFO
10
-2.15
20
0
40
0.7
1
2 0 1 1 0 1
72
1
73
1
11
-2.15
21
0
41
0.75
7
W0$1
0
TEXT
8
LABEL_ATTRIBUTE
10
-2.15
20
0
40
0.7
1
Ref.Des.
72
1
73
1
11
-2.15
21
0
41
0.75
7
W0$1
0
TEXT
8
PART_NAME_01
10
-2.15
20
0
40
0.7
1
C20
72
1
73
2
11
-2.15
21
0
50
-180
41
0.75
7
W0$1
0
TEXT
8
PART_TYPE_TOP
10
-2.15
20
-1
40
0.7
1
C-1005
72
1
73
2
11
-2.15
21
-1
50
-180
41
0.75
7
W0$1
0
TEXT
8
PART_INFO
10
-2.15
20
-2
40
0.7
1
000000
72
1
73
2
11
-2.15
21
-2
50
-180
41
0.75
7
W0$1
0
TEXT
8
PART_PTS
10
-2.15
20
-3
40
0.7
1
1 2 
72
1
73
2
11
-2.15
21
-3
50
-180
41
0.75
7
W0$1
0
ENDBLK
0
BLOCK
2
PART_TOP_5
8
0
10
0
20
0
3
PART_TOP_5
70
64
0
INSERT
2
SYM_TOP_4
8
0
10
0
20
0
0
INSERT
2
PKG_0
8
0
10
0
20
0
0
TEXT
8
LABEL_INFO
10
-1.85
20
0
40
0.7
1
2 0 1 1 0 1
72
1
73
1
11
-1.85
21
0
41
0.75
7
W0$1
0
TEXT
8
LABEL_ATTRIBUTE
10
-1.85
20
0
40
0.7
1
Ref.Des.
72
1
73
1
11
-1.85
21
0
41
0.75
7
W0$1
0
TEXT
8
PART_NAME_01
10
-1.85
20
0
40
0.7
1
C21
72
1
73
2
11
-1.85
21
0
50
-180
41
0.75
7
W0$1
0
TEXT
8
PART_TYPE_TOP
10
-1.85
20
-1
40
0.7
1
C-1005
72
1
73
2
11
-1.85
21
-1
50
-180
41
0.75
7
W0$1
0
TEXT
8
PART_INFO
10
-1.85
20
-2
40
0.7
1
000000
72
1
73
2
11
-1.85
21
-2
50
-180
41
0.75
7
W0$1
0
TEXT
8
PART_PTS
10
-1.85
20
-3
40
0.7
1
1 2 
72
1
73
2
11
-1.85
21
-3
50
-180
41
0.75
7
W0$1
0
ENDBLK
0
BLOCK
2
PART_TOP_6
8
0
10
0
20
0
3
PART_TOP_6
70
64
0
INSERT
2
SYM_TOP_4
8
0
10
0
20
0
0
INSERT
2
PKG_0
8
0
10
0
20
0
0
TEXT
8
LABEL_INFO
10
0.15
20
1.1
40
0.7
1
2 0 1 1 0 1
72
1
73
1
11
0.15
21
1.1
41
0.75
7
W0$1
0
TEXT
8
LABEL_ATTRIBUTE
10
0.15
20
1.1
40
0.7
1
Ref.Des.
72
1
73
1
11
0.15
21
1.1
41
0.75
7
W0$1
0
TEXT
8
PART_NAME_01
10
0.15
20
1.1
40
0.7
1
C22
72
1
73
2
11
0.15
21
1.1
41
0.75
7
W0$1
0
TEXT
8
PART_TYPE_TOP
10
0.15
20
0.1
40
0.7
1
C-1005
72
1
73
2
11
0.15
21
0.1
41
0.75
7
W0$1
0
TEXT
8
PART_INFO
10
0.15
20
-0.9
40
0.7
1
000000
72
1
73
2
11
0.15
21
-0.9
41
0.75
7
W0$1
0
TEXT
8
PART_PTS
10
0.15
20
-1.9
40
0.7
1
1 2 
72
1
73
2
11
0.15
21
-1.9
41
0.75
7
W0$1
0
ENDBLK
0
BLOCK
2
PART_TOP_7
8
0
10
0
20
0
3
PART_TOP_7
70
64
0
INSERT
2
SYM_TOP_4
8
0
10
0
20
0
0
INSERT
2
PKG_0
8
0
10
0
20
0
0
TEXT
8
LABEL_INFO
10
1.85
20
-0.0499993333
40
0.7
1
2 0 1 1 0 1
72
1
73
1
11
1.85
21
-0.0499993333
41
0.75
7
W0$1
0
TEXT
8
LABEL_ATTRIBUTE
10
1.85
20
-0.0499993333
40
0.7
1
Ref.Des.
72
1
73
1
11
1.85
21
-0.0499993333
41
0.75
7
W0$1
0
TEXT
8
PART_NAME_01
10
1.85
20
-0.0499993333
40
0.7
1
C23
72
1
73
2
11
1.85
21
-0.0499993333
41
0.75
7
W0$1
0
TEXT
8
PART_TYPE_TOP
10
1.85
20
-1.0499993333
40
0.7
1
C-1005
72
1
73
2
11
1.85
21
-1.0499993333
41
0.75
7
W0$1
0
TEXT
8
PART_INFO
10
1.85
20
-2.0499993333
40
0.7
1
000000
72
1
73
2
11
1.85
21
-2.0499993333
41
0.75
7
W0$1
0
TEXT
8
PART_PTS
10
1.85
20
-3.0499993333
40
0.7
1
1 2 
72
1
73
2
11
1.85
21
-3.0499993333
41
0.75
7
W0$1
0
ENDBLK
0
BLOCK
2
PART_TOP_8
8
0
10
0
20
0
3
PART_TOP_8
70
64
0
INSERT
2
SYM_TOP_4
8
0
10
0
20
0
0
INSERT
2
PKG_0
8
0
10
0
20
0
0
TEXT
8
LABEL_INFO
10
0.05
20
-1
40
0.7
1
2 0 1 1 0 1
72
1
73
1
11
0.05
21
-1
41
0.75
7
W0$1
0
TEXT
8
LABEL_ATTRIBUTE
10
0.05
20
-1
40
0.7
1
Ref.Des.
72
1
73
1
11
0.05
21
-1
41
0.75
7
W0$1
0
TEXT
8
PART_NAME_01
10
0.05
20
-1
40
0.7
1
C24
72
1
73
2
11
0.05
21
-1
50
-180
41
0.75
7
W0$1
0
TEXT
8
PART_TYPE_TOP
10
0.05
20
-2
40
0.7
1
C-1005
72
1
73
2
11
0.05
21
-2
50
-180
41
0.75
7
W0$1
0
TEXT
8
PART_INFO
10
0.05
20
-3
40
0.7
1
000000
72
1
73
2
11
0.05
21
-3
50
-180
41
0.75
7
W0$1
0
TEXT
8
PART_PTS
10
0.05
20
-4
40
0.7
1
1 2 
72
1
73
2
11
0.05
21
-4
50
-180
41
0.75
7
W0$1
0
ENDBLK
0
BLOCK
2
PART_TOP_9
8
0
10
0
20
0
3
PART_TOP_9
70
64
0
INSERT
2
SYM_TOP_4
8
0
10
0
20
0
0
INSERT
2
PKG_0
8
0
10
0
20
0
0
TEXT
8
LABEL_INFO
10
1.55
20
0
40
0.7
1
2 0 1 1 0 1
72
1
73
1
11
1.55
21
0
41
0.75
7
W0$1
0
TEXT
8
LABEL_ATTRIBUTE
10
1.55
20
0
40
0.7
1
Ref.Des.
72
1
73
1
11
1.55
21
0
41
0.75
7
W0$1
0
TEXT
8
PART_NAME_01
10
1.55
20
0
40
0.7
1
C3
72
1
73
2
11
1.55
21
0
50
-180
41
0.75
7
W0$1
0
TEXT
8
PART_TYPE_TOP
10
1.55
20
-1
40
0.7
1
C-1005
72
1
73
2
11
1.55
21
-1
50
-180
41
0.75
7
W0$1
0
TEXT
8
PART_INFO
10
1.55
20
-2
40
0.7
1
000000
72
1
73
2
11
1.55
21
-2
50
-180
41
0.75
7
W0$1
0
TEXT
8
PART_PTS
10
1.55
20
-3
40
0.7
1
1 2 
72
1
73
2
11
1.55
21
-3
50
-180
41
0.75
7
W0$1
0
ENDBLK
0
BLOCK
2
PART_TOP_10
8
0
10
0
20
0
3
PART_TOP_10
70
64
0
INSERT
2
SYM_TOP_4
8
0
10
0
20
0
0
INSERT
2
PKG_0
8
0
10
0
20
0
0
TEXT
8
LABEL_INFO
10
1.55
20
0.1
40
0.7
1
2 0 1 1 0 1
72
1
73
1
11
1.55
21
0.1
41
0.75
7
W0$1
0
TEXT
8
LABEL_ATTRIBUTE
10
1.55
20
0.1
40
0.7
1
Ref.Des.
72
1
73
1
11
1.55
21
0.1
41
0.75
7
W0$1
0
TEXT
8
PART_NAME_01
10
1.55
20
0.1
40
0.7
1
C4
72
1
73
2
11
1.55
21
0.1
41
0.75
7
W0$1
0
TEXT
8
PART_TYPE_TOP
10
1.55
20
-0.9
40
0.7
1
C-1005
72
1
73
2
11
1.55
21
-0.9
41
0.75
7
W0$1
0
TEXT
8
PART_INFO
10
1.55
20
-1.9
40
0.7
1
000000
72
1
73
2
11
1.55
21
-1.9
41
0.75
7
W0$1
0
TEXT
8
PART_PTS
10
1.55
20
-2.9
40
0.7
1
1 2 
72
1
73
2
11
1.55
21
-2.9
41
0.75
7
W0$1
0
ENDBLK
0
BLOCK
2
PART_TOP_11
8
0
10
0
20
0
3
PART_TOP_11
70
64
0
INSERT
2
SYM_TOP_4
8
0
10
0
20
0
0
INSERT
2
PKG_0
8
0
10
0
20
0
0
TEXT
8
LABEL_INFO
10
1.55
20
0
40
0.7
1
2 0 1 1 0 1
72
1
73
1
11
1.55
21
0
41
0.75
7
W0$1
0
TEXT
8
LABEL_ATTRIBUTE
10
1.55
20
0
40
0.7
1
Ref.Des.
72
1
73
1
11
1.55
21
0
41
0.75
7
W0$1
0
TEXT
8
PART_NAME_01
10
1.55
20
0
40
0.7
1
C5
72
1
73
2
11
1.55
21
0
41
0.75
7
W0$1
0
TEXT
8
PART_TYPE_TOP
10
1.55
20
-1
40
0.7
1
C-1005
72
1
73
2
11
1.55
21
-1
41
0.75
7
W0$1
0
TEXT
8
PART_INFO
10
1.55
20
-2
40
0.7
1
000000
72
1
73
2
11
1.55
21
-2
41
0.75
7
W0$1
0
TEXT
8
PART_PTS
10
1.55
20
-3
40
0.7
1
1 2 
72
1
73
2
11
1.55
21
-3
41
0.75
7
W0$1
0
ENDBLK
0
BLOCK
2
PART_TOP_12
8
0
10
0
20
0
3
PART_TOP_12
70
64
0
INSERT
2
SYM_TOP_4
8
0
10
0
20
0
0
INSERT
2
PKG_0
8
0
10
0
20
0
0
TEXT
8
LABEL_INFO
10
1.45
20
-0.0999993333
40
0.7
1
2 0 1 1 0 1
72
1
73
1
11
1.45
21
-0.0999993333
41
0.75
7
W0$1
0
TEXT
8
LABEL_ATTRIBUTE
10
1.45
20
-0.0999993333
40
0.7
1
Ref.Des.
72
1
73
1
11
1.45
21
-0.0999993333
41
0.75
7
W0$1
0
TEXT
8
PART_NAME_01
10
1.45
20
-0.0999993333
40
0.7
1
C6
72
1
73
2
11
1.45
21
-0.0999993333
50
-180
41
0.75
7
W0$1
0
TEXT
8
PART_TYPE_TOP
10
1.45
20
-1.0999993333
40
0.7
1
C-1005
72
1
73
2
11
1.45
21
-1.0999993333
50
-180
41
0.75
7
W0$1
0
TEXT
8
PART_INFO
10
1.45
20
-2.0999993333
40
0.7
1
000000
72
1
73
2
11
1.45
21
-2.0999993333
50
-180
41
0.75
7
W0$1
0
TEXT
8
PART_PTS
10
1.45
20
-3.0999993333
40
0.7
1
1 2 
72
1
73
2
11
1.45
21
-3.0999993333
50
-180
41
0.75
7
W0$1
0
ENDBLK
0
BLOCK
2
PART_TOP_13
8
0
10
0
20
0
3
PART_TOP_13
70
64
0
INSERT
2
SYM_TOP_5
8
0
10
0
20
0
0
INSERT
2
PKG_1
8
0
10
0
20
0
0
TEXT
8
LABEL_INFO
10
0.3999993333
20
1.5
40
0.7
1
0 324000000 0 0 0 1
50
180
41
0.75
7
W0$1
0
TEXT
8
LABEL_ATTRIBUTE
10
0.3999993333
20
1.5
40
0.7
1
Ref.Des.
50
180
41
0.75
7
W0$1
0
TEXT
8
PART_NAME_01
10
0.3999993333
20
1.5
40
0.7
1
C1
50
180
41
0.75
7
W0$1
0
TEXT
8
LABEL_INFO
10
-1.8
20
2.3
40
0.889
1
0 0 0 2 0 1
73
2
11
-1.8
21
2.3
41
0.75
7
W0$127
0
TEXT
8
LABEL_ATTRIBUTE
10
-1.8
20
2.3
40
0.889
1
PartType
73
2
11
-1.8
21
2.3
41
0.75
7
W0$127
0
TEXT
8
PART_TYPE_01
10
-1.8
20
2.3
40
0.889
1
C-1608
73
3
11
-1.8
21
2.3
41
0.75
7
W0$127
0
TEXT
8
PART_INFO
10
-1.8
20
1.03
40
0.889
1
000000
73
3
11
-1.8
21
1.03
41
0.75
7
W0$127
0
TEXT
8
PART_PTS
10
-1.8
20
-0.24
40
0.889
1
1 2 
73
3
11
-1.8
21
-0.24
41
0.75
7
W0$127
0
ENDBLK
0
BLOCK
2
PART_TOP_14
8
0
10
0
20
0
3
PART_TOP_14
70
64
0
INSERT
2
SYM_TOP_5
8
0
10
0
20
0
0
INSERT
2
PKG_1
8
0
10
0
20
0
0
TEXT
8
LABEL_INFO
10
-0.3
20
0.9
40
0.7
1
0 0 0 0 0 1
41
0.75
7
W0$1
0
TEXT
8
LABEL_ATTRIBUTE
10
-0.3
20
0.9
40
0.7
1
Ref.Des.
41
0.75
7
W0$1
0
TEXT
8
PART_NAME_01
10
-0.3
20
0.9
40
0.7
1
C12
41
0.75
7
W0$1
0
TEXT
8
LABEL_INFO
10
-1.8
20
2.3
40
0.889
1
0 0 0 2 0 1
73
2
11
-1.8
21
2.3
41
0.75
7
W0$127
0
TEXT
8
LABEL_ATTRIBUTE
10
-1.8
20
2.3
40
0.889
1
PartType
73
2
11
-1.8
21
2.3
41
0.75
7
W0$127
0
TEXT
8
PART_TYPE_01
10
-1.8
20
2.3
40
0.889
1
C-1608
73
3
11
-1.8
21
2.3
41
0.75
7
W0$127
0
TEXT
8
PART_INFO
10
-1.8
20
1.03
40
0.889
1
000000
73
3
11
-1.8
21
1.03
41
0.75
7
W0$127
0
TEXT
8
PART_PTS
10
-1.8
20
-0.24
40
0.889
1
1 2 
73
3
11
-1.8
21
-0.24
41
0.75
7
W0$127
0
ENDBLK
0
BLOCK
2
PART_TOP_15
8
0
10
0
20
0
3
PART_TOP_15
70
64
0
INSERT
2
SYM_TOP_5
8
0
10
0
20
0
0
INSERT
2
PKG_1
8
0
10
0
20
0
0
TEXT
8
LABEL_INFO
10
-0.5999993333
20
-1.5
40
0.7
1
0 0 0 0 0 1
41
0.75
7
W0$1
0
TEXT
8
LABEL_ATTRIBUTE
10
-0.5999993333
20
-1.5
40
0.7
1
Ref.Des.
41
0.75
7
W0$1
0
TEXT
8
PART_NAME_01
10
-0.5999993333
20
-1.5
40
0.7
1
C13
41
0.75
7
W0$1
0
TEXT
8
LABEL_INFO
10
-1.8
20
2.3
40
0.889
1
0 0 0 2 0 1
73
2
11
-1.8
21
2.3
41
0.75
7
W0$127
0
TEXT
8
LABEL_ATTRIBUTE
10
-1.8
20
2.3
40
0.889
1
PartType
73
2
11
-1.8
21
2.3
41
0.75
7
W0$127
0
TEXT
8
PART_TYPE_01
10
-1.8
20
2.3
40
0.889
1
C-1608
73
3
11
-1.8
21
2.3
41
0.75
7
W0$127
0
TEXT
8
PART_INFO
10
-1.8
20
1.03
40
0.889
1
000000
73
3
11
-1.8
21
1.03
41
0.75
7
W0$127
0
TEXT
8
PART_PTS
10
-1.8
20
-0.24
40
0.889
1
1 2 
73
3
11
-1.8
21
-0.24
41
0.75
7
W0$127
0
ENDBLK
0
BLOCK
2
PART_TOP_16
8
0
10
0
20
0
3
PART_TOP_16
70
64
0
INSERT
2
SYM_TOP_5
8
0
10
0
20
0
0
INSERT
2
PKG_1
8
0
10
0
20
0
0
TEXT
8
LABEL_INFO
10
2.9
20
0.3
40
0.7
1
0 324000000 0 0 0 1
50
180
41
0.75
7
W0$1
0
TEXT
8
LABEL_ATTRIBUTE
10
2.9
20
0.3
40
0.7
1
Ref.Des.
50
180
41
0.75
7
W0$1
0
TEXT
8
PART_NAME_01
10
2.9
20
0.3
40
0.7
1
C16
50
180
41
0.75
7
W0$1
0
TEXT
8
LABEL_INFO
10
-1.8
20
2.3
40
0.889
1
0 0 0 2 0 1
73
2
11
-1.8
21
2.3
41
0.75
7
W0$127
0
TEXT
8
LABEL_ATTRIBUTE
10
-1.8
20
2.3
40
0.889
1
PartType
73
2
11
-1.8
21
2.3
41
0.75
7
W0$127
0
TEXT
8
PART_TYPE_01
10
-1.8
20
2.3
40
0.889
1
C-1608
73
3
11
-1.8
21
2.3
41
0.75
7
W0$127
0
TEXT
8
PART_INFO
10
-1.8
20
1.03
40
0.889
1
000000
73
3
11
-1.8
21
1.03
41
0.75
7
W0$127
0
TEXT
8
PART_PTS
10
-1.8
20
-0.24
40
0.889
1
1 2 
73
3
11
-1.8
21
-0.24
41
0.75
7
W0$127
0
ENDBLK
0
BLOCK
2
PART_TOP_17
8
0
10
0
20
0
3
PART_TOP_17
70
64
0
INSERT
2
SYM_TOP_5
8
0
10
0
20
0
0
INSERT
2
PKG_1
8
0
10
0
20
0
0
TEXT
8
LABEL_INFO
10
-0.4999993333
20
-1.5
40
0.7
1
0 0 0 0 0 1
41
0.75
7
W0$1
0
TEXT
8
LABEL_ATTRIBUTE
10
-0.4999993333
20
-1.5
40
0.7
1
Ref.Des.
41
0.75
7
W0$1
0
TEXT
8
PART_NAME_01
10
-0.4999993333
20
-1.5
40
0.7
1
C18
41
0.75
7
W0$1
0
TEXT
8
LABEL_INFO
10
-1.8
20
2.3
40
0.889
1
0 0 0 2 0 1
73
2
11
-1.8
21
2.3
41
0.75
7
W0$127
0
TEXT
8
LABEL_ATTRIBUTE
10
-1.8
20
2.3
40
0.889
1
PartType
73
2
11
-1.8
21
2.3
41
0.75
7
W0$127
0
TEXT
8
PART_TYPE_01
10
-1.8
20
2.3
40
0.889
1
C-1608
73
3
11
-1.8
21
2.3
41
0.75
7
W0$127
0
TEXT
8
PART_INFO
10
-1.8
20
1.03
40
0.889
1
000000
73
3
11
-1.8
21
1.03
41
0.75
7
W0$127
0
TEXT
8
PART_PTS
10
-1.8
20
-0.24
40
0.889
1
1 2 
73
3
11
-1.8
21
-0.24
41
0.75
7
W0$127
0
ENDBLK
0
BLOCK
2
PART_TOP_18
8
0
10
0
20
0
3
PART_TOP_18
70
64
0
INSERT
2
SYM_TOP_23
8
0
10
0
20
0
0
INSERT
2
PKG_2
8
0
10
0
20
0
0
TEXT
8
LABEL_INFO
10
0.056
20
0.28
40
0.84
1
2 0 1 1 0 1
72
1
73
1
11
0.056
21
0.28
41
0.75
7
W0$12
0
TEXT
8
LABEL_ATTRIBUTE
10
0.056
20
0.28
40
0.84
1
PartType
72
1
73
1
11
0.056
21
0.28
41
0.75
7
W0$12
0
TEXT
8
PART_TYPE_01
10
0.056
20
0.28
40
0.84
1
LM2735XMF
72
1
73
2
11
0.056
21
0.28
41
0.75
7
W0$12
0
TEXT
8
LABEL_INFO
10
2.15
20
2.5
40
0.7
1
2 162000000 1 1 0 1
72
1
73
1
11
2.15
21
2.5
50
90
41
0.75
7
W0$1
0
TEXT
8
LABEL_ATTRIBUTE
10
2.15
20
2.5
40
0.7
1
Ref.Des.
72
1
73
1
11
2.15
21
2.5
50
90
41
0.75
7
W0$1
0
TEXT
8
PART_NAME_01
10
2.15
20
2.5
40
0.7
1
U4
72
1
73
2
11
2.15
21
2.5
50
-90
41
0.75
7
W0$1
0
TEXT
8
PART_INFO
10
2.15
20
1.5
40
0.7
1
000001
72
1
73
2
11
2.15
21
1.5
50
-90
41
0.75
7
W0$1
0
TEXT
8
PART_PTS
10
2.15
20
0.5
40
0.7
1
1 2 3 4 5 
72
1
73
2
11
2.15
21
0.5
50
-90
41
0.75
7
W0$1
0
ENDBLK
0
BLOCK
2
PART_TOP_19
8
0
10
0
20
0
3
PART_TOP_19
70
64
0
INSERT
2
SYM_TOP_6
8
0
10
0
20
0
0
INSERT
2
PKG_3
8
0
10
0
20
0
0
TEXT
8
LABEL_INFO
10
0
20
0
40
0.84
1
2 0 1 1 0 1
72
1
73
1
11
0
21
0
41
0.75
7
W0$12
0
TEXT
8
LABEL_ATTRIBUTE
10
0
20
0
40
0.84
1
PartType
72
1
73
1
11
0
21
0
41
0.75
7
W0$12
0
TEXT
8
PART_TYPE_01
10
0
20
0
40
0.84
1
LM3671MF-3.3
72
1
73
2
11
0
21
0
41
0.75
7
W0$12
0
TEXT
8
LABEL_INFO
10
-2.225
20
0.15
40
0.7
1
2 324000000 1 1 0 1
72
1
73
1
11
-2.225
21
0.15
50
180
41
0.75
7
W0$1
0
TEXT
8
LABEL_ATTRIBUTE
10
-2.225
20
0.15
40
0.7
1
Ref.Des.
72
1
73
1
11
-2.225
21
0.15
50
180
41
0.75
7
W0$1
0
TEXT
8
PART_NAME_01
10
-2.225
20
0.15
40
0.7
1
U5
72
1
73
2
11
-2.225
21
0.15
41
0.75
7
W0$1
0
TEXT
8
PART_INFO
10
-2.225
20
-0.85
40
0.7
1
000000
72
1
73
2
11
-2.225
21
-0.85
41
0.75
7
W0$1
0
TEXT
8
PART_PTS
10
-2.225
20
-1.85
40
0.7
1
1 2 3 4 5 
72
1
73
2
11
-2.225
21
-1.85
41
0.75
7
W0$1
0
ENDBLK
0
BLOCK
2
PART_TOP_20
8
0
10
0
20
0
3
PART_TOP_20
70
64
0
INSERT
2
SYM_TOP_12
8
0
10
0
20
0
0
INSERT
2
PKG_4
8
0
10
0
20
0
0
TEXT
8
LABEL_INFO
10
1.6499993333
20
1.4
40
0.7
1
0 324000000 1 1 0 1
72
1
73
1
11
1.6499993333
21
1.4
50
180
41
0.75
7
W0$1
0
TEXT
8
LABEL_ATTRIBUTE
10
1.6499993333
20
1.4
40
0.7
1
Ref.Des.
72
1
73
1
11
1.6499993333
21
1.4
50
180
41
0.75
7
W0$1
0
TEXT
8
PART_NAME_01
10
1.6499993333
20
1.4
40
0.7
1
Q1
72
1
73
2
11
1.6499993333
21
1.4
50
180
41
0.75
7
W0$1
0
TEXT
8
LABEL_INFO
10
2.88
20
-0.98
40
0.84
1
0 0 1 1 0 1
72
1
73
1
11
2.88
21
-0.98
41
0.75
7
W0$12
0
TEXT
8
LABEL_ATTRIBUTE
10
2.88
20
-0.98
40
0.84
1
PartType
72
1
73
1
11
2.88
21
-0.98
41
0.75
7
W0$12
0
TEXT
8
PART_TYPE_01
10
2.88
20
-0.98
40
0.84
1
PMBT2222
72
1
73
2
11
2.88
21
-0.98
41
0.75
7
W0$12
0
TEXT
8
PART_INFO
10
2.88
20
-2.18
40
0.84
1
000001
72
1
73
2
11
2.88
21
-2.18
41
0.75
7
W0$12
0
TEXT
8
PART_PTS
10
2.88
20
-3.38
40
0.84
1
1 2 3 
72
1
73
2
11
2.88
21
-3.38
41
0.75
7
W0$12
0
ENDBLK
0
BLOCK
2
PART_TOP_21
8
0
10
0
20
0
3
PART_TOP_21
70
64
0
INSERT
2
SYM_TOP_12
8
0
10
0
20
0
0
INSERT
2
PKG_4
8
0
10
0
20
0
0
TEXT
8
LABEL_INFO
10
1.549998
20
1.5
40
0.7
1
0 324000000 1 1 0 1
72
1
73
1
11
1.549998
21
1.5
50
180
41
0.75
7
W0$1
0
TEXT
8
LABEL_ATTRIBUTE
10
1.549998
20
1.5
40
0.7
1
Ref.Des.
72
1
73
1
11
1.549998
21
1.5
50
180
41
0.75
7
W0$1
0
TEXT
8
PART_NAME_01
10
1.549998
20
1.5
40
0.7
1
Q2
72
1
73
2
11
1.549998
21
1.5
50
180
41
0.75
7
W0$1
0
TEXT
8
LABEL_INFO
10
2.88
20
-0.98
40
0.84
1
0 0 1 1 0 1
72
1
73
1
11
2.88
21
-0.98
41
0.75
7
W0$12
0
TEXT
8
LABEL_ATTRIBUTE
10
2.88
20
-0.98
40
0.84
1
PartType
72
1
73
1
11
2.88
21
-0.98
41
0.75
7
W0$12
0
TEXT
8
PART_TYPE_01
10
2.88
20
-0.98
40
0.84
1
PMBT2222
72
1
73
2
11
2.88
21
-0.98
41
0.75
7
W0$12
0
TEXT
8
PART_INFO
10
2.88
20
-2.18
40
0.84
1
000001
72
1
73
2
11
2.88
21
-2.18
41
0.75
7
W0$12
0
TEXT
8
PART_PTS
10
2.88
20
-3.38
40
0.84
1
1 2 3 
72
1
73
2
11
2.88
21
-3.38
41
0.75
7
W0$12
0
ENDBLK
0
BLOCK
2
PART_TOP_22
8
0
10
0
20
0
3
PART_TOP_22
70
64
0
INSERT
2
SYM_TOP_12
8
0
10
0
20
0
0
INSERT
2
PKG_4
8
0
10
0
20
0
0
TEXT
8
LABEL_INFO
10
-1.45
20
1.5999993333
40
0.7
1
0 324000000 1 1 0 1
72
1
73
1
11
-1.45
21
1.5999993333
50
180
41
0.75
7
W0$1
0
TEXT
8
LABEL_ATTRIBUTE
10
-1.45
20
1.5999993333
40
0.7
1
Ref.Des.
72
1
73
1
11
-1.45
21
1.5999993333
50
180
41
0.75
7
W0$1
0
TEXT
8
PART_NAME_01
10
-1.45
20
1.5999993333
40
0.7
1
Q5
72
1
73
2
11
-1.45
21
1.5999993333
50
180
41
0.75
7
W0$1
0
TEXT
8
LABEL_INFO
10
2.88
20
-0.98
40
0.84
1
0 0 1 1 0 1
72
1
73
1
11
2.88
21
-0.98
41
0.75
7
W0$12
0
TEXT
8
LABEL_ATTRIBUTE
10
2.88
20
-0.98
40
0.84
1
PartType
72
1
73
1
11
2.88
21
-0.98
41
0.75
7
W0$12
0
TEXT
8
PART_TYPE_01
10
2.88
20
-0.98
40
0.84
1
PMBT2222
72
1
73
2
11
2.88
21
-0.98
41
0.75
7
W0$12
0
TEXT
8
PART_INFO
10
2.88
20
-2.18
40
0.84
1
000001
72
1
73
2
11
2.88
21
-2.18
41
0.75
7
W0$12
0
TEXT
8
PART_PTS
10
2.88
20
-3.38
40
0.84
1
1 2 3 
72
1
73
2
11
2.88
21
-3.38
41
0.75
7
W0$12
0
ENDBLK
0
BLOCK
2
PART_TOP_23
8
0
10
0
20
0
3
PART_TOP_23
70
64
0
INSERT
2
SYM_TOP_8
8
0
10
0
20
0
0
INSERT
2
PKG_5
8
0
10
0
20
0
0
TEXT
8
LABEL_INFO
10
0.01
20
0.1
40
0.28
1
0 0 1 1 0 1
72
1
73
1
11
0.01
21
0.1
41
0.75
7
W0$02
0
TEXT
8
LABEL_ATTRIBUTE
10
0.01
20
0.1
40
0.28
1
PartType
72
1
73
1
11
0.01
21
0.1
41
0.75
7
W0$02
0
TEXT
8
PART_TYPE_01
10
0.01
20
0.1
40
0.28
1
R-1005
72
1
73
2
11
0.01
21
0.1
41
0.75
7
W0$02
0
TEXT
8
LABEL_INFO
10
1.55
20
0.1
40
0.7
1
0 0 1 1 0 1
72
1
73
1
11
1.55
21
0.1
41
0.75
7
W0$1
0
TEXT
8
LABEL_ATTRIBUTE
10
1.55
20
0.1
40
0.7
1
Ref.Des.
72
1
73
1
11
1.55
21
0.1
41
0.75
7
W0$1
0
TEXT
8
PART_NAME_01
10
1.55
20
0.1
40
0.7
1
R1
72
1
73
2
11
1.55
21
0.1
41
0.75
7
W0$1
0
TEXT
8
PART_INFO
10
1.55
20
-0.9
40
0.7
1
000000
72
1
73
2
11
1.55
21
-0.9
41
0.75
7
W0$1
0
TEXT
8
PART_PTS
10
1.55
20
-1.9
40
0.7
1
1 2 
72
1
73
2
11
1.55
21
-1.9
41
0.75
7
W0$1
0
ENDBLK
0
BLOCK
2
PART_TOP_24
8
0
10
0
20
0
3
PART_TOP_24
70
64
0
INSERT
2
SYM_TOP_8
8
0
10
0
20
0
0
INSERT
2
PKG_5
8
0
10
0
20
0
0
TEXT
8
LABEL_INFO
10
0.01
20
0.1
40
0.28
1
0 0 1 1 0 1
72
1
73
1
11
0.01
21
0.1
41
0.75
7
W0$02
0
TEXT
8
LABEL_ATTRIBUTE
10
0.01
20
0.1
40
0.28
1
PartType
72
1
73
1
11
0.01
21
0.1
41
0.75
7
W0$02
0
TEXT
8
PART_TYPE_01
10
0.01
20
0.1
40
0.28
1
R-1005
72
1
73
2
11
0.01
21
0.1
41
0.75
7
W0$02
0
TEXT
8
LABEL_INFO
10
1.75
20
0
40
0.7
1
0 0 1 1 0 1
72
1
73
1
11
1.75
21
0
41
0.75
7
W0$1
0
TEXT
8
LABEL_ATTRIBUTE
10
1.75
20
0
40
0.7
1
Ref.Des.
72
1
73
1
11
1.75
21
0
41
0.75
7
W0$1
0
TEXT
8
PART_NAME_01
10
1.75
20
0
40
0.7
1
R10
72
1
73
2
11
1.75
21
0
41
0.75
7
W0$1
0
TEXT
8
PART_INFO
10
1.75
20
-1
40
0.7
1
000000
72
1
73
2
11
1.75
21
-1
41
0.75
7
W0$1
0
TEXT
8
PART_PTS
10
1.75
20
-2
40
0.7
1
1 2 
72
1
73
2
11
1.75
21
-2
41
0.75
7
W0$1
0
ENDBLK
0
BLOCK
2
PART_TOP_25
8
0
10
0
20
0
3
PART_TOP_25
70
64
0
INSERT
2
SYM_TOP_8
8
0
10
0
20
0
0
INSERT
2
PKG_5
8
0
10
0
20
0
0
TEXT
8
LABEL_INFO
10
0.01
20
0.1
40
0.28
1
0 0 1 1 0 1
72
1
73
1
11
0.01
21
0.1
41
0.75
7
W0$02
0
TEXT
8
LABEL_ATTRIBUTE
10
0.01
20
0.1
40
0.28
1
PartType
72
1
73
1
11
0.01
21
0.1
41
0.75
7
W0$02
0
TEXT
8
PART_TYPE_01
10
0.01
20
0.1
40
0.28
1
R-1005
72
1
73
2
11
0.01
21
0.1
41
0.75
7
W0$02
0
TEXT
8
LABEL_INFO
10
-1.55
20
-0.1
40
0.7
1
0 324000000 1 1 0 1
72
1
73
1
11
-1.55
21
-0.1
50
180
41
0.75
7
W0$1
0
TEXT
8
LABEL_ATTRIBUTE
10
-1.55
20
-0.1
40
0.7
1
Ref.Des.
72
1
73
1
11
-1.55
21
-0.1
50
180
41
0.75
7
W0$1
0
TEXT
8
PART_NAME_01
10
-1.55
20
-0.1
40
0.7
1
R11
72
1
73
2
11
-1.55
21
-0.1
50
180
41
0.75
7
W0$1
0
TEXT
8
PART_INFO
10
-1.55
20
-1.1
40
0.7
1
000000
72
1
73
2
11
-1.55
21
-1.1
50
180
41
0.75
7
W0$1
0
TEXT
8
PART_PTS
10
-1.55
20
-2.1
40
0.7
1
1 2 
72
1
73
2
11
-1.55
21
-2.1
50
180
41
0.75
7
W0$1
0
ENDBLK
0
BLOCK
2
PART_TOP_26
8
0
10
0
20
0
3
PART_TOP_26
70
64
0
INSERT
2
SYM_TOP_8
8
0
10
0
20
0
0
INSERT
2
PKG_5
8
0
10
0
20
0
0
TEXT
8
LABEL_INFO
10
0.01
20
0.1
40
0.28
1
0 0 1 1 0 1
72
1
73
1
11
0.01
21
0.1
41
0.75
7
W0$02
0
TEXT
8
LABEL_ATTRIBUTE
10
0.01
20
0.1
40
0.28
1
PartType
72
1
73
1
11
0.01
21
0.1
41
0.75
7
W0$02
0
TEXT
8
PART_TYPE_01
10
0.01
20
0.1
40
0.28
1
R-1005
72
1
73
2
11
0.01
21
0.1
41
0.75
7
W0$02
0
TEXT
8
LABEL_INFO
10
1.65
20
0
40
0.7
1
0 324000000 1 1 0 1
72
1
73
1
11
1.65
21
0
50
180
41
0.75
7
W0$1
0
TEXT
8
LABEL_ATTRIBUTE
10
1.65
20
0
40
0.7
1
Ref.Des.
72
1
73
1
11
1.65
21
0
50
180
41
0.75
7
W0$1
0
TEXT
8
PART_NAME_01
10
1.65
20
0
40
0.7
1
R12
72
1
73
2
11
1.65
21
0
50
180
41
0.75
7
W0$1
0
TEXT
8
PART_INFO
10
1.65
20
-1
40
0.7
1
000000
72
1
73
2
11
1.65
21
-1
50
180
41
0.75
7
W0$1
0
TEXT
8
PART_PTS
10
1.65
20
-2
40
0.7
1
1 2 
72
1
73
2
11
1.65
21
-2
50
180
41
0.75
7
W0$1
0
ENDBLK
0
BLOCK
2
PART_TOP_27
8
0
10
0
20
0
3
PART_TOP_27
70
64
0
INSERT
2
SYM_TOP_8
8
0
10
0
20
0
0
INSERT
2
PKG_5
8
0
10
0
20
0
0
TEXT
8
LABEL_INFO
10
0.01
20
0.1
40
0.28
1
0 0 1 1 0 1
72
1
73
1
11
0.01
21
0.1
41
0.75
7
W0$02
0
TEXT
8
LABEL_ATTRIBUTE
10
0.01
20
0.1
40
0.28
1
PartType
72
1
73
1
11
0.01
21
0.1
41
0.75
7
W0$02
0
TEXT
8
PART_TYPE_01
10
0.01
20
0.1
40
0.28
1
R-1005
72
1
73
2
11
0.01
21
0.1
41
0.75
7
W0$02
0
TEXT
8
LABEL_INFO
10
1.65
20
0
40
0.7
1
0 324000000 1 1 0 1
72
1
73
1
11
1.65
21
0
50
180
41
0.75
7
W0$1
0
TEXT
8
LABEL_ATTRIBUTE
10
1.65
20
0
40
0.7
1
Ref.Des.
72
1
73
1
11
1.65
21
0
50
180
41
0.75
7
W0$1
0
TEXT
8
PART_NAME_01
10
1.65
20
0
40
0.7
1
R13
72
1
73
2
11
1.65
21
0
50
180
41
0.75
7
W0$1
0
TEXT
8
PART_INFO
10
1.65
20
-1
40
0.7
1
000000
72
1
73
2
11
1.65
21
-1
50
180
41
0.75
7
W0$1
0
TEXT
8
PART_PTS
10
1.65
20
-2
40
0.7
1
1 2 
72
1
73
2
11
1.65
21
-2
50
180
41
0.75
7
W0$1
0
ENDBLK
0
BLOCK
2
PART_TOP_28
8
0
10
0
20
0
3
PART_TOP_28
70
64
0
INSERT
2
SYM_TOP_8
8
0
10
0
20
0
0
INSERT
2
PKG_5
8
0
10
0
20
0
0
TEXT
8
LABEL_INFO
10
0.01
20
0.1
40
0.28
1
0 0 1 1 0 1
72
1
73
1
11
0.01
21
0.1
41
0.75
7
W0$02
0
TEXT
8
LABEL_ATTRIBUTE
10
0.01
20
0.1
40
0.28
1
PartType
72
1
73
1
11
0.01
21
0.1
41
0.75
7
W0$02
0
TEXT
8
PART_TYPE_01
10
0.01
20
0.1
40
0.28
1
R-1005
72
1
73
2
11
0.01
21
0.1
41
0.75
7
W0$02
0
TEXT
8
LABEL_INFO
10
-0.0499993333
20
-1
40
0.7
1
0 324000000 1 1 0 1
72
1
73
1
11
-0.0499993333
21
-1
50
180
41
0.75
7
W0$1
0
TEXT
8
LABEL_ATTRIBUTE
10
-0.0499993333
20
-1
40
0.7
1
Ref.Des.
72
1
73
1
11
-0.0499993333
21
-1
50
180
41
0.75
7
W0$1
0
TEXT
8
PART_NAME_01
10
-0.0499993333
20
-1
40
0.7
1
R14
72
1
73
2
11
-0.0499993333
21
-1
50
180
41
0.75
7
W0$1
0
TEXT
8
PART_INFO
10
-0.0499993333
20
-2
40
0.7
1
000000
72
1
73
2
11
-0.0499993333
21
-2
50
180
41
0.75
7
W0$1
0
TEXT
8
PART_PTS
10
-0.0499993333
20
-3
40
0.7
1
1 2 
72
1
73
2
11
-0.0499993333
21
-3
50
180
41
0.75
7
W0$1
0
ENDBLK
0
BLOCK
2
PART_TOP_29
8
0
10
0
20
0
3
PART_TOP_29
70
64
0
INSERT
2
SYM_TOP_8
8
0
10
0
20
0
0
INSERT
2
PKG_5
8
0
10
0
20
0
0
TEXT
8
LABEL_INFO
10
0.01
20
0.1
40
0.28
1
0 0 1 1 0 1
72
1
73
1
11
0.01
21
0.1
41
0.75
7
W0$02
0
TEXT
8
LABEL_ATTRIBUTE
10
0.01
20
0.1
40
0.28
1
PartType
72
1
73
1
11
0.01
21
0.1
41
0.75
7
W0$02
0
TEXT
8
PART_TYPE_01
10
0.01
20
0.1
40
0.28
1
R-1005
72
1
73
2
11
0.01
21
0.1
41
0.75
7
W0$02
0
TEXT
8
LABEL_INFO
10
2.05
20
0
40
0.7
1
0 0 1 1 0 1
72
1
73
1
11
2.05
21
0
41
0.75
7
W0$1
0
TEXT
8
LABEL_ATTRIBUTE
10
2.05
20
0
40
0.7
1
Ref.Des.
72
1
73
1
11
2.05
21
0
41
0.75
7
W0$1
0
TEXT
8
PART_NAME_01
10
2.05
20
0
40
0.7
1
R19
72
1
73
2
11
2.05
21
0
41
0.75
7
W0$1
0
TEXT
8
PART_INFO
10
2.05
20
-1
40
0.7
1
000000
72
1
73
2
11
2.05
21
-1
41
0.75
7
W0$1
0
TEXT
8
PART_PTS
10
2.05
20
-2
40
0.7
1
1 2 
72
1
73
2
11
2.05
21
-2
41
0.75
7
W0$1
0
ENDBLK
0
BLOCK
2
PART_TOP_30
8
0
10
0
20
0
3
PART_TOP_30
70
64
0
INSERT
2
SYM_TOP_8
8
0
10
0
20
0
0
INSERT
2
PKG_5
8
0
10
0
20
0
0
TEXT
8
LABEL_INFO
10
0.01
20
0.1
40
0.28
1
0 0 1 1 0 1
72
1
73
1
11
0.01
21
0.1
41
0.75
7
W0$02
0
TEXT
8
LABEL_ATTRIBUTE
10
0.01
20
0.1
40
0.28
1
PartType
72
1
73
1
11
0.01
21
0.1
41
0.75
7
W0$02
0
TEXT
8
PART_TYPE_01
10
0.01
20
0.1
40
0.28
1
R-1005
72
1
73
2
11
0.01
21
0.1
41
0.75
7
W0$02
0
TEXT
8
LABEL_INFO
10
1.65
20
0
40
0.7
1
0 0 1 1 0 1
72
1
73
1
11
1.65
21
0
41
0.75
7
W0$1
0
TEXT
8
LABEL_ATTRIBUTE
10
1.65
20
0
40
0.7
1
Ref.Des.
72
1
73
1
11
1.65
21
0
41
0.75
7
W0$1
0
TEXT
8
PART_NAME_01
10
1.65
20
0
40
0.7
1
R2
72
1
73
2
11
1.65
21
0
41
0.75
7
W0$1
0
TEXT
8
PART_INFO
10
1.65
20
-1
40
0.7
1
000000
72
1
73
2
11
1.65
21
-1
41
0.75
7
W0$1
0
TEXT
8
PART_PTS
10
1.65
20
-2
40
0.7
1
1 2 
72
1
73
2
11
1.65
21
-2
41
0.75
7
W0$1
0
ENDBLK
0
BLOCK
2
PART_TOP_31
8
0
10
0
20
0
3
PART_TOP_31
70
64
0
INSERT
2
SYM_TOP_8
8
0
10
0
20
0
0
INSERT
2
PKG_5
8
0
10
0
20
0
0
TEXT
8
LABEL_INFO
10
0.01
20
0.1
40
0.28
1
0 0 1 1 0 1
72
1
73
1
11
0.01
21
0.1
41
0.75
7
W0$02
0
TEXT
8
LABEL_ATTRIBUTE
10
0.01
20
0.1
40
0.28
1
PartType
72
1
73
1
11
0.01
21
0.1
41
0.75
7
W0$02
0
TEXT
8
PART_TYPE_01
10
0.01
20
0.1
40
0.28
1
R-1005
72
1
73
2
11
0.01
21
0.1
41
0.75
7
W0$02
0
TEXT
8
LABEL_INFO
10
2.05
20
0
40
0.7
1
0 0 1 1 0 1
72
1
73
1
11
2.05
21
0
41
0.75
7
W0$1
0
TEXT
8
LABEL_ATTRIBUTE
10
2.05
20
0
40
0.7
1
Ref.Des.
72
1
73
1
11
2.05
21
0
41
0.75
7
W0$1
0
TEXT
8
PART_NAME_01
10
2.05
20
0
40
0.7
1
R24
72
1
73
2
11
2.05
21
0
41
0.75
7
W0$1
0
TEXT
8
PART_INFO
10
2.05
20
-1
40
0.7
1
000000
72
1
73
2
11
2.05
21
-1
41
0.75
7
W0$1
0
TEXT
8
PART_PTS
10
2.05
20
-2
40
0.7
1
1 2 
72
1
73
2
11
2.05
21
-2
41
0.75
7
W0$1
0
ENDBLK
0
BLOCK
2
PART_TOP_32
8
0
10
0
20
0
3
PART_TOP_32
70
64
0
INSERT
2
SYM_TOP_8
8
0
10
0
20
0
0
INSERT
2
PKG_5
8
0
10
0
20
0
0
TEXT
8
LABEL_INFO
10
0.01
20
0.1
40
0.28
1
0 0 1 1 0 1
72
1
73
1
11
0.01
21
0.1
41
0.75
7
W0$02
0
TEXT
8
LABEL_ATTRIBUTE
10
0.01
20
0.1
40
0.28
1
PartType
72
1
73
1
11
0.01
21
0.1
41
0.75
7
W0$02
0
TEXT
8
PART_TYPE_01
10
0.01
20
0.1
40
0.28
1
R-1005
72
1
73
2
11
0.01
21
0.1
41
0.75
7
W0$02
0
TEXT
8
LABEL_INFO
10
2.05
20
0
40
0.7
1
0 0 1 1 0 1
72
1
73
1
11
2.05
21
0
41
0.75
7
W0$1
0
TEXT
8
LABEL_ATTRIBUTE
10
2.05
20
0
40
0.7
1
Ref.Des.
72
1
73
1
11
2.05
21
0
41
0.75
7
W0$1
0
TEXT
8
PART_NAME_01
10
2.05
20
0
40
0.7
1
R25
72
1
73
2
11
2.05
21
0
41
0.75
7
W0$1
0
TEXT
8
PART_INFO
10
2.05
20
-1
40
0.7
1
000000
72
1
73
2
11
2.05
21
-1
41
0.75
7
W0$1
0
TEXT
8
PART_PTS
10
2.05
20
-2
40
0.7
1
1 2 
72
1
73
2
11
2.05
21
-2
41
0.75
7
W0$1
0
ENDBLK
0
BLOCK
2
PART_TOP_33
8
0
10
0
20
0
3
PART_TOP_33
70
64
0
INSERT
2
SYM_TOP_8
8
0
10
0
20
0
0
INSERT
2
PKG_5
8
0
10
0
20
0
0
TEXT
8
LABEL_INFO
10
0.01
20
0.1
40
0.28
1
0 0 1 1 0 1
72
1
73
1
11
0.01
21
0.1
41
0.75
7
W0$02
0
TEXT
8
LABEL_ATTRIBUTE
10
0.01
20
0.1
40
0.28
1
PartType
72
1
73
1
11
0.01
21
0.1
41
0.75
7
W0$02
0
TEXT
8
PART_TYPE_01
10
0.01
20
0.1
40
0.28
1
R-1005
72
1
73
2
11
0.01
21
0.1
41
0.75
7
W0$02
0
TEXT
8
LABEL_INFO
10
0.05
20
1
40
0.7
1
0 0 1 1 0 1
72
1
73
1
11
0.05
21
1
41
0.75
7
W0$1
0
TEXT
8
LABEL_ATTRIBUTE
10
0.05
20
1
40
0.7
1
Ref.Des.
72
1
73
1
11
0.05
21
1
41
0.75
7
W0$1
0
TEXT
8
PART_NAME_01
10
0.05
20
1
40
0.7
1
R28
72
1
73
2
11
0.05
21
1
41
0.75
7
W0$1
0
TEXT
8
PART_INFO
10
0.05
20
0
40
0.7
1
000000
72
1
73
2
11
0.05
21
0
41
0.75
7
W0$1
0
TEXT
8
PART_PTS
10
0.05
20
-1
40
0.7
1
1 2 
72
1
73
2
11
0.05
21
-1
41
0.75
7
W0$1
0
ENDBLK
0
BLOCK
2
PART_TOP_34
8
0
10
0
20
0
3
PART_TOP_34
70
64
0
INSERT
2
SYM_TOP_8
8
0
10
0
20
0
0
INSERT
2
PKG_5
8
0
10
0
20
0
0
TEXT
8
LABEL_INFO
10
0.01
20
0.1
40
0.28
1
0 0 1 1 0 1
72
1
73
1
11
0.01
21
0.1
41
0.75
7
W0$02
0
TEXT
8
LABEL_ATTRIBUTE
10
0.01
20
0.1
40
0.28
1
PartType
72
1
73
1
11
0.01
21
0.1
41
0.75
7
W0$02
0
TEXT
8
PART_TYPE_01
10
0.01
20
0.1
40
0.28
1
R-1005
72
1
73
2
11
0.01
21
0.1
41
0.75
7
W0$02
0
TEXT
8
LABEL_INFO
10
-0.0499993333
20
-1.1
40
0.7
1
0 324000000 1 1 0 1
72
1
73
1
11
-0.0499993333
21
-1.1
50
180
41
0.75
7
W0$1
0
TEXT
8
LABEL_ATTRIBUTE
10
-0.0499993333
20
-1.1
40
0.7
1
Ref.Des.
72
1
73
1
11
-0.0499993333
21
-1.1
50
180
41
0.75
7
W0$1
0
TEXT
8
PART_NAME_01
10
-0.0499993333
20
-1.1
40
0.7
1
R29
72
1
73
2
11
-0.0499993333
21
-1.1
50
180
41
0.75
7
W0$1
0
TEXT
8
PART_INFO
10
-0.0499993333
20
-2.1
40
0.7
1
000000
72
1
73
2
11
-0.0499993333
21
-2.1
50
180
41
0.75
7
W0$1
0
TEXT
8
PART_PTS
10
-0.0499993333
20
-3.1
40
0.7
1
1 2 
72
1
73
2
11
-0.0499993333
21
-3.1
50
180
41
0.75
7
W0$1
0
ENDBLK
0
BLOCK
2
PART_TOP_35
8
0
10
0
20
0
3
PART_TOP_35
70
64
0
INSERT
2
SYM_TOP_8
8
0
10
0
20
0
0
INSERT
2
PKG_5
8
0
10
0
20
0
0
TEXT
8
LABEL_INFO
10
0.01
20
0.1
40
0.28
1
0 0 1 1 0 1
72
1
73
1
11
0.01
21
0.1
41
0.75
7
W0$02
0
TEXT
8
LABEL_ATTRIBUTE
10
0.01
20
0.1
40
0.28
1
PartType
72
1
73
1
11
0.01
21
0.1
41
0.75
7
W0$02
0
TEXT
8
PART_TYPE_01
10
0.01
20
0.1
40
0.28
1
R-1005
72
1
73
2
11
0.01
21
0.1
41
0.75
7
W0$02
0
TEXT
8
LABEL_INFO
10
1.65
20
0
40
0.7
1
0 0 1 1 0 1
72
1
73
1
11
1.65
21
0
41
0.75
7
W0$1
0
TEXT
8
LABEL_ATTRIBUTE
10
1.65
20
0
40
0.7
1
Ref.Des.
72
1
73
1
11
1.65
21
0
41
0.75
7
W0$1
0
TEXT
8
PART_NAME_01
10
1.65
20
0
40
0.7
1
R3
72
1
73
2
11
1.65
21
0
41
0.75
7
W0$1
0
TEXT
8
PART_INFO
10
1.65
20
-1
40
0.7
1
000000
72
1
73
2
11
1.65
21
-1
41
0.75
7
W0$1
0
TEXT
8
PART_PTS
10
1.65
20
-2
40
0.7
1
1 2 
72
1
73
2
11
1.65
21
-2
41
0.75
7
W0$1
0
ENDBLK
0
BLOCK
2
PART_TOP_36
8
0
10
0
20
0
3
PART_TOP_36
70
64
0
INSERT
2
SYM_TOP_8
8
0
10
0
20
0
0
INSERT
2
PKG_5
8
0
10
0
20
0
0
TEXT
8
LABEL_INFO
10
0.01
20
0.1
40
0.28
1
0 0 1 1 0 1
72
1
73
1
11
0.01
21
0.1
41
0.75
7
W0$02
0
TEXT
8
LABEL_ATTRIBUTE
10
0.01
20
0.1
40
0.28
1
PartType
72
1
73
1
11
0.01
21
0.1
41
0.75
7
W0$02
0
TEXT
8
PART_TYPE_01
10
0.01
20
0.1
40
0.28
1
R-1005
72
1
73
2
11
0.01
21
0.1
41
0.75
7
W0$02
0
TEXT
8
LABEL_INFO
10
-1.95
20
0
40
0.7
1
0 324000000 1 1 0 1
72
1
73
1
11
-1.95
21
0
50
180
41
0.75
7
W0$1
0
TEXT
8
LABEL_ATTRIBUTE
10
-1.95
20
0
40
0.7
1
Ref.Des.
72
1
73
1
11
-1.95
21
0
50
180
41
0.75
7
W0$1
0
TEXT
8
PART_NAME_01
10
-1.95
20
0
40
0.7
1
R4
72
1
73
2
11
-1.95
21
0
50
180
41
0.75
7
W0$1
0
TEXT
8
PART_INFO
10
-1.95
20
-1
40
0.7
1
000000
72
1
73
2
11
-1.95
21
-1
50
180
41
0.75
7
W0$1
0
TEXT
8
PART_PTS
10
-1.95
20
-2
40
0.7
1
1 2 
72
1
73
2
11
-1.95
21
-2
50
180
41
0.75
7
W0$1
0
ENDBLK
0
BLOCK
2
PART_TOP_37
8
0
10
0
20
0
3
PART_TOP_37
70
64
0
INSERT
2
SYM_TOP_8
8
0
10
0
20
0
0
INSERT
2
PKG_5
8
0
10
0
20
0
0
TEXT
8
LABEL_INFO
10
0.01
20
0.1
40
0.28
1
0 0 1 1 0 1
72
1
73
1
11
0.01
21
0.1
41
0.75
7
W0$02
0
TEXT
8
LABEL_ATTRIBUTE
10
0.01
20
0.1
40
0.28
1
PartType
72
1
73
1
11
0.01
21
0.1
41
0.75
7
W0$02
0
TEXT
8
PART_TYPE_01
10
0.01
20
0.1
40
0.28
1
R-1005
72
1
73
2
11
0.01
21
0.1
41
0.75
7
W0$02
0
TEXT
8
LABEL_INFO
10
1.85
20
0
40
0.7
1
0 0 1 1 0 1
72
1
73
1
11
1.85
21
0
41
0.75
7
W0$1
0
TEXT
8
LABEL_ATTRIBUTE
10
1.85
20
0
40
0.7
1
Ref.Des.
72
1
73
1
11
1.85
21
0
41
0.75
7
W0$1
0
TEXT
8
PART_NAME_01
10
1.85
20
0
40
0.7
1
R5
72
1
73
2
11
1.85
21
0
41
0.75
7
W0$1
0
TEXT
8
PART_INFO
10
1.85
20
-1
40
0.7
1
000000
72
1
73
2
11
1.85
21
-1
41
0.75
7
W0$1
0
TEXT
8
PART_PTS
10
1.85
20
-2
40
0.7
1
1 2 
72
1
73
2
11
1.85
21
-2
41
0.75
7
W0$1
0
ENDBLK
0
BLOCK
2
PART_TOP_38
8
0
10
0
20
0
3
PART_TOP_38
70
64
0
INSERT
2
SYM_TOP_8
8
0
10
0
20
0
0
INSERT
2
PKG_5
8
0
10
0
20
0
0
TEXT
8
LABEL_INFO
10
0.01
20
0.1
40
0.28
1
0 0 1 1 0 1
72
1
73
1
11
0.01
21
0.1
41
0.75
7
W0$02
0
TEXT
8
LABEL_ATTRIBUTE
10
0.01
20
0.1
40
0.28
1
PartType
72
1
73
1
11
0.01
21
0.1
41
0.75
7
W0$02
0
TEXT
8
PART_TYPE_01
10
0.01
20
0.1
40
0.28
1
R-1005
72
1
73
2
11
0.01
21
0.1
41
0.75
7
W0$02
0
TEXT
8
LABEL_INFO
10
0.05
20
-0.9
40
0.7
1
0 324000000 1 1 0 1
72
1
73
1
11
0.05
21
-0.9
50
180
41
0.75
7
W0$1
0
TEXT
8
LABEL_ATTRIBUTE
10
0.05
20
-0.9
40
0.7
1
Ref.Des.
72
1
73
1
11
0.05
21
-0.9
50
180
41
0.75
7
W0$1
0
TEXT
8
PART_NAME_01
10
0.05
20
-0.9
40
0.7
1
R6
72
1
73
2
11
0.05
21
-0.9
50
180
41
0.75
7
W0$1
0
TEXT
8
PART_INFO
10
0.05
20
-1.9
40
0.7
1
000000
72
1
73
2
11
0.05
21
-1.9
50
180
41
0.75
7
W0$1
0
TEXT
8
PART_PTS
10
0.05
20
-2.9
40
0.7
1
1 2 
72
1
73
2
11
0.05
21
-2.9
50
180
41
0.75
7
W0$1
0
ENDBLK
0
BLOCK
2
PART_TOP_39
8
0
10
0
20
0
3
PART_TOP_39
70
64
0
INSERT
2
SYM_TOP_8
8
0
10
0
20
0
0
INSERT
2
PKG_5
8
0
10
0
20
0
0
TEXT
8
LABEL_INFO
10
0.01
20
0.1
40
0.28
1
0 0 1 1 0 1
72
1
73
1
11
0.01
21
0.1
41
0.75
7
W0$02
0
TEXT
8
LABEL_ATTRIBUTE
10
0.01
20
0.1
40
0.28
1
PartType
72
1
73
1
11
0.01
21
0.1
41
0.75
7
W0$02
0
TEXT
8
PART_TYPE_01
10
0.01
20
0.1
40
0.28
1
R-1005
72
1
73
2
11
0.01
21
0.1
41
0.75
7
W0$02
0
TEXT
8
LABEL_INFO
10
1.65
20
0
40
0.7
1
0 324000000 1 1 0 1
72
1
73
1
11
1.65
21
0
50
180
41
0.75
7
W0$1
0
TEXT
8
LABEL_ATTRIBUTE
10
1.65
20
0
40
0.7
1
Ref.Des.
72
1
73
1
11
1.65
21
0
50
180
41
0.75
7
W0$1
0
TEXT
8
PART_NAME_01
10
1.65
20
0
40
0.7
1
R7
72
1
73
2
11
1.65
21
0
50
180
41
0.75
7
W0$1
0
TEXT
8
PART_INFO
10
1.65
20
-1
40
0.7
1
000000
72
1
73
2
11
1.65
21
-1
50
180
41
0.75
7
W0$1
0
TEXT
8
PART_PTS
10
1.65
20
-2
40
0.7
1
1 2 
72
1
73
2
11
1.65
21
-2
50
180
41
0.75
7
W0$1
0
ENDBLK
0
BLOCK
2
PART_TOP_40
8
0
10
0
20
0
3
PART_TOP_40
70
64
0
INSERT
2
SYM_TOP_8
8
0
10
0
20
0
0
INSERT
2
PKG_5
8
0
10
0
20
0
0
TEXT
8
LABEL_INFO
10
0.01
20
0.1
40
0.28
1
0 0 1 1 0 1
72
1
73
1
11
0.01
21
0.1
41
0.75
7
W0$02
0
TEXT
8
LABEL_ATTRIBUTE
10
0.01
20
0.1
40
0.28
1
PartType
72
1
73
1
11
0.01
21
0.1
41
0.75
7
W0$02
0
TEXT
8
PART_TYPE_01
10
0.01
20
0.1
40
0.28
1
R-1005
72
1
73
2
11
0.01
21
0.1
41
0.75
7
W0$02
0
TEXT
8
LABEL_INFO
10
1.65
20
0
40
0.7
1
0 324000000 1 1 0 1
72
1
73
1
11
1.65
21
0
50
180
41
0.75
7
W0$1
0
TEXT
8
LABEL_ATTRIBUTE
10
1.65
20
0
40
0.7
1
Ref.Des.
72
1
73
1
11
1.65
21
0
50
180
41
0.75
7
W0$1
0
TEXT
8
PART_NAME_01
10
1.65
20
0
40
0.7
1
R8
72
1
73
2
11
1.65
21
0
50
180
41
0.75
7
W0$1
0
TEXT
8
PART_INFO
10
1.65
20
-1
40
0.7
1
000000
72
1
73
2
11
1.65
21
-1
50
180
41
0.75
7
W0$1
0
TEXT
8
PART_PTS
10
1.65
20
-2
40
0.7
1
1 2 
72
1
73
2
11
1.65
21
-2
50
180
41
0.75
7
W0$1
0
ENDBLK
0
BLOCK
2
PART_TOP_41
8
0
10
0
20
0
3
PART_TOP_41
70
64
0
INSERT
2
SYM_TOP_8
8
0
10
0
20
0
0
INSERT
2
PKG_5
8
0
10
0
20
0
0
TEXT
8
LABEL_INFO
10
0.01
20
0.1
40
0.28
1
0 0 1 1 0 1
72
1
73
1
11
0.01
21
0.1
41
0.75
7
W0$02
0
TEXT
8
LABEL_ATTRIBUTE
10
0.01
20
0.1
40
0.28
1
PartType
72
1
73
1
11
0.01
21
0.1
41
0.75
7
W0$02
0
TEXT
8
PART_TYPE_01
10
0.01
20
0.1
40
0.28
1
R-1005
72
1
73
2
11
0.01
21
0.1
41
0.75
7
W0$02
0
TEXT
8
LABEL_INFO
10
0.05
20
-1
40
0.7
1
0 324000000 1 1 0 1
72
1
73
1
11
0.05
21
-1
50
180
41
0.75
7
W0$1
0
TEXT
8
LABEL_ATTRIBUTE
10
0.05
20
-1
40
0.7
1
Ref.Des.
72
1
73
1
11
0.05
21
-1
50
180
41
0.75
7
W0$1
0
TEXT
8
PART_NAME_01
10
0.05
20
-1
40
0.7
1
R9
72
1
73
2
11
0.05
21
-1
50
180
41
0.75
7
W0$1
0
TEXT
8
PART_INFO
10
0.05
20
-2
40
0.7
1
000000
72
1
73
2
11
0.05
21
-2
50
180
41
0.75
7
W0$1
0
TEXT
8
PART_PTS
10
0.05
20
-3
40
0.7
1
1 2 
72
1
73
2
11
0.05
21
-3
50
180
41
0.75
7
W0$1
0
ENDBLK
0
BLOCK
2
PART_TOP_42
8
0
10
0
20
0
3
PART_TOP_42
70
64
0
INSERT
2
SYM_TOP_9
8
0
10
0
20
0
0
INSERT
2
PKG_6
8
0
10
0
20
0
0
TEXT
8
LABEL_INFO
10
0
20
0
40
1.05
1
1 0 1 1 0 1
72
1
73
1
11
0
21
0
41
0.75
7
W0$15
0
TEXT
8
LABEL_ATTRIBUTE
10
0
20
0
40
1.05
1
Ref.Des.
72
1
73
1
11
0
21
0
41
0.75
7
W0$15
0
TEXT
8
PART_NAME_127
10
0
20
0
40
1.05
1
U1
72
1
73
2
11
0
21
0
50
-180
41
0.75
7
W0$15
0
TEXT
8
LABEL_INFO
10
-6.52
20
5.8999993333
40
0.7
1
1 162000000 1 1 0 1
72
1
73
1
11
-6.52
21
5.8999993333
50
90
41
0.75
7
W0$1
0
TEXT
8
LABEL_ATTRIBUTE
10
-6.52
20
5.8999993333
40
0.7
1
Ref.Des.
72
1
73
1
11
-6.52
21
5.8999993333
50
90
41
0.75
7
W0$1
0
TEXT
8
PART_NAME_01
10
-6.52
20
5.8999993333
40
0.7
1
U1
72
1
73
2
11
-6.52
21
5.8999993333
50
-270
41
0.75
7
W0$1
0
TEXT
8
LABEL_INFO
10
0
20
0
40
1.05
1
1 0 1 1 0 1
72
1
73
1
11
0
21
0
41
0.75
7
W0$15
0
TEXT
8
LABEL_ATTRIBUTE
10
0
20
0
40
1.05
1
PartType
72
1
73
1
11
0
21
0
41
0.75
7
W0$15
0
TEXT
8
PART_TYPE_01
10
0
20
0
40
1.05
1
STM32F070RBT6
72
1
73
2
11
0
21
0
50
-180
41
0.75
7
W0$15
0
TEXT
8
PART_INFO
10
0
20
-1.5
40
1.05
1
000000
72
1
73
2
11
0
21
-1.5
50
-180
41
0.75
7
W0$15
0
TEXT
8
PART_PTS
10
0
20
-3
40
1.05
1
1 7 8 9 10 11 12 13 15 16 18 19 23 24 25 26 27 31 32 33 34 35 36 37 38 41 44 45 46 47 48 49 50 56 58 60 61 62 63 64 
72
1
73
2
11
0
21
-3
50
-180
41
0.75
7
W0$15
0
ENDBLK
0
BLOCK
2
PART_TOP_43
8
0
10
0
20
0
3
PART_TOP_43
70
64
0
INSERT
2
SYM_TOP_10
8
0
10
0
20
0
0
INSERT
2
PKG_7
8
0
10
0
20
0
0
TEXT
8
LABEL_INFO
10
-0.55
20
0.375
40
0.42
1
0 0 0 2 0 1
73
2
11
-0.55
21
0.375
41
0.75
7
W0$02
0
TEXT
8
LABEL_ATTRIBUTE
10
-0.55
20
0.375
40
0.42
1
PartType
73
2
11
-0.55
21
0.375
41
0.75
7
W0$02
0
TEXT
8
PART_TYPE_01
10
-0.55
20
0.375
40
0.42
1
LED-2012
73
3
11
-0.55
21
0.375
41
0.75
7
W0$02
0
TEXT
8
LABEL_INFO
10
-0.8
20
1.2
40
0.7
1
0 0 0 0 0 1
41
0.75
7
W0$1
0
TEXT
8
LABEL_ATTRIBUTE
10
-0.8
20
1.2
40
0.7
1
Ref.Des.
41
0.75
7
W0$1
0
TEXT
8
PART_NAME_01
10
-0.8
20
1.2
40
0.7
1
LED2
41
0.75
7
W0$1
0
TEXT
8
PART_INFO
10
-0.8
20
0.2
40
0.7
1
000000
41
0.75
7
W0$1
0
TEXT
8
PART_PTS
10
-0.8
20
-0.8
40
0.7
1
1 2 
41
0.75
7
W0$1
0
ENDBLK
0
BLOCK
2
PART_TOP_44
8
0
10
0
20
0
3
PART_TOP_44
70
64
0
INSERT
2
SYM_TOP_11
8
0
10
0
20
0
0
INSERT
2
PKG_8
8
0
10
0
20
0
0
TEXT
8
LABEL_INFO
10
0.45
20
1.8
40
0.7
1
0 0 1 1 0 1
72
1
73
1
11
0.45
21
1.8
41
0.75
7
W0$1
0
TEXT
8
LABEL_ATTRIBUTE
10
0.45
20
1.8
40
0.7
1
Ref.Des.
72
1
73
1
11
0.45
21
1.8
41
0.75
7
W0$1
0
TEXT
8
PART_NAME_01
10
0.45
20
1.8
40
0.7
1
D1
72
1
73
2
11
0.45
21
1.8
41
0.75
7
W0$1
0
TEXT
8
LABEL_INFO
10
0.005
20
-1.78
40
0.42
1
0 0 1 1 0 1
72
1
73
1
11
0.005
21
-1.78
41
0.75
7
W0$05
0
TEXT
8
LABEL_ATTRIBUTE
10
0.005
20
-1.78
40
0.42
1
PartType
72
1
73
1
11
0.005
21
-1.78
41
0.75
7
W0$05
0
TEXT
8
PART_TYPE_01
10
0.005
20
-1.78
40
0.42
1
STPS120M
72
1
73
2
11
0.005
21
-1.78
41
0.75
7
W0$05
0
TEXT
8
LABEL_INFO
10
0.035
20
-1.3
40
0.42
1
0 0 1 1 0 1
72
1
73
1
11
0.035
21
-1.3
41
0.75
7
W0$05
0
TEXT
8
LABEL_ATTRIBUTE
10
0.035
20
-1.3
40
0.42
1
Value
72
1
73
1
11
0.035
21
-1.3
41
0.75
7
W0$05
0
TEXT
8
ATTRIBUTE_01
10
0.035
20
-1.3
40
0.42
1
STPS120M
72
1
73
2
11
0.035
21
-1.3
41
0.75
7
W0$05
0
TEXT
8
PART_INFO
10
0.035
20
-1.9
40
0.42
1
000000
72
1
73
2
11
0.035
21
-1.9
41
0.75
7
W0$05
0
TEXT
8
PART_PTS
10
0.035
20
-2.5
40
0.42
1
1 2 
72
1
73
2
11
0.035
21
-2.5
41
0.75
7
W0$05
0
ENDBLK
0
BLOCK
2
PART_TOP_45
8
0
10
0
20
0
3
PART_TOP_45
70
64
0
INSERT
2
SYM_TOP_13
8
0
10
0
20
0
0
INSERT
2
PKG_9
8
0
10
0
20
0
0
TEXT
8
LABEL_INFO
10
2.25
20
-0.1999993333
40
0.7
1
0 324000000 1 1 0 1
72
1
73
1
11
2.25
21
-0.1999993333
50
180
41
0.75
7
W0$1
0
TEXT
8
LABEL_ATTRIBUTE
10
2.25
20
-0.1999993333
40
0.7
1
Ref.Des.
72
1
73
1
11
2.25
21
-0.1999993333
50
180
41
0.75
7
W0$1
0
TEXT
8
PART_NAME_01
10
2.25
20
-0.1999993333
40
0.7
1
L4
72
1
73
2
11
2.25
21
-0.1999993333
50
180
41
0.75
7
W0$1
0
TEXT
8
LABEL_INFO
10
0
20
0.01641
40
0.42
1
0 0 1 1 0 1
72
1
73
1
11
0
21
0.01641
41
0.75
7
W0$05
0
TEXT
8
LABEL_ATTRIBUTE
10
0
20
0.01641
40
0.42
1
PartType
72
1
73
1
11
0
21
0.01641
41
0.75
7
W0$05
0
TEXT
8
PART_TYPE_01
10
0
20
0.01641
40
0.42
1
LQM2HPZ2R2MG0
72
1
73
2
11
0
21
0.01641
41
0.75
7
W0$05
0
TEXT
8
LABEL_INFO
10
0
20
0.01641
40
0.42
1
0 0 1 1 0 1
72
1
73
1
11
0
21
0.01641
41
0.75
7
W0$05
0
TEXT
8
LABEL_ATTRIBUTE
10
0
20
0.01641
40
0.42
1
Value
72
1
73
1
11
0
21
0.01641
41
0.75
7
W0$05
0
TEXT
8
ATTRIBUTE_01
10
0
20
0.01641
40
0.42
1
LQM2HPZ2R2MG0
72
1
73
2
11
0
21
0.01641
41
0.75
7
W0$05
0
TEXT
8
PART_INFO
10
0
20
-0.58359
40
0.42
1
000000
72
1
73
2
11
0
21
-0.58359
41
0.75
7
W0$05
0
TEXT
8
PART_PTS
10
0
20
-1.18359
40
0.42
1
1 2 
72
1
73
2
11
0
21
-1.18359
41
0.75
7
W0$05
0
ENDBLK
0
BLOCK
2
PART_TOP_46
8
0
10
0
20
0
3
PART_TOP_46
70
64
0
INSERT
2
SYM_TOP_14
8
0
10
0
20
0
0
INSERT
2
PKG_10
8
0
10
0
20
0
0
TEXT
8
LABEL_INFO
10
0.3999993333
20
3.7
40
0.7
1
0 324000000 0 0 0 1
50
180
41
0.75
7
W0$1
0
TEXT
8
LABEL_ATTRIBUTE
10
0.3999993333
20
3.7
40
0.7
1
Ref.Des.
50
180
41
0.75
7
W0$1
0
TEXT
8
PART_NAME_01
10
0.3999993333
20
3.7
40
0.7
1
L3
50
180
41
0.75
7
W0$1
0
TEXT
8
LABEL_INFO
10
-1.15
20
1.125
40
0.889
1
0 0 0 2 0 1
73
2
11
-1.15
21
1.125
41
0.75
7
W0$127
0
TEXT
8
LABEL_ATTRIBUTE
10
-1.15
20
1.125
40
0.889
1
PartType
73
2
11
-1.15
21
1.125
41
0.75
7
W0$127
0
TEXT
8
PART_TYPE_01
10
-1.15
20
1.125
40
0.889
1
MSS5131-153ML
73
3
11
-1.15
21
1.125
41
0.75
7
W0$127
0
TEXT
8
PART_INFO
10
-1.15
20
-0.145
40
0.889
1
000000
73
3
11
-1.15
21
-0.145
41
0.75
7
W0$127
0
TEXT
8
PART_PTS
10
-1.15
20
-1.415
40
0.889
1
1 2 
73
3
11
-1.15
21
-1.415
41
0.75
7
W0$127
0
ENDBLK
0
BLOCK
2
PART_TOP_47
8
0
10
0
20
0
3
PART_TOP_47
70
64
0
INSERT
2
SYM_TOP_15
8
0
10
0
20
0
0
INSERT
2
PKG_11
8
0
10
0
20
0
0
TEXT
8
LABEL_INFO
10
-0.8
20
1.8
40
0.7
1
0 0 0 0 0 1
41
0.75
7
W0$1
0
TEXT
8
LABEL_ATTRIBUTE
10
-0.8
20
1.8
40
0.7
1
Ref.Des.
41
0.75
7
W0$1
0
TEXT
8
PART_NAME_01
10
-0.8
20
1.8
40
0.7
1
LED1
41
0.75
7
W0$1
0
TEXT
8
LABEL_INFO
10
-1.130078
20
0.7478273333
40
0.889
1
0 0 0 2 0 1
73
2
11
-1.130078
21
0.7478273333
41
0.75
7
W0$127
0
TEXT
8
LABEL_ATTRIBUTE
10
-1.130078
20
0.7478273333
40
0.889
1
PartType
73
2
11
-1.130078
21
0.7478273333
41
0.75
7
W0$127
0
TEXT
8
PART_TYPE_01
10
-1.130078
20
0.7478273333
40
0.889
1
ASMT-YTD2-0BB02
73
3
11
-1.130078
21
0.7478273333
41
0.75
7
W0$127
0
TEXT
8
PART_INFO
10
-1.130078
20
-0.5221726667
40
0.889
1
000000
73
3
11
-1.130078
21
-0.5221726667
41
0.75
7
W0$127
0
TEXT
8
PART_PTS
10
-1.130078
20
-1.7921726667
40
0.889
1
1 2 3 4 5 6 
73
3
11
-1.130078
21
-1.7921726667
41
0.75
7
W0$127
0
ENDBLK
0
BLOCK
2
PART_TOP_48
8
0
10
0
20
0
3
PART_TOP_48
70
64
0
INSERT
2
SYM_TOP_8
8
0
10
0
20
0
0
INSERT
2
PKG_5
8
0
10
0
20
0
0
TEXT
8
LABEL_INFO
10
0.01
20
0.1
40
0.28
1
0 0 1 1 0 1
72
1
73
1
11
0.01
21
0.1
41
0.75
7
W0$02
0
TEXT
8
LABEL_ATTRIBUTE
10
0.01
20
0.1
40
0.28
1
PartType
72
1
73
1
11
0.01
21
0.1
41
0.75
7
W0$02
0
TEXT
8
PART_TYPE_01
10
0.01
20
0.1
40
0.28
1
R-1005
72
1
73
2
11
0.01
21
0.1
41
0.75
7
W0$02
0
TEXT
8
LABEL_INFO
10
-1.75
20
0
40
0.7
1
0 324000000 1 1 0 1
72
1
73
1
11
-1.75
21
0
50
180
41
0.75
7
W0$1
0
TEXT
8
LABEL_ATTRIBUTE
10
-1.75
20
0
40
0.7
1
Ref.Des.
72
1
73
1
11
-1.75
21
0
50
180
41
0.75
7
W0$1
0
TEXT
8
PART_NAME_01
10
-1.75
20
0
40
0.7
1
R15
72
1
73
2
11
-1.75
21
0
50
180
41
0.75
7
W0$1
0
TEXT
8
PART_INFO
10
-1.75
20
-1
40
0.7
1
000000
72
1
73
2
11
-1.75
21
-1
50
180
41
0.75
7
W0$1
0
TEXT
8
PART_PTS
10
-1.75
20
-2
40
0.7
1
1 2 
72
1
73
2
11
-1.75
21
-2
50
180
41
0.75
7
W0$1
0
ENDBLK
0
BLOCK
2
PART_TOP_49
8
0
10
0
20
0
3
PART_TOP_49
70
64
0
INSERT
2
SYM_TOP_8
8
0
10
0
20
0
0
INSERT
2
PKG_5
8
0
10
0
20
0
0
TEXT
8
LABEL_INFO
10
0.01
20
0.1
40
0.28
1
0 0 1 1 0 1
72
1
73
1
11
0.01
21
0.1
41
0.75
7
W0$02
0
TEXT
8
LABEL_ATTRIBUTE
10
0.01
20
0.1
40
0.28
1
PartType
72
1
73
1
11
0.01
21
0.1
41
0.75
7
W0$02
0
TEXT
8
PART_TYPE_01
10
0.01
20
0.1
40
0.28
1
R-1005
72
1
73
2
11
0.01
21
0.1
41
0.75
7
W0$02
0
TEXT
8
LABEL_INFO
10
-1.75
20
0
40
0.7
1
0 324000000 1 1 0 1
72
1
73
1
11
-1.75
21
0
50
180
41
0.75
7
W0$1
0
TEXT
8
LABEL_ATTRIBUTE
10
-1.75
20
0
40
0.7
1
Ref.Des.
72
1
73
1
11
-1.75
21
0
50
180
41
0.75
7
W0$1
0
TEXT
8
PART_NAME_01
10
-1.75
20
0
40
0.7
1
R16
72
1
73
2
11
-1.75
21
0
50
180
41
0.75
7
W0$1
0
TEXT
8
PART_INFO
10
-1.75
20
-1
40
0.7
1
000000
72
1
73
2
11
-1.75
21
-1
50
180
41
0.75
7
W0$1
0
TEXT
8
PART_PTS
10
-1.75
20
-2
40
0.7
1
1 2 
72
1
73
2
11
-1.75
21
-2
50
180
41
0.75
7
W0$1
0
ENDBLK
0
BLOCK
2
PART_TOP_50
8
0
10
0
20
0
3
PART_TOP_50
70
64
0
INSERT
2
SYM_TOP_8
8
0
10
0
20
0
0
INSERT
2
PKG_5
8
0
10
0
20
0
0
TEXT
8
LABEL_INFO
10
0.01
20
0.1
40
0.28
1
0 0 1 1 0 1
72
1
73
1
11
0.01
21
0.1
41
0.75
7
W0$02
0
TEXT
8
LABEL_ATTRIBUTE
10
0.01
20
0.1
40
0.28
1
PartType
72
1
73
1
11
0.01
21
0.1
41
0.75
7
W0$02
0
TEXT
8
PART_TYPE_01
10
0.01
20
0.1
40
0.28
1
R-1005
72
1
73
2
11
0.01
21
0.1
41
0.75
7
W0$02
0
TEXT
8
LABEL_INFO
10
-1.75
20
0
40
0.7
1
0 324000000 1 1 0 1
72
1
73
1
11
-1.75
21
0
50
180
41
0.75
7
W0$1
0
TEXT
8
LABEL_ATTRIBUTE
10
-1.75
20
0
40
0.7
1
Ref.Des.
72
1
73
1
11
-1.75
21
0
50
180
41
0.75
7
W0$1
0
TEXT
8
PART_NAME_01
10
-1.75
20
0
40
0.7
1
R17
72
1
73
2
11
-1.75
21
0
50
180
41
0.75
7
W0$1
0
TEXT
8
PART_INFO
10
-1.75
20
-1
40
0.7
1
000000
72
1
73
2
11
-1.75
21
-1
50
180
41
0.75
7
W0$1
0
TEXT
8
PART_PTS
10
-1.75
20
-2
40
0.7
1
1 2 
72
1
73
2
11
-1.75
21
-2
50
180
41
0.75
7
W0$1
0
ENDBLK
0
BLOCK
2
PART_TOP_51
8
0
10
0
20
0
3
PART_TOP_51
70
64
0
INSERT
2
SYM_TOP_16
8
0
10
0
20
0
0
INSERT
2
PKG_12
8
0
10
0
20
0
0
TEXT
8
LABEL_INFO
10
-3.5599893333
20
1.0599673333
40
0.7
1
0 0 0 2 0 1
73
2
11
-3.5599893333
21
1.0599673333
41
0.75
7
W0$1
0
TEXT
8
LABEL_ATTRIBUTE
10
-3.5599893333
20
1.0599673333
40
0.7
1
PartType
73
2
11
-3.5599893333
21
1.0599673333
41
0.75
7
W0$1
0
TEXT
8
PART_TYPE_01
10
-3.5599893333
20
1.0599673333
40
0.7
1
HI05-AG0272
73
3
11
-3.5599893333
21
1.0599673333
41
0.75
7
W0$1
0
TEXT
8
LABEL_INFO
10
-4.9999993333
20
-2.84
40
0.7
1
0 162000000 0 0 0 1
50
90
41
0.75
7
W0$1
0
TEXT
8
LABEL_ATTRIBUTE
10
-4.9999993333
20
-2.84
40
0.7
1
Ref.Des.
50
90
41
0.75
7
W0$1
0
TEXT
8
PART_NAME_01
10
-4.9999993333
20
-2.84
40
0.7
1
J4
50
90
41
0.75
7
W0$1
0
TEXT
8
PART_INFO
10
-4.9999993333
20
-3.84
40
0.7
1
000000
50
90
41
0.75
7
W0$1
0
TEXT
8
PART_PTS
10
-4.9999993333
20
-4.84
40
0.7
1
1 2 3 4 5 6 7 8 9 10 11 
50
90
41
0.75
7
W0$1
0
ENDBLK
0
BLOCK
2
PART_TOP_52
8
0
10
0
20
0
3
PART_TOP_52
70
64
0
INSERT
2
SYM_TOP_7
8
0
10
0
20
0
0
INSERT
2
PKG_4
8
0
10
0
20
0
0
TEXT
8
LABEL_INFO
10
1.7499993333
20
1.5
40
0.7
1
0 324000000 1 1 0 1
72
1
73
1
11
1.7499993333
21
1.5
50
180
41
0.75
7
W0$1
0
TEXT
8
LABEL_ATTRIBUTE
10
1.7499993333
20
1.5
40
0.7
1
Ref.Des.
72
1
73
1
11
1.7499993333
21
1.5
50
180
41
0.75
7
W0$1
0
TEXT
8
PART_NAME_01
10
1.7499993333
20
1.5
40
0.7
1
Q9
72
1
73
2
11
1.7499993333
21
1.5
50
180
41
0.75
7
W0$1
0
TEXT
8
LABEL_INFO
10
0
20
0.1
40
0.84
1
0 0 1 1 0 1
72
1
73
1
11
0
21
0.1
41
0.75
7
W0$12
0
TEXT
8
LABEL_ATTRIBUTE
10
0
20
0.1
40
0.84
1
PartType
72
1
73
1
11
0
21
0.1
41
0.75
7
W0$12
0
TEXT
8
PART_TYPE_01
10
0
20
0.1
40
0.84
1
PMBT2222
72
1
73
2
11
0
21
0.1
41
0.75
7
W0$12
0
TEXT
8
PART_INFO
10
0
20
-1.1
40
0.84
1
000000
72
1
73
2
11
0
21
-1.1
41
0.75
7
W0$12
0
TEXT
8
PART_PTS
10
0
20
-2.3
40
0.84
1
1 2 3 
72
1
73
2
11
0
21
-2.3
41
0.75
7
W0$12
0
ENDBLK
0
BLOCK
2
PART_TOP_53
8
0
10
0
20
0
3
PART_TOP_53
70
64
0
INSERT
2
SYM_TOP_17
8
0
10
0
20
0
0
INSERT
2
PKG_13
8
0
10
0
20
0
0
TEXT
8
LABEL_INFO
10
0
20
0
40
0.84
1
2 0 1 1 0 1
72
1
73
1
11
0
21
0
41
0.75
7
W0$12
0
TEXT
8
LABEL_ATTRIBUTE
10
0
20
0
40
0.84
1
PartType
72
1
73
1
11
0
21
0
41
0.75
7
W0$12
0
TEXT
8
PART_TYPE_01
10
0
20
0
40
0.84
1
MCP73831T_2ACIOT
72
1
73
2
11
0
21
0
41
0.75
7
W0$12
0
TEXT
8
LABEL_INFO
10
-2.25
20
0.7
40
0.7
1
2 0 1 1 0 1
72
1
73
1
11
-2.25
21
0.7
41
0.75
7
W0$1
0
TEXT
8
LABEL_ATTRIBUTE
10
-2.25
20
0.7
40
0.7
1
Ref.Des.
72
1
73
1
11
-2.25
21
0.7
41
0.75
7
W0$1
0
TEXT
8
PART_NAME_01
10
-2.25
20
0.7
40
0.7
1
U2
72
1
73
2
11
-2.25
21
0.7
41
0.75
7
W0$1
0
TEXT
8
PART_INFO
10
-2.25
20
-0.3
40
0.7
1
000000
72
1
73
2
11
-2.25
21
-0.3
41
0.75
7
W0$1
0
TEXT
8
PART_PTS
10
-2.25
20
-1.3
40
0.7
1
1 2 3 4 5 
72
1
73
2
11
-2.25
21
-1.3
41
0.75
7
W0$1
0
ENDBLK
0
BLOCK
2
PART_TOP_54
8
0
10
0
20
0
3
PART_TOP_54
70
64
0
INSERT
2
SYM_TOP_8
8
0
10
0
20
0
0
INSERT
2
PKG_5
8
0
10
0
20
0
0
TEXT
8
LABEL_INFO
10
0.01
20
0.1
40
0.28
1
0 0 1 1 0 1
72
1
73
1
11
0.01
21
0.1
41
0.75
7
W0$02
0
TEXT
8
LABEL_ATTRIBUTE
10
0.01
20
0.1
40
0.28
1
PartType
72
1
73
1
11
0.01
21
0.1
41
0.75
7
W0$02
0
TEXT
8
PART_TYPE_01
10
0.01
20
0.1
40
0.28
1
R-1005
72
1
73
2
11
0.01
21
0.1
41
0.75
7
W0$02
0
TEXT
8
LABEL_INFO
10
0.05
20
1.1
40
0.7
1
0 0 1 1 0 1
72
1
73
1
11
0.05
21
1.1
41
0.75
7
W0$1
0
TEXT
8
LABEL_ATTRIBUTE
10
0.05
20
1.1
40
0.7
1
Ref.Des.
72
1
73
1
11
0.05
21
1.1
41
0.75
7
W0$1
0
TEXT
8
PART_NAME_01
10
0.05
20
1.1
40
0.7
1
R18
72
1
73
2
11
0.05
21
1.1
41
0.75
7
W0$1
0
TEXT
8
PART_INFO
10
0.05
20
0.1
40
0.7
1
000000
72
1
73
2
11
0.05
21
0.1
41
0.75
7
W0$1
0
TEXT
8
PART_PTS
10
0.05
20
-0.9
40
0.7
1
1 2 
72
1
73
2
11
0.05
21
-0.9
41
0.75
7
W0$1
0
ENDBLK
0
BLOCK
2
PART_TOP_55
8
0
10
0
20
0
3
PART_TOP_55
70
64
0
INSERT
2
SYM_TOP_8
8
0
10
0
20
0
0
INSERT
2
PKG_5
8
0
10
0
20
0
0
TEXT
8
LABEL_INFO
10
0.01
20
0.1
40
0.28
1
0 0 1 1 0 1
72
1
73
1
11
0.01
21
0.1
41
0.75
7
W0$02
0
TEXT
8
LABEL_ATTRIBUTE
10
0.01
20
0.1
40
0.28
1
PartType
72
1
73
1
11
0.01
21
0.1
41
0.75
7
W0$02
0
TEXT
8
PART_TYPE_01
10
0.01
20
0.1
40
0.28
1
R-1005
72
1
73
2
11
0.01
21
0.1
41
0.75
7
W0$02
0
TEXT
8
LABEL_INFO
10
0.15
20
-0.9
40
0.7
1
0 0 1 1 0 1
72
1
73
1
11
0.15
21
-0.9
41
0.75
7
W0$1
0
TEXT
8
LABEL_ATTRIBUTE
10
0.15
20
-0.9
40
0.7
1
Ref.Des.
72
1
73
1
11
0.15
21
-0.9
41
0.75
7
W0$1
0
TEXT
8
PART_NAME_01
10
0.15
20
-0.9
40
0.7
1
R27
72
1
73
2
11
0.15
21
-0.9
41
0.75
7
W0$1
0
TEXT
8
PART_INFO
10
0.15
20
-1.9
40
0.7
1
000000
72
1
73
2
11
0.15
21
-1.9
41
0.75
7
W0$1
0
TEXT
8
PART_PTS
10
0.15
20
-2.9
40
0.7
1
1 2 
72
1
73
2
11
0.15
21
-2.9
41
0.75
7
W0$1
0
ENDBLK
0
BLOCK
2
PART_TOP_56
8
0
10
0
20
0
3
PART_TOP_56
70
64
0
INSERT
2
SYM_TOP_18
8
0
10
0
20
0
0
INSERT
2
PKG_14
8
0
10
0
20
0
0
TEXT
8
LABEL_INFO
10
0.4
20
-1
40
0.7
1
0 324000000 0 0 0 1
50
180
41
0.75
7
W0$1
0
TEXT
8
LABEL_ATTRIBUTE
10
0.4
20
-1
40
0.7
1
Ref.Des.
50
180
41
0.75
7
W0$1
0
TEXT
8
PART_NAME_01
10
0.4
20
-1
40
0.7
1
L2
50
180
41
0.75
7
W0$1
0
TEXT
8
LABEL_INFO
10
-1.8
20
2.3
40
0.889
1
0 0 0 2 0 1
73
2
11
-1.8
21
2.3
41
0.75
7
W0$127
0
TEXT
8
LABEL_ATTRIBUTE
10
-1.8
20
2.3
40
0.889
1
PartType
73
2
11
-1.8
21
2.3
41
0.75
7
W0$127
0
TEXT
8
PART_TYPE_01
10
-1.8
20
2.3
40
0.889
1
F-1608
73
3
11
-1.8
21
2.3
41
0.75
7
W0$127
0
TEXT
8
PART_INFO
10
-1.8
20
1.03
40
0.889
1
000000
73
3
11
-1.8
21
1.03
41
0.75
7
W0$127
0
TEXT
8
PART_PTS
10
-1.8
20
-0.24
40
0.889
1
1 2 
73
3
11
-1.8
21
-0.24
41
0.75
7
W0$127
0
ENDBLK
0
BLOCK
2
PART_TOP_57
8
0
10
0
20
0
3
PART_TOP_57
70
64
0
INSERT
2
SYM_TOP_8
8
0
10
0
20
0
0
INSERT
2
PKG_5
8
0
10
0
20
0
0
TEXT
8
LABEL_INFO
10
0.01
20
0.1
40
0.28
1
0 0 1 1 0 1
72
1
73
1
11
0.01
21
0.1
41
0.75
7
W0$02
0
TEXT
8
LABEL_ATTRIBUTE
10
0.01
20
0.1
40
0.28
1
PartType
72
1
73
1
11
0.01
21
0.1
41
0.75
7
W0$02
0
TEXT
8
PART_TYPE_01
10
0.01
20
0.1
40
0.28
1
R-1005
72
1
73
2
11
0.01
21
0.1
41
0.75
7
W0$02
0
TEXT
8
LABEL_INFO
10
1.95
20
0.1
40
0.7
1
0 0 1 1 0 1
72
1
73
1
11
1.95
21
0.1
41
0.75
7
W0$1
0
TEXT
8
LABEL_ATTRIBUTE
10
1.95
20
0.1
40
0.7
1
Ref.Des.
72
1
73
1
11
1.95
21
0.1
41
0.75
7
W0$1
0
TEXT
8
PART_NAME_01
10
1.95
20
0.1
40
0.7
1
R40
72
1
73
2
11
1.95
21
0.1
41
0.75
7
W0$1
0
TEXT
8
PART_INFO
10
1.95
20
-0.9
40
0.7
1
000000
72
1
73
2
11
1.95
21
-0.9
41
0.75
7
W0$1
0
TEXT
8
PART_PTS
10
1.95
20
-1.9
40
0.7
1
1 2 
72
1
73
2
11
1.95
21
-1.9
41
0.75
7
W0$1
0
ENDBLK
0
BLOCK
2
PART_TOP_58
8
0
10
0
20
0
3
PART_TOP_58
70
64
0
INSERT
2
SYM_TOP_8
8
0
10
0
20
0
0
INSERT
2
PKG_5
8
0
10
0
20
0
0
TEXT
8
LABEL_INFO
10
0.01
20
0.1
40
0.28
1
0 0 1 1 0 1
72
1
73
1
11
0.01
21
0.1
41
0.75
7
W0$02
0
TEXT
8
LABEL_ATTRIBUTE
10
0.01
20
0.1
40
0.28
1
PartType
72
1
73
1
11
0.01
21
0.1
41
0.75
7
W0$02
0
TEXT
8
PART_TYPE_01
10
0.01
20
0.1
40
0.28
1
R-1005
72
1
73
2
11
0.01
21
0.1
41
0.75
7
W0$02
0
TEXT
8
LABEL_INFO
10
1.85
20
0.1
40
0.7
1
0 0 1 1 0 1
72
1
73
1
11
1.85
21
0.1
41
0.75
7
W0$1
0
TEXT
8
LABEL_ATTRIBUTE
10
1.85
20
0.1
40
0.7
1
Ref.Des.
72
1
73
1
11
1.85
21
0.1
41
0.75
7
W0$1
0
TEXT
8
PART_NAME_01
10
1.85
20
0.1
40
0.7
1
R41
72
1
73
2
11
1.85
21
0.1
41
0.75
7
W0$1
0
TEXT
8
PART_INFO
10
1.85
20
-0.9
40
0.7
1
000000
72
1
73
2
11
1.85
21
-0.9
41
0.75
7
W0$1
0
TEXT
8
PART_PTS
10
1.85
20
-1.9
40
0.7
1
1 2 
72
1
73
2
11
1.85
21
-1.9
41
0.75
7
W0$1
0
ENDBLK
0
BLOCK
2
PART_TOP_59
8
0
10
0
20
0
3
PART_TOP_59
70
64
0
INSERT
2
SYM_TOP_8
8
0
10
0
20
0
0
INSERT
2
PKG_5
8
0
10
0
20
0
0
TEXT
8
LABEL_INFO
10
0.01
20
0.1
40
0.28
1
0 0 1 1 0 1
72
1
73
1
11
0.01
21
0.1
41
0.75
7
W0$02
0
TEXT
8
LABEL_ATTRIBUTE
10
0.01
20
0.1
40
0.28
1
PartType
72
1
73
1
11
0.01
21
0.1
41
0.75
7
W0$02
0
TEXT
8
PART_TYPE_01
10
0.01
20
0.1
40
0.28
1
R-1005
72
1
73
2
11
0.01
21
0.1
41
0.75
7
W0$02
0
TEXT
8
LABEL_INFO
10
2.15
20
0
40
0.7
1
0 0 1 1 0 1
72
1
73
1
11
2.15
21
0
41
0.75
7
W0$1
0
TEXT
8
LABEL_ATTRIBUTE
10
2.15
20
0
40
0.7
1
Ref.Des.
72
1
73
1
11
2.15
21
0
41
0.75
7
W0$1
0
TEXT
8
PART_NAME_01
10
2.15
20
0
40
0.7
1
R31
72
1
73
2
11
2.15
21
0
41
0.75
7
W0$1
0
TEXT
8
PART_INFO
10
2.15
20
-1
40
0.7
1
000000
72
1
73
2
11
2.15
21
-1
41
0.75
7
W0$1
0
TEXT
8
PART_PTS
10
2.15
20
-2
40
0.7
1
1 2 
72
1
73
2
11
2.15
21
-2
41
0.75
7
W0$1
0
ENDBLK
0
BLOCK
2
PART_TOP_60
8
0
10
0
20
0
3
PART_TOP_60
70
64
0
INSERT
2
SYM_TOP_20
8
0
10
0
20
0
0
INSERT
2
PKG_16
8
0
10
0
20
0
0
TEXT
8
LABEL_INFO
10
-0.97
20
0.775
40
0.889
1
0 0 0 2 0 1
73
2
11
-0.97
21
0.775
41
0.75
7
W0$127
0
TEXT
8
LABEL_ATTRIBUTE
10
-0.97
20
0.775
40
0.889
1
PartType
73
2
11
-0.97
21
0.775
41
0.75
7
W0$127
0
TEXT
8
PART_TYPE_01
10
-0.97
20
0.775
40
0.889
1
SKRMABE010
73
3
11
-0.97
21
0.775
41
0.75
7
W0$127
0
TEXT
8
LABEL_INFO
10
-2.7
20
-0.8
40
0.7
1
0 162000000 0 0 0 1
50
90
41
0.75
7
W0$1
0
TEXT
8
LABEL_ATTRIBUTE
10
-2.7
20
-0.8
40
0.7
1
Ref.Des.
50
90
41
0.75
7
W0$1
0
TEXT
8
PART_NAME_01
10
-2.7
20
-0.8
40
0.7
1
UP
50
90
41
0.75
7
W0$1
0
TEXT
8
PART_INFO
10
-2.7
20
-1.8
40
0.7
1
000000
50
90
41
0.75
7
W0$1
0
TEXT
8
PART_PTS
10
-2.7
20
-2.8
40
0.7
1
1 2 3 4 
50
90
41
0.75
7
W0$1
0
ENDBLK
0
BLOCK
2
PART_TOP_61
8
0
10
0
20
0
3
PART_TOP_61
70
64
0
INSERT
2
SYM_TOP_20
8
0
10
0
20
0
0
INSERT
2
PKG_16
8
0
10
0
20
0
0
TEXT
8
LABEL_INFO
10
-0.97
20
0.775
40
0.889
1
0 0 0 2 0 1
73
2
11
-0.97
21
0.775
41
0.75
7
W0$127
0
TEXT
8
LABEL_ATTRIBUTE
10
-0.97
20
0.775
40
0.889
1
PartType
73
2
11
-0.97
21
0.775
41
0.75
7
W0$127
0
TEXT
8
PART_TYPE_01
10
-0.97
20
0.775
40
0.889
1
SKRMABE010
73
3
11
-0.97
21
0.775
41
0.75
7
W0$127
0
TEXT
8
LABEL_INFO
10
-2.6999993333
20
-1.4
40
0.7
1
0 162000000 0 0 0 1
50
90
41
0.75
7
W0$1
0
TEXT
8
LABEL_ATTRIBUTE
10
-2.6999993333
20
-1.4
40
0.7
1
Ref.Des.
50
90
41
0.75
7
W0$1
0
TEXT
8
PART_NAME_01
10
-2.6999993333
20
-1.4
40
0.7
1
DOWN
50
90
41
0.75
7
W0$1
0
TEXT
8
PART_INFO
10
-2.6999993333
20
-2.4
40
0.7
1
000000
50
90
41
0.75
7
W0$1
0
TEXT
8
PART_PTS
10
-2.6999993333
20
-3.4
40
0.7
1
1 2 3 4 
50
90
41
0.75
7
W0$1
0
ENDBLK
0
BLOCK
2
PART_TOP_62
8
0
10
0
20
0
3
PART_TOP_62
70
64
0
INSERT
2
SYM_TOP_8
8
0
10
0
20
0
0
INSERT
2
PKG_5
8
0
10
0
20
0
0
TEXT
8
LABEL_INFO
10
0.01
20
0.1
40
0.28
1
0 0 1 1 0 1
72
1
73
1
11
0.01
21
0.1
41
0.75
7
W0$02
0
TEXT
8
LABEL_ATTRIBUTE
10
0.01
20
0.1
40
0.28
1
PartType
72
1
73
1
11
0.01
21
0.1
41
0.75
7
W0$02
0
TEXT
8
PART_TYPE_01
10
0.01
20
0.1
40
0.28
1
R-1005
72
1
73
2
11
0.01
21
0.1
41
0.75
7
W0$02
0
TEXT
8
LABEL_INFO
10
1.75
20
0.1
40
0.7
1
0 0 1 1 0 1
72
1
73
1
11
1.75
21
0.1
41
0.75
7
W0$1
0
TEXT
8
LABEL_ATTRIBUTE
10
1.75
20
0.1
40
0.7
1
Ref.Des.
72
1
73
1
11
1.75
21
0.1
41
0.75
7
W0$1
0
TEXT
8
PART_NAME_01
10
1.75
20
0.1
40
0.7
1
R21
72
1
73
2
11
1.75
21
0.1
41
0.75
7
W0$1
0
TEXT
8
PART_INFO
10
1.75
20
-0.9
40
0.7
1
000000
72
1
73
2
11
1.75
21
-0.9
41
0.75
7
W0$1
0
TEXT
8
PART_PTS
10
1.75
20
-1.9
40
0.7
1
1 2 
72
1
73
2
11
1.75
21
-1.9
41
0.75
7
W0$1
0
ENDBLK
0
BLOCK
2
PART_TOP_63
8
0
10
0
20
0
3
PART_TOP_63
70
64
0
INSERT
2
SYM_TOP_8
8
0
10
0
20
0
0
INSERT
2
PKG_5
8
0
10
0
20
0
0
TEXT
8
LABEL_INFO
10
0.01
20
0.1
40
0.28
1
0 0 1 1 0 1
72
1
73
1
11
0.01
21
0.1
41
0.75
7
W0$02
0
TEXT
8
LABEL_ATTRIBUTE
10
0.01
20
0.1
40
0.28
1
PartType
72
1
73
1
11
0.01
21
0.1
41
0.75
7
W0$02
0
TEXT
8
PART_TYPE_01
10
0.01
20
0.1
40
0.28
1
R-1005
72
1
73
2
11
0.01
21
0.1
41
0.75
7
W0$02
0
TEXT
8
LABEL_INFO
10
2.05
20
0
40
0.7
1
0 0 1 1 0 1
72
1
73
1
11
2.05
21
0
41
0.75
7
W0$1
0
TEXT
8
LABEL_ATTRIBUTE
10
2.05
20
0
40
0.7
1
Ref.Des.
72
1
73
1
11
2.05
21
0
41
0.75
7
W0$1
0
TEXT
8
PART_NAME_01
10
2.05
20
0
40
0.7
1
R22
72
1
73
2
11
2.05
21
0
41
0.75
7
W0$1
0
TEXT
8
PART_INFO
10
2.05
20
-1
40
0.7
1
000000
72
1
73
2
11
2.05
21
-1
41
0.75
7
W0$1
0
TEXT
8
PART_PTS
10
2.05
20
-2
40
0.7
1
1 2 
72
1
73
2
11
2.05
21
-2
41
0.75
7
W0$1
0
ENDBLK
0
BLOCK
2
PART_TOP_64
8
0
10
0
20
0
3
PART_TOP_64
70
64
0
INSERT
2
SYM_TOP_8
8
0
10
0
20
0
0
INSERT
2
PKG_5
8
0
10
0
20
0
0
TEXT
8
LABEL_INFO
10
0.01
20
0.1
40
0.28
1
0 0 1 1 0 1
72
1
73
1
11
0.01
21
0.1
41
0.75
7
W0$02
0
TEXT
8
LABEL_ATTRIBUTE
10
0.01
20
0.1
40
0.28
1
PartType
72
1
73
1
11
0.01
21
0.1
41
0.75
7
W0$02
0
TEXT
8
PART_TYPE_01
10
0.01
20
0.1
40
0.28
1
R-1005
72
1
73
2
11
0.01
21
0.1
41
0.75
7
W0$02
0
TEXT
8
LABEL_INFO
10
2.05
20
0
40
0.7
1
0 0 1 1 0 1
72
1
73
1
11
2.05
21
0
41
0.75
7
W0$1
0
TEXT
8
LABEL_ATTRIBUTE
10
2.05
20
0
40
0.7
1
Ref.Des.
72
1
73
1
11
2.05
21
0
41
0.75
7
W0$1
0
TEXT
8
PART_NAME_01
10
2.05
20
0
40
0.7
1
R23
72
1
73
2
11
2.05
21
0
41
0.75
7
W0$1
0
TEXT
8
PART_INFO
10
2.05
20
-1
40
0.7
1
000000
72
1
73
2
11
2.05
21
-1
41
0.75
7
W0$1
0
TEXT
8
PART_PTS
10
2.05
20
-2
40
0.7
1
1 2 
72
1
73
2
11
2.05
21
-2
41
0.75
7
W0$1
0
ENDBLK
0
BLOCK
2
PART_TOP_65
8
0
10
0
20
0
3
PART_TOP_65
70
64
0
INSERT
2
SYM_TOP_21
8
0
10
0
20
0
0
INSERT
2
PKG_17
8
0
10
0
20
0
0
TEXT
8
LABEL_INFO
10
-0.8
20
0.7
40
0.7
1
0 0 0 0 0 1
41
0.75
7
W0$1
0
TEXT
8
LABEL_ATTRIBUTE
10
-0.8
20
0.7
40
0.7
1
Ref.Des.
41
0.75
7
W0$1
0
TEXT
8
PART_NAME_01
10
-0.8
20
0.7
40
0.7
1
LED3
41
0.75
7
W0$1
0
TEXT
8
LABEL_INFO
10
-0.48
20
-0.54
40
0.42
1
0 0 0 2 0 1
73
2
11
-0.48
21
-0.54
41
0.75
7
W0$02
0
TEXT
8
LABEL_ATTRIBUTE
10
-0.48
20
-0.54
40
0.42
1
PartType
73
2
11
-0.48
21
-0.54
41
0.75
7
W0$02
0
TEXT
8
PART_TYPE_01
10
-0.48
20
-0.54
40
0.42
1
LED-1608
73
3
11
-0.48
21
-0.54
41
0.75
7
W0$02
0
TEXT
8
PART_INFO
10
-0.48
20
-1.14
40
0.42
1
000000
73
3
11
-0.48
21
-1.14
41
0.75
7
W0$02
0
TEXT
8
PART_PTS
10
-0.48
20
-1.74
40
0.42
1
1 2 
73
3
11
-0.48
21
-1.74
41
0.75
7
W0$02
0
ENDBLK
0
BLOCK
2
PART_TOP_66
8
0
10
0
20
0
3
PART_TOP_66
70
64
0
INSERT
2
SYM_TOP_21
8
0
10
0
20
0
0
INSERT
2
PKG_17
8
0
10
0
20
0
0
TEXT
8
LABEL_INFO
10
-1
20
0.7
40
0.7
1
0 0 0 0 0 1
41
0.75
7
W0$1
0
TEXT
8
LABEL_ATTRIBUTE
10
-1
20
0.7
40
0.7
1
Ref.Des.
41
0.75
7
W0$1
0
TEXT
8
PART_NAME_01
10
-1
20
0.7
40
0.7
1
LED4
41
0.75
7
W0$1
0
TEXT
8
LABEL_INFO
10
-0.48
20
-0.54
40
0.42
1
0 0 0 2 0 1
73
2
11
-0.48
21
-0.54
41
0.75
7
W0$02
0
TEXT
8
LABEL_ATTRIBUTE
10
-0.48
20
-0.54
40
0.42
1
PartType
73
2
11
-0.48
21
-0.54
41
0.75
7
W0$02
0
TEXT
8
PART_TYPE_01
10
-0.48
20
-0.54
40
0.42
1
LED-1608
73
3
11
-0.48
21
-0.54
41
0.75
7
W0$02
0
TEXT
8
PART_INFO
10
-0.48
20
-1.14
40
0.42
1
000000
73
3
11
-0.48
21
-1.14
41
0.75
7
W0$02
0
TEXT
8
PART_PTS
10
-0.48
20
-1.74
40
0.42
1
1 2 
73
3
11
-0.48
21
-1.74
41
0.75
7
W0$02
0
ENDBLK
0
BLOCK
2
PART_TOP_67
8
0
10
0
20
0
3
PART_TOP_67
70
64
0
INSERT
2
SYM_TOP_21
8
0
10
0
20
0
0
INSERT
2
PKG_17
8
0
10
0
20
0
0
TEXT
8
LABEL_INFO
10
-0.8
20
0.7
40
0.7
1
0 0 0 0 0 1
41
0.75
7
W0$1
0
TEXT
8
LABEL_ATTRIBUTE
10
-0.8
20
0.7
40
0.7
1
Ref.Des.
41
0.75
7
W0$1
0
TEXT
8
PART_NAME_01
10
-0.8
20
0.7
40
0.7
1
LED5
41
0.75
7
W0$1
0
TEXT
8
LABEL_INFO
10
-0.48
20
-0.54
40
0.42
1
0 0 0 2 0 1
73
2
11
-0.48
21
-0.54
41
0.75
7
W0$02
0
TEXT
8
LABEL_ATTRIBUTE
10
-0.48
20
-0.54
40
0.42
1
PartType
73
2
11
-0.48
21
-0.54
41
0.75
7
W0$02
0
TEXT
8
PART_TYPE_01
10
-0.48
20
-0.54
40
0.42
1
LED-1608
73
3
11
-0.48
21
-0.54
41
0.75
7
W0$02
0
TEXT
8
PART_INFO
10
-0.48
20
-1.14
40
0.42
1
000000
73
3
11
-0.48
21
-1.14
41
0.75
7
W0$02
0
TEXT
8
PART_PTS
10
-0.48
20
-1.74
40
0.42
1
1 2 
73
3
11
-0.48
21
-1.74
41
0.75
7
W0$02
0
ENDBLK
0
BLOCK
2
PART_TOP_68
8
0
10
0
20
0
3
PART_TOP_68
70
64
0
INSERT
2
SYM_TOP_20
8
0
10
0
20
0
0
INSERT
2
PKG_16
8
0
10
0
20
0
0
TEXT
8
LABEL_INFO
10
-0.97
20
0.775
40
0.889
1
0 0 0 2 0 1
73
2
11
-0.97
21
0.775
41
0.75
7
W0$127
0
TEXT
8
LABEL_ATTRIBUTE
10
-0.97
20
0.775
40
0.889
1
PartType
73
2
11
-0.97
21
0.775
41
0.75
7
W0$127
0
TEXT
8
PART_TYPE_01
10
-0.97
20
0.775
40
0.889
1
SKRMABE010
73
3
11
-0.97
21
0.775
41
0.75
7
W0$127
0
TEXT
8
LABEL_INFO
10
-2.6999993333
20
-1.6
40
0.7
1
0 162000000 0 0 0 1
50
90
41
0.75
7
W0$1
0
TEXT
8
LABEL_ATTRIBUTE
10
-2.6999993333
20
-1.6
40
0.7
1
Ref.Des.
50
90
41
0.75
7
W0$1
0
TEXT
8
PART_NAME_01
10
-2.6999993333
20
-1.6
40
0.7
1
POWER
50
90
41
0.75
7
W0$1
0
TEXT
8
PART_INFO
10
-2.6999993333
20
-2.6
40
0.7
1
000000
50
90
41
0.75
7
W0$1
0
TEXT
8
PART_PTS
10
-2.6999993333
20
-3.6
40
0.7
1
1 2 3 4 
50
90
41
0.75
7
W0$1
0
ENDBLK
0
BLOCK
2
PART_TOP_69
8
0
10
0
20
0
3
PART_TOP_69
70
64
0
INSERT
2
SYM_TOP_19
8
0
10
0
20
0
0
INSERT
2
PKG_15
8
0
10
0
20
0
0
TEXT
8
LABEL_INFO
10
-1.12
20
2.41
40
0.889
1
0 0 0 2 0 1
73
2
11
-1.12
21
2.41
41
0.75
7
W0$127
0
TEXT
8
LABEL_ATTRIBUTE
10
-1.12
20
2.41
40
0.889
1
PartType
73
2
11
-1.12
21
2.41
41
0.75
7
W0$127
0
TEXT
8
PART_TYPE_01
10
-1.12
20
2.41
40
0.889
1
CTT_1139P1
73
3
11
-1.12
21
2.41
41
0.75
7
W0$127
0
TEXT
8
LABEL_INFO
10
-0.4
20
-3
40
0.7
1
0 0 0 0 0 1
41
0.75
7
W0$1
0
TEXT
8
LABEL_ATTRIBUTE
10
-0.4
20
-3
40
0.7
1
Ref.Des.
41
0.75
7
W0$1
0
TEXT
8
PART_NAME_01
10
-0.4
20
-3
40
0.7
1
SW1
41
0.75
7
W0$1
0
TEXT
8
PART_INFO
10
-0.4
20
-4
40
0.7
1
000000
41
0.75
7
W0$1
0
TEXT
8
PART_PTS
10
-0.4
20
-5
40
0.7
1
1 2 3 4 
41
0.75
7
W0$1
0
ENDBLK
0
BLOCK
2
PART_TOP_70
8
0
10
0
20
0
3
PART_TOP_70
70
64
0
INSERT
2
SYM_TOP_4
8
0
10
0
20
0
0
INSERT
2
PKG_0
8
0
10
0
20
0
0
TEXT
8
LABEL_INFO
10
-1.55
20
0
40
0.7
1
2 0 1 1 0 1
72
1
73
1
11
-1.55
21
0
41
0.75
7
W0$1
0
TEXT
8
LABEL_ATTRIBUTE
10
-1.55
20
0
40
0.7
1
Ref.Des.
72
1
73
1
11
-1.55
21
0
41
0.75
7
W0$1
0
TEXT
8
PART_NAME_01
10
-1.55
20
0
40
0.7
1
C7
72
1
73
2
11
-1.55
21
0
50
-180
41
0.75
7
W0$1
0
TEXT
8
PART_TYPE_TOP
10
-1.55
20
-1
40
0.7
1
C-1005
72
1
73
2
11
-1.55
21
-1
50
-180
41
0.75
7
W0$1
0
TEXT
8
PART_INFO
10
-1.55
20
-2
40
0.7
1
000000
72
1
73
2
11
-1.55
21
-2
50
-180
41
0.75
7
W0$1
0
TEXT
8
PART_PTS
10
-1.55
20
-3
40
0.7
1
1 2 
72
1
73
2
11
-1.55
21
-3
50
-180
41
0.75
7
W0$1
0
ENDBLK
0
BLOCK
2
PART_TOP_71
8
0
10
0
20
0
3
PART_TOP_71
70
64
0
INSERT
2
SYM_TOP_4
8
0
10
0
20
0
0
INSERT
2
PKG_0
8
0
10
0
20
0
0
TEXT
8
LABEL_INFO
10
-1.55
20
0
40
0.7
1
2 0 1 1 0 1
72
1
73
1
11
-1.55
21
0
41
0.75
7
W0$1
0
TEXT
8
LABEL_ATTRIBUTE
10
-1.55
20
0
40
0.7
1
Ref.Des.
72
1
73
1
11
-1.55
21
0
41
0.75
7
W0$1
0
TEXT
8
PART_NAME_01
10
-1.55
20
0
40
0.7
1
C8
72
1
73
2
11
-1.55
21
0
50
-180
41
0.75
7
W0$1
0
TEXT
8
PART_TYPE_TOP
10
-1.55
20
-1
40
0.7
1
C-1005
72
1
73
2
11
-1.55
21
-1
50
-180
41
0.75
7
W0$1
0
TEXT
8
PART_INFO
10
-1.55
20
-2
40
0.7
1
000000
72
1
73
2
11
-1.55
21
-2
50
-180
41
0.75
7
W0$1
0
TEXT
8
PART_PTS
10
-1.55
20
-3
40
0.7
1
1 2 
72
1
73
2
11
-1.55
21
-3
50
-180
41
0.75
7
W0$1
0
ENDBLK
0
BLOCK
2
PART_TOP_72
8
0
10
0
20
0
3
PART_TOP_72
70
64
0
INSERT
2
SYM_TOP_8
8
0
10
0
20
0
0
INSERT
2
PKG_5
8
0
10
0
20
0
0
TEXT
8
LABEL_INFO
10
0.01
20
0.1
40
0.28
1
0 0 1 1 0 1
72
1
73
1
11
0.01
21
0.1
41
0.75
7
W0$02
0
TEXT
8
LABEL_ATTRIBUTE
10
0.01
20
0.1
40
0.28
1
PartType
72
1
73
1
11
0.01
21
0.1
41
0.75
7
W0$02
0
TEXT
8
PART_TYPE_01
10
0.01
20
0.1
40
0.28
1
R-1005
72
1
73
2
11
0.01
21
0.1
41
0.75
7
W0$02
0
TEXT
8
LABEL_INFO
10
1.85
20
0
40
0.7
1
0 0 1 1 0 1
72
1
73
1
11
1.85
21
0
41
0.75
7
W0$1
0
TEXT
8
LABEL_ATTRIBUTE
10
1.85
20
0
40
0.7
1
Ref.Des.
72
1
73
1
11
1.85
21
0
41
0.75
7
W0$1
0
TEXT
8
PART_NAME_01
10
1.85
20
0
40
0.7
1
R20
72
1
73
2
11
1.85
21
0
41
0.75
7
W0$1
0
TEXT
8
PART_INFO
10
1.85
20
-1
40
0.7
1
000000
72
1
73
2
11
1.85
21
-1
41
0.75
7
W0$1
0
TEXT
8
PART_PTS
10
1.85
20
-2
40
0.7
1
1 2 
72
1
73
2
11
1.85
21
-2
41
0.75
7
W0$1
0
ENDBLK
0
BLOCK
2
PART_TOP_73
8
0
10
0
20
0
3
PART_TOP_73
70
64
0
INSERT
2
SYM_TOP_8
8
0
10
0
20
0
0
INSERT
2
PKG_5
8
0
10
0
20
0
0
TEXT
8
LABEL_INFO
10
0.01
20
0.1
40
0.28
1
0 0 1 1 0 1
72
1
73
1
11
0.01
21
0.1
41
0.75
7
W0$02
0
TEXT
8
LABEL_ATTRIBUTE
10
0.01
20
0.1
40
0.28
1
PartType
72
1
73
1
11
0.01
21
0.1
41
0.75
7
W0$02
0
TEXT
8
PART_TYPE_01
10
0.01
20
0.1
40
0.28
1
R-1005
72
1
73
2
11
0.01
21
0.1
41
0.75
7
W0$02
0
TEXT
8
LABEL_INFO
10
1.85
20
0
40
0.7
1
0 0 1 1 0 1
72
1
73
1
11
1.85
21
0
41
0.75
7
W0$1
0
TEXT
8
LABEL_ATTRIBUTE
10
1.85
20
0
40
0.7
1
Ref.Des.
72
1
73
1
11
1.85
21
0
41
0.75
7
W0$1
0
TEXT
8
PART_NAME_01
10
1.85
20
0
40
0.7
1
R26
72
1
73
2
11
1.85
21
0
41
0.75
7
W0$1
0
TEXT
8
PART_INFO
10
1.85
20
-1
40
0.7
1
000000
72
1
73
2
11
1.85
21
-1
41
0.75
7
W0$1
0
TEXT
8
PART_PTS
10
1.85
20
-2
40
0.7
1
1 2 
72
1
73
2
11
1.85
21
-2
41
0.75
7
W0$1
0
ENDBLK
0
BLOCK
2
PART_TOP_74
8
0
10
0
20
0
3
PART_TOP_74
70
64
0
INSERT
2
SYM_TOP_7
8
0
10
0
20
0
0
INSERT
2
PKG_4
8
0
10
0
20
0
0
TEXT
8
LABEL_INFO
10
2.1
20
1.65
40
0.7
1
0 0 1 1 0 1
72
1
73
1
11
2.1
21
1.65
41
0.75
7
W0$1
0
TEXT
8
LABEL_ATTRIBUTE
10
2.1
20
1.65
40
0.7
1
Ref.Des.
72
1
73
1
11
2.1
21
1.65
41
0.75
7
W0$1
0
TEXT
8
PART_NAME_01
10
2.1
20
1.65
40
0.7
1
Q3
72
1
73
2
11
2.1
21
1.65
41
0.75
7
W0$1
0
TEXT
8
LABEL_INFO
10
0
20
0.1
40
0.84
1
0 0 1 1 0 1
72
1
73
1
11
0
21
0.1
41
0.75
7
W0$12
0
TEXT
8
LABEL_ATTRIBUTE
10
0
20
0.1
40
0.84
1
PartType
72
1
73
1
11
0
21
0.1
41
0.75
7
W0$12
0
TEXT
8
PART_TYPE_01
10
0
20
0.1
40
0.84
1
PMBT2222
72
1
73
2
11
0
21
0.1
41
0.75
7
W0$12
0
TEXT
8
PART_INFO
10
0
20
-1.1
40
0.84
1
000000
72
1
73
2
11
0
21
-1.1
41
0.75
7
W0$12
0
TEXT
8
PART_PTS
10
0
20
-2.3
40
0.84
1
1 2 3 
72
1
73
2
11
0
21
-2.3
41
0.75
7
W0$12
0
ENDBLK
0
BLOCK
2
PART_TOP_75
8
0
10
0
20
0
3
PART_TOP_75
70
64
0
INSERT
2
SYM_TOP_8
8
0
10
0
20
0
0
INSERT
2
PKG_5
8
0
10
0
20
0
0
TEXT
8
LABEL_INFO
10
0.01
20
0.1
40
0.28
1
0 0 1 1 0 1
72
1
73
1
11
0.01
21
0.1
41
0.75
7
W0$02
0
TEXT
8
LABEL_ATTRIBUTE
10
0.01
20
0.1
40
0.28
1
PartType
72
1
73
1
11
0.01
21
0.1
41
0.75
7
W0$02
0
TEXT
8
PART_TYPE_01
10
0.01
20
0.1
40
0.28
1
R-1005
72
1
73
2
11
0.01
21
0.1
41
0.75
7
W0$02
0
TEXT
8
LABEL_INFO
10
2.25
20
0
40
0.7
1
0 0 1 1 0 1
72
1
73
1
11
2.25
21
0
41
0.75
7
W0$1
0
TEXT
8
LABEL_ATTRIBUTE
10
2.25
20
0
40
0.7
1
Ref.Des.
72
1
73
1
11
2.25
21
0
41
0.75
7
W0$1
0
TEXT
8
PART_NAME_01
10
2.25
20
0
40
0.7
1
R30
72
1
73
2
11
2.25
21
0
41
0.75
7
W0$1
0
TEXT
8
PART_INFO
10
2.25
20
-1
40
0.7
1
000000
72
1
73
2
11
2.25
21
-1
41
0.75
7
W0$1
0
TEXT
8
PART_PTS
10
2.25
20
-2
40
0.7
1
1 2 
72
1
73
2
11
2.25
21
-2
41
0.75
7
W0$1
0
ENDBLK
0
BLOCK
2
PART_TOP_76
8
0
10
0
20
0
3
PART_TOP_76
70
64
0
INSERT
2
SYM_TOP_22
8
0
10
0
20
0
0
INSERT
2
PKG_18
8
0
10
0
20
0
0
TEXT
8
LABEL_INFO
10
-4.2
20
0.1999993333
40
0.7
1
0 324000000 0 0 0 1
50
180
41
0.75
7
W0$1
0
TEXT
8
LABEL_ATTRIBUTE
10
-4.2
20
0.1999993333
40
0.7
1
Ref.Des.
50
180
41
0.75
7
W0$1
0
TEXT
8
PART_NAME_01
10
-4.2
20
0.1999993333
40
0.7
1
D2
50
180
41
0.75
7
W0$1
0
TEXT
8
LABEL_INFO
10
-1.1
20
0.76
40
0.889
1
0 0 0 2 0 1
73
2
11
-1.1
21
0.76
41
0.75
7
W0$127
0
TEXT
8
LABEL_ATTRIBUTE
10
-1.1
20
0.76
40
0.889
1
PartType
73
2
11
-1.1
21
0.76
41
0.75
7
W0$127
0
TEXT
8
PART_TYPE_01
10
-1.1
20
0.76
40
0.889
1
SMBJ12CA
73
3
11
-1.1
21
0.76
41
0.75
7
W0$127
0
TEXT
8
PART_INFO
10
-1.1
20
-0.51
40
0.889
1
000000
73
3
11
-1.1
21
-0.51
41
0.75
7
W0$127
0
TEXT
8
PART_PTS
10
-1.1
20
-1.78
40
0.889
1
1 2 
73
3
11
-1.1
21
-1.78
41
0.75
7
W0$127
0
ENDBLK
0
BLOCK
2
PART_TOP_77
8
0
10
0
20
0
3
PART_TOP_77
70
64
0
INSERT
2
SYM_TOP_8
8
0
10
0
20
0
0
INSERT
2
PKG_5
8
0
10
0
20
0
0
TEXT
8
LABEL_INFO
10
0.01
20
0.1
40
0.28
1
0 0 1 1 0 1
72
1
73
1
11
0.01
21
0.1
41
0.75
7
W0$02
0
TEXT
8
LABEL_ATTRIBUTE
10
0.01
20
0.1
40
0.28
1
PartType
72
1
73
1
11
0.01
21
0.1
41
0.75
7
W0$02
0
TEXT
8
PART_TYPE_01
10
0.01
20
0.1
40
0.28
1
R-1005
72
1
73
2
11
0.01
21
0.1
41
0.75
7
W0$02
0
TEXT
8
LABEL_INFO
10
-1.65
20
0
40
0.7
1
0 0 1 1 0 1
72
1
73
1
11
-1.65
21
0
41
0.75
7
W0$1
0
TEXT
8
LABEL_ATTRIBUTE
10
-1.65
20
0
40
0.7
1
Ref.Des.
72
1
73
1
11
-1.65
21
0
41
0.75
7
W0$1
0
TEXT
8
PART_NAME_01
10
-1.65
20
0
40
0.7
1
R32
72
1
73
2
11
-1.65
21
0
41
0.75
7
W0$1
0
TEXT
8
PART_INFO
10
-1.65
20
-1
40
0.7
1
000000
72
1
73
2
11
-1.65
21
-1
41
0.75
7
W0$1
0
TEXT
8
PART_PTS
10
-1.65
20
-2
40
0.7
1
1 2 
72
1
73
2
11
-1.65
21
-2
41
0.75
7
W0$1
0
ENDBLK
0
BLOCK
2
PART_TOP_78
8
0
10
0
20
0
3
PART_TOP_78
70
64
0
INSERT
2
SYM_TOP_24
8
0
10
0
20
0
0
INSERT
2
PKG_19
8
0
10
0
20
0
0
TEXT
8
LABEL_INFO
10
-0.414
20
1.438
40
0.7
1
0 0 0 0 0 1
41
0.75
7
W0$1
0
TEXT
8
LABEL_ATTRIBUTE
10
-0.414
20
1.438
40
0.7
1
Ref.Des.
41
0.75
7
W0$1
0
TEXT
8
PART_NAME_01
10
-0.414
20
1.438
40
0.7
1
U6
41
0.75
7
W0$1
0
TEXT
8
LABEL_INFO
10
-1.23
20
-1.052
40
0.889
1
0 0 0 2 0 1
73
2
11
-1.23
21
-1.052
41
0.75
7
W0$127
0
TEXT
8
LABEL_ATTRIBUTE
10
-1.23
20
-1.052
40
0.889
1
PartType
73
2
11
-1.23
21
-1.052
41
0.75
7
W0$127
0
TEXT
8
PART_TYPE_01
10
-1.23
20
-1.052
40
0.889
1
TPS3801L30
73
3
11
-1.23
21
-1.052
41
0.75
7
W0$127
0
TEXT
8
PART_INFO
10
-1.23
20
-2.322
40
0.889
1
000000
73
3
11
-1.23
21
-2.322
41
0.75
7
W0$127
0
TEXT
8
PART_PTS
10
-1.23
20
-3.592
40
0.889
1
1 2 3 4 5 
73
3
11
-1.23
21
-3.592
41
0.75
7
W0$127
0
ENDBLK
0
BLOCK
2
PART_TOP_79
8
0
10
0
20
0
3
PART_TOP_79
70
64
0
INSERT
2
SYM_TOP_25
8
0
10
0
20
0
0
INSERT
2
PKG_20
8
0
10
0
20
0
0
TEXT
8
LABEL_INFO
10
0
20
0
40
0.889
1
0 0 0 2 0 1
73
2
11
0
21
0
41
0.75
7
W0$127
0
TEXT
8
LABEL_ATTRIBUTE
10
0
20
0
40
0.889
1
PartType
73
2
11
0
21
0
41
0.75
7
W0$127
0
TEXT
8
PART_TYPE_01
10
0
20
0
40
0.889
1
HOLE2.0
73
3
11
0
21
0
41
0.75
7
W0$127
0
TEXT
8
PART_NAME_TOP
10
0
20
0
40
1.778
1
P1
73
3
11
0
21
0
41
0.75
7
W0$254
0
TEXT
8
PART_INFO
10
0
20
-2.54
40
1.778
1
000000
73
3
11
0
21
-2.54
41
0.75
7
W0$254
0
ENDBLK
0
BLOCK
2
PART_TOP_80
8
0
10
0
20
0
3
PART_TOP_80
70
64
0
INSERT
2
SYM_TOP_25
8
0
10
0
20
0
0
INSERT
2
PKG_20
8
0
10
0
20
0
0
TEXT
8
LABEL_INFO
10
0
20
0
40
0.889
1
0 0 0 2 0 1
73
2
11
0
21
0
41
0.75
7
W0$127
0
TEXT
8
LABEL_ATTRIBUTE
10
0
20
0
40
0.889
1
PartType
73
2
11
0
21
0
41
0.75
7
W0$127
0
TEXT
8
PART_TYPE_01
10
0
20
0
40
0.889
1
HOLE2.0
73
3
11
0
21
0
41
0.75
7
W0$127
0
TEXT
8
PART_NAME_TOP
10
0
20
0
40
1.778
1
P2
73
3
11
0
21
0
41
0.75
7
W0$254
0
TEXT
8
PART_INFO
10
0
20
-2.54
40
1.778
1
000000
73
3
11
0
21
-2.54
41
0.75
7
W0$254
0
ENDBLK
0
BLOCK
2
PART_TOP_81
8
0
10
0
20
0
3
PART_TOP_81
70
64
0
INSERT
2
SYM_TOP_26
8
0
10
0
20
0
0
INSERT
2
PKG_21
8
0
10
0
20
0
0
TEXT
8
LABEL_INFO
10
9.6
20
-3.3999993333
40
0.7
1
0 162000000 0 0 0 1
50
90
41
0.75
7
W0$1
0
TEXT
8
LABEL_ATTRIBUTE
10
9.6
20
-3.3999993333
40
0.7
1
Ref.Des.
50
90
41
0.75
7
W0$1
0
TEXT
8
PART_NAME_01
10
9.6
20
-3.3999993333
40
0.7
1
J1
50
90
41
0.75
7
W0$1
0
TEXT
8
LABEL_INFO
10
4.6
20
3.1
40
0.889
1
0 0 0 2 0 1
73
2
11
4.6
21
3.1
41
0.75
7
W0$127
0
TEXT
8
LABEL_ATTRIBUTE
10
4.6
20
3.1
40
0.889
1
PartType
73
2
11
4.6
21
3.1
41
0.75
7
W0$127
0
TEXT
8
PART_TYPE_01
10
4.6
20
3.1
40
0.889
1
DC-011C_SMD
73
3
11
4.6
21
3.1
41
0.75
7
W0$127
0
TEXT
8
PART_INFO
10
4.6
20
1.83
40
0.889
1
000000
73
3
11
4.6
21
1.83
41
0.75
7
W0$127
0
TEXT
8
PART_PTS
10
4.6
20
0.56
40
0.889
1
1 2 3 4 5 
73
3
11
4.6
21
0.56
41
0.75
7
W0$127
0
ENDBLK
0
BLOCK
2
PART_TOP_82
8
0
10
0
20
0
3
PART_TOP_82
70
64
0
INSERT
2
SYM_TOP_27
8
0
10
0
20
0
0
INSERT
2
PKG_22
8
0
10
0
20
0
0
TEXT
8
LABEL_INFO
10
0.1999993333
20
1.6
40
0.7
1
0 324000000 0 0 0 1
50
180
41
0.75
7
W0$1
0
TEXT
8
LABEL_ATTRIBUTE
10
0.1999993333
20
1.6
40
0.7
1
Ref.Des.
50
180
41
0.75
7
W0$1
0
TEXT
8
PART_NAME_01
10
0.1999993333
20
1.6
40
0.7
1
D3
50
180
41
0.75
7
W0$1
0
TEXT
8
LABEL_INFO
10
-1.156
20
0.714
40
0.889
1
0 0 0 2 0 1
73
2
11
-1.156
21
0.714
41
0.75
7
W0$127
0
TEXT
8
LABEL_ATTRIBUTE
10
-1.156
20
0.714
40
0.889
1
PartType
73
2
11
-1.156
21
0.714
41
0.75
7
W0$127
0
TEXT
8
PART_TYPE_01
10
-1.156
20
0.714
40
0.889
1
BZT52C5V1S
73
3
11
-1.156
21
0.714
41
0.75
7
W0$127
0
TEXT
8
PART_INFO
10
-1.156
20
-0.556
40
0.889
1
000000
73
3
11
-1.156
21
-0.556
41
0.75
7
W0$127
0
TEXT
8
PART_PTS
10
-1.156
20
-1.826
40
0.889
1
1 2 
73
3
11
-1.156
21
-1.826
41
0.75
7
W0$127
0
ENDBLK
0
BLOCK
2
PART_TOP_83
8
0
10
0
20
0
3
PART_TOP_83
70
64
0
INSERT
2
SYM_TOP_27
8
0
10
0
20
0
0
INSERT
2
PKG_22
8
0
10
0
20
0
0
TEXT
8
LABEL_INFO
10
0.1999993333
20
4.4
40
0.7
1
0 324000000 0 0 0 1
50
180
41
0.75
7
W0$1
0
TEXT
8
LABEL_ATTRIBUTE
10
0.1999993333
20
4.4
40
0.7
1
Ref.Des.
50
180
41
0.75
7
W0$1
0
TEXT
8
PART_NAME_01
10
0.1999993333
20
4.4
40
0.7
1
D4
50
180
41
0.75
7
W0$1
0
TEXT
8
LABEL_INFO
10
-1.156
20
0.714
40
0.889
1
0 0 0 2 0 1
73
2
11
-1.156
21
0.714
41
0.75
7
W0$127
0
TEXT
8
LABEL_ATTRIBUTE
10
-1.156
20
0.714
40
0.889
1
PartType
73
2
11
-1.156
21
0.714
41
0.75
7
W0$127
0
TEXT
8
PART_TYPE_01
10
-1.156
20
0.714
40
0.889
1
BZT52C5V1S
73
3
11
-1.156
21
0.714
41
0.75
7
W0$127
0
TEXT
8
PART_INFO
10
-1.156
20
-0.556
40
0.889
1
000000
73
3
11
-1.156
21
-0.556
41
0.75
7
W0$127
0
TEXT
8
PART_PTS
10
-1.156
20
-1.826
40
0.889
1
1 2 
73
3
11
-1.156
21
-1.826
41
0.75
7
W0$127
0
ENDBLK
0
BLOCK
2
PART_TOP_84
8
0
10
0
20
0
3
PART_TOP_84
70
64
0
INSERT
2
SYM_TOP_27
8
0
10
0
20
0
0
INSERT
2
PKG_22
8
0
10
0
20
0
0
TEXT
8
LABEL_INFO
10
0.35
20
-1.05
40
0.7
1
0 324000000 0 0 0 1
50
180
41
0.75
7
W0$1
0
TEXT
8
LABEL_ATTRIBUTE
10
0.35
20
-1.05
40
0.7
1
Ref.Des.
50
180
41
0.75
7
W0$1
0
TEXT
8
PART_NAME_01
10
0.35
20
-1.05
40
0.7
1
D5
50
180
41
0.75
7
W0$1
0
TEXT
8
LABEL_INFO
10
-1.156
20
0.714
40
0.889
1
0 0 0 2 0 1
73
2
11
-1.156
21
0.714
41
0.75
7
W0$127
0
TEXT
8
LABEL_ATTRIBUTE
10
-1.156
20
0.714
40
0.889
1
PartType
73
2
11
-1.156
21
0.714
41
0.75
7
W0$127
0
TEXT
8
PART_TYPE_01
10
-1.156
20
0.714
40
0.889
1
BZT52C5V1S
73
3
11
-1.156
21
0.714
41
0.75
7
W0$127
0
TEXT
8
PART_INFO
10
-1.156
20
-0.556
40
0.889
1
000000
73
3
11
-1.156
21
-0.556
41
0.75
7
W0$127
0
TEXT
8
PART_PTS
10
-1.156
20
-1.826
40
0.889
1
1 2 
73
3
11
-1.156
21
-1.826
41
0.75
7
W0$127
0
ENDBLK
0
BLOCK
2
PART_TOP_85
8
0
10
0
20
0
3
PART_TOP_85
70
64
0
INSERT
2
SYM_TOP_8
8
0
10
0
20
0
0
INSERT
2
PKG_5
8
0
10
0
20
0
0
TEXT
8
LABEL_INFO
10
0.01
20
0.1
40
0.28
1
0 0 1 1 0 1
72
1
73
1
11
0.01
21
0.1
41
0.75
7
W0$02
0
TEXT
8
LABEL_ATTRIBUTE
10
0.01
20
0.1
40
0.28
1
PartType
72
1
73
1
11
0.01
21
0.1
41
0.75
7
W0$02
0
TEXT
8
PART_TYPE_01
10
0.01
20
0.1
40
0.28
1
R-1005
72
1
73
2
11
0.01
21
0.1
41
0.75
7
W0$02
0
TEXT
8
LABEL_INFO
10
0.05
20
1.1
40
0.7
1
0 0 1 1 0 1
72
1
73
1
11
0.05
21
1.1
41
0.75
7
W0$1
0
TEXT
8
LABEL_ATTRIBUTE
10
0.05
20
1.1
40
0.7
1
Ref.Des.
72
1
73
1
11
0.05
21
1.1
41
0.75
7
W0$1
0
TEXT
8
PART_NAME_01
10
0.05
20
1.1
40
0.7
1
R33
72
1
73
2
11
0.05
21
1.1
41
0.75
7
W0$1
0
TEXT
8
PART_INFO
10
0.05
20
0.1
40
0.7
1
000000
72
1
73
2
11
0.05
21
0.1
41
0.75
7
W0$1
0
TEXT
8
PART_PTS
10
0.05
20
-0.9
40
0.7
1
1 2 
72
1
73
2
11
0.05
21
-0.9
41
0.75
7
W0$1
0
ENDBLK
0
BLOCK
2
SYM_TOP_4
8
0
10
0
20
0
3
SYM_TOP_4
70
64
0
TEXT
8
SYM_NAME
10
0
20
0
40
1.778
1
C-1005
41
0.75
0
TEXT
8
SYM_PART_NAME_01
10
2.15
20
0.1
40
0.7
1
 
72
1
73
1
11
2.15
21
0.1
41
0.75
7
W0$1R2
0
INSERT
2
PART_BODY_TOP_2
8
0
10
0
20
0
0
INSERT
2
STK_TOP_5
8
0
10
-0.4
20
0
0
TEXT
8
SYM_TERMINAL
10
0
20
-3.048
40
1.778
1
1
0
INSERT
2
STK_TOP_5
8
0
10
0.4
20
0
0
TEXT
8
SYM_TERMINAL
10
0
20
-6.096
40
1.778
1
2
0
ENDBLK
0
BLOCK
2
PKG_0
8
0
10
0
20
0
3
PKG_0
70
64
0
TEXT
8
PKG_INFO
10
0
20
0
40
1.778
1
*SYM:= 4
0
TEXT
8
PKG_INFO
10
0
20
-3.048
40
1.778
1
*PKG:= 0 C-1005 UND
0
TEXT
8
PKG_INFO
10
0
20
-6.096
40
1.778
1
*GATE:=0
0
TEXT
8
PKG_INFO
10
0
20
-9.144
40
1.778
1
*GATEPIN:= 0 1 1 1
0
TEXT
8
PKG_INFO
10
0
20
-12.192
40
1.778
1
*GATEPIN:= 0 1 2 2
0
ENDBLK
0
BLOCK
2
SYM_TOP_5
8
0
10
0
20
0
3
SYM_TOP_5
70
64
0
TEXT
8
SYM_NAME
10
0
20
0
40
1.778
1
C-1608
41
0.75
0
TEXT
8
SYM_PART_TYPE_01
10
-1.8
20
2.3
40
0.889
1
 
73
2
11
-1.8
21
2.3
41
0.75
7
W0$127R0
0
TEXT
8
SYM_PART_NAME_01
10
-1.8
20
1.6
40
0.889
1
 
41
0.75
7
W0$127R0
0
INSERT
2
PART_BODY_TOP_3
8
0
10
0
20
0
0
INSERT
2
STK_TOP_6
8
0
10
-0.8
20
0
0
TEXT
8
SYM_TERMINAL
10
0
20
-3.048
40
1.778
1
1
0
INSERT
2
STK_TOP_6
8
0
10
0.8
20
0
0
TEXT
8
SYM_TERMINAL
10
0
20
-6.096
40
1.778
1
2
0
ENDBLK
0
BLOCK
2
PKG_1
8
0
10
0
20
0
3
PKG_1
70
64
0
TEXT
8
PKG_INFO
10
0
20
0
40
1.778
1
*SYM:= 5
0
TEXT
8
PKG_INFO
10
0
20
-3.048
40
1.778
1
*PKG:= 0 C-1608 UND
0
TEXT
8
PKG_INFO
10
0
20
-6.096
40
1.778
1
*GATE:=0
0
TEXT
8
PKG_INFO
10
0
20
-9.144
40
1.778
1
*GATEPIN:= 0 1 1 1
0
TEXT
8
PKG_INFO
10
0
20
-12.192
40
1.778
1
*GATEPIN:= 0 1 2 2
0
ENDBLK
0
BLOCK
2
SYM_TOP_23
8
0
10
0
20
0
3
SYM_TOP_23
70
64
0
TEXT
8
SYM_NAME
10
0
20
0
40
1.778
1
LM2735XMF
41
0.75
0
TEXT
8
SYM_PART_NAME_01
10
0.105
20
2.803
40
0.84
1
 
72
1
73
1
11
0.105
21
2.803
41
0.75
7
W0$12R2
0
TEXT
8
SYM_PART_TYPE_01
10
0.056
20
0.28
40
0.84
1
 
72
1
73
1
11
0.056
21
0.28
41
0.75
7
W0$12R2
0
INSERT
2
PART_BODY_TOP_21
8
0
10
0
20
0
0
INSERT
2
STK_TOP_7
8
0
10
-0.95
20
-1.2
0
TEXT
8
SYM_TERMINAL
10
0
20
-3.048
40
1.778
1
1
0
INSERT
2
STK_TOP_7
8
0
10
0
20
-1.2
0
TEXT
8
SYM_TERMINAL
10
0
20
-6.096
40
1.778
1
2
0
INSERT
2
STK_TOP_7
8
0
10
0.95
20
-1.2
0
TEXT
8
SYM_TERMINAL
10
0
20
-9.144
40
1.778
1
3
0
INSERT
2
STK_TOP_7
8
0
10
0.95
20
1.2
0
TEXT
8
SYM_TERMINAL
10
0
20
-12.192
40
1.778
1
4
0
INSERT
2
STK_TOP_7
8
0
10
-0.95
20
1.2
0
TEXT
8
SYM_TERMINAL
10
0
20
-15.24
40
1.778
1
5
0
ENDBLK
0
BLOCK
2
PKG_2
8
0
10
0
20
0
3
PKG_2
70
64
0
TEXT
8
PKG_INFO
10
0
20
0
40
1.778
1
*SYM:= 6 23
0
TEXT
8
PKG_INFO
10
0
20
-3.048
40
1.778
1
*PKG:= 0 LM2735XMF UND
0
TEXT
8
PKG_INFO
10
0
20
-6.096
40
1.778
1
*GATE:=0
0
TEXT
8
PKG_INFO
10
0
20
-9.144
40
1.778
1
*GATEPIN:= 0 9 1 SW
0
TEXT
8
PKG_INFO
10
0
20
-12.192
40
1.778
1
*GATEPIN:= 0 9 2 GND
0
TEXT
8
PKG_INFO
10
0
20
-15.24
40
1.778
1
*GATEPIN:= 0 9 3 FB
0
TEXT
8
PKG_INFO
10
0
20
-18.288
40
1.778
1
*GATEPIN:= 0 9 4 EN
0
TEXT
8
PKG_INFO
10
0
20
-21.336
40
1.778
1
*GATEPIN:= 0 9 5 VIN
0
ENDBLK
0
BLOCK
2
SYM_TOP_6
8
0
10
0
20
0
3
SYM_TOP_6
70
64
0
TEXT
8
SYM_NAME
10
0
20
0
40
1.778
1
LM3671MF-3.3
41
0.75
0
TEXT
8
SYM_PART_NAME_01
10
-2.226
20
0.508
40
0.84
1
 
72
1
73
1
11
-2.226
21
0.508
50
270
41
0.75
7
W0$12R2
0
TEXT
8
SYM_PART_TYPE_01
10
0
20
0
40
0.84
1
 
72
1
73
1
11
0
21
0
41
0.75
7
W0$12R2
0
INSERT
2
PART_BODY_TOP_4
8
0
10
0
20
0
0
INSERT
2
STK_TOP_7
8
0
10
-0.95
20
-1.2
0
TEXT
8
SYM_TERMINAL
10
0
20
-3.048
40
1.778
1
1
0
INSERT
2
STK_TOP_7
8
0
10
0
20
-1.2
0
TEXT
8
SYM_TERMINAL
10
0
20
-6.096
40
1.778
1
2
0
INSERT
2
STK_TOP_7
8
0
10
0.95
20
-1.2
0
TEXT
8
SYM_TERMINAL
10
0
20
-9.144
40
1.778
1
3
0
INSERT
2
STK_TOP_7
8
0
10
0.95
20
1.2
0
TEXT
8
SYM_TERMINAL
10
0
20
-12.192
40
1.778
1
4
0
INSERT
2
STK_TOP_7
8
0
10
-0.95
20
1.2
0
TEXT
8
SYM_TERMINAL
10
0
20
-15.24
40
1.778
1
5
0
ENDBLK
0
BLOCK
2
PKG_3
8
0
10
0
20
0
3
PKG_3
70
64
0
TEXT
8
PKG_INFO
10
0
20
0
40
1.778
1
*SYM:= 6
0
TEXT
8
PKG_INFO
10
0
20
-3.048
40
1.778
1
*PKG:= 0 LM3671MF-3.3 UND
0
TEXT
8
PKG_INFO
10
0
20
-6.096
40
1.778
1
*GATE:=0
0
TEXT
8
PKG_INFO
10
0
20
-9.144
40
1.778
1
*GATEPIN:= 0 9 1 VIN
0
TEXT
8
PKG_INFO
10
0
20
-12.192
40
1.778
1
*GATEPIN:= 0 9 2 GND
0
TEXT
8
PKG_INFO
10
0
20
-15.24
40
1.778
1
*GATEPIN:= 0 9 3 EN
0
TEXT
8
PKG_INFO
10
0
20
-18.288
40
1.778
1
*GATEPIN:= 0 9 4 FB
0
TEXT
8
PKG_INFO
10
0
20
-21.336
40
1.778
1
*GATEPIN:= 0 9 5 SW
0
ENDBLK
0
BLOCK
2
SYM_TOP_12
8
0
10
0
20
0
3
SYM_TOP_12
70
64
0
TEXT
8
SYM_NAME
10
0
20
0
40
1.778
1
PMBT2222
41
0.75
0
TEXT
8
SYM_PART_TYPE_01
10
2.88
20
-0.98
40
0.84
1
 
72
1
73
1
11
2.88
21
-0.98
41
0.75
7
W0$12R0
0
TEXT
8
SYM_PART_NAME_01
10
3.04
20
0.09
40
0.84
1
 
72
1
73
1
11
3.04
21
0.09
41
0.75
7
W0$12R0
0
INSERT
2
PART_BODY_TOP_10
8
0
10
0
20
0
0
INSERT
2
STK_TOP_7
8
0
10
-0.95
20
-1.2
0
TEXT
8
SYM_TERMINAL
10
0
20
-3.048
40
1.778
1
1
0
INSERT
2
STK_TOP_7
8
0
10
0.95
20
-1.2
0
TEXT
8
SYM_TERMINAL
10
0
20
-6.096
40
1.778
1
2
0
INSERT
2
STK_TOP_7
8
0
10
0
20
1.2
0
TEXT
8
SYM_TERMINAL
10
0
20
-9.144
40
1.778
1
3
0
ENDBLK
0
BLOCK
2
PKG_4
8
0
10
0
20
0
3
PKG_4
70
64
0
TEXT
8
PKG_INFO
10
0
20
0
40
1.778
1
*SYM:= 7 12
0
TEXT
8
PKG_INFO
10
0
20
-3.048
40
1.778
1
*PKG:= 0 PMBT2222 UND
0
TEXT
8
PKG_INFO
10
0
20
-6.096
40
1.778
1
*GATE:=0
0
TEXT
8
PKG_INFO
10
0
20
-9.144
40
1.778
1
*GATEPIN:= 0 9 3 C
0
TEXT
8
PKG_INFO
10
0
20
-12.192
40
1.778
1
*GATEPIN:= 0 9 2 E
0
TEXT
8
PKG_INFO
10
0
20
-15.24
40
1.778
1
*GATEPIN:= 0 9 1 B
0
ENDBLK
0
BLOCK
2
SYM_TOP_8
8
0
10
0
20
0
3
SYM_TOP_8
70
64
0
TEXT
8
SYM_NAME
10
0
20
0
40
1.778
1
R-1005
41
0.75
0
TEXT
8
SYM_PART_NAME_01
10
0.15
20
0.9
40
0.7
1
 
72
1
73
1
11
0.15
21
0.9
41
0.75
7
W0$1R0
0
TEXT
8
SYM_PART_TYPE_01
10
0.01
20
0.1
40
0.28
1
 
72
1
73
1
11
0.01
21
0.1
41
0.75
7
W0$02R0
0
INSERT
2
PART_BODY_TOP_6
8
0
10
0
20
0
0
INSERT
2
STK_TOP_8
8
0
10
-0.4
20
0
0
TEXT
8
SYM_TERMINAL
10
0
20
-3.048
40
1.778
1
1
0
INSERT
2
STK_TOP_8
8
0
10
0.4
20
0
0
TEXT
8
SYM_TERMINAL
10
0
20
-6.096
40
1.778
1
2
0
ENDBLK
0
BLOCK
2
PKG_5
8
0
10
0
20
0
3
PKG_5
70
64
0
TEXT
8
PKG_INFO
10
0
20
0
40
1.778
1
*SYM:= 8
0
TEXT
8
PKG_INFO
10
0
20
-3.048
40
1.778
1
*PKG:= 0 R-1005 UND
0
ENDBLK
0
BLOCK
2
SYM_TOP_9
8
0
10
0
20
0
3
SYM_TOP_9
70
64
0
TEXT
8
SYM_NAME
10
0
20
0
40
1.778
1
STM32F070RBT6
41
0.75
0
TEXT
8
SYM_PART_TYPE_01
10
0
20
0
40
1.05
1
 
72
1
73
1
11
0
21
0
41
0.75
7
W0$15R1
0
TEXT
8
SYM_PART_NAME_01
10
0
20
0
40
1.05
1
 
72
1
73
1
11
0
21
0
41
0.75
7
W0$15R1
0
TEXT
8
SYM_PART_NAME_127
10
0
20
0
40
1.05
1
 
72
1
73
1
11
0
21
0
41
0.75
7
W0$15R1
0
INSERT
2
PART_BODY_TOP_7
8
0
10
0
20
0
0
INSERT
2
STK_TOP_9
8
0
10
-5.7
20
3.75
0
TEXT
8
SYM_TERMINAL
10
0
20
-3.048
40
1.778
1
1
0
INSERT
2
STK_TOP_9
8
0
10
-5.7
20
3.25
0
TEXT
8
SYM_TERMINAL
10
0
20
-6.096
40
1.778
1
2
0
INSERT
2
STK_TOP_9
8
0
10
-5.7
20
2.75
0
TEXT
8
SYM_TERMINAL
10
0
20
-9.144
40
1.778
1
3
0
INSERT
2
STK_TOP_9
8
0
10
-5.7
20
2.25
0
TEXT
8
SYM_TERMINAL
10
0
20
-12.192
40
1.778
1
4
0
INSERT
2
STK_TOP_9
8
0
10
-5.7
20
1.75
0
TEXT
8
SYM_TERMINAL
10
0
20
-15.24
40
1.778
1
5
0
INSERT
2
STK_TOP_9
8
0
10
-5.7
20
1.25
0
TEXT
8
SYM_TERMINAL
10
0
20
-18.288
40
1.778
1
6
0
INSERT
2
STK_TOP_9
8
0
10
-5.7
20
0.75
0
TEXT
8
SYM_TERMINAL
10
0
20
-21.336
40
1.778
1
7
0
INSERT
2
STK_TOP_9
8
0
10
-5.7
20
0.25
0
TEXT
8
SYM_TERMINAL
10
0
20
-24.384
40
1.778
1
8
0
INSERT
2
STK_TOP_9
8
0
10
-5.7
20
-0.25
0
TEXT
8
SYM_TERMINAL
10
0
20
-27.432
40
1.778
1
9
0
INSERT
2
STK_TOP_9
8
0
10
-5.7
20
-0.75
0
TEXT
8
SYM_TERMINAL
10
0
20
-30.48
40
1.778
1
10
0
INSERT
2
STK_TOP_9
8
0
10
-5.7
20
-1.25
0
TEXT
8
SYM_TERMINAL
10
0
20
-33.528
40
1.778
1
11
0
INSERT
2
STK_TOP_9
8
0
10
-5.7
20
-1.75
0
TEXT
8
SYM_TERMINAL
10
0
20
-36.576
40
1.778
1
12
0
INSERT
2
STK_TOP_9
8
0
10
-5.7
20
-2.25
0
TEXT
8
SYM_TERMINAL
10
0
20
-39.624
40
1.778
1
13
0
INSERT
2
STK_TOP_9
8
0
10
-5.7
20
-2.75
0
TEXT
8
SYM_TERMINAL
10
0
20
-42.672
40
1.778
1
14
0
INSERT
2
STK_TOP_9
8
0
10
-5.7
20
-3.25
0
TEXT
8
SYM_TERMINAL
10
0
20
-45.72
40
1.778
1
15
0
INSERT
2
STK_TOP_9
8
0
10
-5.7
20
-3.75
0
TEXT
8
SYM_TERMINAL
10
0
20
-48.768
40
1.778
1
16
0
INSERT
2
STK_TOP_10
8
0
10
-3.75
20
-5.7
0
TEXT
8
SYM_TERMINAL
10
0
20
-51.816
40
1.778
1
17
0
INSERT
2
STK_TOP_10
8
0
10
-3.25
20
-5.7
0
TEXT
8
SYM_TERMINAL
10
0
20
-54.864
40
1.778
1
18
0
INSERT
2
STK_TOP_10
8
0
10
-2.75
20
-5.7
0
TEXT
8
SYM_TERMINAL
10
0
20
-57.912
40
1.778
1
19
0
INSERT
2
STK_TOP_10
8
0
10
-2.25
20
-5.7
0
TEXT
8
SYM_TERMINAL
10
0
20
-60.96
40
1.778
1
20
0
INSERT
2
STK_TOP_10
8
0
10
-1.75
20
-5.7
0
TEXT
8
SYM_TERMINAL
10
0
20
-64.008
40
1.778
1
21
0
INSERT
2
STK_TOP_10
8
0
10
-1.25
20
-5.7
0
TEXT
8
SYM_TERMINAL
10
0
20
-67.056
40
1.778
1
22
0
INSERT
2
STK_TOP_10
8
0
10
-0.75
20
-5.7
0
TEXT
8
SYM_TERMINAL
10
0
20
-70.104
40
1.778
1
23
0
INSERT
2
STK_TOP_10
8
0
10
-0.25
20
-5.7
0
TEXT
8
SYM_TERMINAL
10
0
20
-73.152
40
1.778
1
24
0
INSERT
2
STK_TOP_10
8
0
10
0.25
20
-5.7
0
TEXT
8
SYM_TERMINAL
10
0
20
-76.2
40
1.778
1
25
0
INSERT
2
STK_TOP_10
8
0
10
0.75
20
-5.7
0
TEXT
8
SYM_TERMINAL
10
0
20
-79.248
40
1.778
1
26
0
INSERT
2
STK_TOP_10
8
0
10
1.25
20
-5.7
0
TEXT
8
SYM_TERMINAL
10
0
20
-82.296
40
1.778
1
27
0
INSERT
2
STK_TOP_10
8
0
10
1.75
20
-5.7
0
TEXT
8
SYM_TERMINAL
10
0
20
-85.344
40
1.778
1
28
0
INSERT
2
STK_TOP_10
8
0
10
2.25
20
-5.7
0
TEXT
8
SYM_TERMINAL
10
0
20
-88.392
40
1.778
1
29
0
INSERT
2
STK_TOP_10
8
0
10
2.75
20
-5.7
0
TEXT
8
SYM_TERMINAL
10
0
20
-91.44
40
1.778
1
30
0
INSERT
2
STK_TOP_10
8
0
10
3.25
20
-5.7
0
TEXT
8
SYM_TERMINAL
10
0
20
-94.488
40
1.778
1
31
0
INSERT
2
STK_TOP_10
8
0
10
3.75
20
-5.7
0
TEXT
8
SYM_TERMINAL
10
0
20
-97.536
40
1.778
1
32
0
INSERT
2
STK_TOP_9
8
0
10
5.7
20
-3.75
0
TEXT
8
SYM_TERMINAL
10
0
20
-100.584
40
1.778
1
33
0
INSERT
2
STK_TOP_9
8
0
10
5.7
20
-3.25
0
TEXT
8
SYM_TERMINAL
10
0
20
-103.632
40
1.778
1
34
0
INSERT
2
STK_TOP_9
8
0
10
5.7
20
-2.75
0
TEXT
8
SYM_TERMINAL
10
0
20
-106.68
40
1.778
1
35
0
INSERT
2
STK_TOP_9
8
0
10
5.7
20
-2.25
0
TEXT
8
SYM_TERMINAL
10
0
20
-109.728
40
1.778
1
36
0
INSERT
2
STK_TOP_9
8
0
10
5.7
20
-1.75
0
TEXT
8
SYM_TERMINAL
10
0
20
-112.776
40
1.778
1
37
0
INSERT
2
STK_TOP_9
8
0
10
5.7
20
-1.25
0
TEXT
8
SYM_TERMINAL
10
0
20
-115.824
40
1.778
1
38
0
INSERT
2
STK_TOP_9
8
0
10
5.7
20
-0.75
0
TEXT
8
SYM_TERMINAL
10
0
20
-118.872
40
1.778
1
39
0
INSERT
2
STK_TOP_9
8
0
10
5.7
20
-0.25
0
TEXT
8
SYM_TERMINAL
10
0
20
-121.92
40
1.778
1
40
0
INSERT
2
STK_TOP_9
8
0
10
5.7
20
0.25
0
TEXT
8
SYM_TERMINAL
10
0
20
-124.968
40
1.778
1
41
0
INSERT
2
STK_TOP_9
8
0
10
5.7
20
0.75
0
TEXT
8
SYM_TERMINAL
10
0
20
-128.016
40
1.778
1
42
0
INSERT
2
STK_TOP_9
8
0
10
5.7
20
1.25
0
TEXT
8
SYM_TERMINAL
10
0
20
-131.064
40
1.778
1
43
0
INSERT
2
STK_TOP_9
8
0
10
5.7
20
1.75
0
TEXT
8
SYM_TERMINAL
10
0
20
-134.112
40
1.778
1
44
0
INSERT
2
STK_TOP_9
8
0
10
5.7
20
2.25
0
TEXT
8
SYM_TERMINAL
10
0
20
-137.16
40
1.778
1
45
0
INSERT
2
STK_TOP_9
8
0
10
5.7
20
2.75
0
TEXT
8
SYM_TERMINAL
10
0
20
-140.208
40
1.778
1
46
0
INSERT
2
STK_TOP_9
8
0
10
5.7
20
3.25
0
TEXT
8
SYM_TERMINAL
10
0
20
-143.256
40
1.778
1
47
0
INSERT
2
STK_TOP_9
8
0
10
5.7
20
3.75
0
TEXT
8
SYM_TERMINAL
10
0
20
-146.304
40
1.778
1
48
0
INSERT
2
STK_TOP_10
8
0
10
3.75
20
5.7
0
TEXT
8
SYM_TERMINAL
10
0
20
-149.352
40
1.778
1
49
0
INSERT
2
STK_TOP_10
8
0
10
3.25
20
5.7
0
TEXT
8
SYM_TERMINAL
10
0
20
-152.4
40
1.778
1
50
0
INSERT
2
STK_TOP_10
8
0
10
2.75
20
5.7
0
TEXT
8
SYM_TERMINAL
10
0
20
-155.448
40
1.778
1
51
0
INSERT
2
STK_TOP_10
8
0
10
2.25
20
5.7
0
TEXT
8
SYM_TERMINAL
10
0
20
-158.496
40
1.778
1
52
0
INSERT
2
STK_TOP_10
8
0
10
1.75
20
5.7
0
TEXT
8
SYM_TERMINAL
10
0
20
-161.544
40
1.778
1
53
0
INSERT
2
STK_TOP_10
8
0
10
1.25
20
5.7
0
TEXT
8
SYM_TERMINAL
10
0
20
-164.592
40
1.778
1
54
0
INSERT
2
STK_TOP_10
8
0
10
0.75
20
5.7
0
TEXT
8
SYM_TERMINAL
10
0
20
-167.64
40
1.778
1
55
0
INSERT
2
STK_TOP_10
8
0
10
0.25
20
5.7
0
TEXT
8
SYM_TERMINAL
10
0
20
-170.688
40
1.778
1
56
0
INSERT
2
STK_TOP_10
8
0
10
-0.25
20
5.7
0
TEXT
8
SYM_TERMINAL
10
0
20
-173.736
40
1.778
1
57
0
INSERT
2
STK_TOP_10
8
0
10
-0.75
20
5.7
0
TEXT
8
SYM_TERMINAL
10
0
20
-176.784
40
1.778
1
58
0
INSERT
2
STK_TOP_10
8
0
10
-1.25
20
5.7
0
TEXT
8
SYM_TERMINAL
10
0
20
-179.832
40
1.778
1
59
0
INSERT
2
STK_TOP_10
8
0
10
-1.75
20
5.7
0
TEXT
8
SYM_TERMINAL
10
0
20
-182.88
40
1.778
1
60
0
INSERT
2
STK_TOP_10
8
0
10
-2.25
20
5.7
0
TEXT
8
SYM_TERMINAL
10
0
20
-185.928
40
1.778
1
61
0
INSERT
2
STK_TOP_10
8
0
10
-2.75
20
5.7
0
TEXT
8
SYM_TERMINAL
10
0
20
-188.976
40
1.778
1
62
0
INSERT
2
STK_TOP_10
8
0
10
-3.25
20
5.7
0
TEXT
8
SYM_TERMINAL
10
0
20
-192.024
40
1.778
1
63
0
INSERT
2
STK_TOP_10
8
0
10
-3.75
20
5.7
0
TEXT
8
SYM_TERMINAL
10
0
20
-195.072
40
1.778
1
64
0
ENDBLK
0
BLOCK
2
PKG_6
8
0
10
0
20
0
3
PKG_6
70
64
0
TEXT
8
PKG_INFO
10
0
20
0
40
1.778
1
*SYM:= 9
0
TEXT
8
PKG_INFO
10
0
20
-3.048
40
1.778
1
*PKG:= 0 STM32F070RBT6 UND
0
TEXT
8
PKG_INFO
10
0
20
-6.096
40
1.778
1
*GATE:=0
0
TEXT
8
PKG_INFO
10
0
20
-9.144
40
1.778
1
*GATEPIN:= 0 9 1 VDD
0
TEXT
8
PKG_INFO
10
0
20
-12.192
40
1.778
1
*GATEPIN:= 0 9 2 PC13
0
TEXT
8
PKG_INFO
10
0
20
-15.24
40
1.778
1
*GATEPIN:= 0 9 3 PC14-OSC32_IN
0
TEXT
8
PKG_INFO
10
0
20
-18.288
40
1.778
1
*GATEPIN:= 0 9 4 PC15-OSC32_OUT
0
TEXT
8
PKG_INFO
10
0
20
-21.336
40
1.778
1
*GATEPIN:= 0 9 5 PF0-OSC_IN
0
TEXT
8
PKG_INFO
10
0
20
-24.384
40
1.778
1
*GATEPIN:= 0 9 6 PF1-OSC_OUT
0
TEXT
8
PKG_INFO
10
0
20
-27.432
40
1.778
1
*GATEPIN:= 0 9 7 NRST
0
TEXT
8
PKG_INFO
10
0
20
-30.48
40
1.778
1
*GATEPIN:= 0 9 8 PC0
0
TEXT
8
PKG_INFO
10
0
20
-33.528
40
1.778
1
*GATEPIN:= 0 9 9 PC1
0
TEXT
8
PKG_INFO
10
0
20
-36.576
40
1.778
1
*GATEPIN:= 0 9 10 PC2
0
TEXT
8
PKG_INFO
10
0
20
-39.624
40
1.778
1
*GATEPIN:= 0 9 11 PC3
0
TEXT
8
PKG_INFO
10
0
20
-42.672
40
1.778
1
*GATEPIN:= 0 9 12 VSSA
0
TEXT
8
PKG_INFO
10
0
20
-45.72
40
1.778
1
*GATEPIN:= 0 9 13 VDDA
0
TEXT
8
PKG_INFO
10
0
20
-48.768
40
1.778
1
*GATEPIN:= 0 9 14 PA0
0
TEXT
8
PKG_INFO
10
0
20
-51.816
40
1.778
1
*GATEPIN:= 0 9 15 PA1
0
TEXT
8
PKG_INFO
10
0
20
-54.864
40
1.778
1
*GATEPIN:= 0 9 16 PA2
0
TEXT
8
PKG_INFO
10
0
20
-57.912
40
1.778
1
*GATEPIN:= 0 9 17 PA3
0
TEXT
8
PKG_INFO
10
0
20
-60.96
40
1.778
1
*GATEPIN:= 0 9 18 VSS
0
TEXT
8
PKG_INFO
10
0
20
-64.008
40
1.778
1
*GATEPIN:= 0 9 19 VDD
0
TEXT
8
PKG_INFO
10
0
20
-67.056
40
1.778
1
*GATEPIN:= 0 9 20 PA4
0
TEXT
8
PKG_INFO
10
0
20
-70.104
40
1.778
1
*GATEPIN:= 0 9 21 PA5
0
TEXT
8
PKG_INFO
10
0
20
-73.152
40
1.778
1
*GATEPIN:= 0 9 22 PA6
0
TEXT
8
PKG_INFO
10
0
20
-76.2
40
1.778
1
*GATEPIN:= 0 9 23 PA7
0
TEXT
8
PKG_INFO
10
0
20
-79.248
40
1.778
1
*GATEPIN:= 0 9 24 PC4
0
TEXT
8
PKG_INFO
10
0
20
-82.296
40
1.778
1
*GATEPIN:= 0 9 25 PC5
0
TEXT
8
PKG_INFO
10
0
20
-85.344
40
1.778
1
*GATEPIN:= 0 9 26 PB0
0
TEXT
8
PKG_INFO
10
0
20
-88.392
40
1.778
1
*GATEPIN:= 0 9 27 PB1
0
TEXT
8
PKG_INFO
10
0
20
-91.44
40
1.778
1
*GATEPIN:= 0 9 28 PB2
0
TEXT
8
PKG_INFO
10
0
20
-94.488
40
1.778
1
*GATEPIN:= 0 9 29 PB10
0
TEXT
8
PKG_INFO
10
0
20
-97.536
40
1.778
1
*GATEPIN:= 0 9 30 PB11
0
TEXT
8
PKG_INFO
10
0
20
-100.584
40
1.778
1
*GATEPIN:= 0 9 31 VSS
0
TEXT
8
PKG_INFO
10
0
20
-103.632
40
1.778
1
*GATEPIN:= 0 9 32 VDD
0
TEXT
8
PKG_INFO
10
0
20
-106.68
40
1.778
1
*GATEPIN:= 0 9 33 PB12
0
TEXT
8
PKG_INFO
10
0
20
-109.728
40
1.778
1
*GATEPIN:= 0 9 34 PB13
0
TEXT
8
PKG_INFO
10
0
20
-112.776
40
1.778
1
*GATEPIN:= 0 9 35 PB14
0
TEXT
8
PKG_INFO
10
0
20
-115.824
40
1.778
1
*GATEPIN:= 0 9 36 PB15
0
TEXT
8
PKG_INFO
10
0
20
-118.872
40
1.778
1
*GATEPIN:= 0 9 37 PC6
0
TEXT
8
PKG_INFO
10
0
20
-121.92
40
1.778
1
*GATEPIN:= 0 9 38 PC7
0
TEXT
8
PKG_INFO
10
0
20
-124.968
40
1.778
1
*GATEPIN:= 0 9 39 PC8
0
TEXT
8
PKG_INFO
10
0
20
-128.016
40
1.778
1
*GATEPIN:= 0 9 40 PC9
0
TEXT
8
PKG_INFO
10
0
20
-131.064
40
1.778
1
*GATEPIN:= 0 9 41 PA8
0
TEXT
8
PKG_INFO
10
0
20
-134.112
40
1.778
1
*GATEPIN:= 0 9 42 PA9
0
TEXT
8
PKG_INFO
10
0
20
-137.16
40
1.778
1
*GATEPIN:= 0 9 43 PA10
0
TEXT
8
PKG_INFO
10
0
20
-140.208
40
1.778
1
*GATEPIN:= 0 9 44 PA11
0
TEXT
8
PKG_INFO
10
0
20
-143.256
40
1.778
1
*GATEPIN:= 0 9 45 PA12
0
TEXT
8
PKG_INFO
10
0
20
-146.304
40
1.778
1
*GATEPIN:= 0 9 46 PA13
0
TEXT
8
PKG_INFO
10
0
20
-149.352
40
1.778
1
*GATEPIN:= 0 9 47 VSS
0
TEXT
8
PKG_INFO
10
0
20
-152.4
40
1.778
1
*GATEPIN:= 0 9 48 VDD
0
TEXT
8
PKG_INFO
10
0
20
-155.448
40
1.778
1
*GATEPIN:= 0 9 49 PA14
0
TEXT
8
PKG_INFO
10
0
20
-158.496
40
1.778
1
*GATEPIN:= 0 9 50 PA15
0
TEXT
8
PKG_INFO
10
0
20
-161.544
40
1.778
1
*GATEPIN:= 0 9 51 PC10
0
TEXT
8
PKG_INFO
10
0
20
-164.592
40
1.778
1
*GATEPIN:= 0 9 52 PC11
0
TEXT
8
PKG_INFO
10
0
20
-167.64
40
1.778
1
*GATEPIN:= 0 9 53 PC12
0
TEXT
8
PKG_INFO
10
0
20
-170.688
40
1.778
1
*GATEPIN:= 0 9 54 PD2
0
TEXT
8
PKG_INFO
10
0
20
-173.736
40
1.778
1
*GATEPIN:= 0 9 55 PB3
0
TEXT
8
PKG_INFO
10
0
20
-176.784
40
1.778
1
*GATEPIN:= 0 9 56 PB4
0
TEXT
8
PKG_INFO
10
0
20
-179.832
40
1.778
1
*GATEPIN:= 0 9 57 PB5
0
TEXT
8
PKG_INFO
10
0
20
-182.88
40
1.778
1
*GATEPIN:= 0 9 58 PB6
0
TEXT
8
PKG_INFO
10
0
20
-185.928
40
1.778
1
*GATEPIN:= 0 9 59 PB7
0
TEXT
8
PKG_INFO
10
0
20
-188.976
40
1.778
1
*GATEPIN:= 0 9 60 BOOT0
0
TEXT
8
PKG_INFO
10
0
20
-192.024
40
1.778
1
*GATEPIN:= 0 9 61 PB8
0
TEXT
8
PKG_INFO
10
0
20
-195.072
40
1.778
1
*GATEPIN:= 0 9 62 PB9
0
TEXT
8
PKG_INFO
10
0
20
-198.12
40
1.778
1
*GATEPIN:= 0 9 63 VSS
0
TEXT
8
PKG_INFO
10
0
20
-201.168
40
1.778
1
*GATEPIN:= 0 9 64 VDD
0
ENDBLK
0
BLOCK
2
SYM_TOP_10
8
0
10
0
20
0
3
SYM_TOP_10
70
64
0
TEXT
8
SYM_NAME
10
0
20
0
40
1.778
1
LED-2012
41
0.75
0
TEXT
8
SYM_PART_NAME_01
10
-0.55
20
-0.125
40
0.42
1
 
41
0.75
7
W0$02R0
0
TEXT
8
SYM_PART_TYPE_01
10
-0.55
20
0.375
40
0.42
1
 
73
2
11
-0.55
21
0.375
41
0.75
7
W0$02R0
0
INSERT
2
PART_BODY_TOP_8
8
0
10
0
20
0
0
INSERT
2
STK_TOP_11
8
0
10
-1.05
20
0
0
TEXT
8
SYM_TERMINAL
10
0
20
-3.048
40
1.778
1
1
0
INSERT
2
STK_TOP_11
8
0
10
1.05
20
0
0
TEXT
8
SYM_TERMINAL
10
0
20
-6.096
40
1.778
1
2
0
ENDBLK
0
BLOCK
2
PKG_7
8
0
10
0
20
0
3
PKG_7
70
64
0
TEXT
8
PKG_INFO
10
0
20
0
40
1.778
1
*SYM:= 10
0
TEXT
8
PKG_INFO
10
0
20
-3.048
40
1.778
1
*PKG:= 0 LED-2012 UND
0
TEXT
8
PKG_INFO
10
0
20
-6.096
40
1.778
1
*GATE:=0
0
TEXT
8
PKG_INFO
10
0
20
-9.144
40
1.778
1
*GATEPIN:= 0 9 1 <>
0
TEXT
8
PKG_INFO
10
0
20
-12.192
40
1.778
1
*GATEPIN:= 0 9 2 <>
0
ENDBLK
0
BLOCK
2
SYM_TOP_11
8
0
10
0
20
0
3
SYM_TOP_11
70
64
0
TEXT
8
SYM_NAME
10
0
20
0
40
1.778
1
STPS120M
41
0.75
0
TEXT
8
SYM_ATTRIBUTE_01
10
0.035
20
-1.3
40
0.42
1
Value
72
1
73
1
11
0.035
21
-1.3
41
0.75
7
W0$05R0
0
TEXT
8
SYM_PART_TYPE_01
10
0.005
20
-1.78
40
0.42
1
 
72
1
73
1
11
0.005
21
-1.78
41
0.75
7
W0$05R0
0
TEXT
8
SYM_PART_NAME_01
10
0.015
20
1.36
40
0.42
1
 
72
1
73
1
11
0.015
21
1.36
41
0.75
7
W0$05R0
0
INSERT
2
PART_BODY_TOP_9
8
0
10
0
20
0
0
INSERT
2
STK_TOP_13
8
0
10
-1.4
20
0.02
0
TEXT
8
SYM_TERMINAL
10
0
20
-3.048
40
1.778
1
1
0
INSERT
2
STK_TOP_12
8
0
10
1.16
20
0
0
TEXT
8
SYM_TERMINAL
10
0
20
-6.096
40
1.778
1
2
0
ENDBLK
0
BLOCK
2
PKG_8
8
0
10
0
20
0
3
PKG_8
70
64
0
TEXT
8
PKG_INFO
10
0
20
0
40
1.778
1
*SYM:= 11
0
TEXT
8
PKG_INFO
10
0
20
-3.048
40
1.778
1
*PKG:= 0 STPS120M DIO
0
TEXT
8
PKG_INFO
10
0
20
-6.096
40
1.778
1
*GATE:=0
0
TEXT
8
PKG_INFO
10
0
20
-9.144
40
1.778
1
*GATEPIN:= 0 9 2 <>
0
TEXT
8
PKG_INFO
10
0
20
-12.192
40
1.778
1
*GATEPIN:= 0 9 1 <>
0
TEXT
8
PKG_INFO
10
0
20
-15.24
40
1.778
1
*PINNM:=1 2
0
ENDBLK
0
BLOCK
2
SYM_TOP_13
8
0
10
0
20
0
3
SYM_TOP_13
70
64
0
TEXT
8
SYM_NAME
10
0
20
0
40
1.778
1
LQM2HPZ2R2MG0
41
0.75
0
TEXT
8
SYM_ATTRIBUTE_01
10
0
20
0.01641
40
0.42
1
Value
72
1
73
1
11
0
21
0.01641
41
0.75
7
W0$05R0
0
TEXT
8
SYM_PART_TYPE_01
10
0
20
0.01641
40
0.42
1
 
72
1
73
1
11
0
21
0.01641
41
0.75
7
W0$05R0
0
TEXT
8
SYM_PART_NAME_01
10
0
20
0.01641
40
0.42
1
 
72
1
73
1
11
0
21
0.01641
41
0.75
7
W0$05R0
0
INSERT
2
PART_BODY_TOP_11
8
0
10
0
20
0
0
INSERT
2
STK_TOP_14
8
0
10
-1.05
20
0
0
TEXT
8
SYM_TERMINAL
10
0
20
-3.048
40
1.778
1
1
0
INSERT
2
STK_TOP_14
8
0
10
1.05
20
0
0
TEXT
8
SYM_TERMINAL
10
0
20
-6.096
40
1.778
1
2
0
ENDBLK
0
BLOCK
2
PKG_9
8
0
10
0
20
0
3
PKG_9
70
64
0
TEXT
8
PKG_INFO
10
0
20
0
40
1.778
1
*SYM:= 13
0
TEXT
8
PKG_INFO
10
0
20
-3.048
40
1.778
1
*PKG:= 0 LQM2HPZ2R2MG0 UND
0
TEXT
8
PKG_INFO
10
0
20
-6.096
40
1.778
1
*GATE:=0
0
TEXT
8
PKG_INFO
10
0
20
-9.144
40
1.778
1
*GATEPIN:= 0 1 1 1
0
TEXT
8
PKG_INFO
10
0
20
-12.192
40
1.778
1
*GATEPIN:= 0 1 2 2
0
ENDBLK
0
BLOCK
2
SYM_TOP_14
8
0
10
0
20
0
3
SYM_TOP_14
70
64
0
TEXT
8
SYM_NAME
10
0
20
0
40
1.778
1
MSS5131-153ML
41
0.75
0
TEXT
8
SYM_PART_TYPE_01
10
-1.15
20
1.125
40
0.889
1
 
73
2
11
-1.15
21
1.125
41
0.75
7
W0$127R0
0
TEXT
8
SYM_PART_NAME_01
10
-1.2
20
2.9
40
0.889
1
 
41
0.75
7
W0$127R0
0
INSERT
2
PART_BODY_TOP_12
8
0
10
0
20
0
0
INSERT
2
STK_TOP_15
8
0
10
-2.275
20
0
0
TEXT
8
SYM_TERMINAL
10
0
20
-3.048
40
1.778
1
1
0
INSERT
2
STK_TOP_15
8
0
10
2.275
20
0
0
TEXT
8
SYM_TERMINAL
10
0
20
-6.096
40
1.778
1
2
0
ENDBLK
0
BLOCK
2
PKG_10
8
0
10
0
20
0
3
PKG_10
70
64
0
TEXT
8
PKG_INFO
10
0
20
0
40
1.778
1
*SYM:= 14
0
TEXT
8
PKG_INFO
10
0
20
-3.048
40
1.778
1
*PKG:= 0 MSS5131-153ML UND
0
TEXT
8
PKG_INFO
10
0
20
-6.096
40
1.778
1
*GATE:=0
0
TEXT
8
PKG_INFO
10
0
20
-9.144
40
1.778
1
*GATEPIN:= 0 1 1 1
0
TEXT
8
PKG_INFO
10
0
20
-12.192
40
1.778
1
*GATEPIN:= 0 1 2 2
0
ENDBLK
0
BLOCK
2
SYM_TOP_15
8
0
10
0
20
0
3
SYM_TOP_15
70
64
0
TEXT
8
SYM_NAME
10
0
20
0
40
1.778
1
ASMT-YTD2-0BB02
41
0.75
0
TEXT
8
SYM_PART_TYPE_01
10
-1.130078
20
0.7478273333
40
0.889
1
 
73
2
11
-1.130078
21
0.7478273333
41
0.75
7
W0$127R0
0
TEXT
8
SYM_PART_NAME_01
10
-1.18992
20
1.72967
40
0.889
1
 
41
0.75
7
W0$127R0
0
INSERT
2
PART_BODY_TOP_13
8
0
10
0
20
0
0
INSERT
2
STK_TOP_16
8
0
10
-1.475
20
0.9
0
TEXT
8
SYM_TERMINAL
10
0
20
-3.048
40
1.778
1
1
0
INSERT
2
STK_TOP_16
8
0
10
-1.475
20
0
0
TEXT
8
SYM_TERMINAL
10
0
20
-6.096
40
1.778
1
2
0
INSERT
2
STK_TOP_16
8
0
10
-1.475
20
-0.9
0
TEXT
8
SYM_TERMINAL
10
0
20
-9.144
40
1.778
1
3
0
INSERT
2
STK_TOP_16
8
0
10
1.475
20
-0.9
0
TEXT
8
SYM_TERMINAL
10
0
20
-12.192
40
1.778
1
4
0
INSERT
2
STK_TOP_16
8
0
10
1.475
20
0
0
TEXT
8
SYM_TERMINAL
10
0
20
-15.24
40
1.778
1
5
0
INSERT
2
STK_TOP_16
8
0
10
1.475
20
0.9
0
TEXT
8
SYM_TERMINAL
10
0
20
-18.288
40
1.778
1
6
0
ENDBLK
0
BLOCK
2
PKG_11
8
0
10
0
20
0
3
PKG_11
70
64
0
TEXT
8
PKG_INFO
10
0
20
0
40
1.778
1
*SYM:= 15
0
TEXT
8
PKG_INFO
10
0
20
-3.048
40
1.778
1
*PKG:= 0 ASMT-YTD2-0BB02 UND
0
TEXT
8
PKG_INFO
10
0
20
-6.096
40
1.778
1
*GATE:=0
0
TEXT
8
PKG_INFO
10
0
20
-9.144
40
1.778
1
*GATEPIN:= 0 9 1 B-
0
TEXT
8
PKG_INFO
10
0
20
-12.192
40
1.778
1
*GATEPIN:= 0 9 2 G-
0
TEXT
8
PKG_INFO
10
0
20
-15.24
40
1.778
1
*GATEPIN:= 0 9 3 R-
0
TEXT
8
PKG_INFO
10
0
20
-18.288
40
1.778
1
*GATEPIN:= 0 9 4 R+
0
TEXT
8
PKG_INFO
10
0
20
-21.336
40
1.778
1
*GATEPIN:= 0 9 5 G+
0
TEXT
8
PKG_INFO
10
0
20
-24.384
40
1.778
1
*GATEPIN:= 0 9 6 B+
0
ENDBLK
0
BLOCK
2
SYM_TOP_16
8
0
10
0
20
0
3
SYM_TOP_16
70
64
0
TEXT
8
SYM_NAME
10
0
20
0
40
1.778
1
HI05-AG0272
41
0.75
0
TEXT
8
SYM_PART_TYPE_01
10
-3.5599893333
20
1.0599673333
40
0.7
1
 
73
2
11
-3.5599893333
21
1.0599673333
41
0.75
7
W0$1R0
0
TEXT
8
SYM_PART_NAME_01
10
-3.5599893333
20
1.0599673333
40
0.7
1
 
41
0.75
7
W0$1R0
0
INSERT
2
PART_BODY_TOP_14
8
0
10
0
20
0
0
INSERT
2
STK_TOP_17
8
0
10
-1.3
20
-0.68
0
TEXT
8
SYM_TERMINAL
10
0
20
-3.048
40
1.778
1
1
0
INSERT
2
STK_TOP_17
8
0
10
-0.65
20
-0.68
0
TEXT
8
SYM_TERMINAL
10
0
20
-6.096
40
1.778
1
2
0
INSERT
2
STK_TOP_17
8
0
10
0
20
-0.68
0
TEXT
8
SYM_TERMINAL
10
0
20
-9.144
40
1.778
1
3
0
INSERT
2
STK_TOP_17
8
0
10
0.65
20
-0.68
0
TEXT
8
SYM_TERMINAL
10
0
20
-12.192
40
1.778
1
4
0
INSERT
2
STK_TOP_17
8
0
10
1.3
20
-0.68
0
TEXT
8
SYM_TERMINAL
10
0
20
-15.24
40
1.778
1
5
0
INSERT
2
STK_TOP_18
8
0
10
-2.55
20
-0.675
0
TEXT
8
SYM_TERMINAL
10
0
20
-18.288
40
1.778
1
6
0
INSERT
2
STK_TOP_18
8
0
10
2.55
20
-0.675
0
TEXT
8
SYM_TERMINAL
10
0
20
-21.336
40
1.778
1
7
0
INSERT
2
STK_TOP_19
8
0
10
-1.025
20
-3.3
0
TEXT
8
SYM_TERMINAL
10
0
20
-24.384
40
1.778
1
8
0
INSERT
2
STK_TOP_19
8
0
10
1.025
20
-3.3
0
TEXT
8
SYM_TERMINAL
10
0
20
-27.432
40
1.778
1
9
0
INSERT
2
STK_TOP_20
8
0
10
-2.725
20
-3.3
0
TEXT
8
SYM_TERMINAL
10
0
20
-30.48
40
1.778
1
10
0
INSERT
2
STK_TOP_20
8
0
10
2.725
20
-3.3
0
TEXT
8
SYM_TERMINAL
10
0
20
-33.528
40
1.778
1
11
0
ENDBLK
0
BLOCK
2
PKG_12
8
0
10
0
20
0
3
PKG_12
70
64
0
TEXT
8
PKG_INFO
10
0
20
0
40
1.778
1
*SYM:= 16
0
TEXT
8
PKG_INFO
10
0
20
-3.048
40
1.778
1
*PKG:= 0 HI05-AG0272 UND
0
TEXT
8
PKG_INFO
10
0
20
-6.096
40
1.778
1
*GATE:=0
0
TEXT
8
PKG_INFO
10
0
20
-9.144
40
1.778
1
*GATEPIN:= 0 9 1 USB_VBUS
0
TEXT
8
PKG_INFO
10
0
20
-12.192
40
1.778
1
*GATEPIN:= 0 9 2 USB-
0
TEXT
8
PKG_INFO
10
0
20
-15.24
40
1.778
1
*GATEPIN:= 0 9 3 USB+
0
TEXT
8
PKG_INFO
10
0
20
-18.288
40
1.778
1
*GATEPIN:= 0 9 4 ID
0
TEXT
8
PKG_INFO
10
0
20
-21.336
40
1.778
1
*GATEPIN:= 0 9 5 GND
0
TEXT
8
PKG_INFO
10
0
20
-24.384
40
1.778
1
*GATEPIN:= 0 9 6 Z1
0
TEXT
8
PKG_INFO
10
0
20
-27.432
40
1.778
1
*GATEPIN:= 0 9 7 Z2
0
TEXT
8
PKG_INFO
10
0
20
-30.48
40
1.778
1
*GATEPIN:= 0 9 8 Z3
0
TEXT
8
PKG_INFO
10
0
20
-33.528
40
1.778
1
*GATEPIN:= 0 9 9 Z4
0
TEXT
8
PKG_INFO
10
0
20
-36.576
40
1.778
1
*GATEPIN:= 0 9 10 HOLE
0
TEXT
8
PKG_INFO
10
0
20
-39.624
40
1.778
1
*GATEPIN:= 0 9 11 HOLE
0
ENDBLK
0
BLOCK
2
SYM_TOP_7
8
0
10
0
20
0
3
SYM_TOP_7
70
64
0
TEXT
8
SYM_NAME
10
0
20
0
40
1.778
1
BCW60B
41
0.75
0
TEXT
8
SYM_PART_TYPE_01
10
0
20
0.1
40
0.84
1
 
72
1
73
1
11
0
21
0.1
41
0.75
7
W0$12R0
0
TEXT
8
SYM_PART_NAME_01
10
2.346
20
1.27
40
0.84
1
 
72
1
73
1
11
2.346
21
1.27
41
0.75
7
W0$12R0
0
INSERT
2
PART_BODY_TOP_5
8
0
10
0
20
0
0
INSERT
2
STK_TOP_7
8
0
10
-0.95
20
-1.2
0
TEXT
8
SYM_TERMINAL
10
0
20
-3.048
40
1.778
1
1
0
INSERT
2
STK_TOP_7
8
0
10
0.95
20
-1.2
0
TEXT
8
SYM_TERMINAL
10
0
20
-6.096
40
1.778
1
2
0
INSERT
2
STK_TOP_7
8
0
10
0
20
1.2
0
TEXT
8
SYM_TERMINAL
10
0
20
-9.144
40
1.778
1
3
0
ENDBLK
0
BLOCK
2
SYM_TOP_17
8
0
10
0
20
0
3
SYM_TOP_17
70
64
0
TEXT
8
SYM_NAME
10
0
20
0
40
1.778
1
MCP73831T_2ACIOT
41
0.75
0
TEXT
8
SYM_PART_NAME_01
10
0
20
0
40
0.84
1
 
72
1
73
1
11
0
21
0
41
0.75
7
W0$12R2
0
TEXT
8
SYM_PART_TYPE_01
10
0
20
0
40
0.84
1
 
72
1
73
1
11
0
21
0
41
0.75
7
W0$12R2
0
INSERT
2
PART_BODY_TOP_15
8
0
10
0
20
0
0
INSERT
2
STK_TOP_7
8
0
10
-0.95
20
-1.2
0
TEXT
8
SYM_TERMINAL
10
0
20
-3.048
40
1.778
1
1
0
INSERT
2
STK_TOP_7
8
0
10
0
20
-1.2
0
TEXT
8
SYM_TERMINAL
10
0
20
-6.096
40
1.778
1
2
0
INSERT
2
STK_TOP_7
8
0
10
0.95
20
-1.2
0
TEXT
8
SYM_TERMINAL
10
0
20
-9.144
40
1.778
1
3
0
INSERT
2
STK_TOP_7
8
0
10
0.95
20
1.2
0
TEXT
8
SYM_TERMINAL
10
0
20
-12.192
40
1.778
1
4
0
INSERT
2
STK_TOP_7
8
0
10
-0.95
20
1.2
0
TEXT
8
SYM_TERMINAL
10
0
20
-15.24
40
1.778
1
5
0
ENDBLK
0
BLOCK
2
PKG_13
8
0
10
0
20
0
3
PKG_13
70
64
0
TEXT
8
PKG_INFO
10
0
20
0
40
1.778
1
*SYM:= 17
0
TEXT
8
PKG_INFO
10
0
20
-3.048
40
1.778
1
*PKG:= 0 MCP73831T_2ACIOT UND
0
TEXT
8
PKG_INFO
10
0
20
-6.096
40
1.778
1
*GATE:=0
0
TEXT
8
PKG_INFO
10
0
20
-9.144
40
1.778
1
*GATEPIN:= 0 9 1 STAT
0
TEXT
8
PKG_INFO
10
0
20
-12.192
40
1.778
1
*GATEPIN:= 0 9 2 VSS
0
TEXT
8
PKG_INFO
10
0
20
-15.24
40
1.778
1
*GATEPIN:= 0 9 3 VBAT
0
TEXT
8
PKG_INFO
10
0
20
-18.288
40
1.778
1
*GATEPIN:= 0 9 4 VDD
0
TEXT
8
PKG_INFO
10
0
20
-21.336
40
1.778
1
*GATEPIN:= 0 9 5 PROG
0
ENDBLK
0
BLOCK
2
SYM_TOP_18
8
0
10
0
20
0
3
SYM_TOP_18
70
64
0
TEXT
8
SYM_NAME
10
0
20
0
40
1.778
1
F-1608
41
0.75
0
TEXT
8
SYM_PART_TYPE_01
10
-1.8
20
2.3
40
0.889
1
 
73
2
11
-1.8
21
2.3
41
0.75
7
W0$127R0
0
TEXT
8
SYM_PART_NAME_01
10
-1.8
20
1.6
40
0.889
1
 
41
0.75
7
W0$127R0
0
INSERT
2
PART_BODY_TOP_16
8
0
10
0
20
0
0
INSERT
2
STK_TOP_6
8
0
10
-0.8
20
0
0
TEXT
8
SYM_TERMINAL
10
0
20
-3.048
40
1.778
1
1
0
INSERT
2
STK_TOP_6
8
0
10
0.8
20
0
0
TEXT
8
SYM_TERMINAL
10
0
20
-6.096
40
1.778
1
2
0
ENDBLK
0
BLOCK
2
PKG_14
8
0
10
0
20
0
3
PKG_14
70
64
0
TEXT
8
PKG_INFO
10
0
20
0
40
1.778
1
*SYM:= 18
0
TEXT
8
PKG_INFO
10
0
20
-3.048
40
1.778
1
*PKG:= 0 F-1608 UND
0
TEXT
8
PKG_INFO
10
0
20
-6.096
40
1.778
1
*GATE:=0
0
TEXT
8
PKG_INFO
10
0
20
-9.144
40
1.778
1
*GATEPIN:= 0 1 1 1
0
TEXT
8
PKG_INFO
10
0
20
-12.192
40
1.778
1
*GATEPIN:= 0 1 2 2
0
ENDBLK
0
BLOCK
2
SYM_TOP_20
8
0
10
0
20
0
3
SYM_TOP_20
70
64
0
TEXT
8
SYM_NAME
10
0
20
0
40
1.778
1
SKRMABE010
41
0.75
0
TEXT
8
SYM_PART_NAME_01
10
-1.225
20
2.505
40
0.889
1
 
41
0.75
7
W0$127R0
0
TEXT
8
SYM_PART_TYPE_01
10
-0.97
20
0.775
40
0.889
1
 
73
2
11
-0.97
21
0.775
41
0.75
7
W0$127R0
0
INSERT
2
PART_BODY_TOP_18
8
0
10
0
20
0
0
INSERT
2
STK_TOP_22
8
0
10
-1.875
20
1.65
0
TEXT
8
SYM_TERMINAL
10
0
20
-3.048
40
1.778
1
1
0
INSERT
2
STK_TOP_22
8
0
10
-1.875
20
-1.65
0
TEXT
8
SYM_TERMINAL
10
0
20
-6.096
40
1.778
1
2
0
INSERT
2
STK_TOP_22
8
0
10
1.875
20
1.65
0
TEXT
8
SYM_TERMINAL
10
0
20
-9.144
40
1.778
1
3
0
INSERT
2
STK_TOP_22
8
0
10
1.875
20
-1.65
0
TEXT
8
SYM_TERMINAL
10
0
20
-12.192
40
1.778
1
4
0
ENDBLK
0
BLOCK
2
PKG_16
8
0
10
0
20
0
3
PKG_16
70
64
0
TEXT
8
PKG_INFO
10
0
20
0
40
1.778
1
*SYM:= 20
0
TEXT
8
PKG_INFO
10
0
20
-3.048
40
1.778
1
*PKG:= 0 SKRMABE010 UND
0
TEXT
8
PKG_INFO
10
0
20
-6.096
40
1.778
1
*GATE:=0
0
TEXT
8
PKG_INFO
10
0
20
-9.144
40
1.778
1
*GATEPIN:= 0 9 1 <>
0
TEXT
8
PKG_INFO
10
0
20
-12.192
40
1.778
1
*GATEPIN:= 0 9 2 <>
0
TEXT
8
PKG_INFO
10
0
20
-15.24
40
1.778
1
*GATEPIN:= 0 9 3 <>
0
TEXT
8
PKG_INFO
10
0
20
-18.288
40
1.778
1
*GATEPIN:= 0 9 4 <>
0
ENDBLK
0
BLOCK
2
SYM_TOP_21
8
0
10
0
20
0
3
SYM_TOP_21
70
64
0
TEXT
8
SYM_NAME
10
0
20
0
40
1.778
1
LED-1608
41
0.75
0
TEXT
8
SYM_PART_TYPE_01
10
-0.48
20
-0.54
40
0.42
1
 
73
2
11
-0.48
21
-0.54
41
0.75
7
W0$02R0
0
TEXT
8
SYM_PART_NAME_01
10
-0.91
20
0.76
40
0.7
1
 
41
0.75
7
W0$1R0
0
INSERT
2
PART_BODY_TOP_19
8
0
10
0
20
0
0
INSERT
2
STK_TOP_23
8
0
10
-0.75
20
0
0
TEXT
8
SYM_TERMINAL
10
0
20
-3.048
40
1.778
1
1
0
INSERT
2
STK_TOP_23
8
0
10
0.75
20
0
0
TEXT
8
SYM_TERMINAL
10
0
20
-6.096
40
1.778
1
2
0
ENDBLK
0
BLOCK
2
PKG_17
8
0
10
0
20
0
3
PKG_17
70
64
0
TEXT
8
PKG_INFO
10
0
20
0
40
1.778
1
*SYM:= 21
0
TEXT
8
PKG_INFO
10
0
20
-3.048
40
1.778
1
*PKG:= 0 LED-1608 UND
0
TEXT
8
PKG_INFO
10
0
20
-6.096
40
1.778
1
*GATE:=0
0
TEXT
8
PKG_INFO
10
0
20
-9.144
40
1.778
1
*GATEPIN:= 0 9 1 <>
0
TEXT
8
PKG_INFO
10
0
20
-12.192
40
1.778
1
*GATEPIN:= 0 9 2 <>
0
ENDBLK
0
BLOCK
2
SYM_TOP_19
8
0
10
0
20
0
3
SYM_TOP_19
70
64
0
TEXT
8
SYM_NAME
10
0
20
0
40
1.778
1
CTT_1139P1
41
0.75
0
TEXT
8
SYM_PART_TYPE_01
10
0
20
0
40
0.14
1
 
73
2
11
0
21
0
41
0.75
7
W0$02R0
0
TEXT
8
SYM_PART_NAME_01
10
0
20
0
40
0.14
1
 
41
0.75
7
W0$02R0
0
INSERT
2
PART_BODY_TOP_17
8
0
10
0
20
0
0
INSERT
2
STK_TOP_21
8
0
10
-2.375
20
0.85
0
TEXT
8
SYM_TERMINAL
10
0
20
-3.048
40
1.778
1
1
0
INSERT
2
STK_TOP_21
8
0
10
2.375
20
0.85
0
TEXT
8
SYM_TERMINAL
10
0
20
-6.096
40
1.778
1
2
0
INSERT
2
STK_TOP_21
8
0
10
-2.375
20
-0.85
0
TEXT
8
SYM_TERMINAL
10
0
20
-9.144
40
1.778
1
3
0
INSERT
2
STK_TOP_21
8
0
10
2.375
20
-0.85
0
TEXT
8
SYM_TERMINAL
10
0
20
-12.192
40
1.778
1
4
0
ENDBLK
0
BLOCK
2
PKG_15
8
0
10
0
20
0
3
PKG_15
70
64
0
TEXT
8
PKG_INFO
10
0
20
0
40
1.778
1
*SYM:= 19
0
TEXT
8
PKG_INFO
10
0
20
-3.048
40
1.778
1
*PKG:= 0 CTT_1139P1 UND
0
TEXT
8
PKG_INFO
10
0
20
-6.096
40
1.778
1
*GATE:=0
0
TEXT
8
PKG_INFO
10
0
20
-9.144
40
1.778
1
*GATEPIN:= 0 9 1 <>
0
TEXT
8
PKG_INFO
10
0
20
-12.192
40
1.778
1
*GATEPIN:= 0 9 2 <>
0
TEXT
8
PKG_INFO
10
0
20
-15.24
40
1.778
1
*GATEPIN:= 0 9 3 <>
0
TEXT
8
PKG_INFO
10
0
20
-18.288
40
1.778
1
*GATEPIN:= 0 9 4 <>
0
ENDBLK
0
BLOCK
2
SYM_TOP_22
8
0
10
0
20
0
3
SYM_TOP_22
70
64
0
TEXT
8
SYM_NAME
10
0
20
0
40
1.778
1
SMBJ12CA
41
0.75
0
TEXT
8
SYM_PART_TYPE_01
10
-1.1
20
0.76
40
0.889
1
 
73
2
11
-1.1
21
0.76
41
0.75
7
W0$127R0
0
TEXT
8
SYM_PART_NAME_01
10
-1.294
20
2.483
40
0.889
1
 
41
0.75
7
W0$127R0
0
INSERT
2
PART_BODY_TOP_20
8
0
10
0
20
0
0
INSERT
2
STK_TOP_24
8
0
10
-2.45
20
0
0
TEXT
8
SYM_TERMINAL
10
0
20
-3.048
40
1.778
1
1
0
INSERT
2
STK_TOP_24
8
0
10
2.45
20
0
0
TEXT
8
SYM_TERMINAL
10
0
20
-6.096
40
1.778
1
2
0
ENDBLK
0
BLOCK
2
PKG_18
8
0
10
0
20
0
3
PKG_18
70
64
0
TEXT
8
PKG_INFO
10
0
20
0
40
1.778
1
*SYM:= 22
0
TEXT
8
PKG_INFO
10
0
20
-3.048
40
1.778
1
*PKG:= 0 SMBJ12CA UND
0
TEXT
8
PKG_INFO
10
0
20
-6.096
40
1.778
1
*GATE:=0
0
TEXT
8
PKG_INFO
10
0
20
-9.144
40
1.778
1
*GATEPIN:= 0 9 1 <>
0
TEXT
8
PKG_INFO
10
0
20
-12.192
40
1.778
1
*GATEPIN:= 0 9 2 <>
0
ENDBLK
0
BLOCK
2
SYM_TOP_24
8
0
10
0
20
0
3
SYM_TOP_24
70
64
0
TEXT
8
SYM_NAME
10
0
20
0
40
1.778
1
TPS3801L30
41
0.75
0
TEXT
8
SYM_PART_TYPE_01
10
-1.23
20
-1.052
40
0.889
1
 
73
2
11
-1.23
21
-1.052
41
0.75
7
W0$127R0
0
TEXT
8
SYM_PART_NAME_01
10
-1.31
20
1.448
40
0.889
1
 
41
0.75
7
W0$127R0
0
INSERT
2
PART_BODY_TOP_22
8
0
10
0
20
0
0
INSERT
2
STK_TOP_25
8
0
10
-1.1
20
0.65
0
TEXT
8
SYM_TERMINAL
10
0
20
-3.048
40
1.778
1
1
0
INSERT
2
STK_TOP_25
8
0
10
-1.1
20
0
0
TEXT
8
SYM_TERMINAL
10
0
20
-6.096
40
1.778
1
2
0
INSERT
2
STK_TOP_25
8
0
10
-1.1
20
-0.65
0
TEXT
8
SYM_TERMINAL
10
0
20
-9.144
40
1.778
1
3
0
INSERT
2
STK_TOP_25
8
0
10
1.1
20
-0.65
0
TEXT
8
SYM_TERMINAL
10
0
20
-12.192
40
1.778
1
4
0
INSERT
2
STK_TOP_25
8
0
10
1.1
20
0.65
0
TEXT
8
SYM_TERMINAL
10
0
20
-15.24
40
1.778
1
5
0
ENDBLK
0
BLOCK
2
PKG_19
8
0
10
0
20
0
3
PKG_19
70
64
0
TEXT
8
PKG_INFO
10
0
20
0
40
1.778
1
*SYM:= 24
0
TEXT
8
PKG_INFO
10
0
20
-3.048
40
1.778
1
*PKG:= 0 TPS3801L30 UND
0
TEXT
8
PKG_INFO
10
0
20
-6.096
40
1.778
1
*GATE:=0
0
TEXT
8
PKG_INFO
10
0
20
-9.144
40
1.778
1
*GATEPIN:= 0 9 1 GND
0
TEXT
8
PKG_INFO
10
0
20
-12.192
40
1.778
1
*GATEPIN:= 0 9 2 GND
0
TEXT
8
PKG_INFO
10
0
20
-15.24
40
1.778
1
*GATEPIN:= 0 9 3 /RESET
0
TEXT
8
PKG_INFO
10
0
20
-18.288
40
1.778
1
*GATEPIN:= 0 9 4 VDD
0
TEXT
8
PKG_INFO
10
0
20
-21.336
40
1.778
1
*GATEPIN:= 0 9 5 /MR
0
ENDBLK
0
BLOCK
2
SYM_TOP_25
8
0
10
0
20
0
3
SYM_TOP_25
70
64
0
TEXT
8
SYM_NAME
10
0
20
0
40
1.778
1
HOLE2.0
41
0.75
0
TEXT
8
SYM_PART_NAME_01
10
0
20
0
40
0.889
1
 
41
0.75
7
W0$127R0
0
TEXT
8
SYM_PART_TYPE_01
10
0
20
0
40
0.889
1
 
73
2
11
0
21
0
41
0.75
7
W0$127R0
0
INSERT
2
PART_BODY_TOP_23
8
0
10
0
20
0
0
INSERT
2
STK_TOP_26
8
0
10
0
20
0
0
TEXT
8
SYM_TERMINAL
10
0
20
-3.048
40
1.778
1
1
0
ENDBLK
0
BLOCK
2
PKG_20
8
0
10
0
20
0
3
PKG_20
70
64
0
TEXT
8
PKG_INFO
10
0
20
0
40
1.778
1
*SYM:= 25
0
TEXT
8
PKG_INFO
10
0
20
-3.048
40
1.778
1
*PKG:= 0 HOLE2.0 POT
0
TEXT
8
PKG_INFO
10
0
20
-6.096
40
1.778
1
*GATE:=0
0
TEXT
8
PKG_INFO
10
0
20
-9.144
40
1.778
1
*GATEPIN:= 0 9 1 <>
0
ENDBLK
0
BLOCK
2
SYM_TOP_26
8
0
10
0
20
0
3
SYM_TOP_26
70
64
0
TEXT
8
SYM_NAME
10
0
20
0
40
1.778
1
DC-011C_SMD
41
0.75
0
TEXT
8
SYM_PART_TYPE_01
10
4.6
20
3.1
40
0.889
1
 
73
2
11
4.6
21
3.1
41
0.75
7
W0$127R0
0
TEXT
8
SYM_PART_NAME_01
10
0.1
20
5.95
40
0.889
1
 
41
0.75
7
W0$127R0
0
INSERT
2
PART_BODY_TOP_24
8
0
10
0
20
0
0
INSERT
2
STK_TOP_28
8
0
10
4.5
20
5.75
0
TEXT
8
SYM_TERMINAL
10
0
20
-3.048
40
1.778
1
1
0
INSERT
2
STK_TOP_29
8
0
10
10
20
6
0
TEXT
8
SYM_TERMINAL
10
0
20
-6.096
40
1.778
1
2
0
INSERT
2
STK_TOP_29
8
0
10
9
20
-1
0
TEXT
8
SYM_TERMINAL
10
0
20
-9.144
40
1.778
1
3
0
INSERT
2
STK_TOP_30
8
0
10
11.9
20
2.5
0
TEXT
8
SYM_TERMINAL
10
0
20
-12.192
40
1.778
1
4
0
INSERT
2
STK_TOP_28
8
0
10
4.5
20
-0.75
0
TEXT
8
SYM_TERMINAL
10
0
20
-15.24
40
1.778
1
5
0
INSERT
2
STK_TOP_27
8
0
10
3
20
2.5
0
TEXT
8
SYM_TERMINAL
10
0
20
-18.288
40
1.778
1
6
0
INSERT
2
STK_TOP_27
8
0
10
8.5
20
2.5
0
TEXT
8
SYM_TERMINAL
10
0
20
-21.336
40
1.778
1
7
0
ENDBLK
0
BLOCK
2
PKG_21
8
0
10
0
20
0
3
PKG_21
70
64
0
TEXT
8
PKG_INFO
10
0
20
0
40
1.778
1
*SYM:= 26
0
TEXT
8
PKG_INFO
10
0
20
-3.048
40
1.778
1
*PKG:= 0 DC-011C_SMD UND
0
TEXT
8
PKG_INFO
10
0
20
-6.096
40
1.778
1
*GATE:=0
0
TEXT
8
PKG_INFO
10
0
20
-9.144
40
1.778
1
*GATEPIN:= 0 9 1 <>
0
TEXT
8
PKG_INFO
10
0
20
-12.192
40
1.778
1
*GATEPIN:= 0 9 2 <>
0
TEXT
8
PKG_INFO
10
0
20
-15.24
40
1.778
1
*GATEPIN:= 0 9 3 VCC
0
TEXT
8
PKG_INFO
10
0
20
-18.288
40
1.778
1
*GATEPIN:= 0 9 4 GND
0
TEXT
8
PKG_INFO
10
0
20
-21.336
40
1.778
1
*GATEPIN:= 0 9 5 <>
0
TEXT
8
PKG_INFO
10
0
20
-24.384
40
1.778
1
*GATEPIN:= 0 9 6 <>
0
TEXT
8
PKG_INFO
10
0
20
-27.432
40
1.778
1
*GATEPIN:= 0 9 7 <>
0
ENDBLK
0
BLOCK
2
SYM_TOP_27
8
0
10
0
20
0
3
SYM_TOP_27
70
64
0
TEXT
8
SYM_NAME
10
0
20
0
40
1.778
1
BZT52C5V1S
41
0.75
0
TEXT
8
SYM_PART_TYPE_01
10
-1.156
20
0.714
40
0.889
1
 
73
2
11
-1.156
21
0.714
41
0.75
7
W0$127R0
0
TEXT
8
SYM_PART_NAME_01
10
-1.204
20
0.9
40
0.889
1
 
41
0.75
7
W0$127R0
0
INSERT
2
PART_BODY_TOP_25
8
0
10
0
20
0
0
INSERT
2
STK_TOP_31
8
0
10
-1.055
20
0
0
TEXT
8
SYM_TERMINAL
10
0
20
-3.048
40
1.778
1
1
0
INSERT
2
STK_TOP_31
8
0
10
1.055
20
0
0
TEXT
8
SYM_TERMINAL
10
0
20
-6.096
40
1.778
1
2
0
ENDBLK
0
BLOCK
2
PKG_22
8
0
10
0
20
0
3
PKG_22
70
64
0
TEXT
8
PKG_INFO
10
0
20
0
40
1.778
1
*SYM:= 27
0
TEXT
8
PKG_INFO
10
0
20
-3.048
40
1.778
1
*PKG:= 0 BZT52C5V1S UND
0
TEXT
8
PKG_INFO
10
0
20
-6.096
40
1.778
1
*GATE:=0
0
TEXT
8
PKG_INFO
10
0
20
-9.144
40
1.778
1
*GATEPIN:= 0 9 1 <>
0
TEXT
8
PKG_INFO
10
0
20
-12.192
40
1.778
1
*GATEPIN:= 0 9 2 <>
0
ENDBLK
0
BLOCK
2
PART_BODY_TOP_2
8
0
10
0
20
0
3
PART_BODY_TOP_2
70
64
0
POLYLINE
8
PART_TOP_2DLINE_01
66
1
40
0.1
41
0.1
39
0.55
0
VERTEX
8
PART_TOP_2DLINE_01
10
-0.2
20
0.4
0
VERTEX
8
PART_TOP_2DLINE_01
10
-0.8
20
0.4
0
VERTEX
8
PART_TOP_2DLINE_01
10
-0.8
20
-0.4
0
VERTEX
8
PART_TOP_2DLINE_01
10
-0.2
20
-0.4
0
SEQEND
0
INSERT
2
SMOOTH_0$1
8
PART_TOP_2DLINE_01
10
-0.2
20
0.4
0
INSERT
2
SMOOTH_0$1
8
PART_TOP_2DLINE_01
10
-0.8
20
0.4
0
INSERT
2
SMOOTH_0$1
8
PART_TOP_2DLINE_01
10
-0.8
20
-0.4
0
INSERT
2
SMOOTH_0$1
8
PART_TOP_2DLINE_01
10
-0.2
20
-0.4
0
POLYLINE
8
PART_TOP_2DLINE_01
66
1
40
0.1
41
0.1
39
0.55
0
VERTEX
8
PART_TOP_2DLINE_01
10
0.2
20
0.4
0
VERTEX
8
PART_TOP_2DLINE_01
10
0.8
20
0.4
0
VERTEX
8
PART_TOP_2DLINE_01
10
0.8
20
-0.4
0
VERTEX
8
PART_TOP_2DLINE_01
10
0.2
20
-0.4
0
SEQEND
0
INSERT
2
SMOOTH_0$1
8
PART_TOP_2DLINE_01
10
0.2
20
0.4
0
INSERT
2
SMOOTH_0$1
8
PART_TOP_2DLINE_01
10
0.8
20
0.4
0
INSERT
2
SMOOTH_0$1
8
PART_TOP_2DLINE_01
10
0.8
20
-0.4
0
INSERT
2
SMOOTH_0$1
8
PART_TOP_2DLINE_01
10
0.2
20
-0.4
0
POLYLINE
8
PART_TOP_2DLINE_115
66
1
40
0.1
41
0.1
39
0.55
70
1
0
VERTEX
8
PART_TOP_2DLINE_115
10
-0.5
20
0.25
0
VERTEX
8
PART_TOP_2DLINE_115
10
0.5
20
0.25
0
VERTEX
8
PART_TOP_2DLINE_115
10
0.5
20
-0.25
0
VERTEX
8
PART_TOP_2DLINE_115
10
-0.5
20
-0.25
0
SEQEND
0
INSERT
2
SMOOTH_0$1
8
PART_TOP_2DLINE_115
10
-0.5
20
0.25
0
INSERT
2
SMOOTH_0$1
8
PART_TOP_2DLINE_115
10
0.5
20
0.25
0
INSERT
2
SMOOTH_0$1
8
PART_TOP_2DLINE_115
10
0.5
20
-0.25
0
INSERT
2
SMOOTH_0$1
8
PART_TOP_2DLINE_115
10
-0.5
20
-0.25
0
ENDBLK
0
BLOCK
2
STK_TOP_5
8
0
10
0
20
0
3
STK_TOP_5
70
64
0
INSERT
2
DRIL_HOLE_0
8
DRIL_NPLTE_THRU_01
10
0
20
0
0
INSERT
2
DRIL_HOLE_0
8
DRIL_NPLTE_THRU_02
10
0
20
0
0
INSERT
2
PAD_0
8
PADS_INNER
10
0
20
0
0
INSERT
2
PAD_0
8
PADS_BOT
10
0
20
0
0
INSERT
2
PAD_1
8
PADS_TOP
10
0
20
0
0
ENDBLK
0
BLOCK
2
PART_BODY_TOP_3
8
0
10
0
20
0
3
PART_BODY_TOP_3
70
64
0
POLYLINE
8
PART_TOP_2DLINE_00
66
1
40
0.1
41
0.1
39
0.95
70
1
0
VERTEX
8
PART_TOP_2DLINE_00
10
-1.4
20
0.6
0
VERTEX
8
PART_TOP_2DLINE_00
10
1.4
20
0.6
0
VERTEX
8
PART_TOP_2DLINE_00
10
1.4
20
-0.6
0
VERTEX
8
PART_TOP_2DLINE_00
10
-1.4
20
-0.6
0
SEQEND
0
INSERT
2
SMOOTH_0$1
8
PART_TOP_2DLINE_00
10
-1.4
20
0.6
0
INSERT
2
SMOOTH_0$1
8
PART_TOP_2DLINE_00
10
1.4
20
0.6
0
INSERT
2
SMOOTH_0$1
8
PART_TOP_2DLINE_00
10
1.4
20
-0.6
0
INSERT
2
SMOOTH_0$1
8
PART_TOP_2DLINE_00
10
-1.4
20
-0.6
0
POLYLINE
8
PART_TOP_2DLINE_00
66
1
40
0.1
41
0.1
39
0.95
0
VERTEX
8
PART_TOP_2DLINE_00
10
-0.08
20
0.2
0
VERTEX
8
PART_TOP_2DLINE_00
10
-0.08
20
-0.2
0
SEQEND
0
INSERT
2
SMOOTH_0$1
8
PART_TOP_2DLINE_00
10
-0.08
20
0.2
0
INSERT
2
SMOOTH_0$1
8
PART_TOP_2DLINE_00
10
-0.08
20
-0.2
0
POLYLINE
8
PART_TOP_2DLINE_00
66
1
40
0.1
41
0.1
39
0.95
0
VERTEX
8
PART_TOP_2DLINE_00
10
0.08
20
0.2
0
VERTEX
8
PART_TOP_2DLINE_00
10
0.08
20
-0.2
0
SEQEND
0
INSERT
2
SMOOTH_0$1
8
PART_TOP_2DLINE_00
10
0.08
20
0.2
0
INSERT
2
SMOOTH_0$1
8
PART_TOP_2DLINE_00
10
0.08
20
-0.2
0
POLYLINE
8
PART_TOP_2DLINE_00
66
1
40
0.1
41
0.1
39
0.95
0
VERTEX
8
PART_TOP_2DLINE_00
10
-0.3
20
0
0
VERTEX
8
PART_TOP_2DLINE_00
10
-0.08
20
0
0
SEQEND
0
INSERT
2
SMOOTH_0$1
8
PART_TOP_2DLINE_00
10
-0.3
20
0
0
INSERT
2
SMOOTH_0$1
8
PART_TOP_2DLINE_00
10
-0.08
20
0
0
POLYLINE
8
PART_TOP_2DLINE_00
66
1
40
0.1
41
0.1
39
0.95
0
VERTEX
8
PART_TOP_2DLINE_00
10
0.08
20
0
0
VERTEX
8
PART_TOP_2DLINE_00
10
0.3
20
0
0
SEQEND
0
INSERT
2
SMOOTH_0$1
8
PART_TOP_2DLINE_00
10
0.08
20
0
0
INSERT
2
SMOOTH_0$1
8
PART_TOP_2DLINE_00
10
0.3
20
0
0
ENDBLK
0
BLOCK
2
STK_TOP_6
8
0
10
0
20
0
3
STK_TOP_6
70
64
0
INSERT
2
DRIL_HOLE_0
8
DRIL_NPLTE_THRU_01
10
0
20
0
0
INSERT
2
DRIL_HOLE_0
8
DRIL_NPLTE_THRU_02
10
0
20
0
0
INSERT
2
PAD_0
8
PADS_INNER
10
0
20
0
0
INSERT
2
PAD_0
8
PADS_BOT
10
0
20
0
0
INSERT
2
PAD_2
8
PADS_TOP
10
0
20
0
0
ENDBLK
0
BLOCK
2
PART_BODY_TOP_21
8
0
10
0
20
0
3
PART_BODY_TOP_21
70
64
0
POLYLINE
8
PART_TOP_2DLINE_01
66
1
40
0.1
41
0.1
39
1.45
0
VERTEX
8
PART_TOP_2DLINE_01
10
1.5
20
0.85
0
VERTEX
8
PART_TOP_2DLINE_01
10
1.5
20
-0.85
0
SEQEND
0
INSERT
2
SMOOTH_0$1
8
PART_TOP_2DLINE_01
10
1.5
20
0.85
0
INSERT
2
SMOOTH_0$1
8
PART_TOP_2DLINE_01
10
1.5
20
-0.85
0
POLYLINE
8
PART_TOP_2DLINE_01
66
1
40
0.1
41
0.1
39
1.45
0
VERTEX
8
PART_TOP_2DLINE_01
10
-0.5
20
0.875
0
VERTEX
8
PART_TOP_2DLINE_01
10
0.5
20
0.875
0
SEQEND
0
INSERT
2
SMOOTH_0$1
8
PART_TOP_2DLINE_01
10
-0.5
20
0.875
0
INSERT
2
SMOOTH_0$1
8
PART_TOP_2DLINE_01
10
0.5
20
0.875
0
POLYLINE
8
PART_TOP_2DLINE_115
66
1
40
0.1
41
0.1
39
1.45
70
1
0
VERTEX
8
PART_TOP_2DLINE_115
10
-1.5
20
0.875
0
VERTEX
8
PART_TOP_2DLINE_115
10
1.5
20
0.875
0
VERTEX
8
PART_TOP_2DLINE_115
10
1.5
20
-0.875
0
VERTEX
8
PART_TOP_2DLINE_115
10
-1.5
20
-0.875
0
SEQEND
0
INSERT
2
SMOOTH_0$1
8
PART_TOP_2DLINE_115
10
-1.5
20
0.875
0
INSERT
2
SMOOTH_0$1
8
PART_TOP_2DLINE_115
10
1.5
20
0.875
0
INSERT
2
SMOOTH_0$1
8
PART_TOP_2DLINE_115
10
1.5
20
-0.875
0
INSERT
2
SMOOTH_0$1
8
PART_TOP_2DLINE_115
10
-1.5
20
-0.875
0
POLYLINE
8
PART_TOP_2DLINE_01
66
1
40
0.1
41
0.1
39
1.45
0
VERTEX
8
PART_TOP_2DLINE_01
10
-1.5
20
0.85
0
VERTEX
8
PART_TOP_2DLINE_01
10
-1.5
20
-0.85
0
SEQEND
0
INSERT
2
SMOOTH_0$1
8
PART_TOP_2DLINE_01
10
-1.5
20
0.85
0
INSERT
2
SMOOTH_0$1
8
PART_TOP_2DLINE_01
10
-1.5
20
-0.85
0
POLYLINE
8
PART_TOP_2DLINE_01
66
1
40
0.1
41
0.1
39
1.45
70
1
0
VERTEX
8
PART_TOP_2DLINE_01
10
-2.3
20
-0.9
0
VERTEX
8
PART_TOP_2DLINE_01
10
-1.7
20
-1.3
0
VERTEX
8
PART_TOP_2DLINE_01
10
-2.3
20
-1.7
0
SEQEND
0
INSERT
2
SMOOTH_0$1
8
PART_TOP_2DLINE_01
10
-2.3
20
-0.9
0
INSERT
2
SMOOTH_0$1
8
PART_TOP_2DLINE_01
10
-1.7
20
-1.3
0
INSERT
2
SMOOTH_0$1
8
PART_TOP_2DLINE_01
10
-2.3
20
-1.7
0
POLYLINE
8
PART_TOP_2DLINE_01
66
1
40
0.1
41
0.1
39
1.45
0
VERTEX
8
PART_TOP_2DLINE_01
10
-2.3
20
-1.3
0
VERTEX
8
PART_TOP_2DLINE_01
10
-1.7
20
-1.3
0
SEQEND
0
INSERT
2
SMOOTH_0$1
8
PART_TOP_2DLINE_01
10
-2.3
20
-1.3
0
INSERT
2
SMOOTH_0$1
8
PART_TOP_2DLINE_01
10
-1.7
20
-1.3
0
POLYLINE
8
PART_TOP_2DLINE_01
66
1
40
0.1
41
0.1
39
1.45
0
VERTEX
8
PART_TOP_2DLINE_01
10
-2.3
20
-1.4
0
VERTEX
8
PART_TOP_2DLINE_01
10
-1.85
20
-1.4
0
SEQEND
0
INSERT
2
SMOOTH_0$1
8
PART_TOP_2DLINE_01
10
-2.3
20
-1.4
0
INSERT
2
SMOOTH_0$1
8
PART_TOP_2DLINE_01
10
-1.85
20
-1.4
0
POLYLINE
8
PART_TOP_2DLINE_01
66
1
40
0.1
41
0.1
39
1.45
0
VERTEX
8
PART_TOP_2DLINE_01
10
-2.3
20
-1.5
0
VERTEX
8
PART_TOP_2DLINE_01
10
-2
20
-1.5
0
SEQEND
0
INSERT
2
SMOOTH_0$1
8
PART_TOP_2DLINE_01
10
-2.3
20
-1.5
0
INSERT
2
SMOOTH_0$1
8
PART_TOP_2DLINE_01
10
-2
20
-1.5
0
POLYLINE
8
PART_TOP_2DLINE_01
66
1
40
0.1
41
0.1
39
1.45
0
VERTEX
8
PART_TOP_2DLINE_01
10
-2.3
20
-1.6
0
VERTEX
8
PART_TOP_2DLINE_01
10
-2.15
20
-1.6
0
SEQEND
0
INSERT
2
SMOOTH_0$1
8
PART_TOP_2DLINE_01
10
-2.3
20
-1.6
0
INSERT
2
SMOOTH_0$1
8
PART_TOP_2DLINE_01
10
-2.15
20
-1.6
0
POLYLINE
8
PART_TOP_2DLINE_01
66
1
40
0.1
41
0.1
39
1.45
0
VERTEX
8
PART_TOP_2DLINE_01
10
-2.3
20
-1.2
0
VERTEX
8
PART_TOP_2DLINE_01
10
-1.85
20
-1.2
0
SEQEND
0
INSERT
2
SMOOTH_0$1
8
PART_TOP_2DLINE_01
10
-2.3
20
-1.2
0
INSERT
2
SMOOTH_0$1
8
PART_TOP_2DLINE_01
10
-1.85
20
-1.2
0
POLYLINE
8
PART_TOP_2DLINE_01
66
1
40
0.1
41
0.1
39
1.45
0
VERTEX
8
PART_TOP_2DLINE_01
10
-2.3
20
-1.1
0
VERTEX
8
PART_TOP_2DLINE_01
10
-2
20
-1.1
0
SEQEND
0
INSERT
2
SMOOTH_0$1
8
PART_TOP_2DLINE_01
10
-2.3
20
-1.1
0
INSERT
2
SMOOTH_0$1
8
PART_TOP_2DLINE_01
10
-2
20
-1.1
0
POLYLINE
8
PART_TOP_2DLINE_01
66
1
40
0.1
41
0.1
39
1.45
0
VERTEX
8
PART_TOP_2DLINE_01
10
-2.3
20
-1
0
VERTEX
8
PART_TOP_2DLINE_01
10
-2.15
20
-1
0
SEQEND
0
INSERT
2
SMOOTH_0$1
8
PART_TOP_2DLINE_01
10
-2.3
20
-1
0
INSERT
2
SMOOTH_0$1
8
PART_TOP_2DLINE_01
10
-2.15
20
-1
0
ENDBLK
0
BLOCK
2
STK_TOP_7
8
0
10
0
20
0
3
STK_TOP_7
70
64
0
INSERT
2
DRIL_HOLE_0
8
DRIL_NPLTE_THRU_01
10
0
20
0
0
INSERT
2
DRIL_HOLE_0
8
DRIL_NPLTE_THRU_02
10
0
20
0
0
INSERT
2
PAD_0
8
PADS_INNER
10
0
20
0
0
INSERT
2
PAD_0
8
PADS_BOT
10
0
20
0
0
INSERT
2
PAD_3
8
PADS_TOP
10
0
20
0
50
90
0
ENDBLK
0
BLOCK
2
PART_BODY_TOP_4
8
0
10
0
20
0
3
PART_BODY_TOP_4
70
64
0
POLYLINE
8
PART_TOP_2DLINE_00
66
1
40
0.1
41
0.1
39
1.45
0
VERTEX
8
PART_TOP_2DLINE_00
10
1.5
20
0.85
0
VERTEX
8
PART_TOP_2DLINE_00
10
1.5
20
-0.85
0
SEQEND
0
INSERT
2
SMOOTH_0$1
8
PART_TOP_2DLINE_00
10
1.5
20
0.85
0
INSERT
2
SMOOTH_0$1
8
PART_TOP_2DLINE_00
10
1.5
20
-0.85
0
POLYLINE
8
PART_TOP_2DLINE_00
66
1
40
0.1
41
0.1
39
1.45
0
VERTEX
8
PART_TOP_2DLINE_00
10
-0.5
20
0.875
0
VERTEX
8
PART_TOP_2DLINE_00
10
0.5
20
0.875
0
SEQEND
0
INSERT
2
SMOOTH_0$1
8
PART_TOP_2DLINE_00
10
-0.5
20
0.875
0
INSERT
2
SMOOTH_0$1
8
PART_TOP_2DLINE_00
10
0.5
20
0.875
0
POLYLINE
8
PART_TOP_2DLINE_115
66
1
40
0.1
41
0.1
39
1.45
70
1
0
VERTEX
8
PART_TOP_2DLINE_115
10
-1.5
20
0.875
0
VERTEX
8
PART_TOP_2DLINE_115
10
1.5
20
0.875
0
VERTEX
8
PART_TOP_2DLINE_115
10
1.5
20
-0.875
0
VERTEX
8
PART_TOP_2DLINE_115
10
-1.5
20
-0.875
0
SEQEND
0
INSERT
2
SMOOTH_0$1
8
PART_TOP_2DLINE_115
10
-1.5
20
0.875
0
INSERT
2
SMOOTH_0$1
8
PART_TOP_2DLINE_115
10
1.5
20
0.875
0
INSERT
2
SMOOTH_0$1
8
PART_TOP_2DLINE_115
10
1.5
20
-0.875
0
INSERT
2
SMOOTH_0$1
8
PART_TOP_2DLINE_115
10
-1.5
20
-0.875
0
POLYLINE
8
PART_TOP_2DLINE_00
66
1
40
0.1
41
0.1
39
1.45
0
VERTEX
8
PART_TOP_2DLINE_00
10
-1.5
20
0.85
0
VERTEX
8
PART_TOP_2DLINE_00
10
-1.5
20
-0.85
0
SEQEND
0
INSERT
2
SMOOTH_0$1
8
PART_TOP_2DLINE_00
10
-1.5
20
0.85
0
INSERT
2
SMOOTH_0$1
8
PART_TOP_2DLINE_00
10
-1.5
20
-0.85
0
POLYLINE
8
PART_TOP_2DLINE_00
66
1
40
0.1
41
0.1
39
1.45
70
1
0
VERTEX
8
PART_TOP_2DLINE_00
10
-2.3
20
-0.9
0
VERTEX
8
PART_TOP_2DLINE_00
10
-1.7
20
-1.3
0
VERTEX
8
PART_TOP_2DLINE_00
10
-2.3
20
-1.7
0
SEQEND
0
INSERT
2
SMOOTH_0$1
8
PART_TOP_2DLINE_00
10
-2.3
20
-0.9
0
INSERT
2
SMOOTH_0$1
8
PART_TOP_2DLINE_00
10
-1.7
20
-1.3
0
INSERT
2
SMOOTH_0$1
8
PART_TOP_2DLINE_00
10
-2.3
20
-1.7
0
POLYLINE
8
PART_TOP_2DLINE_00
66
1
40
0.1
41
0.1
39
1.45
0
VERTEX
8
PART_TOP_2DLINE_00
10
-2.3
20
-1.3
0
VERTEX
8
PART_TOP_2DLINE_00
10
-1.7
20
-1.3
0
SEQEND
0
INSERT
2
SMOOTH_0$1
8
PART_TOP_2DLINE_00
10
-2.3
20
-1.3
0
INSERT
2
SMOOTH_0$1
8
PART_TOP_2DLINE_00
10
-1.7
20
-1.3
0
POLYLINE
8
PART_TOP_2DLINE_00
66
1
40
0.1
41
0.1
39
1.45
0
VERTEX
8
PART_TOP_2DLINE_00
10
-2.3
20
-1.4
0
VERTEX
8
PART_TOP_2DLINE_00
10
-1.85
20
-1.4
0
SEQEND
0
INSERT
2
SMOOTH_0$1
8
PART_TOP_2DLINE_00
10
-2.3
20
-1.4
0
INSERT
2
SMOOTH_0$1
8
PART_TOP_2DLINE_00
10
-1.85
20
-1.4
0
POLYLINE
8
PART_TOP_2DLINE_00
66
1
40
0.1
41
0.1
39
1.45
0
VERTEX
8
PART_TOP_2DLINE_00
10
-2.3
20
-1.5
0
VERTEX
8
PART_TOP_2DLINE_00
10
-2
20
-1.5
0
SEQEND
0
INSERT
2
SMOOTH_0$1
8
PART_TOP_2DLINE_00
10
-2.3
20
-1.5
0
INSERT
2
SMOOTH_0$1
8
PART_TOP_2DLINE_00
10
-2
20
-1.5
0
POLYLINE
8
PART_TOP_2DLINE_00
66
1
40
0.1
41
0.1
39
1.45
0
VERTEX
8
PART_TOP_2DLINE_00
10
-2.3
20
-1.6
0
VERTEX
8
PART_TOP_2DLINE_00
10
-2.15
20
-1.6
0
SEQEND
0
INSERT
2
SMOOTH_0$1
8
PART_TOP_2DLINE_00
10
-2.3
20
-1.6
0
INSERT
2
SMOOTH_0$1
8
PART_TOP_2DLINE_00
10
-2.15
20
-1.6
0
POLYLINE
8
PART_TOP_2DLINE_00
66
1
40
0.1
41
0.1
39
1.45
0
VERTEX
8
PART_TOP_2DLINE_00
10
-2.3
20
-1.2
0
VERTEX
8
PART_TOP_2DLINE_00
10
-1.85
20
-1.2
0
SEQEND
0
INSERT
2
SMOOTH_0$1
8
PART_TOP_2DLINE_00
10
-2.3
20
-1.2
0
INSERT
2
SMOOTH_0$1
8
PART_TOP_2DLINE_00
10
-1.85
20
-1.2
0
POLYLINE
8
PART_TOP_2DLINE_00
66
1
40
0.1
41
0.1
39
1.45
0
VERTEX
8
PART_TOP_2DLINE_00
10
-2.3
20
-1.1
0
VERTEX
8
PART_TOP_2DLINE_00
10
-2
20
-1.1
0
SEQEND
0
INSERT
2
SMOOTH_0$1
8
PART_TOP_2DLINE_00
10
-2.3
20
-1.1
0
INSERT
2
SMOOTH_0$1
8
PART_TOP_2DLINE_00
10
-2
20
-1.1
0
POLYLINE
8
PART_TOP_2DLINE_00
66
1
40
0.1
41
0.1
39
1.45
0
VERTEX
8
PART_TOP_2DLINE_00
10
-2.3
20
-1
0
VERTEX
8
PART_TOP_2DLINE_00
10
-2.15
20
-1
0
SEQEND
0
INSERT
2
SMOOTH_0$1
8
PART_TOP_2DLINE_00
10
-2.3
20
-1
0
INSERT
2
SMOOTH_0$1
8
PART_TOP_2DLINE_00
10
-2.15
20
-1
0
ENDBLK
0
BLOCK
2
PART_BODY_TOP_10
8
0
10
0
20
0
3
PART_BODY_TOP_10
70
64
0
POLYLINE
8
PART_TOP_2DLINE_00
66
1
40
0.1
41
0.1
39
1.1
70
1
0
VERTEX
8
PART_TOP_2DLINE_00
10
-1.5
20
0.5
0
VERTEX
8
PART_TOP_2DLINE_00
10
1.5
20
0.5
0
VERTEX
8
PART_TOP_2DLINE_00
10
1.5
20
-0.5
0
VERTEX
8
PART_TOP_2DLINE_00
10
-1.5
20
-0.5
0
SEQEND
0
INSERT
2
SMOOTH_0$1
8
PART_TOP_2DLINE_00
10
-1.5
20
0.5
0
INSERT
2
SMOOTH_0$1
8
PART_TOP_2DLINE_00
10
1.5
20
0.5
0
INSERT
2
SMOOTH_0$1
8
PART_TOP_2DLINE_00
10
1.5
20
-0.5
0
INSERT
2
SMOOTH_0$1
8
PART_TOP_2DLINE_00
10
-1.5
20
-0.5
0
POLYLINE
8
PART_TOP_2DLINE_115
66
1
40
0.1
41
0.1
39
1.1
70
1
0
VERTEX
8
PART_TOP_2DLINE_115
10
-1.5
20
0.6
0
VERTEX
8
PART_TOP_2DLINE_115
10
1.5
20
0.6
0
VERTEX
8
PART_TOP_2DLINE_115
10
1.5
20
-0.6
0
VERTEX
8
PART_TOP_2DLINE_115
10
-1.5
20
-0.6
0
SEQEND
0
INSERT
2
SMOOTH_0$1
8
PART_TOP_2DLINE_115
10
-1.5
20
0.6
0
INSERT
2
SMOOTH_0$1
8
PART_TOP_2DLINE_115
10
1.5
20
0.6
0
INSERT
2
SMOOTH_0$1
8
PART_TOP_2DLINE_115
10
1.5
20
-0.6
0
INSERT
2
SMOOTH_0$1
8
PART_TOP_2DLINE_115
10
-1.5
20
-0.6
0
ENDBLK
0
BLOCK
2
PART_BODY_TOP_6
8
0
10
0
20
0
3
PART_BODY_TOP_6
70
64
0
POLYLINE
8
PART_TOP_2DLINE_01
66
1
40
0.1
41
0.1
39
0.4
70
1
0
VERTEX
8
PART_TOP_2DLINE_01
10
-0.8
20
0.4
0
VERTEX
8
PART_TOP_2DLINE_01
10
0.8
20
0.4
0
VERTEX
8
PART_TOP_2DLINE_01
10
0.8
20
-0.4
0
VERTEX
8
PART_TOP_2DLINE_01
10
-0.8
20
-0.4
0
SEQEND
0
INSERT
2
SMOOTH_0$1
8
PART_TOP_2DLINE_01
10
-0.8
20
0.4
0
INSERT
2
SMOOTH_0$1
8
PART_TOP_2DLINE_01
10
0.8
20
0.4
0
INSERT
2
SMOOTH_0$1
8
PART_TOP_2DLINE_01
10
0.8
20
-0.4
0
INSERT
2
SMOOTH_0$1
8
PART_TOP_2DLINE_01
10
-0.8
20
-0.4
0
POLYLINE
8
PART_TOP_2DLINE_127
66
1
40
0.1
41
0.1
39
0.4
70
1
0
VERTEX
8
PART_TOP_2DLINE_127
10
-0.675
20
0.275
0
VERTEX
8
PART_TOP_2DLINE_127
10
0.675
20
0.275
0
VERTEX
8
PART_TOP_2DLINE_127
10
0.675
20
-0.275
0
VERTEX
8
PART_TOP_2DLINE_127
10
-0.675
20
-0.275
0
SEQEND
0
INSERT
2
SMOOTH_0$1
8
PART_TOP_2DLINE_127
10
-0.675
20
0.275
0
INSERT
2
SMOOTH_0$1
8
PART_TOP_2DLINE_127
10
0.675
20
0.275
0
INSERT
2
SMOOTH_0$1
8
PART_TOP_2DLINE_127
10
0.675
20
-0.275
0
INSERT
2
SMOOTH_0$1
8
PART_TOP_2DLINE_127
10
-0.675
20
-0.275
0
POLYLINE
8
PART_TOP_2DLINE_115
66
1
40
0.1
41
0.1
39
0.4
70
1
0
VERTEX
8
PART_TOP_2DLINE_115
10
-0.5
20
-0.25
0
VERTEX
8
PART_TOP_2DLINE_115
10
0.5
20
-0.25
0
VERTEX
8
PART_TOP_2DLINE_115
10
0.5
20
0.25
0
VERTEX
8
PART_TOP_2DLINE_115
10
-0.5
20
0.25
0
SEQEND
0
INSERT
2
SMOOTH_0$1
8
PART_TOP_2DLINE_115
10
-0.5
20
-0.25
0
INSERT
2
SMOOTH_0$1
8
PART_TOP_2DLINE_115
10
0.5
20
-0.25
0
INSERT
2
SMOOTH_0$1
8
PART_TOP_2DLINE_115
10
0.5
20
0.25
0
INSERT
2
SMOOTH_0$1
8
PART_TOP_2DLINE_115
10
-0.5
20
0.25
0
ENDBLK
0
BLOCK
2
STK_TOP_8
8
0
10
0
20
0
3
STK_TOP_8
70
64
0
INSERT
2
DRIL_HOLE_0
8
DRIL_NPLTE_THRU_01
10
0
20
0
0
INSERT
2
DRIL_HOLE_0
8
DRIL_NPLTE_THRU_02
10
0
20
0
0
INSERT
2
PAD_0
8
PADS_INNER
10
0
20
0
0
INSERT
2
PAD_0
8
PADS_BOT
10
0
20
0
0
INSERT
2
PAD_1
8
PADS_XR_123
10
0
20
0
0
INSERT
2
PAD_1
8
PADS_TOP
10
0
20
0
0
ENDBLK
0
BLOCK
2
PART_BODY_TOP_7
8
0
10
0
20
0
3
PART_BODY_TOP_7
70
64
0
POLYLINE
8
PART_TOP_2DLINE_125
66
1
40
0.001
41
0.001
39
1.6
70
1
0
VERTEX
8
PART_TOP_2DLINE_125
10
-5.1
20
-5.1
0
VERTEX
8
PART_TOP_2DLINE_125
10
-5.1
20
5.1
0
VERTEX
8
PART_TOP_2DLINE_125
10
5.1
20
5.1
0
VERTEX
8
PART_TOP_2DLINE_125
10
5.1
20
-5.1
0
SEQEND
0
INSERT
2
SMOOTH_0$001
8
PART_TOP_2DLINE_125
10
-5.1
20
-5.1
0
INSERT
2
SMOOTH_0$001
8
PART_TOP_2DLINE_125
10
-5.1
20
5.1
0
INSERT
2
SMOOTH_0$001
8
PART_TOP_2DLINE_125
10
5.1
20
5.1
0
INSERT
2
SMOOTH_0$001
8
PART_TOP_2DLINE_125
10
5.1
20
-5.1
0
POLYLINE
8
PART_TOP_2DLINE_120
66
1
40
0.05
41
0.05
39
1.6
70
1
0
VERTEX
8
PART_TOP_2DLINE_120
10
-6.7
20
-6.7
0
VERTEX
8
PART_TOP_2DLINE_120
10
-6.7
20
6.7
0
VERTEX
8
PART_TOP_2DLINE_120
10
6.7
20
6.7
0
VERTEX
8
PART_TOP_2DLINE_120
10
6.7
20
-6.7
0
SEQEND
0
INSERT
2
SMOOTH_0$05
8
PART_TOP_2DLINE_120
10
-6.7
20
-6.7
0
INSERT
2
SMOOTH_0$05
8
PART_TOP_2DLINE_120
10
-6.7
20
6.7
0
INSERT
2
SMOOTH_0$05
8
PART_TOP_2DLINE_120
10
6.7
20
6.7
0
INSERT
2
SMOOTH_0$05
8
PART_TOP_2DLINE_120
10
6.7
20
-6.7
0
POLYLINE
8
PART_TOP_2DLINE_120
66
1
40
0.05
41
0.05
39
1.6
70
1
0
VERTEX
8
PART_TOP_2DLINE_120
10
-0.35
20
0
42
1
0
VERTEX
8
PART_TOP_2DLINE_120
10
0.35
20
0
42
1
0
SEQEND
0
POLYLINE
8
PART_TOP_2DLINE_120
66
1
40
0.05
41
0.05
39
1.6
0
VERTEX
8
PART_TOP_2DLINE_120
10
0
20
-0.5
0
VERTEX
8
PART_TOP_2DLINE_120
10
0
20
0.5
0
SEQEND
0
INSERT
2
SMOOTH_0$05
8
PART_TOP_2DLINE_120
10
0
20
-0.5
0
INSERT
2
SMOOTH_0$05
8
PART_TOP_2DLINE_120
10
0
20
0.5
0
POLYLINE
8
PART_TOP_2DLINE_120
66
1
40
0.05
41
0.05
39
1.6
0
VERTEX
8
PART_TOP_2DLINE_120
10
-0.5
20
0
0
VERTEX
8
PART_TOP_2DLINE_120
10
0.5
20
0
0
SEQEND
0
INSERT
2
SMOOTH_0$05
8
PART_TOP_2DLINE_120
10
-0.5
20
0
0
INSERT
2
SMOOTH_0$05
8
PART_TOP_2DLINE_120
10
0.5
20
0
0
POLYLINE
8
PART_TOP_2DLINE_127
66
1
40
0.1
41
0.1
39
1.6
70
1
0
VERTEX
8
PART_TOP_2DLINE_127
10
-5
20
-5
0
VERTEX
8
PART_TOP_2DLINE_127
10
-5
20
5
0
VERTEX
8
PART_TOP_2DLINE_127
10
5
20
5
0
VERTEX
8
PART_TOP_2DLINE_127
10
5
20
-5
0
SEQEND
0
INSERT
2
SMOOTH_0$1
8
PART_TOP_2DLINE_127
10
-5
20
-5
0
INSERT
2
SMOOTH_0$1
8
PART_TOP_2DLINE_127
10
-5
20
5
0
INSERT
2
SMOOTH_0$1
8
PART_TOP_2DLINE_127
10
5
20
5
0
INSERT
2
SMOOTH_0$1
8
PART_TOP_2DLINE_127
10
5
20
-5
0
POLYLINE
8
PART_TOP_2DLINE_127
66
1
40
0.1
41
0.1
39
1.6
70
1
0
VERTEX
8
PART_TOP_2DLINE_127
10
-4.45
20
3.95
42
1
0
VERTEX
8
PART_TOP_2DLINE_127
10
-3.45
20
3.95
42
1
0
SEQEND
0
POLYLINE
8
PART_TOP_2DLINE_00
66
1
40
0.2
41
0.2
39
1.6
70
1
0
VERTEX
8
PART_TOP_2DLINE_00
10
-4.6
20
-4.6
0
VERTEX
8
PART_TOP_2DLINE_00
10
-4.6
20
4.6
0
VERTEX
8
PART_TOP_2DLINE_00
10
4.6
20
4.6
0
VERTEX
8
PART_TOP_2DLINE_00
10
4.6
20
-4.6
0
SEQEND
0
INSERT
2
SMOOTH_0$2
8
PART_TOP_2DLINE_00
10
-4.6
20
-4.6
0
INSERT
2
SMOOTH_0$2
8
PART_TOP_2DLINE_00
10
-4.6
20
4.6
0
INSERT
2
SMOOTH_0$2
8
PART_TOP_2DLINE_00
10
4.6
20
4.6
0
INSERT
2
SMOOTH_0$2
8
PART_TOP_2DLINE_00
10
4.6
20
-4.6
0
POLYLINE
8
PART_TOP_2DLINE_00
66
1
40
0.5
41
0.5
39
1.6
70
1
0
VERTEX
8
PART_TOP_2DLINE_00
10
-3.95
20
3.7
42
1
0
VERTEX
8
PART_TOP_2DLINE_00
10
-3.45
20
3.7
42
1
0
SEQEND
0
POLYLINE
8
PART_TOP_2DLINE_00
66
1
40
0.25
41
0.25
39
1.6
70
1
0
VERTEX
8
PART_TOP_2DLINE_00
10
-6.325
20
4.4
42
1
0
VERTEX
8
PART_TOP_2DLINE_00
10
-6.075
20
4.4
42
1
0
SEQEND
0
ENDBLK
0
BLOCK
2
STK_TOP_9
8
0
10
0
20
0
3
STK_TOP_9
70
64
0
INSERT
2
DRIL_HOLE_0
8
DRIL_NPLTE_THRU_01
10
0
20
0
0
INSERT
2
DRIL_HOLE_0
8
DRIL_NPLTE_THRU_02
10
0
20
0
0
INSERT
2
PAD_0
8
PADS_INNER
10
0
20
0
0
INSERT
2
PAD_0
8
PADS_BOT
10
0
20
0
0
INSERT
2
PAD_4
8
PADS_XR_121
10
0
20
0
0
INSERT
2
PAD_4
8
PADS_XR_123
10
0
20
0
0
INSERT
2
PAD_4
8
PADS_XR_127
10
0
20
0
0
INSERT
2
PAD_4
8
PADS_TOP
10
0
20
0
0
ENDBLK
0
BLOCK
2
STK_TOP_10
8
0
10
0
20
0
3
STK_TOP_10
70
64
0
INSERT
2
DRIL_HOLE_0
8
DRIL_NPLTE_THRU_01
10
0
20
0
0
INSERT
2
DRIL_HOLE_0
8
DRIL_NPLTE_THRU_02
10
0
20
0
0
INSERT
2
PAD_0
8
PADS_INNER
10
0
20
0
0
INSERT
2
PAD_0
8
PADS_BOT
10
0
20
0
0
INSERT
2
PAD_4
8
PADS_XR_121
10
0
20
0
50
90
0
INSERT
2
PAD_4
8
PADS_XR_123
10
0
20
0
50
90
0
INSERT
2
PAD_4
8
PADS_XR_127
10
0
20
0
50
90
0
INSERT
2
PAD_4
8
PADS_TOP
10
0
20
0
50
90
0
ENDBLK
0
BLOCK
2
PART_BODY_TOP_8
8
0
10
0
20
0
3
PART_BODY_TOP_8
70
64
0
POLYLINE
8
PART_TOP_2DLINE_01
66
1
40
0.1
41
0.1
39
1.1
0
VERTEX
8
PART_TOP_2DLINE_01
10
-0.8
20
0.9
0
VERTEX
8
PART_TOP_2DLINE_01
10
-1.85
20
0.9
0
VERTEX
8
PART_TOP_2DLINE_01
10
-1.85
20
-0.9
0
VERTEX
8
PART_TOP_2DLINE_01
10
-0.8
20
-0.9
0
SEQEND
0
INSERT
2
SMOOTH_0$1
8
PART_TOP_2DLINE_01
10
-0.8
20
0.9
0
INSERT
2
SMOOTH_0$1
8
PART_TOP_2DLINE_01
10
-1.85
20
0.9
0
INSERT
2
SMOOTH_0$1
8
PART_TOP_2DLINE_01
10
-1.85
20
-0.9
0
INSERT
2
SMOOTH_0$1
8
PART_TOP_2DLINE_01
10
-0.8
20
-0.9
0
POLYLINE
8
PART_TOP_2DLINE_127
66
1
40
0.1
41
0.1
39
1.1
70
1
0
VERTEX
8
PART_TOP_2DLINE_127
10
-1.75
20
0.7
0
VERTEX
8
PART_TOP_2DLINE_127
10
1.75
20
0.7
0
VERTEX
8
PART_TOP_2DLINE_127
10
1.75
20
-0.7
0
VERTEX
8
PART_TOP_2DLINE_127
10
-1.75
20
-0.7
0
SEQEND
0
INSERT
2
SMOOTH_0$1
8
PART_TOP_2DLINE_127
10
-1.75
20
0.7
0
INSERT
2
SMOOTH_0$1
8
PART_TOP_2DLINE_127
10
1.75
20
0.7
0
INSERT
2
SMOOTH_0$1
8
PART_TOP_2DLINE_127
10
1.75
20
-0.7
0
INSERT
2
SMOOTH_0$1
8
PART_TOP_2DLINE_127
10
-1.75
20
-0.7
0
POLYLINE
8
PART_TOP_2DLINE_01
66
1
40
0.1
41
0.1
39
1.1
70
1
0
VERTEX
8
PART_TOP_2DLINE_01
10
-1.75
20
0.75
0
VERTEX
8
PART_TOP_2DLINE_01
10
1.75
20
0.75
0
VERTEX
8
PART_TOP_2DLINE_01
10
1.75
20
-0.75
0
VERTEX
8
PART_TOP_2DLINE_01
10
-1.75
20
-0.75
0
SEQEND
0
INSERT
2
SMOOTH_0$1
8
PART_TOP_2DLINE_01
10
-1.75
20
0.75
0
INSERT
2
SMOOTH_0$1
8
PART_TOP_2DLINE_01
10
1.75
20
0.75
0
INSERT
2
SMOOTH_0$1
8
PART_TOP_2DLINE_01
10
1.75
20
-0.75
0
INSERT
2
SMOOTH_0$1
8
PART_TOP_2DLINE_01
10
-1.75
20
-0.75
0
ENDBLK
0
BLOCK
2
STK_TOP_11
8
0
10
0
20
0
3
STK_TOP_11
70
64
0
INSERT
2
DRIL_HOLE_0
8
DRIL_NPLTE_THRU_01
10
0
20
0
0
INSERT
2
DRIL_HOLE_0
8
DRIL_NPLTE_THRU_02
10
0
20
0
0
INSERT
2
PAD_0
8
PADS_INNER
10
0
20
0
0
INSERT
2
PAD_0
8
PADS_BOT
10
0
20
0
0
INSERT
2
PAD_5
8
PADS_XR_123
10
0
20
0
0
INSERT
2
PAD_5
8
PADS_TOP
10
0
20
0
0
ENDBLK
0
BLOCK
2
PART_BODY_TOP_9
8
0
10
0
20
0
3
PART_BODY_TOP_9
70
64
0
POLYLINE
8
PART_TOP_2DLINE_00
66
1
40
0.1
41
0.1
39
1
70
1
0
VERTEX
8
PART_TOP_2DLINE_00
10
-1.25
20
-1
0
VERTEX
8
PART_TOP_2DLINE_00
10
1.25
20
-1
0
VERTEX
8
PART_TOP_2DLINE_00
10
1.25
20
1
0
VERTEX
8
PART_TOP_2DLINE_00
10
-1.25
20
1
0
SEQEND
0
INSERT
2
SMOOTH_0$1
8
PART_TOP_2DLINE_00
10
-1.25
20
-1
0
INSERT
2
SMOOTH_0$1
8
PART_TOP_2DLINE_00
10
1.25
20
-1
0
INSERT
2
SMOOTH_0$1
8
PART_TOP_2DLINE_00
10
1.25
20
1
0
INSERT
2
SMOOTH_0$1
8
PART_TOP_2DLINE_00
10
-1.25
20
1
0
POLYLINE
8
PART_TOP_COPPER_01
6
TRMIDX_1
66
1
40
0.1
41
0.1
39
1
70
1
0
VERTEX
8
PART_TOP_COPPER_01
10
0
20
-1.01
0
VERTEX
8
PART_TOP_COPPER_01
10
1.82
20
-1.01
0
VERTEX
8
PART_TOP_COPPER_01
10
1.82
20
1.02
0
VERTEX
8
PART_TOP_COPPER_01
10
0
20
1.02
0
SEQEND
0
INSERT
2
SMOOTH_0$1
8
PART_TOP_COPPER_01
10
0
20
-1.01
0
INSERT
2
SMOOTH_0$1
8
PART_TOP_COPPER_01
10
1.82
20
-1.01
0
INSERT
2
SMOOTH_0$1
8
PART_TOP_COPPER_01
10
1.82
20
1.02
0
INSERT
2
SMOOTH_0$1
8
PART_TOP_COPPER_01
10
0
20
1.02
0
ENDBLK
0
BLOCK
2
STK_TOP_13
8
0
10
0
20
0
3
STK_TOP_13
70
64
0
INSERT
2
DRIL_HOLE_0
8
DRIL_PLTE_THRU_01
10
0
20
0
0
INSERT
2
DRIL_HOLE_0
8
DRIL_PLTE_THRU_02
10
0
20
0
0
INSERT
2
PAD_0
8
PADS_INNER
10
0
20
0
0
INSERT
2
PAD_0
8
PADS_BOT
10
0
20
0
0
INSERT
2
PAD_6
8
PADS_TOP
10
0
20
0
0
ENDBLK
0
BLOCK
2
STK_TOP_12
8
0
10
0
20
0
3
STK_TOP_12
70
64
0
INSERT
2
DRIL_HOLE_0
8
DRIL_PLTE_THRU_01
10
0
20
0
0
INSERT
2
DRIL_HOLE_0
8
DRIL_PLTE_THRU_02
10
0
20
0
0
INSERT
2
PAD_0
8
PADS_INNER
10
0
20
0
0
INSERT
2
PAD_0
8
PADS_BOT
10
0
20
0
0
INSERT
2
PAD_7
8
PADS_TOP
10
0
20
0
0
ENDBLK
0
BLOCK
2
PART_BODY_TOP_11
8
0
10
0
20
0
3
PART_BODY_TOP_11
70
64
0
POLYLINE
8
PART_TOP_2DLINE_00
66
1
40
0.1
41
0.1
39
1
70
1
0
VERTEX
8
PART_TOP_2DLINE_00
10
-1.25
20
-1
0
VERTEX
8
PART_TOP_2DLINE_00
10
1.25
20
-1
0
VERTEX
8
PART_TOP_2DLINE_00
10
1.25
20
1
0
VERTEX
8
PART_TOP_2DLINE_00
10
-1.25
20
1
0
SEQEND
0
INSERT
2
SMOOTH_0$1
8
PART_TOP_2DLINE_00
10
-1.25
20
-1
0
INSERT
2
SMOOTH_0$1
8
PART_TOP_2DLINE_00
10
1.25
20
-1
0
INSERT
2
SMOOTH_0$1
8
PART_TOP_2DLINE_00
10
1.25
20
1
0
INSERT
2
SMOOTH_0$1
8
PART_TOP_2DLINE_00
10
-1.25
20
1
0
ENDBLK
0
BLOCK
2
STK_TOP_14
8
0
10
0
20
0
3
STK_TOP_14
70
64
0
INSERT
2
DRIL_HOLE_0
8
DRIL_PLTE_THRU_01
10
0
20
0
0
INSERT
2
DRIL_HOLE_0
8
DRIL_PLTE_THRU_02
10
0
20
0
0
INSERT
2
PAD_0
8
PADS_INNER
10
0
20
0
0
INSERT
2
PAD_0
8
PADS_BOT
10
0
20
0
0
INSERT
2
PAD_8
8
PADS_TOP
10
0
20
0
50
90
0
ENDBLK
0
BLOCK
2
PART_BODY_TOP_12
8
0
10
0
20
0
3
PART_BODY_TOP_12
70
64
0
POLYLINE
8
KEEPOUT_01
6
KEEPOUT_00001000$0
66
1
39
3.1
70
1
0
VERTEX
8
KEEPOUT_01
10
-2.025
20
0
42
1
0
VERTEX
8
KEEPOUT_01
10
2.025
20
0
42
1
0
SEQEND
0
POLYLINE
8
PART_TOP_COPPER_01
6
TRMIDX_0
66
1
40
0.1
41
0.1
39
3.1
70
1
0
VERTEX
8
PART_TOP_COPPER_01
10
-2.55
20
2.55
0
VERTEX
8
PART_TOP_COPPER_01
10
-0.8
20
2.55
0
VERTEX
8
PART_TOP_COPPER_01
10
-0.8
20
1.85
42
0.6518917987
0
VERTEX
8
PART_TOP_COPPER_01
10
-0.8
20
-1.85
0
VERTEX
8
PART_TOP_COPPER_01
10
-0.8
20
-2.55
0
VERTEX
8
PART_TOP_COPPER_01
10
-2.55
20
-2.55
0
SEQEND
0
INSERT
2
SMOOTH_0$1
8
PART_TOP_COPPER_01
10
-2.55
20
2.55
0
INSERT
2
SMOOTH_0$1
8
PART_TOP_COPPER_01
10
-0.8
20
2.55
0
INSERT
2
SMOOTH_0$1
8
PART_TOP_COPPER_01
10
-0.8
20
1.85
0
INSERT
2
SMOOTH_0$1
8
PART_TOP_COPPER_01
10
-0.8
20
-1.85
0
INSERT
2
SMOOTH_0$1
8
PART_TOP_COPPER_01
10
-0.8
20
-2.55
0
INSERT
2
SMOOTH_0$1
8
PART_TOP_COPPER_01
10
-2.55
20
-2.55
0
POLYLINE
8
PART_TOP_COPPER_01
6
TRMIDX_1
66
1
40
0.1
41
0.1
39
3.1
70
1
0
VERTEX
8
PART_TOP_COPPER_01
10
0.8
20
2.55
0
VERTEX
8
PART_TOP_COPPER_01
10
2.55
20
2.55
0
VERTEX
8
PART_TOP_COPPER_01
10
2.55
20
-2.55
0
VERTEX
8
PART_TOP_COPPER_01
10
0.8
20
-2.55
0
VERTEX
8
PART_TOP_COPPER_01
10
0.8
20
-1.85
42
0.652513733
0
VERTEX
8
PART_TOP_COPPER_01
10
0.8
20
1.85
0
SEQEND
0
INSERT
2
SMOOTH_0$1
8
PART_TOP_COPPER_01
10
0.8
20
2.55
0
INSERT
2
SMOOTH_0$1
8
PART_TOP_COPPER_01
10
2.55
20
2.55
0
INSERT
2
SMOOTH_0$1
8
PART_TOP_COPPER_01
10
2.55
20
-2.55
0
INSERT
2
SMOOTH_0$1
8
PART_TOP_COPPER_01
10
0.8
20
-2.55
0
INSERT
2
SMOOTH_0$1
8
PART_TOP_COPPER_01
10
0.8
20
-1.85
0
INSERT
2
SMOOTH_0$1
8
PART_TOP_COPPER_01
10
0.8
20
1.85
0
ENDBLK
0
BLOCK
2
STK_TOP_15
8
0
10
0
20
0
3
STK_TOP_15
70
64
0
INSERT
2
DRIL_HOLE_0
8
DRIL_PLTE_THRU_01
10
0
20
0
0
INSERT
2
DRIL_HOLE_0
8
DRIL_PLTE_THRU_02
10
0
20
0
0
INSERT
2
PAD_0
8
PADS_INNER
10
0
20
0
0
INSERT
2
PAD_0
8
PADS_BOT
10
0
20
0
0
INSERT
2
PAD_9
8
PADS_TOP
10
0
20
0
50
90
0
ENDBLK
0
BLOCK
2
PART_BODY_TOP_13
8
0
10
0
20
0
3
PART_BODY_TOP_13
70
64
0
POLYLINE
8
PART_TOP_2DLINE_00
66
1
40
0.2
41
0.2
39
2
70
1
0
VERTEX
8
PART_TOP_2DLINE_00
10
-1.5
20
1.4
0
VERTEX
8
PART_TOP_2DLINE_00
10
1.5
20
1.4
0
VERTEX
8
PART_TOP_2DLINE_00
10
1.5
20
-1.4
0
VERTEX
8
PART_TOP_2DLINE_00
10
-1.5
20
-1.4
0
SEQEND
0
INSERT
2
SMOOTH_0$2
8
PART_TOP_2DLINE_00
10
-1.5
20
1.4
0
INSERT
2
SMOOTH_0$2
8
PART_TOP_2DLINE_00
10
1.5
20
1.4
0
INSERT
2
SMOOTH_0$2
8
PART_TOP_2DLINE_00
10
1.5
20
-1.4
0
INSERT
2
SMOOTH_0$2
8
PART_TOP_2DLINE_00
10
-1.5
20
-1.4
0
POLYLINE
8
TAG_01
66
1
0
VERTEX
8
TAG_01
10
0
20
0
0
VERTEX
8
TAG_01
10
0
20
0
0
SEQEND
0
POLYLINE
8
PART_TOP_2DLINE_130
66
1
40
0.2
41
0.2
39
2
70
1
0
VERTEX
8
PART_TOP_2DLINE_130
10
-1.5
20
1.4
0
VERTEX
8
PART_TOP_2DLINE_130
10
1.5
20
1.4
0
VERTEX
8
PART_TOP_2DLINE_130
10
1.5
20
-1.4
0
VERTEX
8
PART_TOP_2DLINE_130
10
-1.5
20
-1.4
0
SEQEND
0
INSERT
2
SMOOTH_0$2
8
PART_TOP_2DLINE_130
10
-1.5
20
1.4
0
INSERT
2
SMOOTH_0$2
8
PART_TOP_2DLINE_130
10
1.5
20
1.4
0
INSERT
2
SMOOTH_0$2
8
PART_TOP_2DLINE_130
10
1.5
20
-1.4
0
INSERT
2
SMOOTH_0$2
8
PART_TOP_2DLINE_130
10
-1.5
20
-1.4
0
POLYLINE
8
PART_TOP_2DLINE_130
66
1
40
0.2
41
0.2
39
2
0
VERTEX
8
PART_TOP_2DLINE_130
10
-0.5
20
0
0
VERTEX
8
PART_TOP_2DLINE_130
10
0
20
0
0
VERTEX
8
PART_TOP_2DLINE_130
10
0
20
0.5
0
SEQEND
0
INSERT
2
SMOOTH_0$2
8
PART_TOP_2DLINE_130
10
-0.5
20
0
0
INSERT
2
SMOOTH_0$2
8
PART_TOP_2DLINE_130
10
0
20
0
0
INSERT
2
SMOOTH_0$2
8
PART_TOP_2DLINE_130
10
0
20
0.5
0
POLYLINE
8
PART_TOP_2DLINE_130
66
1
40
0.2
41
0.2
39
2
0
VERTEX
8
PART_TOP_2DLINE_130
10
0
20
-0.5
0
VERTEX
8
PART_TOP_2DLINE_130
10
0
20
0
0
VERTEX
8
PART_TOP_2DLINE_130
10
0.5
20
0
0
SEQEND
0
INSERT
2
SMOOTH_0$2
8
PART_TOP_2DLINE_130
10
0
20
-0.5
0
INSERT
2
SMOOTH_0$2
8
PART_TOP_2DLINE_130
10
0
20
0
0
INSERT
2
SMOOTH_0$2
8
PART_TOP_2DLINE_130
10
0.5
20
0
0
POLYLINE
8
TAG_00
66
1
0
VERTEX
8
TAG_00
10
0
20
0
0
VERTEX
8
TAG_00
10
0
20
0
0
SEQEND
0
POLYLINE
8
TAG_01
66
1
0
VERTEX
8
TAG_01
10
0
20
0
0
VERTEX
8
TAG_01
10
0
20
0
0
SEQEND
0
POLYLINE
8
PART_TOP_2DLINE_00
66
1
40
0.2
41
0.2
39
2
70
1
0
VERTEX
8
PART_TOP_2DLINE_00
10
-2.5
20
2.5
0
VERTEX
8
PART_TOP_2DLINE_00
10
-1.6
20
2.5
0
VERTEX
8
PART_TOP_2DLINE_00
10
-2.1
20
1.8
0
SEQEND
0
INSERT
2
SMOOTH_0$2
8
PART_TOP_2DLINE_00
10
-2.5
20
2.5
0
INSERT
2
SMOOTH_0$2
8
PART_TOP_2DLINE_00
10
-1.6
20
2.5
0
INSERT
2
SMOOTH_0$2
8
PART_TOP_2DLINE_00
10
-2.1
20
1.8
0
POLYLINE
8
PART_TOP_2DLINE_00
66
1
40
0.4
41
0.4
39
2
70
1
0
VERTEX
8
PART_TOP_2DLINE_00
10
-2.225
20
2.35
0
VERTEX
8
PART_TOP_2DLINE_00
10
-1.9
20
2.35
0
VERTEX
8
PART_TOP_2DLINE_00
10
-2.075
20
2.125
0
SEQEND
0
INSERT
2
SMOOTH_0$4
8
PART_TOP_2DLINE_00
10
-2.225
20
2.35
0
INSERT
2
SMOOTH_0$4
8
PART_TOP_2DLINE_00
10
-1.9
20
2.35
0
INSERT
2
SMOOTH_0$4
8
PART_TOP_2DLINE_00
10
-2.075
20
2.125
0
POLYLINE
8
TAG_00
66
1
0
VERTEX
8
TAG_00
10
0
20
0
0
VERTEX
8
TAG_00
10
0
20
0
0
SEQEND
0
ENDBLK
0
BLOCK
2
STK_TOP_16
8
0
10
0
20
0
3
STK_TOP_16
70
64
0
INSERT
2
DRIL_HOLE_0
8
DRIL_NPLTE_THRU_01
10
0
20
0
0
INSERT
2
DRIL_HOLE_0
8
DRIL_NPLTE_THRU_02
10
0
20
0
0
INSERT
2
PAD_0
8
PADS_INNER
10
0
20
0
0
INSERT
2
PAD_0
8
PADS_BOT
10
0
20
0
0
INSERT
2
PAD_10
8
PADS_XR_121
10
0
20
0
0
INSERT
2
PAD_10
8
PADS_XR_123
10
0
20
0
0
INSERT
2
PAD_10
8
PADS_TOP
10
0
20
0
0
ENDBLK
0
BLOCK
2
PART_BODY_TOP_14
8
0
10
0
20
0
3
PART_BODY_TOP_14
70
64
0
POLYLINE
8
PART_TOP_COPPER_01
6
TRMIDX_5
66
1
40
0.1
41
0.1
39
2.45
70
1
0
VERTEX
8
PART_TOP_COPPER_01
10
-4.2
20
-0.975
42
0.4142135624
0
VERTEX
8
PART_TOP_COPPER_01
10
-3.9
20
-1.275
0
VERTEX
8
PART_TOP_COPPER_01
10
-2.1
20
-1.275
42
0.4142135624
0
VERTEX
8
PART_TOP_COPPER_01
10
-1.8
20
-0.975
0
VERTEX
8
PART_TOP_COPPER_01
10
-1.8
20
-0.375
42
0.4142135624
0
VERTEX
8
PART_TOP_COPPER_01
10
-2.1
20
-0.075
0
VERTEX
8
PART_TOP_COPPER_01
10
-3.9
20
-0.075
42
0.4142135624
0
VERTEX
8
PART_TOP_COPPER_01
10
-4.2
20
-0.375
0
SEQEND
0
INSERT
2
SMOOTH_0$1
8
PART_TOP_COPPER_01
10
-4.2
20
-0.975
0
INSERT
2
SMOOTH_0$1
8
PART_TOP_COPPER_01
10
-3.9
20
-1.275
0
POLYLINE
8
PART_TOP_COPPER_02
6
TRMIDX_5
66
1
40
0.1
41
0.1
39
2.45
70
1
0
VERTEX
8
PART_TOP_COPPER_02
10
-4.2
20
-0.375
42
-0.4142135624
0
VERTEX
8
PART_TOP_COPPER_02
10
-3.9
20
-0.075
0
VERTEX
8
PART_TOP_COPPER_02
10
-2.1
20
-0.075
42
-0.4142135624
0
VERTEX
8
PART_TOP_COPPER_02
10
-1.8
20
-0.375
0
VERTEX
8
PART_TOP_COPPER_02
10
-1.8
20
-0.975
42
-0.4142135624
0
VERTEX
8
PART_TOP_COPPER_02
10
-2.1
20
-1.275
0
VERTEX
8
PART_TOP_COPPER_02
10
-3.9
20
-1.275
42
-0.4142135624
0
VERTEX
8
PART_TOP_COPPER_02
10
-4.2
20
-0.975
0
SEQEND
0
INSERT
2
SMOOTH_0$1
8
PART_TOP_COPPER_02
10
-4.2
20
-0.375
0
INSERT
2
SMOOTH_0$1
8
PART_TOP_COPPER_02
10
-3.9
20
-0.075
0
POLYLINE
8
PART_TOP_COPPER_01
6
TRMIDX_6
66
1
40
0.1
41
0.1
39
2.45
70
1
0
VERTEX
8
PART_TOP_COPPER_01
10
1.8
20
-0.975
42
0.4142135624
0
VERTEX
8
PART_TOP_COPPER_01
10
2.1
20
-1.275
0
VERTEX
8
PART_TOP_COPPER_01
10
3.9
20
-1.275
42
0.4142135624
0
VERTEX
8
PART_TOP_COPPER_01
10
4.2
20
-0.975
0
VERTEX
8
PART_TOP_COPPER_01
10
4.2
20
-0.375
42
0.4142135624
0
VERTEX
8
PART_TOP_COPPER_01
10
3.9
20
-0.075
0
VERTEX
8
PART_TOP_COPPER_01
10
2.1
20
-0.075
42
0.4142135624
0
VERTEX
8
PART_TOP_COPPER_01
10
1.8
20
-0.375
0
SEQEND
0
INSERT
2
SMOOTH_0$1
8
PART_TOP_COPPER_01
10
1.8
20
-0.975
0
INSERT
2
SMOOTH_0$1
8
PART_TOP_COPPER_01
10
2.1
20
-1.275
0
POLYLINE
8
PART_TOP_COPPER_02
6
TRMIDX_6
66
1
40
0.1
41
0.1
39
2.45
70
1
0
VERTEX
8
PART_TOP_COPPER_02
10
1.8
20
-0.375
42
-0.4142135624
0
VERTEX
8
PART_TOP_COPPER_02
10
2.1
20
-0.075
0
VERTEX
8
PART_TOP_COPPER_02
10
3.9
20
-0.075
42
-0.4142135624
0
VERTEX
8
PART_TOP_COPPER_02
10
4.2
20
-0.375
0
VERTEX
8
PART_TOP_COPPER_02
10
4.2
20
-0.975
42
-0.4142135624
0
VERTEX
8
PART_TOP_COPPER_02
10
3.9
20
-1.275
0
VERTEX
8
PART_TOP_COPPER_02
10
2.1
20
-1.275
42
-0.4142135624
0
VERTEX
8
PART_TOP_COPPER_02
10
1.8
20
-0.975
0
SEQEND
0
INSERT
2
SMOOTH_0$1
8
PART_TOP_COPPER_02
10
1.8
20
-0.375
0
INSERT
2
SMOOTH_0$1
8
PART_TOP_COPPER_02
10
2.1
20
-0.075
0
POLYLINE
8
PART_TOP_2DLINE_01
66
1
40
0.1
41
0.1
39
2.45
70
1
0
VERTEX
8
PART_TOP_2DLINE_01
10
-0.9
20
1.4
0
VERTEX
8
PART_TOP_2DLINE_01
10
-1.3
20
0.8
0
VERTEX
8
PART_TOP_2DLINE_01
10
-1.7
20
1.4
0
SEQEND
0
INSERT
2
SMOOTH_0$1
8
PART_TOP_2DLINE_01
10
-0.9
20
1.4
0
INSERT
2
SMOOTH_0$1
8
PART_TOP_2DLINE_01
10
-1.3
20
0.8
0
INSERT
2
SMOOTH_0$1
8
PART_TOP_2DLINE_01
10
-1.7
20
1.4
0
POLYLINE
8
PART_TOP_2DLINE_01
66
1
40
0.1
41
0.1
39
2.45
0
VERTEX
8
PART_TOP_2DLINE_01
10
-1.3
20
1.4
0
VERTEX
8
PART_TOP_2DLINE_01
10
-1.3
20
0.8
0
SEQEND
0
INSERT
2
SMOOTH_0$1
8
PART_TOP_2DLINE_01
10
-1.3
20
1.4
0
INSERT
2
SMOOTH_0$1
8
PART_TOP_2DLINE_01
10
-1.3
20
0.8
0
POLYLINE
8
PART_TOP_2DLINE_01
66
1
40
0.1
41
0.1
39
2.45
0
VERTEX
8
PART_TOP_2DLINE_01
10
-1.4
20
1.4
0
VERTEX
8
PART_TOP_2DLINE_01
10
-1.4
20
0.95
0
SEQEND
0
INSERT
2
SMOOTH_0$1
8
PART_TOP_2DLINE_01
10
-1.4
20
1.4
0
INSERT
2
SMOOTH_0$1
8
PART_TOP_2DLINE_01
10
-1.4
20
0.95
0
POLYLINE
8
PART_TOP_2DLINE_01
66
1
40
0.1
41
0.1
39
2.45
0
VERTEX
8
PART_TOP_2DLINE_01
10
-1.5
20
1.4
0
VERTEX
8
PART_TOP_2DLINE_01
10
-1.5
20
1.1
0
SEQEND
0
INSERT
2
SMOOTH_0$1
8
PART_TOP_2DLINE_01
10
-1.5
20
1.4
0
INSERT
2
SMOOTH_0$1
8
PART_TOP_2DLINE_01
10
-1.5
20
1.1
0
POLYLINE
8
PART_TOP_2DLINE_01
66
1
40
0.1
41
0.1
39
2.45
0
VERTEX
8
PART_TOP_2DLINE_01
10
-1.6
20
1.4
0
VERTEX
8
PART_TOP_2DLINE_01
10
-1.6
20
1.25
0
SEQEND
0
INSERT
2
SMOOTH_0$1
8
PART_TOP_2DLINE_01
10
-1.6
20
1.4
0
INSERT
2
SMOOTH_0$1
8
PART_TOP_2DLINE_01
10
-1.6
20
1.25
0
POLYLINE
8
PART_TOP_2DLINE_01
66
1
40
0.1
41
0.1
39
2.45
0
VERTEX
8
PART_TOP_2DLINE_01
10
-1.2
20
1.4
0
VERTEX
8
PART_TOP_2DLINE_01
10
-1.2
20
0.95
0
SEQEND
0
INSERT
2
SMOOTH_0$1
8
PART_TOP_2DLINE_01
10
-1.2
20
1.4
0
INSERT
2
SMOOTH_0$1
8
PART_TOP_2DLINE_01
10
-1.2
20
0.95
0
POLYLINE
8
PART_TOP_2DLINE_01
66
1
40
0.1
41
0.1
39
2.45
0
VERTEX
8
PART_TOP_2DLINE_01
10
-1.1
20
1.4
0
VERTEX
8
PART_TOP_2DLINE_01
10
-1.1
20
1.1
0
SEQEND
0
INSERT
2
SMOOTH_0$1
8
PART_TOP_2DLINE_01
10
-1.1
20
1.4
0
INSERT
2
SMOOTH_0$1
8
PART_TOP_2DLINE_01
10
-1.1
20
1.1
0
POLYLINE
8
PART_TOP_2DLINE_01
66
1
40
0.1
41
0.1
39
2.45
0
VERTEX
8
PART_TOP_2DLINE_01
10
-1
20
1.4
0
VERTEX
8
PART_TOP_2DLINE_01
10
-1
20
1.25
0
SEQEND
0
INSERT
2
SMOOTH_0$1
8
PART_TOP_2DLINE_01
10
-1
20
1.4
0
INSERT
2
SMOOTH_0$1
8
PART_TOP_2DLINE_01
10
-1
20
1.25
0
POLYLINE
8
PART_TOP_2DLINE_00
66
1
40
0.2
41
0.2
39
2.45
70
1
0
VERTEX
8
PART_TOP_2DLINE_00
10
-3.75
20
0
0
VERTEX
8
PART_TOP_2DLINE_00
10
3.75
20
0
0
VERTEX
8
PART_TOP_2DLINE_00
10
3.75
20
-6.1
0
VERTEX
8
PART_TOP_2DLINE_00
10
-3.75
20
-6.1
0
SEQEND
0
INSERT
2
SMOOTH_0$2
8
PART_TOP_2DLINE_00
10
-3.75
20
0
0
INSERT
2
SMOOTH_0$2
8
PART_TOP_2DLINE_00
10
3.75
20
0
0
INSERT
2
SMOOTH_0$2
8
PART_TOP_2DLINE_00
10
3.75
20
-6.1
0
INSERT
2
SMOOTH_0$2
8
PART_TOP_2DLINE_00
10
-3.75
20
-6.1
0
POLYLINE
8
PART_TOP_2DLINE_00
66
1
40
0.2
41
0.2
39
2.45
70
1
0
VERTEX
8
PART_TOP_2DLINE_00
10
-3.75
20
0
0
VERTEX
8
PART_TOP_2DLINE_00
10
3.75
20
0
0
VERTEX
8
PART_TOP_2DLINE_00
10
3.75
20
-5
0
VERTEX
8
PART_TOP_2DLINE_00
10
-3.75
20
-5
0
SEQEND
0
INSERT
2
SMOOTH_0$2
8
PART_TOP_2DLINE_00
10
-3.75
20
0
0
INSERT
2
SMOOTH_0$2
8
PART_TOP_2DLINE_00
10
3.75
20
0
0
INSERT
2
SMOOTH_0$2
8
PART_TOP_2DLINE_00
10
3.75
20
-5
0
INSERT
2
SMOOTH_0$2
8
PART_TOP_2DLINE_00
10
-3.75
20
-5
0
ENDBLK
0
BLOCK
2
STK_TOP_17
8
0
10
0
20
0
3
STK_TOP_17
70
64
0
INSERT
2
DRIL_HOLE_0
8
DRIL_PLTE_THRU_01
10
0
20
0
0
INSERT
2
DRIL_HOLE_0
8
DRIL_PLTE_THRU_02
10
0
20
0
0
INSERT
2
PAD_0
8
PADS_INNER
10
0
20
0
0
INSERT
2
PAD_0
8
PADS_BOT
10
0
20
0
0
INSERT
2
PAD_11
8
PADS_TOP
10
0
20
0
50
90
0
ENDBLK
0
BLOCK
2
STK_TOP_18
8
0
10
0
20
0
3
STK_TOP_18
70
64
0
INSERT
2
DRIL_SLOT_0002300039000000000
8
DRIL_PLTE_THRU_01
10
0
20
0
0
INSERT
2
DRIL_SLOT_0002300039000000000
8
DRIL_PLTE_THRU_02
10
0
20
0
0
INSERT
2
PAD_12
8
PADS_INNER
10
0
20
0
0
INSERT
2
PAD_12
8
PADS_BOT
10
0
20
0
0
INSERT
2
PAD_12
8
PADS_TOP
10
0
20
0
0
ENDBLK
0
BLOCK
2
STK_TOP_19
8
0
10
0
20
0
3
STK_TOP_19
70
64
0
INSERT
2
DRIL_HOLE_0
8
DRIL_PLTE_THRU_01
10
0
20
0
0
INSERT
2
DRIL_HOLE_0
8
DRIL_PLTE_THRU_02
10
0
20
0
0
INSERT
2
PAD_0
8
PADS_INNER
10
0
20
0
0
INSERT
2
PAD_0
8
PADS_BOT
10
0
20
0
0
INSERT
2
PAD_13
8
PADS_TOP
10
0
20
0
50
90
0
ENDBLK
0
BLOCK
2
STK_TOP_20
8
0
10
0
20
0
3
STK_TOP_20
70
64
0
INSERT
2
DRIL_SLOT_0002300051000000900
8
DRIL_PLTE_THRU_01
10
0
20
0
0
INSERT
2
DRIL_SLOT_0002300051000000900
8
DRIL_PLTE_THRU_02
10
0
20
0
0
INSERT
2
PAD_14
8
PADS_INNER
10
0
20
0
50
90
0
INSERT
2
PAD_14
8
PADS_BOT
10
0
20
0
50
90
0
INSERT
2
PAD_14
8
PADS_TOP
10
0
20
0
50
90
0
ENDBLK
0
BLOCK
2
PART_BODY_TOP_5
8
0
10
0
20
0
3
PART_BODY_TOP_5
70
64
0
POLYLINE
8
PART_TOP_2DLINE_00
66
1
40
0.1
41
0.1
39
1.1
70
1
0
VERTEX
8
PART_TOP_2DLINE_00
10
-1.5
20
0.5
0
VERTEX
8
PART_TOP_2DLINE_00
10
1.5
20
0.5
0
VERTEX
8
PART_TOP_2DLINE_00
10
1.5
20
-0.5
0
VERTEX
8
PART_TOP_2DLINE_00
10
-1.5
20
-0.5
0
SEQEND
0
INSERT
2
SMOOTH_0$1
8
PART_TOP_2DLINE_00
10
-1.5
20
0.5
0
INSERT
2
SMOOTH_0$1
8
PART_TOP_2DLINE_00
10
1.5
20
0.5
0
INSERT
2
SMOOTH_0$1
8
PART_TOP_2DLINE_00
10
1.5
20
-0.5
0
INSERT
2
SMOOTH_0$1
8
PART_TOP_2DLINE_00
10
-1.5
20
-0.5
0
POLYLINE
8
PART_TOP_2DLINE_115
66
1
40
0.1
41
0.1
39
1.1
70
1
0
VERTEX
8
PART_TOP_2DLINE_115
10
-1.5
20
0.6
0
VERTEX
8
PART_TOP_2DLINE_115
10
1.5
20
0.6
0
VERTEX
8
PART_TOP_2DLINE_115
10
1.5
20
-0.6
0
VERTEX
8
PART_TOP_2DLINE_115
10
-1.5
20
-0.6
0
SEQEND
0
INSERT
2
SMOOTH_0$1
8
PART_TOP_2DLINE_115
10
-1.5
20
0.6
0
INSERT
2
SMOOTH_0$1
8
PART_TOP_2DLINE_115
10
1.5
20
0.6
0
INSERT
2
SMOOTH_0$1
8
PART_TOP_2DLINE_115
10
1.5
20
-0.6
0
INSERT
2
SMOOTH_0$1
8
PART_TOP_2DLINE_115
10
-1.5
20
-0.6
0
ENDBLK
0
BLOCK
2
PART_BODY_TOP_15
8
0
10
0
20
0
3
PART_BODY_TOP_15
70
64
0
POLYLINE
8
PART_TOP_2DLINE_00
66
1
40
0.1
41
0.1
39
1.3
0
VERTEX
8
PART_TOP_2DLINE_00
10
1.5
20
0.85
0
VERTEX
8
PART_TOP_2DLINE_00
10
1.5
20
-0.85
0
SEQEND
0
INSERT
2
SMOOTH_0$1
8
PART_TOP_2DLINE_00
10
1.5
20
0.85
0
INSERT
2
SMOOTH_0$1
8
PART_TOP_2DLINE_00
10
1.5
20
-0.85
0
POLYLINE
8
PART_TOP_2DLINE_00
66
1
40
0.1
41
0.1
39
1.3
0
VERTEX
8
PART_TOP_2DLINE_00
10
-0.5
20
0.875
0
VERTEX
8
PART_TOP_2DLINE_00
10
0.5
20
0.875
0
SEQEND
0
INSERT
2
SMOOTH_0$1
8
PART_TOP_2DLINE_00
10
-0.5
20
0.875
0
INSERT
2
SMOOTH_0$1
8
PART_TOP_2DLINE_00
10
0.5
20
0.875
0
POLYLINE
8
PART_TOP_2DLINE_115
66
1
40
0.1
41
0.1
39
1.3
70
1
0
VERTEX
8
PART_TOP_2DLINE_115
10
-1.5
20
0.875
0
VERTEX
8
PART_TOP_2DLINE_115
10
1.5
20
0.875
0
VERTEX
8
PART_TOP_2DLINE_115
10
1.5
20
-0.875
0
VERTEX
8
PART_TOP_2DLINE_115
10
-1.5
20
-0.875
0
SEQEND
0
INSERT
2
SMOOTH_0$1
8
PART_TOP_2DLINE_115
10
-1.5
20
0.875
0
INSERT
2
SMOOTH_0$1
8
PART_TOP_2DLINE_115
10
1.5
20
0.875
0
INSERT
2
SMOOTH_0$1
8
PART_TOP_2DLINE_115
10
1.5
20
-0.875
0
INSERT
2
SMOOTH_0$1
8
PART_TOP_2DLINE_115
10
-1.5
20
-0.875
0
POLYLINE
8
PART_TOP_2DLINE_00
66
1
40
0.1
41
0.1
39
1.3
0
VERTEX
8
PART_TOP_2DLINE_00
10
-1.5
20
0.85
0
VERTEX
8
PART_TOP_2DLINE_00
10
-1.5
20
-0.85
0
SEQEND
0
INSERT
2
SMOOTH_0$1
8
PART_TOP_2DLINE_00
10
-1.5
20
0.85
0
INSERT
2
SMOOTH_0$1
8
PART_TOP_2DLINE_00
10
-1.5
20
-0.85
0
POLYLINE
8
PART_TOP_2DLINE_00
66
1
40
0.1
41
0.1
39
1.3
70
1
0
VERTEX
8
PART_TOP_2DLINE_00
10
-2.3
20
-0.9
0
VERTEX
8
PART_TOP_2DLINE_00
10
-1.7
20
-1.3
0
VERTEX
8
PART_TOP_2DLINE_00
10
-2.3
20
-1.7
0
SEQEND
0
INSERT
2
SMOOTH_0$1
8
PART_TOP_2DLINE_00
10
-2.3
20
-0.9
0
INSERT
2
SMOOTH_0$1
8
PART_TOP_2DLINE_00
10
-1.7
20
-1.3
0
INSERT
2
SMOOTH_0$1
8
PART_TOP_2DLINE_00
10
-2.3
20
-1.7
0
POLYLINE
8
PART_TOP_2DLINE_00
66
1
40
0.1
41
0.1
39
1.3
0
VERTEX
8
PART_TOP_2DLINE_00
10
-2.3
20
-1.3
0
VERTEX
8
PART_TOP_2DLINE_00
10
-1.7
20
-1.3
0
SEQEND
0
INSERT
2
SMOOTH_0$1
8
PART_TOP_2DLINE_00
10
-2.3
20
-1.3
0
INSERT
2
SMOOTH_0$1
8
PART_TOP_2DLINE_00
10
-1.7
20
-1.3
0
POLYLINE
8
PART_TOP_2DLINE_00
66
1
40
0.1
41
0.1
39
1.3
0
VERTEX
8
PART_TOP_2DLINE_00
10
-2.3
20
-1.4
0
VERTEX
8
PART_TOP_2DLINE_00
10
-1.85
20
-1.4
0
SEQEND
0
INSERT
2
SMOOTH_0$1
8
PART_TOP_2DLINE_00
10
-2.3
20
-1.4
0
INSERT
2
SMOOTH_0$1
8
PART_TOP_2DLINE_00
10
-1.85
20
-1.4
0
POLYLINE
8
PART_TOP_2DLINE_00
66
1
40
0.1
41
0.1
39
1.3
0
VERTEX
8
PART_TOP_2DLINE_00
10
-2.3
20
-1.5
0
VERTEX
8
PART_TOP_2DLINE_00
10
-2
20
-1.5
0
SEQEND
0
INSERT
2
SMOOTH_0$1
8
PART_TOP_2DLINE_00
10
-2.3
20
-1.5
0
INSERT
2
SMOOTH_0$1
8
PART_TOP_2DLINE_00
10
-2
20
-1.5
0
POLYLINE
8
PART_TOP_2DLINE_00
66
1
40
0.1
41
0.1
39
1.3
0
VERTEX
8
PART_TOP_2DLINE_00
10
-2.3
20
-1.6
0
VERTEX
8
PART_TOP_2DLINE_00
10
-2.15
20
-1.6
0
SEQEND
0
INSERT
2
SMOOTH_0$1
8
PART_TOP_2DLINE_00
10
-2.3
20
-1.6
0
INSERT
2
SMOOTH_0$1
8
PART_TOP_2DLINE_00
10
-2.15
20
-1.6
0
POLYLINE
8
PART_TOP_2DLINE_00
66
1
40
0.1
41
0.1
39
1.3
0
VERTEX
8
PART_TOP_2DLINE_00
10
-2.3
20
-1.2
0
VERTEX
8
PART_TOP_2DLINE_00
10
-1.85
20
-1.2
0
SEQEND
0
INSERT
2
SMOOTH_0$1
8
PART_TOP_2DLINE_00
10
-2.3
20
-1.2
0
INSERT
2
SMOOTH_0$1
8
PART_TOP_2DLINE_00
10
-1.85
20
-1.2
0
POLYLINE
8
PART_TOP_2DLINE_00
66
1
40
0.1
41
0.1
39
1.3
0
VERTEX
8
PART_TOP_2DLINE_00
10
-2.3
20
-1.1
0
VERTEX
8
PART_TOP_2DLINE_00
10
-2
20
-1.1
0
SEQEND
0
INSERT
2
SMOOTH_0$1
8
PART_TOP_2DLINE_00
10
-2.3
20
-1.1
0
INSERT
2
SMOOTH_0$1
8
PART_TOP_2DLINE_00
10
-2
20
-1.1
0
POLYLINE
8
PART_TOP_2DLINE_00
66
1
40
0.1
41
0.1
39
1.3
0
VERTEX
8
PART_TOP_2DLINE_00
10
-2.3
20
-1
0
VERTEX
8
PART_TOP_2DLINE_00
10
-2.15
20
-1
0
SEQEND
0
INSERT
2
SMOOTH_0$1
8
PART_TOP_2DLINE_00
10
-2.3
20
-1
0
INSERT
2
SMOOTH_0$1
8
PART_TOP_2DLINE_00
10
-2.15
20
-1
0
POLYLINE
8
PART_TOP_2DLINE_00
66
1
40
0.1
41
0.1
39
1.3
0
VERTEX
8
PART_TOP_2DLINE_00
10
-0.7
20
-2
0
VERTEX
8
PART_TOP_2DLINE_00
10
-1.2
20
-2
0
SEQEND
0
INSERT
2
SMOOTH_0$1
8
PART_TOP_2DLINE_00
10
-0.7
20
-2
0
INSERT
2
SMOOTH_0$1
8
PART_TOP_2DLINE_00
10
-1.2
20
-2
0
ENDBLK
0
BLOCK
2
PART_BODY_TOP_16
8
0
10
0
20
0
3
PART_BODY_TOP_16
70
64
0
POLYLINE
8
PART_TOP_2DLINE_00
66
1
40
0.1
41
0.1
39
0.95
70
1
0
VERTEX
8
PART_TOP_2DLINE_00
10
-1.4
20
0.6
0
VERTEX
8
PART_TOP_2DLINE_00
10
1.4
20
0.6
0
VERTEX
8
PART_TOP_2DLINE_00
10
1.4
20
-0.6
0
VERTEX
8
PART_TOP_2DLINE_00
10
-1.4
20
-0.6
0
SEQEND
0
INSERT
2
SMOOTH_0$1
8
PART_TOP_2DLINE_00
10
-1.4
20
0.6
0
INSERT
2
SMOOTH_0$1
8
PART_TOP_2DLINE_00
10
1.4
20
0.6
0
INSERT
2
SMOOTH_0$1
8
PART_TOP_2DLINE_00
10
1.4
20
-0.6
0
INSERT
2
SMOOTH_0$1
8
PART_TOP_2DLINE_00
10
-1.4
20
-0.6
0
POLYLINE
8
PART_TOP_2DLINE_00
66
1
40
0.1
41
0.1
39
0.95
0
VERTEX
8
PART_TOP_2DLINE_00
10
-0.25
20
0
42
-0.7997192929
0
VERTEX
8
PART_TOP_2DLINE_00
10
0
20
0
0
SEQEND
0
INSERT
2
SMOOTH_0$1
8
PART_TOP_2DLINE_00
10
-0.25
20
0
0
INSERT
2
SMOOTH_0$1
8
PART_TOP_2DLINE_00
10
0
20
0
0
POLYLINE
8
PART_TOP_2DLINE_00
66
1
40
0.1
41
0.1
39
0.95
0
VERTEX
8
PART_TOP_2DLINE_00
10
0.25
20
0
42
-0.7997192929
0
VERTEX
8
PART_TOP_2DLINE_00
10
0
20
0
0
SEQEND
0
INSERT
2
SMOOTH_0$1
8
PART_TOP_2DLINE_00
10
0.25
20
0
0
INSERT
2
SMOOTH_0$1
8
PART_TOP_2DLINE_00
10
0
20
0
0
ENDBLK
0
BLOCK
2
PART_BODY_TOP_18
8
0
10
0
20
0
3
PART_BODY_TOP_18
70
64
0
POLYLINE
8
PART_TOP_2DLINE_126
66
1
40
0.1
41
0.1
39
0.4
70
1
0
VERTEX
8
PART_TOP_2DLINE_126
10
-2.25
20
2.25
0
VERTEX
8
PART_TOP_2DLINE_126
10
2.25
20
2.25
0
VERTEX
8
PART_TOP_2DLINE_126
10
2.25
20
-2.25
0
VERTEX
8
PART_TOP_2DLINE_126
10
-2.25
20
-2.25
0
SEQEND
0
INSERT
2
SMOOTH_0$1
8
PART_TOP_2DLINE_126
10
-2.25
20
2.25
0
INSERT
2
SMOOTH_0$1
8
PART_TOP_2DLINE_126
10
2.25
20
2.25
0
INSERT
2
SMOOTH_0$1
8
PART_TOP_2DLINE_126
10
2.25
20
-2.25
0
INSERT
2
SMOOTH_0$1
8
PART_TOP_2DLINE_126
10
-2.25
20
-2.25
0
POLYLINE
8
PART_TOP_2DLINE_01
66
1
40
0.1
41
0.1
39
0.4
70
1
0
VERTEX
8
PART_TOP_2DLINE_01
10
-3.05
20
2.05
0
VERTEX
8
PART_TOP_2DLINE_01
10
-2.45
20
1.65
0
VERTEX
8
PART_TOP_2DLINE_01
10
-3.05
20
1.25
0
SEQEND
0
INSERT
2
SMOOTH_0$1
8
PART_TOP_2DLINE_01
10
-3.05
20
2.05
0
INSERT
2
SMOOTH_0$1
8
PART_TOP_2DLINE_01
10
-2.45
20
1.65
0
INSERT
2
SMOOTH_0$1
8
PART_TOP_2DLINE_01
10
-3.05
20
1.25
0
POLYLINE
8
PART_TOP_2DLINE_01
66
1
40
0.1
41
0.1
39
0.4
0
VERTEX
8
PART_TOP_2DLINE_01
10
-3.05
20
1.65
0
VERTEX
8
PART_TOP_2DLINE_01
10
-2.45
20
1.65
0
SEQEND
0
INSERT
2
SMOOTH_0$1
8
PART_TOP_2DLINE_01
10
-3.05
20
1.65
0
INSERT
2
SMOOTH_0$1
8
PART_TOP_2DLINE_01
10
-2.45
20
1.65
0
POLYLINE
8
PART_TOP_2DLINE_01
66
1
40
0.1
41
0.1
39
0.4
0
VERTEX
8
PART_TOP_2DLINE_01
10
-3.05
20
1.55
0
VERTEX
8
PART_TOP_2DLINE_01
10
-2.6
20
1.55
0
SEQEND
0
INSERT
2
SMOOTH_0$1
8
PART_TOP_2DLINE_01
10
-3.05
20
1.55
0
INSERT
2
SMOOTH_0$1
8
PART_TOP_2DLINE_01
10
-2.6
20
1.55
0
POLYLINE
8
PART_TOP_2DLINE_01
66
1
40
0.1
41
0.1
39
0.4
0
VERTEX
8
PART_TOP_2DLINE_01
10
-3.05
20
1.45
0
VERTEX
8
PART_TOP_2DLINE_01
10
-2.75
20
1.45
0
SEQEND
0
INSERT
2
SMOOTH_0$1
8
PART_TOP_2DLINE_01
10
-3.05
20
1.45
0
INSERT
2
SMOOTH_0$1
8
PART_TOP_2DLINE_01
10
-2.75
20
1.45
0
POLYLINE
8
PART_TOP_2DLINE_01
66
1
40
0.1
41
0.1
39
0.4
0
VERTEX
8
PART_TOP_2DLINE_01
10
-3.05
20
1.35
0
VERTEX
8
PART_TOP_2DLINE_01
10
-2.9
20
1.35
0
SEQEND
0
INSERT
2
SMOOTH_0$1
8
PART_TOP_2DLINE_01
10
-3.05
20
1.35
0
INSERT
2
SMOOTH_0$1
8
PART_TOP_2DLINE_01
10
-2.9
20
1.35
0
POLYLINE
8
PART_TOP_2DLINE_01
66
1
40
0.1
41
0.1
39
0.4
0
VERTEX
8
PART_TOP_2DLINE_01
10
-3.05
20
1.75
0
VERTEX
8
PART_TOP_2DLINE_01
10
-2.6
20
1.75
0
SEQEND
0
INSERT
2
SMOOTH_0$1
8
PART_TOP_2DLINE_01
10
-3.05
20
1.75
0
INSERT
2
SMOOTH_0$1
8
PART_TOP_2DLINE_01
10
-2.6
20
1.75
0
POLYLINE
8
PART_TOP_2DLINE_01
66
1
40
0.1
41
0.1
39
0.4
0
VERTEX
8
PART_TOP_2DLINE_01
10
-3.05
20
1.85
0
VERTEX
8
PART_TOP_2DLINE_01
10
-2.75
20
1.85
0
SEQEND
0
INSERT
2
SMOOTH_0$1
8
PART_TOP_2DLINE_01
10
-3.05
20
1.85
0
INSERT
2
SMOOTH_0$1
8
PART_TOP_2DLINE_01
10
-2.75
20
1.85
0
POLYLINE
8
PART_TOP_2DLINE_01
66
1
40
0.1
41
0.1
39
0.4
0
VERTEX
8
PART_TOP_2DLINE_01
10
-3.05
20
1.95
0
VERTEX
8
PART_TOP_2DLINE_01
10
-2.9
20
1.95
0
SEQEND
0
INSERT
2
SMOOTH_0$1
8
PART_TOP_2DLINE_01
10
-3.05
20
1.95
0
INSERT
2
SMOOTH_0$1
8
PART_TOP_2DLINE_01
10
-2.9
20
1.95
0
POLYLINE
8
PART_TOP_2DLINE_126
66
1
40
0.1
41
0.1
39
0.4
70
1
0
VERTEX
8
PART_TOP_2DLINE_126
10
-2.25
20
-2.25
0
VERTEX
8
PART_TOP_2DLINE_126
10
2.25
20
-2.25
0
VERTEX
8
PART_TOP_2DLINE_126
10
2.25
20
2.25
0
VERTEX
8
PART_TOP_2DLINE_126
10
-2.25
20
2.25
0
SEQEND
0
INSERT
2
SMOOTH_0$1
8
PART_TOP_2DLINE_126
10
-2.25
20
-2.25
0
INSERT
2
SMOOTH_0$1
8
PART_TOP_2DLINE_126
10
2.25
20
-2.25
0
INSERT
2
SMOOTH_0$1
8
PART_TOP_2DLINE_126
10
2.25
20
2.25
0
INSERT
2
SMOOTH_0$1
8
PART_TOP_2DLINE_126
10
-2.25
20
2.25
0
ENDBLK
0
BLOCK
2
STK_TOP_22
8
0
10
0
20
0
3
STK_TOP_22
70
64
0
INSERT
2
DRIL_HOLE_0
8
DRIL_NPLTE_THRU_01
10
0
20
0
0
INSERT
2
DRIL_HOLE_0
8
DRIL_NPLTE_THRU_02
10
0
20
0
0
INSERT
2
PAD_0
8
PADS_INNER
10
0
20
0
0
INSERT
2
PAD_0
8
PADS_BOT
10
0
20
0
0
INSERT
2
PAD_15
8
PADS_TOP
10
0
20
0
0
ENDBLK
0
BLOCK
2
PART_BODY_TOP_19
8
0
10
0
20
0
3
PART_BODY_TOP_19
70
64
0
POLYLINE
8
PART_TOP_2DLINE_01
66
1
40
0.1
41
0.1
39
0.6
70
1
0
VERTEX
8
PART_TOP_2DLINE_01
10
-1.249
20
0.5
0
VERTEX
8
PART_TOP_2DLINE_01
10
1.25
20
0.5
0
VERTEX
8
PART_TOP_2DLINE_01
10
1.25
20
-0.501
0
VERTEX
8
PART_TOP_2DLINE_01
10
-1.249
20
-0.501
0
SEQEND
0
INSERT
2
SMOOTH_0$1
8
PART_TOP_2DLINE_01
10
-1.249
20
0.5
0
INSERT
2
SMOOTH_0$1
8
PART_TOP_2DLINE_01
10
1.25
20
0.5
0
INSERT
2
SMOOTH_0$1
8
PART_TOP_2DLINE_01
10
1.25
20
-0.501
0
INSERT
2
SMOOTH_0$1
8
PART_TOP_2DLINE_01
10
-1.249
20
-0.501
0
POLYLINE
8
PART_TOP_2DLINE_01
66
1
40
0.1
41
0.1
39
0.6
70
1
0
VERTEX
8
PART_TOP_2DLINE_01
10
-0.12
20
0
0
VERTEX
8
PART_TOP_2DLINE_01
10
0.18
20
0.2
0
VERTEX
8
PART_TOP_2DLINE_01
10
0.18
20
-0.2
0
SEQEND
0
INSERT
2
SMOOTH_0$1
8
PART_TOP_2DLINE_01
10
-0.12
20
0
0
INSERT
2
SMOOTH_0$1
8
PART_TOP_2DLINE_01
10
0.18
20
0.2
0
INSERT
2
SMOOTH_0$1
8
PART_TOP_2DLINE_01
10
0.18
20
-0.2
0
POLYLINE
8
PART_TOP_2DLINE_01
66
1
40
0.1
41
0.1
39
0.6
0
VERTEX
8
PART_TOP_2DLINE_01
10
-0.17
20
0.2
0
VERTEX
8
PART_TOP_2DLINE_01
10
-0.17
20
-0.2
0
SEQEND
0
INSERT
2
SMOOTH_0$1
8
PART_TOP_2DLINE_01
10
-0.17
20
0.2
0
INSERT
2
SMOOTH_0$1
8
PART_TOP_2DLINE_01
10
-0.17
20
-0.2
0
POLYLINE
8
PART_TOP_2DLINE_01
66
1
40
0.1
41
0.1
39
0.6
0
VERTEX
8
PART_TOP_2DLINE_01
10
0
20
0
0
VERTEX
8
PART_TOP_2DLINE_01
10
0.11
20
0.07
0
VERTEX
8
PART_TOP_2DLINE_01
10
0.11
20
-0.07
0
VERTEX
8
PART_TOP_2DLINE_01
10
0
20
0
0
SEQEND
0
INSERT
2
SMOOTH_0$1
8
PART_TOP_2DLINE_01
10
0
20
0
0
INSERT
2
SMOOTH_0$1
8
PART_TOP_2DLINE_01
10
0.11
20
0.07
0
INSERT
2
SMOOTH_0$1
8
PART_TOP_2DLINE_01
10
0.11
20
-0.07
0
INSERT
2
SMOOTH_0$1
8
PART_TOP_2DLINE_01
10
0
20
0
0
ENDBLK
0
BLOCK
2
STK_TOP_23
8
0
10
0
20
0
3
STK_TOP_23
70
64
0
INSERT
2
DRIL_HOLE_0
8
DRIL_NPLTE_THRU_01
10
0
20
0
0
INSERT
2
DRIL_HOLE_0
8
DRIL_NPLTE_THRU_02
10
0
20
0
0
INSERT
2
PAD_0
8
PADS_INNER
10
0
20
0
0
INSERT
2
PAD_0
8
PADS_BOT
10
0
20
0
0
INSERT
2
PAD_2
8
PADS_XR_123
10
0
20
0
0
INSERT
2
PAD_2
8
PADS_TOP
10
0
20
0
0
ENDBLK
0
BLOCK
2
PART_BODY_TOP_17
8
0
10
0
20
0
3
PART_BODY_TOP_17
70
64
0
POLYLINE
8
PART_TOP_2DLINE_00
66
1
40
0.1
41
0.1
39
1.6
70
1
0
VERTEX
8
PART_TOP_2DLINE_00
10
-2.35
20
-1.75
0
VERTEX
8
PART_TOP_2DLINE_00
10
2.35
20
-1.75
0
VERTEX
8
PART_TOP_2DLINE_00
10
2.35
20
1.75
0
VERTEX
8
PART_TOP_2DLINE_00
10
-2.35
20
1.75
0
SEQEND
0
INSERT
2
SMOOTH_0$1
8
PART_TOP_2DLINE_00
10
-2.35
20
-1.75
0
INSERT
2
SMOOTH_0$1
8
PART_TOP_2DLINE_00
10
2.35
20
-1.75
0
INSERT
2
SMOOTH_0$1
8
PART_TOP_2DLINE_00
10
2.35
20
1.75
0
INSERT
2
SMOOTH_0$1
8
PART_TOP_2DLINE_00
10
-2.35
20
1.75
0
POLYLINE
8
PART_TOP_2DLINE_00
66
1
40
0.1
41
0.1
39
1.6
70
1
0
VERTEX
8
PART_TOP_2DLINE_00
10
-1.3
20
2.75
0
VERTEX
8
PART_TOP_2DLINE_00
10
1.3
20
2.75
0
VERTEX
8
PART_TOP_2DLINE_00
10
1.3
20
1.75
0
VERTEX
8
PART_TOP_2DLINE_00
10
-1.3
20
1.75
0
SEQEND
0
INSERT
2
SMOOTH_0$1
8
PART_TOP_2DLINE_00
10
-1.3
20
2.75
0
INSERT
2
SMOOTH_0$1
8
PART_TOP_2DLINE_00
10
1.3
20
2.75
0
INSERT
2
SMOOTH_0$1
8
PART_TOP_2DLINE_00
10
1.3
20
1.75
0
INSERT
2
SMOOTH_0$1
8
PART_TOP_2DLINE_00
10
-1.3
20
1.75
0
ENDBLK
0
BLOCK
2
STK_TOP_21
8
0
10
0
20
0
3
STK_TOP_21
70
64
0
INSERT
2
DRIL_HOLE_0
8
DRIL_NPLTE_THRU_01
10
0
20
0
0
INSERT
2
DRIL_HOLE_0
8
DRIL_NPLTE_THRU_02
10
0
20
0
0
INSERT
2
PAD_0
8
PADS_INNER
10
0
20
0
0
INSERT
2
PAD_0
8
PADS_BOT
10
0
20
0
0
INSERT
2
PAD_16
8
PADS_TOP
10
0
20
0
0
ENDBLK
0
BLOCK
2
PART_BODY_TOP_20
8
0
10
0
20
0
3
PART_BODY_TOP_20
70
64
0
POLYLINE
8
PART_TOP_2DLINE_00
66
1
40
0.1
41
0.1
39
2.44
70
1
0
VERTEX
8
PART_TOP_2DLINE_00
10
-2.375
20
-1.97
0
VERTEX
8
PART_TOP_2DLINE_00
10
2.375
20
-1.97
0
VERTEX
8
PART_TOP_2DLINE_00
10
2.375
20
1.97
0
VERTEX
8
PART_TOP_2DLINE_00
10
-2.375
20
1.97
0
SEQEND
0
INSERT
2
SMOOTH_0$1
8
PART_TOP_2DLINE_00
10
-2.375
20
-1.97
0
INSERT
2
SMOOTH_0$1
8
PART_TOP_2DLINE_00
10
2.375
20
-1.97
0
INSERT
2
SMOOTH_0$1
8
PART_TOP_2DLINE_00
10
2.375
20
1.97
0
INSERT
2
SMOOTH_0$1
8
PART_TOP_2DLINE_00
10
-2.375
20
1.97
0
ENDBLK
0
BLOCK
2
STK_TOP_24
8
0
10
0
20
0
3
STK_TOP_24
70
64
0
INSERT
2
DRIL_HOLE_0
8
DRIL_PLTE_THRU_01
10
0
20
0
0
INSERT
2
DRIL_HOLE_0
8
DRIL_PLTE_THRU_02
10
0
20
0
0
INSERT
2
PAD_17
8
PADS_INNER
10
0
20
0
0
INSERT
2
PAD_17
8
PADS_BOT
10
0
20
0
0
INSERT
2
PAD_18
8
PADS_TOP
10
0
20
0
50
90
0
ENDBLK
0
BLOCK
2
PART_BODY_TOP_22
8
0
10
0
20
0
3
PART_BODY_TOP_22
70
64
0
POLYLINE
8
TAG_01
66
1
0
VERTEX
8
TAG_01
10
0
20
0
0
VERTEX
8
TAG_01
10
0
20
0
0
SEQEND
0
POLYLINE
8
PART_TOP_2DLINE_00
66
1
40
0.1
41
0.1
39
1.1
70
1
0
VERTEX
8
PART_TOP_2DLINE_00
10
-0.7
20
1.075
0
VERTEX
8
PART_TOP_2DLINE_00
10
0.7
20
1.075
0
VERTEX
8
PART_TOP_2DLINE_00
10
0.7
20
-1.075
0
VERTEX
8
PART_TOP_2DLINE_00
10
-0.7
20
-1.075
0
SEQEND
0
INSERT
2
SMOOTH_0$1
8
PART_TOP_2DLINE_00
10
-0.7
20
1.075
0
INSERT
2
SMOOTH_0$1
8
PART_TOP_2DLINE_00
10
0.7
20
1.075
0
INSERT
2
SMOOTH_0$1
8
PART_TOP_2DLINE_00
10
0.7
20
-1.075
0
INSERT
2
SMOOTH_0$1
8
PART_TOP_2DLINE_00
10
-0.7
20
-1.075
0
POLYLINE
8
PART_TOP_2DLINE_00
66
1
40
0.1
41
0.1
39
1.1
0
VERTEX
8
PART_TOP_2DLINE_00
10
-0.5
20
0
0
VERTEX
8
PART_TOP_2DLINE_00
10
0
20
0
0
VERTEX
8
PART_TOP_2DLINE_00
10
0
20
0.5
0
SEQEND
0
INSERT
2
SMOOTH_0$1
8
PART_TOP_2DLINE_00
10
-0.5
20
0
0
INSERT
2
SMOOTH_0$1
8
PART_TOP_2DLINE_00
10
0
20
0
0
INSERT
2
SMOOTH_0$1
8
PART_TOP_2DLINE_00
10
0
20
0.5
0
POLYLINE
8
PART_TOP_2DLINE_00
66
1
40
0.1
41
0.1
39
1.1
0
VERTEX
8
PART_TOP_2DLINE_00
10
0
20
-0.5
0
VERTEX
8
PART_TOP_2DLINE_00
10
0
20
0
0
VERTEX
8
PART_TOP_2DLINE_00
10
0.5
20
0
0
SEQEND
0
INSERT
2
SMOOTH_0$1
8
PART_TOP_2DLINE_00
10
0
20
-0.5
0
INSERT
2
SMOOTH_0$1
8
PART_TOP_2DLINE_00
10
0
20
0
0
INSERT
2
SMOOTH_0$1
8
PART_TOP_2DLINE_00
10
0.5
20
0
0
POLYLINE
8
TAG_00
66
1
0
VERTEX
8
TAG_00
10
0
20
0
0
VERTEX
8
TAG_00
10
0
20
0
0
SEQEND
0
ENDBLK
0
BLOCK
2
STK_TOP_25
8
0
10
0
20
0
3
STK_TOP_25
70
64
0
INSERT
2
DRIL_HOLE_0
8
DRIL_PLTE_THRU_01
10
0
20
0
0
INSERT
2
DRIL_HOLE_0
8
DRIL_PLTE_THRU_02
10
0
20
0
0
INSERT
2
PAD_0
8
PADS_INNER
10
0
20
0
0
INSERT
2
PAD_0
8
PADS_BOT
10
0
20
0
0
INSERT
2
PAD_19
8
PADS_TOP
10
0
20
0
0
ENDBLK
0
BLOCK
2
PART_BODY_TOP_23
8
0
10
0
20
0
3
PART_BODY_TOP_23
70
64
0
POLYLINE
8
KEEPOUT_00
6
KEEPOUT_10000000$0
66
1
70
1
0
VERTEX
8
KEEPOUT_00
10
-2.5
20
0
42
1
0
VERTEX
8
KEEPOUT_00
10
2.5
20
0
42
1
0
SEQEND
0
ENDBLK
0
BLOCK
2
STK_TOP_26
8
0
10
0
20
0
3
STK_TOP_26
70
64
0
INSERT
2
DRIL_HOLE_2
8
DRIL_NPLTE_THRU_01
10
0
20
0
0
INSERT
2
DRIL_HOLE_2
8
DRIL_NPLTE_THRU_02
10
0
20
0
0
INSERT
2
PAD_20
8
PADS_INNER
10
0
20
0
0
INSERT
2
PAD_20
8
PADS_BOT
10
0
20
0
0
INSERT
2
PAD_20
8
PADS_TOP
10
0
20
0
0
ENDBLK
0
BLOCK
2
PART_BODY_TOP_24
8
0
10
0
20
0
3
PART_BODY_TOP_24
70
64
0
POLYLINE
8
PART_TOP_2DLINE_00
66
1
40
0.1
41
0.1
39
5.2
70
1
0
VERTEX
8
PART_TOP_2DLINE_00
10
0
20
0
0
VERTEX
8
PART_TOP_2DLINE_00
10
11
20
0
0
VERTEX
8
PART_TOP_2DLINE_00
10
11
20
5
0
VERTEX
8
PART_TOP_2DLINE_00
10
0
20
5
0
SEQEND
0
INSERT
2
SMOOTH_0$1
8
PART_TOP_2DLINE_00
10
0
20
0
0
INSERT
2
SMOOTH_0$1
8
PART_TOP_2DLINE_00
10
11
20
0
0
INSERT
2
SMOOTH_0$1
8
PART_TOP_2DLINE_00
10
11
20
5
0
INSERT
2
SMOOTH_0$1
8
PART_TOP_2DLINE_00
10
0
20
5
0
ENDBLK
0
BLOCK
2
STK_TOP_28
8
0
10
0
20
0
3
STK_TOP_28
70
64
0
INSERT
2
DRIL_HOLE_0
8
DRIL_PLTE_THRU_01
10
0
20
0
0
INSERT
2
DRIL_HOLE_0
8
DRIL_PLTE_THRU_02
10
0
20
0
0
INSERT
2
PAD_0
8
PADS_INNER
10
0
20
0
0
INSERT
2
PAD_0
8
PADS_BOT
10
0
20
0
0
INSERT
2
PAD_21
8
PADS_TOP
10
0
20
0
0
ENDBLK
0
BLOCK
2
STK_TOP_29
8
0
10
0
20
0
3
STK_TOP_29
70
64
0
INSERT
2
DRIL_HOLE_0
8
DRIL_PLTE_THRU_01
10
0
20
0
0
INSERT
2
DRIL_HOLE_0
8
DRIL_PLTE_THRU_02
10
0
20
0
0
INSERT
2
PAD_0
8
PADS_INNER
10
0
20
0
0
INSERT
2
PAD_0
8
PADS_BOT
10
0
20
0
0
INSERT
2
PAD_22
8
PADS_TOP
10
0
20
0
0
ENDBLK
0
BLOCK
2
STK_TOP_30
8
0
10
0
20
0
3
STK_TOP_30
70
64
0
INSERT
2
DRIL_HOLE_0
8
DRIL_PLTE_THRU_01
10
0
20
0
0
INSERT
2
DRIL_HOLE_0
8
DRIL_PLTE_THRU_02
10
0
20
0
0
INSERT
2
PAD_0
8
PADS_INNER
10
0
20
0
0
INSERT
2
PAD_0
8
PADS_BOT
10
0
20
0
0
INSERT
2
PAD_23
8
PADS_TOP
10
0
20
0
0
ENDBLK
0
BLOCK
2
STK_TOP_27
8
0
10
0
20
0
3
STK_TOP_27
70
64
0
INSERT
2
DRIL_HOLE_1$8
8
DRIL_NPLTE_THRU_01
10
0
20
0
0
INSERT
2
DRIL_HOLE_1$8
8
DRIL_NPLTE_THRU_02
10
0
20
0
0
INSERT
2
PAD_24
8
PADS_INNER
10
0
20
0
0
INSERT
2
PAD_24
8
PADS_BOT
10
0
20
0
0
INSERT
2
PAD_24
8
PADS_TOP
10
0
20
0
0
ENDBLK
0
BLOCK
2
PART_BODY_TOP_25
8
0
10
0
20
0
3
PART_BODY_TOP_25
70
64
0
POLYLINE
8
PART_TOP_2DLINE_00
66
1
40
0.1
41
0.1
39
1.05
70
1
0
VERTEX
8
PART_TOP_2DLINE_00
10
-0.85
20
-0.65
0
VERTEX
8
PART_TOP_2DLINE_00
10
0.85
20
-0.65
0
VERTEX
8
PART_TOP_2DLINE_00
10
0.85
20
0.65
0
VERTEX
8
PART_TOP_2DLINE_00
10
-0.85
20
0.65
0
SEQEND
0
INSERT
2
SMOOTH_0$1
8
PART_TOP_2DLINE_00
10
-0.85
20
-0.65
0
INSERT
2
SMOOTH_0$1
8
PART_TOP_2DLINE_00
10
0.85
20
-0.65
0
INSERT
2
SMOOTH_0$1
8
PART_TOP_2DLINE_00
10
0.85
20
0.65
0
INSERT
2
SMOOTH_0$1
8
PART_TOP_2DLINE_00
10
-0.85
20
0.65
0
ENDBLK
0
BLOCK
2
STK_TOP_31
8
0
10
0
20
0
3
STK_TOP_31
70
64
0
INSERT
2
DRIL_HOLE_0
8
DRIL_PLTE_THRU_01
10
0
20
0
0
INSERT
2
DRIL_HOLE_0
8
DRIL_PLTE_THRU_02
10
0
20
0
0
INSERT
2
PAD_0
8
PADS_INNER
10
0
20
0
0
INSERT
2
PAD_0
8
PADS_BOT
10
0
20
0
0
INSERT
2
PAD_25
8
PADS_TOP
10
0
20
0
0
ENDBLK
999
*** POWERPCB  PCB PARAMETER ***
0
BLOCK
2
PCB_PARAMS
8
0
10
0
20
0
3
PCB_PARAMS
70
64
999
 *  1.Job name           2.Backupfile name       3.CursorType
999
 *  4.TearDropFlag       5.HighlighNetsFlag      6.HatchDisplayFlag
999
 *  7.PadsFlag           8.TracksFlag            9.ViasFlag
999
 * 10.CopperFlag        11.LinesFlag            12.TextFlag
999
 * 13.TopComponentFlag  14.BottomComponentFlag  16.ObjectSnapFlags
0
TEXT
8
PCB_PARAMS
10
0
20
-3.048
40
1.778
1
A:=Plasma_Pipette_V2.0_Main_PCB_20180731_Company.pcb <> 3 0 1 1 1 0 0 0 1 1 1 1 32 508 0
999
 *  1.RefDesHeight       2.RefDesWidth           3.DefaultWidth
999
 *  4.VGX                5.VGY                   6.OVR
999
 *  7.HatchGrid          8.ObjectSnapRadius
0
TEXT
8
PCB_PARAMS
10
0
20
-6.096
40
1.778
1
B:=2.54 0.254 0.1 0.01 0.01 0 0.09 1
999
 *  1.ScaleFactor        2.NetAttributeFlags     3.BackupInterval
999
 *  4.WorkingLevel       5.HatchMode             6.HatchDirection
999
 *  7.ConnectionColor    8.BackgroundColor       9.ForegroundColor
999
 * 10.BoardOutlineColor
0
TEXT
8
PCB_PARAMS
10
0
20
-9.144
40
1.778
1
C:=7.5799407959 10002 20 1 0 0 0 0 8 8
999
 * MitreAngle0 - MitreAngle6
0
TEXT
8
PCB_PARAMS
10
0
20
-12.192
40
1.778
1
D:=324000000 324000000 324000000 324000000 324000000 324000000 162000000
999
 * Hatch & Keepout Parameters
0
TEXT
8
PCB_PARAMS
10
0
20
-15.24
40
1.778
1
E:=0.5 0 0 2 0 1
999
 * Fanout Parameters
0
TEXT
8
PCB_PARAMS
10
0
20
-18.288
40
1.778
1
F:=0.1 0.1 6.35 1 2 0 1 1 0 0 1 1 1 1
999
 * Pad Entry Parameters
0
TEXT
8
PCB_PARAMS
10
0
20
-21.336
40
1.778
1
P:= 1 1 1 1
999
 * DFF Parameters
0
TEXT
8
PCB_PARAMS
10
0
20
-24.384
40
1.778
1
Q:=89.9999 3967 114300 114300 114300 5 4 114300 114300 114300 114300 1 114300 1 114300 1 114300 0
0
ENDBLK
0
BLOCK
2
DRIL_SYMBOL_0
8
0
10
0
20
0
3
DRIL_SYMBOL_0
70
64
0
ENDBLK
0
BLOCK
2
DRIL_SYMBOL_0$6
8
0
10
0
20
0
3
DRIL_SYMBOL_0$6
70
64
0
POLYLINE
8
DRIL_SYMBOL
66
1
40
0.0508
41
0.0508
0
VERTEX
8
DRIL_SYMBOL
10
0
20
-0.254
0
VERTEX
8
DRIL_SYMBOL
10
0
20
0.254
0
SEQEND
0
POLYLINE
8
DRIL_SYMBOL
66
1
40
0.0508
41
0.0508
0
VERTEX
8
DRIL_SYMBOL
10
-0.254
20
0
0
VERTEX
8
DRIL_SYMBOL
10
0.254
20
0
0
SEQEND
0
ENDBLK
0
BLOCK
2
DRIL_SYMBOL_2
8
0
10
0
20
0
3
DRIL_SYMBOL_2
70
64
0
POLYLINE
8
DRIL_SYMBOL
66
1
40
0.0508
41
0.0508
0
VERTEX
8
DRIL_SYMBOL
10
0
20
-0.254
0
VERTEX
8
DRIL_SYMBOL
10
0
20
0.254
0
SEQEND
0
POLYLINE
8
DRIL_SYMBOL
66
1
40
0.0508
41
0.0508
0
VERTEX
8
DRIL_SYMBOL
10
-0.254
20
0
0
VERTEX
8
DRIL_SYMBOL
10
0.254
20
0
0
SEQEND
0
ENDBLK
0
BLOCK
2
DRIL_SYMBOL_1$8
8
0
10
0
20
0
3
DRIL_SYMBOL_1$8
70
64
0
POLYLINE
8
DRIL_SYMBOL
66
1
40
0.0508
41
0.0508
0
VERTEX
8
DRIL_SYMBOL
10
0
20
-0.254
0
VERTEX
8
DRIL_SYMBOL
10
0
20
0.254
0
SEQEND
0
POLYLINE
8
DRIL_SYMBOL
66
1
40
0.0508
41
0.0508
0
VERTEX
8
DRIL_SYMBOL
10
-0.254
20
0
0
VERTEX
8
DRIL_SYMBOL
10
0.254
20
0
0
SEQEND
0
ENDBLK
999
*** POWERPCB  SMOOTH CIRCLE ***
0
BLOCK
2
SMOOTH_0$1
8
0
10
0
20
0
3
SMOOTH_0$1
70
64
0
POLYLINE
8
0
66
1
40
0.05
41
0.05
70
1
0
VERTEX
8
0
10
-0.025
20
0
42
1
0
VERTEX
8
0
10
0.025
20
0
42
1
0
SEQEND
0
ENDBLK
0
BLOCK
2
SMOOTH_0$001
8
0
10
0
20
0
3
SMOOTH_0$001
70
64
0
POLYLINE
8
0
66
1
40
0.0005
41
0.0005
70
1
0
VERTEX
8
0
10
-0.00025
20
0
42
1
0
VERTEX
8
0
10
0.00025
20
0
42
1
0
SEQEND
0
ENDBLK
0
BLOCK
2
SMOOTH_0$05
8
0
10
0
20
0
3
SMOOTH_0$05
70
64
0
POLYLINE
8
0
66
1
40
0.025
41
0.025
70
1
0
VERTEX
8
0
10
-0.0125
20
0
42
1
0
VERTEX
8
0
10
0.0125
20
0
42
1
0
SEQEND
0
ENDBLK
0
BLOCK
2
SMOOTH_0$2
8
0
10
0
20
0
3
SMOOTH_0$2
70
64
0
POLYLINE
8
0
66
1
40
0.1
41
0.1
70
1
0
VERTEX
8
0
10
-0.05
20
0
42
1
0
VERTEX
8
0
10
0.05
20
0
42
1
0
SEQEND
0
ENDBLK
0
BLOCK
2
SMOOTH_0$4
8
0
10
0
20
0
3
SMOOTH_0$4
70
64
0
POLYLINE
8
0
66
1
40
0.2
41
0.2
70
1
0
VERTEX
8
0
10
-0.1
20
0
42
1
0
VERTEX
8
0
10
0.1
20
0
42
1
0
SEQEND
0
ENDBLK
0
BLOCK
2
PAD_0
8
0
10
0
20
0
3
PAD_0
70
64
0
POLYLINE
8
0
70
1
66
1
0
VERTEX
8
0
10
0
20
0
42
1
0
VERTEX
8
0
10
0
20
0
42
1
0
SEQEND
0
ENDBLK
0
BLOCK
2
PAD_1
8
0
10
0
20
0
3
PAD_1
70
64
0
POLYLINE
8
0
66
1
40
0.5
41
0.5
0
VERTEX
8
0
10
-0.25
20
0
0
VERTEX
8
0
10
0.25
20
0
0
SEQEND
0
ENDBLK
0
BLOCK
2
PAD_2
8
0
10
0
20
0
3
PAD_2
70
64
0
POLYLINE
8
0
66
1
40
0.8
41
0.8
0
VERTEX
8
0
10
-0.4
20
0
0
VERTEX
8
0
10
0.4
20
0
0
SEQEND
0
ENDBLK
0
BLOCK
2
PAD_3
8
0
10
0
20
0
3
PAD_3
70
64
0
POLYLINE
8
0
66
1
40
0.6
41
0.6
0
VERTEX
8
0
10
-0.5
20
0
0
VERTEX
8
0
10
0.5
20
0
0
SEQEND
0
ENDBLK
0
BLOCK
2
PAD_4
8
0
10
0
20
0
3
PAD_4
70
64
0
POLYLINE
8
0
66
1
40
0.3
41
0.3
0
VERTEX
8
0
10
-0.75
20
0
0
VERTEX
8
0
10
0.75
20
0
0
SEQEND
0
ENDBLK
0
BLOCK
2
PAD_5
8
0
10
0
20
0
3
PAD_5
70
64
0
POLYLINE
8
0
66
1
40
1.2
41
1.2
0
VERTEX
8
0
10
-0.6
20
0
0
VERTEX
8
0
10
0.6
20
0
0
SEQEND
0
ENDBLK
0
BLOCK
2
PAD_6
8
0
10
0
20
0
3
PAD_6
70
64
0
POLYLINE
8
0
66
1
40
0.75
41
0.75
0
VERTEX
8
0
10
-0.69
20
0
0
VERTEX
8
0
10
0.69
20
0
0
SEQEND
0
ENDBLK
0
BLOCK
2
PAD_7
8
0
10
0
20
0
3
PAD_7
70
64
0
POLYLINE
8
0
66
1
40
1.1
41
1.1
0
VERTEX
8
0
10
-1.16
20
0
0
VERTEX
8
0
10
1.16
20
0
0
SEQEND
0
ENDBLK
0
BLOCK
2
PAD_8
8
0
10
0
20
0
3
PAD_8
70
64
0
POLYLINE
8
0
66
1
40
0.8
41
0.8
0
VERTEX
8
0
10
-1
20
0
0
VERTEX
8
0
10
1
20
0
0
SEQEND
0
ENDBLK
0
BLOCK
2
PAD_9
8
0
10
0
20
0
3
PAD_9
70
64
0
POLYLINE
8
0
66
1
40
0.515
41
0.515
0
VERTEX
8
0
10
-2.54
20
0
0
VERTEX
8
0
10
2.54
20
0
0
SEQEND
0
ENDBLK
0
BLOCK
2
PAD_10
8
0
10
0
20
0
3
PAD_10
70
64
0
POLYLINE
8
0
66
1
40
0.5
41
0.5
0
VERTEX
8
0
10
-0.8
20
0
0
VERTEX
8
0
10
0.8
20
0
0
SEQEND
0
ENDBLK
0
BLOCK
2
PAD_11
8
0
10
0
20
0
3
PAD_11
70
64
0
POLYLINE
8
0
66
1
40
0.4
41
0.4
0
VERTEX
8
0
10
-0.675
20
0
0
VERTEX
8
0
10
0.675
20
0
0
SEQEND
0
ENDBLK
0
BLOCK
2
PAD_12
8
0
10
0
20
0
3
PAD_12
70
64
0
POLYLINE
8
0
70
1
66
1
40
0.6
41
0.6
0
VERTEX
8
0
10
-0.15
20
-0.3
0
VERTEX
8
0
10
0.15
20
-0.3
42
1
0
VERTEX
8
0
10
0.15
20
0.3
0
VERTEX
8
0
10
-0.15
20
0.3
42
1
0
SEQEND
0
ENDBLK
0
BLOCK
2
PAD_13
8
0
10
0
20
0
3
PAD_13
70
64
0
POLYLINE
8
0
66
1
40
1.525
41
1.525
0
VERTEX
8
0
10
-1
20
0
0
VERTEX
8
0
10
1
20
0
0
SEQEND
0
ENDBLK
0
BLOCK
2
PAD_14
8
0
10
0
20
0
3
PAD_14
70
64
0
POLYLINE
8
0
70
1
66
1
40
0.65
41
0.65
0
VERTEX
8
0
10
-0.45
20
-0.325
0
VERTEX
8
0
10
0.45
20
-0.325
42
1
0
VERTEX
8
0
10
0.45
20
0.325
0
VERTEX
8
0
10
-0.45
20
0.325
42
1
0
SEQEND
0
ENDBLK
0
BLOCK
2
PAD_15
8
0
10
0
20
0
3
PAD_15
70
64
0
POLYLINE
8
0
66
1
40
0.7
41
0.7
0
VERTEX
8
0
10
-0.425
20
0
0
VERTEX
8
0
10
0.425
20
0
0
SEQEND
0
ENDBLK
0
BLOCK
2
PAD_16
8
0
10
0
20
0
3
PAD_16
70
64
0
POLYLINE
8
0
66
1
40
1.2
41
1.2
0
VERTEX
8
0
10
-1.125
20
0
0
VERTEX
8
0
10
1.125
20
0
0
SEQEND
0
ENDBLK
0
BLOCK
2
PAD_17
8
0
10
0
20
0
3
PAD_17
70
64
0
POLYLINE
8
0
66
1
0
VERTEX
8
0
10
0
20
0
0
VERTEX
8
0
10
0
20
0
0
SEQEND
0
ENDBLK
0
BLOCK
2
PAD_18
8
0
10
0
20
0
3
PAD_18
70
64
0
POLYLINE
8
0
66
1
40
2.16
41
2.16
0
VERTEX
8
0
10
-1.13
20
0
0
VERTEX
8
0
10
1.13
20
0
0
SEQEND
0
ENDBLK
0
BLOCK
2
PAD_19
8
0
10
0
20
0
3
PAD_19
70
64
0
POLYLINE
8
0
66
1
40
0.4
41
0.4
0
VERTEX
8
0
10
-0.45
20
0
0
VERTEX
8
0
10
0.45
20
0
0
SEQEND
0
ENDBLK
0
BLOCK
2
PAD_20
8
0
10
0
20
0
3
PAD_20
70
64
0
POLYLINE
8
0
70
1
66
1
40
1
41
1
0
VERTEX
8
0
10
0
20
-0.5
42
1
0
VERTEX
8
0
10
0
20
0.5
42
1
0
SEQEND
0
ENDBLK
0
BLOCK
2
PAD_21
8
0
10
0
20
0
3
PAD_21
70
64
0
POLYLINE
8
0
66
1
40
1.5
41
1.5
0
VERTEX
8
0
10
-1
20
0
0
VERTEX
8
0
10
1
20
0
0
SEQEND
0
ENDBLK
0
BLOCK
2
PAD_22
8
0
10
0
20
0
3
PAD_22
70
64
0
POLYLINE
8
0
66
1
40
2
41
2
0
VERTEX
8
0
10
-1.1
20
0
0
VERTEX
8
0
10
1.1
20
0
0
SEQEND
0
ENDBLK
0
BLOCK
2
PAD_23
8
0
10
0
20
0
3
PAD_23
70
64
0
POLYLINE
8
0
66
1
40
1.2
41
1.2
0
VERTEX
8
0
10
-0.9
20
0
0
VERTEX
8
0
10
0.9
20
0
0
SEQEND
0
ENDBLK
0
BLOCK
2
PAD_24
8
0
10
0
20
0
3
PAD_24
70
64
0
POLYLINE
8
0
70
1
66
1
40
0.9
41
0.9
0
VERTEX
8
0
10
0
20
-0.45
42
1
0
VERTEX
8
0
10
0
20
0.45
42
1
0
SEQEND
0
ENDBLK
0
BLOCK
2
PAD_25
8
0
10
0
20
0
3
PAD_25
70
64
0
POLYLINE
8
0
66
1
40
0.45
41
0.45
0
VERTEX
8
0
10
-0.295
20
0
0
VERTEX
8
0
10
0.295
20
0
0
SEQEND
0
ENDBLK
999
*** POWERPCB  DRILL HOLE ***
0
BLOCK
2
DRIL_HOLE_0
8
0
10
0
20
0
3
DRIL_HOLE_0
70
64
0
POLYLINE
8
0
66
1
70
1
0
VERTEX
8
0
10
0
20
0
42
1
0
VERTEX
8
0
10
0
20
0
42
1
0
SEQEND
0
INSERT
2
DRIL_SYMBOL_0
8
0
10
0
20
0
0
ENDBLK
0
BLOCK
2
DRIL_HOLE_0$6
8
0
10
0
20
0
3
DRIL_HOLE_0$6
70
64
0
POLYLINE
8
0
66
1
40
0.3
41
0.3
70
1
0
VERTEX
8
0
10
-0.15
20
0
42
1
0
VERTEX
8
0
10
0.15
20
0
42
1
0
SEQEND
0
INSERT
2
DRIL_SYMBOL_0$6
8
0
10
0
20
0
0
ENDBLK
0
BLOCK
2
DRIL_HOLE_2
8
0
10
0
20
0
3
DRIL_HOLE_2
70
64
0
POLYLINE
8
0
66
1
40
1
41
1
70
1
0
VERTEX
8
0
10
-0.5
20
0
42
1
0
VERTEX
8
0
10
0.5
20
0
42
1
0
SEQEND
0
INSERT
2
DRIL_SYMBOL_2
8
0
10
0
20
0
0
ENDBLK
0
BLOCK
2
DRIL_HOLE_1$8
8
0
10
0
20
0
3
DRIL_HOLE_1$8
70
64
0
POLYLINE
8
0
66
1
40
0.9
41
0.9
70
1
0
VERTEX
8
0
10
-0.45
20
0
42
1
0
VERTEX
8
0
10
0.45
20
0
42
1
0
SEQEND
0
INSERT
2
DRIL_SYMBOL_1$8
8
0
10
0
20
0
0
ENDBLK
0
BLOCK
2
DRIL_SLOT_0002300039000000000
8
0
10
0
20
0
3
DRIL_SLOT_0002300039000000000
70
64
0
POLYLINE
8
0
70
1
66
1
40
0.3
41
0.3
0
VERTEX
8
0
10
-0.2
20
-0.15
0
VERTEX
8
0
10
0.2
20
-0.15
42
1
0
VERTEX
8
0
10
0.2
20
0.15
0
VERTEX
8
0
10
-0.2
20
0.15
42
1
0
SEQEND
0
ENDBLK
0
BLOCK
2
DRIL_SLOT_0002300051000000900
8
0
10
0
20
0
3
DRIL_SLOT_0002300051000000900
70
64
0
POLYLINE
8
0
70
1
66
1
40
0.3
41
0.3
0
VERTEX
8
0
10
0.15
20
-0.35
0
VERTEX
8
0
10
0.15
20
0.35
42
1
0
VERTEX
8
0
10
-0.15
20
0.35
0
VERTEX
8
0
10
-0.15
20
-0.35
42
1
0
SEQEND
0
ENDBLK
0
ENDSEC
0
SECTION
2
ENTITIES
999
*** POWERPCB  DBLAYER ***
0
INSERT
2
DBLAYERS
8
0
10
0
20
0
999
*** POWERPCB  BOARD ***
0
INSERT
2
BOARD_1
8
0
10
0
20
1
999
*** POWERPCB  2DLINE ***
999
*** POWERPCB  FREE TEXT ***
999
*** POWERPCB  COMPONENT ***
0
INSERT
2
PART_TOP_0
8
0
10
18.8
20
17.9
50
180
0
INSERT
2
PART_TOP_1
8
0
10
16.75
20
27.5
0
INSERT
2
PART_TOP_2
8
0
10
18
20
41.4
50
180
0
INSERT
2
PART_TOP_3
8
0
10
18
20
45.8
50
180
0
INSERT
2
PART_TOP_4
8
0
10
31.6
20
54
50
180
0
INSERT
2
PART_TOP_5
8
0
10
31.2
20
36
50
180
0
INSERT
2
PART_TOP_6
8
0
10
36.4
20
49
0
INSERT
2
PART_TOP_7
8
0
10
23.85
20
54.32
50
90
0
INSERT
2
PART_TOP_8
8
0
10
18
20
48
50
180
0
INSERT
2
PART_TOP_9
8
0
10
17.5
20
54.4
50
180
0
INSERT
2
PART_TOP_10
8
0
10
4.4
20
16.6
0
INSERT
2
PART_TOP_11
8
0
10
4.4
20
15.4
0
INSERT
2
PART_TOP_12
8
0
10
18
20
46.8
50
180
0
INSERT
2
PART_TOP_13
8
0
10
3.1
20
8.4
50
180
0
INSERT
2
PART_TOP_14
8
0
10
11.9
20
14.7
50
90
0
INSERT
2
PART_TOP_15
8
0
10
25.4
20
5.4
0
INSERT
2
PART_TOP_16
8
0
10
17.6
20
36.4
50
180
0
INSERT
2
PART_TOP_17
8
0
10
35.9
20
54.2
50
90
0
INSERT
2
PART_TOP_18
8
0
10
16.2
20
14.8
50
90
0
INSERT
2
PART_TOP_19
8
0
10
17.3
20
30.2
0
INSERT
2
PART_TOP_20
8
0
10
4.4
20
40.2
50
180
0
INSERT
2
PART_TOP_21
8
0
10
12.2
20
40.2
50
180
0
INSERT
2
PART_TOP_22
8
0
10
8
20
13.8
50
180
0
INSERT
2
PART_TOP_23
8
0
10
13
20
49
0
INSERT
2
PART_TOP_24
8
0
10
18.8
20
18.9
0
INSERT
2
PART_TOP_25
8
0
10
18.8
20
19.9
50
180
0
INSERT
2
PART_TOP_26
8
0
10
12.2
20
44
50
270
0
INSERT
2
PART_TOP_27
8
0
10
18
20
43.8
50
180
0
INSERT
2
PART_TOP_28
8
0
10
3.4
20
43.6
50
270
0
INSERT
2
PART_TOP_29
8
0
10
31.6
20
55.2
0
INSERT
2
PART_TOP_30
8
0
10
6.8
20
52.6
0
INSERT
2
PART_TOP_31
8
0
10
13
20
53.6
0
INSERT
2
PART_TOP_32
8
0
10
13
20
52.6
0
INSERT
2
PART_TOP_33
8
0
10
9
20
17
50
90
0
INSERT
2
PART_TOP_34
8
0
10
8
20
10.4
50
270
0
INSERT
2
PART_TOP_35
8
0
10
6.8
20
51.6
0
INSERT
2
PART_TOP_36
8
0
10
13
20
50.2
50
180
0
INSERT
2
PART_TOP_37
8
0
10
13
20
51.2
0
INSERT
2
PART_TOP_38
8
0
10
1.6
20
15.4
50
180
0
INSERT
2
PART_TOP_39
8
0
10
14.8
20
46.8
50
180
0
INSERT
2
PART_TOP_40
8
0
10
14.8
20
47.8
50
180
0
INSERT
2
PART_TOP_41
8
0
10
15.4
20
18
50
180
0
INSERT
2
PART_TOP_42
8
0
10
27.2
20
45.2
50
270
0
INSERT
2
PART_TOP_43
8
0
10
27.1
20
54.3
0
INSERT
2
PART_TOP_44
8
0
10
21.6
20
13.8
0
INSERT
2
PART_TOP_45
8
0
10
17.3
20
33.6
50
180
0
INSERT
2
PART_TOP_46
8
0
10
16.2
20
9.8
50
180
0
INSERT
2
PART_TOP_47
8
0
10
27
20
60
0
INSERT
2
PART_TOP_48
8
0
10
33
20
60.9
50
180
0
INSERT
2
PART_TOP_49
8
0
10
33
20
60
50
180
0
INSERT
2
PART_TOP_50
8
0
10
33
20
59.1
50
180
0
INSERT
2
PART_TOP_51
8
0
10
0.94
20
58
50
270
0
INSERT
2
PART_TOP_52
8
0
10
8.4
20
40.2
50
180
0
INSERT
2
PART_TOP_53
8
0
10
3
20
12.2
0
INSERT
2
PART_TOP_54
8
0
10
25.8
20
22.8
50
90
0
INSERT
2
PART_TOP_55
8
0
10
27.6
20
22.8
50
90
0
INSERT
2
PART_TOP_56
8
0
10
3.4
20
51.8
50
270
0
INSERT
2
PART_TOP_57
8
0
10
22.1
20
54.27
50
90
0
INSERT
2
PART_TOP_58
8
0
10
21.3
20
54.27
50
90
0
INSERT
2
PART_TOP_59
8
0
10
29.9
20
16.1
50
90
0
INSERT
2
PART_TOP_60
8
0
10
8
20
34.25
50
270
0
INSERT
2
PART_TOP_61
8
0
10
8
20
22.25
50
270
0
INSERT
2
PART_TOP_62
8
0
10
31.2
20
26.8
0
INSERT
2
PART_TOP_63
8
0
10
31.2
20
34.8
0
INSERT
2
PART_TOP_64
8
0
10
31.2
20
31.4
0
INSERT
2
PART_TOP_65
8
0
10
27.05
20
26.75
0
INSERT
2
PART_TOP_66
8
0
10
27.05
20
31.25
0
INSERT
2
PART_TOP_67
8
0
10
27.05
20
35.75
0
INSERT
2
PART_TOP_68
8
0
10
8
20
46.25
50
270
0
INSERT
2
PART_TOP_69
8
0
10
27
20
68.2
0
INSERT
2
PART_TOP_70
8
0
10
10.2
20
30.2
50
180
0
INSERT
2
PART_TOP_71
8
0
10
10.2
20
26.8
50
180
0
INSERT
2
PART_TOP_72
8
0
10
10.2
20
27.8
0
INSERT
2
PART_TOP_73
8
0
10
10.2
20
29.2
0
INSERT
2
PART_TOP_74
8
0
10
31.55
20
12.65
0
INSERT
2
PART_TOP_75
8
0
10
31.5
20
16.1
50
90
0
INSERT
2
PART_TOP_76
8
0
10
23.5
20
9.7
50
180
0
INSERT
2
PART_TOP_77
8
0
10
17.5
20
55.2
0
INSERT
2
PART_TOP_78
8
0
10
17.4
20
57.6
0
INSERT
2
PART_TOP_79
8
0
10
-2
20
68
0
INSERT
2
PART_TOP_80
8
0
10
38
20
68
0
INSERT
2
PART_TOP_81
8
0
10
16.5
20
73
50
270
0
INSERT
2
PART_TOP_82
8
0
10
20.9
20
5.4
50
90
0
INSERT
2
PART_TOP_83
8
0
10
22.7
20
5.4
50
90
0
INSERT
2
PART_TOP_84
8
0
10
31.35
20
7.65
50
180
0
INSERT
2
PART_TOP_85
8
0
10
29.4
20
63.6
999
*** POWERPCB  PCB PARAMETER ***
0
INSERT
2
PCB_PARAMS
8
0
10
0
20
0
0
ENDSEC
0
EOF
