0
SECTION
2
HEADER
999
*** POWERPCB  HEADER ***
9
$EXTMIN
10
-4.42
20
-20.227
9
$EXTMAX
10
40.333304
20
70.05
9
$FILLMODE
70
0
9
$GRIDMODE
70
1
9
$GRIDUNIT
10
1
20
1
9
$INSBASE
10
-457.2
20
-458.2
9
$LIMCHECK
70
0
9
$PLINEWID
40
0.01
9
$SNAPMODE
70
1
9
$SNAPUNIT
10
0.01
20
0.01
9
$TEXTSIZE
40
2.54
9
$TEXTSTYLE
7
W0$254
9
$USERI1
70
101
9
$USERI2
70
1
9
$USERI5
70
150
9
$VIEWCTR
10
2.0734253333
20
36.755996
0
ENDSEC
0
SECTION
2
TABLES
999
*** POWERPCB  LAYER ***
0
TABLE
2
LAYER
70
21
0
LAYER
2
DBLAYERS
70
1
62
-254
6
CONTINUOUS
0
LAYER
2
BOARD_OUTLINE_00
70
0
62
254
6
CONTINUOUS
0
LAYER
2
LABEL_INFO
70
1
62
-254
6
CONTINUOUS
0
LAYER
2
LABEL_ATTRIBUTE
70
1
62
-254
6
CONTINUOUS
0
LAYER
2
PART_NAME_02
70
0
62
254
6
CONTINUOUS
0
LAYER
2
PART_TYPE_02
70
1
62
-250
6
CONTINUOUS
0
LAYER
2
PART_INFO
70
1
62
-254
6
CONTINUOUS
0
LAYER
2
PART_PTS
70
1
62
-254
6
CONTINUOUS
0
LAYER
2
SYM_NAME
70
1
62
-254
6
CONTINUOUS
0
LAYER
2
SYM_PART_TYPE_01
70
1
62
-254
6
CONTINUOUS
0
LAYER
2
SYM_PART_NAME_01
70
1
62
-254
6
CONTINUOUS
0
LAYER
2
SYM_TERMINAL
70
1
62
-254
6
CONTINUOUS
0
LAYER
2
PKG_INFO
70
1
62
-254
6
CONTINUOUS
0
LAYER
2
PART_BOT_2DLINE_00
70
0
62
183
6
CONTINUOUS
0
LAYER
2
DRIL_PLTE_THRU_01
70
1
62
-96
6
CONTINUOUS
0
LAYER
2
DRIL_PLTE_THRU_02
70
0
62
2
6
CONTINUOUS
0
LAYER
2
PADS_INNER
70
0
62
34
6
CONTINUOUS
0
LAYER
2
PADS_BOT
70
0
62
34
6
CONTINUOUS
0
LAYER
2
PADS_TOP
70
1
62
-3
6
CONTINUOUS
0
LAYER
2
PCB_PARAMS
70
1
62
-254
6
CONTINUOUS
0
LAYER
2
DRIL_SYMBOL
70
0
62
254
6
CONTINUOUS
0
ENDTAB
999
*** POWERPCB  TEXT STYLE ***
0
TABLE
2
STYLE
70
6
0
STYLE
2
W0$1
70
64
40
0
41
0.75
42
0
50
0
71
0
3
simplex
0
STYLE
2
W0$0381
70
64
40
0
41
0.75
42
0
50
0
71
0
3
simplex
0
STYLE
2
W0$127
70
64
40
0
41
0.75
42
0
50
0
71
0
3
simplex
0
STYLE
2
W0$0381R0
70
64
40
0
41
0.75
42
0
50
0
71
0
3
simplex
0
STYLE
2
W0$127R0
70
64
40
0
41
0.75
42
0
50
0
71
0
3
simplex
0
STYLE
2
W0$254
70
64
40
0
41
0.75
42
0
50
0
71
0
3
simplex
0
ENDTAB
0
ENDSEC
0
SECTION
2
BLOCKS
999
*** POWERPCB  DBLAYER ***
0
BLOCK
2
DBLAYERS
8
0
10
0
20
0
3
DBLAYERS
70
64
0
TEXT
8
DBLAYERS
10
0
20
-3.048
40
1.778
1
__It__Is__Job__Name__:=Plasma_Pipette_V2.0_Main_PCB_20180731_Company.pcb
999
 *  1.Number             2.Type                  3.RouteColor
999
 *  4.ViaColor           5.PadColor              6.CopperColor
999
 *  7.2DLineColor        8.TextColor             9.ErrorColor
999
 * 10.TopComponentColor 11.BottomComponentColor 12.RoutingDirection
999
 * 13.LayerThickness    14.CopperThickness      15.Dielectric
999
 * 16.IsRouteable       17.IsVisible            18.IsSelectable
999
 * 19.IsPrepreg         20.AssSilkScreen        21.AssPasteMask
999
 * 22.AssSolderMask     23.AssAssembly
0
TEXT
8
DBLAYERS
10
0
20
-6.096
40
1.778
1
Bottom:=2 1 22 22 22 22 8 8 22 0 29 1 0 51435 3.2999999523 1 1 1 0 129 122 128 130 0 0 1 8 0 12 23 
0
ENDBLK
999
*** POWERPCB  BOARD ***
0
BLOCK
2
BOARD_1
8
0
10
0
20
0
3
BOARD_1
70
64
0
POLYLINE
8
BOARD_OUTLINE_00
66
1
40
0.1
41
0.1
70
1
0
VERTEX
8
BOARD_OUTLINE_00
10
1
20
-1
0
VERTEX
8
BOARD_OUTLINE_00
10
35
20
-1.01
0
VERTEX
8
BOARD_OUTLINE_00
10
35
20
6.499974
42
-0.4142135624
0
VERTEX
8
BOARD_OUTLINE_00
10
35.5001186667
20
6.999974
0
VERTEX
8
BOARD_OUTLINE_00
10
36.4956713333
20
6.9997373333
0
VERTEX
8
BOARD_OUTLINE_00
10
37.88
20
29
0
VERTEX
8
BOARD_OUTLINE_00
10
37.411438
20
29
42
-0.4322206989
0
VERTEX
8
BOARD_OUTLINE_00
10
36.912366
20
29.5304513333
0
VERTEX
8
BOARD_OUTLINE_00
10
37.4615073333
20
38.5304513333
42
-0.3964328274
0
VERTEX
8
BOARD_OUTLINE_00
10
37.9605793333
20
39
0
VERTEX
8
BOARD_OUTLINE_00
10
38.51
20
39
0
VERTEX
8
BOARD_OUTLINE_00
10
40.2797593333
20
67.08708
42
0.4327386422
0
VERTEX
8
BOARD_OUTLINE_00
10
38.4833046667
20
69
0
VERTEX
8
BOARD_OUTLINE_00
10
19.9997753333
20
69
0
VERTEX
8
BOARD_OUTLINE_00
10
20.0002806667
20
68.94
42
-0.9699138635
0
VERTEX
8
BOARD_OUTLINE_00
10
18
20
68.94
0
VERTEX
8
BOARD_OUTLINE_00
10
18
20
69
0
VERTEX
8
BOARD_OUTLINE_00
10
12
20
69
0
VERTEX
8
BOARD_OUTLINE_00
10
12
20
55.7
42
-0.4142135624
0
VERTEX
8
BOARD_OUTLINE_00
10
11.3
20
55
0
VERTEX
8
BOARD_OUTLINE_00
10
6.7
20
55
42
-0.4142135624
0
VERTEX
8
BOARD_OUTLINE_00
10
6
20
55.7
0
VERTEX
8
BOARD_OUTLINE_00
10
6
20
69
0
VERTEX
8
BOARD_OUTLINE_00
10
-2.4833046667
20
69
42
0.4327386422
0
VERTEX
8
BOARD_OUTLINE_00
10
-4.2797593333
20
67.08708
0
VERTEX
8
BOARD_OUTLINE_00
10
-3.924906
20
61.5950946667
0
VERTEX
8
BOARD_OUTLINE_00
10
-3.92
20
61.5801886667
0
VERTEX
8
BOARD_OUTLINE_00
10
-3.92
20
61.17
42
-0.4142135624
0
VERTEX
8
BOARD_OUTLINE_00
10
-4.12
20
60.97
0
VERTEX
8
BOARD_OUTLINE_00
10
-4.17
20
60.97
42
0.4142135624
0
VERTEX
8
BOARD_OUTLINE_00
10
-4.37
20
60.77
0
VERTEX
8
BOARD_OUTLINE_00
10
-4.37
20
53.3000026667
42
0.4142135624
0
VERTEX
8
BOARD_OUTLINE_00
10
-4.0699973333
20
53
0
VERTEX
8
BOARD_OUTLINE_00
10
-3.67
20
53
42
-0.4142135624
0
VERTEX
8
BOARD_OUTLINE_00
10
-3.37
20
52.7
0
VERTEX
8
BOARD_OUTLINE_00
10
-3.37
20
52.6329166667
0
VERTEX
8
BOARD_OUTLINE_00
10
-3.3398793333
20
52.2601206667
0
VERTEX
8
BOARD_OUTLINE_00
10
-2.5053926667
20
39
0
VERTEX
8
BOARD_OUTLINE_00
10
-1.96996
20
39
42
-0.3964328274
0
VERTEX
8
BOARD_OUTLINE_00
10
-1.470918
20
38.5309406667
0
VERTEX
8
BOARD_OUTLINE_00
10
-0.912918
20
29.5309406667
42
-0.4322206989
0
VERTEX
8
BOARD_OUTLINE_00
10
-1.41196
20
29
0
VERTEX
8
BOARD_OUTLINE_00
10
-1.88
20
29
0
VERTEX
8
BOARD_OUTLINE_00
10
-0.498168
20
7
0
VERTEX
8
BOARD_OUTLINE_00
10
0.5
20
7
42
-0.4142135624
0
VERTEX
8
BOARD_OUTLINE_00
10
1
20
6.5
0
SEQEND
0
INSERT
2
SMOOTH_0$1
8
BOARD_OUTLINE_00
10
1
20
-1
0
INSERT
2
SMOOTH_0$1
8
BOARD_OUTLINE_00
10
35
20
-1.01
0
INSERT
2
SMOOTH_0$1
8
BOARD_OUTLINE_00
10
35
20
6.499974
0
ENDBLK
999
*** POWERPCB  2DLINE ***
999
*** POWERPCB  COMPONENT ***
0
BLOCK
2
PART_BOT_86
8
0
10
0
20
0
3
PART_BOT_86
70
64
0
INSERT
2
SYM_BOT_28
8
0
10
0
20
0
0
INSERT
2
PKG_23
8
0
10
0
20
0
41
-1
0
TEXT
8
LABEL_INFO
10
-1
20
3
40
0.7
1
0 0 0 0 0 1
41
0.75
7
W0$1
0
TEXT
8
LABEL_ATTRIBUTE
10
-1
20
3
40
0.7
1
Ref.Des.
41
0.75
7
W0$1
0
TEXT
8
PART_NAME_02
10
-1
20
3
40
0.7
1
BATT
41
0.75
7
W0$1
0
TEXT
8
LABEL_INFO
10
0
20
0
40
0.2667
1
0 0 0 2 0 1
73
2
11
0
21
0
41
0.75
7
W0$0381
0
TEXT
8
LABEL_ATTRIBUTE
10
0
20
0
40
0.2667
1
PartType
73
2
11
0
21
0
41
0.75
7
W0$0381
0
TEXT
8
PART_TYPE_02
10
0
20
0
40
0.2667
1
1746142
73
3
11
0
21
0
41
0.75
7
W0$0381
0
TEXT
8
PART_INFO
10
0
20
-0.381
40
0.2667
1
000000
71
2
73
3
11
0
21
-0.381
41
0.75
7
W0$0381
0
TEXT
8
PART_PTS
10
0
20
-0.762
40
0.2667
1
1 2 3 4 5 
71
2
73
3
11
0
21
-0.762
41
0.75
7
W0$0381
0
ENDBLK
0
BLOCK
2
PART_BOT_87
8
0
10
0
20
0
3
PART_BOT_87
70
64
0
INSERT
2
SYM_BOT_29
8
0
10
0
20
0
0
INSERT
2
PKG_24
8
0
10
0
20
0
41
-1
0
TEXT
8
LABEL_INFO
10
3.55
20
-2.1499993333
40
0.889
1
0 324000000 0 0 0 1
50
180
41
0.75
7
W0$127
0
TEXT
8
LABEL_ATTRIBUTE
10
3.55
20
-2.1499993333
40
0.889
1
Ref.Des.
50
180
41
0.75
7
W0$127
0
TEXT
8
PART_NAME_02
10
3.55
20
-2.1499993333
40
0.889
1
J3
50
180
41
0.75
7
W0$127
0
TEXT
8
LABEL_INFO
10
1.8
20
2.93
40
0.889
1
0 0 0 2 0 1
73
2
11
1.8
21
2.93
41
0.75
7
W0$127
0
TEXT
8
LABEL_ATTRIBUTE
10
1.8
20
2.93
40
0.889
1
PartType
73
2
11
1.8
21
2.93
41
0.75
7
W0$127
0
TEXT
8
PART_TYPE_02
10
1.8
20
2.93
40
0.889
1
053048-0610
73
3
11
1.8
21
2.93
41
0.75
7
W0$127
0
TEXT
8
PART_INFO
10
1.8
20
1.66
40
0.889
1
000000
71
2
73
3
11
1.8
21
1.66
41
0.75
7
W0$127
0
TEXT
8
PART_PTS
10
1.8
20
0.39
40
0.889
1
1 2 3 4 5 6 
71
2
73
3
11
1.8
21
0.39
41
0.75
7
W0$127
0
ENDBLK
0
BLOCK
2
PART_BOT_88
8
0
10
0
20
0
3
PART_BOT_88
70
64
0
INSERT
2
SYM_BOT_30
8
0
10
0
20
0
0
INSERT
2
PKG_25
8
0
10
0
20
0
41
-1
0
TEXT
8
LABEL_INFO
10
0.2
20
-2.3
40
0.889
1
0 324000000 0 0 0 1
50
180
41
0.75
7
W0$127
0
TEXT
8
LABEL_ATTRIBUTE
10
0.2
20
-2.3
40
0.889
1
Ref.Des.
50
180
41
0.75
7
W0$127
0
TEXT
8
PART_NAME_02
10
0.2
20
-2.3
40
0.889
1
J2
50
180
41
0.75
7
W0$127
0
TEXT
8
LABEL_INFO
10
-0.6
20
-4.5
40
0.889
1
0 0 0 2 0 1
73
2
11
-0.6
21
-4.5
41
0.75
7
W0$127
0
TEXT
8
LABEL_ATTRIBUTE
10
-0.6
20
-4.5
40
0.889
1
PartType
73
2
11
-0.6
21
-4.5
41
0.75
7
W0$127
0
TEXT
8
PART_TYPE_02
10
-0.6
20
-4.5
40
0.889
1
X605SF
73
3
11
-0.6
21
-4.5
41
0.75
7
W0$127
0
TEXT
8
PART_INFO
10
-0.6
20
-5.77
40
0.889
1
000000
71
2
73
3
11
-0.6
21
-5.77
41
0.75
7
W0$127
0
TEXT
8
PART_PTS
10
-0.6
20
-7.04
40
0.889
1
1 2 
71
2
73
3
11
-0.6
21
-7.04
41
0.75
7
W0$127
0
ENDBLK
0
BLOCK
2
SYM_BOT_28
8
0
10
0
20
0
3
SYM_BOT_28
70
64
0
TEXT
8
SYM_NAME
10
0
20
0
40
1.778
1
1746142
41
0.75
0
TEXT
8
SYM_PART_TYPE_01
10
0
20
0
40
0.2667
1
 
73
2
11
0
21
0
41
0.75
7
W0$0381R0
0
TEXT
8
SYM_PART_NAME_01
10
0
20
0
40
0.2667
1
 
41
0.75
7
W0$0381R0
0
INSERT
2
PART_BODY_BOT_26
8
0
10
0
20
0
0
INSERT
2
STK_BOT_32
8
0
10
3.2
20
-2.75
0
TEXT
8
SYM_TERMINAL
10
0
20
-3.048
40
1.778
1
1
0
INSERT
2
STK_BOT_32
8
0
10
0
20
-2.75
0
TEXT
8
SYM_TERMINAL
10
0
20
-6.096
40
1.778
1
2
0
INSERT
2
STK_BOT_32
8
0
10
-3.2
20
-2.75
0
TEXT
8
SYM_TERMINAL
10
0
20
-9.144
40
1.778
1
3
0
INSERT
2
STK_BOT_33
8
0
10
5.7
20
0.45
0
TEXT
8
SYM_TERMINAL
10
0
20
-12.192
40
1.778
1
4
0
INSERT
2
STK_BOT_33
8
0
10
-5.7
20
0.45
0
TEXT
8
SYM_TERMINAL
10
0
20
-15.24
40
1.778
1
5
0
INSERT
2
STK_BOT_34
8
0
10
3
20
0
0
TEXT
8
SYM_TERMINAL
10
0
20
-18.288
40
1.778
1
6
0
INSERT
2
STK_BOT_34
8
0
10
-3
20
0
0
TEXT
8
SYM_TERMINAL
10
0
20
-21.336
40
1.778
1
7
0
ENDBLK
0
BLOCK
2
PKG_23
8
0
10
0
20
0
3
PKG_23
70
64
0
TEXT
8
PKG_INFO
10
0
20
0
40
1.778
1
*SYM:= 28
0
TEXT
8
PKG_INFO
10
0
20
-3.048
40
1.778
1
*PKG:= 0 1746142 UND
0
TEXT
8
PKG_INFO
10
0
20
-6.096
40
1.778
1
*GATE:=0
0
TEXT
8
PKG_INFO
10
0
20
-9.144
40
1.778
1
*GATEPIN:= 0 9 1 VBAT
0
TEXT
8
PKG_INFO
10
0
20
-12.192
40
1.778
1
*GATEPIN:= 0 9 2 TH
0
TEXT
8
PKG_INFO
10
0
20
-15.24
40
1.778
1
*GATEPIN:= 0 9 3 GND
0
TEXT
8
PKG_INFO
10
0
20
-18.288
40
1.778
1
*GATEPIN:= 0 9 4 GND
0
TEXT
8
PKG_INFO
10
0
20
-21.336
40
1.778
1
*GATEPIN:= 0 9 5 GND
0
TEXT
8
PKG_INFO
10
0
20
-24.384
40
1.778
1
*GATEPIN:= 0 9 6 H1
0
TEXT
8
PKG_INFO
10
0
20
-27.432
40
1.778
1
*GATEPIN:= 0 9 7 H2
0
ENDBLK
0
BLOCK
2
SYM_BOT_29
8
0
10
0
20
0
3
SYM_BOT_29
70
64
0
TEXT
8
SYM_NAME
10
0
20
0
40
1.778
1
053048-0610
41
0.75
0
TEXT
8
SYM_PART_TYPE_01
10
1.8
20
2.93
40
0.889
1
 
73
2
11
1.8
21
2.93
41
0.75
7
W0$127R0
0
TEXT
8
SYM_PART_NAME_01
10
1.97
20
-2.26
40
0.889
1
 
41
0.75
7
W0$127R0
0
INSERT
2
PART_BODY_BOT_27
8
0
10
0
20
0
0
INSERT
2
STK_BOT_35
8
0
10
0
20
0
0
TEXT
8
SYM_TERMINAL
10
0
20
-3.048
40
1.778
1
1
0
INSERT
2
STK_BOT_35
8
0
10
1.25
20
0
0
TEXT
8
SYM_TERMINAL
10
0
20
-6.096
40
1.778
1
2
0
INSERT
2
STK_BOT_35
8
0
10
2.5
20
0
0
TEXT
8
SYM_TERMINAL
10
0
20
-9.144
40
1.778
1
3
0
INSERT
2
STK_BOT_35
8
0
10
3.75
20
0
0
TEXT
8
SYM_TERMINAL
10
0
20
-12.192
40
1.778
1
4
0
INSERT
2
STK_BOT_35
8
0
10
5
20
0
0
TEXT
8
SYM_TERMINAL
10
0
20
-15.24
40
1.778
1
5
0
INSERT
2
STK_BOT_35
8
0
10
6.25
20
0
0
TEXT
8
SYM_TERMINAL
10
0
20
-18.288
40
1.778
1
6
0
ENDBLK
0
BLOCK
2
PKG_24
8
0
10
0
20
0
3
PKG_24
70
64
0
TEXT
8
PKG_INFO
10
0
20
0
40
1.778
1
*SYM:= 29
0
TEXT
8
PKG_INFO
10
0
20
-3.048
40
1.778
1
*PKG:= 0 053048-0610 UND
0
TEXT
8
PKG_INFO
10
0
20
-6.096
40
1.778
1
*GATE:=0
0
TEXT
8
PKG_INFO
10
0
20
-9.144
40
1.778
1
*GATEPIN:= 0 9 1 <>
0
TEXT
8
PKG_INFO
10
0
20
-12.192
40
1.778
1
*GATEPIN:= 0 9 2 <>
0
TEXT
8
PKG_INFO
10
0
20
-15.24
40
1.778
1
*GATEPIN:= 0 9 3 <>
0
TEXT
8
PKG_INFO
10
0
20
-18.288
40
1.778
1
*GATEPIN:= 0 9 4 <>
0
TEXT
8
PKG_INFO
10
0
20
-21.336
40
1.778
1
*GATEPIN:= 0 9 5 <>
0
TEXT
8
PKG_INFO
10
0
20
-24.384
40
1.778
1
*GATEPIN:= 0 9 6 <>
0
ENDBLK
0
BLOCK
2
SYM_BOT_30
8
0
10
0
20
0
3
SYM_BOT_30
70
64
0
TEXT
8
SYM_NAME
10
0
20
0
40
1.778
1
X605SF
41
0.75
0
TEXT
8
SYM_PART_TYPE_01
10
-0.6
20
-4.5
40
0.889
1
 
73
2
11
-0.6
21
-4.5
41
0.75
7
W0$127R0
0
TEXT
8
SYM_PART_NAME_01
10
-0.6
20
-4.5
40
0.889
1
 
41
0.75
7
W0$127R0
0
INSERT
2
PART_BODY_BOT_28
8
0
10
0
20
0
0
INSERT
2
STK_BOT_37
8
0
10
-2
20
0
0
TEXT
8
SYM_TERMINAL
10
0
20
-3.048
40
1.778
1
1
0
INSERT
2
STK_BOT_37
8
0
10
2
20
0
0
TEXT
8
SYM_TERMINAL
10
0
20
-6.096
40
1.778
1
2
0
ENDBLK
0
BLOCK
2
PKG_25
8
0
10
0
20
0
3
PKG_25
70
64
0
TEXT
8
PKG_INFO
10
0
20
0
40
1.778
1
*SYM:= 30
0
TEXT
8
PKG_INFO
10
0
20
-3.048
40
1.778
1
*PKG:= 0 X605SF UND
0
TEXT
8
PKG_INFO
10
0
20
-6.096
40
1.778
1
*GATE:=0
0
TEXT
8
PKG_INFO
10
0
20
-9.144
40
1.778
1
*GATEPIN:= 0 9 1 <>
0
TEXT
8
PKG_INFO
10
0
20
-12.192
40
1.778
1
*GATEPIN:= 0 9 2 <>
0
ENDBLK
0
BLOCK
2
PART_BODY_BOT_26
8
0
10
0
20
0
3
PART_BODY_BOT_26
70
64
0
POLYLINE
8
PART_BOT_2DLINE_00
66
1
40
0.2
41
0.2
39
-3.5
70
1
0
VERTEX
8
PART_BOT_2DLINE_00
10
-6.41
20
1.6
0
VERTEX
8
PART_BOT_2DLINE_00
10
6.39
20
1.6
0
VERTEX
8
PART_BOT_2DLINE_00
10
6.39
20
-2.19
0
VERTEX
8
PART_BOT_2DLINE_00
10
-6.41
20
-2.19
0
SEQEND
0
INSERT
2
SMOOTH_0$2
8
PART_BOT_2DLINE_00
10
-6.41
20
1.6
0
INSERT
2
SMOOTH_0$2
8
PART_BOT_2DLINE_00
10
6.39
20
1.6
0
INSERT
2
SMOOTH_0$2
8
PART_BOT_2DLINE_00
10
6.39
20
-2.19
0
INSERT
2
SMOOTH_0$2
8
PART_BOT_2DLINE_00
10
-6.41
20
-2.19
0
ENDBLK
0
BLOCK
2
STK_BOT_32
8
0
10
0
20
0
3
STK_BOT_32
70
64
0
INSERT
2
DRIL_HOLE_0
8
DRIL_PLTE_THRU_01
10
0
20
0
0
INSERT
2
DRIL_HOLE_0
8
DRIL_PLTE_THRU_02
10
0
20
0
0
INSERT
2
PAD_0
8
PADS_INNER
10
0
20
0
0
INSERT
2
PAD_1
8
PADS_BOT
10
0
20
0
0
INSERT
2
PAD_0
8
PADS_TOP
10
0
20
0
0
ENDBLK
0
BLOCK
2
STK_BOT_33
8
0
10
0
20
0
3
STK_BOT_33
70
64
0
INSERT
2
DRIL_HOLE_0
8
DRIL_PLTE_THRU_01
10
0
20
0
0
INSERT
2
DRIL_HOLE_0
8
DRIL_PLTE_THRU_02
10
0
20
0
0
INSERT
2
PAD_0
8
PADS_INNER
10
0
20
0
0
INSERT
2
PAD_2
8
PADS_BOT
10
0
20
0
50
90
0
INSERT
2
PAD_0
8
PADS_TOP
10
0
20
0
0
ENDBLK
0
BLOCK
2
STK_BOT_34
8
0
10
0
20
0
3
STK_BOT_34
70
64
0
INSERT
2
DRIL_HOLE_1$2
8
DRIL_PLTE_THRU_01
10
0
20
0
0
INSERT
2
DRIL_HOLE_1$2
8
DRIL_PLTE_THRU_02
10
0
20
0
0
INSERT
2
PAD_3
8
PADS_INNER
10
0
20
0
0
INSERT
2
PAD_3
8
PADS_BOT
10
0
20
0
0
INSERT
2
PAD_3
8
PADS_TOP
10
0
20
0
0
ENDBLK
0
BLOCK
2
PART_BODY_BOT_27
8
0
10
0
20
0
3
PART_BODY_BOT_27
70
64
0
POLYLINE
8
PART_BOT_2DLINE_00
66
1
40
0.1
41
0.1
39
-3.5
70
1
0
VERTEX
8
PART_BOT_2DLINE_00
10
-1.5
20
-1.05
0
VERTEX
8
PART_BOT_2DLINE_00
10
7.75
20
-1.05
0
VERTEX
8
PART_BOT_2DLINE_00
10
7.75
20
4.45
0
VERTEX
8
PART_BOT_2DLINE_00
10
-1.5
20
4.45
0
SEQEND
0
INSERT
2
SMOOTH_0$1
8
PART_BOT_2DLINE_00
10
-1.5
20
-1.05
0
INSERT
2
SMOOTH_0$1
8
PART_BOT_2DLINE_00
10
7.75
20
-1.05
0
INSERT
2
SMOOTH_0$1
8
PART_BOT_2DLINE_00
10
7.75
20
4.45
0
INSERT
2
SMOOTH_0$1
8
PART_BOT_2DLINE_00
10
-1.5
20
4.45
0
POLYLINE
8
PART_BOT_2DLINE_00
66
1
40
0.1
41
0.1
39
-3.5
70
1
0
VERTEX
8
PART_BOT_2DLINE_00
10
-1.95
20
-0.2
0
VERTEX
8
PART_BOT_2DLINE_00
10
-2.75
20
0.2
0
VERTEX
8
PART_BOT_2DLINE_00
10
-2.75
20
-0.6
0
SEQEND
0
INSERT
2
SMOOTH_0$1
8
PART_BOT_2DLINE_00
10
-1.95
20
-0.2
0
INSERT
2
SMOOTH_0$1
8
PART_BOT_2DLINE_00
10
-2.75
20
0.2
0
INSERT
2
SMOOTH_0$1
8
PART_BOT_2DLINE_00
10
-2.75
20
-0.6
0
ENDBLK
0
BLOCK
2
STK_BOT_35
8
0
10
0
20
0
3
STK_BOT_35
70
64
0
INSERT
2
DRIL_HOLE_0$5
8
DRIL_PLTE_THRU_01
10
0
20
0
0
INSERT
2
DRIL_HOLE_0$5
8
DRIL_PLTE_THRU_02
10
0
20
0
0
INSERT
2
PAD_4
8
PADS_INNER
10
0
20
0
0
INSERT
2
PAD_4
8
PADS_BOT
10
0
20
0
0
INSERT
2
PAD_4
8
PADS_TOP
10
0
20
0
0
ENDBLK
0
BLOCK
2
PART_BODY_BOT_28
8
0
10
0
20
0
3
PART_BODY_BOT_28
70
64
0
POLYLINE
8
PART_BOT_2DLINE_00
66
1
40
0.254
41
0.254
39
-12.19
70
1
0
VERTEX
8
PART_BOT_2DLINE_00
10
-4
20
-1
0
VERTEX
8
PART_BOT_2DLINE_00
10
4
20
-1
0
VERTEX
8
PART_BOT_2DLINE_00
10
4
20
22.4
0
VERTEX
8
PART_BOT_2DLINE_00
10
-4
20
22.4
0
SEQEND
0
INSERT
2
SMOOTH_0$254
8
PART_BOT_2DLINE_00
10
-4
20
-1
0
INSERT
2
SMOOTH_0$254
8
PART_BOT_2DLINE_00
10
4
20
-1
0
INSERT
2
SMOOTH_0$254
8
PART_BOT_2DLINE_00
10
4
20
22.4
0
INSERT
2
SMOOTH_0$254
8
PART_BOT_2DLINE_00
10
-4
20
22.4
0
ENDBLK
0
BLOCK
2
STK_BOT_37
8
0
10
0
20
0
3
STK_BOT_37
70
64
0
INSERT
2
DRIL_HOLE_1$1
8
DRIL_PLTE_THRU_01
10
0
20
0
0
INSERT
2
DRIL_HOLE_1$1
8
DRIL_PLTE_THRU_02
10
0
20
0
0
INSERT
2
PAD_5
8
PADS_INNER
10
0
20
0
0
INSERT
2
PAD_5
8
PADS_BOT
10
0
20
0
0
INSERT
2
PAD_5
8
PADS_TOP
10
0
20
0
0
ENDBLK
999
*** POWERPCB  PCB PARAMETER ***
0
BLOCK
2
PCB_PARAMS
8
0
10
0
20
0
3
PCB_PARAMS
70
64
999
 *  1.Job name           2.Backupfile name       3.CursorType
999
 *  4.TearDropFlag       5.HighlighNetsFlag      6.HatchDisplayFlag
999
 *  7.PadsFlag           8.TracksFlag            9.ViasFlag
999
 * 10.CopperFlag        11.LinesFlag            12.TextFlag
999
 * 13.TopComponentFlag  14.BottomComponentFlag  16.ObjectSnapFlags
0
TEXT
8
PCB_PARAMS
10
0
20
-3.048
40
1.778
1
A:=Plasma_Pipette_V2.0_Main_PCB_20180731_Company.pcb <> 3 0 1 1 1 0 0 0 1 1 1 1 32 508 0
999
 *  1.RefDesHeight       2.RefDesWidth           3.DefaultWidth
999
 *  4.VGX                5.VGY                   6.OVR
999
 *  7.HatchGrid          8.ObjectSnapRadius
0
TEXT
8
PCB_PARAMS
10
0
20
-6.096
40
1.778
1
B:=2.54 0.254 0.1 0.01 0.01 0 0.09 1
999
 *  1.ScaleFactor        2.NetAttributeFlags     3.BackupInterval
999
 *  4.WorkingLevel       5.HatchMode             6.HatchDirection
999
 *  7.ConnectionColor    8.BackgroundColor       9.ForegroundColor
999
 * 10.BoardOutlineColor
0
TEXT
8
PCB_PARAMS
10
0
20
-9.144
40
1.778
1
C:=7.5799407959 10002 20 1 0 0 0 0 8 8
999
 * MitreAngle0 - MitreAngle6
0
TEXT
8
PCB_PARAMS
10
0
20
-12.192
40
1.778
1
D:=324000000 324000000 324000000 324000000 324000000 324000000 162000000
999
 * Hatch & Keepout Parameters
0
TEXT
8
PCB_PARAMS
10
0
20
-15.24
40
1.778
1
E:=0.5 0 0 2 0 1
999
 * Fanout Parameters
0
TEXT
8
PCB_PARAMS
10
0
20
-18.288
40
1.778
1
F:=0.1 0.1 6.35 1 2 0 1 1 0 0 1 1 1 1
999
 * Pad Entry Parameters
0
TEXT
8
PCB_PARAMS
10
0
20
-21.336
40
1.778
1
P:= 1 1 1 1
999
 * DFF Parameters
0
TEXT
8
PCB_PARAMS
10
0
20
-24.384
40
1.778
1
Q:=89.9999 3967 114300 114300 114300 5 4 114300 114300 114300 114300 1 114300 1 114300 1 114300 0
0
ENDBLK
0
BLOCK
2
DRIL_SYMBOL_0
8
0
10
0
20
0
3
DRIL_SYMBOL_0
70
64
0
ENDBLK
0
BLOCK
2
DRIL_SYMBOL_1$2
8
0
10
0
20
0
3
DRIL_SYMBOL_1$2
70
64
0
POLYLINE
8
DRIL_SYMBOL
66
1
40
0.0508
41
0.0508
0
VERTEX
8
DRIL_SYMBOL
10
0
20
-0.254
0
VERTEX
8
DRIL_SYMBOL
10
0
20
0.254
0
SEQEND
0
POLYLINE
8
DRIL_SYMBOL
66
1
40
0.0508
41
0.0508
0
VERTEX
8
DRIL_SYMBOL
10
-0.254
20
0
0
VERTEX
8
DRIL_SYMBOL
10
0.254
20
0
0
SEQEND
0
ENDBLK
0
BLOCK
2
DRIL_SYMBOL_0$5
8
0
10
0
20
0
3
DRIL_SYMBOL_0$5
70
64
0
POLYLINE
8
DRIL_SYMBOL
66
1
40
0.0508
41
0.0508
0
VERTEX
8
DRIL_SYMBOL
10
0
20
-0.254
0
VERTEX
8
DRIL_SYMBOL
10
0
20
0.254
0
SEQEND
0
POLYLINE
8
DRIL_SYMBOL
66
1
40
0.0508
41
0.0508
0
VERTEX
8
DRIL_SYMBOL
10
-0.254
20
0
0
VERTEX
8
DRIL_SYMBOL
10
0.254
20
0
0
SEQEND
0
ENDBLK
0
BLOCK
2
DRIL_SYMBOL_1$1
8
0
10
0
20
0
3
DRIL_SYMBOL_1$1
70
64
0
POLYLINE
8
DRIL_SYMBOL
66
1
40
0.0508
41
0.0508
0
VERTEX
8
DRIL_SYMBOL
10
0
20
-0.254
0
VERTEX
8
DRIL_SYMBOL
10
0
20
0.254
0
SEQEND
0
POLYLINE
8
DRIL_SYMBOL
66
1
40
0.0508
41
0.0508
0
VERTEX
8
DRIL_SYMBOL
10
-0.254
20
0
0
VERTEX
8
DRIL_SYMBOL
10
0.254
20
0
0
SEQEND
0
ENDBLK
999
*** POWERPCB  SMOOTH CIRCLE ***
0
BLOCK
2
SMOOTH_0$1
8
0
10
0
20
0
3
SMOOTH_0$1
70
64
0
POLYLINE
8
0
66
1
40
0.05
41
0.05
70
1
0
VERTEX
8
0
10
-0.025
20
0
42
1
0
VERTEX
8
0
10
0.025
20
0
42
1
0
SEQEND
0
ENDBLK
0
BLOCK
2
SMOOTH_0$2
8
0
10
0
20
0
3
SMOOTH_0$2
70
64
0
POLYLINE
8
0
66
1
40
0.1
41
0.1
70
1
0
VERTEX
8
0
10
-0.05
20
0
42
1
0
VERTEX
8
0
10
0.05
20
0
42
1
0
SEQEND
0
ENDBLK
0
BLOCK
2
SMOOTH_0$254
8
0
10
0
20
0
3
SMOOTH_0$254
70
64
0
POLYLINE
8
0
66
1
40
0.127
41
0.127
70
1
0
VERTEX
8
0
10
-0.0635
20
0
42
1
0
VERTEX
8
0
10
0.0635
20
0
42
1
0
SEQEND
0
ENDBLK
0
BLOCK
2
PAD_0
8
0
10
0
20
0
3
PAD_0
70
64
0
POLYLINE
8
0
66
1
0
VERTEX
8
0
10
0
20
0
0
VERTEX
8
0
10
0
20
0
0
SEQEND
0
ENDBLK
0
BLOCK
2
PAD_1
8
0
10
0
20
0
3
PAD_1
70
64
0
POLYLINE
8
0
66
1
40
1.5
41
1.5
0
VERTEX
8
0
10
-0.9
20
0
0
VERTEX
8
0
10
0.9
20
0
0
SEQEND
0
ENDBLK
0
BLOCK
2
PAD_2
8
0
10
0
20
0
3
PAD_2
70
64
0
POLYLINE
8
0
66
1
40
1.8
41
1.8
0
VERTEX
8
0
10
-1.05
20
0
0
VERTEX
8
0
10
1.05
20
0
0
SEQEND
0
ENDBLK
0
BLOCK
2
PAD_3
8
0
10
0
20
0
3
PAD_3
70
64
0
POLYLINE
8
0
70
1
66
1
40
0.6
41
0.6
0
VERTEX
8
0
10
0
20
-0.3
42
1
0
VERTEX
8
0
10
0
20
0.3
42
1
0
SEQEND
0
ENDBLK
0
BLOCK
2
PAD_4
8
0
10
0
20
0
3
PAD_4
70
64
0
POLYLINE
8
0
70
1
66
1
40
0.45
41
0.45
0
VERTEX
8
0
10
0
20
-0.225
42
1
0
VERTEX
8
0
10
0
20
0.225
42
1
0
SEQEND
0
ENDBLK
0
BLOCK
2
PAD_5
8
0
10
0
20
0
3
PAD_5
70
64
0
POLYLINE
8
0
70
1
66
1
40
0.9
41
0.9
0
VERTEX
8
0
10
0
20
-0.45
42
1
0
VERTEX
8
0
10
0
20
0.45
42
1
0
SEQEND
0
ENDBLK
999
*** POWERPCB  DRILL HOLE ***
0
BLOCK
2
DRIL_HOLE_0
8
0
10
0
20
0
3
DRIL_HOLE_0
70
64
0
POLYLINE
8
0
66
1
70
1
0
VERTEX
8
0
10
0
20
0
42
1
0
VERTEX
8
0
10
0
20
0
42
1
0
SEQEND
0
INSERT
2
DRIL_SYMBOL_0
8
0
10
0
20
0
0
ENDBLK
0
BLOCK
2
DRIL_HOLE_1$2
8
0
10
0
20
0
3
DRIL_HOLE_1$2
70
64
0
POLYLINE
8
0
66
1
40
0.6
41
0.6
70
1
0
VERTEX
8
0
10
-0.3
20
0
42
1
0
VERTEX
8
0
10
0.3
20
0
42
1
0
SEQEND
0
INSERT
2
DRIL_SYMBOL_1$2
8
0
10
0
20
0
0
ENDBLK
0
BLOCK
2
DRIL_HOLE_0$5
8
0
10
0
20
0
3
DRIL_HOLE_0$5
70
64
0
POLYLINE
8
0
66
1
40
0.25
41
0.25
70
1
0
VERTEX
8
0
10
-0.125
20
0
42
1
0
VERTEX
8
0
10
0.125
20
0
42
1
0
SEQEND
0
INSERT
2
DRIL_SYMBOL_0$5
8
0
10
0
20
0
0
ENDBLK
0
BLOCK
2
DRIL_HOLE_1$1
8
0
10
0
20
0
3
DRIL_HOLE_1$1
70
64
0
POLYLINE
8
0
66
1
40
0.55
41
0.55
70
1
0
VERTEX
8
0
10
-0.275
20
0
42
1
0
VERTEX
8
0
10
0.275
20
0
42
1
0
SEQEND
0
INSERT
2
DRIL_SYMBOL_1$1
8
0
10
0
20
0
0
ENDBLK
0
ENDSEC
0
SECTION
2
ENTITIES
999
*** POWERPCB  DBLAYER ***
0
INSERT
2
DBLAYERS
8
0
10
0
20
0
999
*** POWERPCB  BOARD ***
0
INSERT
2
BOARD_1
8
0
10
0
20
1
999
*** POWERPCB  2DLINE ***
999
*** POWERPCB  FREE TEXT ***
999
*** POWERPCB  COMPONENT ***
0
INSERT
2
PART_BOT_86
8
0
10
7.9
20
4.4
41
-1
0
INSERT
2
PART_BOT_87
8
0
10
17.85
20
2.45
50
-180
41
-1
0
INSERT
2
PART_BOT_88
8
0
10
30
20
2.3
50
-180
41
-1
999
*** POWERPCB  PCB PARAMETER ***
0
INSERT
2
PCB_PARAMS
8
0
10
0
20
0
0
ENDSEC
0
EOF
