*
*
G04 PADS VX.2.3 Build Number: 9191294 generated Gerber (RS-274-X) file*
G04 PC Version=2.1*
*
%IN "Plasma_Pipette_V2.0_Mai"*%
*
%MOIN*%
*
%FSLAX35Y35*%
*
*
*
*
G04 PC Standard Apertures*
*
*
G04 Thermal Relief Aperture macro.*
%AMTER*
1,1,$1,0,0*
1,0,$1-$2,0,0*
21,0,$3,$4,0,0,45*
21,0,$3,$4,0,0,135*
%
*
*
G04 Annular Aperture macro.*
%AMANN*
1,1,$1,0,0*
1,0,$2,0,0*
%
*
*
G04 Odd Aperture macro.*
%AMODD*
1,1,$1,0,0*
1,0,$1-0.005,0,0*
%
*
*
G04 PC Custom Aperture Macros*
*
*
*
*
*
*
G04 PC Aperture Table*
*
%ADD010C,0.001*%
%ADD020C,0.00394*%
%ADD045R,0.02165X0.02165*%
%ADD046R,0.04921X0.04921*%
%ADD047O,0.08858X0.05315*%
%ADD048C,0.0374*%
%ADD050R,0.03346X0.03346*%
%ADD051C,0.08071*%
%ADD052C,0.07283*%
%ADD053R,0.06496X0.02165*%
%ADD054R,0.04134X0.02559*%
%ADD055R,0.02559X0.04134*%
%ADD059R,0.02224X0.20197*%
%ADD060R,0.05512X0.01772*%
%ADD061R,0.08071X0.06201*%
%ADD062R,0.09055X0.04921*%
%ADD063R,0.08701X0.09094*%
%ADD064R,0.0374X0.01772*%
%ADD065R,0.06102X0.08071*%
%ADD066R,0.08071X0.08858*%
%ADD067R,0.04921X0.07283*%
%ADD069R,0.01378X0.06102*%
%ADD070R,0.06102X0.01378*%
%ADD083R,0.0563X0.0315*%
%ADD084R,0.09331X0.04528*%
%ADD085R,0.03346X0.08071*%
%ADD086R,0.02953X0.03543*%
%ADD096R,0.02953X0.04134*%
%ADD097R,0.02362X0.0252*%
*
*
*
*
G04 PC Circuitry*
G04 Layer Name Plasma_Pipette_V2.0_Mai - circuitry*
%LPD*%
*
*
G04 PC Custom Flashes*
G04 Layer Name Plasma_Pipette_V2.0_Mai - flashes*
%LPD*%
*
*
G04 PC Circuitry*
G04 Layer Name Plasma_Pipette_V2.0_Mai - circuitry*
%LPD*%
*
G54D10*
G54D20*
G01X192106Y158248D02*
X185138D01*
Y150453*
X192106*
Y158248*
X185236Y150453D02*
Y158248D01*
X185433Y150453D02*
Y158248D01*
X185630Y150453D02*
Y158248D01*
X185827Y150453D02*
Y158248D01*
X186024Y150453D02*
Y158248D01*
X186220Y150453D02*
Y158248D01*
X186417Y150453D02*
Y158248D01*
X186614Y150453D02*
Y158248D01*
X186811Y150453D02*
Y158248D01*
X187008Y150453D02*
Y158248D01*
X187205Y150453D02*
Y158248D01*
X187402Y150453D02*
Y158248D01*
X187598Y150453D02*
Y158248D01*
X187795Y150453D02*
Y158248D01*
X187992Y150453D02*
Y158248D01*
X188189Y150453D02*
Y158248D01*
X188386Y150453D02*
Y158248D01*
X188583Y150453D02*
Y158248D01*
X188780Y150453D02*
Y158248D01*
X188976Y150453D02*
Y158248D01*
X189173Y150453D02*
Y158248D01*
X189370Y150453D02*
Y158248D01*
X189567Y150453D02*
Y158248D01*
X189764Y150453D02*
Y158248D01*
X189961Y150453D02*
Y158248D01*
X190157Y150453D02*
Y158248D01*
X190354Y150453D02*
Y158248D01*
X190551Y150453D02*
Y158248D01*
X190748Y150453D02*
Y158248D01*
X190945Y150453D02*
Y158248D01*
X191142Y150453D02*
Y158248D01*
X191339Y150453D02*
Y158248D01*
X191535Y150453D02*
Y158248D01*
X191732Y150453D02*
Y158248D01*
X191929Y150453D02*
Y158248D01*
X167028Y128642D02*
X173720D01*
Y148524*
X167028*
Y145930*
X167228Y145840*
X167620Y145637*
X167999Y145413*
X168366Y145169*
X168719Y144906*
X169057Y144623*
X169379Y144323*
X169684Y144005*
X169971Y143671*
X170240Y143322*
X170489Y142959*
X170718Y142582*
X170926Y142194*
X171112Y141795*
X171277Y141386*
X171419Y140969*
X171537Y140545*
X171633Y140115*
X171705Y139681*
X171753Y139243*
X171777Y138803*
Y138362*
X171753Y137923*
X171705Y137485*
X171633Y137050*
X171537Y136620*
X171419Y136196*
X171277Y135779*
X171112Y135370*
X170926Y134971*
X170718Y134583*
X170489Y134207*
X170240Y133843*
X169971Y133494*
X169684Y133160*
X169379Y132843*
X169057Y132542*
X168719Y132260*
X168366Y131996*
X167999Y131752*
X167620Y131528*
X167228Y131326*
X167028Y131235*
Y128642*
X167126D02*
Y131280D01*
Y145886D02*
Y148524D01*
X167323Y128642D02*
Y131375D01*
Y145791D02*
Y148524D01*
X167520Y128642D02*
Y131477D01*
Y145689D02*
Y148524D01*
X167717Y128642D02*
Y131585D01*
Y145580D02*
Y148524D01*
X167913Y128642D02*
Y131701D01*
Y145464D02*
Y148524D01*
X168110Y128642D02*
Y131826D01*
Y145340D02*
Y148524D01*
X168307Y128642D02*
Y131957D01*
Y145209D02*
Y148524D01*
X168504Y128642D02*
Y132099D01*
Y145066D02*
Y148524D01*
X168701Y128642D02*
Y132246D01*
Y144919D02*
Y148524D01*
X168898Y128642D02*
Y132409D01*
Y144756D02*
Y148524D01*
X169094Y128642D02*
Y132577D01*
Y144588D02*
Y148524D01*
X169291Y128642D02*
Y132761D01*
Y144404D02*
Y148524D01*
X169488Y128642D02*
Y132957D01*
Y144209D02*
Y148524D01*
X169685Y128642D02*
Y133162D01*
Y144003D02*
Y148524D01*
X169882Y128642D02*
Y133391D01*
Y143775D02*
Y148524D01*
X170079Y128642D02*
Y133634D01*
Y143531D02*
Y148524D01*
X170276Y128642D02*
Y133896D01*
Y143269D02*
Y148524D01*
X170472Y128642D02*
Y134183D01*
Y142982D02*
Y148524D01*
X170669Y128642D02*
Y134503D01*
Y142662D02*
Y148524D01*
X170866Y128642D02*
Y134860D01*
Y142305D02*
Y148524D01*
X171063Y128642D02*
Y135265D01*
Y141900D02*
Y148524D01*
X171260Y128642D02*
Y135737D01*
Y141428D02*
Y148524D01*
X171457Y128642D02*
Y136332D01*
Y140833D02*
Y148524D01*
X171654Y128642D02*
Y137175D01*
Y139991D02*
Y148524D01*
X171850Y128642D02*
Y148524D01*
X172047Y128642D02*
Y148524D01*
X172244Y128642D02*
Y148524D01*
X172441Y128642D02*
Y148524D01*
X172638Y128642D02*
Y148524D01*
X172835Y128642D02*
Y148524D01*
X173031Y128642D02*
Y148524D01*
X173228Y128642D02*
Y148524D01*
X173425Y128642D02*
Y148524D01*
X173622Y128642D02*
Y148524D01*
X153839Y128642D02*
X160531D01*
Y131235*
X160331Y131326*
X159939Y131528*
X159559Y131751*
X159192Y131995*
X158839Y132258*
X158501Y132541*
X158178Y132841*
X157873Y133159*
X157585Y133493*
X157316Y133842*
X157067Y134205*
X156838Y134582*
X156629Y134970*
X156443Y135369*
X156278Y135778*
X156136Y136195*
X156017Y136619*
X155921Y137050*
X155849Y137484*
X155801Y137922*
X155777Y138362*
Y138803*
X155801Y139243*
X155849Y139681*
X155921Y140116*
X156017Y140546*
X156136Y140970*
X156278Y141387*
X156443Y141796*
X156629Y142195*
X156838Y142584*
X157067Y142960*
X157316Y143323*
X157585Y143672*
X157873Y144006*
X158178Y144324*
X158501Y144624*
X158839Y144907*
X159192Y145170*
X159559Y145414*
X159939Y145638*
X160331Y145840*
X160531Y145930*
Y148524*
X153839*
Y128642*
X153937D02*
Y148524D01*
X154134Y128642D02*
Y148524D01*
X154331Y128642D02*
Y148524D01*
X154528Y128642D02*
Y148524D01*
X154724Y128642D02*
Y148524D01*
X154921Y128642D02*
Y148524D01*
X155118Y128642D02*
Y148524D01*
X155315Y128642D02*
Y148524D01*
X155512Y128642D02*
Y148524D01*
X155709Y128642D02*
Y148524D01*
X155906Y128642D02*
Y137145D01*
Y140020D02*
Y148524D01*
X156102Y128642D02*
Y136315D01*
Y140850D02*
Y148524D01*
X156299Y128642D02*
Y135725D01*
Y141440D02*
Y148524D01*
X156496Y128642D02*
Y135255D01*
Y141910D02*
Y148524D01*
X156693Y128642D02*
Y134852D01*
Y142314D02*
Y148524D01*
X156890Y128642D02*
Y134496D01*
Y142669D02*
Y148524D01*
X157087Y128642D02*
Y134177D01*
Y142989D02*
Y148524D01*
X157283Y128642D02*
Y133890D01*
Y143275D02*
Y148524D01*
X157480Y128642D02*
Y133629D01*
Y143536D02*
Y148524D01*
X157677Y128642D02*
Y133386D01*
Y143779D02*
Y148524D01*
X157874Y128642D02*
Y133158D01*
Y144008D02*
Y148524D01*
X158071Y128642D02*
Y132953D01*
Y144212D02*
Y148524D01*
X158268Y128642D02*
Y132758D01*
Y144407D02*
Y148524D01*
X158465Y128642D02*
Y132574D01*
Y144591D02*
Y148524D01*
X158661Y128642D02*
Y132407D01*
Y144759D02*
Y148524D01*
X158858Y128642D02*
Y132244D01*
Y144921D02*
Y148524D01*
X159055Y128642D02*
Y132097D01*
Y145068D02*
Y148524D01*
X159252Y128642D02*
Y131955D01*
Y145210D02*
Y148524D01*
X159449Y128642D02*
Y131824D01*
Y145341D02*
Y148524D01*
X159646Y128642D02*
Y131700D01*
Y145465D02*
Y148524D01*
X159843Y128642D02*
Y131585D01*
Y145581D02*
Y148524D01*
X160039Y128642D02*
Y131476D01*
Y145689D02*
Y148524D01*
X160236Y128642D02*
Y131374D01*
Y145791D02*
Y148524D01*
X160433Y128642D02*
Y131279D01*
Y145886D02*
Y148524D01*
X102224Y335531D02*
X102378Y335543D01*
X102529Y335575*
X102674Y335629*
X102810Y335703*
X102933Y335796*
X103043Y335905*
X103135Y336029*
X103209Y336164*
X103263Y336309*
X103296Y336460*
X103307Y336614*
Y343701*
X103296Y343855*
X103263Y344006*
X103209Y344151*
X103135Y344286*
X103043Y344410*
X102933Y344519*
X102810Y344612*
X102674Y344686*
X102529Y344740*
X102378Y344772*
X102224Y344783*
X99862*
X99708Y344772*
X99557Y344740*
X99412Y344686*
X99277Y344612*
X99153Y344519*
X99044Y344410*
X98951Y344286*
X98877Y344151*
X98823Y344006*
X98791Y343855*
X98780Y343701*
Y336614*
X98791Y336460*
X98823Y336309*
X98877Y336164*
X98951Y336029*
X99044Y335905*
X99153Y335796*
X99277Y335703*
X99412Y335629*
X99557Y335575*
X99708Y335543*
X99862Y335531*
X102224*
X98780Y336614D02*
Y343701D01*
X98976Y335995D02*
Y344319D01*
X99173Y335781D02*
Y344534D01*
X99370Y335652D02*
Y344662D01*
X99567Y335573D02*
Y344742D01*
X99764Y335539D02*
Y344776D01*
X99961Y335531D02*
Y344783D01*
X100157Y335531D02*
Y344783D01*
X100354Y335531D02*
Y344783D01*
X100551Y335531D02*
Y344783D01*
X100748Y335531D02*
Y344783D01*
X100945Y335531D02*
Y344783D01*
X101142Y335531D02*
Y344783D01*
X101339Y335531D02*
Y344783D01*
X101535Y335531D02*
Y344783D01*
X101732Y335531D02*
Y344783D01*
X101929Y335531D02*
Y344783D01*
X102126Y335531D02*
Y344783D01*
X102323Y335539D02*
Y344776D01*
X102520Y335573D02*
Y344742D01*
X102717Y335652D02*
Y344662D01*
X102913Y335781D02*
Y344534D01*
X103110Y335995D02*
Y344319D01*
X102224Y311909D02*
X102378Y311920D01*
X102529Y311953*
X102674Y312007*
X102810Y312081*
X102933Y312174*
X103043Y312283*
X103135Y312407*
X103209Y312542*
X103263Y312687*
X103296Y312838*
X103307Y312992*
Y320079*
X103296Y320233*
X103263Y320384*
X103209Y320529*
X103209D02*
X103135Y320664D01*
X103043Y320788*
X102933Y320897*
X102810Y320990*
X102674Y321064*
X102529Y321118*
X102378Y321150*
X102224Y321161*
X99862*
X99708Y321150*
X99557Y321118*
X99412Y321064*
X99277Y320990*
X99153Y320897*
X99044Y320788*
X98951Y320664*
X98877Y320529*
X98877D02*
X98823Y320384D01*
X98791Y320233*
X98780Y320079*
Y312992*
X98791Y312838*
X98823Y312687*
X98877Y312542*
X98951Y312407*
X99044Y312283*
X99153Y312174*
X99277Y312081*
X99412Y312007*
X99557Y311953*
X99708Y311920*
X99862Y311909*
X102224*
X98780Y312992D02*
Y320079D01*
X98976Y312373D02*
Y320697D01*
X99173Y312159D02*
Y320912D01*
X99370Y312030D02*
Y321040D01*
X99567Y311951D02*
Y321120D01*
X99764Y311916D02*
Y321154D01*
X99961Y311909D02*
Y321161D01*
X100157Y311909D02*
Y321161D01*
X100354Y311909D02*
Y321161D01*
X100551Y311909D02*
Y321161D01*
X100748Y311909D02*
Y321161D01*
X100945Y311909D02*
Y321161D01*
X101142Y311909D02*
Y321161D01*
X101339Y311909D02*
Y321161D01*
X101535Y311909D02*
Y321161D01*
X101732Y311909D02*
Y321161D01*
X101929Y311909D02*
Y321161D01*
X102126Y311909D02*
Y321161D01*
X102323Y311916D02*
Y321154D01*
X102520Y311951D02*
Y321120D01*
X102717Y312030D02*
Y321040D01*
X102913Y312159D02*
Y320912D01*
X103110Y312373D02*
Y320697D01*
X103937Y100000D02*
X237795Y99961D01*
Y129527*
X239764Y131496D02*
G75*
G03X237795Y129527I0J-1969D01*
G01X239764Y131496D02*
X243684Y131495D01*
X249134Y218110*
X247289*
X245324Y220199D02*
G03X247289Y218110I1965J-120D01*
G01X245324Y220199D02*
X247486Y255632D01*
X249451Y257480D02*
G03X247486Y255632I0J-1968D01*
G01X249451Y257480D02*
X251614D01*
X258582Y368059*
G03X251509Y375591I-7073J445*
G01X178739*
X178741Y375354*
X170866Y375350D02*
G03X178741Y375357I3938J124D01*
G01X170866Y375354D02*
Y375591D01*
X147244*
Y323228*
X144488Y320472D02*
G03X147244Y323228I0J2756D01*
G01X144488Y320472D02*
X126378D01*
X123622Y323228D02*
G03X126378Y320472I2756J0D01*
G01X123622Y323228D02*
Y375591D01*
X90223*
G03X83151Y368059I0J-7087*
G01X84548Y346437*
X84567Y346379*
Y344764*
X83780Y343976D02*
G03X84567Y344764I-0J788D01*
G01X83780Y343976D02*
X83583D01*
G03X82795Y343189I-0J-787*
G01Y313780*
G03X83976Y312598I1181J-0*
G01X85551*
X86732Y311417D02*
G03X85551Y312598I-1181J0D01*
G01X86732Y311417D02*
Y311153D01*
X86851Y309686*
X90136Y257480*
X92244*
X94209Y255632D02*
G03X92244Y257480I-1965J-120D01*
G01X94209Y255634D02*
X96406Y220201D01*
X94441Y218110D02*
G03X96406Y220199I0J1969D01*
G01X94441Y218110D02*
X92598D01*
X98039Y131496*
X101969*
X103937Y129528D02*
G03X101969Y131496I-1968J-0D01*
G01X103937Y129528D02*
Y100000D01*
G54D45*
X175591Y170472D03*
X172441D03*
X164370Y208268D03*
X167520D03*
X172441Y262992D03*
X169291D03*
X172441Y280315D03*
X169291D03*
X225984Y312598D03*
X222835D03*
X224409Y241732D03*
X221260D03*
X241732Y292913D03*
X244882D03*
X193898Y312283D03*
Y315433D03*
X172441Y288976D03*
X169291D03*
X170472Y314173D03*
X167323D03*
X115748Y165354D03*
X118898D03*
X115748Y160630D03*
X118898D03*
X172441Y284252D03*
X169291D03*
X149606Y292913D03*
X152756D03*
X172441Y174409D03*
X175591D03*
Y178346D03*
X172441D03*
X148031Y274803D03*
Y271654D03*
X172441Y272441D03*
X169291D03*
X113386Y273228D03*
Y270079D03*
X222835Y317323D03*
X225984D03*
X125197Y307087D03*
X128346D03*
X149606Y311024D03*
X152756D03*
X149606Y307087D03*
X152756D03*
X135433Y165354D03*
Y168504D03*
X131496Y142520D03*
Y139370D03*
X125197Y303150D03*
X128346D03*
X152756Y297638D03*
X149606D03*
Y301575D03*
X152756D03*
X107874Y160630D03*
X104724D03*
X159843Y284252D03*
X156693D03*
X159843Y288189D03*
X156693D03*
X162205Y170866D03*
X159055D03*
X231496Y339764D03*
X228346D03*
X231496Y336220D03*
X228346D03*
X231496Y332677D03*
X228346D03*
X201575Y188189D03*
Y191339D03*
X208661Y188189D03*
Y191339D03*
X187008Y312087D03*
Y315236D03*
X183858Y312087D03*
Y315236D03*
X217717Y161811D03*
Y164961D03*
X221260Y205512D03*
X224409D03*
X221260Y237008D03*
X224409D03*
X221260Y223622D03*
X224409D03*
X141732Y218898D03*
X138583D03*
X141732Y205512D03*
X138583D03*
Y209449D03*
X141732D03*
X138583Y214961D03*
X141732D03*
X224016Y161811D03*
Y164961D03*
X167323Y317323D03*
X170472D03*
X214173Y350394D03*
X217323D03*
G54D46*
X202559Y313780D03*
X210827D03*
G54D47*
X90709Y339075D03*
Y317618D03*
G54D48*
X170276Y109646D03*
X175197D03*
X180118D03*
X185039D03*
X189961D03*
X194882D03*
X121654Y107874D03*
X116732D03*
G54D50*
X115354Y133071D03*
X109055D03*
X146850Y154724D03*
Y161024D03*
X196850Y121260D03*
X203150D03*
X172441Y243307D03*
X166142D03*
X241339Y310236D03*
Y316535D03*
X113386Y307087D03*
Y300787D03*
X203543Y205315D03*
X209449D03*
X203543Y223031D03*
X209449D03*
X203543Y240748D03*
X209449D03*
G54D51*
X92126Y367717D03*
X249606D03*
G54D52*
X174803Y375591D03*
Y353937D03*
X210236Y109055D03*
X225984D03*
G54D53*
X200492Y339764D03*
Y336220D03*
Y332677D03*
X212106D03*
Y336220D03*
Y339764D03*
G54D54*
X168504Y154528D03*
Y158268D03*
Y162008D03*
X159055D03*
Y154528D03*
G54D55*
X164370Y214173D03*
X168110D03*
X171850D03*
Y223622D03*
X164370D03*
X108071Y143307D03*
X111811D03*
X115551D03*
Y152756D03*
X108071D03*
G54D59*
X172736Y138583D03*
X154823D03*
G54D60*
X101024Y333465D03*
Y330906D03*
Y328346D03*
Y325787D03*
Y323228D03*
G54D61*
X90709Y332382D03*
Y324311D03*
G54D62*
X196949Y371850D03*
X215650D03*
X196949Y365157D03*
X215650D03*
G54D63*
X202165Y138189D03*
X182874D03*
G54D64*
X164173Y329331D03*
Y326772D03*
Y324213D03*
X172835D03*
Y329331D03*
G54D65*
X187598Y369685D03*
X162008D03*
G54D66*
X188583Y348031D03*
X161024Y351969D03*
G54D67*
X174803Y340551D03*
G54D69*
X221850Y300394D03*
X219882D03*
X217913D03*
X215945D03*
X213976D03*
X212008D03*
X210039D03*
X208071D03*
X206102D03*
X204134D03*
X202165D03*
X200197D03*
X198228D03*
X196260D03*
X194291D03*
X192323D03*
Y255512D03*
X194291D03*
X196260D03*
X198228D03*
X200197D03*
X202165D03*
X204134D03*
X206102D03*
X208071D03*
X210039D03*
X212008D03*
X213976D03*
X215945D03*
X217913D03*
X219882D03*
X221850D03*
G54D70*
X184646Y292717D03*
Y290748D03*
Y288780D03*
Y286811D03*
Y284843D03*
Y282874D03*
Y280906D03*
Y278937D03*
Y276969D03*
Y275000D03*
Y273031D03*
Y271063D03*
Y269094D03*
Y267126D03*
Y265157D03*
Y263189D03*
X229528D03*
Y265157D03*
Y267126D03*
Y269094D03*
Y271063D03*
Y273031D03*
Y275000D03*
Y276969D03*
Y278937D03*
Y280906D03*
Y282874D03*
Y284843D03*
Y286811D03*
Y288780D03*
Y290748D03*
Y292717D03*
G54D83*
X179528Y154409D03*
G54D84*
X189606Y154331D03*
G54D85*
X172244Y232283D03*
X163976D03*
G54D86*
X137992Y242224D03*
X125000D03*
X137992Y227461D03*
X125000D03*
X137992Y194980D03*
X125000D03*
X137992Y180217D03*
X125000D03*
X137992Y289469D03*
X125000D03*
X137992Y274705D03*
X125000D03*
G54D96*
X121063Y262992D03*
X113583D03*
X117323Y253543D03*
X151772Y262992D03*
X144291D03*
X148031Y253543D03*
X135236Y159055D03*
X127756D03*
X131496Y149606D03*
X136811Y262992D03*
X129331D03*
X133071Y253543D03*
X220276Y150787D03*
X212795D03*
X216535Y141339D03*
G54D97*
X182283Y117106D03*
Y125413D03*
X189370Y117106D03*
Y125413D03*
G74*
X0Y0D02*
M02*
