*
*
G04 PADS 9.5 Build Number: 522968 generated Gerber (RS-274-X) file*
G04 PC Version=2.1*
*
%IN "Plasma_Gen_Transformer_"*%
*
%MOIN*%
*
%FSLAX35Y35*%
*
*
*
*
G04 PC Standard Apertures*
*
*
G04 Thermal Relief Aperture macro.*
%AMTER*
1,1,$1,0,0*
1,0,$1-$2,0,0*
21,0,$3,$4,0,0,45*
21,0,$3,$4,0,0,135*
%
*
*
G04 Annular Aperture macro.*
%AMANN*
1,1,$1,0,0*
1,0,$2,0,0*
%
*
*
G04 Odd Aperture macro.*
%AMODD*
1,1,$1,0,0*
1,0,$1-0.005,0,0*
%
*
*
G04 PC Custom Aperture Macros*
*
*
*
*
*
*
G04 PC Aperture Table*
*
%ADD011C,0.00394*%
%ADD035C,0.001*%
%ADD052R,0.01969X0.01969*%
%ADD107R,0.06299X0.11811*%
%ADD108R,0.22835X0.24409*%
%ADD109R,0.0315X0.05118*%
%ADD110R,0.08268X0.11811*%
%ADD111R,0.05512X0.10827*%
%ADD112R,0.02953X0.03937*%
%ADD113R,0.19685X0.19685*%
%ADD114R,0.05118X0.0315*%
%ADD115R,0.11811X0.08268*%
%ADD116R,0.03937X0.02953*%
%ADD117R,0.11811X0.11811*%
%ADD118R,0.09331X0.09567*%
*
*
*
*
G04 PC Circuitry*
G04 Layer Name Plasma_Gen_Transformer_ - circuitry*
%LPD*%
*
*
G04 PC Custom Flashes*
G04 Layer Name Plasma_Gen_Transformer_ - flashes*
%LPD*%
*
*
G04 PC Circuitry*
G04 Layer Name Plasma_Gen_Transformer_ - circuitry*
%LPD*%
*
G54D11*
G01X213370Y160720D02*
X195811D01*
Y145248*
X213370*
Y160720*
X195929Y145248D02*
Y160720D01*
X196126Y145248D02*
Y160720D01*
X196323Y145248D02*
Y160720D01*
X196520Y145248D02*
Y160720D01*
X196717Y145248D02*
Y160720D01*
X196913Y145248D02*
Y160720D01*
X197110Y145248D02*
Y160720D01*
X197307Y145248D02*
Y160720D01*
X197504Y145248D02*
Y160720D01*
X197701Y145248D02*
Y160720D01*
X197898Y145248D02*
Y160720D01*
X198094Y145248D02*
Y160720D01*
X198291Y145248D02*
Y160720D01*
X198488Y145248D02*
Y160720D01*
X198685Y145248D02*
Y160720D01*
X198882Y145248D02*
Y160720D01*
X199079Y145248D02*
Y160720D01*
X199276Y145248D02*
Y160720D01*
X199472Y145248D02*
Y160720D01*
X199669Y145248D02*
Y160720D01*
X199866Y145248D02*
Y160720D01*
X200063Y145248D02*
Y160720D01*
X200260Y145248D02*
Y160720D01*
X200457Y145248D02*
Y160720D01*
X200654Y145248D02*
Y160720D01*
X200850Y145248D02*
Y160720D01*
X201047Y145248D02*
Y160720D01*
X201244Y145248D02*
Y160720D01*
X201441Y145248D02*
Y160720D01*
X201638Y145248D02*
Y160720D01*
X201835Y145248D02*
Y160720D01*
X202031Y145248D02*
Y160720D01*
X202228Y145248D02*
Y160720D01*
X202425Y145248D02*
Y160720D01*
X202622Y145248D02*
Y160720D01*
X202819Y145248D02*
Y160720D01*
X203016Y145248D02*
Y160720D01*
X203213Y145248D02*
Y160720D01*
X203409Y145248D02*
Y160720D01*
X203606Y145248D02*
Y160720D01*
X203803Y145248D02*
Y160720D01*
X204000Y145248D02*
Y160720D01*
X204197Y145248D02*
Y160720D01*
X204394Y145248D02*
Y160720D01*
X204591Y145248D02*
Y160720D01*
X204787Y145248D02*
Y160720D01*
X204984Y145248D02*
Y160720D01*
X205181Y145248D02*
Y160720D01*
X205378Y145248D02*
Y160720D01*
X205575Y145248D02*
Y160720D01*
X205772Y145248D02*
Y160720D01*
X205969Y145248D02*
Y160720D01*
X206165Y145248D02*
Y160720D01*
X206362Y145248D02*
Y160720D01*
X206559Y145248D02*
Y160720D01*
X206756Y145248D02*
Y160720D01*
X206953Y145248D02*
Y160720D01*
X207150Y145248D02*
Y160720D01*
X207346Y145248D02*
Y160720D01*
X207543Y145248D02*
Y160720D01*
X207740Y145248D02*
Y160720D01*
X207937Y145248D02*
Y160720D01*
X208134Y145248D02*
Y160720D01*
X208331Y145248D02*
Y160720D01*
X208528Y145248D02*
Y160720D01*
X208724Y145248D02*
Y160720D01*
X208921Y145248D02*
Y160720D01*
X209118Y145248D02*
Y160720D01*
X209315Y145248D02*
Y160720D01*
X209512Y145248D02*
Y160720D01*
X209709Y145248D02*
Y160720D01*
X209906Y145248D02*
Y160720D01*
X210102Y145248D02*
Y160720D01*
X210299Y145248D02*
Y160720D01*
X210496Y145248D02*
Y160720D01*
X210693Y145248D02*
Y160720D01*
X210890Y145248D02*
Y160720D01*
X211087Y145248D02*
Y160720D01*
X211283Y145248D02*
Y160720D01*
X211480Y145248D02*
Y160720D01*
X211677Y145248D02*
Y160720D01*
X211874Y145248D02*
Y160720D01*
X212071Y145248D02*
Y160720D01*
X212268Y145248D02*
Y160720D01*
X212465Y145248D02*
Y160720D01*
X212661Y145248D02*
Y160720D01*
X212858Y145248D02*
Y160720D01*
X213055Y145248D02*
Y160720D01*
X213252Y145248D02*
Y160720D01*
X215319Y150091D02*
X193862D01*
Y146921*
X215319*
Y150091*
X193961Y146921D02*
Y150091D01*
X194157Y146921D02*
Y150091D01*
X194354Y146921D02*
Y150091D01*
X194551Y146921D02*
Y150091D01*
X194748Y146921D02*
Y150091D01*
X194945Y146921D02*
Y150091D01*
X195142Y146921D02*
Y150091D01*
X195339Y146921D02*
Y150091D01*
X195535Y146921D02*
Y150091D01*
X195732Y146921D02*
Y150091D01*
X195929Y146921D02*
Y150091D01*
X196126Y146921D02*
Y150091D01*
X196323Y146921D02*
Y150091D01*
X196520Y146921D02*
Y150091D01*
X196717Y146921D02*
Y150091D01*
X196913Y146921D02*
Y150091D01*
X197110Y146921D02*
Y150091D01*
X197307Y146921D02*
Y150091D01*
X197504Y146921D02*
Y150091D01*
X197701Y146921D02*
Y150091D01*
X197898Y146921D02*
Y150091D01*
X198094Y146921D02*
Y150091D01*
X198291Y146921D02*
Y150091D01*
X198488Y146921D02*
Y150091D01*
X198685Y146921D02*
Y150091D01*
X198882Y146921D02*
Y150091D01*
X199079Y146921D02*
Y150091D01*
X199276Y146921D02*
Y150091D01*
X199472Y146921D02*
Y150091D01*
X199669Y146921D02*
Y150091D01*
X199866Y146921D02*
Y150091D01*
X200063Y146921D02*
Y150091D01*
X200260Y146921D02*
Y150091D01*
X200457Y146921D02*
Y150091D01*
X200654Y146921D02*
Y150091D01*
X200850Y146921D02*
Y150091D01*
X201047Y146921D02*
Y150091D01*
X201244Y146921D02*
Y150091D01*
X201441Y146921D02*
Y150091D01*
X201638Y146921D02*
Y150091D01*
X201835Y146921D02*
Y150091D01*
X202031Y146921D02*
Y150091D01*
X202228Y146921D02*
Y150091D01*
X202425Y146921D02*
Y150091D01*
X202622Y146921D02*
Y150091D01*
X202819Y146921D02*
Y150091D01*
X203016Y146921D02*
Y150091D01*
X203213Y146921D02*
Y150091D01*
X203409Y146921D02*
Y150091D01*
X203606Y146921D02*
Y150091D01*
X203803Y146921D02*
Y150091D01*
X204000Y146921D02*
Y150091D01*
X204197Y146921D02*
Y150091D01*
X204394Y146921D02*
Y150091D01*
X204591Y146921D02*
Y150091D01*
X204787Y146921D02*
Y150091D01*
X204984Y146921D02*
Y150091D01*
X205181Y146921D02*
Y150091D01*
X205378Y146921D02*
Y150091D01*
X205575Y146921D02*
Y150091D01*
X205772Y146921D02*
Y150091D01*
X205969Y146921D02*
Y150091D01*
X206165Y146921D02*
Y150091D01*
X206362Y146921D02*
Y150091D01*
X206559Y146921D02*
Y150091D01*
X206756Y146921D02*
Y150091D01*
X206953Y146921D02*
Y150091D01*
X207150Y146921D02*
Y150091D01*
X207346Y146921D02*
Y150091D01*
X207543Y146921D02*
Y150091D01*
X207740Y146921D02*
Y150091D01*
X207937Y146921D02*
Y150091D01*
X208134Y146921D02*
Y150091D01*
X208331Y146921D02*
Y150091D01*
X208528Y146921D02*
Y150091D01*
X208724Y146921D02*
Y150091D01*
X208921Y146921D02*
Y150091D01*
X209118Y146921D02*
Y150091D01*
X209315Y146921D02*
Y150091D01*
X209512Y146921D02*
Y150091D01*
X209709Y146921D02*
Y150091D01*
X209906Y146921D02*
Y150091D01*
X210102Y146921D02*
Y150091D01*
X210299Y146921D02*
Y150091D01*
X210496Y146921D02*
Y150091D01*
X210693Y146921D02*
Y150091D01*
X210890Y146921D02*
Y150091D01*
X211087Y146921D02*
Y150091D01*
X211283Y146921D02*
Y150091D01*
X211480Y146921D02*
Y150091D01*
X211677Y146921D02*
Y150091D01*
X211874Y146921D02*
Y150091D01*
X212071Y146921D02*
Y150091D01*
X212268Y146921D02*
Y150091D01*
X212465Y146921D02*
Y150091D01*
X212661Y146921D02*
Y150091D01*
X212858Y146921D02*
Y150091D01*
X213055Y146921D02*
Y150091D01*
X213252Y146921D02*
Y150091D01*
X213449Y146921D02*
Y150091D01*
X213646Y146921D02*
Y150091D01*
X213843Y146921D02*
Y150091D01*
X214039Y146921D02*
Y150091D01*
X214236Y146921D02*
Y150091D01*
X214433Y146921D02*
Y150091D01*
X214630Y146921D02*
Y150091D01*
X214827Y146921D02*
Y150091D01*
X215024Y146921D02*
Y150091D01*
X215220Y146921D02*
Y150091D01*
X242756Y160827D02*
X225197D01*
Y145354*
X242756*
Y160827*
X225315Y145354D02*
Y160827D01*
X225512Y145354D02*
Y160827D01*
X225709Y145354D02*
Y160827D01*
X225906Y145354D02*
Y160827D01*
X226102Y145354D02*
Y160827D01*
X226299Y145354D02*
Y160827D01*
X226496Y145354D02*
Y160827D01*
X226693Y145354D02*
Y160827D01*
X226890Y145354D02*
Y160827D01*
X227087Y145354D02*
Y160827D01*
X227283Y145354D02*
Y160827D01*
X227480Y145354D02*
Y160827D01*
X227677Y145354D02*
Y160827D01*
X227874Y145354D02*
Y160827D01*
X228071Y145354D02*
Y160827D01*
X228268Y145354D02*
Y160827D01*
X228465Y145354D02*
Y160827D01*
X228661Y145354D02*
Y160827D01*
X228858Y145354D02*
Y160827D01*
X229055Y145354D02*
Y160827D01*
X229252Y145354D02*
Y160827D01*
X229449Y145354D02*
Y160827D01*
X229646Y145354D02*
Y160827D01*
X229843Y145354D02*
Y160827D01*
X230039Y145354D02*
Y160827D01*
X230236Y145354D02*
Y160827D01*
X230433Y145354D02*
Y160827D01*
X230630Y145354D02*
Y160827D01*
X230827Y145354D02*
Y160827D01*
X231024Y145354D02*
Y160827D01*
X231220Y145354D02*
Y160827D01*
X231417Y145354D02*
Y160827D01*
X231614Y145354D02*
Y160827D01*
X231811Y145354D02*
Y160827D01*
X232008Y145354D02*
Y160827D01*
X232205Y145354D02*
Y160827D01*
X232402Y145354D02*
Y160827D01*
X232598Y145354D02*
Y160827D01*
X232795Y145354D02*
Y160827D01*
X232992Y145354D02*
Y160827D01*
X233189Y145354D02*
Y160827D01*
X233386Y145354D02*
Y160827D01*
X233583Y145354D02*
Y160827D01*
X233780Y145354D02*
Y160827D01*
X233976Y145354D02*
Y160827D01*
X234173Y145354D02*
Y160827D01*
X234370Y145354D02*
Y160827D01*
X234567Y145354D02*
Y160827D01*
X234764Y145354D02*
Y160827D01*
X234961Y145354D02*
Y160827D01*
X235157Y145354D02*
Y160827D01*
X235354Y145354D02*
Y160827D01*
X235551Y145354D02*
Y160827D01*
X235748Y145354D02*
Y160827D01*
X235945Y145354D02*
Y160827D01*
X236142Y145354D02*
Y160827D01*
X236339Y145354D02*
Y160827D01*
X236535Y145354D02*
Y160827D01*
X236732Y145354D02*
Y160827D01*
X236929Y145354D02*
Y160827D01*
X237126Y145354D02*
Y160827D01*
X237323Y145354D02*
Y160827D01*
X237520Y145354D02*
Y160827D01*
X237717Y145354D02*
Y160827D01*
X237913Y145354D02*
Y160827D01*
X238110Y145354D02*
Y160827D01*
X238307Y145354D02*
Y160827D01*
X238504Y145354D02*
Y160827D01*
X238701Y145354D02*
Y160827D01*
X238898Y145354D02*
Y160827D01*
X239094Y145354D02*
Y160827D01*
X239291Y145354D02*
Y160827D01*
X239488Y145354D02*
Y160827D01*
X239685Y145354D02*
Y160827D01*
X239882Y145354D02*
Y160827D01*
X240079Y145354D02*
Y160827D01*
X240276Y145354D02*
Y160827D01*
X240472Y145354D02*
Y160827D01*
X240669Y145354D02*
Y160827D01*
X240866Y145354D02*
Y160827D01*
X241063Y145354D02*
Y160827D01*
X241260Y145354D02*
Y160827D01*
X241457Y145354D02*
Y160827D01*
X241654Y145354D02*
Y160827D01*
X241850Y145354D02*
Y160827D01*
X242047Y145354D02*
Y160827D01*
X242244Y145354D02*
Y160827D01*
X242441Y145354D02*
Y160827D01*
X242638Y145354D02*
Y160827D01*
X244705Y150197D02*
X223248D01*
Y147028*
X244705*
Y150197*
X223346Y147028D02*
Y150197D01*
X223543Y147028D02*
Y150197D01*
X223740Y147028D02*
Y150197D01*
X223937Y147028D02*
Y150197D01*
X224134Y147028D02*
Y150197D01*
X224331Y147028D02*
Y150197D01*
X224528Y147028D02*
Y150197D01*
X224724Y147028D02*
Y150197D01*
X224921Y147028D02*
Y150197D01*
X225118Y147028D02*
Y150197D01*
X225315Y147028D02*
Y150197D01*
X225512Y147028D02*
Y150197D01*
X225709Y147028D02*
Y150197D01*
X225906Y147028D02*
Y150197D01*
X226102Y147028D02*
Y150197D01*
X226299Y147028D02*
Y150197D01*
X226496Y147028D02*
Y150197D01*
X226693Y147028D02*
Y150197D01*
X226890Y147028D02*
Y150197D01*
X227087Y147028D02*
Y150197D01*
X227283Y147028D02*
Y150197D01*
X227480Y147028D02*
Y150197D01*
X227677Y147028D02*
Y150197D01*
X227874Y147028D02*
Y150197D01*
X228071Y147028D02*
Y150197D01*
X228268Y147028D02*
Y150197D01*
X228465Y147028D02*
Y150197D01*
X228661Y147028D02*
Y150197D01*
X228858Y147028D02*
Y150197D01*
X229055Y147028D02*
Y150197D01*
X229252Y147028D02*
Y150197D01*
X229449Y147028D02*
Y150197D01*
X229646Y147028D02*
Y150197D01*
X229843Y147028D02*
Y150197D01*
X230039Y147028D02*
Y150197D01*
X230236Y147028D02*
Y150197D01*
X230433Y147028D02*
Y150197D01*
X230630Y147028D02*
Y150197D01*
X230827Y147028D02*
Y150197D01*
X231024Y147028D02*
Y150197D01*
X231220Y147028D02*
Y150197D01*
X231417Y147028D02*
Y150197D01*
X231614Y147028D02*
Y150197D01*
X231811Y147028D02*
Y150197D01*
X232008Y147028D02*
Y150197D01*
X232205Y147028D02*
Y150197D01*
X232402Y147028D02*
Y150197D01*
X232598Y147028D02*
Y150197D01*
X232795Y147028D02*
Y150197D01*
X232992Y147028D02*
Y150197D01*
X233189Y147028D02*
Y150197D01*
X233386Y147028D02*
Y150197D01*
X233583Y147028D02*
Y150197D01*
X233780Y147028D02*
Y150197D01*
X233976Y147028D02*
Y150197D01*
X234173Y147028D02*
Y150197D01*
X234370Y147028D02*
Y150197D01*
X234567Y147028D02*
Y150197D01*
X234764Y147028D02*
Y150197D01*
X234961Y147028D02*
Y150197D01*
X235157Y147028D02*
Y150197D01*
X235354Y147028D02*
Y150197D01*
X235551Y147028D02*
Y150197D01*
X235748Y147028D02*
Y150197D01*
X235945Y147028D02*
Y150197D01*
X236142Y147028D02*
Y150197D01*
X236339Y147028D02*
Y150197D01*
X236535Y147028D02*
Y150197D01*
X236732Y147028D02*
Y150197D01*
X236929Y147028D02*
Y150197D01*
X237126Y147028D02*
Y150197D01*
X237323Y147028D02*
Y150197D01*
X237520Y147028D02*
Y150197D01*
X237717Y147028D02*
Y150197D01*
X237913Y147028D02*
Y150197D01*
X238110Y147028D02*
Y150197D01*
X238307Y147028D02*
Y150197D01*
X238504Y147028D02*
Y150197D01*
X238701Y147028D02*
Y150197D01*
X238898Y147028D02*
Y150197D01*
X239094Y147028D02*
Y150197D01*
X239291Y147028D02*
Y150197D01*
X239488Y147028D02*
Y150197D01*
X239685Y147028D02*
Y150197D01*
X239882Y147028D02*
Y150197D01*
X240079Y147028D02*
Y150197D01*
X240276Y147028D02*
Y150197D01*
X240472Y147028D02*
Y150197D01*
X240669Y147028D02*
Y150197D01*
X240866Y147028D02*
Y150197D01*
X241063Y147028D02*
Y150197D01*
X241260Y147028D02*
Y150197D01*
X241457Y147028D02*
Y150197D01*
X241654Y147028D02*
Y150197D01*
X241850Y147028D02*
Y150197D01*
X242047Y147028D02*
Y150197D01*
X242244Y147028D02*
Y150197D01*
X242441Y147028D02*
Y150197D01*
X242638Y147028D02*
Y150197D01*
X242835Y147028D02*
Y150197D01*
X243031Y147028D02*
Y150197D01*
X243228Y147028D02*
Y150197D01*
X243425Y147028D02*
Y150197D01*
X243622Y147028D02*
Y150197D01*
X243819Y147028D02*
Y150197D01*
X244016Y147028D02*
Y150197D01*
X244213Y147028D02*
Y150197D01*
X244409Y147028D02*
Y150197D01*
X244606Y147028D02*
Y150197D01*
X284094Y143189D02*
Y125630D01*
X299567*
Y143189*
X284094*
Y125630D02*
Y143189D01*
X284291Y125630D02*
Y143189D01*
X284488Y125630D02*
Y143189D01*
X284685Y125630D02*
Y143189D01*
X284882Y125630D02*
Y143189D01*
X285079Y125630D02*
Y143189D01*
X285276Y125630D02*
Y143189D01*
X285472Y125630D02*
Y143189D01*
X285669Y125630D02*
Y143189D01*
X285866Y125630D02*
Y143189D01*
X286063Y125630D02*
Y143189D01*
X286260Y125630D02*
Y143189D01*
X286457Y125630D02*
Y143189D01*
X286654Y125630D02*
Y143189D01*
X286850Y125630D02*
Y143189D01*
X287047Y125630D02*
Y143189D01*
X287244Y125630D02*
Y143189D01*
X287441Y125630D02*
Y143189D01*
X287638Y125630D02*
Y143189D01*
X287835Y125630D02*
Y143189D01*
X288031Y125630D02*
Y143189D01*
X288228Y125630D02*
Y143189D01*
X288425Y125630D02*
Y143189D01*
X288622Y125630D02*
Y143189D01*
X288819Y125630D02*
Y143189D01*
X289016Y125630D02*
Y143189D01*
X289213Y125630D02*
Y143189D01*
X289409Y125630D02*
Y143189D01*
X289606Y125630D02*
Y143189D01*
X289803Y125630D02*
Y143189D01*
X290000Y125630D02*
Y143189D01*
X290197Y125630D02*
Y143189D01*
X290394Y125630D02*
Y143189D01*
X290591Y125630D02*
Y143189D01*
X290787Y125630D02*
Y143189D01*
X290984Y125630D02*
Y143189D01*
X291181Y125630D02*
Y143189D01*
X291378Y125630D02*
Y143189D01*
X291575Y125630D02*
Y143189D01*
X291772Y125630D02*
Y143189D01*
X291969Y125630D02*
Y143189D01*
X292165Y125630D02*
Y143189D01*
X292362Y125630D02*
Y143189D01*
X292559Y125630D02*
Y143189D01*
X292756Y125630D02*
Y143189D01*
X292953Y125630D02*
Y143189D01*
X293150Y125630D02*
Y143189D01*
X293346Y125630D02*
Y143189D01*
X293543Y125630D02*
Y143189D01*
X293740Y125630D02*
Y143189D01*
X293937Y125630D02*
Y143189D01*
X294134Y125630D02*
Y143189D01*
X294331Y125630D02*
Y143189D01*
X294528Y125630D02*
Y143189D01*
X294724Y125630D02*
Y143189D01*
X294921Y125630D02*
Y143189D01*
X295118Y125630D02*
Y143189D01*
X295315Y125630D02*
Y143189D01*
X295512Y125630D02*
Y143189D01*
X295709Y125630D02*
Y143189D01*
X295906Y125630D02*
Y143189D01*
X296102Y125630D02*
Y143189D01*
X296299Y125630D02*
Y143189D01*
X296496Y125630D02*
Y143189D01*
X296693Y125630D02*
Y143189D01*
X296890Y125630D02*
Y143189D01*
X297087Y125630D02*
Y143189D01*
X297283Y125630D02*
Y143189D01*
X297480Y125630D02*
Y143189D01*
X297677Y125630D02*
Y143189D01*
X297874Y125630D02*
Y143189D01*
X298071Y125630D02*
Y143189D01*
X298268Y125630D02*
Y143189D01*
X298465Y125630D02*
Y143189D01*
X298661Y125630D02*
Y143189D01*
X298858Y125630D02*
Y143189D01*
X299055Y125630D02*
Y143189D01*
X299252Y125630D02*
Y143189D01*
X299449Y125630D02*
Y143189D01*
X294724Y145138D02*
Y123681D01*
X297894*
Y145138*
X294724*
Y123681D02*
Y145138D01*
X294921Y123681D02*
Y145138D01*
X295118Y123681D02*
Y145138D01*
X295315Y123681D02*
Y145138D01*
X295512Y123681D02*
Y145138D01*
X295709Y123681D02*
Y145138D01*
X295906Y123681D02*
Y145138D01*
X296102Y123681D02*
Y145138D01*
X296299Y123681D02*
Y145138D01*
X296496Y123681D02*
Y145138D01*
X296693Y123681D02*
Y145138D01*
X296890Y123681D02*
Y145138D01*
X297087Y123681D02*
Y145138D01*
X297283Y123681D02*
Y145138D01*
X297480Y123681D02*
Y145138D01*
X297677Y123681D02*
Y145138D01*
X297874Y123681D02*
Y145138D01*
X312402Y143071D02*
Y125512D01*
X327874*
Y143071*
X312402*
Y125512D02*
Y143071D01*
X312598Y125512D02*
Y143071D01*
X312795Y125512D02*
Y143071D01*
X312992Y125512D02*
Y143071D01*
X313189Y125512D02*
Y143071D01*
X313386Y125512D02*
Y143071D01*
X313583Y125512D02*
Y143071D01*
X313780Y125512D02*
Y143071D01*
X313976Y125512D02*
Y143071D01*
X314173Y125512D02*
Y143071D01*
X314370Y125512D02*
Y143071D01*
X314567Y125512D02*
Y143071D01*
X314764Y125512D02*
Y143071D01*
X314961Y125512D02*
Y143071D01*
X315157Y125512D02*
Y143071D01*
X315354Y125512D02*
Y143071D01*
X315551Y125512D02*
Y143071D01*
X315748Y125512D02*
Y143071D01*
X315945Y125512D02*
Y143071D01*
X316142Y125512D02*
Y143071D01*
X316339Y125512D02*
Y143071D01*
X316535Y125512D02*
Y143071D01*
X316732Y125512D02*
Y143071D01*
X316929Y125512D02*
Y143071D01*
X317126Y125512D02*
Y143071D01*
X317323Y125512D02*
Y143071D01*
X317520Y125512D02*
Y143071D01*
X317717Y125512D02*
Y143071D01*
X317913Y125512D02*
Y143071D01*
X318110Y125512D02*
Y143071D01*
X318307Y125512D02*
Y143071D01*
X318504Y125512D02*
Y143071D01*
X318701Y125512D02*
Y143071D01*
X318898Y125512D02*
Y143071D01*
X319094Y125512D02*
Y143071D01*
X319291Y125512D02*
Y143071D01*
X319488Y125512D02*
Y143071D01*
X319685Y125512D02*
Y143071D01*
X319882Y125512D02*
Y143071D01*
X320079Y125512D02*
Y143071D01*
X320276Y125512D02*
Y143071D01*
X320472Y125512D02*
Y143071D01*
X320669Y125512D02*
Y143071D01*
X320866Y125512D02*
Y143071D01*
X321063Y125512D02*
Y143071D01*
X321260Y125512D02*
Y143071D01*
X321457Y125512D02*
Y143071D01*
X321654Y125512D02*
Y143071D01*
X321850Y125512D02*
Y143071D01*
X322047Y125512D02*
Y143071D01*
X322244Y125512D02*
Y143071D01*
X322441Y125512D02*
Y143071D01*
X322638Y125512D02*
Y143071D01*
X322835Y125512D02*
Y143071D01*
X323031Y125512D02*
Y143071D01*
X323228Y125512D02*
Y143071D01*
X323425Y125512D02*
Y143071D01*
X323622Y125512D02*
Y143071D01*
X323819Y125512D02*
Y143071D01*
X324016Y125512D02*
Y143071D01*
X324213Y125512D02*
Y143071D01*
X324409Y125512D02*
Y143071D01*
X324606Y125512D02*
Y143071D01*
X324803Y125512D02*
Y143071D01*
X325000Y125512D02*
Y143071D01*
X325197Y125512D02*
Y143071D01*
X325394Y125512D02*
Y143071D01*
X325591Y125512D02*
Y143071D01*
X325787Y125512D02*
Y143071D01*
X325984Y125512D02*
Y143071D01*
X326181Y125512D02*
Y143071D01*
X326378Y125512D02*
Y143071D01*
X326575Y125512D02*
Y143071D01*
X326772Y125512D02*
Y143071D01*
X326969Y125512D02*
Y143071D01*
X327165Y125512D02*
Y143071D01*
X327362Y125512D02*
Y143071D01*
X327559Y125512D02*
Y143071D01*
X327756Y125512D02*
Y143071D01*
X323031Y145020D02*
Y123563D01*
X326201*
Y145020*
X323031*
Y123563D02*
Y145020D01*
X323228Y123563D02*
Y145020D01*
X323425Y123563D02*
Y145020D01*
X323622Y123563D02*
Y145020D01*
X323819Y123563D02*
Y145020D01*
X324016Y123563D02*
Y145020D01*
X324213Y123563D02*
Y145020D01*
X324409Y123563D02*
Y145020D01*
X324606Y123563D02*
Y145020D01*
X324803Y123563D02*
Y145020D01*
X325000Y123563D02*
Y145020D01*
X325197Y123563D02*
Y145020D01*
X325394Y123563D02*
Y145020D01*
X325591Y123563D02*
Y145020D01*
X325787Y123563D02*
Y145020D01*
X325984Y123563D02*
Y145020D01*
X326181Y123563D02*
Y145020D01*
X100000Y100000D02*
X178740D01*
Y119685*
X190551*
Y100000*
X269291*
Y119685*
X281102*
Y100000*
X359843*
Y265354*
X281102*
Y243701*
X269291*
Y285039*
X190551*
Y277165*
X178740*
Y296850*
X100000*
Y100000*
X178740Y257480D02*
X190551D01*
Y139370*
X178740*
Y257480*
X269291Y141339D02*
X281102D01*
Y222047*
X269291*
Y141339*
X288976Y243819D02*
X351969D01*
Y163268*
X288976*
Y243819*
G54D35*
G54D52*
X147638Y127165D03*
Y130315D03*
X238114Y127571D03*
Y130720D03*
X326772Y107874D03*
Y104724D03*
X167717Y128780D03*
X164567D03*
X156102Y128740D03*
X152953D03*
X246480Y131094D03*
X243331D03*
X256311Y131075D03*
X253161D03*
X328543Y116535D03*
Y119685D03*
X340531Y143378D03*
Y140228D03*
G54D107*
X153878Y142992D03*
X135886D03*
X123209D03*
X105217D03*
X114567Y126969D03*
Y107677D03*
X205512Y126969D03*
Y107677D03*
G54D108*
X144882Y171260D03*
X114213D03*
G54D109*
X148130Y118504D03*
X153051D03*
X157972D03*
X162894D03*
X238358Y118516D03*
X243280D03*
X248201D03*
X253122D03*
G54D110*
X172933Y107776D03*
X138091D03*
X263161Y107787D03*
X228319D03*
G54D111*
X119449Y195039D03*
X129449D03*
X139449D03*
X149449D03*
X159449D03*
Y288543D03*
X119449D03*
X209902Y176280D03*
X219902D03*
X229902D03*
X239902D03*
X249902D03*
Y269783D03*
X209902D03*
X300551Y156772D03*
X310551D03*
X320551D03*
X330551D03*
X340551D03*
Y250276D03*
X300551D03*
G54D112*
X197091Y139283D03*
X202091D03*
X207091D03*
X212091D03*
Y160917D03*
X197091D03*
X226476Y139390D03*
X231476D03*
X236476D03*
X241476D03*
Y161024D03*
X226476D03*
G54D113*
X225984Y274409D03*
X317677Y254724D03*
G54D114*
X341772Y115413D03*
Y120335D03*
Y125256D03*
Y130177D03*
G54D115*
X352500Y140217D03*
Y105374D03*
G54D116*
X305531Y126909D03*
Y131909D03*
Y136909D03*
Y141909D03*
X283898D03*
Y126909D03*
X333839Y126791D03*
Y131791D03*
Y136791D03*
Y141791D03*
X312205D03*
Y126791D03*
G54D117*
X133465Y289724D03*
G54D118*
X288425Y111417D03*
X312992D03*
X0Y0D02*
M02*
