*
*
G04 PADS 9.5 Build Number: 522968 generated Gerber (RS-274-X) file*
G04 PC Version=2.1*
*
%IN "2D_PCB_MPD-190708_KEY.p"*%
*
%MOIN*%
*
%FSLAX35Y35*%
*
*
*
*
G04 PC Standard Apertures*
*
*
G04 Thermal Relief Aperture macro.*
%AMTER*
1,1,$1,0,0*
1,0,$1-$2,0,0*
21,0,$3,$4,0,0,45*
21,0,$3,$4,0,0,135*
%
*
*
G04 Annular Aperture macro.*
%AMANN*
1,1,$1,0,0*
1,0,$2,0,0*
%
*
*
G04 Odd Aperture macro.*
%AMODD*
1,1,$1,0,0*
1,0,$1-0.005,0,0*
%
*
*
G04 PC Custom Aperture Macros*
*
*
*
*
*
*
G04 PC Aperture Table*
*
%ADD010C,0.001*%
%ADD011C,0.01*%
%ADD012C,0.03937*%
%ADD014C,0.08268*%
%ADD016C,0.01181*%
%ADD018C,0.015*%
*
*
*
*
G04 PC Circuitry*
G04 Layer Name 2D_PCB_MPD-190708_KEY.p - circuitry*
%LPD*%
*
*
G04 PC Custom Flashes*
G04 Layer Name 2D_PCB_MPD-190708_KEY.p - flashes*
%LPD*%
*
*
G04 PC Circuitry*
G04 Layer Name 2D_PCB_MPD-190708_KEY.p - circuitry*
%LPD*%
*
G54D10*
G54D11*
G01X287402Y172386D02*
X285882Y170866D01*
X287402Y169346*
X288922Y170866*
X287402Y172386*
X286748Y170000D02*
X288055D01*
X286015Y171000D02*
X288788D01*
X287015Y172000D02*
X287788D01*
X286850Y169897D02*
Y171835D01*
X287850Y169795D02*
Y171937D01*
X288850Y170795D02*
Y170937D01*
G54D12*
X290881Y167386D03*
X294361Y163906D03*
X297841Y160427D03*
X301321Y156947D03*
G54D14*
X91730Y181860D03*
X302922D03*
X161893Y123540D03*
X232759D03*
G54D16*
X241223D02*
G75*
G03X241223I-8464J0D01*
G01X170357D02*
G03X170357I-8464J0D01*
G01X325545Y186416D02*
G03X325071Y187127I-576J129D01*
G01X307716Y190187*
G03X307307Y189100I-103J-582*
G01X301277Y190164D02*
G03X307307Y189100I1645J-8304D01*
G01X301277Y190164D02*
G03X301265Y191324I-115J579D01*
G01X280794Y194934*
G03X280120Y194499I-102J-582*
G01X218539Y146746D02*
G03X280120Y194499I-0J63583D01*
G01X218539Y146746D02*
X175232D01*
X113651Y194499D02*
G03X175232Y146746I61581J15830D01*
G01X113651Y194499D02*
G03X112977Y194934I-572J-147D01*
G01X92941Y191401*
G03X92958Y190235I103J-581*
G01X87711Y189310D02*
G03X92958Y190235I4019J-7450D01*
G01X87711Y189310D02*
G03X87328Y190411I-280J520D01*
G01X68699Y187127*
G03X68225Y186416I103J-582*
X175232Y100683I107007J23913*
G01X218539*
G03X325545Y186416I-0J109646*
G01X297471Y156123D02*
G03X302145Y160797I3850J824D01*
G01X297471Y156123D02*
G03X297017Y156577I-577J-124D01*
G01X293991Y159603D02*
G03X297017Y156577I3850J824D01*
G01X293991Y159603D02*
G03X293537Y160057I-577J-124D01*
G01X290511Y163083D02*
G03X293537Y160057I3850J823D01*
G01X290511Y163083D02*
G03X290058Y163536I-577J-124D01*
G01X287072Y166393D02*
G03X290058Y163536I3809J993D01*
G01X287072Y166393D02*
G03X286708Y166797I-572J-149D01*
G01X286010Y167247D02*
G03X286708Y166797I1392J1392D01*
G01X286010Y167247D02*
X283783Y169474D01*
Y172258D02*
G03Y169474I1391J-1392D01*
G01Y172258D02*
X286010Y174485D01*
X288794D02*
G03X286010I-1392J-1392D01*
G01X288794D02*
X291021Y172258D01*
X291471Y171559D02*
G03X291021Y172258I-1842J-693D01*
G01X291471Y171559D02*
G03X291875Y171196I553J208D01*
G01X294731Y168210D02*
G03X291875Y171196I-3850J-824D01*
G01X294731Y168210D02*
G03X295185Y167756I578J124D01*
G01X298211Y164730D02*
G03X295185Y167756I-3850J-824D01*
G01X298211Y164730D02*
G03X298665Y164276I578J124D01*
G01X301691Y161250D02*
G03X298665Y164276I-3850J-823D01*
G01X301691Y161250D02*
G03X302145Y160797I577J124D01*
G01X241223Y123540D02*
G03X241223I-8464J0D01*
G01X170357D02*
G03X170357I-8464J0D01*
G01X309807Y186784D02*
X325509D01*
X310454Y185721D02*
X325388D01*
X310910Y184658D02*
X325137D01*
X311206Y183595D02*
X324876D01*
X311359Y182532D02*
X324603D01*
X311377Y181469D02*
X324318D01*
X311260Y180406D02*
X324023D01*
X311003Y179343D02*
X323715D01*
X310592Y178280D02*
X323396D01*
X309999Y177217D02*
X323065D01*
X309174Y176154D02*
X322723D01*
X308004Y175091D02*
X322368D01*
X306133Y174028D02*
X322001D01*
X290313Y172965D02*
X321622D01*
X291302Y171902D02*
X321231D01*
X308905Y187847D02*
X320984D01*
X292772Y170839D02*
X320826D01*
X294010Y169776D02*
X320410D01*
X294588Y168713D02*
X319980D01*
X295579Y167650D02*
X319537D01*
X297244Y166587D02*
X319082D01*
X297950Y165524D02*
X318613D01*
X298347Y164461D02*
X318130D01*
X300423Y163399D02*
X317633D01*
X301284Y162336D02*
X317123D01*
X301686Y161273D02*
X316598D01*
X303524Y160210D02*
X316059D01*
X304586Y159147D02*
X315506D01*
X307606Y188910D02*
X314956D01*
X305090Y158084D02*
X314937D01*
X305257Y157021D02*
X314353D01*
X305132Y155958D02*
X313754D01*
X304681Y154895D02*
X313139D01*
X303729Y153832D02*
X312508D01*
X245549Y152769D02*
X311861D01*
X243157Y151706D02*
X311197D01*
X240455Y150643D02*
X310516D01*
X237308Y149580D02*
X309817D01*
X233438Y148517D02*
X309101D01*
X307151Y189973D02*
X308927D01*
X227997Y147454D02*
X308366D01*
X86158Y146391D02*
X307612D01*
X86931Y145328D02*
X306840D01*
X87724Y144265D02*
X306047D01*
X88536Y143202D02*
X305234D01*
X89370Y142139D02*
X304401D01*
X90225Y141076D02*
X303546D01*
X91102Y140013D02*
X302669D01*
X92002Y138950D02*
X301769D01*
X279124Y191036D02*
X301675D01*
X92926Y137887D02*
X300845D01*
X278775Y189973D02*
X300508D01*
X93874Y136824D02*
X299897D01*
X289250Y174028D02*
X299710D01*
X94847Y135761D02*
X298924D01*
X247707Y153832D02*
X298913D01*
X278405Y188910D02*
X298237D01*
X249680Y154895D02*
X297961D01*
X95846Y134698D02*
X297925D01*
X271464Y175091D02*
X297839D01*
X251501Y155958D02*
X297510D01*
X278014Y187847D02*
X296938D01*
X96873Y133635D02*
X296898D01*
X279452Y192099D02*
X296870D01*
X272157Y176154D02*
X296669D01*
X277602Y186784D02*
X296037D01*
X253194Y157021D02*
X295867D01*
X272819Y177217D02*
X295844D01*
X97927Y132572D02*
X295843D01*
X277167Y185721D02*
X295389D01*
X273454Y178280D02*
X295251D01*
X276709Y184658D02*
X294933D01*
X274061Y179343D02*
X294840D01*
X235615Y131509D02*
X294759D01*
X254777Y158084D02*
X294677D01*
X276228Y183595D02*
X294637D01*
X274641Y180406D02*
X294583D01*
X275724Y182532D02*
X294484D01*
X275195Y181469D02*
X294466D01*
X256263Y159147D02*
X294118D01*
X237654Y130446D02*
X293644D01*
X257664Y160210D02*
X293007D01*
X238884Y129383D02*
X292498D01*
X258989Y161273D02*
X291435D01*
X239745Y128320D02*
X291317D01*
X279760Y193162D02*
X290842D01*
X260245Y162336D02*
X290751D01*
X261437Y163399D02*
X290328D01*
X240364Y127257D02*
X290101D01*
X240797Y126194D02*
X288849D01*
X262572Y164461D02*
X288246D01*
X241073Y125131D02*
X287557D01*
X263653Y165524D02*
X287412D01*
X264685Y166587D02*
X286981D01*
X241207Y124068D02*
X286223D01*
X265670Y167650D02*
X285606D01*
X270741Y174028D02*
X285553D01*
X241206Y123005D02*
X284846D01*
X280048Y194225D02*
X284813D01*
X266611Y168713D02*
X284543D01*
X269985Y172965D02*
X284490D01*
X267511Y169776D02*
X283535D01*
X269196Y171902D02*
X283501D01*
X241071Y121942D02*
X283423D01*
X268372Y170839D02*
X283206D01*
X240794Y120879D02*
X281949D01*
X240360Y119816D02*
X280422D01*
X239739Y118753D02*
X278838D01*
X238876Y117690D02*
X277192D01*
X237643Y116627D02*
X275478D01*
X235591Y115564D02*
X273691D01*
X121948Y114501D02*
X271823D01*
X123906Y113438D02*
X269864D01*
X125965Y112375D02*
X267805D01*
X128138Y111312D02*
X265632D01*
X130442Y110249D02*
X263329D01*
X132897Y109186D02*
X260874D01*
X135532Y108123D02*
X258239D01*
X138385Y107060D02*
X255386D01*
X141512Y105997D02*
X252258D01*
X144998Y104934D02*
X248772D01*
X148986Y103871D02*
X244785D01*
X153751Y102808D02*
X240019D01*
X160010Y101745D02*
X233760D01*
X164725Y115564D02*
X229926D01*
X164748Y131509D02*
X229903D01*
X166776Y116627D02*
X227875D01*
X166788Y130446D02*
X227863D01*
X168010Y117690D02*
X226642D01*
X168018Y129383D02*
X226634D01*
X168873Y118753D02*
X225778D01*
X168879Y128320D02*
X225773D01*
X169494Y119816D02*
X225158D01*
X169498Y127257D02*
X225154D01*
X169928Y120879D02*
X224724D01*
X169931Y126194D02*
X224721D01*
X170205Y121942D02*
X224447D01*
X170206Y125131D02*
X224445D01*
X170340Y123005D02*
X224311D01*
X170341Y124068D02*
X224311D01*
X85405Y147454D02*
X165774D01*
X84670Y148517D02*
X160332D01*
X120080Y115564D02*
X159060D01*
X99011Y131509D02*
X159037D01*
X118292Y116627D02*
X157009D01*
X100126Y130446D02*
X156997D01*
X83954Y149580D02*
X156463D01*
X116579Y117690D02*
X155775D01*
X101273Y129383D02*
X155768D01*
X114933Y118753D02*
X154912D01*
X102454Y128320D02*
X154906D01*
X113348Y119816D02*
X154292D01*
X103669Y127257D02*
X154288D01*
X111822Y120879D02*
X153857D01*
X104922Y126194D02*
X153855D01*
X110348Y121942D02*
X153580D01*
X106214Y125131D02*
X153579D01*
X108924Y123005D02*
X153445D01*
X107547Y124068D02*
X153444D01*
X83255Y150643D02*
X153316D01*
X82574Y151706D02*
X150614D01*
X81910Y152769D02*
X148221D01*
X81263Y153832D02*
X146063D01*
X80632Y154895D02*
X144090D01*
X80017Y155958D02*
X142270D01*
X79417Y157021D02*
X140577D01*
X78834Y158084D02*
X138994D01*
X78265Y159147D02*
X137508D01*
X77711Y160210D02*
X136106D01*
X77172Y161273D02*
X134782D01*
X76648Y162336D02*
X133526D01*
X76137Y163399D02*
X132333D01*
X75641Y164461D02*
X131198D01*
X75158Y165524D02*
X130117D01*
X74689Y166587D02*
X129086D01*
X74233Y167650D02*
X128101D01*
X73791Y168713D02*
X127160D01*
X73361Y169776D02*
X126260D01*
X72944Y170839D02*
X125399D01*
X72540Y171902D02*
X124575D01*
X72149Y172965D02*
X123785D01*
X94941Y174028D02*
X123030D01*
X96812Y175091D02*
X122307D01*
X97982Y176154D02*
X121614D01*
X98807Y177217D02*
X120951D01*
X99400Y178280D02*
X120317D01*
X99812Y179343D02*
X119710D01*
X100069Y180406D02*
X119130D01*
X100185Y181469D02*
X118576D01*
X100168Y182532D02*
X118047D01*
X100015Y183595D02*
X117542D01*
X99719Y184658D02*
X117062D01*
X99262Y185721D02*
X116604D01*
X98615Y186784D02*
X116169D01*
X97713Y187847D02*
X115756D01*
X96414Y188910D02*
X115365D01*
X94144Y189973D02*
X114996D01*
X92494Y191036D02*
X114647D01*
X96901Y192099D02*
X114318D01*
X102929Y193162D02*
X114010D01*
X108958Y194225D02*
X113722D01*
X71770Y174028D02*
X88519D01*
X84844Y189973D02*
X88004D01*
X78815Y188910D02*
X87045D01*
X71403Y175091D02*
X86647D01*
X72787Y187847D02*
X85746D01*
X71048Y176154D02*
X85477D01*
X68262Y186784D02*
X84845D01*
X70705Y177217D02*
X84652D01*
X68383Y185721D02*
X84197D01*
X70374Y178280D02*
X84059D01*
X68634Y184658D02*
X83741D01*
X70055Y179343D02*
X83648D01*
X68895Y183595D02*
X83445D01*
X69748Y180406D02*
X83391D01*
X69168Y182532D02*
X83292D01*
X69452Y181469D02*
X83274D01*
X114403Y193964D02*
G03X112160Y195390I-1901J-513D01*
G01X114415Y193919D02*
G03X175232Y147337I60817J16410D01*
G01X218539*
G03X279356Y193919I-0J62992*
G01X281610Y195390D02*
G03X279368Y193964I-341J-1939D01*
G01X281610Y195390D02*
X324359Y187852D01*
X325936Y185470D02*
G03X324359Y187852I-1918J443D01*
G01X218539Y100093D02*
G03X325950Y185531I-0J110236D01*
G01X218539Y100093D02*
X175232D01*
X67821Y185531D02*
G03X175232Y100093I107411J24798D01*
G01X69411Y187852D02*
G03X67835Y185470I342J-1939D01*
G01X69411Y187852D02*
X112160Y195390D01*
G54D18*
X304105Y154163D02*
X302713Y155555D01*
X298537Y154163D02*
X299929Y155555D01*
X304105Y159731D02*
X302713Y158339D01*
G74*
X0Y0D02*
M02*
