0
SECTION
2
HEADER
999
*** POWERPCB  HEADER ***
9
$EXTMIN
10
-1.05
20
-0.05
9
$EXTMAX
10
24.05
20
52.05
9
$FILLMODE
70
0
9
$GRIDMODE
70
1
9
$GRIDUNIT
10
1
20
1
9
$INSBASE
10
-457.2
20
-457.2
9
$LIMCHECK
70
0
9
$PLINEWID
40
0.01
9
$SNAPMODE
70
1
9
$SNAPUNIT
10
0.1
20
0.1
9
$TEXTSIZE
40
2.54
9
$TEXTSTYLE
7
W0$254
9
$USERI1
70
101
9
$USERI2
70
1
9
$USERI5
70
150
9
$VIEWCTR
10
10.4552873333
20
36.1552826667
0
ENDSEC
0
SECTION
2
TABLES
999
*** POWERPCB  LAYER ***
0
TABLE
2
LAYER
70
26
0
LAYER
2
DBLAYERS
70
1
62
-254
6
CONTINUOUS
0
LAYER
2
BOARD_OUTLINE_00
70
0
62
254
6
CONTINUOUS
0
LAYER
2
LABEL_INFO
70
1
62
-254
6
CONTINUOUS
0
LAYER
2
LABEL_ATTRIBUTE
70
1
62
-254
6
CONTINUOUS
0
LAYER
2
PART_NAME_01
70
0
62
254
6
CONTINUOUS
0
LAYER
2
PART_TYPE_TOP
70
1
62
-250
6
CONTINUOUS
0
LAYER
2
PART_INFO
70
1
62
-254
6
CONTINUOUS
0
LAYER
2
PART_PTS
70
1
62
-254
6
CONTINUOUS
0
LAYER
2
PART_TYPE_01
70
1
62
-250
6
CONTINUOUS
0
LAYER
2
SYM_NAME
70
1
62
-254
6
CONTINUOUS
0
LAYER
2
SYM_PART_NAME_01
70
1
62
-254
6
CONTINUOUS
0
LAYER
2
SYM_TERMINAL
70
1
62
-254
6
CONTINUOUS
0
LAYER
2
PKG_INFO
70
1
62
-254
6
CONTINUOUS
0
LAYER
2
SYM_PART_TYPE_01
70
1
62
-254
6
CONTINUOUS
0
LAYER
2
PART_TOP_2DLINE_01
70
0
62
254
6
CONTINUOUS
0
LAYER
2
PART_TOP_2DLINE_115
70
1
62
-250
6
CONTINUOUS
0
LAYER
2
DRIL_NPLTE_THRU_01
70
0
62
96
6
CONTINUOUS
0
LAYER
2
DRIL_NPLTE_THRU_02
70
1
62
-2
6
CONTINUOUS
0
LAYER
2
PADS_INNER
70
0
62
3
6
CONTINUOUS
0
LAYER
2
PADS_BOT
70
1
62
-34
6
CONTINUOUS
0
LAYER
2
PADS_TOP
70
0
62
3
6
CONTINUOUS
0
LAYER
2
PART_TOP_2DLINE_00
70
0
62
254
6
CONTINUOUS
0
LAYER
2
DRIL_PLTE_THRU_01
70
0
62
96
6
CONTINUOUS
0
LAYER
2
DRIL_PLTE_THRU_02
70
1
62
-2
6
CONTINUOUS
0
LAYER
2
PCB_PARAMS
70
1
62
-254
6
CONTINUOUS
0
LAYER
2
DRIL_SYMBOL
70
0
62
254
6
CONTINUOUS
0
ENDTAB
999
*** POWERPCB  TEXT STYLE ***
0
TABLE
2
STYLE
70
5
0
STYLE
2
W0$1
70
64
40
0
41
0.75
42
0
50
0
71
0
3
simplex
0
STYLE
2
W0$127
70
64
40
0
41
0.75
42
0
50
0
71
0
3
simplex
0
STYLE
2
W0$1R2
70
64
40
0
41
0.75
42
0
50
0
71
0
3
simplex
0
STYLE
2
W0$127R0
70
64
40
0
41
0.75
42
0
50
0
71
0
3
simplex
0
STYLE
2
W0$254
70
64
40
0
41
0.75
42
0
50
0
71
0
3
simplex
0
ENDTAB
0
ENDSEC
0
SECTION
2
BLOCKS
999
*** POWERPCB  DBLAYER ***
0
BLOCK
2
DBLAYERS
8
0
10
0
20
0
3
DBLAYERS
70
64
0
TEXT
8
DBLAYERS
10
0
20
-3.048
40
1.778
1
__It__Is__Job__Name__:=Plasma_Gen_Transformer_SCH_V2.0_20180324.pcb
999
 *  1.Number             2.Type                  3.RouteColor
999
 *  4.ViaColor           5.PadColor              6.CopperColor
999
 *  7.2DLineColor        8.TextColor             9.ErrorColor
999
 * 10.TopComponentColor 11.BottomComponentColor 12.RoutingDirection
999
 * 13.LayerThickness    14.CopperThickness      15.Dielectric
999
 * 16.IsRouteable       17.IsVisible            18.IsSelectable
999
 * 19.IsPrepreg         20.AssSilkScreen        21.AssPasteMask
999
 * 22.AssSolderMask     23.AssAssembly
0
TEXT
8
DBLAYERS
10
0
20
-6.096
40
1.778
1
Top:=1 1 10 10 10 10 8 8 10 8 0 0 381000 51435 4.3000001907 1 1 1 0 126 123 121 127 0 0 1 8 0 10 10 
0
ENDBLK
999
*** POWERPCB  BOARD ***
0
BLOCK
2
BOARD_3
8
0
10
0
20
0
3
BOARD_3
70
64
0
POLYLINE
8
BOARD_OUTLINE_00
66
1
40
0.1
41
0.1
70
1
0
VERTEX
8
BOARD_OUTLINE_00
10
2
20
0.3
42
0.4142135624
0
VERTEX
8
BOARD_OUTLINE_00
10
2.3
20
0
0
VERTEX
8
BOARD_OUTLINE_00
10
20.7
20
0
42
0.4142135624
0
VERTEX
8
BOARD_OUTLINE_00
10
21
20
0.3
0
VERTEX
8
BOARD_OUTLINE_00
10
21
20
3
42
-0.4142135624
0
VERTEX
8
BOARD_OUTLINE_00
10
22
20
4
0
VERTEX
8
BOARD_OUTLINE_00
10
23.5
20
4
42
0.4142135624
0
VERTEX
8
BOARD_OUTLINE_00
10
24
20
4.5
0
VERTEX
8
BOARD_OUTLINE_00
10
24
20
29.5
42
0.4142135624
0
VERTEX
8
BOARD_OUTLINE_00
10
23.5
20
30
0
VERTEX
8
BOARD_OUTLINE_00
10
22
20
30
42
-0.4142135624
0
VERTEX
8
BOARD_OUTLINE_00
10
21
20
31
0
VERTEX
8
BOARD_OUTLINE_00
10
21
20
51.5
42
0.4142135624
0
VERTEX
8
BOARD_OUTLINE_00
10
20.5
20
52
0
VERTEX
8
BOARD_OUTLINE_00
10
2.5
20
52
42
0.4142135624
0
VERTEX
8
BOARD_OUTLINE_00
10
2
20
51.5
0
VERTEX
8
BOARD_OUTLINE_00
10
2
20
31
42
-0.4142135624
0
VERTEX
8
BOARD_OUTLINE_00
10
1
20
30
0
VERTEX
8
BOARD_OUTLINE_00
10
-0.5
20
30
42
0.4142135624
0
VERTEX
8
BOARD_OUTLINE_00
10
-1
20
29.5
0
VERTEX
8
BOARD_OUTLINE_00
10
-1
20
4.5
42
0.4142135624
0
VERTEX
8
BOARD_OUTLINE_00
10
-0.5
20
4
0
VERTEX
8
BOARD_OUTLINE_00
10
1
20
4
42
-0.4142135624
0
VERTEX
8
BOARD_OUTLINE_00
10
2
20
3
0
SEQEND
0
INSERT
2
SMOOTH_0$1
8
BOARD_OUTLINE_00
10
2
20
0.3
0
INSERT
2
SMOOTH_0$1
8
BOARD_OUTLINE_00
10
2.3
20
0
0
ENDBLK
999
*** POWERPCB  2DLINE ***
999
*** POWERPCB  COMPONENT ***
0
BLOCK
2
PART_TOP_0
8
0
10
0
20
0
3
PART_TOP_0
70
64
0
INSERT
2
SYM_TOP_4
8
0
10
0
20
0
0
INSERT
2
PKG_0
8
0
10
0
20
0
0
TEXT
8
LABEL_INFO
10
0.05
20
1.1
40
0.7
1
2 0 1 1 0 1
72
1
73
1
11
0.05
21
1.1
41
0.75
7
W0$1
0
TEXT
8
LABEL_ATTRIBUTE
10
0.05
20
1.1
40
0.7
1
Ref.Des.
72
1
73
1
11
0.05
21
1.1
41
0.75
7
W0$1
0
TEXT
8
PART_NAME_01
10
0.05
20
1.1
40
0.7
1
C2
72
1
73
2
11
0.05
21
1.1
41
0.75
7
W0$1
0
TEXT
8
PART_TYPE_TOP
10
0.05
20
0.1
40
0.7
1
C-1005
72
1
73
2
11
0.05
21
0.1
41
0.75
7
W0$1
0
TEXT
8
PART_INFO
10
0.05
20
-0.9
40
0.7
1
000000
72
1
73
2
11
0.05
21
-0.9
41
0.75
7
W0$1
0
TEXT
8
PART_PTS
10
0.05
20
-1.9
40
0.7
1
1 2 
72
1
73
2
11
0.05
21
-1.9
41
0.75
7
W0$1
0
ENDBLK
0
BLOCK
2
PART_TOP_5
8
0
10
0
20
0
3
PART_TOP_5
70
64
0
INSERT
2
SYM_TOP_7
8
0
10
0
20
0
0
INSERT
2
PKG_3
8
0
10
0
20
0
0
TEXT
8
LABEL_INFO
10
-1.1
20
-0.8
40
0.889
1
0 0 0 2 0 1
73
2
11
-1.1
21
-0.8
41
0.75
7
W0$127
0
TEXT
8
LABEL_ATTRIBUTE
10
-1.1
20
-0.8
40
0.889
1
PartType
73
2
11
-1.1
21
-0.8
41
0.75
7
W0$127
0
TEXT
8
PART_TYPE_01
10
-1.1
20
-0.8
40
0.889
1
T491D227K016AT
73
3
11
-1.1
21
-0.8
41
0.75
7
W0$127
0
TEXT
8
LABEL_INFO
10
0.4
20
-2.7
40
0.7
1
0 324000000 0 0 0 1
50
180
41
0.75
7
W0$1
0
TEXT
8
LABEL_ATTRIBUTE
10
0.4
20
-2.7
40
0.7
1
Ref.Des.
50
180
41
0.75
7
W0$1
0
TEXT
8
PART_NAME_01
10
0.4
20
-2.7
40
0.7
1
C1
50
180
41
0.75
7
W0$1
0
TEXT
8
PART_INFO
10
0.4
20
-3.7
40
0.7
1
000000
50
180
41
0.75
7
W0$1
0
TEXT
8
PART_PTS
10
0.4
20
-4.7
40
0.7
1
1 2 
50
180
41
0.75
7
W0$1
0
ENDBLK
0
BLOCK
2
PART_TOP_8
8
0
10
0
20
0
3
PART_TOP_8
70
64
0
INSERT
2
SYM_TOP_10
8
0
10
0
20
0
0
INSERT
2
PKG_5
8
0
10
0
20
0
0
TEXT
8
LABEL_INFO
10
-1
20
0.75
40
0.889
1
0 0 0 2 0 1
73
2
11
-1
21
0.75
41
0.75
7
W0$127
0
TEXT
8
LABEL_ATTRIBUTE
10
-1
20
0.75
40
0.889
1
PartType
73
2
11
-1
21
0.75
41
0.75
7
W0$127
0
TEXT
8
PART_TYPE_01
10
-1
20
0.75
40
0.889
1
EFD1820G
73
3
11
-1
21
0.75
41
0.75
7
W0$127
0
TEXT
8
LABEL_INFO
10
-14.0016566667
20
-0.74151
40
0.7
1
0 162000000 0 0 0 1
50
90
41
0.75
7
W0$1
0
TEXT
8
LABEL_ATTRIBUTE
10
-14.0016566667
20
-0.74151
40
0.7
1
Ref.Des.
50
90
41
0.75
7
W0$1
0
TEXT
8
PART_NAME_01
10
-14.0016566667
20
-0.74151
40
0.7
1
TX1
50
90
41
0.75
7
W0$1
0
TEXT
8
PART_INFO
10
-14.0016566667
20
-1.74151
40
0.7
1
000010
50
90
41
0.75
7
W0$1
0
TEXT
8
PART_PTS
10
-14.0016566667
20
-2.74151
40
0.7
1
1 2 3 4 5 6 
50
90
41
0.75
7
W0$1
0
ENDBLK
0
BLOCK
2
PART_TOP_11
8
0
10
0
20
0
3
PART_TOP_11
70
64
0
INSERT
2
SYM_TOP_12
8
0
10
0
20
0
0
INSERT
2
PKG_6
8
0
10
0
20
0
0
TEXT
8
LABEL_INFO
10
6.1280266667
20
1.9751273333
40
0.7
1
0 324000000 0 0 0 1
50
180
41
0.75
7
W0$1
0
TEXT
8
LABEL_ATTRIBUTE
10
6.1280266667
20
1.9751273333
40
0.7
1
Ref.Des.
50
180
41
0.75
7
W0$1
0
TEXT
8
PART_NAME_01
10
6.1280266667
20
1.9751273333
40
0.7
1
J1
50
180
41
0.75
7
W0$1
0
TEXT
8
PART_TYPE_TOP
10
6.1280266667
20
0.9751273333
40
0.7
1
053398-0571
50
180
41
0.75
7
W0$1
0
TEXT
8
PART_INFO
10
6.1280266667
20
-0.0248726667
40
0.7
1
000011
50
180
41
0.75
7
W0$1
0
TEXT
8
PART_PTS
10
6.1280266667
20
-1.0248726667
40
0.7
1
1 2 3 4 5 6 7 8 
50
180
41
0.75
7
W0$1
0
ENDBLK
0
BLOCK
2
SYM_TOP_4
8
0
10
0
20
0
3
SYM_TOP_4
70
64
0
TEXT
8
SYM_NAME
10
0
20
0
40
1.778
1
C-1005
41
0.75
0
TEXT
8
SYM_PART_NAME_01
10
2.15
20
0.1
40
0.7
1
 
72
1
73
1
11
2.15
21
0.1
41
0.75
7
W0$1R2
0
INSERT
2
PART_BODY_TOP_4
8
0
10
0
20
0
0
INSERT
2
STK_TOP_296
8
0
10
-0.4
20
0
0
TEXT
8
SYM_TERMINAL
10
0
20
-3.048
40
1.778
1
1
0
INSERT
2
STK_TOP_296
8
0
10
0.4
20
0
0
TEXT
8
SYM_TERMINAL
10
0
20
-6.096
40
1.778
1
2
0
ENDBLK
0
BLOCK
2
PKG_0
8
0
10
0
20
0
3
PKG_0
70
64
0
TEXT
8
PKG_INFO
10
0
20
0
40
1.778
1
*SYM:= 4
0
TEXT
8
PKG_INFO
10
0
20
-3.048
40
1.778
1
*PKG:= 0 C-1005 UND
0
TEXT
8
PKG_INFO
10
0
20
-6.096
40
1.778
1
*GATE:=0
0
TEXT
8
PKG_INFO
10
0
20
-9.144
40
1.778
1
*GATEPIN:= 0 1 1 1
0
TEXT
8
PKG_INFO
10
0
20
-12.192
40
1.778
1
*GATEPIN:= 0 1 2 2
0
ENDBLK
0
BLOCK
2
SYM_TOP_7
8
0
10
0
20
0
3
SYM_TOP_7
70
64
0
TEXT
8
SYM_NAME
10
0
20
0
40
1.778
1
T491D227K016AT
41
0.75
0
TEXT
8
SYM_PART_NAME_01
10
-1.346
20
2.831
40
0.889
1
 
41
0.75
7
W0$127R0
0
TEXT
8
SYM_PART_TYPE_01
10
-1.1
20
-0.8
40
0.889
1
 
73
2
11
-1.1
21
-0.8
41
0.75
7
W0$127R0
0
INSERT
2
PART_BODY_TOP_7
8
0
10
0
20
0
0
INSERT
2
STK_TOP_522
8
0
10
-3.12
20
0
0
TEXT
8
SYM_TERMINAL
10
0
20
-3.048
40
1.778
1
1
0
INSERT
2
STK_TOP_522
8
0
10
3.12
20
0
0
TEXT
8
SYM_TERMINAL
10
0
20
-6.096
40
1.778
1
2
0
ENDBLK
0
BLOCK
2
PKG_3
8
0
10
0
20
0
3
PKG_3
70
64
0
TEXT
8
PKG_INFO
10
0
20
0
40
1.778
1
*SYM:= 7
0
TEXT
8
PKG_INFO
10
0
20
-3.048
40
1.778
1
*PKG:= 0 T491D227K016AT TAN
0
TEXT
8
PKG_INFO
10
0
20
-6.096
40
1.778
1
*GATE:=0
0
TEXT
8
PKG_INFO
10
0
20
-9.144
40
1.778
1
*GATEPIN:= 0 9 1 <>
0
TEXT
8
PKG_INFO
10
0
20
-12.192
40
1.778
1
*GATEPIN:= 0 9 2 <>
0
ENDBLK
0
BLOCK
2
SYM_TOP_10
8
0
10
0
20
0
3
SYM_TOP_10
70
64
0
TEXT
8
SYM_NAME
10
0
20
0
40
1.778
1
EFD1820G
41
0.75
0
TEXT
8
SYM_PART_NAME_01
10
-12.4
20
1.6
40
0.889
1
 
50
270
41
0.75
7
W0$127R0
0
TEXT
8
SYM_PART_TYPE_01
10
-1
20
0.75
40
0.889
1
 
73
2
11
-1
21
0.75
41
0.75
7
W0$127R0
0
INSERT
2
PART_BODY_TOP_10
8
0
10
0
20
0
0
INSERT
2
STK_TOP_539
8
0
10
-12.75
20
6.25
0
TEXT
8
SYM_TERMINAL
10
0
20
-3.048
40
1.778
1
1
0
INSERT
2
STK_TOP_539
8
0
10
-12.75
20
3.75
0
TEXT
8
SYM_TERMINAL
10
0
20
-6.096
40
1.778
1
2
0
INSERT
2
STK_TOP_539
8
0
10
-12.75
20
-3.75
0
TEXT
8
SYM_TERMINAL
10
0
20
-9.144
40
1.778
1
3
0
INSERT
2
STK_TOP_539
8
0
10
-12.75
20
-6.25
0
TEXT
8
SYM_TERMINAL
10
0
20
-12.192
40
1.778
1
4
0
INSERT
2
STK_TOP_537
8
0
10
13
20
-3.75
0
TEXT
8
SYM_TERMINAL
10
0
20
-15.24
40
1.778
1
5
0
INSERT
2
STK_TOP_537
8
0
10
13
20
3.75
0
TEXT
8
SYM_TERMINAL
10
0
20
-18.288
40
1.778
1
6
0
ENDBLK
0
BLOCK
2
PKG_5
8
0
10
0
20
0
3
PKG_5
70
64
0
TEXT
8
PKG_INFO
10
0
20
0
40
1.778
1
*SYM:= 10
0
TEXT
8
PKG_INFO
10
0
20
-3.048
40
1.778
1
*PKG:= 0 EFD1820G UND
0
TEXT
8
PKG_INFO
10
0
20
-6.096
40
1.778
1
*GATE:=0
0
TEXT
8
PKG_INFO
10
0
20
-9.144
40
1.778
1
*GATEPIN:= 0 9 1 1
0
TEXT
8
PKG_INFO
10
0
20
-12.192
40
1.778
1
*GATEPIN:= 0 9 2 2
0
TEXT
8
PKG_INFO
10
0
20
-15.24
40
1.778
1
*GATEPIN:= 0 9 3 5
0
TEXT
8
PKG_INFO
10
0
20
-18.288
40
1.778
1
*GATEPIN:= 0 9 4 6
0
TEXT
8
PKG_INFO
10
0
20
-21.336
40
1.778
1
*GATEPIN:= 0 9 5 8
0
TEXT
8
PKG_INFO
10
0
20
-24.384
40
1.778
1
*GATEPIN:= 0 9 6 9
0
ENDBLK
0
BLOCK
2
SYM_TOP_12
8
0
10
0
20
0
3
SYM_TOP_12
70
64
0
TEXT
8
SYM_NAME
10
0
20
0
40
1.778
1
053398-0671
41
0.75
0
TEXT
8
SYM_PART_NAME_01
10
-0.71
20
3.875
40
0.889
1
 
41
0.75
7
W0$127R0
0
TEXT
8
SYM_PART_TYPE_01
10
-0.82
20
3.74
40
0.889
1
 
73
2
11
-0.82
21
3.74
41
0.75
7
W0$127R0
0
INSERT
2
PART_BODY_TOP_12
8
0
10
0
20
0
0
INSERT
2
STK_TOP_471
8
0
10
-3.13
20
0.81
0
TEXT
8
SYM_TERMINAL
10
0
20
-3.048
40
1.778
1
1
0
INSERT
2
STK_TOP_471
8
0
10
-1.876
20
0.801
0
TEXT
8
SYM_TERMINAL
10
0
20
-6.096
40
1.778
1
2
0
INSERT
2
STK_TOP_471
8
0
10
-0.626
20
0.801
0
TEXT
8
SYM_TERMINAL
10
0
20
-9.144
40
1.778
1
3
0
INSERT
2
STK_TOP_471
8
0
10
0.624
20
0.801
0
TEXT
8
SYM_TERMINAL
10
0
20
-12.192
40
1.778
1
4
0
INSERT
2
STK_TOP_471
8
0
10
1.874
20
0.801
0
TEXT
8
SYM_TERMINAL
10
0
20
-15.24
40
1.778
1
5
0
INSERT
2
STK_TOP_471
8
0
10
3.124
20
0.801
0
TEXT
8
SYM_TERMINAL
10
0
20
-18.288
40
1.778
1
6
0
INSERT
2
STK_TOP_525
8
0
10
-5.654
20
-2.091
0
TEXT
8
SYM_TERMINAL
10
0
20
-21.336
40
1.778
1
7
0
INSERT
2
STK_TOP_525
8
0
10
5.65
20
-2.08
0
TEXT
8
SYM_TERMINAL
10
0
20
-24.384
40
1.778
1
8
0
ENDBLK
0
BLOCK
2
PKG_6
8
0
10
0
20
0
3
PKG_6
70
64
0
TEXT
8
PKG_INFO
10
0
20
0
40
1.778
1
*SYM:= 9 12
0
TEXT
8
PKG_INFO
10
0
20
-3.048
40
1.778
1
*PKG:= 0 053398-0571 UND
0
TEXT
8
PKG_INFO
10
0
20
-6.096
40
1.778
1
*GATE:=0
0
TEXT
8
PKG_INFO
10
0
20
-9.144
40
1.778
1
*GATEPIN:= 0 9 1 <>
0
TEXT
8
PKG_INFO
10
0
20
-12.192
40
1.778
1
*GATEPIN:= 0 9 2 <>
0
TEXT
8
PKG_INFO
10
0
20
-15.24
40
1.778
1
*GATEPIN:= 0 9 3 <>
0
TEXT
8
PKG_INFO
10
0
20
-18.288
40
1.778
1
*GATEPIN:= 0 9 4 <>
0
TEXT
8
PKG_INFO
10
0
20
-21.336
40
1.778
1
*GATEPIN:= 0 9 5 <>
0
TEXT
8
PKG_INFO
10
0
20
-24.384
40
1.778
1
*GATEPIN:= 0 9 6 <>
0
TEXT
8
PKG_INFO
10
0
20
-27.432
40
1.778
1
*GATEPIN:= 0 9 7 <>
0
ENDBLK
0
BLOCK
2
PART_BODY_TOP_4
8
0
10
0
20
0
3
PART_BODY_TOP_4
70
64
0
POLYLINE
8
PART_TOP_2DLINE_01
66
1
40
0.1
41
0.1
39
0.55
0
VERTEX
8
PART_TOP_2DLINE_01
10
-0.2
20
0.4
0
VERTEX
8
PART_TOP_2DLINE_01
10
-0.8
20
0.4
0
VERTEX
8
PART_TOP_2DLINE_01
10
-0.8
20
-0.4
0
VERTEX
8
PART_TOP_2DLINE_01
10
-0.2
20
-0.4
0
SEQEND
0
INSERT
2
SMOOTH_0$1
8
PART_TOP_2DLINE_01
10
-0.2
20
0.4
0
INSERT
2
SMOOTH_0$1
8
PART_TOP_2DLINE_01
10
-0.8
20
0.4
0
INSERT
2
SMOOTH_0$1
8
PART_TOP_2DLINE_01
10
-0.8
20
-0.4
0
INSERT
2
SMOOTH_0$1
8
PART_TOP_2DLINE_01
10
-0.2
20
-0.4
0
POLYLINE
8
PART_TOP_2DLINE_01
66
1
40
0.1
41
0.1
39
0.55
0
VERTEX
8
PART_TOP_2DLINE_01
10
0.2
20
0.4
0
VERTEX
8
PART_TOP_2DLINE_01
10
0.8
20
0.4
0
VERTEX
8
PART_TOP_2DLINE_01
10
0.8
20
-0.4
0
VERTEX
8
PART_TOP_2DLINE_01
10
0.2
20
-0.4
0
SEQEND
0
INSERT
2
SMOOTH_0$1
8
PART_TOP_2DLINE_01
10
0.2
20
0.4
0
INSERT
2
SMOOTH_0$1
8
PART_TOP_2DLINE_01
10
0.8
20
0.4
0
INSERT
2
SMOOTH_0$1
8
PART_TOP_2DLINE_01
10
0.8
20
-0.4
0
INSERT
2
SMOOTH_0$1
8
PART_TOP_2DLINE_01
10
0.2
20
-0.4
0
POLYLINE
8
PART_TOP_2DLINE_115
66
1
40
0.1
41
0.1
39
0.55
70
1
0
VERTEX
8
PART_TOP_2DLINE_115
10
-0.5
20
0.25
0
VERTEX
8
PART_TOP_2DLINE_115
10
0.5
20
0.25
0
VERTEX
8
PART_TOP_2DLINE_115
10
0.5
20
-0.25
0
VERTEX
8
PART_TOP_2DLINE_115
10
-0.5
20
-0.25
0
SEQEND
0
INSERT
2
SMOOTH_0$1
8
PART_TOP_2DLINE_115
10
-0.5
20
0.25
0
INSERT
2
SMOOTH_0$1
8
PART_TOP_2DLINE_115
10
0.5
20
0.25
0
INSERT
2
SMOOTH_0$1
8
PART_TOP_2DLINE_115
10
0.5
20
-0.25
0
INSERT
2
SMOOTH_0$1
8
PART_TOP_2DLINE_115
10
-0.5
20
-0.25
0
ENDBLK
0
BLOCK
2
STK_TOP_296
8
0
10
0
20
0
3
STK_TOP_296
70
64
0
INSERT
2
DRIL_HOLE_0
8
DRIL_NPLTE_THRU_01
10
0
20
0
0
INSERT
2
DRIL_HOLE_0
8
DRIL_NPLTE_THRU_02
10
0
20
0
0
INSERT
2
PAD_0
8
PADS_INNER
10
0
20
0
0
INSERT
2
PAD_0
8
PADS_BOT
10
0
20
0
0
INSERT
2
PAD_1
8
PADS_TOP
10
0
20
0
0
ENDBLK
0
BLOCK
2
PART_BODY_TOP_7
8
0
10
0
20
0
3
PART_BODY_TOP_7
70
64
0
POLYLINE
8
PART_TOP_2DLINE_00
66
1
40
0.1
41
0.1
39
2.8
70
1
0
VERTEX
8
PART_TOP_2DLINE_00
10
-3.8
20
-2.3
0
VERTEX
8
PART_TOP_2DLINE_00
10
3.8
20
-2.3
0
VERTEX
8
PART_TOP_2DLINE_00
10
3.8
20
2.3
0
VERTEX
8
PART_TOP_2DLINE_00
10
-3.8
20
2.3
0
SEQEND
0
INSERT
2
SMOOTH_0$1
8
PART_TOP_2DLINE_00
10
-3.8
20
-2.3
0
INSERT
2
SMOOTH_0$1
8
PART_TOP_2DLINE_00
10
3.8
20
-2.3
0
INSERT
2
SMOOTH_0$1
8
PART_TOP_2DLINE_00
10
3.8
20
2.3
0
INSERT
2
SMOOTH_0$1
8
PART_TOP_2DLINE_00
10
-3.8
20
2.3
0
POLYLINE
8
PART_TOP_2DLINE_01
66
1
40
0.15
41
0.15
39
2.8
0
VERTEX
8
PART_TOP_2DLINE_01
10
0.5
20
1
0
VERTEX
8
PART_TOP_2DLINE_01
10
0.5
20
-1
0
SEQEND
0
INSERT
2
SMOOTH_0$15
8
PART_TOP_2DLINE_01
10
0.5
20
1
0
INSERT
2
SMOOTH_0$15
8
PART_TOP_2DLINE_01
10
0.5
20
-1
0
POLYLINE
8
PART_TOP_2DLINE_00
66
1
40
0.15
41
0.15
39
2.8
0
VERTEX
8
PART_TOP_2DLINE_00
10
-0.5
20
1
42
-0.5166911828
0
VERTEX
8
PART_TOP_2DLINE_00
10
-0.5
20
-1
0
SEQEND
0
INSERT
2
SMOOTH_0$15
8
PART_TOP_2DLINE_00
10
-0.5
20
1
0
INSERT
2
SMOOTH_0$15
8
PART_TOP_2DLINE_00
10
-0.5
20
-1
0
POLYLINE
8
PART_TOP_2DLINE_01
66
1
40
0.15
41
0.15
39
2.8
0
VERTEX
8
PART_TOP_2DLINE_01
10
0.5
20
0
0
VERTEX
8
PART_TOP_2DLINE_01
10
1.5
20
0
0
SEQEND
0
INSERT
2
SMOOTH_0$15
8
PART_TOP_2DLINE_01
10
0.5
20
0
0
INSERT
2
SMOOTH_0$15
8
PART_TOP_2DLINE_01
10
1.5
20
0
0
POLYLINE
8
PART_TOP_2DLINE_00
66
1
40
0.15
41
0.15
39
2.8
0
VERTEX
8
PART_TOP_2DLINE_00
10
0
20
0
0
VERTEX
8
PART_TOP_2DLINE_00
10
-1
20
0
0
SEQEND
0
INSERT
2
SMOOTH_0$15
8
PART_TOP_2DLINE_00
10
0
20
0
0
INSERT
2
SMOOTH_0$15
8
PART_TOP_2DLINE_00
10
-1
20
0
0
POLYLINE
8
PART_TOP_2DLINE_01
66
1
40
0.15
41
0.15
39
2.8
0
VERTEX
8
PART_TOP_2DLINE_01
10
0.5
20
1.5
0
VERTEX
8
PART_TOP_2DLINE_01
10
1.5
20
1.5
0
SEQEND
0
INSERT
2
SMOOTH_0$15
8
PART_TOP_2DLINE_01
10
0.5
20
1.5
0
INSERT
2
SMOOTH_0$15
8
PART_TOP_2DLINE_01
10
1.5
20
1.5
0
POLYLINE
8
PART_TOP_2DLINE_00
66
1
40
0.15
41
0.15
39
2.8
0
VERTEX
8
PART_TOP_2DLINE_00
10
1
20
2
0
VERTEX
8
PART_TOP_2DLINE_00
10
1
20
1
0
SEQEND
0
INSERT
2
SMOOTH_0$15
8
PART_TOP_2DLINE_00
10
1
20
2
0
INSERT
2
SMOOTH_0$15
8
PART_TOP_2DLINE_00
10
1
20
1
0
ENDBLK
0
BLOCK
2
STK_TOP_522
8
0
10
0
20
0
3
STK_TOP_522
70
64
0
INSERT
2
DRIL_HOLE_0
8
DRIL_PLTE_THRU_01
10
0
20
0
0
INSERT
2
DRIL_HOLE_0
8
DRIL_PLTE_THRU_02
10
0
20
0
0
INSERT
2
PAD_0
8
PADS_INNER
10
0
20
0
0
INSERT
2
PAD_0
8
PADS_BOT
10
0
20
0
0
INSERT
2
PAD_2
8
PADS_TOP
10
0
20
0
50
90
0
ENDBLK
0
BLOCK
2
PART_BODY_TOP_10
8
0
10
0
20
0
3
PART_BODY_TOP_10
70
64
0
POLYLINE
8
PART_TOP_2DLINE_00
66
1
40
0.1
41
0.1
39
8.2
70
1
0
VERTEX
8
PART_TOP_2DLINE_00
10
-10.5
20
-8.9
0
VERTEX
8
PART_TOP_2DLINE_00
10
10.5
20
-8.9
0
VERTEX
8
PART_TOP_2DLINE_00
10
10.5
20
8.9
0
VERTEX
8
PART_TOP_2DLINE_00
10
-10.5
20
8.9
0
SEQEND
0
INSERT
2
SMOOTH_0$1
8
PART_TOP_2DLINE_00
10
-10.5
20
-8.9
0
INSERT
2
SMOOTH_0$1
8
PART_TOP_2DLINE_00
10
10.5
20
-8.9
0
INSERT
2
SMOOTH_0$1
8
PART_TOP_2DLINE_00
10
10.5
20
8.9
0
INSERT
2
SMOOTH_0$1
8
PART_TOP_2DLINE_00
10
-10.5
20
8.9
0
ENDBLK
0
BLOCK
2
STK_TOP_539
8
0
10
0
20
0
3
STK_TOP_539
70
64
0
INSERT
2
DRIL_HOLE_0
8
DRIL_PLTE_THRU_01
10
0
20
0
0
INSERT
2
DRIL_HOLE_0
8
DRIL_PLTE_THRU_02
10
0
20
0
0
INSERT
2
PAD_0
8
PADS_INNER
10
0
20
0
0
INSERT
2
PAD_0
8
PADS_BOT
10
0
20
0
0
INSERT
2
PAD_3
8
PADS_TOP
10
0
20
0
0
ENDBLK
0
BLOCK
2
STK_TOP_537
8
0
10
0
20
0
3
STK_TOP_537
70
64
0
INSERT
2
DRIL_HOLE_0
8
DRIL_PLTE_THRU_01
10
0
20
0
0
INSERT
2
DRIL_HOLE_0
8
DRIL_PLTE_THRU_02
10
0
20
0
0
INSERT
2
PAD_0
8
PADS_INNER
10
0
20
0
0
INSERT
2
PAD_0
8
PADS_BOT
10
0
20
0
0
INSERT
2
PAD_4
8
PADS_TOP
10
0
20
0
0
ENDBLK
0
BLOCK
2
PART_BODY_TOP_12
8
0
10
0
20
0
3
PART_BODY_TOP_12
70
64
0
POLYLINE
8
PART_TOP_2DLINE_00
66
1
40
0.1
41
0.1
39
4.7
70
1
0
VERTEX
8
PART_TOP_2DLINE_00
10
-4.63
20
0
0
VERTEX
8
PART_TOP_2DLINE_00
10
4.63
20
0
0
VERTEX
8
PART_TOP_2DLINE_00
10
4.63
20
-4
0
VERTEX
8
PART_TOP_2DLINE_00
10
-4.63
20
-4
0
SEQEND
0
INSERT
2
SMOOTH_0$1
8
PART_TOP_2DLINE_00
10
-4.63
20
0
0
INSERT
2
SMOOTH_0$1
8
PART_TOP_2DLINE_00
10
4.63
20
0
0
INSERT
2
SMOOTH_0$1
8
PART_TOP_2DLINE_00
10
4.63
20
-4
0
INSERT
2
SMOOTH_0$1
8
PART_TOP_2DLINE_00
10
-4.63
20
-4
0
ENDBLK
0
BLOCK
2
STK_TOP_471
8
0
10
0
20
0
3
STK_TOP_471
70
64
0
INSERT
2
DRIL_HOLE_0
8
DRIL_PLTE_THRU_01
10
0
20
0
0
INSERT
2
DRIL_HOLE_0
8
DRIL_PLTE_THRU_02
10
0
20
0
0
INSERT
2
PAD_0
8
PADS_INNER
10
0
20
0
0
INSERT
2
PAD_0
8
PADS_BOT
10
0
20
0
0
INSERT
2
PAD_5
8
PADS_TOP
10
0
20
0
50
90
0
ENDBLK
0
BLOCK
2
STK_TOP_525
8
0
10
0
20
0
3
STK_TOP_525
70
64
0
INSERT
2
DRIL_HOLE_0
8
DRIL_PLTE_THRU_01
10
0
20
0
0
INSERT
2
DRIL_HOLE_0
8
DRIL_PLTE_THRU_02
10
0
20
0
0
INSERT
2
PAD_0
8
PADS_INNER
10
0
20
0
0
INSERT
2
PAD_0
8
PADS_BOT
10
0
20
0
0
INSERT
2
PAD_6
8
PADS_TOP
10
0
20
0
50
90
0
ENDBLK
0
BLOCK
2
SYM_TOP_9
8
0
10
0
20
0
3
SYM_TOP_9
70
64
0
TEXT
8
SYM_NAME
10
0
20
0
40
1.778
1
053398-0571
41
0.75
0
TEXT
8
SYM_PART_NAME_01
10
-0.71
20
3.875
40
0.889
1
 
41
0.75
7
W0$127R0
0
TEXT
8
SYM_PART_TYPE_01
10
-0.82
20
3.74
40
0.889
1
 
73
2
11
-0.82
21
3.74
41
0.75
7
W0$127R0
0
INSERT
2
PART_BODY_TOP_9
8
0
10
0
20
0
0
INSERT
2
STK_TOP_471
8
0
10
-2.504
20
0.809
0
TEXT
8
SYM_TERMINAL
10
0
20
-3.048
40
1.778
1
1
0
INSERT
2
STK_TOP_471
8
0
10
-1.25
20
0.8
0
TEXT
8
SYM_TERMINAL
10
0
20
-6.096
40
1.778
1
2
0
INSERT
2
STK_TOP_471
8
0
10
0
20
0.8
0
TEXT
8
SYM_TERMINAL
10
0
20
-9.144
40
1.778
1
3
0
INSERT
2
STK_TOP_471
8
0
10
1.25
20
0.8
0
TEXT
8
SYM_TERMINAL
10
0
20
-12.192
40
1.778
1
4
0
INSERT
2
STK_TOP_471
8
0
10
2.5
20
0.8
0
TEXT
8
SYM_TERMINAL
10
0
20
-15.24
40
1.778
1
5
0
INSERT
2
STK_TOP_525
8
0
10
-5.054
20
-2.091
0
TEXT
8
SYM_TERMINAL
10
0
20
-18.288
40
1.778
1
6
0
INSERT
2
STK_TOP_525
8
0
10
5.048
20
-2.104
0
TEXT
8
SYM_TERMINAL
10
0
20
-21.336
40
1.778
1
7
0
ENDBLK
0
BLOCK
2
PART_BODY_TOP_9
8
0
10
0
20
0
3
PART_BODY_TOP_9
70
64
0
POLYLINE
8
PART_TOP_2DLINE_00
66
1
40
0.1
41
0.1
70
1
0
VERTEX
8
PART_TOP_2DLINE_00
10
-4.003
20
0
0
VERTEX
8
PART_TOP_2DLINE_00
10
4
20
0
0
VERTEX
8
PART_TOP_2DLINE_00
10
4
20
-4
0
VERTEX
8
PART_TOP_2DLINE_00
10
-4.003
20
-4
0
SEQEND
0
INSERT
2
SMOOTH_0$1
8
PART_TOP_2DLINE_00
10
-4.003
20
0
0
INSERT
2
SMOOTH_0$1
8
PART_TOP_2DLINE_00
10
4
20
0
0
INSERT
2
SMOOTH_0$1
8
PART_TOP_2DLINE_00
10
4
20
-4
0
INSERT
2
SMOOTH_0$1
8
PART_TOP_2DLINE_00
10
-4.003
20
-4
0
ENDBLK
999
*** POWERPCB  PCB PARAMETER ***
0
BLOCK
2
PCB_PARAMS
8
0
10
0
20
0
3
PCB_PARAMS
70
64
999
 *  1.Job name           2.Backupfile name       3.CursorType
999
 *  4.TearDropFlag       5.HighlighNetsFlag      6.HatchDisplayFlag
999
 *  7.PadsFlag           8.TracksFlag            9.ViasFlag
999
 * 10.CopperFlag        11.LinesFlag            12.TextFlag
999
 * 13.TopComponentFlag  14.BottomComponentFlag  16.ObjectSnapFlags
0
TEXT
8
PCB_PARAMS
10
0
20
-3.048
40
1.778
1
A:=Plasma_Gen_Transformer_SCH_V2.0_20180324.pcb <> 3 0 1 1 1 0 0 0 1 1 1 1 32 508 0
999
 *  1.RefDesHeight       2.RefDesWidth           3.DefaultWidth
999
 *  4.VGX                5.VGY                   6.OVR
999
 *  7.HatchGrid          8.ObjectSnapRadius
0
TEXT
8
PCB_PARAMS
10
0
20
-6.096
40
1.778
1
B:=2.54 0.254 0.1 0.1 0.1 0 0.09 1
999
 *  1.ScaleFactor        2.NetAttributeFlags     3.BackupInterval
999
 *  4.WorkingLevel       5.HatchMode             6.HatchDirection
999
 *  7.ConnectionColor    8.BackgroundColor       9.ForegroundColor
999
 * 10.BoardOutlineColor
0
TEXT
8
PCB_PARAMS
10
0
20
-9.144
40
1.778
1
C:=10.2001848221 10002 20 0 0 0 0 0 8 8
999
 * MitreAngle0 - MitreAngle6
0
TEXT
8
PCB_PARAMS
10
0
20
-12.192
40
1.778
1
D:=324000000 324000000 324000000 324000000 324000000 324000000 162000000
999
 * Hatch & Keepout Parameters
0
TEXT
8
PCB_PARAMS
10
0
20
-15.24
40
1.778
1
E:=0.5 0 0 2 0 1
999
 * Fanout Parameters
0
TEXT
8
PCB_PARAMS
10
0
20
-18.288
40
1.778
1
F:=0.1 0.1 6.35 1 2 0 1 1 0 0 1 1 1 1
999
 * Pad Entry Parameters
0
TEXT
8
PCB_PARAMS
10
0
20
-21.336
40
1.778
1
P:= 1 1 1 1
999
 * DFF Parameters
0
TEXT
8
PCB_PARAMS
10
0
20
-24.384
40
1.778
1
Q:=89.9999 3967 114300 114300 114300 5 4 114300 114300 114300 114300 1 114300 1 114300 1 114300 0
0
ENDBLK
0
BLOCK
2
DRIL_SYMBOL_0
8
0
10
0
20
0
3
DRIL_SYMBOL_0
70
64
0
ENDBLK
999
*** POWERPCB  SMOOTH CIRCLE ***
0
BLOCK
2
SMOOTH_0$1
8
0
10
0
20
0
3
SMOOTH_0$1
70
64
0
POLYLINE
8
0
66
1
40
0.05
41
0.05
70
1
0
VERTEX
8
0
10
-0.025
20
0
42
1
0
VERTEX
8
0
10
0.025
20
0
42
1
0
SEQEND
0
ENDBLK
0
BLOCK
2
SMOOTH_0$15
8
0
10
0
20
0
3
SMOOTH_0$15
70
64
0
POLYLINE
8
0
66
1
40
0.075
41
0.075
70
1
0
VERTEX
8
0
10
-0.0375
20
0
42
1
0
VERTEX
8
0
10
0.0375
20
0
42
1
0
SEQEND
0
ENDBLK
0
BLOCK
2
PAD_0
8
0
10
0
20
0
3
PAD_0
70
64
0
POLYLINE
8
0
70
1
66
1
0
VERTEX
8
0
10
0
20
0
42
1
0
VERTEX
8
0
10
0
20
0
42
1
0
SEQEND
0
ENDBLK
0
BLOCK
2
PAD_1
8
0
10
0
20
0
3
PAD_1
70
64
0
POLYLINE
8
0
66
1
40
0.5
41
0.5
0
VERTEX
8
0
10
-0.25
20
0
0
VERTEX
8
0
10
0.25
20
0
0
SEQEND
0
ENDBLK
0
BLOCK
2
PAD_2
8
0
10
0
20
0
3
PAD_2
70
64
0
POLYLINE
8
0
66
1
40
2.37
41
2.37
0
VERTEX
8
0
10
-1.215
20
0
0
VERTEX
8
0
10
1.215
20
0
0
SEQEND
0
ENDBLK
0
BLOCK
2
PAD_3
8
0
10
0
20
0
3
PAD_3
70
64
0
POLYLINE
8
0
66
1
40
0.7
41
0.7
0
VERTEX
8
0
10
-1.25
20
0
0
VERTEX
8
0
10
1.25
20
0
0
SEQEND
0
ENDBLK
0
BLOCK
2
PAD_4
8
0
10
0
20
0
3
PAD_4
70
64
0
POLYLINE
8
0
66
1
40
1
41
1
0
VERTEX
8
0
10
-1.5
20
0
0
VERTEX
8
0
10
1.5
20
0
0
SEQEND
0
ENDBLK
0
BLOCK
2
PAD_5
8
0
10
0
20
0
3
PAD_5
70
64
0
POLYLINE
8
0
66
1
40
0.8
41
0.8
0
VERTEX
8
0
10
-0.8
20
0
0
VERTEX
8
0
10
0.8
20
0
0
SEQEND
0
ENDBLK
0
BLOCK
2
PAD_6
8
0
10
0
20
0
3
PAD_6
70
64
0
POLYLINE
8
0
66
1
40
2.3
41
2.3
0
VERTEX
8
0
10
-1.6
20
0
0
VERTEX
8
0
10
1.6
20
0
0
SEQEND
0
ENDBLK
999
*** POWERPCB  DRILL HOLE ***
0
BLOCK
2
DRIL_HOLE_0
8
0
10
0
20
0
3
DRIL_HOLE_0
70
64
0
POLYLINE
8
0
66
1
70
1
0
VERTEX
8
0
10
0
20
0
42
1
0
VERTEX
8
0
10
0
20
0
42
1
0
SEQEND
0
INSERT
2
DRIL_SYMBOL_0
8
0
10
0
20
0
0
ENDBLK
0
ENDSEC
0
SECTION
2
ENTITIES
999
*** POWERPCB  DBLAYER ***
0
INSERT
2
DBLAYERS
8
0
10
0
20
0
999
*** POWERPCB  BOARD ***
0
INSERT
2
BOARD_3
8
0
10
0
20
0
999
*** POWERPCB  2DLINE ***
999
*** POWERPCB  FREE TEXT ***
999
*** POWERPCB  COMPONENT ***
0
INSERT
2
PART_TOP_0
8
0
10
8.86
20
43.34
0
INSERT
2
PART_TOP_5
8
0
10
11.74
20
39.6
50
180
0
INSERT
2
PART_TOP_8
8
0
10
11.5
20
17
50
270
0
INSERT
2
PART_TOP_11
8
0
10
11.5
20
47
50
180
999
*** POWERPCB  PCB PARAMETER ***
0
INSERT
2
PCB_PARAMS
8
0
10
0
20
0
0
ENDSEC
0
EOF
