*
*
G04 PADS VX.2.3 Build Number: 9191294 generated Gerber (RS-274-X) file*
G04 PC Version=2.1*
*
%IN "Plasma_Pipette_V2.0_Mai"*%
*
%MOIN*%
*
%FSLAX35Y35*%
*
*
*
*
G04 PC Standard Apertures*
*
*
G04 Thermal Relief Aperture macro.*
%AMTER*
1,1,$1,0,0*
1,0,$1-$2,0,0*
21,0,$3,$4,0,0,45*
21,0,$3,$4,0,0,135*
%
*
*
G04 Annular Aperture macro.*
%AMANN*
1,1,$1,0,0*
1,0,$2,0,0*
%
*
*
G04 Odd Aperture macro.*
%AMODD*
1,1,$1,0,0*
1,0,$1-0.005,0,0*
%
*
*
G04 PC Custom Aperture Macros*
*
*
*
*
*
*
G04 PC Aperture Table*
*
%ADD010C,0.001*%
%ADD014O,0.08661X0.05118*%
%ADD015C,0.03543*%
%ADD018C,0.07874*%
%ADD019C,0.07087*%
%ADD020C,0.00394*%
%ADD021O,0.04724X0.05906*%
%ADD023C,0.00787*%
%ADD024C,0.02362*%
%ADD026C,0.01181*%
%ADD079C,0.04724*%
%ADD081R,0.07087X0.05906*%
%ADD082R,0.07087X0.08268*%
*
*
*
*
G04 PC Circuitry*
G04 Layer Name Plasma_Pipette_V2.0_Mai - circuitry*
%LPD*%
*
*
G04 PC Custom Flashes*
G04 Layer Name Plasma_Pipette_V2.0_Mai - flashes*
%LPD*%
*
*
G04 PC Circuitry*
G04 Layer Name Plasma_Pipette_V2.0_Mai - circuitry*
%LPD*%
*
G54D10*
G54D14*
G01X90709Y339075D03*
Y317618D03*
G54D15*
X170276Y109646D03*
X175197D03*
X180118D03*
X185039D03*
X189961D03*
X194882D03*
G54D18*
X92126Y367717D03*
X249606D03*
G54D19*
X174803Y375591D03*
Y353937D03*
X210236Y109055D03*
X225984D03*
G54D20*
X102224Y335630D02*
X102378Y335642D01*
X102529Y335678*
X102671Y335737*
X102803Y335818*
X102920Y335918*
X103021Y336036*
X103101Y336167*
X103160Y336310*
X103197Y336460*
X103209Y336614*
Y343701*
X103197Y343855*
X103160Y344005*
X103101Y344148*
X103021Y344279*
X102920Y344397*
X102803Y344497*
X102671Y344578*
X102529Y344637*
X102378Y344673*
X102224Y344685*
X99862*
X99708Y344673*
X99558Y344637*
X99415Y344578*
X99284Y344497*
X99166Y344397*
X99066Y344279*
X98985Y344148*
X98926Y344005*
X98890Y343855*
X98878Y343701*
Y336614*
X98890Y336460*
X98926Y336310*
X98985Y336167*
X99066Y336036*
X99166Y335918*
X99284Y335818*
X99415Y335737*
X99558Y335678*
X99708Y335642*
X99862Y335630*
X102224*
X98976Y336189D02*
Y344126D01*
X99173Y335912D02*
Y344403D01*
X99370Y335765D02*
Y344550D01*
X99567Y335676D02*
Y344639D01*
X99764Y335638D02*
Y344677D01*
X99961Y335630D02*
Y344685D01*
X100157Y335630D02*
Y344685D01*
X100354Y335630D02*
Y344685D01*
X100551Y335630D02*
Y344685D01*
X100748Y335630D02*
Y344685D01*
X100945Y335630D02*
Y344685D01*
X101142Y335630D02*
Y344685D01*
X101339Y335630D02*
Y344685D01*
X101535Y335630D02*
Y344685D01*
X101732Y335630D02*
Y344685D01*
X101929Y335630D02*
Y344685D01*
X102126Y335630D02*
Y344685D01*
X102323Y335638D02*
Y344677D01*
X102520Y335676D02*
Y344639D01*
X102717Y335765D02*
Y344550D01*
X102913Y335912D02*
Y344403D01*
X103110Y336189D02*
Y344126D01*
X102224Y312008D02*
X102378Y312020D01*
X102529Y312056*
X102671Y312115*
X102803Y312196*
X102920Y312296*
X103021Y312414*
X103101Y312545*
X103160Y312688*
X103197Y312838*
X103209Y312992*
Y320079*
X103197Y320233*
X103160Y320383*
X103101Y320526*
X103021Y320657*
X102920Y320775*
X102803Y320875*
X102671Y320956*
X102529Y321015*
X102378Y321051*
X102224Y321063*
X99862*
X99708Y321051*
X99558Y321015*
X99415Y320956*
X99284Y320875*
X99166Y320775*
X99066Y320657*
X98985Y320526*
X98926Y320383*
X98890Y320233*
X98878Y320079*
Y312992*
X98890Y312838*
X98926Y312688*
X98985Y312545*
X99066Y312414*
X99166Y312296*
X99284Y312196*
X99415Y312115*
X99558Y312056*
X99708Y312020*
X99862Y312008*
X102224*
X98976Y312567D02*
Y320504D01*
X99173Y312290D02*
Y320781D01*
X99370Y312143D02*
Y320928D01*
X99567Y312054D02*
Y321017D01*
X99764Y312016D02*
Y321055D01*
X99961Y312008D02*
Y321063D01*
X100157Y312008D02*
Y321063D01*
X100354Y312008D02*
Y321063D01*
X100551Y312008D02*
Y321063D01*
X100748Y312008D02*
Y321063D01*
X100945Y312008D02*
Y321063D01*
X101142Y312008D02*
Y321063D01*
X101339Y312008D02*
Y321063D01*
X101535Y312008D02*
Y321063D01*
X101732Y312008D02*
Y321063D01*
X101929Y312008D02*
Y321063D01*
X102126Y312008D02*
Y321063D01*
X102323Y312016D02*
Y321055D01*
X102520Y312054D02*
Y321017D01*
X102717Y312143D02*
Y320928D01*
X102913Y312290D02*
Y320781D01*
X103110Y312567D02*
Y320504D01*
X254331Y367717D02*
G75*
G03X254331I-4725J0D01*
G01X230512Y109055D02*
G03X230512I-4528J0D01*
G01X214764D02*
G03X214764I-4528J0D01*
G01X146063Y117323D02*
G03X146063I-3150J0D01*
G01X179134Y353937D02*
G03X179134I-4331J0D01*
G01X122441Y117323D02*
G03X122441I-3150J0D01*
G01X96850Y367717D02*
G03X96850I-4724J0D01*
G01X257415Y368504D02*
G03X251509Y374409I-5906J-0D01*
G01X179969*
G03X179778Y374259I0J-196*
G01X169829D02*
G03X179778I4975J1215D01*
G01X169829D02*
G03X169638Y374409I-191J-46D01*
G01X148622*
G03X148425Y374213I0J-196*
G01Y323228*
X144488Y319291D02*
G03X148425Y323228I0J3937D01*
G01X144488Y319291D02*
X126378D01*
X122441Y323228D02*
G03X126378Y319291I3937J0D01*
G01X122441Y323228D02*
Y374213D01*
G03X122244Y374409I-197J-0*
G01X90223*
G03X84318Y368504I0J-5905*
X84329Y368135I5905J-0*
G01X85717Y346659*
G03X85721Y346630I196J13*
G01X85748Y346379D02*
G03X85721Y346630I-1181J-0D01*
G01X85748Y346379D02*
Y344764D01*
X84137Y342828D02*
G03X85748Y344764I-357J1936D01*
G01X84137Y342828D02*
G03X83976Y342634I36J-194D01*
G01X83976D02*
Y313976D01*
G03X84173Y313780I197J0*
G01X85551*
X87913Y311417D02*
G03X85551Y313780I-2362J0D01*
G01X87913Y311417D02*
Y311209D01*
G03X87914Y311193I197J-0*
G01X88028Y309781*
X88030Y309760D02*
G03X88028Y309781I-1179J-74D01*
G01X88030Y309760D02*
X91234Y258846D01*
G03X91430Y258661I196J12*
G01X92244*
X95388Y255707D02*
G03X92244Y258661I-3144J-195D01*
G01X95388Y255707D02*
X97585Y220274D01*
X97591Y220079D02*
G03X97585Y220274I-3150J-0D01*
G01X97591Y220079D02*
X97591D01*
X94441Y216929D02*
G03X97591Y220079I0J3150D01*
G01X94441Y216929D02*
X94066D01*
G03X93869Y216732I-0J-197*
Y216720I197J0*
G01X99136Y132862*
G03X99333Y132677I197J12*
G01X101969*
X105118Y129528D02*
G03X101969Y132677I-3149J-0D01*
G01X105118Y129528D02*
Y124409D01*
G03X105315Y124213I197J0*
G01X112205*
X113189Y123228D02*
G03X112205Y124213I-984J0D01*
G01X113189Y123228D02*
Y114961D01*
X112205Y113976D02*
G03X113189Y114961I-0J985D01*
G01X112205Y113976D02*
X105315D01*
G03X105118Y113780I-0J-196*
G01Y101378*
G03X105315Y101181I197J-0*
G01X236417Y101142*
G03X236614Y101339I0J197*
G01Y129527*
X239765Y132677D02*
G03X236614Y129527I-1J-3150D01*
G01X239765Y132677D02*
X242390Y132676D01*
G03X242586Y132861I-0J197*
G01X247863Y216720*
G03X247666Y216929I-197J12*
G01X247289*
X244139Y220079D02*
G03X247289Y216929I3150J-0D01*
G01X244145Y220271D02*
G03X244139Y220079I3144J-192D01*
G01X244145Y220271D02*
X246307Y255704D01*
X249451Y258661D02*
G03X246307Y255704I0J-3149D01*
G01X249451Y258661D02*
X250320D01*
G03X250517Y258846I0J197*
G01X257403Y368133*
G03X257415Y368504I-5894J371*
G01X257415*
X212867Y250197D02*
X209180D01*
G03X208983Y250000I-0J-197*
X209071Y249836I197J-0*
G01X209318Y246418D02*
G03X209071Y249836I-1444J1613D01*
G01X209318Y246418D02*
G03X209252Y246271I131J-147D01*
G01Y214961*
X208848Y213986D02*
G03X209252Y214961I-974J975D01*
G01X208848Y213986D02*
X203010Y208148D01*
G03X202953Y208009I140J-139*
G01Y198611*
G03X203018Y198464I197J0*
G01X203740Y196850D02*
G03X203018Y198464I-2165J0D01*
G01X203740Y196850D02*
X203740D01*
X203671Y196309D02*
G03X203740Y196850I-2096J541D01*
G01X203671Y196309D02*
G03X203665Y196260I191J-49D01*
X203862Y196063I197J-0*
G01X206374*
G03X206571Y196260I0J197*
X206565Y196309I-197J-0*
G01X206496Y196850D02*
G03X206565Y196309I2165J0D01*
G01X206496Y196850D02*
X206496D01*
X207218Y198464D02*
G03X206496Y196850I1443J-1614D01*
G01X207218Y198464D02*
G03X207283Y198611I-131J147D01*
G01Y207087*
X207687Y208061D02*
G03X207283Y207087I974J-974D01*
G01X207687Y208061D02*
X212738Y213112D01*
G03X212795Y213251I-140J139*
G01Y246271*
G03X212730Y246418I-197J-0*
G01X212976Y249836D02*
G03X212730Y246418I1197J-1805D01*
G01X212976Y249836D02*
G03X212867Y250197I-109J164D01*
G01X239764Y249427D02*
G03X239485Y249606I-197J0D01*
G01X236969Y250131D02*
G03X239485Y249606I1614J1444D01*
G01X236969Y250131D02*
G03X236822Y250197I-147J-131D01*
G01X215479*
G03X215282Y250000I0J-197*
X215370Y249836I197J-0*
G01X216127Y247098D02*
G03X215370Y249836I-1954J933D01*
G01X216127Y247098D02*
G03X216390Y246836I178J-84D01*
G01X218766Y243268D02*
G03X216390Y246836I-1443J1614D01*
G01X218766Y243268D02*
G03X218701Y243121I132J-147D01*
G01Y202548*
G03X218766Y202401I197J0*
G01X215879D02*
G03X218766I1444J-1614D01*
G01X215879D02*
G03X215945Y202548I-131J147D01*
G01Y212587*
G03X215551Y212588I-197J-0*
G01X215148Y211624D02*
G03X215551Y212588I-975J974D01*
G01X215148Y211624D02*
X210097Y206573D01*
G03X210039Y206434I139J-139*
G01Y198611*
G03X210105Y198464I197J0*
G01X210827Y196850D02*
G03X210105Y198464I-2166J0D01*
G01X210827Y196850D02*
X210827D01*
X210758Y196309D02*
G03X210827Y196850I-2097J541D01*
G01X210758Y196309D02*
G03X210752Y196260I191J-49D01*
X210949Y196063I197J-0*
G01X218951*
G03X219090Y196121I0J197*
G01X220415Y197445*
G03X220472Y197584I-139J139*
G01Y198044*
G03X220423Y198174I-196J-0*
G01X223479Y201230D02*
G03X220423Y198174I-1432J-1624D01*
G01X223480Y201230D02*
G03X223610Y201181I130J148D01*
G01X231550*
G03X231689Y201239I-0J197*
G01X239706Y209256*
G03X239764Y209395I-139J139*
G01Y249427*
X254331Y367717D02*
G03X254331I-4725J0D01*
G01X230512Y109055D02*
G03X230512I-4528J0D01*
G01X214764D02*
G03X214764I-4528J0D01*
G01X210105Y159410D02*
G03X210039Y159263I131J-147D01*
G01Y154134*
X209636Y153159D02*
G03X210039Y154134I-975J975D01*
G01X209636Y153159D02*
X191396Y134920D01*
G03X191339Y134781I139J-139*
G01Y112143*
G03X191430Y111977I196J0*
G01X192257Y111169D02*
G03X191430Y111977I-2296J-1523D01*
G01X192257Y111169D02*
G03X192585I164J109D01*
G01Y108122D02*
G03Y111169I2297J1524D01*
G01Y108122D02*
G03X192257I-164J-109D01*
G01X187664D02*
G03X192257I2297J1524D01*
G01X187664D02*
G03X187336I-164J-109D01*
G01X182743D02*
G03X187336I2296J1524D01*
G01X182743D02*
G03X182415I-164J-109D01*
G01X177822D02*
G03X182415I2296J1524D01*
G01X177822D02*
G03X177493I-165J-109D01*
G01X172900D02*
G03X177493I2297J1524D01*
G01X172900D02*
G03X172572I-164J-109D01*
G01Y111169D02*
G03Y108122I-2296J-1523D01*
G01Y111169D02*
G03X172900I164J109D01*
G01X177493D02*
G03X172900I-2296J-1523D01*
G01X177493D02*
G03X177822I164J109D01*
G01X182415D02*
G03X177822I-2297J-1523D01*
G01X182415D02*
G03X182743I164J109D01*
G01X183570Y111977D02*
G03X182743Y111169I1469J-2331D01*
G01X183570Y111977D02*
G03X183661Y112143I-105J166D01*
G01Y138189*
X184065Y139163D02*
G03X183661Y138189I974J-974D01*
G01X184065Y139163D02*
X200139Y155238D01*
G03X200197Y155377I-139J139*
G01Y159657*
G03X200131Y159803I-197J-0*
G01X203018D02*
G03X200131I-1443J1614D01*
G01X203018D02*
G03X202953Y159657I132J-146D01*
G01Y154724*
X202549Y153750D02*
G03X202953Y154724I-974J974D01*
G01X202549Y153750D02*
X186475Y137676D01*
G03X186417Y137537I139J-139*
G01Y112143*
G03X186509Y111977I197J0*
G01X187336Y111169D02*
G03X186509Y111977I-2297J-1523D01*
G01X187336Y111169D02*
G03X187664I164J109D01*
G01X188491Y111977D02*
G03X187664Y111169I1470J-2331D01*
G01X188491Y111977D02*
G03X188583Y112143I-105J166D01*
G01Y135433*
X188986Y136407D02*
G03X188583Y135433I975J-974D01*
G01X188986Y136407D02*
X207226Y154647D01*
G03X207283Y154786I-139J139*
G01Y159263*
G03X207218Y159410I-196J-0*
G01X210105D02*
G03X207218I-1444J1614D01*
G01X158071Y123228D02*
Y114961D01*
X157087Y113976D02*
G03X158071Y114961I-0J985D01*
G01X157087Y113976D02*
X150000D01*
X149016Y114961D02*
G03X150000Y113976I984J-0D01*
G01X149016Y114961D02*
Y123228D01*
X150000Y124213D02*
G03X149016Y123228I0J-985D01*
G01X150000Y124213D02*
X157087D01*
X158071Y123228D02*
G03X157087Y124213I-984J0D01*
G01X222402Y168241D02*
G03X222255Y168307I-147J-131D01*
G01X187857*
G03X187718Y168249I0J-197*
G01X173022Y153553*
X172047Y153150D02*
G03X173022Y153553I0J1378D01*
G01X172047Y153150D02*
X160816D01*
G03X160669Y153084I-0J-197*
G01Y155971D02*
G03Y153084I-1614J-1443D01*
G01Y155971D02*
G03X160816Y155906I147J131D01*
G01X171395*
G03X171534Y155963I-0J196*
G01X186230Y170659*
X187205Y171063D02*
G03X186230Y170659I-0J-1378D01*
G01X187205Y171063D02*
X222255D01*
G03X222402Y171129I0J197*
G01Y168241D02*
G03Y171129I1614J1444D01*
G01X148228Y109449D02*
Y103543D01*
X147244Y102559D02*
G03X148228Y103543I0J984D01*
G01X147244Y102559D02*
X140157D01*
X139173Y103543D02*
G03X140157Y102559I984J0D01*
G01X139173Y103543D02*
Y109449D01*
X140157Y110433D02*
G03X139173Y109449I0J-984D01*
G01X140157Y110433D02*
X147244D01*
X148228Y109449D02*
G03X147244Y110433I-984J-0D01*
G01X146063Y117323D02*
G03X146063I-3150J0D01*
G01X160499Y181457D02*
G03X160433Y181310I131J-147D01*
G01Y178346*
X160029Y177372D02*
G03X160433Y178346I-974J974D01*
G01X160029Y177372D02*
X150187Y167530D01*
X149213Y167126D02*
G03X150187Y167530I-0J1378D01*
G01X149213Y167126D02*
X143493D01*
G03X143346Y167060I-0J-197*
G01Y169948D02*
G03Y167060I-1614J-1444D01*
G01Y169948D02*
G03X143493Y169882I147J131D01*
G01X148560*
G03X148699Y169940I0J197*
G01X157619Y178860*
G03X157677Y178999I-139J139*
G01Y181310*
G03X157612Y181457I-197J0*
G01X160499D02*
G03X157612I-1444J1614D01*
G01X242963Y308804D02*
G03X242913Y308674I147J-130D01*
G01Y208661*
X242452Y207548D02*
G03X242913Y208661I-1113J1113D01*
G01X242452Y207548D02*
X233397Y198493D01*
X232283Y198031D02*
G03X233397Y198493I0J1575D01*
G01X232283Y198031D02*
X223819D01*
G03X223622Y197835I-0J-196*
G01Y196850*
X223161Y195737D02*
G03X223622Y196850I-1114J1113D01*
G01X223161Y195737D02*
X222051Y194627D01*
G03X222191Y194291I140J-139*
G01X227767*
G03X227914Y194357I-0J197*
G01Y191470D02*
G03Y194357I1614J1443D01*
G01Y191470D02*
G03X227767Y191535I-147J-131D01*
G01X144488*
X143514Y191939D02*
G03X144488Y191535I974J974D01*
G01X143514Y191939D02*
X142790Y192663D01*
G03X142640Y192720I-139J-140*
G01X144682Y194761D02*
G03X142640Y192720I-2162J121D01*
G01X144682Y194761D02*
G03X144681Y194750I196J-11D01*
G01X144681*
G03X144739Y194611I197J0*
G01X145001Y194349*
G03X145141Y194291I140J139*
G01X168754*
G03X168893Y194627I0J197*
G01X150779Y212742*
G03X150652Y212800I-140J-139*
G01X149163Y216393D02*
G03X150652Y212800I1624J-1432D01*
G01X149163Y216393D02*
G03X149213Y216523I-147J130D01*
G01Y230906*
X149674Y232019D02*
G03X149213Y230906I1113J-1113D01*
G01X149674Y232019D02*
X159516Y241862D01*
X160630Y242323D02*
G03X159516Y241862I-0J-1575D01*
G01X160630Y242323D02*
X175841D01*
G03X175980Y242381I-0J197*
G01X176915Y243316*
G03X176973Y243443I-139J139*
G01X179269Y241146D02*
G03X176973Y243443I-135J2161D01*
G01X179269Y241146D02*
G03X179143Y241089I13J-197D01*
G01X177688Y239634*
X176575Y239173D02*
G03X177688Y239634I-0J1575D01*
G01X176575Y239173D02*
X161364D01*
G03X161225Y239116I-0J-197*
G01X152420Y230311*
G03X152362Y230172I139J-139*
G01Y216523*
G03X152411Y216393I197J0*
G01X152949Y215096D02*
G03X152411Y216393I-2162J-135D01*
G01X152949Y215096D02*
G03X153006Y214969I196J13D01*
G01X171855Y196121*
G03X171994Y196063I139J139*
G01X199288*
G03X199484Y196260I-0J197*
X199478Y196309I-196J-0*
G01X199409Y196850D02*
G03X199478Y196309I2166J0D01*
G01X199409Y196850D02*
X199409D01*
X200131Y198464D02*
G03X199409Y196850I1444J-1614D01*
G01X200131Y198464D02*
G03X200197Y198611I-131J147D01*
G01Y208661*
X200600Y209636D02*
G03X200197Y208661I975J-975D01*
G01X200600Y209636D02*
X206438Y215474D01*
G03X206496Y215613I-139J139*
G01Y246271*
G03X206430Y246418I-197J-0*
G01X206677Y249836D02*
G03X206430Y246418I1197J-1805D01*
G01X206677Y249836D02*
G03X206765Y250000I-109J164D01*
X206568Y250197I-197J-0*
G01X152227*
G03X152088Y250139I0J-197*
G01X144345Y242397*
G03X144288Y242257I140J-140*
G01X144288*
G03Y242246I197J0*
G01X142246Y244288D02*
G03X144288Y242246I-120J-2162D01*
G01X142246Y244288D02*
G03X142397Y244345I11J197D01*
G01X150600Y252549*
X151575Y252953D02*
G03X150600Y252549I-0J-1378D01*
G01X151575Y252953D02*
X236822D01*
G03X236969Y253018I-0J197*
G01X239485Y253543D02*
G03X236969Y253018I-902J-1968D01*
G01X239485Y253543D02*
G03X239764Y253722I82J179D01*
G01Y308674*
G03X239715Y308804I-197J-0*
G01X242963D02*
G03X239715I-1624J1432D01*
G01X233989Y288622D02*
G03X234055Y288769I-131J147D01*
G01Y306434*
G03X233997Y306573I-197J0*
G01X221140Y319431*
G03X221001Y319488I-139J-140*
G01X218690*
G03X218543Y319423I-0J-197*
G01Y322310D02*
G03Y319423I-1614J-1444D01*
G01Y322310D02*
G03X218690Y322244I147J131D01*
G01X221654*
X222628Y321841D02*
G03X221654Y322244I-974J-975D01*
G01X222628Y321841D02*
X236407Y308061D01*
X236811Y307087D02*
G03X236407Y308061I-1378J-0D01*
G01X236811Y307087D02*
Y288769D01*
G03X236877Y288622I197J-0*
G01X233989D02*
G03X236877I1444J-1614D01*
G01X197599Y222178D02*
G03X197452Y222244I-147J-131D01*
G01X193887*
G03X193740Y222178I-0J-197*
G01Y225066D02*
G03Y222178I-1614J-1444D01*
G01Y225066D02*
G03X193887Y225000I147J131D01*
G01X197452*
G03X197599Y225066I-0J197*
G01Y222178D02*
G03Y225066I1614J1444D01*
G01Y239501D02*
G03X197452Y239567I-147J-131D01*
G01X190737*
G03X190590Y239501I0J-197*
G01Y242388D02*
G03Y239501I-1614J-1443D01*
G01Y242388D02*
G03X190737Y242323I147J132D01*
G01X197452*
G03X197599Y242388I-0J197*
G01Y239501D02*
G03Y242388I1614J1444D01*
G01X225945Y255249D02*
G03X225798Y255315I-147J-131D01*
G01X201575*
X200600Y255719D02*
G03X201575Y255315I975J974D01*
G01X200600Y255719D02*
X196731Y259588D01*
G03X196592Y259646I-139J-139*
G01X196249*
G03X196102Y259580I-0J-197*
G01Y262467D02*
G03Y259580I-1614J-1443D01*
G01Y262467D02*
G03X196249Y262402I147J131D01*
G01X197244*
X198218Y261998D02*
G03X197244Y262402I-974J-974D01*
G01X198218Y261998D02*
X200276Y259940D01*
G03X200577Y260191I139J140*
G01X200197Y261417D02*
G03X200578Y260191I2165J0D01*
G01X200200Y261538D02*
G03X200197Y261417I2162J-121D01*
G01X200200Y261538D02*
G03Y261549I-196J11D01*
G01X200200*
G03X200143Y261688I-196J-0*
G01X197125Y264706*
G03X196985Y264764I-140J-139*
G01X138769*
G03X138622Y264698I-0J-197*
G01X134843Y266142D02*
G03X138622Y264698I2165J-0D01*
G01X135592Y267780D02*
G03X134842Y266142I1416J-1638D01*
G01X135592Y267780D02*
G03X135660Y267929I-129J149D01*
G01Y268609*
G03X135602Y268748I-197J0*
G01X132978Y271372*
G03X132694Y271367I-139J-139*
G01X129488Y274278D02*
G03X132694Y271367I1614J-1443D01*
G01X129488Y274278D02*
G03X129538Y274409I-146J131D01*
X129342Y274606I-196J0*
G01X102942*
G03X102795Y274541I-0J-197*
G01X99377Y274787D02*
G03X102795Y274541I1804J1197D01*
G01X99377Y274787D02*
G03X99016Y274678I-164J-109D01*
G01Y274589*
G03X99073Y274450I197J0*
G01X102864Y270659*
X103268Y269685D02*
G03X102864Y270659I-1378J0D01*
G01X103268Y269685D02*
Y145652D01*
G03X103325Y145513I197J0*
G01X130108Y118730*
X130512Y117756D02*
G03X130108Y118730I-1378J-0D01*
G01X130512Y117756D02*
Y110630D01*
G03X130709Y110433I197J-0*
G01X134646*
X135630Y109449D02*
G03X134646Y110433I-984J-0D01*
G01X135630Y109449D02*
Y103543D01*
X134646Y102559D02*
G03X135630Y103543I-0J984D01*
G01X134646Y102559D02*
X127559D01*
X126575Y103543D02*
G03X127559Y102559I984J0D01*
G01X126575Y103543D02*
Y109449D01*
X127559Y110433D02*
G03X126575Y109449I0J-984D01*
G01X127559Y110433D02*
G03X127756Y110630I0J197D01*
G01Y117104*
G03X127698Y117243I-197J-0*
G01X100915Y144026*
X100512Y145000D02*
G03X100915Y144026I1378J0D01*
G01X100512Y145000D02*
Y269033D01*
G03X100454Y269172I-197J-0*
G01X96663Y272963*
X96260Y273937D02*
G03X96663Y272963I1378J0D01*
G01X96260Y273937D02*
Y277165D01*
X96663Y278140D02*
G03X96260Y277165I975J-975D01*
G01X96663Y278140D02*
X99813Y281289D01*
X100787Y281693D02*
G03X99813Y281289I0J-1378D01*
G01X100787Y281693D02*
X120852D01*
G03X120866I0J197*
X120880I14J197*
G01X144302*
G03X144449Y281759I0J197*
G01X146050Y282480D02*
G03X144449Y281759I13J-2165D01*
G01X146050Y282480D02*
G03X146063Y282481I-1J197D01*
X146076Y282480I14J196*
G01X147677Y281759D02*
G03X146076Y282480I-1614J-1444D01*
G01X147677Y281759D02*
G03X147824Y281693I147J131D01*
G01X151954*
G03X151969I0J197*
X151983I14J197*
G01X162978*
G03X162992I0J197*
X163006I14J197*
G01X188189*
X189163Y281289D02*
G03X188189Y281693I-974J-974D01*
G01X189163Y281289D02*
X189493Y280960D01*
G03X189643Y280902I139J139*
G01X189764Y280906D02*
G03X189643Y280902I-0J-2166D01*
G01X189764Y280906D02*
G03X189961Y281102I-0J196D01*
G01X189964Y281223D02*
G03X189961Y281102I2162J-121D01*
G01X189964Y281223D02*
G03Y281234I-197J11D01*
G01X189964*
G03X189907Y281373I-197J-0*
G01X188463Y282816*
G03X188324Y282874I-139J-139*
G01X164753*
G03X164606Y282808I-0J-197*
G01X163005Y282087D02*
G03X164606Y282808I-13J2165D01*
G01X163005Y282087D02*
G03X162992Y282086I1J-197D01*
X162979Y282087I-14J-196*
G01X164606Y285696D02*
G03X162979Y282087I-1614J-1444D01*
G01X164606Y285696D02*
G03X164753Y285630I147J131D01*
G01X188976*
X189951Y285226D02*
G03X188976Y285630I-975J-974D01*
G01X189951Y285226D02*
X191855Y283322D01*
G03X192006Y283264I140J139*
G01X192588Y283218D02*
G03X192006Y283264I-462J-2116D01*
G01X192588Y283218D02*
G03X192770Y283549I42J192D01*
G01X185235Y291084*
G03X185096Y291142I-139J-139*
G01X182520*
X181545Y291545D02*
G03X182520Y291142I975J975D01*
G01X181545Y291545D02*
X177766Y295325D01*
X177362Y296299D02*
G03X177766Y295325I1378J0D01*
G01X177362Y296299D02*
Y303200D01*
G03X177297Y303347I-197J-0*
G01X180768Y304202D02*
G03X177297Y303347I-2028J759D01*
G01X180768Y304202D02*
G03X181014Y303946I185J-69D01*
G01X183137Y300276D02*
G03X181014Y303946I-1444J1614D01*
G01X183137Y300276D02*
G03X183071Y300129I131J-147D01*
G01Y297778*
G03X183129Y297639I197J0*
G01X183207Y297560*
G03X183543Y297700I139J140*
G01Y297701*
Y297716D02*
G03Y297701I2166J0D01*
G01Y297716D02*
Y297717D01*
X187323Y299160D02*
G03X183543Y297717I-1614J-1443D01*
G01X187323Y299160D02*
G03X187469Y299095I146J131D01*
G01X188386*
X189360Y298691D02*
G03X188386Y299095I-974J-974D01*
G01X189360Y298691D02*
X200041Y288010D01*
G03X200180Y287953I139J140*
G01X201905*
G03X202102Y288150I0J197*
X202009Y288317I-197J-0*
G01X200984Y290157D02*
G03X202009Y288317I2166J0D01*
G01X200984Y290157D02*
Y290158D01*
Y290188D02*
G03Y290158I2166J-31D01*
G01Y290188D02*
Y290191D01*
G03X200755Y290385I-196J-0*
G01X198950Y294134D02*
G03X200755Y290385I1444J-1614D01*
G01X198950Y294134D02*
G03X199016Y294280I-131J146D01*
G01Y328088*
G03X198958Y328227I-197J-0*
G01X195944Y331242*
G03X195804Y331299I-140J-140*
G01X195068*
G03X194921Y331234I-0J-197*
G01X191508Y333882D02*
G03X194921Y331234I1799J-1205D01*
G01X191508Y333882D02*
G03X191409Y334177I-164J109D01*
G01X191717Y338347D02*
G03X191409Y334177I409J-2127D01*
G01X191717Y338347D02*
G03X191849Y338642I-37J193D01*
G01X195315Y341207D02*
G03X191849Y338642I-1614J-1443D01*
G01X195315Y341207D02*
G03X195461Y341142I146J132D01*
G01X196850*
X197825Y340738D02*
G03X196850Y341142I-975J-974D01*
G01X197825Y340738D02*
X206092Y332470D01*
X206496Y331496D02*
G03X206092Y332470I-1378J0D01*
G01X206496Y331496D02*
Y307605D01*
G03X206857Y307496I197J0*
G01X207218Y307913D02*
G03X206857Y307496I1443J-1614D01*
G01X207218Y307913D02*
G03X207283Y308060I-131J147D01*
G01Y348633*
G03X207218Y348780I-196J0*
G01X210105D02*
G03X207218I-1444J1614D01*
G01X210105D02*
G03X210039Y348633I131J-147D01*
G01Y328139*
G03X210367Y327992I197J-0*
G01X213255Y324764D02*
G03X210367Y327992I-1444J1614D01*
G01X213255Y324764D02*
G03X213189Y324617I131J-147D01*
G01Y304331*
X212785Y303356D02*
G03X213189Y304331I-974J975D01*
G01X212785Y303356D02*
X211672Y302243D01*
G03X211614Y302104I139J-139*
G01Y295855*
G03X211680Y295708I197J0*
G01X208414Y292924D02*
G03X211680Y295708I1822J1170D01*
G01X208414Y292924D02*
G03X208054Y292793I-165J-106D01*
G01X208071Y292520D02*
G03X208054Y292793I-2165J-0D01*
G01X208071Y292520D02*
X208071D01*
X205544Y290385D02*
G03X208071Y292520I362J2135D01*
G01X205544Y290385D02*
G03X205315Y290191I-32J-194D01*
G01Y290188*
Y290157D02*
G03Y290188I-2165J0D01*
G01Y290158D02*
Y290157D01*
X204265Y288301D02*
G03X205315Y290157I-1115J1856D01*
G01X204265Y288301D02*
G03X204169Y288132I101J-169D01*
X204337Y287938I197J0*
G01X205108Y287549D02*
G03X204337Y287938I-974J-974D01*
G01X205108Y287549D02*
X223036Y269621D01*
G03X223187Y269564I140J139*
G01X224709Y265751D02*
G03X223187Y269564I-1402J1651D01*
G01X224709Y265751D02*
G03X224768Y265416I127J-150D01*
G01X221865Y263134D02*
G03X224768Y265416I2151J252D01*
G01X221865Y263134D02*
G03X221809Y263250I-195J-23D01*
G01X219431Y265629*
G03X219095Y265489I-140J-140*
G01Y263572*
G03X219160Y263425I196J-0*
G01X216273D02*
G03X219160I1444J-1614D01*
G01X216273D02*
G03X216339Y263572I-131J147D01*
G01Y265489*
G03X216281Y265629I-197J0*
G01X201849Y280060*
G03X201710Y280118I-139J-139*
G01X196772*
X195797Y280522D02*
G03X196772Y280118I975J974D01*
G01X195797Y280522D02*
X194573Y281746D01*
G03X194237Y281607I-139J-139*
G01X194237*
G03X194241Y281565I197J-0*
G01X192126Y278937D02*
G03X194241Y281565I-0J2165D01*
G01X192126Y278937D02*
G03X191929Y278740I0J-197D01*
G01X187598D02*
G03X191929I2166J0D01*
G01X187598D02*
G03X187402Y278937I-196J0D01*
G01X147824*
G03X147677Y278871I-0J-197*
G01X144449D02*
G03X147677I1614J1444D01*
G01X144449D02*
G03X144302Y278937I-147J-131D01*
G01X101440*
G03X101301Y278879I-0J-197*
G01X100903Y278482*
G03X101054Y278146I139J-140*
G01X102795Y277428D02*
G03X101054Y278146I-1614J-1444D01*
G01X102795Y277428D02*
G03X102942Y277362I147J131D01*
G01X137008*
X137982Y276959D02*
G03X137008Y277362I-974J-975D01*
G01X137982Y276959D02*
X140277Y274664D01*
G03X140416Y274606I139J139*
G01X188790*
G03X188937Y274672I0J197*
G01Y271785D02*
G03Y274672I1614J1443D01*
G01Y271785D02*
G03X188790Y271850I-147J-131D01*
G01X139764*
X138789Y272254D02*
G03X139764Y271850I975J974D01*
G01X138789Y272254D02*
X136495Y274549D01*
G03X136356Y274606I-139J-140*
G01X133476*
G03X133475Y274213I0J-197*
G01X134439Y273809D02*
G03X133475Y274213I-974J-974D01*
G01X134439Y273809D02*
X138012Y270236D01*
X138416Y269261D02*
G03X138012Y270236I-1378J0D01*
G01X138416Y269261D02*
Y267875D01*
G03X138479Y267731I197J0*
G01X138622Y267585D02*
G03X138479Y267731I-1614J-1443D01*
G01X138622Y267585D02*
G03X138769Y267520I147J132D01*
G01X197638*
X198612Y267116D02*
G03X197638Y267520I-974J-974D01*
G01X198612Y267116D02*
X202092Y263637D01*
G03X202242Y263579I139J139*
G01X201136Y259633D02*
G03X202242Y263579I1226J1784D01*
G01X201136Y259633D02*
G03X200885Y259331I-112J-163D01*
G01X202088Y258129*
G03X202227Y258071I139J139*
G01X225798*
G03X225945Y258137I0J197*
G01Y255249D02*
G03Y258137I1614J1444D01*
G01X180381Y324336D02*
G03X180176Y324290I-66J-185D01*
G01X179321Y323435*
X178346Y323031D02*
G03X179321Y323435I0J1378D01*
G01X178346Y323031D02*
X161210D01*
G03X161063Y322966I-0J-196*
G01Y325853D02*
G03Y322966I-1614J-1444D01*
G01Y325853D02*
G03X161210Y325787I147J131D01*
G01X177694*
G03X177833Y325845I0J197*
G01X179014Y327026*
G03X179061Y327100I-139J139*
G01X180381Y324336D02*
G03X179061Y327100I721J2042D01*
G01X179134Y353937D02*
G03X179134I-4331J0D01*
G01X118806Y265433D02*
G03X118740Y265287I131J-146D01*
G01Y251761*
G03X118806Y251614I197J-0*
G01X115919D02*
G03X118806I1443J-1614D01*
G01X115919D02*
G03X115984Y251761I-132J147D01*
G01Y265287*
G03X115919Y265433I-197J-0*
G01X118806D02*
G03X115919I-1444J1614D01*
G01X123032Y109449D02*
Y103543D01*
X122047Y102559D02*
G03X123032Y103543I0J984D01*
G01X122047Y102559D02*
X114961D01*
X113976Y103543D02*
G03X114961Y102559I985J0D01*
G01X113976Y103543D02*
Y109449D01*
X114961Y110433D02*
G03X113976Y109449I-0J-984D01*
G01X114961Y110433D02*
X122047D01*
X123032Y109449D02*
G03X122047Y110433I-985J-0D01*
G01X122441Y117323D02*
G03X122441I-3150J0D01*
G01X151981Y282087D02*
G03X151969Y282086I2J-197D01*
G01X151969D02*
G03X151956Y282087I-15J-196D01*
G01X150355Y282808D02*
G03X151956Y282087I1614J1444D01*
G01X150355Y282808D02*
G03X150208Y282874I-147J-131D01*
G01X146077*
G03X146063Y282873I0J-197*
X146049Y282874I-14J-196*
G01X122627*
G03X122480Y282808I-0J-197*
G01X120879Y282087D02*
G03X122480Y282808I-13J2165D01*
G01X120879Y282087D02*
G03X120866Y282086I1J-197D01*
X120853Y282087I-14J-196*
G01X122480Y285696D02*
G03X120853Y282087I-1614J-1444D01*
G01X122480Y285696D02*
G03X122627Y285630I147J131D01*
G01X150208*
G03X150355Y285696I-0J197*
G01X151981Y282087D02*
G03X150355Y285696I-12J2165D01*
G01X104390Y320079D02*
Y312992D01*
X102224Y310827D02*
G03X104390Y312992I0J2165D01*
G01X102224Y310827D02*
X99862D01*
X97697Y312992D02*
G03X99862Y310827I2165J0D01*
G01X97697Y312992D02*
Y320079D01*
X99862Y322244D02*
G03X97697Y320079I0J-2165D01*
G01X99862Y322244D02*
X102224D01*
X104390Y320079D02*
G03X102224Y322244I-2166J-0D01*
G01X142481Y305643D02*
G03X142334Y305709I-147J-131D01*
G01X129134*
X128159Y306112D02*
G03X129134Y305709I975J975D01*
G01X128159Y306112D02*
X108145Y326127D01*
G03X107994Y326184I-140J-139*
G01X107874Y326181D02*
G03X107994Y326184I0J2165D01*
G01X107874Y326181D02*
G03X107677Y325984I0J-197D01*
G01X107674Y325864D02*
G03X107677Y325984I-2162J120D01*
G01X107674Y325864D02*
G03Y325853I196J-11D01*
G01X107674*
G03X107731Y325714I196J-0*
G01X130434Y303010*
G03X130574Y302953I140J140*
G01X142334*
G03X142481Y303018I-0J197*
G01Y300131D02*
G03Y303018I1613J1444D01*
G01Y300131D02*
G03X142334Y300197I-147J-131D01*
G01X129921*
X128947Y300600D02*
G03X129921Y300197I974J975D01*
G01X128947Y300600D02*
X105782Y323765D01*
G03X105632Y323822I-139J-139*
G01X105512Y328150D02*
G03X105632Y323822I-0J-2166D01*
G01X105512Y328150D02*
G03X105709Y328346I-0J196D01*
G01X107874Y330512D02*
G03X105709Y328346I0J-2166D01*
G01X107874Y330512D02*
G03X108071Y330709I-0J197D01*
G01X112398Y330588D02*
G03X108071Y330709I-2162J121D01*
G01X112398Y330588D02*
G03Y330577I197J-11D01*
G01X112398*
G03X112456Y330438I197J0*
G01X130434Y312459*
G03X130574Y312402I140J139*
G01X139184*
G03X139331Y312467I0J196*
G01X140958Y308858D02*
G03X139331Y312467I-13J2166D01*
G01X140958Y308858D02*
G03X140945I1J-197D01*
X140932I-14J-197*
G01X139331Y309580D02*
G03X140932Y308858I1614J1444D01*
G01X139331Y309580D02*
G03X139184Y309646I-147J-131D01*
G01X129921*
X128947Y310049D02*
G03X129921Y309646I974J975D01*
G01X128947Y310049D02*
X110507Y328489D01*
G03X110357Y328547I-139J-139*
G01X110236Y328543D02*
G03X110357Y328547I0J2166D01*
G01X110236Y328543D02*
G03X110039Y328346I0J-197D01*
G01X110036Y328226D02*
G03X110039Y328346I-2162J120D01*
G01X110036Y328226D02*
G03Y328215I197J-11D01*
G01X110036*
G03X110093Y328076I197J0*
G01X129647Y308522*
G03X129786Y308465I139J139*
G01X140931*
G03X140945I-0J196*
X140959I14J196*
G01X142334*
G03X142481Y308530I-0J196*
G01Y305643D02*
G03Y308530I1613J1444D01*
G01X104390Y343701D02*
Y336614D01*
X102224Y334449D02*
G03X104390Y336614I0J2165D01*
G01X102224Y334449D02*
X99862D01*
X97697Y336614D02*
G03X99862Y334449I2165J0D01*
G01X97697Y336614D02*
Y343701D01*
X99862Y345866D02*
G03X97697Y343701I0J-2165D01*
G01X99862Y345866D02*
X102224D01*
X104390Y343701D02*
G03X102224Y345866I-2166J-0D01*
G01X92480Y314075D02*
X88937D01*
Y321161D02*
G03Y314075I0J-3543D01*
G01Y321161D02*
X92480D01*
Y314075D02*
G03Y321161I0J3543D01*
G01Y335531D02*
X88937D01*
Y342618D02*
G03Y335531I0J-3543D01*
G01Y342618D02*
X92480D01*
Y335531D02*
G03Y342618I0J3544D01*
G01X96850Y367717D02*
G03X96850I-4724J0D01*
G01X254235Y368661D02*
X257412D01*
X254294Y368306D02*
X257411D01*
X254149Y369015D02*
X257392D01*
X254325Y367952D02*
X257391D01*
X254329Y367598D02*
X257369D01*
X254032Y369369D02*
X257351D01*
X254307Y367243D02*
X257347D01*
X254258Y366889D02*
X257325D01*
X254180Y366535D02*
X257302D01*
X253883Y369724D02*
X257287D01*
X254074Y366180D02*
X257280D01*
X253936Y365826D02*
X257258D01*
X253763Y365472D02*
X257235D01*
X253551Y365117D02*
X257213D01*
X253698Y370078D02*
X257201D01*
X253294Y364763D02*
X257191D01*
X252979Y364409D02*
X257168D01*
X252591Y364054D02*
X257146D01*
X252094Y363700D02*
X257124D01*
X251399Y363346D02*
X257101D01*
X253472Y370432D02*
X257091D01*
X148425Y362991D02*
X257079D01*
X148425Y362637D02*
X257057D01*
X148425Y362283D02*
X257034D01*
X148425Y361928D02*
X257012D01*
X148425Y361574D02*
X256990D01*
X148425Y361220D02*
X256967D01*
X253197Y370787D02*
X256956D01*
X148425Y360865D02*
X256945D01*
X148425Y360511D02*
X256923D01*
X148425Y360157D02*
X256900D01*
X148425Y359802D02*
X256878D01*
X148425Y359448D02*
X256856D01*
X148425Y359094D02*
X256833D01*
X148425Y358739D02*
X256811D01*
X252861Y371141D02*
X256793D01*
X148425Y358385D02*
X256789D01*
X176217Y358031D02*
X256766D01*
X176988Y357676D02*
X256744D01*
X177505Y357322D02*
X256722D01*
X177897Y356968D02*
X256699D01*
X178208Y356613D02*
X256677D01*
X178459Y356259D02*
X256655D01*
X178661Y355905D02*
X256632D01*
X178822Y355550D02*
X256610D01*
X252442Y371495D02*
X256601D01*
X178947Y355196D02*
X256588D01*
X179038Y354842D02*
X256565D01*
X179099Y354487D02*
X256543D01*
X179129Y354133D02*
X256521D01*
X179131Y353779D02*
X256498D01*
X179103Y353424D02*
X256476D01*
X179046Y353070D02*
X256454D01*
X178958Y352716D02*
X256431D01*
X209565Y352361D02*
X256409D01*
X210106Y352007D02*
X256387D01*
X251895Y371850D02*
X256375D01*
X210423Y351653D02*
X256364D01*
X210629Y351298D02*
X256342D01*
X210756Y350944D02*
X256320D01*
X210818Y350590D02*
X256298D01*
X210821Y350235D02*
X256275D01*
X210765Y349881D02*
X256253D01*
X210646Y349527D02*
X256231D01*
X210449Y349172D02*
X256208D01*
X210147Y348818D02*
X256186D01*
X210039Y348464D02*
X256164D01*
X210039Y348109D02*
X256141D01*
X210039Y347755D02*
X256119D01*
X251084Y372204D02*
X256112D01*
X210039Y347401D02*
X256097D01*
X210039Y347046D02*
X256074D01*
X210039Y346692D02*
X256052D01*
X210039Y346338D02*
X256030D01*
X210039Y345983D02*
X256007D01*
X210039Y345629D02*
X255985D01*
X210039Y345275D02*
X255963D01*
X210039Y344920D02*
X255940D01*
X210039Y344566D02*
X255918D01*
X210039Y344212D02*
X255896D01*
X210039Y343857D02*
X255873D01*
X210039Y343503D02*
X255851D01*
X210039Y343149D02*
X255829D01*
X210039Y342794D02*
X255806D01*
X179013Y372558D02*
X255803D01*
X210039Y342440D02*
X255784D01*
X210039Y342086D02*
X255762D01*
X210039Y341731D02*
X255739D01*
X210039Y341377D02*
X255717D01*
X210039Y341023D02*
X255695D01*
X210039Y340668D02*
X255672D01*
X210039Y340314D02*
X255650D01*
X210039Y339960D02*
X255628D01*
X210039Y339605D02*
X255605D01*
X210039Y339251D02*
X255583D01*
X210039Y338897D02*
X255561D01*
X210039Y338542D02*
X255538D01*
X210039Y338188D02*
X255516D01*
X210039Y337834D02*
X255494D01*
X210039Y337479D02*
X255471D01*
X210039Y337125D02*
X255449D01*
X179237Y372912D02*
X255438D01*
X210039Y336771D02*
X255427D01*
X210039Y336416D02*
X255404D01*
X210039Y336062D02*
X255382D01*
X210039Y335708D02*
X255360D01*
X210039Y335353D02*
X255337D01*
X210039Y334999D02*
X255315D01*
X210039Y334645D02*
X255293D01*
X210039Y334290D02*
X255270D01*
X210039Y333936D02*
X255248D01*
X210039Y333582D02*
X255226D01*
X210039Y333227D02*
X255204D01*
X210039Y332873D02*
X255181D01*
X210039Y332519D02*
X255159D01*
X210039Y332164D02*
X255137D01*
X210039Y331810D02*
X255114D01*
X210039Y331456D02*
X255092D01*
X210039Y331101D02*
X255070D01*
X210039Y330747D02*
X255047D01*
X210039Y330393D02*
X255025D01*
X210039Y330038D02*
X255003D01*
X179424Y373267D02*
X255000D01*
X210039Y329684D02*
X254980D01*
X210039Y329330D02*
X254958D01*
X210039Y328975D02*
X254936D01*
X210039Y328621D02*
X254913D01*
X212870Y328267D02*
X254891D01*
X213339Y327912D02*
X254869D01*
X213626Y327558D02*
X254846D01*
X213813Y327204D02*
X254824D01*
X213924Y326850D02*
X254802D01*
X213973Y326495D02*
X254779D01*
X213963Y326141D02*
X254757D01*
X213894Y325787D02*
X254735D01*
X213759Y325432D02*
X254712D01*
X213543Y325078D02*
X254690D01*
X213220Y324724D02*
X254668D01*
X213189Y324369D02*
X254645D01*
X213189Y324015D02*
X254623D01*
X213189Y323661D02*
X254601D01*
X213189Y323306D02*
X254578D01*
X217511Y322952D02*
X254556D01*
X218230Y322598D02*
X254534D01*
X221704Y322243D02*
X254511D01*
X222577Y321889D02*
X254489D01*
X222934Y321535D02*
X254467D01*
X179577Y373621D02*
X254457D01*
X223288Y321180D02*
X254444D01*
X223643Y320826D02*
X254422D01*
X223997Y320472D02*
X254400D01*
X224351Y320117D02*
X254377D01*
X224706Y319763D02*
X254355D01*
X225060Y319409D02*
X254333D01*
X225414Y319054D02*
X254310D01*
X225769Y318700D02*
X254288D01*
X226123Y318346D02*
X254266D01*
X226477Y317991D02*
X254243D01*
X226832Y317637D02*
X254221D01*
X227186Y317283D02*
X254199D01*
X227540Y316928D02*
X254177D01*
X227895Y316574D02*
X254154D01*
X228249Y316220D02*
X254132D01*
X228603Y315865D02*
X254110D01*
X228958Y315511D02*
X254087D01*
X229312Y315157D02*
X254065D01*
X229666Y314802D02*
X254043D01*
X230021Y314448D02*
X254020D01*
X230375Y314094D02*
X253998D01*
X230729Y313739D02*
X253976D01*
X231083Y313385D02*
X253953D01*
X231438Y313031D02*
X253931D01*
X231792Y312676D02*
X253909D01*
X241920Y312322D02*
X253886D01*
X242639Y311968D02*
X253864D01*
X243010Y311613D02*
X253842D01*
X243247Y311259D02*
X253819D01*
X243398Y310905D02*
X253797D01*
X243481Y310550D02*
X253775D01*
X243504Y310196D02*
X253752D01*
X179700Y373975D02*
X253731D01*
X243468Y309842D02*
X253730D01*
X243370Y309487D02*
X253708D01*
X243202Y309133D02*
X253685D01*
X242944Y308779D02*
X253663D01*
X242913Y308424D02*
X253641D01*
X242913Y308070D02*
X253618D01*
X242913Y307716D02*
X253596D01*
X242913Y307361D02*
X253574D01*
X242913Y307007D02*
X253551D01*
X242913Y306653D02*
X253529D01*
X242913Y306298D02*
X253507D01*
X242913Y305944D02*
X253484D01*
X242913Y305590D02*
X253462D01*
X242913Y305235D02*
X253440D01*
X242913Y304881D02*
X253417D01*
X242913Y304527D02*
X253395D01*
X242913Y304172D02*
X253373D01*
X242913Y303818D02*
X253350D01*
X242913Y303464D02*
X253328D01*
X242913Y303109D02*
X253306D01*
X242913Y302755D02*
X253283D01*
X242913Y302401D02*
X253261D01*
X242913Y302046D02*
X253239D01*
X242913Y301692D02*
X253216D01*
X242913Y301338D02*
X253194D01*
X242913Y300983D02*
X253172D01*
X242913Y300629D02*
X253149D01*
X242913Y300275D02*
X253127D01*
X242913Y299920D02*
X253105D01*
X242913Y299566D02*
X253083D01*
X242913Y299212D02*
X253060D01*
X242913Y298857D02*
X253038D01*
X242913Y298503D02*
X253016D01*
X242913Y298149D02*
X252993D01*
X242913Y297794D02*
X252971D01*
X242913Y297440D02*
X252949D01*
X242913Y297086D02*
X252926D01*
X242913Y296731D02*
X252904D01*
X242913Y296377D02*
X252882D01*
X242913Y296023D02*
X252859D01*
X242913Y295668D02*
X252837D01*
X242913Y295314D02*
X252815D01*
X242913Y294960D02*
X252792D01*
X242913Y294605D02*
X252770D01*
X242913Y294251D02*
X252748D01*
X242913Y293897D02*
X252725D01*
X242913Y293542D02*
X252703D01*
X242913Y293188D02*
X252681D01*
X242913Y292834D02*
X252658D01*
X242913Y292479D02*
X252636D01*
X242913Y292125D02*
X252614D01*
X242913Y291771D02*
X252591D01*
X242913Y291416D02*
X252569D01*
X242913Y291062D02*
X252547D01*
X242913Y290708D02*
X252524D01*
X242913Y290353D02*
X252502D01*
X242913Y289999D02*
X252480D01*
X179811Y374330D02*
X252475D01*
X242913Y289645D02*
X252457D01*
X242913Y289290D02*
X252435D01*
X242913Y288936D02*
X252413D01*
X242913Y288582D02*
X252390D01*
X242913Y288227D02*
X252368D01*
X242913Y287873D02*
X252346D01*
X242913Y287519D02*
X252323D01*
X242913Y287164D02*
X252301D01*
X242913Y286810D02*
X252279D01*
X242913Y286456D02*
X252256D01*
X242913Y286101D02*
X252234D01*
X242913Y285747D02*
X252212D01*
X242913Y285393D02*
X252189D01*
X242913Y285038D02*
X252167D01*
X242913Y284684D02*
X252145D01*
X242913Y284330D02*
X252122D01*
X242913Y283975D02*
X252100D01*
X242913Y283621D02*
X252078D01*
X242913Y283267D02*
X252056D01*
X242913Y282912D02*
X252033D01*
X242913Y282558D02*
X252011D01*
X242913Y282204D02*
X251989D01*
X242913Y281850D02*
X251966D01*
X242913Y281495D02*
X251944D01*
X242913Y281141D02*
X251922D01*
X242913Y280787D02*
X251899D01*
X242913Y280432D02*
X251877D01*
X242913Y280078D02*
X251855D01*
X242913Y279724D02*
X251832D01*
X242913Y279369D02*
X251810D01*
X242913Y279015D02*
X251788D01*
X242913Y278661D02*
X251765D01*
X242913Y278306D02*
X251743D01*
X242913Y277952D02*
X251721D01*
X242913Y277598D02*
X251698D01*
X242913Y277243D02*
X251676D01*
X242913Y276889D02*
X251654D01*
X242913Y276535D02*
X251631D01*
X242913Y276180D02*
X251609D01*
X242913Y275826D02*
X251587D01*
X242913Y275472D02*
X251564D01*
X242913Y275117D02*
X251542D01*
X242913Y274763D02*
X251520D01*
X242913Y274409D02*
X251497D01*
X242913Y274054D02*
X251475D01*
X242913Y273700D02*
X251453D01*
X242913Y273346D02*
X251430D01*
X242913Y272991D02*
X251408D01*
X242913Y272637D02*
X251386D01*
X242913Y272283D02*
X251363D01*
X242913Y271928D02*
X251341D01*
X242913Y271574D02*
X251319D01*
X242913Y271220D02*
X251296D01*
X242913Y270865D02*
X251274D01*
X242913Y270511D02*
X251252D01*
X242913Y270157D02*
X251229D01*
X242913Y269802D02*
X251207D01*
X242913Y269448D02*
X251185D01*
X242913Y269094D02*
X251162D01*
X242913Y268739D02*
X251140D01*
X242913Y268385D02*
X251118D01*
X242913Y268031D02*
X251095D01*
X242913Y267676D02*
X251073D01*
X242913Y267322D02*
X251051D01*
X242913Y266968D02*
X251028D01*
X242913Y266613D02*
X251006D01*
X242913Y266259D02*
X250984D01*
X242913Y265905D02*
X250962D01*
X242913Y265550D02*
X250939D01*
X242913Y265196D02*
X250917D01*
X242913Y264842D02*
X250895D01*
X242913Y264487D02*
X250872D01*
X242913Y264133D02*
X250850D01*
X242913Y263779D02*
X250828D01*
X242913Y263424D02*
X250805D01*
X242913Y263070D02*
X250783D01*
X242913Y262716D02*
X250761D01*
X242913Y262361D02*
X250738D01*
X242913Y262007D02*
X250716D01*
X242913Y261653D02*
X250694D01*
X242913Y261298D02*
X250671D01*
X242913Y260944D02*
X250649D01*
X242913Y260590D02*
X250627D01*
X242913Y260235D02*
X250604D01*
X242913Y259881D02*
X250582D01*
X242913Y259527D02*
X250560D01*
X242913Y259172D02*
X250537D01*
X242913Y258818D02*
X250513D01*
X242913Y258464D02*
X248353D01*
X178744Y372204D02*
X248128D01*
X242913Y216653D02*
X247859D01*
X242913Y216298D02*
X247836D01*
X242913Y215944D02*
X247814D01*
X148425Y363346D02*
X247813D01*
X242913Y215590D02*
X247792D01*
X242913Y215235D02*
X247769D01*
X242913Y214881D02*
X247747D01*
X242913Y214527D02*
X247725D01*
X242913Y214172D02*
X247703D01*
X242913Y213818D02*
X247680D01*
X242913Y258109D02*
X247670D01*
X242913Y213464D02*
X247658D01*
X242913Y213109D02*
X247636D01*
X242913Y212755D02*
X247613D01*
X242913Y212401D02*
X247591D01*
X242913Y212046D02*
X247569D01*
X242913Y211692D02*
X247547D01*
X242913Y211338D02*
X247524D01*
X242913Y210983D02*
X247502D01*
X242913Y210629D02*
X247480D01*
X242913Y210275D02*
X247457D01*
X242913Y209920D02*
X247435D01*
X242913Y209566D02*
X247413D01*
X242913Y209212D02*
X247390D01*
X242913Y208857D02*
X247368D01*
X242905Y208503D02*
X247346D01*
X242828Y208149D02*
X247324D01*
X178421Y371850D02*
X247317D01*
X242653Y207794D02*
X247301D01*
X242344Y207440D02*
X247279D01*
X241990Y207086D02*
X247257D01*
X242913Y257755D02*
X247240D01*
X241636Y206731D02*
X247234D01*
X241281Y206377D02*
X247212D01*
X240927Y206023D02*
X247190D01*
X240573Y205668D02*
X247168D01*
X240218Y205314D02*
X247145D01*
X239864Y204960D02*
X247123D01*
X148425Y363700D02*
X247119D01*
X239510Y204605D02*
X247101D01*
X239155Y204251D02*
X247078D01*
X238801Y203897D02*
X247056D01*
X238447Y203542D02*
X247034D01*
X238092Y203188D02*
X247011D01*
X237738Y202834D02*
X246989D01*
X237384Y202479D02*
X246967D01*
X237029Y202125D02*
X246945D01*
X242913Y257401D02*
X246931D01*
X236675Y201771D02*
X246922D01*
X236321Y201416D02*
X246900D01*
X235966Y201062D02*
X246878D01*
X235612Y200708D02*
X246855D01*
X235258Y200353D02*
X246833D01*
X234903Y199999D02*
X246811D01*
X234549Y199645D02*
X246788D01*
X178027Y371495D02*
X246770D01*
X234195Y199290D02*
X246766D01*
X233840Y198936D02*
X246744D01*
X233486Y198582D02*
X246722D01*
X242913Y257046D02*
X246701D01*
X233044Y198227D02*
X246699D01*
X223626Y197873D02*
X246677D01*
X223622Y197519D02*
X246655D01*
X223622Y197164D02*
X246632D01*
X148425Y364054D02*
X246622D01*
X223622Y196810D02*
X246610D01*
X242913Y217007D02*
X246593D01*
X223572Y196456D02*
X246588D01*
X223433Y196101D02*
X246566D01*
X223171Y195747D02*
X246543D01*
X242913Y256692D02*
X246531D01*
X222817Y195393D02*
X246521D01*
X229943Y195038D02*
X246499D01*
X230774Y194684D02*
X246476D01*
X231165Y194330D02*
X246454D01*
X231415Y193975D02*
X246432D01*
X242913Y256338D02*
X246412D01*
X231574Y193621D02*
X246409D01*
X231664Y193267D02*
X246387D01*
X231693Y192912D02*
X246365D01*
X177532Y371141D02*
X246351D01*
X231664Y192558D02*
X246343D01*
X242913Y255983D02*
X246337D01*
X231573Y192204D02*
X246320D01*
X242913Y255629D02*
X246303D01*
X231414Y191850D02*
X246298D01*
X242913Y255275D02*
X246281D01*
X231164Y191495D02*
X246276D01*
X242913Y254920D02*
X246260D01*
X230771Y191141D02*
X246253D01*
X242913Y254566D02*
X246238D01*
X148425Y364409D02*
X246233D01*
X229934Y190787D02*
X246231D01*
X242913Y254212D02*
X246216D01*
X103268Y190432D02*
X246209D01*
X242913Y253857D02*
X246195D01*
X103268Y190078D02*
X246187D01*
X242913Y253503D02*
X246173D01*
X103268Y189724D02*
X246164D01*
X242913Y253149D02*
X246151D01*
X103268Y189369D02*
X246142D01*
X242913Y252794D02*
X246130D01*
X103268Y189015D02*
X246120D01*
X242913Y252440D02*
X246108D01*
X103268Y188661D02*
X246097D01*
X242913Y252086D02*
X246087D01*
X103268Y188306D02*
X246075D01*
X242913Y251731D02*
X246065D01*
X103268Y187952D02*
X246053D01*
X242913Y251377D02*
X246043D01*
X103268Y187598D02*
X246030D01*
X242913Y251023D02*
X246022D01*
X176864Y370787D02*
X246015D01*
X103268Y187243D02*
X246008D01*
X242913Y250668D02*
X246000D01*
X103268Y186889D02*
X245986D01*
X242913Y250314D02*
X245978D01*
X103268Y186535D02*
X245964D01*
X242913Y249960D02*
X245957D01*
X103268Y186180D02*
X245941D01*
X242913Y249605D02*
X245935D01*
X148425Y364763D02*
X245919D01*
X103268Y185826D02*
X245919D01*
X242913Y249251D02*
X245914D01*
X103268Y185472D02*
X245897D01*
X242913Y248897D02*
X245892D01*
X159763Y185117D02*
X245874D01*
X242913Y248542D02*
X245870D01*
X160406Y184763D02*
X245852D01*
X242913Y248188D02*
X245849D01*
X160758Y184409D02*
X245830D01*
X242913Y247834D02*
X245827D01*
X160984Y184054D02*
X245807D01*
X242913Y247479D02*
X245806D01*
X161127Y183700D02*
X245785D01*
X242913Y247125D02*
X245784D01*
X161203Y183346D02*
X245763D01*
X242913Y246771D02*
X245762D01*
X242913Y246416D02*
X245741D01*
X161219Y182991D02*
X245741D01*
X175697Y370432D02*
X245740D01*
X242913Y246062D02*
X245719D01*
X161177Y182637D02*
X245718D01*
X242913Y245708D02*
X245697D01*
X242913Y217361D02*
X245697D01*
X161072Y182283D02*
X245696D01*
X242913Y245353D02*
X245676D01*
X160894Y181928D02*
X245674D01*
X148425Y365117D02*
X245661D01*
X242913Y244999D02*
X245654D01*
X160620Y181574D02*
X245651D01*
X242913Y244645D02*
X245633D01*
X160433Y181220D02*
X245629D01*
X242913Y244290D02*
X245611D01*
X160433Y180865D02*
X245607D01*
X242913Y243936D02*
X245589D01*
X160433Y180511D02*
X245585D01*
X242913Y243582D02*
X245568D01*
X160433Y180157D02*
X245562D01*
X242913Y243227D02*
X245546D01*
X160433Y179802D02*
X245540D01*
X242913Y242873D02*
X245524D01*
X160433Y179448D02*
X245518D01*
X148425Y370078D02*
X245514D01*
X242913Y242519D02*
X245503D01*
X160433Y179094D02*
X245495D01*
X242913Y242164D02*
X245481D01*
X160433Y178739D02*
X245473D01*
X242913Y241810D02*
X245460D01*
X160433Y178385D02*
X245451D01*
X148425Y365472D02*
X245449D01*
X242913Y241456D02*
X245438D01*
X160396Y178031D02*
X245428D01*
X242913Y241101D02*
X245416D01*
X160259Y177676D02*
X245406D01*
X242913Y240747D02*
X245395D01*
X159979Y177322D02*
X245384D01*
X242913Y240393D02*
X245373D01*
X159625Y176968D02*
X245362D01*
X242913Y240038D02*
X245352D01*
X159271Y176613D02*
X245339D01*
X242913Y239684D02*
X245330D01*
X148425Y369724D02*
X245329D01*
X158916Y176259D02*
X245317D01*
X242913Y239330D02*
X245308D01*
X158562Y175905D02*
X245295D01*
X242913Y238975D02*
X245287D01*
X148425Y365826D02*
X245277D01*
X158208Y175550D02*
X245272D01*
X242913Y238621D02*
X245265D01*
X157853Y175196D02*
X245250D01*
X242913Y238267D02*
X245243D01*
X157499Y174842D02*
X245228D01*
X242913Y237912D02*
X245222D01*
X242913Y217716D02*
X245207D01*
X157145Y174487D02*
X245206D01*
X242913Y237558D02*
X245200D01*
X156790Y174133D02*
X245183D01*
X148425Y369369D02*
X245180D01*
X242913Y237204D02*
X245179D01*
X156436Y173779D02*
X245161D01*
X242913Y236850D02*
X245157D01*
X148425Y366180D02*
X245139D01*
X156082Y173424D02*
X245139D01*
X242913Y236495D02*
X245135D01*
X155727Y173070D02*
X245116D01*
X242913Y236141D02*
X245114D01*
X155373Y172716D02*
X245094D01*
X242913Y235787D02*
X245092D01*
X155019Y172361D02*
X245072D01*
X242913Y235432D02*
X245070D01*
X148425Y369015D02*
X245064D01*
X154664Y172007D02*
X245049D01*
X242913Y235078D02*
X245049D01*
X148425Y366535D02*
X245032D01*
X242913Y234724D02*
X245027D01*
X224920Y171653D02*
X245027D01*
X242913Y234369D02*
X245006D01*
X225460Y171298D02*
X245005D01*
X242913Y234015D02*
X244984D01*
X225778Y170944D02*
X244983D01*
X148425Y368661D02*
X244977D01*
X242913Y233661D02*
X244962D01*
X225983Y170590D02*
X244960D01*
X148425Y366889D02*
X244955D01*
X242913Y233306D02*
X244941D01*
X226110Y170235D02*
X244938D01*
X242913Y232952D02*
X244919D01*
X148425Y368306D02*
X244919D01*
X226172Y169881D02*
X244916D01*
X148425Y367243D02*
X244906D01*
X242913Y232598D02*
X244897D01*
X226175Y169527D02*
X244893D01*
X148425Y367952D02*
X244888D01*
X148425Y367598D02*
X244883D01*
X242913Y232243D02*
X244876D01*
X226120Y169172D02*
X244871D01*
X242913Y218070D02*
X244863D01*
X242913Y231889D02*
X244854D01*
X226000Y168818D02*
X244849D01*
X242913Y231535D02*
X244833D01*
X225804Y168464D02*
X244826D01*
X242913Y231180D02*
X244811D01*
X225501Y168109D02*
X244804D01*
X242913Y230826D02*
X244789D01*
X224998Y167755D02*
X244782D01*
X242913Y230472D02*
X244768D01*
X186869Y167401D02*
X244760D01*
X242913Y230117D02*
X244746D01*
X186515Y167046D02*
X244737D01*
X242913Y229763D02*
X244725D01*
X186160Y166692D02*
X244715D01*
X242913Y229409D02*
X244703D01*
X185806Y166338D02*
X244693D01*
X242913Y229054D02*
X244681D01*
X185452Y165983D02*
X244670D01*
X242913Y228700D02*
X244660D01*
X185097Y165629D02*
X244648D01*
X242913Y228346D02*
X244638D01*
X184743Y165275D02*
X244626D01*
X242913Y227991D02*
X244616D01*
X242913Y218424D02*
X244609D01*
X184389Y164920D02*
X244604D01*
X242913Y227637D02*
X244595D01*
X184034Y164566D02*
X244581D01*
X242913Y227283D02*
X244573D01*
X183680Y164212D02*
X244559D01*
X242913Y226928D02*
X244552D01*
X183326Y163857D02*
X244537D01*
X242913Y226574D02*
X244530D01*
X202157Y163503D02*
X244514D01*
X242913Y226220D02*
X244508D01*
X209077Y163149D02*
X244492D01*
X242913Y225865D02*
X244487D01*
X209908Y162794D02*
X244470D01*
X242913Y225511D02*
X244465D01*
X210299Y162440D02*
X244447D01*
X242913Y225157D02*
X244443D01*
X210548Y162086D02*
X244425D01*
X242913Y224802D02*
X244422D01*
X242913Y218779D02*
X244420D01*
X210708Y161731D02*
X244403D01*
X242913Y224448D02*
X244400D01*
X210798Y161377D02*
X244381D01*
X242913Y224094D02*
X244379D01*
X210827Y161023D02*
X244358D01*
X242913Y223739D02*
X244357D01*
X210797Y160668D02*
X244336D01*
X242913Y223385D02*
X244335D01*
X242913Y223031D02*
X244314D01*
X210707Y160314D02*
X244314D01*
X242913Y222676D02*
X244292D01*
X210547Y159960D02*
X244291D01*
X242913Y219133D02*
X244285D01*
X242913Y222322D02*
X244271D01*
X210298Y159605D02*
X244269D01*
X242913Y221968D02*
X244249D01*
X210039Y159251D02*
X244247D01*
X242913Y221613D02*
X244227D01*
X210039Y158897D02*
X244224D01*
X242913Y221259D02*
X244206D01*
X210039Y158542D02*
X244202D01*
X242913Y219487D02*
X244196D01*
X242913Y220905D02*
X244184D01*
X210039Y158188D02*
X244180D01*
X242913Y220550D02*
X244162D01*
X210039Y157834D02*
X244158D01*
X242913Y219842D02*
X244148D01*
X242913Y220196D02*
X244142D01*
X210039Y157479D02*
X244135D01*
X210039Y157125D02*
X244113D01*
X210039Y156771D02*
X244091D01*
X210039Y156416D02*
X244068D01*
X210039Y156062D02*
X244046D01*
X210039Y155708D02*
X244024D01*
X210039Y155353D02*
X244002D01*
X210039Y154999D02*
X243979D01*
X210039Y154645D02*
X243957D01*
X210039Y154290D02*
X243935D01*
X210025Y153936D02*
X243912D01*
X209924Y153582D02*
X243890D01*
X209699Y153227D02*
X243868D01*
X209349Y152873D02*
X243845D01*
X208995Y152519D02*
X243823D01*
X208641Y152164D02*
X243801D01*
X208286Y151810D02*
X243779D01*
X207932Y151456D02*
X243756D01*
X207578Y151101D02*
X243734D01*
X207223Y150747D02*
X243712D01*
X206869Y150393D02*
X243689D01*
X206515Y150038D02*
X243667D01*
X206160Y149684D02*
X243645D01*
X205806Y149330D02*
X243623D01*
X205452Y148975D02*
X243600D01*
X205097Y148621D02*
X243578D01*
X204743Y148267D02*
X243556D01*
X204389Y147912D02*
X243533D01*
X204034Y147558D02*
X243511D01*
X203680Y147204D02*
X243489D01*
X203326Y146850D02*
X243466D01*
X202971Y146495D02*
X243444D01*
X202617Y146141D02*
X243422D01*
X202263Y145787D02*
X243400D01*
X201908Y145432D02*
X243377D01*
X201554Y145078D02*
X243355D01*
X201200Y144724D02*
X243333D01*
X200846Y144369D02*
X243310D01*
X200491Y144015D02*
X243288D01*
X200137Y143661D02*
X243266D01*
X199783Y143306D02*
X243243D01*
X199428Y142952D02*
X243221D01*
X199074Y142598D02*
X243199D01*
X198720Y142243D02*
X243177D01*
X198365Y141889D02*
X243154D01*
X198011Y141535D02*
X243132D01*
X197657Y141180D02*
X243110D01*
X197302Y140826D02*
X243087D01*
X196948Y140472D02*
X243065D01*
X196594Y140117D02*
X243043D01*
X196239Y139763D02*
X243021D01*
X195885Y139409D02*
X242998D01*
X195531Y139054D02*
X242976D01*
X195176Y138700D02*
X242954D01*
X194822Y138346D02*
X242931D01*
X194468Y137991D02*
X242909D01*
X194113Y137637D02*
X242887D01*
X193759Y137283D02*
X242864D01*
X193405Y136928D02*
X242842D01*
X193050Y136574D02*
X242820D01*
X192696Y136220D02*
X242798D01*
X192342Y135865D02*
X242775D01*
X191987Y135511D02*
X242753D01*
X191633Y135157D02*
X242731D01*
X191340Y134802D02*
X242708D01*
X191339Y134448D02*
X242686D01*
X191339Y134094D02*
X242664D01*
X191339Y133739D02*
X242642D01*
X191339Y133385D02*
X242619D01*
X191339Y133031D02*
X242597D01*
X232146Y312322D02*
X240757D01*
X232501Y311968D02*
X240038D01*
X236044Y308424D02*
X239764D01*
X236398Y308070D02*
X239764D01*
X236659Y307716D02*
X239764D01*
X236783Y307361D02*
X239764D01*
X236811Y307007D02*
X239764D01*
X236811Y306653D02*
X239764D01*
X236811Y306298D02*
X239764D01*
X236811Y305944D02*
X239764D01*
X236811Y305590D02*
X239764D01*
X236811Y305235D02*
X239764D01*
X236811Y304881D02*
X239764D01*
X236811Y304527D02*
X239764D01*
X236811Y304172D02*
X239764D01*
X236811Y303818D02*
X239764D01*
X236811Y303464D02*
X239764D01*
X236811Y303109D02*
X239764D01*
X236811Y302755D02*
X239764D01*
X236811Y302401D02*
X239764D01*
X236811Y302046D02*
X239764D01*
X236811Y301692D02*
X239764D01*
X236811Y301338D02*
X239764D01*
X236811Y300983D02*
X239764D01*
X236811Y300629D02*
X239764D01*
X236811Y300275D02*
X239764D01*
X236811Y299920D02*
X239764D01*
X236811Y299566D02*
X239764D01*
X236811Y299212D02*
X239764D01*
X236811Y298857D02*
X239764D01*
X236811Y298503D02*
X239764D01*
X236811Y298149D02*
X239764D01*
X236811Y297794D02*
X239764D01*
X236811Y297440D02*
X239764D01*
X236811Y297086D02*
X239764D01*
X236811Y296731D02*
X239764D01*
X236811Y296377D02*
X239764D01*
X236811Y296023D02*
X239764D01*
X236811Y295668D02*
X239764D01*
X236811Y295314D02*
X239764D01*
X236811Y294960D02*
X239764D01*
X236811Y294605D02*
X239764D01*
X236811Y294251D02*
X239764D01*
X236811Y293897D02*
X239764D01*
X236811Y293542D02*
X239764D01*
X236811Y293188D02*
X239764D01*
X236811Y292834D02*
X239764D01*
X236811Y292479D02*
X239764D01*
X236811Y292125D02*
X239764D01*
X236811Y291771D02*
X239764D01*
X236811Y291416D02*
X239764D01*
X236811Y291062D02*
X239764D01*
X236811Y290708D02*
X239764D01*
X236811Y290353D02*
X239764D01*
X236811Y289999D02*
X239764D01*
X236811Y289645D02*
X239764D01*
X236811Y289290D02*
X239764D01*
X236811Y288936D02*
X239764D01*
X236920Y288582D02*
X239764D01*
X237222Y288227D02*
X239764D01*
X237418Y287873D02*
X239764D01*
X237537Y287519D02*
X239764D01*
X237593Y287164D02*
X239764D01*
X237589Y286810D02*
X239764D01*
X237527Y286456D02*
X239764D01*
X237400Y286101D02*
X239764D01*
X237194Y285747D02*
X239764D01*
X236875Y285393D02*
X239764D01*
X236333Y285038D02*
X239764D01*
X207973Y284684D02*
X239764D01*
X208328Y284330D02*
X239764D01*
X208682Y283975D02*
X239764D01*
X209036Y283621D02*
X239764D01*
X209391Y283267D02*
X239764D01*
X209745Y282912D02*
X239764D01*
X210099Y282558D02*
X239764D01*
X210454Y282204D02*
X239764D01*
X210808Y281850D02*
X239764D01*
X211162Y281495D02*
X239764D01*
X211517Y281141D02*
X239764D01*
X211871Y280787D02*
X239764D01*
X212225Y280432D02*
X239764D01*
X212580Y280078D02*
X239764D01*
X212934Y279724D02*
X239764D01*
X213288Y279369D02*
X239764D01*
X213643Y279015D02*
X239764D01*
X213997Y278661D02*
X239764D01*
X214351Y278306D02*
X239764D01*
X214706Y277952D02*
X239764D01*
X215060Y277598D02*
X239764D01*
X215414Y277243D02*
X239764D01*
X215769Y276889D02*
X239764D01*
X216123Y276535D02*
X239764D01*
X216477Y276180D02*
X239764D01*
X216832Y275826D02*
X239764D01*
X217186Y275472D02*
X239764D01*
X217540Y275117D02*
X239764D01*
X217895Y274763D02*
X239764D01*
X218249Y274409D02*
X239764D01*
X218603Y274054D02*
X239764D01*
X218958Y273700D02*
X239764D01*
X219312Y273346D02*
X239764D01*
X219666Y272991D02*
X239764D01*
X220021Y272637D02*
X239764D01*
X220375Y272283D02*
X239764D01*
X220729Y271928D02*
X239764D01*
X221083Y271574D02*
X239764D01*
X221438Y271220D02*
X239764D01*
X221792Y270865D02*
X239764D01*
X222146Y270511D02*
X239764D01*
X222501Y270157D02*
X239764D01*
X222855Y269802D02*
X239764D01*
X224015Y269448D02*
X239764D01*
X224658Y269094D02*
X239764D01*
X225010Y268739D02*
X239764D01*
X225236Y268385D02*
X239764D01*
X225379Y268031D02*
X239764D01*
X225455Y267676D02*
X239764D01*
X225471Y267322D02*
X239764D01*
X225429Y266968D02*
X239764D01*
X225324Y266613D02*
X239764D01*
X225146Y266259D02*
X239764D01*
X224872Y265905D02*
X239764D01*
X224646Y265550D02*
X239764D01*
X225204Y265196D02*
X239764D01*
X225619Y264842D02*
X239764D01*
X225880Y264487D02*
X239764D01*
X226048Y264133D02*
X239764D01*
X226145Y263779D02*
X239764D01*
X226181Y263424D02*
X239764D01*
X226158Y263070D02*
X239764D01*
X226075Y262716D02*
X239764D01*
X225923Y262361D02*
X239764D01*
X225685Y262007D02*
X239764D01*
X225314Y261653D02*
X239764D01*
X224591Y261298D02*
X239764D01*
X219701Y260944D02*
X239764D01*
X219505Y260590D02*
X239764D01*
X219202Y260235D02*
X239764D01*
X218698Y259881D02*
X239764D01*
X203418Y259527D02*
X239764D01*
X201044Y259172D02*
X239764D01*
X227975Y258818D02*
X239764D01*
X228805Y258464D02*
X239764D01*
X229197Y258109D02*
X239764D01*
X229446Y257755D02*
X239764D01*
X229605Y257401D02*
X239764D01*
X229695Y257046D02*
X239764D01*
X229724Y256692D02*
X239764D01*
X229695Y256338D02*
X239764D01*
X229605Y255983D02*
X239764D01*
X229445Y255629D02*
X239764D01*
X229195Y255275D02*
X239764D01*
X228803Y254920D02*
X239764D01*
X227966Y254566D02*
X239764D01*
X118740Y254212D02*
X239764D01*
X118740Y253857D02*
X239764D01*
X235690Y308779D02*
X239733D01*
X191339Y132676D02*
X239693D01*
X232855Y311613D02*
X239667D01*
X235335Y309133D02*
X239475D01*
X233209Y311259D02*
X239430D01*
X234981Y309487D02*
X239307D01*
X233564Y310905D02*
X239279D01*
X234627Y309842D02*
X239209D01*
X233918Y310550D02*
X239196D01*
X234272Y310196D02*
X239174D01*
X191339Y132322D02*
X238311D01*
X191339Y131968D02*
X237772D01*
X118740Y253503D02*
X237597D01*
X191339Y131613D02*
X237404D01*
X191339Y131259D02*
X237133D01*
X118740Y253149D02*
X237096D01*
X191339Y130905D02*
X236931D01*
X191339Y130550D02*
X236785D01*
X191339Y130196D02*
X236686D01*
X191339Y129842D02*
X236630D01*
X191339Y129487D02*
X236614D01*
X191339Y129133D02*
X236614D01*
X191339Y128779D02*
X236614D01*
X191339Y128424D02*
X236614D01*
X191339Y128070D02*
X236614D01*
X191339Y127716D02*
X236614D01*
X191339Y127361D02*
X236614D01*
X191339Y127007D02*
X236614D01*
X191339Y126653D02*
X236614D01*
X191339Y126298D02*
X236614D01*
X191339Y125944D02*
X236614D01*
X191339Y125590D02*
X236614D01*
X191339Y125235D02*
X236614D01*
X191339Y124881D02*
X236614D01*
X191339Y124527D02*
X236614D01*
X191339Y124172D02*
X236614D01*
X191339Y123818D02*
X236614D01*
X191339Y123464D02*
X236614D01*
X191339Y123109D02*
X236614D01*
X191339Y122755D02*
X236614D01*
X191339Y122401D02*
X236614D01*
X191339Y122046D02*
X236614D01*
X191339Y121692D02*
X236614D01*
X191339Y121338D02*
X236614D01*
X191339Y120983D02*
X236614D01*
X191339Y120629D02*
X236614D01*
X191339Y120275D02*
X236614D01*
X191339Y119920D02*
X236614D01*
X191339Y119566D02*
X236614D01*
X191339Y119212D02*
X236614D01*
X191339Y118857D02*
X236614D01*
X191339Y118503D02*
X236614D01*
X191339Y118149D02*
X236614D01*
X191339Y117794D02*
X236614D01*
X191339Y117440D02*
X236614D01*
X191339Y117086D02*
X236614D01*
X191339Y116731D02*
X236614D01*
X191339Y116377D02*
X236614D01*
X191339Y116023D02*
X236614D01*
X191339Y115668D02*
X236614D01*
X191339Y115314D02*
X236614D01*
X191339Y114960D02*
X236614D01*
X191339Y114605D02*
X236614D01*
X191339Y114251D02*
X236614D01*
X191339Y113897D02*
X236614D01*
X226587Y113542D02*
X236614D01*
X227833Y113188D02*
X236614D01*
X228478Y112834D02*
X236614D01*
X228946Y112479D02*
X236614D01*
X229312Y112125D02*
X236614D01*
X229607Y111771D02*
X236614D01*
X229847Y111416D02*
X236614D01*
X230043Y111062D02*
X236614D01*
X230199Y110708D02*
X236614D01*
X230322Y110353D02*
X236614D01*
X230412Y109999D02*
X236614D01*
X230473Y109645D02*
X236614D01*
X230506Y109290D02*
X236614D01*
X230510Y108936D02*
X236614D01*
X230487Y108582D02*
X236614D01*
X230436Y108227D02*
X236614D01*
X230355Y107873D02*
X236614D01*
X230243Y107519D02*
X236614D01*
X230098Y107164D02*
X236614D01*
X229916Y106810D02*
X236614D01*
X229691Y106456D02*
X236614D01*
X229416Y106101D02*
X236614D01*
X229076Y105747D02*
X236614D01*
X228646Y105393D02*
X236614D01*
X228074Y105038D02*
X236614D01*
X227165Y104684D02*
X236614D01*
X148228Y104330D02*
X236614D01*
X148228Y103975D02*
X236614D01*
X148228Y103621D02*
X236614D01*
X148189Y103267D02*
X236614D01*
X148000Y102912D02*
X236614D01*
X105118Y102558D02*
X236614D01*
X105118Y102204D02*
X236614D01*
X105118Y101850D02*
X236614D01*
X105118Y101495D02*
X236614D01*
X207619Y285038D02*
X234533D01*
X213189Y306298D02*
X234055D01*
X213189Y305944D02*
X234055D01*
X213189Y305590D02*
X234055D01*
X213189Y305235D02*
X234055D01*
X213189Y304881D02*
X234055D01*
X213189Y304527D02*
X234055D01*
X213180Y304172D02*
X234055D01*
X213090Y303818D02*
X234055D01*
X212882Y303464D02*
X234055D01*
X212538Y303109D02*
X234055D01*
X212184Y302755D02*
X234055D01*
X211830Y302401D02*
X234055D01*
X211614Y302046D02*
X234055D01*
X211614Y301692D02*
X234055D01*
X211614Y301338D02*
X234055D01*
X211614Y300983D02*
X234055D01*
X211614Y300629D02*
X234055D01*
X211614Y300275D02*
X234055D01*
X211614Y299920D02*
X234055D01*
X211614Y299566D02*
X234055D01*
X211614Y299212D02*
X234055D01*
X211614Y298857D02*
X234055D01*
X211614Y298503D02*
X234055D01*
X211614Y298149D02*
X234055D01*
X211614Y297794D02*
X234055D01*
X211614Y297440D02*
X234055D01*
X211614Y297086D02*
X234055D01*
X211614Y296731D02*
X234055D01*
X211614Y296377D02*
X234055D01*
X211614Y296023D02*
X234055D01*
X211723Y295668D02*
X234055D01*
X212025Y295314D02*
X234055D01*
X212221Y294960D02*
X234055D01*
X212340Y294605D02*
X234055D01*
X212396Y294251D02*
X234055D01*
X212393Y293897D02*
X234055D01*
X212330Y293542D02*
X234055D01*
X212203Y293188D02*
X234055D01*
X211997Y292834D02*
X234055D01*
X211679Y292479D02*
X234055D01*
X211136Y292125D02*
X234055D01*
X207937Y291771D02*
X234055D01*
X207769Y291416D02*
X234055D01*
X207507Y291062D02*
X234055D01*
X207091Y290708D02*
X234055D01*
X205401Y290353D02*
X234055D01*
X205309Y289999D02*
X234055D01*
X205253Y289645D02*
X234055D01*
X205134Y289290D02*
X234055D01*
X204938Y288936D02*
X234055D01*
X207265Y285393D02*
X233991D01*
X204635Y288582D02*
X233946D01*
X213189Y306653D02*
X233918D01*
X206910Y285747D02*
X233673D01*
X204193Y288227D02*
X233644D01*
X213189Y307007D02*
X233564D01*
X206556Y286101D02*
X233467D01*
X204596Y287873D02*
X233448D01*
X206202Y286456D02*
X233339D01*
X205139Y287519D02*
X233329D01*
X205847Y286810D02*
X233277D01*
X205493Y287164D02*
X233273D01*
X213189Y307361D02*
X233210D01*
X213189Y307716D02*
X232855D01*
X213189Y308070D02*
X232501D01*
X213189Y308424D02*
X232147D01*
X213189Y308779D02*
X231792D01*
X213189Y309133D02*
X231438D01*
X213189Y309487D02*
X231084D01*
X213189Y309842D02*
X230729D01*
X213189Y310196D02*
X230375D01*
X213189Y310550D02*
X230021D01*
X213189Y310905D02*
X229666D01*
X213189Y311259D02*
X229312D01*
X103268Y190787D02*
X229121D01*
X222462Y195038D02*
X229112D01*
X213189Y311613D02*
X228958D01*
X213189Y311968D02*
X228603D01*
X103268Y191141D02*
X228284D01*
X222108Y194684D02*
X228281D01*
X213189Y312322D02*
X228249D01*
X213189Y312676D02*
X227895D01*
X103268Y191495D02*
X227886D01*
X222074Y194330D02*
X227884D01*
X213189Y313031D02*
X227540D01*
X213189Y313385D02*
X227186D01*
X118740Y254566D02*
X227153D01*
X201398Y258818D02*
X227143D01*
X213189Y313739D02*
X226832D01*
X213189Y314094D02*
X226477D01*
X118740Y254920D02*
X226315D01*
X201753Y258464D02*
X226313D01*
X213189Y314448D02*
X226123D01*
X118740Y255275D02*
X225918D01*
X202110Y258109D02*
X225915D01*
X213189Y314802D02*
X225769D01*
X213189Y315157D02*
X225414D01*
X210839Y113542D02*
X225382D01*
X213189Y315511D02*
X225060D01*
X211417Y104684D02*
X224804D01*
X213189Y315865D02*
X224706D01*
X213189Y316220D02*
X224351D01*
X212085Y113188D02*
X224136D01*
X213189Y316574D02*
X223997D01*
X212326Y105038D02*
X223895D01*
X213189Y316928D02*
X223643D01*
X212730Y112834D02*
X223490D01*
X219820Y261298D02*
X223440D01*
X212898Y105393D02*
X223322D01*
X213189Y317283D02*
X223288D01*
X154310Y171653D02*
X223112D01*
X187223Y167755D02*
X223034D01*
X213198Y112479D02*
X223022D01*
X213189Y317637D02*
X222934D01*
X213328Y105747D02*
X222893D01*
X219876Y261653D02*
X222718D01*
X213564Y112125D02*
X222656D01*
X213189Y317991D02*
X222580D01*
X153956Y171298D02*
X222571D01*
X213668Y106101D02*
X222553D01*
X187578Y168109D02*
X222530D01*
X213859Y111771D02*
X222362D01*
X219873Y262007D02*
X222346D01*
X213943Y106456D02*
X222277D01*
X213189Y318346D02*
X222225D01*
X214099Y111416D02*
X222121D01*
X219811Y262361D02*
X222108D01*
X214168Y106810D02*
X222052D01*
X219684Y262716D02*
X221957D01*
X214295Y111062D02*
X221926D01*
X219478Y263070D02*
X221874D01*
X213189Y318700D02*
X221871D01*
X214350Y107164D02*
X221870D01*
X214451Y110708D02*
X221769D01*
X214495Y107519D02*
X221725D01*
X214574Y110353D02*
X221647D01*
X219161Y263424D02*
X221635D01*
X214607Y107873D02*
X221614D01*
X214664Y109999D02*
X221556D01*
X214688Y108227D02*
X221533D01*
X218115Y319054D02*
X221517D01*
X214725Y109645D02*
X221495D01*
X214739Y108582D02*
X221481D01*
X214758Y109290D02*
X221463D01*
X214762Y108936D02*
X221458D01*
X219095Y263779D02*
X221280D01*
X218530Y319409D02*
X221162D01*
X219095Y264133D02*
X220926D01*
X219095Y264487D02*
X220572D01*
X219095Y264842D02*
X220217D01*
X219095Y265196D02*
X219863D01*
X219104Y265550D02*
X219509D01*
X203888Y259881D02*
X216735D01*
X213189Y322952D02*
X216347D01*
X200532Y265196D02*
X216339D01*
X200887Y264842D02*
X216339D01*
X201241Y264487D02*
X216339D01*
X201595Y264133D02*
X216339D01*
X201950Y263779D02*
X216339D01*
X200178Y265550D02*
X216329D01*
X203175Y263424D02*
X216272D01*
X204177Y260235D02*
X216231D01*
X199824Y265905D02*
X216005D01*
X203761Y263070D02*
X215955D01*
X204363Y260590D02*
X215928D01*
X204095Y262716D02*
X215749D01*
X213189Y319054D02*
X215743D01*
X204475Y260944D02*
X215732D01*
X199469Y266259D02*
X215651D01*
X213189Y322598D02*
X215629D01*
X204311Y262361D02*
X215622D01*
X204524Y261298D02*
X215613D01*
X204446Y262007D02*
X215560D01*
X204515Y261653D02*
X215557D01*
X213189Y319409D02*
X215328D01*
X199115Y266613D02*
X215296D01*
X213189Y322243D02*
X215258D01*
X213189Y319763D02*
X215066D01*
X213189Y321889D02*
X215021D01*
X198761Y266968D02*
X214942D01*
X213189Y320117D02*
X214897D01*
X213189Y321535D02*
X214870D01*
X213189Y320472D02*
X214800D01*
X213189Y321180D02*
X214787D01*
X213189Y320826D02*
X214764D01*
X198349Y267322D02*
X214588D01*
X138536Y267676D02*
X214233D01*
X138416Y268031D02*
X213879D01*
X138416Y268385D02*
X213525D01*
X138416Y268739D02*
X213170D01*
X138416Y269094D02*
X212816D01*
X138403Y269448D02*
X212462D01*
X138305Y269802D02*
X212107D01*
X138085Y270157D02*
X211753D01*
X137737Y270511D02*
X211399D01*
X137383Y270865D02*
X211044D01*
X210039Y328267D02*
X210752D01*
X191360Y271220D02*
X210690D01*
X191948Y271574D02*
X210336D01*
X192283Y271928D02*
X209981D01*
X191339Y113542D02*
X209634D01*
X192499Y272283D02*
X209627D01*
X208035Y292125D02*
X209336D01*
X192634Y272637D02*
X209273D01*
X148228Y104684D02*
X209056D01*
X192704Y272991D02*
X208918D01*
X208071Y292479D02*
X208794D01*
X192713Y273346D02*
X208564D01*
X208053Y292834D02*
X208476D01*
X191339Y113188D02*
X208388D01*
X202875Y163149D02*
X208246D01*
X192665Y273700D02*
X208210D01*
X148228Y105038D02*
X208147D01*
X192553Y274054D02*
X207855D01*
X178837Y352361D02*
X207757D01*
X191339Y112834D02*
X207742D01*
X148228Y105393D02*
X207574D01*
X192367Y274409D02*
X207501D01*
X203246Y162794D02*
X207415D01*
X148425Y348464D02*
X207283D01*
X148425Y348109D02*
X207283D01*
X148425Y347755D02*
X207283D01*
X148425Y347401D02*
X207283D01*
X148425Y347046D02*
X207283D01*
X148425Y346692D02*
X207283D01*
X148425Y346338D02*
X207283D01*
X148425Y345983D02*
X207283D01*
X148425Y345629D02*
X207283D01*
X148425Y345275D02*
X207283D01*
X148425Y344920D02*
X207283D01*
X148425Y344566D02*
X207283D01*
X148425Y344212D02*
X207283D01*
X148425Y343857D02*
X207283D01*
X148425Y343503D02*
X207283D01*
X148425Y343149D02*
X207283D01*
X148425Y342794D02*
X207283D01*
X148425Y342440D02*
X207283D01*
X148425Y342086D02*
X207283D01*
X194605Y341731D02*
X207283D01*
X195145Y341377D02*
X207283D01*
X197411Y341023D02*
X207283D01*
X197895Y340668D02*
X207283D01*
X198249Y340314D02*
X207283D01*
X198603Y339960D02*
X207283D01*
X198958Y339605D02*
X207283D01*
X199312Y339251D02*
X207283D01*
X199666Y338897D02*
X207283D01*
X200021Y338542D02*
X207283D01*
X200375Y338188D02*
X207283D01*
X200729Y337834D02*
X207283D01*
X201083Y337479D02*
X207283D01*
X201438Y337125D02*
X207283D01*
X201792Y336771D02*
X207283D01*
X202146Y336416D02*
X207283D01*
X202501Y336062D02*
X207283D01*
X202855Y335708D02*
X207283D01*
X203209Y335353D02*
X207283D01*
X203564Y334999D02*
X207283D01*
X203918Y334645D02*
X207283D01*
X204272Y334290D02*
X207283D01*
X204627Y333936D02*
X207283D01*
X204981Y333582D02*
X207283D01*
X205335Y333227D02*
X207283D01*
X205690Y332873D02*
X207283D01*
X206044Y332519D02*
X207283D01*
X206323Y332164D02*
X207283D01*
X206460Y331810D02*
X207283D01*
X206496Y331456D02*
X207283D01*
X206496Y331101D02*
X207283D01*
X206496Y330747D02*
X207283D01*
X206496Y330393D02*
X207283D01*
X206496Y330038D02*
X207283D01*
X206496Y329684D02*
X207283D01*
X206496Y329330D02*
X207283D01*
X206496Y328975D02*
X207283D01*
X206496Y328621D02*
X207283D01*
X206496Y328267D02*
X207283D01*
X206496Y327912D02*
X207283D01*
X206496Y327558D02*
X207283D01*
X206496Y327204D02*
X207283D01*
X206496Y326850D02*
X207283D01*
X206496Y326495D02*
X207283D01*
X206496Y326141D02*
X207283D01*
X206496Y325787D02*
X207283D01*
X206496Y325432D02*
X207283D01*
X206496Y325078D02*
X207283D01*
X206496Y324724D02*
X207283D01*
X206496Y324369D02*
X207283D01*
X206496Y324015D02*
X207283D01*
X206496Y323661D02*
X207283D01*
X206496Y323306D02*
X207283D01*
X206496Y322952D02*
X207283D01*
X206496Y322598D02*
X207283D01*
X206496Y322243D02*
X207283D01*
X206496Y321889D02*
X207283D01*
X206496Y321535D02*
X207283D01*
X206496Y321180D02*
X207283D01*
X206496Y320826D02*
X207283D01*
X206496Y320472D02*
X207283D01*
X206496Y320117D02*
X207283D01*
X206496Y319763D02*
X207283D01*
X206496Y319409D02*
X207283D01*
X206496Y319054D02*
X207283D01*
X206496Y318700D02*
X207283D01*
X206496Y318346D02*
X207283D01*
X206496Y317991D02*
X207283D01*
X206496Y317637D02*
X207283D01*
X206496Y317283D02*
X207283D01*
X206496Y316928D02*
X207283D01*
X206496Y316574D02*
X207283D01*
X206496Y316220D02*
X207283D01*
X206496Y315865D02*
X207283D01*
X206496Y315511D02*
X207283D01*
X206496Y315157D02*
X207283D01*
X206496Y314802D02*
X207283D01*
X206496Y314448D02*
X207283D01*
X206496Y314094D02*
X207283D01*
X206496Y313739D02*
X207283D01*
X206496Y313385D02*
X207283D01*
X206496Y313031D02*
X207283D01*
X206496Y312676D02*
X207283D01*
X206496Y312322D02*
X207283D01*
X206496Y311968D02*
X207283D01*
X206496Y311613D02*
X207283D01*
X206496Y311259D02*
X207283D01*
X206496Y310905D02*
X207283D01*
X206496Y310550D02*
X207283D01*
X206496Y310196D02*
X207283D01*
X206496Y309842D02*
X207283D01*
X206496Y309487D02*
X207283D01*
X206496Y309133D02*
X207283D01*
X206496Y308779D02*
X207283D01*
X206496Y308424D02*
X207283D01*
X206496Y308070D02*
X207283D01*
X202953Y159251D02*
X207283D01*
X202953Y158897D02*
X207283D01*
X202953Y158542D02*
X207283D01*
X202953Y158188D02*
X207283D01*
X202953Y157834D02*
X207283D01*
X202953Y157479D02*
X207283D01*
X202953Y157125D02*
X207283D01*
X202953Y156771D02*
X207283D01*
X202953Y156416D02*
X207283D01*
X202953Y156062D02*
X207283D01*
X202953Y155708D02*
X207283D01*
X202953Y155353D02*
X207283D01*
X202953Y154999D02*
X207283D01*
X191339Y112479D02*
X207274D01*
X202950Y154645D02*
X207224D01*
X178680Y352007D02*
X207217D01*
X148425Y348818D02*
X207176D01*
X192079Y274763D02*
X207147D01*
X148228Y105747D02*
X207145D01*
X202953Y159605D02*
X207025D01*
X206496Y307716D02*
X207024D01*
X203483Y162440D02*
X207024D01*
X196085Y112125D02*
X206908D01*
X178482Y351653D02*
X206900D01*
X148425Y349172D02*
X206873D01*
X202883Y154290D02*
X206869D01*
X148228Y106101D02*
X206805D01*
X191610Y275117D02*
X206792D01*
X203176Y159960D02*
X206775D01*
X203634Y162086D02*
X206774D01*
X151908Y249960D02*
X206761D01*
X178237Y351298D02*
X206694D01*
X148425Y349527D02*
X206677D01*
X203438Y160314D02*
X206616D01*
X203717Y161731D02*
X206615D01*
X196637Y111771D02*
X206613D01*
X177933Y350944D02*
X206567D01*
X176321Y349881D02*
X206558D01*
X148228Y106456D02*
X206529D01*
X203607Y160668D02*
X206525D01*
X203740Y161377D02*
X206525D01*
X202705Y153936D02*
X206515D01*
X177551Y350590D02*
X206505D01*
X177051Y350235D02*
X206502D01*
X148011Y246062D02*
X206496D01*
X147657Y245708D02*
X206496D01*
X179842Y245353D02*
X206496D01*
X180485Y244999D02*
X206496D01*
X180837Y244645D02*
X206496D01*
X181063Y244290D02*
X206496D01*
X181206Y243936D02*
X206496D01*
X181282Y243582D02*
X206496D01*
X181298Y243227D02*
X206496D01*
X200198Y242873D02*
X206496D01*
X200700Y242519D02*
X206496D01*
X201002Y242164D02*
X206496D01*
X201198Y241810D02*
X206496D01*
X201317Y241456D02*
X206496D01*
X201372Y241101D02*
X206496D01*
X201369Y240747D02*
X206496D01*
X201306Y240393D02*
X206496D01*
X201179Y240038D02*
X206496D01*
X200973Y239684D02*
X206496D01*
X200655Y239330D02*
X206496D01*
X200113Y238975D02*
X206496D01*
X160730Y238621D02*
X206496D01*
X160376Y238267D02*
X206496D01*
X160022Y237912D02*
X206496D01*
X159667Y237558D02*
X206496D01*
X159313Y237204D02*
X206496D01*
X158959Y236850D02*
X206496D01*
X158604Y236495D02*
X206496D01*
X158250Y236141D02*
X206496D01*
X157896Y235787D02*
X206496D01*
X157541Y235432D02*
X206496D01*
X157187Y235078D02*
X206496D01*
X156833Y234724D02*
X206496D01*
X156478Y234369D02*
X206496D01*
X156124Y234015D02*
X206496D01*
X155770Y233661D02*
X206496D01*
X155415Y233306D02*
X206496D01*
X155061Y232952D02*
X206496D01*
X154707Y232598D02*
X206496D01*
X154352Y232243D02*
X206496D01*
X153998Y231889D02*
X206496D01*
X153644Y231535D02*
X206496D01*
X153289Y231180D02*
X206496D01*
X152935Y230826D02*
X206496D01*
X152581Y230472D02*
X206496D01*
X152362Y230117D02*
X206496D01*
X152362Y229763D02*
X206496D01*
X152362Y229409D02*
X206496D01*
X152362Y229054D02*
X206496D01*
X152362Y228700D02*
X206496D01*
X152362Y228346D02*
X206496D01*
X152362Y227991D02*
X206496D01*
X152362Y227637D02*
X206496D01*
X152362Y227283D02*
X206496D01*
X152362Y226928D02*
X206496D01*
X152362Y226574D02*
X206496D01*
X152362Y226220D02*
X206496D01*
X152362Y225865D02*
X206496D01*
X200271Y225511D02*
X206496D01*
X200740Y225157D02*
X206496D01*
X201028Y224802D02*
X206496D01*
X201214Y224448D02*
X206496D01*
X201326Y224094D02*
X206496D01*
X201375Y223739D02*
X206496D01*
X201365Y223385D02*
X206496D01*
X201296Y223031D02*
X206496D01*
X201161Y222676D02*
X206496D01*
X200944Y222322D02*
X206496D01*
X200610Y221968D02*
X206496D01*
X200021Y221613D02*
X206496D01*
X152362Y221259D02*
X206496D01*
X152362Y220905D02*
X206496D01*
X152362Y220550D02*
X206496D01*
X152362Y220196D02*
X206496D01*
X152362Y219842D02*
X206496D01*
X152362Y219487D02*
X206496D01*
X152362Y219133D02*
X206496D01*
X152362Y218779D02*
X206496D01*
X152362Y218424D02*
X206496D01*
X152362Y218070D02*
X206496D01*
X152362Y217716D02*
X206496D01*
X152362Y217361D02*
X206496D01*
X152362Y217007D02*
X206496D01*
X152362Y216653D02*
X206496D01*
X152490Y216298D02*
X206496D01*
X152717Y215944D02*
X206496D01*
X203704Y161023D02*
X206496D01*
X152859Y215590D02*
X206495D01*
X139469Y275472D02*
X206438D01*
X148365Y246416D02*
X206432D01*
X151554Y249605D02*
X206387D01*
X196994Y111416D02*
X206373D01*
X148228Y106810D02*
X206304D01*
X152935Y215235D02*
X206200D01*
X197246Y111062D02*
X206178D01*
X202381Y153582D02*
X206161D01*
X196081Y107164D02*
X206122D01*
X148720Y246771D02*
X206114D01*
X151200Y249251D02*
X206085D01*
X139115Y275826D02*
X206084D01*
X197425Y110708D02*
X206021D01*
X196634Y107519D02*
X205977D01*
X149074Y247125D02*
X205907D01*
X197545Y110353D02*
X205899D01*
X150846Y248897D02*
X205889D01*
X196992Y107873D02*
X205866D01*
X153094Y214881D02*
X205846D01*
X197615Y109999D02*
X205808D01*
X202027Y153227D02*
X205806D01*
X197245Y108227D02*
X205785D01*
X149428Y247479D02*
X205780D01*
X150491Y248542D02*
X205770D01*
X197638Y109645D02*
X205747D01*
X197424Y108582D02*
X205733D01*
X138761Y276180D02*
X205729D01*
X149783Y247834D02*
X205718D01*
X197615Y109290D02*
X205715D01*
X150137Y248188D02*
X205714D01*
X197545Y108936D02*
X205710D01*
X153448Y214527D02*
X205491D01*
X201672Y152873D02*
X205452D01*
X138406Y276535D02*
X205375D01*
X153803Y214172D02*
X205137D01*
X201318Y152519D02*
X205098D01*
X190887Y276889D02*
X205021D01*
X154157Y213818D02*
X204783D01*
X200964Y152164D02*
X204743D01*
X191328Y277243D02*
X204666D01*
X154511Y213464D02*
X204428D01*
X200609Y151810D02*
X204389D01*
X191603Y277598D02*
X204312D01*
X154866Y213109D02*
X204074D01*
X200255Y151456D02*
X204035D01*
X191781Y277952D02*
X203958D01*
X155220Y212755D02*
X203720D01*
X199901Y151101D02*
X203680D01*
X191885Y278306D02*
X203603D01*
X155574Y212401D02*
X203365D01*
X199546Y150747D02*
X203326D01*
X191928Y278661D02*
X203249D01*
X155929Y212046D02*
X203011D01*
X199192Y150393D02*
X202972D01*
X192701Y279015D02*
X202895D01*
X156283Y211692D02*
X202657D01*
X198838Y150038D02*
X202617D01*
X193424Y279369D02*
X202540D01*
X156637Y211338D02*
X202302D01*
X198483Y149684D02*
X202263D01*
X193796Y279724D02*
X202186D01*
X199824Y288227D02*
X202086D01*
X156992Y210983D02*
X201948D01*
X198129Y149330D02*
X201909D01*
X194034Y280078D02*
X201829D01*
X199469Y288582D02*
X201664D01*
X157346Y210629D02*
X201594D01*
X197775Y148975D02*
X201554D01*
X199115Y288936D02*
X201362D01*
X200836Y259527D02*
X201307D01*
X157700Y210275D02*
X201239D01*
X197420Y148621D02*
X201200D01*
X198761Y289290D02*
X201165D01*
X198406Y289645D02*
X201046D01*
X182971Y163503D02*
X200993D01*
X198052Y289999D02*
X200990D01*
X197698Y290353D02*
X200898D01*
X158055Y209920D02*
X200885D01*
X197066Y148267D02*
X200846D01*
X118740Y255629D02*
X200699D01*
X199981Y260235D02*
X200548D01*
X158409Y209566D02*
X200535D01*
X196712Y147912D02*
X200491D01*
X199627Y260590D02*
X200361D01*
X118740Y255983D02*
X200336D01*
X158763Y209212D02*
X200311D01*
X182617Y163149D02*
X200274D01*
X199272Y260944D02*
X200249D01*
X159118Y208857D02*
X200211D01*
X198918Y261298D02*
X200200D01*
X159472Y208503D02*
X200197D01*
X159826Y208149D02*
X200197D01*
X160181Y207794D02*
X200197D01*
X160535Y207440D02*
X200197D01*
X160889Y207086D02*
X200197D01*
X161244Y206731D02*
X200197D01*
X161598Y206377D02*
X200197D01*
X161952Y206023D02*
X200197D01*
X162307Y205668D02*
X200197D01*
X162661Y205314D02*
X200197D01*
X163015Y204960D02*
X200197D01*
X163370Y204605D02*
X200197D01*
X163724Y204251D02*
X200197D01*
X164078Y203897D02*
X200197D01*
X164433Y203542D02*
X200197D01*
X164787Y203188D02*
X200197D01*
X165141Y202834D02*
X200197D01*
X165496Y202479D02*
X200197D01*
X165850Y202125D02*
X200197D01*
X166204Y201771D02*
X200197D01*
X166559Y201416D02*
X200197D01*
X166913Y201062D02*
X200197D01*
X167267Y200708D02*
X200197D01*
X167622Y200353D02*
X200197D01*
X167976Y199999D02*
X200197D01*
X168330Y199645D02*
X200197D01*
X168685Y199290D02*
X200197D01*
X169039Y198936D02*
X200197D01*
X179074Y159605D02*
X200197D01*
X178720Y159251D02*
X200197D01*
X178365Y158897D02*
X200197D01*
X178011Y158542D02*
X200197D01*
X177657Y158188D02*
X200197D01*
X177302Y157834D02*
X200197D01*
X176948Y157479D02*
X200197D01*
X176594Y157125D02*
X200197D01*
X176239Y156771D02*
X200197D01*
X175885Y156416D02*
X200197D01*
X175531Y156062D02*
X200197D01*
X175176Y155708D02*
X200197D01*
X174822Y155353D02*
X200195D01*
X169393Y198582D02*
X200195D01*
X198564Y261653D02*
X200171D01*
X196357Y147558D02*
X200137D01*
X118740Y256338D02*
X199981D01*
X179428Y159960D02*
X199973D01*
X169748Y198227D02*
X199904D01*
X182263Y162794D02*
X199904D01*
X174468Y154999D02*
X199901D01*
X198209Y262007D02*
X199824D01*
X196003Y147204D02*
X199783D01*
X179783Y160314D02*
X199712D01*
X170102Y197873D02*
X199666D01*
X181908Y162440D02*
X199666D01*
X118740Y256692D02*
X199627D01*
X174113Y154645D02*
X199546D01*
X180137Y160668D02*
X199543D01*
X170456Y197519D02*
X199515D01*
X181554Y162086D02*
X199515D01*
X197575Y262361D02*
X199469D01*
X171519Y196456D02*
X199446D01*
X180491Y161023D02*
X199446D01*
X170811Y197164D02*
X199432D01*
X181200Y161731D02*
X199432D01*
X195649Y146850D02*
X199428D01*
X171165Y196810D02*
X199410D01*
X180846Y161377D02*
X199410D01*
X171877Y196101D02*
X199404D01*
X118740Y257046D02*
X199273D01*
X197343Y290708D02*
X199208D01*
X173759Y154290D02*
X199192D01*
X195839Y262716D02*
X199115D01*
X195294Y146495D02*
X199074D01*
X182630Y327912D02*
X199016D01*
X182918Y327558D02*
X199016D01*
X183104Y327204D02*
X199016D01*
X183216Y326850D02*
X199016D01*
X183265Y326495D02*
X199016D01*
X183255Y326141D02*
X199016D01*
X183185Y325787D02*
X199016D01*
X183050Y325432D02*
X199016D01*
X182834Y325078D02*
X199016D01*
X182499Y324724D02*
X199016D01*
X181911Y324369D02*
X199016D01*
X179901Y324015D02*
X199016D01*
X179546Y323661D02*
X199016D01*
X179172Y323306D02*
X199016D01*
X161050Y322952D02*
X199016D01*
X160634Y322598D02*
X199016D01*
X148300Y322243D02*
X199016D01*
X148190Y321889D02*
X199016D01*
X148042Y321535D02*
X199016D01*
X147851Y321180D02*
X199016D01*
X147607Y320826D02*
X199016D01*
X147299Y320472D02*
X199016D01*
X146901Y320117D02*
X199016D01*
X146357Y319763D02*
X199016D01*
X145442Y319409D02*
X199016D01*
X123839Y319054D02*
X199016D01*
X124194Y318700D02*
X199016D01*
X124548Y318346D02*
X199016D01*
X124902Y317991D02*
X199016D01*
X125257Y317637D02*
X199016D01*
X125611Y317283D02*
X199016D01*
X125965Y316928D02*
X199016D01*
X126320Y316574D02*
X199016D01*
X126674Y316220D02*
X199016D01*
X127028Y315865D02*
X199016D01*
X127383Y315511D02*
X199016D01*
X127737Y315157D02*
X199016D01*
X128091Y314802D02*
X199016D01*
X128446Y314448D02*
X199016D01*
X128800Y314094D02*
X199016D01*
X129154Y313739D02*
X199016D01*
X129509Y313385D02*
X199016D01*
X141758Y313031D02*
X199016D01*
X142344Y312676D02*
X199016D01*
X142678Y312322D02*
X199016D01*
X142894Y311968D02*
X199016D01*
X143028Y311613D02*
X199016D01*
X143097Y311259D02*
X199016D01*
X143107Y310905D02*
X199016D01*
X143058Y310550D02*
X199016D01*
X142946Y310196D02*
X199016D01*
X142759Y309842D02*
X199016D01*
X142471Y309487D02*
X199016D01*
X144802Y309133D02*
X199016D01*
X145446Y308779D02*
X199016D01*
X145797Y308424D02*
X199016D01*
X146024Y308070D02*
X199016D01*
X146166Y307716D02*
X199016D01*
X146242Y307361D02*
X199016D01*
X179448Y307007D02*
X199016D01*
X180091Y306653D02*
X199016D01*
X180443Y306298D02*
X199016D01*
X180669Y305944D02*
X199016D01*
X180812Y305590D02*
X199016D01*
X180888Y305235D02*
X199016D01*
X180904Y304881D02*
X199016D01*
X180862Y304527D02*
X199016D01*
X180760Y304172D02*
X199016D01*
X182678Y303818D02*
X199016D01*
X183180Y303464D02*
X199016D01*
X183482Y303109D02*
X199016D01*
X183678Y302755D02*
X199016D01*
X183797Y302401D02*
X199016D01*
X183853Y302046D02*
X199016D01*
X183849Y301692D02*
X199016D01*
X183787Y301338D02*
X199016D01*
X183659Y300983D02*
X199016D01*
X183453Y300629D02*
X199016D01*
X183135Y300275D02*
X199016D01*
X183071Y299920D02*
X199016D01*
X186835Y299566D02*
X199016D01*
X187275Y299212D02*
X199016D01*
X189159Y298857D02*
X199016D01*
X189548Y298503D02*
X199016D01*
X189902Y298149D02*
X199016D01*
X190257Y297794D02*
X199016D01*
X190611Y297440D02*
X199016D01*
X190965Y297086D02*
X199016D01*
X191320Y296731D02*
X199016D01*
X191674Y296377D02*
X199016D01*
X192028Y296023D02*
X199016D01*
X192383Y295668D02*
X199016D01*
X192737Y295314D02*
X199016D01*
X193091Y294960D02*
X199016D01*
X193446Y294605D02*
X199016D01*
X193800Y294251D02*
X199014D01*
X182161Y328267D02*
X198918D01*
X118740Y257401D02*
X198918D01*
X173405Y153936D02*
X198838D01*
X196989Y291062D02*
X198792D01*
X195196Y263070D02*
X198761D01*
X194154Y293897D02*
X198723D01*
X194940Y146141D02*
X198720D01*
X148425Y328621D02*
X198564D01*
X118740Y257755D02*
X198564D01*
X196635Y291416D02*
X198530D01*
X194509Y293542D02*
X198485D01*
X173050Y153582D02*
X198483D01*
X118740Y263424D02*
X198406D01*
X192935Y221613D02*
X198404D01*
X194586Y145787D02*
X198365D01*
X196280Y291771D02*
X198362D01*
X194863Y293188D02*
X198334D01*
X189877Y238975D02*
X198312D01*
X195926Y292125D02*
X198265D01*
X195217Y292834D02*
X198251D01*
X195572Y292479D02*
X198229D01*
X189962Y242873D02*
X198227D01*
X148425Y328975D02*
X198210D01*
X118740Y258109D02*
X198210D01*
X193185Y225511D02*
X198154D01*
X172504Y153227D02*
X198129D01*
X118740Y263779D02*
X198052D01*
X194231Y145432D02*
X198011D01*
X148425Y329330D02*
X197855D01*
X118740Y258464D02*
X197855D01*
X193523Y221968D02*
X197816D01*
X160452Y152873D02*
X197775D01*
X190419Y239330D02*
X197770D01*
X190464Y242519D02*
X197725D01*
X137816Y264133D02*
X197698D01*
X193654Y225157D02*
X197685D01*
X193877Y145078D02*
X197657D01*
X148425Y329684D02*
X197501D01*
X118740Y258818D02*
X197501D01*
X159864Y152519D02*
X197420D01*
X138405Y264487D02*
X197343D01*
X193523Y144724D02*
X197302D01*
X148425Y330038D02*
X197147D01*
X195611Y259172D02*
X197147D01*
X103268Y152164D02*
X197066D01*
X193168Y144369D02*
X196948D01*
X148425Y330393D02*
X196792D01*
X196053Y259527D02*
X196792D01*
X103268Y151810D02*
X196712D01*
X192814Y144015D02*
X196594D01*
X194289Y330747D02*
X196438D01*
X103268Y151456D02*
X196357D01*
X192460Y143661D02*
X196239D01*
X194792Y331101D02*
X196084D01*
X103268Y151101D02*
X196003D01*
X194185Y280432D02*
X195896D01*
X192105Y143306D02*
X195885D01*
X103268Y150747D02*
X195649D01*
X194268Y280787D02*
X195532D01*
X191751Y142952D02*
X195531D01*
X103268Y150393D02*
X195294D01*
X194291Y281141D02*
X195178D01*
X191397Y142598D02*
X195176D01*
X103268Y150038D02*
X194940D01*
X194255Y281495D02*
X194824D01*
X191042Y142243D02*
X194822D01*
X103268Y149684D02*
X194586D01*
X190688Y141889D02*
X194468D01*
X103268Y149330D02*
X194231D01*
X190334Y141535D02*
X194113D01*
X103268Y148975D02*
X193877D01*
X118740Y263070D02*
X193780D01*
X189979Y141180D02*
X193759D01*
X191160Y107164D02*
X193682D01*
X191339Y112125D02*
X193679D01*
X103268Y148621D02*
X193523D01*
X189625Y140826D02*
X193405D01*
X118740Y259172D02*
X193365D01*
X103268Y148267D02*
X193168D01*
X118740Y262716D02*
X193137D01*
X191713Y107519D02*
X193129D01*
X191715Y111771D02*
X193127D01*
X189271Y140472D02*
X193050D01*
X118740Y259527D02*
X192924D01*
X103268Y147912D02*
X192814D01*
X148425Y341731D02*
X192797D01*
X118740Y262361D02*
X192785D01*
X192071Y107873D02*
X192772D01*
X192072Y111416D02*
X192770D01*
X192189Y283267D02*
X192766D01*
X191556Y283621D02*
X192698D01*
X188916Y140117D02*
X192696D01*
X118740Y259881D02*
X192649D01*
X118740Y262007D02*
X192559D01*
X118740Y260235D02*
X192471D01*
X103268Y147558D02*
X192460D01*
X118740Y261653D02*
X192416D01*
X118740Y260590D02*
X192367D01*
X191202Y283975D02*
X192343D01*
X188562Y139763D02*
X192342D01*
X118740Y261298D02*
X192340D01*
X148425Y330747D02*
X192325D01*
X118740Y260944D02*
X192324D01*
X148425Y341377D02*
X192256D01*
X103268Y147204D02*
X192105D01*
X191962Y283267D02*
X192063D01*
X190847Y284330D02*
X191989D01*
X188208Y139409D02*
X191987D01*
X148425Y341023D02*
X191939D01*
X148425Y338542D02*
X191877D01*
X148425Y331101D02*
X191822D01*
X103268Y146850D02*
X191751D01*
X148425Y340668D02*
X191733D01*
X148425Y338897D02*
X191717D01*
X190493Y284684D02*
X191635D01*
X187853Y139054D02*
X191633D01*
X148425Y340314D02*
X191607D01*
X148425Y339251D02*
X191597D01*
X148425Y339960D02*
X191544D01*
X148425Y339605D02*
X191541D01*
X148425Y333936D02*
X191533D01*
X148425Y331456D02*
X191519D01*
X103268Y146495D02*
X191397D01*
X148425Y333582D02*
X191340D01*
X148425Y331810D02*
X191323D01*
X152362Y221613D02*
X191317D01*
X190139Y285038D02*
X191280D01*
X187499Y138700D02*
X191279D01*
X148425Y338188D02*
X191222D01*
X148425Y333227D02*
X191213D01*
X148425Y332164D02*
X191203D01*
X148425Y332873D02*
X191151D01*
X148425Y332519D02*
X191148D01*
X148425Y334290D02*
X191144D01*
X152362Y225511D02*
X191067D01*
X103268Y146141D02*
X191042D01*
X189749Y285393D02*
X190926D01*
X187145Y138346D02*
X190924D01*
X152362Y221968D02*
X190729D01*
X103268Y145787D02*
X190688D01*
X148425Y337834D02*
X190682D01*
X148425Y334645D02*
X190641D01*
X152362Y225157D02*
X190598D01*
X164558Y285747D02*
X190572D01*
X186790Y137991D02*
X190570D01*
X152362Y222322D02*
X190394D01*
X148425Y337479D02*
X190364D01*
X148425Y334999D02*
X190338D01*
X103406Y145432D02*
X190334D01*
X152362Y224802D02*
X190311D01*
X164118Y286101D02*
X190217D01*
X186445Y137637D02*
X190216D01*
X152362Y222676D02*
X190178D01*
X148425Y337125D02*
X190159D01*
X148425Y335353D02*
X190142D01*
X152362Y224448D02*
X190124D01*
X152362Y223031D02*
X190043D01*
X148425Y336771D02*
X190032D01*
X148425Y335708D02*
X190022D01*
X152362Y224094D02*
X190013D01*
X103761Y145078D02*
X189979D01*
X152362Y223385D02*
X189974D01*
X148425Y336416D02*
X189969D01*
X148425Y336062D02*
X189966D01*
X152362Y223739D02*
X189964D01*
X189312Y281141D02*
X189961D01*
X89496Y286456D02*
X189863D01*
X186417Y137283D02*
X189861D01*
X188900Y281495D02*
X189784D01*
X137028Y271220D02*
X189743D01*
X104115Y144724D02*
X189625D01*
X89474Y286810D02*
X189509D01*
X186417Y136928D02*
X189507D01*
X139824Y275117D02*
X189492D01*
X147591Y281850D02*
X189430D01*
X104469Y144369D02*
X189271D01*
X89452Y287164D02*
X189154D01*
X136674Y271574D02*
X189154D01*
X186417Y136574D02*
X189153D01*
X163695Y282204D02*
X189076D01*
X140178Y274763D02*
X189023D01*
X104824Y144015D02*
X188917D01*
X186417Y136220D02*
X188829D01*
X89429Y287519D02*
X188800D01*
X186239Y107164D02*
X188761D01*
X164341Y282558D02*
X188721D01*
X186417Y135865D02*
X188652D01*
X138052Y276889D02*
X188641D01*
X186417Y135511D02*
X188585D01*
X186417Y135157D02*
X188583D01*
X186417Y134802D02*
X188583D01*
X186417Y134448D02*
X188583D01*
X186417Y134094D02*
X188583D01*
X186417Y133739D02*
X188583D01*
X186417Y133385D02*
X188583D01*
X186417Y133031D02*
X188583D01*
X186417Y132676D02*
X188583D01*
X186417Y132322D02*
X188583D01*
X186417Y131968D02*
X188583D01*
X186417Y131613D02*
X188583D01*
X186417Y131259D02*
X188583D01*
X186417Y130905D02*
X188583D01*
X186417Y130550D02*
X188583D01*
X186417Y130196D02*
X188583D01*
X186417Y129842D02*
X188583D01*
X186417Y129487D02*
X188583D01*
X186417Y129133D02*
X188583D01*
X186417Y128779D02*
X188583D01*
X186417Y128424D02*
X188583D01*
X186417Y128070D02*
X188583D01*
X186417Y127716D02*
X188583D01*
X186417Y127361D02*
X188583D01*
X186417Y127007D02*
X188583D01*
X186417Y126653D02*
X188583D01*
X186417Y126298D02*
X188583D01*
X186417Y125944D02*
X188583D01*
X186417Y125590D02*
X188583D01*
X186417Y125235D02*
X188583D01*
X186417Y124881D02*
X188583D01*
X186417Y124527D02*
X188583D01*
X186417Y124172D02*
X188583D01*
X186417Y123818D02*
X188583D01*
X186417Y123464D02*
X188583D01*
X186417Y123109D02*
X188583D01*
X186417Y122755D02*
X188583D01*
X186417Y122401D02*
X188583D01*
X186417Y122046D02*
X188583D01*
X186417Y121692D02*
X188583D01*
X186417Y121338D02*
X188583D01*
X186417Y120983D02*
X188583D01*
X186417Y120629D02*
X188583D01*
X186417Y120275D02*
X188583D01*
X186417Y119920D02*
X188583D01*
X186417Y119566D02*
X188583D01*
X186417Y119212D02*
X188583D01*
X186417Y118857D02*
X188583D01*
X186417Y118503D02*
X188583D01*
X186417Y118149D02*
X188583D01*
X186417Y117794D02*
X188583D01*
X186417Y117440D02*
X188583D01*
X186417Y117086D02*
X188583D01*
X186417Y116731D02*
X188583D01*
X186417Y116377D02*
X188583D01*
X186417Y116023D02*
X188583D01*
X186417Y115668D02*
X188583D01*
X186417Y115314D02*
X188583D01*
X186417Y114960D02*
X188583D01*
X186417Y114605D02*
X188583D01*
X186417Y114251D02*
X188583D01*
X186417Y113897D02*
X188583D01*
X186417Y113542D02*
X188583D01*
X186417Y113188D02*
X188583D01*
X186417Y112834D02*
X188583D01*
X186417Y112479D02*
X188583D01*
X186418Y112125D02*
X188582D01*
X105178Y143661D02*
X188562D01*
X89407Y287873D02*
X188446D01*
X186792Y107519D02*
X188208D01*
X105532Y143306D02*
X188208D01*
X186794Y111771D02*
X188206D01*
X137568Y277243D02*
X188199D01*
X89385Y288227D02*
X188092D01*
X161085Y238975D02*
X188076D01*
X181255Y242873D02*
X187991D01*
X102625Y277598D02*
X187924D01*
X105887Y142952D02*
X187854D01*
X187150Y107873D02*
X187850D01*
X187151Y111416D02*
X187849D01*
X102085Y277952D02*
X187747D01*
X89362Y288582D02*
X187737D01*
X146872Y278306D02*
X187642D01*
X147460Y278661D02*
X187600D01*
X177259Y239330D02*
X187534D01*
X106241Y142598D02*
X187499D01*
X181151Y242519D02*
X187489D01*
X89340Y288936D02*
X187383D01*
X177738Y239684D02*
X187216D01*
X180973Y242164D02*
X187187D01*
X106595Y142243D02*
X187145D01*
X89318Y289290D02*
X187029D01*
X178092Y240038D02*
X187010D01*
X180698Y241810D02*
X186991D01*
X178447Y240393D02*
X186883D01*
X180257Y241456D02*
X186872D01*
X178801Y240747D02*
X186820D01*
X179157Y241101D02*
X186817D01*
X106950Y141889D02*
X186791D01*
X89296Y289645D02*
X186674D01*
X153601Y170944D02*
X186645D01*
X107304Y141535D02*
X186436D01*
X89273Y289999D02*
X186320D01*
X153247Y170590D02*
X186161D01*
X107658Y141180D02*
X186082D01*
X89251Y290353D02*
X185966D01*
X152893Y170235D02*
X185806D01*
X108013Y140826D02*
X185728D01*
X89229Y290708D02*
X185611D01*
X152538Y169881D02*
X185452D01*
X108367Y140472D02*
X185373D01*
X89206Y291062D02*
X185257D01*
X152184Y169527D02*
X185098D01*
X108721Y140117D02*
X185019D01*
X151830Y169172D02*
X184743D01*
X109076Y139763D02*
X184665D01*
X183071Y299566D02*
X184583D01*
X151475Y168818D02*
X184389D01*
X109430Y139409D02*
X184310D01*
X183071Y299212D02*
X184142D01*
X151121Y168464D02*
X184035D01*
X109784Y139054D02*
X183967D01*
X183071Y298857D02*
X183868D01*
X181318Y107164D02*
X183840D01*
X110139Y138700D02*
X183760D01*
X183071Y298503D02*
X183691D01*
X150767Y168109D02*
X183680D01*
X110493Y138346D02*
X183670D01*
X110847Y137991D02*
X183661D01*
X111202Y137637D02*
X183661D01*
X111556Y137283D02*
X183661D01*
X111910Y136928D02*
X183661D01*
X112265Y136574D02*
X183661D01*
X112619Y136220D02*
X183661D01*
X112973Y135865D02*
X183661D01*
X113328Y135511D02*
X183661D01*
X113682Y135157D02*
X183661D01*
X114036Y134802D02*
X183661D01*
X114391Y134448D02*
X183661D01*
X114745Y134094D02*
X183661D01*
X115099Y133739D02*
X183661D01*
X115454Y133385D02*
X183661D01*
X115808Y133031D02*
X183661D01*
X116162Y132676D02*
X183661D01*
X116517Y132322D02*
X183661D01*
X116871Y131968D02*
X183661D01*
X117225Y131613D02*
X183661D01*
X117580Y131259D02*
X183661D01*
X117934Y130905D02*
X183661D01*
X118288Y130550D02*
X183661D01*
X118643Y130196D02*
X183661D01*
X118997Y129842D02*
X183661D01*
X119351Y129487D02*
X183661D01*
X119706Y129133D02*
X183661D01*
X120060Y128779D02*
X183661D01*
X120414Y128424D02*
X183661D01*
X120769Y128070D02*
X183661D01*
X121123Y127716D02*
X183661D01*
X121477Y127361D02*
X183661D01*
X121832Y127007D02*
X183661D01*
X122186Y126653D02*
X183661D01*
X122540Y126298D02*
X183661D01*
X122895Y125944D02*
X183661D01*
X123249Y125590D02*
X183661D01*
X123603Y125235D02*
X183661D01*
X123958Y124881D02*
X183661D01*
X124312Y124527D02*
X183661D01*
X157365Y124172D02*
X183661D01*
X157875Y123818D02*
X183661D01*
X158042Y123464D02*
X183661D01*
X158071Y123109D02*
X183661D01*
X158071Y122755D02*
X183661D01*
X158071Y122401D02*
X183661D01*
X158071Y122046D02*
X183661D01*
X158071Y121692D02*
X183661D01*
X158071Y121338D02*
X183661D01*
X158071Y120983D02*
X183661D01*
X158071Y120629D02*
X183661D01*
X158071Y120275D02*
X183661D01*
X158071Y119920D02*
X183661D01*
X158071Y119566D02*
X183661D01*
X158071Y119212D02*
X183661D01*
X158071Y118857D02*
X183661D01*
X158071Y118503D02*
X183661D01*
X158071Y118149D02*
X183661D01*
X158071Y117794D02*
X183661D01*
X158071Y117440D02*
X183661D01*
X158071Y117086D02*
X183661D01*
X158071Y116731D02*
X183661D01*
X158071Y116377D02*
X183661D01*
X158071Y116023D02*
X183661D01*
X158071Y115668D02*
X183661D01*
X158071Y115314D02*
X183661D01*
X158071Y114960D02*
X183661D01*
X158005Y114605D02*
X183661D01*
X157769Y114251D02*
X183661D01*
X130512Y113897D02*
X183661D01*
X130512Y113542D02*
X183661D01*
X130512Y113188D02*
X183661D01*
X130512Y112834D02*
X183661D01*
X130512Y112479D02*
X183661D01*
X181321Y112125D02*
X183661D01*
X183071Y298149D02*
X183587D01*
X183071Y297794D02*
X183545D01*
X150412Y167755D02*
X183326D01*
X181871Y107519D02*
X183287D01*
X181873Y111771D02*
X183285D01*
X150038Y167401D02*
X182972D01*
X182228Y107873D02*
X182929D01*
X182230Y111416D02*
X182928D01*
X143334Y167046D02*
X182617D01*
X142918Y166692D02*
X182263D01*
X103268Y166338D02*
X181909D01*
X89184Y291416D02*
X181694D01*
X103268Y165983D02*
X181554D01*
X89162Y291771D02*
X181320D01*
X103268Y165629D02*
X181200D01*
X89139Y292125D02*
X180966D01*
X103268Y165275D02*
X180846D01*
X89117Y292479D02*
X180611D01*
X103268Y164920D02*
X180491D01*
X89095Y292834D02*
X180257D01*
X103268Y164566D02*
X180137D01*
X148425Y328267D02*
X180044D01*
X89073Y293188D02*
X179903D01*
X103268Y164212D02*
X179783D01*
X148425Y327912D02*
X179575D01*
X89050Y293542D02*
X179548D01*
X103268Y163857D02*
X179428D01*
X148425Y327558D02*
X179287D01*
X89028Y293897D02*
X179194D01*
X148425Y327204D02*
X179101D01*
X103268Y163503D02*
X179074D01*
X176396Y107164D02*
X178919D01*
X176400Y112125D02*
X178915D01*
X89006Y294251D02*
X178840D01*
X148425Y326850D02*
X178838D01*
X103268Y163149D02*
X178720D01*
X88983Y294605D02*
X178485D01*
X160031Y326495D02*
X178483D01*
X147302Y245353D02*
X178426D01*
X176949Y107519D02*
X178366D01*
X103268Y162794D02*
X178365D01*
X176952Y111771D02*
X178363D01*
X88961Y294960D02*
X178131D01*
X160749Y326141D02*
X178129D01*
X146258Y307007D02*
X178032D01*
X103268Y162440D02*
X178011D01*
X177307Y107873D02*
X178008D01*
X177309Y111416D02*
X178006D01*
X146948Y244999D02*
X177783D01*
X88939Y295314D02*
X177777D01*
X103268Y162086D02*
X177657D01*
X88916Y295668D02*
X177515D01*
X146594Y244645D02*
X177431D01*
X88894Y296023D02*
X177390D01*
X146216Y306653D02*
X177389D01*
X145622Y303109D02*
X177362D01*
X145910Y302755D02*
X177362D01*
X146096Y302401D02*
X177362D01*
X146208Y302046D02*
X177362D01*
X146257Y301692D02*
X177362D01*
X146247Y301338D02*
X177362D01*
X146178Y300983D02*
X177362D01*
X146042Y300629D02*
X177362D01*
X145826Y300275D02*
X177362D01*
X145492Y299920D02*
X177362D01*
X144903Y299566D02*
X177362D01*
X88693Y299212D02*
X177362D01*
X88716Y298857D02*
X177362D01*
X88738Y298503D02*
X177362D01*
X88760Y298149D02*
X177362D01*
X88783Y297794D02*
X177362D01*
X88805Y297440D02*
X177362D01*
X88827Y297086D02*
X177362D01*
X88850Y296731D02*
X177362D01*
X88872Y296377D02*
X177362D01*
X103268Y161731D02*
X177302D01*
X146239Y244290D02*
X177205D01*
X145153Y303464D02*
X177176D01*
X145885Y243936D02*
X177062D01*
X146111Y306298D02*
X177037D01*
X145531Y243582D02*
X176986D01*
X103268Y161377D02*
X176948D01*
X129627Y303818D02*
X176901D01*
X145176Y243227D02*
X176827D01*
X145934Y305944D02*
X176811D01*
X129272Y304172D02*
X176723D01*
X145659Y305590D02*
X176668D01*
X128918Y304527D02*
X176619D01*
X103268Y161023D02*
X176594D01*
X145218Y305235D02*
X176592D01*
X128564Y304881D02*
X176576D01*
X144822Y242873D02*
X176473D01*
X103268Y160668D02*
X176239D01*
X144468Y242519D02*
X176118D01*
X103268Y160314D02*
X175885D01*
X103268Y159960D02*
X175531D01*
X103268Y159605D02*
X175176D01*
X103268Y159251D02*
X174822D01*
X103268Y158897D02*
X174468D01*
X103268Y158542D02*
X174113D01*
X171475Y107164D02*
X173997D01*
X171479Y112125D02*
X173994D01*
X148425Y370432D02*
X173910D01*
X103268Y158188D02*
X173759D01*
X172028Y107519D02*
X173444D01*
X172030Y111771D02*
X173442D01*
X103268Y157834D02*
X173405D01*
X148425Y358031D02*
X173390D01*
X148425Y349881D02*
X173285D01*
X172386Y107873D02*
X173087D01*
X172387Y111416D02*
X173085D01*
X103268Y157479D02*
X173050D01*
X148425Y370787D02*
X172743D01*
X103268Y157125D02*
X172696D01*
X148425Y357676D02*
X172618D01*
X148425Y350235D02*
X172555D01*
X103268Y156771D02*
X172342D01*
X148425Y357322D02*
X172102D01*
X148425Y371141D02*
X172076D01*
X148425Y350590D02*
X172055D01*
X160114Y156416D02*
X171987D01*
X148425Y356968D02*
X171710D01*
X148425Y350944D02*
X171673D01*
X160583Y156062D02*
X171633D01*
X148425Y371495D02*
X171581D01*
X148425Y356613D02*
X171398D01*
X148425Y351298D02*
X171369D01*
X148425Y371850D02*
X171187D01*
X148425Y356259D02*
X171147D01*
X148425Y351653D02*
X171124D01*
X148425Y355905D02*
X170945D01*
X148425Y352007D02*
X170926D01*
X148425Y372204D02*
X170864D01*
X148425Y355550D02*
X170784D01*
X148425Y352361D02*
X170769D01*
X148425Y355196D02*
X170659D01*
X148425Y352716D02*
X170648D01*
X148425Y372558D02*
X170595D01*
X148425Y354842D02*
X170568D01*
X148425Y353070D02*
X170560D01*
X148425Y354487D02*
X170508D01*
X148425Y353424D02*
X170503D01*
X148425Y354133D02*
X170477D01*
X148425Y353779D02*
X170475D01*
X148425Y372912D02*
X170370D01*
X148425Y373267D02*
X170183D01*
X148425Y373621D02*
X170030D01*
X148425Y373975D02*
X169907D01*
X148464Y374330D02*
X169796D01*
X148228Y107164D02*
X169076D01*
X130512Y112125D02*
X169072D01*
X145024Y194330D02*
X168871D01*
X144693Y194684D02*
X168837D01*
X148228Y107519D02*
X168523D01*
X130512Y111771D02*
X168521D01*
X144679Y195038D02*
X168482D01*
X148228Y107873D02*
X168165D01*
X130512Y111416D02*
X168164D01*
X144624Y195393D02*
X168128D01*
X148228Y108227D02*
X167913D01*
X130512Y111062D02*
X167912D01*
X144505Y195747D02*
X167774D01*
X148228Y108582D02*
X167733D01*
X130512Y110708D02*
X167733D01*
X148228Y108936D02*
X167613D01*
X147632Y110353D02*
X167612D01*
X148228Y109290D02*
X167543D01*
X148060Y109999D02*
X167542D01*
X148209Y109645D02*
X167520D01*
X144309Y196101D02*
X167419D01*
X144007Y196456D02*
X167065D01*
X143505Y196810D02*
X166711D01*
X103268Y197164D02*
X166356D01*
X103268Y197519D02*
X166002D01*
X103268Y197873D02*
X165648D01*
X103268Y198227D02*
X165293D01*
X103268Y198582D02*
X164939D01*
X103268Y198936D02*
X164585D01*
X103268Y199290D02*
X164230D01*
X103268Y199645D02*
X163876D01*
X103268Y199999D02*
X163522D01*
X103268Y200353D02*
X163167D01*
X103268Y200708D02*
X162813D01*
X103268Y201062D02*
X162459D01*
X152671Y282204D02*
X162289D01*
X103268Y201416D02*
X162104D01*
X153095Y286101D02*
X161866D01*
X103268Y201771D02*
X161750D01*
X153318Y282558D02*
X161643D01*
X153535Y285747D02*
X161426D01*
X103268Y202125D02*
X161396D01*
X153670Y282912D02*
X161291D01*
X153809Y285393D02*
X161152D01*
X153897Y283267D02*
X161064D01*
X103268Y202479D02*
X161041D01*
X153986Y285038D02*
X160975D01*
X154040Y283621D02*
X160921D01*
X154090Y284684D02*
X160870D01*
X154116Y283975D02*
X160844D01*
X154132Y284330D02*
X160828D01*
X103268Y202834D02*
X160687D01*
X103268Y203188D02*
X160333D01*
X103268Y203542D02*
X159978D01*
X144291Y242164D02*
X159942D01*
X103268Y203897D02*
X159624D01*
X144268Y241810D02*
X159465D01*
X103268Y204251D02*
X159270D01*
X144185Y241456D02*
X159111D01*
X103268Y204605D02*
X158915D01*
X148425Y326495D02*
X158867D01*
X144034Y241101D02*
X158756D01*
X103268Y204960D02*
X158561D01*
X143796Y240747D02*
X158402D01*
X103268Y185117D02*
X158347D01*
X148374Y322598D02*
X158263D01*
X103268Y152519D02*
X158247D01*
X103268Y205314D02*
X158207D01*
X148425Y326141D02*
X158148D01*
X143424Y240393D02*
X158048D01*
X103268Y156416D02*
X157996D01*
X103268Y205668D02*
X157852D01*
X148415Y322952D02*
X157847D01*
X148425Y325787D02*
X157778D01*
X103268Y184763D02*
X157704D01*
X142702Y240038D02*
X157693D01*
X103268Y181220D02*
X157677D01*
X103268Y180865D02*
X157677D01*
X103268Y180511D02*
X157677D01*
X103268Y180157D02*
X157677D01*
X103268Y179802D02*
X157677D01*
X103268Y179448D02*
X157677D01*
X103268Y179094D02*
X157677D01*
X103268Y152873D02*
X157658D01*
X148425Y323306D02*
X157586D01*
X148425Y325432D02*
X157540D01*
X103268Y156062D02*
X157527D01*
X103268Y178739D02*
X157499D01*
X103268Y206023D02*
X157498D01*
X103268Y181574D02*
X157491D01*
X148425Y323661D02*
X157417D01*
X148425Y325078D02*
X157389D01*
X103268Y184409D02*
X157352D01*
X103268Y239684D02*
X157339D01*
X103268Y153227D02*
X157323D01*
X148425Y324015D02*
X157320D01*
X148425Y324724D02*
X157306D01*
X148425Y324369D02*
X157284D01*
X103268Y155708D02*
X157240D01*
X103268Y181928D02*
X157216D01*
X103268Y178385D02*
X157145D01*
X103268Y206377D02*
X157144D01*
X103268Y184054D02*
X157126D01*
X103268Y153582D02*
X157107D01*
X103268Y155353D02*
X157053D01*
X103268Y182283D02*
X157038D01*
X103268Y239330D02*
X156985D01*
X103268Y183700D02*
X156983D01*
X103268Y153936D02*
X156972D01*
X103268Y154999D02*
X156942D01*
X103268Y182637D02*
X156934D01*
X103268Y183346D02*
X156907D01*
X103268Y154290D02*
X156903D01*
X103268Y154645D02*
X156893D01*
X103268Y182991D02*
X156891D01*
X103268Y178031D02*
X156791D01*
X103268Y206731D02*
X156789D01*
X103268Y238975D02*
X156630D01*
X103268Y177676D02*
X156436D01*
X103268Y207086D02*
X156435D01*
X103268Y238621D02*
X156276D01*
X103268Y177322D02*
X156082D01*
X103268Y207440D02*
X156081D01*
X103268Y238267D02*
X155922D01*
X103268Y176968D02*
X155728D01*
X103268Y207794D02*
X155727D01*
X103268Y237912D02*
X155567D01*
X103268Y176613D02*
X155373D01*
X103268Y208149D02*
X155372D01*
X103268Y237558D02*
X155213D01*
X103268Y176259D02*
X155019D01*
X103268Y208503D02*
X155018D01*
X103268Y237204D02*
X154859D01*
X103268Y175905D02*
X154665D01*
X103268Y208857D02*
X154664D01*
X103268Y236850D02*
X154504D01*
X103268Y175550D02*
X154310D01*
X103268Y209212D02*
X154309D01*
X103268Y236495D02*
X154150D01*
X103268Y175196D02*
X153956D01*
X103268Y209566D02*
X153955D01*
X103268Y236141D02*
X153796D01*
X103268Y174842D02*
X153602D01*
X103268Y209920D02*
X153601D01*
X103268Y235787D02*
X153441D01*
X103268Y174487D02*
X153247D01*
X103268Y210275D02*
X153246D01*
X103268Y235432D02*
X153087D01*
X103268Y174133D02*
X152893D01*
X103268Y210629D02*
X152892D01*
X103268Y235078D02*
X152733D01*
X103268Y173779D02*
X152539D01*
X103268Y210983D02*
X152538D01*
X103268Y234724D02*
X152378D01*
X103268Y173424D02*
X152184D01*
X103268Y211338D02*
X152183D01*
X103268Y234369D02*
X152024D01*
X103268Y173070D02*
X151830D01*
X103268Y211692D02*
X151829D01*
X103268Y234015D02*
X151670D01*
X103268Y172716D02*
X151476D01*
X103268Y212046D02*
X151475D01*
X103268Y233661D02*
X151315D01*
X147122Y282204D02*
X151266D01*
X103268Y172361D02*
X151121D01*
X103268Y212401D02*
X151120D01*
X103268Y233306D02*
X150961D01*
X118740Y252794D02*
X150933D01*
X121992Y286101D02*
X150842D01*
X103268Y172007D02*
X150767D01*
X103268Y212755D02*
X150765D01*
X122215Y282558D02*
X150619D01*
X103268Y232952D02*
X150607D01*
X118740Y252440D02*
X150491D01*
X103268Y171653D02*
X150413D01*
X122432Y285747D02*
X150402D01*
X103268Y232598D02*
X150252D01*
X118740Y252086D02*
X150137D01*
X103268Y171298D02*
X150058D01*
X103268Y232243D02*
X149898D01*
X118742Y251731D02*
X149783D01*
X124666Y124172D02*
X149721D01*
X103268Y170944D02*
X149704D01*
X103268Y213109D02*
X149664D01*
X103268Y231889D02*
X149557D01*
X119033Y251377D02*
X149428D01*
X142314Y170590D02*
X149350D01*
X103268Y231535D02*
X149344D01*
X143609Y114251D02*
X149318D01*
X103268Y231180D02*
X149237D01*
X103268Y213464D02*
X149223D01*
X103268Y230826D02*
X149213D01*
X103268Y230472D02*
X149213D01*
X103268Y230117D02*
X149213D01*
X103268Y229763D02*
X149213D01*
X103268Y229409D02*
X149213D01*
X103268Y229054D02*
X149213D01*
X103268Y228700D02*
X149213D01*
X103268Y228346D02*
X149213D01*
X103268Y227991D02*
X149213D01*
X103268Y227637D02*
X149213D01*
X103268Y227283D02*
X149213D01*
X103268Y226928D02*
X149213D01*
X103268Y226574D02*
X149213D01*
X103268Y226220D02*
X149213D01*
X103268Y225865D02*
X149213D01*
X103268Y225511D02*
X149213D01*
X103268Y225157D02*
X149213D01*
X103268Y224802D02*
X149213D01*
X103268Y224448D02*
X149213D01*
X103268Y224094D02*
X149213D01*
X103268Y223739D02*
X149213D01*
X103268Y223385D02*
X149213D01*
X103268Y223031D02*
X149213D01*
X103268Y222676D02*
X149213D01*
X103268Y222322D02*
X149213D01*
X103268Y221968D02*
X149213D01*
X103268Y221613D02*
X149213D01*
X103268Y221259D02*
X149213D01*
X103268Y220905D02*
X149213D01*
X103268Y220550D02*
X149213D01*
X103268Y220196D02*
X149213D01*
X103268Y219842D02*
X149213D01*
X103268Y219487D02*
X149213D01*
X103268Y219133D02*
X149213D01*
X103268Y218779D02*
X149213D01*
X103268Y218424D02*
X149213D01*
X103268Y218070D02*
X149213D01*
X103268Y217716D02*
X149213D01*
X103268Y217361D02*
X149213D01*
X103268Y217007D02*
X149213D01*
X103268Y216653D02*
X149213D01*
X125021Y123818D02*
X149212D01*
X103268Y216298D02*
X149085D01*
X144506Y114605D02*
X149082D01*
X119271Y251023D02*
X149074D01*
X125375Y123464D02*
X149044D01*
X125729Y123109D02*
X149016D01*
X126083Y122755D02*
X149016D01*
X126438Y122401D02*
X149016D01*
X126792Y122046D02*
X149016D01*
X127146Y121692D02*
X149016D01*
X127501Y121338D02*
X149016D01*
X127855Y120983D02*
X149016D01*
X128209Y120629D02*
X149016D01*
X144012Y120275D02*
X149016D01*
X144695Y119920D02*
X149016D01*
X145124Y119566D02*
X149016D01*
X145434Y119212D02*
X149016D01*
X145664Y118857D02*
X149016D01*
X145834Y118503D02*
X149016D01*
X145953Y118149D02*
X149016D01*
X146028Y117794D02*
X149016D01*
X146061Y117440D02*
X149016D01*
X146054Y117086D02*
X149016D01*
X146007Y116731D02*
X149016D01*
X145918Y116377D02*
X149016D01*
X145782Y116023D02*
X149016D01*
X145594Y115668D02*
X149016D01*
X145339Y115314D02*
X149016D01*
X144996Y114960D02*
X149016D01*
X143033Y170235D02*
X148995D01*
X103268Y213818D02*
X148948D01*
X103268Y215944D02*
X148858D01*
X103268Y214172D02*
X148771D01*
X119422Y250668D02*
X148720D01*
X103268Y215590D02*
X148715D01*
X103268Y214527D02*
X148666D01*
X103268Y215235D02*
X148640D01*
X103268Y214881D02*
X148623D01*
X119505Y250314D02*
X148365D01*
X119527Y249960D02*
X148011D01*
X119491Y249605D02*
X147657D01*
X119394Y249251D02*
X147302D01*
X119225Y248897D02*
X146948D01*
X118964Y248542D02*
X146594D01*
X118548Y248188D02*
X146239D01*
X103268Y247834D02*
X145885D01*
X103268Y247479D02*
X145531D01*
X100848Y278306D02*
X145254D01*
X103268Y247125D02*
X145176D01*
X121569Y282204D02*
X145004D01*
X103268Y246771D02*
X144822D01*
X101082Y278661D02*
X144666D01*
X89786Y281850D02*
X144535D01*
X103268Y246416D02*
X144468D01*
X103268Y246062D02*
X144113D01*
X103268Y245708D02*
X143759D01*
X103268Y191850D02*
X143612D01*
X103268Y245353D02*
X143405D01*
X142000Y309133D02*
X143386D01*
X88671Y299566D02*
X143286D01*
X103268Y192204D02*
X143249D01*
X103268Y244999D02*
X143050D01*
X129981Y303464D02*
X143036D01*
X128209Y305235D02*
X142971D01*
X103268Y192558D02*
X142895D01*
X129391Y308779D02*
X142743D01*
X88649Y299920D02*
X142697D01*
X103268Y244645D02*
X142696D01*
X130335Y303109D02*
X142567D01*
X127855Y305590D02*
X142530D01*
X142189Y244290D02*
X142290D01*
X130512Y114251D02*
X142217D01*
X103268Y244290D02*
X142063D01*
X128564Y120275D02*
X141815D01*
X103268Y192912D02*
X141619D01*
X103268Y240038D02*
X141550D01*
X103268Y196810D02*
X141534D01*
X130512Y114605D02*
X141321D01*
X103268Y170590D02*
X141150D01*
X128918Y119920D02*
X141132D01*
X103268Y193267D02*
X141077D01*
X103268Y196456D02*
X141033D01*
X103268Y243936D02*
X140938D01*
X130512Y114960D02*
X140831D01*
X103268Y240393D02*
X140828D01*
X103268Y193621D02*
X140759D01*
X103268Y196101D02*
X140730D01*
X129272Y119566D02*
X140702D01*
X103268Y193975D02*
X140553D01*
X103268Y166692D02*
X140547D01*
X103268Y195747D02*
X140535D01*
X103268Y243582D02*
X140523D01*
X130512Y115314D02*
X140487D01*
X103268Y240747D02*
X140456D01*
X103268Y170235D02*
X140432D01*
X103268Y194330D02*
X140426D01*
X103268Y195393D02*
X140415D01*
X129627Y119212D02*
X140393D01*
X103268Y194684D02*
X140363D01*
X103268Y195038D02*
X140360D01*
X103268Y243227D02*
X140262D01*
X130512Y115668D02*
X140233D01*
X103268Y241101D02*
X140218D01*
X129981Y118857D02*
X140163D01*
X129863Y313031D02*
X140132D01*
X103268Y167046D02*
X140131D01*
X103268Y242873D02*
X140094D01*
X103268Y241456D02*
X140067D01*
X103268Y169881D02*
X140061D01*
X130512Y116023D02*
X140045D01*
X103268Y242519D02*
X139997D01*
X130292Y118503D02*
X139993D01*
X103268Y241810D02*
X139984D01*
X103268Y242164D02*
X139961D01*
X130512Y116377D02*
X139909D01*
X129036Y309133D02*
X139889D01*
X130455Y118149D02*
X139874D01*
X103268Y167401D02*
X139869D01*
X103268Y169527D02*
X139824D01*
X130512Y116731D02*
X139820D01*
X130511Y117794D02*
X139799D01*
X130512Y117086D02*
X139773D01*
X135034Y110353D02*
X139770D01*
X130512Y117440D02*
X139766D01*
X103268Y167755D02*
X139701D01*
X103268Y169172D02*
X139673D01*
X103268Y168109D02*
X139603D01*
X103268Y168818D02*
X139590D01*
X103268Y168464D02*
X139567D01*
X130217Y312676D02*
X139546D01*
X128682Y309487D02*
X139419D01*
X135401Y102912D02*
X139402D01*
X135462Y109999D02*
X139341D01*
X136320Y271928D02*
X139307D01*
X135590Y103267D02*
X139213D01*
X135610Y109645D02*
X139193D01*
X135630Y109290D02*
X139173D01*
X135630Y108936D02*
X139173D01*
X135630Y108582D02*
X139173D01*
X135630Y108227D02*
X139173D01*
X135630Y107873D02*
X139173D01*
X135630Y107519D02*
X139173D01*
X135630Y107164D02*
X139173D01*
X135630Y106810D02*
X139173D01*
X135630Y106456D02*
X139173D01*
X135630Y106101D02*
X139173D01*
X135630Y105747D02*
X139173D01*
X135630Y105393D02*
X139173D01*
X135630Y105038D02*
X139173D01*
X135630Y104684D02*
X139173D01*
X135630Y104330D02*
X139173D01*
X135630Y103975D02*
X139173D01*
X135630Y103621D02*
X139173D01*
X135965Y272283D02*
X138761D01*
X135611Y272637D02*
X138406D01*
X135257Y272991D02*
X138052D01*
X134902Y273346D02*
X137698D01*
X134548Y273700D02*
X137343D01*
X134106Y274054D02*
X136989D01*
X133279Y274409D02*
X136635D01*
X118740Y264133D02*
X136199D01*
X119065Y268385D02*
X135660D01*
X119291Y268031D02*
X135660D01*
X118740Y264487D02*
X135611D01*
X118713Y268739D02*
X135611D01*
X119434Y267676D02*
X135480D01*
X118740Y264842D02*
X135276D01*
X118070Y269094D02*
X135257D01*
X119510Y267322D02*
X135192D01*
X118740Y265196D02*
X135060D01*
X119526Y266968D02*
X135006D01*
X118927Y265550D02*
X134925D01*
X103268Y269448D02*
X134903D01*
X119484Y266613D02*
X134894D01*
X119202Y265905D02*
X134856D01*
X119379Y266259D02*
X134846D01*
X103263Y269802D02*
X134548D01*
X103185Y270157D02*
X134194D01*
X102993Y270511D02*
X133840D01*
X132003Y270865D02*
X133485D01*
X132545Y271220D02*
X133131D01*
X102658Y270865D02*
X130202D01*
X102304Y271220D02*
X129660D01*
X102666Y274409D02*
X129538D01*
X88627Y300275D02*
X129465D01*
X101950Y271574D02*
X129342D01*
X102163Y274054D02*
X129313D01*
X128328Y309842D02*
X129213D01*
X101595Y271928D02*
X129136D01*
X99824Y273700D02*
X129117D01*
X101241Y272283D02*
X129009D01*
X100178Y273346D02*
X128998D01*
X100887Y272637D02*
X128946D01*
X100532Y272991D02*
X128943D01*
X88604Y300629D02*
X128918D01*
X127973Y310196D02*
X128800D01*
X88582Y300983D02*
X128564D01*
X127619Y310550D02*
X128446D01*
X127501Y305944D02*
X128364D01*
X88560Y301338D02*
X128210D01*
X127265Y310905D02*
X128092D01*
X127146Y306298D02*
X127973D01*
X88537Y301692D02*
X127855D01*
X122432Y117086D02*
X127756D01*
X122385Y116731D02*
X127756D01*
X122296Y116377D02*
X127756D01*
X122160Y116023D02*
X127756D01*
X121971Y115668D02*
X127756D01*
X121717Y115314D02*
X127756D01*
X121374Y114960D02*
X127756D01*
X120884Y114605D02*
X127756D01*
X119987Y114251D02*
X127756D01*
X105157Y113897D02*
X127756D01*
X105118Y113542D02*
X127756D01*
X105118Y113188D02*
X127756D01*
X105118Y112834D02*
X127756D01*
X105118Y112479D02*
X127756D01*
X105118Y112125D02*
X127756D01*
X105118Y111771D02*
X127756D01*
X105118Y111416D02*
X127756D01*
X105118Y111062D02*
X127756D01*
X105118Y110708D02*
X127756D01*
X126910Y311259D02*
X127737D01*
X126792Y306653D02*
X127619D01*
X88515Y302046D02*
X127501D01*
X122439Y117440D02*
X127501D01*
X126556Y311613D02*
X127383D01*
X126438Y307007D02*
X127265D01*
X122435Y110353D02*
X127171D01*
X88493Y302401D02*
X127147D01*
X122405Y117794D02*
X127147D01*
X126202Y311968D02*
X127029D01*
X126083Y307361D02*
X126910D01*
X122803Y102912D02*
X126803D01*
X88470Y302755D02*
X126792D01*
X122331Y118149D02*
X126792D01*
X122863Y109999D02*
X126743D01*
X125847Y312322D02*
X126674D01*
X122992Y103267D02*
X126614D01*
X123012Y109645D02*
X126594D01*
X123032Y109290D02*
X126575D01*
X123032Y108936D02*
X126575D01*
X123032Y108582D02*
X126575D01*
X123032Y108227D02*
X126575D01*
X123032Y107873D02*
X126575D01*
X123032Y107519D02*
X126575D01*
X123032Y107164D02*
X126575D01*
X123032Y106810D02*
X126575D01*
X123032Y106456D02*
X126575D01*
X123032Y106101D02*
X126575D01*
X123032Y105747D02*
X126575D01*
X123032Y105393D02*
X126575D01*
X123032Y105038D02*
X126575D01*
X123032Y104684D02*
X126575D01*
X123032Y104330D02*
X126575D01*
X123032Y103975D02*
X126575D01*
X123032Y103621D02*
X126575D01*
X125729Y307716D02*
X126556D01*
X88448Y303109D02*
X126438D01*
X122211Y118503D02*
X126438D01*
X125493Y312676D02*
X126320D01*
X125375Y308070D02*
X126202D01*
X88426Y303464D02*
X126084D01*
X122042Y118857D02*
X126084D01*
X125139Y313031D02*
X125966D01*
X125021Y308424D02*
X125847D01*
X88404Y303818D02*
X125729D01*
X121812Y119212D02*
X125729D01*
X124784Y313385D02*
X125611D01*
X124666Y308779D02*
X125493D01*
X123485Y319409D02*
X125424D01*
X88381Y304172D02*
X125375D01*
X121502Y119566D02*
X125375D01*
X124430Y313739D02*
X125257D01*
X124312Y309133D02*
X125139D01*
X88359Y304527D02*
X125021D01*
X121073Y119920D02*
X125021D01*
X124076Y314094D02*
X124903D01*
X123958Y309487D02*
X124784D01*
X88337Y304881D02*
X124666D01*
X120390Y120275D02*
X124666D01*
X123721Y314448D02*
X124548D01*
X123131Y319763D02*
X124510D01*
X123603Y309842D02*
X124430D01*
X88314Y305235D02*
X124312D01*
X113189Y120629D02*
X124312D01*
X123367Y314802D02*
X124194D01*
X123249Y310196D02*
X124076D01*
X122776Y320117D02*
X123965D01*
X88292Y305590D02*
X123958D01*
X113189Y120983D02*
X123958D01*
X123013Y315157D02*
X123840D01*
X122895Y310550D02*
X123721D01*
X88270Y305944D02*
X123603D01*
X113189Y121338D02*
X123603D01*
X122422Y320472D02*
X123567D01*
X122658Y315511D02*
X123485D01*
X122540Y310905D02*
X123367D01*
X122068Y320826D02*
X123259D01*
X88247Y306298D02*
X123249D01*
X113189Y121692D02*
X123249D01*
X122304Y315865D02*
X123131D01*
X121713Y321180D02*
X123016D01*
X122186Y311259D02*
X123013D01*
X88225Y306653D02*
X122895D01*
X113189Y122046D02*
X122895D01*
X121359Y321535D02*
X122824D01*
X121950Y316220D02*
X122777D01*
X121005Y321889D02*
X122676D01*
X121832Y311613D02*
X122658D01*
X120650Y322243D02*
X122566D01*
X88203Y307007D02*
X122540D01*
X113189Y122401D02*
X122540D01*
X120296Y322598D02*
X122492D01*
X119942Y322952D02*
X122451D01*
X88001Y373975D02*
X122441D01*
X87276Y373621D02*
X122441D01*
X86732Y373267D02*
X122441D01*
X86294Y372912D02*
X122441D01*
X85929Y372558D02*
X122441D01*
X93604Y372204D02*
X122441D01*
X94415Y371850D02*
X122441D01*
X94962Y371495D02*
X122441D01*
X95381Y371141D02*
X122441D01*
X95717Y370787D02*
X122441D01*
X95992Y370432D02*
X122441D01*
X96218Y370078D02*
X122441D01*
X96403Y369724D02*
X122441D01*
X96552Y369369D02*
X122441D01*
X96669Y369015D02*
X122441D01*
X96755Y368661D02*
X122441D01*
X96813Y368306D02*
X122441D01*
X96845Y367952D02*
X122441D01*
X96849Y367598D02*
X122441D01*
X96827Y367243D02*
X122441D01*
X96777Y366889D02*
X122441D01*
X96700Y366535D02*
X122441D01*
X96594Y366180D02*
X122441D01*
X96456Y365826D02*
X122441D01*
X96283Y365472D02*
X122441D01*
X96071Y365117D02*
X122441D01*
X95813Y364763D02*
X122441D01*
X95499Y364409D02*
X122441D01*
X95111Y364054D02*
X122441D01*
X94613Y363700D02*
X122441D01*
X93919Y363346D02*
X122441D01*
X84662Y362991D02*
X122441D01*
X84685Y362637D02*
X122441D01*
X84707Y362283D02*
X122441D01*
X84730Y361928D02*
X122441D01*
X84753Y361574D02*
X122441D01*
X84776Y361220D02*
X122441D01*
X84799Y360865D02*
X122441D01*
X84822Y360511D02*
X122441D01*
X84845Y360157D02*
X122441D01*
X84868Y359802D02*
X122441D01*
X84891Y359448D02*
X122441D01*
X84913Y359094D02*
X122441D01*
X84936Y358739D02*
X122441D01*
X84959Y358385D02*
X122441D01*
X84982Y358031D02*
X122441D01*
X85005Y357676D02*
X122441D01*
X85028Y357322D02*
X122441D01*
X85051Y356968D02*
X122441D01*
X85074Y356613D02*
X122441D01*
X85097Y356259D02*
X122441D01*
X85119Y355905D02*
X122441D01*
X85142Y355550D02*
X122441D01*
X85165Y355196D02*
X122441D01*
X85188Y354842D02*
X122441D01*
X85211Y354487D02*
X122441D01*
X85234Y354133D02*
X122441D01*
X85257Y353779D02*
X122441D01*
X85280Y353424D02*
X122441D01*
X85303Y353070D02*
X122441D01*
X85326Y352716D02*
X122441D01*
X85348Y352361D02*
X122441D01*
X85371Y352007D02*
X122441D01*
X85394Y351653D02*
X122441D01*
X85417Y351298D02*
X122441D01*
X85440Y350944D02*
X122441D01*
X85463Y350590D02*
X122441D01*
X85486Y350235D02*
X122441D01*
X85509Y349881D02*
X122441D01*
X85532Y349527D02*
X122441D01*
X85554Y349172D02*
X122441D01*
X85577Y348818D02*
X122441D01*
X85600Y348464D02*
X122441D01*
X85623Y348109D02*
X122441D01*
X85646Y347755D02*
X122441D01*
X85669Y347401D02*
X122441D01*
X85692Y347046D02*
X122441D01*
X85715Y346692D02*
X122441D01*
X85748Y346338D02*
X122441D01*
X85748Y345983D02*
X122441D01*
X103210Y345629D02*
X122441D01*
X103712Y345275D02*
X122441D01*
X104014Y344920D02*
X122441D01*
X104209Y344566D02*
X122441D01*
X104329Y344212D02*
X122441D01*
X104384Y343857D02*
X122441D01*
X104390Y343503D02*
X122441D01*
X104390Y343149D02*
X122441D01*
X104390Y342794D02*
X122441D01*
X104390Y342440D02*
X122441D01*
X104390Y342086D02*
X122441D01*
X104390Y341731D02*
X122441D01*
X104390Y341377D02*
X122441D01*
X104390Y341023D02*
X122441D01*
X104390Y340668D02*
X122441D01*
X104390Y340314D02*
X122441D01*
X104390Y339960D02*
X122441D01*
X104390Y339605D02*
X122441D01*
X104390Y339251D02*
X122441D01*
X104390Y338897D02*
X122441D01*
X104390Y338542D02*
X122441D01*
X104390Y338188D02*
X122441D01*
X104390Y337834D02*
X122441D01*
X104390Y337479D02*
X122441D01*
X104390Y337125D02*
X122441D01*
X104390Y336771D02*
X122441D01*
X104381Y336416D02*
X122441D01*
X104318Y336062D02*
X122441D01*
X104191Y335708D02*
X122441D01*
X103985Y335353D02*
X122441D01*
X103667Y334999D02*
X122441D01*
X103125Y334645D02*
X122441D01*
X83976Y334290D02*
X122441D01*
X83976Y333936D02*
X122441D01*
X83976Y333582D02*
X122441D01*
X83976Y333227D02*
X122441D01*
X110299Y332873D02*
X122441D01*
X111425Y332519D02*
X122441D01*
X111839Y332164D02*
X122441D01*
X112101Y331810D02*
X122441D01*
X112269Y331456D02*
X122441D01*
X112366Y331101D02*
X122441D01*
X112401Y330747D02*
X122441D01*
X112501Y330393D02*
X122441D01*
X112855Y330038D02*
X122441D01*
X113209Y329684D02*
X122441D01*
X113564Y329330D02*
X122441D01*
X113918Y328975D02*
X122441D01*
X114272Y328621D02*
X122441D01*
X114627Y328267D02*
X122441D01*
X114981Y327912D02*
X122441D01*
X115335Y327558D02*
X122441D01*
X115690Y327204D02*
X122441D01*
X116044Y326850D02*
X122441D01*
X116398Y326495D02*
X122441D01*
X116753Y326141D02*
X122441D01*
X117107Y325787D02*
X122441D01*
X117461Y325432D02*
X122441D01*
X117816Y325078D02*
X122441D01*
X118170Y324724D02*
X122441D01*
X118524Y324369D02*
X122441D01*
X118879Y324015D02*
X122441D01*
X119233Y323661D02*
X122441D01*
X119587Y323306D02*
X122441D01*
X121595Y316574D02*
X122422D01*
X89257Y374330D02*
X122402D01*
X121477Y311968D02*
X122304D01*
X88181Y307361D02*
X122186D01*
X113189Y122755D02*
X122186D01*
X121241Y316928D02*
X122068D01*
X121123Y312322D02*
X121950D01*
X88158Y307716D02*
X121832D01*
X113189Y123109D02*
X121832D01*
X120887Y317283D02*
X121714D01*
X120769Y312676D02*
X121595D01*
X88136Y308070D02*
X121477D01*
X113160Y123464D02*
X121477D01*
X120532Y317637D02*
X121359D01*
X120414Y313031D02*
X121241D01*
X88114Y308424D02*
X121123D01*
X112993Y123818D02*
X121123D01*
X120178Y317991D02*
X121005D01*
X120060Y313385D02*
X120887D01*
X88091Y308779D02*
X120769D01*
X112483Y124172D02*
X120769D01*
X119824Y318346D02*
X120651D01*
X119706Y313739D02*
X120532D01*
X88069Y309133D02*
X120414D01*
X105118Y124527D02*
X120414D01*
X119469Y318700D02*
X120296D01*
X119351Y314094D02*
X120178D01*
X89764Y282204D02*
X120163D01*
X88047Y309487D02*
X120060D01*
X105118Y124881D02*
X120060D01*
X119115Y319054D02*
X119942D01*
X118997Y314448D02*
X119824D01*
X89519Y286101D02*
X119740D01*
X88023Y309842D02*
X119706D01*
X105118Y125235D02*
X119706D01*
X118761Y319409D02*
X119588D01*
X89742Y282558D02*
X119517D01*
X118643Y314802D02*
X119469D01*
X87995Y310196D02*
X119351D01*
X105118Y125590D02*
X119351D01*
X89541Y285747D02*
X119300D01*
X118406Y319763D02*
X119233D01*
X89719Y282912D02*
X119165D01*
X118288Y315157D02*
X119115D01*
X89563Y285393D02*
X119026D01*
X87966Y310550D02*
X118997D01*
X105118Y125944D02*
X118997D01*
X89697Y283267D02*
X118938D01*
X118052Y320117D02*
X118879D01*
X89585Y285038D02*
X118849D01*
X89675Y283621D02*
X118795D01*
X117934Y315511D02*
X118761D01*
X89608Y284684D02*
X118744D01*
X89652Y283975D02*
X118718D01*
X89630Y284330D02*
X118702D01*
X102800Y310905D02*
X118643D01*
X105118Y126298D02*
X118643D01*
X112887Y114251D02*
X118595D01*
X117698Y320472D02*
X118525D01*
X117580Y315865D02*
X118406D01*
X103522Y311259D02*
X118288D01*
X105118Y126653D02*
X118288D01*
X113189Y120275D02*
X118193D01*
X117343Y320826D02*
X118170D01*
X117225Y316220D02*
X118052D01*
X103894Y311613D02*
X117934D01*
X105118Y127007D02*
X117934D01*
X116989Y321180D02*
X117816D01*
X113123Y114605D02*
X117699D01*
X116871Y316574D02*
X117698D01*
X104132Y311968D02*
X117580D01*
X105118Y127361D02*
X117580D01*
X113189Y119920D02*
X117510D01*
X116635Y321535D02*
X117462D01*
X116517Y316928D02*
X117343D01*
X104283Y312322D02*
X117225D01*
X105118Y127716D02*
X117225D01*
X113189Y114960D02*
X117209D01*
X116280Y321889D02*
X117107D01*
X113189Y119566D02*
X117080D01*
X116162Y317283D02*
X116989D01*
X104367Y312676D02*
X116871D01*
X105118Y128070D02*
X116871D01*
X113189Y115314D02*
X116865D01*
X113189Y119212D02*
X116771D01*
X115926Y322243D02*
X116753D01*
X103268Y269094D02*
X116654D01*
X115808Y317637D02*
X116635D01*
X113189Y115668D02*
X116611D01*
X113189Y118857D02*
X116541D01*
X104390Y313031D02*
X116517D01*
X105118Y128424D02*
X116517D01*
X113189Y116023D02*
X116423D01*
X115572Y322598D02*
X116399D01*
X113189Y118503D02*
X116371D01*
X113189Y116377D02*
X116287D01*
X115454Y317991D02*
X116280D01*
X113189Y118149D02*
X116252D01*
X113189Y116731D02*
X116198D01*
X113189Y117794D02*
X116177D01*
X103268Y248188D02*
X116177D01*
X104390Y313385D02*
X116162D01*
X105118Y128779D02*
X116162D01*
X113189Y117086D02*
X116151D01*
X113189Y117440D02*
X116144D01*
X115217Y322952D02*
X116044D01*
X103268Y268739D02*
X116011D01*
X103268Y265196D02*
X115984D01*
X103268Y264842D02*
X115984D01*
X103268Y264487D02*
X115984D01*
X103268Y264133D02*
X115984D01*
X103268Y263779D02*
X115984D01*
X103268Y263424D02*
X115984D01*
X103268Y263070D02*
X115984D01*
X103268Y262716D02*
X115984D01*
X103268Y262361D02*
X115984D01*
X103268Y262007D02*
X115984D01*
X103268Y261653D02*
X115984D01*
X103268Y261298D02*
X115984D01*
X103268Y260944D02*
X115984D01*
X103268Y260590D02*
X115984D01*
X103268Y260235D02*
X115984D01*
X103268Y259881D02*
X115984D01*
X103268Y259527D02*
X115984D01*
X103268Y259172D02*
X115984D01*
X103268Y258818D02*
X115984D01*
X103268Y258464D02*
X115984D01*
X103268Y258109D02*
X115984D01*
X103268Y257755D02*
X115984D01*
X103268Y257401D02*
X115984D01*
X103268Y257046D02*
X115984D01*
X103268Y256692D02*
X115984D01*
X103268Y256338D02*
X115984D01*
X103268Y255983D02*
X115984D01*
X103268Y255629D02*
X115984D01*
X103268Y255275D02*
X115984D01*
X103268Y254920D02*
X115984D01*
X103268Y254566D02*
X115984D01*
X103268Y254212D02*
X115984D01*
X103268Y253857D02*
X115984D01*
X103268Y253503D02*
X115984D01*
X103268Y253149D02*
X115984D01*
X103268Y252794D02*
X115984D01*
X103268Y252440D02*
X115984D01*
X103268Y252086D02*
X115984D01*
X103268Y251731D02*
X115982D01*
X115099Y318346D02*
X115926D01*
X104390Y313739D02*
X115808D01*
X105118Y129133D02*
X115808D01*
X103268Y265550D02*
X115798D01*
X103268Y248542D02*
X115761D01*
X103268Y251377D02*
X115691D01*
X114863Y323306D02*
X115690D01*
X103268Y268385D02*
X115659D01*
X114745Y318700D02*
X115572D01*
X103268Y265905D02*
X115523D01*
X103268Y248897D02*
X115499D01*
X104390Y314094D02*
X115454D01*
X105118Y129487D02*
X115454D01*
X103268Y251023D02*
X115454D01*
X103268Y268031D02*
X115433D01*
X103268Y266259D02*
X115345D01*
X114509Y323661D02*
X115336D01*
X103268Y249251D02*
X115330D01*
X103268Y250668D02*
X115303D01*
X103268Y267676D02*
X115290D01*
X103268Y266613D02*
X115241D01*
X103268Y249605D02*
X115233D01*
X103268Y250314D02*
X115220D01*
X114391Y319054D02*
X115217D01*
X103268Y267322D02*
X115214D01*
X103268Y266968D02*
X115198D01*
X103268Y249960D02*
X115197D01*
X104390Y314448D02*
X115099D01*
X105102Y129842D02*
X115099D01*
X114154Y324015D02*
X114981D01*
X114036Y319409D02*
X114863D01*
X104390Y314802D02*
X114745D01*
X105046Y130196D02*
X114745D01*
X113800Y324369D02*
X114627D01*
X105118Y110353D02*
X114573D01*
X113682Y319763D02*
X114509D01*
X104390Y315157D02*
X114391D01*
X104947Y130550D02*
X114391D01*
X113446Y324724D02*
X114273D01*
X105118Y102912D02*
X114205D01*
X113328Y320117D02*
X114154D01*
X105118Y109999D02*
X114145D01*
X104390Y315511D02*
X114036D01*
X104801Y130905D02*
X114036D01*
X105118Y103267D02*
X114016D01*
X105118Y109645D02*
X113996D01*
X105118Y109290D02*
X113976D01*
X105118Y108936D02*
X113976D01*
X105118Y108582D02*
X113976D01*
X105118Y108227D02*
X113976D01*
X105118Y107873D02*
X113976D01*
X105118Y107519D02*
X113976D01*
X105118Y107164D02*
X113976D01*
X105118Y106810D02*
X113976D01*
X105118Y106456D02*
X113976D01*
X105118Y106101D02*
X113976D01*
X105118Y105747D02*
X113976D01*
X105118Y105393D02*
X113976D01*
X105118Y105038D02*
X113976D01*
X105118Y104684D02*
X113976D01*
X105118Y104330D02*
X113976D01*
X105118Y103975D02*
X113976D01*
X105118Y103621D02*
X113976D01*
X113091Y325078D02*
X113918D01*
X112973Y320472D02*
X113800D01*
X104390Y315865D02*
X113682D01*
X104600Y131259D02*
X113682D01*
X112737Y325432D02*
X113564D01*
X112619Y320826D02*
X113446D01*
X104390Y316220D02*
X113328D01*
X104329Y131613D02*
X113328D01*
X112383Y325787D02*
X113210D01*
X112265Y321180D02*
X113092D01*
X104390Y316574D02*
X112973D01*
X103960Y131968D02*
X112973D01*
X112028Y326141D02*
X112855D01*
X111910Y321535D02*
X112737D01*
X104390Y316928D02*
X112619D01*
X103422Y132322D02*
X112619D01*
X111674Y326495D02*
X112501D01*
X111556Y321889D02*
X112383D01*
X104390Y317283D02*
X112265D01*
X102044Y132676D02*
X112265D01*
X111320Y326850D02*
X112147D01*
X111202Y322243D02*
X112029D01*
X104390Y317637D02*
X111910D01*
X99126Y133031D02*
X111910D01*
X110965Y327204D02*
X111792D01*
X110847Y322598D02*
X111674D01*
X104390Y317991D02*
X111556D01*
X99104Y133385D02*
X111556D01*
X110611Y327558D02*
X111438D01*
X110493Y322952D02*
X111320D01*
X104390Y318346D02*
X111202D01*
X99081Y133739D02*
X111202D01*
X110257Y327912D02*
X111084D01*
X110139Y323306D02*
X110966D01*
X104390Y318700D02*
X110847D01*
X99059Y134094D02*
X110847D01*
X110038Y328267D02*
X110729D01*
X109784Y323661D02*
X110611D01*
X104390Y319054D02*
X110493D01*
X99037Y134448D02*
X110493D01*
X109430Y324015D02*
X110257D01*
X83976Y332873D02*
X110174D01*
X104390Y319409D02*
X110139D01*
X99014Y134802D02*
X110139D01*
X109076Y324369D02*
X109903D01*
X104390Y319763D02*
X109784D01*
X98992Y135157D02*
X109784D01*
X108721Y324724D02*
X109548D01*
X104389Y320117D02*
X109430D01*
X98970Y135511D02*
X109430D01*
X108367Y325078D02*
X109194D01*
X104354Y320472D02*
X109076D01*
X98948Y135865D02*
X109076D01*
X83976Y332519D02*
X109048D01*
X108013Y325432D02*
X108840D01*
X104257Y320826D02*
X108721D01*
X98925Y136220D02*
X108721D01*
X83976Y332164D02*
X108633D01*
X107685Y325787D02*
X108485D01*
X83976Y331810D02*
X108372D01*
X104089Y321180D02*
X108367D01*
X98903Y136574D02*
X108367D01*
X83976Y331456D02*
X108204D01*
X107755Y326141D02*
X108129D01*
X83976Y331101D02*
X108107D01*
X83976Y330747D02*
X108071D01*
X103827Y321535D02*
X108013D01*
X98881Y136928D02*
X108013D01*
X103413Y321889D02*
X107658D01*
X98859Y137283D02*
X107658D01*
X102287Y322243D02*
X107304D01*
X98836Y137637D02*
X107304D01*
X83976Y330393D02*
X107166D01*
X83976Y322598D02*
X106950D01*
X98814Y137991D02*
X106950D01*
X83976Y322952D02*
X106595D01*
X98792Y138346D02*
X106595D01*
X83976Y330038D02*
X106523D01*
X83976Y323306D02*
X106241D01*
X98770Y138700D02*
X106241D01*
X83976Y329684D02*
X106171D01*
X83976Y329330D02*
X105945D01*
X83976Y323661D02*
X105887D01*
X98747Y139054D02*
X105887D01*
X83976Y328975D02*
X105802D01*
X83976Y328621D02*
X105726D01*
X83976Y328267D02*
X105692D01*
X98725Y139409D02*
X105532D01*
X98703Y139763D02*
X105178D01*
X98681Y140117D02*
X104824D01*
X83976Y324015D02*
X104612D01*
X83976Y327912D02*
X104527D01*
X98658Y140472D02*
X104469D01*
X98636Y140826D02*
X104115D01*
X83976Y324369D02*
X104069D01*
X83976Y327558D02*
X104025D01*
X98614Y141180D02*
X103761D01*
X83976Y324724D02*
X103751D01*
X83976Y327204D02*
X103723D01*
X83976Y325078D02*
X103545D01*
X83976Y326850D02*
X103527D01*
X83976Y325432D02*
X103418D01*
X83976Y326495D02*
X103408D01*
X98592Y141535D02*
X103406D01*
X83976Y325787D02*
X103355D01*
X83976Y326141D02*
X103352D01*
X98569Y141889D02*
X103052D01*
X98547Y142243D02*
X102698D01*
X98525Y142598D02*
X102343D01*
X98503Y142952D02*
X101989D01*
X98480Y143306D02*
X101635D01*
X98458Y143661D02*
X101280D01*
X98436Y144015D02*
X100926D01*
X98414Y144369D02*
X100665D01*
X98391Y144724D02*
X100540D01*
X90611Y268739D02*
X100512D01*
X90633Y268385D02*
X100512D01*
X90656Y268031D02*
X100512D01*
X90678Y267676D02*
X100512D01*
X90700Y267322D02*
X100512D01*
X90723Y266968D02*
X100512D01*
X90745Y266613D02*
X100512D01*
X90767Y266259D02*
X100512D01*
X90790Y265905D02*
X100512D01*
X90812Y265550D02*
X100512D01*
X90834Y265196D02*
X100512D01*
X90856Y264842D02*
X100512D01*
X90879Y264487D02*
X100512D01*
X90901Y264133D02*
X100512D01*
X90923Y263779D02*
X100512D01*
X90946Y263424D02*
X100512D01*
X90968Y263070D02*
X100512D01*
X90990Y262716D02*
X100512D01*
X91013Y262361D02*
X100512D01*
X91035Y262007D02*
X100512D01*
X91057Y261653D02*
X100512D01*
X91079Y261298D02*
X100512D01*
X91102Y260944D02*
X100512D01*
X91124Y260590D02*
X100512D01*
X91146Y260235D02*
X100512D01*
X91169Y259881D02*
X100512D01*
X91191Y259527D02*
X100512D01*
X91213Y259172D02*
X100512D01*
X91238Y258818D02*
X100512D01*
X93343Y258464D02*
X100512D01*
X94026Y258109D02*
X100512D01*
X94455Y257755D02*
X100512D01*
X94765Y257401D02*
X100512D01*
X94995Y257046D02*
X100512D01*
X95164Y256692D02*
X100512D01*
X95284Y256338D02*
X100512D01*
X95358Y255983D02*
X100512D01*
X95393Y255629D02*
X100512D01*
X95415Y255275D02*
X100512D01*
X95437Y254920D02*
X100512D01*
X95459Y254566D02*
X100512D01*
X95481Y254212D02*
X100512D01*
X95503Y253857D02*
X100512D01*
X95524Y253503D02*
X100512D01*
X95546Y253149D02*
X100512D01*
X95568Y252794D02*
X100512D01*
X95590Y252440D02*
X100512D01*
X95612Y252086D02*
X100512D01*
X95634Y251731D02*
X100512D01*
X95656Y251377D02*
X100512D01*
X95678Y251023D02*
X100512D01*
X95700Y250668D02*
X100512D01*
X95722Y250314D02*
X100512D01*
X95744Y249960D02*
X100512D01*
X95766Y249605D02*
X100512D01*
X95788Y249251D02*
X100512D01*
X95810Y248897D02*
X100512D01*
X95832Y248542D02*
X100512D01*
X95854Y248188D02*
X100512D01*
X95876Y247834D02*
X100512D01*
X95898Y247479D02*
X100512D01*
X95920Y247125D02*
X100512D01*
X95942Y246771D02*
X100512D01*
X95964Y246416D02*
X100512D01*
X95986Y246062D02*
X100512D01*
X96008Y245708D02*
X100512D01*
X96030Y245353D02*
X100512D01*
X96052Y244999D02*
X100512D01*
X96074Y244645D02*
X100512D01*
X96096Y244290D02*
X100512D01*
X96118Y243936D02*
X100512D01*
X96140Y243582D02*
X100512D01*
X96162Y243227D02*
X100512D01*
X96184Y242873D02*
X100512D01*
X96205Y242519D02*
X100512D01*
X96227Y242164D02*
X100512D01*
X96249Y241810D02*
X100512D01*
X96271Y241456D02*
X100512D01*
X96293Y241101D02*
X100512D01*
X96315Y240747D02*
X100512D01*
X96337Y240393D02*
X100512D01*
X96359Y240038D02*
X100512D01*
X96381Y239684D02*
X100512D01*
X96403Y239330D02*
X100512D01*
X96425Y238975D02*
X100512D01*
X96447Y238621D02*
X100512D01*
X96469Y238267D02*
X100512D01*
X96491Y237912D02*
X100512D01*
X96513Y237558D02*
X100512D01*
X96535Y237204D02*
X100512D01*
X96557Y236850D02*
X100512D01*
X96579Y236495D02*
X100512D01*
X96601Y236141D02*
X100512D01*
X96623Y235787D02*
X100512D01*
X96645Y235432D02*
X100512D01*
X96667Y235078D02*
X100512D01*
X96689Y234724D02*
X100512D01*
X96711Y234369D02*
X100512D01*
X96733Y234015D02*
X100512D01*
X96755Y233661D02*
X100512D01*
X96777Y233306D02*
X100512D01*
X96799Y232952D02*
X100512D01*
X96821Y232598D02*
X100512D01*
X96843Y232243D02*
X100512D01*
X96865Y231889D02*
X100512D01*
X96887Y231535D02*
X100512D01*
X96908Y231180D02*
X100512D01*
X96930Y230826D02*
X100512D01*
X96952Y230472D02*
X100512D01*
X96974Y230117D02*
X100512D01*
X96996Y229763D02*
X100512D01*
X97018Y229409D02*
X100512D01*
X97040Y229054D02*
X100512D01*
X97062Y228700D02*
X100512D01*
X97084Y228346D02*
X100512D01*
X97106Y227991D02*
X100512D01*
X97128Y227637D02*
X100512D01*
X97150Y227283D02*
X100512D01*
X97172Y226928D02*
X100512D01*
X97194Y226574D02*
X100512D01*
X97216Y226220D02*
X100512D01*
X97238Y225865D02*
X100512D01*
X97260Y225511D02*
X100512D01*
X97282Y225157D02*
X100512D01*
X97304Y224802D02*
X100512D01*
X97326Y224448D02*
X100512D01*
X97348Y224094D02*
X100512D01*
X97370Y223739D02*
X100512D01*
X97392Y223385D02*
X100512D01*
X97414Y223031D02*
X100512D01*
X97436Y222676D02*
X100512D01*
X97458Y222322D02*
X100512D01*
X97480Y221968D02*
X100512D01*
X97502Y221613D02*
X100512D01*
X97524Y221259D02*
X100512D01*
X97546Y220905D02*
X100512D01*
X97568Y220550D02*
X100512D01*
X97589Y220196D02*
X100512D01*
X97582Y219842D02*
X100512D01*
X97535Y219487D02*
X100512D01*
X97445Y219133D02*
X100512D01*
X97310Y218779D02*
X100512D01*
X97121Y218424D02*
X100512D01*
X96867Y218070D02*
X100512D01*
X96523Y217716D02*
X100512D01*
X96034Y217361D02*
X100512D01*
X95137Y217007D02*
X100512D01*
X93873Y216653D02*
X100512D01*
X93896Y216298D02*
X100512D01*
X93918Y215944D02*
X100512D01*
X93940Y215590D02*
X100512D01*
X93962Y215235D02*
X100512D01*
X93985Y214881D02*
X100512D01*
X94007Y214527D02*
X100512D01*
X94029Y214172D02*
X100512D01*
X94051Y213818D02*
X100512D01*
X94074Y213464D02*
X100512D01*
X94096Y213109D02*
X100512D01*
X94118Y212755D02*
X100512D01*
X94140Y212401D02*
X100512D01*
X94163Y212046D02*
X100512D01*
X94185Y211692D02*
X100512D01*
X94207Y211338D02*
X100512D01*
X94230Y210983D02*
X100512D01*
X94252Y210629D02*
X100512D01*
X94274Y210275D02*
X100512D01*
X94296Y209920D02*
X100512D01*
X94319Y209566D02*
X100512D01*
X94341Y209212D02*
X100512D01*
X94363Y208857D02*
X100512D01*
X94385Y208503D02*
X100512D01*
X94408Y208149D02*
X100512D01*
X94430Y207794D02*
X100512D01*
X94452Y207440D02*
X100512D01*
X94474Y207086D02*
X100512D01*
X94497Y206731D02*
X100512D01*
X94519Y206377D02*
X100512D01*
X94541Y206023D02*
X100512D01*
X94563Y205668D02*
X100512D01*
X94586Y205314D02*
X100512D01*
X94608Y204960D02*
X100512D01*
X94630Y204605D02*
X100512D01*
X94652Y204251D02*
X100512D01*
X94675Y203897D02*
X100512D01*
X94697Y203542D02*
X100512D01*
X94719Y203188D02*
X100512D01*
X94741Y202834D02*
X100512D01*
X94764Y202479D02*
X100512D01*
X94786Y202125D02*
X100512D01*
X94808Y201771D02*
X100512D01*
X94830Y201416D02*
X100512D01*
X94853Y201062D02*
X100512D01*
X94875Y200708D02*
X100512D01*
X94897Y200353D02*
X100512D01*
X94919Y199999D02*
X100512D01*
X94942Y199645D02*
X100512D01*
X94964Y199290D02*
X100512D01*
X94986Y198936D02*
X100512D01*
X95008Y198582D02*
X100512D01*
X95031Y198227D02*
X100512D01*
X95053Y197873D02*
X100512D01*
X95075Y197519D02*
X100512D01*
X95097Y197164D02*
X100512D01*
X95120Y196810D02*
X100512D01*
X95142Y196456D02*
X100512D01*
X95164Y196101D02*
X100512D01*
X95187Y195747D02*
X100512D01*
X95209Y195393D02*
X100512D01*
X95231Y195038D02*
X100512D01*
X95253Y194684D02*
X100512D01*
X95276Y194330D02*
X100512D01*
X95298Y193975D02*
X100512D01*
X95320Y193621D02*
X100512D01*
X95342Y193267D02*
X100512D01*
X95365Y192912D02*
X100512D01*
X95387Y192558D02*
X100512D01*
X95409Y192204D02*
X100512D01*
X95431Y191850D02*
X100512D01*
X95454Y191495D02*
X100512D01*
X95476Y191141D02*
X100512D01*
X95498Y190787D02*
X100512D01*
X95520Y190432D02*
X100512D01*
X95543Y190078D02*
X100512D01*
X95565Y189724D02*
X100512D01*
X95587Y189369D02*
X100512D01*
X95609Y189015D02*
X100512D01*
X95632Y188661D02*
X100512D01*
X95654Y188306D02*
X100512D01*
X95676Y187952D02*
X100512D01*
X95698Y187598D02*
X100512D01*
X95721Y187243D02*
X100512D01*
X95743Y186889D02*
X100512D01*
X95765Y186535D02*
X100512D01*
X95787Y186180D02*
X100512D01*
X95810Y185826D02*
X100512D01*
X95832Y185472D02*
X100512D01*
X95854Y185117D02*
X100512D01*
X95876Y184763D02*
X100512D01*
X95899Y184409D02*
X100512D01*
X95921Y184054D02*
X100512D01*
X95943Y183700D02*
X100512D01*
X95965Y183346D02*
X100512D01*
X95988Y182991D02*
X100512D01*
X96010Y182637D02*
X100512D01*
X96032Y182283D02*
X100512D01*
X96054Y181928D02*
X100512D01*
X96077Y181574D02*
X100512D01*
X96099Y181220D02*
X100512D01*
X96121Y180865D02*
X100512D01*
X96144Y180511D02*
X100512D01*
X96166Y180157D02*
X100512D01*
X96188Y179802D02*
X100512D01*
X96210Y179448D02*
X100512D01*
X96233Y179094D02*
X100512D01*
X96255Y178739D02*
X100512D01*
X96277Y178385D02*
X100512D01*
X96299Y178031D02*
X100512D01*
X96322Y177676D02*
X100512D01*
X96344Y177322D02*
X100512D01*
X96366Y176968D02*
X100512D01*
X96388Y176613D02*
X100512D01*
X96411Y176259D02*
X100512D01*
X96433Y175905D02*
X100512D01*
X96455Y175550D02*
X100512D01*
X96477Y175196D02*
X100512D01*
X96500Y174842D02*
X100512D01*
X96522Y174487D02*
X100512D01*
X96544Y174133D02*
X100512D01*
X96566Y173779D02*
X100512D01*
X96589Y173424D02*
X100512D01*
X96611Y173070D02*
X100512D01*
X96633Y172716D02*
X100512D01*
X96655Y172361D02*
X100512D01*
X96678Y172007D02*
X100512D01*
X96700Y171653D02*
X100512D01*
X96722Y171298D02*
X100512D01*
X96744Y170944D02*
X100512D01*
X96767Y170590D02*
X100512D01*
X96789Y170235D02*
X100512D01*
X96811Y169881D02*
X100512D01*
X96833Y169527D02*
X100512D01*
X96856Y169172D02*
X100512D01*
X96878Y168818D02*
X100512D01*
X96900Y168464D02*
X100512D01*
X96922Y168109D02*
X100512D01*
X96945Y167755D02*
X100512D01*
X96967Y167401D02*
X100512D01*
X96989Y167046D02*
X100512D01*
X97011Y166692D02*
X100512D01*
X97034Y166338D02*
X100512D01*
X97056Y165983D02*
X100512D01*
X97078Y165629D02*
X100512D01*
X97101Y165275D02*
X100512D01*
X97123Y164920D02*
X100512D01*
X97145Y164566D02*
X100512D01*
X97167Y164212D02*
X100512D01*
X97190Y163857D02*
X100512D01*
X97212Y163503D02*
X100512D01*
X97234Y163149D02*
X100512D01*
X97256Y162794D02*
X100512D01*
X97279Y162440D02*
X100512D01*
X97301Y162086D02*
X100512D01*
X97323Y161731D02*
X100512D01*
X97345Y161377D02*
X100512D01*
X97368Y161023D02*
X100512D01*
X97390Y160668D02*
X100512D01*
X97412Y160314D02*
X100512D01*
X97434Y159960D02*
X100512D01*
X97457Y159605D02*
X100512D01*
X97479Y159251D02*
X100512D01*
X97501Y158897D02*
X100512D01*
X97523Y158542D02*
X100512D01*
X97546Y158188D02*
X100512D01*
X97568Y157834D02*
X100512D01*
X97590Y157479D02*
X100512D01*
X97612Y157125D02*
X100512D01*
X97635Y156771D02*
X100512D01*
X97657Y156416D02*
X100512D01*
X97679Y156062D02*
X100512D01*
X97701Y155708D02*
X100512D01*
X97724Y155353D02*
X100512D01*
X97746Y154999D02*
X100512D01*
X97768Y154645D02*
X100512D01*
X97790Y154290D02*
X100512D01*
X97813Y153936D02*
X100512D01*
X97835Y153582D02*
X100512D01*
X97857Y153227D02*
X100512D01*
X97879Y152873D02*
X100512D01*
X97902Y152519D02*
X100512D01*
X97924Y152164D02*
X100512D01*
X97946Y151810D02*
X100512D01*
X97968Y151456D02*
X100512D01*
X97991Y151101D02*
X100512D01*
X98013Y150747D02*
X100512D01*
X98035Y150393D02*
X100512D01*
X98057Y150038D02*
X100512D01*
X98080Y149684D02*
X100512D01*
X98102Y149330D02*
X100512D01*
X98124Y148975D02*
X100512D01*
X98147Y148621D02*
X100512D01*
X98169Y148267D02*
X100512D01*
X98191Y147912D02*
X100512D01*
X98213Y147558D02*
X100512D01*
X98236Y147204D02*
X100512D01*
X98258Y146850D02*
X100512D01*
X98280Y146495D02*
X100512D01*
X98302Y146141D02*
X100512D01*
X98325Y145787D02*
X100512D01*
X98347Y145432D02*
X100512D01*
X98369Y145078D02*
X100512D01*
X90589Y269094D02*
X100502D01*
X99469Y274054D02*
X100199D01*
X90567Y269448D02*
X100178D01*
X89808Y281495D02*
X100076D01*
X90544Y269802D02*
X99824D01*
X83976Y322243D02*
X99799D01*
X99115Y274409D02*
X99696D01*
X89831Y281141D02*
X99665D01*
X90522Y270157D02*
X99469D01*
X99035Y274763D02*
X99393D01*
X89853Y280787D02*
X99310D01*
X87937Y310905D02*
X99287D01*
X90500Y270511D02*
X99115D01*
X83976Y334645D02*
X98962D01*
X89875Y280432D02*
X98956D01*
X85748Y345629D02*
X98877D01*
X90477Y270865D02*
X98761D01*
X83976Y321889D02*
X98674D01*
X89898Y280078D02*
X98602D01*
X87913Y311259D02*
X98564D01*
X83976Y334999D02*
X98420D01*
X90455Y271220D02*
X98406D01*
X85748Y345275D02*
X98375D01*
X83976Y321535D02*
X98259D01*
X89920Y279724D02*
X98247D01*
X87905Y311613D02*
X98193D01*
X83976Y335353D02*
X98102D01*
X85748Y344920D02*
X98073D01*
X90433Y271574D02*
X98052D01*
X83976Y321180D02*
X97998D01*
X87848Y311968D02*
X97955D01*
X93584Y335708D02*
X97896D01*
X89942Y279369D02*
X97893D01*
X85738Y344566D02*
X97877D01*
X93985Y320826D02*
X97830D01*
X87733Y312322D02*
X97803D01*
X94345Y336062D02*
X97768D01*
X85669Y344212D02*
X97758D01*
X94581Y320472D02*
X97733D01*
X87550Y312676D02*
X97720D01*
X94823Y336416D02*
X97706D01*
X85527Y343857D02*
X97702D01*
X90410Y271928D02*
X97698D01*
X94992Y320117D02*
X97697D01*
X85291Y343503D02*
X97697D01*
X84905Y343149D02*
X97697D01*
X84058Y342794D02*
X97697D01*
X93589Y342440D02*
X97697D01*
X94348Y342086D02*
X97697D01*
X94825Y341731D02*
X97697D01*
X95174Y341377D02*
X97697D01*
X95440Y341023D02*
X97697D01*
X95645Y340668D02*
X97697D01*
X95800Y340314D02*
X97697D01*
X95911Y339960D02*
X97697D01*
X95984Y339605D02*
X97697D01*
X96019Y339251D02*
X97697D01*
X96019Y338897D02*
X97697D01*
X95983Y338542D02*
X97697D01*
X95911Y338188D02*
X97697D01*
X95799Y337834D02*
X97697D01*
X95644Y337479D02*
X97697D01*
X95439Y337125D02*
X97697D01*
X95172Y336771D02*
X97697D01*
X95301Y319763D02*
X97697D01*
X95538Y319409D02*
X97697D01*
X95720Y319054D02*
X97697D01*
X95854Y318700D02*
X97697D01*
X95948Y318346D02*
X97697D01*
X96004Y317991D02*
X97697D01*
X96024Y317637D02*
X97697D01*
X96008Y317283D02*
X97697D01*
X95956Y316928D02*
X97697D01*
X95866Y316574D02*
X97697D01*
X95736Y316220D02*
X97697D01*
X95560Y315865D02*
X97697D01*
X95329Y315511D02*
X97697D01*
X95029Y315157D02*
X97697D01*
X94631Y314802D02*
X97697D01*
X94063Y314448D02*
X97697D01*
X92845Y314094D02*
X97697D01*
X85986Y313739D02*
X97697D01*
X86858Y313385D02*
X97697D01*
X87277Y313031D02*
X97697D01*
X89964Y279015D02*
X97539D01*
X90388Y272283D02*
X97343D01*
X89987Y278661D02*
X97184D01*
X90366Y272637D02*
X96989D01*
X90009Y278306D02*
X96830D01*
X90344Y272991D02*
X96636D01*
X90031Y277952D02*
X96506D01*
X90321Y273346D02*
X96393D01*
X90054Y277598D02*
X96329D01*
X90299Y273700D02*
X96280D01*
X90076Y277243D02*
X96262D01*
X90098Y276889D02*
X96260D01*
X90121Y276535D02*
X96260D01*
X90143Y276180D02*
X96260D01*
X90165Y275826D02*
X96260D01*
X90187Y275472D02*
X96260D01*
X90210Y275117D02*
X96260D01*
X90232Y274763D02*
X96260D01*
X90254Y274409D02*
X96260D01*
X90277Y274054D02*
X96260D01*
X85620Y372204D02*
X90648D01*
X84639Y363346D02*
X90333D01*
X85357Y371850D02*
X89837D01*
X84616Y363700D02*
X89639D01*
X85131Y371495D02*
X89290D01*
X84593Y364054D02*
X89141D01*
X84939Y371141D02*
X88871D01*
X84570Y364409D02*
X88753D01*
X83976Y314094D02*
X88572D01*
X84777Y370787D02*
X88535D01*
X84547Y364763D02*
X88439D01*
X84641Y370432D02*
X88260D01*
X84524Y365117D02*
X88181D01*
X84531Y370078D02*
X88034D01*
X84501Y365472D02*
X87969D01*
X84445Y369724D02*
X87849D01*
X83976Y335708D02*
X87833D01*
X83976Y342440D02*
X87828D01*
X84478Y365826D02*
X87796D01*
X84381Y369369D02*
X87700D01*
X84456Y366180D02*
X87658D01*
X84340Y369015D02*
X87583D01*
X84433Y366535D02*
X87552D01*
X84320Y368661D02*
X87497D01*
X84410Y366889D02*
X87475D01*
X84321Y368306D02*
X87438D01*
X83976Y320826D02*
X87432D01*
X84387Y367243D02*
X87425D01*
X84341Y367952D02*
X87407D01*
X84364Y367598D02*
X87403D01*
X83976Y314448D02*
X87354D01*
X83976Y336062D02*
X87072D01*
X83976Y342086D02*
X87069D01*
X83976Y320472D02*
X86836D01*
X83976Y314802D02*
X86786D01*
X83976Y336416D02*
X86594D01*
X83976Y341731D02*
X86592D01*
X83976Y320117D02*
X86425D01*
X83976Y315157D02*
X86388D01*
X83976Y336771D02*
X86245D01*
X83976Y341377D02*
X86244D01*
X83976Y319763D02*
X86117D01*
X83976Y315511D02*
X86088D01*
X83976Y337125D02*
X85978D01*
X83976Y341023D02*
X85977D01*
X83976Y319409D02*
X85879D01*
X83976Y315865D02*
X85858D01*
X83976Y337479D02*
X85773D01*
X83976Y340668D02*
X85772D01*
X83976Y319054D02*
X85698D01*
X83976Y316220D02*
X85681D01*
X83976Y337834D02*
X85618D01*
X83976Y340314D02*
X85617D01*
X83976Y318700D02*
X85563D01*
X83976Y316574D02*
X85551D01*
X83976Y338188D02*
X85506D01*
X83976Y339960D02*
X85506D01*
X83976Y318346D02*
X85469D01*
X83976Y316928D02*
X85461D01*
X83976Y338542D02*
X85434D01*
X83976Y339605D02*
X85434D01*
X83976Y317991D02*
X85413D01*
X83976Y317283D02*
X85410D01*
X83976Y338897D02*
X85398D01*
X83976Y339251D02*
X85398D01*
X83976Y317637D02*
X85394D01*
X208987Y249960D02*
X213060D01*
X209252Y246062D02*
X212795D01*
X209252Y245708D02*
X212795D01*
X209252Y245353D02*
X212795D01*
X209252Y244999D02*
X212795D01*
X209252Y244645D02*
X212795D01*
X209252Y244290D02*
X212795D01*
X209252Y243936D02*
X212795D01*
X209252Y243582D02*
X212795D01*
X209252Y243227D02*
X212795D01*
X209252Y242873D02*
X212795D01*
X209252Y242519D02*
X212795D01*
X209252Y242164D02*
X212795D01*
X209252Y241810D02*
X212795D01*
X209252Y241456D02*
X212795D01*
X209252Y241101D02*
X212795D01*
X209252Y240747D02*
X212795D01*
X209252Y240393D02*
X212795D01*
X209252Y240038D02*
X212795D01*
X209252Y239684D02*
X212795D01*
X209252Y239330D02*
X212795D01*
X209252Y238975D02*
X212795D01*
X209252Y238621D02*
X212795D01*
X209252Y238267D02*
X212795D01*
X209252Y237912D02*
X212795D01*
X209252Y237558D02*
X212795D01*
X209252Y237204D02*
X212795D01*
X209252Y236850D02*
X212795D01*
X209252Y236495D02*
X212795D01*
X209252Y236141D02*
X212795D01*
X209252Y235787D02*
X212795D01*
X209252Y235432D02*
X212795D01*
X209252Y235078D02*
X212795D01*
X209252Y234724D02*
X212795D01*
X209252Y234369D02*
X212795D01*
X209252Y234015D02*
X212795D01*
X209252Y233661D02*
X212795D01*
X209252Y233306D02*
X212795D01*
X209252Y232952D02*
X212795D01*
X209252Y232598D02*
X212795D01*
X209252Y232243D02*
X212795D01*
X209252Y231889D02*
X212795D01*
X209252Y231535D02*
X212795D01*
X209252Y231180D02*
X212795D01*
X209252Y230826D02*
X212795D01*
X209252Y230472D02*
X212795D01*
X209252Y230117D02*
X212795D01*
X209252Y229763D02*
X212795D01*
X209252Y229409D02*
X212795D01*
X209252Y229054D02*
X212795D01*
X209252Y228700D02*
X212795D01*
X209252Y228346D02*
X212795D01*
X209252Y227991D02*
X212795D01*
X209252Y227637D02*
X212795D01*
X209252Y227283D02*
X212795D01*
X209252Y226928D02*
X212795D01*
X209252Y226574D02*
X212795D01*
X209252Y226220D02*
X212795D01*
X209252Y225865D02*
X212795D01*
X209252Y225511D02*
X212795D01*
X209252Y225157D02*
X212795D01*
X209252Y224802D02*
X212795D01*
X209252Y224448D02*
X212795D01*
X209252Y224094D02*
X212795D01*
X209252Y223739D02*
X212795D01*
X209252Y223385D02*
X212795D01*
X209252Y223031D02*
X212795D01*
X209252Y222676D02*
X212795D01*
X209252Y222322D02*
X212795D01*
X209252Y221968D02*
X212795D01*
X209252Y221613D02*
X212795D01*
X209252Y221259D02*
X212795D01*
X209252Y220905D02*
X212795D01*
X209252Y220550D02*
X212795D01*
X209252Y220196D02*
X212795D01*
X209252Y219842D02*
X212795D01*
X209252Y219487D02*
X212795D01*
X209252Y219133D02*
X212795D01*
X209252Y218779D02*
X212795D01*
X209252Y218424D02*
X212795D01*
X209252Y218070D02*
X212795D01*
X209252Y217716D02*
X212795D01*
X209252Y217361D02*
X212795D01*
X209252Y217007D02*
X212795D01*
X209252Y216653D02*
X212795D01*
X209252Y216298D02*
X212795D01*
X209252Y215944D02*
X212795D01*
X209252Y215590D02*
X212795D01*
X209252Y215235D02*
X212795D01*
X209250Y214881D02*
X212795D01*
X209182Y214527D02*
X212795D01*
X209004Y214172D02*
X212795D01*
X208680Y213818D02*
X212795D01*
X208326Y213464D02*
X212795D01*
X207971Y213109D02*
X212735D01*
X209316Y246416D02*
X212731D01*
X209361Y249605D02*
X212686D01*
X209635Y246771D02*
X212413D01*
X209663Y249251D02*
X212384D01*
X207617Y212755D02*
X212381D01*
X209841Y247125D02*
X212207D01*
X209859Y248897D02*
X212188D01*
X209968Y247479D02*
X212079D01*
X209978Y248542D02*
X212069D01*
X207263Y212401D02*
X212027D01*
X210030Y247834D02*
X212017D01*
X210034Y248188D02*
X212014D01*
X206908Y212046D02*
X211672D01*
X206554Y211692D02*
X211318D01*
X206200Y211338D02*
X210964D01*
X205846Y210983D02*
X210609D01*
X205491Y210629D02*
X210255D01*
X205137Y210275D02*
X209901D01*
X204783Y209920D02*
X209546D01*
X204428Y209566D02*
X209192D01*
X204074Y209212D02*
X208838D01*
X203720Y208857D02*
X208483D01*
X203365Y208503D02*
X208129D01*
X203011Y208149D02*
X207775D01*
X202953Y207794D02*
X207479D01*
X202953Y207440D02*
X207330D01*
X202953Y207086D02*
X207283D01*
X202953Y206731D02*
X207283D01*
X202953Y206377D02*
X207283D01*
X202953Y206023D02*
X207283D01*
X202953Y205668D02*
X207283D01*
X202953Y205314D02*
X207283D01*
X202953Y204960D02*
X207283D01*
X202953Y204605D02*
X207283D01*
X202953Y204251D02*
X207283D01*
X202953Y203897D02*
X207283D01*
X202953Y203542D02*
X207283D01*
X202953Y203188D02*
X207283D01*
X202953Y202834D02*
X207283D01*
X202953Y202479D02*
X207283D01*
X202953Y202125D02*
X207283D01*
X202953Y201771D02*
X207283D01*
X202953Y201416D02*
X207283D01*
X202953Y201062D02*
X207283D01*
X202953Y200708D02*
X207283D01*
X202953Y200353D02*
X207283D01*
X202953Y199999D02*
X207283D01*
X202953Y199645D02*
X207283D01*
X202953Y199290D02*
X207283D01*
X202953Y198936D02*
X207283D01*
X202955Y198582D02*
X207281D01*
X203246Y198227D02*
X206990D01*
X203483Y197873D02*
X206753D01*
X203634Y197519D02*
X206602D01*
X203704Y196456D02*
X206532D01*
X203717Y197164D02*
X206519D01*
X203740Y196810D02*
X206496D01*
X203745Y196101D02*
X206491D01*
X215962Y249251D02*
X239764D01*
X216158Y248897D02*
X239764D01*
X216277Y248542D02*
X239764D01*
X216333Y248188D02*
X239764D01*
X216330Y247834D02*
X239764D01*
X216267Y247479D02*
X239764D01*
X216140Y247125D02*
X239764D01*
X218382Y246771D02*
X239764D01*
X218851Y246416D02*
X239764D01*
X219138Y246062D02*
X239764D01*
X219325Y245708D02*
X239764D01*
X219436Y245353D02*
X239764D01*
X219485Y244999D02*
X239764D01*
X219475Y244645D02*
X239764D01*
X219406Y244290D02*
X239764D01*
X219271Y243936D02*
X239764D01*
X219054Y243582D02*
X239764D01*
X218732Y243227D02*
X239764D01*
X218701Y242873D02*
X239764D01*
X218701Y242519D02*
X239764D01*
X218701Y242164D02*
X239764D01*
X218701Y241810D02*
X239764D01*
X218701Y241456D02*
X239764D01*
X218701Y241101D02*
X239764D01*
X218701Y240747D02*
X239764D01*
X218701Y240393D02*
X239764D01*
X218701Y240038D02*
X239764D01*
X218701Y239684D02*
X239764D01*
X218701Y239330D02*
X239764D01*
X218701Y238975D02*
X239764D01*
X218701Y238621D02*
X239764D01*
X218701Y238267D02*
X239764D01*
X218701Y237912D02*
X239764D01*
X218701Y237558D02*
X239764D01*
X218701Y237204D02*
X239764D01*
X218701Y236850D02*
X239764D01*
X218701Y236495D02*
X239764D01*
X218701Y236141D02*
X239764D01*
X218701Y235787D02*
X239764D01*
X218701Y235432D02*
X239764D01*
X218701Y235078D02*
X239764D01*
X218701Y234724D02*
X239764D01*
X218701Y234369D02*
X239764D01*
X218701Y234015D02*
X239764D01*
X218701Y233661D02*
X239764D01*
X218701Y233306D02*
X239764D01*
X218701Y232952D02*
X239764D01*
X218701Y232598D02*
X239764D01*
X218701Y232243D02*
X239764D01*
X218701Y231889D02*
X239764D01*
X218701Y231535D02*
X239764D01*
X218701Y231180D02*
X239764D01*
X218701Y230826D02*
X239764D01*
X218701Y230472D02*
X239764D01*
X218701Y230117D02*
X239764D01*
X218701Y229763D02*
X239764D01*
X218701Y229409D02*
X239764D01*
X218701Y229054D02*
X239764D01*
X218701Y228700D02*
X239764D01*
X218701Y228346D02*
X239764D01*
X218701Y227991D02*
X239764D01*
X218701Y227637D02*
X239764D01*
X218701Y227283D02*
X239764D01*
X218701Y226928D02*
X239764D01*
X218701Y226574D02*
X239764D01*
X218701Y226220D02*
X239764D01*
X218701Y225865D02*
X239764D01*
X218701Y225511D02*
X239764D01*
X218701Y225157D02*
X239764D01*
X218701Y224802D02*
X239764D01*
X218701Y224448D02*
X239764D01*
X218701Y224094D02*
X239764D01*
X218701Y223739D02*
X239764D01*
X218701Y223385D02*
X239764D01*
X218701Y223031D02*
X239764D01*
X218701Y222676D02*
X239764D01*
X218701Y222322D02*
X239764D01*
X218701Y221968D02*
X239764D01*
X218701Y221613D02*
X239764D01*
X218701Y221259D02*
X239764D01*
X218701Y220905D02*
X239764D01*
X218701Y220550D02*
X239764D01*
X218701Y220196D02*
X239764D01*
X218701Y219842D02*
X239764D01*
X218701Y219487D02*
X239764D01*
X218701Y219133D02*
X239764D01*
X218701Y218779D02*
X239764D01*
X218701Y218424D02*
X239764D01*
X218701Y218070D02*
X239764D01*
X218701Y217716D02*
X239764D01*
X218701Y217361D02*
X239764D01*
X218701Y217007D02*
X239764D01*
X218701Y216653D02*
X239764D01*
X218701Y216298D02*
X239764D01*
X218701Y215944D02*
X239764D01*
X218701Y215590D02*
X239764D01*
X218701Y215235D02*
X239764D01*
X218701Y214881D02*
X239764D01*
X218701Y214527D02*
X239764D01*
X218701Y214172D02*
X239764D01*
X218701Y213818D02*
X239764D01*
X218701Y213464D02*
X239764D01*
X218701Y213109D02*
X239764D01*
X218701Y212755D02*
X239764D01*
X218701Y212401D02*
X239764D01*
X218701Y212046D02*
X239764D01*
X218701Y211692D02*
X239764D01*
X218701Y211338D02*
X239764D01*
X218701Y210983D02*
X239764D01*
X218701Y210629D02*
X239764D01*
X218701Y210275D02*
X239764D01*
X218701Y209920D02*
X239764D01*
X218701Y209566D02*
X239764D01*
X218701Y209212D02*
X239662D01*
X239483Y249605D02*
X239651D01*
X218701Y208857D02*
X239307D01*
X218701Y208503D02*
X238953D01*
X218701Y208149D02*
X238599D01*
X218701Y207794D02*
X238244D01*
X218701Y207440D02*
X237890D01*
X215660Y249605D02*
X237682D01*
X218701Y207086D02*
X237536D01*
X218701Y206731D02*
X237181D01*
X215286Y249960D02*
X237140D01*
X218701Y206377D02*
X236827D01*
X218701Y206023D02*
X236473D01*
X218701Y205668D02*
X236118D01*
X218701Y205314D02*
X235764D01*
X218701Y204960D02*
X235410D01*
X218701Y204605D02*
X235055D01*
X218701Y204251D02*
X234701D01*
X218701Y203897D02*
X234347D01*
X218701Y203542D02*
X233992D01*
X218701Y203188D02*
X233638D01*
X218701Y202834D02*
X233284D01*
X218713Y202479D02*
X232929D01*
X219026Y202125D02*
X232575D01*
X222110Y201771D02*
X232221D01*
X223236Y201416D02*
X231866D01*
X219252Y201771D02*
X221985D01*
X219395Y201416D02*
X220859D01*
X210570Y197873D02*
X220472D01*
X210721Y197519D02*
X220461D01*
X219471Y201062D02*
X220444D01*
X210333Y198227D02*
X220378D01*
X219487Y200708D02*
X220183D01*
X210042Y198582D02*
X220140D01*
X210804Y197164D02*
X220134D01*
X219444Y200353D02*
X220015D01*
X218446Y198936D02*
X219988D01*
X219340Y199999D02*
X219918D01*
X218887Y199290D02*
X219905D01*
X219162Y199645D02*
X219882D01*
X210826Y196810D02*
X219780D01*
X210791Y196456D02*
X219426D01*
X210832Y196101D02*
X219068D01*
X210039Y198936D02*
X216200D01*
X215537Y212401D02*
X215945D01*
X215436Y212046D02*
X215945D01*
X215211Y211692D02*
X215945D01*
X214861Y211338D02*
X215945D01*
X214507Y210983D02*
X215945D01*
X214153Y210629D02*
X215945D01*
X213798Y210275D02*
X215945D01*
X213444Y209920D02*
X215945D01*
X213090Y209566D02*
X215945D01*
X212735Y209212D02*
X215945D01*
X212381Y208857D02*
X215945D01*
X212027Y208503D02*
X215945D01*
X211672Y208149D02*
X215945D01*
X211318Y207794D02*
X215945D01*
X210964Y207440D02*
X215945D01*
X210609Y207086D02*
X215945D01*
X210255Y206731D02*
X215945D01*
X210039Y206377D02*
X215945D01*
X210039Y206023D02*
X215945D01*
X210039Y205668D02*
X215945D01*
X210039Y205314D02*
X215945D01*
X210039Y204960D02*
X215945D01*
X210039Y204605D02*
X215945D01*
X210039Y204251D02*
X215945D01*
X210039Y203897D02*
X215945D01*
X210039Y203542D02*
X215945D01*
X210039Y203188D02*
X215945D01*
X210039Y202834D02*
X215945D01*
X210039Y202479D02*
X215932D01*
X215646Y212755D02*
X215850D01*
X210039Y199290D02*
X215758D01*
X210039Y202125D02*
X215620D01*
X210039Y199645D02*
X215483D01*
X210039Y201771D02*
X215394D01*
X210039Y199999D02*
X215306D01*
X210039Y201416D02*
X215251D01*
X210039Y200353D02*
X215201D01*
X210039Y201062D02*
X215175D01*
X210039Y200708D02*
X215159D01*
X103937Y100000D02*
X237795Y99961D01*
Y129527*
X239764Y131496D02*
G03X237795Y129527I-0J-1969D01*
G01X239764Y131496D02*
X243684Y131495D01*
X249134Y218110*
X247289*
X245324Y220199D02*
G03X247289Y218110I1965J-120D01*
G01X245324Y220199D02*
X247486Y255632D01*
X249451Y257480D02*
G03X247486Y255632I0J-1968D01*
G01X249451Y257480D02*
X251614D01*
X258582Y368059*
G03X251509Y375591I-7073J445*
G01X178739*
X178741Y375354*
X170866Y375350D02*
G03X178741Y375357I3938J124D01*
G01X170866Y375354D02*
Y375591D01*
X147244*
Y323228*
X144488Y320472D02*
G03X147244Y323228I0J2756D01*
G01X144488Y320472D02*
X126378D01*
X123622Y323228D02*
G03X126378Y320472I2756J0D01*
G01X123622Y323228D02*
Y375591D01*
X90223*
G03X83151Y368059I0J-7087*
G01X84548Y346437*
X84567Y346379*
Y344764*
X83780Y343976D02*
G03X84567Y344764I-0J788D01*
G01X83780Y343976D02*
X83583D01*
G03X82795Y343189I-0J-787*
G01Y313780*
G03X83976Y312598I1181J-0*
G01X85551*
X86732Y311417D02*
G03X85551Y312598I-1181J0D01*
G01X86732Y311417D02*
Y311153D01*
X86851Y309686*
X90136Y257480*
X92244*
X94209Y255632D02*
G03X92244Y257480I-1965J-120D01*
G01X94209Y255634D02*
X96406Y220201D01*
X94441Y218110D02*
G03X96406Y220199I0J1969D01*
G01X94441Y218110D02*
X92598D01*
X98039Y131496*
X101969*
X103937Y129528D02*
G03X101969Y131496I-1968J-0D01*
G01X103937Y129528D02*
Y100000D01*
G54D21*
X101043Y338386D03*
Y318307D03*
G54D23*
X131102Y106496D02*
X129134D01*
Y117756*
X101890Y145000*
Y269685*
X97638Y273937*
Y277165*
X100787Y280315*
X146063*
X189961Y109646D02*
Y135433D01*
X208661Y154134*
Y161024*
X185039Y109646D02*
Y138189D01*
X201575Y154724*
Y161417*
X141732Y168504D02*
X149213D01*
X159055Y178346*
Y183071*
Y154528D02*
X172047D01*
X187205Y169685*
X224016*
X208661Y196850D02*
Y207087D01*
X214173Y212598*
Y248031*
X217323Y200787D02*
Y244882D01*
X201575Y196850D02*
Y208661D01*
X207874Y214961*
Y248031*
X229528Y192913D02*
X144488D01*
X142520Y194882*
X117362Y250000D02*
Y267047D01*
X142126Y242126D02*
X151575Y251575D01*
X238583*
X202362Y261417D02*
X197638Y266142D01*
X137038*
X217717Y261811D02*
Y266142D01*
X202362Y281496*
X196772*
X185748Y292520*
X182520*
X178740Y296299*
Y304961*
X188976Y240945D02*
X199213D01*
X192126Y223622D02*
X199213D01*
X227559Y256693D02*
X201575D01*
X197244Y261024*
X194488*
X137008Y266142D02*
X137038D01*
Y269261*
X133465Y272835*
X131102*
X120866Y284252D02*
X151969D01*
X144094Y301575D02*
X129921D01*
X105512Y325984*
X203150Y290157D02*
Y329528D01*
X196457Y336220*
X192126*
X200394Y292520D02*
Y328740D01*
X196457Y332677*
X193307*
X205906Y292520D02*
Y303543D01*
X205118Y304331*
Y331496*
X196850Y339764*
X193701*
X190551Y273228D02*
X139764D01*
X137008Y275984*
X101181*
X192126Y281102D02*
X188976Y284252D01*
X162992*
X189764Y278740D02*
X188189Y280315D01*
X146063*
X210236Y294094D02*
Y302756D01*
X211811Y304331*
Y326378*
X223307Y267402D02*
X204134Y286575D01*
X199528*
X188386Y297717*
X185709*
X235433Y287008D02*
Y307087D01*
X221654Y320866*
X216929*
X223740Y263268D02*
X203228Y283780D01*
X198543*
X187677Y294646*
X184173*
X181693Y297126*
Y301890*
X223740Y263268D02*
X223898D01*
X224016Y263386*
X140945Y311024D02*
X129921D01*
X110236Y330709*
X144094Y307087D02*
X129134D01*
X107874Y328346*
X159449Y324409D02*
X178346D01*
X180315Y326378*
X181102*
X208661Y306299D02*
Y350394D01*
G54D24*
X120591Y106299D02*
X118504Y106496D01*
X107874Y103937D03*
X106693Y116535D03*
X110630D03*
X106693Y121654D03*
X110630D03*
X120591Y106299D03*
X103937Y135433D03*
X155512Y116535D03*
X151575D03*
X155512Y121654D03*
X151575D03*
X141496Y104921D03*
X145945Y108071D03*
X162992Y119685D03*
X147244Y135433D03*
X162992Y103937D03*
X180709Y139370D03*
X178740Y127559D03*
X210236D03*
X230315Y114449D03*
X235039Y103937D03*
X127559Y166929D03*
X123622Y143307D03*
X139370Y147244D03*
Y162992D03*
X107874Y166929D03*
X166929Y168504D03*
X178740Y147244D03*
X174803Y162992D03*
X141732Y168504D03*
X159055Y154528D03*
X210236Y147244D03*
X194488Y162992D03*
X201575Y161417D03*
X208661Y161024D03*
X229921Y155118D03*
X224016Y169685D03*
X241732Y166929D03*
X96811Y215433D03*
X129528Y218110D03*
X123622Y186614D03*
X111811Y202362D03*
X107874Y186614D03*
X171654Y201575D03*
X175591Y186614D03*
X151181Y202362D03*
X150787Y214961D03*
X178740Y214173D03*
X159055Y183071D03*
X142520Y194882D03*
X210630Y213189D03*
X196063Y197638D03*
X190551Y214173D03*
Y206299D03*
Y182677D03*
X216142D03*
X208661Y196850D03*
X217323Y200787D03*
X201575Y196850D03*
X202362Y216142D03*
X222047Y199606D03*
X229921Y186614D03*
X229528Y192913D03*
X241732Y198425D03*
X94094Y261417D03*
X117362Y250000D03*
X123622Y233858D03*
X111811Y247638D03*
X115748Y229921D03*
X143307Y233858D03*
X159055Y245669D03*
X178740Y237795D03*
X142126Y242126D03*
X179134Y243307D03*
X178740Y257480D03*
X159055Y261417D03*
X210984Y245787D03*
X211181Y233189D03*
X188583Y233858D03*
X202362Y261417D03*
X217323Y244882D03*
X220079Y247638D03*
X217717Y261811D03*
X214173Y248031D03*
X199213Y240945D03*
X204331Y247638D03*
X188583Y257480D03*
X207874Y248031D03*
X188976Y240945D03*
X194488Y261024D03*
X202362Y233858D03*
X199213Y223622D03*
X192126D03*
X246260Y260512D03*
X231890Y259449D03*
X238583Y251575D03*
X227559Y256693D03*
X92126Y292913D03*
X133268Y266772D03*
X125354Y264803D03*
X117362Y267047D03*
X139370Y296850D03*
X119685D03*
Y273228D03*
X120866Y284252D03*
X131102Y272835D03*
X137008Y266142D03*
X101181Y275984D03*
X176772Y292913D03*
X146063Y280315D03*
X151969Y284252D03*
X144094Y301575D03*
X162992Y284252D03*
X164961Y288976D03*
X203150Y290157D03*
X200394Y292520D03*
X205906D03*
X185709Y297717D03*
X218110Y292913D03*
X190551Y273228D03*
X192126Y281102D03*
X189764Y278740D03*
X208268Y288976D03*
X210236Y263386D03*
X198425Y277165D03*
X181693Y301890D03*
X210236Y294094D03*
X237795Y284252D03*
X223307Y267402D03*
X235433Y287008D03*
X231890Y296850D03*
X222047Y275197D03*
X224016Y263386D03*
X249606Y300787D03*
X88189Y332283D03*
X93307Y324016D03*
Y332283D03*
X88189Y324016D03*
X131496Y316535D03*
X105512Y325984D03*
X107874Y328346D03*
X110236Y330709D03*
X151181Y336220D03*
X178740Y310630D03*
X168898Y308661D03*
X159055Y302756D03*
X140945Y311024D03*
X144094Y307087D03*
X178740Y304961D03*
X174803Y338189D03*
X159449Y324409D03*
X196457Y322441D03*
X186614Y332283D03*
X218110Y308661D03*
X186614Y340157D03*
X193307Y332677D03*
X208661Y306299D03*
X193701Y339764D03*
X181102Y326378D03*
X211811D03*
X216929Y320866D03*
X192126Y336220D03*
X182677Y322441D03*
X225984Y328346D03*
X231890Y306693D03*
X241339Y310236D03*
X88189Y355906D03*
X119685Y371654D03*
Y348031D03*
X103937Y371654D03*
X158661Y349213D03*
X155118Y371654D03*
X174803Y342126D03*
X161811Y372441D03*
Y367323D03*
X163780Y354724D03*
X220079Y344094D03*
X198425Y355906D03*
X187402Y372441D03*
X193701Y372835D03*
X200000D03*
X218504D03*
X187402Y366929D03*
X208661Y350394D03*
X212598Y372835D03*
X222047Y355906D03*
X237795Y371654D03*
X253543Y351969D03*
G54D26*
X150787Y214961D02*
Y230906D01*
X160630Y240748*
X176575*
X179134Y243307*
X150787Y214961D02*
X171260Y194488D01*
X219685*
X222047Y196850*
Y199606*
X232283*
X241339Y208661*
Y310236*
X108661Y124213D02*
Y123228D01*
X113189Y119094D02*
X112205D01*
X108661Y113976D02*
Y114961D01*
X149016Y119094D02*
X150000D01*
X153543Y124213D02*
Y123228D01*
X158071Y119094D02*
X157087D01*
X153543Y113976D02*
Y114961D01*
X143701Y102559D02*
Y103543D01*
X139173Y106496D02*
X140157D01*
X143701Y110433D02*
Y109449D01*
X148228Y106496D02*
X147244D01*
X97697Y338386D02*
X98681D01*
X101043Y334449D02*
Y335433D01*
X104390Y338386D02*
X103406D01*
X90709Y314075D02*
Y315059D01*
X96024Y317618D02*
X95039D01*
X90709Y321161D02*
Y320177D01*
X85394Y317618D02*
X86378D01*
X90709Y335531D02*
Y336516D01*
X96024Y339075D02*
X95039D01*
X90709Y342618D02*
Y341634D01*
X85394Y339075D02*
X86378D01*
X170276Y106890D02*
Y107874D01*
X167520Y109646D02*
X168504D01*
X170276Y112402D02*
Y111417D01*
X180118Y106890D02*
Y107874D01*
Y112402D02*
Y111417D01*
X214764Y109055D02*
X213780D01*
X210236Y104528D02*
Y105512D01*
X205709Y109055D02*
X206693D01*
X210236Y113583D02*
Y112598D01*
X97697Y318307D02*
X98681D01*
X104390D02*
X103406D01*
X101043Y322244D02*
Y321260D01*
G54D79*
X119291Y117323D03*
X142913D03*
G54D81*
X118504Y106496D03*
X131102D03*
X143701D03*
G54D82*
X108661Y119094D03*
X153543D03*
G74*
X0Y0D02*
M02*
