M48
;FILE_FORMAT=2:4
INCH,LZ
FMAT,2
ICI,OFF
;TYPE=PLATED
T1C.01181
T2C.01969
T3C.02362
T4C.04331
T5C.04724
;TYPE=NON_PLATED
T6C.07087
T7C.07874
%
M72
G90
G93X0Y0
T1C.01181F0S0
X010787Y010394
X010669Y011654
X011063Y011654
X010669Y012165
X011063Y012165
X010394Y013543
X010787Y016693
X010787Y018661
X011181Y020236
X009681Y021543
X011181Y024764
X009409Y026142
X010118Y027598
X009213Y029291
X009331Y032402
X008819Y032402
X010551Y032598
X010787Y032835
X011024Y033071
X008819Y033228
X009331Y033228
X008819Y035591
X010394Y037165
X011969Y037165
X011969Y034803
X01315Y031654
X011969Y029685
X012087Y028425
X011969Y027323
X01311Y027283
X011736Y026705
X013327Y026677
X013701Y026614
X012535Y02648
X011736Y025
X012362Y023386
X011575Y022992
X012953Y021811
X012362Y018661
X012756Y016693
X012362Y014331
X012059Y01063
X016299Y010394
X01415Y010492
X014594Y010807
X015551Y011654
X015157Y011654
X016299Y011969
X015157Y012165
X015551Y012165
X014724Y013543
X013937Y014724
X015906Y015453
X013937Y016299
X014173Y01685
X015906Y018307
X014252Y019488
X015118Y020236
X015079Y021496
X014331Y023386
X014213Y024213
X015906Y024567
X015906Y026142
X014606Y028031
X016299Y028425
X015197Y028425
X013937Y029685
X014409Y030157
X015906Y030276
X014409Y030709
X014094Y031102
X015945Y032441
X015118Y033622
X015866Y034921
X016181Y036732
X015512Y037165
X016181Y037244
X01874Y037244
X01874Y036693
X016378Y035472
X01748Y034213
X018661Y034016
X01748Y033819
X018661Y033228
X01811Y032638
X018268Y032244
X017874Y031063
X01689Y030866
X017874Y030496
X018169Y030189
X018571Y029772
X017677Y029291
X016496Y028898
X017874Y025748
X017913Y024331
X017874Y02378
X017874Y021417
X017165Y020157
X017559Y018661
X016693Y01685
X01748Y016299
X017874Y014724
X018071Y013937
X017874Y012756
X021024Y012756
X021024Y014724
X020866Y016102
X020157Y016142
X019449Y016299
X019055Y018268
X020157Y019685
X020866Y019685
X019606Y019764
X019055Y02063
X021063Y021319
X019055Y021417
X020236Y021614
X019921Y022362
X019213Y022362
X021118Y023319
X020236Y023386
X018858Y023386
X018898Y024094
X019921Y024094
X021098Y024579
X020433Y024764
X020787Y024803
X018858Y025748
X019449Y026102
X020236Y026142
X021024Y026339
X019055Y027323
X019843Y027717
X018976Y027874
X019213Y02811
X020827Y028898
X020315Y029016
X020591Y029252
X020039Y029252
X021024Y029409
X020866Y03063
X019646Y032244
X021181Y032638
X019331Y033268
X019213Y033622
X01937Y033976
X020866Y035039
X019843Y035591
X02Y037283
X01937Y037283
X02126Y037283
X02185Y037283
X02378Y037165
X022205Y035591
X022008Y034409
X022598Y032835
X021693Y032087
X021811Y030866
X023189Y030669
X023189Y029685
X021811Y029291
X023543Y028701
X02378Y028425
X022205Y02752
X022331Y02674
X022402Y026339
X021772Y026181
X023189Y025945
X022756Y025669
X021417Y024803
X022008Y024764
X021732Y024488
X021732Y020079
X022205Y019961
X022953Y019291
X022992Y018661
X021614Y018268
X022402Y016969
X022992Y015512
X023031Y011445
X023504Y010394
X024173Y016693
X024173Y019843
X023858Y025157
X024626Y026051
X024961Y030079
X024134Y031024
X025354Y035197
T2C.01969F0S0
X017028Y010965
X01752Y010965
X018012Y010965
X018504Y010965
X018996Y010965
X019488Y010965
T3C.02362F0S0
X010104Y033917G85X010104Y03376
X010104Y031909G85X010104Y031752
X008933Y033907G85X009209Y033907
X008933Y031762G85X009209Y031762
T4C.04331F0S0
X021024Y010906
X022598Y010906
T5C.04724F0S0
X011929Y011732
X014291Y011732
T6C.07087F0S0
X01748Y035394
X01748Y037559
T7C.07874F0S0
X009213Y036772
X024961Y036772
M30
