*
*
G04 PADS VX.2.3 Build Number: 9191294 generated Gerber (RS-274-X) file*
G04 PC Version=2.1*
*
%IN "Plasma_Pipette_V2.0_Mai"*%
*
%MOIN*%
*
%FSLAX35Y35*%
*
*
*
*
G04 PC Standard Apertures*
*
*
G04 Thermal Relief Aperture macro.*
%AMTER*
1,1,$1,0,0*
1,0,$1-$2,0,0*
21,0,$3,$4,0,0,45*
21,0,$3,$4,0,0,135*
%
*
*
G04 Annular Aperture macro.*
%AMANN*
1,1,$1,0,0*
1,0,$2,0,0*
%
*
*
G04 Odd Aperture macro.*
%AMODD*
1,1,$1,0,0*
1,0,$1-0.005,0,0*
%
*
*
G04 PC Custom Aperture Macros*
*
*
*
*
*
*
G04 PC Aperture Table*
*
%ADD010C,0.001*%
%ADD011R,0.01969X0.01969*%
%ADD012R,0.04724X0.04724*%
%ADD013R,0.06299X0.01969*%
%ADD017R,0.0315X0.0315*%
%ADD020C,0.00394*%
%ADD027R,0.03937X0.02362*%
%ADD028R,0.02362X0.03937*%
%ADD029R,0.01181X0.05906*%
%ADD030R,0.05906X0.01181*%
%ADD034R,0.02028X0.2*%
%ADD035R,0.05315X0.01575*%
%ADD036R,0.07874X0.06004*%
%ADD037R,0.08858X0.04724*%
%ADD038R,0.08504X0.08898*%
%ADD039R,0.03543X0.01575*%
%ADD040R,0.05906X0.07874*%
%ADD041R,0.07874X0.08661*%
%ADD042R,0.04724X0.07087*%
%ADD043R,0.01772X0.02323*%
%ADD074R,0.05433X0.02953*%
%ADD075R,0.09134X0.04331*%
%ADD076R,0.0315X0.07874*%
%ADD077R,0.02756X0.03346*%
%ADD078R,0.02323X0.01772*%
*
*
*
*
G04 PC Circuitry*
G04 Layer Name Plasma_Pipette_V2.0_Mai - circuitry*
%LPD*%
*
*
G04 PC Custom Flashes*
G04 Layer Name Plasma_Pipette_V2.0_Mai - flashes*
%LPD*%
*
*
G04 PC Circuitry*
G04 Layer Name Plasma_Pipette_V2.0_Mai - circuitry*
%LPD*%
*
G54D10*
G54D11*
G01X175591Y170472D03*
X172441D03*
X164370Y208268D03*
X167520D03*
X172441Y262992D03*
X169291D03*
X172441Y280315D03*
X169291D03*
X225984Y312598D03*
X222835D03*
X224409Y241732D03*
X221260D03*
X241732Y292913D03*
X244882D03*
X193898Y312283D03*
Y315433D03*
X172441Y288976D03*
X169291D03*
X170472Y314173D03*
X167323D03*
X115748Y165354D03*
X118898D03*
X115748Y160630D03*
X118898D03*
X172441Y284252D03*
X169291D03*
X141732Y218898D03*
X138583D03*
X141732Y205512D03*
X138583D03*
X149606Y292913D03*
X152756D03*
X172441Y174409D03*
X175591D03*
Y178346D03*
X172441D03*
X148031Y274803D03*
Y271654D03*
X172441Y272441D03*
X169291D03*
X113386Y273228D03*
Y270079D03*
X222835Y317323D03*
X225984D03*
X125197Y307087D03*
X128346D03*
X149606Y311024D03*
X152756D03*
X149606Y307087D03*
X152756D03*
X135433Y165354D03*
Y168504D03*
X131496Y142520D03*
Y139370D03*
X125197Y303150D03*
X128346D03*
X152756Y297638D03*
X149606D03*
Y301575D03*
X152756D03*
X107874Y160630D03*
X104724D03*
X159843Y284252D03*
X156693D03*
X159843Y288189D03*
X156693D03*
X162205Y170866D03*
X159055D03*
X231496Y339764D03*
X228346D03*
X231496Y336220D03*
X228346D03*
X231496Y332677D03*
X228346D03*
X201575Y188189D03*
Y191339D03*
X208661Y188189D03*
Y191339D03*
X187008Y312087D03*
Y315236D03*
X183858Y312087D03*
Y315236D03*
X217717Y161811D03*
Y164961D03*
X221260Y205512D03*
X224409D03*
X221260Y237008D03*
X224409D03*
X221260Y223622D03*
X224409D03*
X138583Y209449D03*
X141732D03*
X138583Y214961D03*
X141732D03*
X224016Y161811D03*
Y164961D03*
X167323Y317323D03*
X170472D03*
X214173Y350394D03*
X217323D03*
G54D12*
X202559Y313780D03*
X210827D03*
G54D13*
X200492Y339764D03*
Y336220D03*
Y332677D03*
X212106D03*
Y336220D03*
Y339764D03*
G54D17*
X115354Y133071D03*
X109055D03*
X146850Y154724D03*
Y161024D03*
X196850Y121260D03*
X203150D03*
X172441Y243307D03*
X166142D03*
X241339Y310236D03*
Y316535D03*
X113386Y307087D03*
Y300787D03*
X203543Y205315D03*
X209449D03*
X203543Y223031D03*
X209449D03*
X203543Y240748D03*
X209449D03*
G54D20*
X192008Y158150D02*
X185236D01*
Y150551*
X192008*
Y158150*
X185236Y150551D02*
Y158150D01*
X185433Y150551D02*
Y158150D01*
X185630Y150551D02*
Y158150D01*
X185827Y150551D02*
Y158150D01*
X186024Y150551D02*
Y158150D01*
X186220Y150551D02*
Y158150D01*
X186417Y150551D02*
Y158150D01*
X186614Y150551D02*
Y158150D01*
X186811Y150551D02*
Y158150D01*
X187008Y150551D02*
Y158150D01*
X187205Y150551D02*
Y158150D01*
X187402Y150551D02*
Y158150D01*
X187598Y150551D02*
Y158150D01*
X187795Y150551D02*
Y158150D01*
X187992Y150551D02*
Y158150D01*
X188189Y150551D02*
Y158150D01*
X188386Y150551D02*
Y158150D01*
X188583Y150551D02*
Y158150D01*
X188780Y150551D02*
Y158150D01*
X188976Y150551D02*
Y158150D01*
X189173Y150551D02*
Y158150D01*
X189370Y150551D02*
Y158150D01*
X189567Y150551D02*
Y158150D01*
X189764Y150551D02*
Y158150D01*
X189961Y150551D02*
Y158150D01*
X190157Y150551D02*
Y158150D01*
X190354Y150551D02*
Y158150D01*
X190551Y150551D02*
Y158150D01*
X190748Y150551D02*
Y158150D01*
X190945Y150551D02*
Y158150D01*
X191142Y150551D02*
Y158150D01*
X191339Y150551D02*
Y158150D01*
X191535Y150551D02*
Y158150D01*
X191732Y150551D02*
Y158150D01*
X191929Y150551D02*
Y158150D01*
X167126Y128740D02*
X173622D01*
Y148425*
X167126*
Y145993*
X167327Y145901*
X167719Y145694*
X168099Y145467*
X168466Y145219*
X168819Y144952*
X169157Y144666*
X169479Y144362*
X169784Y144041*
X170071Y143704*
X170340Y143352*
X170589Y142985*
X170817Y142606*
X171025Y142215*
X171212Y141813*
X171376Y141402*
X171517Y140983*
X171636Y140556*
X171732Y140123*
X171803Y139687*
X171851Y139246*
X171875Y138804*
Y138361*
X171851Y137919*
X171803Y137479*
X171732Y137042*
X171636Y136609*
X171517Y136183*
X171376Y135763*
X171212Y135352*
X171025Y134950*
X170817Y134559*
X170589Y134180*
X170340Y133814*
X170071Y133462*
X169784Y133125*
X169479Y132804*
X169157Y132500*
X168819Y132214*
X168466Y131946*
X168099Y131698*
X167719Y131471*
X167327Y131264*
X167126Y131172*
Y128740*
Y131172*
Y145993D02*
Y148425D01*
X167323Y128740D02*
Y131262D01*
Y145903D02*
Y148425D01*
X167520Y128740D02*
Y131366D01*
Y145799D02*
Y148425D01*
X167717Y128740D02*
Y131470D01*
Y145696D02*
Y148425D01*
X167913Y128740D02*
Y131587D01*
Y145578D02*
Y148425D01*
X168110Y128740D02*
Y131706D01*
Y145459D02*
Y148425D01*
X168307Y128740D02*
Y131839D01*
Y145326D02*
Y148425D01*
X168504Y128740D02*
Y131975D01*
Y145190D02*
Y148425D01*
X168701Y128740D02*
Y132124D01*
Y145041D02*
Y148425D01*
X168898Y128740D02*
Y132280D01*
Y144885D02*
Y148425D01*
X169094Y128740D02*
Y132447D01*
Y144719D02*
Y148425D01*
X169291Y128740D02*
Y132626D01*
Y144539D02*
Y148425D01*
X169488Y128740D02*
Y132813D01*
Y144352D02*
Y148425D01*
X169685Y128740D02*
Y133020D01*
Y144145D02*
Y148425D01*
X169882Y128740D02*
Y133239D01*
Y143926D02*
Y148425D01*
X170079Y128740D02*
Y133472D01*
Y143694D02*
Y148425D01*
X170276Y128740D02*
Y133730D01*
Y143436D02*
Y148425D01*
X170472Y128740D02*
Y134009D01*
Y143156D02*
Y148425D01*
X170669Y128740D02*
Y134314D01*
Y142852D02*
Y148425D01*
X170866Y128740D02*
Y134651D01*
Y142514D02*
Y148425D01*
X171063Y128740D02*
Y135032D01*
Y142134D02*
Y148425D01*
X171260Y128740D02*
Y135473D01*
Y141692D02*
Y148425D01*
X171457Y128740D02*
Y136003D01*
Y141163D02*
Y148425D01*
X171654Y128740D02*
Y136688D01*
Y140477D02*
Y148425D01*
X171850Y128740D02*
Y137910D01*
Y139255D02*
Y148425D01*
X172047Y128740D02*
Y148425D01*
X172244Y128740D02*
Y148425D01*
X172441Y128740D02*
Y148425D01*
X172638Y128740D02*
Y148425D01*
X172835Y128740D02*
Y148425D01*
X173031Y128740D02*
Y148425D01*
X173228Y128740D02*
Y148425D01*
X173425Y128740D02*
Y148425D01*
X153937Y128740D02*
X160433D01*
Y131172*
X160232Y131264*
X159840Y131470*
X159459Y131698*
X159092Y131945*
X158739Y132212*
X158400Y132498*
X158078Y132802*
X157773Y133123*
X157485Y133460*
X157216Y133812*
X156967Y134179*
X156738Y134558*
X156530Y134949*
X156343Y135351*
X156179Y135762*
X156037Y136182*
X155918Y136609*
X155823Y137041*
X155751Y137478*
X155703Y137919*
X155679Y138361*
Y138804*
X155703Y139247*
X155751Y139687*
X155823Y140124*
X155918Y140557*
X156037Y140983*
X156179Y141403*
X156343Y141815*
X156530Y142216*
X156738Y142607*
X156967Y142987*
X157216Y143353*
X157485Y143705*
X157773Y144042*
X158078Y144363*
X158400Y144667*
X158739Y144953*
X159092Y145220*
X159459Y145468*
X159840Y145695*
X160232Y145901*
X160433Y145994*
Y148425*
X153937*
Y128740*
Y148425*
X154134Y128740D02*
Y148425D01*
X154331Y128740D02*
Y148425D01*
X154528Y128740D02*
Y148425D01*
X154724Y128740D02*
Y148425D01*
X154921Y128740D02*
Y148425D01*
X155118Y128740D02*
Y148425D01*
X155315Y128740D02*
Y148425D01*
X155512Y128740D02*
Y148425D01*
X155709Y128740D02*
Y137865D01*
Y139300D02*
Y148425D01*
X155906Y128740D02*
Y136666D01*
Y140499D02*
Y148425D01*
X156102Y128740D02*
Y135989D01*
Y141177D02*
Y148425D01*
X156299Y128740D02*
Y135461D01*
Y141704D02*
Y148425D01*
X156496Y128740D02*
Y135022D01*
Y142143D02*
Y148425D01*
X156693Y128740D02*
Y134643D01*
Y142523D02*
Y148425D01*
X156890Y128740D02*
Y134307D01*
Y142859D02*
Y148425D01*
X157087Y128740D02*
Y134003D01*
Y143162D02*
Y148425D01*
X157283Y128740D02*
Y133724D01*
Y143441D02*
Y148425D01*
X157480Y128740D02*
Y133466D01*
Y143699D02*
Y148425D01*
X157677Y128740D02*
Y133235D01*
Y143930D02*
Y148425D01*
X157874Y128740D02*
Y133017D01*
Y144149D02*
Y148425D01*
X158071Y128740D02*
Y132810D01*
Y144356D02*
Y148425D01*
X158268Y128740D02*
Y132623D01*
Y144542D02*
Y148425D01*
X158465Y128740D02*
Y132444D01*
Y144721D02*
Y148425D01*
X158661Y128740D02*
Y132278D01*
Y144888D02*
Y148425D01*
X158858Y128740D02*
Y132122D01*
Y145043D02*
Y148425D01*
X159055Y128740D02*
Y131973D01*
Y145192D02*
Y148425D01*
X159252Y128740D02*
Y131837D01*
Y145328D02*
Y148425D01*
X159449Y128740D02*
Y131705D01*
Y145461D02*
Y148425D01*
X159646Y128740D02*
Y131586D01*
Y145579D02*
Y148425D01*
X159843Y128740D02*
Y131469D01*
Y145696D02*
Y148425D01*
X160039Y128740D02*
Y131365D01*
Y145800D02*
Y148425D01*
X160236Y128740D02*
Y131262D01*
Y145903D02*
Y148425D01*
X103937Y100000D02*
X237795Y99961D01*
Y129527*
X239764Y131496D02*
G75*
G03X237795Y129527I-0J-1969D01*
G01X239764Y131496D02*
X243684Y131495D01*
X249134Y218110*
X247289*
X245324Y220199D02*
G03X247289Y218110I1965J-120D01*
G01X245324Y220199D02*
X247486Y255632D01*
X249451Y257480D02*
G03X247486Y255632I0J-1968D01*
G01X249451Y257480D02*
X251614D01*
X258582Y368059*
G03X251509Y375591I-7073J445*
G01X178739*
X178741Y375354*
X170866Y375350D02*
G03X178741Y375357I3938J124D01*
G01X170866Y375354D02*
Y375591D01*
X147244*
Y323228*
X144488Y320472D02*
G03X147244Y323228I0J2756D01*
G01X144488Y320472D02*
X126378D01*
X123622Y323228D02*
G03X126378Y320472I2756J0D01*
G01X123622Y323228D02*
Y375591D01*
X90223*
G03X83151Y368059I0J-7087*
G01X84548Y346437*
X84567Y346379*
Y344764*
X83780Y343976D02*
G03X84567Y344764I-0J788D01*
G01X83780Y343976D02*
X83583D01*
G03X82795Y343189I-0J-787*
G01Y313780*
G03X83976Y312598I1181J-0*
G01X85551*
X86732Y311417D02*
G03X85551Y312598I-1181J0D01*
G01X86732Y311417D02*
Y311153D01*
X86851Y309686*
X90136Y257480*
X92244*
X94209Y255632D02*
G03X92244Y257480I-1965J-120D01*
G01X94209Y255634D02*
X96406Y220201D01*
X94441Y218110D02*
G03X96406Y220199I0J1969D01*
G01X94441Y218110D02*
X92598D01*
X98039Y131496*
X101969*
X103937Y129528D02*
G03X101969Y131496I-1968J-0D01*
G01X103937Y129528D02*
Y100000D01*
G54D27*
X168504Y154528D03*
Y158268D03*
Y162008D03*
X159055D03*
Y154528D03*
G54D28*
X164370Y214173D03*
X168110D03*
X171850D03*
Y223622D03*
X164370D03*
X121063Y262992D03*
X113583D03*
X117323Y253543D03*
X151772Y262992D03*
X144291D03*
X148031Y253543D03*
X135236Y159055D03*
X127756D03*
X131496Y149606D03*
X136811Y262992D03*
X129331D03*
X133071Y253543D03*
X108071Y143307D03*
X111811D03*
X115551D03*
Y152756D03*
X108071D03*
X220472Y145079D03*
X227953D03*
X224213Y154528D03*
G54D29*
X221850Y300394D03*
X219882D03*
X217913D03*
X215945D03*
X213976D03*
X212008D03*
X210039D03*
X208071D03*
X206102D03*
X204134D03*
X202165D03*
X200197D03*
X198228D03*
X196260D03*
X194291D03*
X192323D03*
Y255512D03*
X194291D03*
X196260D03*
X198228D03*
X200197D03*
X202165D03*
X204134D03*
X206102D03*
X208071D03*
X210039D03*
X212008D03*
X213976D03*
X215945D03*
X217913D03*
X219882D03*
X221850D03*
G54D30*
X184646Y292717D03*
Y290748D03*
Y288780D03*
Y286811D03*
Y284843D03*
Y282874D03*
Y280906D03*
Y278937D03*
Y276969D03*
Y275000D03*
Y273031D03*
Y271063D03*
Y269094D03*
Y267126D03*
Y265157D03*
Y263189D03*
X229528D03*
Y265157D03*
Y267126D03*
Y269094D03*
Y271063D03*
Y273031D03*
Y275000D03*
Y276969D03*
Y278937D03*
Y280906D03*
Y282874D03*
Y284843D03*
Y286811D03*
Y288780D03*
Y290748D03*
Y292717D03*
G54D34*
X172736Y138583D03*
X154823D03*
G54D35*
X101024Y333465D03*
Y330906D03*
Y328346D03*
Y325787D03*
Y323228D03*
G54D36*
X90709Y332382D03*
Y324311D03*
G54D37*
X196949Y371850D03*
X215650D03*
X196949Y365157D03*
X215650D03*
G54D38*
X202165Y138189D03*
X182874D03*
G54D39*
X164173Y329331D03*
Y326772D03*
Y324213D03*
X172835D03*
Y329331D03*
G54D40*
X187598Y369685D03*
X162008D03*
G54D41*
X188583Y348031D03*
X161024Y351969D03*
G54D42*
X174803Y340551D03*
G54D43*
X182283Y117106D03*
Y125413D03*
X189370Y117106D03*
Y125413D03*
G54D74*
X179528Y154409D03*
G54D75*
X189606Y154331D03*
G54D76*
X172244Y232283D03*
X163976D03*
G54D77*
X137992Y242224D03*
X125000D03*
X137992Y227461D03*
X125000D03*
X137992Y194980D03*
X125000D03*
X137992Y180217D03*
X125000D03*
X137992Y289469D03*
X125000D03*
X137992Y274705D03*
X125000D03*
G54D78*
X227579Y130118D03*
X219272D03*
G74*
X0Y0D02*
M02*
