*
*
G04 PADS VX.2.3 Build Number: 9191294 generated Gerber (RS-274-X) file*
G04 PC Version=2.1*
*
%IN "Plasma_Pipette_V2.0_Mai"*%
*
%MOIN*%
*
%FSLAX35Y35*%
*
*
*
*
G04 PC Standard Apertures*
*
*
G04 Thermal Relief Aperture macro.*
%AMTER*
1,1,$1,0,0*
1,0,$1-$2,0,0*
21,0,$3,$4,0,0,45*
21,0,$3,$4,0,0,135*
%
*
*
G04 Annular Aperture macro.*
%AMANN*
1,1,$1,0,0*
1,0,$2,0,0*
%
*
*
G04 Odd Aperture macro.*
%AMODD*
1,1,$1,0,0*
1,0,$1-0.005,0,0*
%
*
*
G04 PC Custom Aperture Macros*
*
*
*
*
*
*
G04 PC Aperture Table*
*
%ADD010C,0.001*%
%ADD020C,0.00394*%
%ADD023C,0.00787*%
%ADD044C,0.01*%
%ADD091C,0.005*%
*
*
*
*
G04 PC Circuitry*
G04 Layer Name Plasma_Pipette_V2.0_Mai - circuitry*
%LPD*%
*
*
G04 PC Custom Flashes*
G04 Layer Name Plasma_Pipette_V2.0_Mai - flashes*
%LPD*%
*
*
G04 PC Circuitry*
G04 Layer Name Plasma_Pipette_V2.0_Mai - circuitry*
%LPD*%
*
G54D10*
G54D20*
G01X164370Y113780D02*
X200787D01*
Y92126*
X164370*
Y113780*
X162598Y110433D02*
X159449Y108858D01*
Y112008*
X162598Y110433*
X135039Y131718D02*
Y129134D01*
Y131718D02*
X134234D01*
X133966Y131594*
X133876Y131471*
X133787Y131225*
Y130979*
X133876Y130733*
X133966Y130610*
X134234Y130487*
X135039D02*
X134234D01*
X133966Y130364*
X133876Y130241*
X133787Y129995*
Y129626*
X133876Y129380*
X133966Y129257*
X134234Y129134*
X135039*
X132266Y131718D02*
X132981Y129134D01*
X132266Y131718D02*
X131550Y129134D01*
X132713Y129995D02*
X131818D01*
X130118Y131718D02*
Y129134D01*
X130744Y131718D02*
X129492D01*
X128060D02*
Y129134D01*
X128686Y131718D02*
X127434D01*
X103937Y100000D02*
X237795Y99961D01*
Y129527*
X239764Y131496D02*
G75*
G03X237795Y129527I-0J-1969D01*
G01X239764Y131496D02*
X243684Y131495D01*
X249134Y218110*
X247289*
X245324Y220199D02*
G03X247289Y218110I1965J-120D01*
G01X245324Y220199D02*
X247486Y255632D01*
X249451Y257480D02*
G03X247486Y255632I0J-1968D01*
G01X249451Y257480D02*
X251614D01*
X258582Y368059*
G03X251509Y375591I-7073J445*
G01X178739*
X178741Y375354*
X170866Y375350D02*
G03X178741Y375357I3938J124D01*
G01X170866Y375354D02*
Y375591D01*
X147244*
Y323228*
X144488Y320472D02*
G03X147244Y323228I0J2756D01*
G01X144488Y320472D02*
X126378D01*
X123622Y323228D02*
G03X126378Y320472I2756J0D01*
G01X123622Y323228D02*
Y375591D01*
X90223*
G03X83151Y368059I0J-7087*
G01X84548Y346437*
X84567Y346379*
Y344764*
X83780Y343976D02*
G03X84567Y344764I-0J788D01*
G01X83780Y343976D02*
X83583D01*
G03X82795Y343189I-0J-787*
G01Y313780*
G03X83976Y312598I1181J-0*
G01X85551*
X86732Y311417D02*
G03X85551Y312598I-1181J0D01*
G01X86732Y311417D02*
Y311153D01*
X86851Y309686*
X90136Y257480*
X92244*
X94209Y255632D02*
G03X92244Y257480I-1965J-120D01*
G01X94209Y255634D02*
X96406Y220201D01*
X94441Y218110D02*
G03X96406Y220199I0J1969D01*
G01X94441Y218110D02*
X92598D01*
X98039Y131496*
X101969*
X103937Y129528D02*
G03X101969Y131496I-1968J-0D01*
G01X103937Y129528D02*
Y100000D01*
G54D23*
X156339Y123622D02*
X105945D01*
Y108701*
X156339*
Y123622*
G54D44*
X202362Y112992D02*
X233858D01*
Y20866*
X202362*
Y112992*
G54D91*
X183116Y121391D02*
Y118891D01*
X183229Y118423*
X183343Y118266*
X183570Y118110*
X183797*
X184025Y118266*
X184138Y118423*
X184252Y118891*
Y119204*
X181866Y121391D02*
X180616D01*
X181297Y120141*
X180957*
X180729Y119985*
X180616Y119829*
X180502Y119360*
Y119048*
X180616Y118579*
X180843Y118266*
X181184Y118110*
X181525*
X181866Y118266*
X181979Y118423*
X182093Y118735*
X217761Y121391D02*
Y118891D01*
X217875Y118423*
X217989Y118266*
X218216Y118110*
X218443*
X218670Y118266*
X218784Y118423*
X218898Y118891*
Y119204*
X216625Y120610D02*
Y120766D01*
X216511Y121079*
X216398Y121235*
X216170Y121391*
X215716*
X215489Y121235*
X215375Y121079*
X215261Y120766*
Y120454*
X215375Y120141*
X215602Y119673*
X216739Y118110*
X215148*
G74*
X0Y0D02*
M02*
