*
*
G04 PADS 9.5 Build Number: 522968 generated Gerber (RS-274-X) file*
G04 PC Version=2.1*
*
%IN "MPD-MAIN_PCB_V1.0_20190"*%
*
%MOIN*%
*
%FSLAX35Y35*%
*
*
*
*
G04 PC Standard Apertures*
*
*
G04 Thermal Relief Aperture macro.*
%AMTER*
1,1,$1,0,0*
1,0,$1-$2,0,0*
21,0,$3,$4,0,0,45*
21,0,$3,$4,0,0,135*
%
*
*
G04 Annular Aperture macro.*
%AMANN*
1,1,$1,0,0*
1,0,$2,0,0*
%
*
*
G04 Odd Aperture macro.*
%AMODD*
1,1,$1,0,0*
1,0,$1-0.005,0,0*
%
*
*
G04 PC Custom Aperture Macros*
*
*
*
*
*
*
G04 PC Aperture Table*
*
%ADD010C,0.001*%
%ADD011R,0.03937X0.03937*%
%ADD012R,0.03937X0.02756*%
%ADD014R,0.02362X0.01378*%
%ADD015R,0.06299X0.08268*%
%ADD016R,0.02362X0.03937*%
%ADD017R,0.0315X0.07874*%
%ADD020R,0.02028X0.2*%
%ADD021R,0.01181X0.05906*%
%ADD022R,0.05906X0.01181*%
%ADD026R,0.08X0.025*%
%ADD027R,0.05X0.08*%
%ADD028R,0.02323X0.02165*%
%ADD029R,0.025X0.08*%
%ADD030R,0.03937X0.02362*%
%ADD031R,0.05906X0.04724*%
%ADD032R,0.05X0.034*%
%ADD033C,0.015*%
%ADD034R,0.07X0.05*%
%ADD035R,0.03543X0.06299*%
%ADD036C,0.00394*%
%ADD037C,0.01*%
%ADD084R,0.02362X0.01575*%
*
*
*
*
G04 PC Circuitry*
G04 Layer Name MPD-MAIN_PCB_V1.0_20190 - circuitry*
%LPD*%
*
*
G04 PC Custom Flashes*
G04 Layer Name MPD-MAIN_PCB_V1.0_20190 - flashes*
%LPD*%
*
*
G04 PC Circuitry*
G04 Layer Name MPD-MAIN_PCB_V1.0_20190 - circuitry*
%LPD*%
*
G54D10*
G01X273396Y395315D02*
G75*
G03X273396I-4134J0D01*
G01Y202402D02*
G03X273396I-4134J0D01*
G01X115915Y395315D02*
G03X115915I-4133J0D01*
G01Y202402D02*
G03X115915I-4133J0D01*
G54D11*
G01X249606Y224803D03*
Y235039D03*
X122835Y324409D03*
X116535D03*
X140157D03*
X133858D03*
X181890Y299213D03*
X188189D03*
X181890Y290945D03*
X188189D03*
Y307874D03*
X181890D03*
X200787Y225197D03*
X194488D03*
X200787Y216535D03*
X194488D03*
Y202362D03*
X200787D03*
X140157Y269291D03*
X133858D03*
X194488Y209449D03*
X200787D03*
X188189Y322835D03*
X181890D03*
X235433Y258268D03*
Y264567D03*
X249606Y258268D03*
Y264567D03*
X188189Y329921D03*
X181890D03*
X140157Y262205D03*
X133858D03*
X235039Y225984D03*
X228740D03*
X225984Y211811D03*
X232283D03*
X246457Y371654D03*
X240157D03*
X232283Y218898D03*
X225984D03*
X221260Y264567D03*
Y258268D03*
X225984Y240157D03*
X232283D03*
X202362Y341732D03*
Y348031D03*
X195276Y341732D03*
Y348031D03*
X140945Y188189D03*
X134646D03*
X116535Y360630D03*
X122835D03*
X228346Y264567D03*
Y258268D03*
X133858Y248425D03*
X140157D03*
X225984Y233071D03*
X232283D03*
X122835Y367717D03*
X116535D03*
X217323Y341732D03*
Y348031D03*
X188189Y315748D03*
X181890D03*
X232283Y341732D03*
Y348031D03*
X247244Y341732D03*
Y348031D03*
X188189Y280315D03*
X181890D03*
X242520Y264567D03*
Y258268D03*
X210236Y341732D03*
Y348031D03*
X239370Y341732D03*
Y348031D03*
X161417Y318110D03*
X167717D03*
X225984Y247244D03*
X232283D03*
X116535Y310236D03*
X122835D03*
X116535Y317323D03*
X122835D03*
X245669Y247244D03*
X239370D03*
X194488Y232283D03*
X200787D03*
X170079Y357480D03*
X163780D03*
X122835Y340157D03*
X116535D03*
X114961Y180315D03*
X108661D03*
X114961Y188189D03*
X108661D03*
X122835Y332283D03*
X116535D03*
X162992Y277953D03*
X169291D03*
X124409Y248425D03*
X118110D03*
X208661Y225197D03*
X214961D03*
X208661Y216535D03*
X214961D03*
X134646Y180315D03*
X140945D03*
X188189Y272441D03*
X181890D03*
X195276Y254724D03*
Y248425D03*
X140157Y255118D03*
X133858D03*
X246457Y363780D03*
X240157D03*
G54D12*
X226772Y203740D03*
Y196260D03*
X236220Y200000D03*
X171654Y301772D03*
Y309252D03*
X162205Y305512D03*
X171654Y286811D03*
Y294291D03*
X162205Y290551D03*
G54D14*
X147244Y306496D03*
Y310236D03*
Y313976D03*
X136220D03*
Y310236D03*
Y306496D03*
G54D15*
X141732Y310236D03*
G54D16*
X161614Y328346D03*
X165354D03*
X169094D03*
Y337795D03*
X161614D03*
G54D17*
X170276Y348031D03*
X162008D03*
G54D20*
X132776Y287402D03*
X150689D03*
G54D21*
X240748Y327165D03*
X238780D03*
X236811D03*
X234843D03*
X232874D03*
X230906D03*
X228937D03*
X226969D03*
X225000D03*
X223031D03*
X221063D03*
X219094D03*
X217126D03*
X215157D03*
X213189D03*
X211220D03*
Y282283D03*
X213189D03*
X215157D03*
X217126D03*
X219094D03*
X221063D03*
X223031D03*
X225000D03*
X226969D03*
X228937D03*
X230906D03*
X232874D03*
X234843D03*
X236811D03*
X238780D03*
X240748D03*
G54D22*
X203543Y319488D03*
Y317520D03*
Y315551D03*
Y313583D03*
Y311614D03*
Y309646D03*
Y307677D03*
Y305709D03*
Y303740D03*
Y301772D03*
Y299803D03*
Y297835D03*
Y295866D03*
Y293898D03*
Y291929D03*
Y289961D03*
X248425D03*
Y291929D03*
Y293898D03*
Y295866D03*
Y297835D03*
Y299803D03*
Y301772D03*
Y303740D03*
Y305709D03*
Y307677D03*
Y309646D03*
Y311614D03*
Y313583D03*
Y315551D03*
Y317520D03*
Y319488D03*
G54D26*
X155717Y234823D03*
Y229823D03*
Y224823D03*
Y219823D03*
Y214823D03*
Y209823D03*
Y204823D03*
Y199823D03*
X179717D03*
Y204823D03*
Y209823D03*
Y214823D03*
Y219823D03*
Y224823D03*
Y229823D03*
Y234823D03*
G54D27*
X127071Y225197D03*
X139071D03*
X127071Y211811D03*
X139071D03*
X138283Y238583D03*
X126283D03*
X127071Y200000D03*
X139071D03*
G54D28*
X115965Y171654D03*
X107657D03*
G54D29*
X136594Y346268D03*
X141594D03*
X146594D03*
X151594D03*
Y370268D03*
X146594D03*
X141594D03*
X136594D03*
G54D30*
X207087Y247047D03*
Y243307D03*
Y239567D03*
X216535D03*
Y247047D03*
G54D31*
X196457Y365354D03*
X227165D03*
G54D32*
X257354Y377554D03*
Y365754D03*
G54D33*
X269004Y371654D03*
G54D34*
X126772Y155417D03*
Y167417D03*
G54D35*
X125787Y281890D03*
X113583D03*
G54D36*
X138386Y297244D02*
X131890D01*
Y277559*
X138386*
Y279992*
X138243Y280058*
X138237Y280061*
X137988Y280187*
X137982Y280190*
X137738Y280324*
X137732Y280328*
X137493Y280471*
X137487Y280474*
X137253Y280625*
X137247Y280629*
X137019Y280789*
X137013Y280793*
X136790Y280960*
X136785Y280964*
X136568Y281139*
X136562Y281143*
X136352Y281326*
X136346Y281330*
X136142Y281520*
X136137Y281525*
X135940Y281721*
X135935Y281726*
X135744Y281930*
X135740Y281935*
X135557Y282145*
X135552Y282150*
X135376Y282366*
X135372Y282372*
X135204Y282594*
X135200Y282599*
X135040Y282827*
X135036Y282833*
X134884Y283067*
X134880Y283072*
X134736Y283311*
X134733Y283317*
X134597Y283561*
X134594Y283567*
X134467Y283815*
X134464Y283821*
X134346Y284073*
X134344Y284080*
X134234Y284336*
X134232Y284343*
X134132Y284603*
X134129Y284609*
X134038Y284873*
X134036Y284879*
X133955Y285145*
X133953Y285152*
X133881Y285421*
X133879Y285428*
X133816Y285699*
X133815Y285706*
X133761Y285980*
X133760Y285986*
X133717Y286262*
X133716Y286269*
X133682Y286545*
X133681Y286552*
X133657Y286830*
X133656Y286836*
X133642Y287115*
X133641Y287122*
X133636Y287400*
Y287404*
Y287407*
X133641Y287686*
X133642Y287693*
X133656Y287971*
X133657Y287978*
X133681Y288255*
X133682Y288262*
X133716Y288539*
X133717Y288546*
X133761Y288821*
X133762Y288828*
X133816Y289101*
X133817Y289108*
X133880Y289379*
X133882Y289386*
X133954Y289655*
X133956Y289662*
X134038Y289928*
X134040Y289935*
X134131Y290198*
X134133Y290205*
X134233Y290465*
X134236Y290471*
X134345Y290727*
X134348Y290734*
X134466Y290986*
X134469Y290992*
X134596Y291240*
X134599Y291246*
X134735Y291490*
X134738Y291496*
X134882Y291734*
X134886Y291740*
X135038Y291974*
X135042Y291979*
X135203Y292207*
X135207Y292213*
X135375Y292435*
X135379Y292440*
X135555Y292657*
X135559Y292662*
X135743Y292872*
X135747Y292877*
X135938Y293080*
X135943Y293085*
X136140Y293282*
X136145Y293286*
X136350Y293476*
X136355Y293480*
X136566Y293663*
X136571Y293667*
X136788Y293842*
X136793Y293846*
X137016Y294013*
X137022Y294017*
X137251Y294176*
X137257Y294180*
X137491Y294331*
X137497Y294335*
X137736Y294477*
X137742Y294481*
X137986Y294615*
X137992Y294618*
X138241Y294744*
X138247Y294747*
X138386Y294811*
Y297244*
X131890Y277559D02*
Y297244D01*
X132087Y277559D02*
Y297244D01*
X132283Y277559D02*
Y297244D01*
X132480Y277559D02*
Y297244D01*
X132677Y277559D02*
Y297244D01*
X132874Y277559D02*
Y297244D01*
X133071Y277559D02*
Y297244D01*
X133268Y277559D02*
Y297244D01*
X133465Y277559D02*
Y297244D01*
X133661Y277559D02*
Y286774D01*
Y288030D02*
Y297244D01*
X133858Y277559D02*
Y285517D01*
Y289286D02*
Y297244D01*
X134055Y277559D02*
Y284824D01*
Y289979D02*
Y297244D01*
X134252Y277559D02*
Y284295D01*
Y290508D02*
Y297244D01*
X134449Y277559D02*
Y283854D01*
Y290949D02*
Y297244D01*
X134646Y277559D02*
Y283474D01*
Y291329D02*
Y297244D01*
X134843Y277559D02*
Y283135D01*
Y291668D02*
Y297244D01*
X135039Y277559D02*
Y282828D01*
Y291975D02*
Y297244D01*
X135236Y277559D02*
Y282551D01*
Y292252D02*
Y297244D01*
X135433Y277559D02*
Y282296D01*
Y292507D02*
Y297244D01*
X135630Y277559D02*
Y282061D01*
Y292743D02*
Y297244D01*
X135827Y277559D02*
Y281842D01*
Y292962D02*
Y297244D01*
X136024Y277559D02*
Y281638D01*
Y293166D02*
Y297244D01*
X136220Y277559D02*
Y281447D01*
Y293356D02*
Y297244D01*
X136417Y277559D02*
Y281269D01*
Y293535D02*
Y297244D01*
X136614Y277559D02*
Y281101D01*
Y293702D02*
Y297244D01*
X136811Y277559D02*
Y280944D01*
Y293859D02*
Y297244D01*
X137008Y277559D02*
Y280796D01*
Y294007D02*
Y297244D01*
X137205Y277559D02*
Y280659D01*
Y294144D02*
Y297244D01*
X137402Y277559D02*
Y280530D01*
Y294274D02*
Y297244D01*
X137598Y277559D02*
Y280408D01*
Y294395D02*
Y297244D01*
X137795Y277559D02*
Y280293D01*
Y294510D02*
Y297244D01*
X137992Y277559D02*
Y280185D01*
Y294618D02*
Y297244D01*
X138189Y277559D02*
Y280085D01*
Y294718D02*
Y297244D01*
X151575D02*
X145079D01*
Y294811*
X145222Y294745*
X145229Y294742*
X145477Y294616*
X145484Y294613*
X145728Y294479*
X145734Y294475*
X145973Y294333*
X145979Y294329*
X146213Y294178*
X146219Y294174*
X146448Y294015*
X146454Y294011*
X146677Y293844*
X146682Y293840*
X146899Y293665*
X146905Y293660*
X147116Y293478*
X147121Y293474*
X147325Y293284*
X147330Y293279*
X147528Y293083*
X147533Y293078*
X147723Y292874*
X147728Y292869*
X147911Y292659*
X147916Y292654*
X148092Y292438*
X148096Y292432*
X148264Y292210*
X148268Y292204*
X148428Y291976*
X148432Y291971*
X148585Y291737*
X148588Y291731*
X148732Y291493*
X148736Y291487*
X148871Y291243*
X148874Y291237*
X149001Y290989*
X149004Y290983*
X149123Y290730*
X149125Y290724*
X149235Y290467*
X149237Y290461*
X149337Y290201*
X149340Y290194*
X149431Y289931*
X149433Y289924*
X149515Y289658*
X149516Y289651*
X149516D02*
X149589Y289382D01*
X149590Y289375*
X149653Y289104*
X149655Y289097*
X149708Y288823*
X149709Y288817*
X149753Y288541*
X149754Y288534*
X149788Y288258*
X149789Y288251*
X149813Y287973*
Y287966*
X149828Y287688*
Y287681*
X149833Y287402*
Y287399*
Y287395*
X149828Y287117*
Y287110*
X149813Y286831*
Y286825*
X149788Y286547*
X149787Y286540*
X149753Y286263*
X149752Y286257*
X149708Y285981*
X149707Y285974*
X149654Y285701*
X149652Y285694*
X149589Y285423*
X149587Y285416*
X149587D02*
X149515Y285147D01*
X149513Y285140*
X149431Y284874*
X149429Y284867*
X149338Y284604*
X149336Y284597*
X149235Y284337*
X149233Y284331*
X149123Y284074*
X149120Y284068*
X149002Y283816*
X148999Y283809*
X148872Y283561*
X148869Y283555*
X148733Y283312*
X148730Y283306*
X148585Y283067*
X148582Y283061*
X148429Y282828*
X148425Y282822*
X148265Y282594*
X148261Y282589*
X148092Y282367*
X148088Y282361*
X147912Y282145*
X147908Y282140*
X147724Y281930*
X147720Y281925*
X147529Y281721*
X147529D02*
X147524Y281717D01*
X147326Y281520*
X147321Y281515*
X147117Y281326*
X147112Y281321*
X146901Y281139*
X146895Y281135*
X146678Y280960*
X146672Y280956*
X146449Y280789*
X146444Y280785*
X146215Y280626*
X146209Y280622*
X145975Y280471*
X145969Y280468*
X145729Y280325*
X145723Y280322*
X145479Y280188*
X145473Y280184*
X145224Y280059*
X145217Y280056*
X145079Y279992*
Y277559*
X151575*
Y297244*
X145079Y277559D02*
Y279992D01*
Y294811D02*
Y297244D01*
X145276Y277559D02*
Y280085D01*
Y294718D02*
Y297244D01*
X145472Y277559D02*
Y280184D01*
Y294619D02*
Y297244D01*
X145669Y277559D02*
Y280292D01*
Y294511D02*
Y297244D01*
X145866Y277559D02*
Y280407D01*
Y294396D02*
Y297244D01*
X146063Y277559D02*
Y280528D01*
Y294275D02*
Y297244D01*
X146260Y277559D02*
Y280657D01*
Y294146D02*
Y297244D01*
X146457Y277559D02*
Y280795D01*
Y294009D02*
Y297244D01*
X146654Y277559D02*
Y280942D01*
Y293861D02*
Y297244D01*
X146850Y277559D02*
Y281099D01*
Y293704D02*
Y297244D01*
X147047Y277559D02*
Y281266D01*
Y293537D02*
Y297244D01*
X147244Y277559D02*
Y281444D01*
Y293359D02*
Y297244D01*
X147441Y277559D02*
Y281634D01*
Y293169D02*
Y297244D01*
X147638Y277559D02*
Y281838D01*
Y292965D02*
Y297244D01*
X147835Y277559D02*
Y282056D01*
Y292747D02*
Y297244D01*
X148031Y277559D02*
Y282291D01*
Y292512D02*
Y297244D01*
X148228Y277559D02*
Y282546D01*
Y292257D02*
Y297244D01*
X148425Y277559D02*
Y282822D01*
Y291981D02*
Y297244D01*
X148622Y277559D02*
Y283128D01*
Y291675D02*
Y297244D01*
X148819Y277559D02*
Y283466D01*
Y291337D02*
Y297244D01*
X149016Y277559D02*
Y283845D01*
Y290958D02*
Y297244D01*
X149213Y277559D02*
Y284284D01*
Y290519D02*
Y297244D01*
X149409Y277559D02*
Y284810D01*
Y289993D02*
Y297244D01*
X149606Y277559D02*
Y285496D01*
Y289307D02*
Y297244D01*
X149803Y277559D02*
Y286718D01*
Y288085D02*
Y297244D01*
X150000Y277559D02*
Y297244D01*
X150197Y277559D02*
Y297244D01*
X150394Y277559D02*
Y297244D01*
X150591Y277559D02*
Y297244D01*
X150787Y277559D02*
Y297244D01*
X150984Y277559D02*
Y297244D01*
X151181Y277559D02*
Y297244D01*
X151378Y277559D02*
Y297244D01*
G54D37*
X273354Y368804D02*
Y374504D01*
X262654*
Y373274*
X262605Y373124*
X262512Y372996*
X262384Y372902*
X262234Y372854*
X255354*
Y370454*
X262234*
X262384Y370405*
X262512Y370312*
X262605Y370183*
X262654Y370033*
Y368804*
X273354*
X255354Y370454D02*
Y372854D01*
X255854Y370454D02*
Y372854D01*
X256354Y370454D02*
Y372854D01*
X256854Y370454D02*
Y372854D01*
X257354Y370454D02*
Y372854D01*
X257854Y370454D02*
Y372854D01*
X258354Y370454D02*
Y372854D01*
X258854Y370454D02*
Y372854D01*
X259354Y370454D02*
Y372854D01*
X259854Y370454D02*
Y372854D01*
X260354Y370454D02*
Y372854D01*
X260854Y370454D02*
Y372854D01*
X261354Y370454D02*
Y372854D01*
X261854Y370454D02*
Y372854D01*
X262354Y370414D02*
Y372893D01*
X262854Y368804D02*
Y374504D01*
X263354Y368804D02*
Y374504D01*
X263854Y368804D02*
Y374504D01*
X264354Y368804D02*
Y374504D01*
X264854Y368804D02*
Y374504D01*
X265354Y368804D02*
Y374504D01*
X265854Y368804D02*
Y374504D01*
X266354Y368804D02*
Y374504D01*
X266854Y368804D02*
Y374504D01*
X267354Y368804D02*
Y374504D01*
X267854Y368804D02*
Y374504D01*
X268354Y368804D02*
Y374504D01*
X268854Y368804D02*
Y374504D01*
X269354Y368804D02*
Y374504D01*
X269854Y368804D02*
Y374504D01*
X270354Y368804D02*
Y374504D01*
X270854Y368804D02*
Y374504D01*
X271354Y368804D02*
Y374504D01*
X271854Y368804D02*
Y374504D01*
X272354Y368804D02*
Y374504D01*
X272854Y368804D02*
Y374504D01*
X281102Y403150D02*
G03X277165Y407087I-3937J-0D01*
G01X103937*
G03X100000Y403150I0J-3937*
G01Y371654*
X96063Y367717D02*
G03X100000Y371654I-0J3937D01*
G01X96063Y367717D02*
X84252D01*
G03X80315Y363780I-0J-3937*
G01Y218110*
G03X84252Y214173I3937J0*
G01X96063*
X100000Y210236D02*
G03X96063Y214173I-3937J0D01*
G01X100000Y210236D02*
Y103937D01*
G03X103937Y100000I3937J0*
G01X143307*
G03X147244Y103937I0J3937*
G01Y172835*
X164961Y190551D02*
G03X147244Y172835I-0J-17716D01*
G01X164961Y190551D02*
X277165D01*
G03X281102Y194488I0J3937*
G01Y403150*
G54D84*
X174213Y249705D03*
Y252264D03*
Y254823D03*
Y257382D03*
X159646D03*
Y254823D03*
Y252264D03*
Y249705D03*
G74*
X0Y0D02*
M02*
