*
*
G04 PADS 9.5 Build Number: 522968 generated Gerber (RS-274-X) file*
G04 PC Version=2.1*
*
%IN "MPD-MAIN_PCB_V1.0_20190"*%
*
%MOIN*%
*
%FSLAX35Y35*%
*
*
*
*
G04 PC Standard Apertures*
*
*
G04 Thermal Relief Aperture macro.*
%AMTER*
1,1,$1,0,0*
1,0,$1-$2,0,0*
21,0,$3,$4,0,0,45*
21,0,$3,$4,0,0,135*
%
*
*
G04 Annular Aperture macro.*
%AMANN*
1,1,$1,0,0*
1,0,$2,0,0*
%
*
*
G04 Odd Aperture macro.*
%AMODD*
1,1,$1,0,0*
1,0,$1-0.005,0,0*
%
*
*
G04 PC Custom Aperture Macros*
*
*
*
*
*
*
G04 PC Aperture Table*
*
%ADD010C,0.001*%
%ADD036C,0.00394*%
%ADD037C,0.01*%
%ADD073C,0.00787*%
%ADD076C,0.006*%
%ADD080C,0.00472*%
*
*
*
*
G04 PC Circuitry*
G04 Layer Name MPD-MAIN_PCB_V1.0_20190 - circuitry*
%LPD*%
*
*
G04 PC Custom Flashes*
G04 Layer Name MPD-MAIN_PCB_V1.0_20190 - flashes*
%LPD*%
*
*
G04 PC Circuitry*
G04 Layer Name MPD-MAIN_PCB_V1.0_20190 - circuitry*
%LPD*%
*
G54D10*
G01X273396Y395315D02*
G75*
G03X273396I-4134J0D01*
G01Y202402D02*
G03X273396I-4134J0D01*
G01X115915Y395315D02*
G03X115915I-4133J0D01*
G01Y202402D02*
G03X115915I-4133J0D01*
G54D36*
G01X210630Y369685D02*
X198819D01*
Y365748*
X210630*
Y369685*
X195669D02*
X183858D01*
Y365748*
X195669*
Y369685*
X225591D02*
X213780D01*
Y365748*
X225591*
Y369685*
X115846Y292008D02*
X134547D01*
Y276496*
X115846*
Y292008*
X240551Y369685D02*
X228740D01*
Y365748*
X240551*
Y369685*
X255512D02*
X243701D01*
Y365748*
X255512*
Y369685*
G54D37*
X125197Y281102D02*
Y287402D01*
Y284252D02*
X122047Y281102D01*
Y287402*
X125197Y284252*
X128346Y281102*
Y287402*
X125197Y284252*
X122835Y282677D02*
Y285827D01*
X124409Y284252*
X122835Y282677*
X127559D02*
Y285827D01*
X125984Y284252*
X127559Y282677*
X122835Y284252D02*
X127559D01*
X281102Y403150D02*
G03X277165Y407087I-3937J-0D01*
G01X103937*
G03X100000Y403150I0J-3937*
G01Y371654*
X96063Y367717D02*
G03X100000Y371654I-0J3937D01*
G01X96063Y367717D02*
X84252D01*
G03X80315Y363780I-0J-3937*
G01Y218110*
G03X84252Y214173I3937J0*
G01X96063*
X100000Y210236D02*
G03X96063Y214173I-3937J0D01*
G01X100000Y210236D02*
Y103937D01*
G03X103937Y100000I3937J0*
G01X143307*
G03X147244Y103937I0J3937*
G01Y172835*
X164961Y190551D02*
G03X147244Y172835I-0J-17716D01*
G01X164961Y190551D02*
X277165D01*
G03X281102Y194488I0J3937*
G01Y403150*
G54D73*
X110039Y263976D02*
X116732D01*
Y258858*
X110039*
Y263976*
X111811Y259055D02*
Y263780D01*
Y261417D02*
X114961Y259843D01*
Y262992*
X111811Y261417*
X112598D02*
X114567Y260630D01*
Y262205*
X112598Y261417*
X113386D02*
X114173Y261024D01*
Y261811*
X113386Y261417*
X110039Y273425D02*
X116732D01*
Y268307*
X110039*
Y273425*
X111811Y268504D02*
Y273228D01*
Y270866D02*
X114961Y269291D01*
Y272441*
X111811Y270866*
X112598D02*
X114567Y270079D01*
Y271654*
X112598Y270866*
X113386D02*
X114173Y270472D01*
Y271260*
X113386Y270866*
X110039Y244291D02*
X116732D01*
Y239173*
X110039*
Y244291*
X111811Y239370D02*
Y244094D01*
Y241732D02*
X114961Y240157D01*
Y243307*
X111811Y241732*
X112598D02*
X114567Y240945D01*
Y242520*
X112598Y241732*
X113386D02*
X114173Y241339D01*
Y242126*
X113386Y241732*
G54D76*
X193701Y344882D02*
X190551D01*
X194882Y338976D02*
Y350787D01*
X189370*
Y338976*
X194882*
X192126Y344094D02*
Y345669D01*
X209449Y344882D02*
X206299D01*
X210630Y338976D02*
Y350787D01*
X205118*
Y338976*
X210630*
X207874Y344094D02*
Y345669D01*
X225197Y344882D02*
X222047D01*
X226378Y338976D02*
Y350787D01*
X220866*
Y338976*
X226378*
X223622Y344094D02*
Y345669D01*
X240157Y344882D02*
X237008D01*
X241339Y338976D02*
Y350787D01*
X235827*
Y338976*
X241339*
X238583Y344094D02*
Y345669D01*
X255118Y344882D02*
X251969D01*
X256299Y338976D02*
Y350787D01*
X250787*
Y338976*
X256299*
X253543Y344094D02*
Y345669D01*
X199213Y344882D02*
X202362D01*
X198031Y350787D02*
Y338976D01*
X203543*
Y350787*
X198031*
X200787Y345669D02*
Y344094D01*
X214961Y344882D02*
X218110D01*
X213780Y350787D02*
Y338976D01*
X219291*
Y350787*
X213780*
X216535Y345669D02*
Y344094D01*
X229921Y344882D02*
X233071D01*
X228740Y350787D02*
Y338976D01*
X234252*
Y350787*
X228740*
X231496Y345669D02*
Y344094D01*
X244882Y344882D02*
X248031D01*
X243701Y350787D02*
Y338976D01*
X249213*
Y350787*
X243701*
X246457Y345669D02*
Y344094D01*
X183465Y344882D02*
X186614D01*
X182283Y350787D02*
Y338976D01*
X187795*
Y350787*
X182283*
X185039Y345669D02*
Y344094D01*
G54D80*
X127559Y262943D02*
Y259843D01*
Y262943D02*
X126807D01*
X126485Y262795*
X126271Y262500*
X126163Y262205*
X126056Y261762*
Y261024*
X126163Y260581*
X126271Y260285*
X126485Y259990*
X126807Y259843*
X127559*
X124875Y262943D02*
X123694D01*
X124338Y261762*
X124016*
X123801Y261614*
X123694Y261467*
X123586Y261024*
Y260728*
X123694Y260285*
X123908Y259990*
X124230Y259843*
X124553*
X124875Y259990*
X124982Y260138*
X125089Y260433*
X128346Y272392D02*
Y269291D01*
Y272392D02*
X127595D01*
X127273Y272244*
X127058Y271949*
X126951Y271654*
X126843Y271211*
Y270472*
X126951Y270030*
X127058Y269734*
X127273Y269439*
X127595Y269291*
X128346*
X124803Y272392D02*
X125877Y270325D01*
X124266*
X124803Y272392D02*
Y269291D01*
X126772Y243258D02*
Y240157D01*
Y243258D02*
X126020D01*
X125698Y243110*
X125483Y242815*
X125376Y242520*
X125268Y242077*
Y241339*
X125376Y240896*
X125483Y240600*
X125698Y240305*
X126020Y240157*
X126772*
X122906Y243258D02*
X123980D01*
X124087Y241929*
X123980Y242077*
X123658Y242224*
X123336*
X123014Y242077*
X122799Y241781*
X122691Y241339*
X122799Y241043*
X122906Y240600*
X123121Y240305*
X123443Y240157*
X123765*
X124087Y240305*
X124195Y240453*
X124302Y240748*
X212742Y376845D02*
X212956Y376698D01*
X213171Y376403*
X213278Y376107*
X213386Y375664*
Y374926*
X213278Y374483*
X213171Y374188*
X212956Y373893*
X212742Y373745*
X212312*
X212097Y373893*
X211883Y374188*
X211775Y374483*
X211668Y374926*
Y375664*
X211775Y376107*
X211883Y376403*
X212097Y376698*
X212312Y376845*
X212742*
X212419Y374336D02*
X211775Y373450D01*
X209306Y376845D02*
X210379D01*
X210487Y375517*
X210379Y375664*
X210057Y375812*
X209735*
X209413Y375664*
X209198Y375369*
X209091Y374926*
X209198Y374631*
X209306Y374188*
X209520Y373893*
X209843Y373745*
X210165*
X210487Y373893*
X210594Y374040*
X210702Y374336*
X196994Y376845D02*
X197208Y376698D01*
X197423Y376403*
X197530Y376107*
X197638Y375664*
Y374926*
X197530Y374483*
X197423Y374188*
X197208Y373893*
X196994Y373745*
X196564*
X196349Y373893*
X196135Y374188*
X196027Y374483*
X195920Y374926*
Y375664*
X196027Y376107*
X196135Y376403*
X196349Y376698*
X196564Y376845*
X196994*
X196671Y374336D02*
X196027Y373450D01*
X193880Y376845D02*
X194953Y374779D01*
X193343*
X193880Y376845D02*
Y373745D01*
X227595Y376845D02*
X227810Y376698D01*
X228024Y376403*
X228132Y376107*
X228239Y375664*
Y374926*
X228132Y374483*
X228024Y374188*
X227810Y373893*
X227595Y373745*
X227165*
X226951Y373893*
X226736Y374188*
X226628Y374483*
X226521Y374926*
Y375664*
X226628Y376107*
X226736Y376403*
X226951Y376698*
X227165Y376845*
X227595*
X227273Y374336D02*
X226628Y373450D01*
X224266Y376403D02*
X224374Y376698D01*
X224696Y376845*
X224911*
X225233Y376698*
X225447Y376255*
X225555Y375517*
Y374779*
X225447Y374188*
X225233Y373893*
X224911Y373745*
X224803*
X224481Y373893*
X224266Y374188*
X224159Y374631*
Y374779*
X224266Y375221*
X224481Y375517*
X224803Y375664*
X224911*
X225233Y375517*
X225447Y375221*
X225555Y374779*
X127559Y296801D02*
Y293701D01*
Y296801D02*
X126807D01*
X126485Y296654*
X126271Y296358*
X126163Y296063*
X126056Y295620*
Y294882*
X126163Y294439*
X126271Y294144*
X126485Y293848*
X126807Y293701*
X127559*
X124982Y296063D02*
Y296211D01*
X124875Y296506*
X124767Y296654*
X124553Y296801*
X124123*
X123908Y296654*
X123801Y296506*
X123694Y296211*
Y295915*
X123801Y295620*
X124016Y295177*
X125089Y293701*
X123586*
X241822Y376845D02*
X242037Y376698D01*
X242251Y376403*
X242359Y376107*
X242466Y375664*
Y374926*
X242359Y374483*
X242251Y374188*
X242037Y373893*
X241822Y373745*
X241392*
X241178Y373893*
X240963Y374188*
X240855Y374483*
X240748Y374926*
Y375664*
X240855Y376107*
X240963Y376403*
X241178Y376698*
X241392Y376845*
X241822*
X241500Y374336D02*
X240855Y373450D01*
X238278Y376845D02*
X239352Y373745D01*
X239782Y376845D02*
X238278D01*
X256782D02*
X256997Y376698D01*
X257212Y376403*
X257319Y376107*
X257427Y375664*
Y374926*
X257319Y374483*
X257212Y374188*
X256997Y373893*
X256782Y373745*
X256353*
X256138Y373893*
X255923Y374188*
X255816Y374483*
X255709Y374926*
Y375664*
X255816Y376107*
X255923Y376403*
X256138Y376698*
X256353Y376845*
X256782*
X256460Y374336D02*
X255816Y373450D01*
X254205Y376845D02*
X254528Y376698D01*
X254635Y376403*
Y376107*
X254528Y375812*
X254313Y375664*
X253883Y375517*
X253561Y375369*
X253346Y375074*
X253239Y374779*
Y374336*
X253346Y374040*
X253454Y373893*
X253776Y373745*
X254205*
X254528Y373893*
X254635Y374040*
X254742Y374336*
Y374779*
X254635Y375074*
X254420Y375369*
X254098Y375517*
X253669Y375664*
X253454Y375812*
X253346Y376107*
Y376403*
X253454Y376698*
X253776Y376845*
X254205*
X193701Y355069D02*
Y351969D01*
Y355069D02*
X192734D01*
X192412Y354921*
X192305Y354774*
X192198Y354478*
Y354183*
X192305Y353888*
X192412Y353740*
X192734Y353593*
X193701*
X192949D02*
X192198Y351969D01*
X191231Y354478D02*
X191016Y354626D01*
X190694Y355069*
Y351969*
X211024Y355069D02*
Y351969D01*
Y355069D02*
X210057D01*
X209735Y354921*
X209628Y354774*
X209520Y354478*
Y354183*
X209628Y353888*
X209735Y353740*
X210057Y353593*
X211024*
X210272D02*
X209520Y351969D01*
X208447Y354331D02*
Y354478D01*
X208339Y354774*
X208232Y354921*
X208017Y355069*
X207588*
X207373Y354921*
X207266Y354774*
X207158Y354478*
Y354183*
X207266Y353888*
X207480Y353445*
X208554Y351969*
X207051*
X206084Y354478D02*
X205870Y354626D01*
X205548Y355069*
Y351969*
X226772Y355069D02*
Y351969D01*
Y355069D02*
X225805D01*
X225483Y354921*
X225376Y354774*
X225268Y354478*
Y354183*
X225376Y353888*
X225483Y353740*
X225805Y353593*
X226772*
X226020D02*
X225268Y351969D01*
X224195Y354331D02*
Y354478D01*
X224087Y354774*
X223980Y354921*
X223765Y355069*
X223336*
X223121Y354921*
X223014Y354774*
X222906Y354478*
Y354183*
X223014Y353888*
X223228Y353445*
X224302Y351969*
X222799*
X221725Y354331D02*
Y354478D01*
X221618Y354774*
X221510Y354921*
X221296Y355069*
X220866*
X220651Y354921*
X220544Y354774*
X220437Y354478*
Y354183*
X220544Y353888*
X220759Y353445*
X221832Y351969*
X221832D02*
X220329D01*
X241732Y355069D02*
Y351969D01*
Y355069D02*
X240766D01*
X240444Y354921*
X240336Y354774*
X240229Y354478*
Y354183*
X240336Y353888*
X240444Y353740*
X240766Y353593*
X241732*
X240981D02*
X240229Y351969D01*
X239155Y354331D02*
Y354478D01*
X239048Y354774*
X238941Y354921*
X238726Y355069*
X238296*
X238082Y354921*
X237974Y354774*
X237867Y354478*
Y354183*
X237974Y353888*
X238189Y353445*
X239263Y351969*
X237759*
X236578Y355069D02*
X235397D01*
X236042Y353888*
X235719*
X235505Y353740*
X235397Y353593*
X235290Y353150*
Y352854*
X235397Y352411*
X235612Y352116*
X235934Y351969*
X236256*
X236578Y352116*
X236686Y352264*
X236793Y352559*
X257480Y355069D02*
Y351969D01*
Y355069D02*
X256514D01*
X256192Y354921*
X256084Y354774*
X255977Y354478*
Y354183*
X256084Y353888*
X256192Y353740*
X256514Y353593*
X257480*
X256729D02*
X255977Y351969D01*
X254903Y354331D02*
Y354478D01*
X254796Y354774*
X254689Y354921*
X254474Y355069*
X254044*
X253830Y354921*
X253722Y354774*
X253615Y354478*
Y354183*
X253722Y353888*
X253937Y353445*
X255011Y351969*
X253508*
X252004Y355069D02*
X252326Y354921D01*
X252434Y354626*
Y354331*
X252326Y354035*
X252112Y353888*
X251682Y353740*
X251360Y353593*
X251145Y353297*
X251038Y353002*
Y352559*
X251145Y352264*
X251253Y352116*
X251575Y351969*
X252004*
X252326Y352116*
X252434Y352264*
X252541Y352559*
Y353002*
X252434Y353297*
X252219Y353593*
X251897Y353740*
X251467Y353888*
X251253Y354035*
X251145Y354331*
Y354626*
X251253Y354921*
X251575Y355069*
X252004*
X203150D02*
Y351969D01*
Y355069D02*
X202183D01*
X201861Y354921*
X201754Y354774*
X201646Y354478*
Y354183*
X201754Y353888*
X201861Y353740*
X202183Y353593*
X203150*
X202398D02*
X201646Y351969D01*
X200573Y354331D02*
Y354478D01*
X200465Y354774*
X200358Y354921*
X200143Y355069*
X199714*
X199499Y354921*
X199392Y354774*
X199284Y354478*
Y354183*
X199392Y353888*
X199606Y353445*
X200680Y351969*
X199177*
X196815Y354035D02*
X196922Y353593D01*
X197137Y353297*
X197459Y353150*
X197566*
X197888Y353297*
X198103Y353593*
X198210Y354035*
Y354183*
X198103Y354626*
X197888Y354921*
X197566Y355069*
X197459*
X197137Y354921*
X196922Y354626*
X196815Y354035*
Y353297*
X196922Y352559*
X197137Y352116*
X197459Y351969*
X197674*
X197996Y352116*
X198103Y352411*
X218898Y355069D02*
Y351969D01*
Y355069D02*
X217931D01*
X217609Y354921*
X217502Y354774*
X217394Y354478*
Y354183*
X217502Y353888*
X217609Y353740*
X217931Y353593*
X218898*
X218146D02*
X217394Y351969D01*
X216213Y355069D02*
X215032D01*
X215676Y353888*
X215354*
X215140Y353740*
X215032Y353593*
X214925Y353150*
Y352854*
X215032Y352411*
X215247Y352116*
X215569Y351969*
X215891*
X216213Y352116*
X216321Y352264*
X216428Y352559*
X213744Y355069D02*
X212563D01*
X213207Y353888*
X212885*
X212670Y353740*
X212563Y353593*
X212455Y353150*
Y352854*
X212563Y352411*
X212777Y352116*
X213099Y351969*
X213099D02*
X213422D01*
X213744Y352116*
X213851Y352264*
X213958Y352559*
X234646Y355069D02*
Y351969D01*
Y355069D02*
X233679D01*
X233357Y354921*
X233250Y354774*
X233142Y354478*
Y354183*
X233250Y353888*
X233357Y353740*
X233679Y353593*
X234646*
X233894D02*
X233142Y351969D01*
X231961Y355069D02*
X230780D01*
X231424Y353888*
X231102*
X230888Y353740*
X230780Y353593*
X230673Y353150*
Y352854*
X230780Y352411*
X230995Y352116*
X231317Y351969*
X231639*
X231961Y352116*
X232069Y352264*
X232176Y352559*
X228203Y355069D02*
X229277Y351969D01*
X229707Y355069D02*
X228203D01*
X249606D02*
Y351969D01*
Y355069D02*
X248640D01*
X248318Y354921*
X248210Y354774*
X248103Y354478*
Y354183*
X248210Y353888*
X248318Y353740*
X248640Y353593*
X249606*
X248855D02*
X248103Y351969D01*
X246922Y355069D02*
X245741D01*
X246385Y353888*
X246063*
X245848Y353740*
X245741Y353593*
X245634Y353150*
X245634D02*
Y352854D01*
X245634D02*
X245741Y352411D01*
X245956Y352116*
X246278Y351969*
X246600*
X246922Y352116*
X247029Y352264*
X247137Y352559*
X244130Y355069D02*
X244452Y354921D01*
X244560Y354626*
Y354331*
X244452Y354035*
X244238Y353888*
X243808Y353740*
X243486Y353593*
X243271Y353297*
X243164Y353002*
Y352559*
X243271Y352264*
X243379Y352116*
X243701Y351969*
X244130*
X244452Y352116*
X244560Y352264*
X244667Y352559*
Y353002*
X244560Y353297*
X244345Y353593*
X244023Y353740*
X243593Y353888*
X243379Y354035*
X243271Y354331*
Y354626*
X243379Y354921*
X243701Y355069*
X244130*
X186614D02*
Y351969D01*
Y355069D02*
X185648D01*
X185326Y354921*
X185218Y354774*
X185111Y354478*
Y354183*
X185218Y353888*
X185326Y353740*
X185648Y353593*
X186614*
X185863D02*
X185111Y351969D01*
X182856Y354626D02*
X182963Y354921D01*
X183286Y355069*
X183500*
X183822Y354921*
X184037Y354478*
X184145Y353740*
Y353002*
X184037Y352411*
X183822Y352116*
X183500Y351969*
X183393*
X183071Y352116*
X182856Y352411*
X182749Y352854*
Y353002*
X182856Y353445*
X183071Y353740*
X183393Y353888*
X183500*
X183822Y353740*
X184037Y353445*
X184145Y353002*
G74*
X0Y0D02*
M02*
