*
*
G04 PADS 9.5 Build Number: 522968 generated Gerber (RS-274-X) file*
G04 PC Version=2.1*
*
%IN "Plasma_Pipette_V4.0_Mai"*%
*
%MOIN*%
*
%FSLAX35Y35*%
*
*
*
*
G04 PC Standard Apertures*
*
*
G04 Thermal Relief Aperture macro.*
%AMTER*
1,1,$1,0,0*
1,0,$1-$2,0,0*
21,0,$3,$4,0,0,45*
21,0,$3,$4,0,0,135*
%
*
*
G04 Annular Aperture macro.*
%AMANN*
1,1,$1,0,0*
1,0,$2,0,0*
%
*
*
G04 Odd Aperture macro.*
%AMODD*
1,1,$1,0,0*
1,0,$1-0.005,0,0*
%
*
*
G04 PC Custom Aperture Macros*
*
*
*
*
*
*
G04 PC Aperture Table*
*
%ADD010C,0.001*%
%ADD020C,0.00394*%
%ADD047O,0.08858X0.05315*%
%ADD048C,0.0374*%
%ADD051C,0.08071*%
%ADD052C,0.07283*%
%ADD106R,0.07283X0.07283*%
*
*
*
*
G04 PC Circuitry*
G04 Layer Name Plasma_Pipette_V4.0_Mai - circuitry*
%LPD*%
*
*
G04 PC Custom Flashes*
G04 Layer Name Plasma_Pipette_V4.0_Mai - flashes*
%LPD*%
*
*
G04 PC Circuitry*
G04 Layer Name Plasma_Pipette_V4.0_Mai - circuitry*
%LPD*%
*
G54D10*
G54D20*
G01X102224Y335531D02*
X102378Y335543D01*
X102529Y335575*
X102674Y335629*
X102810Y335703*
X102933Y335796*
X103043Y335905*
X103135Y336029*
X103209Y336164*
X103263Y336309*
X103296Y336460*
X103307Y336614*
Y343701*
X103296Y343855*
X103263Y344006*
X103209Y344151*
X103135Y344286*
X103043Y344410*
X102933Y344519*
X102810Y344612*
X102674Y344686*
X102529Y344740*
X102378Y344772*
X102224Y344783*
X99862*
X99708Y344772*
X99557Y344740*
X99412Y344686*
X99277Y344612*
X99153Y344519*
X99044Y344410*
X98951Y344286*
X98877Y344151*
X98823Y344006*
X98791Y343855*
X98780Y343701*
Y336614*
X98791Y336460*
X98823Y336309*
X98877Y336164*
X98951Y336029*
X99044Y335905*
X99153Y335796*
X99277Y335703*
X99412Y335629*
X99557Y335575*
X99708Y335543*
X99862Y335531*
X102224*
X98780Y336614D02*
Y343701D01*
X98976Y335995D02*
Y344319D01*
X99173Y335781D02*
Y344534D01*
X99370Y335652D02*
Y344662D01*
X99567Y335573D02*
Y344742D01*
X99764Y335539D02*
Y344776D01*
X99961Y335531D02*
Y344783D01*
X100157Y335531D02*
Y344783D01*
X100354Y335531D02*
Y344783D01*
X100551Y335531D02*
Y344783D01*
X100748Y335531D02*
Y344783D01*
X100945Y335531D02*
Y344783D01*
X101142Y335531D02*
Y344783D01*
X101339Y335531D02*
Y344783D01*
X101535Y335531D02*
Y344783D01*
X101732Y335531D02*
Y344783D01*
X101929Y335531D02*
Y344783D01*
X102126Y335531D02*
Y344783D01*
X102323Y335539D02*
Y344776D01*
X102520Y335573D02*
Y344742D01*
X102717Y335652D02*
Y344662D01*
X102913Y335781D02*
Y344534D01*
X103110Y335995D02*
Y344319D01*
X102224Y311909D02*
X102378Y311920D01*
X102529Y311953*
X102674Y312007*
X102810Y312081*
X102933Y312174*
X103043Y312283*
X103135Y312407*
X103209Y312542*
X103263Y312687*
X103296Y312838*
X103307Y312992*
Y320079*
X103296Y320233*
X103263Y320384*
X103209Y320529*
X103209D02*
X103135Y320664D01*
X103043Y320788*
X102933Y320897*
X102810Y320990*
X102674Y321064*
X102529Y321118*
X102378Y321150*
X102224Y321161*
X99862*
X99708Y321150*
X99557Y321118*
X99412Y321064*
X99277Y320990*
X99153Y320897*
X99044Y320788*
X98951Y320664*
X98877Y320529*
X98877D02*
X98823Y320384D01*
X98791Y320233*
X98780Y320079*
Y312992*
X98791Y312838*
X98823Y312687*
X98877Y312542*
X98951Y312407*
X99044Y312283*
X99153Y312174*
X99277Y312081*
X99412Y312007*
X99557Y311953*
X99708Y311920*
X99862Y311909*
X102224*
X98780Y312992D02*
Y320079D01*
X98976Y312373D02*
Y320697D01*
X99173Y312159D02*
Y320912D01*
X99370Y312030D02*
Y321040D01*
X99567Y311951D02*
Y321120D01*
X99764Y311916D02*
Y321154D01*
X99961Y311909D02*
Y321161D01*
X100157Y311909D02*
Y321161D01*
X100354Y311909D02*
Y321161D01*
X100551Y311909D02*
Y321161D01*
X100748Y311909D02*
Y321161D01*
X100945Y311909D02*
Y321161D01*
X101142Y311909D02*
Y321161D01*
X101339Y311909D02*
Y321161D01*
X101535Y311909D02*
Y321161D01*
X101732Y311909D02*
Y321161D01*
X101929Y311909D02*
Y321161D01*
X102126Y311909D02*
Y321161D01*
X102323Y311916D02*
Y321154D01*
X102520Y311951D02*
Y321120D01*
X102717Y312030D02*
Y321040D01*
X102913Y312159D02*
Y320912D01*
X103110Y312373D02*
Y320697D01*
X103937Y68521D02*
X237795Y68481D01*
Y129527*
X239764Y131496D02*
G75*
G03X237795Y129527I0J-1969D01*
G01X239764Y131496D02*
X243684Y131495D01*
X249134Y218110*
X249141*
G03X249215Y218180I0J74*
G01X251613Y257480*
X251614*
X258582Y368059*
G03X251509Y375591I-7073J445*
G01X178739*
X178741Y375354*
X170866Y375350D02*
G03X178741Y375357I3938J124D01*
G01X170866Y375354D02*
Y375591D01*
X147244*
Y323228*
X144488Y320472D02*
G03X147244Y323228I0J2756D01*
G01X144488Y320472D02*
X126378D01*
X123622Y323228D02*
G03X126378Y320472I2756J0D01*
G01X123622Y323228D02*
Y375591D01*
X90223*
G03X83151Y368059I0J-7087*
G01X84548Y346437*
X84567Y346379*
Y344764*
X83780Y343976D02*
G03X84567Y344764I-0J788D01*
G01X83780Y343976D02*
X83583D01*
G03X82795Y343189I-0J-787*
G01Y313780*
G03X83976Y312598I1181J-0*
G01X85551*
X86732Y311417D02*
G03X85551Y312598I-1181J0D01*
G01X86732Y311417D02*
Y311153D01*
X86851Y309686*
X90136Y257480*
X90141*
X92582Y218110*
X92598*
X98039Y131496*
X101969*
X103937Y129528D02*
G03X101969Y131496I-1968J-0D01*
G01X103937Y129528D02*
Y68521D01*
G54D47*
X90709Y339075D03*
Y317618D03*
G54D48*
X158465Y78150D03*
X163386D03*
X168307D03*
X173228D03*
X178150D03*
X183071D03*
G54D51*
X92126Y367717D03*
X249606D03*
G54D52*
X174803Y375591D03*
Y353937D03*
X127165Y92520D03*
X225197D03*
G54D106*
X117323D03*
X215354D03*
G74*
X0Y0D02*
M02*
