*
*
G04 PADS 9.5 Build Number: 522968 generated Gerber (RS-274-X) file*
G04 PC Version=2.1*
*
%IN "Plasma_Pipette_V4.0_Mai"*%
*
%MOIN*%
*
%FSLAX35Y35*%
*
*
*
*
G04 PC Standard Apertures*
*
*
G04 Thermal Relief Aperture macro.*
%AMTER*
1,1,$1,0,0*
1,0,$1-$2,0,0*
21,0,$3,$4,0,0,45*
21,0,$3,$4,0,0,135*
%
*
*
G04 Annular Aperture macro.*
%AMANN*
1,1,$1,0,0*
1,0,$2,0,0*
%
*
*
G04 Odd Aperture macro.*
%AMODD*
1,1,$1,0,0*
1,0,$1-0.005,0,0*
%
*
*
G04 PC Custom Aperture Macros*
*
*
*
*
*
*
G04 PC Aperture Table*
*
%ADD010C,0.001*%
%ADD011R,0.01969X0.01969*%
%ADD012R,0.04724X0.04724*%
%ADD013R,0.06299X0.01969*%
%ADD017R,0.0315X0.0315*%
%ADD020C,0.00394*%
%ADD028R,0.02362X0.03937*%
%ADD029R,0.01181X0.05906*%
%ADD030R,0.05906X0.01181*%
%ADD034R,0.02028X0.2*%
%ADD035R,0.05315X0.01575*%
%ADD036R,0.07874X0.06004*%
%ADD037R,0.08858X0.04724*%
%ADD039R,0.03543X0.01575*%
%ADD040R,0.05906X0.07874*%
%ADD041R,0.07874X0.08661*%
%ADD042R,0.04724X0.07087*%
%ADD074R,0.05433X0.02953*%
%ADD075R,0.09134X0.04331*%
%ADD076R,0.0315X0.07874*%
%ADD092R,0.02756X0.03937*%
%ADD093R,0.02165X0.02323*%
%ADD098R,0.08898X0.08504*%
%ADD100R,0.03937X0.03937*%
%ADD101R,0.02362X0.01378*%
%ADD102R,0.06299X0.08268*%
%ADD110R,0.03543X0.03937*%
*
*
*
*
G04 PC Circuitry*
G04 Layer Name Plasma_Pipette_V4.0_Mai - circuitry*
%LPD*%
*
*
G04 PC Custom Flashes*
G04 Layer Name Plasma_Pipette_V4.0_Mai - flashes*
%LPD*%
*
*
G04 PC Circuitry*
G04 Layer Name Plasma_Pipette_V4.0_Mai - circuitry*
%LPD*%
*
G54D10*
G54D11*
G01X202362Y137008D03*
X205512D03*
X164370Y208268D03*
X167520D03*
X172441Y262992D03*
X169291D03*
X172441Y280315D03*
X169291D03*
X225984Y312598D03*
X222835D03*
X224409Y241732D03*
X221260D03*
X241732Y292913D03*
X244882D03*
X193898Y312283D03*
Y315433D03*
X172441Y288976D03*
X169291D03*
X170472Y314173D03*
X167323D03*
X115748Y165354D03*
X118898D03*
X115748Y160630D03*
X118898D03*
X172441Y284252D03*
X169291D03*
X141732Y218898D03*
X138583D03*
X141732Y205512D03*
X138583D03*
X233150Y184882D03*
Y181732D03*
X149606Y292913D03*
X152756D03*
X205512Y133071D03*
X202362D03*
Y140945D03*
X205512D03*
X148031Y274803D03*
Y271654D03*
X172441Y272441D03*
X169291D03*
X113386Y273228D03*
Y270079D03*
X222835Y317323D03*
X225984D03*
X125197Y307087D03*
X128346D03*
X149606Y311024D03*
X152756D03*
X149606Y307087D03*
X152756D03*
X135433Y165354D03*
Y168504D03*
X131496Y140551D03*
Y137402D03*
X125197Y303150D03*
X128346D03*
X152756Y297638D03*
X149606D03*
Y301575D03*
X152756D03*
X107874Y160630D03*
X104724D03*
X159843Y284252D03*
X156693D03*
X159843Y288189D03*
X156693D03*
X162205Y176102D03*
X159055D03*
X231496Y339764D03*
X228346D03*
X231496Y336220D03*
X228346D03*
X231496Y332677D03*
X228346D03*
X201575Y188189D03*
Y191339D03*
X208661Y188189D03*
Y191339D03*
X187008Y312087D03*
Y315236D03*
X183858Y312087D03*
Y315236D03*
X227165Y181890D03*
Y185039D03*
X221260Y205512D03*
X224409D03*
X221260Y237008D03*
X224409D03*
X221260Y223622D03*
X224409D03*
X138583Y209449D03*
X141732D03*
X138583Y214961D03*
X141732D03*
X229134Y161417D03*
Y164567D03*
X167323Y317323D03*
X170472D03*
X214173Y350394D03*
X217323D03*
X222441Y181890D03*
Y185039D03*
X162244Y171693D03*
X159094D03*
X238031Y181732D03*
Y184882D03*
G54D12*
X202559Y313780D03*
X210827D03*
G54D13*
X200492Y339764D03*
Y336220D03*
Y332677D03*
X212106D03*
Y336220D03*
Y339764D03*
G54D17*
X115354Y133071D03*
X109055D03*
X143307Y135433D03*
Y129134D03*
X188583Y134252D03*
X182283D03*
X172441Y243307D03*
X166142D03*
X241339Y310236D03*
Y316535D03*
X113386Y307087D03*
Y300787D03*
X155118Y96850D03*
X148819D03*
X203543Y205315D03*
X209449D03*
X203543Y223031D03*
X209449D03*
X203543Y240748D03*
X209449D03*
G54D20*
X193976Y147126D02*
X187205D01*
Y139528*
X193976*
Y147126*
X187205Y139528D02*
Y147126D01*
X187402Y139528D02*
Y147126D01*
X187598Y139528D02*
Y147126D01*
X187795Y139528D02*
Y147126D01*
X187992Y139528D02*
Y147126D01*
X188189Y139528D02*
Y147126D01*
X188386Y139528D02*
Y147126D01*
X188583Y139528D02*
Y147126D01*
X188780Y139528D02*
Y147126D01*
X188976Y139528D02*
Y147126D01*
X189173Y139528D02*
Y147126D01*
X189370Y139528D02*
Y147126D01*
X189567Y139528D02*
Y147126D01*
X189764Y139528D02*
Y147126D01*
X189961Y139528D02*
Y147126D01*
X190157Y139528D02*
Y147126D01*
X190354Y139528D02*
Y147126D01*
X190551Y139528D02*
Y147126D01*
X190748Y139528D02*
Y147126D01*
X190945Y139528D02*
Y147126D01*
X191142Y139528D02*
Y147126D01*
X191339Y139528D02*
Y147126D01*
X191535Y139528D02*
Y147126D01*
X191732Y139528D02*
Y147126D01*
X191929Y139528D02*
Y147126D01*
X192126Y139528D02*
Y147126D01*
X192323Y139528D02*
Y147126D01*
X192520Y139528D02*
Y147126D01*
X192717Y139528D02*
Y147126D01*
X192913Y139528D02*
Y147126D01*
X193110Y139528D02*
Y147126D01*
X193307Y139528D02*
Y147126D01*
X193504Y139528D02*
Y147126D01*
X193701Y139528D02*
Y147126D01*
X193898Y139528D02*
Y147126D01*
X163189Y147638D02*
X169685D01*
Y167323*
X163189*
Y164891*
X163390Y164799*
X163782Y164592*
X164162Y164365*
X164529Y164117*
X164882Y163849*
X165220Y163563*
X165542Y163259*
X165847Y162938*
X166134Y162601*
X166403Y162249*
X166652Y161883*
X166880Y161504*
X167088Y161113*
X167275Y160711*
X167439Y160300*
X167580Y159880*
X167699Y159454*
X167795Y159021*
X167866Y158584*
X167914Y158144*
X167938Y157702*
Y157259*
X167914Y156817*
X167866Y156376*
X167795Y155940*
X167699Y155507*
X167580Y155080*
X167439Y154661*
X167275Y154250*
X167088Y153848*
X166880Y153457*
X166652Y153078*
X166403Y152711*
X166134Y152359*
X165847Y152022*
X165542Y151701*
X165220Y151397*
X164882Y151111*
X164529Y150844*
X164162Y150596*
X163782Y150369*
X163390Y150162*
X163189Y150070*
Y147638*
Y150070*
Y164891D02*
Y167323D01*
X163386Y147638D02*
Y150160D01*
Y164801D02*
Y167323D01*
X163583Y147638D02*
Y150264D01*
Y164697D02*
Y167323D01*
X163780Y147638D02*
Y150367D01*
Y164593D02*
Y167323D01*
X163976Y147638D02*
Y150485D01*
Y164476D02*
Y167323D01*
X164173Y147638D02*
Y150604D01*
Y164357D02*
Y167323D01*
X164370Y147638D02*
Y150737D01*
Y164224D02*
Y167323D01*
X164567Y147638D02*
Y150873D01*
Y164088D02*
Y167323D01*
X164764Y147638D02*
Y151022D01*
Y163939D02*
Y167323D01*
X164961Y147638D02*
Y151178D01*
Y163783D02*
Y167323D01*
X165157Y147638D02*
Y151344D01*
Y163616D02*
Y167323D01*
X165354Y147638D02*
Y151524D01*
Y163437D02*
Y167323D01*
X165551Y147638D02*
Y151711D01*
Y163250D02*
Y167323D01*
X165748Y147638D02*
Y151918D01*
Y163043D02*
Y167323D01*
X165945Y147638D02*
Y152137D01*
Y162824D02*
Y167323D01*
X166142Y147638D02*
Y152369D01*
Y162591D02*
Y167323D01*
X166339Y147638D02*
Y152627D01*
Y162333D02*
Y167323D01*
X166535Y147638D02*
Y152907D01*
Y162054D02*
Y167323D01*
X166732Y147638D02*
Y153211D01*
Y161749D02*
Y167323D01*
X166929Y147638D02*
Y153549D01*
Y161412D02*
Y167323D01*
X167126Y147638D02*
Y153929D01*
Y161031D02*
Y167323D01*
X167323Y147638D02*
Y154371D01*
Y160590D02*
Y167323D01*
X167520Y147638D02*
Y154900D01*
Y160060D02*
Y167323D01*
X167717Y147638D02*
Y155586D01*
Y159375D02*
Y167323D01*
X167913Y147638D02*
Y156808D01*
Y158153D02*
Y167323D01*
X168110Y147638D02*
Y167323D01*
X168307Y147638D02*
Y167323D01*
X168504Y147638D02*
Y167323D01*
X168701Y147638D02*
Y167323D01*
X168898Y147638D02*
Y167323D01*
X169094Y147638D02*
Y167323D01*
X169291Y147638D02*
Y167323D01*
X169488Y147638D02*
Y167323D01*
X150000Y147638D02*
X156496D01*
Y150069*
X156295Y150162*
X155903Y150368*
X155522Y150595*
X155155Y150843*
X154802Y151110*
X154463Y151396*
X154141Y151700*
X153835Y152021*
X153548Y152358*
X153279Y152710*
X153030Y153076*
X152801Y153456*
X152593Y153847*
X152406Y154248*
X152242Y154660*
X152100Y155080*
X151981Y155506*
X151886Y155939*
X151814Y156376*
X151766Y156816*
X151742Y157259*
Y157702*
X151766Y158144*
X151814Y158585*
X151886Y159022*
X151981Y159454*
X152100Y159881*
X152242Y160301*
X152406Y160712*
X152593Y161114*
X152801Y161505*
X153030Y161884*
X153279Y162251*
X153548Y162603*
X153835Y162940*
X154141Y163261*
X154463Y163565*
X154802Y163851*
X155155Y164118*
X155522Y164365*
X155903Y164593*
X156295Y164799*
X156496Y164891*
Y167323*
X150000*
Y147638*
Y167323*
X150197Y147638D02*
Y167323D01*
X150394Y147638D02*
Y167323D01*
X150591Y147638D02*
Y167323D01*
X150787Y147638D02*
Y167323D01*
X150984Y147638D02*
Y167323D01*
X151181Y147638D02*
Y167323D01*
X151378Y147638D02*
Y167323D01*
X151575Y147638D02*
Y167323D01*
X151772Y147638D02*
Y156763D01*
Y158198D02*
Y167323D01*
X151969Y147638D02*
Y155564D01*
Y159397D02*
Y167323D01*
X152165Y147638D02*
Y154886D01*
Y160074D02*
Y167323D01*
X152362Y147638D02*
Y154359D01*
Y160602D02*
Y167323D01*
X152559Y147638D02*
Y153920D01*
Y161041D02*
Y167323D01*
X152756Y147638D02*
Y153540D01*
Y161420D02*
Y167323D01*
X152953Y147638D02*
Y153204D01*
Y161756D02*
Y167323D01*
X153150Y147638D02*
Y152901D01*
Y162060D02*
Y167323D01*
X153346Y147638D02*
Y152622D01*
Y162339D02*
Y167323D01*
X153543Y147638D02*
Y152364D01*
Y162597D02*
Y167323D01*
X153740Y147638D02*
Y152133D01*
Y162828D02*
Y167323D01*
X153937Y147638D02*
Y151914D01*
Y163046D02*
Y167323D01*
X154134Y147638D02*
Y151707D01*
Y163253D02*
Y167323D01*
X154331Y147638D02*
Y151521D01*
Y163440D02*
Y167323D01*
X154528Y147638D02*
Y151342D01*
Y163619D02*
Y167323D01*
X154724Y147638D02*
Y151175D01*
Y163785D02*
Y167323D01*
X154921Y147638D02*
Y151020D01*
Y163941D02*
Y167323D01*
X155118Y147638D02*
Y150871D01*
Y164090D02*
Y167323D01*
X155315Y147638D02*
Y150735D01*
Y164226D02*
Y167323D01*
X155512Y147638D02*
Y150602D01*
Y164358D02*
Y167323D01*
X155709Y147638D02*
Y150484D01*
Y164477D02*
Y167323D01*
X155906Y147638D02*
Y150367D01*
Y164594D02*
Y167323D01*
X156102Y147638D02*
Y150263D01*
Y164698D02*
Y167323D01*
X156299Y147638D02*
Y150160D01*
Y164801D02*
Y167323D01*
X102224Y335630D02*
X102378Y335642D01*
X102529Y335678*
X102671Y335737*
X102803Y335818*
X102920Y335918*
X103021Y336036*
X103101Y336167*
X103160Y336310*
X103197Y336460*
X103209Y336614*
Y343701*
X103197Y343855*
X103160Y344005*
X103101Y344148*
X103021Y344279*
X102920Y344397*
X102803Y344497*
X102671Y344578*
X102529Y344637*
X102378Y344673*
X102224Y344685*
X99862*
X99708Y344673*
X99558Y344637*
X99415Y344578*
X99284Y344497*
X99166Y344397*
X99066Y344279*
X98985Y344148*
X98926Y344005*
X98890Y343855*
X98878Y343701*
Y336614*
X98890Y336460*
X98926Y336310*
X98985Y336167*
X99066Y336036*
X99166Y335918*
X99284Y335818*
X99415Y335737*
X99558Y335678*
X99708Y335642*
X99862Y335630*
X102224*
X98976Y336189D02*
Y344126D01*
X99173Y335912D02*
Y344403D01*
X99370Y335765D02*
Y344550D01*
X99567Y335676D02*
Y344639D01*
X99764Y335638D02*
Y344677D01*
X99961Y335630D02*
Y344685D01*
X100157Y335630D02*
Y344685D01*
X100354Y335630D02*
Y344685D01*
X100551Y335630D02*
Y344685D01*
X100748Y335630D02*
Y344685D01*
X100945Y335630D02*
Y344685D01*
X101142Y335630D02*
Y344685D01*
X101339Y335630D02*
Y344685D01*
X101535Y335630D02*
Y344685D01*
X101732Y335630D02*
Y344685D01*
X101929Y335630D02*
Y344685D01*
X102126Y335630D02*
Y344685D01*
X102323Y335638D02*
Y344677D01*
X102520Y335676D02*
Y344639D01*
X102717Y335765D02*
Y344550D01*
X102913Y335912D02*
Y344403D01*
X103110Y336189D02*
Y344126D01*
X102224Y312008D02*
X102378Y312020D01*
X102529Y312056*
X102671Y312115*
X102803Y312196*
X102920Y312296*
X103021Y312414*
X103101Y312545*
X103160Y312688*
X103197Y312838*
X103209Y312992*
Y320079*
X103197Y320233*
X103160Y320383*
X103101Y320526*
X103021Y320657*
X102920Y320775*
X102803Y320875*
X102671Y320956*
X102529Y321015*
X102378Y321051*
X102224Y321063*
X99862*
X99708Y321051*
X99558Y321015*
X99415Y320956*
X99284Y320875*
X99166Y320775*
X99066Y320657*
X98985Y320526*
X98926Y320383*
X98890Y320233*
X98878Y320079*
Y312992*
X98890Y312838*
X98926Y312688*
X98985Y312545*
X99066Y312414*
X99166Y312296*
X99284Y312196*
X99415Y312115*
X99558Y312056*
X99708Y312020*
X99862Y312008*
X102224*
X98976Y312567D02*
Y320504D01*
X99173Y312290D02*
Y320781D01*
X99370Y312143D02*
Y320928D01*
X99567Y312054D02*
Y321017D01*
X99764Y312016D02*
Y321055D01*
X99961Y312008D02*
Y321063D01*
X100157Y312008D02*
Y321063D01*
X100354Y312008D02*
Y321063D01*
X100551Y312008D02*
Y321063D01*
X100748Y312008D02*
Y321063D01*
X100945Y312008D02*
Y321063D01*
X101142Y312008D02*
Y321063D01*
X101339Y312008D02*
Y321063D01*
X101535Y312008D02*
Y321063D01*
X101732Y312008D02*
Y321063D01*
X101929Y312008D02*
Y321063D01*
X102126Y312008D02*
Y321063D01*
X102323Y312016D02*
Y321055D01*
X102520Y312054D02*
Y321017D01*
X102717Y312143D02*
Y320928D01*
X102913Y312290D02*
Y320781D01*
X103110Y312567D02*
Y320504D01*
X103937Y68521D02*
X237795Y68481D01*
Y129527*
X239764Y131496D02*
G75*
G03X237795Y129527I0J-1969D01*
G01X239764Y131496D02*
X243684Y131495D01*
X249134Y218110*
X249141*
G03X249215Y218180I0J74*
G01X251613Y257480*
X251614*
X258582Y368059*
G03X251509Y375591I-7073J445*
G01X178739*
X178741Y375354*
X170866Y375350D02*
G03X178741Y375357I3938J124D01*
G01X170866Y375354D02*
Y375591D01*
X147244*
Y323228*
X144488Y320472D02*
G03X147244Y323228I0J2756D01*
G01X144488Y320472D02*
X126378D01*
X123622Y323228D02*
G03X126378Y320472I2756J0D01*
G01X123622Y323228D02*
Y375591D01*
X90223*
G03X83151Y368059I0J-7087*
G01X84548Y346437*
X84567Y346379*
Y344764*
X83780Y343976D02*
G03X84567Y344764I-0J788D01*
G01X83780Y343976D02*
X83583D01*
G03X82795Y343189I-0J-787*
G01Y313780*
G03X83976Y312598I1181J-0*
G01X85551*
X86732Y311417D02*
G03X85551Y312598I-1181J0D01*
G01X86732Y311417D02*
Y311153D01*
X86851Y309686*
X90136Y257480*
X90141*
X92582Y218110*
X92598*
X98039Y131496*
X101969*
X103937Y129528D02*
G03X101969Y131496I-1968J-0D01*
G01X103937Y129528D02*
Y68521D01*
G54D28*
X164370Y214173D03*
X168110D03*
X171850D03*
Y223622D03*
X164370D03*
X108071Y143307D03*
X111811D03*
X115551D03*
Y152756D03*
X108071D03*
G54D29*
X221850Y300394D03*
X219882D03*
X217913D03*
X215945D03*
X213976D03*
X212008D03*
X210039D03*
X208071D03*
X206102D03*
X204134D03*
X202165D03*
X200197D03*
X198228D03*
X196260D03*
X194291D03*
X192323D03*
Y255512D03*
X194291D03*
X196260D03*
X198228D03*
X200197D03*
X202165D03*
X204134D03*
X206102D03*
X208071D03*
X210039D03*
X212008D03*
X213976D03*
X215945D03*
X217913D03*
X219882D03*
X221850D03*
G54D30*
X184646Y292717D03*
Y290748D03*
Y288780D03*
Y286811D03*
Y284843D03*
Y282874D03*
Y280906D03*
Y278937D03*
Y276969D03*
Y275000D03*
Y273031D03*
Y271063D03*
Y269094D03*
Y267126D03*
Y265157D03*
Y263189D03*
X229528D03*
Y265157D03*
Y267126D03*
Y269094D03*
Y271063D03*
Y273031D03*
Y275000D03*
Y276969D03*
Y278937D03*
Y280906D03*
Y282874D03*
Y284843D03*
Y286811D03*
Y288780D03*
Y290748D03*
Y292717D03*
G54D34*
X168799Y157480D03*
X150886D03*
G54D35*
X101024Y333465D03*
Y330906D03*
Y328346D03*
Y325787D03*
Y323228D03*
G54D36*
X90709Y332382D03*
Y324311D03*
G54D37*
X196949Y371850D03*
X215650D03*
X196949Y365157D03*
X215650D03*
G54D39*
X164173Y329331D03*
Y326772D03*
Y324213D03*
X172835D03*
Y329331D03*
G54D40*
X187598Y369685D03*
X162008D03*
G54D41*
X188583Y348031D03*
X161024Y351969D03*
G54D42*
X174803Y340551D03*
G54D74*
X181496Y143386D03*
G54D75*
X191575Y143307D03*
G54D76*
X172244Y232283D03*
X163976D03*
G54D92*
X136811Y262992D03*
X129331D03*
X133071Y253543D03*
X135236Y159055D03*
X127756D03*
X131496Y149606D03*
X121063Y262992D03*
X113583D03*
X117323Y253543D03*
X151772Y262992D03*
X144291D03*
X148031Y253543D03*
X220276Y171654D03*
X212795D03*
X216535Y162205D03*
G54D93*
X169921Y94154D03*
Y102461D03*
X177008Y94154D03*
Y102461D03*
X163110Y94075D03*
Y102382D03*
G54D98*
X191732Y156102D03*
Y175394D03*
G54D100*
X216535Y147244D03*
X226772D03*
G54D101*
X154331Y139961D03*
Y136220D03*
Y132480D03*
X165354D03*
Y136220D03*
Y139961D03*
G54D102*
X159843Y136220D03*
G54D110*
X138386Y242520D03*
X124606D03*
X138386Y227165D03*
X124606D03*
X138386Y195276D03*
X124606D03*
X138386Y179921D03*
X124606D03*
X138386Y289764D03*
X124606D03*
X138386Y274409D03*
X124606D03*
G74*
X0Y0D02*
M02*
