*
*
G04 PADS 9.5 Build Number: 522968 generated Gerber (RS-274-X) file*
G04 PC Version=2.1*
*
%IN "MPD-LED_PCB_V1.0_201908"*%
*
%MOIN*%
*
%FSLAX35Y35*%
*
*
*
*
G04 PC Standard Apertures*
*
*
G04 Thermal Relief Aperture macro.*
%AMTER*
1,1,$1,0,0*
1,0,$1-$2,0,0*
21,0,$3,$4,0,0,45*
21,0,$3,$4,0,0,135*
%
*
*
G04 Annular Aperture macro.*
%AMANN*
1,1,$1,0,0*
1,0,$2,0,0*
%
*
*
G04 Odd Aperture macro.*
%AMODD*
1,1,$1,0,0*
1,0,$1-0.005,0,0*
%
*
*
G04 PC Custom Aperture Macros*
*
*
*
*
*
*
G04 PC Aperture Table*
*
%ADD010C,0.001*%
%ADD012R,0.05906X0.05906*%
%ADD013C,0.06*%
%ADD014C,0.08268*%
%ADD016C,0.02362*%
%ADD017C,0.01*%
*
*
*
*
G04 PC Circuitry*
G04 Layer Name MPD-LED_PCB_V1.0_201908 - circuitry*
%LPD*%
*
*
G04 PC Custom Flashes*
G04 Layer Name MPD-LED_PCB_V1.0_201908 - flashes*
%LPD*%
*
*
G04 PC Circuitry*
G04 Layer Name MPD-LED_PCB_V1.0_201908 - circuitry*
%LPD*%
*
G54D10*
G54D12*
G01X111811Y218110D03*
G54D13*
Y208268D03*
Y198425D03*
Y188583D03*
Y178740D03*
Y168898D03*
G54D14*
X107874Y119685D03*
X170866D03*
X107874Y269291D03*
X170866D03*
G54D16*
X135039Y127165D03*
Y132677D03*
Y170472D03*
Y212992D03*
Y251575D03*
G54D17*
X109161Y215461D02*
X131209D01*
Y118610*
X138083*
Y260130*
X131209*
Y222335*
X109161*
Y215461*
X131209Y259909D02*
X138083D01*
X131209Y259009D02*
X138083D01*
X131209Y258109D02*
X138083D01*
X131209Y257209D02*
X138083D01*
X131209Y256309D02*
X138083D01*
X131209Y255409D02*
X138083D01*
X131209Y254509D02*
X138083D01*
X131209Y253609D02*
X138083D01*
X131209Y252709D02*
X138083D01*
X131209Y251809D02*
X138083D01*
X131209Y250909D02*
X138083D01*
X131209Y250009D02*
X138083D01*
X131209Y249109D02*
X138083D01*
X131209Y248209D02*
X138083D01*
X131209Y247309D02*
X138083D01*
X131209Y246409D02*
X138083D01*
X131209Y245509D02*
X138083D01*
X131209Y244609D02*
X138083D01*
X131209Y243709D02*
X138083D01*
X131209Y242809D02*
X138083D01*
X131209Y241909D02*
X138083D01*
X131209Y241009D02*
X138083D01*
X131209Y240109D02*
X138083D01*
X131209Y239209D02*
X138083D01*
X131209Y238309D02*
X138083D01*
X131209Y237409D02*
X138083D01*
X131209Y236509D02*
X138083D01*
X131209Y235609D02*
X138083D01*
X131209Y234709D02*
X138083D01*
X131209Y233809D02*
X138083D01*
X131209Y232909D02*
X138083D01*
X131209Y232009D02*
X138083D01*
X131209Y231109D02*
X138083D01*
X131209Y230209D02*
X138083D01*
X131209Y229309D02*
X138083D01*
X131209Y228409D02*
X138083D01*
X131209Y227509D02*
X138083D01*
X131209Y226609D02*
X138083D01*
X131209Y225709D02*
X138083D01*
X131209Y224809D02*
X138083D01*
X131209Y223909D02*
X138083D01*
X131209Y223009D02*
X138083D01*
X109161Y222109D02*
X138083D01*
X109161Y221209D02*
X138083D01*
X109161Y220309D02*
X138083D01*
X109161Y219409D02*
X138083D01*
X109161Y218509D02*
X138083D01*
X109161Y217609D02*
X138083D01*
X109161Y216709D02*
X138083D01*
X109161Y215809D02*
X138083D01*
X131209Y214909D02*
X138083D01*
X131209Y214009D02*
X138083D01*
X131209Y213109D02*
X138083D01*
X131209Y212209D02*
X138083D01*
X131209Y211309D02*
X138083D01*
X131209Y210409D02*
X138083D01*
X131209Y209509D02*
X138083D01*
X131209Y208609D02*
X138083D01*
X131209Y207709D02*
X138083D01*
X131209Y206809D02*
X138083D01*
X131209Y205909D02*
X138083D01*
X131209Y205009D02*
X138083D01*
X131209Y204109D02*
X138083D01*
X131209Y203209D02*
X138083D01*
X131209Y202309D02*
X138083D01*
X131209Y201409D02*
X138083D01*
X131209Y200509D02*
X138083D01*
X131209Y199609D02*
X138083D01*
X131209Y198709D02*
X138083D01*
X131209Y197809D02*
X138083D01*
X131209Y196909D02*
X138083D01*
X131209Y196009D02*
X138083D01*
X131209Y195109D02*
X138083D01*
X131209Y194209D02*
X138083D01*
X131209Y193309D02*
X138083D01*
X131209Y192409D02*
X138083D01*
X131209Y191509D02*
X138083D01*
X131209Y190609D02*
X138083D01*
X131209Y189709D02*
X138083D01*
X131209Y188809D02*
X138083D01*
X131209Y187909D02*
X138083D01*
X131209Y187009D02*
X138083D01*
X131209Y186109D02*
X138083D01*
X131209Y185209D02*
X138083D01*
X131209Y184309D02*
X138083D01*
X131209Y183409D02*
X138083D01*
X131209Y182509D02*
X138083D01*
X131209Y181609D02*
X138083D01*
X131209Y180709D02*
X138083D01*
X131209Y179809D02*
X138083D01*
X131209Y178909D02*
X138083D01*
X131209Y178009D02*
X138083D01*
X131209Y177109D02*
X138083D01*
X131209Y176209D02*
X138083D01*
X131209Y175309D02*
X138083D01*
X131209Y174409D02*
X138083D01*
X131209Y173509D02*
X138083D01*
X131209Y172609D02*
X138083D01*
X131209Y171709D02*
X138083D01*
X131209Y170809D02*
X138083D01*
X131209Y169909D02*
X138083D01*
X131209Y169009D02*
X138083D01*
X131209Y168109D02*
X138083D01*
X131209Y167209D02*
X138083D01*
X131209Y166309D02*
X138083D01*
X131209Y165409D02*
X138083D01*
X131209Y164509D02*
X138083D01*
X131209Y163609D02*
X138083D01*
X131209Y162709D02*
X138083D01*
X131209Y161809D02*
X138083D01*
X131209Y160909D02*
X138083D01*
X131209Y160009D02*
X138083D01*
X131209Y159109D02*
X138083D01*
X131209Y158209D02*
X138083D01*
X131209Y157309D02*
X138083D01*
X131209Y156409D02*
X138083D01*
X131209Y155509D02*
X138083D01*
X131209Y154609D02*
X138083D01*
X131209Y153709D02*
X138083D01*
X131209Y152809D02*
X138083D01*
X131209Y151909D02*
X138083D01*
X131209Y151009D02*
X138083D01*
X131209Y150109D02*
X138083D01*
X131209Y149209D02*
X138083D01*
X131209Y148309D02*
X138083D01*
X131209Y147409D02*
X138083D01*
X131209Y146509D02*
X138083D01*
X131209Y145609D02*
X138083D01*
X131209Y144709D02*
X138083D01*
X131209Y143809D02*
X138083D01*
X131209Y142909D02*
X138083D01*
X131209Y142009D02*
X138083D01*
X131209Y141109D02*
X138083D01*
X131209Y140209D02*
X138083D01*
X131209Y139309D02*
X138083D01*
X131209Y138409D02*
X138083D01*
X131209Y137509D02*
X138083D01*
X131209Y136609D02*
X138083D01*
X131209Y135709D02*
X138083D01*
X131209Y134809D02*
X138083D01*
X131209Y133909D02*
X138083D01*
X131209Y133009D02*
X138083D01*
X131209Y132109D02*
X138083D01*
X131209Y131209D02*
X138083D01*
X131209Y130309D02*
X138083D01*
X131209Y129409D02*
X138083D01*
X131209Y128509D02*
X138083D01*
X131209Y127609D02*
X138083D01*
X131209Y126709D02*
X138083D01*
X131209Y125809D02*
X138083D01*
X131209Y124909D02*
X138083D01*
X131209Y124009D02*
X138083D01*
X131209Y123109D02*
X138083D01*
X131209Y122209D02*
X138083D01*
X131209Y121309D02*
X138083D01*
X131209Y120409D02*
X138083D01*
X131209Y119509D02*
X138083D01*
X176240Y276707D02*
Y281102D01*
G75*
G03X170866Y286476I-5374J0D01*
G01X107874*
G03X102500Y281102I0J-5374*
G01Y276707*
G03X103275Y276289I500J0*
G01Y262293D02*
G03Y276289I4599J6998D01*
G01Y262293D02*
G03X102500Y261876I-275J-417D01*
G01Y127101*
G03X103275Y126683I500J-0*
G01Y112687D02*
G03Y126683I4599J6998D01*
G01Y112687D02*
G03X102500Y112269I-275J-418D01*
G01Y107874*
G03X107874Y102500I5374J0*
G01X170866*
G03X176240Y107874I0J5374*
G01Y112269*
G03X175466Y112687I-500J0*
G01Y126683D02*
G03Y112687I-4600J-6998D01*
G01Y126683D02*
G03X176240Y127101I274J418D01*
G01Y261876*
G03X175466Y262293I-500J-0*
G01Y276289D02*
G03Y262293I-4600J-6998D01*
G01Y276289D02*
G03X176240Y276707I274J418D01*
G01X141083Y260130D02*
Y118610D01*
X138083Y115610D02*
G03X141083Y118610I-0J3000D01*
G01X138083Y115610D02*
X131209D01*
X128209Y118610D02*
G03X131209Y115610I3000J0D01*
G01X128209Y118610D02*
Y211961D01*
G03X127709Y212461I-500J-0*
G01X116540*
G03X116146Y211653I-0J-500*
G01X114957Y203757D02*
G03X116146Y211653I-3146J4511D01*
G01X114957Y203757D02*
G03Y202936I286J-411D01*
G01Y193914D02*
G03Y202936I-3146J4511D01*
G01Y193914D02*
G03Y193094I286J-410D01*
G01Y184072D02*
G03Y193094I-3146J4511D01*
G01Y184072D02*
G03Y183251I286J-411D01*
G01Y174229D02*
G03Y183251I-3146J4511D01*
G01Y174229D02*
G03Y173409I286J-410D01*
G01X108665D02*
G03X114957I3146J-4511D01*
G01X108665D02*
G03Y174229I-286J410D01*
G01Y183251D02*
G03Y174229I3146J-4511D01*
G01Y183251D02*
G03Y184072I-286J410D01*
G01Y193094D02*
G03Y184072I3146J-4511D01*
G01Y193094D02*
G03Y193914I-286J410D01*
G01Y202936D02*
G03Y193914I3146J-4511D01*
G01Y202936D02*
G03Y203757I-286J410D01*
G01X107824Y212057D02*
G03X108665Y203757I3987J-3789D01*
G01X107824Y212057D02*
G03X107705Y212838I-362J344D01*
G01X106161Y215461D02*
G03X107705Y212838I3000J-0D01*
G01X106161Y215461D02*
Y222335D01*
X109161Y225335D02*
G03X106161Y222335I0J-3000D01*
G01X109161Y225335D02*
X127709D01*
G03X128209Y225835I-0J500*
G01Y260130*
X131209Y263130D02*
G03X128209Y260130I-0J-3000D01*
G01X131209Y263130D02*
X138083D01*
X141083Y260130D02*
G03X138083Y263130I-3000J-0D01*
G01X102500Y280499D02*
X176240D01*
X102500Y279599D02*
X176240D01*
X102500Y278699D02*
X176240D01*
X102500Y277799D02*
X176240D01*
X174367Y276899D02*
X176240D01*
X174175Y261599D02*
X176240D01*
X141028Y260699D02*
X176240D01*
X141083Y259799D02*
X176240D01*
X141083Y258899D02*
X176240D01*
X141083Y257999D02*
X176240D01*
X141083Y257099D02*
X176240D01*
X141083Y256199D02*
X176240D01*
X141083Y255299D02*
X176240D01*
X141083Y254399D02*
X176240D01*
X141083Y253499D02*
X176240D01*
X141083Y252599D02*
X176240D01*
X141083Y251699D02*
X176240D01*
X141083Y250799D02*
X176240D01*
X141083Y249899D02*
X176240D01*
X141083Y248999D02*
X176240D01*
X141083Y248099D02*
X176240D01*
X141083Y247199D02*
X176240D01*
X141083Y246299D02*
X176240D01*
X141083Y245399D02*
X176240D01*
X141083Y244499D02*
X176240D01*
X141083Y243599D02*
X176240D01*
X141083Y242699D02*
X176240D01*
X141083Y241799D02*
X176240D01*
X141083Y240899D02*
X176240D01*
X141083Y239999D02*
X176240D01*
X141083Y239099D02*
X176240D01*
X141083Y238199D02*
X176240D01*
X141083Y237299D02*
X176240D01*
X141083Y236399D02*
X176240D01*
X141083Y235499D02*
X176240D01*
X141083Y234599D02*
X176240D01*
X141083Y233699D02*
X176240D01*
X141083Y232799D02*
X176240D01*
X141083Y231899D02*
X176240D01*
X141083Y230999D02*
X176240D01*
X141083Y230099D02*
X176240D01*
X141083Y229199D02*
X176240D01*
X141083Y228299D02*
X176240D01*
X141083Y227399D02*
X176240D01*
X141083Y226499D02*
X176240D01*
X141083Y225599D02*
X176240D01*
X141083Y224699D02*
X176240D01*
X141083Y223799D02*
X176240D01*
X141083Y222899D02*
X176240D01*
X141083Y221999D02*
X176240D01*
X141083Y221099D02*
X176240D01*
X141083Y220199D02*
X176240D01*
X141083Y219299D02*
X176240D01*
X141083Y218399D02*
X176240D01*
X141083Y217499D02*
X176240D01*
X141083Y216599D02*
X176240D01*
X141083Y215699D02*
X176240D01*
X141083Y214799D02*
X176240D01*
X141083Y213899D02*
X176240D01*
X141083Y212999D02*
X176240D01*
X141083Y212099D02*
X176240D01*
X141083Y211199D02*
X176240D01*
X141083Y210299D02*
X176240D01*
X141083Y209399D02*
X176240D01*
X141083Y208499D02*
X176240D01*
X141083Y207599D02*
X176240D01*
X141083Y206699D02*
X176240D01*
X141083Y205799D02*
X176240D01*
X141083Y204899D02*
X176240D01*
X141083Y203999D02*
X176240D01*
X141083Y203099D02*
X176240D01*
X141083Y202199D02*
X176240D01*
X141083Y201299D02*
X176240D01*
X141083Y200399D02*
X176240D01*
X141083Y199499D02*
X176240D01*
X141083Y198599D02*
X176240D01*
X141083Y197699D02*
X176240D01*
X141083Y196799D02*
X176240D01*
X141083Y195899D02*
X176240D01*
X141083Y194999D02*
X176240D01*
X141083Y194099D02*
X176240D01*
X141083Y193199D02*
X176240D01*
X141083Y192299D02*
X176240D01*
X141083Y191399D02*
X176240D01*
X141083Y190499D02*
X176240D01*
X141083Y189599D02*
X176240D01*
X141083Y188699D02*
X176240D01*
X141083Y187799D02*
X176240D01*
X141083Y186899D02*
X176240D01*
X141083Y185999D02*
X176240D01*
X141083Y185099D02*
X176240D01*
X141083Y184199D02*
X176240D01*
X141083Y183299D02*
X176240D01*
X141083Y182399D02*
X176240D01*
X141083Y181499D02*
X176240D01*
X141083Y180599D02*
X176240D01*
X141083Y179699D02*
X176240D01*
X141083Y178799D02*
X176240D01*
X141083Y177899D02*
X176240D01*
X141083Y176999D02*
X176240D01*
X141083Y176099D02*
X176240D01*
X141083Y175199D02*
X176240D01*
X141083Y174299D02*
X176240D01*
X141083Y173399D02*
X176240D01*
X141083Y172499D02*
X176240D01*
X141083Y171599D02*
X176240D01*
X141083Y170699D02*
X176240D01*
X141083Y169799D02*
X176240D01*
X141083Y168899D02*
X176240D01*
X141083Y167999D02*
X176240D01*
X141083Y167099D02*
X176240D01*
X141083Y166199D02*
X176240D01*
X141083Y165299D02*
X176240D01*
X141083Y164399D02*
X176240D01*
X141083Y163499D02*
X176240D01*
X141083Y162599D02*
X176240D01*
X141083Y161699D02*
X176240D01*
X141083Y160799D02*
X176240D01*
X141083Y159899D02*
X176240D01*
X141083Y158999D02*
X176240D01*
X141083Y158099D02*
X176240D01*
X141083Y157199D02*
X176240D01*
X141083Y156299D02*
X176240D01*
X141083Y155399D02*
X176240D01*
X141083Y154499D02*
X176240D01*
X141083Y153599D02*
X176240D01*
X141083Y152699D02*
X176240D01*
X141083Y151799D02*
X176240D01*
X141083Y150899D02*
X176240D01*
X141083Y149999D02*
X176240D01*
X141083Y149099D02*
X176240D01*
X141083Y148199D02*
X176240D01*
X141083Y147299D02*
X176240D01*
X141083Y146399D02*
X176240D01*
X141083Y145499D02*
X176240D01*
X141083Y144599D02*
X176240D01*
X141083Y143699D02*
X176240D01*
X141083Y142799D02*
X176240D01*
X141083Y141899D02*
X176240D01*
X141083Y140999D02*
X176240D01*
X141083Y140099D02*
X176240D01*
X141083Y139199D02*
X176240D01*
X141083Y138299D02*
X176240D01*
X141083Y137399D02*
X176240D01*
X141083Y136499D02*
X176240D01*
X141083Y135599D02*
X176240D01*
X141083Y134699D02*
X176240D01*
X141083Y133799D02*
X176240D01*
X141083Y132899D02*
X176240D01*
X141083Y131999D02*
X176240D01*
X141083Y131099D02*
X176240D01*
X141083Y130199D02*
X176240D01*
X141083Y129299D02*
X176240D01*
X141083Y128399D02*
X176240D01*
X173878Y127499D02*
X176240D01*
X174618Y112199D02*
X176240D01*
X102500Y111299D02*
X176240D01*
X102500Y110399D02*
X176240D01*
X102500Y109499D02*
X176240D01*
X102500Y108599D02*
X176240D01*
X102503Y107699D02*
X176237D01*
X102508Y281399D02*
X176232D01*
X102609Y106799D02*
X176131D01*
X102635Y282299D02*
X176105D01*
X102876Y105899D02*
X175864D01*
X102926Y283199D02*
X175814D01*
X103334Y104999D02*
X175406D01*
X103413Y284099D02*
X175327D01*
X104050Y104099D02*
X174691D01*
X104173Y284999D02*
X174567D01*
X105224Y103199D02*
X173516D01*
X105450Y285899D02*
X173290D01*
X141083Y127499D02*
X167854D01*
X140699Y261599D02*
X167557D01*
X111374Y276899D02*
X167366D01*
X111626Y112199D02*
X167114D01*
X141083Y126599D02*
X166141D01*
X139924Y262499D02*
X165969D01*
X112888Y275999D02*
X165853D01*
X113046Y113099D02*
X165695D01*
X141083Y125699D02*
X165039D01*
X113824Y263399D02*
X164916D01*
X113907Y275099D02*
X164833D01*
X114021Y113999D02*
X164719D01*
X141083Y124799D02*
X164235D01*
X114597Y264299D02*
X164143D01*
X114659Y274199D02*
X164081D01*
X114745Y114899D02*
X163995D01*
X141083Y123899D02*
X163629D01*
X115180Y265199D02*
X163560D01*
X115227Y273299D02*
X163513D01*
X139129Y115799D02*
X163449D01*
X141083Y122999D02*
X163176D01*
X115616Y266099D02*
X163125D01*
X115650Y272399D02*
X163090D01*
X140395Y116699D02*
X163043D01*
X141083Y122099D02*
X162847D01*
X115928Y266999D02*
X162812D01*
X115952Y271499D02*
X162788D01*
X140907Y117599D02*
X162756D01*
X141083Y121199D02*
X162630D01*
X116131Y267899D02*
X162609D01*
X116145Y270599D02*
X162595D01*
X141081Y118499D02*
X162577D01*
X141083Y120299D02*
X162515D01*
X116234Y268799D02*
X162507D01*
X116238Y269699D02*
X162502D01*
X141083Y119399D02*
X162497D01*
X115292Y115799D02*
X130162D01*
X112771Y262499D02*
X129368D01*
X115697Y116699D02*
X128896D01*
X111183Y261599D02*
X128593D01*
X115984Y117599D02*
X128384D01*
X102500Y260699D02*
X128263D01*
X116164Y118499D02*
X128211D01*
X102500Y259799D02*
X128209D01*
X102500Y258899D02*
X128209D01*
X102500Y257999D02*
X128209D01*
X102500Y257099D02*
X128209D01*
X102500Y256199D02*
X128209D01*
X102500Y255299D02*
X128209D01*
X102500Y254399D02*
X128209D01*
X102500Y253499D02*
X128209D01*
X102500Y252599D02*
X128209D01*
X102500Y251699D02*
X128209D01*
X102500Y250799D02*
X128209D01*
X102500Y249899D02*
X128209D01*
X102500Y248999D02*
X128209D01*
X102500Y248099D02*
X128209D01*
X102500Y247199D02*
X128209D01*
X102500Y246299D02*
X128209D01*
X102500Y245399D02*
X128209D01*
X102500Y244499D02*
X128209D01*
X102500Y243599D02*
X128209D01*
X102500Y242699D02*
X128209D01*
X102500Y241799D02*
X128209D01*
X102500Y240899D02*
X128209D01*
X102500Y239999D02*
X128209D01*
X102500Y239099D02*
X128209D01*
X102500Y238199D02*
X128209D01*
X102500Y237299D02*
X128209D01*
X102500Y236399D02*
X128209D01*
X102500Y235499D02*
X128209D01*
X102500Y234599D02*
X128209D01*
X102500Y233699D02*
X128209D01*
X102500Y232799D02*
X128209D01*
X102500Y231899D02*
X128209D01*
X102500Y230999D02*
X128209D01*
X102500Y230099D02*
X128209D01*
X102500Y229199D02*
X128209D01*
X102500Y228299D02*
X128209D01*
X102500Y227399D02*
X128209D01*
X102500Y226499D02*
X128209D01*
X116465Y211199D02*
X128209D01*
X116922Y210299D02*
X128209D01*
X117194Y209399D02*
X128209D01*
X117306Y208499D02*
X128209D01*
X117270Y207599D02*
X128209D01*
X117082Y206699D02*
X128209D01*
X116726Y205799D02*
X128209D01*
X116158Y204899D02*
X128209D01*
X115279Y203999D02*
X128209D01*
X114809Y203099D02*
X128209D01*
X115812Y202199D02*
X128209D01*
X116501Y201299D02*
X128209D01*
X116945Y200399D02*
X128209D01*
X117205Y199499D02*
X128209D01*
X117308Y198599D02*
X128209D01*
X117263Y197699D02*
X128209D01*
X117065Y196799D02*
X128209D01*
X116696Y195899D02*
X128209D01*
X116113Y194999D02*
X128209D01*
X115207Y194099D02*
X128209D01*
X114847Y193199D02*
X128209D01*
X115866Y192299D02*
X128209D01*
X116535Y191399D02*
X128209D01*
X116967Y190499D02*
X128209D01*
X117216Y189599D02*
X128209D01*
X117310Y188699D02*
X128209D01*
X117255Y187799D02*
X128209D01*
X117047Y186899D02*
X128209D01*
X116666Y185999D02*
X128209D01*
X116067Y185099D02*
X128209D01*
X115132Y184199D02*
X128209D01*
X114899Y183299D02*
X128209D01*
X115918Y182399D02*
X128209D01*
X116569Y181499D02*
X128209D01*
X116988Y180599D02*
X128209D01*
X117227Y179699D02*
X128209D01*
X117311Y178799D02*
X128209D01*
X117246Y177899D02*
X128209D01*
X117028Y176999D02*
X128209D01*
X116635Y176099D02*
X128209D01*
X116019Y175199D02*
X128209D01*
X115055Y174299D02*
X128209D01*
X114972Y173399D02*
X128209D01*
X115968Y172499D02*
X128209D01*
X116602Y171599D02*
X128209D01*
X117008Y170699D02*
X128209D01*
X117237Y169799D02*
X128209D01*
X117311Y168899D02*
X128209D01*
X117237Y167999D02*
X128209D01*
X117009Y167099D02*
X128209D01*
X116603Y166199D02*
X128209D01*
X115970Y165299D02*
X128209D01*
X114975Y164399D02*
X128209D01*
X112861Y163499D02*
X128209D01*
X102500Y162599D02*
X128209D01*
X102500Y161699D02*
X128209D01*
X102500Y160799D02*
X128209D01*
X102500Y159899D02*
X128209D01*
X102500Y158999D02*
X128209D01*
X102500Y158099D02*
X128209D01*
X102500Y157199D02*
X128209D01*
X102500Y156299D02*
X128209D01*
X102500Y155399D02*
X128209D01*
X102500Y154499D02*
X128209D01*
X102500Y153599D02*
X128209D01*
X102500Y152699D02*
X128209D01*
X102500Y151799D02*
X128209D01*
X102500Y150899D02*
X128209D01*
X102500Y149999D02*
X128209D01*
X102500Y149099D02*
X128209D01*
X102500Y148199D02*
X128209D01*
X102500Y147299D02*
X128209D01*
X102500Y146399D02*
X128209D01*
X102500Y145499D02*
X128209D01*
X102500Y144599D02*
X128209D01*
X102500Y143699D02*
X128209D01*
X102500Y142799D02*
X128209D01*
X102500Y141899D02*
X128209D01*
X102500Y140999D02*
X128209D01*
X102500Y140099D02*
X128209D01*
X102500Y139199D02*
X128209D01*
X102500Y138299D02*
X128209D01*
X102500Y137399D02*
X128209D01*
X102500Y136499D02*
X128209D01*
X102500Y135599D02*
X128209D01*
X102500Y134699D02*
X128209D01*
X102500Y133799D02*
X128209D01*
X102500Y132899D02*
X128209D01*
X102500Y131999D02*
X128209D01*
X102500Y131099D02*
X128209D01*
X102500Y130199D02*
X128209D01*
X102500Y129299D02*
X128209D01*
X102500Y128399D02*
X128209D01*
X110886Y127499D02*
X128209D01*
X112599Y126599D02*
X128209D01*
X113702Y125699D02*
X128209D01*
X114505Y124799D02*
X128209D01*
X115111Y123899D02*
X128209D01*
X115565Y122999D02*
X128209D01*
X115893Y122099D02*
X128209D01*
X116110Y121199D02*
X128209D01*
X116226Y120299D02*
X128209D01*
X116243Y119399D02*
X128209D01*
X116059Y212099D02*
X128189D01*
X102500Y225599D02*
X128149D01*
X102500Y163499D02*
X110761D01*
X102500Y203099D02*
X108813D01*
X102500Y193199D02*
X108775D01*
X102500Y183299D02*
X108723D01*
X102500Y173399D02*
X108650D01*
X102500Y164399D02*
X108647D01*
X102500Y174299D02*
X108567D01*
X102500Y184199D02*
X108490D01*
X102500Y194099D02*
X108415D01*
X102500Y203999D02*
X108343D01*
X102500Y212099D02*
X107860D01*
X102500Y202199D02*
X107810D01*
X102500Y192299D02*
X107756D01*
X102500Y182399D02*
X107704D01*
X102500Y172499D02*
X107654D01*
X102500Y165299D02*
X107652D01*
X102500Y175199D02*
X107603D01*
X102500Y185099D02*
X107555D01*
X102500Y194999D02*
X107509D01*
X102500Y204899D02*
X107464D01*
X102500Y212999D02*
X107447D01*
X102500Y224699D02*
X107314D01*
X102500Y211199D02*
X107157D01*
X102500Y201299D02*
X107121D01*
X102500Y191399D02*
X107087D01*
X102500Y181499D02*
X107053D01*
X102500Y171599D02*
X107020D01*
X102500Y166199D02*
X107019D01*
X102500Y176099D02*
X106987D01*
X102500Y185999D02*
X106956D01*
X102500Y195899D02*
X106926D01*
X102500Y205799D02*
X106896D01*
X102500Y210299D02*
X106700D01*
X102500Y200399D02*
X106677D01*
X102500Y190499D02*
X106656D01*
X102500Y180599D02*
X106635D01*
X102500Y170699D02*
X106614D01*
X102500Y167099D02*
X106614D01*
X102500Y213899D02*
X106600D01*
X102500Y176999D02*
X106594D01*
X102500Y186899D02*
X106575D01*
X102500Y196799D02*
X106557D01*
X102500Y223799D02*
X106543D01*
X102500Y206699D02*
X106540D01*
X102500Y209399D02*
X106429D01*
X102500Y199499D02*
X106417D01*
X102500Y189599D02*
X106406D01*
X102500Y179699D02*
X106395D01*
X102500Y169799D02*
X106385D01*
X102500Y167999D02*
X106385D01*
X102500Y177899D02*
X106376D01*
X102500Y187799D02*
X106367D01*
X102500Y197699D02*
X106359D01*
X102500Y207599D02*
X106352D01*
X102500Y208499D02*
X106316D01*
X102500Y198599D02*
X106314D01*
X102500Y188699D02*
X106312D01*
X102500Y178799D02*
X106311D01*
X102500Y168899D02*
X106311D01*
X102500Y214799D02*
X106235D01*
X102500Y222899D02*
X106215D01*
X102500Y221999D02*
X106161D01*
X102500Y221099D02*
X106161D01*
X102500Y220199D02*
X106161D01*
X102500Y219299D02*
X106161D01*
X102500Y218399D02*
X106161D01*
X102500Y217499D02*
X106161D01*
X102500Y216599D02*
X106161D01*
X102500Y215699D02*
X106161D01*
X102500Y127499D02*
X104862D01*
X102500Y261599D02*
X104565D01*
X102500Y276899D02*
X104374D01*
X102500Y112199D02*
X104122D01*
X100000Y107874D02*
G03X107874Y100000I7874J0D01*
G01X170866*
G03X178740Y107874I0J7874*
G01Y281102*
G03X170866Y288976I-7874J0*
G01X107874*
G03X100000Y281102I0J-7874*
G01Y107874*
G74*
X0Y0D02*
M02*
