*
*
G04 PADS 9.5 Build Number: 522968 generated Gerber (RS-274-X) file*
G04 PC Version=2.1*
*
%IN "Plasma_Gen_Main Board_P"*%
*
%MOIN*%
*
%FSLAX35Y35*%
*
*
*
*
G04 PC Standard Apertures*
*
*
G04 Thermal Relief Aperture macro.*
%AMTER*
1,1,$1,0,0*
1,0,$1-$2,0,0*
21,0,$3,$4,0,0,45*
21,0,$3,$4,0,0,135*
%
*
*
G04 Annular Aperture macro.*
%AMANN*
1,1,$1,0,0*
1,0,$2,0,0*
%
*
*
G04 Odd Aperture macro.*
%AMODD*
1,1,$1,0,0*
1,0,$1-0.005,0,0*
%
*
*
G04 PC Custom Aperture Macros*
*
*
*
*
*
*
G04 PC Aperture Table*
*
%ADD010C,0.001*%
%ADD011R,0.01969X0.01969*%
%ADD012R,0.04724X0.04724*%
%ADD013R,0.06299X0.01969*%
%ADD014O,0.08661X0.05118*%
%ADD015C,0.03543*%
%ADD016R,0.03346X0.02756*%
%ADD017R,0.0315X0.0315*%
%ADD018C,0.07874*%
%ADD019C,0.07087*%
%ADD020C,0.00394*%
%ADD021O,0.04724X0.05906*%
%ADD022C,0.01575*%
%ADD023C,0.00787*%
%ADD024C,0.02362*%
%ADD025C,0.00354*%
%ADD026C,0.01181*%
*
*
*
*
G04 PC Circuitry*
G04 Layer Name Plasma_Gen_Main Board_P - circuitry*
%LPD*%
*
*
G04 PC Custom Flashes*
G04 Layer Name Plasma_Gen_Main Board_P - flashes*
%LPD*%
*
*
G04 PC Circuitry*
G04 Layer Name Plasma_Gen_Main Board_P - circuitry*
%LPD*%
*
G54D10*
G54D11*
G01X203937Y249606D03*
X207087D03*
X209843Y280709D03*
X206693D03*
X209843Y277165D03*
X206693D03*
X209843Y273622D03*
X206693D03*
X200000Y168898D03*
X203150D03*
X200000Y224016D03*
X203150D03*
X200000Y196457D03*
X203150D03*
G54D12*
X182480Y249606D03*
X190748D03*
G54D13*
X180807Y280709D03*
Y277165D03*
Y273622D03*
X192421D03*
Y277165D03*
Y280709D03*
G54D14*
X106693Y175886D03*
Y197343D03*
G54D15*
X133661Y117717D03*
X138583D03*
X143504D03*
X167913D03*
X172835D03*
X177756D03*
X182677D03*
X187598D03*
X192520D03*
X197441D03*
G54D16*
X146752Y213583D03*
Y226575D03*
X131988Y213583D03*
Y226575D03*
Y179331D03*
Y166339D03*
X146752Y179331D03*
Y166339D03*
X131988Y273819D03*
Y260827D03*
X146752Y273819D03*
Y260827D03*
G54D17*
X183661Y168898D03*
X189567D03*
X183661Y196457D03*
X189567D03*
X183661Y224016D03*
X189567D03*
G54D18*
X109843Y109843D03*
X216142D03*
X109843Y320472D03*
X196457D03*
G54D19*
X166929Y326378D03*
Y304724D03*
G54D20*
X118209Y179331D02*
X118363Y179319D01*
X118513Y179283*
X118656Y179223*
X118656D02*
X118787Y179143D01*
X118905Y179042*
X119005Y178925*
X119086Y178793*
X119145Y178651*
X119181Y178500*
X119193Y178346*
Y171260*
X119181Y171106*
X119145Y170956*
X119086Y170813*
X119005Y170681*
X118905Y170564*
X118787Y170464*
X118656Y170383*
X118656D02*
X118513Y170324D01*
X118363Y170288*
X118209Y170276*
X115846*
X115692Y170288*
X115542Y170324*
X115400Y170383*
X115268Y170464*
X115150Y170564*
X115050Y170681*
X114969Y170813*
X114910Y170956*
X114874Y171106*
X114862Y171260*
Y178346*
X114874Y178500*
X114910Y178651*
X114969Y178793*
X115050Y178925*
X115150Y179042*
X115268Y179143*
X115400Y179223*
X115542Y179283*
X115692Y179319*
X115846Y179331*
X118209*
X114961Y170834D02*
Y178772D01*
X115157Y170558D02*
Y179048D01*
X115354Y170411D02*
Y179196D01*
X115551Y170322D02*
Y179285D01*
X115748Y170283D02*
Y179323D01*
X115945Y170276D02*
Y179331D01*
X116142Y170276D02*
Y179331D01*
X116339Y170276D02*
Y179331D01*
X116535Y170276D02*
Y179331D01*
X116732Y170276D02*
Y179331D01*
X116929Y170276D02*
Y179331D01*
X117126Y170276D02*
Y179331D01*
X117323Y170276D02*
Y179331D01*
X117520Y170276D02*
Y179331D01*
X117717Y170276D02*
Y179331D01*
X117913Y170276D02*
Y179331D01*
X118110Y170276D02*
Y179331D01*
X118307Y170283D02*
Y179323D01*
X118504Y170322D02*
Y179285D01*
X118701Y170411D02*
Y179196D01*
X118898Y170558D02*
Y179048D01*
X119094Y170834D02*
Y178772D01*
X118209Y202953D02*
X118363Y202941D01*
X118513Y202905*
X118656Y202845*
X118656D02*
X118787Y202765D01*
X118905Y202664*
X119005Y202547*
X119086Y202415*
X119145Y202273*
X119181Y202122*
X119193Y201969*
Y194882*
X119181Y194728*
X119145Y194578*
X119086Y194435*
X119005Y194303*
X118905Y194186*
X118787Y194086*
X118656Y194005*
X118656D02*
X118513Y193946D01*
X118363Y193910*
X118209Y193898*
X115846*
X115692Y193910*
X115542Y193946*
X115400Y194005*
X115268Y194086*
X115150Y194186*
X115050Y194303*
X114969Y194435*
X114910Y194578*
X114874Y194728*
X114862Y194882*
Y201969*
X114874Y202122*
X114910Y202273*
X114969Y202415*
X115050Y202547*
X115150Y202664*
X115268Y202765*
X115400Y202845*
X115542Y202905*
X115692Y202941*
X115846Y202953*
X118209*
X114961Y194456D02*
Y202394D01*
X115157Y194180D02*
Y202670D01*
X115354Y194033D02*
Y202818D01*
X115551Y193944D02*
Y202907D01*
X115748Y193905D02*
Y202945D01*
X115945Y193898D02*
Y202953D01*
X116142Y193898D02*
Y202953D01*
X116339Y193898D02*
Y202953D01*
X116535Y193898D02*
Y202953D01*
X116732Y193898D02*
Y202953D01*
X116929Y193898D02*
Y202953D01*
X117126Y193898D02*
Y202953D01*
X117323Y193898D02*
Y202953D01*
X117520Y193898D02*
Y202953D01*
X117717Y193898D02*
Y202953D01*
X117913Y193898D02*
Y202953D01*
X118110Y193898D02*
Y202953D01*
X118307Y193905D02*
Y202945D01*
X118504Y193944D02*
Y202907D01*
X118701Y194033D02*
Y202818D01*
X118898Y194180D02*
Y202670D01*
X119094Y194456D02*
Y202394D01*
X100000Y100000D02*
X225984D01*
Y332283*
X100000*
Y100000*
G54D21*
X117028Y176575D03*
Y196654D03*
G54D22*
X122283Y142402D02*
X143504Y121181D01*
Y117717*
X122283Y142402D02*
Y208425D01*
X124764Y210906*
Y212835*
X140512Y279173D02*
X153661D01*
X163346Y269488*
X209134*
X209882Y270236*
X209843Y273622D02*
X209882Y273583D01*
Y270236*
X209843Y273622D02*
X213386D01*
G54D23*
X116339Y197343D02*
X117028Y196654D01*
X127362Y182441D02*
X129843Y179961D01*
X132874*
X127362Y182441D02*
Y200079D01*
X129646Y202362*
X117224Y218949D02*
X148598D01*
X161606Y205941*
X208654*
X110551Y211496D02*
Y243110D01*
X118110Y250669*
X134409*
X110551Y211496D02*
X112598Y209449D01*
Y125472*
X127362Y110669*
X174764*
X177756Y113661*
Y117717*
X132874Y179961D02*
X131988Y179331D01*
X146083*
X146752Y178661*
Y179331*
X131988Y213583D02*
X143268D01*
X183693Y209823D02*
X215575D01*
X168110Y140528D02*
X172201D01*
X173567Y141894*
X213476*
X170866Y201181D02*
X174016D01*
X178740Y196457*
X183661*
X151669Y197461D02*
X157752Y203543D01*
X203630*
X203870Y203303*
X167323Y173622D02*
Y171260D01*
X169685Y168898*
X183661*
X164094Y181496D02*
X208661D01*
X147992Y187520D02*
X151260Y190787D01*
X190000*
X190945Y191732*
X146752Y213583D02*
X143268D01*
Y210118*
X157728Y157689D02*
Y138614D01*
X171496Y124846*
Y124843*
X190315*
X192520Y122638*
Y117717*
X151642Y157673D02*
Y139307D01*
X169154Y121795*
Y121772*
X185984*
X187598Y120157*
Y117717*
X196811Y216929D02*
X222047D01*
X141890Y181496D02*
X144370Y183976D01*
X160433*
X162913Y181496*
X164094*
X150315Y170315D02*
X155146D01*
X168311Y157150*
X168307D02*
X168311D01*
X189567Y196457D02*
X200000D01*
X189567Y168898D02*
X200000D01*
X203150Y196457D02*
X222047D01*
X203150Y168898D02*
X222047D01*
X113110Y260906D02*
X131909D01*
X131988Y260827*
X146752*
X131988Y273819D02*
X146752D01*
X173819Y222559D02*
X175198Y223938D01*
X183623*
X183661Y223976*
Y224016*
X163228Y280709D02*
X181417D01*
X165787Y276969D02*
X165984Y277165D01*
X180807*
X146535Y248740D02*
X182480D01*
Y249606*
X146752Y260827D02*
X196339D01*
X202835Y254331*
X146752Y273819D02*
X146801Y273770D01*
Y270915*
X153150Y264567*
X183256*
X189567Y224016D02*
X200000D01*
X203150D02*
X222047D01*
X168071Y273622D02*
X180807D01*
X209843D02*
Y277165D01*
Y280709*
X192421D02*
X206693D01*
X192421Y277165D02*
X206693D01*
X192421Y273622D02*
X206693D01*
X180807Y280709D02*
X181417D01*
X190748Y249606D02*
X203937D01*
X207087D02*
X213346D01*
G54D24*
X115748Y129528D03*
X137008Y133465D03*
X103937Y119685D03*
X119685Y103937D03*
X133465Y139370D03*
X133858Y123228D03*
X179071Y138047D03*
X162992Y103937D03*
X141339D03*
X206299D03*
X210236Y124803D03*
X149213Y127559D03*
X153150Y117717D03*
X183858Y132677D03*
Y138189D03*
X184646Y103937D03*
X196457Y124409D03*
X147854Y139362D03*
X222047Y119685D03*
X124764Y212835D03*
X103937Y204331D03*
Y190551D03*
Y182677D03*
X115748Y162992D03*
X131102Y198425D03*
X103937Y147244D03*
X137008Y208268D03*
X127559Y149213D03*
X137008Y198425D03*
X117224Y218949D03*
X129646Y202362D03*
X129528Y161024D03*
X125591Y203543D03*
X183693Y209823D03*
X215575D03*
X168110Y140528D03*
X141339Y164961D03*
X195669Y177953D03*
Y185433D03*
X195276Y193307D03*
X153937Y174646D03*
X182677Y158268D03*
X164173Y167717D03*
X162992Y176772D03*
X197244Y155118D03*
X170866Y201181D03*
X148425Y193307D03*
X162992Y186614D03*
X163106Y194520D03*
X169406Y147457D03*
X159055Y212205D03*
X143701Y198819D03*
X151669Y197461D03*
X164567Y212205D03*
X143268Y210118D03*
X209843Y174409D03*
X190945Y191732D03*
X167323Y173622D03*
X164094Y181496D03*
X147992Y187520D03*
X208654Y205941D03*
X180303Y212417D03*
X200787Y214173D03*
X183071Y218898D03*
X157728Y157689D03*
X151642Y157673D03*
X209843Y190551D03*
X154843Y148795D03*
X219291Y187008D03*
X196811Y216929D03*
X203870Y203303D03*
X141890Y181496D03*
X150315Y170315D03*
X213476Y141894D03*
X168307Y157150D03*
X208661Y181496D03*
X222047Y143307D03*
Y164961D03*
Y168898D03*
Y216929D03*
Y196457D03*
X125591Y267323D03*
X133465Y287008D03*
X103937Y281102D03*
X113110Y260906D03*
X125591Y283071D03*
X103937Y233858D03*
Y257480D03*
X137795Y257874D03*
X133465Y246457D03*
Y233858D03*
X134409Y250669D03*
X213386Y273622D03*
X140512Y279173D03*
X202835Y254331D03*
X151181Y287008D03*
X162992Y241732D03*
X151181Y227953D03*
X178740D03*
X182677Y287008D03*
X187402Y265630D03*
X192559Y265827D03*
X200276Y265551D03*
X208268Y255512D03*
X170079Y222638D03*
X215354Y229134D03*
X176772Y243701D03*
X164961Y227953D03*
X162992Y255512D03*
X208583Y265630D03*
X176772Y255512D03*
X147244D03*
X183465Y299606D03*
X195276Y244094D03*
X204331Y287008D03*
X166929Y288976D03*
X149213Y245669D03*
X215354Y220472D03*
X154528Y269449D03*
X203110Y220236D03*
X173819Y222559D03*
X183256Y264567D03*
X166929Y293701D03*
X163228Y280709D03*
X165787Y276969D03*
X186614Y257874D03*
X213346Y249606D03*
X191339Y229134D03*
X152362Y222638D03*
X146535Y248740D03*
X168071Y273622D03*
X222047Y267323D03*
Y241732D03*
Y294882D03*
Y224016D03*
X117717Y310630D03*
X127559D03*
X134252Y327559D03*
X103937Y304724D03*
X127953Y329528D03*
X122047D03*
X178346Y305512D03*
X177953Y321260D03*
X155906D03*
X141339Y310630D03*
X166929Y314567D03*
X181496Y321260D03*
X146457Y329528D03*
X140551D03*
X152362Y321260D03*
X210236Y310630D03*
X184646Y328346D03*
X222047D03*
G54D25*
X220846Y109843D02*
G75*
G03X220846I-4704J0D01*
G01X114547D02*
G03X114547I-4704J0D01*
G01X201161Y320472D02*
G03X201161I-4704J0D01*
G01X171240Y304724D02*
G03X171240I-4311J0D01*
G01Y326378D02*
G03X171240I-4311J0D01*
G01X114547Y320472D02*
G03X114547I-4704J0D01*
G01X224823Y101339D02*
Y330945D01*
G03X224646Y331122I-177J-0*
G01X101339*
G03X101161Y330945I-0J-177*
G01Y198270*
G03X101510Y198226I178J0*
G01X104921Y200866D02*
G03X101510Y198226I0J-3523D01*
G01X104921Y200866D02*
X108465D01*
X110939Y199852D02*
G03X108465Y200866I-2474J-2509D01*
G01X110939Y199852D02*
G03X111240Y199978I124J126D01*
G01Y208813*
G03X111188Y208938I-177J-0*
G01X109591Y210536*
X109193Y211496D02*
G03X109591Y210536I1358J0D01*
G01X109193Y211496D02*
Y243110D01*
X109591Y244071D02*
G03X109193Y243110I960J-961D01*
G01X109591Y244071D02*
X117150Y251630D01*
X118110Y252028D02*
G03X117150Y251630I0J-1359D01*
G01X118110Y252028D02*
X132666D01*
G03X132799Y252088I0J177*
G01Y249251D02*
G03Y252088I1610J1418D01*
G01Y249251D02*
G03X132666Y249311I-133J-117D01*
G01X118746*
G03X118621Y249259I0J-177*
G01X111961Y242600*
G03X111909Y242474I126J-126*
G01Y212132*
G03X111961Y212007I178J0*
G01X113559Y210409*
X113957Y209449D02*
G03X113559Y210409I-1359J-0D01*
G01X113957Y209449D02*
Y203538D01*
G03X114264Y203418I177J-0*
G01X115846Y204114D02*
G03X114265Y203418I0J-2145D01*
G01X115846Y204114D02*
X118209D01*
X120191Y202790D02*
G03X118209Y204114I-1982J-821D01*
G01X120191Y202790D02*
G03X120531Y202858I163J68D01*
G01Y208425*
X121045Y209664D02*
G03X120531Y208425I1238J-1239D01*
G01X121045Y209664D02*
X122896Y211516D01*
G03X122923Y211732I-125J125*
G01X126546Y211639D02*
G03X122923Y211732I-1782J1196D01*
G01X126546Y211639D02*
G03X126516Y211541I147J-98D01*
G01Y210906*
X126003Y209667D02*
G03X126516Y210906I-1239J1239D01*
G01X126003Y209667D02*
X124087Y207751D01*
G03X124035Y207626I126J-125*
G01Y143201*
G03X124087Y143075I178J-0*
G01X144743Y122420*
X145256Y121181D02*
G03X144743Y122420I-1752J0D01*
G01X145256Y121181D02*
Y119900D01*
G03X145316Y119767I177J-0*
G01X141193Y116252D02*
G03X145316Y119767I2311J1465D01*
G01X141193Y116252D02*
G03X140894I-150J-95D01*
G01X136272D02*
G03X140894I2311J1465D01*
G01X136272D02*
G03X135972I-150J-95D01*
G01Y119182D02*
G03Y116252I-2311J-1465D01*
G01Y119182D02*
G03X136272I150J94D01*
G01X140894D02*
G03X136272I-2311J-1465D01*
G01X140894D02*
G03X141193I149J94D01*
G01X141692Y119767D02*
G03X141193Y119182I1812J-2050D01*
G01X141692Y119767D02*
G03X141752Y119900I-117J133D01*
G01Y120382*
G03X141700Y120507I-177J0*
G01X121045Y141163*
X120531Y142402D02*
G03X121045Y141163I1752J-0D01*
G01X120531Y142402D02*
Y170370D01*
G03X120191Y170438I-177J-0*
G01X118209Y169114D02*
G03X120191Y170438I-0J2146D01*
G01X118209Y169114D02*
X115846D01*
X114264Y169810D02*
G03X115846Y169114I1582J1450D01*
G01X114264Y169810D02*
G03X113957Y169691I-130J-119D01*
G01Y126107*
G03X114008Y125982I177J0*
G01X127874Y112080*
G03X127999Y112028I125J125*
G01X174128*
G03X174253Y112079I-0J177*
G01X176346Y114172*
G03X176398Y114297I-126J125*
G01Y115241*
G03X176314Y115391I-178J-0*
G01X175445Y116252D02*
G03X176314Y115391I2311J1465D01*
G01X175445Y116252D02*
G03X175146I-150J-95D01*
G01X170524D02*
G03X175146I2311J1465D01*
G01X170524D02*
G03X170224I-150J-95D01*
G01X168123Y120445D02*
G03X170224Y116252I-210J-2728D01*
G01X168123Y120445D02*
G03X168254Y120754I13J176D01*
G01X168062Y120963D02*
G03X168254Y120754I1092J809D01*
G01X168062Y120963D02*
G03X168045Y120983I-142J-106D01*
G01X150681Y138347*
X150283Y139307D02*
G03X150681Y138347I1359J0D01*
G01X150283Y139307D02*
Y155930D01*
G03X150223Y156063I-177J0*
G01X153060D02*
G03X150223I-1418J1610D01*
G01X153060D02*
G03X153000Y155930I117J-133D01*
G01Y139943*
G03X153052Y139818I177J0*
G01X169688Y123182*
G03X169813Y123130I125J125*
G01X171485*
G03X171486Y123484I-0J177*
G01X170480Y123942D02*
G03X171486Y123484I1016J901D01*
G01X170480Y123942D02*
G03X170472Y123949I-133J-118D01*
G01X156768Y137654*
X156370Y138614D02*
G03X156768Y137654I1358J0D01*
G01X156370Y138614D02*
Y155946D01*
G03X156310Y156079I-177J-0*
G01X159147D02*
G03X156310I-1419J1610D01*
G01X159147D02*
G03X159087Y155946I117J-133D01*
G01Y139250*
G03X159139Y139125I177J0*
G01X172011Y126253*
G03X172136Y126201I125J125*
G01X190315*
X191275Y125803D02*
G03X190315Y126201I-960J-960D01*
G01X191275Y125803D02*
X193480Y123598D01*
X193878Y122638D02*
G03X193480Y123598I-1358J-0D01*
G01X193878Y122638D02*
Y120192D01*
G03X193962Y120042I177J0*
G01X194831Y119182D02*
G03X193962Y120042I-2311J-1465D01*
G01X194831Y119182D02*
G03X195130I149J94D01*
G01Y116252D02*
G03Y119182I2311J1465D01*
G01Y116252D02*
G03X194831I-150J-95D01*
G01X190209D02*
G03X194831I2311J1465D01*
G01X190209D02*
G03X189909I-150J-95D01*
G01X185287D02*
G03X189909I2311J1465D01*
G01X185287D02*
G03X184988I-149J-95D01*
G01X180366D02*
G03X184988I2311J1465D01*
G01X180366D02*
G03X180067I-149J-95D01*
G01X179198Y115391D02*
G03X180067Y116252I-1442J2326D01*
G01X179198Y115391D02*
G03X179114Y115241I93J-150D01*
G01Y113661*
X178716Y112701D02*
G03X179114Y113661I-960J960D01*
G01X178716Y112701D02*
X175724Y109709D01*
X174764Y109311D02*
G03X175724Y109709I-0J1358D01*
G01X174764Y109311D02*
X127362D01*
X126400Y109710D02*
G03X127362Y109311I962J959D01*
G01X126400Y109710D02*
X111637Y124513D01*
X111240Y125472D02*
G03X111637Y124513I1358J0D01*
G01X111240Y125472D02*
Y173251D01*
G03X110939Y173377I-177J-0*
G01X108465Y172362D02*
G03X110939Y173377I-0J3524D01*
G01X108465Y172362D02*
X104921D01*
X101510Y175003D02*
G03X104921Y172362I3411J883D01*
G01X101510Y175003D02*
G03X101161Y174958I-171J-45D01*
G01Y101339*
G03X101339Y101161I178J-0*
G01X224646*
G03X224823Y101339I-0J178*
G01X120531Y179236D02*
Y193992D01*
G03X120191Y194060I-177J0*
G01X118209Y192736D02*
G03X120191Y194060I-0J2146D01*
G01X118209Y192736D02*
X115846D01*
X114264Y193432D02*
G03X115846Y192736I1582J1450D01*
G01X114264Y193432D02*
G03X113957Y193313I-130J-119D01*
G01Y179916*
G03X114264Y179796I177J-0*
G01X115846Y180492D02*
G03X114265Y179796I0J-2146D01*
G01X115846Y180492D02*
X118209D01*
X120191Y179168D02*
G03X118209Y180492I-1982J-822D01*
G01X120191Y179168D02*
G03X120531Y179236I163J68D01*
G01X111240Y178521D02*
Y194707D01*
G03X110939Y194833I-177J0*
G01X108465Y193819D02*
G03X110939Y194833I-0J3524D01*
G01X108465Y193819D02*
X104921D01*
X101510Y196459D02*
G03X104921Y193819I3411J884D01*
G01X101510Y196459D02*
G03X101161Y196415I-171J-44D01*
G01Y176813*
G03X101510Y176769I178J0*
G01X104921Y179409D02*
G03X101510Y176769I0J-3523D01*
G01X104921Y179409D02*
X108465D01*
X110939Y178395D02*
G03X108465Y179409I-2474J-2509D01*
G01X110939Y178395D02*
G03X111240Y178521I124J126D01*
G01X220846Y109843D02*
G03X220846I-4704J0D01*
G01X114547D02*
G03X114547I-4704J0D01*
G01X211866Y140475D02*
G03Y143312I1610J1419D01*
G01Y140475D02*
G03X211733Y140535I-133J-117D01*
G01X174203*
G03X174078Y140484I-0J-177*
G01X173161Y139567*
X172201Y139169D02*
G03X173161Y139567I-0J1359D01*
G01X172201Y139169D02*
X169853D01*
G03X169720Y139109I0J-177*
G01Y141946D02*
G03Y139109I-1610J-1418D01*
G01Y141946D02*
G03X169853Y141886I133J117D01*
G01X171565*
G03X171690Y141938I-0J177*
G01X172606Y142854*
X173567Y143252D02*
G03X172606Y142854I-0J-1358D01*
G01X173567Y143252D02*
X211733D01*
G03X211866Y143312I0J177*
G01X220437Y167479D02*
G03Y170316I1610J1419D01*
G01Y167479D02*
G03X220304Y167539I-133J-117D01*
G01X205134*
G03X204979Y167448I-0J-177*
G01X204134Y166949D02*
G03X204979Y167448I-0J964D01*
G01X204134Y166949D02*
X202165D01*
X201666Y167088D02*
G03X202165Y166949I499J825D01*
G01X201666Y167088D02*
G03X201483I-91J-152D01*
G01X200984Y166949D02*
G03X201483Y167088I0J964D01*
G01X200984Y166949D02*
X199016D01*
X198171Y167448D02*
G03X199016Y166949I845J465D01*
G01X198171Y167448D02*
G03X198016Y167539I-155J-86D01*
G01X192283*
G03X192106Y167362I0J-177*
G01Y167323*
X191142Y166358D02*
G03X192106Y167323I-0J965D01*
G01X191142Y166358D02*
X187992D01*
X187028Y167323D02*
G03X187992Y166358I964J-0D01*
G01X187028Y167323D02*
Y170472D01*
X187992Y171437D02*
G03X187028Y170472I0J-965D01*
G01X187992Y171437D02*
X191142D01*
X192106Y170472D02*
G03X191142Y171437I-964J0D01*
G01X192106Y170472D02*
Y170433D01*
G03X192283Y170256I177J0*
G01X198016*
G03X198171Y170348I-0J177*
G01X199016Y170846D02*
G03X198171Y170348I-0J-964D01*
G01X199016Y170846D02*
X200984D01*
X201483Y170707D02*
G03X200984Y170846I-499J-825D01*
G01X201483Y170707D02*
G03X201666I92J152D01*
G01X202165Y170846D02*
G03X201666Y170707I0J-964D01*
G01X202165Y170846D02*
X204134D01*
X204979Y170348D02*
G03X204134Y170846I-845J-466D01*
G01X204979Y170348D02*
G03X205134Y170256I155J85D01*
G01X220304*
G03X220437Y170316I0J177*
G01X186201Y170472D02*
Y167323D01*
X185236Y166358D02*
G03X186201Y167323I0J965D01*
G01X185236Y166358D02*
X182087D01*
X181122Y167323D02*
G03X182087Y166358I965J-0D01*
G01X181122Y167323D02*
Y167362D01*
G03X180945Y167539I-177J0*
G01X169685*
X168725Y167937D02*
G03X169685Y167539I960J961D01*
G01X168725Y167937D02*
X166362Y170299D01*
X165965Y171260D02*
G03X166362Y170299I1358J-0D01*
G01X165965Y171260D02*
Y171879D01*
G03X165904Y172012I-178J0*
G01X168749Y172019D02*
G03X165904Y172012I-1426J1603D01*
G01X168749Y172019D02*
G03X168742Y171762I118J-132D01*
G01X170196Y170308*
G03X170321Y170256I125J125*
G01X180945*
G03X181122Y170433I-0J177*
G01Y170472*
X182087Y171437D02*
G03X181122Y170472I-0J-965D01*
G01X182087Y171437D02*
X185236D01*
X186201Y170472D02*
G03X185236Y171437I-965J0D01*
G01X134626Y167717D02*
Y164961D01*
X133661Y163996D02*
G03X134626Y164961I0J965D01*
G01X133661Y163996D02*
X130315D01*
X129350Y164961D02*
G03X130315Y163996I965J-0D01*
G01X129350Y164961D02*
Y167717D01*
X130315Y168681D02*
G03X129350Y167717I-0J-964D01*
G01X130315Y168681D02*
X133661D01*
X134626Y167717D02*
G03X133661Y168681I-965J-0D01*
G01X220437Y195038D02*
G03Y197875I1610J1419D01*
G01Y195038D02*
G03X220304Y195098I-133J-117D01*
G01X205134*
G03X204979Y195007I-0J-177*
G01X204134Y194508D02*
G03X204979Y195007I-0J964D01*
G01X204134Y194508D02*
X202165D01*
X201666Y194647D02*
G03X202165Y194508I499J825D01*
G01X201666Y194647D02*
G03X201483I-91J-152D01*
G01X200984Y194508D02*
G03X201483Y194647I0J964D01*
G01X200984Y194508D02*
X199016D01*
X198171Y195007D02*
G03X199016Y194508I845J465D01*
G01X198171Y195007D02*
G03X198016Y195098I-155J-86D01*
G01X192283*
G03X192106Y194921I0J-177*
G01Y194882*
X191652Y194063D02*
G03X192106Y194882I-510J819D01*
G01X191652Y194063D02*
G03X191684Y193747I93J-150D01*
G01X190721Y189598D02*
G03X191684Y193747I224J2134D01*
G01X190721Y189598D02*
G03X190621Y189580I-18J-176D01*
G01X190000Y189429D02*
G03X190621Y189580I0J1358D01*
G01X190000Y189429D02*
X151896D01*
G03X151771Y189377I-0J-177*
G01X150185Y187792*
G03X150134Y187655I125J-126*
G01X149071Y185665D02*
G03X150134Y187655I-1079J1855D01*
G01X149071Y185665D02*
G03X149160Y185335I89J-153D01*
G01X160433*
X161394Y184937D02*
G03X160433Y185335I-961J-961D01*
G01X161394Y184937D02*
X162898Y183432D01*
G03X163105Y183400I126J125*
G01X165705Y182914D02*
G03X163105Y183400I-1611J-1418D01*
G01X165705Y182914D02*
G03X165837Y182854I132J118D01*
G01X206918*
G03X207051Y182914I0J178*
G01Y180078D02*
G03Y182914I1610J1418D01*
G01Y180078D02*
G03X206918Y180138I-133J-117D01*
G01X165837*
G03X165705Y180078I0J-177*
G01X162361Y180232D02*
G03X165705Y180078I1733J1264D01*
G01X162361Y180232D02*
G03X162298Y180285I-143J-105D01*
G01X161953Y180536D02*
G03X162298Y180285I960J960D01*
G01X161953Y180536D02*
X159922Y182566D01*
G03X159797Y182618I-125J-125*
G01X145006*
G03X144881Y182566I0J-177*
G01X144083Y181768*
G03X144031Y181632I125J-125*
G01X144035Y181455D02*
G03X144031Y181632I-2145J41D01*
G01X144035Y181455D02*
G03X144347Y181337I177J-3D01*
G01X145079Y181673D02*
G03X144347Y181337I-0J-964D01*
G01X145079Y181673D02*
X148425D01*
X149390Y180709D02*
G03X148425Y181673I-965J-0D01*
G01X149390Y180709D02*
Y177953D01*
X148425Y176988D02*
G03X149390Y177953I0J965D01*
G01X148425Y176988D02*
X145079D01*
X144123Y177820D02*
G03X145079Y176988I956J133D01*
G01X144123Y177820D02*
G03X143948Y177972I-175J-25D01*
G01X134792*
G03X134617Y177820I0J-177*
G01X133661Y176988D02*
G03X134617Y177820I0J965D01*
G01X133661Y176988D02*
X130315D01*
X129350Y177953D02*
G03X130315Y176988I965J-0D01*
G01X129350Y177953D02*
Y178579D01*
G03X129250Y178738I-177J-0*
G01X128882Y179000D02*
G03X129250Y178738I961J961D01*
G01X128882Y179000D02*
X126402Y181480D01*
X126004Y182441D02*
G03X126402Y181480I1358J-0D01*
G01X126004Y182441D02*
Y200079D01*
X126402Y201039D02*
G03X126004Y200079I960J-960D01*
G01X126402Y201039D02*
X127453Y202090D01*
G03X127504Y202227I-126J125*
G01X129510Y200221D02*
G03X127504Y202227I136J2141D01*
G01X129510Y200221D02*
G03X129374Y200169I-11J-177D01*
G01X128772Y199568*
G03X128720Y199443I126J-125*
G01Y183077*
G03X128772Y182952I178J-0*
G01X130013Y181711*
G03X130165Y181662I125J126*
G01X130315Y181673D02*
G03X130165Y181662I-0J-964D01*
G01X130315Y181673D02*
X133661D01*
X134617Y180842D02*
G03X133661Y181673I-956J-133D01*
G01X134617Y180842D02*
G03X134792Y180689I175J24D01*
G01X139654*
G03X139824Y180914I-0J177*
G01X142025Y183637D02*
G03X139824Y180914I-135J-2141D01*
G01X142025Y183637D02*
G03X142162Y183689I12J177D01*
G01X143410Y184937*
X144370Y185335D02*
G03X143410Y184937I0J-1359D01*
G01X144370Y185335D02*
X146824D01*
G03X146913Y185665I0J177*
G01X148128Y189661D02*
G03X146913Y185665I-136J-2141D01*
G01X148128Y189661D02*
G03X148264Y189713I11J177D01*
G01X150299Y191748*
X151260Y192146D02*
G03X150299Y191748I-0J-1359D01*
G01X151260Y192146D02*
X188698D01*
G03X188870Y192278I0J177*
G01X189866Y193587D02*
G03X188870Y192278I1079J-1855D01*
G01X189866Y193587D02*
G03X189777Y193917I-89J153D01*
G01X187992*
X187028Y194882D02*
G03X187992Y193917I964J-0D01*
G01X187028Y194882D02*
Y198031D01*
X187992Y198996D02*
G03X187028Y198031I0J-965D01*
G01X187992Y198996D02*
X191142D01*
X192106Y198031D02*
G03X191142Y198996I-964J0D01*
G01X192106Y198031D02*
Y197992D01*
G03X192283Y197815I177J0*
G01X198016*
G03X198171Y197907I-0J177*
G01X199016Y198406D02*
G03X198171Y197907I-0J-965D01*
G01X199016Y198406D02*
X200984D01*
X201483Y198266D02*
G03X200984Y198406I-499J-825D01*
G01X201483Y198266D02*
G03X201666I92J152D01*
G01X202165Y198406D02*
G03X201666Y198266I0J-965D01*
G01X202165Y198406D02*
X204134D01*
X204979Y197907D02*
G03X204134Y198406I-845J-466D01*
G01X204979Y197907D02*
G03X205134Y197815I155J85D01*
G01X220304*
G03X220437Y197875I0J177*
G01X207043Y204523D02*
G03Y207359I1611J1418D01*
G01Y204523D02*
G03X206911Y204583I-132J-118D01*
G01X205915*
G03X205759Y204321I-0J-178*
G01X202089Y202107D02*
G03X205759Y204321I1781J1196D01*
G01X202089Y202107D02*
G03X201942Y202185I-147J-99D01*
G01X175360*
G03X175235Y201883I0J-177*
G01X179251Y197867*
G03X179376Y197815I125J125*
G01X180945*
G03X181122Y197992I-0J177*
G01Y198031*
X182087Y198996D02*
G03X181122Y198031I-0J-965D01*
G01X182087Y198996D02*
X185236D01*
X186201Y198031D02*
G03X185236Y198996I-965J0D01*
G01X186201Y198031D02*
Y194882D01*
X185236Y193917D02*
G03X186201Y194882I0J965D01*
G01X185236Y193917D02*
X182087D01*
X181122Y194882D02*
G03X182087Y193917I965J-0D01*
G01X181122Y194882D02*
Y194921D01*
G03X180945Y195098I-177J0*
G01X178740*
X177780Y195496D02*
G03X178740Y195098I960J961D01*
G01X177780Y195496D02*
X173505Y199771D01*
G03X173380Y199823I-125J-125*
G01X172609*
G03X172476Y199763I0J-177*
G01X168861Y201945D02*
G03X172476Y199763I2005J-764D01*
G01X168861Y201945D02*
G03X168695Y202185I-166J63D01*
G01X158388*
G03X158263Y202133I-0J-177*
G01X153862Y197733*
G03X153811Y197596I126J-126*
G01X151805Y199602D02*
G03X153811Y197596I-136J-2141D01*
G01X151805Y199602D02*
G03X151941Y199654I11J177D01*
G01X156792Y204504*
X157752Y204902D02*
G03X156792Y204504I-0J-1359D01*
G01X157752Y204902D02*
X160297D01*
G03X160422Y205204I0J177*
G01X148088Y217539*
G03X147962Y217591I-126J-126*
G01X118967*
G03X118834Y217530I0J-178*
G01Y220367D02*
G03Y217530I-1610J-1418D01*
G01Y220367D02*
G03X118967Y220307I133J117D01*
G01X148598*
X149559Y219909D02*
G03X148598Y220307I-961J-960D01*
G01X149559Y219909D02*
X162117Y207351D01*
G03X162242Y207299I125J125*
G01X206911*
G03X207043Y207359I-0J177*
G01X213965Y208404D02*
G03Y211241I1610J1419D01*
G01Y208404D02*
G03X213832Y208465I-133J-117D01*
G01X185436*
G03X185303Y208404I-0J-178*
G01Y211241D02*
G03Y208404I-1610J-1418D01*
G01Y211241D02*
G03X185436Y211181I133J117D01*
G01X213832*
G03X213965Y211241I-0J177*
G01X220437Y215511D02*
G03Y218347I1610J1418D01*
G01Y215511D02*
G03X220304Y215571I-133J-117D01*
G01X198554*
G03X198421Y215511I0J-177*
G01Y218347D02*
G03Y215511I-1610J-1418D01*
G01Y218347D02*
G03X198554Y218287I133J118D01*
G01X220304*
G03X220437Y218347I0J178*
G01Y222597D02*
G03Y225434I1610J1419D01*
G01Y222597D02*
G03X220304Y222657I-133J-117D01*
G01X205134*
G03X204979Y222566I-0J-177*
G01X204134Y222067D02*
G03X204979Y222566I-0J964D01*
G01X204134Y222067D02*
X202165D01*
X201666Y222206D02*
G03X202165Y222067I499J825D01*
G01X201666Y222206D02*
G03X201483I-91J-152D01*
G01X200984Y222067D02*
G03X201483Y222206I0J964D01*
G01X200984Y222067D02*
X199016D01*
X198171Y222566D02*
G03X199016Y222067I845J465D01*
G01X198171Y222566D02*
G03X198016Y222657I-155J-86D01*
G01X192283*
G03X192106Y222480I0J-177*
G01Y222441*
X191142Y221476D02*
G03X192106Y222441I-0J965D01*
G01X191142Y221476D02*
X187992D01*
X187028Y222441D02*
G03X187992Y221476I964J-0D01*
G01X187028Y222441D02*
Y225591D01*
X187992Y226555D02*
G03X187028Y225591I0J-964D01*
G01X187992Y226555D02*
X191142D01*
X192106Y225591D02*
G03X191142Y226555I-964J-0D01*
G01X192106Y225591D02*
Y225551D01*
G03X192283Y225374I177J0*
G01X198016*
G03X198171Y225466I-0J177*
G01X199016Y225965D02*
G03X198171Y225466I-0J-965D01*
G01X199016Y225965D02*
X200984D01*
X201483Y225826D02*
G03X200984Y225965I-499J-826D01*
G01X201483Y225826D02*
G03X201666I92J151D01*
G01X202165Y225965D02*
G03X201666Y225826I0J-965D01*
G01X202165Y225965D02*
X204134D01*
X204979Y225466D02*
G03X204134Y225965I-845J-466D01*
G01X204979Y225466D02*
G03X205134Y225374I155J85D01*
G01X220304*
G03X220437Y225434I0J177*
G01X211736Y248188D02*
G03Y251025I1610J1418D01*
G01Y248188D02*
G03X211603Y248248I-133J-117D01*
G01X209071*
G03X208916Y248156I-0J-177*
G01X208071Y247657D02*
G03X208916Y248156I-0J965D01*
G01X208071Y247657D02*
X206102D01*
X205603Y247797D02*
G03X206102Y247657I499J825D01*
G01X205603Y247797D02*
G03X205420I-91J-152D01*
G01X204921Y247657D02*
G03X205420Y247797I0J965D01*
G01X204921Y247657D02*
X202953D01*
X202108Y248156D02*
G03X202953Y247657I845J466D01*
G01X202108Y248156D02*
G03X201953Y248248I-155J-85D01*
G01X194252*
G03X194075Y248071I-0J-177*
G01Y247244*
X193110Y246280D02*
G03X194075Y247244I0J964D01*
G01X193110Y246280D02*
X188386D01*
X187421Y247244D02*
G03X188386Y246280I965J0D01*
G01X187421Y247244D02*
Y251969D01*
X188386Y252933D02*
G03X187421Y251969I-0J-964D01*
G01X188386Y252933D02*
X193110D01*
X194075Y251969D02*
G03X193110Y252933I-965J-0D01*
G01X194075Y251969D02*
Y251142D01*
G03X194252Y250965I177J-0*
G01X201953*
G03X202108Y251056I-0J177*
G01X202953Y251555D02*
G03X202108Y251056I-0J-964D01*
G01X202953Y251555D02*
X204921D01*
X205420Y251416D02*
G03X204921Y251555I-499J-825D01*
G01X205420Y251416D02*
G03X205603I92J152D01*
G01X206102Y251555D02*
G03X205603Y251416I0J-964D01*
G01X206102Y251555D02*
X208071D01*
X208916Y251056D02*
G03X208071Y251555I-845J-465D01*
G01X208916Y251056D02*
G03X209071Y250965I155J86D01*
G01X211603*
G03X211736Y251025I0J177*
G01X200693Y254466D02*
G03X202699Y256472I2142J-135D01*
G01X200693Y254466D02*
G03X200642Y254603I-177J11D01*
G01X195828Y259417*
G03X195703Y259468I-125J-126*
G01X149556*
G03X149381Y259316I0J-177*
G01X148425Y258484D02*
G03X149381Y259316I0J965D01*
G01X148425Y258484D02*
X145079D01*
X144123Y259316D02*
G03X145079Y258484I956J133D01*
G01X144123Y259316D02*
G03X143948Y259468I-175J-25D01*
G01X134792*
G03X134617Y259316I0J-177*
G01X133661Y258484D02*
G03X134617Y259316I0J965D01*
G01X133661Y258484D02*
X130315D01*
X129353Y259382D02*
G03X130315Y258484I962J67D01*
G01X129353Y259382D02*
G03X129176Y259547I-177J-12D01*
G01X114853*
G03X114720Y259487I0J-177*
G01Y262324D02*
G03Y259487I-1610J-1418D01*
G01Y262324D02*
G03X114853Y262264I133J117D01*
G01X129198*
G03X129371Y262404I-0J177*
G01X130315Y263169D02*
G03X129371Y262404I-0J-964D01*
G01X130315Y263169D02*
X133661D01*
X134617Y262338D02*
G03X133661Y263169I-956J-133D01*
G01X134617Y262338D02*
G03X134792Y262185I175J24D01*
G01X143948*
G03X144123Y262338I-0J177*
G01X145079Y263169D02*
G03X144123Y262338I-0J-964D01*
G01X145079Y263169D02*
X148425D01*
X149381Y262338D02*
G03X148425Y263169I-956J-133D01*
G01X149381Y262338D02*
G03X149556Y262185I175J24D01*
G01X182525*
G03X182580Y262530I-0J177*
G01X181646Y263149D02*
G03X182580Y262530I1610J1418D01*
G01X181646Y263149D02*
G03X181513Y263209I-133J-118D01*
G01X153150*
X152189Y263606D02*
G03X153150Y263209I961J961D01*
G01X152189Y263606D02*
X145841Y269955D01*
X145443Y270915D02*
G03X145841Y269955I1358J0D01*
G01X145443Y270915D02*
Y271299D01*
G03X145266Y271476I-177J0*
G01X145079*
X144123Y272308D02*
G03X145079Y271476I956J133D01*
G01X144123Y272308D02*
G03X143948Y272461I-175J-25D01*
G01X134792*
G03X134617Y272308I0J-178*
G01X133661Y271476D02*
G03X134617Y272308I0J965D01*
G01X133661Y271476D02*
X130315D01*
X129350Y272441D02*
G03X130315Y271476I965J-0D01*
G01X129350Y272441D02*
Y275197D01*
X130315Y276161D02*
G03X129350Y275197I-0J-964D01*
G01X130315Y276161D02*
X133661D01*
X134617Y275330D02*
G03X133661Y276161I-956J-133D01*
G01X134617Y275330D02*
G03X134792Y275177I175J24D01*
G01X143948*
G03X144123Y275330I-0J177*
G01X145079Y276161D02*
G03X144123Y275330I-0J-964D01*
G01X145079Y276161D02*
X148425D01*
X149390Y275197D02*
G03X148425Y276161I-965J-0D01*
G01X149390Y275197D02*
Y272441D01*
X148555Y271485D02*
G03X149390Y272441I-130J956D01*
G01X148555Y271485D02*
G03X148453Y271184I23J-175D01*
G01X153660Y265977*
G03X153786Y265925I126J125*
G01X181513*
G03X181646Y265985I-0J177*
G01X183932Y262530D02*
G03X181646Y265985I-676J2037D01*
G01X183932Y262530D02*
G03X183987Y262185I55J-168D01*
G01X196339*
X197299Y261787D02*
G03X196339Y262185I-960J-960D01*
G01X197299Y261787D02*
X202563Y256524D01*
G03X202699Y256472I125J125*
G01X212191Y271840D02*
G03Y275404I1195J1782D01*
G01Y271840D02*
G03X212092Y271870I-99J-147D01*
G01X211811*
G03X211634Y271693I0J-177*
G01Y270236*
X211121Y268997D02*
G03X211634Y270236I-1239J1239D01*
G01X211121Y268997D02*
X210373Y268249D01*
X209134Y267736D02*
G03X210373Y268249I-0J1752D01*
G01X209134Y267736D02*
X163346D01*
X162108Y268249D02*
G03X163346Y267736I1238J1239D01*
G01X162108Y268249D02*
X152988Y277369D01*
G03X152862Y277421I-126J-125*
G01X141806*
G03X141707Y277391I-0J-177*
G01Y280955D02*
G03Y277391I-1195J-1782D01*
G01Y280955D02*
G03X141806Y280925I99J147D01*
G01X153661*
X154900Y280412D02*
G03X153661Y280925I-1239J-1239D01*
G01X154900Y280412D02*
X164020Y271292D01*
G03X164146Y271240I126J125*
G01X167339*
G03X167395Y271585I0J177*
G01X166149Y274576D02*
G03X167395Y271586I1922J-954D01*
G01X166149Y274576D02*
G03X165975Y274831I-159J79D01*
G01X164216Y278429D02*
G03X165975Y274831I1571J-1460D01*
G01X164216Y278429D02*
G03X164021Y278715I-130J121D01*
G01X164838Y282127D02*
G03X164021Y278715I-1610J-1418D01*
G01X164838Y282127D02*
G03X164971Y282067I133J117D01*
G01X176658*
G03X176813Y282159I-0J177*
G01X177657Y282657D02*
G03X176813Y282159I0J-964D01*
G01X177657Y282658D02*
X183957D01*
X184921Y281693D02*
G03X183957Y282658I-964J-0D01*
G01X184921Y281693D02*
Y279724D01*
X184655Y279059D02*
G03X184921Y279724I-698J665D01*
G01X184655Y279059D02*
G03Y278815I128J-122D01*
G01X184921Y278150D02*
G03X184655Y278815I-964J-0D01*
G01X184921Y278150D02*
Y276181D01*
X184655Y275516D02*
G03X184921Y276181I-698J665D01*
G01X184655Y275516D02*
G03Y275272I128J-122D01*
G01X184921Y274606D02*
G03X184655Y275272I-964J0D01*
G01X184921Y274606D02*
Y272638D01*
X183957Y271673D02*
G03X184921Y272638I-0J965D01*
G01X183957Y271673D02*
X177657D01*
X176813Y272172D02*
G03X177657Y271673I844J466D01*
G01X176813Y272172D02*
G03X176658Y272264I-155J-85D01*
G01X169814*
G03X169681Y272204I-0J-177*
G01X168746Y271586D02*
G03X169681Y272204I-675J2036D01*
G01X168746Y271585D02*
G03X168802Y271240I56J-168D01*
G01X207953*
G03X208130Y271417I-0J177*
G01Y271530*
G03X207910Y271702I-177J-0*
G01X207677Y271673D02*
G03X207910Y271702I0J965D01*
G01X207677Y271673D02*
X205709D01*
X204864Y272172D02*
G03X205709Y271673I845J466D01*
G01X204864Y272172D02*
G03X204709Y272264I-155J-85D01*
G01X196571*
G03X196416Y272172I-0J-177*
G01X195571Y271673D02*
G03X196416Y272172I-0J965D01*
G01X195571Y271673D02*
X189272D01*
X188307Y272638D02*
G03X189272Y271673I965J-0D01*
G01X188307Y272638D02*
Y274606D01*
X188573Y275272D02*
G03X188307Y274606I699J-666D01*
G01X188573Y275272D02*
G03Y275516I-128J122D01*
G01X188307Y276181D02*
G03X188573Y275516I965J0D01*
G01X188307Y276181D02*
Y278150D01*
X188573Y278815D02*
G03X188307Y278150I699J-665D01*
G01X188573Y278815D02*
G03Y279059I-128J122D01*
G01X188307Y279724D02*
G03X188573Y279059I965J0D01*
G01X188307Y279724D02*
Y281693D01*
X189272Y282658D02*
G03X188307Y281693I-0J-965D01*
G01X189272Y282658D02*
X195571D01*
X196416Y282159D02*
G03X195571Y282658I-845J-466D01*
G01X196416Y282159D02*
G03X196571Y282067I155J85D01*
G01X204709*
G03X204864Y282159I-0J177*
G01X205709Y282657D02*
G03X204864Y282159I-0J-964D01*
G01X205709Y282658D02*
X207677D01*
X208176Y282518D02*
G03X207677Y282658I-499J-825D01*
G01X208176Y282518D02*
G03X208359I92J152D01*
G01X208858Y282658D02*
G03X208359Y282518I0J-965D01*
G01X208858Y282658D02*
X210827D01*
X211791Y281693D02*
G03X210827Y282658I-964J-0D01*
G01X211791Y281693D02*
Y279724D01*
X211525Y279059D02*
G03X211791Y279724I-698J665D01*
G01X211525Y279059D02*
G03Y278815I129J-122D01*
G01X211791Y278150D02*
G03X211525Y278815I-964J-0D01*
G01X211791Y278150D02*
Y276181D01*
X211631Y275649D02*
G03X211791Y276181I-804J532D01*
G01X211631Y275649D02*
G03X211779Y275374I148J-98D01*
G01X212092*
G03X212191Y275404I-0J177*
G01X201161Y320472D02*
G03X201161I-4704J0D01*
G01X171240Y304724D02*
G03X171240I-4311J0D01*
G01Y326378D02*
G03X171240I-4311J0D01*
G01X114547Y320472D02*
G03X114547I-4704J0D01*
G01X149390Y214961D02*
Y212205D01*
X148425Y211240D02*
G03X149390Y212205I0J965D01*
G01X148425Y211240D02*
X145390D01*
G03X145228Y210991I-0J-177*
G01X141849Y211728D02*
G03X145228Y210991I1419J-1610D01*
G01X141849Y211728D02*
G03X141909Y211861I-117J133D01*
G01Y212047*
G03X141732Y212224I-177J0*
G01X134792*
G03X134617Y212072I0J-177*
G01X133661Y211240D02*
G03X134617Y212072I0J965D01*
G01X133661Y211240D02*
X130315D01*
X129350Y212205D02*
G03X130315Y211240I965J-0D01*
G01X129350Y212205D02*
Y214961D01*
X130315Y215925D02*
G03X129350Y214961I-0J-964D01*
G01X130315Y215925D02*
X133661D01*
X134617Y215094D02*
G03X133661Y215925I-956J-133D01*
G01X134617Y215094D02*
G03X134792Y214941I175J24D01*
G01X143268*
X143948*
G03X144123Y215094I-0J177*
G01X145079Y215925D02*
G03X144123Y215094I-0J-964D01*
G01X145079Y215925D02*
X148425D01*
X149390Y214961D02*
G03X148425Y215925I-965J-0D01*
G01X166166Y157289D02*
G03X168175Y159291I2141J-139D01*
G01X166166Y157289D02*
G03X166114Y157425I-177J11D01*
G01X154635Y168905*
G03X154510Y168957I-125J-125*
G01X152058*
G03X151925Y168897I-0J-177*
G01X149546Y168312D02*
G03X151925Y168897I769J2003D01*
G01X149546Y168312D02*
G03X149319Y168080I-63J-166D01*
G01X149390Y167717D02*
G03X149319Y168080I-965J-0D01*
G01X149390Y167717D02*
Y164961D01*
X148425Y163996D02*
G03X149390Y164961I0J965D01*
G01X148425Y163996D02*
X145079D01*
X144114Y164961D02*
G03X145079Y163996I965J-0D01*
G01X144114Y164961D02*
Y167717D01*
X145079Y168681D02*
G03X144114Y167717I-0J-964D01*
G01X145079Y168681D02*
X148425D01*
X148495Y168679D02*
G03X148425Y168681I-70J-962D01*
G01X148495Y168679D02*
G03X148646Y168967I13J176D01*
G01X151925Y171733D02*
G03X148646Y168967I-1610J-1418D01*
G01X151925Y171733D02*
G03X152058Y171673I133J117D01*
G01X155146*
X156106Y171275D02*
G03X155146Y171673I-960J-960D01*
G01X156106Y171275D02*
X168039Y159343D01*
G03X168175Y159291I125J125*
G01X186201Y225591D02*
Y222441D01*
X185236Y221476D02*
G03X186201Y222441I0J965D01*
G01X185236Y221476D02*
X182087D01*
X181123Y222408D02*
G03X182087Y221476I964J33D01*
G01X181123Y222408D02*
G03X180946Y222580I-177J-5D01*
G01X176136*
G03X175960Y222414I0J-177*
G01X173954Y224700D02*
G03X175960Y222414I-135J-2141D01*
G01X173954Y224700D02*
G03X174091Y224752I12J177D01*
G01X174237Y224898*
X175198Y225296D02*
G03X174237Y224898I-0J-1358D01*
G01X175198Y225296D02*
X180945D01*
G03X181122Y225473I-0J177*
G01Y225591*
X182087Y226555D02*
G03X181122Y225591I-0J-964D01*
G01X182087Y226555D02*
X185236D01*
X186201Y225591D02*
G03X185236Y226555I-965J-0D01*
G01X149390Y227953D02*
Y225197D01*
X148425Y224232D02*
G03X149390Y225197I0J965D01*
G01X148425Y224232D02*
X145079D01*
X144114Y225197D02*
G03X145079Y224232I965J-0D01*
G01X144114Y225197D02*
Y227953D01*
X145079Y228917D02*
G03X144114Y227953I-0J-964D01*
G01X145079Y228917D02*
X148425D01*
X149390Y227953D02*
G03X148425Y228917I-965J-0D01*
G01X185807Y251969D02*
Y247244D01*
X184843Y246280D02*
G03X185807Y247244I-0J964D01*
G01X184843Y246280D02*
X180118D01*
X179154Y247211D02*
G03X180118Y246280I964J33D01*
G01X179154Y247211D02*
G03X178977Y247382I-177J-6D01*
G01X148278*
G03X148145Y247322I0J-177*
G01Y250158D02*
G03Y247322I-1610J-1418D01*
G01Y250159D02*
G03X148278Y250098I133J117D01*
G01X178976*
G03X179154Y250276I0J178*
G01Y251969*
X180118Y252933D02*
G03X179154Y251969I0J-964D01*
G01X180118Y252933D02*
X184843D01*
X185807Y251969D02*
G03X184843Y252933I-964J-0D01*
G01X134626Y227953D02*
Y225197D01*
X133661Y224232D02*
G03X134626Y225197I0J965D01*
G01X133661Y224232D02*
X130315D01*
X129350Y225197D02*
G03X130315Y224232I965J-0D01*
G01X129350Y225197D02*
Y227953D01*
X130315Y228917D02*
G03X129350Y227953I-0J-964D01*
G01X130315Y228917D02*
X133661D01*
X134626Y227953D02*
G03X133661Y228917I-965J-0D01*
G01X101161Y330766D02*
X224823D01*
X168352Y330448D02*
X224823D01*
X169055Y330129D02*
X224823D01*
X169538Y329810D02*
X224823D01*
X169912Y329491D02*
X224823D01*
X170212Y329172D02*
X224823D01*
X170459Y328853D02*
X224823D01*
X170662Y328534D02*
X224823D01*
X170829Y328215D02*
X224823D01*
X170964Y327896D02*
X224823D01*
X171070Y327577D02*
X224823D01*
X171149Y327259D02*
X224823D01*
X171203Y326940D02*
X224823D01*
X171233Y326621D02*
X224823D01*
X171240Y326302D02*
X224823D01*
X171222Y325983D02*
X224823D01*
X171181Y325664D02*
X224823D01*
X171115Y325345D02*
X224823D01*
X197639Y325026D02*
X224823D01*
X198506Y324707D02*
X224823D01*
X199064Y324388D02*
X224823D01*
X199489Y324070D02*
X224823D01*
X199831Y323751D02*
X224823D01*
X200114Y323432D02*
X224823D01*
X200351Y323113D02*
X224823D01*
X200549Y322794D02*
X224823D01*
X200714Y322475D02*
X224823D01*
X200850Y322156D02*
X224823D01*
X200959Y321837D02*
X224823D01*
X201044Y321518D02*
X224823D01*
X201105Y321199D02*
X224823D01*
X201144Y320881D02*
X224823D01*
X201161Y320562D02*
X224823D01*
X201156Y320243D02*
X224823D01*
X201129Y319924D02*
X224823D01*
X201081Y319605D02*
X224823D01*
X201009Y319286D02*
X224823D01*
X200914Y318967D02*
X224823D01*
X200793Y318648D02*
X224823D01*
X200645Y318329D02*
X224823D01*
X200466Y318011D02*
X224823D01*
X200252Y317692D02*
X224823D01*
X199996Y317373D02*
X224823D01*
X199689Y317054D02*
X224823D01*
X199314Y316735D02*
X224823D01*
X198840Y316416D02*
X224823D01*
X198186Y316097D02*
X224823D01*
X196771Y315778D02*
X224823D01*
X101161Y315459D02*
X224823D01*
X101161Y315140D02*
X224823D01*
X101161Y314822D02*
X224823D01*
X101161Y314503D02*
X224823D01*
X101161Y314184D02*
X224823D01*
X101161Y313865D02*
X224823D01*
X101161Y313546D02*
X224823D01*
X101161Y313227D02*
X224823D01*
X101161Y312908D02*
X224823D01*
X101161Y312589D02*
X224823D01*
X101161Y312270D02*
X224823D01*
X101161Y311951D02*
X224823D01*
X101161Y311633D02*
X224823D01*
X101161Y311314D02*
X224823D01*
X101161Y310995D02*
X224823D01*
X101161Y310676D02*
X224823D01*
X101161Y310357D02*
X224823D01*
X101161Y310038D02*
X224823D01*
X101161Y309719D02*
X224823D01*
X101161Y309400D02*
X224823D01*
X101161Y309081D02*
X224823D01*
X168439Y308762D02*
X224823D01*
X169109Y308444D02*
X224823D01*
X169579Y308125D02*
X224823D01*
X169944Y307806D02*
X224823D01*
X170239Y307487D02*
X224823D01*
X170481Y307168D02*
X224823D01*
X170680Y306849D02*
X224823D01*
X170844Y306530D02*
X224823D01*
X170976Y306211D02*
X224823D01*
X171079Y305892D02*
X224823D01*
X171156Y305574D02*
X224823D01*
X171207Y305255D02*
X224823D01*
X171235Y304936D02*
X224823D01*
X171239Y304617D02*
X224823D01*
X171219Y304298D02*
X224823D01*
X171175Y303979D02*
X224823D01*
X171107Y303660D02*
X224823D01*
X171012Y303341D02*
X224823D01*
X170890Y303022D02*
X224823D01*
X170737Y302703D02*
X224823D01*
X170550Y302385D02*
X224823D01*
X170323Y302066D02*
X224823D01*
X170047Y301747D02*
X224823D01*
X169707Y301428D02*
X224823D01*
X169277Y301109D02*
X224823D01*
X168691Y300790D02*
X224823D01*
X167633Y300471D02*
X224823D01*
X101161Y300152D02*
X224823D01*
X101161Y299833D02*
X224823D01*
X101161Y299514D02*
X224823D01*
X101161Y299196D02*
X224823D01*
X101161Y298877D02*
X224823D01*
X101161Y298558D02*
X224823D01*
X101161Y298239D02*
X224823D01*
X101161Y297920D02*
X224823D01*
X101161Y297601D02*
X224823D01*
X101161Y297282D02*
X224823D01*
X101161Y296963D02*
X224823D01*
X101161Y296644D02*
X224823D01*
X101161Y296325D02*
X224823D01*
X101161Y296007D02*
X224823D01*
X101161Y295688D02*
X224823D01*
X101161Y295369D02*
X224823D01*
X101161Y295050D02*
X224823D01*
X101161Y294731D02*
X224823D01*
X101161Y294412D02*
X224823D01*
X101161Y294093D02*
X224823D01*
X101161Y293774D02*
X224823D01*
X101161Y293455D02*
X224823D01*
X101161Y293137D02*
X224823D01*
X101161Y292818D02*
X224823D01*
X101161Y292499D02*
X224823D01*
X101161Y292180D02*
X224823D01*
X101161Y291861D02*
X224823D01*
X101161Y291542D02*
X224823D01*
X101161Y291223D02*
X224823D01*
X101161Y290904D02*
X224823D01*
X101161Y290585D02*
X224823D01*
X101161Y290266D02*
X224823D01*
X101161Y289948D02*
X224823D01*
X101161Y289629D02*
X224823D01*
X101161Y289310D02*
X224823D01*
X101161Y288991D02*
X224823D01*
X101161Y288672D02*
X224823D01*
X101161Y288353D02*
X224823D01*
X101161Y288034D02*
X224823D01*
X101161Y287715D02*
X224823D01*
X101161Y287396D02*
X224823D01*
X101161Y287077D02*
X224823D01*
X101161Y286759D02*
X224823D01*
X101161Y286440D02*
X224823D01*
X101161Y286121D02*
X224823D01*
X101161Y285802D02*
X224823D01*
X101161Y285483D02*
X224823D01*
X101161Y285164D02*
X224823D01*
X101161Y284845D02*
X224823D01*
X101161Y284526D02*
X224823D01*
X101161Y284207D02*
X224823D01*
X101161Y283888D02*
X224823D01*
X101161Y283570D02*
X224823D01*
X101161Y283251D02*
X224823D01*
X101161Y282932D02*
X224823D01*
X211117Y282613D02*
X224823D01*
X211581Y282294D02*
X224823D01*
X211749Y281975D02*
X224823D01*
X211791Y281656D02*
X224823D01*
X211791Y281337D02*
X224823D01*
X211791Y281018D02*
X224823D01*
X211791Y280699D02*
X224823D01*
X211791Y280381D02*
X224823D01*
X211791Y280062D02*
X224823D01*
X211791Y279743D02*
X224823D01*
X211743Y279424D02*
X224823D01*
X211566Y279105D02*
X224823D01*
X211552Y278786D02*
X224823D01*
X211738Y278467D02*
X224823D01*
X211791Y278148D02*
X224823D01*
X211791Y277829D02*
X224823D01*
X211791Y277511D02*
X224823D01*
X211791Y277192D02*
X224823D01*
X211791Y276873D02*
X224823D01*
X211791Y276554D02*
X224823D01*
X211791Y276235D02*
X224823D01*
X211754Y275916D02*
X224823D01*
X214224Y275597D02*
X224823D01*
X214750Y275278D02*
X224823D01*
X215064Y274959D02*
X224823D01*
X215274Y274640D02*
X224823D01*
X215414Y274322D02*
X224823D01*
X215497Y274003D02*
X224823D01*
X215531Y273684D02*
X224823D01*
X215516Y273365D02*
X224823D01*
X215453Y273046D02*
X224823D01*
X215336Y272727D02*
X224823D01*
X215155Y272408D02*
X224823D01*
X214887Y272089D02*
X224823D01*
X214470Y271770D02*
X224823D01*
X211634Y271451D02*
X224823D01*
X211634Y271133D02*
X224823D01*
X211634Y270814D02*
X224823D01*
X211634Y270495D02*
X224823D01*
X211633Y270176D02*
X224823D01*
X211592Y269857D02*
X224823D01*
X211489Y269538D02*
X224823D01*
X211308Y269219D02*
X224823D01*
X211024Y268900D02*
X224823D01*
X210705Y268581D02*
X224823D01*
X210386Y268262D02*
X224823D01*
X209961Y267944D02*
X224823D01*
X152013Y267625D02*
X224823D01*
X152332Y267306D02*
X224823D01*
X152651Y266987D02*
X224823D01*
X183691Y266668D02*
X224823D01*
X184451Y266349D02*
X224823D01*
X184825Y266030D02*
X224823D01*
X185071Y265711D02*
X224823D01*
X185236Y265392D02*
X224823D01*
X185341Y265074D02*
X224823D01*
X185393Y264755D02*
X224823D01*
X185398Y264436D02*
X224823D01*
X185354Y264117D02*
X224823D01*
X185259Y263798D02*
X224823D01*
X185105Y263479D02*
X224823D01*
X184876Y263160D02*
X224823D01*
X184531Y262841D02*
X224823D01*
X183911Y262522D02*
X224823D01*
X183909Y262203D02*
X224823D01*
X197191Y261885D02*
X224823D01*
X197521Y261566D02*
X224823D01*
X197840Y261247D02*
X224823D01*
X198158Y260928D02*
X224823D01*
X198477Y260609D02*
X224823D01*
X198796Y260290D02*
X224823D01*
X199115Y259971D02*
X224823D01*
X199434Y259652D02*
X224823D01*
X199753Y259333D02*
X224823D01*
X200072Y259014D02*
X224823D01*
X200391Y258696D02*
X224823D01*
X200710Y258377D02*
X224823D01*
X201028Y258058D02*
X224823D01*
X201347Y257739D02*
X224823D01*
X201666Y257420D02*
X224823D01*
X201985Y257101D02*
X224823D01*
X202304Y256782D02*
X224823D01*
X203072Y256463D02*
X224823D01*
X203981Y256144D02*
X224823D01*
X204374Y255825D02*
X224823D01*
X204629Y255507D02*
X224823D01*
X204802Y255188D02*
X224823D01*
X204912Y254869D02*
X224823D01*
X204969Y254550D02*
X224823D01*
X204978Y254231D02*
X224823D01*
X204939Y253912D02*
X224823D01*
X204850Y253593D02*
X224823D01*
X204702Y253274D02*
X224823D01*
X204482Y252955D02*
X224823D01*
X204151Y252637D02*
X224823D01*
X203577Y252318D02*
X224823D01*
X194074Y251999D02*
X224823D01*
X213898Y251680D02*
X224823D01*
X214581Y251361D02*
X224823D01*
X214941Y251042D02*
X224823D01*
X215179Y250723D02*
X224823D01*
X215338Y250404D02*
X224823D01*
X215438Y250085D02*
X224823D01*
X215486Y249766D02*
X224823D01*
X215486Y249448D02*
X224823D01*
X215438Y249129D02*
X224823D01*
X215339Y248810D02*
X224823D01*
X215179Y248491D02*
X224823D01*
X214942Y248172D02*
X224823D01*
X214583Y247853D02*
X224823D01*
X213903Y247534D02*
X224823D01*
X194074Y247215D02*
X224823D01*
X194010Y246896D02*
X224823D01*
X193807Y246577D02*
X224823D01*
X115620Y246259D02*
X224823D01*
X115302Y245940D02*
X224823D01*
X114983Y245621D02*
X224823D01*
X114664Y245302D02*
X224823D01*
X114345Y244983D02*
X224823D01*
X114026Y244664D02*
X224823D01*
X113707Y244345D02*
X224823D01*
X113388Y244026D02*
X224823D01*
X113069Y243707D02*
X224823D01*
X112750Y243388D02*
X224823D01*
X112431Y243070D02*
X224823D01*
X112113Y242751D02*
X224823D01*
X111909Y242432D02*
X224823D01*
X111909Y242113D02*
X224823D01*
X111909Y241794D02*
X224823D01*
X111909Y241475D02*
X224823D01*
X111909Y241156D02*
X224823D01*
X111909Y240837D02*
X224823D01*
X111909Y240518D02*
X224823D01*
X111909Y240199D02*
X224823D01*
X111909Y239881D02*
X224823D01*
X111909Y239562D02*
X224823D01*
X111909Y239243D02*
X224823D01*
X111909Y238924D02*
X224823D01*
X111909Y238605D02*
X224823D01*
X111909Y238286D02*
X224823D01*
X111909Y237967D02*
X224823D01*
X111909Y237648D02*
X224823D01*
X111909Y237329D02*
X224823D01*
X111909Y237011D02*
X224823D01*
X111909Y236692D02*
X224823D01*
X111909Y236373D02*
X224823D01*
X111909Y236054D02*
X224823D01*
X111909Y235735D02*
X224823D01*
X111909Y235416D02*
X224823D01*
X111909Y235097D02*
X224823D01*
X111909Y234778D02*
X224823D01*
X111909Y234459D02*
X224823D01*
X111909Y234140D02*
X224823D01*
X111909Y233822D02*
X224823D01*
X111909Y233503D02*
X224823D01*
X111909Y233184D02*
X224823D01*
X111909Y232865D02*
X224823D01*
X111909Y232546D02*
X224823D01*
X111909Y232227D02*
X224823D01*
X111909Y231908D02*
X224823D01*
X111909Y231589D02*
X224823D01*
X111909Y231270D02*
X224823D01*
X111909Y230951D02*
X224823D01*
X111909Y230633D02*
X224823D01*
X111909Y230314D02*
X224823D01*
X111909Y229995D02*
X224823D01*
X111909Y229676D02*
X224823D01*
X111909Y229357D02*
X224823D01*
X111909Y229038D02*
X224823D01*
X149011Y228719D02*
X224823D01*
X149280Y228400D02*
X224823D01*
X149381Y228081D02*
X224823D01*
X149390Y227762D02*
X224823D01*
X149390Y227444D02*
X224823D01*
X149390Y227125D02*
X224823D01*
X149390Y226806D02*
X224823D01*
X191498Y226487D02*
X224823D01*
X191914Y226168D02*
X224823D01*
X223162Y225849D02*
X224823D01*
X223567Y225530D02*
X224823D01*
X223829Y225211D02*
X224823D01*
X224006Y224892D02*
X224823D01*
X224119Y224574D02*
X224823D01*
X224180Y224255D02*
X224823D01*
X224191Y223936D02*
X224823D01*
X224156Y223617D02*
X224823D01*
X224069Y223298D02*
X224823D01*
X223926Y222979D02*
X224823D01*
X223710Y222660D02*
X224823D01*
X223389Y222341D02*
X224823D01*
X222841Y222022D02*
X224823D01*
X191763Y221703D02*
X224823D01*
X175615Y221385D02*
X224823D01*
X175360Y221066D02*
X224823D01*
X174968Y220747D02*
X224823D01*
X174068Y220428D02*
X224823D01*
X149305Y220109D02*
X224823D01*
X149678Y219790D02*
X224823D01*
X149997Y219471D02*
X224823D01*
X150316Y219152D02*
X224823D01*
X223036Y218833D02*
X224823D01*
X223493Y218514D02*
X224823D01*
X223779Y218196D02*
X224823D01*
X223972Y217877D02*
X224823D01*
X224099Y217558D02*
X224823D01*
X224170Y217239D02*
X224823D01*
X224193Y216920D02*
X224823D01*
X224168Y216601D02*
X224823D01*
X224093Y216282D02*
X224823D01*
X223963Y215963D02*
X224823D01*
X223766Y215644D02*
X224823D01*
X223473Y215325D02*
X224823D01*
X223000Y215007D02*
X224823D01*
X154780Y214688D02*
X224823D01*
X155099Y214369D02*
X224823D01*
X155418Y214050D02*
X224823D01*
X155737Y213731D02*
X224823D01*
X156056Y213412D02*
X224823D01*
X156375Y213093D02*
X224823D01*
X156694Y212774D02*
X224823D01*
X157013Y212455D02*
X224823D01*
X157332Y212137D02*
X224823D01*
X216365Y211818D02*
X224823D01*
X216915Y211499D02*
X224823D01*
X217237Y211180D02*
X224823D01*
X217453Y210861D02*
X224823D01*
X217596Y210542D02*
X224823D01*
X217683Y210223D02*
X224823D01*
X217719Y209904D02*
X224823D01*
X217707Y209585D02*
X224823D01*
X217647Y209266D02*
X224823D01*
X217534Y208948D02*
X224823D01*
X217357Y208629D02*
X224823D01*
X217096Y208310D02*
X224823D01*
X216692Y207991D02*
X224823D01*
X209921Y207672D02*
X224823D01*
X210269Y207353D02*
X224823D01*
X210500Y207034D02*
X224823D01*
X210655Y206715D02*
X224823D01*
X210750Y206396D02*
X224823D01*
X210795Y206077D02*
X224823D01*
X210791Y205759D02*
X224823D01*
X210740Y205440D02*
X224823D01*
X210636Y205121D02*
X224823D01*
X210472Y204802D02*
X224823D01*
X210228Y204483D02*
X224823D01*
X209856Y204164D02*
X224823D01*
X209114Y203845D02*
X224823D01*
X206004Y203526D02*
X224823D01*
X206014Y203207D02*
X224823D01*
X205975Y202888D02*
X224823D01*
X205886Y202570D02*
X224823D01*
X205740Y202251D02*
X224823D01*
X205520Y201932D02*
X224823D01*
X205192Y201613D02*
X224823D01*
X204623Y201294D02*
X224823D01*
X176143Y200975D02*
X224823D01*
X176462Y200656D02*
X224823D01*
X176780Y200337D02*
X224823D01*
X177099Y200018D02*
X224823D01*
X177418Y199699D02*
X224823D01*
X177737Y199381D02*
X224823D01*
X178056Y199062D02*
X224823D01*
X191793Y198743D02*
X224823D01*
X222904Y198424D02*
X224823D01*
X223421Y198105D02*
X224823D01*
X223731Y197786D02*
X224823D01*
X223940Y197467D02*
X224823D01*
X224078Y197148D02*
X224823D01*
X224160Y196829D02*
X224823D01*
X224192Y196511D02*
X224823D01*
X224176Y196192D02*
X224823D01*
X224112Y195873D02*
X224823D01*
X223994Y195554D02*
X224823D01*
X223811Y195235D02*
X224823D01*
X223541Y194916D02*
X224823D01*
X223118Y194597D02*
X224823D01*
X191894Y194278D02*
X224823D01*
X191575Y193959D02*
X224823D01*
X191926Y193640D02*
X224823D01*
X192386Y193322D02*
X224823D01*
X192674Y193003D02*
X224823D01*
X192868Y192684D02*
X224823D01*
X192995Y192365D02*
X224823D01*
X193068Y192046D02*
X224823D01*
X193091Y191727D02*
X224823D01*
X193066Y191408D02*
X224823D01*
X192992Y191089D02*
X224823D01*
X192863Y190770D02*
X224823D01*
X192666Y190451D02*
X224823D01*
X192375Y190133D02*
X224823D01*
X191906Y189814D02*
X224823D01*
X190417Y189495D02*
X224823D01*
X151569Y189176D02*
X224823D01*
X151250Y188857D02*
X224823D01*
X150931Y188538D02*
X224823D01*
X150613Y188219D02*
X224823D01*
X150294Y187900D02*
X224823D01*
X150137Y187581D02*
X224823D01*
X150122Y187262D02*
X224823D01*
X150059Y186944D02*
X224823D01*
X149942Y186625D02*
X224823D01*
X149761Y186306D02*
X224823D01*
X149494Y185987D02*
X224823D01*
X149076Y185668D02*
X224823D01*
X149090Y185349D02*
X224823D01*
X161290Y185030D02*
X224823D01*
X161619Y184711D02*
X224823D01*
X161938Y184392D02*
X224823D01*
X162257Y184074D02*
X224823D01*
X162576Y183755D02*
X224823D01*
X209579Y183436D02*
X224823D01*
X210068Y183117D02*
X224823D01*
X210367Y182798D02*
X224823D01*
X210569Y182479D02*
X224823D01*
X210702Y182160D02*
X224823D01*
X210779Y181841D02*
X224823D01*
X210807Y181522D02*
X224823D01*
X210787Y181203D02*
X224823D01*
X210718Y180885D02*
X224823D01*
X210595Y180566D02*
X224823D01*
X210406Y180247D02*
X224823D01*
X210126Y179928D02*
X224823D01*
X209683Y179609D02*
X224823D01*
X149390Y179290D02*
X224823D01*
X149390Y178971D02*
X224823D01*
X149390Y178652D02*
X224823D01*
X149390Y178333D02*
X224823D01*
X149390Y178014D02*
X224823D01*
X149355Y177696D02*
X224823D01*
X149199Y177377D02*
X224823D01*
X148785Y177058D02*
X224823D01*
X124035Y176739D02*
X224823D01*
X124035Y176420D02*
X224823D01*
X124035Y176101D02*
X224823D01*
X124035Y175782D02*
X224823D01*
X168425Y175463D02*
X224823D01*
X168835Y175144D02*
X224823D01*
X169099Y174825D02*
X224823D01*
X169278Y174507D02*
X224823D01*
X169393Y174188D02*
X224823D01*
X169454Y173869D02*
X224823D01*
X169467Y173550D02*
X224823D01*
X169433Y173231D02*
X224823D01*
X169348Y172912D02*
X224823D01*
X169206Y172593D02*
X224823D01*
X168992Y172274D02*
X224823D01*
X168704Y171955D02*
X224823D01*
X168867Y171637D02*
X224823D01*
X191607Y171318D02*
X224823D01*
X222483Y170999D02*
X224823D01*
X223242Y170680D02*
X224823D01*
X223617Y170361D02*
X224823D01*
X223862Y170042D02*
X224823D01*
X224028Y169723D02*
X224823D01*
X224132Y169404D02*
X224823D01*
X224185Y169085D02*
X224823D01*
X224189Y168766D02*
X224823D01*
X224145Y168448D02*
X224823D01*
X224050Y168129D02*
X224823D01*
X223897Y167810D02*
X224823D01*
X223667Y167491D02*
X224823D01*
X223322Y167172D02*
X224823D01*
X222698Y166853D02*
X224823D01*
X191697Y166534D02*
X224823D01*
X161166Y166215D02*
X224823D01*
X161485Y165896D02*
X224823D01*
X161804Y165577D02*
X224823D01*
X162123Y165259D02*
X224823D01*
X162442Y164940D02*
X224823D01*
X162761Y164621D02*
X224823D01*
X163080Y164302D02*
X224823D01*
X163399Y163983D02*
X224823D01*
X163717Y163664D02*
X224823D01*
X164036Y163345D02*
X224823D01*
X164355Y163026D02*
X224823D01*
X164674Y162707D02*
X224823D01*
X164993Y162388D02*
X224823D01*
X165312Y162070D02*
X224823D01*
X165631Y161751D02*
X224823D01*
X165950Y161432D02*
X224823D01*
X166269Y161113D02*
X224823D01*
X166588Y160794D02*
X224823D01*
X166906Y160475D02*
X224823D01*
X167225Y160156D02*
X224823D01*
X167544Y159837D02*
X224823D01*
X167863Y159518D02*
X224823D01*
X168941Y159199D02*
X224823D01*
X169575Y158881D02*
X224823D01*
X169923Y158562D02*
X224823D01*
X170153Y158243D02*
X224823D01*
X170308Y157924D02*
X224823D01*
X170404Y157605D02*
X224823D01*
X170448Y157286D02*
X224823D01*
X170445Y156967D02*
X224823D01*
X170393Y156648D02*
X224823D01*
X170290Y156329D02*
X224823D01*
X170125Y156011D02*
X224823D01*
X169881Y155692D02*
X224823D01*
X169510Y155373D02*
X224823D01*
X168767Y155054D02*
X224823D01*
X159087Y154735D02*
X224823D01*
X159087Y154416D02*
X224823D01*
X159087Y154097D02*
X224823D01*
X159087Y153778D02*
X224823D01*
X159087Y153459D02*
X224823D01*
X159087Y153140D02*
X224823D01*
X159087Y152822D02*
X224823D01*
X159087Y152503D02*
X224823D01*
X159087Y152184D02*
X224823D01*
X159087Y151865D02*
X224823D01*
X159087Y151546D02*
X224823D01*
X159087Y151227D02*
X224823D01*
X159087Y150908D02*
X224823D01*
X159087Y150589D02*
X224823D01*
X159087Y150270D02*
X224823D01*
X159087Y149951D02*
X224823D01*
X159087Y149633D02*
X224823D01*
X159087Y149314D02*
X224823D01*
X159087Y148995D02*
X224823D01*
X159087Y148676D02*
X224823D01*
X159087Y148357D02*
X224823D01*
X159087Y148038D02*
X224823D01*
X159087Y147719D02*
X224823D01*
X159087Y147400D02*
X224823D01*
X159087Y147081D02*
X224823D01*
X159087Y146762D02*
X224823D01*
X159087Y146444D02*
X224823D01*
X159087Y146125D02*
X224823D01*
X159087Y145806D02*
X224823D01*
X159087Y145487D02*
X224823D01*
X159087Y145168D02*
X224823D01*
X159087Y144849D02*
X224823D01*
X159087Y144530D02*
X224823D01*
X159087Y144211D02*
X224823D01*
X214257Y143892D02*
X224823D01*
X214811Y143574D02*
X224823D01*
X215135Y143255D02*
X224823D01*
X215352Y142936D02*
X224823D01*
X215497Y142617D02*
X224823D01*
X215584Y142298D02*
X224823D01*
X215620Y141979D02*
X224823D01*
X215609Y141660D02*
X224823D01*
X215550Y141341D02*
X224823D01*
X215437Y141022D02*
X224823D01*
X215262Y140703D02*
X224823D01*
X215002Y140385D02*
X224823D01*
X214600Y140066D02*
X224823D01*
X173341Y139747D02*
X224823D01*
X172998Y139428D02*
X224823D01*
X169720Y139109D02*
X224823D01*
X169369Y138790D02*
X224823D01*
X168723Y138471D02*
X224823D01*
X160111Y138152D02*
X224823D01*
X160430Y137833D02*
X224823D01*
X160749Y137514D02*
X224823D01*
X161068Y137196D02*
X224823D01*
X161387Y136877D02*
X224823D01*
X161706Y136558D02*
X224823D01*
X162025Y136239D02*
X224823D01*
X162343Y135920D02*
X224823D01*
X162662Y135601D02*
X224823D01*
X162981Y135282D02*
X224823D01*
X163300Y134963D02*
X224823D01*
X163619Y134644D02*
X224823D01*
X163938Y134325D02*
X224823D01*
X164257Y134007D02*
X224823D01*
X164576Y133688D02*
X224823D01*
X164895Y133369D02*
X224823D01*
X165214Y133050D02*
X224823D01*
X165532Y132731D02*
X224823D01*
X165851Y132412D02*
X224823D01*
X166170Y132093D02*
X224823D01*
X166489Y131774D02*
X224823D01*
X166808Y131455D02*
X224823D01*
X167127Y131137D02*
X224823D01*
X167446Y130818D02*
X224823D01*
X167765Y130499D02*
X224823D01*
X168084Y130180D02*
X224823D01*
X168403Y129861D02*
X224823D01*
X168721Y129542D02*
X224823D01*
X169040Y129223D02*
X224823D01*
X169359Y128904D02*
X224823D01*
X169678Y128585D02*
X224823D01*
X169997Y128266D02*
X224823D01*
X170316Y127948D02*
X224823D01*
X170635Y127629D02*
X224823D01*
X170954Y127310D02*
X224823D01*
X171273Y126991D02*
X224823D01*
X171591Y126672D02*
X224823D01*
X171910Y126353D02*
X224823D01*
X190967Y126034D02*
X224823D01*
X191363Y125715D02*
X224823D01*
X191682Y125396D02*
X224823D01*
X192001Y125077D02*
X224823D01*
X192320Y124759D02*
X224823D01*
X192639Y124440D02*
X224823D01*
X192958Y124121D02*
X224823D01*
X193277Y123802D02*
X224823D01*
X193583Y123483D02*
X224823D01*
X193772Y123164D02*
X224823D01*
X193862Y122845D02*
X224823D01*
X193878Y122526D02*
X224823D01*
X193878Y122207D02*
X224823D01*
X193878Y121888D02*
X224823D01*
X193878Y121570D02*
X224823D01*
X193878Y121251D02*
X224823D01*
X193878Y120932D02*
X224823D01*
X193878Y120613D02*
X224823D01*
X198360Y120294D02*
X224823D01*
X198986Y119975D02*
X224823D01*
X199371Y119656D02*
X224823D01*
X199646Y119337D02*
X224823D01*
X199848Y119018D02*
X224823D01*
X199995Y118699D02*
X224823D01*
X200095Y118381D02*
X224823D01*
X200155Y118062D02*
X224823D01*
X200177Y117743D02*
X224823D01*
X200161Y117424D02*
X224823D01*
X200108Y117105D02*
X224823D01*
X200014Y116786D02*
X224823D01*
X199875Y116467D02*
X224823D01*
X199683Y116148D02*
X224823D01*
X199422Y115829D02*
X224823D01*
X199060Y115511D02*
X224823D01*
X198495Y115192D02*
X224823D01*
X179114Y114873D02*
X224823D01*
X179114Y114554D02*
X224823D01*
X217827Y114235D02*
X224823D01*
X218496Y113916D02*
X224823D01*
X218977Y113597D02*
X224823D01*
X219356Y113278D02*
X224823D01*
X219666Y112959D02*
X224823D01*
X219924Y112640D02*
X224823D01*
X220140Y112322D02*
X224823D01*
X220321Y112003D02*
X224823D01*
X220471Y111684D02*
X224823D01*
X220593Y111365D02*
X224823D01*
X220690Y111046D02*
X224823D01*
X220763Y110727D02*
X224823D01*
X220812Y110408D02*
X224823D01*
X220840Y110089D02*
X224823D01*
X220846Y109770D02*
X224823D01*
X220830Y109451D02*
X224823D01*
X220793Y109133D02*
X224823D01*
X220733Y108814D02*
X224823D01*
X220649Y108495D02*
X224823D01*
X220541Y108176D02*
X224823D01*
X220407Y107857D02*
X224823D01*
X220243Y107538D02*
X224823D01*
X220047Y107219D02*
X224823D01*
X219813Y106900D02*
X224823D01*
X219533Y106581D02*
X224823D01*
X219194Y106262D02*
X224823D01*
X218775Y105944D02*
X224823D01*
X218226Y105625D02*
X224823D01*
X217388Y105306D02*
X224823D01*
X101161Y104987D02*
X224823D01*
X101161Y104668D02*
X224823D01*
X101161Y104349D02*
X224823D01*
X101161Y104030D02*
X224823D01*
X101161Y103711D02*
X224823D01*
X101161Y103392D02*
X224823D01*
X101161Y103074D02*
X224823D01*
X101161Y102755D02*
X224823D01*
X101161Y102436D02*
X224823D01*
X101161Y102117D02*
X224823D01*
X101161Y101798D02*
X224823D01*
X101161Y101479D02*
X224823D01*
X101231Y331085D02*
X224754D01*
X191950Y170999D02*
X221612D01*
X191984Y166853D02*
X221396D01*
X192011Y222022D02*
X221253D01*
X192023Y198424D02*
X221190D01*
X197764Y215007D02*
X221094D01*
X197800Y218833D02*
X221058D01*
X204539Y194597D02*
X220977D01*
X204592Y225849D02*
X220932D01*
X204676Y170680D02*
X220852D01*
X204751Y167172D02*
X220772D01*
X204808Y222341D02*
X220706D01*
X204833Y198105D02*
X220674D01*
X198237Y215325D02*
X220622D01*
X198257Y218514D02*
X220601D01*
X204922Y194916D02*
X220554D01*
X204940Y225530D02*
X220527D01*
X204971Y170361D02*
X220478D01*
X205012Y167491D02*
X220426D01*
X111089Y105306D02*
X214896D01*
X184483Y211818D02*
X214784D01*
X209288Y207991D02*
X214458D01*
X179114Y114235D02*
X214456D01*
X185033Y211499D02*
X214235D01*
X111927Y105625D02*
X214057D01*
X185214Y208310D02*
X214053D01*
X179114Y113916D02*
X213788D01*
X112476Y105944D02*
X213509D01*
X179113Y113597D02*
X213307D01*
X112895Y106262D02*
X213089D01*
X179059Y113278D02*
X212928D01*
X194075Y251680D02*
X212795D01*
X194075Y247534D02*
X212790D01*
X113234Y106581D02*
X212751D01*
X159087Y143892D02*
X212696D01*
X178919Y112959D02*
X212618D01*
X211608Y275597D02*
X212547D01*
X113514Y106900D02*
X212471D01*
X178656Y112640D02*
X212359D01*
X173660Y140066D02*
X212353D01*
X211652Y271770D02*
X212302D01*
X113748Y107219D02*
X212236D01*
X178337Y112322D02*
X212143D01*
X159087Y143574D02*
X212141D01*
X208651Y251361D02*
X212111D01*
X208653Y247853D02*
X212109D01*
X113944Y107538D02*
X212040D01*
X178018Y112003D02*
X211962D01*
X173979Y140385D02*
X211951D01*
X114108Y107857D02*
X211876D01*
X177699Y111684D02*
X211812D01*
X159087Y143255D02*
X211764D01*
X208924Y251042D02*
X211752D01*
X208925Y248172D02*
X211751D01*
X114242Y108176D02*
X211742D01*
X177380Y111365D02*
X211690D01*
X114350Y108495D02*
X211634D01*
X177061Y111046D02*
X211594D01*
X114433Y108814D02*
X211551D01*
X176742Y110727D02*
X211521D01*
X114493Y109133D02*
X211491D01*
X176424Y110408D02*
X211471D01*
X175365Y109451D02*
X211453D01*
X176105Y110089D02*
X211443D01*
X175786Y109770D02*
X211438D01*
X207967Y282613D02*
X208568D01*
X205946Y203845D02*
X208193D01*
X168628Y271451D02*
X208130D01*
X184810Y207991D02*
X208020D01*
X165012Y183436D02*
X207744D01*
X165116Y179609D02*
X207640D01*
X205835Y204164D02*
X207451D01*
X161796Y207672D02*
X207386D01*
X165501Y183117D02*
X207255D01*
X165559Y179928D02*
X207197D01*
X205755Y204483D02*
X207079D01*
X162115Y207353D02*
X207038D01*
X195861Y282613D02*
X205419D01*
X195993Y271770D02*
X205287D01*
X196325Y282294D02*
X204954D01*
X196364Y272089D02*
X204915D01*
X175824Y201294D02*
X203117D01*
X175505Y201613D02*
X202548D01*
X194075Y251361D02*
X202372D01*
X194075Y247853D02*
X202370D01*
X175200Y201932D02*
X202220D01*
X194106Y251042D02*
X202099D01*
X194106Y248172D02*
X202098D01*
X194009Y252318D02*
X202092D01*
X201390Y194597D02*
X201760D01*
X201442Y225849D02*
X201708D01*
X193806Y252637D02*
X201518D01*
X101161Y252955D02*
X201188D01*
X101161Y253274D02*
X200967D01*
X101161Y253593D02*
X200820D01*
X101161Y253912D02*
X200730D01*
X101161Y254231D02*
X200691D01*
X101161Y254550D02*
X200678D01*
X101161Y254869D02*
X200376D01*
X101161Y255188D02*
X200057D01*
X101161Y255507D02*
X199738D01*
X101161Y255825D02*
X199419D01*
X101161Y256144D02*
X199100D01*
X101161Y256463D02*
X198781D01*
X192063Y194597D02*
X198610D01*
X192071Y225849D02*
X198558D01*
X192084Y170680D02*
X198474D01*
X101161Y256782D02*
X198462D01*
X192094Y167172D02*
X198399D01*
X192101Y222341D02*
X198342D01*
X192104Y198105D02*
X198316D01*
X192106Y194916D02*
X198228D01*
X192108Y225530D02*
X198210D01*
X192122Y170361D02*
X198179D01*
X101161Y257101D02*
X198143D01*
X192162Y167491D02*
X198138D01*
X101161Y257420D02*
X197824D01*
X101161Y257739D02*
X197506D01*
X101161Y258058D02*
X197187D01*
X101161Y258377D02*
X196868D01*
X149028Y258696D02*
X196549D01*
X193878Y120294D02*
X196522D01*
X193574Y115192D02*
X196387D01*
X149286Y259014D02*
X196230D01*
X110157Y315778D02*
X196142D01*
X149384Y259333D02*
X195911D01*
X194064Y119975D02*
X195896D01*
X154462Y215007D02*
X195858D01*
X194138Y115511D02*
X195822D01*
X150635Y218833D02*
X195822D01*
X194450Y119656D02*
X195511D01*
X194501Y115829D02*
X195460D01*
X154143Y215325D02*
X195385D01*
X150954Y218514D02*
X195365D01*
X171023Y325026D02*
X195275D01*
X194724Y119337D02*
X195236D01*
X194762Y116148D02*
X195199D01*
X153824Y215644D02*
X195092D01*
X151273Y218196D02*
X195079D01*
X153505Y215963D02*
X194895D01*
X151591Y217877D02*
X194886D01*
X153186Y216282D02*
X194765D01*
X151910Y217558D02*
X194759D01*
X111572Y316097D02*
X194727D01*
X152867Y216601D02*
X194691D01*
X152229Y217239D02*
X194688D01*
X152548Y216920D02*
X194665D01*
X170903Y324707D02*
X194407D01*
X112226Y316416D02*
X194073D01*
X170754Y324388D02*
X193849D01*
X112700Y316735D02*
X193599D01*
X170570Y324070D02*
X193424D01*
X113075Y317054D02*
X193224D01*
X170347Y323751D02*
X193082D01*
X113382Y317373D02*
X192917D01*
X170076Y323432D02*
X192799D01*
X113637Y317692D02*
X192662D01*
X169744Y323113D02*
X192563D01*
X113852Y318011D02*
X192448D01*
X169325Y322794D02*
X192365D01*
X114031Y318329D02*
X192268D01*
X168760Y322475D02*
X192199D01*
X114179Y318648D02*
X192120D01*
X167802Y322156D02*
X192064D01*
X114300Y318967D02*
X191999D01*
X114345Y321837D02*
X191954D01*
X114395Y319286D02*
X191904D01*
X114430Y321518D02*
X191870D01*
X114467Y319605D02*
X191833D01*
X114491Y321199D02*
X191808D01*
X114515Y319924D02*
X191784D01*
X114530Y320881D02*
X191770D01*
X114542Y320243D02*
X191758D01*
X114546Y320562D02*
X191753D01*
X188653Y115192D02*
X191465D01*
X189217Y115511D02*
X190901D01*
X189580Y115829D02*
X190538D01*
X189841Y116148D02*
X190277D01*
X128720Y193640D02*
X189923D01*
X128720Y193322D02*
X189503D01*
X128720Y193003D02*
X189216D01*
X128720Y192684D02*
X189022D01*
X184247Y282613D02*
X188982D01*
X128720Y192365D02*
X188895D01*
X184379Y271770D02*
X188850D01*
X184649Y275278D02*
X188579D01*
X184681Y278786D02*
X188547D01*
X184696Y279105D02*
X188532D01*
X184711Y282294D02*
X188517D01*
X184724Y275597D02*
X188504D01*
X184750Y272089D02*
X188478D01*
X184854Y274959D02*
X188374D01*
X184867Y278467D02*
X188361D01*
X184873Y279424D02*
X188355D01*
X184879Y281975D02*
X188349D01*
X184884Y275916D02*
X188344D01*
X184894Y272408D02*
X188335D01*
X184921Y274640D02*
X188308D01*
X184921Y281656D02*
X188307D01*
X184921Y281337D02*
X188307D01*
X184921Y281018D02*
X188307D01*
X184921Y280699D02*
X188307D01*
X184921Y280381D02*
X188307D01*
X184921Y280062D02*
X188307D01*
X184921Y279743D02*
X188307D01*
X184921Y278148D02*
X188307D01*
X184921Y277829D02*
X188307D01*
X184921Y277511D02*
X188307D01*
X184921Y277192D02*
X188307D01*
X184921Y276873D02*
X188307D01*
X184921Y276554D02*
X188307D01*
X184921Y276235D02*
X188307D01*
X184921Y274322D02*
X188307D01*
X184921Y274003D02*
X188307D01*
X184921Y273684D02*
X188307D01*
X184921Y273365D02*
X188307D01*
X184921Y273046D02*
X188307D01*
X184921Y272727D02*
X188307D01*
X185518Y193959D02*
X187710D01*
X185538Y252637D02*
X187690D01*
X185540Y246577D02*
X187689D01*
X185593Y226487D02*
X187636D01*
X185701Y171318D02*
X187527D01*
X185742Y252318D02*
X187487D01*
X185742Y246896D02*
X187486D01*
X185792Y166534D02*
X187437D01*
X185807Y251999D02*
X187422D01*
X185807Y247215D02*
X187422D01*
X185807Y251680D02*
X187421D01*
X185807Y251361D02*
X187421D01*
X185807Y251042D02*
X187421D01*
X185807Y250723D02*
X187421D01*
X185807Y250404D02*
X187421D01*
X185807Y250085D02*
X187421D01*
X185807Y249766D02*
X187421D01*
X185807Y249448D02*
X187421D01*
X185807Y249129D02*
X187421D01*
X185807Y248810D02*
X187421D01*
X185807Y248491D02*
X187421D01*
X185807Y248172D02*
X187421D01*
X185807Y247853D02*
X187421D01*
X185807Y247534D02*
X187421D01*
X185858Y221703D02*
X187370D01*
X185888Y198743D02*
X187341D01*
X185989Y194278D02*
X187240D01*
X186009Y226168D02*
X187219D01*
X186045Y170999D02*
X187184D01*
X186079Y166853D02*
X187150D01*
X186105Y222022D02*
X187123D01*
X186117Y198424D02*
X187111D01*
X186158Y194597D02*
X187071D01*
X186166Y225849D02*
X187063D01*
X186178Y170680D02*
X187050D01*
X186189Y167172D02*
X187039D01*
X186196Y222341D02*
X187033D01*
X186198Y198105D02*
X187030D01*
X186201Y225530D02*
X187028D01*
X186201Y225211D02*
X187028D01*
X186201Y224892D02*
X187028D01*
X186201Y224574D02*
X187028D01*
X186201Y224255D02*
X187028D01*
X186201Y223936D02*
X187028D01*
X186201Y223617D02*
X187028D01*
X186201Y223298D02*
X187028D01*
X186201Y222979D02*
X187028D01*
X186201Y222660D02*
X187028D01*
X186201Y197786D02*
X187028D01*
X186201Y197467D02*
X187028D01*
X186201Y197148D02*
X187028D01*
X186201Y196829D02*
X187028D01*
X186201Y196511D02*
X187028D01*
X186201Y196192D02*
X187028D01*
X186201Y195873D02*
X187028D01*
X186201Y195554D02*
X187028D01*
X186201Y195235D02*
X187028D01*
X186201Y194916D02*
X187028D01*
X186201Y170361D02*
X187028D01*
X186201Y170042D02*
X187028D01*
X186201Y169723D02*
X187028D01*
X186201Y169404D02*
X187028D01*
X186201Y169085D02*
X187028D01*
X186201Y168766D02*
X187028D01*
X186201Y168448D02*
X187028D01*
X186201Y168129D02*
X187028D01*
X186201Y167810D02*
X187028D01*
X186201Y167491D02*
X187028D01*
X183732Y115192D02*
X186544D01*
X184296Y115511D02*
X185980D01*
X184659Y115829D02*
X185617D01*
X184919Y116148D02*
X185356D01*
X157651Y211818D02*
X182902D01*
X152969Y266668D02*
X182821D01*
X149477Y262203D02*
X182603D01*
X149336Y262522D02*
X182600D01*
X161477Y207991D02*
X182576D01*
X157969Y211499D02*
X182353D01*
X161158Y208310D02*
X182172D01*
X153288Y266349D02*
X182061D01*
X158288Y211180D02*
X182031D01*
X149150Y262841D02*
X181981D01*
X160840Y208629D02*
X181910D01*
X158607Y210861D02*
X181815D01*
X128720Y193959D02*
X181805D01*
X160521Y208948D02*
X181734D01*
X149390Y226487D02*
X181730D01*
X153607Y266030D02*
X181687D01*
X158926Y210542D02*
X181671D01*
X148558Y263160D02*
X181635D01*
X179114Y115192D02*
X181623D01*
X169186Y171318D02*
X181622D01*
X160202Y209266D02*
X181621D01*
X159245Y210223D02*
X181585D01*
X159883Y209585D02*
X181560D01*
X159564Y209904D02*
X181549D01*
X160847Y166534D02*
X181531D01*
X175787Y221703D02*
X181465D01*
X178375Y198743D02*
X181435D01*
X128720Y194278D02*
X181334D01*
X149390Y226168D02*
X181314D01*
X169505Y170999D02*
X181278D01*
X160528Y166853D02*
X181244D01*
X175896Y222022D02*
X181218D01*
X178694Y198424D02*
X181205D01*
X128720Y194597D02*
X181165D01*
X149390Y225849D02*
X181157D01*
X169824Y170680D02*
X181145D01*
X160210Y167172D02*
X181134D01*
X175954Y222341D02*
X181127D01*
X179013Y198105D02*
X181125D01*
X149390Y225530D02*
X181122D01*
X128720Y194916D02*
X181122D01*
X170143Y170361D02*
X181107D01*
X159891Y167491D02*
X181067D01*
X179375Y115511D02*
X181058D01*
X179737Y115829D02*
X180696D01*
X179998Y116148D02*
X180435D01*
X135266Y252637D02*
X179422D01*
X115939Y246577D02*
X179421D01*
X135783Y252318D02*
X179219D01*
X147633Y246896D02*
X179218D01*
X136094Y251999D02*
X179154D01*
X148045Y247215D02*
X179154D01*
X136302Y251680D02*
X179154D01*
X136441Y251361D02*
X179154D01*
X136523Y251042D02*
X179154D01*
X147355Y250723D02*
X179154D01*
X147890Y250404D02*
X179154D01*
X128720Y195235D02*
X178147D01*
X152653Y195554D02*
X177722D01*
X153112Y195873D02*
X177403D01*
X164217Y282613D02*
X177368D01*
X169155Y271770D02*
X177236D01*
X153399Y196192D02*
X177084D01*
X164674Y282294D02*
X176903D01*
X169572Y272089D02*
X176864D01*
X153593Y196511D02*
X176765D01*
X153720Y196829D02*
X176447D01*
X173889Y115192D02*
X176398D01*
X125088Y114873D02*
X176398D01*
X125406Y114554D02*
X176398D01*
X125724Y114235D02*
X176386D01*
X174453Y115511D02*
X176137D01*
X153792Y197148D02*
X176128D01*
X126042Y113916D02*
X176090D01*
X153815Y197467D02*
X175809D01*
X174816Y115829D02*
X175775D01*
X126361Y113597D02*
X175771D01*
X175077Y116148D02*
X175514D01*
X153916Y197786D02*
X175490D01*
X126679Y113278D02*
X175452D01*
X154235Y198105D02*
X175171D01*
X126997Y112959D02*
X175133D01*
X154553Y198424D02*
X174852D01*
X127315Y112640D02*
X174814D01*
X149390Y225211D02*
X174725D01*
X154872Y198743D02*
X174533D01*
X127633Y112322D02*
X174495D01*
X149340Y224892D02*
X174231D01*
X171201Y199062D02*
X174214D01*
X172033Y199381D02*
X173895D01*
X172418Y199699D02*
X173576D01*
X118779Y220428D02*
X173570D01*
X149161Y224574D02*
X173080D01*
X159087Y142936D02*
X172696D01*
X118396Y220747D02*
X172670D01*
X148632Y224255D02*
X172504D01*
X168599Y142617D02*
X172369D01*
X117575Y221066D02*
X172278D01*
X111909Y223936D02*
X172173D01*
X169323Y142298D02*
X172050D01*
X111909Y221385D02*
X172023D01*
X111909Y223617D02*
X171952D01*
X111909Y221703D02*
X171851D01*
X111909Y223298D02*
X171804D01*
X168968Y115192D02*
X171780D01*
X111909Y222022D02*
X171741D01*
X169691Y141979D02*
X171731D01*
X111909Y222979D02*
X171715D01*
X111909Y222341D02*
X171684D01*
X111909Y222660D02*
X171676D01*
X169709Y123164D02*
X171589D01*
X169387Y123483D02*
X171506D01*
X169532Y115511D02*
X171216D01*
X169895Y115829D02*
X170853D01*
X169068Y123802D02*
X170623D01*
X170156Y116148D02*
X170592D01*
X155191Y199062D02*
X170531D01*
X168749Y124121D02*
X170301D01*
X168430Y124440D02*
X169982D01*
X155510Y199381D02*
X169699D01*
X168111Y124759D02*
X169663D01*
X167792Y125077D02*
X169344D01*
X155829Y199699D02*
X169314D01*
X156148Y200018D02*
X169063D01*
X167473Y125396D02*
X169025D01*
X156467Y200337D02*
X168893D01*
X159572Y167810D02*
X168872D01*
X158061Y201932D02*
X168856D01*
X156786Y200656D02*
X168786D01*
X157742Y201613D02*
X168764D01*
X157105Y200975D02*
X168730D01*
X157424Y201294D02*
X168723D01*
X167154Y125715D02*
X168706D01*
X159253Y168129D02*
X168533D01*
X166836Y126034D02*
X168387D01*
X145256Y120613D02*
X168313D01*
X158934Y168448D02*
X168214D01*
X145256Y120932D02*
X168086D01*
X166517Y126353D02*
X168069D01*
X158615Y168766D02*
X167895D01*
X159087Y155054D02*
X167847D01*
X145255Y121251D02*
X167777D01*
X166198Y126672D02*
X167750D01*
X159087Y142617D02*
X167621D01*
X158296Y169085D02*
X167576D01*
X163861Y271451D02*
X167513D01*
X159792Y138471D02*
X167498D01*
X145212Y121570D02*
X167458D01*
X165879Y126991D02*
X167431D01*
X157977Y169404D02*
X167258D01*
X145107Y121888D02*
X167139D01*
X165560Y127310D02*
X167112D01*
X159087Y155373D02*
X167104D01*
X145256Y120294D02*
X166995D01*
X163542Y271770D02*
X166987D01*
X157658Y169723D02*
X166939D01*
X159087Y142298D02*
X166898D01*
X144558Y115192D02*
X166859D01*
X159473Y138790D02*
X166851D01*
X144924Y122207D02*
X166821D01*
X165241Y127629D02*
X166793D01*
X159087Y155692D02*
X166733D01*
X157340Y170042D02*
X166620D01*
X163223Y272089D02*
X166569D01*
X159087Y141979D02*
X166530D01*
X144636Y122526D02*
X166502D01*
X159154Y139109D02*
X166500D01*
X159099Y156011D02*
X166489D01*
X164922Y127948D02*
X166474D01*
X145256Y119975D02*
X166369D01*
X159388Y156329D02*
X166324D01*
X157021Y170361D02*
X166305D01*
X162904Y272408D02*
X166302D01*
X145123Y115511D02*
X166295D01*
X159087Y141660D02*
X166288D01*
X159087Y139428D02*
X166268D01*
X101161Y300471D02*
X166226D01*
X124035Y175463D02*
X166221D01*
X159605Y156648D02*
X166221D01*
X144318Y122845D02*
X166183D01*
X159749Y156967D02*
X166169D01*
X160672Y274640D02*
X166167D01*
X159836Y157286D02*
X166166D01*
X164603Y128266D02*
X166155D01*
X159087Y141341D02*
X166125D01*
X162585Y272727D02*
X166121D01*
X159087Y139747D02*
X166112D01*
X156702Y170680D02*
X166095D01*
X114236Y322156D02*
X166056D01*
X160991Y274322D02*
X166042D01*
X159087Y141022D02*
X166022D01*
X159087Y140066D02*
X166015D01*
X162266Y273046D02*
X166004D01*
X156383Y170999D02*
X165990D01*
X145434Y119656D02*
X165983D01*
X159087Y140703D02*
X165972D01*
X159087Y140385D02*
X165969D01*
X155459Y171637D02*
X165965D01*
X156062Y171318D02*
X165965D01*
X161310Y274003D02*
X165959D01*
X151698Y171955D02*
X165947D01*
X161947Y273365D02*
X165941D01*
X159872Y157605D02*
X165935D01*
X145485Y115829D02*
X165932D01*
X161629Y273684D02*
X165926D01*
X143999Y123164D02*
X165864D01*
X164284Y128585D02*
X165836D01*
X124035Y175144D02*
X165811D01*
X145709Y119337D02*
X165709D01*
X145746Y116148D02*
X165671D01*
X151190Y172274D02*
X165653D01*
X159861Y157924D02*
X165616D01*
X124035Y174825D02*
X165546D01*
X143680Y123483D02*
X165545D01*
X163966Y128904D02*
X165517D01*
X145911Y119018D02*
X165507D01*
X101161Y330448D02*
X165507D01*
X145938Y116467D02*
X165479D01*
X124035Y172593D02*
X165440D01*
X101161Y308762D02*
X165419D01*
X124035Y174507D02*
X165368D01*
X146058Y118699D02*
X165360D01*
X146077Y116786D02*
X165340D01*
X124035Y172912D02*
X165298D01*
X159801Y158243D02*
X165297D01*
X146158Y118381D02*
X165259D01*
X124035Y174188D02*
X165253D01*
X146171Y117105D02*
X165246D01*
X143361Y123802D02*
X165226D01*
X124035Y173231D02*
X165213D01*
X146218Y118062D02*
X165199D01*
X163647Y129223D02*
X165198D01*
X146224Y117424D02*
X165193D01*
X124035Y173869D02*
X165191D01*
X124035Y173550D02*
X165178D01*
X146240Y117743D02*
X165177D01*
X101161Y300790D02*
X165167D01*
X114100Y322475D02*
X165098D01*
X160353Y274959D02*
X165034D01*
X159689Y158562D02*
X164978D01*
X143042Y124121D02*
X164907D01*
X163328Y129542D02*
X164880D01*
X101161Y330129D02*
X164804D01*
X101161Y308444D02*
X164749D01*
X159513Y158881D02*
X164659D01*
X142723Y124440D02*
X164588D01*
X101161Y301109D02*
X164581D01*
X163009Y129861D02*
X164561D01*
X113935Y322794D02*
X164533D01*
X160034Y275278D02*
X164466D01*
X159252Y159199D02*
X164340D01*
X101161Y329810D02*
X164320D01*
X101161Y308125D02*
X164279D01*
X142404Y124759D02*
X164269D01*
X156845Y278467D02*
X164243D01*
X162690Y130180D02*
X164242D01*
X101161Y301428D02*
X164151D01*
X159715Y275597D02*
X164137D01*
X113736Y323113D02*
X164114D01*
X158850Y159518D02*
X164021D01*
X157164Y278148D02*
X163995D01*
X142085Y125077D02*
X163950D01*
X101161Y329491D02*
X163947D01*
X162371Y130499D02*
X163923D01*
X159396Y275916D02*
X163918D01*
X101161Y307806D02*
X163914D01*
X157483Y277829D02*
X163822D01*
X101161Y301747D02*
X163812D01*
X113500Y323432D02*
X163782D01*
X159077Y276235D02*
X163771D01*
X157802Y277511D02*
X163711D01*
X124035Y159837D02*
X163702D01*
X158759Y276554D02*
X163682D01*
X158121Y277192D02*
X163653D01*
X101161Y329172D02*
X163646D01*
X158440Y276873D02*
X163644D01*
X141766Y125396D02*
X163632D01*
X101161Y307487D02*
X163619D01*
X162052Y130818D02*
X163604D01*
X101161Y302066D02*
X163536D01*
X113217Y323751D02*
X163511D01*
X101161Y328853D02*
X163399D01*
X124035Y160156D02*
X163384D01*
X101161Y307168D02*
X163378D01*
X141447Y125715D02*
X163313D01*
X101161Y302385D02*
X163308D01*
X112875Y324070D02*
X163288D01*
X161733Y131137D02*
X163285D01*
X101161Y328534D02*
X163196D01*
X101161Y306849D02*
X163178D01*
X162895Y183436D02*
X163177D01*
X101161Y302703D02*
X163121D01*
X112450Y324388D02*
X163105D01*
X149390Y179609D02*
X163073D01*
X124035Y160475D02*
X163065D01*
X101161Y328215D02*
X163029D01*
X101161Y306530D02*
X163015D01*
X141129Y126034D02*
X162994D01*
X101161Y303022D02*
X162968D01*
X161414Y131455D02*
X162966D01*
X111892Y324707D02*
X162955D01*
X101161Y327896D02*
X162894D01*
X101161Y306211D02*
X162883D01*
X101161Y303341D02*
X162846D01*
X111025Y325026D02*
X162835D01*
X101161Y327577D02*
X162788D01*
X101161Y305892D02*
X162779D01*
X101161Y303660D02*
X162752D01*
X124035Y160794D02*
X162746D01*
X101161Y325345D02*
X162744D01*
X101161Y327259D02*
X162709D01*
X101161Y305574D02*
X162703D01*
X101161Y303979D02*
X162683D01*
X101161Y325664D02*
X162678D01*
X140810Y126353D02*
X162675D01*
X101161Y326940D02*
X162655D01*
X101161Y305255D02*
X162651D01*
X161095Y131774D02*
X162647D01*
X101161Y304298D02*
X162639D01*
X101161Y325983D02*
X162636D01*
X149390Y179928D02*
X162630D01*
X101161Y326621D02*
X162625D01*
X101161Y304936D02*
X162623D01*
X101161Y304617D02*
X162619D01*
X101161Y326302D02*
X162619D01*
X151694Y267944D02*
X162520D01*
X124035Y161113D02*
X162427D01*
X140491Y126672D02*
X162356D01*
X149390Y180247D02*
X162349D01*
X160777Y132093D02*
X162328D01*
X156526Y278786D02*
X162276D01*
X101161Y282613D02*
X162239D01*
X124035Y161432D02*
X162108D01*
X151375Y268262D02*
X162094D01*
X140172Y126991D02*
X162037D01*
X160458Y132412D02*
X162010D01*
X149390Y180566D02*
X161923D01*
X156207Y279105D02*
X161803D01*
X124035Y161751D02*
X161789D01*
X101161Y282294D02*
X161782D01*
X151056Y268581D02*
X161776D01*
X139853Y127310D02*
X161718D01*
X160139Y132731D02*
X161691D01*
X149374Y180885D02*
X161604D01*
X155888Y279424D02*
X161510D01*
X101161Y281975D02*
X161496D01*
X124035Y162070D02*
X161470D01*
X150737Y268900D02*
X161457D01*
X139534Y127629D02*
X161399D01*
X159820Y133050D02*
X161372D01*
X155570Y279743D02*
X161312D01*
X101161Y281656D02*
X161303D01*
X149253Y181203D02*
X161285D01*
X155251Y280062D02*
X161183D01*
X101161Y281337D02*
X161177D01*
X124035Y162388D02*
X161151D01*
X150418Y269219D02*
X161138D01*
X154932Y280381D02*
X161108D01*
X141607Y281018D02*
X161105D01*
X154522Y280699D02*
X161083D01*
X139215Y127948D02*
X161080D01*
X159501Y133369D02*
X161053D01*
X148943Y181522D02*
X160966D01*
X124035Y162707D02*
X160832D01*
X150099Y269538D02*
X160819D01*
X138896Y128266D02*
X160761D01*
X159182Y133688D02*
X160734D01*
X144156Y181841D02*
X160647D01*
X124035Y163026D02*
X160513D01*
X149780Y269857D02*
X160500D01*
X124035Y205121D02*
X160469D01*
X138577Y128585D02*
X160443D01*
X158863Y134007D02*
X160415D01*
X144475Y182160D02*
X160328D01*
X124035Y163345D02*
X160195D01*
X124035Y205440D02*
X160187D01*
X149462Y270176D02*
X160181D01*
X138259Y128904D02*
X160124D01*
X158544Y134325D02*
X160096D01*
X144794Y182479D02*
X160010D01*
X124035Y163664D02*
X159876D01*
X124035Y205759D02*
X159868D01*
X149143Y270495D02*
X159862D01*
X137940Y129223D02*
X159805D01*
X158225Y134644D02*
X159777D01*
X124035Y163983D02*
X159557D01*
X124035Y206077D02*
X159549D01*
X148824Y270814D02*
X159543D01*
X137621Y129542D02*
X159486D01*
X157906Y134963D02*
X159458D01*
X149130Y164302D02*
X159238D01*
X124035Y206396D02*
X159230D01*
X148505Y271133D02*
X159224D01*
X137302Y129861D02*
X159167D01*
X157588Y135282D02*
X159139D01*
X149328Y164621D02*
X158919D01*
X124035Y206715D02*
X158911D01*
X148472Y271451D02*
X158905D01*
X136983Y130180D02*
X158848D01*
X157269Y135601D02*
X158821D01*
X149390Y164940D02*
X158600D01*
X124035Y207034D02*
X158592D01*
X149119Y271770D02*
X158587D01*
X136664Y130499D02*
X158529D01*
X156950Y135920D02*
X158502D01*
X149390Y165259D02*
X158281D01*
X124035Y207353D02*
X158273D01*
X149323Y272089D02*
X158268D01*
X136345Y130818D02*
X158210D01*
X156631Y136239D02*
X158183D01*
X149390Y165577D02*
X157962D01*
X124041Y207672D02*
X157954D01*
X149389Y272408D02*
X157949D01*
X136026Y131137D02*
X157891D01*
X156312Y136558D02*
X157864D01*
X149390Y165896D02*
X157643D01*
X143548Y207991D02*
X157636D01*
X149390Y272727D02*
X157630D01*
X135707Y131455D02*
X157573D01*
X155993Y136877D02*
X157545D01*
X149390Y166215D02*
X157324D01*
X144423Y208310D02*
X157317D01*
X149390Y273046D02*
X157311D01*
X135388Y131774D02*
X157254D01*
X124035Y204802D02*
X157241D01*
X155674Y137196D02*
X157226D01*
X149390Y166534D02*
X157006D01*
X144812Y208629D02*
X156998D01*
X149390Y273365D02*
X156992D01*
X135070Y132093D02*
X156935D01*
X155355Y137514D02*
X156907D01*
X129972Y204483D02*
X156771D01*
X149390Y166853D02*
X156687D01*
X145066Y208948D02*
X156679D01*
X149390Y273684D02*
X156673D01*
X155036Y137833D02*
X156617D01*
X134751Y132412D02*
X156616D01*
X152737Y159518D02*
X156607D01*
X130811Y204164D02*
X156452D01*
X154717Y138152D02*
X156451D01*
X154399Y138471D02*
X156378D01*
X153000Y155692D02*
X156370D01*
X153000Y155373D02*
X156370D01*
X153000Y155054D02*
X156370D01*
X153000Y154735D02*
X156370D01*
X153000Y154416D02*
X156370D01*
X153000Y154097D02*
X156370D01*
X153000Y153778D02*
X156370D01*
X153000Y153459D02*
X156370D01*
X153000Y153140D02*
X156370D01*
X153000Y152822D02*
X156370D01*
X153000Y152503D02*
X156370D01*
X153000Y152184D02*
X156370D01*
X153000Y151865D02*
X156370D01*
X153000Y151546D02*
X156370D01*
X153000Y151227D02*
X156370D01*
X153000Y150908D02*
X156370D01*
X153000Y150589D02*
X156370D01*
X153000Y150270D02*
X156370D01*
X153000Y149951D02*
X156370D01*
X153000Y149633D02*
X156370D01*
X153000Y149314D02*
X156370D01*
X153000Y148995D02*
X156370D01*
X153000Y148676D02*
X156370D01*
X153000Y148357D02*
X156370D01*
X153000Y148038D02*
X156370D01*
X153000Y147719D02*
X156370D01*
X153000Y147400D02*
X156370D01*
X153000Y147081D02*
X156370D01*
X153000Y146762D02*
X156370D01*
X153000Y146444D02*
X156370D01*
X153000Y146125D02*
X156370D01*
X153000Y145806D02*
X156370D01*
X153000Y145487D02*
X156370D01*
X153000Y145168D02*
X156370D01*
X153000Y144849D02*
X156370D01*
X153000Y144530D02*
X156370D01*
X153000Y144211D02*
X156370D01*
X153000Y143892D02*
X156370D01*
X153000Y143574D02*
X156370D01*
X153000Y143255D02*
X156370D01*
X153000Y142936D02*
X156370D01*
X153000Y142617D02*
X156370D01*
X153000Y142298D02*
X156370D01*
X153000Y141979D02*
X156370D01*
X153000Y141660D02*
X156370D01*
X153000Y141341D02*
X156370D01*
X153000Y141022D02*
X156370D01*
X153000Y140703D02*
X156370D01*
X153000Y140385D02*
X156370D01*
X153000Y140066D02*
X156370D01*
X153123Y139747D02*
X156370D01*
X153442Y139428D02*
X156370D01*
X153761Y139109D02*
X156370D01*
X154080Y138790D02*
X156370D01*
X149390Y167172D02*
X156368D01*
X145237Y209266D02*
X156360D01*
X153019Y156011D02*
X156358D01*
X149390Y274003D02*
X156354D01*
X134432Y132731D02*
X156297D01*
X153150Y159199D02*
X156204D01*
X131196Y203845D02*
X156133D01*
X153315Y156329D02*
X156068D01*
X149390Y167491D02*
X156049D01*
X145346Y209585D02*
X156041D01*
X149390Y274322D02*
X156035D01*
X134113Y133050D02*
X155978D01*
X153415Y158881D02*
X155944D01*
X153527Y156648D02*
X155852D01*
X131448Y203526D02*
X155814D01*
X153595Y158562D02*
X155768D01*
X149385Y167810D02*
X155730D01*
X145403Y209904D02*
X155722D01*
X149390Y274640D02*
X155717D01*
X153668Y156967D02*
X155708D01*
X133794Y133369D02*
X155659D01*
X153710Y158243D02*
X155655D01*
X153752Y157286D02*
X155621D01*
X153773Y157924D02*
X155596D01*
X153786Y157605D02*
X155584D01*
X131618Y203207D02*
X155495D01*
X149307Y168129D02*
X155411D01*
X145411Y210223D02*
X155403D01*
X149390Y274959D02*
X155398D01*
X133475Y133688D02*
X155340D01*
X131726Y202888D02*
X155176D01*
X151372Y168448D02*
X155092D01*
X145371Y210542D02*
X155084D01*
X149386Y275278D02*
X155079D01*
X133156Y134007D02*
X155021D01*
X131781Y202570D02*
X154857D01*
X151800Y168766D02*
X154773D01*
X145281Y210861D02*
X154765D01*
X149303Y275597D02*
X154760D01*
X132837Y134325D02*
X154702D01*
X131788Y202251D02*
X154538D01*
X145257Y211180D02*
X154447D01*
X149068Y275916D02*
X154441D01*
X132518Y134644D02*
X154384D01*
X131748Y201932D02*
X154220D01*
X149082Y211499D02*
X154128D01*
X101161Y276235D02*
X154122D01*
X132199Y134963D02*
X154065D01*
X131656Y201613D02*
X153901D01*
X149309Y211818D02*
X153809D01*
X101161Y276554D02*
X153803D01*
X131881Y135282D02*
X153746D01*
X131507Y201294D02*
X153582D01*
X149387Y212137D02*
X153490D01*
X101161Y276873D02*
X153484D01*
X131562Y135601D02*
X153427D01*
X131283Y200975D02*
X153263D01*
X149390Y212455D02*
X153171D01*
X141335Y277192D02*
X153165D01*
X131243Y135920D02*
X153108D01*
X130947Y200656D02*
X152944D01*
X149390Y212774D02*
X152852D01*
X130924Y136239D02*
X152789D01*
X130355Y200337D02*
X152625D01*
X149390Y213093D02*
X152533D01*
X130605Y136558D02*
X152470D01*
X101161Y263479D02*
X152336D01*
X129223Y200018D02*
X152306D01*
X149390Y213412D02*
X152214D01*
X130286Y136877D02*
X152151D01*
X101161Y263798D02*
X151998D01*
X128904Y199699D02*
X151987D01*
X149390Y213731D02*
X151895D01*
X129967Y137196D02*
X151832D01*
X101161Y264117D02*
X151679D01*
X149390Y214050D02*
X151576D01*
X129648Y137514D02*
X151513D01*
X101161Y264436D02*
X151360D01*
X149390Y214369D02*
X151258D01*
X129329Y137833D02*
X151195D01*
X101161Y264755D02*
X151041D01*
X149390Y214688D02*
X150939D01*
X129010Y138152D02*
X150876D01*
X128720Y192046D02*
X150749D01*
X101161Y265074D02*
X150722D01*
X128720Y199381D02*
X150711D01*
X128720Y195554D02*
X150685D01*
X149389Y215007D02*
X150620D01*
X128692Y138471D02*
X150571D01*
X124035Y159518D02*
X150547D01*
X101161Y265392D02*
X150403D01*
X128373Y138790D02*
X150386D01*
X149318Y215325D02*
X150301D01*
X128054Y139109D02*
X150298D01*
X124035Y155692D02*
X150283D01*
X124035Y155373D02*
X150283D01*
X124035Y155054D02*
X150283D01*
X124035Y154735D02*
X150283D01*
X124035Y154416D02*
X150283D01*
X124035Y154097D02*
X150283D01*
X124035Y153778D02*
X150283D01*
X124035Y153459D02*
X150283D01*
X124035Y153140D02*
X150283D01*
X124035Y152822D02*
X150283D01*
X124035Y152503D02*
X150283D01*
X124035Y152184D02*
X150283D01*
X124035Y151865D02*
X150283D01*
X124035Y151546D02*
X150283D01*
X124035Y151227D02*
X150283D01*
X124035Y150908D02*
X150283D01*
X124035Y150589D02*
X150283D01*
X124035Y150270D02*
X150283D01*
X124035Y149951D02*
X150283D01*
X124035Y149633D02*
X150283D01*
X124035Y149314D02*
X150283D01*
X124035Y148995D02*
X150283D01*
X124035Y148676D02*
X150283D01*
X124035Y148357D02*
X150283D01*
X124035Y148038D02*
X150283D01*
X124035Y147719D02*
X150283D01*
X124035Y147400D02*
X150283D01*
X124035Y147081D02*
X150283D01*
X124035Y146762D02*
X150283D01*
X124035Y146444D02*
X150283D01*
X124035Y146125D02*
X150283D01*
X124035Y145806D02*
X150283D01*
X124035Y145487D02*
X150283D01*
X124035Y145168D02*
X150283D01*
X124035Y144849D02*
X150283D01*
X124035Y144530D02*
X150283D01*
X124035Y144211D02*
X150283D01*
X124035Y143892D02*
X150283D01*
X124035Y143574D02*
X150283D01*
X124035Y143255D02*
X150283D01*
X124227Y142936D02*
X150283D01*
X124546Y142617D02*
X150283D01*
X124865Y142298D02*
X150283D01*
X125184Y141979D02*
X150283D01*
X125503Y141660D02*
X150283D01*
X125821Y141341D02*
X150283D01*
X126140Y141022D02*
X150283D01*
X126459Y140703D02*
X150283D01*
X126778Y140385D02*
X150283D01*
X127097Y140066D02*
X150283D01*
X127416Y139747D02*
X150283D01*
X127735Y139428D02*
X150283D01*
X128720Y191727D02*
X150279D01*
X124035Y156011D02*
X150264D01*
X128720Y199062D02*
X150241D01*
X128720Y195873D02*
X150226D01*
X124035Y159199D02*
X150134D01*
X101161Y265711D02*
X150084D01*
X149106Y215644D02*
X149982D01*
X124035Y156329D02*
X149969D01*
X128720Y191408D02*
X149960D01*
X128720Y198743D02*
X149949D01*
X128720Y196192D02*
X149939D01*
X124035Y158881D02*
X149868D01*
X101161Y266030D02*
X149765D01*
X124035Y156648D02*
X149757D01*
X128720Y198424D02*
X149752D01*
X128720Y196511D02*
X149745D01*
X124035Y158562D02*
X149689D01*
X111909Y215963D02*
X149663D01*
X128720Y191089D02*
X149641D01*
X128720Y198105D02*
X149623D01*
X128720Y196829D02*
X149619D01*
X124035Y156967D02*
X149616D01*
X124035Y158243D02*
X149573D01*
X128720Y197786D02*
X149548D01*
X128720Y197148D02*
X149546D01*
X124035Y157286D02*
X149531D01*
X128720Y197467D02*
X149524D01*
X124035Y157924D02*
X149511D01*
X124035Y157605D02*
X149497D01*
X101161Y266349D02*
X149447D01*
X124035Y172274D02*
X149440D01*
X111909Y216282D02*
X149344D01*
X128720Y190770D02*
X149322D01*
X101161Y266668D02*
X149128D01*
X111909Y216601D02*
X149025D01*
X128720Y190451D02*
X149003D01*
X124035Y171955D02*
X148932D01*
X101161Y266987D02*
X148809D01*
X117923Y216920D02*
X148706D01*
X128720Y190133D02*
X148684D01*
X124035Y168766D02*
X148661D01*
X124035Y171637D02*
X148625D01*
X124035Y169085D02*
X148557D01*
X101161Y267306D02*
X148490D01*
X124035Y171318D02*
X148418D01*
X118521Y217239D02*
X148387D01*
X124035Y169404D02*
X148372D01*
X128720Y189814D02*
X148365D01*
X124035Y170999D02*
X148281D01*
X124035Y169723D02*
X148253D01*
X124035Y170680D02*
X148201D01*
X124035Y170042D02*
X148187D01*
X101161Y267625D02*
X148171D01*
X124035Y170361D02*
X148170D01*
X118865Y217558D02*
X148065D01*
X101161Y267944D02*
X147852D01*
X101161Y268262D02*
X147533D01*
X101161Y268581D02*
X147214D01*
X128720Y189495D02*
X147154D01*
X128720Y185668D02*
X146908D01*
X101161Y268900D02*
X146895D01*
X128720Y185349D02*
X146894D01*
X128720Y189176D02*
X146628D01*
X101161Y269219D02*
X146576D01*
X128720Y185987D02*
X146491D01*
X128720Y188857D02*
X146314D01*
X101161Y269538D02*
X146258D01*
X128720Y186306D02*
X146223D01*
X128720Y188538D02*
X146104D01*
X128720Y186625D02*
X146042D01*
X128720Y188219D02*
X145964D01*
X101161Y269857D02*
X145939D01*
X128720Y186944D02*
X145925D01*
X128720Y187900D02*
X145880D01*
X128720Y187262D02*
X145862D01*
X128720Y187581D02*
X145847D01*
X136554Y250723D02*
X145716D01*
X101161Y270176D02*
X145662D01*
X101161Y270495D02*
X145510D01*
X101161Y270814D02*
X145447D01*
X101161Y271133D02*
X145443D01*
X116258Y246896D02*
X145438D01*
X101161Y271451D02*
X145356D01*
X136539Y250404D02*
X145181D01*
X116577Y247215D02*
X145026D01*
X133794Y263160D02*
X144946D01*
X133868Y224255D02*
X144872D01*
X136474Y250085D02*
X144864D01*
X116896Y247534D02*
X144761D01*
X134021Y177058D02*
X144719D01*
X136356Y249766D02*
X144651D01*
X117215Y247853D02*
X144582D01*
X144035Y181522D02*
X144561D01*
X136173Y249448D02*
X144510D01*
X134247Y228719D02*
X144493D01*
X134264Y258696D02*
X144476D01*
X117534Y248172D02*
X144466D01*
X134291Y168448D02*
X144449D01*
X134304Y275916D02*
X144436D01*
X135903Y249129D02*
X144425D01*
X117853Y248491D02*
X144404D01*
X134342Y215644D02*
X144398D01*
X135480Y248810D02*
X144391D01*
X134355Y271770D02*
X144385D01*
X134366Y164302D02*
X144374D01*
X134386Y262841D02*
X144354D01*
X134398Y224574D02*
X144343D01*
X134435Y177377D02*
X144305D01*
X134516Y228400D02*
X144224D01*
X134523Y259014D02*
X144217D01*
X134534Y168129D02*
X144207D01*
X134539Y275597D02*
X144201D01*
X134554Y215325D02*
X144186D01*
X134560Y272089D02*
X144181D01*
X134564Y164621D02*
X144176D01*
X134572Y262522D02*
X144168D01*
X134577Y224892D02*
X144163D01*
X134591Y177696D02*
X144149D01*
X134617Y228081D02*
X144123D01*
X134620Y259333D02*
X144120D01*
X134621Y167810D02*
X144119D01*
X134626Y164940D02*
X144114D01*
X134626Y227762D02*
X144114D01*
X134626Y227444D02*
X144114D01*
X134626Y227125D02*
X144114D01*
X134626Y226806D02*
X144114D01*
X134626Y226487D02*
X144114D01*
X134626Y226168D02*
X144114D01*
X134626Y225849D02*
X144114D01*
X134626Y225530D02*
X144114D01*
X134626Y225211D02*
X144114D01*
X134626Y167491D02*
X144114D01*
X134626Y167172D02*
X144114D01*
X134626Y166853D02*
X144114D01*
X134626Y166534D02*
X144114D01*
X134626Y166215D02*
X144114D01*
X134626Y165896D02*
X144114D01*
X134626Y165577D02*
X144114D01*
X134626Y165259D02*
X144114D01*
X134632Y275278D02*
X144108D01*
X134655Y215007D02*
X144086D01*
X134666Y272408D02*
X144074D01*
X134714Y262203D02*
X144026D01*
X128720Y185030D02*
X143513D01*
X128720Y184711D02*
X143184D01*
X124327Y207991D02*
X142987D01*
X128720Y184392D02*
X142865D01*
X128720Y184074D02*
X142546D01*
X139637Y115192D02*
X142450D01*
X128720Y183755D02*
X142227D01*
X124646Y208310D02*
X142113D01*
X134545Y211818D02*
X141904D01*
X134639Y212137D02*
X141885D01*
X140201Y115511D02*
X141885D01*
X139501Y120294D02*
X141752D01*
X140127Y119975D02*
X141752D01*
X124965Y208629D02*
X141723D01*
X134319Y211499D02*
X141625D01*
X119363Y120613D02*
X141594D01*
X140513Y119656D02*
X141574D01*
X140564Y115829D02*
X141523D01*
X125283Y208948D02*
X141469D01*
X126516Y211180D02*
X141403D01*
X140787Y119337D02*
X141299D01*
X125602Y209266D02*
X141298D01*
X119045Y120932D02*
X141276D01*
X140825Y116148D02*
X141262D01*
X126515Y210861D02*
X141255D01*
X125921Y209585D02*
X141189D01*
X126478Y210542D02*
X141164D01*
X126201Y209904D02*
X141133D01*
X126377Y210223D02*
X141125D01*
X128720Y183436D02*
X140972D01*
X118727Y121251D02*
X140957D01*
X118409Y121570D02*
X140638D01*
X128720Y183117D02*
X140484D01*
X118091Y121888D02*
X140319D01*
X128926Y182798D02*
X140184D01*
X117773Y122207D02*
X140000D01*
X129245Y182479D02*
X139982D01*
X129564Y182160D02*
X139849D01*
X134610Y180885D02*
X139830D01*
X129883Y181841D02*
X139772D01*
X134489Y181203D02*
X139764D01*
X134179Y181522D02*
X139744D01*
X101161Y277192D02*
X139689D01*
X117455Y122526D02*
X139681D01*
X101161Y281018D02*
X139417D01*
X117137Y122845D02*
X139362D01*
X101161Y277511D02*
X139156D01*
X116819Y123164D02*
X139043D01*
X101161Y280699D02*
X139004D01*
X101161Y277829D02*
X138839D01*
X101161Y280381D02*
X138738D01*
X116501Y123483D02*
X138724D01*
X101161Y278148D02*
X138627D01*
X101161Y280062D02*
X138559D01*
X101161Y278467D02*
X138486D01*
X101161Y279743D02*
X138443D01*
X116183Y123802D02*
X138405D01*
X101161Y278786D02*
X138401D01*
X101161Y279424D02*
X138381D01*
X101161Y279105D02*
X138367D01*
X115865Y124121D02*
X138087D01*
X115547Y124440D02*
X137768D01*
X134580Y120294D02*
X137664D01*
X134716Y115192D02*
X137528D01*
X115229Y124759D02*
X137449D01*
X114911Y125077D02*
X137130D01*
X135206Y119975D02*
X137038D01*
X135280Y115511D02*
X136964D01*
X114593Y125396D02*
X136811D01*
X135591Y119656D02*
X136653D01*
X135643Y115829D02*
X136601D01*
X114275Y125715D02*
X136492D01*
X135866Y119337D02*
X136378D01*
X135904Y116148D02*
X136340D01*
X113973Y126034D02*
X136173D01*
X113957Y126353D02*
X135854D01*
X113957Y126672D02*
X135535D01*
X113957Y126991D02*
X135217D01*
X113957Y127310D02*
X134898D01*
X113957Y127629D02*
X134579D01*
X113957Y127948D02*
X134260D01*
X113957Y128266D02*
X133941D01*
X113957Y128585D02*
X133622D01*
X101161Y252637D02*
X133553D01*
X118172Y248810D02*
X133339D01*
X113957Y128904D02*
X133303D01*
X101161Y252318D02*
X133036D01*
X113957Y129223D02*
X132984D01*
X118490Y249129D02*
X132916D01*
X119681Y120294D02*
X132743D01*
X113957Y129542D02*
X132665D01*
X124770Y115192D02*
X132607D01*
X113957Y129861D02*
X132346D01*
X120000Y119975D02*
X132117D01*
X124452Y115511D02*
X132043D01*
X113957Y130180D02*
X132028D01*
X120318Y119656D02*
X131731D01*
X113957Y130499D02*
X131709D01*
X124134Y115829D02*
X131680D01*
X120636Y119337D02*
X131457D01*
X123816Y116148D02*
X131419D01*
X113957Y130818D02*
X131390D01*
X120954Y119018D02*
X131255D01*
X123498Y116467D02*
X131227D01*
X121272Y118699D02*
X131108D01*
X123180Y116786D02*
X131088D01*
X113957Y131137D02*
X131071D01*
X121590Y118381D02*
X131007D01*
X122862Y117105D02*
X130994D01*
X121908Y118062D02*
X130947D01*
X122544Y117424D02*
X130941D01*
X122226Y117743D02*
X130925D01*
X113957Y131455D02*
X130752D01*
X113957Y131774D02*
X130433D01*
X101161Y263160D02*
X130182D01*
X113957Y132093D02*
X130114D01*
X111909Y224255D02*
X130109D01*
X124035Y177058D02*
X129955D01*
X113957Y132412D02*
X129795D01*
X111909Y228719D02*
X129729D01*
X101161Y258696D02*
X129712D01*
X124035Y168448D02*
X129686D01*
X101161Y275916D02*
X129672D01*
X126516Y211499D02*
X129658D01*
X111909Y215644D02*
X129635D01*
X101161Y271770D02*
X129622D01*
X124035Y164302D02*
X129610D01*
X114036Y262841D02*
X129590D01*
X111909Y224574D02*
X129579D01*
X124035Y177377D02*
X129541D01*
X113957Y132731D02*
X129476D01*
X111909Y228400D02*
X129460D01*
X114124Y259014D02*
X129454D01*
X124035Y168129D02*
X129443D01*
X101161Y275597D02*
X129437D01*
X126653Y211818D02*
X129431D01*
X111909Y215325D02*
X129422D01*
X101161Y272089D02*
X129417D01*
X124035Y164621D02*
X129412D01*
X114521Y262522D02*
X129404D01*
X111909Y224892D02*
X129400D01*
X124035Y177696D02*
X129385D01*
X111909Y228081D02*
X129359D01*
X114570Y259333D02*
X129357D01*
X124035Y167810D02*
X129355D01*
X101161Y275278D02*
X129354D01*
X126793Y212137D02*
X129353D01*
X111909Y215007D02*
X129351D01*
X101161Y272408D02*
X129351D01*
X124035Y164940D02*
X129351D01*
X101161Y274959D02*
X129350D01*
X101161Y274640D02*
X129350D01*
X101161Y274322D02*
X129350D01*
X101161Y274003D02*
X129350D01*
X101161Y273684D02*
X129350D01*
X101161Y273365D02*
X129350D01*
X101161Y273046D02*
X129350D01*
X101161Y272727D02*
X129350D01*
X111909Y227762D02*
X129350D01*
X111909Y227444D02*
X129350D01*
X111909Y227125D02*
X129350D01*
X111909Y226806D02*
X129350D01*
X111909Y226487D02*
X129350D01*
X111909Y226168D02*
X129350D01*
X111909Y225849D02*
X129350D01*
X111909Y225530D02*
X129350D01*
X111909Y225211D02*
X129350D01*
X125846Y214688D02*
X129350D01*
X126264Y214369D02*
X129350D01*
X126532Y214050D02*
X129350D01*
X126713Y213731D02*
X129350D01*
X126830Y213412D02*
X129350D01*
X126894Y213093D02*
X129350D01*
X126909Y212774D02*
X129350D01*
X126876Y212455D02*
X129350D01*
X124035Y178333D02*
X129350D01*
X124035Y178014D02*
X129350D01*
X124035Y167491D02*
X129350D01*
X124035Y167172D02*
X129350D01*
X124035Y166853D02*
X129350D01*
X124035Y166534D02*
X129350D01*
X124035Y166215D02*
X129350D01*
X124035Y165896D02*
X129350D01*
X124035Y165577D02*
X129350D01*
X124035Y165259D02*
X129350D01*
X124035Y178652D02*
X129334D01*
X124035Y204483D02*
X129320D01*
X113957Y133050D02*
X129157D01*
X124035Y178971D02*
X128912D01*
X113957Y133369D02*
X128839D01*
X124035Y179290D02*
X128592D01*
X113957Y133688D02*
X128520D01*
X124035Y204164D02*
X128481D01*
X124035Y179609D02*
X128273D01*
X113957Y134007D02*
X128201D01*
X124035Y203845D02*
X128095D01*
X124035Y179928D02*
X127954D01*
X113957Y134325D02*
X127882D01*
X124035Y203526D02*
X127843D01*
X124035Y203207D02*
X127673D01*
X124035Y180247D02*
X127636D01*
X124035Y202888D02*
X127566D01*
X113957Y134644D02*
X127563D01*
X124035Y202570D02*
X127510D01*
X124035Y202251D02*
X127503D01*
X124035Y180566D02*
X127317D01*
X124035Y201932D02*
X127294D01*
X113957Y134963D02*
X127244D01*
X124035Y180885D02*
X126998D01*
X124035Y201613D02*
X126975D01*
X113957Y135282D02*
X126925D01*
X114531Y109451D02*
X126761D01*
X124035Y181203D02*
X126679D01*
X124035Y201294D02*
X126657D01*
X113957Y135601D02*
X126606D01*
X124035Y181522D02*
X126362D01*
X124035Y200975D02*
X126342D01*
X114547Y109770D02*
X126340D01*
X113957Y135920D02*
X126287D01*
X124035Y181841D02*
X126143D01*
X124035Y200656D02*
X126133D01*
X124035Y182160D02*
X126033D01*
X124035Y200337D02*
X126029D01*
X114541Y110089D02*
X126022D01*
X124035Y200018D02*
X126004D01*
X124035Y199699D02*
X126004D01*
X124035Y199381D02*
X126004D01*
X124035Y199062D02*
X126004D01*
X124035Y198743D02*
X126004D01*
X124035Y198424D02*
X126004D01*
X124035Y198105D02*
X126004D01*
X124035Y197786D02*
X126004D01*
X124035Y197467D02*
X126004D01*
X124035Y197148D02*
X126004D01*
X124035Y196829D02*
X126004D01*
X124035Y196511D02*
X126004D01*
X124035Y196192D02*
X126004D01*
X124035Y195873D02*
X126004D01*
X124035Y195554D02*
X126004D01*
X124035Y195235D02*
X126004D01*
X124035Y194916D02*
X126004D01*
X124035Y194597D02*
X126004D01*
X124035Y194278D02*
X126004D01*
X124035Y193959D02*
X126004D01*
X124035Y193640D02*
X126004D01*
X124035Y193322D02*
X126004D01*
X124035Y193003D02*
X126004D01*
X124035Y192684D02*
X126004D01*
X124035Y192365D02*
X126004D01*
X124035Y192046D02*
X126004D01*
X124035Y191727D02*
X126004D01*
X124035Y191408D02*
X126004D01*
X124035Y191089D02*
X126004D01*
X124035Y190770D02*
X126004D01*
X124035Y190451D02*
X126004D01*
X124035Y190133D02*
X126004D01*
X124035Y189814D02*
X126004D01*
X124035Y189495D02*
X126004D01*
X124035Y189176D02*
X126004D01*
X124035Y188857D02*
X126004D01*
X124035Y188538D02*
X126004D01*
X124035Y188219D02*
X126004D01*
X124035Y187900D02*
X126004D01*
X124035Y187581D02*
X126004D01*
X124035Y187262D02*
X126004D01*
X124035Y186944D02*
X126004D01*
X124035Y186625D02*
X126004D01*
X124035Y186306D02*
X126004D01*
X124035Y185987D02*
X126004D01*
X124035Y185668D02*
X126004D01*
X124035Y185349D02*
X126004D01*
X124035Y185030D02*
X126004D01*
X124035Y184711D02*
X126004D01*
X124035Y184392D02*
X126004D01*
X124035Y184074D02*
X126004D01*
X124035Y183755D02*
X126004D01*
X124035Y183436D02*
X126004D01*
X124035Y183117D02*
X126004D01*
X124035Y182798D02*
X126004D01*
X124035Y182479D02*
X126004D01*
X113957Y136239D02*
X125968D01*
X114513Y110408D02*
X125704D01*
X113957Y136558D02*
X125650D01*
X114463Y110727D02*
X125386D01*
X113957Y136877D02*
X125331D01*
X114391Y111046D02*
X125068D01*
X113957Y137196D02*
X125012D01*
X114294Y111365D02*
X124750D01*
X113957Y137514D02*
X124693D01*
X114172Y111684D02*
X124432D01*
X113957Y137833D02*
X124374D01*
X114022Y112003D02*
X124114D01*
X113957Y138152D02*
X124055D01*
X113841Y112322D02*
X123796D01*
X113957Y138471D02*
X123736D01*
X111909Y214688D02*
X123682D01*
X113625Y112640D02*
X123478D01*
X113957Y138790D02*
X123417D01*
X111909Y214369D02*
X123264D01*
X113367Y112959D02*
X123160D01*
X113957Y139109D02*
X123098D01*
X111909Y214050D02*
X122995D01*
X112469Y211499D02*
X122879D01*
X112151Y211818D02*
X122874D01*
X113057Y113278D02*
X122842D01*
X111909Y213731D02*
X122814D01*
X113957Y139428D02*
X122780D01*
X111909Y212137D02*
X122735D01*
X111909Y213412D02*
X122697D01*
X111909Y212455D02*
X122652D01*
X111909Y213093D02*
X122634D01*
X111909Y212774D02*
X122619D01*
X112788Y211180D02*
X122560D01*
X112678Y113597D02*
X122524D01*
X113957Y139747D02*
X122461D01*
X113107Y210861D02*
X122241D01*
X112196Y113916D02*
X122206D01*
X113957Y140066D02*
X122142D01*
X113426Y210542D02*
X121923D01*
X111528Y114235D02*
X121888D01*
X113957Y140385D02*
X121823D01*
X113714Y210223D02*
X121604D01*
X101161Y114554D02*
X121570D01*
X113957Y140703D02*
X121504D01*
X113878Y209904D02*
X121285D01*
X101161Y114873D02*
X121252D01*
X113957Y141022D02*
X121185D01*
X113950Y209585D02*
X120971D01*
X101161Y115192D02*
X120934D01*
X113957Y141341D02*
X120889D01*
X113957Y209266D02*
X120747D01*
X113957Y141660D02*
X120696D01*
X101161Y115511D02*
X120615D01*
X113957Y208948D02*
X120611D01*
X113957Y141979D02*
X120583D01*
X113957Y208629D02*
X120543D01*
X113957Y142298D02*
X120535D01*
X113957Y208310D02*
X120531D01*
X113957Y207991D02*
X120531D01*
X113957Y207672D02*
X120531D01*
X113957Y207353D02*
X120531D01*
X113957Y207034D02*
X120531D01*
X113957Y206715D02*
X120531D01*
X113957Y206396D02*
X120531D01*
X113957Y206077D02*
X120531D01*
X113957Y205759D02*
X120531D01*
X113957Y205440D02*
X120531D01*
X113957Y205121D02*
X120531D01*
X113957Y204802D02*
X120531D01*
X113957Y204483D02*
X120531D01*
X113957Y204164D02*
X120531D01*
X119249Y203845D02*
X120531D01*
X119684Y203526D02*
X120531D01*
X119961Y203207D02*
X120531D01*
X120147Y202888D02*
X120531D01*
X120157Y170361D02*
X120531D01*
X119975Y170042D02*
X120531D01*
X119706Y169723D02*
X120531D01*
X119286Y169404D02*
X120531D01*
X113957Y169085D02*
X120531D01*
X113957Y168766D02*
X120531D01*
X113957Y168448D02*
X120531D01*
X113957Y168129D02*
X120531D01*
X113957Y167810D02*
X120531D01*
X113957Y167491D02*
X120531D01*
X113957Y167172D02*
X120531D01*
X113957Y166853D02*
X120531D01*
X113957Y166534D02*
X120531D01*
X113957Y166215D02*
X120531D01*
X113957Y165896D02*
X120531D01*
X113957Y165577D02*
X120531D01*
X113957Y165259D02*
X120531D01*
X113957Y164940D02*
X120531D01*
X113957Y164621D02*
X120531D01*
X113957Y164302D02*
X120531D01*
X113957Y163983D02*
X120531D01*
X113957Y163664D02*
X120531D01*
X113957Y163345D02*
X120531D01*
X113957Y163026D02*
X120531D01*
X113957Y162707D02*
X120531D01*
X113957Y162388D02*
X120531D01*
X113957Y162070D02*
X120531D01*
X113957Y161751D02*
X120531D01*
X113957Y161432D02*
X120531D01*
X113957Y161113D02*
X120531D01*
X113957Y160794D02*
X120531D01*
X113957Y160475D02*
X120531D01*
X113957Y160156D02*
X120531D01*
X113957Y159837D02*
X120531D01*
X113957Y159518D02*
X120531D01*
X113957Y159199D02*
X120531D01*
X113957Y158881D02*
X120531D01*
X113957Y158562D02*
X120531D01*
X113957Y158243D02*
X120531D01*
X113957Y157924D02*
X120531D01*
X113957Y157605D02*
X120531D01*
X113957Y157286D02*
X120531D01*
X113957Y156967D02*
X120531D01*
X113957Y156648D02*
X120531D01*
X113957Y156329D02*
X120531D01*
X113957Y156011D02*
X120531D01*
X113957Y155692D02*
X120531D01*
X113957Y155373D02*
X120531D01*
X113957Y155054D02*
X120531D01*
X113957Y154735D02*
X120531D01*
X113957Y154416D02*
X120531D01*
X113957Y154097D02*
X120531D01*
X113957Y153778D02*
X120531D01*
X113957Y153459D02*
X120531D01*
X113957Y153140D02*
X120531D01*
X113957Y152822D02*
X120531D01*
X113957Y152503D02*
X120531D01*
X113957Y152184D02*
X120531D01*
X113957Y151865D02*
X120531D01*
X113957Y151546D02*
X120531D01*
X113957Y151227D02*
X120531D01*
X113957Y150908D02*
X120531D01*
X113957Y150589D02*
X120531D01*
X113957Y150270D02*
X120531D01*
X113957Y149951D02*
X120531D01*
X113957Y149633D02*
X120531D01*
X113957Y149314D02*
X120531D01*
X113957Y148995D02*
X120531D01*
X113957Y148676D02*
X120531D01*
X113957Y148357D02*
X120531D01*
X113957Y148038D02*
X120531D01*
X113957Y147719D02*
X120531D01*
X113957Y147400D02*
X120531D01*
X113957Y147081D02*
X120531D01*
X113957Y146762D02*
X120531D01*
X113957Y146444D02*
X120531D01*
X113957Y146125D02*
X120531D01*
X113957Y145806D02*
X120531D01*
X113957Y145487D02*
X120531D01*
X113957Y145168D02*
X120531D01*
X113957Y144849D02*
X120531D01*
X113957Y144530D02*
X120531D01*
X113957Y144211D02*
X120531D01*
X113957Y143892D02*
X120531D01*
X113957Y143574D02*
X120531D01*
X113957Y143255D02*
X120531D01*
X113957Y142936D02*
X120531D01*
X113957Y142617D02*
X120531D01*
X101161Y115829D02*
X120297D01*
X101161Y116148D02*
X119979D01*
X101161Y116467D02*
X119661D01*
X101161Y116786D02*
X119343D01*
X101161Y117105D02*
X119025D01*
X101161Y117424D02*
X118707D01*
X101161Y117743D02*
X118389D01*
X101161Y118062D02*
X118071D01*
X101161Y251999D02*
X117832D01*
X101161Y118381D02*
X117753D01*
X101161Y118699D02*
X117435D01*
X101161Y251680D02*
X117203D01*
X101161Y119018D02*
X117117D01*
X101161Y251361D02*
X116881D01*
X111909Y221066D02*
X116874D01*
X101161Y119337D02*
X116799D01*
X101161Y251042D02*
X116562D01*
X111909Y216920D02*
X116526D01*
X101161Y119656D02*
X116481D01*
X101161Y250723D02*
X116243D01*
X101161Y119975D02*
X116163D01*
X111909Y220747D02*
X116053D01*
X111909Y217239D02*
X115928D01*
X101161Y250404D02*
X115924D01*
X101161Y120294D02*
X115845D01*
X111909Y220428D02*
X115670D01*
X101161Y250085D02*
X115605D01*
X111909Y217558D02*
X115591D01*
X101161Y120613D02*
X115527D01*
X111909Y220109D02*
X115419D01*
X111909Y217877D02*
X115366D01*
X101161Y249766D02*
X115286D01*
X111909Y219790D02*
X115250D01*
X111909Y218196D02*
X115215D01*
X101161Y120932D02*
X115209D01*
X111909Y219471D02*
X115143D01*
X111909Y218514D02*
X115123D01*
X111909Y219152D02*
X115088D01*
X111909Y218833D02*
X115082D01*
X101161Y249448D02*
X114968D01*
X101161Y121251D02*
X114891D01*
X113957Y203845D02*
X114806D01*
X113957Y169404D02*
X114769D01*
X101161Y249129D02*
X114649D01*
X101161Y121570D02*
X114573D01*
X113957Y203526D02*
X114371D01*
X113960Y169723D02*
X114349D01*
X101161Y248810D02*
X114330D01*
X101161Y121888D02*
X114255D01*
X101161Y248491D02*
X114011D01*
X101161Y122207D02*
X113936D01*
X101161Y248172D02*
X113692D01*
X101161Y122526D02*
X113618D01*
X101161Y247853D02*
X113373D01*
X101161Y122845D02*
X113300D01*
X101161Y247534D02*
X113054D01*
X101161Y123164D02*
X112982D01*
X101161Y247215D02*
X112735D01*
X101161Y123483D02*
X112664D01*
X101161Y246896D02*
X112416D01*
X101161Y123802D02*
X112346D01*
X101161Y262841D02*
X112184D01*
X101161Y246577D02*
X112097D01*
X101161Y259014D02*
X112096D01*
X101161Y124121D02*
X112028D01*
X101161Y246259D02*
X111779D01*
X101161Y124440D02*
X111710D01*
X101161Y262522D02*
X111700D01*
X101161Y259333D02*
X111650D01*
X101161Y245940D02*
X111460D01*
X101161Y124759D02*
X111443D01*
X101161Y262203D02*
X111402D01*
X101161Y259652D02*
X111369D01*
X101161Y125077D02*
X111299D01*
X101161Y125396D02*
X111242D01*
X101161Y208629D02*
X111240D01*
X101161Y208310D02*
X111240D01*
X101161Y207991D02*
X111240D01*
X101161Y207672D02*
X111240D01*
X101161Y207353D02*
X111240D01*
X101161Y207034D02*
X111240D01*
X101161Y206715D02*
X111240D01*
X101161Y206396D02*
X111240D01*
X101161Y206077D02*
X111240D01*
X101161Y205759D02*
X111240D01*
X101161Y205440D02*
X111240D01*
X101161Y205121D02*
X111240D01*
X101161Y204802D02*
X111240D01*
X101161Y204483D02*
X111240D01*
X101161Y204164D02*
X111240D01*
X101161Y203845D02*
X111240D01*
X101161Y203526D02*
X111240D01*
X101161Y203207D02*
X111240D01*
X101161Y202888D02*
X111240D01*
X101161Y202570D02*
X111240D01*
X101161Y202251D02*
X111240D01*
X101161Y201932D02*
X111240D01*
X101161Y201613D02*
X111240D01*
X101161Y201294D02*
X111240D01*
X101161Y200975D02*
X111240D01*
X109663Y200656D02*
X111240D01*
X110321Y200337D02*
X111240D01*
X110757Y200018D02*
X111240D01*
X110781Y173231D02*
X111240D01*
X110355Y172912D02*
X111240D01*
X109719Y172593D02*
X111240D01*
X101161Y172274D02*
X111240D01*
X101161Y171955D02*
X111240D01*
X101161Y171637D02*
X111240D01*
X101161Y171318D02*
X111240D01*
X101161Y170999D02*
X111240D01*
X101161Y170680D02*
X111240D01*
X101161Y170361D02*
X111240D01*
X101161Y170042D02*
X111240D01*
X101161Y169723D02*
X111240D01*
X101161Y169404D02*
X111240D01*
X101161Y169085D02*
X111240D01*
X101161Y168766D02*
X111240D01*
X101161Y168448D02*
X111240D01*
X101161Y168129D02*
X111240D01*
X101161Y167810D02*
X111240D01*
X101161Y167491D02*
X111240D01*
X101161Y167172D02*
X111240D01*
X101161Y166853D02*
X111240D01*
X101161Y166534D02*
X111240D01*
X101161Y166215D02*
X111240D01*
X101161Y165896D02*
X111240D01*
X101161Y165577D02*
X111240D01*
X101161Y165259D02*
X111240D01*
X101161Y164940D02*
X111240D01*
X101161Y164621D02*
X111240D01*
X101161Y164302D02*
X111240D01*
X101161Y163983D02*
X111240D01*
X101161Y163664D02*
X111240D01*
X101161Y163345D02*
X111240D01*
X101161Y163026D02*
X111240D01*
X101161Y162707D02*
X111240D01*
X101161Y162388D02*
X111240D01*
X101161Y162070D02*
X111240D01*
X101161Y161751D02*
X111240D01*
X101161Y161432D02*
X111240D01*
X101161Y161113D02*
X111240D01*
X101161Y160794D02*
X111240D01*
X101161Y160475D02*
X111240D01*
X101161Y160156D02*
X111240D01*
X101161Y159837D02*
X111240D01*
X101161Y159518D02*
X111240D01*
X101161Y159199D02*
X111240D01*
X101161Y158881D02*
X111240D01*
X101161Y158562D02*
X111240D01*
X101161Y158243D02*
X111240D01*
X101161Y157924D02*
X111240D01*
X101161Y157605D02*
X111240D01*
X101161Y157286D02*
X111240D01*
X101161Y156967D02*
X111240D01*
X101161Y156648D02*
X111240D01*
X101161Y156329D02*
X111240D01*
X101161Y156011D02*
X111240D01*
X101161Y155692D02*
X111240D01*
X101161Y155373D02*
X111240D01*
X101161Y155054D02*
X111240D01*
X101161Y154735D02*
X111240D01*
X101161Y154416D02*
X111240D01*
X101161Y154097D02*
X111240D01*
X101161Y153778D02*
X111240D01*
X101161Y153459D02*
X111240D01*
X101161Y153140D02*
X111240D01*
X101161Y152822D02*
X111240D01*
X101161Y152503D02*
X111240D01*
X101161Y152184D02*
X111240D01*
X101161Y151865D02*
X111240D01*
X101161Y151546D02*
X111240D01*
X101161Y151227D02*
X111240D01*
X101161Y150908D02*
X111240D01*
X101161Y150589D02*
X111240D01*
X101161Y150270D02*
X111240D01*
X101161Y149951D02*
X111240D01*
X101161Y149633D02*
X111240D01*
X101161Y149314D02*
X111240D01*
X101161Y148995D02*
X111240D01*
X101161Y148676D02*
X111240D01*
X101161Y148357D02*
X111240D01*
X101161Y148038D02*
X111240D01*
X101161Y147719D02*
X111240D01*
X101161Y147400D02*
X111240D01*
X101161Y147081D02*
X111240D01*
X101161Y146762D02*
X111240D01*
X101161Y146444D02*
X111240D01*
X101161Y146125D02*
X111240D01*
X101161Y145806D02*
X111240D01*
X101161Y145487D02*
X111240D01*
X101161Y145168D02*
X111240D01*
X101161Y144849D02*
X111240D01*
X101161Y144530D02*
X111240D01*
X101161Y144211D02*
X111240D01*
X101161Y143892D02*
X111240D01*
X101161Y143574D02*
X111240D01*
X101161Y143255D02*
X111240D01*
X101161Y142936D02*
X111240D01*
X101161Y142617D02*
X111240D01*
X101161Y142298D02*
X111240D01*
X101161Y141979D02*
X111240D01*
X101161Y141660D02*
X111240D01*
X101161Y141341D02*
X111240D01*
X101161Y141022D02*
X111240D01*
X101161Y140703D02*
X111240D01*
X101161Y140385D02*
X111240D01*
X101161Y140066D02*
X111240D01*
X101161Y139747D02*
X111240D01*
X101161Y139428D02*
X111240D01*
X101161Y139109D02*
X111240D01*
X101161Y138790D02*
X111240D01*
X101161Y138471D02*
X111240D01*
X101161Y138152D02*
X111240D01*
X101161Y137833D02*
X111240D01*
X101161Y137514D02*
X111240D01*
X101161Y137196D02*
X111240D01*
X101161Y136877D02*
X111240D01*
X101161Y136558D02*
X111240D01*
X101161Y136239D02*
X111240D01*
X101161Y135920D02*
X111240D01*
X101161Y135601D02*
X111240D01*
X101161Y135282D02*
X111240D01*
X101161Y134963D02*
X111240D01*
X101161Y134644D02*
X111240D01*
X101161Y134325D02*
X111240D01*
X101161Y134007D02*
X111240D01*
X101161Y133688D02*
X111240D01*
X101161Y133369D02*
X111240D01*
X101161Y133050D02*
X111240D01*
X101161Y132731D02*
X111240D01*
X101161Y132412D02*
X111240D01*
X101161Y132093D02*
X111240D01*
X101161Y131774D02*
X111240D01*
X101161Y131455D02*
X111240D01*
X101161Y131137D02*
X111240D01*
X101161Y130818D02*
X111240D01*
X101161Y130499D02*
X111240D01*
X101161Y130180D02*
X111240D01*
X101161Y129861D02*
X111240D01*
X101161Y129542D02*
X111240D01*
X101161Y129223D02*
X111240D01*
X101161Y128904D02*
X111240D01*
X101161Y128585D02*
X111240D01*
X101161Y128266D02*
X111240D01*
X101161Y127948D02*
X111240D01*
X101161Y127629D02*
X111240D01*
X101161Y127310D02*
X111240D01*
X101161Y126991D02*
X111240D01*
X101161Y126672D02*
X111240D01*
X101161Y126353D02*
X111240D01*
X101161Y126034D02*
X111240D01*
X101161Y125715D02*
X111240D01*
X101161Y261885D02*
X111201D01*
X101161Y208948D02*
X111179D01*
X101161Y259971D02*
X111179D01*
X101161Y245621D02*
X111141D01*
X101161Y261566D02*
X111069D01*
X101161Y260290D02*
X111055D01*
X101161Y261247D02*
X110992D01*
X101161Y260609D02*
X110985D01*
X101161Y260928D02*
X110965D01*
X101161Y209266D02*
X110860D01*
X101161Y245302D02*
X110822D01*
X101161Y209585D02*
X110541D01*
X101161Y244983D02*
X110503D01*
X101161Y209904D02*
X110222D01*
X101161Y244664D02*
X110184D01*
X101161Y210223D02*
X109903D01*
X101161Y244345D02*
X109865D01*
X101161Y210542D02*
X109584D01*
X101161Y244026D02*
X109548D01*
X101161Y315778D02*
X109528D01*
X101161Y210861D02*
X109351D01*
X101161Y243707D02*
X109331D01*
X101161Y211180D02*
X109230D01*
X101161Y243388D02*
X109222D01*
X101161Y243070D02*
X109193D01*
X101161Y242751D02*
X109193D01*
X101161Y242432D02*
X109193D01*
X101161Y242113D02*
X109193D01*
X101161Y241794D02*
X109193D01*
X101161Y241475D02*
X109193D01*
X101161Y241156D02*
X109193D01*
X101161Y240837D02*
X109193D01*
X101161Y240518D02*
X109193D01*
X101161Y240199D02*
X109193D01*
X101161Y239881D02*
X109193D01*
X101161Y239562D02*
X109193D01*
X101161Y239243D02*
X109193D01*
X101161Y238924D02*
X109193D01*
X101161Y238605D02*
X109193D01*
X101161Y238286D02*
X109193D01*
X101161Y237967D02*
X109193D01*
X101161Y237648D02*
X109193D01*
X101161Y237329D02*
X109193D01*
X101161Y237011D02*
X109193D01*
X101161Y236692D02*
X109193D01*
X101161Y236373D02*
X109193D01*
X101161Y236054D02*
X109193D01*
X101161Y235735D02*
X109193D01*
X101161Y235416D02*
X109193D01*
X101161Y235097D02*
X109193D01*
X101161Y234778D02*
X109193D01*
X101161Y234459D02*
X109193D01*
X101161Y234140D02*
X109193D01*
X101161Y233822D02*
X109193D01*
X101161Y233503D02*
X109193D01*
X101161Y233184D02*
X109193D01*
X101161Y232865D02*
X109193D01*
X101161Y232546D02*
X109193D01*
X101161Y232227D02*
X109193D01*
X101161Y231908D02*
X109193D01*
X101161Y231589D02*
X109193D01*
X101161Y231270D02*
X109193D01*
X101161Y230951D02*
X109193D01*
X101161Y230633D02*
X109193D01*
X101161Y230314D02*
X109193D01*
X101161Y229995D02*
X109193D01*
X101161Y229676D02*
X109193D01*
X101161Y229357D02*
X109193D01*
X101161Y229038D02*
X109193D01*
X101161Y228719D02*
X109193D01*
X101161Y228400D02*
X109193D01*
X101161Y228081D02*
X109193D01*
X101161Y227762D02*
X109193D01*
X101161Y227444D02*
X109193D01*
X101161Y227125D02*
X109193D01*
X101161Y226806D02*
X109193D01*
X101161Y226487D02*
X109193D01*
X101161Y226168D02*
X109193D01*
X101161Y225849D02*
X109193D01*
X101161Y225530D02*
X109193D01*
X101161Y225211D02*
X109193D01*
X101161Y224892D02*
X109193D01*
X101161Y224574D02*
X109193D01*
X101161Y224255D02*
X109193D01*
X101161Y223936D02*
X109193D01*
X101161Y223617D02*
X109193D01*
X101161Y223298D02*
X109193D01*
X101161Y222979D02*
X109193D01*
X101161Y222660D02*
X109193D01*
X101161Y222341D02*
X109193D01*
X101161Y222022D02*
X109193D01*
X101161Y221703D02*
X109193D01*
X101161Y221385D02*
X109193D01*
X101161Y221066D02*
X109193D01*
X101161Y220747D02*
X109193D01*
X101161Y220428D02*
X109193D01*
X101161Y220109D02*
X109193D01*
X101161Y219790D02*
X109193D01*
X101161Y219471D02*
X109193D01*
X101161Y219152D02*
X109193D01*
X101161Y218833D02*
X109193D01*
X101161Y218514D02*
X109193D01*
X101161Y218196D02*
X109193D01*
X101161Y217877D02*
X109193D01*
X101161Y217558D02*
X109193D01*
X101161Y217239D02*
X109193D01*
X101161Y216920D02*
X109193D01*
X101161Y216601D02*
X109193D01*
X101161Y216282D02*
X109193D01*
X101161Y215963D02*
X109193D01*
X101161Y215644D02*
X109193D01*
X101161Y215325D02*
X109193D01*
X101161Y215007D02*
X109193D01*
X101161Y214688D02*
X109193D01*
X101161Y214369D02*
X109193D01*
X101161Y214050D02*
X109193D01*
X101161Y213731D02*
X109193D01*
X101161Y213412D02*
X109193D01*
X101161Y213093D02*
X109193D01*
X101161Y212774D02*
X109193D01*
X101161Y212455D02*
X109193D01*
X101161Y212137D02*
X109193D01*
X101161Y211818D02*
X109193D01*
X101161Y211499D02*
X109193D01*
X101161Y325026D02*
X108660D01*
X101161Y105306D02*
X108596D01*
X101161Y114235D02*
X108157D01*
X101161Y316097D02*
X108113D01*
X101161Y324707D02*
X107793D01*
X101161Y105625D02*
X107758D01*
X101161Y113916D02*
X107489D01*
X101161Y316416D02*
X107459D01*
X101161Y324388D02*
X107235D01*
X101161Y105944D02*
X107209D01*
X101161Y113597D02*
X107007D01*
X101161Y316735D02*
X106985D01*
X101161Y324070D02*
X106810D01*
X101161Y106262D02*
X106790D01*
X101161Y113278D02*
X106628D01*
X101161Y317054D02*
X106610D01*
X101161Y323751D02*
X106468D01*
X101161Y106581D02*
X106451D01*
X101161Y112959D02*
X106318D01*
X101161Y317373D02*
X106303D01*
X101161Y323432D02*
X106185D01*
X101161Y106900D02*
X106171D01*
X101161Y112640D02*
X106060D01*
X101161Y317692D02*
X106048D01*
X101161Y323113D02*
X105949D01*
X101161Y107219D02*
X105937D01*
X101161Y112322D02*
X105844D01*
X101161Y318011D02*
X105833D01*
X101161Y322794D02*
X105750D01*
X101161Y107538D02*
X105741D01*
X101161Y112003D02*
X105663D01*
X101161Y318329D02*
X105654D01*
X101161Y322475D02*
X105585D01*
X101161Y107857D02*
X105577D01*
X101161Y111684D02*
X105513D01*
X101161Y318648D02*
X105506D01*
X101161Y322156D02*
X105449D01*
X101161Y108176D02*
X105443D01*
X101161Y111365D02*
X105391D01*
X101161Y318967D02*
X105385D01*
X101161Y321837D02*
X105340D01*
X101161Y108495D02*
X105335D01*
X101161Y111046D02*
X105294D01*
X101161Y319286D02*
X105290D01*
X101161Y321518D02*
X105256D01*
X101161Y108814D02*
X105252D01*
X101161Y110727D02*
X105222D01*
X101161Y319605D02*
X105218D01*
X101161Y321199D02*
X105194D01*
X101161Y109133D02*
X105192D01*
X101161Y110408D02*
X105172D01*
X101161Y319924D02*
X105170D01*
X101161Y320881D02*
X105156D01*
X101161Y109451D02*
X105154D01*
X101161Y110089D02*
X105144D01*
X101161Y320243D02*
X105143D01*
X101161Y320562D02*
X105139D01*
X101161Y109770D02*
X105138D01*
X101161Y200656D02*
X103723D01*
X101161Y172593D02*
X103666D01*
X101161Y200337D02*
X103065D01*
X101161Y172912D02*
X103031D01*
X101161Y200018D02*
X102629D01*
X101161Y173231D02*
X102604D01*
X101161Y199699D02*
X102302D01*
X101161Y173550D02*
X102283D01*
X101161Y199381D02*
X102047D01*
X101161Y173869D02*
X102032D01*
X101161Y199062D02*
X101845D01*
X101161Y174188D02*
X101834D01*
X101161Y198743D02*
X101688D01*
X101161Y174507D02*
X101679D01*
X101161Y198424D02*
X101568D01*
X101161Y174825D02*
X101561D01*
X101275Y198105D02*
X101403D01*
X120017Y193727D02*
X120531D01*
X119768Y193408D02*
X120531D01*
X119388Y193089D02*
X120531D01*
X118590Y192770D02*
X120531D01*
X113957Y192452D02*
X120531D01*
X113957Y192133D02*
X120531D01*
X113957Y191814D02*
X120531D01*
X113957Y191495D02*
X120531D01*
X113957Y191176D02*
X120531D01*
X113957Y190857D02*
X120531D01*
X113957Y190538D02*
X120531D01*
X113957Y190219D02*
X120531D01*
X113957Y189900D02*
X120531D01*
X113957Y189581D02*
X120531D01*
X113957Y189263D02*
X120531D01*
X113957Y188944D02*
X120531D01*
X113957Y188625D02*
X120531D01*
X113957Y188306D02*
X120531D01*
X113957Y187987D02*
X120531D01*
X113957Y187668D02*
X120531D01*
X113957Y187349D02*
X120531D01*
X113957Y187030D02*
X120531D01*
X113957Y186711D02*
X120531D01*
X113957Y186392D02*
X120531D01*
X113957Y186074D02*
X120531D01*
X113957Y185755D02*
X120531D01*
X113957Y185436D02*
X120531D01*
X113957Y185117D02*
X120531D01*
X113957Y184798D02*
X120531D01*
X113957Y184479D02*
X120531D01*
X113957Y184160D02*
X120531D01*
X113957Y183841D02*
X120531D01*
X113957Y183522D02*
X120531D01*
X113957Y183204D02*
X120531D01*
X113957Y182885D02*
X120531D01*
X113957Y182566D02*
X120531D01*
X113957Y182247D02*
X120531D01*
X113957Y181928D02*
X120531D01*
X113957Y181609D02*
X120531D01*
X113957Y181290D02*
X120531D01*
X113957Y180971D02*
X120531D01*
X113957Y180652D02*
X120531D01*
X119019Y180333D02*
X120531D01*
X119558Y180015D02*
X120531D01*
X119877Y179696D02*
X120531D01*
X120091Y179377D02*
X120531D01*
X120185Y194046D02*
X120523D01*
X113957Y192770D02*
X115465D01*
X113957Y180333D02*
X115037D01*
X113957Y193089D02*
X114667D01*
X113957Y180015D02*
X114497D01*
X113985Y193408D02*
X114287D01*
X110538Y194493D02*
X111240D01*
X110007Y194174D02*
X111240D01*
X108971Y193855D02*
X111240D01*
X101161Y193537D02*
X111240D01*
X101161Y193218D02*
X111240D01*
X101161Y192899D02*
X111240D01*
X101161Y192580D02*
X111240D01*
X101161Y192261D02*
X111240D01*
X101161Y191942D02*
X111240D01*
X101161Y191623D02*
X111240D01*
X101161Y191304D02*
X111240D01*
X101161Y190985D02*
X111240D01*
X101161Y190667D02*
X111240D01*
X101161Y190348D02*
X111240D01*
X101161Y190029D02*
X111240D01*
X101161Y189710D02*
X111240D01*
X101161Y189391D02*
X111240D01*
X101161Y189072D02*
X111240D01*
X101161Y188753D02*
X111240D01*
X101161Y188434D02*
X111240D01*
X101161Y188115D02*
X111240D01*
X101161Y187796D02*
X111240D01*
X101161Y187478D02*
X111240D01*
X101161Y187159D02*
X111240D01*
X101161Y186840D02*
X111240D01*
X101161Y186521D02*
X111240D01*
X101161Y186202D02*
X111240D01*
X101161Y185883D02*
X111240D01*
X101161Y185564D02*
X111240D01*
X101161Y185245D02*
X111240D01*
X101161Y184926D02*
X111240D01*
X101161Y184607D02*
X111240D01*
X101161Y184289D02*
X111240D01*
X101161Y183970D02*
X111240D01*
X101161Y183651D02*
X111240D01*
X101161Y183332D02*
X111240D01*
X101161Y183013D02*
X111240D01*
X101161Y182694D02*
X111240D01*
X101161Y182375D02*
X111240D01*
X101161Y182056D02*
X111240D01*
X101161Y181737D02*
X111240D01*
X101161Y181418D02*
X111240D01*
X101161Y181100D02*
X111240D01*
X101161Y180781D02*
X111240D01*
X101161Y180462D02*
X111240D01*
X101161Y180143D02*
X111240D01*
X101161Y179824D02*
X111240D01*
X101161Y179505D02*
X111240D01*
X109699Y179186D02*
X111240D01*
X110343Y178867D02*
X111240D01*
X110773Y178548D02*
X111240D01*
X110917Y194812D02*
X111206D01*
X101161Y193855D02*
X104415D01*
X101161Y179186D02*
X103687D01*
X101161Y194174D02*
X103379D01*
X101161Y178867D02*
X103043D01*
X101161Y194493D02*
X102848D01*
X101161Y178548D02*
X102613D01*
X101161Y194812D02*
X102469D01*
X101161Y178229D02*
X102290D01*
X101161Y195131D02*
X102178D01*
X101161Y177911D02*
X102037D01*
X101161Y195450D02*
X101949D01*
X101161Y177592D02*
X101838D01*
X101161Y195769D02*
X101769D01*
X101161Y177273D02*
X101682D01*
X101161Y196088D02*
X101629D01*
X101161Y176954D02*
X101563D01*
X101161Y196407D02*
X101524D01*
G54D26*
X172835Y114980D02*
Y115945D01*
X182677Y114980D02*
Y115945D01*
X133661Y114980D02*
Y115945D01*
X130925Y117717D02*
X131890D01*
X133661Y120453D02*
Y119488D01*
X146752Y163996D02*
Y164961D01*
X149390Y166339D02*
X148425D01*
X146752Y168681D02*
Y167717D01*
X144114Y166339D02*
X145079D01*
X131988Y163996D02*
Y164961D01*
X134626Y166339D02*
X133661D01*
X131988Y168681D02*
Y167717D01*
X129350Y166339D02*
X130315D01*
X117028Y180492D02*
Y179528D01*
X106693Y179409D02*
Y178445D01*
Y172362D02*
Y173327D01*
Y200866D02*
Y199902D01*
Y193819D02*
Y194783D01*
X117028Y192736D02*
Y193701D01*
X131988Y228917D02*
Y227953D01*
X129350Y226575D02*
X130315D01*
X131988Y224232D02*
Y225197D01*
X134626Y226575D02*
X133661D01*
X146752Y228917D02*
Y227953D01*
X144114Y226575D02*
X145079D01*
X146752Y224232D02*
Y225197D01*
X149390Y226575D02*
X148425D01*
G74*
X0Y0D02*
M02*
