*
*
G04 PADS 9.5 Build Number: 522968 generated Gerber (RS-274-X) file*
G04 PC Version=2.1*
*
%IN "Plasma_Gen_Main Board_P"*%
*
%MOIN*%
*
%FSLAX35Y35*%
*
*
*
*
G04 PC Standard Apertures*
*
*
G04 Thermal Relief Aperture macro.*
%AMTER*
1,1,$1,0,0*
1,0,$1-$2,0,0*
21,0,$3,$4,0,0,45*
21,0,$3,$4,0,0,135*
%
*
*
G04 Annular Aperture macro.*
%AMANN*
1,1,$1,0,0*
1,0,$2,0,0*
%
*
*
G04 Odd Aperture macro.*
%AMODD*
1,1,$1,0,0*
1,0,$1-0.005,0,0*
%
*
*
G04 PC Custom Aperture Macros*
*
*
*
*
*
*
G04 PC Aperture Table*
*
%ADD010C,0.001*%
%ADD011R,0.01969X0.01969*%
%ADD014O,0.08661X0.05118*%
%ADD015C,0.03543*%
%ADD017R,0.0315X0.0315*%
%ADD018C,0.07874*%
%ADD019C,0.07087*%
%ADD020C,0.00394*%
%ADD021O,0.04724X0.05906*%
%ADD022C,0.01575*%
%ADD023C,0.00787*%
%ADD024C,0.02362*%
%ADD026C,0.01181*%
%ADD027R,0.03937X0.02362*%
%ADD028R,0.02362X0.03937*%
%ADD029R,0.01181X0.05906*%
%ADD030R,0.05906X0.01181*%
%ADD031R,0.02953X0.05433*%
%ADD032R,0.04331X0.09134*%
%ADD033R,0.07874X0.0315*%
%ADD034R,0.02028X0.2*%
%ADD035R,0.05315X0.01575*%
%ADD036R,0.07874X0.06004*%
%ADD037R,0.08858X0.04724*%
%ADD038R,0.08504X0.08898*%
%ADD039R,0.03543X0.01575*%
%ADD040R,0.05906X0.07874*%
%ADD041R,0.07874X0.08661*%
%ADD042R,0.04724X0.07087*%
%ADD043R,0.01772X0.02323*%
*
*
*
*
G04 PC Circuitry*
G04 Layer Name Plasma_Gen_Main Board_P - circuitry*
%LPD*%
*
*
G04 PC Custom Flashes*
G04 Layer Name Plasma_Gen_Main Board_P - flashes*
%LPD*%
*
*
G04 PC Circuitry*
G04 Layer Name Plasma_Gen_Main Board_P - circuitry*
%LPD*%
*
G54D10*
G54D11*
G01X181890Y144488D03*
Y147638D03*
X124803Y216535D03*
X121654D03*
X196063Y225118D03*
X199213D03*
Y240945D03*
Y244094D03*
X148228Y272835D03*
Y275984D03*
Y206811D03*
Y203661D03*
X128661Y254646D03*
Y251496D03*
X171850Y272953D03*
Y276102D03*
X196063Y258268D03*
X199213D03*
X123961Y291425D03*
Y288276D03*
X122047Y144094D03*
Y140945D03*
X125984Y144094D03*
Y140945D03*
X196063Y251181D03*
X199213D03*
X202362Y240945D03*
Y244094D03*
X178346Y147638D03*
Y144488D03*
X174803D03*
Y147638D03*
X197559Y236890D03*
X200709D03*
X197559Y233346D03*
X200709D03*
X117236Y211898D03*
Y215047D03*
X133583Y176378D03*
X136732D03*
X131102Y184055D03*
X134252D03*
X131102Y187205D03*
X134252D03*
X190945Y209055D03*
Y212205D03*
X173622Y197441D03*
Y194291D03*
X133583Y173228D03*
X136732D03*
X134252Y194094D03*
X131102D03*
Y190945D03*
X134252D03*
Y159449D03*
X137402D03*
X196063Y254331D03*
X199213D03*
X196063Y248031D03*
X199213D03*
X168307Y154134D03*
X171457D03*
X162362Y203543D03*
Y206693D03*
X157638Y203543D03*
Y206693D03*
X180315Y272835D03*
Y275984D03*
X183465Y272835D03*
Y275984D03*
X179319Y206685D03*
X176169D03*
X144685Y203661D03*
Y206811D03*
X126496Y208622D03*
X129646D03*
Y238780D03*
X126496D03*
X129567Y242913D03*
X126417D03*
X152559Y133425D03*
X149409D03*
X132622Y291386D03*
X129472D03*
X142913Y301969D03*
Y305118D03*
G54D14*
X106693Y175886D03*
Y197343D03*
G54D15*
X133661Y117717D03*
X138583D03*
X143504D03*
X167913D03*
X172835D03*
X177756D03*
X182677D03*
X187598D03*
X192520D03*
X197441D03*
G54D17*
X143465Y133425D03*
X137165D03*
X164173Y161614D03*
Y167913D03*
X197244Y148819D03*
Y155118D03*
X121220Y254685D03*
X114921D03*
X196811Y220236D03*
X203110D03*
X122047Y157874D03*
Y151575D03*
G54D18*
X109843Y109843D03*
X216142D03*
X109843Y320472D03*
X196457D03*
G54D19*
X166929Y326378D03*
Y304724D03*
G54D20*
X202087Y148150D02*
Y154921D01*
X209685*
Y148150*
X202087*
X202165D02*
Y154921D01*
X202362Y148150D02*
Y154921D01*
X202559Y148150D02*
Y154921D01*
X202756Y148150D02*
Y154921D01*
X202953Y148150D02*
Y154921D01*
X203150Y148150D02*
Y154921D01*
X203346Y148150D02*
Y154921D01*
X203543Y148150D02*
Y154921D01*
X203740Y148150D02*
Y154921D01*
X203937Y148150D02*
Y154921D01*
X204134Y148150D02*
Y154921D01*
X204331Y148150D02*
Y154921D01*
X204528Y148150D02*
Y154921D01*
X204724Y148150D02*
Y154921D01*
X204921Y148150D02*
Y154921D01*
X205118Y148150D02*
Y154921D01*
X205315Y148150D02*
Y154921D01*
X205512Y148150D02*
Y154921D01*
X205709Y148150D02*
Y154921D01*
X205906Y148150D02*
Y154921D01*
X206102Y148150D02*
Y154921D01*
X206299Y148150D02*
Y154921D01*
X206496Y148150D02*
Y154921D01*
X206693Y148150D02*
Y154921D01*
X206890Y148150D02*
Y154921D01*
X207087Y148150D02*
Y154921D01*
X207283Y148150D02*
Y154921D01*
X207480Y148150D02*
Y154921D01*
X207677Y148150D02*
Y154921D01*
X207874Y148150D02*
Y154921D01*
X208071Y148150D02*
Y154921D01*
X208268Y148150D02*
Y154921D01*
X208465Y148150D02*
Y154921D01*
X208661Y148150D02*
Y154921D01*
X208858Y148150D02*
Y154921D01*
X209055Y148150D02*
Y154921D01*
X209252Y148150D02*
Y154921D01*
X209449Y148150D02*
Y154921D01*
X209646Y148150D02*
Y154921D01*
X185906Y188465D02*
X192402D01*
Y168780*
X185906*
Y171211*
X186107Y171304*
X186498Y171510*
X186878Y171738*
X187245Y171986*
X187598Y172253*
X187936Y172539*
X188259Y172843*
X188564Y173164*
X188851Y173501*
X189119Y173853*
X189368Y174219*
X189597Y174599*
X189805Y174990*
X189991Y175391*
X190155Y175803*
X190297Y176222*
X190416Y176649*
X190511Y177081*
X190583Y177518*
X190631Y177958*
X190655Y178401*
Y178843*
X190631Y179286*
X190583Y179726*
X190511Y180163*
X190416Y180595*
X190297Y181022*
X190155Y181441*
X189991Y181853*
X189805Y182254*
X189597Y182645*
X189368Y183025*
X189119Y183391*
X188851Y183743*
X188564Y184080*
X188259Y184401*
X187936Y184705*
X187598Y184991*
X187245Y185259*
X186878Y185506*
X186498Y185734*
X186107Y185940*
X185906Y186033*
Y188465*
Y168780D02*
Y171211D01*
Y186033D02*
Y188465D01*
X186102Y168780D02*
Y171302D01*
Y185942D02*
Y188465D01*
X186299Y168780D02*
Y171405D01*
Y185839D02*
Y188465D01*
X186496Y168780D02*
Y171509D01*
Y185735D02*
Y188465D01*
X186693Y168780D02*
Y171627D01*
Y185617D02*
Y188465D01*
X186890Y168780D02*
Y171746D01*
Y185499D02*
Y188465D01*
X187087Y168780D02*
Y171878D01*
Y185366D02*
Y188465D01*
X187283Y168780D02*
Y172014D01*
Y185230D02*
Y188465D01*
X187480Y168780D02*
Y172163D01*
Y185081D02*
Y188465D01*
X187677Y168780D02*
Y172320D01*
Y184925D02*
Y188465D01*
X187874Y168780D02*
Y172486D01*
Y184758D02*
Y188465D01*
X188071Y168780D02*
Y172666D01*
Y184578D02*
Y188465D01*
X188268Y168780D02*
Y172853D01*
Y184391D02*
Y188465D01*
X188465Y168780D02*
Y173060D01*
Y184184D02*
Y188465D01*
X188661Y168780D02*
Y173279D01*
Y183965D02*
Y188465D01*
X188858Y168780D02*
Y173511D01*
Y183733D02*
Y188465D01*
X189055Y168780D02*
Y173769D01*
Y183475D02*
Y188465D01*
X189252Y168780D02*
Y174048D01*
Y183196D02*
Y188465D01*
X189449Y168780D02*
Y174353D01*
Y182891D02*
Y188465D01*
X189646Y168780D02*
Y174690D01*
Y182554D02*
Y188465D01*
X189843Y168780D02*
Y175071D01*
Y182173D02*
Y188465D01*
X190039Y168780D02*
Y175512D01*
Y181732D02*
Y188465D01*
X190236Y168780D02*
Y176042D01*
Y181202D02*
Y188465D01*
X190433Y168780D02*
Y176727D01*
Y180517D02*
Y188465D01*
X190630Y168780D02*
Y177950D01*
Y179294D02*
Y188465D01*
X190827Y168780D02*
Y188465D01*
X191024Y168780D02*
Y188465D01*
X191220Y168780D02*
Y188465D01*
X191417Y168780D02*
Y188465D01*
X191614Y168780D02*
Y188465D01*
X191811Y168780D02*
Y188465D01*
X192008Y168780D02*
Y188465D01*
X192205Y168780D02*
Y188465D01*
X172717D02*
X179213D01*
Y186033*
X179011Y185941*
X178619Y185734*
X178239Y185507*
X177872Y185259*
X177518Y184992*
X177180Y184706*
X176857Y184402*
X176552Y184082*
X176265Y183744*
X175996Y183392*
X175747Y183026*
X175518Y182647*
X175309Y182256*
X175123Y181854*
X174958Y181443*
X174817Y181023*
X174698Y180596*
X174602Y180163*
X174530Y179726*
X174482Y179286*
X174458Y178844*
Y178401*
X174482Y177958*
X174530Y177518*
X174602Y177081*
X174698Y176648*
X174817Y176221*
X174958Y175802*
X175123Y175390*
X175309Y174988*
X175518Y174597*
X175747Y174218*
X175996Y173852*
X176265Y173500*
X176552Y173163*
X176857Y172842*
X177180Y172538*
X177518Y172252*
X177872Y171985*
X178239Y171737*
X178619Y171510*
X179011Y171304*
X179213Y171211*
Y168780*
X172717*
Y188465*
Y168780D02*
Y188465D01*
X172913Y168780D02*
Y188465D01*
X173110Y168780D02*
Y188465D01*
X173307Y168780D02*
Y188465D01*
X173504Y168780D02*
Y188465D01*
X173701Y168780D02*
Y188465D01*
X173898Y168780D02*
Y188465D01*
X174094Y168780D02*
Y188465D01*
X174291Y168780D02*
Y188465D01*
X174488Y168780D02*
Y177905D01*
Y179339D02*
Y188465D01*
X174685Y168780D02*
Y176706D01*
Y180538D02*
Y188465D01*
X174882Y168780D02*
Y176028D01*
Y181216D02*
Y188465D01*
X175079Y168780D02*
Y175501D01*
Y181743D02*
Y188465D01*
X175276Y168780D02*
Y175061D01*
Y182183D02*
Y188465D01*
X175472Y168780D02*
Y174682D01*
Y182562D02*
Y188465D01*
X175669Y168780D02*
Y174346D01*
Y182898D02*
Y188465D01*
X175866Y168780D02*
Y174042D01*
Y183202D02*
Y188465D01*
X176063Y168780D02*
Y173764D01*
Y183480D02*
Y188465D01*
X176260Y168780D02*
Y173506D01*
Y183738D02*
Y188465D01*
X176457Y168780D02*
Y173274D01*
Y183970D02*
Y188465D01*
X176654Y168780D02*
Y173056D01*
Y184188D02*
Y188465D01*
X176850Y168780D02*
Y172849D01*
Y184395D02*
Y188465D01*
X177047Y168780D02*
Y172663D01*
Y184581D02*
Y188465D01*
X177244Y168780D02*
Y172483D01*
Y184761D02*
Y188465D01*
X177441Y168780D02*
Y172317D01*
Y184927D02*
Y188465D01*
X177638Y168780D02*
Y172161D01*
Y185083D02*
Y188465D01*
X177835Y168780D02*
Y172013D01*
Y185232D02*
Y188465D01*
X178031Y168780D02*
Y171877D01*
Y185367D02*
Y188465D01*
X178228Y168780D02*
Y171744D01*
Y185500D02*
Y188465D01*
X178425Y168780D02*
Y171626D01*
Y185618D02*
Y188465D01*
X178622Y168780D02*
Y171508D01*
Y185736D02*
Y188465D01*
X178819Y168780D02*
Y171405D01*
Y185839D02*
Y188465D01*
X179016Y168780D02*
Y171301D01*
Y185943D02*
Y188465D01*
X118209Y179331D02*
X118363Y179319D01*
X118513Y179283*
X118656Y179223*
X118656D02*
X118787Y179143D01*
X118905Y179042*
X119005Y178925*
X119086Y178793*
X119145Y178651*
X119181Y178500*
X119193Y178346*
Y171260*
X119181Y171106*
X119145Y170956*
X119086Y170813*
X119005Y170681*
X118905Y170564*
X118787Y170464*
X118656Y170383*
X118656D02*
X118513Y170324D01*
X118363Y170288*
X118209Y170276*
X115846*
X115692Y170288*
X115542Y170324*
X115400Y170383*
X115268Y170464*
X115150Y170564*
X115050Y170681*
X114969Y170813*
X114910Y170956*
X114874Y171106*
X114862Y171260*
Y178346*
X114874Y178500*
X114910Y178651*
X114969Y178793*
X115050Y178925*
X115150Y179042*
X115268Y179143*
X115400Y179223*
X115542Y179283*
X115692Y179319*
X115846Y179331*
X118209*
X114961Y170834D02*
Y178772D01*
X115157Y170558D02*
Y179048D01*
X115354Y170411D02*
Y179196D01*
X115551Y170322D02*
Y179285D01*
X115748Y170283D02*
Y179323D01*
X115945Y170276D02*
Y179331D01*
X116142Y170276D02*
Y179331D01*
X116339Y170276D02*
Y179331D01*
X116535Y170276D02*
Y179331D01*
X116732Y170276D02*
Y179331D01*
X116929Y170276D02*
Y179331D01*
X117126Y170276D02*
Y179331D01*
X117323Y170276D02*
Y179331D01*
X117520Y170276D02*
Y179331D01*
X117717Y170276D02*
Y179331D01*
X117913Y170276D02*
Y179331D01*
X118110Y170276D02*
Y179331D01*
X118307Y170283D02*
Y179323D01*
X118504Y170322D02*
Y179285D01*
X118701Y170411D02*
Y179196D01*
X118898Y170558D02*
Y179048D01*
X119094Y170834D02*
Y178772D01*
X118209Y202953D02*
X118363Y202941D01*
X118513Y202905*
X118656Y202845*
X118656D02*
X118787Y202765D01*
X118905Y202664*
X119005Y202547*
X119086Y202415*
X119145Y202273*
X119181Y202122*
X119193Y201969*
Y194882*
X119181Y194728*
X119145Y194578*
X119086Y194435*
X119005Y194303*
X118905Y194186*
X118787Y194086*
X118656Y194005*
X118656D02*
X118513Y193946D01*
X118363Y193910*
X118209Y193898*
X115846*
X115692Y193910*
X115542Y193946*
X115400Y194005*
X115268Y194086*
X115150Y194186*
X115050Y194303*
X114969Y194435*
X114910Y194578*
X114874Y194728*
X114862Y194882*
Y201969*
X114874Y202122*
X114910Y202273*
X114969Y202415*
X115050Y202547*
X115150Y202664*
X115268Y202765*
X115400Y202845*
X115542Y202905*
X115692Y202941*
X115846Y202953*
X118209*
X114961Y194456D02*
Y202394D01*
X115157Y194180D02*
Y202670D01*
X115354Y194033D02*
Y202818D01*
X115551Y193944D02*
Y202907D01*
X115748Y193905D02*
Y202945D01*
X115945Y193898D02*
Y202953D01*
X116142Y193898D02*
Y202953D01*
X116339Y193898D02*
Y202953D01*
X116535Y193898D02*
Y202953D01*
X116732Y193898D02*
Y202953D01*
X116929Y193898D02*
Y202953D01*
X117126Y193898D02*
Y202953D01*
X117323Y193898D02*
Y202953D01*
X117520Y193898D02*
Y202953D01*
X117717Y193898D02*
Y202953D01*
X117913Y193898D02*
Y202953D01*
X118110Y193898D02*
Y202953D01*
X118307Y193905D02*
Y202945D01*
X118504Y193944D02*
Y202907D01*
X118701Y194033D02*
Y202818D01*
X118898Y194180D02*
Y202670D01*
X119094Y194456D02*
Y202394D01*
X117008Y181496D02*
X115032D01*
X114764Y181764*
X129331Y175551D02*
Y178265D01*
X125509Y182087*
X114764*
Y180906*
X122916*
X127362Y176459*
Y175551*
X129331*
X125792Y178030D02*
X129331D01*
X126146Y177676D02*
X129331D01*
X126500Y177322D02*
X129331D01*
X126855Y176967D02*
X129331D01*
X127209Y176613D02*
X129331D01*
X127362Y176259D02*
X129331D01*
X127362Y175904D02*
X129331D01*
X125437Y178385D02*
X129211D01*
X125083Y178739D02*
X128857D01*
X124729Y179093D02*
X128502D01*
X124374Y179448D02*
X128148D01*
X124020Y179802D02*
X127794D01*
X123666Y180156D02*
X127439D01*
X123311Y180510D02*
X127085D01*
X122957Y180865D02*
X126731D01*
X114764Y181219D02*
X126376D01*
X114764Y181573D02*
X126022D01*
X114764Y181928D02*
X125668D01*
X220866Y109843D02*
G75*
G03X220866I-4724J0D01*
G01X114567Y320472D02*
G03X114567I-4724J0D01*
G01Y109843D02*
G03X114567I-4724J0D01*
G01X201181Y320472D02*
G03X201181I-4724J0D01*
G01X171260Y304724D02*
G03X171260I-4331J0D01*
G01X224803Y101378D02*
Y330905D01*
G03X224606Y331102I-197J0*
G01X166949*
G03X166929Y331101I-0J-197*
X166910Y331102I-19J-196*
G01X149213*
G03X149016Y330905I-0J-197*
G01Y326181*
X148576Y325361D02*
G03X149016Y326181I-545J820D01*
G01X148576Y325361D02*
G03Y325033I108J-164D01*
G01X149016Y324213D02*
G03X148576Y325033I-985J-0D01*
G01X149016Y324213D02*
Y319488D01*
X148031Y318504D02*
G03X149016Y319488I0J984D01*
G01X148031Y318504D02*
X139173D01*
X138189Y319488D02*
G03X139173Y318504I984J0D01*
G01X138189Y319488D02*
Y320276D01*
G03X137992Y320472I-197J-0*
G01X130512*
G03X130315Y320276I-0J-196*
G01Y319488*
X129331Y318504D02*
G03X130315Y319488I-0J984D01*
G01X129331Y318504D02*
X125197D01*
G03X125000Y318307I-0J-197*
G01Y304378*
G03X125197Y304181I197J-0*
G01X125732*
X126434Y303887D02*
G03X125732Y304181I-702J-690D01*
G01X126434Y303887D02*
G03X126772Y304025I141J138D01*
G01Y304291*
X127175Y305266D02*
G03X126772Y304291I975J-975D01*
G01X127175Y305266D02*
X128238Y306329D01*
X129213Y306732D02*
G03X128238Y306329I-0J-1378D01*
G01X129213Y306732D02*
X141086D01*
G03X141226Y306791I-0J197*
G01X141929Y307087D02*
G03X141226Y306791I0J-985D01*
G01X141929Y307087D02*
X143898D01*
X144882Y306102D02*
G03X143898Y307087I-984J0D01*
G01X144882Y306102D02*
Y304134D01*
X144750Y303642D02*
G03X144882Y304134I-852J492D01*
G01X144750Y303642D02*
G03Y303445I171J-99D01*
G01X144882Y302953D02*
G03X144750Y303445I-984J-0D01*
G01X144882Y302953D02*
Y300984D01*
X144750Y300492D02*
G03X144882Y300984I-852J492D01*
G01X144750Y300492D02*
G03X144921Y300197I171J-98D01*
G01X148031*
G03X148228Y300394I0J197*
G01Y303150*
X149213Y304134D02*
G03X148228Y303150I-0J-984D01*
G01X149213Y304134D02*
X157087D01*
X158071Y303150D02*
G03X157087Y304134I-984J-0D01*
G01X158071Y303150D02*
Y294488D01*
X157087Y293504D02*
G03X158071Y294488I-0J984D01*
G01X157087Y293504D02*
X156378D01*
G03X156181Y293307I-0J-197*
G01Y291007*
G03X156239Y290867I197J-0*
G01X161092Y286014*
X161496Y285039D02*
G03X161092Y286014I-1378J0D01*
G01X161496Y285039D02*
Y282504D01*
G03X161821Y282354I197J-0*
G01X164906Y279340D02*
G03X161821Y282354I-1678J1369D01*
G01X164906Y279340D02*
G03X165120Y279028I153J-124D01*
G01X167754Y276063D02*
G03X165120Y279028I-1967J906D01*
G01X167754Y276063D02*
G03X167944Y275784I179J-83D01*
G01X169551Y275203D02*
G03X167944Y275784I-1480J-1581D01*
G01X169551Y275203D02*
G03X169882Y275347I134J144D01*
G01Y277087*
X170866Y278071D02*
G03X169882Y277087I0J-984D01*
G01X170866Y278071D02*
X172835D01*
X173819Y277087D02*
G03X172835Y278071I-984J-0D01*
G01X173819Y277087D02*
Y275118D01*
Y275104D02*
G03Y275118I-984J14D01*
G01Y275104D02*
G03X174155Y274962I197J-3D01*
G01X176152Y276959*
X177126Y277362D02*
G03X176152Y276959I-0J-1378D01*
G01X177126Y277362D02*
X178308D01*
G03X178478Y277461I-0J197*
G01X179331Y277953D02*
G03X178478Y277461I-0J-984D01*
G01X179331Y277953D02*
X181299D01*
X181791Y277821D02*
G03X181299Y277953I-492J-852D01*
G01X181791Y277821D02*
G03X181988I99J170D01*
G01X182480Y277953D02*
G03X181988Y277821I0J-984D01*
G01X182480Y277953D02*
X184449D01*
X185301Y277461D02*
G03X184449Y277953I-852J-492D01*
G01X185301Y277461D02*
G03X185472Y277362I171J98D01*
G01X196063*
X201102*
X202077Y276959D02*
G03X201102Y277362I-975J-975D01*
G01X202077Y276959D02*
X203978Y275058D01*
G03X204117Y275000I139J139*
G01X211625*
G03X211772Y275066I0J197*
G01X215190Y272425D02*
G03X211772Y275066I-1804J1197D01*
G01X215190Y272425D02*
G03X215158Y272316I164J-109D01*
G01X215158D02*
Y250851D01*
X215158D02*
G03X215187Y250747I196J-0D01*
G01Y248466D02*
G03Y250747I-1841J1140D01*
G01Y248466D02*
G03X215158Y248362I167J-104D01*
G01X215158D02*
Y244910D01*
X215158D02*
G03X215215Y244771I196J-0D01*
G01X223300Y236686*
X223819Y235433D02*
G03X223300Y236686I-1772J0D01*
G01X223819Y235433D02*
Y225322D01*
G03X223852Y225213I197J-0*
G01Y222819D02*
G03Y225213I-1805J1197D01*
G01Y222819D02*
G03X223819Y222710I164J-109D01*
G01Y218235*
G03X223852Y218126I197J-0*
G01Y215732D02*
G03Y218126I-1805J1197D01*
G01Y215732D02*
G03X223819Y215623I164J-109D01*
G01Y197762*
G03X223852Y197654I197J0*
G01Y195260D02*
G03Y197654I-1805J1197D01*
G01Y195260D02*
G03X223819Y195151I164J-109D01*
G01Y170203*
G03X223852Y170095I197J0*
G01X220243D02*
G03X223852I1804J-1197D01*
G01X220243D02*
G03X220276Y170203I-164J108D01*
G01Y195151*
G03X220243Y195260I-197J-0*
G01X219882Y196444D02*
G03X220243Y195260I2165J13D01*
G01X219882Y196444D02*
G03X219881Y196457I-197J-1D01*
X219882Y196470I-196J14*
G01X220243Y197654D02*
G03X219882Y196470I1804J-1197D01*
G01X220243Y197654D02*
G03X220276Y197762I-164J108D01*
G01Y215623*
G03X220243Y215732I-197J0*
G01X219882Y216916D02*
G03X220243Y215732I2165J13D01*
G01X219882Y216916D02*
G03X219881Y216929I-197J-1D01*
X219882Y216942I-196J14*
G01X220243Y218126D02*
G03X219882Y216942I1804J-1197D01*
G01X220243Y218126D02*
G03X220276Y218235I-164J109D01*
G01Y222710*
G03X220243Y222819I-197J-0*
G01X219882Y224003D02*
G03X220243Y222819I2165J13D01*
G01X219882Y224003D02*
G03X219881Y224016I-197J-1D01*
X219882Y224029I-196J14*
G01X220243Y225213D02*
G03X219882Y224029I1804J-1197D01*
G01X220243Y225213D02*
G03X220276Y225322I-164J109D01*
G01Y234618*
G03X220218Y234757I-197J-0*
G01X212710Y242265*
G03X212570Y242323I-140J-139*
G01X209388*
G03X209258Y241978I0J-197*
G01X209321Y241919D02*
G03X209258Y241978I-975J-974D01*
G01X209321Y241919D02*
X219085Y232155D01*
X219488Y231181D02*
G03X219085Y232155I-1378J0D01*
G01X219488Y231181D02*
Y224030D01*
G03X219489Y224016I197J-0*
X219488Y224002I196J-14*
G01Y216943*
G03X219489Y216929I197J0*
X219488Y216915I196J-14*
G01Y196471*
G03X219489Y196457I197J-0*
X219488Y196443I196J-14*
G01Y190945*
X219085Y189971D02*
G03X219488Y190945I-975J974D01*
G01X219085Y189971D02*
X218247Y189133D01*
G03X218189Y188993I139J-140*
G01Y127047*
X217785Y126073D02*
G03X218189Y127047I-974J974D01*
G01X217785Y126073D02*
X203494Y111782D01*
X202520Y111378D02*
G03X203494Y111782I-0J1378D01*
G01X202520Y111378D02*
X140512D01*
X139537Y111782D02*
G03X140512Y111378I975J974D01*
G01X139537Y111782D02*
X137608Y113711D01*
X137205Y114685D02*
G03X137608Y113711I1378J0D01*
G01X137205Y114685D02*
Y115219D01*
G03X137113Y115385I-197J-0*
G01X136286Y116193D02*
G03X137113Y115385I2297J1524D01*
G01X136286Y116193D02*
G03X135958I-164J-109D01*
G01Y119240D02*
G03Y116193I-2297J-1523D01*
G01Y119240D02*
G03X136286I164J109D01*
G01X140879D02*
G03X136286I-2296J-1523D01*
G01X140879D02*
G03X141207I164J109D01*
G01X141299Y119370D02*
G03X141207Y119240I2205J-1653D01*
G01X141299Y119370D02*
G03X141339Y119488I-157J118D01*
G01Y130936*
G03X141266Y131089I-197J0*
G01X140905Y131850D02*
G03X141266Y131089I985J0D01*
G01X140905Y131850D02*
Y135000D01*
X141234Y135734D02*
G03X140905Y135000I656J-734D01*
G01X141234Y135734D02*
G03X141299Y135880I-132J146D01*
G01Y142154*
G03X141168Y142340I-197J0*
G01X140512Y143268D02*
G03X141168Y142340I984J-0D01*
G01X140512Y143268D02*
Y145630D01*
X140697Y146204D02*
G03X140512Y145630I799J-574D01*
G01X140697Y146204D02*
G03Y146434I-160J115D01*
G01X140512Y147008D02*
G03X140697Y146434I984J-0D01*
G01X140512Y147008D02*
Y149370D01*
X140697Y149944D02*
G03X140512Y149370I799J-574D01*
G01X140697Y149944D02*
G03Y150174I-160J115D01*
G01X140512Y150748D02*
G03X140697Y150174I984J0D01*
G01X140512Y150748D02*
Y153110D01*
X141496Y154095D02*
G03X140512Y153110I0J-985D01*
G01X141496Y154095D02*
X142992D01*
G03X143189Y154291I0J196*
G01Y170765*
G03X142853Y170904I-197J-0*
G01X135648Y163699*
G03X135591Y163560I139J-139*
G01Y161478*
G03X135696Y161304I196J-0*
G01X135728Y161285D02*
G03X135696Y161304I-492J-852D01*
G01X135728Y161285D02*
G03X135925I99J171D01*
G01X136417Y161417D02*
G03X135925Y161285I0J-984D01*
G01X136417Y161417D02*
X138386D01*
X139370Y160433D02*
G03X138386Y161417I-984J0D01*
G01X139370Y160433D02*
Y158465D01*
X138386Y157480D02*
G03X139370Y158465I-0J985D01*
G01X138386Y157480D02*
X136417D01*
X135925Y157612D02*
G03X136417Y157480I492J853D01*
G01X135925Y157612D02*
G03X135630Y157442I-98J-170D01*
G01Y154291*
G03X135827Y154095I197J0*
G01X135984*
X136969Y153110D02*
G03X135984Y154095I-985J0D01*
G01X136969Y153110D02*
Y150748D01*
X135984Y149764D02*
G03X136969Y150748I0J984D01*
G01X135984Y149764D02*
X132047D01*
X131063Y150748D02*
G03X132047Y149764I984J0D01*
G01X131063Y150748D02*
Y153110D01*
X132047Y154095D02*
G03X131063Y153110I0J-985D01*
G01X132047Y154095D02*
X132677D01*
G03X132874Y154291I0J196*
G01Y157442*
G03X132776Y157612I-197J-0*
G01X132283Y158465D02*
G03X132776Y157612I985J-0D01*
G01X132283Y158465D02*
Y160433D01*
X132743Y161266D02*
G03X132283Y160433I525J-833D01*
G01X132743Y161266D02*
G03X132835Y161432I-105J166D01*
G01Y164213*
X133238Y165187D02*
G03X132835Y164213I975J-974D01*
G01X133238Y165187D02*
X141438Y173387D01*
G03X141496Y173526I-139J139*
G01Y174724*
X141900Y175699D02*
G03X141496Y174724I974J-975D01*
G01X141900Y175699D02*
X146556Y180356D01*
G03X146614Y180495I-139J139*
G01Y185759*
G03X146549Y185906I-197J-0*
G01X146044Y188465D02*
G03X146549Y185906I1948J-945D01*
G01X146044Y188465D02*
G03X145722Y188684I-177J86D01*
G01X145687Y188648D02*
G03X145722Y188684I-974J974D01*
G01X145687Y188648D02*
X140864Y183825D01*
G03X141077Y183503I139J-139*
G01X143333Y179882D02*
G03X141077Y183503I-1443J1614D01*
G01X143333Y179882D02*
G03X143268Y179735I132J-147D01*
G01Y178346*
X142864Y177372D02*
G03X143268Y178346I-974J974D01*
G01X142864Y177372D02*
X140896Y175404D01*
X139921Y175000D02*
G03X140896Y175404I0J1378D01*
G01X139921Y175000D02*
X138739D01*
G03X138569Y174705I0J-197*
G01X138701Y174213D02*
G03X138569Y174705I-984J-0D01*
G01X138701Y174213D02*
Y172244D01*
X137717Y171260D02*
G03X138701Y172244I-0J984D01*
G01X137717Y171260D02*
X135748D01*
X135256Y171392D02*
G03X135748Y171260I492J852D01*
G01X135256Y171392D02*
G03X135059I-99J-171D01*
G01X134567Y171260D02*
G03X135059Y171392I-0J984D01*
G01X134567Y171260D02*
X132598D01*
X131614Y172244D02*
G03X132598Y171260I984J0D01*
G01X131614Y172244D02*
Y174213D01*
X131746Y174705D02*
G03X131614Y174213I852J-492D01*
G01X131746Y174705D02*
G03X131576Y175000I-170J98D01*
G01X130709*
G03X130512Y174803I-0J-197*
G01Y167717*
X129878Y166185D02*
G03X130512Y167717I-1532J1532D01*
G01X129878Y166185D02*
X124270Y160578D01*
G03X124213Y160439I139J-139*
G01Y160329*
G03X124278Y160182I196J0*
G01X124606Y159449D02*
G03X124278Y160182I-984J-0D01*
G01X124606Y159449D02*
Y156299D01*
X123622Y155315D02*
G03X124606Y156299I0J984D01*
G01X123622Y155315D02*
X120472D01*
X119488Y156299D02*
G03X120472Y155315I984J0D01*
G01X119488Y156299D02*
Y159449D01*
X119816Y160182D02*
G03X119488Y159449I656J-733D01*
G01X119816Y160182D02*
G03X119882Y160329I-131J147D01*
G01Y161417*
X120516Y162948D02*
G03X119882Y161417I1531J-1531D01*
G01X120516Y162948D02*
X126123Y168556D01*
G03X126181Y168695I-139J139*
G01Y175889*
G03X126123Y176028I-197J-0*
G01X122485Y179667*
G03X122345Y179724I-140J-139*
G01X120254*
G03X120084Y179429I0J-196*
G01X120374Y178346D02*
G03X120084Y179429I-2165J0D01*
G01X120374Y178346D02*
Y177165D01*
Y175984*
Y171260*
X118209Y169094D02*
G03X120374Y171260I-0J2166D01*
G01X118209Y169094D02*
X115846D01*
X113681Y171260D02*
G03X115846Y169094I2165J-0D01*
G01X113681Y171260D02*
Y178346D01*
X114030Y179525D02*
G03X113681Y178346I1816J-1179D01*
G01X114030Y179525D02*
G03X113946Y179811I-165J107D01*
G01X113366Y180709D02*
G03X113946Y179811I984J-0D01*
G01X113366Y180709D02*
Y182283D01*
X113456Y182694D02*
G03X113366Y182283I894J-411D01*
G01X113456Y182694D02*
G03Y182858I-179J82D01*
G01X113366Y183268D02*
G03X113456Y182858I984J-0D01*
G01X113366Y183268D02*
Y184843D01*
X113456Y185253D02*
G03X113366Y184843I894J-410D01*
G01X113456Y185253D02*
G03Y185417I-179J82D01*
G01X113366Y185827D02*
G03X113456Y185417I984J-0D01*
G01X113366Y185827D02*
Y187402D01*
X113456Y187812D02*
G03X113366Y187402I894J-410D01*
G01X113456Y187812D02*
G03Y187976I-179J82D01*
G01X113366Y188386D02*
G03X113456Y187976I984J-0D01*
G01X113366Y188386D02*
Y189961D01*
X113456Y190371D02*
G03X113366Y189961I894J-410D01*
G01X113456Y190371D02*
G03Y190535I-179J82D01*
G01X113366Y190945D02*
G03X113456Y190535I984J-0D01*
G01X113366Y190945D02*
Y192520D01*
X113946Y193417D02*
G03X113366Y192520I404J-897D01*
G01X113946Y193417D02*
G03X114030Y193703I-81J179D01*
G01X113681Y194882D02*
G03X114030Y193703I2165J-0D01*
G01X113681Y194882D02*
Y201969D01*
X115846Y204134D02*
G03X113681Y201969I0J-2165D01*
G01X115846Y204134D02*
X118209D01*
X120374Y201969D02*
G03X118209Y204134I-2165J-0D01*
G01X120374Y201969D02*
Y197244D01*
Y196063*
Y194882*
X120017Y193691D02*
G03X120374Y194882I-1808J1191D01*
G01X120017Y193691D02*
G03X120095Y193405I164J-109D01*
G01X120650Y192520D02*
G03X120095Y193405I-985J-0D01*
G01X120650Y192520D02*
Y190945D01*
X120636Y190781D02*
G03X120650Y190945I-971J164D01*
G01X120636Y190781D02*
G03X120830Y190551I194J-33D01*
G01X121789*
G03X121928Y190609I-0J197*
G01X123238Y191919*
X124213Y192323D02*
G03X123238Y191919I-0J-1378D01*
G01X124213Y192323D02*
X129095D01*
G03X129266Y192618I0J197*
G01X129134Y193110D02*
G03X129266Y192618I984J0D01*
G01X129134Y193110D02*
Y195079D01*
X130118Y196063D02*
G03X129134Y195079I0J-984D01*
G01X130118Y196063D02*
X132087D01*
X132579Y195931D02*
G03X132087Y196063I-492J-852D01*
G01X132579Y195931D02*
G03X132874Y196102I98J171D01*
G01Y225079*
X133278Y226053D02*
G03X132874Y225079I974J-974D01*
G01X133278Y226053D02*
X135285Y228061D01*
X136260Y228465D02*
G03X135285Y228061I-0J-1378D01*
G01X136260Y228465D02*
X136417D01*
G03X136614Y228661I0J196*
G01Y229646*
X136670Y229974D02*
G03X136614Y229646I928J-328D01*
G01X136670Y229974D02*
G03Y230105I-185J65D01*
G01X136614Y230433D02*
G03X136670Y230105I984J0D01*
G01X136614Y230433D02*
Y231614D01*
X136670Y231942D02*
G03X136614Y231614I928J-328D01*
G01X136670Y231942D02*
G03Y232073I-185J66D01*
G01X136614Y232402D02*
G03X136670Y232073I984J-0D01*
G01X136614Y232402D02*
Y233583D01*
X136670Y233911D02*
G03X136614Y233583I928J-328D01*
G01X136670Y233911D02*
G03Y234042I-185J65D01*
G01X136614Y234370D02*
G03X136670Y234042I984J0D01*
G01X136614Y234370D02*
Y235551D01*
X136670Y235879D02*
G03X136614Y235551I928J-328D01*
G01X136670Y235879D02*
G03Y236010I-185J66D01*
G01X136614Y236339D02*
G03X136670Y236011I984J-0D01*
G01X136614Y236339D02*
Y237323D01*
G03X136417Y237520I-197J-0*
G01X131712*
G03X131532Y237402I0J-197*
G01X131122Y236943D02*
G03X131532Y237402I-492J852D01*
G01X131122Y236943D02*
G03X131024Y236772I98J-171D01*
G01Y210629*
G03X131122Y210459I196J0*
G01X131614Y209606D02*
G03X131122Y210459I-984J0D01*
G01X131614Y209606D02*
Y207638D01*
X131122Y206785D02*
G03X131614Y207638I-492J853D01*
G01X131122Y206785D02*
G03X131024Y206615I98J-170D01*
G01Y204123*
G03X131089Y203976I196J-0*
G01X128202D02*
G03X131089I1444J-1614D01*
G01X128202D02*
G03X128268Y204123I-131J147D01*
G01Y206615*
G03X127972Y206785I-197J-0*
G01X127480Y206654D02*
G03X127972Y206785I0J984D01*
G01X127480Y206654D02*
X125512D01*
X124528Y207638D02*
G03X125512Y206654I984J-0D01*
G01X124528Y207638D02*
Y209606D01*
X124843Y210329D02*
G03X124528Y209606I669J-723D01*
G01X124843Y210329D02*
G03X124714Y210670I-134J144D01*
G01X122995Y214084D02*
G03X124714Y210670I1769J-1249D01*
G01X122995Y214084D02*
G03X123031Y214198I-160J114D01*
G01Y214387*
G03X122802Y214581I-196J-0*
G01X122638Y214567D02*
G03X122802Y214581I-0J984D01*
G01X122638Y214567D02*
X120669D01*
X119685Y215551D02*
G03X120669Y214567I984J0D01*
G01X119685Y215551D02*
Y217520D01*
X120669Y218504D02*
G03X119685Y217520I0J-984D01*
G01X120669Y218504D02*
X122638D01*
X122802Y218490D02*
G03X122638Y218504I-164J-970D01*
G01X122802Y218490D02*
G03X123031Y218684I33J194D01*
G01Y219710*
G03X122720Y219870I-196J-0*
G01X122146Y219685D02*
G03X122720Y219870I-0J984D01*
G01X122146Y219685D02*
X119783D01*
X119561Y219710D02*
G03X119783Y219685I222J959D01*
G01X119561Y219710D02*
G03X119326Y219471I-44J-191D01*
G01X118668Y217335D02*
G03X119326Y219471I-1444J1614D01*
G01X118668Y217335D02*
G03X118602Y217188I131J-147D01*
G01Y217061*
G03X118703Y216890I197J0*
G01X119205Y216031D02*
G03X118703Y216890I-985J0D01*
G01X119205Y216031D02*
Y214063D01*
X119073Y213571D02*
G03X119205Y214063I-853J492D01*
G01X119073Y213571D02*
G03Y213374I170J-99D01*
G01X119205Y212882D02*
G03X119073Y213374I-985J-0D01*
G01X119205Y212882D02*
Y210913D01*
X118220Y209929D02*
G03X119205Y210913I0J984D01*
G01X118220Y209929D02*
X116252D01*
X115268Y210913D02*
G03X116252Y209929I984J0D01*
G01X115268Y210913D02*
Y212882D01*
X115400Y213374D02*
G03X115268Y212882I852J-492D01*
G01X115400Y213374D02*
G03Y213571I-171J98D01*
G01X115268Y214063D02*
G03X115400Y213571I984J-0D01*
G01X115268Y214063D02*
Y216031D01*
X115750Y216878D02*
G03X115268Y216031I502J-847D01*
G01X115750Y216878D02*
G03X115846Y217047I-100J169D01*
G01Y217188*
G03X115781Y217335I-196J0*
G01X115271Y219883D02*
G03X115781Y217335I1953J-934D01*
G01X115271Y219883D02*
G03X115252Y220085I-178J85D01*
G01X115059Y220669D02*
G03X115252Y220085I984J0D01*
G01X115059Y220669D02*
Y224606D01*
X115325Y225279D02*
G03X115059Y224606I718J-673D01*
G01X115325Y225279D02*
G03X115181Y225610I-144J134D01*
G01X113898*
X112923Y226014D02*
G03X113898Y225610I975J974D01*
G01X112923Y226014D02*
X107746Y231191D01*
X107342Y232165D02*
G03X107746Y231191I1378J0D01*
G01X107342Y232165D02*
Y258780D01*
X107746Y259754D02*
G03X107342Y258780I974J-974D01*
G01X107746Y259754D02*
X109872Y261880D01*
X110846Y262283D02*
G03X109872Y261880I0J-1377D01*
G01X110846Y262283D02*
X111350D01*
G03X111496Y262349I-0J197*
G01X111562Y259391D02*
G03X111496Y262349I1548J1515D01*
G01X111562Y259391D02*
G03X111282Y259393I-140J-137D01*
G01X110156Y258266*
G03X110098Y258127I139J-139*
G01Y247092*
G03X110434Y246953I197J0*
G01X112233Y248751*
X113291Y249212D02*
G03X112233Y248751I55J-1574D01*
G01X113291Y249212D02*
G03X113478Y249376I-7J196D01*
G01X114449Y250197D02*
G03X113478Y249376I-0J-984D01*
G01X114449Y250197D02*
X119252D01*
G03X119449Y250394I-0J197*
G01Y251997*
G03X119318Y252182I-197J-0*
G01X118661Y253110D02*
G03X119318Y252182I985J0D01*
G01X118661Y253110D02*
Y256260D01*
X119318Y257188D02*
G03X118661Y256260I328J-928D01*
G01X119318Y257188D02*
G03X119449Y257373I-66J185D01*
G01Y258504*
X119968Y259757D02*
G03X119449Y258504I1252J-1253D01*
G01X119968Y259757D02*
X122566Y262355D01*
X123819Y262874D02*
G03X122566Y262355I-0J-1772D01*
G01X123819Y262874D02*
X127504D01*
G03X127701Y263071I-0J197*
G01Y279173*
Y289749*
G03X127668Y289858I-197J-0*
G01X127618Y289942D02*
G03X127668Y289858I870J460D01*
G01X127618Y289942D02*
G03X127444Y290047I-174J-92D01*
G01X125968*
G03X125797Y289752I-0J-197*
G01X125929Y289260D02*
G03X125797Y289752I-984J-0D01*
G01X125929Y289260D02*
Y287291D01*
X124945Y286307D02*
G03X125929Y287291I-0J984D01*
G01X124945Y286307D02*
X122976D01*
X121992Y287291D02*
G03X122976Y286307I984J0D01*
G01X121992Y287291D02*
Y289260D01*
X122124Y289752D02*
G03X121992Y289260I852J-492D01*
G01X122124Y289752D02*
G03Y289949I-171J98D01*
G01X121992Y290441D02*
G03X122124Y289949I984J-0D01*
G01X121992Y290441D02*
Y292409D01*
X122484Y293262D02*
G03X121992Y292409I492J-853D01*
G01X122484Y293262D02*
G03X122583Y293432I-98J170D01*
G01Y295323*
G03X122386Y295520I-197J-0*
G01X122189*
X121205Y296504D02*
G03X122189Y295520I984J-0D01*
G01X121205Y296504D02*
Y298079D01*
X122189Y299063D02*
G03X121205Y298079I-0J-984D01*
G01X122189Y299063D02*
X125732D01*
X125880Y299052D02*
G03X125732Y299063I-148J-973D01*
G01X125880Y299052D02*
G03X126048Y299107I29J195D01*
G01X126714Y299773*
G03X126772Y299912I-139J139*
G01Y300794*
G03X126434Y300932I-197J0*
G01X125732Y300638D02*
G03X126434Y300932I0J984D01*
G01X125732Y300638D02*
X122189D01*
X121205Y301622D02*
G03X122189Y300638I984J0D01*
G01X121205Y301622D02*
Y303197D01*
X122071Y304174D02*
G03X121205Y303197I118J-977D01*
G01X122071Y304174D02*
G03X122244Y304369I-24J195D01*
G01Y318307*
G03X122047Y318504I-197J0*
G01X120472*
X119488Y319488D02*
G03X120472Y318504I984J0D01*
G01X119488Y319488D02*
Y324213D01*
X119928Y325033D02*
G03X119488Y324213I544J-820D01*
G01X119928Y325033D02*
G03Y325361I-108J164D01*
G01X119488Y326181D02*
G03X119928Y325361I984J0D01*
G01X119488Y326181D02*
Y330905D01*
G03X119291Y331102I-197J0*
G01X101378*
G03X101181Y330905I-0J-197*
G01Y198540*
G03X101564Y198477I197J0*
G01X104921Y200886D02*
G03X101564Y198477I0J-3543D01*
G01X104921Y200886D02*
X108465D01*
X110992Y194859D02*
G03X108465Y200886I-2527J2484D01*
G01X110992Y194859D02*
G03X111048Y194543I140J-138D01*
G01X111614Y193652D02*
G03X111048Y194543I-984J-0D01*
G01X111614Y193652D02*
Y187648D01*
X111106Y186786D02*
G03X111614Y187648I-476J862D01*
G01X111106Y186786D02*
G03Y186442I96J-172D01*
G01X111614Y185581D02*
G03X111106Y186442I-984J-0D01*
G01X111614Y185581D02*
Y179577D01*
X111048Y178686D02*
G03X111614Y179577I-418J891D01*
G01X111048Y178686D02*
G03X110992Y178370I84J-178D01*
G01X108465Y172342D02*
G03X110992Y178370I-0J3544D01*
G01X108465Y172342D02*
X104921D01*
X101564Y174751D02*
G03X104921Y172342I3357J1135D01*
G01X101564Y174751D02*
G03X101181Y174688I-186J-63D01*
G01Y101378*
G03X101378Y101181I197J-0*
G01X224606*
G03X224803Y101378I0J197*
G01X138629Y325033D02*
G03Y325361I-109J164D01*
G01X138189Y326181D02*
G03X138629Y325361I984J0D01*
G01X138189Y326181D02*
Y330905D01*
G03X137992Y331102I-197J0*
G01X130512*
G03X130315Y330905I-0J-197*
G01Y326181*
X129875Y325361D02*
G03X130315Y326181I-544J820D01*
G01X129875Y325361D02*
G03Y325033I109J-164D01*
G01X130315Y324213D02*
G03X129875Y325033I-984J-0D01*
G01X130315Y324213D02*
Y323425D01*
G03X130512Y323228I197J0*
G01X137992*
G03X138189Y323425I0J197*
G01Y324213*
X138629Y325033D02*
G03X138189Y324213I544J-820D01*
G01X102338Y194543D02*
G03X102394Y194859I-84J178D01*
G01X101564Y196208D02*
G03X102394Y194859I3357J1135D01*
G01X101564Y196208D02*
G03X101181Y196145I-186J-63D01*
G01Y177083*
G03X101564Y177020I197J0*
G01X102394Y178370D02*
G03X101564Y177020I2527J-2484D01*
G01X102394Y178370D02*
G03X102338Y178686I-140J138D01*
G01X101772Y179577D02*
G03X102338Y178686I984J-0D01*
G01X101772Y179577D02*
Y185581D01*
X102279Y186442D02*
G03X101772Y185581I477J-861D01*
G01X102279Y186442D02*
G03Y186786I-95J172D01*
G01X101772Y187648D02*
G03X102279Y186786I984J-0D01*
G01X101772Y187648D02*
Y193652D01*
X102338Y194543D02*
G03X101772Y193652I418J-891D01*
G01X138346Y190574D02*
Y223346D01*
G03X138150Y223543I-196J0*
G01X137598*
X136614Y224528D02*
G03X137598Y223543I984J-0D01*
G01X136614Y224528D02*
Y225017D01*
G03X136278Y225156I-197J-0*
G01X135688Y224566*
G03X135630Y224426I139J-140*
G01Y196102*
G03X135728Y195931I197J-0*
G01X136220Y195079D02*
G03X135728Y195931I-984J-0D01*
G01X136220Y195079D02*
Y193110D01*
X136089Y192618D02*
G03X136220Y193110I-853J492D01*
G01X136089Y192618D02*
G03Y192421I170J-98D01*
G01X136220Y191929D02*
G03X136089Y192421I-984J0D01*
G01X136220Y191929D02*
Y189961D01*
X135887Y189222D02*
G03X136220Y189961I-651J739D01*
G01X135887Y189222D02*
G03Y188927I130J-147D01*
G01X136089Y188681D02*
G03X135887Y188927I-853J-492D01*
G01X136089Y188681D02*
G03X136259Y188583I170J99D01*
G01X136356*
G03X136495Y188640I-0J197*
G01X138289Y190434*
G03X138346Y190574I-139J140*
G01X128268Y210629D02*
Y236772D01*
G03X127972Y236943I-197J0*
G01X127480Y236811D02*
G03X127972Y236943I0J984D01*
G01X127480Y236811D02*
X125512D01*
X125034Y236935D02*
G03X125512Y236811I478J860D01*
G01X125034Y236935D02*
G03X124800Y236623I-95J-173D01*
G01X125957Y235465*
X126295Y234994D02*
G03X125957Y235465I-1590J-781D01*
G01X126295Y234994D02*
G03X126374Y234910I176J87D01*
G01X126870Y234055D02*
G03X126374Y234910I-984J0D01*
G01X126870Y234055D02*
Y230118D01*
X125886Y229134D02*
G03X126870Y230118I-0J984D01*
G01X125886Y229134D02*
X123524D01*
X122539Y230118D02*
G03X123524Y229134I985J0D01*
G01X122539Y230118D02*
Y233791D01*
G03X122482Y233930I-197J-0*
G01X120066Y236346*
X119785Y236713D02*
G03X120066Y236346I1534J885D01*
G01X119785Y236713D02*
G03X119614Y236811I-171J-99D01*
G01X114449*
X113465Y237795D02*
G03X114449Y236811I984J0D01*
G01X113465Y237795D02*
Y240945D01*
X114449Y241929D02*
G03X113465Y240945I-0J-984D01*
G01X114449Y241929D02*
X122323D01*
X123307Y240945D02*
G03X122323Y241929I-984J-0D01*
G01X123307Y240945D02*
Y238197D01*
G03X123365Y238058I197J0*
G01X124340Y237083*
G03X124651Y237318I139J139*
G01X124528Y237795D02*
G03X124651Y237318I984J0D01*
G01X124528Y237795D02*
Y239764D01*
X125020Y240616D02*
G03X124528Y239764I492J-852D01*
G01X125020Y240616D02*
G03X125118Y240787I-99J171D01*
G01Y240865*
G03X125007Y241042I-197J-0*
G01X124449Y241929D02*
G03X125007Y241042I984J0D01*
G01X124449Y241929D02*
Y243898D01*
X125007Y244785D02*
G03X124449Y243898I426J-887D01*
G01X125007Y244785D02*
G03X125118Y244962I-86J177D01*
G01Y245332*
G03X125060Y245471I-197J-0*
G01X124329Y246202*
G03X124190Y246260I-139J-139*
G01X123504*
G03X123307Y246063I-0J-197*
G01X122323Y245079D02*
G03X123307Y246063I-0J984D01*
G01X122323Y245079D02*
X114449D01*
X113685Y245442D02*
G03X114449Y245079I764J621D01*
G01X113685Y245442D02*
G03X113393Y245457I-153J-124D01*
G01X112971Y245035*
G03X112913Y244896I139J-139*
G01Y235340*
G03X112971Y235201I197J0*
G01X114453Y233719*
G03X114592Y233661I139J139*
G01X114862*
G03X115059Y233858I0J197*
G01Y234055*
X116043Y235039D02*
G03X115059Y234055I0J-984D01*
G01X116043Y235039D02*
X118406D01*
X119390Y234055D02*
G03X118406Y235039I-984J0D01*
G01X119390Y234055D02*
Y230118D01*
X118406Y229134D02*
G03X119390Y230118I-0J984D01*
G01X118406Y229134D02*
X116043D01*
X115059Y230118D02*
G03X116043Y229134I984J0D01*
G01X115059Y230118D02*
Y230315D01*
G03X114862Y230512I-197J-0*
G01X113858*
X112745Y230973D02*
G03X113858Y230512I1113J1114D01*
G01X112745Y230973D02*
X110434Y233283D01*
G03X110098Y233144I-139J-139*
G01Y232818*
G03X110156Y232678I197J-0*
G01X114411Y228424*
G03X114550Y228366I139J139*
G01X123110*
X124085Y227963D02*
G03X123110Y228366I-975J-975D01*
G01X124085Y227963D02*
X125679Y226368D01*
X126050Y225690D02*
G03X125679Y226368I-1345J-296D01*
G01X126050Y225690D02*
G03X126183Y225545I193J42D01*
G01X126870Y224606D02*
G03X126183Y225545I-984J0D01*
G01X126870Y224606D02*
Y220669D01*
X126624Y220018D02*
G03X126870Y220669I-738J651D01*
G01X126624Y220018D02*
G03X126575Y219888I148J-130D01*
G01Y218173*
G03X126608Y218064I197J-0*
G01X126772Y217520D02*
G03X126608Y218064I-985J-0D01*
G01X126772Y217520D02*
Y215551D01*
X126608Y215007D02*
G03X126772Y215551I-821J544D01*
G01X126608Y215007D02*
G03X126575Y214898I164J-109D01*
G01Y214079*
G03X126604Y213975I197J0*
G01X125844Y210958D02*
G03X126604Y213975I-1080J1877D01*
G01X125844Y210958D02*
G03X125942Y210591I98J-171D01*
G01X127480*
X127972Y210459D02*
G03X127480Y210591I-492J-853D01*
G01X127972Y210459D02*
G03X128268Y210629I99J170D01*
G01X136670Y247690D02*
G03Y247822I-185J66D01*
G01X136614Y248150D02*
G03X136670Y247822I984J-0D01*
G01X136614Y248150D02*
Y249094D01*
G03X136417Y249291I-197J0*
G01X136170*
G03X136023Y249226I0J-197*
G01Y252113D02*
G03Y249226I-1614J-1444D01*
G01Y252113D02*
G03X136170Y252047I147J131D01*
G01X136417*
G03X136614Y252244I0J197*
G01Y253071*
G03X136417Y253268I-197J-0*
G01X130669*
G03X130498Y252972I-0J-197*
G01X130630Y252480D02*
G03X130498Y252972I-984J0D01*
G01X130630Y252480D02*
Y250512D01*
X129646Y249528D02*
G03X130630Y250512I-0J984D01*
G01X129646Y249528D02*
X127677D01*
X126693Y250512D02*
G03X127677Y249528I984J-0D01*
G01X126693Y250512D02*
Y252480D01*
X126825Y252972D02*
G03X126693Y252480I852J-492D01*
G01X126825Y252972D02*
G03Y253169I-171J99D01*
G01X126807Y253202D02*
G03X126825Y253169I870J459D01*
G01X126807Y253202D02*
G03X126633Y253307I-174J-92D01*
G01X123976*
G03X123780Y253110I0J-197*
G01X123123Y252182D02*
G03X123780Y253110I-328J928D01*
G01X123123Y252182D02*
G03X122992Y251997I66J-185D01*
G01Y250016*
G03X123045Y249882I197J-0*
G01X123307Y249213D02*
G03X123045Y249882I-984J-0D01*
G01X123307Y249213D02*
G03X123504Y249016I197J-0D01*
G01X124843*
X125817Y248612D02*
G03X124843Y249016I-974J-974D01*
G01X125817Y248612D02*
X127470Y246959D01*
X127874Y245984D02*
G03X127470Y246959I-1378J0D01*
G01X127874Y245984D02*
Y244962D01*
G03X128156Y244785I197J0*
G01X128583Y244882D02*
G03X128156Y244785I-0J-984D01*
G01X128583Y244882D02*
X130551D01*
X131404Y244390D02*
G03X130551Y244882I-853J-492D01*
G01X131404Y244390D02*
G03X131574Y244291I170J98D01*
G01X136417*
G03X136614Y244488I0J197*
G01Y245394*
X136670Y245722D02*
G03X136614Y245394I928J-328D01*
G01X136670Y245722D02*
G03Y245853I-185J65D01*
G01X136614Y246181D02*
G03X136670Y245853I984J0D01*
G01X136614Y246181D02*
Y247362D01*
X136670Y247690D02*
G03X136614Y247362I928J-328D01*
G01X158661Y266457D02*
Y271277D01*
G03X158604Y271416I-196J-0*
G01X155161Y274859*
G03X155136Y274880I-139J-139*
G01X154959Y275030D02*
G03X155136Y274880I974J974D01*
G01X154959Y275030D02*
X140038Y289950D01*
G03X139899Y290008I-139J-139*
G01X134629*
G03X134459Y289909I0J-197*
G01X133606Y289417D02*
G03X134459Y289909I0J985D01*
G01X133606Y289417D02*
X131638D01*
X131474Y289431D02*
G03X131638Y289417I164J971D01*
G01X131474Y289431D02*
G03X131244Y289237I-33J-194D01*
G01Y281142*
G03X131441Y280945I197J-0*
G01X139206*
G03X139315Y280978I0J197*
G01Y277369D02*
G03Y280978I1197J1804D01*
G01Y277369D02*
G03X139206Y277402I-109J-164D01*
G01X131441*
G03X131244Y277205I-0J-197*
G01Y263071*
G03X131441Y262874I197J-0*
G01X132177*
G03X132316Y262932I-0J197*
G01X143472Y274087*
X144724Y274606D02*
G03X143472Y274087I0J-1771D01*
G01X144724Y274606D02*
X146079D01*
G03X146274Y274836I0J197*
G01X146260Y275000D02*
G03X146274Y274836I984J0D01*
G01X146260Y275000D02*
Y276969D01*
X147244Y277953D02*
G03X146260Y276969I0J-984D01*
G01X147244Y277953D02*
X149213D01*
X150197Y276969D02*
G03X149213Y277953I-984J-0D01*
G01X150197Y276969D02*
Y275000D01*
X150065Y274508D02*
G03X150197Y275000I-852J492D01*
G01X150065Y274508D02*
G03Y274311I170J-99D01*
G01X150197Y273819D02*
G03X150065Y274311I-984J-0D01*
G01X150197Y273819D02*
Y271850D01*
X149705Y270998D02*
G03X150197Y271850I-492J852D01*
G01X149705Y270998D02*
G03X149606Y270828I98J-170D01*
G01Y266457*
G03X149803Y266260I197J-0*
G01X150787*
X151115Y266204D02*
G03X150787Y266260I-328J-928D01*
G01X151115Y266204D02*
G03X151247I66J185D01*
G01X151575Y266260D02*
G03X151247Y266204I-0J-984D01*
G01X151575Y266260D02*
X152756D01*
X153084Y266204D02*
G03X152756Y266260I-328J-928D01*
G01X153084Y266204D02*
G03X153215I66J185D01*
G01X153543Y266260D02*
G03X153215Y266204I0J-984D01*
G01X153543Y266260D02*
X154724D01*
X155052Y266204D02*
G03X154724Y266260I-328J-928D01*
G01X155052Y266204D02*
G03X155184I66J185D01*
G01X155512Y266260D02*
G03X155184Y266204I-0J-984D01*
G01X155512Y266260D02*
X156693D01*
X157021Y266204D02*
G03X156693Y266260I-328J-928D01*
G01X157021Y266204D02*
G03X157152I66J185D01*
G01X157480Y266260D02*
G03X157152Y266204I0J-984D01*
G01X157480Y266260D02*
X158465D01*
G03X158661Y266457I-0J197*
G01X158740Y275652D02*
Y284387D01*
G03X158682Y284526I-197J0*
G01X153829Y289380*
X153425Y290354D02*
G03X153829Y289380I1378J0D01*
G01X153425Y290354D02*
Y293307D01*
G03X153228Y293504I-197J0*
G01X149213*
X148228Y294488D02*
G03X149213Y293504I985J0D01*
G01X148228Y294488D02*
Y297244D01*
G03X148031Y297441I-197J0*
G01X144094*
X143120Y297845D02*
G03X144094Y297441I974J974D01*
G01X143120Y297845D02*
X141939Y299026D01*
X141536Y299966D02*
G03X141939Y299026I1377J34D01*
G01X141536Y299966D02*
G03X141437Y300132I-197J-5D01*
G01X140945Y300984D02*
G03X141437Y300132I984J0D01*
G01X140945Y300984D02*
Y302953D01*
X141077Y303445D02*
G03X140945Y302953I852J-492D01*
G01X141077Y303445D02*
G03Y303642I-171J98D01*
G01X140990Y303839D02*
G03X141077Y303642I939J295D01*
G01X140990Y303839D02*
G03X140802Y303976I-188J-59D01*
G01X135421*
G03X135250Y303682I0J-196*
G01X135378Y303197D02*
G03X135250Y303682I-984J-0D01*
G01X135378Y303197D02*
Y301622D01*
X135288Y301212D02*
G03X135378Y301622I-894J410D01*
G01X135288Y301212D02*
G03Y301048I179J-82D01*
G01X135378Y300638D02*
G03X135288Y301048I-984J-0D01*
G01X135378Y300638D02*
Y299063D01*
X135288Y298653D02*
G03X135378Y299063I-894J410D01*
G01X135288Y298653D02*
G03Y298489I179J-82D01*
G01X135378Y298079D02*
G03X135288Y298489I-984J-0D01*
G01X135378Y298079D02*
Y296504D01*
X134394Y295520D02*
G03X135378Y296504I-0J984D01*
G01X134394Y295520D02*
X134197D01*
G03X134000Y295323I-0J-197*
G01Y293393*
G03X134098Y293222I197J-0*
G01X134459Y292862D02*
G03X134098Y293222I-853J-492D01*
G01X134459Y292862D02*
G03X134629Y292764I170J99D01*
G01X140551*
X141526Y292360D02*
G03X140551Y292764I-975J-974D01*
G01X141526Y292360D02*
X156737Y277149D01*
G03X156762Y277128I139J139*
G01X156939Y276978D02*
G03X156762Y277128I-974J-974D01*
G01X156939Y276978D02*
X158404Y275513D01*
G03X158740Y275652I139J139*
G01X170472Y266457D02*
Y270946D01*
G03X170374Y271116I-196J-0*
G01X169884Y271911D02*
G03X170374Y271116I982J58D01*
G01X169884Y271911D02*
G03X169552Y272043I-197J-12D01*
G01X169514Y272008D02*
G03X169552Y272043I-1443J1614D01*
G01X169514Y272008D02*
G03X169449Y271861I132J-147D01*
G01Y266457*
G03X169646Y266260I197J-0*
G01X170276*
G03X170472Y266457I-0J197*
G01X172224Y189735D02*
Y192296D01*
G03X172129Y192464I-196J-0*
G01X171654Y193307D02*
G03X172129Y192464I984J0D01*
G01X171654Y193307D02*
Y195276D01*
X171785Y195768D02*
G03X171654Y195276I853J-492D01*
G01X171785Y195768D02*
G03Y195965I-170J98D01*
G01X171654Y196457D02*
G03X171785Y195965I984J-0D01*
G01X171654Y196457D02*
Y198425D01*
X171746Y198842D02*
G03X171654Y198425I892J-417D01*
G01X171746Y198842D02*
G03X171509Y199113I-178J84D01*
G01X169783Y199306D02*
G03X171509Y199113I1083J1875D01*
G01X169783Y199306D02*
G03X169488Y199135I-98J-171D01*
G01Y179921*
X169085Y178947D02*
G03X169488Y179921I-975J974D01*
G01X169085Y178947D02*
X168758Y178621D01*
G03X168701Y178482I140J-139*
G01Y175383*
G03X168766Y175236I197J-0*
G01X165879D02*
G03X168766I1444J-1614D01*
G01X165879D02*
G03X165945Y175383I-131J147D01*
G01Y179134*
X166348Y180108D02*
G03X165945Y179134I975J-974D01*
G01X166348Y180108D02*
X166675Y180434D01*
G03X166732Y180574I-140J140*
G01Y181710*
G03X166396Y181849I-197J-0*
G01X166314Y181767*
G03X166257Y181617I139J-140*
G01X161958Y181143D02*
G03X166257Y181617I2136J353D01*
G01X161958Y181143D02*
G03X161567Y181111I-194J-32D01*
G01Y172567*
X161163Y171593D02*
G03X161567Y172567I-974J974D01*
G01X161163Y171593D02*
X159164Y169593D01*
G03X159106Y169454I139J-139*
G01Y162217*
G03X159187Y162058I197J0*
G01X159591Y161264D02*
G03X159187Y162058I-985J-0D01*
G01X159591Y161264D02*
Y158941D01*
X159588Y158867D02*
G03X159591Y158941I-982J74D01*
G01X159588Y158867D02*
G03X159613Y158756I196J-14D01*
G01X155831Y158733D02*
G03X159613Y158756I1897J-1044D01*
G01X155831Y158733D02*
G03X155855Y158847I-172J95D01*
G01X155850Y158941D02*
G03X155855Y158847I985J-0D01*
G01X155850Y158941D02*
Y161264D01*
X156267Y162068D02*
G03X155850Y161264I568J-804D01*
G01X156267Y162068D02*
G03X156350Y162229I-113J161D01*
G01Y169639*
G03X156014Y169778I-196J-0*
G01X153081Y166845*
G03X153024Y166706I139J-139*
G01Y162215*
G03X153106Y162055I196J0*
G01X153516Y161256D02*
G03X153106Y162055I-985J-0D01*
G01X153516Y161256D02*
Y158933D01*
X153511Y158839D02*
G03X153516Y158933I-980J94D01*
G01X153511Y158838D02*
G03X153535Y158724I196J-18D01*
G01X149755Y158735D02*
G03X153535Y158724I1887J-1062D01*
G01X149755Y158735D02*
G03X149779Y158849I-172J97D01*
G01X149776Y158933D02*
G03X149779Y158849I984J0D01*
G01X149776Y158933D02*
Y161256D01*
X150186Y162055D02*
G03X149776Y161256I574J-799D01*
G01X150186Y162055D02*
G03X150268Y162215I-115J160D01*
G01Y167358*
X150371Y167881D02*
G03X150268Y167358I1275J-523D01*
G01X150371Y167881D02*
G03X150199Y168153I-182J75D01*
G01X148871Y171929D02*
G03X150199Y168153I1444J-1614D01*
G01X148871Y171929D02*
G03X148937Y172076I-131J147D01*
G01Y174567*
X148967Y174853D02*
G03X148937Y174567I1348J-286D01*
G01X148967Y174853D02*
G03X148635Y175033I-193J41D01*
G01X146003Y172400*
G03X145945Y172261I139J-139*
G01Y154055*
G03X146024Y153898I197J0*
G01X146417Y153110D02*
G03X146024Y153898I-984J0D01*
G01X146417Y153110D02*
Y150748D01*
X146233Y150174D02*
G03X146417Y150748I-800J574D01*
G01X146233Y150174D02*
G03Y149944I159J-115D01*
G01X146417Y149370D02*
G03X146233Y149944I-984J0D01*
G01X146417Y149370D02*
Y147008D01*
X146404Y146844D02*
G03X146417Y147008I-971J164D01*
G01X146404Y146844D02*
G03X146598Y146614I194J-33D01*
G01X160754*
G03X160893Y146672I-0J197*
G01X161950Y147729*
G03X162008Y147868I-139J139*
G01Y159159*
G03X161942Y159306I-197J0*
G01X161614Y160039D02*
G03X161942Y159306I984J0D01*
G01X161614Y160039D02*
Y163189D01*
X162598Y164173D02*
G03X161614Y163189I0J-984D01*
G01X162598Y164173D02*
X165748D01*
X166482Y163845D02*
G03X165748Y164173I-734J-656D01*
G01X166482Y163845D02*
G03X166628Y163780I146J131D01*
G01X171240*
G03X171437Y163976I0J196*
G01Y178622*
X171527Y179241D02*
G03X171437Y178622I2075J-619D01*
G01X171527Y179241D02*
G03X171535Y179297I-188J56D01*
G01Y188661*
X172110Y189556D02*
G03X171535Y188661I410J-895D01*
G01X172110Y189556D02*
G03X172224Y189735I-82J179D01*
G01X164567Y183999D02*
Y201970D01*
G03X164199Y202068I-197J-0*
G01X163839Y201707D02*
G03X164199Y202068I-493J852D01*
G01X163839Y201707D02*
G03X163740Y201536I98J-171D01*
G01Y199906*
X163337Y198931D02*
G03X163740Y199906I-975J975D01*
G01X163337Y198931D02*
X161625Y197219D01*
G03X161567Y197080I139J-139*
G01Y181881*
G03X161958Y181849I197J-0*
G01X164215Y183658D02*
G03X161958Y181849I-121J-2162D01*
G01X164215Y183658D02*
G03X164365Y183715I11J197D01*
G01X164509Y183860*
G03X164567Y183999I-139J139*
G01X166535Y212621D02*
Y213307D01*
G03X166339Y213504I-196J0*
G01X165354*
X165026Y213560D02*
G03X165354Y213504I328J928D01*
G01X165026Y213560D02*
G03X164895I-65J-185D01*
G01X164567Y213504D02*
G03X164895Y213560I-0J984D01*
G01X164567Y213504D02*
X163583D01*
G03X163386Y213307I-0J-197*
G01Y208834*
G03X163543Y208642I197J0*
G01X164199Y208168D02*
G03X163543Y208642I-853J-491D01*
G01X164199Y208168D02*
G03X164567Y208266I171J98D01*
G01Y210000*
X164971Y210974D02*
G03X164567Y210000I974J-974D01*
G01X164971Y210974D02*
X166478Y212482D01*
G03X166535Y212621I-139J139*
G01X160984Y200558D02*
Y201536D01*
G03X160886Y201707I-197J0*
G01X160394Y202559D02*
G03X160886Y201707I984J0D01*
G01X160394Y202559D02*
Y204528D01*
X160526Y205020D02*
G03X160394Y204528I852J-492D01*
G01X160526Y205020D02*
G03Y205217I-171J98D01*
G01X160394Y205709D02*
G03X160526Y205217I984J-0D01*
G01X160394Y205709D02*
Y207677D01*
X160591Y208268D02*
G03X160394Y207677I787J-591D01*
G01X160591Y208268D02*
G03X160630Y208386I-158J118D01*
G01Y213307*
G03X160433Y213504I-197J0*
G01X159449*
X159121Y213560D02*
G03X159449Y213504I328J928D01*
G01X159121Y213560D02*
G03X158990I-66J-185D01*
G01X158661Y213504D02*
G03X158989Y213560I0J984D01*
G01X158661Y213504D02*
X157677D01*
G03X157480Y213307I0J-197*
G01Y210810*
G03X157538Y210671I197J-0*
G01X158573Y209636*
X158975Y208715D02*
G03X158573Y209636I-1377J-54D01*
G01X158975Y208715D02*
G03X159080Y208548I197J7D01*
G01X159606Y207677D02*
G03X159080Y208548I-984J0D01*
G01X159606Y207677D02*
Y205709D01*
X159474Y205217D02*
G03X159606Y205709I-852J492D01*
G01X159474Y205217D02*
G03Y205020I171J-99D01*
G01X159606Y204528D02*
G03X159474Y205020I-984J-0D01*
G01X159606Y204528D02*
Y202559D01*
X159114Y201707D02*
G03X159606Y202559I-492J852D01*
G01X159114Y201707D02*
G03X159016Y201536I99J-171D01*
G01Y198983*
G03X159352Y198844I197J0*
G01X160927Y200419*
G03X160984Y200558I-140J139*
G01X156260Y174003D02*
Y201536D01*
G03X156161Y201707I-197J0*
G01X155866Y201968D02*
G03X156161Y201707I788J591D01*
G01X155866Y201968D02*
G03X155512Y201850I-157J-118D01*
G01Y178346*
X155108Y177372D02*
G03X155512Y178346I-974J974D01*
G01X155108Y177372D02*
X151751Y174014D01*
G03X151693Y173875I139J-139*
G01Y172076*
G03X151759Y171929I197J-0*
G01X152465Y170576D02*
G03X151759Y171929I-2150J-261D01*
G01X152465Y170576D02*
G03X152799Y170461I195J24D01*
G01X156202Y173864*
G03X156260Y174003I-139J139*
G01X150291Y188597D02*
Y195700D01*
G03X150226Y195847I-197J-0*
G01X149543Y197053D02*
G03X150226Y195847I2126J408D01*
G01X149543Y197053D02*
G03X149210Y197155I-194J-37D01*
G01X146148Y194093*
G03X146091Y193954I139J-139*
G01Y189622*
X145986Y189096D02*
G03X146091Y189622I-1273J526D01*
G01X145986Y189096D02*
G03X146320Y188896I182J-75D01*
G01X149919Y188507D02*
G03X146320Y188896I-1927J-987D01*
G01X149919Y188507D02*
G03X150291Y188597I175J90D01*
G01X150787Y202711D02*
Y213307D01*
G03X150591Y213504I-196J0*
G01X149803*
G03X149606Y213307I0J-197*
G01Y208818*
G03X149705Y208648I197J0*
G01X150197Y207795D02*
G03X149705Y208648I-984J0D01*
G01X150197Y207795D02*
Y205827D01*
X150065Y205335D02*
G03X150197Y205827I-852J492D01*
G01X150065Y205335D02*
G03Y205138I170J-99D01*
G01X150197Y204646D02*
G03X150065Y205138I-984J-0D01*
G01X150197Y204646D02*
Y202677D01*
X150186Y202531D02*
G03X150197Y202677I-973J146D01*
G01X150186Y202531D02*
G03X150520Y202362I195J-30D01*
G01X150730Y202572*
G03X150787Y202711I-139J139*
G01X171850Y223461D02*
G03X171671Y223740I-179J82D01*
G01X151440*
G03X151301Y223682I-0J-197*
G01X149664Y222046*
G03X149606Y221907I139J-139*
G01Y221575*
G03X149803Y221378I197J-0*
G01X150787*
X151115Y221322D02*
G03X150787Y221378I-328J-928D01*
G01X151115Y221322D02*
G03X151247I66J185D01*
G01X151575Y221378D02*
G03X151247Y221322I-0J-984D01*
G01X151575Y221378D02*
X152756D01*
X153084Y221322D02*
G03X152756Y221378I-328J-928D01*
G01X153084Y221322D02*
G03X153215I66J185D01*
G01X153543Y221378D02*
G03X153215Y221322I0J-984D01*
G01X153543Y221378D02*
X154724D01*
X155052Y221322D02*
G03X154724Y221378I-328J-928D01*
G01X155052Y221322D02*
G03X155184I66J185D01*
G01X155512Y221378D02*
G03X155184Y221322I-0J-984D01*
G01X155512Y221378D02*
X156693D01*
X157021Y221322D02*
G03X156693Y221378I-328J-928D01*
G01X157021Y221322D02*
G03X157152I66J185D01*
G01X157480Y221378D02*
G03X157152Y221322I0J-984D01*
G01X157480Y221378D02*
X158661D01*
X158989Y221322D02*
G03X158661Y221378I-328J-928D01*
G01X158990Y221322D02*
G03X159121I65J185D01*
G01X159449Y221378D02*
G03X159121Y221322I-0J-984D01*
G01X159449Y221378D02*
X160630D01*
X160958Y221322D02*
G03X160630Y221378I-328J-928D01*
G01X160958Y221322D02*
G03X161089I66J185D01*
G01X161417Y221378D02*
G03X161089Y221322I0J-984D01*
G01X161417Y221378D02*
X162598D01*
X162927Y221322D02*
G03X162598Y221378I-329J-928D01*
G01X162927Y221322D02*
G03X163058I65J185D01*
G01X163386Y221378D02*
G03X163058Y221322I-0J-984D01*
G01X163386Y221378D02*
X164567D01*
X164895Y221322D02*
G03X164567Y221378I-328J-928D01*
G01X164895Y221322D02*
G03X165026I66J185D01*
G01X165354Y221378D02*
G03X165026Y221322I0J-984D01*
G01X165354Y221378D02*
X166535D01*
X166864Y221322D02*
G03X166535Y221378I-329J-928D01*
G01X166864Y221322D02*
G03X166995I65J185D01*
G01X167323Y221378D02*
G03X166995Y221322I-0J-984D01*
G01X167323Y221378D02*
X168504D01*
X168832Y221322D02*
G03X168504Y221378I-328J-928D01*
G01X168832Y221322D02*
G03X168963I66J185D01*
G01X169291Y221378D02*
G03X168963Y221322I0J-984D01*
G01X169291Y221378D02*
X170472D01*
X170801Y221322D02*
G03X170472Y221378I-329J-928D01*
G01X170801Y221322D02*
G03X170932I65J185D01*
G01X171260Y221378D02*
G03X170932Y221322I-0J-984D01*
G01X171260Y221378D02*
X171671D01*
G03X171850Y221657I0J197*
G01Y223461D02*
G03Y221657I1969J-902D01*
G01X149528Y201370D02*
G03X149359Y201704I-140J139D01*
G01X149213Y201693D02*
G03X149359Y201704I-0J984D01*
G01X149213Y201693D02*
X147244D01*
X146588Y201944D02*
G03X147244Y201693I656J733D01*
G01X146588Y201944D02*
G03X146325I-131J-147D01*
G01X145669Y201693D02*
G03X146325Y201944I0J984D01*
G01X145669Y201693D02*
X143701D01*
X142717Y202677D02*
G03X143701Y201693I984J0D01*
G01X142717Y202677D02*
Y204646D01*
X142848Y205138D02*
G03X142717Y204646I853J-492D01*
G01X142848Y205138D02*
G03Y205335I-170J98D01*
G01X142717Y205827D02*
G03X142848Y205335I984J-0D01*
G01X142717Y205827D02*
Y207795D01*
X142719Y207863D02*
G03X142717Y207795I982J-68D01*
G01X142719Y207863D02*
G03X142585Y208063I-197J14D01*
G01X141463Y208921D02*
G03X142585Y208063I1805J1197D01*
G01X141463Y208921D02*
G03X141102Y208812I-164J-109D01*
G01Y189921*
X140699Y188947D02*
G03X141102Y189921I-975J974D01*
G01X140699Y188947D02*
X137982Y186230D01*
X137008Y185827D02*
G03X137982Y186230I-0J1378D01*
G01X137008Y185827D02*
X136259D01*
G03X136089Y185531I0J-197*
G01X136092Y185525D02*
G03X136089Y185531I-856J-486D01*
G01X136092Y185525D02*
G03X136264Y185425I172J97D01*
G01X138485*
G03X138625Y185483I0J197*
G01X143277Y190135*
G03X143335Y190274I-139J139*
G01Y194618*
X143844Y195688D02*
G03X143335Y194618I869J-1070D01*
G01X143844Y195688D02*
G03X143859Y195701I-125J152D01*
G01X149528Y201370*
X181552Y253596D02*
G03Y253727I-185J65D01*
G01X181496Y254055D02*
G03X181552Y253727I984J0D01*
G01X181496Y254055D02*
Y255236D01*
X181531Y255495D02*
G03X181496Y255236I949J-259D01*
G01X181531Y255495D02*
G03X181202Y255686I-190J52D01*
G01X181046Y255530*
G03X180988Y255391I139J-139*
G01Y241022*
G03X181046Y240883I197J0*
G01X181160Y240769*
G03X181496Y240908I139J139*
G01Y241457*
X181552Y241785D02*
G03X181496Y241457I928J-328D01*
G01X181552Y241785D02*
G03Y241916I-185J65D01*
G01X181496Y242244D02*
G03X181552Y241916I984J0D01*
G01X181496Y242244D02*
Y243425D01*
X181552Y243753D02*
G03X181496Y243425I928J-328D01*
G01X181552Y243753D02*
G03Y243885I-185J66D01*
G01X181496Y244213D02*
G03X181552Y243885I984J-0D01*
G01X181496Y244213D02*
Y245394D01*
X181552Y245722D02*
G03X181496Y245394I928J-328D01*
G01X181552Y245722D02*
G03Y245853I-185J65D01*
G01X181496Y246181D02*
G03X181552Y245853I984J0D01*
G01X181496Y246181D02*
Y247362D01*
X181552Y247690D02*
G03X181496Y247362I928J-328D01*
G01X181552Y247690D02*
G03Y247822I-185J66D01*
G01X181496Y248150D02*
G03X181552Y247822I984J-0D01*
G01X181496Y248150D02*
Y249331D01*
X181552Y249659D02*
G03X181496Y249331I928J-328D01*
G01X181552Y249659D02*
G03Y249790I-185J65D01*
G01X181496Y250118D02*
G03X181552Y249790I984J0D01*
G01X181496Y250118D02*
Y251299D01*
X181552Y251627D02*
G03X181496Y251299I928J-328D01*
G01X181552Y251627D02*
G03Y251759I-185J66D01*
G01X181496Y252087D02*
G03X181552Y251759I984J-0D01*
G01X181496Y252087D02*
Y253268D01*
X181552Y253596D02*
G03X181496Y253268I928J-328D01*
G01X197926Y222795D02*
G03X197976Y223182I-0J197D01*
G01X197769Y223263D02*
G03X197976Y223182I459J871D01*
G01X197769Y223263D02*
G03X197480Y223089I-92J-174D01*
G01Y222992*
G03X197677Y222795I197J0*
G01X197926*
X197537Y245780D02*
G03X197340Y246108I-138J140D01*
G01X197047Y246063D02*
G03X197340Y246108I0J984D01*
G01X197047Y246063D02*
X195079D01*
X194758Y246117D02*
G03X195079Y246063I321J930D01*
G01X194758Y246117D02*
G03X194554Y246070I-65J-186D01*
G01X191064Y242580*
G03X191204Y242244I140J-139*
G01X195965*
G03X195970I0J197*
G01X197183Y242274*
G03X197354Y242380I-4J197*
G01X197376Y242421D02*
G03X197354Y242380I852J-492D01*
G01X197376Y242421D02*
G03Y242618I-171J99D01*
G01X197244Y243110D02*
G03X197376Y242618I984J0D01*
G01X197244Y243110D02*
Y245079D01*
X197537Y245780D02*
G03X197244Y245079I691J-701D01*
G01X206299Y214903D02*
Y225135D01*
G03X206242Y225274I-197J0*
G01X203424Y228092*
G03X203285Y228150I-139J-139*
G01X195157*
X194183Y228553D02*
G03X195157Y228150I974J975D01*
G01X194183Y228553D02*
X189706Y233030D01*
G03X189370Y232891I-139J-139*
G01Y232402*
X189314Y232073D02*
G03X189370Y232402I-928J329D01*
G01X189314Y232073D02*
G03Y231942I185J-65D01*
G01X189370Y231614D02*
G03X189314Y231942I-984J0D01*
G01X189370Y231614D02*
Y230433D01*
X189314Y230105D02*
G03X189370Y230433I-928J328D01*
G01X189314Y230105D02*
G03Y229974I185J-66D01*
G01X189370Y229646D02*
G03X189314Y229974I-984J-0D01*
G01X189370Y229646D02*
Y228465D01*
X189314Y228136D02*
G03X189370Y228465I-928J329D01*
G01X189314Y228136D02*
G03Y228005I185J-65D01*
G01X189370Y227677D02*
G03X189314Y228005I-984J0D01*
G01X189370Y227677D02*
Y226693D01*
G03X189567Y226496I197J-0*
G01X194056*
G03X194226Y226595I-0J197*
G01X195079Y227087D02*
G03X194226Y226595I-0J-985D01*
G01X195079Y227087D02*
X197047D01*
X197539Y226955D02*
G03X197047Y227087I-492J-853D01*
G01X197539Y226955D02*
G03X197736I99J170D01*
G01X198228Y227087D02*
G03X197736Y226955I0J-985D01*
G01X198228Y227087D02*
X200197D01*
X201181Y226102D02*
G03X200197Y227087I-984J0D01*
G01X201181Y226102D02*
Y224134D01*
X200197Y223150D02*
G03X201181Y224134I-0J984D01*
G01X200197Y223150D02*
X198688D01*
G03X198638Y222762I0J-197*
G01X199370Y221811D02*
G03X198638Y222762I-984J0D01*
G01X199370Y221811D02*
Y218661D01*
X198939Y217847D02*
G03X199370Y218661I-553J814D01*
G01X198939Y217847D02*
G03X198863Y217621I110J-163D01*
G01X194759D02*
G03X198863I2052J-692D01*
G01X194759D02*
G03X194683Y217847I-186J63D01*
G01X194252Y218661D02*
G03X194683Y217847I984J0D01*
G01X194252Y218661D02*
Y221811D01*
X194646Y222598D02*
G03X194252Y221811I590J-787D01*
G01X194646Y222598D02*
G03X194724Y222756I-118J158D01*
G01Y223089*
G03X194619Y223263I-196J0*
G01X194226Y223642D02*
G03X194619Y223263I853J492D01*
G01X194226Y223642D02*
G03X194056Y223740I-170J-99D01*
G01X189039*
G03X188930Y223707I-0J-197*
G01X188386Y223543D02*
G03X188930Y223707I-0J985D01*
G01X188386Y223543D02*
X182480D01*
X181936Y223707D02*
G03X182480Y223543I544J821D01*
G01X181936Y223707D02*
G03X181827Y223740I-109J-164D01*
G01X175966*
G03X175787Y223461I0J-197*
G01Y221657D02*
G03Y223461I-1968J902D01*
G01Y221657D02*
G03X175966Y221378I179J-82D01*
G01X176378*
X176706Y221322D02*
G03X176378Y221378I-328J-928D01*
G01X176706Y221322D02*
G03X176837I66J185D01*
G01X177165Y221378D02*
G03X176837Y221322I0J-984D01*
G01X177165Y221378D02*
X178346D01*
X179331Y220394D02*
G03X178346Y221378I-985J-0D01*
G01X179331Y220394D02*
Y217441D01*
G03X179528Y217244I197J-0*
G01X189134*
X190108Y216841D02*
G03X189134Y217244I-974J-975D01*
G01X190108Y216841D02*
X191919Y215029D01*
X192316Y214196D02*
G03X191919Y215029I-1371J-141D01*
G01X192316Y214196D02*
G03X192414Y214045I195J21D01*
G01X192913Y213189D02*
G03X192414Y214045I-984J-0D01*
G01X192913Y213189D02*
Y211220D01*
X192782Y210728D02*
G03X192913Y211220I-853J492D01*
G01X192782Y210728D02*
G03Y210532I170J-98D01*
G01X192913Y210039D02*
G03X192782Y210531I-984J0D01*
G01X192913Y210039D02*
Y208071D01*
X192421Y207218D02*
G03X192913Y208071I-492J853D01*
G01X192421Y207218D02*
G03X192323Y207048I99J-170D01*
G01Y205709*
G03X192520Y205512I197J-0*
G01X192913*
X193898Y204528D02*
G03X192913Y205512I-985J-0D01*
G01X193898Y204528D02*
Y202165D01*
X192913Y201181D02*
G03X193898Y202165I0J984D01*
G01X192913Y201181D02*
X188976D01*
X187992Y202165D02*
G03X188976Y201181I984J0D01*
G01X187992Y202165D02*
Y204528D01*
X188976Y205512D02*
G03X187992Y204528I0J-984D01*
G01X188976Y205512D02*
X189370D01*
G03X189567Y205709I0J197*
G01Y207048*
G03X189468Y207218I-197J-0*
G01X188976Y208071D02*
G03X189468Y207218I985J-0D01*
G01X188976Y208071D02*
Y210039D01*
X189108Y210531D02*
G03X188976Y210039I853J-492D01*
G01X189108Y210532D02*
G03Y210728I-170J98D01*
G01X188976Y211220D02*
G03X189108Y210728I985J0D01*
G01X188976Y211220D02*
Y213189D01*
X189126Y213710D02*
G03X188976Y213189I835J-521D01*
G01X189126Y213710D02*
G03X189098Y213953I-167J104D01*
G01X188621Y214431*
G03X188482Y214488I-139J-140*
G01X179511*
G03X179317Y214324I0J-197*
G01X178346Y213504D02*
G03X179317Y214324I0J984D01*
G01X178346Y213504D02*
X177362D01*
G03X177165Y213307I0J-197*
G01Y208832*
G03X177327Y208638I197J-0*
G01X177646Y208522D02*
G03X177327Y208638I-492J-853D01*
G01X177646Y208522D02*
G03X177843I98J170D01*
G01X178335Y208654D02*
G03X177843Y208522I-0J-985D01*
G01X178335Y208654D02*
X180303D01*
X180451Y208642D02*
G03X180303Y208654I-148J-973D01*
G01X180451Y208642D02*
G03X180619Y208698I29J195D01*
G01X181474Y209552*
G03X181531Y209702I-140J139*
G01X183572Y207661D02*
G03X181531Y209702I121J2162D01*
G01X183572Y207661D02*
G03X183422Y207603I-11J-197D01*
G01X181529Y205711*
X181330Y205546D02*
G03X181529Y205711I-775J1139D01*
G01X181330Y205546D02*
G03X181251Y205436I111J-163D01*
G01X180303Y204717D02*
G03X181251Y205436I0J984D01*
G01X180303Y204717D02*
X178335D01*
X177843Y204848D02*
G03X178335Y204717I492J853D01*
G01X177843Y204848D02*
G03X177646I-99J-170D01*
G01X177154Y204717D02*
G03X177646Y204848I-0J984D01*
G01X177154Y204717D02*
X175185D01*
X174201Y205701D02*
G03X175185Y204717I984J-0D01*
G01X174201Y205701D02*
Y207669D01*
X174375Y208228D02*
G03X174201Y207669I810J-559D01*
G01X174375Y208228D02*
G03X174409Y208340I-162J112D01*
G01Y213307*
G03X174213Y213504I-196J0*
G01X173425*
G03X173228Y213307I0J-197*
G01Y208268*
X172825Y207293D02*
G03X173228Y208268I-975J975D01*
G01X172825Y207293D02*
X172302Y206770D01*
G03X172244Y206631I139J-139*
G01Y202942*
G03X172310Y202795I197J-0*
G01X172480Y199738D02*
G03X172310Y202795I-1614J1443D01*
G01X172480Y199738D02*
G03X172629Y199409I147J-132D01*
G01X172638D02*
G03X172629I-0J-984D01*
G01X172638D02*
X174606D01*
X175413Y198989D02*
G03X174606Y199409I-807J-564D01*
G01X175413Y198989D02*
G03X175714Y198962I162J112D01*
G01X177372Y200620*
X178346Y201024D02*
G03X177372Y200620I0J-1378D01*
G01X178346Y201024D02*
X178429D01*
G03X178612Y201148I-0J196*
G01X179528Y201772D02*
G03X178612Y201148I-0J-985D01*
G01X179528Y201772D02*
X183465D01*
X184449Y200787D02*
G03X183465Y201772I-984J0D01*
G01X184449Y200787D02*
Y198425D01*
X183465Y197441D02*
G03X184449Y198425I-0J984D01*
G01X183465Y197441D02*
X179528D01*
X178763Y197806D02*
G03X179528Y197441I765J619D01*
G01X178763Y197806D02*
G03X178471Y197821I-153J-124D01*
G01X177116Y196467*
X176152Y196063D02*
G03X177116Y196467I-10J1378D01*
G01X176152Y196063D02*
G03X176153Y195669I1J-197D01*
G01X183206*
G03X183345Y195727I-0J197*
G01X187608Y199990*
X188583Y200394D02*
G03X187608Y199990I-0J-1378D01*
G01X188583Y200394D02*
X197638D01*
G03X197835Y200591I-0J197*
G01Y203543*
G03X197638Y203740I-197J0*
G01X197244*
X196260Y204724D02*
G03X197244Y203740I984J0D01*
G01X196260Y204724D02*
Y207087D01*
X197244Y208071D02*
G03X196260Y207087I0J-984D01*
G01X197244Y208071D02*
X201181D01*
X202110Y207413D02*
G03X201181Y208071I-929J-326D01*
G01X202110Y207413D02*
G03X202492Y207479I185J66D01*
G01Y210433*
X202894Y211406D02*
G03X202492Y210433I976J-973D01*
G01X202894Y211406D02*
X206242Y214764D01*
G03X206299Y214903I-140J139*
G01X211614Y250970D02*
Y272047D01*
G03X211417Y272244I-197J0*
G01X203465*
X202490Y272648D02*
G03X203465Y272244I975J974D01*
G01X202490Y272648D02*
X200589Y274549D01*
G03X200450Y274606I-139J-140*
G01X197638*
G03X197441Y274409I-0J-197*
G01Y260275*
G03X197736Y260104I197J-0*
G01X198228Y260236D02*
G03X197736Y260104I0J-984D01*
G01X198228Y260236D02*
X200197D01*
X201181Y259252D02*
G03X200197Y260236I-984J-0D01*
G01X201181Y259252D02*
Y257283D01*
X200741Y256463D02*
G03X201181Y257283I-544J820D01*
G01X200741Y256463D02*
G03Y256135I109J-164D01*
G01X201000Y255884D02*
G03X200741Y256135I-803J-569D01*
G01X201000Y255884D02*
G03X201300Y255859I161J114D01*
G01X201451Y252665D02*
G03X201300Y255859I1384J1666D01*
G01X201451Y252665D02*
G03X201137Y252455I-125J-152D01*
G01X201181Y252165D02*
G03X201137Y252455I-984J0D01*
G01X201181Y252165D02*
Y250197D01*
X201049Y249705D02*
G03X201181Y250197I-852J492D01*
G01X201049Y249705D02*
G03Y249508I171J-99D01*
G01X201181Y249016D02*
G03X201049Y249508I-984J-0D01*
G01X201181Y249016D02*
Y247047D01*
X200888Y246346D02*
G03X201181Y247047I-691J701D01*
G01X200888Y246346D02*
G03X201085Y246018I138J-140D01*
G01X201378Y246063D02*
G03X201085Y246018I-0J-984D01*
G01X201378Y246063D02*
X203346D01*
X203891Y245899D02*
G03X203346Y246063I-545J-820D01*
G01X203891Y245899D02*
G03X203999Y245866I108J164D01*
G01X211417*
G03X211614Y246063I0J197*
G01Y248243*
G03X211578Y248357I-197J0*
G01Y250856D02*
G03Y248357I1768J-1250D01*
G01Y250856D02*
G03X211614Y250970I-161J114D01*
G01X194685Y260275D02*
Y274409D01*
G03X194488Y274606I-197J0*
G01X185472*
G03X185301Y274311I-0J-197*
G01X185433Y273819D02*
G03X185301Y274311I-984J-0D01*
G01X185433Y273819D02*
Y271850D01*
X184703Y270899D02*
G03X185433Y271850I-254J951D01*
G01X184703Y270899D02*
G03X184592Y270822I50J-190D01*
G01X184439Y270640D02*
G03X184592Y270822I-974J974D01*
G01X184439Y270640D02*
X179377Y265578D01*
G03X179321Y265412I139J-139*
G01X179331Y265276D02*
G03X179321Y265412I-985J-0D01*
G01X179331Y265276D02*
Y259370D01*
X178346Y258386D02*
G03X179331Y259370I0J984D01*
G01X178346Y258386D02*
X177165D01*
X176837Y258442D02*
G03X177165Y258386I328J928D01*
G01X176837Y258442D02*
G03X176706I-65J-185D01*
G01X176378Y258386D02*
G03X176706Y258442I-0J984D01*
G01X176378Y258386D02*
X175197D01*
X174869Y258442D02*
G03X175197Y258386I328J928D01*
G01X174869Y258442D02*
G03X174738I-66J-185D01*
G01X174409Y258386D02*
G03X174738Y258442I0J984D01*
G01X174409Y258386D02*
X173228D01*
X172900Y258442D02*
G03X173228Y258386I328J928D01*
G01X172900Y258442D02*
G03X172769I-65J-185D01*
G01X172441Y258386D02*
G03X172769Y258442I-0J984D01*
G01X172441Y258386D02*
X171260D01*
X170932Y258442D02*
G03X171260Y258386I328J928D01*
G01X170932Y258442D02*
G03X170801I-66J-185D01*
G01X170472Y258386D02*
G03X170801Y258442I0J984D01*
G01X170472Y258386D02*
X169291D01*
X168963Y258442D02*
G03X169291Y258386I328J928D01*
G01X168963Y258442D02*
G03X168832I-65J-185D01*
G01X168504Y258386D02*
G03X168832Y258442I-0J984D01*
G01X168504Y258386D02*
X167323D01*
X166995Y258442D02*
G03X167323Y258386I328J928D01*
G01X166995Y258442D02*
G03X166864I-66J-185D01*
G01X166535Y258386D02*
G03X166864Y258442I0J984D01*
G01X166535Y258386D02*
X165354D01*
X165026Y258442D02*
G03X165354Y258386I328J928D01*
G01X165026Y258442D02*
G03X164895I-65J-185D01*
G01X164567Y258386D02*
G03X164895Y258442I-0J984D01*
G01X164567Y258386D02*
X163386D01*
X163058Y258442D02*
G03X163386Y258386I328J928D01*
G01X163058Y258442D02*
G03X162927I-66J-185D01*
G01X162598Y258386D02*
G03X162927Y258442I0J984D01*
G01X162598Y258386D02*
X161417D01*
X161089Y258442D02*
G03X161417Y258386I328J928D01*
G01X161089Y258442D02*
G03X160958I-65J-185D01*
G01X160630Y258386D02*
G03X160958Y258442I-0J984D01*
G01X160630Y258386D02*
X159449D01*
X159121Y258442D02*
G03X159449Y258386I328J928D01*
G01X159121Y258442D02*
G03X158990I-66J-185D01*
G01X158661Y258386D02*
G03X158989Y258442I0J984D01*
G01X158661Y258386D02*
X157480D01*
X157152Y258442D02*
G03X157480Y258386I328J928D01*
G01X157152Y258442D02*
G03X157021I-65J-185D01*
G01X156693Y258386D02*
G03X157021Y258442I-0J984D01*
G01X156693Y258386D02*
X155512D01*
X155184Y258442D02*
G03X155512Y258386I328J928D01*
G01X155184Y258442D02*
G03X155052I-66J-185D01*
G01X154724Y258386D02*
G03X155052Y258442I0J984D01*
G01X154724Y258386D02*
X153543D01*
X153215Y258442D02*
G03X153543Y258386I328J928D01*
G01X153215Y258442D02*
G03X153084I-65J-185D01*
G01X152756Y258386D02*
G03X153084Y258442I-0J984D01*
G01X152756Y258386D02*
X151575D01*
X151247Y258442D02*
G03X151575Y258386I328J928D01*
G01X151247Y258442D02*
G03X151115I-66J-185D01*
G01X150787Y258386D02*
G03X151115Y258442I0J984D01*
G01X150787Y258386D02*
X149606D01*
X149278Y258442D02*
G03X149606Y258386I328J928D01*
G01X149278Y258442D02*
G03X149147I-65J-185D01*
G01X148819Y258386D02*
G03X149147Y258442I-0J984D01*
G01X148819Y258386D02*
X147638D01*
X146654Y259370D02*
G03X147638Y258386I984J0D01*
G01X146654Y259370D02*
Y265276D01*
X146818Y265820D02*
G03X146654Y265276I820J-544D01*
G01X146818Y265820D02*
G03X146850Y265928I-164J108D01*
G01Y270828*
G03X146752Y270998I-196J-0*
G01X146700Y271030D02*
G03X146752Y270998I544J820D01*
G01X146700Y271030D02*
G03X146591Y271063I-109J-164D01*
G01X145540*
G03X145401Y271005I-0J-197*
G01X134245Y259850*
X132992Y259331D02*
G03X134245Y259850I0J1771D01*
G01X132992Y259331D02*
X129472D01*
X124634*
G03X124495Y259273I0J-197*
G01X123050Y257828*
G03X122992Y257689I139J-139*
G01Y257373*
G03X123123Y257188I197J0*
G01X123780Y256260D02*
G03X123123Y257188I-985J-0D01*
G01X123780Y256260D02*
G03X123976Y256063I196J-0D01*
G01X126678*
G03X126845Y256155I0J197*
G01X127677Y256614D02*
G03X126845Y256155I0J-984D01*
G01X127677Y256614D02*
X129646D01*
X130498Y256122D02*
G03X129646Y256614I-852J-492D01*
G01X130498Y256122D02*
G03X130669Y256024I171J98D01*
G01X136946*
G03X137054Y256056I-0J196*
G01X137598Y256220D02*
G03X137054Y256056I0J-984D01*
G01X137598Y256220D02*
X143504D01*
X144488Y255236D02*
G03X143504Y256220I-984J0D01*
G01X144488Y255236D02*
Y254055D01*
X144432Y253727D02*
G03X144488Y254055I-928J328D01*
G01X144432Y253727D02*
G03Y253596I186J-66D01*
G01X144488Y253268D02*
G03X144432Y253596I-984J-0D01*
G01X144488Y253268D02*
Y252087D01*
X144432Y251759D02*
G03X144488Y252087I-928J328D01*
G01X144432Y251759D02*
G03Y251627I186J-66D01*
G01X144488Y251299D02*
G03X144432Y251627I-984J0D01*
G01X144488Y251299D02*
Y250315D01*
G03X144685Y250118I197J-0*
G01X144775*
G03X144921Y250184I-0J197*
G01Y247297D02*
G03Y250184I1614J1443D01*
G01Y247297D02*
G03X144775Y247362I-146J-132D01*
G01X144685*
G03X144488Y247165I0J-197*
G01Y246181*
X144432Y245853D02*
G03X144488Y246181I-928J328D01*
G01X144432Y245853D02*
G03Y245722I186J-66D01*
G01X144488Y245394D02*
G03X144432Y245722I-984J-0D01*
G01X144488Y245394D02*
Y244409D01*
G03X144685Y244213I197J0*
G01X145079*
X146053Y243809D02*
G03X145079Y244213I-974J-974D01*
G01X146053Y243809D02*
X146959Y242904D01*
X147362Y241929D02*
G03X146959Y242904I-1378J0D01*
G01X147362Y241929D02*
Y224117D01*
G03X147698Y223978I197J-0*
G01X149813Y226092*
X150787Y226496D02*
G03X149813Y226092I0J-1378D01*
G01X150787Y226496D02*
X181299D01*
G03X181496Y226693I0J197*
G01Y227677*
X181552Y228005D02*
G03X181496Y227677I928J-328D01*
G01X181552Y228005D02*
G03Y228136I-185J66D01*
G01X181496Y228465D02*
G03X181552Y228136I984J-0D01*
G01X181496Y228465D02*
Y229646D01*
X181552Y229974D02*
G03X181496Y229646I928J-328D01*
G01X181552Y229974D02*
G03Y230105I-185J65D01*
G01X181496Y230433D02*
G03X181552Y230105I984J0D01*
G01X181496Y230433D02*
Y231614D01*
X181552Y231942D02*
G03X181496Y231614I928J-328D01*
G01X181552Y231942D02*
G03Y232073I-185J66D01*
G01X181496Y232402D02*
G03X181552Y232073I984J-0D01*
G01X181496Y232402D02*
Y233583D01*
X181552Y233911D02*
G03X181496Y233583I928J-328D01*
G01X181552Y233911D02*
G03Y234042I-185J65D01*
G01X181496Y234370D02*
G03X181552Y234042I984J0D01*
G01X181496Y234370D02*
Y235551D01*
X181552Y235879D02*
G03X181496Y235551I928J-328D01*
G01X181552Y235879D02*
G03Y236010I-185J66D01*
G01X181496Y236339D02*
G03X181552Y236011I984J-0D01*
G01X181496Y236339D02*
Y237323D01*
G03X181299Y237520I-197J-0*
G01X181083*
X180108Y237923D02*
G03X181083Y237520I975J975D01*
G01X180108Y237923D02*
X178636Y239396D01*
X178232Y240370D02*
G03X178636Y239396I1378J0D01*
G01X178232Y240370D02*
Y256043D01*
X178636Y257018D02*
G03X178232Y256043I974J-975D01*
G01X178636Y257018D02*
X181820Y260202D01*
G03X181878Y260341I-139J139*
G01Y262806*
G03X181812Y262953I-197J0*
G01X184699D02*
G03X181812I-1443J1614D01*
G01X184699D02*
G03X184634Y262806I132J-147D01*
G01Y259689*
X184230Y258715D02*
G03X184634Y259689I-974J974D01*
G01X184230Y258715D02*
X182031Y256515D01*
G03X182222Y256186I139J-139*
G01X182480Y256220D02*
G03X182222Y256186I0J-984D01*
G01X182480Y256220D02*
X188386D01*
X189370Y255236D02*
G03X188386Y256220I-984J0D01*
G01X189370Y255236D02*
Y254055D01*
X189314Y253727D02*
G03X189370Y254055I-928J328D01*
G01X189314Y253727D02*
G03Y253596I185J-66D01*
G01X189370Y253268D02*
G03X189314Y253596I-984J-0D01*
G01X189370Y253268D02*
Y252424D01*
G03X189706Y252285I197J0*
G01X189903Y252482*
G03X189961Y252621I-139J139*
G01Y256693*
X190364Y257667D02*
G03X189961Y256693I975J-974D01*
G01X190364Y257667D02*
X191939Y259242D01*
X192913Y259646D02*
G03X191939Y259242I0J-1378D01*
G01X192913Y259646D02*
X194056D01*
G03X194226Y259744I-0J197*
G01X194587Y260104D02*
G03X194226Y259744I492J-852D01*
G01X194587Y260104D02*
G03X194685Y260275I-99J171D01*
G01X215433Y127700D02*
Y140318D01*
G03X215090Y140449I-197J-0*
G01X213126Y144031D02*
G03X215090Y140449I350J-2137D01*
G01X213126Y144031D02*
G03X213291Y144225I-32J194D01*
G01Y192555*
X213695Y193529D02*
G03X213291Y192555I974J-974D01*
G01X213695Y193529D02*
X214139Y193974D01*
G03X214197Y194113I-139J139*
G01Y208062*
G03X214131Y208209I-197J0*
G01X214110Y208228D02*
G03X214131Y208209I1465J1595D01*
G01X214110Y208228D02*
G03X213780Y208084I-134J-144D01*
G01Y195354*
X213376Y194380D02*
G03X213780Y195354I-974J974D01*
G01X213376Y194380D02*
X212037Y193041D01*
X211586Y192741D02*
G03X212037Y193041I-523J1275D01*
G01X211586Y192741D02*
G03X211469Y192605I74J-182D01*
G01X210512Y191850D02*
G03X211469Y192605I-0J985D01*
G01X210512Y191850D02*
X206772D01*
G03X206575Y191654I-0J-196*
G01Y188898*
G03X206772Y188701I197J-0*
G01X210512*
X211496Y187717D02*
G03X210512Y188701I-984J-0D01*
G01X211496Y187717D02*
Y185354D01*
X210512Y184370D02*
G03X211496Y185354I-0J984D01*
G01X210512Y184370D02*
X206772D01*
G03X206575Y184173I-0J-197*
G01Y182913*
G03X206929Y182795I197J0*
G01X210624Y180582D02*
G03X206929Y182795I-1963J914D01*
G01X210624Y180582D02*
G03X210774Y180304I179J-83D01*
G01X211614Y179331D02*
G03X210774Y180304I-984J-0D01*
G01X211614Y179331D02*
Y176969D01*
X210630Y175984D02*
G03X211614Y176969I-0J985D01*
G01X210630Y175984D02*
X206772D01*
G03X206575Y175787I-0J-197*
G01Y173032*
G03X206772Y172835I197J-0*
G01X210630*
X211614Y171850D02*
G03X210630Y172835I-984J0D01*
G01X211614Y171850D02*
Y169488D01*
X210630Y168504D02*
G03X211614Y169488I-0J984D01*
G01X210630Y168504D02*
X206693D01*
X205743Y169231D02*
G03X206693Y168504I950J257D01*
G01X205743Y169231D02*
G03X205617Y169366I-190J-52D01*
G01X205089Y169695D02*
G03X205617Y169366I974J974D01*
G01X205089Y169695D02*
X204222Y170561D01*
X203819Y171535D02*
G03X204222Y170561I1378J0D01*
G01X203819Y171535D02*
Y186535D01*
Y197969*
X204222Y198943D02*
G03X203819Y197969I975J-974D01*
G01X204222Y198943D02*
X205722Y200442D01*
G03X205768Y200649I-139J139*
G01X205709Y200984D02*
G03X205768Y200649I984J0D01*
G01X205709Y200984D02*
Y201605D01*
G03X205375Y201746I-197J-0*
G01X201721Y203570D02*
G03X205375Y201746I2149J-267D01*
G01X201721Y203570D02*
G03X201468Y203783I-195J25D01*
G01X201181Y203740D02*
G03X201468Y203783I0J984D01*
G01X201181Y203740D02*
X200787D01*
G03X200591Y203543I0J-197*
G01Y199016*
Y192638*
G03X200787Y192441I196J-0*
G01X201063*
X202047Y191457D02*
G03X201063Y192441I-984J-0D01*
G01X202047Y191457D02*
Y189094D01*
X201063Y188110D02*
G03X202047Y189094I-0J984D01*
G01X201063Y188110D02*
X200787D01*
G03X200591Y187913I0J-197*
G01Y176772*
G03X200787Y176575I196J-0*
G01X201181*
X202165Y175591D02*
G03X201181Y176575I-984J-0D01*
G01X202165Y175591D02*
Y173228D01*
X201181Y172244D02*
G03X202165Y173228I0J984D01*
G01X201181Y172244D02*
X197244D01*
X196260Y173228D02*
G03X197244Y172244I984J0D01*
G01X196260Y173228D02*
Y175591D01*
X197244Y176575D02*
G03X196260Y175591I0J-984D01*
G01X197244Y176575D02*
X197620D01*
G03X197817Y176772I0J197*
G01Y176773*
X197734Y187915*
G03X197537Y188110I-197J-2*
G01X197126*
X196142Y189094D02*
G03X197126Y188110I984J0D01*
G01X196142Y189094D02*
Y191457D01*
X197126Y192441D02*
G03X196142Y191457I-0J-984D01*
G01X197126Y192441D02*
X197638D01*
G03X197835Y192638I-0J197*
G01Y197441*
G03X197638Y197638I-197J-0*
G01X194027*
G03X193841Y197375I-0J-197*
G01X193898Y197047D02*
G03X193841Y197375I-985J0D01*
G01X193898Y197047D02*
Y194685D01*
X192913Y193701D02*
G03X193898Y194685I0J984D01*
G01X192913Y193701D02*
X192520D01*
G03X192323Y193504I-0J-197*
G01Y193493*
G03X192388Y193346I197J-0*
G01X192244Y190000D02*
G03X192388Y193346I-1299J1732D01*
G01X192244Y190000D02*
G03X192362Y189646I118J-157D01*
G01X192598*
X193583Y188661D02*
G03X192598Y189646I-985J0D01*
G01X193583Y188661D02*
Y179297D01*
G03X193591Y179241I197J-0*
G01X193681Y178622D02*
G03X193591Y179241I-2165J0D01*
G01X193681Y178622D02*
Y163976D01*
G03X193878Y163780I197J0*
G01X203351*
G03X203518Y163871I0J196*
G01X204350Y164331D02*
G03X203518Y163871I0J-985D01*
G01X204350Y164331D02*
X207303D01*
X208287Y163346D02*
G03X207303Y164331I-984J0D01*
G01X208287Y163346D02*
Y157913D01*
X207303Y156929D02*
G03X208287Y157913I0J984D01*
G01X207303Y156929D02*
X204350D01*
X203366Y157913D02*
G03X204350Y156929I984J0D01*
G01X203366Y157913D02*
Y159252D01*
G03X203169Y159449I-197J-0*
G01X191516*
X190535*
G03X190341Y159219I-0J-197*
G01X190354Y159055D02*
G03X190341Y159219I-984J0D01*
G01X190354Y159055D02*
Y156693D01*
X190170Y156119D02*
G03X190354Y156693I-800J574D01*
G01X190170Y156119D02*
G03Y155889I159J-115D01*
G01X190354Y155315D02*
G03X190170Y155889I-984J-0D01*
G01X190354Y155315D02*
Y152953D01*
X189370Y151968D02*
G03X190354Y152953I0J985D01*
G01X189370Y151968D02*
X188976D01*
G03X188780Y151772I0J-196*
G01Y149826*
G03X189116Y149686I196J-0*
G01X189183Y149754*
X190157Y150158D02*
G03X189183Y149754I0J-1378D01*
G01X190157Y150158D02*
X194488D01*
X194488D02*
G03X194685Y150354I0J196D01*
G01Y150394*
X195669Y151378D02*
G03X194685Y150394I0J-984D01*
G01X195669Y151378D02*
X198819D01*
X199553Y151050D02*
G03X198819Y151378I-734J-656D01*
G01X199553Y151050D02*
G03X199699Y150984I146J131D01*
G01X200709*
G03X200905Y151181I-0J197*
G01Y155118*
X201890Y156102D02*
G03X200905Y155118I-0J-984D01*
G01X201890Y156102D02*
X209882D01*
X210866Y155118D02*
G03X209882Y156102I-984J0D01*
G01X210866Y155118D02*
Y147953D01*
X209882Y146968D02*
G03X210866Y147953I-0J985D01*
G01X209882Y146968D02*
X209252D01*
G03X209055Y146772I-0J-196*
G01Y145984*
X208399Y145056D02*
G03X209055Y145984I-328J928D01*
G01X208399Y145056D02*
G03X208268Y144871I66J-185D01*
G01Y141063*
G03X208465Y140866I197J0*
G01X210354*
X211339Y139882D02*
G03X210354Y140866I-985J-0D01*
G01X211339Y139882D02*
Y130984D01*
X210354Y130000D02*
G03X211339Y130984I0J984D01*
G01X210354Y130000D02*
X208465D01*
G03X208268Y129803I-0J-197*
G01Y126378*
X207634Y124847D02*
G03X208268Y126378I-1532J1531D01*
G01X207634Y124847D02*
X200225Y117438D01*
G03X200169Y117327I139J-139*
G01X195144Y116193D02*
G03X200169Y117327I2297J1524D01*
G01X195144Y116193D02*
G03X194816I-164J-109D01*
G01X190223D02*
G03X194816I2297J1524D01*
G01X190223D02*
G03X189895I-164J-109D01*
G01X185302D02*
G03X189895I2296J1524D01*
G01X185302D02*
G03X184974I-164J-109D01*
G01X180381D02*
G03X184974I2296J1524D01*
G01X180381D02*
G03X180052I-164J-109D01*
G01X175459D02*
G03X180052I2297J1524D01*
G01X175459D02*
G03X175131I-164J-109D01*
G01X170538D02*
G03X175131I2297J1524D01*
G01X170538D02*
G03X170210I-164J-109D01*
G01X166260Y119921D02*
G03X170210Y116193I1653J-2204D01*
G01X166260Y119921D02*
G03X166339Y120079I-118J158D01*
G01Y127362*
G03X166142Y127559I-197J0*
G01X165157Y128543D02*
G03X166142Y127559I985J0D01*
G01X165157Y128543D02*
Y130906D01*
X166142Y131890D02*
G03X165157Y130906I-0J-984D01*
G01X166142Y131890D02*
X170079D01*
X171007Y131234D02*
G03X170079Y131890I-928J-328D01*
G01X171007Y131234D02*
G03X171192Y131102I185J65D01*
G01X173577*
G03X173762Y131233I-0J197*
G01X174689Y131886D02*
G03X173762Y131233I-0J-984D01*
G01X174689Y131886D02*
X176461D01*
X177445Y130902D02*
G03X176461Y131886I-984J-0D01*
G01X177445Y130902D02*
Y128579D01*
X176461Y127594D02*
G03X177445Y128579I-0J985D01*
G01X176461Y127594D02*
X174689D01*
X173772Y128221D02*
G03X174689Y127594I917J358D01*
G01X173772Y128221D02*
G03X173589Y128346I-183J-71D01*
G01X171192*
G03X171007Y128215I0J-196*
G01X170079Y127559D02*
G03X171007Y128215I-0J984D01*
G01X170079Y127559D02*
G03X169882Y127362I-0J-197D01*
G01Y119724*
G03X169934Y119590I197J0*
G01X170210Y119240D02*
G03X169934Y119590I-2297J-1523D01*
G01X170210Y119240D02*
G03X170538I164J109D01*
G01X175131D02*
G03X170538I-2296J-1523D01*
G01X175131D02*
G03X175459I164J109D01*
G01X180052D02*
G03X175459I-2296J-1523D01*
G01X180052D02*
G03X180381I165J109D01*
G01X184974D02*
G03X180381I-2297J-1523D01*
G01X184974D02*
G03X185302I164J109D01*
G01X189895D02*
G03X185302I-2297J-1523D01*
G01X189895D02*
G03X190223I164J109D01*
G01X194816D02*
G03X190223I-2296J-1523D01*
G01X194816D02*
G03X195144I164J109D01*
G01X197051Y120445D02*
G03X195144Y119240I390J-2728D01*
G01X197051Y120445D02*
G03X197163Y120500I-28J195D01*
G01X203879Y127217*
G03X203937Y127356I-139J139*
G01Y129803*
G03X203740Y130000I-197J0*
G01X201850*
X200866Y130984D02*
G03X201850Y130000I984J0D01*
G01X200866Y130984D02*
Y139882D01*
X201850Y140866D02*
G03X200866Y139882I0J-984D01*
G01X201850Y140866D02*
X203740D01*
G03X203937Y141063I0J197*
G01Y144803*
G03X203740Y145000I-197J0*
G01X202756Y145984D02*
G03X203740Y145000I984J0D01*
G01X202756Y145984D02*
Y146457D01*
G03X202559Y146654I-197J-0*
G01X199699*
G03X199553Y146588I0J-197*
G01X198819Y146260D02*
G03X199553Y146588I-0J984D01*
G01X198819Y146260D02*
X195669D01*
X194686Y147211D02*
G03X195669Y146260I983J33D01*
G01X194686Y147211D02*
G03X194489Y147402I-197J-6D01*
G01X190810*
G03X190671Y147344I-0J-197*
G01X186801Y143474*
X185813Y143071D02*
G03X186801Y143474I14J1378D01*
G01X185813Y143071D02*
X183887Y143090D01*
G03X183717Y142995I-2J-197*
G01X182874Y142520D02*
G03X183717Y142995I0J984D01*
G01X182874Y142520D02*
X180906D01*
X180249Y142770D02*
G03X180906Y142520I657J734D01*
G01X180249Y142770D02*
G03X179987I-131J-146D01*
G01X179331Y142520D02*
G03X179987Y142770I-0J984D01*
G01X179331Y142520D02*
X177362D01*
X176706Y142770D02*
G03X177362Y142520I656J734D01*
G01X176706Y142770D02*
G03X176444I-131J-146D01*
G01X175787Y142520D02*
G03X176444Y142770I0J984D01*
G01X175787Y142520D02*
X173819D01*
X172835Y143504D02*
G03X173819Y142520I984J-0D01*
G01X172835Y143504D02*
Y145472D01*
X172966Y145965D02*
G03X172835Y145472I853J-493D01*
G01X172966Y145965D02*
G03Y146161I-170J98D01*
G01X172835Y146654D02*
G03X172966Y146161I984J-0D01*
G01X172835Y146654D02*
Y148622D01*
X173819Y149606D02*
G03X172835Y148622I-0J-984D01*
G01X173819Y149606D02*
X175787D01*
X176444Y149356D02*
G03X175787Y149606I-657J-734D01*
G01X176444Y149356D02*
G03X176706I131J146D01*
G01X177362Y149606D02*
G03X176706Y149356I0J-984D01*
G01X177362Y149606D02*
X179331D01*
X179987Y149356D02*
G03X179331Y149606I-656J-734D01*
G01X179987Y149356D02*
G03X180249I131J146D01*
G01X180906Y149606D02*
G03X180249Y149356I-0J-984D01*
G01X180906Y149606D02*
X182874D01*
X183726Y149114D02*
G03X182874Y149606I-852J-492D01*
G01X183726Y149114D02*
G03X183897Y149016I171J99D01*
G01X184781*
G03X184920Y149073I-0J197*
G01X185966Y150119*
G03X186024Y150259I-139J140*
G01Y151772*
G03X185827Y151968I-197J-0*
G01X185433*
X184449Y152953D02*
G03X185433Y151968I984J-0D01*
G01X184449Y152953D02*
Y155315D01*
X184634Y155889D02*
G03X184449Y155315I799J-574D01*
G01X184634Y155889D02*
G03Y156119I-160J115D01*
G01X184449Y156693D02*
G03X184634Y156119I984J-0D01*
G01X184449Y156693D02*
Y159055D01*
X184634Y159629D02*
G03X184449Y159055I799J-574D01*
G01X184634Y159629D02*
G03Y159859I-160J115D01*
G01X184449Y160433D02*
G03X184634Y159859I984J0D01*
G01X184449Y160433D02*
Y162795D01*
X185433Y163780D02*
G03X184449Y162795I0J-985D01*
G01X185433Y163780D02*
X189154D01*
G03X189350Y163976I-0J196*
G01Y167402*
G03X189154Y167598I-196J-0*
G01X185709*
X184724Y168583D02*
G03X185709Y167598I985J-0D01*
G01X184724Y168583D02*
Y170491D01*
G03X184481Y170682I-196J-0*
G01X180637D02*
G03X184481I1922J7940D01*
G01X180637D02*
G03X180394Y170491I-46J-191D01*
G01Y168583*
X179409Y167598D02*
G03X180394Y168583I0J985D01*
G01X179409Y167598D02*
X175965D01*
G03X175768Y167402I-0J-196*
G01Y163976*
G03X175965Y163780I197J0*
G01X177953*
X179921*
X180906Y162795D02*
G03X179921Y163780I-985J0D01*
G01X180906Y162795D02*
Y160433D01*
X179921Y159449D02*
G03X180906Y160433I0J984D01*
G01X179921Y159449D02*
X175984D01*
X173602*
X169384*
G03X169294Y159077I0J-197*
G01X170327Y156370D02*
G03X169294Y159077I-2020J780D01*
G01X170327Y156370D02*
G03X170511Y156102I184J-71D01*
G01X172441*
X173293Y155610D02*
G03X172441Y156102I-852J-492D01*
G01X173293Y155610D02*
G03X173464Y155512I171J99D01*
G01X174871*
G03X175056Y155643I-0J197*
G01X175984Y156299D02*
G03X175056Y155643I0J-984D01*
G01X175984Y156299D02*
X179921D01*
X180906Y155315D02*
G03X179921Y156299I-985J-0D01*
G01X180906Y155315D02*
Y152953D01*
X179921Y151968D02*
G03X180906Y152953I0J985D01*
G01X179921Y151968D02*
X175984D01*
X175056Y152625D02*
G03X175984Y151968I928J328D01*
G01X175056Y152625D02*
G03X174871Y152756I-185J-66D01*
G01X173464*
G03X173293Y152657I-0J-197*
G01X172441Y152165D02*
G03X173293Y152657I-0J985D01*
G01X172441Y152165D02*
X170472D01*
X169980Y152297D02*
G03X170472Y152165I492J853D01*
G01X169980Y152297D02*
G03X169783I-98J-170D01*
G01X169291Y152165D02*
G03X169783Y152297I0J985D01*
G01X169291Y152165D02*
X167323D01*
X166667Y152416D02*
G03X167323Y152165I656J734D01*
G01X166667Y152416D02*
G03X166339Y152269I-132J-147D01*
G01Y146890*
X165704Y145358D02*
G03X166339Y146890I-1531J1532D01*
G01X165704Y145358D02*
X163264Y142918D01*
X161732Y142283D02*
G03X163264Y142918I0J2166D01*
G01X161732Y142283D02*
X145827D01*
G03X145630Y142087I-0J-196*
G01Y135880*
G03X145696Y135734I197J0*
G01X145967Y135328D02*
G03X145696Y135734I-928J-328D01*
G01X145967Y135328D02*
G03X146153Y135197I186J66D01*
G01X147772*
G03X147881Y135230I0J197*
G01X148425Y135394D02*
G03X147881Y135230I0J-985D01*
G01X148425Y135394D02*
X150394D01*
X150886Y135262D02*
G03X150394Y135394I-492J-853D01*
G01X150886Y135262D02*
G03X151083I98J170D01*
G01X151575Y135394D02*
G03X151083Y135262I-0J-985D01*
G01X151575Y135394D02*
X153543D01*
X154087Y135230D02*
G03X153543Y135394I-544J-821D01*
G01X154087Y135230D02*
G03X154196Y135197I109J164D01*
G01X155779*
G03X155931Y135269I-0J197*
G01X156693Y135630D02*
G03X155931Y135269I-0J-984D01*
G01X156693Y135630D02*
X160630D01*
X161614Y134646D02*
G03X160630Y135630I-984J-0D01*
G01X161614Y134646D02*
Y132283D01*
X160630Y131299D02*
G03X161614Y132283I-0J984D01*
G01X160630Y131299D02*
X156693D01*
X155990Y131594D02*
G03X156693Y131299I703J689D01*
G01X155990Y131594D02*
G03X155849Y131654I-141J-137D01*
G01X154196*
G03X154087Y131621I0J-197*
G01X153543Y131457D02*
G03X154087Y131621I0J984D01*
G01X153543Y131457D02*
X151575D01*
X151083Y131589D02*
G03X151575Y131457I492J852D01*
G01X151083Y131589D02*
G03X150886I-99J-171D01*
G01X150394Y131457D02*
G03X150886Y131589I-0J984D01*
G01X150394Y131457D02*
X148425D01*
X147881Y131621D02*
G03X148425Y131457I544J820D01*
G01X147881Y131621D02*
G03X147772Y131654I-109J-164D01*
G01X146153*
G03X145967Y131522I-0J-197*
G01X145728Y131147D02*
G03X145967Y131522I-689J703D01*
G01X145728Y131147D02*
G03X145669Y131007I138J-140D01*
G01Y119488*
G03X145709Y119370I197J0*
G01X141207Y116193D02*
G03X145709Y119370I2297J1524D01*
G01X141207Y116193D02*
G03X140879I-164J-109D01*
G01X140120Y115429D02*
G03X140879Y116193I-1537J2288D01*
G01X140120Y115429D02*
G03X140090Y115126I109J-163D01*
G01X141025Y114192*
G03X141164Y114134I139J139*
G01X201867*
G03X202007Y114192I0J197*
G01X215375Y127560*
G03X215433Y127700I-139J140*
G01X216732Y211981D02*
Y230529D01*
G03X216675Y230668I-197J-0*
G01X207833Y239509*
G03X207694Y239567I-139J-139*
G01X204369*
G03X204199Y239468I0J-197*
G01X203346Y238976D02*
G03X204199Y239468I0J985D01*
G01X203346Y238976D02*
X202451D01*
G03X202325Y238629I0J-196*
G01X202545Y238366D02*
G03X202325Y238629I-852J-492D01*
G01X202545Y238366D02*
G03X202716Y238268I171J99D01*
G01X207362*
X208337Y237864D02*
G03X207362Y238268I-975J-974D01*
G01X208337Y237864D02*
X213376Y232825D01*
X213780Y231850D02*
G03X213376Y232825I-1378J0D01*
G01X213780Y231850D02*
Y211562D01*
G03X214110Y211417I196J0*
G01X216455Y211801D02*
G03X214110Y211417I-880J-1978D01*
G01X216455Y211801D02*
G03X216732Y211981I80J180D01*
G01X220866Y109843D02*
G03X220866I-4724J0D01*
G01X117480Y256260D02*
Y253110D01*
X116496Y252126D02*
G03X117480Y253110I0J984D01*
G01X116496Y252126D02*
X113346D01*
X112362Y253110D02*
G03X113346Y252126I984J0D01*
G01X112362Y253110D02*
Y256260D01*
X113346Y257244D02*
G03X112362Y256260I0J-984D01*
G01X113346Y257244D02*
X116496D01*
X117480Y256260D02*
G03X116496Y257244I-984J-0D01*
G01X114567Y320472D02*
G03X114567I-4724J0D01*
G01Y109843D02*
G03X114567I-4724J0D01*
G01X139724Y135000D02*
Y131850D01*
X138740Y130866D02*
G03X139724Y131850I0J984D01*
G01X138740Y130866D02*
X135591D01*
X134606Y131850D02*
G03X135591Y130866I985J0D01*
G01X134606Y131850D02*
Y135000D01*
X135591Y135984D02*
G03X134606Y135000I-0J-984D01*
G01X135591Y135984D02*
X138740D01*
X139724Y135000D02*
G03X138740Y135984I-984J0D01*
G01X136969Y145630D02*
Y143268D01*
X135984Y142283D02*
G03X136969Y143268I0J985D01*
G01X135984Y142283D02*
X132047D01*
X128139*
G03X127944Y142060I0J-196*
G01X127953Y141929D02*
G03X127944Y142060I-984J0D01*
G01X127953Y141929D02*
Y139961D01*
X126969Y138976D02*
G03X127953Y139961I-0J985D01*
G01X126969Y138976D02*
X125000D01*
X124180Y139417D02*
G03X125000Y138976I820J544D01*
G01X124180Y139417D02*
G03X123852I-164J-109D01*
G01X123031Y138976D02*
G03X123852Y139417I0J985D01*
G01X123031Y138976D02*
X121063D01*
X120079Y139961D02*
G03X121063Y138976I984J-0D01*
G01X120079Y139961D02*
Y141929D01*
X120211Y142421D02*
G03X120079Y141929I852J-492D01*
G01X120211Y142421D02*
G03Y142618I-171J99D01*
G01X120079Y143110D02*
G03X120211Y142618I984J0D01*
G01X120079Y143110D02*
Y143505D01*
G03X120062Y143583I-197J-0*
G01X119882Y144449D02*
G03X120062Y143583I2165J-0D01*
G01X119882Y144449D02*
Y146457D01*
Y149120*
G03X119816Y149266I-197J-0*
G01X119488Y150000D02*
G03X119816Y149266I984J0D01*
G01X119488Y150000D02*
Y153150D01*
X120472Y154134D02*
G03X119488Y153150I0J-984D01*
G01X120472Y154134D02*
X123622D01*
X124606Y153150D02*
G03X123622Y154134I-984J-0D01*
G01X124606Y153150D02*
Y150000D01*
X124278Y149266D02*
G03X124606Y150000I-656J734D01*
G01X124278Y149266D02*
G03X124213Y149120I131J-146D01*
G01Y146811*
G03X124409Y146614I196J0*
G01X125984*
X134016*
X135984*
X136969Y145630D02*
G03X135984Y146614I-985J-0D01*
G01X201181Y320472D02*
G03X201181I-4724J0D01*
G01X185630Y307087D02*
Y298425D01*
X184646Y297441D02*
G03X185630Y298425I-0J984D01*
G01X184646Y297441D02*
X176772D01*
X175787Y298425D02*
G03X176772Y297441I985J0D01*
G01X175787Y298425D02*
Y307087D01*
X176772Y308071D02*
G03X175787Y307087I-0J-984D01*
G01X176772Y308071D02*
X184646D01*
X185630Y307087D02*
G03X184646Y308071I-984J-0D01*
G01X183661Y324409D02*
Y316535D01*
X182677Y315551D02*
G03X183661Y316535I0J984D01*
G01X182677Y315551D02*
X176772D01*
X175787Y316535D02*
G03X176772Y315551I985J0D01*
G01X175787Y316535D02*
Y324409D01*
X176772Y325394D02*
G03X175787Y324409I-0J-985D01*
G01X176772Y325394D02*
X182677D01*
X183661Y324409D02*
G03X182677Y325394I-984J0D01*
G01X170276Y294882D02*
Y287795D01*
X169291Y286811D02*
G03X170276Y287795I0J984D01*
G01X169291Y286811D02*
X164567D01*
X163583Y287795D02*
G03X164567Y286811I984J0D01*
G01X163583Y287795D02*
Y294882D01*
X164567Y295866D02*
G03X163583Y294882I-0J-984D01*
G01X164567Y295866D02*
X169291D01*
X170276Y294882D02*
G03X169291Y295866I-985J-0D01*
G01X171260Y304724D02*
G03X171260I-4331J0D01*
G01X166910Y330709D02*
G03X166948I19J-4331D01*
G01X166910D02*
G03X166929Y330710I-0J196D01*
X166948Y330709I20J195*
G01X158071Y324409D02*
Y316535D01*
X157087Y315551D02*
G03X158071Y316535I-0J984D01*
G01X157087Y315551D02*
X151181D01*
X150197Y316535D02*
G03X151181Y315551I984J0D01*
G01X150197Y316535D02*
Y324409D01*
X151181Y325394D02*
G03X150197Y324409I0J-985D01*
G01X151181Y325394D02*
X157087D01*
X158071Y324409D02*
G03X157087Y325394I-984J0D01*
G01X166732Y169488D02*
Y166339D01*
X165748Y165354D02*
G03X166732Y166339I0J985D01*
G01X165748Y165354D02*
X162598D01*
X161614Y166339D02*
G03X162598Y165354I984J-0D01*
G01X161614Y166339D02*
Y169488D01*
X162598Y170472D02*
G03X161614Y169488I0J-984D01*
G01X162598Y170472D02*
X165748D01*
X166732Y169488D02*
G03X165748Y170472I-984J0D01*
G01X159591Y152957D02*
Y150634D01*
X158606Y149650D02*
G03X159591Y150634I0J984D01*
G01X158606Y149650D02*
X156835D01*
X155850Y150634D02*
G03X156835Y149650I985J-0D01*
G01X155850Y150634D02*
Y152957D01*
X156835Y153941D02*
G03X155850Y152957I-0J-984D01*
G01X156835Y153941D02*
X158606D01*
X159591Y152957D02*
G03X158606Y153941I-985J-0D01*
G01X153516Y152949D02*
Y150626D01*
X152531Y149642D02*
G03X153516Y150626I0J984D01*
G01X152531Y149642D02*
X150760D01*
X149776Y150626D02*
G03X150760Y149642I984J-0D01*
G01X149776Y150626D02*
Y152949D01*
X150760Y153933D02*
G03X149776Y152949I-0J-984D01*
G01X150760Y153933D02*
X152531D01*
X153516Y152949D02*
G03X152531Y153933I-985J-0D01*
G01X205669Y221811D02*
Y218661D01*
X204685Y217677D02*
G03X205669Y218661I0J984D01*
G01X204685Y217677D02*
X201535D01*
X200551Y218661D02*
G03X201535Y217677I984J0D01*
G01X200551Y218661D02*
Y221811D01*
X201535Y222795D02*
G03X200551Y221811I0J-984D01*
G01X201535Y222795D02*
X204685D01*
X205669Y221811D02*
G03X204685Y222795I-984J0D01*
G01X192047Y139882D02*
Y130984D01*
X191063Y130000D02*
G03X192047Y130984I-0J984D01*
G01X191063Y130000D02*
X182559D01*
X181575Y130984D02*
G03X182559Y130000I984J0D01*
G01X181575Y130984D02*
Y139882D01*
X182559Y140866D02*
G03X181575Y139882I0J-984D01*
G01X182559Y140866D02*
X191063D01*
X192047Y139882D02*
G03X191063Y140866I-984J-0D01*
G01X177445Y139209D02*
Y136886D01*
X176461Y135902D02*
G03X177445Y136886I-0J984D01*
G01X176461Y135902D02*
X174689D01*
X173705Y136886D02*
G03X174689Y135902I984J-0D01*
G01X173705Y136886D02*
Y139209D01*
X174689Y140193D02*
G03X173705Y139209I-0J-984D01*
G01X174689Y140193D02*
X176461D01*
X177445Y139209D02*
G03X176461Y140193I-984J-0D01*
G01X171063Y138386D02*
Y136024D01*
X170079Y135039D02*
G03X171063Y136024I-0J985D01*
G01X170079Y135039D02*
X166142D01*
X165157Y136024D02*
G03X166142Y135039I985J-0D01*
G01X165157Y136024D02*
Y138386D01*
X165989Y139358D02*
G03X165157Y138386I153J-972D01*
G01X165989Y139358D02*
G03X166138Y139634I-30J195D01*
G01X170083D02*
G03X166138I-1973J894D01*
G01X170083D02*
G03X170231Y139358I179J-81D01*
G01X171063Y138386D02*
G03X170231Y139358I-984J-0D01*
G01X199803Y156693D02*
Y153543D01*
X198819Y152559D02*
G03X199803Y153543I-0J984D01*
G01X198819Y152559D02*
X195669D01*
X194685Y153543D02*
G03X195669Y152559I984J0D01*
G01X194685Y153543D02*
Y156693D01*
X195669Y157677D02*
G03X194685Y156693I0J-984D01*
G01X195669Y157677D02*
X198819D01*
X199803Y156693D02*
G03X198819Y157677I-984J-0D01*
G01X100000Y100000D02*
X225984D01*
Y332283*
X100000*
Y100000*
G54D21*
X117028Y176575D03*
Y196654D03*
G54D22*
X167913Y117717D02*
X168110Y117913D01*
Y129724*
X149409Y133425D02*
X143465D01*
X152559D02*
X158622D01*
X158661Y133465*
X124764Y212835D02*
X124803Y212874D01*
Y216535*
X128346Y176378D02*
X123228Y181496D01*
X117008*
X124803Y216535D02*
Y222539D01*
X124705Y222638*
X222047Y168898D02*
Y196457D01*
Y224016D02*
Y216929D01*
Y235433*
X213386Y244094*
X222047Y196457D02*
Y224016D01*
X129472Y291386D02*
Y279173D01*
X140512*
X129472Y261102D02*
X132992D01*
X144724Y272835*
X148228*
X129472Y261102D02*
Y279173D01*
X118386Y239370D02*
X121280D01*
X121319Y239409*
X118386Y247638D02*
X121220D01*
Y254685*
X124705Y232087D02*
Y234213D01*
X121319Y237598*
Y239409*
X121220Y254685D02*
Y258504D01*
X123819Y261102*
X129472*
X213386Y244094D02*
Y249528D01*
Y273622*
X202362Y244094D02*
X213386D01*
G54D23*
X133661Y117717D02*
Y123031D01*
X133858Y123228*
X179071Y138047D02*
X175575D01*
X202520Y112756D02*
X140512D01*
X138583Y114685*
Y117717*
X202520Y112756D02*
X216811Y127047D01*
Y189646*
X218110Y190945*
Y231181*
X208346Y240945*
X168110Y129724D02*
X175559D01*
X175575Y129740*
X168110Y137205D02*
Y140528D01*
X129646Y208898D02*
Y238780D01*
X139138Y184047D02*
X134252D01*
Y184055*
X139138Y184047D02*
X144713Y189622D01*
Y194618*
X144724*
X152165Y202059*
Y217441*
X128346Y176378D02*
X133583D01*
X117224Y218949D02*
Y222638D01*
X129646Y202362D02*
Y208898D01*
Y208622*
X134016Y151929D02*
X134252Y152165D01*
Y159449*
X117008Y189173D02*
X122441D01*
X124213Y190945*
X131102*
X117008Y186614D02*
X124016D01*
X124606Y187205*
X131102*
X134252Y159449D02*
X134213D01*
Y164213*
X142874Y172874*
Y174724*
X147992Y179843*
Y187520*
X134252Y190945D02*
Y194094D01*
Y225079*
X136260Y227087*
X140551*
X136732Y173228D02*
Y176378D01*
X134252Y187205D02*
X137008D01*
X139724Y189921*
Y225118*
X140551*
X131102Y184055D02*
X117008D01*
X136732Y176378D02*
X139921D01*
X141890Y178346*
Y181496*
X117236Y215047D02*
X117224Y216831D01*
Y218949*
X125984Y144094D02*
Y144449D01*
X122047Y144094D02*
Y146457D01*
X157728Y159988D02*
Y160094D01*
X157720Y160102*
X157728Y159988D02*
Y170083D01*
X157717Y170094*
X160189Y172567*
Y197732*
X162362Y199906*
Y203543*
X151646Y160094D02*
Y167358D01*
X157638Y173350*
Y203543*
X170866Y201181D02*
Y207283D01*
X171850Y208268*
Y217441*
X199213Y199016D02*
Y205906D01*
X143268Y210118D02*
Y220551D01*
X145984Y223268*
Y241929*
X145079Y242835*
X140551*
X190945Y191732D02*
Y195866D01*
X167323Y173622D02*
Y179134D01*
X168110Y179921*
Y208465*
X169882Y210236*
Y217441*
X164094Y181496D02*
X165945Y183346D01*
Y210000*
X167913Y211969*
Y217441*
X157728Y157689D02*
Y159988D01*
X151642Y157673D02*
X151646Y157677D01*
Y160094*
X205197Y186535D02*
Y197969D01*
X207165Y199937*
Y202165*
X208661*
X205197Y186535D02*
X208543D01*
X196811Y216929D02*
Y220236D01*
X203870Y203303D02*
Y210433D01*
X207677Y214252*
Y225787*
X203937Y229528*
X195157*
X189724Y234961*
X185433*
X150315Y170315D02*
Y174567D01*
X150354*
X154134Y178346*
Y217441*
X173819D02*
Y217244D01*
Y222559*
X213476Y141894D02*
X214669Y143087D01*
Y192555*
X215575Y193461*
Y209823*
X185827Y144449D02*
X190157Y148780D01*
X197205*
X197244Y148819*
X185827Y144449D02*
X181890Y144488D01*
X144685Y206811D02*
Y208701D01*
X143268Y210118*
X176169Y206685D02*
X176150Y206705D01*
X175787*
Y217441*
X179319Y206685D02*
X180555D01*
X183693Y209823*
X157638Y206693D02*
X157598Y206732D01*
Y208661*
X156102Y210157*
Y217441*
X162362Y206693D02*
X162008D01*
Y217441*
X143465Y151929D02*
X144567D01*
Y172913*
X151669Y180016*
Y197461*
X199094Y190276D02*
X199213Y174409D01*
Y199016*
X208661Y170669D02*
X206063D01*
X205197Y171535*
Y186535*
X208661Y178150D02*
Y181496D01*
X173602Y178622D02*
Y194469D01*
X148228Y217441D02*
Y222559D01*
X150787Y225118*
X185433*
X171457Y154134D02*
X177953D01*
X168307D02*
Y157150D01*
X173602Y194469D02*
X173622Y194291D01*
X183858*
X188583Y199016*
X199213*
X173622Y197441D02*
X176142D01*
X178346Y199646*
X190945Y212205D02*
Y214055D01*
X189134Y215866*
X177756*
Y217441*
X174803Y147638D02*
X178346D01*
Y144488D02*
X181890D01*
X178346Y147638D02*
X181890D01*
X181496Y199606D02*
X181457Y199646D01*
X178346*
X190945Y203346D02*
Y209055D01*
X208661Y202165D02*
Y205933D01*
X208654Y205941*
X208661Y209646D02*
X209882D01*
Y228268*
X204803Y233346*
X200709*
X208543Y194016D02*
X211063D01*
X212402Y195354*
Y231850*
X207362Y236890*
X200709*
X148228Y206811D02*
Y217441D01*
X181890Y147638D02*
X185433D01*
X187402Y149606*
Y154134*
X134409Y250669D02*
X140512D01*
X140551Y250709*
X126496Y242638D02*
Y242835D01*
X126417Y242913*
X126496Y242638D02*
Y245984D01*
X124843Y247638*
X118386*
X123961Y297291D02*
X126181D01*
X128150Y299260*
Y304291*
X129213Y305354*
X129472Y291386D02*
X129433Y291425D01*
X123961*
X132622Y291386D02*
Y297291D01*
X126496Y238780D02*
Y242638D01*
X129646Y238780D02*
X129764Y238898D01*
X140551*
X124705Y222638D02*
Y225394D01*
X123110Y226988*
X113898*
X108720Y232165*
Y258780*
X110846Y260906*
X113110*
X123961Y291425D02*
Y297291D01*
X128661Y254646D02*
X128622Y254685D01*
X121220*
X213386Y273622D02*
X203465D01*
X201102Y275984*
X196063*
X183465*
X153150Y298819D02*
X144094D01*
X142913Y300000*
Y301969*
X195276Y244094D02*
X199213D01*
X213386Y249528D02*
Y249567D01*
X213346Y249606*
X183465Y275984D02*
X180315D01*
X140551Y254646D02*
X128661D01*
X140551Y248740D02*
X146535D01*
X140551Y242835D02*
Y242913D01*
X129567*
X185433Y238937D02*
Y238898D01*
X181083*
X179610Y240370*
Y256043*
X183256Y259689*
Y264567*
X185433Y240866D02*
X195984D01*
X199213Y240945*
X185433Y242835D02*
X189370D01*
X194567Y248031*
X196063*
X185433Y250709D02*
X185512Y250787D01*
X190157*
X191339Y251969*
Y256693*
X192913Y258268*
X196063*
X177756Y262323D02*
Y265906D01*
X183465Y271614*
Y272835*
X175787Y262323D02*
Y266575D01*
X180315Y271102*
Y272835*
X171850Y262323D02*
Y272953D01*
X167913Y262323D02*
X168071D01*
Y273622*
X165945Y262323D02*
X165787D01*
Y276969*
X163976Y262323D02*
Y274567D01*
X163228Y275315*
Y280709*
X162008Y262323D02*
Y273307D01*
X160118Y275197*
Y285039*
X154803Y290354*
Y297992*
X153425*
X153150Y298819*
X160039Y262323D02*
Y271929D01*
X155965Y276004*
X155933*
X140551Y291386*
X132622*
X148228Y262323D02*
Y272835D01*
X196063Y248031D02*
Y251181D01*
X199213Y254331D02*
X202835D01*
X197559Y233346D02*
X197480Y233425D01*
X194685*
X191220Y236890*
X185433*
Y236929*
X197559Y236890D02*
X197480Y236969D01*
X194449*
X192480Y238937*
X185433*
X202362Y240945D02*
X208346D01*
X196811Y220236D02*
X196102D01*
Y224370*
X196063Y225118*
Y251181D02*
Y254331D01*
Y258268D02*
Y275984D01*
X171850Y272953D02*
X174094D01*
X177126Y275984*
X180315*
X199213Y240945D02*
X202362D01*
X196063Y225118D02*
X185433D01*
X123961Y302409D02*
X123622D01*
Y319882*
X124902Y321850*
X143602*
X142913Y305118D02*
X142677Y305354D01*
X129213*
G54D24*
X197441Y117717D02*
X206102Y126378D01*
Y135433*
Y148819*
X143504Y117717D02*
Y133386D01*
X143465Y133425*
Y144449*
X122047Y146457D02*
Y151575D01*
X125984Y144449D02*
X122047D01*
Y146457*
Y157874D02*
Y161417D01*
X128346Y167717*
Y176378*
X134016Y144449D02*
X125984D01*
X173602Y161614D02*
Y178622D01*
X187402Y161614D02*
X191516D01*
Y178622*
X206102Y148819D02*
Y150354D01*
X205906Y150551*
X206102Y148819D02*
X197244D01*
X143465Y144449D02*
X161732D01*
X164173Y146890*
Y161614*
X205827Y160630D02*
X204843Y161614D01*
X191516*
X177953D02*
X173602D01*
X164173*
X115748Y129528D03*
X137008Y133465D03*
X103937Y119685D03*
X119685Y103937D03*
X133465Y139370D03*
X133858Y123228D03*
X179071Y138047D03*
X162992Y103937D03*
X141339D03*
X206299D03*
X210236Y124803D03*
X149213Y127559D03*
X153150Y117717D03*
X183858Y132677D03*
Y138189D03*
X184646Y103937D03*
X196457Y124409D03*
X147854Y139362D03*
X222047Y119685D03*
X124764Y212835D03*
X103937Y204331D03*
Y190551D03*
Y182677D03*
X115748Y162992D03*
X131102Y198425D03*
X103937Y147244D03*
X137008Y208268D03*
X127559Y149213D03*
X137008Y198425D03*
X117224Y218949D03*
X129646Y202362D03*
X129528Y161024D03*
X125591Y203543D03*
X183693Y209823D03*
X215575D03*
X168110Y140528D03*
X141339Y164961D03*
X195669Y177953D03*
Y185433D03*
X195276Y193307D03*
X153937Y174646D03*
X182677Y158268D03*
X164173Y167717D03*
X162992Y176772D03*
X197244Y155118D03*
X170866Y201181D03*
X148425Y193307D03*
X162992Y186614D03*
X163106Y194520D03*
X169406Y147457D03*
X159055Y212205D03*
X143701Y198819D03*
X151669Y197461D03*
X164567Y212205D03*
X143268Y210118D03*
X209843Y174409D03*
X190945Y191732D03*
X167323Y173622D03*
X164094Y181496D03*
X147992Y187520D03*
X208654Y205941D03*
X180303Y212417D03*
X200787Y214173D03*
X183071Y218898D03*
X157728Y157689D03*
X151642Y157673D03*
X209843Y190551D03*
X154843Y148795D03*
X219291Y187008D03*
X196811Y216929D03*
X203870Y203303D03*
X141890Y181496D03*
X150315Y170315D03*
X213476Y141894D03*
X168307Y157150D03*
X208661Y181496D03*
X222047Y143307D03*
Y164961D03*
Y168898D03*
Y216929D03*
Y196457D03*
X125591Y267323D03*
X133465Y287008D03*
X103937Y281102D03*
X113110Y260906D03*
X125591Y283071D03*
X103937Y233858D03*
Y257480D03*
X137795Y257874D03*
X133465Y246457D03*
Y233858D03*
X134409Y250669D03*
X213386Y273622D03*
X140512Y279173D03*
X202835Y254331D03*
X151181Y287008D03*
X162992Y241732D03*
X151181Y227953D03*
X178740D03*
X182677Y287008D03*
X187402Y265630D03*
X192559Y265827D03*
X200276Y265551D03*
X208268Y255512D03*
X170079Y222638D03*
X215354Y229134D03*
X176772Y243701D03*
X164961Y227953D03*
X162992Y255512D03*
X208583Y265630D03*
X176772Y255512D03*
X147244D03*
X183465Y299606D03*
X195276Y244094D03*
X204331Y287008D03*
X166929Y288976D03*
X149213Y245669D03*
X215354Y220472D03*
X154528Y269449D03*
X203110Y220236D03*
X173819Y222559D03*
X183256Y264567D03*
X166929Y293701D03*
X163228Y280709D03*
X165787Y276969D03*
X186614Y257874D03*
X213346Y249606D03*
X191339Y229134D03*
X152362Y222638D03*
X146535Y248740D03*
X168071Y273622D03*
X222047Y267323D03*
Y241732D03*
Y294882D03*
Y224016D03*
X117717Y310630D03*
X127559D03*
X134252Y327559D03*
X103937Y304724D03*
X127953Y329528D03*
X122047D03*
X178346Y305512D03*
X177953Y321260D03*
X155906D03*
X141339Y310630D03*
X166929Y314567D03*
X181496Y321260D03*
X146457Y329528D03*
X140551D03*
X152362Y321260D03*
X210236Y310630D03*
X184646Y328346D03*
X222047D03*
G54D26*
X117224Y232087D02*
X113858D01*
X111339Y234606*
Y245630*
X113346Y247638*
X118386*
X172835Y114961D02*
Y115945D01*
Y120472D02*
Y119488D01*
X121654Y214567D02*
Y215551D01*
X119685Y216535D02*
X120669D01*
X121654Y218504D02*
Y217520D01*
X170276Y291339D02*
X169291D01*
X166929Y286811D02*
Y287795D01*
X163583Y291339D02*
X164567D01*
X166929Y295866D02*
Y294882D01*
X185630Y302756D02*
X184646D01*
X180709Y297441D02*
Y298425D01*
X175787Y302756D02*
X176772D01*
X180709Y308071D02*
Y307087D01*
X183661Y320472D02*
X182677D01*
X179724Y315551D02*
Y316535D01*
X175787Y320472D02*
X176772D01*
X179724Y325394D02*
Y324409D01*
X135378Y302409D02*
X134394D01*
X138189Y328543D02*
X139173D01*
X149016D02*
X148031D01*
X119488D02*
X120472D01*
X130315D02*
X129331D01*
X158071Y320472D02*
X157087D01*
X154134Y315551D02*
Y316535D01*
X150197Y320472D02*
X151181D01*
X154134Y325394D02*
Y324409D01*
X125929Y288276D02*
X124945D01*
X123961Y286307D02*
Y287291D01*
X121992Y288276D02*
X122976D01*
X153516Y151787D02*
X152531D01*
X151646Y149642D02*
Y150626D01*
X149776Y151787D02*
X150760D01*
X151646Y153933D02*
Y152949D01*
X159591Y151795D02*
X158606D01*
X157720Y149650D02*
Y150634D01*
X155850Y151795D02*
X156835D01*
X157720Y153941D02*
Y152957D01*
X173705Y138047D02*
X174689D01*
X175575Y140193D02*
Y139209D01*
X177445Y138047D02*
X176461D01*
X175575Y135902D02*
Y136886D01*
X172835Y144488D02*
X173819D01*
X174803Y142520D02*
Y143504D01*
X182677Y114961D02*
Y115945D01*
Y120472D02*
Y119488D01*
X181575Y135433D02*
X182559D01*
X186811Y140866D02*
Y139882D01*
X192047Y135433D02*
X191063D01*
X186811Y130000D02*
Y130984D01*
X184449Y157874D02*
X185433D01*
X190354D02*
X189370D01*
X194685Y155118D02*
X195669D01*
X197244Y157677D02*
Y156693D01*
X199803Y155118D02*
X198819D01*
X197244Y152559D02*
Y153543D01*
X161614Y167913D02*
X162598D01*
X164173Y170472D02*
Y169488D01*
X166732Y167913D02*
X165748D01*
X164173Y165354D02*
Y166339D01*
X133661Y114961D02*
Y115945D01*
X130906Y117717D02*
X131890D01*
X133661Y120472D02*
Y119488D01*
X137165Y130866D02*
Y131850D01*
X134606Y133425D02*
X135591D01*
X137165Y135984D02*
Y135000D01*
X139724Y133425D02*
X138740D01*
X122047Y138976D02*
Y139961D01*
X120079Y140945D02*
X121063D01*
X127953D02*
X126969D01*
X125984Y138976D02*
Y139961D01*
X140512Y148189D02*
X141496D01*
X146417D02*
X145433D01*
X137402Y161417D02*
Y160433D01*
X139370Y159449D02*
X138386D01*
X137402Y157480D02*
Y158465D01*
X133583Y171260D02*
Y172244D01*
X131614Y173228D02*
X132598D01*
X113681Y176575D02*
X114665D01*
X120374D02*
X119390D01*
X129134Y194094D02*
X130118D01*
X131102Y196063D02*
Y195079D01*
X120650Y191732D02*
X119665D01*
X113366D02*
X114350D01*
X142717Y203661D02*
X143701D01*
X144685Y201693D02*
Y202677D01*
X150197Y203661D02*
X149213D01*
X148228Y201693D02*
Y202677D01*
X112008Y175886D02*
X111024D01*
X106693Y172343D02*
Y173327D01*
X111614Y182579D02*
X110630D01*
X101772D02*
X102756D01*
X111614Y190650D02*
X110630D01*
X101772D02*
X102756D01*
X106693Y200886D02*
Y199902D01*
X112008Y197343D02*
X111024D01*
X113681Y196654D02*
X114665D01*
X120374D02*
X119390D01*
X115268Y211898D02*
X116252D01*
X119205D02*
X118220D01*
X117236Y209929D02*
Y210913D01*
X120965Y219685D02*
Y220669D01*
X136614Y246772D02*
X137598D01*
X144488D02*
X143504D01*
X114921Y252126D02*
Y253110D01*
X112362Y254685D02*
X113346D01*
X114921Y257244D02*
Y256260D01*
X117480Y254685D02*
X116496D01*
X130630Y251496D02*
X129646D01*
X128661Y249528D02*
Y250512D01*
X126693Y251496D02*
X127677D01*
X136614Y252677D02*
X137598D01*
X144488D02*
X143504D01*
X146260Y275984D02*
X147244D01*
X148228Y277953D02*
Y276969D01*
X150197Y275984D02*
X149213D01*
X135378Y299850D02*
X134394D01*
X169882Y276102D02*
X170866D01*
X171850Y278071D02*
Y277087D01*
X173819Y276102D02*
X172835D01*
X169882Y258386D02*
Y259370D01*
Y266260D02*
Y265276D01*
X181496Y252677D02*
X182480D01*
X189370D02*
X188386D01*
X201181Y251181D02*
X200197D01*
X201181Y248031D02*
X200197D01*
X197244Y244094D02*
X198228D01*
X199213Y227087D02*
Y226102D01*
X201181Y225118D02*
X200197D01*
X199213Y223150D02*
Y224134D01*
X181496Y227087D02*
X182480D01*
X189370D02*
X188386D01*
X150197Y213504D02*
Y214488D01*
Y221378D02*
Y220394D01*
X203110Y222795D02*
Y221811D01*
X205669Y220236D02*
X204685D01*
X203110Y217677D02*
Y218661D01*
X200551Y220236D02*
X201535D01*
X126496Y210591D02*
Y209606D01*
Y206654D02*
Y207638D01*
X124528Y208622D02*
X125512D01*
X199213Y260236D02*
Y259252D01*
X201181Y258268D02*
X200197D01*
G54D27*
X187402Y161614D03*
Y157874D03*
Y154134D03*
X177953D03*
Y161614D03*
X208543Y194016D03*
Y186535D03*
X199094Y190276D03*
X208661Y209646D03*
Y202165D03*
X199213Y205906D03*
X190945Y203346D03*
Y195866D03*
X181496Y199606D03*
X208661Y178150D03*
Y170669D03*
X199213Y174409D03*
X143465Y151929D03*
Y148189D03*
Y144449D03*
X134016D03*
Y151929D03*
X168110Y137205D03*
Y129724D03*
X158661Y133465D03*
G54D28*
X124705Y222638D03*
X120965D03*
X117224D03*
Y232087D03*
X124705D03*
G54D29*
X148228Y262323D03*
X150197D03*
X152165D03*
X154134D03*
X156102D03*
X158071D03*
X160039D03*
X162008D03*
X163976D03*
X165945D03*
X167913D03*
X169882D03*
X171850D03*
X173819D03*
X175787D03*
X177756D03*
Y217441D03*
X175787D03*
X173819D03*
X171850D03*
X169882D03*
X167913D03*
X165945D03*
X163976D03*
X162008D03*
X160039D03*
X158071D03*
X156102D03*
X154134D03*
X152165D03*
X150197D03*
X148228D03*
G54D30*
X185433Y254646D03*
Y252677D03*
Y250709D03*
Y248740D03*
Y246772D03*
Y244803D03*
Y242835D03*
Y240866D03*
Y238898D03*
Y236929D03*
Y234961D03*
Y232992D03*
Y231024D03*
Y229055D03*
Y227087D03*
Y225118D03*
X140551D03*
Y227087D03*
Y229055D03*
Y231024D03*
Y232992D03*
Y234961D03*
Y236929D03*
Y238898D03*
Y240866D03*
Y242835D03*
Y244803D03*
Y246772D03*
Y248740D03*
Y250709D03*
Y252677D03*
Y254646D03*
G54D31*
X205827Y160630D03*
G54D32*
X205906Y150551D03*
G54D33*
X118386Y247638D03*
Y239370D03*
G54D34*
X191516Y178622D03*
X173602D03*
G54D35*
X117008Y181496D03*
Y184055D03*
Y186614D03*
Y189173D03*
Y191732D03*
G54D36*
X106693Y182579D03*
Y190650D03*
G54D37*
X143602Y328543D03*
X124902D03*
X143602Y321850D03*
X124902D03*
G54D38*
X206102Y135433D03*
X186811D03*
G54D39*
X132622Y302409D03*
Y299850D03*
Y297291D03*
X123961D03*
Y302409D03*
G54D40*
X154134Y320472D03*
X179724D03*
G54D41*
X153150Y298819D03*
X180709Y302756D03*
G54D42*
X166929Y291339D03*
G54D43*
X157720Y160102D03*
Y151795D03*
X151646Y160094D03*
Y151787D03*
X175575Y129740D03*
Y138047D03*
G74*
X0Y0D02*
M02*
