*
*
G04 PADS 9.5 Build Number: 522968 generated Gerber (RS-274-X) file*
G04 PC Version=2.1*
*
%IN "Plasma_Gen_Main Board_P"*%
*
%MOIN*%
*
%FSLAX35Y35*%
*
*
*
*
G04 PC Standard Apertures*
*
*
G04 Thermal Relief Aperture macro.*
%AMTER*
1,1,$1,0,0*
1,0,$1-$2,0,0*
21,0,$3,$4,0,0,45*
21,0,$3,$4,0,0,135*
%
*
*
G04 Annular Aperture macro.*
%AMANN*
1,1,$1,0,0*
1,0,$2,0,0*
%
*
*
G04 Odd Aperture macro.*
%AMODD*
1,1,$1,0,0*
1,0,$1-0.005,0,0*
%
*
*
G04 PC Custom Aperture Macros*
*
*
*
*
*
*
G04 PC Aperture Table*
*
%ADD010C,0.001*%
%ADD020C,0.00394*%
%ADD044C,0.01*%
*
*
*
*
G04 PC Circuitry*
G04 Layer Name Plasma_Gen_Main Board_P - circuitry*
%LPD*%
*
*
G04 PC Custom Flashes*
G04 Layer Name Plasma_Gen_Main Board_P - flashes*
%LPD*%
*
*
G04 PC Circuitry*
G04 Layer Name Plasma_Gen_Main Board_P - circuitry*
%LPD*%
*
G54D10*
G54D20*
G01X100000Y100000D02*
X225984D01*
Y332283*
X100000*
Y100000*
G54D44*
X113028Y173362D02*
X121028D01*
X113028Y181362*
X121028*
X113028Y173362*
Y171787D02*
X121028D01*
X113028Y179787*
X121028*
X113028Y171787*
X118209Y177362D02*
G75*
G03X115846I-1181J0D01*
G01Y175787*
G03X118209I1182J0*
G01Y177362*
X113028Y193441D02*
X121028D01*
X113028Y201441*
X121028*
X113028Y193441*
Y191866D02*
X121028D01*
X113028Y199866*
X121028*
X113028Y191866*
X118209Y197441D02*
G03X115846I-1181J-0D01*
G01Y195866*
G03X118209I1182J0*
G01Y197441*
X108071Y171886D02*
X112071Y175886D01*
X108071Y179886*
X104071Y175886*
X108071Y171886*
Y175886D02*
Y179886D01*
X105315Y171886D02*
X109315Y175886D01*
X105315Y179886*
X101315Y175886*
X105315Y171886*
Y175886D02*
Y179886D01*
X108071Y174705D02*
G03Y177067I-0J1181D01*
G01X105315*
G03Y174705I-0J-1181*
G01X108071*
Y193343D02*
X112071Y197343D01*
X108071Y201343*
X104071Y197343*
X108071Y193343*
Y197343D02*
Y201343D01*
X105315Y193343D02*
X109315Y197343D01*
X105315Y201343*
X101315Y197343*
X105315Y193343*
Y197343D02*
Y201343D01*
X108071Y196161D02*
G03Y198524I-0J1182D01*
G01X105315*
G03Y196161I-0J-1181*
G01X108071*
X129661Y113717D02*
X137661D01*
Y121717*
X129661*
Y113717*
X133661Y117717D02*
Y121717D01*
X134583Y113717D02*
X142583D01*
Y121717*
X134583*
Y113717*
X138583Y117717D02*
Y121717D01*
X139504Y113717D02*
X147504D01*
Y121717*
X139504*
Y113717*
X143504Y117717D02*
Y121717D01*
X163913Y113717D02*
X171913D01*
Y121717*
X163913*
Y113717*
X167913Y117717D02*
Y121717D01*
X168835Y113717D02*
X176835D01*
Y121717*
X168835*
Y113717*
X172835Y117717D02*
Y121717D01*
X173756Y113717D02*
X181756D01*
Y121717*
X173756*
Y113717*
X177756Y117717D02*
Y121717D01*
X178677Y113717D02*
X186677D01*
Y121717*
X178677*
Y113717*
X182677Y117717D02*
Y121717D01*
X183598Y113717D02*
X191598D01*
Y121717*
X183598*
Y113717*
X187598Y117717D02*
Y121717D01*
X188520Y113717D02*
X196520D01*
Y121717*
X188520*
Y113717*
X192520Y117717D02*
Y121717D01*
X193441Y113717D02*
X201441D01*
Y121717*
X193441*
Y113717*
X197441Y117717D02*
Y121717D01*
X105843Y109843D02*
X113843D01*
X109843Y105843D02*
Y113843D01*
X212142Y109843D02*
X220142D01*
X216142Y105843D02*
Y113843D01*
X105843Y320472D02*
X113843D01*
X109843Y316472D02*
Y324472D01*
X192457Y320472D02*
X200457D01*
X196457Y316472D02*
Y324472D01*
X162929Y322378D02*
X170929Y330378D01*
Y322378*
X162929Y330378*
Y322378*
Y300724D02*
X170929Y308724D01*
Y300724*
X162929Y308724*
Y300724*
X111748Y125528D02*
X119748Y133528D01*
X111748D02*
X119748Y125528D01*
X133008Y129465D02*
X141008Y137465D01*
X133008D02*
X141008Y129465D01*
X99937Y115685D02*
X107937Y123685D01*
X99937D02*
X107937Y115685D01*
X115685Y99937D02*
X123685Y107937D01*
X115685D02*
X123685Y99937D01*
X129465Y135370D02*
X137465Y143370D01*
X129465D02*
X137465Y135370D01*
X129858Y119228D02*
X137858Y127228D01*
X129858D02*
X137858Y119228D01*
X175071Y134047D02*
X183071Y142047D01*
X175071D02*
X183071Y134047D01*
X158992Y99937D02*
X166992Y107937D01*
X158992D02*
X166992Y99937D01*
X137339D02*
X145339Y107937D01*
X137339D02*
X145339Y99937D01*
X202299D02*
X210299Y107937D01*
X202299D02*
X210299Y99937D01*
X206236Y120803D02*
X214236Y128803D01*
X206236D02*
X214236Y120803D01*
X145213Y123559D02*
X153213Y131559D01*
X145213D02*
X153213Y123559D01*
X149150Y113717D02*
X157150Y121717D01*
X149150D02*
X157150Y113717D01*
X179858Y128677D02*
X187858Y136677D01*
X179858D02*
X187858Y128677D01*
X179858Y134189D02*
X187858Y142189D01*
X179858D02*
X187858Y134189D01*
X180646Y99937D02*
X188646Y107937D01*
X180646D02*
X188646Y99937D01*
X192457Y120409D02*
X200457Y128409D01*
X192457D02*
X200457Y120409D01*
X143854Y135362D02*
X151854Y143362D01*
X143854D02*
X151854Y135362D01*
X218047Y115685D02*
X226047Y123685D01*
X218047D02*
X226047Y115685D01*
X120764Y208835D02*
X128764Y216835D01*
X120764D02*
X128764Y208835D01*
X99937Y200331D02*
X107937Y208331D01*
X99937D02*
X107937Y200331D01*
X99937Y186551D02*
X107937Y194551D01*
X99937D02*
X107937Y186551D01*
X99937Y178677D02*
X107937Y186677D01*
X99937D02*
X107937Y178677D01*
X111748Y158992D02*
X119748Y166992D01*
X111748D02*
X119748Y158992D01*
X127102Y194425D02*
X135102Y202425D01*
X127102D02*
X135102Y194425D01*
X99937Y143244D02*
X107937Y151244D01*
X99937D02*
X107937Y143244D01*
X133008Y204268D02*
X141008Y212268D01*
X133008D02*
X141008Y204268D01*
X123559Y145213D02*
X131559Y153213D01*
X123559D02*
X131559Y145213D01*
X133008Y194425D02*
X141008Y202425D01*
X133008D02*
X141008Y194425D01*
X113224Y214949D02*
X121224Y222949D01*
X113224D02*
X121224Y214949D01*
X125646Y198362D02*
X133646Y206362D01*
X125646D02*
X133646Y198362D01*
X125528Y157024D02*
X133528Y165024D01*
X125528D02*
X133528Y157024D01*
X121591Y199543D02*
X129591Y207543D01*
X121591D02*
X129591Y199543D01*
X179693Y205823D02*
X187693Y213823D01*
X179693D02*
X187693Y205823D01*
X211575D02*
X219575Y213823D01*
X211575D02*
X219575Y205823D01*
X164110Y136528D02*
X172110Y144528D01*
X164110D02*
X172110Y136528D01*
X137339Y160961D02*
X145339Y168961D01*
X137339D02*
X145339Y160961D01*
X191669Y173953D02*
X199669Y181953D01*
X191669D02*
X199669Y173953D01*
X191669Y181433D02*
X199669Y189433D01*
X191669D02*
X199669Y181433D01*
X191276Y189307D02*
X199276Y197307D01*
X191276D02*
X199276Y189307D01*
X149937Y170646D02*
X157937Y178646D01*
X149937D02*
X157937Y170646D01*
X178677Y154268D02*
X186677Y162268D01*
X178677D02*
X186677Y154268D01*
X160173Y163717D02*
X168173Y171717D01*
X160173D02*
X168173Y163717D01*
X158992Y172772D02*
X166992Y180772D01*
X158992D02*
X166992Y172772D01*
X193244Y151118D02*
X201244Y159118D01*
X193244D02*
X201244Y151118D01*
X166866Y197181D02*
X174866Y205181D01*
X166866D02*
X174866Y197181D01*
X144425Y189307D02*
X152425Y197307D01*
X144425D02*
X152425Y189307D01*
X158992Y182614D02*
X166992Y190614D01*
X158992D02*
X166992Y182614D01*
X159106Y190520D02*
X167106Y198520D01*
X159106D02*
X167106Y190520D01*
X165406Y143457D02*
X173406Y151457D01*
X165406D02*
X173406Y143457D01*
X155055Y208205D02*
X163055Y216205D01*
X155055D02*
X163055Y208205D01*
X139701Y194819D02*
X147701Y202819D01*
X139701D02*
X147701Y194819D01*
X147669Y193461D02*
X155669Y201461D01*
X147669D02*
X155669Y193461D01*
X160567Y208205D02*
X168567Y216205D01*
X160567D02*
X168567Y208205D01*
X139268Y206118D02*
X147268Y214118D01*
X139268D02*
X147268Y206118D01*
X205843Y170409D02*
X213843Y178409D01*
X205843D02*
X213843Y170409D01*
X186945Y187732D02*
X194945Y195732D01*
X186945D02*
X194945Y187732D01*
X163323Y169622D02*
X171323Y177622D01*
X163323D02*
X171323Y169622D01*
X160094Y177496D02*
X168094Y185496D01*
X160094D02*
X168094Y177496D01*
X143992Y183520D02*
X151992Y191520D01*
X143992D02*
X151992Y183520D01*
X204654Y201941D02*
X212654Y209941D01*
X204654D02*
X212654Y201941D01*
X176303Y208417D02*
X184303Y216417D01*
X176303D02*
X184303Y208417D01*
X196787Y210173D02*
X204787Y218173D01*
X196787D02*
X204787Y210173D01*
X179071Y214898D02*
X187071Y222898D01*
X179071D02*
X187071Y214898D01*
X153728Y153689D02*
X161728Y161689D01*
X153728D02*
X161728Y153689D01*
X147642Y153673D02*
X155642Y161673D01*
X147642D02*
X155642Y153673D01*
X205843Y186551D02*
X213843Y194551D01*
X205843D02*
X213843Y186551D01*
X150843Y144795D02*
X158843Y152795D01*
X150843D02*
X158843Y144795D01*
X215291Y183008D02*
X223291Y191008D01*
X215291D02*
X223291Y183008D01*
X192811Y212929D02*
X200811Y220929D01*
X192811D02*
X200811Y212929D01*
X199870Y199303D02*
X207870Y207303D01*
X199870D02*
X207870Y199303D01*
X137890Y177496D02*
X145890Y185496D01*
X137890D02*
X145890Y177496D01*
X146315Y166315D02*
X154315Y174315D01*
X146315D02*
X154315Y166315D01*
X209476Y137894D02*
X217476Y145894D01*
X209476D02*
X217476Y137894D01*
X164307Y153150D02*
X172307Y161150D01*
X164307D02*
X172307Y153150D01*
X204661Y177496D02*
X212661Y185496D01*
X204661D02*
X212661Y177496D01*
X218047Y139307D02*
X226047Y147307D01*
X218047D02*
X226047Y139307D01*
X218047Y160961D02*
X226047Y168961D01*
X218047D02*
X226047Y160961D01*
X218047Y164898D02*
X226047Y172898D01*
X218047D02*
X226047Y164898D01*
X218047Y212929D02*
X226047Y220929D01*
X218047D02*
X226047Y212929D01*
X218047Y192457D02*
X226047Y200457D01*
X218047D02*
X226047Y192457D01*
X121591Y263323D02*
X129591Y271323D01*
X121591D02*
X129591Y263323D01*
X129465Y283008D02*
X137465Y291008D01*
X129465D02*
X137465Y283008D01*
X99937Y277102D02*
X107937Y285102D01*
X99937D02*
X107937Y277102D01*
X109110Y256906D02*
X117110Y264906D01*
X109110D02*
X117110Y256906D01*
X121591Y279071D02*
X129591Y287071D01*
X121591D02*
X129591Y279071D01*
X99937Y229858D02*
X107937Y237858D01*
X99937D02*
X107937Y229858D01*
X99937Y253480D02*
X107937Y261480D01*
X99937D02*
X107937Y253480D01*
X133795Y253874D02*
X141795Y261874D01*
X133795D02*
X141795Y253874D01*
X129465Y242457D02*
X137465Y250457D01*
X129465D02*
X137465Y242457D01*
X129465Y229858D02*
X137465Y237858D01*
X129465D02*
X137465Y229858D01*
X130409Y246669D02*
X138409Y254669D01*
X130409D02*
X138409Y246669D01*
X209386Y269622D02*
X217386Y277622D01*
X209386D02*
X217386Y269622D01*
X136512Y275173D02*
X144512Y283173D01*
X136512D02*
X144512Y275173D01*
X198835Y250331D02*
X206835Y258331D01*
X198835D02*
X206835Y250331D01*
X147181Y283008D02*
X155181Y291008D01*
X147181D02*
X155181Y283008D01*
X158992Y237732D02*
X166992Y245732D01*
X158992D02*
X166992Y237732D01*
X147181Y223953D02*
X155181Y231953D01*
X147181D02*
X155181Y223953D01*
X174740D02*
X182740Y231953D01*
X174740D02*
X182740Y223953D01*
X178677Y283008D02*
X186677Y291008D01*
X178677D02*
X186677Y283008D01*
X183402Y261630D02*
X191402Y269630D01*
X183402D02*
X191402Y261630D01*
X188559Y261827D02*
X196559Y269827D01*
X188559D02*
X196559Y261827D01*
X196276Y261551D02*
X204276Y269551D01*
X196276D02*
X204276Y261551D01*
X204268Y251512D02*
X212268Y259512D01*
X204268D02*
X212268Y251512D01*
X166079Y218638D02*
X174079Y226638D01*
X166079D02*
X174079Y218638D01*
X211354Y225134D02*
X219354Y233134D01*
X211354D02*
X219354Y225134D01*
X172772Y239701D02*
X180772Y247701D01*
X172772D02*
X180772Y239701D01*
X160961Y223953D02*
X168961Y231953D01*
X160961D02*
X168961Y223953D01*
X158992Y251512D02*
X166992Y259512D01*
X158992D02*
X166992Y251512D01*
X204583Y261630D02*
X212583Y269630D01*
X204583D02*
X212583Y261630D01*
X172772Y251512D02*
X180772Y259512D01*
X172772D02*
X180772Y251512D01*
X143244D02*
X151244Y259512D01*
X143244D02*
X151244Y251512D01*
X179465Y295606D02*
X187465Y303606D01*
X179465D02*
X187465Y295606D01*
X191276Y240094D02*
X199276Y248094D01*
X191276D02*
X199276Y240094D01*
X200331Y283008D02*
X208331Y291008D01*
X200331D02*
X208331Y283008D01*
X162929Y284976D02*
X170929Y292976D01*
X162929D02*
X170929Y284976D01*
X145213Y241669D02*
X153213Y249669D01*
X145213D02*
X153213Y241669D01*
X211354Y216472D02*
X219354Y224472D01*
X211354D02*
X219354Y216472D01*
X150528Y265449D02*
X158528Y273449D01*
X150528D02*
X158528Y265449D01*
X199110Y216236D02*
X207110Y224236D01*
X199110D02*
X207110Y216236D01*
X169819Y218559D02*
X177819Y226559D01*
X169819D02*
X177819Y218559D01*
X179256Y260567D02*
X187256Y268567D01*
X179256D02*
X187256Y260567D01*
X162929Y289701D02*
X170929Y297701D01*
X162929D02*
X170929Y289701D01*
X159228Y276709D02*
X167228Y284709D01*
X159228D02*
X167228Y276709D01*
X161787Y272969D02*
X169787Y280969D01*
X161787D02*
X169787Y272969D01*
X182614Y253874D02*
X190614Y261874D01*
X182614D02*
X190614Y253874D01*
X209346Y245606D02*
X217346Y253606D01*
X209346D02*
X217346Y245606D01*
X187339Y225134D02*
X195339Y233134D01*
X187339D02*
X195339Y225134D01*
X148362Y218638D02*
X156362Y226638D01*
X148362D02*
X156362Y218638D01*
X142535Y244740D02*
X150535Y252740D01*
X142535D02*
X150535Y244740D01*
X164071Y269622D02*
X172071Y277622D01*
X164071D02*
X172071Y269622D01*
X218047Y263323D02*
X226047Y271323D01*
X218047D02*
X226047Y263323D01*
X218047Y237732D02*
X226047Y245732D01*
X218047D02*
X226047Y237732D01*
X218047Y290882D02*
X226047Y298882D01*
X218047D02*
X226047Y290882D01*
X218047Y220016D02*
X226047Y228016D01*
X218047D02*
X226047Y220016D01*
X113717Y306630D02*
X121717Y314630D01*
X113717D02*
X121717Y306630D01*
X123559D02*
X131559Y314630D01*
X123559D02*
X131559Y306630D01*
X130252Y323559D02*
X138252Y331559D01*
X130252D02*
X138252Y323559D01*
X99937Y300724D02*
X107937Y308724D01*
X99937D02*
X107937Y300724D01*
X123953Y325528D02*
X131953Y333528D01*
X123953D02*
X131953Y325528D01*
X118047D02*
X126047Y333528D01*
X118047D02*
X126047Y325528D01*
X174346Y301512D02*
X182346Y309512D01*
X174346D02*
X182346Y301512D01*
X173953Y317260D02*
X181953Y325260D01*
X173953D02*
X181953Y317260D01*
X151906D02*
X159906Y325260D01*
X151906D02*
X159906Y317260D01*
X137339Y306630D02*
X145339Y314630D01*
X137339D02*
X145339Y306630D01*
X162929Y310567D02*
X170929Y318567D01*
X162929D02*
X170929Y310567D01*
X177496Y317260D02*
X185496Y325260D01*
X177496D02*
X185496Y317260D01*
X142457Y325528D02*
X150457Y333528D01*
X142457D02*
X150457Y325528D01*
X136551D02*
X144551Y333528D01*
X136551D02*
X144551Y325528D01*
X148362Y317260D02*
X156362Y325260D01*
X148362D02*
X156362Y317260D01*
X206236Y306630D02*
X214236Y314630D01*
X206236D02*
X214236Y306630D01*
X180646Y324346D02*
X188646Y332346D01*
X180646D02*
X188646Y324346D01*
X218047D02*
X226047Y332346D01*
X218047D02*
X226047Y324346D01*
X296850Y268000D02*
X554850D01*
X296850Y244000D02*
X554850D01*
X296850Y220000D02*
X554850D01*
X296850Y196000D02*
X554850D01*
X296850Y172000D02*
X554850D01*
X296850Y148000D02*
X554850D01*
X296850Y124000D02*
X554850D01*
X296850Y100000D02*
X554850D01*
X296850Y268000D02*
Y100000D01*
X380850Y268000D02*
Y100000D01*
X416850Y268000D02*
Y100000D01*
X452850Y268000D02*
Y100000D01*
X506850Y268000D02*
Y100000D01*
X554850Y268000D02*
Y100000D01*
X332350Y256750D02*
X331805Y257500D01*
X330987Y257875*
X329896*
X329078Y257500*
X328532Y256750*
Y256000*
X328805Y255250*
X329078Y254875*
X329623Y254500*
X331259Y253750*
X331805Y253375*
X332078Y253000*
X332350Y252250*
Y251125*
X331805Y250375*
X330987Y250000*
X329896*
X329078Y250375*
X328532Y251125*
X334805Y257875D02*
Y250000D01*
X341078Y257875D02*
X337259Y250000D01*
Y257875D02*
X341078D01*
X337259Y250000D02*
X341078D01*
X343532Y257875D02*
Y250000D01*
Y257875D02*
X347078D01*
X343532Y254125D02*
X345714D01*
X343532Y250000D02*
X347078D01*
X390714Y257875D02*
X390169Y257500D01*
X389623Y256750*
X389350Y256000*
X389078Y254875*
Y253000*
X389350Y251875*
X389623Y251125*
X390169Y250375*
X390714Y250000*
X391805*
X392350Y250375*
X392896Y251125*
X393169Y251875*
X393441Y253000*
Y254875*
X393169Y256000*
X392896Y256750*
X392350Y257500*
X391805Y257875*
X390714*
X391532Y251500D02*
X393169Y249250D01*
X397805Y257875D02*
Y250000D01*
X395896Y257875D02*
X399714D01*
X402169D02*
X404350Y254125D01*
Y250000*
X406532Y257875D02*
X404350Y254125D01*
X428896Y256750D02*
X428350Y257500D01*
X427532Y257875*
X426441*
X425623Y257500*
X425078Y256750*
Y256000*
X425350Y255250*
X425623Y254875*
X426169Y254500*
X427805Y253750*
X428350Y253375*
X428623Y253000*
X428896Y252250*
Y251125*
X428350Y250375*
X427532Y250000*
X426441*
X425623Y250375*
X425078Y251125*
X431350Y257875D02*
X433532Y254125D01*
Y250000*
X435714Y257875D02*
X433532Y254125D01*
X438169Y257875D02*
Y250000D01*
Y257875D02*
X440350Y250000D01*
X442532Y257875D02*
X440350Y250000D01*
X442532Y257875D02*
Y250000D01*
X464350Y257875D02*
Y250000D01*
Y257875D02*
X466805D01*
X467623Y257500*
X467896Y257125*
X468169Y256375*
Y255250*
X467896Y254500*
X467623Y254125*
X466805Y253750*
X464350*
X470623Y257875D02*
Y250000D01*
X473896*
X478532Y257875D02*
X476350Y250000D01*
X478532Y257875D02*
X480714Y250000D01*
X477169Y252625D02*
X479896D01*
X485078Y257875D02*
Y250000D01*
X483169Y257875D02*
X486987D01*
X489441D02*
Y250000D01*
Y257875D02*
X492987D01*
X489441Y254125D02*
X491623D01*
X489441Y250000D02*
X492987D01*
X495441Y257875D02*
Y250000D01*
Y257875D02*
X497350D01*
X498169Y257500*
X498714Y256750*
X498987Y256000*
X499259Y254875*
Y253000*
X498987Y251875*
X498714Y251125*
X498169Y250375*
X497350Y250000*
X495441*
X523532Y257875D02*
Y250000D01*
X521623Y257875D02*
X525441D01*
X529532D02*
X528987Y257500D01*
X528441Y256750*
X528169Y256000*
X527896Y254875*
Y253000*
X528169Y251875*
X528441Y251125*
X528987Y250375*
X529532Y250000*
X530623*
X531169Y250375*
X531714Y251125*
X531987Y251875*
X532259Y253000*
Y254875*
X531987Y256000*
X531714Y256750*
X531169Y257500*
X530623Y257875*
X529532*
X534714D02*
Y250000D01*
X537987*
X303123Y232000D02*
Y232375D01*
X303396Y233125*
X303669Y233500*
X304214Y233875*
X305305*
X305850Y233500*
X306123Y233125*
X306396Y232375*
Y231625*
X306123Y230875*
X305578Y229750*
X302850Y226000*
X306669*
X398487Y233875D02*
X395759Y228625D01*
X399850*
X398487Y233875D02*
Y226000D01*
X428850Y232000D02*
X440850D01*
X434850Y226000D02*
Y238000D01*
X464487Y233875D02*
Y226000D01*
Y233875D02*
X468305Y226000D01*
Y233875D02*
Y226000D01*
X472396Y233875D02*
X471850Y233500D01*
X471305Y232750*
X471032Y232000*
X470759Y230875*
Y229000*
X471032Y227875*
X471305Y227125*
X471850Y226375*
X472396Y226000*
X473487*
X474032Y226375*
X474578Y227125*
X474850Y227875*
X475123Y229000*
Y230875*
X474850Y232000*
X474578Y232750*
X474032Y233500*
X473487Y233875*
X472396*
X514669Y232750D02*
Y226000D01*
X512214Y229375D02*
X517123D01*
X524487Y235375D02*
X519578Y223375D01*
X526941Y229375D02*
X531850D01*
X535941Y233875D02*
X535123Y233500D01*
X534578Y232375*
X534305Y230500*
Y229375*
X534578Y227500*
X535123Y226375*
X535941Y226000*
X536487*
X537305Y226375*
X537850Y227500*
X538123Y229375*
Y230500*
X537850Y232375*
X537305Y233500*
X536487Y233875*
X535941*
X540850Y226750D02*
X540578Y226375D01*
X540850Y226000*
X541123Y226375*
X540850Y226750*
X545214Y233875D02*
X544396Y233500D01*
X543850Y232375*
X543578Y230500*
Y229375*
X543850Y227500*
X544396Y226375*
X545214Y226000*
X545759*
X546578Y226375*
X547123Y227500*
X547396Y229375*
Y230500*
X547123Y232375*
X546578Y233500*
X545759Y233875*
X545214*
X304487Y209875D02*
X303669Y209500D01*
X303123Y208375*
X302850Y206500*
Y205375*
X303123Y203500*
X303669Y202375*
X304487Y202000*
X305032*
X305850Y202375*
X306396Y203500*
X306669Y205375*
Y206500*
X306396Y208375*
X305850Y209500*
X305032Y209875*
X304487*
X309396Y202750D02*
X309123Y202375D01*
X309396Y202000*
X309669Y202375*
X309396Y202750*
X312669Y209875D02*
X315669D01*
X314032Y206875*
X314850*
X315396Y206500*
X315669Y206125*
X315941Y205000*
Y204250*
X315669Y203125*
X315123Y202375*
X314305Y202000*
X313487*
X312669Y202375*
X312396Y202750*
X312123Y203500*
X390714Y208375D02*
X391259Y208750D01*
X392078Y209875*
Y202000*
X398078Y209875D02*
X395350D01*
X395078Y206500*
X395350Y206875*
X396169Y207250*
X396987*
X397805Y206875*
X398350Y206125*
X398623Y205000*
X398350Y204250*
X398078Y203125*
X397532Y202375*
X396714Y202000*
X395896*
X395078Y202375*
X394805Y202750*
X394532Y203500*
X401623Y209875D02*
X404623D01*
X402987Y206875*
X403805*
X404350Y206500*
X404623Y206125*
X404896Y205000*
Y204250*
X404623Y203125*
X404078Y202375*
X403259Y202000*
X402441*
X401623Y202375*
X401350Y202750*
X401078Y203500*
X428850Y202000D02*
X440850Y214000D01*
X428850D02*
X440850Y202000D01*
X461487Y209875D02*
X463669Y206125D01*
Y202000*
X465850Y209875D02*
X463669Y206125D01*
X468305Y209875D02*
Y202000D01*
Y209875D02*
X471850D01*
X468305Y206125D02*
X470487D01*
X468305Y202000D02*
X471850D01*
X478123Y208750D02*
X477578Y209500D01*
X476759Y209875*
X475669*
X474850Y209500*
X474305Y208750*
Y208000*
X474578Y207250*
X474850Y206875*
X475396Y206500*
X477032Y205750*
X477578Y205375*
X477850Y205000*
X478123Y204250*
Y203125*
X477578Y202375*
X476759Y202000*
X475669*
X474850Y202375*
X474305Y203125*
X514669Y208750D02*
Y202000D01*
X512214Y205375D02*
X517123D01*
X524487Y211375D02*
X519578Y199375D01*
X526941Y205375D02*
X531850D01*
X535941Y209875D02*
X535123Y209500D01*
X534578Y208375*
X534305Y206500*
Y205375*
X534578Y203500*
X535123Y202375*
X535941Y202000*
X536487*
X537305Y202375*
X537850Y203500*
X538123Y205375*
Y206500*
X537850Y208375*
X537305Y209500*
X536487Y209875*
X535941*
X540850Y202750D02*
X540578Y202375D01*
X540850Y202000*
X541123Y202375*
X540850Y202750*
X545214Y209875D02*
X544396Y209500D01*
X543850Y208375*
X543578Y206500*
Y205375*
X543850Y203500*
X544396Y202375*
X545214Y202000*
X545759*
X546578Y202375*
X547123Y203500*
X547396Y205375*
Y206500*
X547123Y208375*
X546578Y209500*
X545759Y209875*
X545214*
X304487Y185875D02*
X303669Y185500D01*
X303123Y184375*
X302850Y182500*
Y181375*
X303123Y179500*
X303669Y178375*
X304487Y178000*
X305032*
X305850Y178375*
X306396Y179500*
X306669Y181375*
Y182500*
X306396Y184375*
X305850Y185500*
X305032Y185875*
X304487*
X309396Y178750D02*
X309123Y178375D01*
X309396Y178000*
X309669Y178375*
X309396Y178750*
X315669Y185875D02*
X312941D01*
X312669Y182500*
X312941Y182875*
X313759Y183250*
X314578*
X315396Y182875*
X315941Y182125*
X316214Y181000*
X315941Y180250*
X315669Y179125*
X315123Y178375*
X314305Y178000*
X313487*
X312669Y178375*
X312396Y178750*
X312123Y179500*
X393987Y184375D02*
X394532Y184750D01*
X395350Y185875*
Y178000*
X399441Y185875D02*
X398623Y185500D01*
X398078Y184375*
X397805Y182500*
Y181375*
X398078Y179500*
X398623Y178375*
X399441Y178000*
X399987*
X400805Y178375*
X401350Y179500*
X401623Y181375*
Y182500*
X401350Y184375*
X400805Y185500*
X399987Y185875*
X399441*
X428850Y178000D02*
X440850D01*
Y190000*
X428850*
Y178000*
X434850Y184000D02*
Y190000D01*
X461487Y185875D02*
X463669Y182125D01*
Y178000*
X465850Y185875D02*
X463669Y182125D01*
X468305Y185875D02*
Y178000D01*
Y185875D02*
X471850D01*
X468305Y182125D02*
X470487D01*
X468305Y178000D02*
X471850D01*
X478123Y184750D02*
X477578Y185500D01*
X476759Y185875*
X475669*
X474850Y185500*
X474305Y184750*
Y184000*
X474578Y183250*
X474850Y182875*
X475396Y182500*
X477032Y181750*
X477578Y181375*
X477850Y181000*
X478123Y180250*
Y179125*
X477578Y178375*
X476759Y178000*
X475669*
X474850Y178375*
X474305Y179125*
X514669Y184750D02*
Y178000D01*
X512214Y181375D02*
X517123D01*
X524487Y187375D02*
X519578Y175375D01*
X526941Y181375D02*
X531850D01*
X535941Y185875D02*
X535123Y185500D01*
X534578Y184375*
X534305Y182500*
Y181375*
X534578Y179500*
X535123Y178375*
X535941Y178000*
X536487*
X537305Y178375*
X537850Y179500*
X538123Y181375*
Y182500*
X537850Y184375*
X537305Y185500*
X536487Y185875*
X535941*
X540850Y178750D02*
X540578Y178375D01*
X540850Y178000*
X541123Y178375*
X540850Y178750*
X545214Y185875D02*
X544396Y185500D01*
X543850Y184375*
X543578Y182500*
Y181375*
X543850Y179500*
X544396Y178375*
X545214Y178000*
X545759*
X546578Y178375*
X547123Y179500*
X547396Y181375*
Y182500*
X547123Y184375*
X546578Y185500*
X545759Y185875*
X545214*
X304487Y161875D02*
X303669Y161500D01*
X303123Y160375*
X302850Y158500*
Y157375*
X303123Y155500*
X303669Y154375*
X304487Y154000*
X305032*
X305850Y154375*
X306396Y155500*
X306669Y157375*
Y158500*
X306396Y160375*
X305850Y161500*
X305032Y161875*
X304487*
X309396Y154750D02*
X309123Y154375D01*
X309396Y154000*
X309669Y154375*
X309396Y154750*
X315396Y160750D02*
X315123Y161500D01*
X314305Y161875*
X313759*
X312941Y161500*
X312396Y160375*
X312123Y158500*
Y156625*
X312396Y155125*
X312941Y154375*
X313759Y154000*
X314032*
X314850Y154375*
X315396Y155125*
X315669Y156250*
Y156625*
X315396Y157750*
X314850Y158500*
X314032Y158875*
X313759*
X312941Y158500*
X312396Y157750*
X312123Y156625*
X324396Y159250D02*
X327396Y154000D01*
Y159250D02*
X324396Y154000D01*
X336123Y160375D02*
X336669Y160750D01*
X337487Y161875*
Y154000*
X340214Y154750D02*
X339941Y154375D01*
X340214Y154000*
X340487Y154375*
X340214Y154750*
X343487Y161875D02*
X346487D01*
X344850Y158875*
X345669*
X346214Y158500*
X346487Y158125*
X346759Y157000*
Y156250*
X346487Y155125*
X345941Y154375*
X345123Y154000*
X344305*
X343487Y154375*
X343214Y154750*
X342941Y155500*
X396169Y160000D02*
Y160375D01*
X396441Y161125*
X396714Y161500*
X397259Y161875*
X398350*
X398896Y161500*
X399169Y161125*
X399441Y160375*
Y159625*
X399169Y158875*
X398623Y157750*
X395896Y154000*
X399714*
X434850D02*
X440850Y160000D01*
X434850Y166000*
X428850Y160000*
X434850Y154000*
Y160000D02*
Y166000D01*
X461487Y161875D02*
X463669Y158125D01*
Y154000*
X465850Y161875D02*
X463669Y158125D01*
X468305Y161875D02*
Y154000D01*
Y161875D02*
X471850D01*
X468305Y158125D02*
X470487D01*
X468305Y154000D02*
X471850D01*
X478123Y160750D02*
X477578Y161500D01*
X476759Y161875*
X475669*
X474850Y161500*
X474305Y160750*
Y160000*
X474578Y159250*
X474850Y158875*
X475396Y158500*
X477032Y157750*
X477578Y157375*
X477850Y157000*
X478123Y156250*
Y155125*
X477578Y154375*
X476759Y154000*
X475669*
X474850Y154375*
X474305Y155125*
X514669Y160750D02*
Y154000D01*
X512214Y157375D02*
X517123D01*
X524487Y163375D02*
X519578Y151375D01*
X526941Y157375D02*
X531850D01*
X535941Y161875D02*
X535123Y161500D01*
X534578Y160375*
X534305Y158500*
Y157375*
X534578Y155500*
X535123Y154375*
X535941Y154000*
X536487*
X537305Y154375*
X537850Y155500*
X538123Y157375*
Y158500*
X537850Y160375*
X537305Y161500*
X536487Y161875*
X535941*
X540850Y154750D02*
X540578Y154375D01*
X540850Y154000*
X541123Y154375*
X540850Y154750*
X545214Y161875D02*
X544396Y161500D01*
X543850Y160375*
X543578Y158500*
Y157375*
X543850Y155500*
X544396Y154375*
X545214Y154000*
X545759*
X546578Y154375*
X547123Y155500*
X547396Y157375*
Y158500*
X547123Y160375*
X546578Y161500*
X545759Y161875*
X545214*
X304487Y137875D02*
X303669Y137500D01*
X303123Y136375*
X302850Y134500*
Y133375*
X303123Y131500*
X303669Y130375*
X304487Y130000*
X305032*
X305850Y130375*
X306396Y131500*
X306669Y133375*
Y134500*
X306396Y136375*
X305850Y137500*
X305032Y137875*
X304487*
X309396Y130750D02*
X309123Y130375D01*
X309396Y130000*
X309669Y130375*
X309396Y130750*
X315396Y136750D02*
X315123Y137500D01*
X314305Y137875*
X313759*
X312941Y137500*
X312396Y136375*
X312123Y134500*
Y132625*
X312396Y131125*
X312941Y130375*
X313759Y130000*
X314032*
X314850Y130375*
X315396Y131125*
X315669Y132250*
Y132625*
X315396Y133750*
X314850Y134500*
X314032Y134875*
X313759*
X312941Y134500*
X312396Y133750*
X312123Y132625*
X324396Y135250D02*
X327396Y130000D01*
Y135250D02*
X324396Y130000D01*
X336123Y136375D02*
X336669Y136750D01*
X337487Y137875*
Y130000*
X396169Y136000D02*
Y136375D01*
X396441Y137125*
X396714Y137500*
X397259Y137875*
X398350*
X398896Y137500*
X399169Y137125*
X399441Y136375*
Y135625*
X399169Y134875*
X398623Y133750*
X395896Y130000*
X399714*
X428850D02*
X440850D01*
X428850Y142000*
X440850*
X428850Y130000*
X461487Y137875D02*
X463669Y134125D01*
Y130000*
X465850Y137875D02*
X463669Y134125D01*
X468305Y137875D02*
Y130000D01*
Y137875D02*
X471850D01*
X468305Y134125D02*
X470487D01*
X468305Y130000D02*
X471850D01*
X478123Y136750D02*
X477578Y137500D01*
X476759Y137875*
X475669*
X474850Y137500*
X474305Y136750*
Y136000*
X474578Y135250*
X474850Y134875*
X475396Y134500*
X477032Y133750*
X477578Y133375*
X477850Y133000*
X478123Y132250*
Y131125*
X477578Y130375*
X476759Y130000*
X475669*
X474850Y130375*
X474305Y131125*
X514669Y136750D02*
Y130000D01*
X512214Y133375D02*
X517123D01*
X524487Y139375D02*
X519578Y127375D01*
X526941Y133375D02*
X531850D01*
X535941Y137875D02*
X535123Y137500D01*
X534578Y136375*
X534305Y134500*
Y133375*
X534578Y131500*
X535123Y130375*
X535941Y130000*
X536487*
X537305Y130375*
X537850Y131500*
X538123Y133375*
Y134500*
X537850Y136375*
X537305Y137500*
X536487Y137875*
X535941*
X540850Y130750D02*
X540578Y130375D01*
X540850Y130000*
X541123Y130375*
X540850Y130750*
X545214Y137875D02*
X544396Y137500D01*
X543850Y136375*
X543578Y134500*
Y133375*
X543850Y131500*
X544396Y130375*
X545214Y130000*
X545759*
X546578Y130375*
X547123Y131500*
X547396Y133375*
Y134500*
X547123Y136375*
X546578Y137500*
X545759Y137875*
X545214*
X302850Y112375D02*
X303396Y112750D01*
X304214Y113875*
Y106000*
X306941Y106750D02*
X306669Y106375D01*
X306941Y106000*
X307214Y106375*
X306941Y106750*
X311032Y113875D02*
X310214Y113500D01*
X309941Y112750*
Y112000*
X310214Y111250*
X310759Y110875*
X311850Y110500*
X312669Y110125*
X313214Y109375*
X313487Y108625*
Y107500*
X313214Y106750*
X312941Y106375*
X312123Y106000*
X311032*
X310214Y106375*
X309941Y106750*
X309669Y107500*
Y108625*
X309941Y109375*
X310487Y110125*
X311305Y110500*
X312396Y110875*
X312941Y111250*
X313214Y112000*
Y112750*
X312941Y113500*
X312123Y113875*
X311032*
X396169Y112000D02*
Y112375D01*
X396441Y113125*
X396714Y113500*
X397259Y113875*
X398350*
X398896Y113500*
X399169Y113125*
X399441Y112375*
Y111625*
X399169Y110875*
X398623Y109750*
X395896Y106000*
X399714*
X428850D02*
X440850Y118000D01*
Y106000*
X428850Y118000*
Y106000*
X464487Y113875D02*
Y106000D01*
Y113875D02*
X468305Y106000D01*
Y113875D02*
Y106000D01*
X472396Y113875D02*
X471850Y113500D01*
X471305Y112750*
X471032Y112000*
X470759Y110875*
Y109000*
X471032Y107875*
X471305Y107125*
X471850Y106375*
X472396Y106000*
X473487*
X474032Y106375*
X474578Y107125*
X474850Y107875*
X475123Y109000*
Y110875*
X474850Y112000*
X474578Y112750*
X474032Y113500*
X473487Y113875*
X472396*
X514669Y112750D02*
Y106000D01*
X512214Y109375D02*
X517123D01*
X524487Y115375D02*
X519578Y103375D01*
X526941Y109375D02*
X531850D01*
X535941Y113875D02*
X535123Y113500D01*
X534578Y112375*
X534305Y110500*
Y109375*
X534578Y107500*
X535123Y106375*
X535941Y106000*
X536487*
X537305Y106375*
X537850Y107500*
X538123Y109375*
Y110500*
X537850Y112375*
X537305Y113500*
X536487Y113875*
X535941*
X540850Y106750D02*
X540578Y106375D01*
X540850Y106000*
X541123Y106375*
X540850Y106750*
X545214Y113875D02*
X544396Y113500D01*
X543850Y112375*
X543578Y110500*
Y109375*
X543850Y107500*
X544396Y106375*
X545214Y106000*
X545759*
X546578Y106375*
X547123Y107500*
X547396Y109375*
Y110500*
X547123Y112375*
X546578Y113500*
X545759Y113875*
X545214*
G74*
X0Y0D02*
M02*
