%
T1C.01181F0S0
X011969Y010394
X010394Y011969
X011575Y012953
X010394Y014724
X012756Y014921
X011575Y016299
X010394Y018268
X010394Y019055
X012559Y020354
X010394Y020433
X012476Y021283
X011722Y021895
X010394Y023386
X010394Y025748
X011311Y026091
X012559Y026732
X010394Y02811
X012559Y028307
X010394Y030472
X012756Y031063
X011772Y031063
X012795Y032953
X012205Y032953
X014646Y032953
X014055Y032953
X013425Y032756
X015236Y032126
X014134Y031063
X013346Y028701
X015118Y028701
X014051Y027917
X01378Y025787
X014724Y025551
X013441Y025067
X014654Y024874
X013346Y024646
X014921Y024567
X013346Y023386
X015118Y022795
X015236Y022264
X014327Y021012
X013701Y020827
X012965Y020236
X01437Y019882
X01311Y019843
X013701Y019843
X015167Y019746
X014843Y019331
X014799Y018752
X014189Y01815
X015031Y017031
X014134Y016496
X012953Y016102
X015164Y015767
X013346Y013937
X014785Y013936
X013701Y013346
X014921Y012756
X013386Y012323
X015315Y011772
X014134Y010394
X016299Y010394
X016811Y014053
X016941Y014746
X015484Y01488
X016831Y015715
X015773Y015769
X016417Y016772
X016732Y017362
X015394Y017465
X016299Y017677
X016409Y01815
X016299Y018661
X016311Y019452
X017087Y020118
X015906Y02122
X016457Y02122
X017382Y022256
X017008Y022264
X016496Y022795
X017874Y022795
X016299Y024173
X017677Y02437
X016299Y025551
X017677Y025551
X015453Y026945
X016807Y027362
X016579Y027697
X016323Y028071
X016693Y028898
X016693Y02937
X017835Y030551
X016693Y031457
X015591Y032126
X017795Y032126
X018465Y032835
X01815Y032126
X018346Y029961
X018268Y028701
X019256Y026583
X01874Y026563
X020028Y026555
X018326Y026457
X018661Y025787
X020283Y025433
X019528Y024409
X019134Y022913
X020311Y022024
X018307Y02189
X019681Y021693
X020079Y021417
X01803Y021242
X018369Y020982
X020387Y02033
X019528Y019331
X019094Y019173
X019567Y018543
X019567Y017795
X018268Y015827
X019724Y015512
X018386Y013819
X017907Y013805
X018386Y013268
X019646Y012441
X018465Y010394
X02063Y010394
X022205Y011969
X021024Y01248
X021348Y014189
X022205Y014331
X022205Y016496
X022205Y01689
X020984Y017441
X020866Y01815
X021929Y018701
X020984Y019055
X022205Y019646
X020865Y020594
X021557Y020982
X022205Y021693
X021535Y022047
X022205Y022402
X021535Y022913
X022205Y024173
X021335Y024961
X020827Y025551
X020858Y026563
X022205Y026732
X021339Y027362
X020433Y028701
X022205Y029488
X021024Y031063
X022205Y032835
T2C.01969F0S0
X013366Y011772
X013858Y011772
X01435Y011772
X016791Y011772
X017283Y011772
X017776Y011772
X018268Y011772
X01876Y011772
X019252Y011772
X019744Y011772
T3C.02362F0S0
X011703Y017736G85X011703Y017579
X011703Y019744G85X011703Y019587
X010807Y017589G85X010531Y017589
X010807Y019734G85X010531Y019734
T4C.07087F0S0
X016693Y030472
X016693Y032638
T5C.07874F0S0
X010984Y010984
X010984Y032047
X019646Y032047
X021614Y010984
M01
M02
M08
M30
