*
*
G04 PADS 9.5 Build Number: 522968 generated Gerber (RS-274-X) file*
G04 PC Version=2.1*
*
%IN "Plasma_Gen_Main Board_P"*%
*
%MOIN*%
*
%FSLAX35Y35*%
*
*
*
*
G04 PC Standard Apertures*
*
*
G04 Thermal Relief Aperture macro.*
%AMTER*
1,1,$1,0,0*
1,0,$1-$2,0,0*
21,0,$3,$4,0,0,45*
21,0,$3,$4,0,0,135*
%
*
*
G04 Annular Aperture macro.*
%AMANN*
1,1,$1,0,0*
1,0,$2,0,0*
%
*
*
G04 Odd Aperture macro.*
%AMODD*
1,1,$1,0,0*
1,0,$1-0.005,0,0*
%
*
*
G04 PC Custom Aperture Macros*
*
*
*
*
*
*
G04 PC Aperture Table*
*
%ADD010C,0.001*%
%ADD020C,0.00394*%
%ADD045R,0.02165X0.02165*%
%ADD047O,0.08858X0.05315*%
%ADD048C,0.0374*%
%ADD050R,0.03346X0.03346*%
%ADD051C,0.08071*%
%ADD052C,0.07283*%
%ADD054R,0.04134X0.02559*%
%ADD055R,0.02559X0.04134*%
%ADD056R,0.0315X0.0563*%
%ADD057R,0.04528X0.09331*%
%ADD058R,0.08071X0.03346*%
%ADD059R,0.02224X0.20197*%
%ADD060R,0.05512X0.01772*%
%ADD061R,0.08071X0.06201*%
%ADD062R,0.09055X0.04921*%
%ADD063R,0.08701X0.09094*%
%ADD064R,0.0374X0.01772*%
%ADD065R,0.06102X0.08071*%
%ADD066R,0.08071X0.08858*%
%ADD067R,0.04921X0.07283*%
%ADD068R,0.01969X0.0252*%
%ADD069R,0.01378X0.06102*%
%ADD070R,0.06102X0.01378*%
*
*
*
*
G04 PC Circuitry*
G04 Layer Name Plasma_Gen_Main Board_P - circuitry*
%LPD*%
*
*
G04 PC Custom Flashes*
G04 Layer Name Plasma_Gen_Main Board_P - flashes*
%LPD*%
*
*
G04 PC Circuitry*
G04 Layer Name Plasma_Gen_Main Board_P - circuitry*
%LPD*%
*
G54D10*
G54D20*
G01X201988Y148051D02*
Y155020D01*
X209783*
Y148051*
X201988*
X202165D02*
Y155020D01*
X202362Y148051D02*
Y155020D01*
X202559Y148051D02*
Y155020D01*
X202756Y148051D02*
Y155020D01*
X202953Y148051D02*
Y155020D01*
X203150Y148051D02*
Y155020D01*
X203346Y148051D02*
Y155020D01*
X203543Y148051D02*
Y155020D01*
X203740Y148051D02*
Y155020D01*
X203937Y148051D02*
Y155020D01*
X204134Y148051D02*
Y155020D01*
X204331Y148051D02*
Y155020D01*
X204528Y148051D02*
Y155020D01*
X204724Y148051D02*
Y155020D01*
X204921Y148051D02*
Y155020D01*
X205118Y148051D02*
Y155020D01*
X205315Y148051D02*
Y155020D01*
X205512Y148051D02*
Y155020D01*
X205709Y148051D02*
Y155020D01*
X205906Y148051D02*
Y155020D01*
X206102Y148051D02*
Y155020D01*
X206299Y148051D02*
Y155020D01*
X206496Y148051D02*
Y155020D01*
X206693Y148051D02*
Y155020D01*
X206890Y148051D02*
Y155020D01*
X207087Y148051D02*
Y155020D01*
X207283Y148051D02*
Y155020D01*
X207480Y148051D02*
Y155020D01*
X207677Y148051D02*
Y155020D01*
X207874Y148051D02*
Y155020D01*
X208071Y148051D02*
Y155020D01*
X208268Y148051D02*
Y155020D01*
X208465Y148051D02*
Y155020D01*
X208661Y148051D02*
Y155020D01*
X208858Y148051D02*
Y155020D01*
X209055Y148051D02*
Y155020D01*
X209252Y148051D02*
Y155020D01*
X209449Y148051D02*
Y155020D01*
X209646Y148051D02*
Y155020D01*
X185807Y188563D02*
X192500D01*
Y168681*
X185807*
Y171275*
X186008Y171365*
X186399Y171568*
X186779Y171791*
X187145Y172035*
X187498Y172299*
X187836Y172581*
X188158Y172882*
X188463Y173200*
X188751Y173534*
X189019Y173883*
X189268Y174246*
X189497Y174622*
X189705Y175011*
X189892Y175410*
X190056Y175818*
X190198Y176235*
X190317Y176660*
X190412Y177090*
X190484Y177524*
X190532Y177962*
X190556Y178402*
Y178842*
X190532Y179282*
X190484Y179720*
X190412Y180155*
X190317Y180585*
X190198Y181009*
X190056Y181426*
X189892Y181834*
X189705Y182233*
X189497Y182622*
X189268Y182998*
X189019Y183361*
X188751Y183710*
X188463Y184044*
X188158Y184362*
X187836Y184663*
X187498Y184945*
X187145Y185209*
X186779Y185453*
X186399Y185676*
X186008Y185879*
X185807Y185969*
Y188563*
X185906Y168681D02*
Y171319D01*
Y185925D02*
Y188563D01*
X186102Y168681D02*
Y171414D01*
Y185830D02*
Y188563D01*
X186299Y168681D02*
Y171516D01*
Y185728D02*
Y188563D01*
X186496Y168681D02*
Y171625D01*
Y185619D02*
Y188563D01*
X186693Y168681D02*
Y171741D01*
Y185503D02*
Y188563D01*
X186890Y168681D02*
Y171865D01*
Y185379D02*
Y188563D01*
X187087Y168681D02*
Y171996D01*
Y185248D02*
Y188563D01*
X187283Y168681D02*
Y172138D01*
Y185106D02*
Y188563D01*
X187480Y168681D02*
Y172286D01*
Y184959D02*
Y188563D01*
X187677Y168681D02*
Y172449D01*
Y184796D02*
Y188563D01*
X187874Y168681D02*
Y172617D01*
Y184627D02*
Y188563D01*
X188071Y168681D02*
Y172801D01*
Y184444D02*
Y188563D01*
X188268Y168681D02*
Y172996D01*
Y184248D02*
Y188563D01*
X188465Y168681D02*
Y173201D01*
Y184043D02*
Y188563D01*
X188661Y168681D02*
Y173430D01*
Y183814D02*
Y188563D01*
X188858Y168681D02*
Y173674D01*
Y183570D02*
Y188563D01*
X189055Y168681D02*
Y173935D01*
Y183309D02*
Y188563D01*
X189252Y168681D02*
Y174222D01*
Y183022D02*
Y188563D01*
X189449Y168681D02*
Y174543D01*
Y182701D02*
Y188563D01*
X189646Y168681D02*
Y174899D01*
Y182345D02*
Y188563D01*
X189843Y168681D02*
Y175304D01*
Y181940D02*
Y188563D01*
X190039Y168681D02*
Y175777D01*
Y181468D02*
Y188563D01*
X190236Y168681D02*
Y176372D01*
Y180873D02*
Y188563D01*
X190433Y168681D02*
Y177214D01*
Y180030D02*
Y188563D01*
X190630Y168681D02*
Y188563D01*
X190827Y168681D02*
Y188563D01*
X191024Y168681D02*
Y188563D01*
X191220Y168681D02*
Y188563D01*
X191417Y168681D02*
Y188563D01*
X191614Y168681D02*
Y188563D01*
X191811Y168681D02*
Y188563D01*
X192008Y168681D02*
Y188563D01*
X192205Y168681D02*
Y188563D01*
X192402Y168681D02*
Y188563D01*
X172618D02*
X179311D01*
Y185969*
X179110Y185879*
X178719Y185677*
X178339Y185454*
X177972Y185210*
X177618Y184946*
X177280Y184664*
X176958Y184363*
X176652Y184046*
X176365Y183712*
X176096Y183363*
X175846Y182999*
X175617Y182623*
X175409Y182235*
X175222Y181836*
X175058Y181427*
X174916Y181010*
X174797Y180585*
X174701Y180155*
X174629Y179720*
X174581Y179282*
X174557Y178842*
Y178402*
X174581Y177962*
X174629Y177524*
X174701Y177089*
X174797Y176659*
X174916Y176234*
X175058Y175817*
X175222Y175409*
X175409Y175009*
X175617Y174621*
X175846Y174245*
X176096Y173881*
X176365Y173532*
X176652Y173198*
X176958Y172881*
X177280Y172580*
X177618Y172298*
X177972Y172034*
X178339Y171791*
X178719Y171567*
X179110Y171365*
X179311Y171275*
Y168681*
X172618*
Y188563*
X172717Y168681D02*
Y188563D01*
X172913Y168681D02*
Y188563D01*
X173110Y168681D02*
Y188563D01*
X173307Y168681D02*
Y188563D01*
X173504Y168681D02*
Y188563D01*
X173701Y168681D02*
Y188563D01*
X173898Y168681D02*
Y188563D01*
X174094Y168681D02*
Y188563D01*
X174291Y168681D02*
Y188563D01*
X174488Y168681D02*
Y188563D01*
X174685Y168681D02*
Y177185D01*
Y180059D02*
Y188563D01*
X174882Y168681D02*
Y176355D01*
Y180890D02*
Y188563D01*
X175079Y168681D02*
Y175765D01*
Y181479D02*
Y188563D01*
X175276Y168681D02*
Y175295D01*
Y181950D02*
Y188563D01*
X175472Y168681D02*
Y174891D01*
Y182353D02*
Y188563D01*
X175669Y168681D02*
Y174536D01*
Y182709D02*
Y188563D01*
X175866Y168681D02*
Y174216D01*
Y183028D02*
Y188563D01*
X176063Y168681D02*
Y173929D01*
Y183315D02*
Y188563D01*
X176260Y168681D02*
Y173669D01*
Y183576D02*
Y188563D01*
X176457Y168681D02*
Y173426D01*
Y183819D02*
Y188563D01*
X176654Y168681D02*
Y173197D01*
Y184047D02*
Y188563D01*
X176850Y168681D02*
Y172992D01*
Y184252D02*
Y188563D01*
X177047Y168681D02*
Y172797D01*
Y184447D02*
Y188563D01*
X177244Y168681D02*
Y172614D01*
Y184630D02*
Y188563D01*
X177441Y168681D02*
Y172446D01*
Y184798D02*
Y188563D01*
X177638Y168681D02*
Y172283D01*
Y184961D02*
Y188563D01*
X177835Y168681D02*
Y172136D01*
Y185108D02*
Y188563D01*
X178031Y168681D02*
Y171995D01*
Y185250D02*
Y188563D01*
X178228Y168681D02*
Y171864D01*
Y185380D02*
Y188563D01*
X178425Y168681D02*
Y171740D01*
Y185504D02*
Y188563D01*
X178622Y168681D02*
Y171624D01*
Y185620D02*
Y188563D01*
X178819Y168681D02*
Y171515D01*
Y185729D02*
Y188563D01*
X179016Y168681D02*
Y171414D01*
Y185830D02*
Y188563D01*
X179213Y168681D02*
Y171319D01*
Y185925D02*
Y188563D01*
X118209Y179429D02*
X118363Y179418D01*
X118514Y179385*
X118658Y179331*
X118794Y179257*
X118918Y179165*
X119027Y179055*
X119119Y178932*
X119193Y178796*
X119193D02*
X119247Y178651D01*
X119280Y178501*
X119291Y178346*
Y171260*
X119280Y171106*
X119247Y170955*
X119193Y170810*
X119193D02*
X119119Y170675D01*
X119027Y170551*
X118918Y170442*
X118794Y170349*
X118658Y170275*
X118514Y170221*
X118363Y170188*
X118209Y170177*
X115846*
X115692Y170188*
X115541Y170221*
X115397Y170275*
X115261Y170349*
X115137Y170442*
X115028Y170551*
X114936Y170675*
X114862Y170810*
X114808Y170955*
X114775Y171106*
X114764Y171260*
Y178346*
X114775Y178501*
X114808Y178651*
X114862Y178796*
X114936Y178932*
X115028Y179055*
X115137Y179165*
X115261Y179257*
X115397Y179331*
X115541Y179385*
X115692Y179418*
X115846Y179429*
X118209*
X114764Y171260D02*
Y178346D01*
X114961Y170641D02*
Y178965D01*
X115157Y170427D02*
Y179180D01*
X115354Y170298D02*
Y179308D01*
X115551Y170219D02*
Y179387D01*
X115748Y170184D02*
Y179422D01*
X115945Y170177D02*
Y179429D01*
X116142Y170177D02*
Y179429D01*
X116339Y170177D02*
Y179429D01*
X116535Y170177D02*
Y179429D01*
X116732Y170177D02*
Y179429D01*
X116929Y170177D02*
Y179429D01*
X117126Y170177D02*
Y179429D01*
X117323Y170177D02*
Y179429D01*
X117520Y170177D02*
Y179429D01*
X117717Y170177D02*
Y179429D01*
X117913Y170177D02*
Y179429D01*
X118110Y170177D02*
Y179429D01*
X118307Y170184D02*
Y179422D01*
X118504Y170219D02*
Y179387D01*
X118701Y170298D02*
Y179308D01*
X118898Y170427D02*
Y179180D01*
X119094Y170641D02*
Y178965D01*
X118209Y203051D02*
X118363Y203040D01*
X118514Y203007*
X118658Y202953*
X118794Y202879*
X118918Y202787*
X119027Y202678*
X119119Y202554*
X119193Y202418*
X119193D02*
X119247Y202274D01*
X119280Y202123*
X119291Y201969*
Y194882*
X119280Y194728*
X119247Y194577*
X119193Y194432*
X119193D02*
X119119Y194297D01*
X119027Y194173*
X118918Y194064*
X118794Y193971*
X118658Y193897*
X118514Y193843*
X118363Y193810*
X118209Y193799*
X115846*
X115692Y193810*
X115541Y193843*
X115397Y193897*
X115261Y193971*
X115137Y194064*
X115028Y194173*
X114936Y194297*
X114862Y194432*
X114808Y194577*
X114775Y194728*
X114764Y194882*
Y201969*
X114775Y202123*
X114808Y202274*
X114862Y202418*
X114936Y202554*
X115028Y202678*
X115137Y202787*
X115261Y202879*
X115397Y202953*
X115541Y203007*
X115692Y203040*
X115846Y203051*
X118209*
X114764Y194882D02*
Y201969D01*
X114961Y194263D02*
Y202587D01*
X115157Y194049D02*
Y202802D01*
X115354Y193920D02*
Y202930D01*
X115551Y193841D02*
Y203009D01*
X115748Y193806D02*
Y203044D01*
X115945Y193799D02*
Y203051D01*
X116142Y193799D02*
Y203051D01*
X116339Y193799D02*
Y203051D01*
X116535Y193799D02*
Y203051D01*
X116732Y193799D02*
Y203051D01*
X116929Y193799D02*
Y203051D01*
X117126Y193799D02*
Y203051D01*
X117323Y193799D02*
Y203051D01*
X117520Y193799D02*
Y203051D01*
X117717Y193799D02*
Y203051D01*
X117913Y193799D02*
Y203051D01*
X118110Y193799D02*
Y203051D01*
X118307Y193806D02*
Y203044D01*
X118504Y193841D02*
Y203009D01*
X118701Y193920D02*
Y202930D01*
X118898Y194049D02*
Y202802D01*
X119094Y194263D02*
Y202587D01*
X100000Y100000D02*
X225984D01*
Y332283*
X100000*
Y100000*
G54D45*
X181890Y144488D03*
Y147638D03*
X124803Y216535D03*
X121654D03*
X196063Y225118D03*
X199213D03*
Y240945D03*
Y244094D03*
X148228Y272835D03*
Y275984D03*
Y206811D03*
Y203661D03*
X128661Y254646D03*
Y251496D03*
X171850Y272953D03*
Y276102D03*
X196063Y258268D03*
X199213D03*
X123961Y291425D03*
Y288276D03*
X122047Y144094D03*
Y140945D03*
X125984Y144094D03*
Y140945D03*
X196063Y251181D03*
X199213D03*
X202362Y240945D03*
Y244094D03*
X178346Y147638D03*
Y144488D03*
X174803D03*
Y147638D03*
X197559Y236890D03*
X200709D03*
X197559Y233346D03*
X200709D03*
X117236Y211898D03*
Y215047D03*
X133583Y176378D03*
X136732D03*
X131102Y184055D03*
X134252D03*
X131102Y187205D03*
X134252D03*
X190945Y209055D03*
Y212205D03*
X173622Y197441D03*
Y194291D03*
X133583Y173228D03*
X136732D03*
X134252Y194094D03*
X131102D03*
Y190945D03*
X134252D03*
Y159449D03*
X137402D03*
X196063Y254331D03*
X199213D03*
X196063Y248031D03*
X199213D03*
X168307Y154134D03*
X171457D03*
X162362Y203543D03*
Y206693D03*
X157638Y203543D03*
Y206693D03*
X180315Y272835D03*
Y275984D03*
X183465Y272835D03*
Y275984D03*
X179319Y206685D03*
X176169D03*
X144685Y203661D03*
Y206811D03*
X126496Y208622D03*
X129646D03*
Y238780D03*
X126496D03*
X129567Y242913D03*
X126417D03*
X152559Y133425D03*
X149409D03*
X132622Y291386D03*
X129472D03*
X142913Y301969D03*
Y305118D03*
G54D47*
X106693Y175886D03*
Y197343D03*
G54D48*
X133661Y117717D03*
X138583D03*
X143504D03*
X167913D03*
X172835D03*
X177756D03*
X182677D03*
X187598D03*
X192520D03*
X197441D03*
G54D50*
X143465Y133425D03*
X137165D03*
X164173Y161614D03*
Y167913D03*
X197244Y148819D03*
Y155118D03*
X121220Y254685D03*
X114921D03*
X196811Y220236D03*
X203110D03*
X122047Y157874D03*
Y151575D03*
G54D51*
X109843Y109843D03*
X216142D03*
X109843Y320472D03*
X196457D03*
G54D52*
X166929Y326378D03*
Y304724D03*
G54D54*
X187402Y161614D03*
Y157874D03*
Y154134D03*
X177953D03*
Y161614D03*
X208543Y194016D03*
Y186535D03*
X199094Y190276D03*
X208661Y209646D03*
Y202165D03*
X199213Y205906D03*
X190945Y203346D03*
Y195866D03*
X181496Y199606D03*
X208661Y178150D03*
Y170669D03*
X199213Y174409D03*
X143465Y151929D03*
Y148189D03*
Y144449D03*
X134016D03*
Y151929D03*
X168110Y137205D03*
Y129724D03*
X158661Y133465D03*
G54D55*
X124705Y222638D03*
X120965D03*
X117224D03*
Y232087D03*
X124705D03*
G54D56*
X205827Y160630D03*
G54D57*
X205906Y150551D03*
G54D58*
X118386Y247638D03*
Y239370D03*
G54D59*
X191516Y178622D03*
X173602D03*
G54D60*
X117008Y181496D03*
Y184055D03*
Y186614D03*
Y189173D03*
Y191732D03*
G54D61*
X106693Y182579D03*
Y190650D03*
G54D62*
X143602Y328543D03*
X124902D03*
X143602Y321850D03*
X124902D03*
G54D63*
X206102Y135433D03*
X186811D03*
G54D64*
X132622Y302409D03*
Y299850D03*
Y297291D03*
X123961D03*
Y302409D03*
G54D65*
X154134Y320472D03*
X179724D03*
G54D66*
X153150Y298819D03*
X180709Y302756D03*
G54D67*
X166929Y291339D03*
G54D68*
X157720Y160102D03*
Y151795D03*
X151646Y160094D03*
Y151787D03*
X175575Y129740D03*
Y138047D03*
G54D69*
X148228Y262323D03*
X150197D03*
X152165D03*
X154134D03*
X156102D03*
X158071D03*
X160039D03*
X162008D03*
X163976D03*
X165945D03*
X167913D03*
X169882D03*
X171850D03*
X173819D03*
X175787D03*
X177756D03*
Y217441D03*
X175787D03*
X173819D03*
X171850D03*
X169882D03*
X167913D03*
X165945D03*
X163976D03*
X162008D03*
X160039D03*
X158071D03*
X156102D03*
X154134D03*
X152165D03*
X150197D03*
X148228D03*
G54D70*
X185433Y254646D03*
Y252677D03*
Y250709D03*
Y248740D03*
Y246772D03*
Y244803D03*
Y242835D03*
Y240866D03*
Y238898D03*
Y236929D03*
Y234961D03*
Y232992D03*
Y231024D03*
Y229055D03*
Y227087D03*
Y225118D03*
X140551D03*
Y227087D03*
Y229055D03*
Y231024D03*
Y232992D03*
Y234961D03*
Y236929D03*
Y238898D03*
Y240866D03*
Y242835D03*
Y244803D03*
Y246772D03*
Y248740D03*
Y250709D03*
Y252677D03*
Y254646D03*
X0Y0D02*
M02*
