*
*
G04 PADS 9.5 Build Number: 522968 generated Gerber (RS-274-X) file*
G04 PC Version=2.1*
*
%IN "Plasma_Gen_Main Board_P"*%
*
%MOIN*%
*
%FSLAX35Y35*%
*
*
*
*
G04 PC Standard Apertures*
*
*
G04 Thermal Relief Aperture macro.*
%AMTER*
1,1,$1,0,0*
1,0,$1-$2,0,0*
21,0,$3,$4,0,0,45*
21,0,$3,$4,0,0,135*
%
*
*
G04 Annular Aperture macro.*
%AMANN*
1,1,$1,0,0*
1,0,$2,0,0*
%
*
*
G04 Odd Aperture macro.*
%AMODD*
1,1,$1,0,0*
1,0,$1-0.005,0,0*
%
*
*
G04 PC Custom Aperture Macros*
*
*
*
*
*
*
G04 PC Aperture Table*
*
%ADD010C,0.001*%
%ADD020C,0.00394*%
%ADD045R,0.02165X0.02165*%
%ADD046R,0.04921X0.04921*%
%ADD047O,0.08858X0.05315*%
%ADD048C,0.0374*%
%ADD049R,0.03543X0.02953*%
%ADD050R,0.03346X0.03346*%
%ADD051C,0.08071*%
%ADD052C,0.07283*%
%ADD053R,0.06496X0.02165*%
*
*
*
*
G04 PC Circuitry*
G04 Layer Name Plasma_Gen_Main Board_P - circuitry*
%LPD*%
*
*
G04 PC Custom Flashes*
G04 Layer Name Plasma_Gen_Main Board_P - flashes*
%LPD*%
*
*
G04 PC Circuitry*
G04 Layer Name Plasma_Gen_Main Board_P - circuitry*
%LPD*%
*
G54D10*
G54D20*
G01X118209Y179429D02*
X118363Y179418D01*
X118514Y179385*
X118658Y179331*
X118794Y179257*
X118918Y179165*
X119027Y179055*
X119119Y178932*
X119193Y178796*
X119193D02*
X119247Y178651D01*
X119280Y178501*
X119291Y178346*
Y171260*
X119280Y171106*
X119247Y170955*
X119193Y170810*
X119193D02*
X119119Y170675D01*
X119027Y170551*
X118918Y170442*
X118794Y170349*
X118658Y170275*
X118514Y170221*
X118363Y170188*
X118209Y170177*
X115846*
X115692Y170188*
X115541Y170221*
X115397Y170275*
X115261Y170349*
X115137Y170442*
X115028Y170551*
X114936Y170675*
X114862Y170810*
X114808Y170955*
X114775Y171106*
X114764Y171260*
Y178346*
X114775Y178501*
X114808Y178651*
X114862Y178796*
X114936Y178932*
X115028Y179055*
X115137Y179165*
X115261Y179257*
X115397Y179331*
X115541Y179385*
X115692Y179418*
X115846Y179429*
X118209*
X114764Y171260D02*
Y178346D01*
X114961Y170641D02*
Y178965D01*
X115157Y170427D02*
Y179180D01*
X115354Y170298D02*
Y179308D01*
X115551Y170219D02*
Y179387D01*
X115748Y170184D02*
Y179422D01*
X115945Y170177D02*
Y179429D01*
X116142Y170177D02*
Y179429D01*
X116339Y170177D02*
Y179429D01*
X116535Y170177D02*
Y179429D01*
X116732Y170177D02*
Y179429D01*
X116929Y170177D02*
Y179429D01*
X117126Y170177D02*
Y179429D01*
X117323Y170177D02*
Y179429D01*
X117520Y170177D02*
Y179429D01*
X117717Y170177D02*
Y179429D01*
X117913Y170177D02*
Y179429D01*
X118110Y170177D02*
Y179429D01*
X118307Y170184D02*
Y179422D01*
X118504Y170219D02*
Y179387D01*
X118701Y170298D02*
Y179308D01*
X118898Y170427D02*
Y179180D01*
X119094Y170641D02*
Y178965D01*
X118209Y203051D02*
X118363Y203040D01*
X118514Y203007*
X118658Y202953*
X118794Y202879*
X118918Y202787*
X119027Y202678*
X119119Y202554*
X119193Y202418*
X119193D02*
X119247Y202274D01*
X119280Y202123*
X119291Y201969*
Y194882*
X119280Y194728*
X119247Y194577*
X119193Y194432*
X119193D02*
X119119Y194297D01*
X119027Y194173*
X118918Y194064*
X118794Y193971*
X118658Y193897*
X118514Y193843*
X118363Y193810*
X118209Y193799*
X115846*
X115692Y193810*
X115541Y193843*
X115397Y193897*
X115261Y193971*
X115137Y194064*
X115028Y194173*
X114936Y194297*
X114862Y194432*
X114808Y194577*
X114775Y194728*
X114764Y194882*
Y201969*
X114775Y202123*
X114808Y202274*
X114862Y202418*
X114936Y202554*
X115028Y202678*
X115137Y202787*
X115261Y202879*
X115397Y202953*
X115541Y203007*
X115692Y203040*
X115846Y203051*
X118209*
X114764Y194882D02*
Y201969D01*
X114961Y194263D02*
Y202587D01*
X115157Y194049D02*
Y202802D01*
X115354Y193920D02*
Y202930D01*
X115551Y193841D02*
Y203009D01*
X115748Y193806D02*
Y203044D01*
X115945Y193799D02*
Y203051D01*
X116142Y193799D02*
Y203051D01*
X116339Y193799D02*
Y203051D01*
X116535Y193799D02*
Y203051D01*
X116732Y193799D02*
Y203051D01*
X116929Y193799D02*
Y203051D01*
X117126Y193799D02*
Y203051D01*
X117323Y193799D02*
Y203051D01*
X117520Y193799D02*
Y203051D01*
X117717Y193799D02*
Y203051D01*
X117913Y193799D02*
Y203051D01*
X118110Y193799D02*
Y203051D01*
X118307Y193806D02*
Y203044D01*
X118504Y193841D02*
Y203009D01*
X118701Y193920D02*
Y202930D01*
X118898Y194049D02*
Y202802D01*
X119094Y194263D02*
Y202587D01*
X100000Y100000D02*
X225984D01*
Y332283*
X100000*
Y100000*
G54D45*
X203937Y249606D03*
X207087D03*
X209843Y280709D03*
X206693D03*
X209843Y277165D03*
X206693D03*
X209843Y273622D03*
X206693D03*
X200000Y168898D03*
X203150D03*
X200000Y224016D03*
X203150D03*
X200000Y196457D03*
X203150D03*
G54D46*
X182480Y249606D03*
X190748D03*
G54D47*
X106693Y175886D03*
Y197343D03*
G54D48*
X133661Y117717D03*
X138583D03*
X143504D03*
X167913D03*
X172835D03*
X177756D03*
X182677D03*
X187598D03*
X192520D03*
X197441D03*
G54D49*
X146752Y213583D03*
Y226575D03*
X131988Y213583D03*
Y226575D03*
Y179331D03*
Y166339D03*
X146752Y179331D03*
Y166339D03*
X131988Y273819D03*
Y260827D03*
X146752Y273819D03*
Y260827D03*
G54D50*
X183661Y168898D03*
X189567D03*
X183661Y196457D03*
X189567D03*
X183661Y224016D03*
X189567D03*
G54D51*
X109843Y109843D03*
X216142D03*
X109843Y320472D03*
X196457D03*
G54D52*
X166929Y326378D03*
Y304724D03*
G54D53*
X180807Y280709D03*
Y277165D03*
Y273622D03*
X192421D03*
Y277165D03*
Y280709D03*
X0Y0D02*
M02*
