*
*
G04 PADS 9.5 Build Number: 522968 generated Gerber (RS-274-X) file*
G04 PC Version=2.1*
*
%IN "Plasma_Gen_Main Board_P"*%
*
%MOIN*%
*
%FSLAX35Y35*%
*
*
*
*
G04 PC Standard Apertures*
*
*
G04 Thermal Relief Aperture macro.*
%AMTER*
1,1,$1,0,0*
1,0,$1-$2,0,0*
21,0,$3,$4,0,0,45*
21,0,$3,$4,0,0,135*
%
*
*
G04 Annular Aperture macro.*
%AMANN*
1,1,$1,0,0*
1,0,$2,0,0*
%
*
*
G04 Odd Aperture macro.*
%AMODD*
1,1,$1,0,0*
1,0,$1-0.005,0,0*
%
*
*
G04 PC Custom Aperture Macros*
*
*
*
*
*
*
G04 PC Aperture Table*
*
%ADD010C,0.001*%
%ADD011R,0.01969X0.01969*%
%ADD012R,0.04724X0.04724*%
%ADD013R,0.06299X0.01969*%
%ADD016R,0.03346X0.02756*%
%ADD017R,0.0315X0.0315*%
%ADD020C,0.00394*%
*
*
*
*
G04 PC Circuitry*
G04 Layer Name Plasma_Gen_Main Board_P - circuitry*
%LPD*%
*
*
G04 PC Custom Flashes*
G04 Layer Name Plasma_Gen_Main Board_P - flashes*
%LPD*%
*
*
G04 PC Circuitry*
G04 Layer Name Plasma_Gen_Main Board_P - circuitry*
%LPD*%
*
G54D10*
G54D11*
G01X203937Y249606D03*
X207087D03*
X209843Y280709D03*
X206693D03*
X209843Y277165D03*
X206693D03*
X209843Y273622D03*
X206693D03*
X200000Y168898D03*
X203150D03*
X200000Y224016D03*
X203150D03*
X200000Y196457D03*
X203150D03*
G54D12*
X182480Y249606D03*
X190748D03*
G54D13*
X180807Y280709D03*
Y277165D03*
Y273622D03*
X192421D03*
Y277165D03*
Y280709D03*
G54D16*
X146752Y213583D03*
Y226575D03*
X131988Y213583D03*
Y226575D03*
Y179331D03*
Y166339D03*
X146752Y179331D03*
Y166339D03*
X131988Y273819D03*
Y260827D03*
X146752Y273819D03*
Y260827D03*
G54D17*
X183661Y168898D03*
X189567D03*
X183661Y196457D03*
X189567D03*
X183661Y224016D03*
X189567D03*
G54D20*
X118209Y179331D02*
X118363Y179319D01*
X118513Y179283*
X118656Y179223*
X118656D02*
X118787Y179143D01*
X118905Y179042*
X119005Y178925*
X119086Y178793*
X119145Y178651*
X119181Y178500*
X119193Y178346*
Y171260*
X119181Y171106*
X119145Y170956*
X119086Y170813*
X119005Y170681*
X118905Y170564*
X118787Y170464*
X118656Y170383*
X118656D02*
X118513Y170324D01*
X118363Y170288*
X118209Y170276*
X115846*
X115692Y170288*
X115542Y170324*
X115400Y170383*
X115268Y170464*
X115150Y170564*
X115050Y170681*
X114969Y170813*
X114910Y170956*
X114874Y171106*
X114862Y171260*
Y178346*
X114874Y178500*
X114910Y178651*
X114969Y178793*
X115050Y178925*
X115150Y179042*
X115268Y179143*
X115400Y179223*
X115542Y179283*
X115692Y179319*
X115846Y179331*
X118209*
X114961Y170834D02*
Y178772D01*
X115157Y170558D02*
Y179048D01*
X115354Y170411D02*
Y179196D01*
X115551Y170322D02*
Y179285D01*
X115748Y170283D02*
Y179323D01*
X115945Y170276D02*
Y179331D01*
X116142Y170276D02*
Y179331D01*
X116339Y170276D02*
Y179331D01*
X116535Y170276D02*
Y179331D01*
X116732Y170276D02*
Y179331D01*
X116929Y170276D02*
Y179331D01*
X117126Y170276D02*
Y179331D01*
X117323Y170276D02*
Y179331D01*
X117520Y170276D02*
Y179331D01*
X117717Y170276D02*
Y179331D01*
X117913Y170276D02*
Y179331D01*
X118110Y170276D02*
Y179331D01*
X118307Y170283D02*
Y179323D01*
X118504Y170322D02*
Y179285D01*
X118701Y170411D02*
Y179196D01*
X118898Y170558D02*
Y179048D01*
X119094Y170834D02*
Y178772D01*
X118209Y202953D02*
X118363Y202941D01*
X118513Y202905*
X118656Y202845*
X118656D02*
X118787Y202765D01*
X118905Y202664*
X119005Y202547*
X119086Y202415*
X119145Y202273*
X119181Y202122*
X119193Y201969*
Y194882*
X119181Y194728*
X119145Y194578*
X119086Y194435*
X119005Y194303*
X118905Y194186*
X118787Y194086*
X118656Y194005*
X118656D02*
X118513Y193946D01*
X118363Y193910*
X118209Y193898*
X115846*
X115692Y193910*
X115542Y193946*
X115400Y194005*
X115268Y194086*
X115150Y194186*
X115050Y194303*
X114969Y194435*
X114910Y194578*
X114874Y194728*
X114862Y194882*
Y201969*
X114874Y202122*
X114910Y202273*
X114969Y202415*
X115050Y202547*
X115150Y202664*
X115268Y202765*
X115400Y202845*
X115542Y202905*
X115692Y202941*
X115846Y202953*
X118209*
X114961Y194456D02*
Y202394D01*
X115157Y194180D02*
Y202670D01*
X115354Y194033D02*
Y202818D01*
X115551Y193944D02*
Y202907D01*
X115748Y193905D02*
Y202945D01*
X115945Y193898D02*
Y202953D01*
X116142Y193898D02*
Y202953D01*
X116339Y193898D02*
Y202953D01*
X116535Y193898D02*
Y202953D01*
X116732Y193898D02*
Y202953D01*
X116929Y193898D02*
Y202953D01*
X117126Y193898D02*
Y202953D01*
X117323Y193898D02*
Y202953D01*
X117520Y193898D02*
Y202953D01*
X117717Y193898D02*
Y202953D01*
X117913Y193898D02*
Y202953D01*
X118110Y193898D02*
Y202953D01*
X118307Y193905D02*
Y202945D01*
X118504Y193944D02*
Y202907D01*
X118701Y194033D02*
Y202818D01*
X118898Y194180D02*
Y202670D01*
X119094Y194456D02*
Y202394D01*
X100000Y100000D02*
X225984D01*
Y332283*
X100000*
Y100000*
X0Y0D02*
M02*
