*
*
G04 PADS 9.5 Build Number: 522968 generated Gerber (RS-274-X) file*
G04 PC Version=2.1*
*
%IN "MPD-LED_PCB_V1.0_201908"*%
*
%MOIN*%
*
%FSLAX35Y35*%
*
*
*
*
G04 PC Standard Apertures*
*
*
G04 Thermal Relief Aperture macro.*
%AMTER*
1,1,$1,0,0*
1,0,$1-$2,0,0*
21,0,$3,$4,0,0,45*
21,0,$3,$4,0,0,135*
%
*
*
G04 Annular Aperture macro.*
%AMANN*
1,1,$1,0,0*
1,0,$2,0,0*
%
*
*
G04 Odd Aperture macro.*
%AMODD*
1,1,$1,0,0*
1,0,$1-0.005,0,0*
%
*
*
G04 PC Custom Aperture Macros*
*
*
*
*
*
*
G04 PC Aperture Table*
*
%ADD010C,0.001*%
%ADD011R,0.04724X0.04724*%
%ADD012R,0.05906X0.05906*%
%ADD013C,0.06*%
%ADD014C,0.08268*%
%ADD015C,0.01969*%
%ADD016C,0.02362*%
%ADD017C,0.01*%
*
*
*
*
G04 PC Circuitry*
G04 Layer Name MPD-LED_PCB_V1.0_201908 - circuitry*
%LPD*%
*
*
G04 PC Custom Flashes*
G04 Layer Name MPD-LED_PCB_V1.0_201908 - flashes*
%LPD*%
*
*
G04 PC Circuitry*
G04 Layer Name MPD-LED_PCB_V1.0_201908 - circuitry*
%LPD*%
*
G54D10*
G54D11*
G01X135236Y269291D03*
X143504D03*
X135236Y229921D03*
X143504D03*
X135236Y188583D03*
X143504D03*
X135236Y149213D03*
X143504D03*
X135236Y109843D03*
X143504D03*
X135039Y257480D03*
X143701D03*
X135039Y218110D03*
X143701D03*
X135039Y121654D03*
X143701D03*
X135039Y176772D03*
X143701D03*
X135039Y137402D03*
X143701D03*
G54D12*
X111811Y218110D03*
G54D13*
Y208268D03*
Y198425D03*
Y188583D03*
Y178740D03*
Y168898D03*
G54D14*
X107874Y119685D03*
X170866D03*
X107874Y269291D03*
X170866D03*
G54D15*
X135039Y127165D02*
Y121654D01*
Y132677D02*
Y137402D01*
X143504Y109843D02*
X143701Y110039D01*
Y121654*
X135039Y170472D02*
Y176772D01*
X111811Y168898D02*
Y140551D01*
X123622Y128740*
Y114961*
X128740Y109843*
X135236*
X111811Y178740D02*
X115748D01*
X121654Y172835*
Y157480*
X129921Y149213*
X135236*
X143504D02*
Y137598D01*
X143701Y137402*
X135039Y212992D02*
Y218110D01*
X103937Y211811D02*
X107480Y208268D01*
X111811*
X103937Y211811D02*
Y242913D01*
X130315Y269291*
X135236*
X111811Y188583D02*
X135236D01*
X111811Y198425D02*
X123622D01*
X126378Y201181*
Y225197*
X131102Y229921*
X135236*
X143504Y188583D02*
Y176969D01*
X143701Y176772*
X135039Y251575D02*
Y257480D01*
X143504Y229921D02*
Y218307D01*
X143701Y218110*
X143504Y269291D02*
Y257677D01*
X143701Y257480*
G54D16*
X135039Y127165D03*
Y132677D03*
Y170472D03*
Y212992D03*
Y251575D03*
G54D17*
X176240Y276707D02*
Y281102D01*
G75*
G03X170866Y286476I-5374J0D01*
G01X107874*
G03X102500Y281102I0J-5374*
G01Y276707*
G03X103275Y276289I500J0*
G01Y262293D02*
G03Y276289I4599J6998D01*
G01Y262293D02*
G03X102500Y261876I-275J-417D01*
G01Y247611*
G03X103354Y247257I500J0*
G01X127851Y271755*
X130315Y272776D02*
G03X127851Y271755I-0J-3485D01*
G01X130315Y272776D02*
X130350D01*
G03X130771Y273005I0J500*
G01X132874Y274154D02*
G03X130771Y273005I0J-2500D01*
G01X132874Y274154D02*
X137598D01*
X139075Y273671D02*
G03X137598Y274154I-1477J-2017D01*
G01X139075Y273671D02*
G03X139665I295J404D01*
G01X141142Y274154D02*
G03X139665Y273671I-0J-2500D01*
G01X141142Y274154D02*
X145866D01*
X148366Y271654D02*
G03X145866Y274154I-2500J-0D01*
G01X148366Y271654D02*
Y266929D01*
X147218Y264826D02*
G03X148366Y266929I-1352J2103D01*
G01X147218Y264826D02*
G03X146988Y264405I270J-421D01*
G01Y262482*
G03X147251Y262042I500J0*
G01X148563Y259843D02*
G03X147251Y262042I-2500J-0D01*
G01X148563Y259843D02*
Y255118D01*
X146063Y252618D02*
G03X148563Y255118I-0J2500D01*
G01X146063Y252618D02*
X141339D01*
X139698Y253232D02*
G03X141339Y252618I1641J1886D01*
G01X139698Y253232D02*
G03X139042I-328J-378D01*
G01X138804Y253048D02*
G03X139042Y253232I-1402J2070D01*
G01X138804Y253048D02*
G03X138600Y252508I280J-414D01*
G01X131478D02*
G03X138600I3561J-933D01*
G01X131478D02*
G03X131275Y253048I-483J126D01*
G01X130177Y255118D02*
G03X131275Y253048I2500J0D01*
G01X130177Y255118D02*
Y259843D01*
X132677Y262343D02*
G03X130177Y259843I0J-2500D01*
G01X132677Y262343D02*
X137402D01*
X139042Y261729D02*
G03X137402Y262343I-1640J-1886D01*
G01X139042Y261729D02*
G03X139698I328J377D01*
G01X139823Y261831D02*
G03X139698Y261729I1516J-1988D01*
G01X139823Y261831D02*
G03X140020Y262228I-303J397D01*
G01Y264405*
G03X139790Y264826I-500J0*
G01X139665Y264912D02*
G03X139790Y264826I1477J2017D01*
G01X139665Y264912D02*
G03X139075I-295J-404D01*
G01X137598Y264429D02*
G03X139075Y264912I0J2500D01*
G01X137598Y264429D02*
X132874D01*
X131429Y264889D02*
G03X132874Y264429I1445J2040D01*
G01X131429Y264889D02*
G03X130786Y264835I-289J-408D01*
G01X107568Y241617*
G03X107421Y241263I353J-354*
G01Y223913*
G03X108077Y223438I500J-0*
G01X108858Y223563D02*
G03X108077Y223438I0J-2500D01*
G01X108858Y223563D02*
X114764D01*
X117264Y221063D02*
G03X114764Y223563I-2500J-0D01*
G01X117264Y221063D02*
Y215157D01*
X115873Y212917D02*
G03X117264Y215157I-1109J2240D01*
G01X115873Y212917D02*
G03X115738Y212119I222J-448D01*
G01X114957Y203757D02*
G03X115738Y212119I-3146J4511D01*
G01X114957Y203757D02*
G03Y202936I286J-411D01*
G01X115923Y202077D02*
G03X114957Y202936I-4112J-3652D01*
G01X115923Y202077D02*
G03X116297Y201909I374J332D01*
G01X121972*
G03X122325Y202056I-0J500*
G01X122747Y202478*
G03X122894Y202831I-353J353*
G01Y225197*
X123914Y227661D02*
G03X122894Y225197I2464J-2464D01*
G01X123914Y227661D02*
X128639Y232385D01*
X130400Y233334D02*
G03X128639Y232385I702J-3413D01*
G01X130400Y233334D02*
G03X130729Y233567I-100J490D01*
G01X132874Y234783D02*
G03X130729Y233567I0J-2500D01*
G01X132874Y234783D02*
X137598D01*
X139075Y234301D02*
G03X137598Y234783I-1477J-2018D01*
G01X139075Y234301D02*
G03X139665I295J403D01*
G01X141142Y234783D02*
G03X139665Y234301I-0J-2500D01*
G01X141142Y234783D02*
X145866D01*
X148366Y232283D02*
G03X145866Y234783I-2500J0D01*
G01X148366Y232283D02*
Y227559D01*
X147218Y225456D02*
G03X148366Y227559I-1352J2103D01*
G01X147218Y225456D02*
G03X146988Y225035I270J-421D01*
G01Y223112*
G03X147251Y222672I500J0*
G01X148563Y220472D02*
G03X147251Y222672I-2500J0D01*
G01X148563Y220472D02*
Y215748D01*
X146063Y213248D02*
G03X148563Y215748I-0J2500D01*
G01X146063Y213248D02*
X141339D01*
X139698Y213861D02*
G03X141339Y213248I1641J1887D01*
G01X139698Y213861D02*
G03X139042I-328J-377D01*
G01X138905Y213750D02*
G03X139042Y213861I-1503J1998D01*
G01X138905Y213750D02*
G03X138707Y213308I300J-399D01*
G01X131372D02*
G03X138707I3667J-316D01*
G01X131372D02*
G03X131174Y213750I-498J43D01*
G01X130748Y214158D02*
G03X131174Y213750I1929J1590D01*
G01X130748Y214158D02*
G03X129862Y213840I-386J-318D01*
G01Y201181*
X128842Y198717D02*
G03X129862Y201181I-2464J2464D01*
G01X128842Y198717D02*
X126086Y195961D01*
X123622Y194941D02*
G03X126086Y195961I0J3484D01*
G01X123622Y194941D02*
X116297D01*
G03X115923Y194773I0J-500*
G01X114957Y193914D02*
G03X115923Y194773I-3146J4511D01*
G01X114957Y193914D02*
G03Y193094I286J-410D01*
G01X115923Y192235D02*
G03X114957Y193094I-4112J-3652D01*
G01X115923Y192235D02*
G03X116297Y192067I374J332D01*
G01X130350*
G03X130771Y192297I0J500*
G01X132874Y193445D02*
G03X130771Y192297I0J-2500D01*
G01X132874Y193445D02*
X137598D01*
X139075Y192962D02*
G03X137598Y193445I-1477J-2017D01*
G01X139075Y192962D02*
G03X139665I295J404D01*
G01X141142Y193445D02*
G03X139665Y192962I-0J-2500D01*
G01X141142Y193445D02*
X145866D01*
X148366Y190945D02*
G03X145866Y193445I-2500J-0D01*
G01X148366Y190945D02*
Y186220D01*
X147218Y184117D02*
G03X148366Y186220I-1352J2103D01*
G01X147218Y184117D02*
G03X146988Y183697I270J-420D01*
G01Y181774*
G03X147251Y181334I500J-0*
G01X148563Y179134D02*
G03X147251Y181334I-2500J-0D01*
G01X148563Y179134D02*
Y174409D01*
X146063Y171909D02*
G03X148563Y174409I-0J2500D01*
G01X146063Y171909D02*
X141339D01*
X139698Y172523D02*
G03X141339Y171909I1641J1886D01*
G01X139698Y172523D02*
G03X139042I-328J-377D01*
G01X138753Y172306D02*
G03X139042Y172523I-1351J2103D01*
G01X138753Y172306D02*
G03X138524Y171886I271J-420D01*
G01Y171740*
G03X138547Y171589I500J0*
G01X131532D02*
G03X138547I3507J-1117D01*
G01X131532D02*
G03X131555Y171740I-477J151D01*
G01Y171886*
G03X131325Y172306I-500J-0*
G01X130177Y174409D02*
G03X131325Y172306I2500J0D01*
G01X130177Y174409D02*
Y179134D01*
X132677Y181634D02*
G03X130177Y179134I0J-2500D01*
G01X132677Y181634D02*
X137402D01*
X139042Y181020D02*
G03X137402Y181634I-1640J-1886D01*
G01X139042Y181020D02*
G03X139698I328J378D01*
G01X139823Y181122D02*
G03X139698Y181020I1516J-1988D01*
G01X139823Y181122D02*
G03X140020Y181520I-303J398D01*
G01Y183697*
G03X139790Y184117I-500J-0*
G01X139665Y184203D02*
G03X139790Y184117I1477J2017D01*
G01X139665Y184203D02*
G03X139075I-295J-404D01*
G01X137598Y183720D02*
G03X139075Y184203I0J2500D01*
G01X137598Y183720D02*
X132874D01*
X130771Y184869D02*
G03X132874Y183720I2103J1351D01*
G01X130771Y184869D02*
G03X130350Y185098I-421J-271D01*
G01X116297*
G03X115923Y184930I0J-500*
G01X114957Y184072D02*
G03X115923Y184930I-3146J4511D01*
G01X114957Y184072D02*
G03Y183251I286J-411D01*
G01X115958Y182352D02*
G03X114957Y183251I-4147J-3612D01*
G01X115958Y182352D02*
G03X116262Y182186I378J329D01*
G01X118212Y181204D02*
G03X116262Y182186I-2464J-2464D01*
G01X118212Y181204D02*
X124117Y175298D01*
X125138Y172835D02*
G03X124117Y175298I-3484J-0D01*
G01X125138Y172835D02*
Y159131D01*
G03X125284Y158777I500J-0*
G01X130565Y153496*
G03X131244Y153471I354J354*
G01X132874Y154075D02*
G03X131244Y153471I0J-2500D01*
G01X132874Y154075D02*
X137598D01*
X139075Y153592D02*
G03X137598Y154075I-1477J-2017D01*
G01X139075Y153592D02*
G03X139665I295J404D01*
G01X141142Y154075D02*
G03X139665Y153592I-0J-2500D01*
G01X141142Y154075D02*
X145866D01*
X148366Y151575D02*
G03X145866Y154075I-2500J-0D01*
G01X148366Y151575D02*
Y146850D01*
X147218Y144747D02*
G03X148366Y146850I-1352J2103D01*
G01X147218Y144747D02*
G03X146988Y144327I270J-420D01*
G01Y142404*
G03X147251Y141964I500J-0*
G01X148563Y139764D02*
G03X147251Y141964I-2500J-0D01*
G01X148563Y139764D02*
Y135039D01*
X146063Y132539D02*
G03X148563Y135039I-0J2500D01*
G01X146063Y132539D02*
X141339D01*
X139698Y133153D02*
G03X141339Y132539I1641J1886D01*
G01X139698Y133153D02*
G03X139042I-328J-378D01*
G01X138917Y133051D02*
G03X139042Y133153I-1515J1988D01*
G01X138917Y133051D02*
G03X138720Y132656I303J-397D01*
G01X137808Y130251D02*
G03X138720Y132656I-2769J2426D01*
G01X137808Y130251D02*
G03Y129592I376J-330D01*
G01X138666Y126533D02*
G03X137808Y129592I-3627J632D01*
G01X138666Y126533D02*
G03X138866Y126042I492J-85D01*
G01X139042Y125902D02*
G03X138866Y126042I-1640J-1886D01*
G01X139042Y125902D02*
G03X139698I328J378D01*
G01X141339Y126516D02*
G03X139698Y125902I-0J-2500D01*
G01X141339Y126516D02*
X146063D01*
X148563Y124016D02*
G03X146063Y126516I-2500J-0D01*
G01X148563Y124016D02*
Y119291D01*
X147415Y117188D02*
G03X148563Y119291I-1352J2103D01*
G01X147415Y117188D02*
G03X147185Y116768I270J-420D01*
G01Y114590*
G03X147382Y114193I500J0*
G01X148366Y112205D02*
G03X147382Y114193I-2500J-0D01*
G01X148366Y112205D02*
Y107480D01*
X145866Y104980D02*
G03X148366Y107480I0J2500D01*
G01X145866Y104980D02*
X141142D01*
X139665Y105463D02*
G03X141142Y104980I1477J2017D01*
G01X139665Y105463D02*
G03X139075I-295J-404D01*
G01X137598Y104980D02*
G03X139075Y105463I0J2500D01*
G01X137598Y104980D02*
X132874D01*
X130771Y106129D02*
G03X132874Y104980I2103J1351D01*
G01X130771Y106129D02*
G03X130350Y106358I-421J-271D01*
G01X128740*
X126276Y107379D02*
G03X128740Y106358I2464J2464D01*
G01X126276Y107379D02*
X121158Y112497D01*
X120138Y114961D02*
G03X121158Y112497I3484J-0D01*
G01X120138Y114961D02*
Y127090D01*
G03X119991Y127443I-500J-0*
G01X109347Y138087*
X108327Y140551D02*
G03X109347Y138087I3484J0D01*
G01X108327Y140551D02*
Y164411D01*
G03X108159Y164785I-500J0*
G01X108665Y173409D02*
G03X108159Y164785I3146J-4511D01*
G01X108665Y173409D02*
G03Y174229I-286J410D01*
G01Y183251D02*
G03Y174229I3146J-4511D01*
G01Y183251D02*
G03Y184072I-286J410D01*
G01Y193094D02*
G03Y184072I3146J-4511D01*
G01Y193094D02*
G03Y193914I-286J410D01*
G01Y202936D02*
G03Y193914I3146J-4511D01*
G01Y202936D02*
G03Y203757I-286J410D01*
G01X107696Y204618D02*
G03X108665Y203757I4115J3650D01*
G01X107696Y204618D02*
G03X107342Y204786I-374J-331D01*
G01X105017Y205804D02*
G03X107342Y204786I2463J2464D01*
G01X105017Y205804D02*
X103354Y207467D01*
G03X102500Y207113I-354J-354*
G01Y127101*
G03X103275Y126683I500J-0*
G01Y112687D02*
G03Y126683I4599J6998D01*
G01Y112687D02*
G03X102500Y112269I-275J-418D01*
G01Y107874*
G03X107874Y102500I5374J0*
G01X170866*
G03X176240Y107874I0J5374*
G01Y112269*
G03X175466Y112687I-500J0*
G01Y126683D02*
G03Y112687I-4600J-6998D01*
G01Y126683D02*
G03X176240Y127101I274J418D01*
G01Y261876*
G03X175466Y262293I-500J-0*
G01Y276289D02*
G03Y262293I-4600J-6998D01*
G01Y276289D02*
G03X176240Y276707I274J418D01*
G01X118169Y170194D02*
Y171184D01*
G03X118023Y171538I-500J0*
G01X117427Y172134*
G03X116635Y171540I-354J-354*
G01X117181Y170086D02*
G03X116635Y171540I-5370J-1188D01*
G01X117181Y170086D02*
G03X118169Y170194I488J108D01*
G01X140020Y222858D02*
Y225035D01*
G03X139790Y225456I-500J0*
G01X139665Y225542D02*
G03X139790Y225456I1477J2017D01*
G01X139665Y225542D02*
G03X139075I-295J-404D01*
G01X137598Y225059D02*
G03X139075Y225542I0J2500D01*
G01X137598Y225059D02*
X132874D01*
X131846Y225280D02*
G03X132874Y225059I1028J2279D01*
G01X131846Y225280D02*
G03X131287Y225178I-206J-456D01*
G01X130009Y223900*
G03X129862Y223547I353J-353*
G01Y222381*
G03X130748Y222063I500J-0*
G01X132677Y222972D02*
G03X130748Y222063I0J-2500D01*
G01X132677Y222972D02*
X137402D01*
X139042Y222359D02*
G03X137402Y222972I-1640J-1887D01*
G01X139042Y222359D02*
G03X139698I328J377D01*
G01X139823Y222461D02*
G03X139698Y222359I1516J-1989D01*
G01X139823Y222461D02*
G03X140020Y222858I-303J397D01*
G01X140217Y114845D02*
Y116768D01*
G03X139987Y117188I-500J-0*
G01X139698Y117405D02*
G03X139987Y117188I1641J1886D01*
G01X139698Y117405D02*
G03X139042I-328J-378D01*
G01X137402Y116791D02*
G03X139042Y117405I-0J2500D01*
G01X137402Y116791D02*
X132677D01*
X130177Y119291D02*
G03X132677Y116791I2500J0D01*
G01X130177Y119291D02*
Y124016D01*
X131213Y126042D02*
G03X130177Y124016I1464J-2026D01*
G01X131213Y126042D02*
G03X131413Y126533I-293J406D01*
G01X132271Y129592D02*
G03X131413Y126533I2768J-2427D01*
G01X132271Y129592D02*
G03Y130251I-376J329D01*
G01X131358Y132656D02*
G03X132271Y130251I3681J21D01*
G01X131358Y132656D02*
G03X131161Y133051I-500J-2D01*
G01X130177Y135039D02*
G03X131161Y133051I2500J0D01*
G01X130177Y135039D02*
Y139764D01*
X132677Y142264D02*
G03X130177Y139764I0J-2500D01*
G01X132677Y142264D02*
X137402D01*
X139042Y141650D02*
G03X137402Y142264I-1640J-1886D01*
G01X139042Y141650D02*
G03X139698I328J378D01*
G01X139823Y141752D02*
G03X139698Y141650I1516J-1988D01*
G01X139823Y141752D02*
G03X140020Y142149I-303J397D01*
G01X140020D02*
Y144327D01*
G03X139790Y144747I-500J-0*
G01X139665Y144833D02*
G03X139790Y144747I1477J2017D01*
G01X139665Y144833D02*
G03X139075I-295J-404D01*
G01X137598Y144350D02*
G03X139075Y144833I0J2500D01*
G01X137598Y144350D02*
X132874D01*
X130771Y145499D02*
G03X132874Y144350I2103J1351D01*
G01X130771Y145499D02*
G03X130350Y145728I-421J-271D01*
G01X129921*
X127458Y146749D02*
G03X129921Y145728I2463J2464D01*
G01X127458Y146749D02*
X119190Y155017D01*
X118169Y157480D02*
G03X119190Y155017I3485J0D01*
G01X118169Y157480D02*
Y167601D01*
G03X117181Y167709I-500J0*
G01X115463Y164785D02*
G03X117181Y167709I-3652J4113D01*
G01X115463Y164785D02*
G03X115295Y164411I332J-374D01*
G01Y142202*
G03X115442Y141848I500J-0*
G01X126086Y131204*
X127106Y128740D02*
G03X126086Y131204I-3484J0D01*
G01X127106Y128740D02*
Y116611D01*
G03X127253Y116257I500J-0*
G01X130013Y113498*
G03X130784Y113577I353J353*
G01X132874Y114705D02*
G03X130784Y113577I0J-2500D01*
G01X132874Y114705D02*
X137598D01*
X139075Y114222D02*
G03X137598Y114705I-1477J-2017D01*
G01X139075Y114222D02*
G03X139665I295J404D01*
G01X139954Y114405D02*
G03X139665Y114222I1188J-2200D01*
G01X139954Y114405D02*
G03X140217Y114845I-237J440D01*
G01X127106Y116699D02*
X140217D01*
X127711Y115799D02*
X140217D01*
X128611Y114899D02*
X140217D01*
X115295Y143699D02*
X140020D01*
X115295Y142799D02*
X140020D01*
X138702Y141899D02*
X139952D01*
X138685Y144599D02*
X139939D01*
X126786Y130199D02*
X132311D01*
X127061Y129299D02*
X132039D01*
X115295Y144599D02*
X131788D01*
X126187Y131099D02*
X131714D01*
X127106Y128399D02*
X131571D01*
X125291Y131999D02*
X131421D01*
X127106Y126599D02*
X131402D01*
X115397Y141899D02*
X131376D01*
X127106Y127499D02*
X131373D01*
X124391Y132899D02*
X131294D01*
X129511Y113999D02*
X131133D01*
X127106Y117599D02*
X130837D01*
X127106Y125699D02*
X130828D01*
X115295Y145499D02*
X130771D01*
X123491Y133799D02*
X130507D01*
X116291Y140999D02*
X130503D01*
X127106Y118499D02*
X130306D01*
X127106Y124799D02*
X130303D01*
X122591Y134699D02*
X130200D01*
X117191Y140099D02*
X130200D01*
X118091Y139199D02*
X130177D01*
X118991Y138299D02*
X130177D01*
X119891Y137399D02*
X130177D01*
X120791Y136499D02*
X130177D01*
X121691Y135599D02*
X130177D01*
X127106Y123899D02*
X130177D01*
X127106Y122999D02*
X130177D01*
X127106Y122099D02*
X130177D01*
X127106Y121199D02*
X130177D01*
X127106Y120299D02*
X130177D01*
X127106Y119399D02*
X130177D01*
X115295Y146399D02*
X127866D01*
X115295Y147299D02*
X126908D01*
X115295Y148199D02*
X126008D01*
X115295Y149099D02*
X125108D01*
X115295Y149999D02*
X124208D01*
X115295Y150899D02*
X123308D01*
X115295Y151799D02*
X122408D01*
X115295Y152699D02*
X121508D01*
X115295Y153599D02*
X120608D01*
X115295Y154499D02*
X119708D01*
X115295Y155399D02*
X118859D01*
X115295Y156299D02*
X118376D01*
X115295Y157199D02*
X118181D01*
X117009Y167099D02*
X118169D01*
X116603Y166199D02*
X118169D01*
X115970Y165299D02*
X118169D01*
X115295Y164399D02*
X118169D01*
X115295Y163499D02*
X118169D01*
X115295Y162599D02*
X118169D01*
X115295Y161699D02*
X118169D01*
X115295Y160799D02*
X118169D01*
X115295Y159899D02*
X118169D01*
X115295Y158999D02*
X118169D01*
X115295Y158099D02*
X118169D01*
X117366Y167999D02*
X117972D01*
X130807Y224699D02*
X140020D01*
X129930Y223799D02*
X140020D01*
X138004Y222899D02*
X140020D01*
X139176Y225599D02*
X139564D01*
X129862Y222899D02*
X132074D01*
X130040Y221999D02*
X130685D01*
X117008Y170699D02*
X118169D01*
X117363Y169799D02*
X117975D01*
X116607Y171599D02*
X117962D01*
X102500Y280499D02*
X176240D01*
X102500Y279599D02*
X176240D01*
X102500Y278699D02*
X176240D01*
X102500Y277799D02*
X176240D01*
X174367Y276899D02*
X176240D01*
X174175Y261599D02*
X176240D01*
X148412Y260699D02*
X176240D01*
X148563Y259799D02*
X176240D01*
X148563Y258899D02*
X176240D01*
X148563Y257999D02*
X176240D01*
X148563Y257099D02*
X176240D01*
X148563Y256199D02*
X176240D01*
X148563Y255299D02*
X176240D01*
X148457Y254399D02*
X176240D01*
X147968Y253499D02*
X176240D01*
X138585Y252599D02*
X176240D01*
X138718Y251699D02*
X176240D01*
X138638Y250799D02*
X176240D01*
X138317Y249899D02*
X176240D01*
X137669Y248999D02*
X176240D01*
X136251Y248099D02*
X176240D01*
X113150Y247199D02*
X176240D01*
X112250Y246299D02*
X176240D01*
X111350Y245399D02*
X176240D01*
X110450Y244499D02*
X176240D01*
X109550Y243599D02*
X176240D01*
X108650Y242699D02*
X176240D01*
X107750Y241799D02*
X176240D01*
X107421Y240899D02*
X176240D01*
X107421Y239999D02*
X176240D01*
X107421Y239099D02*
X176240D01*
X107421Y238199D02*
X176240D01*
X107421Y237299D02*
X176240D01*
X107421Y236399D02*
X176240D01*
X107421Y235499D02*
X176240D01*
X146809Y234599D02*
X176240D01*
X147927Y233699D02*
X176240D01*
X148312Y232799D02*
X176240D01*
X148366Y231899D02*
X176240D01*
X148366Y230999D02*
X176240D01*
X148366Y230099D02*
X176240D01*
X148366Y229199D02*
X176240D01*
X148366Y228299D02*
X176240D01*
X148361Y227399D02*
X176240D01*
X148130Y226499D02*
X176240D01*
X147418Y225599D02*
X176240D01*
X146988Y224699D02*
X176240D01*
X146988Y223799D02*
X176240D01*
X147036Y222899D02*
X176240D01*
X148043Y221999D02*
X176240D01*
X148483Y221099D02*
X176240D01*
X148563Y220199D02*
X176240D01*
X148563Y219299D02*
X176240D01*
X148563Y218399D02*
X176240D01*
X148563Y217499D02*
X176240D01*
X148563Y216599D02*
X176240D01*
X148563Y215699D02*
X176240D01*
X148376Y214799D02*
X176240D01*
X147745Y213899D02*
X176240D01*
X138720Y212999D02*
X176240D01*
X138610Y212099D02*
X176240D01*
X138254Y211199D02*
X176240D01*
X137549Y210299D02*
X176240D01*
X135838Y209399D02*
X176240D01*
X129862Y208499D02*
X176240D01*
X129862Y207599D02*
X176240D01*
X129862Y206699D02*
X176240D01*
X129862Y205799D02*
X176240D01*
X129862Y204899D02*
X176240D01*
X129862Y203999D02*
X176240D01*
X129862Y203099D02*
X176240D01*
X129862Y202199D02*
X176240D01*
X129862Y201299D02*
X176240D01*
X129773Y200399D02*
X176240D01*
X129429Y199499D02*
X176240D01*
X128723Y198599D02*
X176240D01*
X127823Y197699D02*
X176240D01*
X126923Y196799D02*
X176240D01*
X126021Y195899D02*
X176240D01*
X124254Y194999D02*
X176240D01*
X115207Y194099D02*
X176240D01*
X146948Y193199D02*
X176240D01*
X147968Y192299D02*
X176240D01*
X148325Y191399D02*
X176240D01*
X148366Y190499D02*
X176240D01*
X148366Y189599D02*
X176240D01*
X148366Y188699D02*
X176240D01*
X148366Y187799D02*
X176240D01*
X148366Y186899D02*
X176240D01*
X148356Y185999D02*
X176240D01*
X148100Y185099D02*
X176240D01*
X147337Y184199D02*
X176240D01*
X146988Y183299D02*
X176240D01*
X146988Y182399D02*
X176240D01*
X147071Y181499D02*
X176240D01*
X148089Y180599D02*
X176240D01*
X148498Y179699D02*
X176240D01*
X148563Y178799D02*
X176240D01*
X148563Y177899D02*
X176240D01*
X148563Y176999D02*
X176240D01*
X148563Y176099D02*
X176240D01*
X148563Y175199D02*
X176240D01*
X148561Y174299D02*
X176240D01*
X148350Y173399D02*
X176240D01*
X147675Y172499D02*
X176240D01*
X138544Y171599D02*
X176240D01*
X138714Y170699D02*
X176240D01*
X138658Y169799D02*
X176240D01*
X138367Y168899D02*
X176240D01*
X137765Y167999D02*
X176240D01*
X136512Y167099D02*
X176240D01*
X125138Y166199D02*
X176240D01*
X125138Y165299D02*
X176240D01*
X125138Y164399D02*
X176240D01*
X125138Y163499D02*
X176240D01*
X125138Y162599D02*
X176240D01*
X125138Y161699D02*
X176240D01*
X125138Y160799D02*
X176240D01*
X125138Y159899D02*
X176240D01*
X125156Y158999D02*
X176240D01*
X125963Y158099D02*
X176240D01*
X126863Y157199D02*
X176240D01*
X127763Y156299D02*
X176240D01*
X128663Y155399D02*
X176240D01*
X129563Y154499D02*
X176240D01*
X147334Y153599D02*
X176240D01*
X148099Y152699D02*
X176240D01*
X148356Y151799D02*
X176240D01*
X148366Y150899D02*
X176240D01*
X148366Y149999D02*
X176240D01*
X148366Y149099D02*
X176240D01*
X148366Y148199D02*
X176240D01*
X148366Y147299D02*
X176240D01*
X148325Y146399D02*
X176240D01*
X147969Y145499D02*
X176240D01*
X147069Y144599D02*
X176240D01*
X146988Y143699D02*
X176240D01*
X146988Y142799D02*
X176240D01*
X147364Y141899D02*
X176240D01*
X148237Y140999D02*
X176240D01*
X148540Y140099D02*
X176240D01*
X148563Y139199D02*
X176240D01*
X148563Y138299D02*
X176240D01*
X148563Y137399D02*
X176240D01*
X148563Y136499D02*
X176240D01*
X148563Y135599D02*
X176240D01*
X148540Y134699D02*
X176240D01*
X148233Y133799D02*
X176240D01*
X147354Y132899D02*
X176240D01*
X138657Y131999D02*
X176240D01*
X138365Y131099D02*
X176240D01*
X137768Y130199D02*
X176240D01*
X138039Y129299D02*
X176240D01*
X138508Y128399D02*
X176240D01*
X173878Y127499D02*
X176240D01*
X174618Y112199D02*
X176240D01*
X148366Y111299D02*
X176240D01*
X148366Y110399D02*
X176240D01*
X148366Y109499D02*
X176240D01*
X148366Y108599D02*
X176240D01*
X148366Y107699D02*
X176237D01*
X102508Y281399D02*
X176232D01*
X148271Y106799D02*
X176131D01*
X102635Y282299D02*
X176105D01*
X147802Y105899D02*
X175864D01*
X102926Y283199D02*
X175814D01*
X146169Y104999D02*
X175406D01*
X103413Y284099D02*
X175327D01*
X104050Y104099D02*
X174691D01*
X104173Y284999D02*
X174567D01*
X105224Y103199D02*
X173516D01*
X105450Y285899D02*
X173290D01*
X138705Y127499D02*
X167854D01*
X147842Y261599D02*
X167557D01*
X111374Y276899D02*
X167366D01*
X148366Y112199D02*
X167114D01*
X138677Y126599D02*
X166141D01*
X146988Y262499D02*
X165969D01*
X112888Y275999D02*
X165853D01*
X148201Y113099D02*
X165695D01*
X147912Y125699D02*
X165039D01*
X146988Y263399D02*
X164916D01*
X113907Y275099D02*
X164833D01*
X147607Y113999D02*
X164719D01*
X148437Y124799D02*
X164235D01*
X146988Y264299D02*
X164143D01*
X114659Y274199D02*
X164081D01*
X147185Y114899D02*
X163995D01*
X148563Y123899D02*
X163629D01*
X147670Y265199D02*
X163560D01*
X147749Y273299D02*
X163513D01*
X147185Y115799D02*
X163449D01*
X148563Y122999D02*
X163176D01*
X148224Y266099D02*
X163125D01*
X148253Y272399D02*
X163090D01*
X147185Y116699D02*
X163043D01*
X148563Y122099D02*
X162847D01*
X148366Y266999D02*
X162812D01*
X148366Y271499D02*
X162788D01*
X147903Y117599D02*
X162756D01*
X148563Y121199D02*
X162630D01*
X148366Y267899D02*
X162609D01*
X148366Y270599D02*
X162595D01*
X148434Y118499D02*
X162577D01*
X148563Y120299D02*
X162515D01*
X148366Y268799D02*
X162507D01*
X148366Y269699D02*
X162502D01*
X148563Y119399D02*
X162497D01*
X137901Y104999D02*
X140839D01*
X138542Y234599D02*
X140198D01*
X138680Y193199D02*
X140060D01*
X138785Y132899D02*
X140047D01*
X130250Y264299D02*
X140020D01*
X129350Y263399D02*
X140020D01*
X128450Y262499D02*
X140020D01*
X114899Y183299D02*
X140020D01*
X115918Y182399D02*
X140020D01*
X138213Y181499D02*
X140019D01*
X139014Y172499D02*
X139726D01*
X139066Y153599D02*
X139674D01*
X139069Y184199D02*
X139671D01*
X139090Y213899D02*
X139650D01*
X129862Y209399D02*
X134241D01*
X114050Y248099D02*
X133828D01*
X125138Y167099D02*
X133567D01*
X103334Y104999D02*
X132571D01*
X129862Y210299D02*
X132530D01*
X114950Y248999D02*
X132410D01*
X125138Y167999D02*
X132313D01*
X107421Y234599D02*
X131931D01*
X117877Y181499D02*
X131866D01*
X129862Y211199D02*
X131825D01*
X114847Y193199D02*
X131792D01*
X115850Y249899D02*
X131762D01*
X125138Y168899D02*
X131712D01*
X125138Y171599D02*
X131535D01*
X118550Y252599D02*
X131493D01*
X129862Y212099D02*
X131468D01*
X116750Y250799D02*
X131441D01*
X125138Y169799D02*
X131420D01*
X130463Y153599D02*
X131406D01*
X115132Y184199D02*
X131403D01*
X125138Y170699D02*
X131365D01*
X117650Y251699D02*
X131360D01*
X129862Y212999D02*
X131358D01*
X125138Y172499D02*
X131065D01*
X129866Y213899D02*
X130995D01*
X115227Y273299D02*
X130992D01*
X102876Y105899D02*
X130938D01*
X127550Y261599D02*
X130898D01*
X107421Y233699D02*
X130813D01*
X119450Y253499D02*
X130773D01*
X115866Y192299D02*
X130772D01*
X118817Y180599D02*
X130651D01*
X125092Y173399D02*
X130391D01*
X126650Y260699D02*
X130328D01*
X120350Y254399D02*
X130283D01*
X119717Y179699D02*
X130242D01*
X124815Y174299D02*
X130180D01*
X125750Y259799D02*
X130177D01*
X124850Y258899D02*
X130177D01*
X123950Y257999D02*
X130177D01*
X123050Y257099D02*
X130177D01*
X122150Y256199D02*
X130177D01*
X121250Y255299D02*
X130177D01*
X120617Y178799D02*
X130177D01*
X121517Y177899D02*
X130177D01*
X122417Y176999D02*
X130177D01*
X123317Y176099D02*
X130177D01*
X124213Y175199D02*
X130177D01*
X107421Y232799D02*
X129138D01*
X115650Y272399D02*
X128739D01*
X107421Y231899D02*
X128152D01*
X115952Y271499D02*
X127595D01*
X107421Y230999D02*
X127252D01*
X102609Y106799D02*
X127045D01*
X116145Y270599D02*
X126695D01*
X107421Y230099D02*
X126352D01*
X102503Y107699D02*
X125956D01*
X116238Y269699D02*
X125795D01*
X107421Y229199D02*
X125452D01*
X102500Y108599D02*
X125056D01*
X116234Y268799D02*
X124895D01*
X107421Y228299D02*
X124552D01*
X102500Y109499D02*
X124156D01*
X116131Y267899D02*
X123995D01*
X107421Y227399D02*
X123678D01*
X102500Y110399D02*
X123256D01*
X107421Y226499D02*
X123146D01*
X115928Y266999D02*
X123095D01*
X107421Y225599D02*
X122917D01*
X107421Y224699D02*
X122894D01*
X107435Y223799D02*
X122894D01*
X116461Y222899D02*
X122894D01*
X117082Y221999D02*
X122894D01*
X117264Y221099D02*
X122894D01*
X117264Y220199D02*
X122894D01*
X117264Y219299D02*
X122894D01*
X117264Y218399D02*
X122894D01*
X117264Y217499D02*
X122894D01*
X117264Y216599D02*
X122894D01*
X117264Y215699D02*
X122894D01*
X117238Y214799D02*
X122894D01*
X116924Y213899D02*
X122894D01*
X116025Y212999D02*
X122894D01*
X115757Y212099D02*
X122894D01*
X116465Y211199D02*
X122894D01*
X116922Y210299D02*
X122894D01*
X117194Y209399D02*
X122894D01*
X117306Y208499D02*
X122894D01*
X117270Y207599D02*
X122894D01*
X117082Y206699D02*
X122894D01*
X116726Y205799D02*
X122894D01*
X116158Y204899D02*
X122894D01*
X115279Y203999D02*
X122894D01*
X114809Y203099D02*
X122894D01*
X115812Y202199D02*
X122468D01*
X102500Y111299D02*
X122356D01*
X115616Y266099D02*
X122195D01*
X111626Y112199D02*
X121456D01*
X115180Y265199D02*
X121295D01*
X113046Y113099D02*
X120677D01*
X114597Y264299D02*
X120395D01*
X114021Y113999D02*
X120273D01*
X114745Y114899D02*
X120138D01*
X112599Y126599D02*
X120138D01*
X113702Y125699D02*
X120138D01*
X114505Y124799D02*
X120138D01*
X115111Y123899D02*
X120138D01*
X115565Y122999D02*
X120138D01*
X115893Y122099D02*
X120138D01*
X116110Y121199D02*
X120138D01*
X116226Y120299D02*
X120138D01*
X116243Y119399D02*
X120138D01*
X116164Y118499D02*
X120138D01*
X115984Y117599D02*
X120138D01*
X115697Y116699D02*
X120138D01*
X115292Y115799D02*
X120138D01*
X110886Y127499D02*
X119936D01*
X113824Y263399D02*
X119495D01*
X102500Y128399D02*
X119036D01*
X112771Y262499D02*
X118595D01*
X102500Y129299D02*
X118136D01*
X111183Y261599D02*
X117695D01*
X102500Y130199D02*
X117236D01*
X102500Y260699D02*
X116795D01*
X102500Y131099D02*
X116336D01*
X102500Y259799D02*
X115895D01*
X102500Y131999D02*
X115436D01*
X102500Y258899D02*
X114995D01*
X102500Y132899D02*
X114536D01*
X102500Y257999D02*
X114095D01*
X102500Y133799D02*
X113636D01*
X102500Y257099D02*
X113195D01*
X102500Y134699D02*
X112736D01*
X102500Y256199D02*
X112295D01*
X102500Y135599D02*
X111836D01*
X102500Y255299D02*
X111395D01*
X102500Y136499D02*
X110936D01*
X102500Y254399D02*
X110495D01*
X102500Y137399D02*
X110036D01*
X102500Y253499D02*
X109595D01*
X102500Y138299D02*
X109153D01*
X102500Y203099D02*
X108813D01*
X102500Y193199D02*
X108775D01*
X102500Y183299D02*
X108723D01*
X102500Y252599D02*
X108695D01*
X102500Y173399D02*
X108650D01*
X102500Y139199D02*
X108600D01*
X102500Y174299D02*
X108567D01*
X102500Y184199D02*
X108490D01*
X102500Y194099D02*
X108415D01*
X102500Y140099D02*
X108356D01*
X102500Y203999D02*
X108343D01*
X102500Y164399D02*
X108327D01*
X102500Y163499D02*
X108327D01*
X102500Y162599D02*
X108327D01*
X102500Y161699D02*
X108327D01*
X102500Y160799D02*
X108327D01*
X102500Y159899D02*
X108327D01*
X102500Y158999D02*
X108327D01*
X102500Y158099D02*
X108327D01*
X102500Y157199D02*
X108327D01*
X102500Y156299D02*
X108327D01*
X102500Y155399D02*
X108327D01*
X102500Y154499D02*
X108327D01*
X102500Y153599D02*
X108327D01*
X102500Y152699D02*
X108327D01*
X102500Y151799D02*
X108327D01*
X102500Y150899D02*
X108327D01*
X102500Y149999D02*
X108327D01*
X102500Y149099D02*
X108327D01*
X102500Y148199D02*
X108327D01*
X102500Y147299D02*
X108327D01*
X102500Y146399D02*
X108327D01*
X102500Y145499D02*
X108327D01*
X102500Y144599D02*
X108327D01*
X102500Y143699D02*
X108327D01*
X102500Y142799D02*
X108327D01*
X102500Y141899D02*
X108327D01*
X102500Y140999D02*
X108327D01*
X102500Y202199D02*
X107810D01*
X102500Y251699D02*
X107795D01*
X102500Y192299D02*
X107756D01*
X102500Y182399D02*
X107704D01*
X102500Y172499D02*
X107654D01*
X102500Y165299D02*
X107652D01*
X102500Y175199D02*
X107603D01*
X102500Y185099D02*
X107555D01*
X102500Y194999D02*
X107509D01*
X102500Y201299D02*
X107121D01*
X102500Y191399D02*
X107087D01*
X102500Y181499D02*
X107053D01*
X102500Y171599D02*
X107020D01*
X102500Y166199D02*
X107019D01*
X102500Y176099D02*
X106987D01*
X102500Y185999D02*
X106956D01*
X102500Y195899D02*
X106926D01*
X102500Y250799D02*
X106895D01*
X102500Y200399D02*
X106677D01*
X102500Y190499D02*
X106656D01*
X102500Y180599D02*
X106635D01*
X102500Y170699D02*
X106614D01*
X102500Y167099D02*
X106614D01*
X102500Y176999D02*
X106594D01*
X102500Y204899D02*
X106592D01*
X102500Y186899D02*
X106575D01*
X102500Y196799D02*
X106557D01*
X102500Y199499D02*
X106417D01*
X102500Y189599D02*
X106406D01*
X102500Y179699D02*
X106395D01*
X102500Y169799D02*
X106385D01*
X102500Y167999D02*
X106385D01*
X102500Y177899D02*
X106376D01*
X102500Y187799D02*
X106367D01*
X102500Y197699D02*
X106359D01*
X102500Y198599D02*
X106314D01*
X102500Y188699D02*
X106312D01*
X102500Y178799D02*
X106311D01*
X102500Y168899D02*
X106311D01*
X102500Y249899D02*
X105995D01*
X102500Y248999D02*
X105095D01*
X102500Y205799D02*
X105022D01*
X102500Y127499D02*
X104862D01*
X102500Y261599D02*
X104565D01*
X102500Y276899D02*
X104374D01*
X102500Y248099D02*
X104195D01*
X102500Y206699D02*
X104122D01*
X102500Y112199D02*
X104122D01*
X102717Y247199D02*
X103283D01*
X102880Y207599D02*
X103120D01*
X100000Y107874D02*
G03X107874Y100000I7874J0D01*
G01X170866*
G03X178740Y107874I0J7874*
G01Y281102*
G03X170866Y288976I-7874J0*
G01X107874*
G03X100000Y281102I0J-7874*
G01Y107874*
G74*
X0Y0D02*
M02*
