*
*
G04 PADS 9.5 Build Number: 522968 generated Gerber (RS-274-X) file*
G04 PC Version=2.1*
*
%IN "Plasma_Gen_Transformer_"*%
*
%MOIN*%
*
%FSLAX35Y35*%
*
*
*
*
G04 PC Standard Apertures*
*
*
G04 Thermal Relief Aperture macro.*
%AMTER*
1,1,$1,0,0*
1,0,$1-$2,0,0*
21,0,$3,$4,0,0,45*
21,0,$3,$4,0,0,135*
%
*
*
G04 Annular Aperture macro.*
%AMANN*
1,1,$1,0,0*
1,0,$2,0,0*
%
*
*
G04 Odd Aperture macro.*
%AMODD*
1,1,$1,0,0*
1,0,$1-0.005,0,0*
%
*
*
G04 PC Custom Aperture Macros*
*
*
*
*
*
*
G04 PC Aperture Table*
*
%ADD011C,0.00394*%
%ADD012C,0.00787*%
%ADD013C,0.01969*%
%ADD015C,0.01575*%
%ADD035C,0.001*%
%ADD038C,0.00354*%
%ADD039C,0.01181*%
%ADD052R,0.01969X0.01969*%
%ADD068C,0.02362*%
%ADD107R,0.06299X0.11811*%
%ADD108R,0.22835X0.24409*%
%ADD109R,0.0315X0.05118*%
%ADD110R,0.08268X0.11811*%
%ADD111R,0.05512X0.10827*%
%ADD112R,0.02953X0.03937*%
%ADD113R,0.19685X0.19685*%
%ADD114R,0.05118X0.0315*%
%ADD115R,0.11811X0.08268*%
%ADD116R,0.03937X0.02953*%
%ADD117R,0.11811X0.11811*%
%ADD118R,0.09331X0.09567*%
%ADD119C,0.03937*%
*
*
*
*
G04 PC Circuitry*
G04 Layer Name Plasma_Gen_Transformer_ - circuitry*
%LPD*%
*
*
G04 PC Custom Flashes*
G04 Layer Name Plasma_Gen_Transformer_ - flashes*
%LPD*%
*
*
G04 PC Circuitry*
G04 Layer Name Plasma_Gen_Transformer_ - circuitry*
%LPD*%
*
G54D11*
G01X213370Y160720D02*
X195811D01*
Y145248*
X213370*
Y160720*
X195929Y145248D02*
Y160720D01*
X196126Y145248D02*
Y160720D01*
X196323Y145248D02*
Y160720D01*
X196520Y145248D02*
Y160720D01*
X196717Y145248D02*
Y160720D01*
X196913Y145248D02*
Y160720D01*
X197110Y145248D02*
Y160720D01*
X197307Y145248D02*
Y160720D01*
X197504Y145248D02*
Y160720D01*
X197701Y145248D02*
Y160720D01*
X197898Y145248D02*
Y160720D01*
X198094Y145248D02*
Y160720D01*
X198291Y145248D02*
Y160720D01*
X198488Y145248D02*
Y160720D01*
X198685Y145248D02*
Y160720D01*
X198882Y145248D02*
Y160720D01*
X199079Y145248D02*
Y160720D01*
X199276Y145248D02*
Y160720D01*
X199472Y145248D02*
Y160720D01*
X199669Y145248D02*
Y160720D01*
X199866Y145248D02*
Y160720D01*
X200063Y145248D02*
Y160720D01*
X200260Y145248D02*
Y160720D01*
X200457Y145248D02*
Y160720D01*
X200654Y145248D02*
Y160720D01*
X200850Y145248D02*
Y160720D01*
X201047Y145248D02*
Y160720D01*
X201244Y145248D02*
Y160720D01*
X201441Y145248D02*
Y160720D01*
X201638Y145248D02*
Y160720D01*
X201835Y145248D02*
Y160720D01*
X202031Y145248D02*
Y160720D01*
X202228Y145248D02*
Y160720D01*
X202425Y145248D02*
Y160720D01*
X202622Y145248D02*
Y160720D01*
X202819Y145248D02*
Y160720D01*
X203016Y145248D02*
Y160720D01*
X203213Y145248D02*
Y160720D01*
X203409Y145248D02*
Y160720D01*
X203606Y145248D02*
Y160720D01*
X203803Y145248D02*
Y160720D01*
X204000Y145248D02*
Y160720D01*
X204197Y145248D02*
Y160720D01*
X204394Y145248D02*
Y160720D01*
X204591Y145248D02*
Y160720D01*
X204787Y145248D02*
Y160720D01*
X204984Y145248D02*
Y160720D01*
X205181Y145248D02*
Y160720D01*
X205378Y145248D02*
Y160720D01*
X205575Y145248D02*
Y160720D01*
X205772Y145248D02*
Y160720D01*
X205969Y145248D02*
Y160720D01*
X206165Y145248D02*
Y160720D01*
X206362Y145248D02*
Y160720D01*
X206559Y145248D02*
Y160720D01*
X206756Y145248D02*
Y160720D01*
X206953Y145248D02*
Y160720D01*
X207150Y145248D02*
Y160720D01*
X207346Y145248D02*
Y160720D01*
X207543Y145248D02*
Y160720D01*
X207740Y145248D02*
Y160720D01*
X207937Y145248D02*
Y160720D01*
X208134Y145248D02*
Y160720D01*
X208331Y145248D02*
Y160720D01*
X208528Y145248D02*
Y160720D01*
X208724Y145248D02*
Y160720D01*
X208921Y145248D02*
Y160720D01*
X209118Y145248D02*
Y160720D01*
X209315Y145248D02*
Y160720D01*
X209512Y145248D02*
Y160720D01*
X209709Y145248D02*
Y160720D01*
X209906Y145248D02*
Y160720D01*
X210102Y145248D02*
Y160720D01*
X210299Y145248D02*
Y160720D01*
X210496Y145248D02*
Y160720D01*
X210693Y145248D02*
Y160720D01*
X210890Y145248D02*
Y160720D01*
X211087Y145248D02*
Y160720D01*
X211283Y145248D02*
Y160720D01*
X211480Y145248D02*
Y160720D01*
X211677Y145248D02*
Y160720D01*
X211874Y145248D02*
Y160720D01*
X212071Y145248D02*
Y160720D01*
X212268Y145248D02*
Y160720D01*
X212465Y145248D02*
Y160720D01*
X212661Y145248D02*
Y160720D01*
X212858Y145248D02*
Y160720D01*
X213055Y145248D02*
Y160720D01*
X213252Y145248D02*
Y160720D01*
X215319Y150091D02*
X193862D01*
Y146921*
X215319*
Y150091*
X193961Y146921D02*
Y150091D01*
X194157Y146921D02*
Y150091D01*
X194354Y146921D02*
Y150091D01*
X194551Y146921D02*
Y150091D01*
X194748Y146921D02*
Y150091D01*
X194945Y146921D02*
Y150091D01*
X195142Y146921D02*
Y150091D01*
X195339Y146921D02*
Y150091D01*
X195535Y146921D02*
Y150091D01*
X195732Y146921D02*
Y150091D01*
X195929Y146921D02*
Y150091D01*
X196126Y146921D02*
Y150091D01*
X196323Y146921D02*
Y150091D01*
X196520Y146921D02*
Y150091D01*
X196717Y146921D02*
Y150091D01*
X196913Y146921D02*
Y150091D01*
X197110Y146921D02*
Y150091D01*
X197307Y146921D02*
Y150091D01*
X197504Y146921D02*
Y150091D01*
X197701Y146921D02*
Y150091D01*
X197898Y146921D02*
Y150091D01*
X198094Y146921D02*
Y150091D01*
X198291Y146921D02*
Y150091D01*
X198488Y146921D02*
Y150091D01*
X198685Y146921D02*
Y150091D01*
X198882Y146921D02*
Y150091D01*
X199079Y146921D02*
Y150091D01*
X199276Y146921D02*
Y150091D01*
X199472Y146921D02*
Y150091D01*
X199669Y146921D02*
Y150091D01*
X199866Y146921D02*
Y150091D01*
X200063Y146921D02*
Y150091D01*
X200260Y146921D02*
Y150091D01*
X200457Y146921D02*
Y150091D01*
X200654Y146921D02*
Y150091D01*
X200850Y146921D02*
Y150091D01*
X201047Y146921D02*
Y150091D01*
X201244Y146921D02*
Y150091D01*
X201441Y146921D02*
Y150091D01*
X201638Y146921D02*
Y150091D01*
X201835Y146921D02*
Y150091D01*
X202031Y146921D02*
Y150091D01*
X202228Y146921D02*
Y150091D01*
X202425Y146921D02*
Y150091D01*
X202622Y146921D02*
Y150091D01*
X202819Y146921D02*
Y150091D01*
X203016Y146921D02*
Y150091D01*
X203213Y146921D02*
Y150091D01*
X203409Y146921D02*
Y150091D01*
X203606Y146921D02*
Y150091D01*
X203803Y146921D02*
Y150091D01*
X204000Y146921D02*
Y150091D01*
X204197Y146921D02*
Y150091D01*
X204394Y146921D02*
Y150091D01*
X204591Y146921D02*
Y150091D01*
X204787Y146921D02*
Y150091D01*
X204984Y146921D02*
Y150091D01*
X205181Y146921D02*
Y150091D01*
X205378Y146921D02*
Y150091D01*
X205575Y146921D02*
Y150091D01*
X205772Y146921D02*
Y150091D01*
X205969Y146921D02*
Y150091D01*
X206165Y146921D02*
Y150091D01*
X206362Y146921D02*
Y150091D01*
X206559Y146921D02*
Y150091D01*
X206756Y146921D02*
Y150091D01*
X206953Y146921D02*
Y150091D01*
X207150Y146921D02*
Y150091D01*
X207346Y146921D02*
Y150091D01*
X207543Y146921D02*
Y150091D01*
X207740Y146921D02*
Y150091D01*
X207937Y146921D02*
Y150091D01*
X208134Y146921D02*
Y150091D01*
X208331Y146921D02*
Y150091D01*
X208528Y146921D02*
Y150091D01*
X208724Y146921D02*
Y150091D01*
X208921Y146921D02*
Y150091D01*
X209118Y146921D02*
Y150091D01*
X209315Y146921D02*
Y150091D01*
X209512Y146921D02*
Y150091D01*
X209709Y146921D02*
Y150091D01*
X209906Y146921D02*
Y150091D01*
X210102Y146921D02*
Y150091D01*
X210299Y146921D02*
Y150091D01*
X210496Y146921D02*
Y150091D01*
X210693Y146921D02*
Y150091D01*
X210890Y146921D02*
Y150091D01*
X211087Y146921D02*
Y150091D01*
X211283Y146921D02*
Y150091D01*
X211480Y146921D02*
Y150091D01*
X211677Y146921D02*
Y150091D01*
X211874Y146921D02*
Y150091D01*
X212071Y146921D02*
Y150091D01*
X212268Y146921D02*
Y150091D01*
X212465Y146921D02*
Y150091D01*
X212661Y146921D02*
Y150091D01*
X212858Y146921D02*
Y150091D01*
X213055Y146921D02*
Y150091D01*
X213252Y146921D02*
Y150091D01*
X213449Y146921D02*
Y150091D01*
X213646Y146921D02*
Y150091D01*
X213843Y146921D02*
Y150091D01*
X214039Y146921D02*
Y150091D01*
X214236Y146921D02*
Y150091D01*
X214433Y146921D02*
Y150091D01*
X214630Y146921D02*
Y150091D01*
X214827Y146921D02*
Y150091D01*
X215024Y146921D02*
Y150091D01*
X215220Y146921D02*
Y150091D01*
X242756Y160827D02*
X225197D01*
Y145354*
X242756*
Y160827*
X225315Y145354D02*
Y160827D01*
X225512Y145354D02*
Y160827D01*
X225709Y145354D02*
Y160827D01*
X225906Y145354D02*
Y160827D01*
X226102Y145354D02*
Y160827D01*
X226299Y145354D02*
Y160827D01*
X226496Y145354D02*
Y160827D01*
X226693Y145354D02*
Y160827D01*
X226890Y145354D02*
Y160827D01*
X227087Y145354D02*
Y160827D01*
X227283Y145354D02*
Y160827D01*
X227480Y145354D02*
Y160827D01*
X227677Y145354D02*
Y160827D01*
X227874Y145354D02*
Y160827D01*
X228071Y145354D02*
Y160827D01*
X228268Y145354D02*
Y160827D01*
X228465Y145354D02*
Y160827D01*
X228661Y145354D02*
Y160827D01*
X228858Y145354D02*
Y160827D01*
X229055Y145354D02*
Y160827D01*
X229252Y145354D02*
Y160827D01*
X229449Y145354D02*
Y160827D01*
X229646Y145354D02*
Y160827D01*
X229843Y145354D02*
Y160827D01*
X230039Y145354D02*
Y160827D01*
X230236Y145354D02*
Y160827D01*
X230433Y145354D02*
Y160827D01*
X230630Y145354D02*
Y160827D01*
X230827Y145354D02*
Y160827D01*
X231024Y145354D02*
Y160827D01*
X231220Y145354D02*
Y160827D01*
X231417Y145354D02*
Y160827D01*
X231614Y145354D02*
Y160827D01*
X231811Y145354D02*
Y160827D01*
X232008Y145354D02*
Y160827D01*
X232205Y145354D02*
Y160827D01*
X232402Y145354D02*
Y160827D01*
X232598Y145354D02*
Y160827D01*
X232795Y145354D02*
Y160827D01*
X232992Y145354D02*
Y160827D01*
X233189Y145354D02*
Y160827D01*
X233386Y145354D02*
Y160827D01*
X233583Y145354D02*
Y160827D01*
X233780Y145354D02*
Y160827D01*
X233976Y145354D02*
Y160827D01*
X234173Y145354D02*
Y160827D01*
X234370Y145354D02*
Y160827D01*
X234567Y145354D02*
Y160827D01*
X234764Y145354D02*
Y160827D01*
X234961Y145354D02*
Y160827D01*
X235157Y145354D02*
Y160827D01*
X235354Y145354D02*
Y160827D01*
X235551Y145354D02*
Y160827D01*
X235748Y145354D02*
Y160827D01*
X235945Y145354D02*
Y160827D01*
X236142Y145354D02*
Y160827D01*
X236339Y145354D02*
Y160827D01*
X236535Y145354D02*
Y160827D01*
X236732Y145354D02*
Y160827D01*
X236929Y145354D02*
Y160827D01*
X237126Y145354D02*
Y160827D01*
X237323Y145354D02*
Y160827D01*
X237520Y145354D02*
Y160827D01*
X237717Y145354D02*
Y160827D01*
X237913Y145354D02*
Y160827D01*
X238110Y145354D02*
Y160827D01*
X238307Y145354D02*
Y160827D01*
X238504Y145354D02*
Y160827D01*
X238701Y145354D02*
Y160827D01*
X238898Y145354D02*
Y160827D01*
X239094Y145354D02*
Y160827D01*
X239291Y145354D02*
Y160827D01*
X239488Y145354D02*
Y160827D01*
X239685Y145354D02*
Y160827D01*
X239882Y145354D02*
Y160827D01*
X240079Y145354D02*
Y160827D01*
X240276Y145354D02*
Y160827D01*
X240472Y145354D02*
Y160827D01*
X240669Y145354D02*
Y160827D01*
X240866Y145354D02*
Y160827D01*
X241063Y145354D02*
Y160827D01*
X241260Y145354D02*
Y160827D01*
X241457Y145354D02*
Y160827D01*
X241654Y145354D02*
Y160827D01*
X241850Y145354D02*
Y160827D01*
X242047Y145354D02*
Y160827D01*
X242244Y145354D02*
Y160827D01*
X242441Y145354D02*
Y160827D01*
X242638Y145354D02*
Y160827D01*
X244705Y150197D02*
X223248D01*
Y147028*
X244705*
Y150197*
X223346Y147028D02*
Y150197D01*
X223543Y147028D02*
Y150197D01*
X223740Y147028D02*
Y150197D01*
X223937Y147028D02*
Y150197D01*
X224134Y147028D02*
Y150197D01*
X224331Y147028D02*
Y150197D01*
X224528Y147028D02*
Y150197D01*
X224724Y147028D02*
Y150197D01*
X224921Y147028D02*
Y150197D01*
X225118Y147028D02*
Y150197D01*
X225315Y147028D02*
Y150197D01*
X225512Y147028D02*
Y150197D01*
X225709Y147028D02*
Y150197D01*
X225906Y147028D02*
Y150197D01*
X226102Y147028D02*
Y150197D01*
X226299Y147028D02*
Y150197D01*
X226496Y147028D02*
Y150197D01*
X226693Y147028D02*
Y150197D01*
X226890Y147028D02*
Y150197D01*
X227087Y147028D02*
Y150197D01*
X227283Y147028D02*
Y150197D01*
X227480Y147028D02*
Y150197D01*
X227677Y147028D02*
Y150197D01*
X227874Y147028D02*
Y150197D01*
X228071Y147028D02*
Y150197D01*
X228268Y147028D02*
Y150197D01*
X228465Y147028D02*
Y150197D01*
X228661Y147028D02*
Y150197D01*
X228858Y147028D02*
Y150197D01*
X229055Y147028D02*
Y150197D01*
X229252Y147028D02*
Y150197D01*
X229449Y147028D02*
Y150197D01*
X229646Y147028D02*
Y150197D01*
X229843Y147028D02*
Y150197D01*
X230039Y147028D02*
Y150197D01*
X230236Y147028D02*
Y150197D01*
X230433Y147028D02*
Y150197D01*
X230630Y147028D02*
Y150197D01*
X230827Y147028D02*
Y150197D01*
X231024Y147028D02*
Y150197D01*
X231220Y147028D02*
Y150197D01*
X231417Y147028D02*
Y150197D01*
X231614Y147028D02*
Y150197D01*
X231811Y147028D02*
Y150197D01*
X232008Y147028D02*
Y150197D01*
X232205Y147028D02*
Y150197D01*
X232402Y147028D02*
Y150197D01*
X232598Y147028D02*
Y150197D01*
X232795Y147028D02*
Y150197D01*
X232992Y147028D02*
Y150197D01*
X233189Y147028D02*
Y150197D01*
X233386Y147028D02*
Y150197D01*
X233583Y147028D02*
Y150197D01*
X233780Y147028D02*
Y150197D01*
X233976Y147028D02*
Y150197D01*
X234173Y147028D02*
Y150197D01*
X234370Y147028D02*
Y150197D01*
X234567Y147028D02*
Y150197D01*
X234764Y147028D02*
Y150197D01*
X234961Y147028D02*
Y150197D01*
X235157Y147028D02*
Y150197D01*
X235354Y147028D02*
Y150197D01*
X235551Y147028D02*
Y150197D01*
X235748Y147028D02*
Y150197D01*
X235945Y147028D02*
Y150197D01*
X236142Y147028D02*
Y150197D01*
X236339Y147028D02*
Y150197D01*
X236535Y147028D02*
Y150197D01*
X236732Y147028D02*
Y150197D01*
X236929Y147028D02*
Y150197D01*
X237126Y147028D02*
Y150197D01*
X237323Y147028D02*
Y150197D01*
X237520Y147028D02*
Y150197D01*
X237717Y147028D02*
Y150197D01*
X237913Y147028D02*
Y150197D01*
X238110Y147028D02*
Y150197D01*
X238307Y147028D02*
Y150197D01*
X238504Y147028D02*
Y150197D01*
X238701Y147028D02*
Y150197D01*
X238898Y147028D02*
Y150197D01*
X239094Y147028D02*
Y150197D01*
X239291Y147028D02*
Y150197D01*
X239488Y147028D02*
Y150197D01*
X239685Y147028D02*
Y150197D01*
X239882Y147028D02*
Y150197D01*
X240079Y147028D02*
Y150197D01*
X240276Y147028D02*
Y150197D01*
X240472Y147028D02*
Y150197D01*
X240669Y147028D02*
Y150197D01*
X240866Y147028D02*
Y150197D01*
X241063Y147028D02*
Y150197D01*
X241260Y147028D02*
Y150197D01*
X241457Y147028D02*
Y150197D01*
X241654Y147028D02*
Y150197D01*
X241850Y147028D02*
Y150197D01*
X242047Y147028D02*
Y150197D01*
X242244Y147028D02*
Y150197D01*
X242441Y147028D02*
Y150197D01*
X242638Y147028D02*
Y150197D01*
X242835Y147028D02*
Y150197D01*
X243031Y147028D02*
Y150197D01*
X243228Y147028D02*
Y150197D01*
X243425Y147028D02*
Y150197D01*
X243622Y147028D02*
Y150197D01*
X243819Y147028D02*
Y150197D01*
X244016Y147028D02*
Y150197D01*
X244213Y147028D02*
Y150197D01*
X244409Y147028D02*
Y150197D01*
X244606Y147028D02*
Y150197D01*
X284094Y143189D02*
Y125630D01*
X299567*
Y143189*
X284094*
Y125630D02*
Y143189D01*
X284291Y125630D02*
Y143189D01*
X284488Y125630D02*
Y143189D01*
X284685Y125630D02*
Y143189D01*
X284882Y125630D02*
Y143189D01*
X285079Y125630D02*
Y143189D01*
X285276Y125630D02*
Y143189D01*
X285472Y125630D02*
Y143189D01*
X285669Y125630D02*
Y143189D01*
X285866Y125630D02*
Y143189D01*
X286063Y125630D02*
Y143189D01*
X286260Y125630D02*
Y143189D01*
X286457Y125630D02*
Y143189D01*
X286654Y125630D02*
Y143189D01*
X286850Y125630D02*
Y143189D01*
X287047Y125630D02*
Y143189D01*
X287244Y125630D02*
Y143189D01*
X287441Y125630D02*
Y143189D01*
X287638Y125630D02*
Y143189D01*
X287835Y125630D02*
Y143189D01*
X288031Y125630D02*
Y143189D01*
X288228Y125630D02*
Y143189D01*
X288425Y125630D02*
Y143189D01*
X288622Y125630D02*
Y143189D01*
X288819Y125630D02*
Y143189D01*
X289016Y125630D02*
Y143189D01*
X289213Y125630D02*
Y143189D01*
X289409Y125630D02*
Y143189D01*
X289606Y125630D02*
Y143189D01*
X289803Y125630D02*
Y143189D01*
X290000Y125630D02*
Y143189D01*
X290197Y125630D02*
Y143189D01*
X290394Y125630D02*
Y143189D01*
X290591Y125630D02*
Y143189D01*
X290787Y125630D02*
Y143189D01*
X290984Y125630D02*
Y143189D01*
X291181Y125630D02*
Y143189D01*
X291378Y125630D02*
Y143189D01*
X291575Y125630D02*
Y143189D01*
X291772Y125630D02*
Y143189D01*
X291969Y125630D02*
Y143189D01*
X292165Y125630D02*
Y143189D01*
X292362Y125630D02*
Y143189D01*
X292559Y125630D02*
Y143189D01*
X292756Y125630D02*
Y143189D01*
X292953Y125630D02*
Y143189D01*
X293150Y125630D02*
Y143189D01*
X293346Y125630D02*
Y143189D01*
X293543Y125630D02*
Y143189D01*
X293740Y125630D02*
Y143189D01*
X293937Y125630D02*
Y143189D01*
X294134Y125630D02*
Y143189D01*
X294331Y125630D02*
Y143189D01*
X294528Y125630D02*
Y143189D01*
X294724Y125630D02*
Y143189D01*
X294921Y125630D02*
Y143189D01*
X295118Y125630D02*
Y143189D01*
X295315Y125630D02*
Y143189D01*
X295512Y125630D02*
Y143189D01*
X295709Y125630D02*
Y143189D01*
X295906Y125630D02*
Y143189D01*
X296102Y125630D02*
Y143189D01*
X296299Y125630D02*
Y143189D01*
X296496Y125630D02*
Y143189D01*
X296693Y125630D02*
Y143189D01*
X296890Y125630D02*
Y143189D01*
X297087Y125630D02*
Y143189D01*
X297283Y125630D02*
Y143189D01*
X297480Y125630D02*
Y143189D01*
X297677Y125630D02*
Y143189D01*
X297874Y125630D02*
Y143189D01*
X298071Y125630D02*
Y143189D01*
X298268Y125630D02*
Y143189D01*
X298465Y125630D02*
Y143189D01*
X298661Y125630D02*
Y143189D01*
X298858Y125630D02*
Y143189D01*
X299055Y125630D02*
Y143189D01*
X299252Y125630D02*
Y143189D01*
X299449Y125630D02*
Y143189D01*
X294724Y145138D02*
Y123681D01*
X297894*
Y145138*
X294724*
Y123681D02*
Y145138D01*
X294921Y123681D02*
Y145138D01*
X295118Y123681D02*
Y145138D01*
X295315Y123681D02*
Y145138D01*
X295512Y123681D02*
Y145138D01*
X295709Y123681D02*
Y145138D01*
X295906Y123681D02*
Y145138D01*
X296102Y123681D02*
Y145138D01*
X296299Y123681D02*
Y145138D01*
X296496Y123681D02*
Y145138D01*
X296693Y123681D02*
Y145138D01*
X296890Y123681D02*
Y145138D01*
X297087Y123681D02*
Y145138D01*
X297283Y123681D02*
Y145138D01*
X297480Y123681D02*
Y145138D01*
X297677Y123681D02*
Y145138D01*
X297874Y123681D02*
Y145138D01*
X312402Y143071D02*
Y125512D01*
X327874*
Y143071*
X312402*
Y125512D02*
Y143071D01*
X312598Y125512D02*
Y143071D01*
X312795Y125512D02*
Y143071D01*
X312992Y125512D02*
Y143071D01*
X313189Y125512D02*
Y143071D01*
X313386Y125512D02*
Y143071D01*
X313583Y125512D02*
Y143071D01*
X313780Y125512D02*
Y143071D01*
X313976Y125512D02*
Y143071D01*
X314173Y125512D02*
Y143071D01*
X314370Y125512D02*
Y143071D01*
X314567Y125512D02*
Y143071D01*
X314764Y125512D02*
Y143071D01*
X314961Y125512D02*
Y143071D01*
X315157Y125512D02*
Y143071D01*
X315354Y125512D02*
Y143071D01*
X315551Y125512D02*
Y143071D01*
X315748Y125512D02*
Y143071D01*
X315945Y125512D02*
Y143071D01*
X316142Y125512D02*
Y143071D01*
X316339Y125512D02*
Y143071D01*
X316535Y125512D02*
Y143071D01*
X316732Y125512D02*
Y143071D01*
X316929Y125512D02*
Y143071D01*
X317126Y125512D02*
Y143071D01*
X317323Y125512D02*
Y143071D01*
X317520Y125512D02*
Y143071D01*
X317717Y125512D02*
Y143071D01*
X317913Y125512D02*
Y143071D01*
X318110Y125512D02*
Y143071D01*
X318307Y125512D02*
Y143071D01*
X318504Y125512D02*
Y143071D01*
X318701Y125512D02*
Y143071D01*
X318898Y125512D02*
Y143071D01*
X319094Y125512D02*
Y143071D01*
X319291Y125512D02*
Y143071D01*
X319488Y125512D02*
Y143071D01*
X319685Y125512D02*
Y143071D01*
X319882Y125512D02*
Y143071D01*
X320079Y125512D02*
Y143071D01*
X320276Y125512D02*
Y143071D01*
X320472Y125512D02*
Y143071D01*
X320669Y125512D02*
Y143071D01*
X320866Y125512D02*
Y143071D01*
X321063Y125512D02*
Y143071D01*
X321260Y125512D02*
Y143071D01*
X321457Y125512D02*
Y143071D01*
X321654Y125512D02*
Y143071D01*
X321850Y125512D02*
Y143071D01*
X322047Y125512D02*
Y143071D01*
X322244Y125512D02*
Y143071D01*
X322441Y125512D02*
Y143071D01*
X322638Y125512D02*
Y143071D01*
X322835Y125512D02*
Y143071D01*
X323031Y125512D02*
Y143071D01*
X323228Y125512D02*
Y143071D01*
X323425Y125512D02*
Y143071D01*
X323622Y125512D02*
Y143071D01*
X323819Y125512D02*
Y143071D01*
X324016Y125512D02*
Y143071D01*
X324213Y125512D02*
Y143071D01*
X324409Y125512D02*
Y143071D01*
X324606Y125512D02*
Y143071D01*
X324803Y125512D02*
Y143071D01*
X325000Y125512D02*
Y143071D01*
X325197Y125512D02*
Y143071D01*
X325394Y125512D02*
Y143071D01*
X325591Y125512D02*
Y143071D01*
X325787Y125512D02*
Y143071D01*
X325984Y125512D02*
Y143071D01*
X326181Y125512D02*
Y143071D01*
X326378Y125512D02*
Y143071D01*
X326575Y125512D02*
Y143071D01*
X326772Y125512D02*
Y143071D01*
X326969Y125512D02*
Y143071D01*
X327165Y125512D02*
Y143071D01*
X327362Y125512D02*
Y143071D01*
X327559Y125512D02*
Y143071D01*
X327756Y125512D02*
Y143071D01*
X323031Y145020D02*
Y123563D01*
X326201*
Y145020*
X323031*
Y123563D02*
Y145020D01*
X323228Y123563D02*
Y145020D01*
X323425Y123563D02*
Y145020D01*
X323622Y123563D02*
Y145020D01*
X323819Y123563D02*
Y145020D01*
X324016Y123563D02*
Y145020D01*
X324213Y123563D02*
Y145020D01*
X324409Y123563D02*
Y145020D01*
X324606Y123563D02*
Y145020D01*
X324803Y123563D02*
Y145020D01*
X325000Y123563D02*
Y145020D01*
X325197Y123563D02*
Y145020D01*
X325394Y123563D02*
Y145020D01*
X325591Y123563D02*
Y145020D01*
X325787Y123563D02*
Y145020D01*
X325984Y123563D02*
Y145020D01*
X326181Y123563D02*
Y145020D01*
X337795Y116732D02*
X336105D01*
X332562Y113189*
X316339*
Y107087*
X340076*
X344094Y111105*
Y112402*
X337795*
Y116732*
X337598Y116339D02*
X339764D01*
Y114370*
X337598*
Y116339*
X340748Y112205D02*
Y114370D01*
X342717*
Y112205*
X340748*
X239567Y122638D02*
X235236D01*
Y116339*
X232365*
X227247Y121457*
X208071*
Y128937*
X227478*
X232596Y123819*
X239567*
Y122638*
X235039Y117717D02*
Y119882D01*
X237008*
Y117717*
X235039*
X207362Y171299D02*
X212323D01*
Y159882*
X207362*
Y171299*
X227441Y171457D02*
X232402D01*
Y160039*
X227441*
Y171457*
X116969Y190354D02*
X121929D01*
Y178937*
X116969*
Y190354*
X136969D02*
X141929D01*
Y178937*
X136969*
Y190354*
X149409Y122638D02*
X145079D01*
Y116339*
X142208*
X137011Y121535*
X116732*
Y128937*
X137320*
X142438Y123819*
X149409*
Y122638*
X318071Y152559D02*
X323031D01*
Y141142*
X318071*
Y152559*
X303071Y152008D02*
X298071D01*
Y151100*
X293701Y146729*
Y142913*
X299252*
Y145751*
X303071Y149570*
Y152008*
X316339Y112400D02*
X344094D01*
X316339Y112046D02*
X344094D01*
X316339Y111692D02*
X344094D01*
X316339Y111337D02*
X344094D01*
X316339Y110983D02*
X343972D01*
X316339Y110629D02*
X343618D01*
X316339Y110274D02*
X343264D01*
X316339Y109920D02*
X342909D01*
X316339Y109566D02*
X342555D01*
X316339Y109211D02*
X342201D01*
X316339Y108857D02*
X341846D01*
X316339Y108503D02*
X341492D01*
X316339Y108148D02*
X341138D01*
X316339Y107794D02*
X340783D01*
X316339Y107440D02*
X340429D01*
X336025Y116652D02*
X337795D01*
X335671Y116298D02*
X337795D01*
X335316Y115944D02*
X337795D01*
X334962Y115589D02*
X337795D01*
X334608Y115235D02*
X337795D01*
X334253Y114881D02*
X337795D01*
X333899Y114526D02*
X337795D01*
X333545Y114172D02*
X337795D01*
X333190Y113818D02*
X337795D01*
X332836Y113463D02*
X337795D01*
X316339Y113109D02*
X337795D01*
X316339Y112755D02*
X337795D01*
X337598Y116140D02*
X339764D01*
X337598Y115786D02*
X339764D01*
X337598Y115432D02*
X339764D01*
X337598Y115077D02*
X339764D01*
X337598Y114723D02*
X339764D01*
X340748Y114329D02*
X342717D01*
X340748Y113975D02*
X342717D01*
X340748Y113621D02*
X342717D01*
X340748Y113266D02*
X342717D01*
X340748Y112912D02*
X342717D01*
X340748Y112558D02*
X342717D01*
X208071Y123778D02*
X239567D01*
X208071Y123424D02*
X239567D01*
X208071Y123070D02*
X239567D01*
X208071Y122715D02*
X239567D01*
X208071Y122361D02*
X235236D01*
X208071Y122007D02*
X235236D01*
X208071Y121652D02*
X235236D01*
X227406Y121298D02*
X235236D01*
X227760Y120944D02*
X235236D01*
X228114Y120589D02*
X235236D01*
X228469Y120235D02*
X235236D01*
X228823Y119881D02*
X235236D01*
X229177Y119526D02*
X235236D01*
X229532Y119172D02*
X235236D01*
X229886Y118818D02*
X235236D01*
X230240Y118463D02*
X235236D01*
X230595Y118109D02*
X235236D01*
X230949Y117755D02*
X235236D01*
X231303Y117400D02*
X235236D01*
X231658Y117046D02*
X235236D01*
X232012Y116692D02*
X235236D01*
X208071Y124133D02*
X232282D01*
X208071Y124487D02*
X231928D01*
X208071Y124841D02*
X231573D01*
X208071Y125196D02*
X231219D01*
X208071Y125550D02*
X230865D01*
X208071Y125904D02*
X230510D01*
X208071Y126259D02*
X230156D01*
X208071Y126613D02*
X229802D01*
X208071Y126967D02*
X229447D01*
X208071Y127322D02*
X229093D01*
X208071Y127676D02*
X228739D01*
X208071Y128030D02*
X228384D01*
X208071Y128385D02*
X228030D01*
X208071Y128739D02*
X227676D01*
X235039Y119841D02*
X237008D01*
X235039Y119487D02*
X237008D01*
X235039Y119133D02*
X237008D01*
X235039Y118778D02*
X237008D01*
X235039Y118424D02*
X237008D01*
X235039Y118070D02*
X237008D01*
X207362Y171219D02*
X212323D01*
X207362Y170865D02*
X212323D01*
X207362Y170510D02*
X212323D01*
X207362Y170156D02*
X212323D01*
X207362Y169802D02*
X212323D01*
X207362Y169448D02*
X212323D01*
X207362Y169093D02*
X212323D01*
X207362Y168739D02*
X212323D01*
X207362Y168385D02*
X212323D01*
X207362Y168030D02*
X212323D01*
X207362Y167676D02*
X212323D01*
X207362Y167322D02*
X212323D01*
X207362Y166967D02*
X212323D01*
X207362Y166613D02*
X212323D01*
X207362Y166259D02*
X212323D01*
X207362Y165904D02*
X212323D01*
X207362Y165550D02*
X212323D01*
X207362Y165196D02*
X212323D01*
X207362Y164841D02*
X212323D01*
X207362Y164487D02*
X212323D01*
X207362Y164133D02*
X212323D01*
X207362Y163778D02*
X212323D01*
X207362Y163424D02*
X212323D01*
X207362Y163070D02*
X212323D01*
X207362Y162715D02*
X212323D01*
X207362Y162361D02*
X212323D01*
X207362Y162007D02*
X212323D01*
X207362Y161652D02*
X212323D01*
X207362Y161298D02*
X212323D01*
X207362Y160944D02*
X212323D01*
X207362Y160589D02*
X212323D01*
X207362Y160235D02*
X212323D01*
X227441Y171377D02*
X232402D01*
X227441Y171022D02*
X232402D01*
X227441Y170668D02*
X232402D01*
X227441Y170314D02*
X232402D01*
X227441Y169959D02*
X232402D01*
X227441Y169605D02*
X232402D01*
X227441Y169251D02*
X232402D01*
X227441Y168896D02*
X232402D01*
X227441Y168542D02*
X232402D01*
X227441Y168188D02*
X232402D01*
X227441Y167833D02*
X232402D01*
X227441Y167479D02*
X232402D01*
X227441Y167125D02*
X232402D01*
X227441Y166770D02*
X232402D01*
X227441Y166416D02*
X232402D01*
X227441Y166062D02*
X232402D01*
X227441Y165707D02*
X232402D01*
X227441Y165353D02*
X232402D01*
X227441Y164999D02*
X232402D01*
X227441Y164644D02*
X232402D01*
X227441Y164290D02*
X232402D01*
X227441Y163936D02*
X232402D01*
X227441Y163581D02*
X232402D01*
X227441Y163227D02*
X232402D01*
X227441Y162873D02*
X232402D01*
X227441Y162518D02*
X232402D01*
X227441Y162164D02*
X232402D01*
X227441Y161810D02*
X232402D01*
X227441Y161455D02*
X232402D01*
X227441Y161101D02*
X232402D01*
X227441Y160747D02*
X232402D01*
X227441Y160392D02*
X232402D01*
X116969Y190274D02*
X121929D01*
X116969Y189920D02*
X121929D01*
X116969Y189566D02*
X121929D01*
X116969Y189211D02*
X121929D01*
X116969Y188857D02*
X121929D01*
X116969Y188503D02*
X121929D01*
X116969Y188148D02*
X121929D01*
X116969Y187794D02*
X121929D01*
X116969Y187440D02*
X121929D01*
X116969Y187085D02*
X121929D01*
X116969Y186731D02*
X121929D01*
X116969Y186377D02*
X121929D01*
X116969Y186022D02*
X121929D01*
X116969Y185668D02*
X121929D01*
X116969Y185314D02*
X121929D01*
X116969Y184959D02*
X121929D01*
X116969Y184605D02*
X121929D01*
X116969Y184251D02*
X121929D01*
X116969Y183896D02*
X121929D01*
X116969Y183542D02*
X121929D01*
X116969Y183188D02*
X121929D01*
X116969Y182833D02*
X121929D01*
X116969Y182479D02*
X121929D01*
X116969Y182125D02*
X121929D01*
X116969Y181770D02*
X121929D01*
X116969Y181416D02*
X121929D01*
X116969Y181062D02*
X121929D01*
X116969Y180707D02*
X121929D01*
X116969Y180353D02*
X121929D01*
X116969Y179999D02*
X121929D01*
X116969Y179644D02*
X121929D01*
X116969Y179290D02*
X121929D01*
X136969Y190274D02*
X141929D01*
X136969Y189920D02*
X141929D01*
X136969Y189566D02*
X141929D01*
X136969Y189211D02*
X141929D01*
X136969Y188857D02*
X141929D01*
X136969Y188503D02*
X141929D01*
X136969Y188148D02*
X141929D01*
X136969Y187794D02*
X141929D01*
X136969Y187440D02*
X141929D01*
X136969Y187085D02*
X141929D01*
X136969Y186731D02*
X141929D01*
X136969Y186377D02*
X141929D01*
X136969Y186022D02*
X141929D01*
X136969Y185668D02*
X141929D01*
X136969Y185314D02*
X141929D01*
X136969Y184959D02*
X141929D01*
X136969Y184605D02*
X141929D01*
X136969Y184251D02*
X141929D01*
X136969Y183896D02*
X141929D01*
X136969Y183542D02*
X141929D01*
X136969Y183188D02*
X141929D01*
X136969Y182833D02*
X141929D01*
X136969Y182479D02*
X141929D01*
X136969Y182125D02*
X141929D01*
X136969Y181770D02*
X141929D01*
X136969Y181416D02*
X141929D01*
X136969Y181062D02*
X141929D01*
X136969Y180707D02*
X141929D01*
X136969Y180353D02*
X141929D01*
X136969Y179999D02*
X141929D01*
X136969Y179644D02*
X141929D01*
X136969Y179290D02*
X141929D01*
X116732Y123778D02*
X149409D01*
X116732Y123424D02*
X149409D01*
X116732Y123070D02*
X149409D01*
X116732Y122715D02*
X149409D01*
X116732Y122361D02*
X145079D01*
X116732Y122007D02*
X145079D01*
X116732Y121652D02*
X145079D01*
X137248Y121298D02*
X145079D01*
X137603Y120944D02*
X145079D01*
X137957Y120589D02*
X145079D01*
X138311Y120235D02*
X145079D01*
X138666Y119881D02*
X145079D01*
X139020Y119526D02*
X145079D01*
X139374Y119172D02*
X145079D01*
X139729Y118818D02*
X145079D01*
X140083Y118463D02*
X145079D01*
X140437Y118109D02*
X145079D01*
X140792Y117755D02*
X145079D01*
X141146Y117400D02*
X145079D01*
X141500Y117046D02*
X145079D01*
X141855Y116692D02*
X145079D01*
X116732Y124133D02*
X142124D01*
X116732Y124487D02*
X141770D01*
X116732Y124841D02*
X141416D01*
X116732Y125196D02*
X141062D01*
X116732Y125550D02*
X140707D01*
X116732Y125904D02*
X140353D01*
X116732Y126259D02*
X139999D01*
X116732Y126613D02*
X139644D01*
X116732Y126967D02*
X139290D01*
X116732Y127322D02*
X138936D01*
X116732Y127676D02*
X138581D01*
X116732Y128030D02*
X138227D01*
X116732Y128385D02*
X137873D01*
X116732Y128739D02*
X137518D01*
X318071Y152479D02*
X323031D01*
X318071Y152125D02*
X323031D01*
X318071Y151770D02*
X323031D01*
X318071Y151416D02*
X323031D01*
X318071Y151062D02*
X323031D01*
X318071Y150707D02*
X323031D01*
X318071Y150353D02*
X323031D01*
X318071Y149999D02*
X323031D01*
X318071Y149644D02*
X323031D01*
X318071Y149290D02*
X323031D01*
X318071Y148936D02*
X323031D01*
X318071Y148581D02*
X323031D01*
X318071Y148227D02*
X323031D01*
X318071Y147873D02*
X323031D01*
X318071Y147518D02*
X323031D01*
X318071Y147164D02*
X323031D01*
X318071Y146810D02*
X323031D01*
X318071Y146455D02*
X323031D01*
X318071Y146101D02*
X323031D01*
X318071Y145747D02*
X323031D01*
X318071Y145392D02*
X323031D01*
X318071Y145038D02*
X323031D01*
X318071Y144684D02*
X323031D01*
X318071Y144329D02*
X323031D01*
X318071Y143975D02*
X323031D01*
X318071Y143621D02*
X323031D01*
X318071Y143266D02*
X323031D01*
X318071Y142912D02*
X323031D01*
X318071Y142558D02*
X323031D01*
X318071Y142203D02*
X323031D01*
X318071Y141849D02*
X323031D01*
X318071Y141495D02*
X323031D01*
X298071Y151770D02*
X303071D01*
X298071Y151416D02*
X303071D01*
X298033Y151062D02*
X303071D01*
X297679Y150707D02*
X303071D01*
X297324Y150353D02*
X303071D01*
X296970Y149999D02*
X303071D01*
X296616Y149644D02*
X303071D01*
X296261Y149290D02*
X302791D01*
X295907Y148936D02*
X302437D01*
X295553Y148581D02*
X302083D01*
X295198Y148227D02*
X301728D01*
X294844Y147873D02*
X301374D01*
X294490Y147518D02*
X301020D01*
X294135Y147164D02*
X300665D01*
X293781Y146810D02*
X300311D01*
X293701Y146455D02*
X299957D01*
X293701Y146101D02*
X299602D01*
X293701Y145747D02*
X299252D01*
X293701Y145392D02*
X299252D01*
X293701Y145038D02*
X299252D01*
X293701Y144684D02*
X299252D01*
X293701Y144329D02*
X299252D01*
X293701Y143975D02*
X299252D01*
X293701Y143621D02*
X299252D01*
X293701Y143266D02*
X299252D01*
X100000Y100000D02*
X178740D01*
Y119685*
X190551*
Y100000*
X269291*
Y119685*
X281102*
Y100000*
X359843*
Y265354*
X281102*
Y243701*
X269291*
Y285039*
X190551*
Y277165*
X178740*
Y296850*
X100000*
Y100000*
X178740Y257480D02*
X190551D01*
Y139370*
X178740*
Y257480*
X269291Y141339D02*
X281102D01*
Y222047*
X269291*
Y141339*
X288976Y243819D02*
X351969D01*
Y163268*
X288976*
Y243819*
G54D12*
X164567Y129213D02*
Y128780D01*
X212091Y139283D02*
X212874Y139252D01*
Y136535*
X214764Y134646*
X242429*
X243331Y133744*
Y131094*
X162894Y118504D02*
Y118543D01*
X162992*
X162894Y118504D02*
Y118898D01*
X162992*
X157972Y118504D02*
Y122244D01*
X159823Y124094*
X163465*
X164567Y125197*
Y129213*
X152953Y128740D02*
X153051Y128642D01*
Y118504*
X253161Y131075D02*
X253173Y131063D01*
Y129106*
X253122Y118516D02*
Y118701D01*
X253150*
X248201Y118516D02*
Y124134D01*
X253173Y129106*
X243280Y118516D02*
Y131043D01*
X243331Y131094*
X328543Y119685D02*
X341772D01*
Y120335*
X326772Y107874D02*
Y110630D01*
X341772Y130177D02*
X341811D01*
Y130157*
X341772Y125256D02*
X345591D01*
X347205Y126870*
Y131890*
X326772Y110630D02*
X312795D01*
Y111220*
X312992Y111417*
X326772Y110630D02*
X341339D01*
Y114980*
X341772Y115413*
X127953Y190866D02*
X129449D01*
Y195039*
X123209Y142992D02*
X125591D01*
Y135433*
X126772Y134252*
X150433*
X152953Y131732*
Y128740*
X153878Y142992D02*
Y146929D01*
X161024*
X161811Y146142*
Y133268*
X164567Y130512*
Y129213*
X241476Y139390D02*
X241457Y140346D01*
X249858*
X253161Y137327*
Y131075*
X309055Y152598D02*
Y156772D01*
X310551*
X340551Y140760D02*
X340531Y140228D01*
X340551Y138543*
X347205Y131890*
X333839Y141791D02*
Y140768D01*
X340551Y140760*
X305531Y141909D02*
X305551Y140984D01*
X308268*
X309055Y140197*
Y124213*
X313583Y119685*
X328543*
X223622Y274409D02*
X225984D01*
G54D13*
X119449Y178937D02*
Y195039D01*
X139449D02*
Y178268D01*
X140118Y178937*
X141929*
X209902Y158740D02*
Y157717D01*
X212205*
Y159961*
X212323Y160079*
X197091Y160917D02*
Y158740D01*
X209902*
Y176280D02*
Y158740D01*
X232189Y160039D02*
X233445D01*
X236555Y156929*
X241476Y161024*
X229902Y176280D02*
Y159685D01*
X230256Y160039*
X232189*
G54D15*
X147520Y118622D02*
X147638D01*
Y127165*
X238071Y118516D02*
Y127327D01*
X238114Y127571*
X238071Y118516D02*
X238358D01*
X114213Y171260D02*
X116181Y171299D01*
X119370*
X229902Y176280D02*
X230524Y175657D01*
G54D35*
G54D38*
X269311Y120816D02*
Y140208D01*
G75*
G03X269158Y140383I-177J-0D01*
G01X268327Y141339D02*
G03X269158Y140383I964J-0D01*
G01X268327Y141339D02*
Y162717D01*
G03X268150Y162894I-177J-0*
G01X244095*
G03X243917Y162717I-0J-177*
G01Y161024*
Y159055*
Y151535*
G03X244095Y151358I178J0*
G01X244902*
X245866Y150394D02*
G03X244902Y151358I-964J-0D01*
G01X245866Y150394D02*
Y146831D01*
X244902Y145866D02*
G03X245866Y146831I-0J965D01*
G01X244902Y145866D02*
X244095D01*
G03X243917Y145689I-0J-177*
G01Y145157*
X242953Y144193D02*
G03X243917Y145157I-0J964D01*
G01X242953Y144193D02*
X225000D01*
X224035Y145157D02*
G03X225000Y144193I965J0D01*
G01X224035Y145157D02*
Y145689D01*
G03X223858Y145866I-177J-0*
G01X223051*
X222087Y146831D02*
G03X223051Y145866I964J-0D01*
G01X222087Y146831D02*
Y150394D01*
X223051Y151358D02*
G03X222087Y150394I0J-964D01*
G01X223051Y151358D02*
X223858D01*
G03X224035Y151535I0J177*
G01Y159055*
Y162717*
G03X223858Y162894I-177J-0*
G01X214709*
G03X214532Y162717I-0J-177*
G01Y160917*
Y158949*
Y151429*
G03X214709Y151252I177J0*
G01X215516*
X216480Y150287D02*
G03X215516Y151252I-964J0D01*
G01X216480Y150287D02*
Y146724D01*
X215516Y145760D02*
G03X216480Y146724I-0J964D01*
G01X215516Y145760D02*
X214709D01*
G03X214532Y145583I-0J-177*
G01Y145051*
X213567Y144087D02*
G03X214532Y145051I-0J964D01*
G01X213567Y144087D02*
X195614D01*
X194650Y145051D02*
G03X195614Y144087I964J0D01*
G01X194650Y145051D02*
Y145583D01*
G03X194472Y145760I-178J-0*
G01X193665*
X192701Y146724D02*
G03X193665Y145760I964J0D01*
G01X192701Y146724D02*
Y150287D01*
X193665Y151252D02*
G03X192701Y150287I0J-965D01*
G01X193665Y151252D02*
X194472D01*
G03X194650Y151429I0J177*
G01Y158949*
Y162717*
G03X194472Y162894I-178J-0*
G01X191693*
G03X191516Y162717I-0J-177*
G01Y139370*
X190851Y138453D02*
G03X191516Y139370I-300J917D01*
G01X190851Y138453D02*
G03X190728Y138285I55J-168D01*
G01Y120770*
G03X190851Y120602I178J0*
G01X191516Y119685D02*
G03X190851Y120602I-965J0D01*
G01X191516Y119685D02*
Y101142D01*
G03X191693Y100965I177J-0*
G01X201410*
G03X201558Y101239I-0J177*
G01X201398Y101772D02*
G03X201558Y101239I964J-0D01*
G01X201398Y101772D02*
Y113583D01*
X202362Y114547D02*
G03X201398Y113583I0J-964D01*
G01X202362Y114547D02*
X208661D01*
X209626Y113583D02*
G03X208661Y114547I-965J-0D01*
G01X209626Y113583D02*
Y101772D01*
X209466Y101239D02*
G03X209626Y101772I-805J533D01*
G01X209466Y101239D02*
G03X209614Y100965I148J-97D01*
G01X223316*
G03X223451Y101257I-0J177*
G01X223220Y101882D02*
G03X223451Y101257I965J-0D01*
G01X223220Y101882D02*
Y113693D01*
X224185Y114658D02*
G03X223220Y113693I0J-965D01*
G01X224185Y114658D02*
X232453D01*
X233417Y113693D02*
G03X232453Y114658I-964J-0D01*
G01X233417Y113693D02*
Y101882D01*
X233187Y101257D02*
G03X233417Y101882I-734J625D01*
G01X233187Y101257D02*
G03X233322Y100965I135J-115D01*
G01X258158*
G03X258293Y101257I0J177*
G01X258063Y101882D02*
G03X258293Y101257I965J-0D01*
G01X258063Y101882D02*
Y113693D01*
X259028Y114658D02*
G03X258063Y113693I-0J-965D01*
G01X259028Y114658D02*
X267295D01*
X268017Y114333D02*
G03X267295Y114658I-722J-640D01*
G01X268017Y114333D02*
G03X268327Y114450I133J117D01*
G01Y119685*
X269158Y120640D02*
G03X268327Y119685I133J-955D01*
G01X269158Y120640D02*
G03X269311Y120816I-24J176D01*
G01X358878Y110611D02*
Y134980D01*
G03X358655Y135151I-177J-0*
G01X358406Y135118D02*
G03X358655Y135151I-0J965D01*
G01X358406Y135118D02*
X346594D01*
X346330Y135155D02*
G03X346594Y135118I264J928D01*
G01X346330Y135155D02*
G03X346156Y134859I-49J-170D01*
G01X348165Y132850*
X348563Y131890D02*
G03X348165Y132850I-1358J-0D01*
G01X348563Y131890D02*
Y126870D01*
X348165Y125910D02*
G03X348563Y126870I-960J960D01*
G01X348165Y125910D02*
X346551Y124295D01*
X345591Y123898D02*
G03X346551Y124295I-0J1358D01*
G01X345591Y123898D02*
X345472D01*
G03X345295Y123720I0J-178*
G01Y123681*
X344939Y122933D02*
G03X345295Y123681I-608J748D01*
G01X344939Y122933D02*
G03Y122658I112J-138D01*
G01X345295Y121909D02*
G03X344939Y122658I-964J0D01*
G01X345295Y121909D02*
Y118760D01*
X344939Y118011D02*
G03X345295Y118760I-608J749D01*
G01X344939Y118011D02*
G03Y117737I112J-137D01*
G01X345295Y116988D02*
G03X344939Y117737I-964J0D01*
G01X345295Y116988D02*
Y113839D01*
X345083Y113235D02*
G03X345295Y113839I-752J604D01*
G01X345083Y113235D02*
G03X345072Y113029I138J-111D01*
G01X345256Y112402D02*
G03X345072Y113029I-1162J-0D01*
G01X345256Y112402D02*
Y111105D01*
X344916Y110284D02*
G03X345256Y111105I-822J821D01*
G01X344916Y110284D02*
X340897Y106265D01*
X340076Y105925D02*
G03X340897Y106265I-0J1162D01*
G01X340076Y105925D02*
X328897D01*
G03X328720Y105742I-0J-177*
G01Y105709D02*
G03Y105742I-964J-0D01*
G01Y105709D02*
Y103740D01*
X327756Y102776D02*
G03X328720Y103740I-0J964D01*
G01X327756Y102776D02*
X325787D01*
X324823Y103740D02*
G03X325787Y102776I964J0D01*
G01X324823Y103740D02*
Y105709D01*
Y105742D02*
G03Y105709I964J-33D01*
G01Y105742D02*
G03X324646Y105925I-177J6D01*
G01X318378*
G03X318266Y105885I-0J-177*
G01X317657Y105669D02*
G03X318266Y105885I0J965D01*
G01X317657Y105669D02*
X308327D01*
X307362Y106634D02*
G03X308327Y105669I965J-0D01*
G01X307362Y106634D02*
Y116201D01*
X308327Y117165D02*
G03X307362Y116201I-0J-964D01*
G01X308327Y117165D02*
X317657D01*
X318622Y116201D02*
G03X317657Y117165I-965J-0D01*
G01X318622Y116201D02*
Y114528D01*
G03X318799Y114350I177J-0*
G01X327053*
G03X327132Y114686I0J178*
G01X326594Y115551D02*
G03X327132Y114686I965J0D01*
G01X326594Y115551D02*
Y117520D01*
X326734Y118019D02*
G03X326594Y117520I825J-499D01*
G01X326734Y118019D02*
G03Y118202I-152J91D01*
G01X326714Y118235D02*
G03X326734Y118202I845J466D01*
G01X326714Y118235D02*
G03X326559Y118327I-155J-85D01*
G01X313583*
X312622Y118725D02*
G03X313583Y118327I961J960D01*
G01X312622Y118725D02*
X308095Y123252D01*
X307697Y124213D02*
G03X308095Y123252I1358J-0D01*
G01X307697Y124213D02*
Y124291D01*
G03X307517Y124469I-177J0*
G01X307500Y124468D02*
G03X307517Y124469I0J965D01*
G01X307500Y124468D02*
X303563D01*
X302598Y125433D02*
G03X303563Y124468I965J0D01*
G01X302598Y125433D02*
Y128386D01*
X303136Y129251D02*
G03X302598Y128386I427J-865D01*
G01X303136Y129251D02*
G03Y129568I-79J158D01*
G01X302598Y130433D02*
G03X303136Y129568I965J0D01*
G01X302598Y130433D02*
Y133386D01*
X303136Y134251D02*
G03X302598Y133386I427J-865D01*
G01X303136Y134251D02*
G03Y134568I-79J158D01*
G01X302598Y135433D02*
G03X303136Y134568I965J0D01*
G01X302598Y135433D02*
Y138386D01*
X303136Y139251D02*
G03X302598Y138386I427J-865D01*
G01X303136Y139251D02*
G03Y139568I-79J158D01*
G01X302598Y140433D02*
G03X303136Y139568I965J0D01*
G01X302598Y140433D02*
Y142913D01*
G03X302421Y143091I-177J0*
G01X300906*
G03X300728Y142913I-0J-178*
G01Y125433*
X299764Y124468D02*
G03X300728Y125433I-0J965D01*
G01X299764Y124468D02*
X299232D01*
G03X299055Y124291I0J-177*
G01Y123484*
X298091Y122520D02*
G03X299055Y123484I-0J964D01*
G01X298091Y122520D02*
X294528D01*
X293563Y123484D02*
G03X294528Y122520I965J0D01*
G01X293563Y123484D02*
Y124291D01*
G03X293386Y124468I-177J0*
G01X283898*
X281929*
X281530Y124555D02*
G03X281929Y124468I399J878D01*
G01X281530Y124555D02*
G03X281280Y124394I-73J-161D01*
G01Y120770*
G03X281402Y120602I177J0*
G01X282067Y119685D02*
G03X281402Y120602I-965J0D01*
G01X282067Y119685D02*
Y101142D01*
G03X282244Y100965I177J-0*
G01X345457*
G03X345633Y101157I-0J177*
G01X345630Y101240D02*
G03X345633Y101157I964J0D01*
G01X345630Y101240D02*
Y109508D01*
X346594Y110472D02*
G03X345630Y109508I0J-964D01*
G01X346594Y110472D02*
X358406D01*
X358655Y110440D02*
G03X358406Y110472I-249J-932D01*
G01X358655Y110440D02*
G03X358878Y110611I46J171D01*
G01X345846Y127506D02*
Y131254D01*
G03X345795Y131379I-177J-0*
G01X345598Y131576*
G03X345295Y131451I-126J-125*
G01Y128602*
X344939Y127854D02*
G03X345295Y128602I-608J748D01*
G01X344939Y127854D02*
G03Y127579I112J-137D01*
G01X345233Y127172D02*
G03X344939Y127579I-902J-341D01*
G01X345233Y127172D02*
G03X345524Y127110I165J63D01*
G01X345795Y127381*
G03X345846Y127506I-126J125*
G01X338395Y117727D02*
G03X338600Y118015I92J151D01*
G01X338397Y118244D02*
G03X338600Y118015I816J516D01*
G01X338397Y118244D02*
G03X338248Y118327I-149J-94D01*
G01X330527*
G03X330372Y118235I0J-177*
G01X330353Y118202D02*
G03X330372Y118235I-825J499D01*
G01X330353Y118202D02*
G03Y118019I152J-92D01*
G01X330492Y117520D02*
G03X330353Y118019I-964J-0D01*
G01X330492Y117520D02*
Y115551D01*
X329955Y114686D02*
G03X330492Y115551I-427J865D01*
G01X329955Y114686D02*
G03X330033Y114350I78J-158D01*
G01X332007*
G03X332133Y114402I0J178*
G01X335284Y117554*
X336105Y117894D02*
G03X335284Y117554I0J-1162D01*
G01X336105Y117894D02*
X337795D01*
X338395Y117727D02*
G03X337795Y117894I-600J-995D01*
G01X344029Y132717D02*
G03X344155Y133019I0J177D01*
G01X339591Y137583*
X339224Y138254D02*
G03X339591Y137583I1327J289D01*
G01X339224Y138254D02*
G03X339128Y138375I-173J-38D01*
G01X338583Y139230D02*
G03X339128Y138375I964J14D01*
G01X338583Y139230D02*
G03X338406Y139404I-177J-3D01*
G01X336423Y139406*
G03X336327Y139080I-0J-177*
G01X336772Y138268D02*
G03X336327Y139080I-965J-0D01*
G01X336772Y138268D02*
Y135315D01*
X336234Y134450D02*
G03X336772Y135315I-427J865D01*
G01X336234Y134450D02*
G03Y134133I79J-159D01*
G01X336772Y133268D02*
G03X336234Y134133I-965J-0D01*
G01X336772Y133268D02*
Y130315D01*
X336234Y129450D02*
G03X336772Y130315I-427J865D01*
G01X336234Y129450D02*
G03Y129133I79J-159D01*
G01X336772Y128268D02*
G03X336234Y129133I-965J-0D01*
G01X336772Y128268D02*
Y125315D01*
X335807Y124350D02*
G03X336772Y125315I0J965D01*
G01X335807Y124350D02*
X331870D01*
X330905Y125315D02*
G03X331870Y124350I965J-0D01*
G01X330905Y125315D02*
Y128268D01*
X331443Y129133D02*
G03X330905Y128268I427J-865D01*
G01X331443Y129133D02*
G03Y129450I-79J158D01*
G01X330905Y130315D02*
G03X331443Y129450I965J-0D01*
G01X330905Y130315D02*
Y133268D01*
X331443Y134133D02*
G03X330905Y133268I427J-865D01*
G01X331443Y134133D02*
G03Y134450I-79J158D01*
G01X330905Y135315D02*
G03X331443Y134450I965J-0D01*
G01X330905Y135315D02*
Y138268D01*
X331443Y139133D02*
G03X330905Y138268I427J-865D01*
G01X331443Y139133D02*
G03Y139450I-79J158D01*
G01X330905Y140315D02*
G03X331443Y139450I965J-0D01*
G01X330905Y140315D02*
Y142913D01*
G03X330728Y143091I-177J0*
G01X329213*
G03X329035Y142913I-0J-178*
G01Y125315*
X328071Y124350D02*
G03X329035Y125315I-0J965D01*
G01X328071Y124350D02*
X327539D01*
G03X327362Y124173I0J-177*
G01Y123366*
X326398Y122402D02*
G03X327362Y123366I-0J964D01*
G01X326398Y122402D02*
X322835D01*
X321870Y123366D02*
G03X322835Y122402I965J0D01*
G01X321870Y123366D02*
Y124173D01*
G03X321693Y124350I-177J0*
G01X312205*
X311266*
G03X311141Y124048I-0J-177*
G01X314093Y121095*
G03X314219Y121043I126J125*
G01X326559*
G03X326714Y121135I0J177*
G01X327559Y121634D02*
G03X326714Y121135I0J-965D01*
G01X327559Y121634D02*
X329528D01*
X330372Y121135D02*
G03X329528Y121634I-844J-466D01*
G01X330372Y121135D02*
G03X330527Y121043I155J85D01*
G01X338071*
G03X338248Y121220I-0J177*
G01Y121909*
X338604Y122658D02*
G03X338248Y121909I609J-749D01*
G01X338604Y122658D02*
G03Y122933I-112J137D01*
G01X338248Y123681D02*
G03X338604Y122933I965J0D01*
G01X338248Y123681D02*
Y126831D01*
X338604Y127579D02*
G03X338248Y126831I609J-748D01*
G01X338604Y127579D02*
G03Y127854I-112J138D01*
G01X338248Y128602D02*
G03X338604Y127854I965J0D01*
G01X338248Y128602D02*
Y131752D01*
X339213Y132717D02*
G03X338248Y131752I-0J-965D01*
G01X339213Y132717D02*
X344029D01*
X345759Y144833D02*
G03X345606Y145098I-153J88D01*
G01X342511*
G03X342357Y144834I0J-177*
G01X342480Y144362D02*
G03X342357Y144834I-964J0D01*
G01X342480Y144362D02*
Y142394D01*
X342341Y141895D02*
G03X342480Y142394I-825J499D01*
G01X342341Y141895D02*
G03Y141712I152J-92D01*
G01X342480Y141213D02*
G03X342341Y141712I-964J-0D01*
G01X342480Y141213D02*
Y139244D01*
X342377Y138810D02*
G03X342480Y139244I-861J434D01*
G01X342377Y138810D02*
G03X342410Y138605I158J-80D01*
G01X345371Y135644*
G03X345667Y135818I126J125*
G01X345630Y136083D02*
G03X345667Y135818I964J-0D01*
G01X345630Y136083D02*
Y144350D01*
X345759Y144833D02*
G03X345630Y144350I835J-483D01*
G01X338706Y144834D02*
G03X338552Y145098I-154J87D01*
G01X336575*
G03X336398Y144921I-0J-177*
G01Y144113*
G03X336456Y143982I177J-0*
G01X336772Y143268D02*
G03X336456Y143982I-965J-0D01*
G01X336772Y143268D02*
Y142300D01*
G03X336949Y142122I177J-0*
G01X338409Y142121*
G03X338586Y142313I1J177*
G01X338583Y142394D02*
G03X338586Y142313I964J-0D01*
G01X338583Y142394D02*
Y144362D01*
X338706Y144834D02*
G03X338583Y144362I841J-472D01*
G01X178563Y120770D02*
Y138285D01*
G03X178441Y138453I-177J-0*
G01X177776Y139370D02*
G03X178441Y138453I964J0D01*
G01X177776Y139370D02*
Y183110D01*
G03X177598Y183287I-178J0*
G01X157441*
G03X157264Y183110I-0J-177*
G01Y159055*
X156299Y158091D02*
G03X157264Y159055I0J964D01*
G01X156299Y158091D02*
X133465D01*
X132500Y159055D02*
G03X133465Y158091I965J0D01*
G01X132500Y159055D02*
Y183110D01*
G03X132323Y183287I-177J0*
G01X126772*
G03X126595Y183110I-0J-177*
G01Y159055*
X125630Y158091D02*
G03X126595Y159055I-0J964D01*
G01X125630Y158091D02*
X102795D01*
X101831Y159055D02*
G03X102795Y158091I964J0D01*
G01X101831Y159055D02*
Y183110D01*
G03X101654Y183287I-177J0*
G01X101142*
G03X100965Y183110I-0J-177*
G01Y149567*
G03X101285Y149463I177J-0*
G01X102067Y149862D02*
G03X101285Y149463I-0J-964D01*
G01X102067Y149862D02*
X108366D01*
X109331Y148898D02*
G03X108366Y149862I-965J-0D01*
G01X109331Y148898D02*
Y137087D01*
X108366Y136122D02*
G03X109331Y137087I0J965D01*
G01X108366Y136122D02*
X102067D01*
X101285Y136521D02*
G03X102067Y136122I782J566D01*
G01X101285Y136521D02*
G03X100965Y136418I-143J-103D01*
G01Y101142*
G03X101142Y100965I177J-0*
G01X110465*
G03X110613Y101239I0J177*
G01X110453Y101772D02*
G03X110613Y101239I964J-0D01*
G01X110453Y101772D02*
Y113583D01*
X111417Y114547D02*
G03X110453Y113583I0J-964D01*
G01X111417Y114547D02*
X117717D01*
X118681Y113583D02*
G03X117717Y114547I-964J-0D01*
G01X118681Y113583D02*
Y101772D01*
X118521Y101239D02*
G03X118681Y101772I-804J533D01*
G01X118521Y101239D02*
G03X118669Y100965I148J-97D01*
G01X133077*
G03X133214Y101255I0J177*
G01X132992Y101870D02*
G03X133214Y101255I965J0D01*
G01X132992Y101870D02*
Y113681D01*
X133957Y114646D02*
G03X132992Y113681I-0J-965D01*
G01X133957Y114646D02*
X142224D01*
X143189Y113681D02*
G03X142224Y114646I-965J0D01*
G01X143189Y113681D02*
Y101870D01*
X142967Y101255D02*
G03X143189Y101870I-743J615D01*
G01X142967Y101255D02*
G03X143104Y100965I137J-113D01*
G01X167920*
G03X168056Y101255I-0J177*
G01X167835Y101870D02*
G03X168056Y101255I964J0D01*
G01X167835Y101870D02*
Y113681D01*
X168799Y114646D02*
G03X167835Y113681I0J-965D01*
G01X168799Y114646D02*
X177067D01*
X177516Y114535D02*
G03X177067Y114646I-449J-854D01*
G01X177516Y114535D02*
G03X177776Y114692I82J157D01*
G01Y119685*
X178441Y120602D02*
G03X177776Y119685I299J-917D01*
G01X178441Y120602D02*
G03X178563Y120770I-55J168D01*
G01X258260Y132059D02*
Y130091D01*
X257295Y129126D02*
G03X258260Y130091I0J965D01*
G01X257295Y129126D02*
X255327D01*
X254828Y129265D02*
G03X255327Y129126I499J826D01*
G01X254828Y129265D02*
G03X254645I-92J-152D01*
G01X254621Y129251D02*
G03X254645Y129265I-475J840D01*
G01X254621Y129251D02*
G03X254531Y129098I88J-154D01*
G01X254134Y128146D02*
G03X254531Y129098I-961J960D01*
G01X254134Y128146D02*
X249611Y123623D01*
G03X249559Y123498I125J-125*
G01Y122217*
G03X249736Y122039I177J-0*
G01X249776*
X250524Y121683D02*
G03X249776Y122039I-748J-608D01*
G01X250524Y121683D02*
G03X250799I137J112D01*
G01X251547Y122039D02*
G03X250799Y121683I0J-964D01*
G01X251547Y122039D02*
X254697D01*
X255661Y121075D02*
G03X254697Y122039I-964J-0D01*
G01X255661Y121075D02*
Y115957D01*
X254697Y114992D02*
G03X255661Y115957I-0J965D01*
G01X254697Y114992D02*
X251547D01*
X250799Y115348D02*
G03X251547Y114992I748J609D01*
G01X250799Y115348D02*
G03X250524I-138J-112D01*
G01X249776Y114992D02*
G03X250524Y115348I-0J965D01*
G01X249776Y114992D02*
X246626D01*
X245878Y115348D02*
G03X246626Y114992I748J609D01*
G01X245878Y115348D02*
G03X245603I-138J-112D01*
G01X244854Y114992D02*
G03X245603Y115348I0J965D01*
G01X244854Y114992D02*
X241705D01*
X240956Y115348D02*
G03X241705Y114992I749J609D01*
G01X240956Y115348D02*
G03X240681I-137J-112D01*
G01X239933Y114992D02*
G03X240681Y115348I0J965D01*
G01X239933Y114992D02*
X236783D01*
X236065Y115314D02*
G03X236783Y114992I718J643D01*
G01X236065Y115314D02*
G03X235840Y115347I-132J-119D01*
G01X235236Y115177D02*
G03X235840Y115347I0J1162D01*
G01X235236Y115177D02*
X232365D01*
X231544Y115517D02*
G03X232365Y115177I821J822D01*
G01X231544Y115517D02*
X226818Y120243D01*
G03X226692Y120295I-126J-125*
G01X209302*
G03X209203Y120265I0J-177*
G01X208661Y120098D02*
G03X209203Y120265I0J965D01*
G01X208661Y120098D02*
X202362D01*
X201398Y121063D02*
G03X202362Y120098I964J-0D01*
G01X201398Y121063D02*
Y132874D01*
X202362Y133839D02*
G03X201398Y132874I0J-965D01*
G01X202362Y133839D02*
X208661D01*
X209626Y132874D02*
G03X208661Y133839I-965J0D01*
G01X209626Y132874D02*
Y130276D01*
G03X209803Y130098I177J-0*
G01X227478*
X228299Y129758D02*
G03X227478Y130098I-821J-821D01*
G01X228299Y129758D02*
X233025Y125032D01*
G03X233150Y124980I125J126*
G01X236142*
G03X236319Y125158I-0J178*
G01X236319D02*
Y126015D01*
G03X236295Y126103I-177J-0*
G01X236165Y126587D02*
G03X236295Y126103I965J-0D01*
G01X236165Y126587D02*
Y128555D01*
X236304Y129054D02*
G03X236165Y128555I826J-499D01*
G01X236304Y129054D02*
G03Y129237I-151J92D01*
G01X236165Y129736D02*
G03X236304Y129237I965J0D01*
G01X236165Y129736D02*
Y131705D01*
X237130Y132669D02*
G03X236165Y131705I-0J-964D01*
G01X237130Y132669D02*
X239098D01*
X240063Y131705D02*
G03X239098Y132669I-965J-0D01*
G01X240063Y131705D02*
Y129736D01*
X239924Y129237D02*
G03X240063Y129736I-826J499D01*
G01X239924Y129237D02*
G03Y129054I152J-91D01*
G01X240063Y128555D02*
G03X239924Y129054I-965J0D01*
G01X240063Y128555D02*
Y126587D01*
X239860Y125995D02*
G03X240063Y126587I-762J592D01*
G01X239860Y125995D02*
G03X239823Y125886I140J-109D01*
G01Y125086*
G03X239943Y124918I177J-0*
G01X240728Y123819D02*
G03X239943Y124918I-1161J-0D01*
G01X240728Y123819D02*
Y122638D01*
X240548Y122017D02*
G03X240728Y122638I-981J621D01*
G01X240549Y122017D02*
G03X240579Y121791I149J-95D01*
G01X240681Y121683D02*
G03X240579Y121791I-748J-608D01*
G01X240681Y121683D02*
G03X240956I138J112D01*
G01X241705Y122039D02*
G03X240956Y121683I-0J-964D01*
G01X241705Y122039D02*
X241744D01*
G03X241921Y122217I0J178*
G01Y129140*
G03X241838Y129291I-177J0*
G01X241382Y130110D02*
G03X241838Y129291I964J0D01*
G01X241382Y130110D02*
Y132079D01*
X241881Y132923D02*
G03X241382Y132079I465J-844D01*
G01X241881Y132923D02*
G03X241972Y133079I-86J156D01*
G01Y133108*
G03X241921Y133233I-177J0*
G01X241918Y133235*
G03X241793Y133287I-125J-125*
G01X214764*
X213803Y133685D02*
G03X214764Y133287I961J961D01*
G01X213803Y133685D02*
X211914Y135575D01*
X211554Y136215D02*
G03X211914Y135575I1320J320D01*
G01X211554Y136215D02*
G03X211382Y136350I-172J-42D01*
G01X210614*
X209749Y136888D02*
G03X210614Y136350I865J427D01*
G01X209749Y136888D02*
G03X209432I-158J-79D01*
G01X208567Y136350D02*
G03X209432Y136888I-0J965D01*
G01X208567Y136350D02*
X205614D01*
X204749Y136888D02*
G03X205614Y136350I865J427D01*
G01X204749Y136888D02*
G03X204432I-158J-79D01*
G01X203567Y136350D02*
G03X204432Y136888I-0J965D01*
G01X203567Y136350D02*
X200614D01*
X199749Y136888D02*
G03X200614Y136350I865J427D01*
G01X199749Y136888D02*
G03X199432I-158J-79D01*
G01X198567Y136350D02*
G03X199432Y136888I-0J965D01*
G01X198567Y136350D02*
X195614D01*
X194650Y137315D02*
G03X195614Y136350I964J-0D01*
G01X194650Y137315D02*
Y141252D01*
X195614Y142217D02*
G03X194650Y141252I0J-965D01*
G01X195614Y142217D02*
X198567D01*
X199432Y141679D02*
G03X198567Y142217I-865J-427D01*
G01X199432Y141679D02*
G03X199749I159J79D01*
G01X200614Y142217D02*
G03X199749Y141679I0J-965D01*
G01X200614Y142217D02*
X203567D01*
X204432Y141679D02*
G03X203567Y142217I-865J-427D01*
G01X204432Y141679D02*
G03X204749I159J79D01*
G01X205614Y142217D02*
G03X204749Y141679I0J-965D01*
G01X205614Y142217D02*
X208567D01*
X209432Y141679D02*
G03X208567Y142217I-865J-427D01*
G01X209432Y141679D02*
G03X209749I159J79D01*
G01X210614Y142217D02*
G03X209749Y141679I0J-965D01*
G01X210614Y142217D02*
X213567D01*
X214532Y141252D02*
G03X213567Y142217I-965J-0D01*
G01X214532Y141252D02*
Y137315D01*
X214477Y136995D02*
G03X214532Y137315I-910J320D01*
G01X214477Y136995D02*
G03X214519Y136811I167J-58D01*
G01X215275Y136056*
G03X215400Y136004I125J125*
G01X242429*
X243390Y135606D02*
G03X242429Y136004I-961J-960D01*
G01X243390Y135606D02*
X244291Y134705D01*
X244689Y133744D02*
G03X244291Y134705I-1358J0D01*
G01X244689Y133744D02*
Y133079D01*
G03X244781Y132923I177J-0*
G01X244814Y132904D02*
G03X244781Y132923I-499J-825D01*
G01X244814Y132904D02*
G03X244997I92J152D01*
G01X245496Y133043D02*
G03X244997Y132904I0J-964D01*
G01X245496Y133043D02*
X247465D01*
X248429Y132079D02*
G03X247465Y133043I-964J-0D01*
G01X248429Y132079D02*
Y130110D01*
X247465Y129146D02*
G03X248429Y130110I-0J964D01*
G01X247465Y129146D02*
X245496D01*
X244997Y129285D02*
G03X245496Y129146I499J825D01*
G01X244997Y129285D02*
G03X244814I-91J-152D01*
G01X244737Y129243D02*
G03X244814Y129285I-422J867D01*
G01X244737Y129243D02*
G03X244638Y129084I78J-159D01*
G01Y122217*
G03X244815Y122039I177J-0*
G01X244854*
X245603Y121683D02*
G03X244854Y122039I-749J-608D01*
G01X245603Y121683D02*
G03X245878I137J112D01*
G01X246626Y122039D02*
G03X245878Y121683I-0J-964D01*
G01X246626Y122039D02*
X246665D01*
G03X246842Y122217I0J178*
G01X246842D02*
Y124134D01*
X247240Y125094D02*
G03X246842Y124134I961J-960D01*
G01X247240Y125094D02*
X251405Y129259D01*
G03X251419Y129494I-125J125*
G01X251213Y130091D02*
G03X251419Y129494I964J-0D01*
G01X251213Y130091D02*
Y132059D01*
X251711Y132904D02*
G03X251213Y132059I466J-845D01*
G01X251711Y132904D02*
G03X251803Y133059I-85J155D01*
G01Y136650*
G03X251746Y136781I-177J0*
G01X251746D02*
X249382Y138942D01*
G03X249262Y138988I-120J-131*
G01X244095*
G03X243917Y138811I-0J-177*
G01Y137421*
X242953Y136457D02*
G03X243917Y137421I-0J964D01*
G01X242953Y136457D02*
X240000D01*
X239135Y136994D02*
G03X240000Y136457I865J427D01*
G01X239135Y136994D02*
G03X238818I-159J-79D01*
G01X237953Y136457D02*
G03X238818Y136994I-0J964D01*
G01X237953Y136457D02*
X235000D01*
X234135Y136994D02*
G03X235000Y136457I865J427D01*
G01X234135Y136994D02*
G03X233818I-159J-79D01*
G01X232953Y136457D02*
G03X233818Y136994I-0J964D01*
G01X232953Y136457D02*
X230000D01*
X229135Y136994D02*
G03X230000Y136457I865J427D01*
G01X229135Y136994D02*
G03X228818I-159J-79D01*
G01X227953Y136457D02*
G03X228818Y136994I-0J964D01*
G01X227953Y136457D02*
X225000D01*
X224035Y137421D02*
G03X225000Y136457I965J0D01*
G01X224035Y137421D02*
Y141358D01*
X225000Y142323D02*
G03X224035Y141358I0J-965D01*
G01X225000Y142323D02*
X227953D01*
X228818Y141786D02*
G03X227953Y142323I-865J-428D01*
G01X228818Y141786D02*
G03X229135I158J78D01*
G01X230000Y142323D02*
G03X229135Y141786I0J-965D01*
G01X230000Y142323D02*
X232953D01*
X233818Y141786D02*
G03X232953Y142323I-865J-428D01*
G01X233818Y141786D02*
G03X234135I158J78D01*
G01X235000Y142323D02*
G03X234135Y141786I0J-965D01*
G01X235000Y142323D02*
X237953D01*
X238818Y141786D02*
G03X237953Y142323I-865J-428D01*
G01X238818Y141786D02*
G03X239135I158J78D01*
G01X240000Y142323D02*
G03X239135Y141786I0J-965D01*
G01X240000Y142323D02*
X242953D01*
X243810Y141801D02*
G03X242953Y142323I-857J-443D01*
G01X243810Y141801D02*
G03X243967Y141705I157J81D01*
G01X249858*
X250775Y141349D02*
G03X249858Y141705I-917J-1003D01*
G01X250775Y141349D02*
X254078Y138329D01*
X254520Y137327D02*
G03X254078Y138329I-1359J-0D01*
G01X254520Y137327D02*
Y133059D01*
G03X254611Y132904I177J-0*
G01X254645Y132885D02*
G03X254611Y132904I-499J-826D01*
G01X254645Y132885D02*
G03X254828I91J151D01*
G01X255327Y133024D02*
G03X254828Y132885I-0J-965D01*
G01X255327Y133024D02*
X257295D01*
X258260Y132059D02*
G03X257295Y133024I-965J0D01*
G01X294055Y116201D02*
Y106634D01*
X293091Y105669D02*
G03X294055Y106634I-0J965D01*
G01X293091Y105669D02*
X283760D01*
X282795Y106634D02*
G03X283760Y105669I965J-0D01*
G01X282795Y106634D02*
Y116201D01*
X283760Y117165D02*
G03X282795Y116201I-0J-964D01*
G01X283760Y117165D02*
X293091D01*
X294055Y116201D02*
G03X293091Y117165I-964J-0D01*
G01X169665Y129764D02*
Y127795D01*
X168701Y126831D02*
G03X169665Y127795I-0J964D01*
G01X168701Y126831D02*
X166732D01*
X166233Y126970D02*
G03X166732Y126831I499J825D01*
G01X166233Y126970D02*
G03X166050I-91J-152D01*
G01X166017Y126951D02*
G03X166050Y126970I-466J844D01*
G01X166017Y126951D02*
G03X165925Y126795I85J-156D01*
G01Y125197*
X165527Y124236D02*
G03X165925Y125197I-960J961D01*
G01X165527Y124236D02*
X164425Y123134D01*
X163465Y122736D02*
G03X164425Y123134I-0J1358D01*
G01X163465Y122736D02*
X160459D01*
G03X160334Y122684I-0J-177*
G01X159882Y122233*
G03X159936Y121946I126J-125*
G01X160296Y121672D02*
G03X159936Y121946I-749J-609D01*
G01X160296Y121672D02*
G03X160571I137J111D01*
G01X161319Y122028D02*
G03X160571Y121672I-0J-965D01*
G01X161319Y122028D02*
X164469D01*
X165433Y121063D02*
G03X164469Y122028I-964J-0D01*
G01X165433Y121063D02*
Y115945D01*
X164469Y114980D02*
G03X165433Y115945I-0J965D01*
G01X164469Y114980D02*
X161319D01*
X160571Y115336D02*
G03X161319Y114980I748J609D01*
G01X160571Y115336D02*
G03X160296I-138J-111D01*
G01X159547Y114980D02*
G03X160296Y115336I0J965D01*
G01X159547Y114980D02*
X156398D01*
X155649Y115336D02*
G03X156398Y114980I749J609D01*
G01X155649Y115336D02*
G03X155374I-137J-111D01*
G01X154626Y114980D02*
G03X155374Y115336I-0J965D01*
G01X154626Y114980D02*
X151476D01*
X150728Y115336D02*
G03X151476Y114980I748J609D01*
G01X150728Y115336D02*
G03X150453I-137J-111D01*
G01X149705Y114980D02*
G03X150453Y115336I-0J965D01*
G01X149705Y114980D02*
X146555D01*
X145851Y115286D02*
G03X146555Y114980I704J659D01*
G01X145851Y115286D02*
G03X145637Y115320I-129J-122D01*
G01X145079Y115177D02*
G03X145637Y115320I-0J1162D01*
G01X145079Y115177D02*
X142208D01*
X141386Y115517D02*
G03X142208Y115177I822J822D01*
G01X141386Y115517D02*
X136581Y120322D01*
G03X136456Y120374I-125J-125*
G01X118460*
G03X118345Y120331I0J-177*
G01X117717Y120098D02*
G03X118345Y120331I-0J965D01*
G01X117717Y120098D02*
X111417D01*
X110453Y121063D02*
G03X111417Y120098I964J-0D01*
G01X110453Y121063D02*
Y132874D01*
X111417Y133839D02*
G03X110453Y132874I0J-965D01*
G01X111417Y133839D02*
X117717D01*
X118681Y132874D02*
G03X117717Y133839I-964J0D01*
G01X118681Y132874D02*
Y130276D01*
G03X118858Y130098I177J-0*
G01X137320*
X138141Y129758D02*
G03X137320Y130098I-821J-821D01*
G01X138141Y129758D02*
X142867Y125032D01*
G03X142993Y124980I126J126*
G01X145709*
G03X145886Y125158I-0J178*
G01X145886D02*
Y125540D01*
G03X145855Y125640I-177J0*
G01X145689Y126181D02*
G03X145855Y125640I965J0D01*
G01X145689Y126181D02*
Y128150D01*
X145828Y128649D02*
G03X145689Y128150I826J-499D01*
G01X145828Y128649D02*
G03Y128832I-152J91D01*
G01X145689Y129331D02*
G03X145828Y128832I965J-0D01*
G01X145689Y129331D02*
Y131299D01*
X146654Y132264D02*
G03X145689Y131299I-0J-965D01*
G01X146654Y132264D02*
X148622D01*
X149587Y131299D02*
G03X148622Y132264I-965J0D01*
G01X149587Y131299D02*
Y129331D01*
X149448Y128832D02*
G03X149587Y129331I-826J499D01*
G01X149448Y128832D02*
G03Y128649I151J-92D01*
G01X149587Y128150D02*
G03X149448Y128649I-965J-0D01*
G01X149587Y128150D02*
Y126181D01*
X149420Y125640D02*
G03X149587Y126181I-798J541D01*
G01X149420Y125640D02*
G03X149390Y125540I147J-100D01*
G01Y125148*
G03X149546Y124972I177J0*
G01X150571Y123819D02*
G03X149546Y124972I-1162J-0D01*
G01X150571Y123819D02*
Y122638D01*
X150363Y121975D02*
G03X150571Y122638I-954J663D01*
G01X150363Y121975D02*
G03X150384Y121748I146J-101D01*
G01X150453Y121672D02*
G03X150384Y121748I-748J-609D01*
G01X150453Y121672D02*
G03X150728I138J111D01*
G01X151476Y122028D02*
G03X150728Y121672I0J-965D01*
G01X151476Y122028D02*
X151516D01*
G03X151693Y122205I-0J177*
G01Y126708*
G03X151586Y126870I-177J-0*
G01X151004Y127756D02*
G03X151586Y126870I965J-0D01*
G01X151004Y127756D02*
Y129724D01*
X151503Y130569D02*
G03X151004Y129724I466J-845D01*
G01X151503Y130569D02*
G03X151594Y130724I-86J155D01*
G01Y131096*
G03X151543Y131222I-177J0*
G01X149922Y132842*
G03X149797Y132894I-125J-125*
G01X126772*
X125811Y133292D02*
G03X126772Y132894I961J960D01*
G01X125811Y133292D02*
X124630Y134473D01*
X124232Y135433D02*
G03X124630Y134473I1359J0D01*
G01X124232Y135433D02*
Y135945D01*
G03X124055Y136122I-177J-0*
G01X120059*
X119094Y137087D02*
G03X120059Y136122I965J-0D01*
G01X119094Y137087D02*
Y148898D01*
X120059Y149862D02*
G03X119094Y148898I0J-964D01*
G01X120059Y149862D02*
X126358D01*
X127323Y148898D02*
G03X126358Y149862I-965J-0D01*
G01X127323Y148898D02*
Y137087D01*
X127007Y136373D02*
G03X127323Y137087I-649J714D01*
G01X127007Y136373D02*
G03X126949Y136242I119J-131D01*
G01Y136069*
G03X127001Y135944I177J0*
G01X127282Y135662*
G03X127408Y135610I126J125*
G01X150433*
X151394Y135212D02*
G03X150433Y135610I-961J-960D01*
G01X151394Y135212D02*
X153913Y132693D01*
X154311Y131732D02*
G03X153913Y132693I-1358J0D01*
G01X154311Y131732D02*
Y130724D01*
G03X154403Y130569I177J0*
G01X154436Y130550D02*
G03X154403Y130569I-499J-826D01*
G01X154436Y130550D02*
G03X154619I92J152D01*
G01X155118Y130689D02*
G03X154619Y130550I0J-965D01*
G01X155118Y130689D02*
X157087D01*
X158051Y129724D02*
G03X157087Y130689I-964J0D01*
G01X158051Y129724D02*
Y127756D01*
X157087Y126791D02*
G03X158051Y127756I-0J965D01*
G01X157087Y126791D02*
X155118D01*
X154669Y126902D02*
G03X155118Y126791I449J854D01*
G01X154669Y126902D02*
G03X154409Y126745I-82J-157D01*
G01Y122205*
G03X154587Y122028I178J-0*
G01X154626*
X155374Y121672D02*
G03X154626Y122028I-748J-609D01*
G01X155374Y121672D02*
G03X155649I138J111D01*
G01X156398Y122028D02*
G03X155649Y121672I-0J-965D01*
G01X156398Y122028D02*
X156437D01*
G03X156614Y122205I-0J177*
G01Y122244*
X157012Y123205D02*
G03X156614Y122244I960J-961D01*
G01X157012Y123205D02*
X158862Y125055D01*
X159823Y125453D02*
G03X158862Y125055I-0J-1359D01*
G01X159823Y125453D02*
X162829D01*
G03X162954Y125505I-0J177*
G01X163157Y125708*
G03X163209Y125833I-126J125*
G01Y126795*
G03X163117Y126951I-178J0*
G01X162618Y127795D02*
G03X163117Y126951I965J0D01*
G01X162618Y127795D02*
Y129764D01*
X162741Y130235D02*
G03X162618Y129764I842J-471D01*
G01X162741Y130235D02*
G03X162711Y130446I-155J86D01*
G01X160851Y132307*
X160453Y133268D02*
G03X160851Y132307I1358J-0D01*
G01X160453Y133268D02*
Y145394D01*
G03X160276Y145571I-177J-0*
G01X158169*
G03X157992Y145394I0J-177*
G01Y137087*
X157028Y136122D02*
G03X157992Y137087I-0J965D01*
G01X157028Y136122D02*
X150728D01*
X149764Y137087D02*
G03X150728Y136122I964J-0D01*
G01X149764Y137087D02*
Y148898D01*
X150728Y149862D02*
G03X149764Y148898I0J-964D01*
G01X150728Y149862D02*
X157028D01*
X157992Y148898D02*
G03X157028Y149862I-964J-0D01*
G01X157992Y148898D02*
Y148465D01*
G03X158169Y148287I177J-0*
G01X161024*
X161984Y147890D02*
G03X161024Y148287I-960J-961D01*
G01X161984Y147890D02*
X162771Y147102D01*
X163169Y146142D02*
G03X162771Y147102I-1358J-0D01*
G01X163169Y146142D02*
Y133904D01*
G03X163221Y133778I177J-0*
G01X165527Y131472*
X165905Y130745D02*
G03X165527Y131472I-1338J-233D01*
G01X165905Y130745D02*
G03X165998Y130619I174J31D01*
G01X166050Y130589D02*
G03X165998Y130619I-499J-825D01*
G01X166050Y130589D02*
G03X166233I92J152D01*
G01X166732Y130728D02*
G03X166233Y130589I0J-964D01*
G01X166732Y130728D02*
X168701D01*
X169665Y129764D02*
G03X168701Y130728I-964J-0D01*
G01X140000Y148898D02*
Y137087D01*
X139035Y136122D02*
G03X140000Y137087I0J965D01*
G01X139035Y136122D02*
X132736D01*
X131772Y137087D02*
G03X132736Y136122I964J-0D01*
G01X131772Y137087D02*
Y148898D01*
X132736Y149862D02*
G03X131772Y148898I0J-964D01*
G01X132736Y149862D02*
X139035D01*
X140000Y148898D02*
G03X139035Y149862I-965J-0D01*
G01X252209Y140038D02*
X269311D01*
X252558Y139719D02*
X269311D01*
X252906Y139400D02*
X269311D01*
X253255Y139081D02*
X269311D01*
X253604Y138762D02*
X269311D01*
X253953Y138444D02*
X269311D01*
X254261Y138125D02*
X269311D01*
X254432Y137806D02*
X269311D01*
X254510Y137487D02*
X269311D01*
X254520Y137168D02*
X269311D01*
X254520Y136849D02*
X269311D01*
X254520Y136530D02*
X269311D01*
X254520Y136211D02*
X269311D01*
X254520Y135892D02*
X269311D01*
X254520Y135573D02*
X269311D01*
X254520Y135255D02*
X269311D01*
X254520Y134936D02*
X269311D01*
X254520Y134617D02*
X269311D01*
X254520Y134298D02*
X269311D01*
X254520Y133979D02*
X269311D01*
X254520Y133660D02*
X269311D01*
X254520Y133341D02*
X269311D01*
X257346Y133022D02*
X269311D01*
X258013Y132703D02*
X269311D01*
X258203Y132385D02*
X269311D01*
X258260Y132066D02*
X269311D01*
X258260Y131747D02*
X269311D01*
X258260Y131428D02*
X269311D01*
X258260Y131109D02*
X269311D01*
X258260Y130790D02*
X269311D01*
X258260Y130471D02*
X269311D01*
X258260Y130152D02*
X269311D01*
X258225Y129833D02*
X269311D01*
X258069Y129514D02*
X269311D01*
X257655Y129196D02*
X269311D01*
X254512Y128877D02*
X269311D01*
X254416Y128558D02*
X269311D01*
X254218Y128239D02*
X269311D01*
X253908Y127920D02*
X269311D01*
X253589Y127601D02*
X269311D01*
X253270Y127282D02*
X269311D01*
X252951Y126963D02*
X269311D01*
X252632Y126644D02*
X269311D01*
X252313Y126325D02*
X269311D01*
X251994Y126007D02*
X269311D01*
X251676Y125688D02*
X269311D01*
X251357Y125369D02*
X269311D01*
X251038Y125050D02*
X269311D01*
X250719Y124731D02*
X269311D01*
X250400Y124412D02*
X269311D01*
X250081Y124093D02*
X269311D01*
X249762Y123774D02*
X269311D01*
X249559Y123455D02*
X269311D01*
X249559Y123136D02*
X269311D01*
X249559Y122818D02*
X269311D01*
X249559Y122499D02*
X269311D01*
X249563Y122180D02*
X269311D01*
X255256Y121861D02*
X269311D01*
X255541Y121542D02*
X269311D01*
X255650Y121223D02*
X269311D01*
X255661Y120904D02*
X269311D01*
X251860Y140357D02*
X269229D01*
X255661Y120585D02*
X268945D01*
X251511Y140676D02*
X268590D01*
X255661Y120266D02*
X268522D01*
X251162Y140995D02*
X268390D01*
X255661Y119948D02*
X268363D01*
X250813Y141314D02*
X268327D01*
X243917Y162680D02*
X268327D01*
X243917Y162361D02*
X268327D01*
X243917Y162042D02*
X268327D01*
X243917Y161723D02*
X268327D01*
X243917Y161404D02*
X268327D01*
X243917Y161085D02*
X268327D01*
X243917Y160766D02*
X268327D01*
X243917Y160448D02*
X268327D01*
X243917Y160129D02*
X268327D01*
X243917Y159810D02*
X268327D01*
X243917Y159491D02*
X268327D01*
X243917Y159172D02*
X268327D01*
X243917Y158853D02*
X268327D01*
X243917Y158534D02*
X268327D01*
X243917Y158215D02*
X268327D01*
X243917Y157896D02*
X268327D01*
X243917Y157577D02*
X268327D01*
X243917Y157259D02*
X268327D01*
X243917Y156940D02*
X268327D01*
X243917Y156621D02*
X268327D01*
X243917Y156302D02*
X268327D01*
X243917Y155983D02*
X268327D01*
X243917Y155664D02*
X268327D01*
X243917Y155345D02*
X268327D01*
X243917Y155026D02*
X268327D01*
X243917Y154707D02*
X268327D01*
X243917Y154388D02*
X268327D01*
X243917Y154070D02*
X268327D01*
X243917Y153751D02*
X268327D01*
X243917Y153432D02*
X268327D01*
X243917Y153113D02*
X268327D01*
X243917Y152794D02*
X268327D01*
X243917Y152475D02*
X268327D01*
X243917Y152156D02*
X268327D01*
X243917Y151837D02*
X268327D01*
X243918Y151518D02*
X268327D01*
X245432Y151199D02*
X268327D01*
X245734Y150881D02*
X268327D01*
X245851Y150562D02*
X268327D01*
X245866Y150243D02*
X268327D01*
X245866Y149924D02*
X268327D01*
X245866Y149605D02*
X268327D01*
X245866Y149286D02*
X268327D01*
X245866Y148967D02*
X268327D01*
X245866Y148648D02*
X268327D01*
X245866Y148329D02*
X268327D01*
X245866Y148010D02*
X268327D01*
X245866Y147692D02*
X268327D01*
X245866Y147373D02*
X268327D01*
X245866Y147054D02*
X268327D01*
X245861Y146735D02*
X268327D01*
X245772Y146416D02*
X268327D01*
X245528Y146097D02*
X268327D01*
X243941Y145778D02*
X268327D01*
X243917Y145459D02*
X268327D01*
X243917Y145140D02*
X268327D01*
X243857Y144822D02*
X268327D01*
X243661Y144503D02*
X268327D01*
X213989Y144184D02*
X268327D01*
X191516Y143865D02*
X268327D01*
X191516Y143546D02*
X268327D01*
X191516Y143227D02*
X268327D01*
X191516Y142908D02*
X268327D01*
X191516Y142589D02*
X268327D01*
X243267Y142270D02*
X268327D01*
X243713Y141951D02*
X268327D01*
X250295Y141633D02*
X268327D01*
X255661Y119629D02*
X268327D01*
X255661Y119310D02*
X268327D01*
X255661Y118991D02*
X268327D01*
X255661Y118672D02*
X268327D01*
X255661Y118353D02*
X268327D01*
X255661Y118034D02*
X268327D01*
X255661Y117715D02*
X268327D01*
X255661Y117396D02*
X268327D01*
X255661Y117077D02*
X268327D01*
X255661Y116759D02*
X268327D01*
X255661Y116440D02*
X268327D01*
X255661Y116121D02*
X268327D01*
X255649Y115802D02*
X268327D01*
X255537Y115483D02*
X268327D01*
X255247Y115164D02*
X268327D01*
X191516Y114845D02*
X268327D01*
X267781Y114526D02*
X268327D01*
X232939D02*
X258542D01*
X233145Y101133D02*
X258335D01*
X233269Y114207D02*
X258212D01*
X233316Y101451D02*
X258164D01*
X233397Y113888D02*
X258083D01*
X233411Y101770D02*
X258069D01*
X233417Y113570D02*
X258063D01*
X233417Y113251D02*
X258063D01*
X233417Y112932D02*
X258063D01*
X233417Y112613D02*
X258063D01*
X233417Y112294D02*
X258063D01*
X233417Y111975D02*
X258063D01*
X233417Y111656D02*
X258063D01*
X233417Y111337D02*
X258063D01*
X233417Y111018D02*
X258063D01*
X233417Y110699D02*
X258063D01*
X233417Y110381D02*
X258063D01*
X233417Y110062D02*
X258063D01*
X233417Y109743D02*
X258063D01*
X233417Y109424D02*
X258063D01*
X233417Y109105D02*
X258063D01*
X233417Y108786D02*
X258063D01*
X233417Y108467D02*
X258063D01*
X233417Y108148D02*
X258063D01*
X233417Y107829D02*
X258063D01*
X233417Y107510D02*
X258063D01*
X233417Y107192D02*
X258063D01*
X233417Y106873D02*
X258063D01*
X233417Y106554D02*
X258063D01*
X233417Y106235D02*
X258063D01*
X233417Y105916D02*
X258063D01*
X233417Y105597D02*
X258063D01*
X233417Y105278D02*
X258063D01*
X233417Y104959D02*
X258063D01*
X233417Y104640D02*
X258063D01*
X233417Y104322D02*
X258063D01*
X233417Y104003D02*
X258063D01*
X233417Y103684D02*
X258063D01*
X233417Y103365D02*
X258063D01*
X233417Y103046D02*
X258063D01*
X233417Y102727D02*
X258063D01*
X233417Y102408D02*
X258063D01*
X233417Y102089D02*
X258063D01*
X254524Y133022D02*
X255276D01*
X254561Y129196D02*
X254967D01*
X243322Y136530D02*
X251803D01*
X215119Y136211D02*
X251803D01*
X242968Y135892D02*
X251803D01*
X243422Y135573D02*
X251803D01*
X243741Y135255D02*
X251803D01*
X244060Y134936D02*
X251803D01*
X244372Y134617D02*
X251803D01*
X244571Y134298D02*
X251803D01*
X244669Y133979D02*
X251803D01*
X244689Y133660D02*
X251803D01*
X244689Y133341D02*
X251803D01*
X247665Y133022D02*
X251799D01*
X243729Y136849D02*
X251671D01*
X248200Y132703D02*
X251459D01*
X248223Y129514D02*
X251404D01*
X247771Y129196D02*
X251342D01*
X243883Y137168D02*
X251322D01*
X248379Y132385D02*
X251269D01*
X248389Y129833D02*
X251248D01*
X248429Y132066D02*
X251213D01*
X248429Y131747D02*
X251213D01*
X248429Y131428D02*
X251213D01*
X248429Y131109D02*
X251213D01*
X248429Y130790D02*
X251213D01*
X248429Y130471D02*
X251213D01*
X248429Y130152D02*
X251213D01*
X244638Y128877D02*
X251023D01*
X250325Y115164D02*
X250998D01*
X250335Y121861D02*
X250988D01*
X243917Y137487D02*
X250973D01*
X244638Y128558D02*
X250704D01*
X243917Y137806D02*
X250624D01*
X244638Y128239D02*
X250385D01*
X243917Y138125D02*
X250276D01*
X244638Y127920D02*
X250066D01*
X243917Y138444D02*
X249927D01*
X244638Y127601D02*
X249747D01*
X243917Y138762D02*
X249578D01*
X244638Y127282D02*
X249428D01*
X244638Y126963D02*
X249109D01*
X244638Y126644D02*
X248790D01*
X244638Y126325D02*
X248471D01*
X244638Y126007D02*
X248153D01*
X244638Y125688D02*
X247834D01*
X244638Y125369D02*
X247515D01*
X244638Y125050D02*
X247198D01*
X244638Y124731D02*
X246981D01*
X244638Y124412D02*
X246871D01*
X244638Y124093D02*
X246842D01*
X244638Y123774D02*
X246842D01*
X244638Y123455D02*
X246842D01*
X244638Y123136D02*
X246842D01*
X244638Y122818D02*
X246842D01*
X244638Y122499D02*
X246842D01*
X244642Y122180D02*
X246839D01*
X245404Y115164D02*
X246076D01*
X245413Y121861D02*
X246067D01*
X244698Y133022D02*
X245296D01*
X244678Y129196D02*
X245190D01*
X209615Y133022D02*
X241963D01*
X240008Y128877D02*
X241921D01*
X240063Y128558D02*
X241921D01*
X240063Y128239D02*
X241921D01*
X240063Y127920D02*
X241921D01*
X240063Y127601D02*
X241921D01*
X240063Y127282D02*
X241921D01*
X240063Y126963D02*
X241921D01*
X240063Y126644D02*
X241921D01*
X240027Y126325D02*
X241921D01*
X239869Y126007D02*
X241921D01*
X239823Y125688D02*
X241921D01*
X239823Y125369D02*
X241921D01*
X239826Y125050D02*
X241921D01*
X240286Y124731D02*
X241921D01*
X240565Y124412D02*
X241921D01*
X240696Y124093D02*
X241921D01*
X240728Y123774D02*
X241921D01*
X240728Y123455D02*
X241921D01*
X240728Y123136D02*
X241921D01*
X240728Y122818D02*
X241921D01*
X240720Y122499D02*
X241921D01*
X240634Y122180D02*
X241917D01*
X239906Y129196D02*
X241912D01*
X209626Y132703D02*
X241611D01*
X240037Y129514D02*
X241588D01*
X239783Y132385D02*
X241432D01*
X240063Y129833D02*
X241422D01*
X239993Y132066D02*
X241382D01*
X240062Y131747D02*
X241382D01*
X240063Y131428D02*
X241382D01*
X240063Y131109D02*
X241382D01*
X240063Y130790D02*
X241382D01*
X240063Y130471D02*
X241382D01*
X240063Y130152D02*
X241382D01*
X240483Y115164D02*
X241155D01*
X240532Y121861D02*
X241146D01*
X238267Y142270D02*
X239686D01*
X238322Y136530D02*
X239631D01*
X238713Y141951D02*
X239239D01*
X238729Y136849D02*
X239223D01*
X209626Y132385D02*
X236446D01*
X228862Y129196D02*
X236323D01*
X232050Y126007D02*
X236319D01*
X232369Y125688D02*
X236319D01*
X232688Y125369D02*
X236319D01*
X233007Y125050D02*
X236282D01*
X209626Y132066D02*
X236235D01*
X191516Y115164D02*
X236234D01*
X229180Y128877D02*
X236220D01*
X231732Y126325D02*
X236201D01*
X228543Y129514D02*
X236191D01*
X209626Y131747D02*
X236166D01*
X229499Y128558D02*
X236165D01*
X209626Y131428D02*
X236165D01*
X209626Y131109D02*
X236165D01*
X209626Y130790D02*
X236165D01*
X209626Y130471D02*
X236165D01*
X209676Y130152D02*
X236165D01*
X228216Y129833D02*
X236165D01*
X229818Y128239D02*
X236165D01*
X230137Y127920D02*
X236165D01*
X230456Y127601D02*
X236165D01*
X230775Y127282D02*
X236165D01*
X231094Y126963D02*
X236165D01*
X231413Y126644D02*
X236165D01*
X233267Y142270D02*
X234686D01*
X233322Y136530D02*
X234631D01*
X233713Y141951D02*
X234239D01*
X233729Y136849D02*
X234223D01*
X191516Y115483D02*
X231580D01*
X191516Y115802D02*
X231259D01*
X191516Y116121D02*
X230940D01*
X191516Y116440D02*
X230621D01*
X191516Y116759D02*
X230303D01*
X191516Y117077D02*
X229984D01*
X228267Y142270D02*
X229686D01*
X191516Y117396D02*
X229665D01*
X228322Y136530D02*
X229631D01*
X191516Y117715D02*
X229346D01*
X228713Y141951D02*
X229239D01*
X228729Y136849D02*
X229223D01*
X191516Y118034D02*
X229027D01*
X191516Y118353D02*
X228708D01*
X191516Y118672D02*
X228389D01*
X191516Y118991D02*
X228070D01*
X191516Y119310D02*
X227751D01*
X191516Y119629D02*
X227432D01*
X191479Y119948D02*
X227114D01*
X209205Y120266D02*
X226789D01*
X191516Y142270D02*
X224686D01*
X214800Y136530D02*
X224631D01*
X214360Y144503D02*
X224292D01*
X214231Y141951D02*
X224239D01*
X214490Y136849D02*
X224223D01*
X214504Y144822D02*
X224096D01*
X214453Y141633D02*
X224075D01*
X214520Y137168D02*
X224069D01*
X214532Y145140D02*
X224036D01*
X214532Y162680D02*
X224035D01*
X214532Y162361D02*
X224035D01*
X214532Y162042D02*
X224035D01*
X214532Y161723D02*
X224035D01*
X214532Y161404D02*
X224035D01*
X214532Y161085D02*
X224035D01*
X214532Y160766D02*
X224035D01*
X214532Y160448D02*
X224035D01*
X214532Y160129D02*
X224035D01*
X214532Y159810D02*
X224035D01*
X214532Y159491D02*
X224035D01*
X214532Y159172D02*
X224035D01*
X214532Y158853D02*
X224035D01*
X214532Y158534D02*
X224035D01*
X214532Y158215D02*
X224035D01*
X214532Y157896D02*
X224035D01*
X214532Y157577D02*
X224035D01*
X214532Y157259D02*
X224035D01*
X214532Y156940D02*
X224035D01*
X214532Y156621D02*
X224035D01*
X214532Y156302D02*
X224035D01*
X214532Y155983D02*
X224035D01*
X214532Y155664D02*
X224035D01*
X214532Y155345D02*
X224035D01*
X214532Y155026D02*
X224035D01*
X214532Y154707D02*
X224035D01*
X214532Y154388D02*
X224035D01*
X214532Y154070D02*
X224035D01*
X214532Y153751D02*
X224035D01*
X214532Y153432D02*
X224035D01*
X214532Y153113D02*
X224035D01*
X214532Y152794D02*
X224035D01*
X214532Y152475D02*
X224035D01*
X214532Y152156D02*
X224035D01*
X214532Y151837D02*
X224035D01*
X214532Y145459D02*
X224035D01*
X214530Y141314D02*
X224035D01*
X214532Y140995D02*
X224035D01*
X214532Y140676D02*
X224035D01*
X214532Y140357D02*
X224035D01*
X214532Y140038D02*
X224035D01*
X214532Y139719D02*
X224035D01*
X214532Y139400D02*
X224035D01*
X214532Y139081D02*
X224035D01*
X214532Y138762D02*
X224035D01*
X214532Y138444D02*
X224035D01*
X214532Y138125D02*
X224035D01*
X214532Y137806D02*
X224035D01*
X214532Y137487D02*
X224035D01*
X214532Y151518D02*
X224035D01*
X215703Y145778D02*
X224011D01*
X208862Y114526D02*
X223699D01*
X209437Y101133D02*
X223493D01*
X209396Y114207D02*
X223369D01*
X209571Y101451D02*
X223322D01*
X209576Y113888D02*
X223240D01*
X209626Y101770D02*
X223227D01*
X209626Y113570D02*
X223220D01*
X209626Y113251D02*
X223220D01*
X209626Y112932D02*
X223220D01*
X209626Y112613D02*
X223220D01*
X209626Y112294D02*
X223220D01*
X209626Y111975D02*
X223220D01*
X209626Y111656D02*
X223220D01*
X209626Y111337D02*
X223220D01*
X209626Y111018D02*
X223220D01*
X209626Y110699D02*
X223220D01*
X209626Y110381D02*
X223220D01*
X209626Y110062D02*
X223220D01*
X209626Y109743D02*
X223220D01*
X209626Y109424D02*
X223220D01*
X209626Y109105D02*
X223220D01*
X209626Y108786D02*
X223220D01*
X209626Y108467D02*
X223220D01*
X209626Y108148D02*
X223220D01*
X209626Y107829D02*
X223220D01*
X209626Y107510D02*
X223220D01*
X209626Y107192D02*
X223220D01*
X209626Y106873D02*
X223220D01*
X209626Y106554D02*
X223220D01*
X209626Y106235D02*
X223220D01*
X209626Y105916D02*
X223220D01*
X209626Y105597D02*
X223220D01*
X209626Y105278D02*
X223220D01*
X209626Y104959D02*
X223220D01*
X209626Y104640D02*
X223220D01*
X209626Y104322D02*
X223220D01*
X209626Y104003D02*
X223220D01*
X209626Y103684D02*
X223220D01*
X209626Y103365D02*
X223220D01*
X209626Y103046D02*
X223220D01*
X209626Y102727D02*
X223220D01*
X209626Y102408D02*
X223220D01*
X209626Y102089D02*
X223220D01*
X215830Y151199D02*
X222521D01*
X216249Y146097D02*
X222425D01*
X216276Y150881D02*
X222218D01*
X216430Y146416D02*
X222180D01*
X216441Y150562D02*
X222101D01*
X216480Y146735D02*
X222091D01*
X216480Y150243D02*
X222087D01*
X216480Y149924D02*
X222087D01*
X216480Y149605D02*
X222087D01*
X216480Y149286D02*
X222087D01*
X216480Y148967D02*
X222087D01*
X216480Y148648D02*
X222087D01*
X216480Y148329D02*
X222087D01*
X216480Y148010D02*
X222087D01*
X216480Y147692D02*
X222087D01*
X216480Y147373D02*
X222087D01*
X216480Y147054D02*
X222087D01*
X209505Y133341D02*
X214385D01*
X209220Y133660D02*
X213829D01*
X190728Y133979D02*
X213510D01*
X190728Y134298D02*
X213191D01*
X190728Y134617D02*
X212872D01*
X190728Y134936D02*
X212553D01*
X190728Y135255D02*
X212234D01*
X190728Y135573D02*
X211915D01*
X190728Y135892D02*
X211678D01*
X190728Y136211D02*
X211555D01*
X209128Y136530D02*
X210053D01*
X209231Y141951D02*
X209950D01*
X209412Y136849D02*
X209770D01*
X209465Y141633D02*
X209716D01*
X204128Y136530D02*
X205053D01*
X204231Y141951D02*
X204950D01*
X204412Y136849D02*
X204770D01*
X204465Y141633D02*
X204716D01*
X191516Y114526D02*
X202162D01*
X191321Y120266D02*
X201818D01*
X190728Y133660D02*
X201803D01*
X191516Y114207D02*
X201627D01*
X191516Y101133D02*
X201587D01*
X190898Y120585D02*
X201524D01*
X190728Y133341D02*
X201518D01*
X191516Y101451D02*
X201452D01*
X191516Y113888D02*
X201447D01*
X190728Y120904D02*
X201411D01*
X190728Y133022D02*
X201409D01*
X190728Y132703D02*
X201398D01*
X190728Y132385D02*
X201398D01*
X190728Y132066D02*
X201398D01*
X190728Y131747D02*
X201398D01*
X190728Y131428D02*
X201398D01*
X190728Y131109D02*
X201398D01*
X190728Y130790D02*
X201398D01*
X190728Y130471D02*
X201398D01*
X190728Y130152D02*
X201398D01*
X190728Y129833D02*
X201398D01*
X190728Y129514D02*
X201398D01*
X190728Y129196D02*
X201398D01*
X190728Y128877D02*
X201398D01*
X190728Y128558D02*
X201398D01*
X190728Y128239D02*
X201398D01*
X190728Y127920D02*
X201398D01*
X190728Y127601D02*
X201398D01*
X190728Y127282D02*
X201398D01*
X190728Y126963D02*
X201398D01*
X190728Y126644D02*
X201398D01*
X190728Y126325D02*
X201398D01*
X190728Y126007D02*
X201398D01*
X190728Y125688D02*
X201398D01*
X190728Y125369D02*
X201398D01*
X190728Y125050D02*
X201398D01*
X190728Y124731D02*
X201398D01*
X190728Y124412D02*
X201398D01*
X190728Y124093D02*
X201398D01*
X190728Y123774D02*
X201398D01*
X190728Y123455D02*
X201398D01*
X190728Y123136D02*
X201398D01*
X190728Y122818D02*
X201398D01*
X190728Y122499D02*
X201398D01*
X190728Y122180D02*
X201398D01*
X190728Y121861D02*
X201398D01*
X190728Y121542D02*
X201398D01*
X190728Y121223D02*
X201398D01*
X191516Y113570D02*
X201398D01*
X191516Y113251D02*
X201398D01*
X191516Y112932D02*
X201398D01*
X191516Y112613D02*
X201398D01*
X191516Y112294D02*
X201398D01*
X191516Y111975D02*
X201398D01*
X191516Y111656D02*
X201398D01*
X191516Y111337D02*
X201398D01*
X191516Y111018D02*
X201398D01*
X191516Y110699D02*
X201398D01*
X191516Y110381D02*
X201398D01*
X191516Y110062D02*
X201398D01*
X191516Y109743D02*
X201398D01*
X191516Y109424D02*
X201398D01*
X191516Y109105D02*
X201398D01*
X191516Y108786D02*
X201398D01*
X191516Y108467D02*
X201398D01*
X191516Y108148D02*
X201398D01*
X191516Y107829D02*
X201398D01*
X191516Y107510D02*
X201398D01*
X191516Y107192D02*
X201398D01*
X191516Y106873D02*
X201398D01*
X191516Y106554D02*
X201398D01*
X191516Y106235D02*
X201398D01*
X191516Y105916D02*
X201398D01*
X191516Y105597D02*
X201398D01*
X191516Y105278D02*
X201398D01*
X191516Y104959D02*
X201398D01*
X191516Y104640D02*
X201398D01*
X191516Y104322D02*
X201398D01*
X191516Y104003D02*
X201398D01*
X191516Y103684D02*
X201398D01*
X191516Y103365D02*
X201398D01*
X191516Y103046D02*
X201398D01*
X191516Y102727D02*
X201398D01*
X191516Y102408D02*
X201398D01*
X191516Y102089D02*
X201398D01*
X191516Y101770D02*
X201398D01*
X199128Y136530D02*
X200053D01*
X199231Y141951D02*
X199950D01*
X199412Y136849D02*
X199770D01*
X199465Y141633D02*
X199716D01*
X191516Y144184D02*
X195192D01*
X190728Y136530D02*
X195053D01*
X191516Y141951D02*
X194950D01*
X191516Y144503D02*
X194821D01*
X190728Y136849D02*
X194770D01*
X191516Y141633D02*
X194728D01*
X191516Y144822D02*
X194677D01*
X190728Y137168D02*
X194661D01*
X191516Y141314D02*
X194652D01*
X191516Y162680D02*
X194650D01*
X191516Y162361D02*
X194650D01*
X191516Y162042D02*
X194650D01*
X191516Y161723D02*
X194650D01*
X191516Y161404D02*
X194650D01*
X191516Y161085D02*
X194650D01*
X191516Y160766D02*
X194650D01*
X191516Y160448D02*
X194650D01*
X191516Y160129D02*
X194650D01*
X191516Y159810D02*
X194650D01*
X191516Y159491D02*
X194650D01*
X191516Y159172D02*
X194650D01*
X191516Y158853D02*
X194650D01*
X191516Y158534D02*
X194650D01*
X191516Y158215D02*
X194650D01*
X191516Y157896D02*
X194650D01*
X191516Y157577D02*
X194650D01*
X191516Y157259D02*
X194650D01*
X191516Y156940D02*
X194650D01*
X191516Y156621D02*
X194650D01*
X191516Y156302D02*
X194650D01*
X191516Y155983D02*
X194650D01*
X191516Y155664D02*
X194650D01*
X191516Y155345D02*
X194650D01*
X191516Y155026D02*
X194650D01*
X191516Y154707D02*
X194650D01*
X191516Y154388D02*
X194650D01*
X191516Y154070D02*
X194650D01*
X191516Y153751D02*
X194650D01*
X191516Y153432D02*
X194650D01*
X191516Y153113D02*
X194650D01*
X191516Y152794D02*
X194650D01*
X191516Y152475D02*
X194650D01*
X191516Y152156D02*
X194650D01*
X191516Y151837D02*
X194650D01*
X191516Y151518D02*
X194650D01*
X191516Y145459D02*
X194650D01*
X191516Y145140D02*
X194650D01*
X191516Y140995D02*
X194650D01*
X191516Y140676D02*
X194650D01*
X191516Y140357D02*
X194650D01*
X191516Y140038D02*
X194650D01*
X191516Y139719D02*
X194650D01*
X191516Y139400D02*
X194650D01*
X191472Y139081D02*
X194650D01*
X191300Y138762D02*
X194650D01*
X190827Y138444D02*
X194650D01*
X190728Y138125D02*
X194650D01*
X190728Y137806D02*
X194650D01*
X190728Y137487D02*
X194650D01*
X191516Y145778D02*
X193478D01*
X191516Y151199D02*
X193351D01*
X191516Y146097D02*
X192933D01*
X191516Y150881D02*
X192905D01*
X191516Y146416D02*
X192751D01*
X191516Y150562D02*
X192741D01*
X191516Y150243D02*
X192701D01*
X191516Y149924D02*
X192701D01*
X191516Y149605D02*
X192701D01*
X191516Y149286D02*
X192701D01*
X191516Y148967D02*
X192701D01*
X191516Y148648D02*
X192701D01*
X191516Y148329D02*
X192701D01*
X191516Y148010D02*
X192701D01*
X191516Y147692D02*
X192701D01*
X191516Y147373D02*
X192701D01*
X191516Y147054D02*
X192701D01*
X191516Y146735D02*
X192701D01*
X336398Y144822D02*
X338699D01*
X336398Y144503D02*
X338593D01*
X336774Y142270D02*
X338585D01*
X336398Y144184D02*
X338583D01*
X336565Y143865D02*
X338583D01*
X336731Y143546D02*
X338583D01*
X336772Y143227D02*
X338583D01*
X336772Y142908D02*
X338583D01*
X336772Y142589D02*
X338583D01*
X342364Y144822D02*
X345753D01*
X345123Y135892D02*
X345649D01*
X342470Y144503D02*
X345642D01*
X342480Y144184D02*
X345630D01*
X342480Y143865D02*
X345630D01*
X342480Y143546D02*
X345630D01*
X342480Y143227D02*
X345630D01*
X342480Y142908D02*
X345630D01*
X342480Y142589D02*
X345630D01*
X342472Y142270D02*
X345630D01*
X342373Y141951D02*
X345630D01*
X342384Y141633D02*
X345630D01*
X342475Y141314D02*
X345630D01*
X342480Y140995D02*
X345630D01*
X342480Y140676D02*
X345630D01*
X342480Y140357D02*
X345630D01*
X342480Y140038D02*
X345630D01*
X342480Y139719D02*
X345630D01*
X342480Y139400D02*
X345630D01*
X342467Y139081D02*
X345630D01*
X342361Y138762D02*
X345630D01*
X342572Y138444D02*
X345630D01*
X342891Y138125D02*
X345630D01*
X343210Y137806D02*
X345630D01*
X343529Y137487D02*
X345630D01*
X343847Y137168D02*
X345630D01*
X344166Y136849D02*
X345630D01*
X344485Y136530D02*
X345630D01*
X344804Y136211D02*
X345630D01*
X336772Y133022D02*
X344151D01*
X336769Y133341D02*
X343832D01*
X336688Y133660D02*
X343513D01*
X336459Y133979D02*
X343195D01*
X336136Y134298D02*
X342876D01*
X336473Y134617D02*
X342557D01*
X336694Y134936D02*
X342238D01*
X336770Y135255D02*
X341919D01*
X336772Y135573D02*
X341600D01*
X336772Y135892D02*
X341281D01*
X336772Y136211D02*
X340962D01*
X336772Y136530D02*
X340643D01*
X336772Y136849D02*
X340324D01*
X336772Y137168D02*
X340006D01*
X336772Y137487D02*
X339687D01*
X336772Y137806D02*
X339411D01*
X336772Y138125D02*
X339259D01*
X336772Y132703D02*
X339054D01*
X336756Y138444D02*
X339009D01*
X336635Y138762D02*
X338712D01*
X327191Y122818D02*
X338668D01*
X336772Y127601D02*
X338627D01*
X336325Y139081D02*
X338596D01*
X336772Y127920D02*
X338531D01*
X336772Y132385D02*
X338484D01*
X326819Y122499D02*
X338449D01*
X336377Y139400D02*
X338442D01*
X327334Y123136D02*
X338416D01*
X336772Y127282D02*
X338360D01*
X336772Y128239D02*
X338319D01*
X336772Y132066D02*
X338300D01*
X313009Y122180D02*
X338287D01*
X327362Y123455D02*
X338275D01*
X336772Y126963D02*
X338257D01*
X336727Y128558D02*
X338249D01*
X336772Y131747D02*
X338248D01*
X336772Y131428D02*
X338248D01*
X336772Y131109D02*
X338248D01*
X336772Y130790D02*
X338248D01*
X336772Y130471D02*
X338248D01*
X336758Y130152D02*
X338248D01*
X336643Y129833D02*
X338248D01*
X336345Y129514D02*
X338248D01*
X336164Y129196D02*
X338248D01*
X336555Y128877D02*
X338248D01*
X336772Y126644D02*
X338248D01*
X336772Y126325D02*
X338248D01*
X336772Y126007D02*
X338248D01*
X336772Y125688D02*
X338248D01*
X336772Y125369D02*
X338248D01*
X336735Y125050D02*
X338248D01*
X336575Y124731D02*
X338248D01*
X336147Y124412D02*
X338248D01*
X327362Y124093D02*
X338248D01*
X327362Y123774D02*
X338248D01*
X313328Y121861D02*
X338248D01*
X329938Y121542D02*
X338248D01*
X330317Y121223D02*
X338248D01*
X329035Y134298D02*
X331541D01*
X328410Y124412D02*
X331531D01*
X329035Y129196D02*
X331513D01*
X329035Y139400D02*
X331504D01*
X329035Y139081D02*
X331352D01*
X329035Y129514D02*
X331332D01*
X329035Y133979D02*
X331219D01*
X329035Y134617D02*
X331204D01*
X329035Y128877D02*
X331122D01*
X329035Y139719D02*
X331111D01*
X328839Y124731D02*
X331102D01*
X329035Y138762D02*
X331042D01*
X329035Y129833D02*
X331034D01*
X329035Y133660D02*
X330989D01*
X329035Y134936D02*
X330983D01*
X329035Y128558D02*
X330950D01*
X329035Y140038D02*
X330946D01*
X328998Y125050D02*
X330943D01*
X329035Y138444D02*
X330922D01*
X329035Y130152D02*
X330919D01*
X329035Y133341D02*
X330908D01*
X329035Y135255D02*
X330907D01*
X329035Y142908D02*
X330905D01*
X329035Y142589D02*
X330905D01*
X329035Y142270D02*
X330905D01*
X329035Y141951D02*
X330905D01*
X329035Y141633D02*
X330905D01*
X329035Y141314D02*
X330905D01*
X329035Y140995D02*
X330905D01*
X329035Y140676D02*
X330905D01*
X329035Y140357D02*
X330905D01*
X329035Y138125D02*
X330905D01*
X329035Y137806D02*
X330905D01*
X329035Y137487D02*
X330905D01*
X329035Y137168D02*
X330905D01*
X329035Y136849D02*
X330905D01*
X329035Y136530D02*
X330905D01*
X329035Y136211D02*
X330905D01*
X329035Y135892D02*
X330905D01*
X329035Y135573D02*
X330905D01*
X329035Y133022D02*
X330905D01*
X329035Y132703D02*
X330905D01*
X329035Y132385D02*
X330905D01*
X329035Y132066D02*
X330905D01*
X329035Y131747D02*
X330905D01*
X329035Y131428D02*
X330905D01*
X329035Y131109D02*
X330905D01*
X329035Y130790D02*
X330905D01*
X329035Y130471D02*
X330905D01*
X329035Y128239D02*
X330905D01*
X329035Y127920D02*
X330905D01*
X329035Y127601D02*
X330905D01*
X329035Y127282D02*
X330905D01*
X329035Y126963D02*
X330905D01*
X329035Y126644D02*
X330905D01*
X329035Y126325D02*
X330905D01*
X329035Y126007D02*
X330905D01*
X329035Y125688D02*
X330905D01*
X329035Y125369D02*
X330905D01*
X313647Y121542D02*
X327148D01*
X313966Y121223D02*
X326769D01*
X312690Y122499D02*
X322413D01*
X312371Y122818D02*
X322041D01*
X312052Y123136D02*
X321898D01*
X311108Y124093D02*
X321870D01*
X311414Y123774D02*
X321870D01*
X311733Y123455D02*
X321870D01*
X330345Y118034D02*
X338577D01*
X338418Y117715D02*
X338556D01*
X330472D02*
X335486D01*
X330492Y117396D02*
X335127D01*
X330492Y117077D02*
X334808D01*
X330492Y116759D02*
X334489D01*
X330492Y116440D02*
X334170D01*
X330492Y116121D02*
X333851D01*
X330492Y115802D02*
X333532D01*
X330490Y115483D02*
X333213D01*
X330411Y115164D02*
X332894D01*
X330185Y114845D02*
X332576D01*
X329856Y114526D02*
X332257D01*
X345295Y131109D02*
X345846D01*
X345295Y130790D02*
X345846D01*
X345295Y130471D02*
X345846D01*
X345295Y130152D02*
X345846D01*
X345295Y129833D02*
X345846D01*
X345295Y129514D02*
X345846D01*
X345295Y129196D02*
X345846D01*
X345295Y128877D02*
X345846D01*
X345294Y128558D02*
X345846D01*
X345224Y128239D02*
X345846D01*
X345012Y127920D02*
X345846D01*
X344917Y127601D02*
X345846D01*
X345295Y131428D02*
X345746D01*
X345183Y127282D02*
X345696D01*
X346111Y134936D02*
X358878D01*
X346399Y134617D02*
X358878D01*
X346717Y134298D02*
X358878D01*
X347036Y133979D02*
X358878D01*
X347355Y133660D02*
X358878D01*
X347674Y133341D02*
X358878D01*
X347993Y133022D02*
X358878D01*
X348292Y132703D02*
X358878D01*
X348470Y132385D02*
X358878D01*
X348552Y132066D02*
X358878D01*
X348563Y131747D02*
X358878D01*
X348563Y131428D02*
X358878D01*
X348563Y131109D02*
X358878D01*
X348563Y130790D02*
X358878D01*
X348563Y130471D02*
X358878D01*
X348563Y130152D02*
X358878D01*
X348563Y129833D02*
X358878D01*
X348563Y129514D02*
X358878D01*
X348563Y129196D02*
X358878D01*
X348563Y128877D02*
X358878D01*
X348563Y128558D02*
X358878D01*
X348563Y128239D02*
X358878D01*
X348563Y127920D02*
X358878D01*
X348563Y127601D02*
X358878D01*
X348563Y127282D02*
X358878D01*
X348563Y126963D02*
X358878D01*
X348544Y126644D02*
X358878D01*
X348449Y126325D02*
X358878D01*
X348253Y126007D02*
X358878D01*
X347943Y125688D02*
X358878D01*
X347624Y125369D02*
X358878D01*
X347305Y125050D02*
X358878D01*
X346987Y124731D02*
X358878D01*
X346668Y124412D02*
X358878D01*
X346293Y124093D02*
X358878D01*
X345304Y123774D02*
X358878D01*
X345269Y123455D02*
X358878D01*
X345127Y123136D02*
X358878D01*
X344875Y122818D02*
X358878D01*
X345094Y122499D02*
X358878D01*
X345257Y122180D02*
X358878D01*
X345295Y121861D02*
X358878D01*
X345295Y121542D02*
X358878D01*
X345295Y121223D02*
X358878D01*
X345295Y120904D02*
X358878D01*
X345295Y120585D02*
X358878D01*
X345295Y120266D02*
X358878D01*
X345295Y119948D02*
X358878D01*
X345295Y119629D02*
X358878D01*
X345295Y119310D02*
X358878D01*
X345295Y118991D02*
X358878D01*
X345291Y118672D02*
X358878D01*
X345205Y118353D02*
X358878D01*
X344966Y118034D02*
X358878D01*
X344965Y117715D02*
X358878D01*
X345205Y117396D02*
X358878D01*
X345291Y117077D02*
X358878D01*
X345295Y116759D02*
X358878D01*
X345295Y116440D02*
X358878D01*
X345295Y116121D02*
X358878D01*
X345295Y115802D02*
X358878D01*
X345295Y115483D02*
X358878D01*
X345295Y115164D02*
X358878D01*
X345295Y114845D02*
X358878D01*
X345295Y114526D02*
X358878D01*
X345295Y114207D02*
X358878D01*
X345295Y113888D02*
X358878D01*
X345257Y113570D02*
X358878D01*
X345095Y113251D02*
X358878D01*
X345128Y112932D02*
X358878D01*
X345237Y112613D02*
X358878D01*
X345256Y112294D02*
X358878D01*
X345256Y111975D02*
X358878D01*
X345256Y111656D02*
X358878D01*
X345256Y111337D02*
X358878D01*
X345253Y111018D02*
X358878D01*
X345183Y110699D02*
X358878D01*
X345002Y110381D02*
X346184D01*
X344694Y110062D02*
X345805D01*
X344375Y109743D02*
X345659D01*
X282067Y101133D02*
X345634D01*
X344056Y109424D02*
X345630D01*
X343737Y109105D02*
X345630D01*
X343418Y108786D02*
X345630D01*
X343099Y108467D02*
X345630D01*
X342780Y108148D02*
X345630D01*
X342461Y107829D02*
X345630D01*
X342142Y107510D02*
X345630D01*
X341823Y107192D02*
X345630D01*
X341505Y106873D02*
X345630D01*
X341186Y106554D02*
X345630D01*
X340866Y106235D02*
X345630D01*
X328841Y105916D02*
X345630D01*
X328720Y105597D02*
X345630D01*
X328720Y105278D02*
X345630D01*
X328720Y104959D02*
X345630D01*
X328720Y104640D02*
X345630D01*
X328720Y104322D02*
X345630D01*
X328720Y104003D02*
X345630D01*
X328719Y103684D02*
X345630D01*
X328644Y103365D02*
X345630D01*
X328426Y103046D02*
X345630D01*
X282067Y102727D02*
X345630D01*
X282067Y102408D02*
X345630D01*
X282067Y102089D02*
X345630D01*
X282067Y101770D02*
X345630D01*
X282067Y101451D02*
X345630D01*
X318622Y114526D02*
X327230D01*
X318622Y114845D02*
X326902D01*
X282067Y118034D02*
X326742D01*
X318622Y115164D02*
X326676D01*
X282067Y117715D02*
X326614D01*
X318622Y115483D02*
X326597D01*
X282067Y117396D02*
X326594D01*
X318060Y117077D02*
X326594D01*
X318444Y116759D02*
X326594D01*
X318592Y116440D02*
X326594D01*
X318622Y116121D02*
X326594D01*
X318622Y115802D02*
X326594D01*
X282067Y103046D02*
X325118D01*
X282067Y103365D02*
X324899D01*
X282067Y103684D02*
X324824D01*
X282067Y105597D02*
X324823D01*
X282067Y105278D02*
X324823D01*
X282067Y104959D02*
X324823D01*
X282067Y104640D02*
X324823D01*
X282067Y104322D02*
X324823D01*
X282067Y104003D02*
X324823D01*
X318322Y105916D02*
X324703D01*
X282067Y118353D02*
X313317D01*
X282067Y118672D02*
X312678D01*
X282067Y118991D02*
X312356D01*
X282067Y119310D02*
X312037D01*
X282067Y119629D02*
X311718D01*
X282031Y119948D02*
X311399D01*
X281872Y120266D02*
X311080D01*
X281449Y120585D02*
X310762D01*
X281280Y120904D02*
X310443D01*
X281280Y121223D02*
X310124D01*
X281280Y121542D02*
X309805D01*
X281280Y121861D02*
X309486D01*
X281280Y122180D02*
X309167D01*
X281280Y122499D02*
X308848D01*
X298788Y122818D02*
X308529D01*
X298990Y123136D02*
X308210D01*
X299055Y123455D02*
X307927D01*
X293493Y117077D02*
X307924D01*
X299055Y123774D02*
X307769D01*
X299055Y124093D02*
X307702D01*
X293735Y105916D02*
X307682D01*
X299103Y124412D02*
X307649D01*
X293878Y116759D02*
X307540D01*
X293969Y106235D02*
X307449D01*
X294025Y116440D02*
X307392D01*
X294052Y106554D02*
X307366D01*
X294055Y116121D02*
X307362D01*
X294055Y115802D02*
X307362D01*
X294055Y115483D02*
X307362D01*
X294055Y115164D02*
X307362D01*
X294055Y114845D02*
X307362D01*
X294055Y114526D02*
X307362D01*
X294055Y114207D02*
X307362D01*
X294055Y113888D02*
X307362D01*
X294055Y113570D02*
X307362D01*
X294055Y113251D02*
X307362D01*
X294055Y112932D02*
X307362D01*
X294055Y112613D02*
X307362D01*
X294055Y112294D02*
X307362D01*
X294055Y111975D02*
X307362D01*
X294055Y111656D02*
X307362D01*
X294055Y111337D02*
X307362D01*
X294055Y111018D02*
X307362D01*
X294055Y110699D02*
X307362D01*
X294055Y110381D02*
X307362D01*
X294055Y110062D02*
X307362D01*
X294055Y109743D02*
X307362D01*
X294055Y109424D02*
X307362D01*
X294055Y109105D02*
X307362D01*
X294055Y108786D02*
X307362D01*
X294055Y108467D02*
X307362D01*
X294055Y108148D02*
X307362D01*
X294055Y107829D02*
X307362D01*
X294055Y107510D02*
X307362D01*
X294055Y107192D02*
X307362D01*
X294055Y106873D02*
X307362D01*
X300728Y139400D02*
X303234D01*
X300728Y129514D02*
X303200D01*
X300728Y134298D02*
X303195D01*
X300728Y134617D02*
X303049D01*
X300728Y129196D02*
X303039D01*
X300728Y139719D02*
X302914D01*
X300425Y124731D02*
X302902D01*
X300728Y139081D02*
X302895D01*
X300728Y129833D02*
X302808D01*
X300728Y133979D02*
X302802D01*
X300728Y134936D02*
X302737D01*
X300728Y128877D02*
X302733D01*
X300728Y140038D02*
X302683D01*
X300649Y125050D02*
X302678D01*
X300728Y138762D02*
X302675D01*
X300728Y130152D02*
X302640D01*
X300728Y133660D02*
X302638D01*
X300728Y135255D02*
X302615D01*
X300728Y128558D02*
X302614D01*
X300728Y140357D02*
X302601D01*
X300726Y125369D02*
X302601D01*
X300728Y138444D02*
X302600D01*
X300728Y142908D02*
X302598D01*
X300728Y142589D02*
X302598D01*
X300728Y142270D02*
X302598D01*
X300728Y141951D02*
X302598D01*
X300728Y141633D02*
X302598D01*
X300728Y141314D02*
X302598D01*
X300728Y140995D02*
X302598D01*
X300728Y140676D02*
X302598D01*
X300728Y138125D02*
X302598D01*
X300728Y137806D02*
X302598D01*
X300728Y137487D02*
X302598D01*
X300728Y137168D02*
X302598D01*
X300728Y136849D02*
X302598D01*
X300728Y136530D02*
X302598D01*
X300728Y136211D02*
X302598D01*
X300728Y135892D02*
X302598D01*
X300728Y135573D02*
X302598D01*
X300728Y133341D02*
X302598D01*
X300728Y133022D02*
X302598D01*
X300728Y132703D02*
X302598D01*
X300728Y132385D02*
X302598D01*
X300728Y132066D02*
X302598D01*
X300728Y131747D02*
X302598D01*
X300728Y131428D02*
X302598D01*
X300728Y131109D02*
X302598D01*
X300728Y130790D02*
X302598D01*
X300728Y130471D02*
X302598D01*
X300728Y128239D02*
X302598D01*
X300728Y127920D02*
X302598D01*
X300728Y127601D02*
X302598D01*
X300728Y127282D02*
X302598D01*
X300728Y126963D02*
X302598D01*
X300728Y126644D02*
X302598D01*
X300728Y126325D02*
X302598D01*
X300728Y126007D02*
X302598D01*
X300728Y125688D02*
X302598D01*
X281280Y122818D02*
X293830D01*
X281280Y123136D02*
X293628D01*
X281280Y123455D02*
X293563D01*
X281280Y124093D02*
X293563D01*
X281280Y123774D02*
X293563D01*
X281280Y124412D02*
X293515D01*
X282067Y117077D02*
X283357D01*
X282067Y105916D02*
X283116D01*
X282067Y116759D02*
X282973D01*
X282067Y106235D02*
X282882D01*
X282067Y116440D02*
X282825D01*
X282067Y106554D02*
X282799D01*
X282067Y116121D02*
X282795D01*
X282067Y115802D02*
X282795D01*
X282067Y115483D02*
X282795D01*
X282067Y115164D02*
X282795D01*
X282067Y114845D02*
X282795D01*
X282067Y114526D02*
X282795D01*
X282067Y114207D02*
X282795D01*
X282067Y113888D02*
X282795D01*
X282067Y113570D02*
X282795D01*
X282067Y113251D02*
X282795D01*
X282067Y112932D02*
X282795D01*
X282067Y112613D02*
X282795D01*
X282067Y112294D02*
X282795D01*
X282067Y111975D02*
X282795D01*
X282067Y111656D02*
X282795D01*
X282067Y111337D02*
X282795D01*
X282067Y111018D02*
X282795D01*
X282067Y110699D02*
X282795D01*
X282067Y110381D02*
X282795D01*
X282067Y110062D02*
X282795D01*
X282067Y109743D02*
X282795D01*
X282067Y109424D02*
X282795D01*
X282067Y109105D02*
X282795D01*
X282067Y108786D02*
X282795D01*
X282067Y108467D02*
X282795D01*
X282067Y108148D02*
X282795D01*
X282067Y107829D02*
X282795D01*
X282067Y107510D02*
X282795D01*
X282067Y107192D02*
X282795D01*
X282067Y106873D02*
X282795D01*
X163169Y138247D02*
X178563D01*
X163169Y137928D02*
X178563D01*
X163169Y137609D02*
X178563D01*
X163169Y137290D02*
X178563D01*
X163169Y136971D02*
X178563D01*
X163169Y136652D02*
X178563D01*
X163169Y136333D02*
X178563D01*
X163169Y136014D02*
X178563D01*
X163169Y135696D02*
X178563D01*
X163169Y135377D02*
X178563D01*
X163169Y135058D02*
X178563D01*
X163169Y134739D02*
X178563D01*
X163169Y134420D02*
X178563D01*
X163169Y134101D02*
X178563D01*
X163218Y133782D02*
X178563D01*
X163536Y133463D02*
X178563D01*
X163855Y133144D02*
X178563D01*
X164174Y132825D02*
X178563D01*
X164493Y132507D02*
X178563D01*
X164812Y132188D02*
X178563D01*
X165131Y131869D02*
X178563D01*
X165450Y131550D02*
X178563D01*
X165719Y131231D02*
X178563D01*
X165865Y130912D02*
X178563D01*
X169193Y130593D02*
X178563D01*
X169519Y130274D02*
X178563D01*
X169646Y129955D02*
X178563D01*
X169665Y129636D02*
X178563D01*
X169665Y129318D02*
X178563D01*
X169665Y128999D02*
X178563D01*
X169665Y128680D02*
X178563D01*
X169665Y128361D02*
X178563D01*
X169665Y128042D02*
X178563D01*
X169663Y127723D02*
X178563D01*
X169583Y127404D02*
X178563D01*
X169354Y127085D02*
X178563D01*
X165925Y126766D02*
X178563D01*
X165925Y126448D02*
X178563D01*
X165925Y126129D02*
X178563D01*
X165925Y125810D02*
X178563D01*
X165925Y125491D02*
X178563D01*
X165925Y125172D02*
X178563D01*
X165881Y124853D02*
X178563D01*
X165753Y124534D02*
X178563D01*
X165506Y124215D02*
X178563D01*
X165187Y123896D02*
X178563D01*
X164868Y123577D02*
X178563D01*
X164550Y123259D02*
X178563D01*
X164180Y122940D02*
X178563D01*
X160270Y122621D02*
X178563D01*
X159951Y122302D02*
X178563D01*
X164759Y121983D02*
X178563D01*
X165223Y121664D02*
X178563D01*
X165391Y121345D02*
X178563D01*
X165433Y121026D02*
X178563D01*
X165433Y120707D02*
X178551D01*
X163169Y138566D02*
X178208D01*
X165433Y120388D02*
X178080D01*
X163169Y138885D02*
X177907D01*
X165433Y120070D02*
X177856D01*
X163169Y139203D02*
X177790D01*
X165433Y119751D02*
X177778D01*
X157264Y182892D02*
X177776D01*
X157264Y182573D02*
X177776D01*
X157264Y182255D02*
X177776D01*
X157264Y181936D02*
X177776D01*
X157264Y181617D02*
X177776D01*
X157264Y181298D02*
X177776D01*
X157264Y180979D02*
X177776D01*
X157264Y180660D02*
X177776D01*
X157264Y180341D02*
X177776D01*
X157264Y180022D02*
X177776D01*
X157264Y179703D02*
X177776D01*
X157264Y179385D02*
X177776D01*
X157264Y179066D02*
X177776D01*
X157264Y178747D02*
X177776D01*
X157264Y178428D02*
X177776D01*
X157264Y178109D02*
X177776D01*
X157264Y177790D02*
X177776D01*
X157264Y177471D02*
X177776D01*
X157264Y177152D02*
X177776D01*
X157264Y176833D02*
X177776D01*
X157264Y176514D02*
X177776D01*
X157264Y176196D02*
X177776D01*
X157264Y175877D02*
X177776D01*
X157264Y175558D02*
X177776D01*
X157264Y175239D02*
X177776D01*
X157264Y174920D02*
X177776D01*
X157264Y174601D02*
X177776D01*
X157264Y174282D02*
X177776D01*
X157264Y173963D02*
X177776D01*
X157264Y173644D02*
X177776D01*
X157264Y173325D02*
X177776D01*
X157264Y173007D02*
X177776D01*
X157264Y172688D02*
X177776D01*
X157264Y172369D02*
X177776D01*
X157264Y172050D02*
X177776D01*
X157264Y171731D02*
X177776D01*
X157264Y171412D02*
X177776D01*
X157264Y171093D02*
X177776D01*
X157264Y170774D02*
X177776D01*
X157264Y170455D02*
X177776D01*
X157264Y170136D02*
X177776D01*
X157264Y169818D02*
X177776D01*
X157264Y169499D02*
X177776D01*
X157264Y169180D02*
X177776D01*
X157264Y168861D02*
X177776D01*
X157264Y168542D02*
X177776D01*
X157264Y168223D02*
X177776D01*
X157264Y167904D02*
X177776D01*
X157264Y167585D02*
X177776D01*
X157264Y167266D02*
X177776D01*
X157264Y166948D02*
X177776D01*
X157264Y166629D02*
X177776D01*
X157264Y166310D02*
X177776D01*
X157264Y165991D02*
X177776D01*
X157264Y165672D02*
X177776D01*
X157264Y165353D02*
X177776D01*
X157264Y165034D02*
X177776D01*
X157264Y164715D02*
X177776D01*
X157264Y164396D02*
X177776D01*
X157264Y164077D02*
X177776D01*
X157264Y163759D02*
X177776D01*
X157264Y163440D02*
X177776D01*
X157264Y163121D02*
X177776D01*
X157264Y162802D02*
X177776D01*
X157264Y162483D02*
X177776D01*
X157264Y162164D02*
X177776D01*
X157264Y161845D02*
X177776D01*
X157264Y161526D02*
X177776D01*
X157264Y161207D02*
X177776D01*
X157264Y160888D02*
X177776D01*
X157264Y160570D02*
X177776D01*
X157264Y160251D02*
X177776D01*
X157264Y159932D02*
X177776D01*
X157264Y159613D02*
X177776D01*
X157264Y159294D02*
X177776D01*
X157260Y158975D02*
X177776D01*
X157177Y158656D02*
X177776D01*
X156944Y158337D02*
X177776D01*
X100965Y158018D02*
X177776D01*
X100965Y157699D02*
X177776D01*
X100965Y157381D02*
X177776D01*
X100965Y157062D02*
X177776D01*
X100965Y156743D02*
X177776D01*
X100965Y156424D02*
X177776D01*
X100965Y156105D02*
X177776D01*
X100965Y155786D02*
X177776D01*
X100965Y155467D02*
X177776D01*
X100965Y155148D02*
X177776D01*
X100965Y154829D02*
X177776D01*
X100965Y154510D02*
X177776D01*
X100965Y154192D02*
X177776D01*
X100965Y153873D02*
X177776D01*
X100965Y153554D02*
X177776D01*
X100965Y153235D02*
X177776D01*
X100965Y152916D02*
X177776D01*
X100965Y152597D02*
X177776D01*
X100965Y152278D02*
X177776D01*
X100965Y151959D02*
X177776D01*
X100965Y151640D02*
X177776D01*
X100965Y151322D02*
X177776D01*
X100965Y151003D02*
X177776D01*
X100965Y150684D02*
X177776D01*
X100965Y150365D02*
X177776D01*
X100965Y150046D02*
X177776D01*
X157520Y149727D02*
X177776D01*
X157846Y149408D02*
X177776D01*
X157973Y149089D02*
X177776D01*
X157992Y148770D02*
X177776D01*
X157993Y148451D02*
X177776D01*
X161654Y148133D02*
X177776D01*
X162060Y147814D02*
X177776D01*
X162379Y147495D02*
X177776D01*
X162698Y147176D02*
X177776D01*
X162966Y146857D02*
X177776D01*
X163110Y146538D02*
X177776D01*
X163167Y146219D02*
X177776D01*
X163169Y145900D02*
X177776D01*
X163169Y145581D02*
X177776D01*
X163169Y145262D02*
X177776D01*
X163169Y144944D02*
X177776D01*
X163169Y144625D02*
X177776D01*
X163169Y144306D02*
X177776D01*
X163169Y143987D02*
X177776D01*
X163169Y143668D02*
X177776D01*
X163169Y143349D02*
X177776D01*
X163169Y143030D02*
X177776D01*
X163169Y142711D02*
X177776D01*
X163169Y142392D02*
X177776D01*
X163169Y142073D02*
X177776D01*
X163169Y141755D02*
X177776D01*
X163169Y141436D02*
X177776D01*
X163169Y141117D02*
X177776D01*
X163169Y140798D02*
X177776D01*
X163169Y140479D02*
X177776D01*
X163169Y140160D02*
X177776D01*
X163169Y139841D02*
X177776D01*
X163169Y139522D02*
X177776D01*
X165433Y119432D02*
X177776D01*
X165433Y119113D02*
X177776D01*
X165433Y118794D02*
X177776D01*
X165433Y118475D02*
X177776D01*
X165433Y118156D02*
X177776D01*
X165433Y117837D02*
X177776D01*
X165433Y117518D02*
X177776D01*
X165433Y117199D02*
X177776D01*
X165433Y116881D02*
X177776D01*
X165433Y116562D02*
X177776D01*
X165433Y116243D02*
X177776D01*
X165433Y115924D02*
X177776D01*
X165371Y115605D02*
X177776D01*
X165173Y115286D02*
X177776D01*
X100965Y114967D02*
X177776D01*
X100965Y114648D02*
X177770D01*
X157295Y183211D02*
X177744D01*
X142939Y114329D02*
X168085D01*
X142967Y101255D02*
X168057D01*
X143131Y114010D02*
X167893D01*
X143142Y101573D02*
X167881D01*
X143189Y113692D02*
X167835D01*
X143189Y113373D02*
X167835D01*
X143189Y113054D02*
X167835D01*
X143189Y112735D02*
X167835D01*
X143189Y112416D02*
X167835D01*
X143189Y112097D02*
X167835D01*
X143189Y111778D02*
X167835D01*
X143189Y111459D02*
X167835D01*
X143189Y111140D02*
X167835D01*
X143189Y110822D02*
X167835D01*
X143189Y110503D02*
X167835D01*
X143189Y110184D02*
X167835D01*
X143189Y109865D02*
X167835D01*
X143189Y109546D02*
X167835D01*
X143189Y109227D02*
X167835D01*
X143189Y108908D02*
X167835D01*
X143189Y108589D02*
X167835D01*
X143189Y108270D02*
X167835D01*
X143189Y107951D02*
X167835D01*
X143189Y107633D02*
X167835D01*
X143189Y107314D02*
X167835D01*
X143189Y106995D02*
X167835D01*
X143189Y106676D02*
X167835D01*
X143189Y106357D02*
X167835D01*
X143189Y106038D02*
X167835D01*
X143189Y105719D02*
X167835D01*
X143189Y105400D02*
X167835D01*
X143189Y105081D02*
X167835D01*
X143189Y104762D02*
X167835D01*
X143189Y104444D02*
X167835D01*
X143189Y104125D02*
X167835D01*
X143189Y103806D02*
X167835D01*
X143189Y103487D02*
X167835D01*
X143189Y103168D02*
X167835D01*
X143189Y102849D02*
X167835D01*
X143189Y102530D02*
X167835D01*
X143189Y102211D02*
X167835D01*
X143189Y101892D02*
X167835D01*
X166044Y130593D02*
X166240D01*
X154411Y126766D02*
X163209D01*
X154409Y126448D02*
X163209D01*
X154409Y126129D02*
X163209D01*
X154409Y125810D02*
X163207D01*
X154409Y125491D02*
X162938D01*
X157780Y127085D02*
X162930D01*
X157879Y130274D02*
X162757D01*
X157985Y127404D02*
X162701D01*
X158023Y129955D02*
X162637D01*
X158051Y127723D02*
X162621D01*
X158051Y129636D02*
X162618D01*
X158051Y129318D02*
X162618D01*
X158051Y128999D02*
X162618D01*
X158051Y128680D02*
X162618D01*
X158051Y128361D02*
X162618D01*
X158051Y128042D02*
X162618D01*
X157506Y130593D02*
X162565D01*
X154311Y130912D02*
X162246D01*
X154311Y131231D02*
X161927D01*
X154311Y131550D02*
X161608D01*
X154304Y131869D02*
X161289D01*
X159882Y121983D02*
X161029D01*
X154232Y132188D02*
X160970D01*
X154069Y132507D02*
X160686D01*
X160252Y115286D02*
X160614D01*
X160302Y121664D02*
X160564D01*
X153780Y132825D02*
X160527D01*
X153462Y133144D02*
X160458D01*
X157992Y145262D02*
X160453D01*
X157992Y144944D02*
X160453D01*
X157992Y144625D02*
X160453D01*
X157992Y144306D02*
X160453D01*
X157992Y143987D02*
X160453D01*
X157992Y143668D02*
X160453D01*
X157992Y143349D02*
X160453D01*
X157992Y143030D02*
X160453D01*
X157992Y142711D02*
X160453D01*
X157992Y142392D02*
X160453D01*
X157992Y142073D02*
X160453D01*
X157992Y141755D02*
X160453D01*
X157992Y141436D02*
X160453D01*
X157992Y141117D02*
X160453D01*
X157992Y140798D02*
X160453D01*
X157992Y140479D02*
X160453D01*
X157992Y140160D02*
X160453D01*
X157992Y139841D02*
X160453D01*
X157992Y139522D02*
X160453D01*
X157992Y139203D02*
X160453D01*
X157992Y138885D02*
X160453D01*
X157992Y138566D02*
X160453D01*
X157992Y138247D02*
X160453D01*
X157992Y137928D02*
X160453D01*
X157992Y137609D02*
X160453D01*
X157992Y137290D02*
X160453D01*
X157985Y136971D02*
X160453D01*
X157889Y136652D02*
X160453D01*
X157630Y136333D02*
X160453D01*
X126957Y136014D02*
X160453D01*
X127249Y135696D02*
X160453D01*
X151195Y135377D02*
X160453D01*
X151548Y135058D02*
X160453D01*
X151867Y134739D02*
X160453D01*
X152186Y134420D02*
X160453D01*
X152505Y134101D02*
X160453D01*
X152824Y133782D02*
X160453D01*
X153143Y133463D02*
X160453D01*
X154409Y125172D02*
X158996D01*
X154409Y124853D02*
X158660D01*
X154409Y124534D02*
X158342D01*
X154409Y124215D02*
X158023D01*
X154409Y123896D02*
X157704D01*
X154409Y123577D02*
X157385D01*
X154409Y123259D02*
X157066D01*
X154409Y122940D02*
X156806D01*
X154409Y122621D02*
X156667D01*
X154409Y122302D02*
X156615D01*
X154916Y121983D02*
X156108D01*
X155331Y115286D02*
X155693D01*
X155381Y121664D02*
X155643D01*
X154369Y130593D02*
X154699D01*
X149587Y126448D02*
X151693D01*
X149585Y126129D02*
X151693D01*
X149512Y125810D02*
X151693D01*
X149390Y125491D02*
X151693D01*
X149390Y125172D02*
X151693D01*
X149938Y124853D02*
X151693D01*
X150325Y124534D02*
X151693D01*
X150501Y124215D02*
X151693D01*
X150568Y123896D02*
X151693D01*
X150571Y123577D02*
X151693D01*
X150571Y123259D02*
X151693D01*
X150571Y122940D02*
X151693D01*
X150571Y122621D02*
X151693D01*
X150521Y122302D02*
X151693D01*
X149587Y126766D02*
X151683D01*
X149587Y130912D02*
X151594D01*
X149587Y130593D02*
X151536D01*
X149587Y131231D02*
X151533D01*
X149587Y127085D02*
X151275D01*
X149553Y131550D02*
X151214D01*
X150369Y121983D02*
X151186D01*
X149587Y130274D02*
X151176D01*
X149587Y127404D02*
X151070D01*
X149587Y129955D02*
X151032D01*
X149587Y127723D02*
X151004D01*
X149587Y129636D02*
X151004D01*
X149587Y129318D02*
X151004D01*
X149528Y128999D02*
X151004D01*
X149433Y128680D02*
X151004D01*
X149563Y128361D02*
X151004D01*
X149587Y128042D02*
X151004D01*
X149401Y131869D02*
X150895D01*
X150409Y115286D02*
X150772D01*
X150460Y121664D02*
X150722D01*
X148998Y132188D02*
X150576D01*
X118681Y132507D02*
X150258D01*
X139528Y149727D02*
X150236D01*
X139638Y136333D02*
X150126D01*
X118681Y132825D02*
X149939D01*
X139854Y149408D02*
X149910D01*
X139897Y136652D02*
X149867D01*
X139981Y149089D02*
X149783D01*
X139993Y136971D02*
X149771D01*
X140000Y148770D02*
X149764D01*
X140000Y148451D02*
X149764D01*
X140000Y148133D02*
X149764D01*
X140000Y147814D02*
X149764D01*
X140000Y147495D02*
X149764D01*
X140000Y147176D02*
X149764D01*
X140000Y146857D02*
X149764D01*
X140000Y146538D02*
X149764D01*
X140000Y146219D02*
X149764D01*
X140000Y145900D02*
X149764D01*
X140000Y145581D02*
X149764D01*
X140000Y145262D02*
X149764D01*
X140000Y144944D02*
X149764D01*
X140000Y144625D02*
X149764D01*
X140000Y144306D02*
X149764D01*
X140000Y143987D02*
X149764D01*
X140000Y143668D02*
X149764D01*
X140000Y143349D02*
X149764D01*
X140000Y143030D02*
X149764D01*
X140000Y142711D02*
X149764D01*
X140000Y142392D02*
X149764D01*
X140000Y142073D02*
X149764D01*
X140000Y141755D02*
X149764D01*
X140000Y141436D02*
X149764D01*
X140000Y141117D02*
X149764D01*
X140000Y140798D02*
X149764D01*
X140000Y140479D02*
X149764D01*
X140000Y140160D02*
X149764D01*
X140000Y139841D02*
X149764D01*
X140000Y139522D02*
X149764D01*
X140000Y139203D02*
X149764D01*
X140000Y138885D02*
X149764D01*
X140000Y138566D02*
X149764D01*
X140000Y138247D02*
X149764D01*
X140000Y137928D02*
X149764D01*
X140000Y137609D02*
X149764D01*
X140000Y137290D02*
X149764D01*
X118681Y132188D02*
X146278D01*
X142409Y125491D02*
X145886D01*
X142728Y125172D02*
X145886D01*
X118681Y131869D02*
X145875D01*
X145570Y115286D02*
X145851D01*
X139220Y128680D02*
X145843D01*
X142090Y125810D02*
X145763D01*
X138901Y128999D02*
X145748D01*
X118681Y131550D02*
X145722D01*
X139539Y128361D02*
X145712D01*
X141771Y126129D02*
X145690D01*
X138582Y129318D02*
X145689D01*
X118681Y131231D02*
X145689D01*
X118681Y130912D02*
X145689D01*
X118681Y130593D02*
X145689D01*
X118681Y130274D02*
X145689D01*
X137878Y129955D02*
X145689D01*
X138263Y129636D02*
X145689D01*
X139858Y128042D02*
X145689D01*
X140176Y127723D02*
X145689D01*
X140495Y127404D02*
X145689D01*
X140814Y127085D02*
X145689D01*
X141133Y126766D02*
X145689D01*
X141452Y126448D02*
X145689D01*
X100965Y115286D02*
X141716D01*
X100965Y115605D02*
X141299D01*
X100965Y115924D02*
X140980D01*
X100965Y116243D02*
X140661D01*
X100965Y116562D02*
X140342D01*
X100965Y116881D02*
X140023D01*
X100965Y117199D02*
X139704D01*
X100965Y117518D02*
X139385D01*
X100965Y117837D02*
X139066D01*
X100965Y118156D02*
X138747D01*
X100965Y118475D02*
X138429D01*
X100965Y118794D02*
X138110D01*
X100965Y119113D02*
X137791D01*
X100965Y119432D02*
X137472D01*
X100965Y119751D02*
X137153D01*
X100965Y120070D02*
X136834D01*
X118327Y114329D02*
X133242D01*
X118531Y101255D02*
X133214D01*
X118581Y114010D02*
X133050D01*
X118661Y101573D02*
X133039D01*
X118675Y113692D02*
X132992D01*
X118681Y113373D02*
X132992D01*
X118681Y113054D02*
X132992D01*
X118681Y112735D02*
X132992D01*
X118681Y112416D02*
X132992D01*
X118681Y112097D02*
X132992D01*
X118681Y111778D02*
X132992D01*
X118681Y111459D02*
X132992D01*
X118681Y111140D02*
X132992D01*
X118681Y110822D02*
X132992D01*
X118681Y110503D02*
X132992D01*
X118681Y110184D02*
X132992D01*
X118681Y109865D02*
X132992D01*
X118681Y109546D02*
X132992D01*
X118681Y109227D02*
X132992D01*
X118681Y108908D02*
X132992D01*
X118681Y108589D02*
X132992D01*
X118681Y108270D02*
X132992D01*
X118681Y107951D02*
X132992D01*
X118681Y107633D02*
X132992D01*
X118681Y107314D02*
X132992D01*
X118681Y106995D02*
X132992D01*
X118681Y106676D02*
X132992D01*
X118681Y106357D02*
X132992D01*
X118681Y106038D02*
X132992D01*
X118681Y105719D02*
X132992D01*
X118681Y105400D02*
X132992D01*
X118681Y105081D02*
X132992D01*
X118681Y104762D02*
X132992D01*
X118681Y104444D02*
X132992D01*
X118681Y104125D02*
X132992D01*
X118681Y103806D02*
X132992D01*
X118681Y103487D02*
X132992D01*
X118681Y103168D02*
X132992D01*
X118681Y102849D02*
X132992D01*
X118681Y102530D02*
X132992D01*
X118681Y102211D02*
X132992D01*
X118681Y101892D02*
X132992D01*
X126274Y158337D02*
X132820D01*
X126508Y158656D02*
X132586D01*
X126591Y158975D02*
X132503D01*
X126595Y182892D02*
X132500D01*
X126595Y182573D02*
X132500D01*
X126595Y182255D02*
X132500D01*
X126595Y181936D02*
X132500D01*
X126595Y181617D02*
X132500D01*
X126595Y181298D02*
X132500D01*
X126595Y180979D02*
X132500D01*
X126595Y180660D02*
X132500D01*
X126595Y180341D02*
X132500D01*
X126595Y180022D02*
X132500D01*
X126595Y179703D02*
X132500D01*
X126595Y179385D02*
X132500D01*
X126595Y179066D02*
X132500D01*
X126595Y178747D02*
X132500D01*
X126595Y178428D02*
X132500D01*
X126595Y178109D02*
X132500D01*
X126595Y177790D02*
X132500D01*
X126595Y177471D02*
X132500D01*
X126595Y177152D02*
X132500D01*
X126595Y176833D02*
X132500D01*
X126595Y176514D02*
X132500D01*
X126595Y176196D02*
X132500D01*
X126595Y175877D02*
X132500D01*
X126595Y175558D02*
X132500D01*
X126595Y175239D02*
X132500D01*
X126595Y174920D02*
X132500D01*
X126595Y174601D02*
X132500D01*
X126595Y174282D02*
X132500D01*
X126595Y173963D02*
X132500D01*
X126595Y173644D02*
X132500D01*
X126595Y173325D02*
X132500D01*
X126595Y173007D02*
X132500D01*
X126595Y172688D02*
X132500D01*
X126595Y172369D02*
X132500D01*
X126595Y172050D02*
X132500D01*
X126595Y171731D02*
X132500D01*
X126595Y171412D02*
X132500D01*
X126595Y171093D02*
X132500D01*
X126595Y170774D02*
X132500D01*
X126595Y170455D02*
X132500D01*
X126595Y170136D02*
X132500D01*
X126595Y169818D02*
X132500D01*
X126595Y169499D02*
X132500D01*
X126595Y169180D02*
X132500D01*
X126595Y168861D02*
X132500D01*
X126595Y168542D02*
X132500D01*
X126595Y168223D02*
X132500D01*
X126595Y167904D02*
X132500D01*
X126595Y167585D02*
X132500D01*
X126595Y167266D02*
X132500D01*
X126595Y166948D02*
X132500D01*
X126595Y166629D02*
X132500D01*
X126595Y166310D02*
X132500D01*
X126595Y165991D02*
X132500D01*
X126595Y165672D02*
X132500D01*
X126595Y165353D02*
X132500D01*
X126595Y165034D02*
X132500D01*
X126595Y164715D02*
X132500D01*
X126595Y164396D02*
X132500D01*
X126595Y164077D02*
X132500D01*
X126595Y163759D02*
X132500D01*
X126595Y163440D02*
X132500D01*
X126595Y163121D02*
X132500D01*
X126595Y162802D02*
X132500D01*
X126595Y162483D02*
X132500D01*
X126595Y162164D02*
X132500D01*
X126595Y161845D02*
X132500D01*
X126595Y161526D02*
X132500D01*
X126595Y161207D02*
X132500D01*
X126595Y160888D02*
X132500D01*
X126595Y160570D02*
X132500D01*
X126595Y160251D02*
X132500D01*
X126595Y159932D02*
X132500D01*
X126595Y159613D02*
X132500D01*
X126595Y159294D02*
X132500D01*
X126626Y183211D02*
X132468D01*
X126851Y149727D02*
X132244D01*
X126974Y136333D02*
X132134D01*
X127177Y149408D02*
X131918D01*
X127220Y136652D02*
X131875D01*
X127304Y149089D02*
X131791D01*
X127316Y136971D02*
X131779D01*
X127323Y148770D02*
X131772D01*
X127323Y148451D02*
X131772D01*
X127323Y148133D02*
X131772D01*
X127323Y147814D02*
X131772D01*
X127323Y147495D02*
X131772D01*
X127323Y147176D02*
X131772D01*
X127323Y146857D02*
X131772D01*
X127323Y146538D02*
X131772D01*
X127323Y146219D02*
X131772D01*
X127323Y145900D02*
X131772D01*
X127323Y145581D02*
X131772D01*
X127323Y145262D02*
X131772D01*
X127323Y144944D02*
X131772D01*
X127323Y144625D02*
X131772D01*
X127323Y144306D02*
X131772D01*
X127323Y143987D02*
X131772D01*
X127323Y143668D02*
X131772D01*
X127323Y143349D02*
X131772D01*
X127323Y143030D02*
X131772D01*
X127323Y142711D02*
X131772D01*
X127323Y142392D02*
X131772D01*
X127323Y142073D02*
X131772D01*
X127323Y141755D02*
X131772D01*
X127323Y141436D02*
X131772D01*
X127323Y141117D02*
X131772D01*
X127323Y140798D02*
X131772D01*
X127323Y140479D02*
X131772D01*
X127323Y140160D02*
X131772D01*
X127323Y139841D02*
X131772D01*
X127323Y139522D02*
X131772D01*
X127323Y139203D02*
X131772D01*
X127323Y138885D02*
X131772D01*
X127323Y138566D02*
X131772D01*
X127323Y138247D02*
X131772D01*
X127323Y137928D02*
X131772D01*
X127323Y137609D02*
X131772D01*
X127323Y137290D02*
X131772D01*
X118642Y133144D02*
X125985D01*
X118480Y133463D02*
X125639D01*
X118042Y133782D02*
X125321D01*
X100965Y134101D02*
X125002D01*
X100965Y134420D02*
X124683D01*
X100965Y134739D02*
X124423D01*
X100965Y135058D02*
X124285D01*
X100965Y135377D02*
X124233D01*
X100965Y135696D02*
X124232D01*
X100965Y136014D02*
X124218D01*
X108859Y149727D02*
X119567D01*
X108969Y136333D02*
X119457D01*
X109185Y149408D02*
X119241D01*
X109227Y136652D02*
X119198D01*
X109312Y149089D02*
X119114D01*
X109324Y136971D02*
X119101D01*
X109331Y148770D02*
X119094D01*
X109331Y148451D02*
X119094D01*
X109331Y148133D02*
X119094D01*
X109331Y147814D02*
X119094D01*
X109331Y147495D02*
X119094D01*
X109331Y147176D02*
X119094D01*
X109331Y146857D02*
X119094D01*
X109331Y146538D02*
X119094D01*
X109331Y146219D02*
X119094D01*
X109331Y145900D02*
X119094D01*
X109331Y145581D02*
X119094D01*
X109331Y145262D02*
X119094D01*
X109331Y144944D02*
X119094D01*
X109331Y144625D02*
X119094D01*
X109331Y144306D02*
X119094D01*
X109331Y143987D02*
X119094D01*
X109331Y143668D02*
X119094D01*
X109331Y143349D02*
X119094D01*
X109331Y143030D02*
X119094D01*
X109331Y142711D02*
X119094D01*
X109331Y142392D02*
X119094D01*
X109331Y142073D02*
X119094D01*
X109331Y141755D02*
X119094D01*
X109331Y141436D02*
X119094D01*
X109331Y141117D02*
X119094D01*
X109331Y140798D02*
X119094D01*
X109331Y140479D02*
X119094D01*
X109331Y140160D02*
X119094D01*
X109331Y139841D02*
X119094D01*
X109331Y139522D02*
X119094D01*
X109331Y139203D02*
X119094D01*
X109331Y138885D02*
X119094D01*
X109331Y138566D02*
X119094D01*
X109331Y138247D02*
X119094D01*
X109331Y137928D02*
X119094D01*
X109331Y137609D02*
X119094D01*
X109331Y137290D02*
X119094D01*
X100965Y133782D02*
X111092D01*
X100965Y114329D02*
X110807D01*
X100965Y120388D02*
X110728D01*
X100965Y133463D02*
X110654D01*
X100965Y101255D02*
X110603D01*
X100965Y114010D02*
X110553D01*
X100965Y120707D02*
X110521D01*
X100965Y133144D02*
X110491D01*
X100965Y101573D02*
X110473D01*
X100965Y113692D02*
X110459D01*
X100965Y121026D02*
X110453D01*
X100965Y132825D02*
X110453D01*
X100965Y132507D02*
X110453D01*
X100965Y132188D02*
X110453D01*
X100965Y131869D02*
X110453D01*
X100965Y131550D02*
X110453D01*
X100965Y131231D02*
X110453D01*
X100965Y130912D02*
X110453D01*
X100965Y130593D02*
X110453D01*
X100965Y130274D02*
X110453D01*
X100965Y129955D02*
X110453D01*
X100965Y129636D02*
X110453D01*
X100965Y129318D02*
X110453D01*
X100965Y128999D02*
X110453D01*
X100965Y128680D02*
X110453D01*
X100965Y128361D02*
X110453D01*
X100965Y128042D02*
X110453D01*
X100965Y127723D02*
X110453D01*
X100965Y127404D02*
X110453D01*
X100965Y127085D02*
X110453D01*
X100965Y126766D02*
X110453D01*
X100965Y126448D02*
X110453D01*
X100965Y126129D02*
X110453D01*
X100965Y125810D02*
X110453D01*
X100965Y125491D02*
X110453D01*
X100965Y125172D02*
X110453D01*
X100965Y124853D02*
X110453D01*
X100965Y124534D02*
X110453D01*
X100965Y124215D02*
X110453D01*
X100965Y123896D02*
X110453D01*
X100965Y123577D02*
X110453D01*
X100965Y123259D02*
X110453D01*
X100965Y122940D02*
X110453D01*
X100965Y122621D02*
X110453D01*
X100965Y122302D02*
X110453D01*
X100965Y121983D02*
X110453D01*
X100965Y121664D02*
X110453D01*
X100965Y121345D02*
X110453D01*
X100965Y113373D02*
X110453D01*
X100965Y113054D02*
X110453D01*
X100965Y112735D02*
X110453D01*
X100965Y112416D02*
X110453D01*
X100965Y112097D02*
X110453D01*
X100965Y111778D02*
X110453D01*
X100965Y111459D02*
X110453D01*
X100965Y111140D02*
X110453D01*
X100965Y110822D02*
X110453D01*
X100965Y110503D02*
X110453D01*
X100965Y110184D02*
X110453D01*
X100965Y109865D02*
X110453D01*
X100965Y109546D02*
X110453D01*
X100965Y109227D02*
X110453D01*
X100965Y108908D02*
X110453D01*
X100965Y108589D02*
X110453D01*
X100965Y108270D02*
X110453D01*
X100965Y107951D02*
X110453D01*
X100965Y107633D02*
X110453D01*
X100965Y107314D02*
X110453D01*
X100965Y106995D02*
X110453D01*
X100965Y106676D02*
X110453D01*
X100965Y106357D02*
X110453D01*
X100965Y106038D02*
X110453D01*
X100965Y105719D02*
X110453D01*
X100965Y105400D02*
X110453D01*
X100965Y105081D02*
X110453D01*
X100965Y104762D02*
X110453D01*
X100965Y104444D02*
X110453D01*
X100965Y104125D02*
X110453D01*
X100965Y103806D02*
X110453D01*
X100965Y103487D02*
X110453D01*
X100965Y103168D02*
X110453D01*
X100965Y102849D02*
X110453D01*
X100965Y102530D02*
X110453D01*
X100965Y102211D02*
X110453D01*
X100965Y101892D02*
X110453D01*
X100965Y158337D02*
X102151D01*
X100965Y158656D02*
X101917D01*
X100965Y158975D02*
X101834D01*
X100965Y182892D02*
X101831D01*
X100965Y182573D02*
X101831D01*
X100965Y182255D02*
X101831D01*
X100965Y181936D02*
X101831D01*
X100965Y181617D02*
X101831D01*
X100965Y181298D02*
X101831D01*
X100965Y180979D02*
X101831D01*
X100965Y180660D02*
X101831D01*
X100965Y180341D02*
X101831D01*
X100965Y180022D02*
X101831D01*
X100965Y179703D02*
X101831D01*
X100965Y179385D02*
X101831D01*
X100965Y179066D02*
X101831D01*
X100965Y178747D02*
X101831D01*
X100965Y178428D02*
X101831D01*
X100965Y178109D02*
X101831D01*
X100965Y177790D02*
X101831D01*
X100965Y177471D02*
X101831D01*
X100965Y177152D02*
X101831D01*
X100965Y176833D02*
X101831D01*
X100965Y176514D02*
X101831D01*
X100965Y176196D02*
X101831D01*
X100965Y175877D02*
X101831D01*
X100965Y175558D02*
X101831D01*
X100965Y175239D02*
X101831D01*
X100965Y174920D02*
X101831D01*
X100965Y174601D02*
X101831D01*
X100965Y174282D02*
X101831D01*
X100965Y173963D02*
X101831D01*
X100965Y173644D02*
X101831D01*
X100965Y173325D02*
X101831D01*
X100965Y173007D02*
X101831D01*
X100965Y172688D02*
X101831D01*
X100965Y172369D02*
X101831D01*
X100965Y172050D02*
X101831D01*
X100965Y171731D02*
X101831D01*
X100965Y171412D02*
X101831D01*
X100965Y171093D02*
X101831D01*
X100965Y170774D02*
X101831D01*
X100965Y170455D02*
X101831D01*
X100965Y170136D02*
X101831D01*
X100965Y169818D02*
X101831D01*
X100965Y169499D02*
X101831D01*
X100965Y169180D02*
X101831D01*
X100965Y168861D02*
X101831D01*
X100965Y168542D02*
X101831D01*
X100965Y168223D02*
X101831D01*
X100965Y167904D02*
X101831D01*
X100965Y167585D02*
X101831D01*
X100965Y167266D02*
X101831D01*
X100965Y166948D02*
X101831D01*
X100965Y166629D02*
X101831D01*
X100965Y166310D02*
X101831D01*
X100965Y165991D02*
X101831D01*
X100965Y165672D02*
X101831D01*
X100965Y165353D02*
X101831D01*
X100965Y165034D02*
X101831D01*
X100965Y164715D02*
X101831D01*
X100965Y164396D02*
X101831D01*
X100965Y164077D02*
X101831D01*
X100965Y163759D02*
X101831D01*
X100965Y163440D02*
X101831D01*
X100965Y163121D02*
X101831D01*
X100965Y162802D02*
X101831D01*
X100965Y162483D02*
X101831D01*
X100965Y162164D02*
X101831D01*
X100965Y161845D02*
X101831D01*
X100965Y161526D02*
X101831D01*
X100965Y161207D02*
X101831D01*
X100965Y160888D02*
X101831D01*
X100965Y160570D02*
X101831D01*
X100965Y160251D02*
X101831D01*
X100965Y159932D02*
X101831D01*
X100965Y159613D02*
X101831D01*
X100965Y159294D02*
X101831D01*
X100996Y183211D02*
X101799D01*
X100965Y149727D02*
X101574D01*
X100965Y136333D02*
X101464D01*
X101063Y149408D02*
X101221D01*
G54D39*
X142913Y119213D02*
X147795D01*
X148130Y118878*
Y118504*
X118681Y107677D02*
X117717D01*
X114567Y114547D02*
Y113583D01*
X110453Y107677D02*
X111417D01*
X143189Y107776D02*
X142224D01*
X138091Y114646D02*
Y113681D01*
X132992Y107776D02*
X133957D01*
X149587Y130315D02*
X148622D01*
X147638Y132264D02*
Y131299D01*
X145689Y130315D02*
X146654D01*
X172933Y114646D02*
Y113681D01*
X167835Y107776D02*
X168799D01*
X156102Y130689D02*
Y129724D01*
Y126791D02*
Y127756D01*
X158051Y128740D02*
X157087D01*
X167717Y130728D02*
Y129764D01*
Y126831D02*
Y127795D01*
X169665Y128780D02*
X168701D01*
X131772Y142992D02*
X132736D01*
X135886Y136122D02*
Y137087D01*
X140000Y142992D02*
X139035D01*
X135886Y149862D02*
Y148898D01*
X105217Y136122D02*
Y137087D01*
X109331Y142992D02*
X108366D01*
X105217Y149862D02*
Y148898D01*
X165433Y118504D02*
X164469D01*
X162894Y122028D02*
Y121063D01*
Y114980D02*
Y115945D01*
X207091Y142217D02*
Y141252D01*
Y136350D02*
Y137315D01*
X202091Y142217D02*
Y141252D01*
Y136350D02*
Y137315D01*
X197091Y142217D02*
Y141252D01*
X194650Y139283D02*
X195614D01*
X197091Y136350D02*
Y137315D01*
X233417Y107787D02*
X232453D01*
X228319Y114657D02*
Y113693D01*
X223220Y107787D02*
X224185D01*
X263161Y114657D02*
Y113693D01*
X258063Y107787D02*
X259028D01*
X255661Y118516D02*
X254697D01*
X253122Y122039D02*
Y121075D01*
Y114992D02*
Y115957D01*
X226476Y142323D02*
Y141358D01*
X224035Y139390D02*
X225000D01*
X226476Y136457D02*
Y137421D01*
X231476Y142323D02*
Y141358D01*
Y136457D02*
Y137421D01*
X236476Y142323D02*
Y141358D01*
Y136457D02*
Y137421D01*
X209626Y107677D02*
X208661D01*
X205512Y114547D02*
Y113583D01*
X201398Y107677D02*
X202362D01*
X240063Y130720D02*
X239098D01*
X238114Y132669D02*
Y131705D01*
X236165Y130720D02*
X237130D01*
X246480Y133043D02*
Y132079D01*
Y129146D02*
Y130110D01*
X248429Y131094D02*
X247465D01*
X256311Y133024D02*
Y132059D01*
Y129126D02*
Y130091D01*
X258260Y131075D02*
X257295D01*
X338583Y143378D02*
X339547D01*
X342480D02*
X341516D01*
X341772Y132717D02*
Y131752D01*
X338248Y130177D02*
X339213D01*
X345295D02*
X344331D01*
X345630Y140217D02*
X346594D01*
X352500Y135118D02*
Y136083D01*
Y110472D02*
Y109508D01*
X345630Y105374D02*
X346594D01*
X330906Y126791D02*
X331870D01*
X333839Y124350D02*
Y125315D01*
X336772Y126791D02*
X335807D01*
X330906Y131791D02*
X331870D01*
X336772D02*
X335807D01*
X302598Y136909D02*
X303563D01*
X302598Y131909D02*
X303563D01*
X302598Y126909D02*
X303563D01*
X305531Y124469D02*
Y125433D01*
X324823Y104724D02*
X325787D01*
X326772Y102776D02*
Y103740D01*
X328720Y104724D02*
X327756D01*
X330906Y136791D02*
X331870D01*
X336772D02*
X335807D01*
X294055Y111417D02*
X293091D01*
X288425Y117165D02*
Y116201D01*
X282795Y111417D02*
X283760D01*
X288425Y105669D02*
Y106634D01*
X330492Y116535D02*
X329528D01*
X326594D02*
X327559D01*
G54D52*
X147638Y127165D03*
Y130315D03*
X167717Y128780D03*
X164567D03*
X156102Y128740D03*
X152953D03*
X238114Y127571D03*
Y130720D03*
X246480Y131094D03*
X243331D03*
X256311Y131075D03*
X253161D03*
X326772Y107874D03*
Y104724D03*
X328543Y116535D03*
Y119685D03*
X340531Y143378D03*
Y140228D03*
G54D68*
X103937Y121654D03*
Y103937D03*
X125591D03*
X135433Y111811D03*
Y103937D03*
X114567D03*
Y111417D03*
X135039Y138583D03*
X137598D03*
X106693Y138976D03*
X103740D03*
X127717Y122598D03*
Y125197D03*
X130787Y122598D03*
Y125197D03*
Y127795D03*
X127717D03*
X142126Y130315D03*
X157874Y133465D03*
X174803Y123622D03*
X147244Y103937D03*
X162992D03*
X174803D03*
Y111811D03*
X217323Y116929D03*
X207087Y139173D03*
X202165D03*
X197047D03*
X192913Y133858D03*
Y118110D03*
Y102362D03*
X217323D03*
X205512Y103937D03*
Y111024D03*
X218110Y122598D03*
Y125197D03*
Y127795D03*
X162992Y118898D03*
X265354Y139370D03*
Y121654D03*
X248425Y136220D03*
X232874Y130709D03*
X236417Y139173D03*
X231693D03*
X226575D03*
X225984Y111811D03*
Y103937D03*
X236220Y103150D03*
X255118D03*
X265354Y103937D03*
Y111811D03*
X285039Y121654D03*
X292913Y103937D03*
X285748Y108583D03*
Y114331D03*
X221654Y125197D03*
Y122598D03*
Y127795D03*
X253150Y118701D03*
X300787Y109843D03*
Y119685D03*
X355906Y131496D03*
Y113780D03*
X338189Y103937D03*
X310630D03*
X335354Y122441D03*
X332677Y117087D03*
X321496Y116929D03*
X318740Y122677D03*
X338898Y135591D03*
X356378Y103307D03*
X348661D03*
X305039Y126850D03*
Y131890D03*
Y136929D03*
X333780Y126772D03*
Y131732D03*
Y136772D03*
X341811Y130157D03*
X322677Y109449D03*
X320079D03*
X317480D03*
Y112047D03*
X320079D03*
X322677D03*
X113780Y141732D03*
X137598Y142913D03*
X135039D03*
Y147244D03*
X137598D03*
X103740Y142913D03*
X106693D03*
Y147047D03*
X103740D03*
X130945Y196063D03*
X127953D03*
Y193465D03*
X130945D03*
Y190866D03*
X127953D03*
X144488Y142126D03*
X161024Y159055D03*
X174803Y176772D03*
Y147244D03*
X218504Y178740D03*
Y175591D03*
Y172441D03*
X249606Y145276D03*
X265354Y159055D03*
X221260Y175591D03*
Y178740D03*
Y172441D03*
X348819Y141654D03*
X356299D03*
X309055Y158031D03*
Y155276D03*
X312047Y158031D03*
Y155276D03*
Y152598D03*
X309055D03*
X133465Y293701D03*
X129134D03*
Y289764D03*
X133465D03*
X137795D03*
X133465Y285433D03*
X129134D03*
X137795D03*
Y293701D03*
X218504Y266535D03*
Y274409D03*
Y281890D03*
X225984Y266535D03*
Y281890D03*
Y274409D03*
X233858D03*
Y266535D03*
Y281890D03*
X310236Y255118D03*
X317323D03*
X325197D03*
Y248031D03*
X317323D03*
X310236D03*
X317323Y262205D03*
X325197D03*
X310236D03*
G54D107*
X153878Y142992D03*
X135886D03*
X123209D03*
X105217D03*
X114567Y126969D03*
Y107677D03*
X205512Y126969D03*
Y107677D03*
G54D108*
X144882Y171260D03*
X114213D03*
G54D109*
X148130Y118504D03*
X153051D03*
X157972D03*
X162894D03*
X238358Y118516D03*
X243280D03*
X248201D03*
X253122D03*
G54D110*
X172933Y107776D03*
X138091D03*
X263161Y107787D03*
X228319D03*
G54D111*
X119449Y195039D03*
X129449D03*
X139449D03*
X149449D03*
X159449D03*
Y288543D03*
X119449D03*
X209902Y176280D03*
X219902D03*
X229902D03*
X239902D03*
X249902D03*
Y269783D03*
X209902D03*
X300551Y156772D03*
X310551D03*
X320551D03*
X330551D03*
X340551D03*
Y250276D03*
X300551D03*
G54D112*
X197091Y139283D03*
X202091D03*
X207091D03*
X212091D03*
Y160917D03*
X197091D03*
X226476Y139390D03*
X231476D03*
X236476D03*
X241476D03*
Y161024D03*
X226476D03*
G54D113*
X225984Y274409D03*
X317677Y254724D03*
G54D114*
X341772Y115413D03*
Y120335D03*
Y125256D03*
Y130177D03*
G54D115*
X352500Y140217D03*
Y105374D03*
G54D116*
X305531Y126909D03*
Y131909D03*
Y136909D03*
Y141909D03*
X283898D03*
Y126909D03*
X333839Y126791D03*
Y131791D03*
Y136791D03*
Y141791D03*
X312205D03*
Y126791D03*
G54D117*
X133465Y289724D03*
G54D118*
X288425Y111417D03*
X312992D03*
G54D119*
X119370Y171299D02*
Y194961D01*
X119449Y195039*
Y288543D02*
Y291693D01*
X133465*
Y289724*
X209902Y269783D02*
Y273031D01*
X226024*
Y274370*
X225984Y274409*
X317677Y254724D02*
X317953Y254449D01*
X300551Y250276D02*
Y253504D01*
X317953*
Y254449*
G74*
X0Y0D02*
M02*
