*
*
G04 PADS 9.5 Build Number: 522968 generated Gerber (RS-274-X) file*
G04 PC Version=2.1*
*
%IN "Plasma_Gen_Transformer_"*%
*
%MOIN*%
*
%FSLAX35Y35*%
*
*
*
*
G04 PC Standard Apertures*
*
*
G04 Thermal Relief Aperture macro.*
%AMTER*
1,1,$1,0,0*
1,0,$1-$2,0,0*
21,0,$3,$4,0,0,45*
21,0,$3,$4,0,0,135*
%
*
*
G04 Annular Aperture macro.*
%AMANN*
1,1,$1,0,0*
1,0,$2,0,0*
%
*
*
G04 Odd Aperture macro.*
%AMODD*
1,1,$1,0,0*
1,0,$1-0.005,0,0*
%
*
*
G04 PC Custom Aperture Macros*
*
*
*
*
*
*
G04 PC Aperture Table*
*
%ADD011C,0.00394*%
%ADD035C,0.001*%
%ADD079R,0.02165X0.02165*%
%ADD120R,0.06496X0.12008*%
%ADD121R,0.23031X0.24606*%
%ADD122R,0.03346X0.05315*%
%ADD123R,0.08465X0.12008*%
%ADD124R,0.05709X0.11024*%
%ADD125R,0.0315X0.04134*%
%ADD126R,0.19882X0.19882*%
%ADD127R,0.05315X0.03346*%
%ADD128R,0.12008X0.08465*%
%ADD129R,0.04134X0.0315*%
%ADD130R,0.12008X0.12008*%
%ADD131R,0.09528X0.09764*%
*
*
*
*
G04 PC Circuitry*
G04 Layer Name Plasma_Gen_Transformer_ - circuitry*
%LPD*%
*
*
G04 PC Custom Flashes*
G04 Layer Name Plasma_Gen_Transformer_ - flashes*
%LPD*%
*
*
G04 PC Circuitry*
G04 Layer Name Plasma_Gen_Transformer_ - circuitry*
%LPD*%
*
G54D11*
G01X213469Y160819D02*
X195713D01*
Y145150*
X213469*
Y160819*
X195732Y145150D02*
Y160819D01*
X195929Y145150D02*
Y160819D01*
X196126Y145150D02*
Y160819D01*
X196323Y145150D02*
Y160819D01*
X196520Y145150D02*
Y160819D01*
X196717Y145150D02*
Y160819D01*
X196913Y145150D02*
Y160819D01*
X197110Y145150D02*
Y160819D01*
X197307Y145150D02*
Y160819D01*
X197504Y145150D02*
Y160819D01*
X197701Y145150D02*
Y160819D01*
X197898Y145150D02*
Y160819D01*
X198094Y145150D02*
Y160819D01*
X198291Y145150D02*
Y160819D01*
X198488Y145150D02*
Y160819D01*
X198685Y145150D02*
Y160819D01*
X198882Y145150D02*
Y160819D01*
X199079Y145150D02*
Y160819D01*
X199276Y145150D02*
Y160819D01*
X199472Y145150D02*
Y160819D01*
X199669Y145150D02*
Y160819D01*
X199866Y145150D02*
Y160819D01*
X200063Y145150D02*
Y160819D01*
X200260Y145150D02*
Y160819D01*
X200457Y145150D02*
Y160819D01*
X200654Y145150D02*
Y160819D01*
X200850Y145150D02*
Y160819D01*
X201047Y145150D02*
Y160819D01*
X201244Y145150D02*
Y160819D01*
X201441Y145150D02*
Y160819D01*
X201638Y145150D02*
Y160819D01*
X201835Y145150D02*
Y160819D01*
X202031Y145150D02*
Y160819D01*
X202228Y145150D02*
Y160819D01*
X202425Y145150D02*
Y160819D01*
X202622Y145150D02*
Y160819D01*
X202819Y145150D02*
Y160819D01*
X203016Y145150D02*
Y160819D01*
X203213Y145150D02*
Y160819D01*
X203409Y145150D02*
Y160819D01*
X203606Y145150D02*
Y160819D01*
X203803Y145150D02*
Y160819D01*
X204000Y145150D02*
Y160819D01*
X204197Y145150D02*
Y160819D01*
X204394Y145150D02*
Y160819D01*
X204591Y145150D02*
Y160819D01*
X204787Y145150D02*
Y160819D01*
X204984Y145150D02*
Y160819D01*
X205181Y145150D02*
Y160819D01*
X205378Y145150D02*
Y160819D01*
X205575Y145150D02*
Y160819D01*
X205772Y145150D02*
Y160819D01*
X205969Y145150D02*
Y160819D01*
X206165Y145150D02*
Y160819D01*
X206362Y145150D02*
Y160819D01*
X206559Y145150D02*
Y160819D01*
X206756Y145150D02*
Y160819D01*
X206953Y145150D02*
Y160819D01*
X207150Y145150D02*
Y160819D01*
X207346Y145150D02*
Y160819D01*
X207543Y145150D02*
Y160819D01*
X207740Y145150D02*
Y160819D01*
X207937Y145150D02*
Y160819D01*
X208134Y145150D02*
Y160819D01*
X208331Y145150D02*
Y160819D01*
X208528Y145150D02*
Y160819D01*
X208724Y145150D02*
Y160819D01*
X208921Y145150D02*
Y160819D01*
X209118Y145150D02*
Y160819D01*
X209315Y145150D02*
Y160819D01*
X209512Y145150D02*
Y160819D01*
X209709Y145150D02*
Y160819D01*
X209906Y145150D02*
Y160819D01*
X210102Y145150D02*
Y160819D01*
X210299Y145150D02*
Y160819D01*
X210496Y145150D02*
Y160819D01*
X210693Y145150D02*
Y160819D01*
X210890Y145150D02*
Y160819D01*
X211087Y145150D02*
Y160819D01*
X211283Y145150D02*
Y160819D01*
X211480Y145150D02*
Y160819D01*
X211677Y145150D02*
Y160819D01*
X211874Y145150D02*
Y160819D01*
X212071Y145150D02*
Y160819D01*
X212268Y145150D02*
Y160819D01*
X212465Y145150D02*
Y160819D01*
X212661Y145150D02*
Y160819D01*
X212858Y145150D02*
Y160819D01*
X213055Y145150D02*
Y160819D01*
X213252Y145150D02*
Y160819D01*
X213449Y145150D02*
Y160819D01*
X215417Y150189D02*
X193764D01*
Y146823*
X215417*
Y150189*
X193764Y146823D02*
Y150189D01*
X193961Y146823D02*
Y150189D01*
X194157Y146823D02*
Y150189D01*
X194354Y146823D02*
Y150189D01*
X194551Y146823D02*
Y150189D01*
X194748Y146823D02*
Y150189D01*
X194945Y146823D02*
Y150189D01*
X195142Y146823D02*
Y150189D01*
X195339Y146823D02*
Y150189D01*
X195535Y146823D02*
Y150189D01*
X195732Y146823D02*
Y150189D01*
X195929Y146823D02*
Y150189D01*
X196126Y146823D02*
Y150189D01*
X196323Y146823D02*
Y150189D01*
X196520Y146823D02*
Y150189D01*
X196717Y146823D02*
Y150189D01*
X196913Y146823D02*
Y150189D01*
X197110Y146823D02*
Y150189D01*
X197307Y146823D02*
Y150189D01*
X197504Y146823D02*
Y150189D01*
X197701Y146823D02*
Y150189D01*
X197898Y146823D02*
Y150189D01*
X198094Y146823D02*
Y150189D01*
X198291Y146823D02*
Y150189D01*
X198488Y146823D02*
Y150189D01*
X198685Y146823D02*
Y150189D01*
X198882Y146823D02*
Y150189D01*
X199079Y146823D02*
Y150189D01*
X199276Y146823D02*
Y150189D01*
X199472Y146823D02*
Y150189D01*
X199669Y146823D02*
Y150189D01*
X199866Y146823D02*
Y150189D01*
X200063Y146823D02*
Y150189D01*
X200260Y146823D02*
Y150189D01*
X200457Y146823D02*
Y150189D01*
X200654Y146823D02*
Y150189D01*
X200850Y146823D02*
Y150189D01*
X201047Y146823D02*
Y150189D01*
X201244Y146823D02*
Y150189D01*
X201441Y146823D02*
Y150189D01*
X201638Y146823D02*
Y150189D01*
X201835Y146823D02*
Y150189D01*
X202031Y146823D02*
Y150189D01*
X202228Y146823D02*
Y150189D01*
X202425Y146823D02*
Y150189D01*
X202622Y146823D02*
Y150189D01*
X202819Y146823D02*
Y150189D01*
X203016Y146823D02*
Y150189D01*
X203213Y146823D02*
Y150189D01*
X203409Y146823D02*
Y150189D01*
X203606Y146823D02*
Y150189D01*
X203803Y146823D02*
Y150189D01*
X204000Y146823D02*
Y150189D01*
X204197Y146823D02*
Y150189D01*
X204394Y146823D02*
Y150189D01*
X204591Y146823D02*
Y150189D01*
X204787Y146823D02*
Y150189D01*
X204984Y146823D02*
Y150189D01*
X205181Y146823D02*
Y150189D01*
X205378Y146823D02*
Y150189D01*
X205575Y146823D02*
Y150189D01*
X205772Y146823D02*
Y150189D01*
X205969Y146823D02*
Y150189D01*
X206165Y146823D02*
Y150189D01*
X206362Y146823D02*
Y150189D01*
X206559Y146823D02*
Y150189D01*
X206756Y146823D02*
Y150189D01*
X206953Y146823D02*
Y150189D01*
X207150Y146823D02*
Y150189D01*
X207346Y146823D02*
Y150189D01*
X207543Y146823D02*
Y150189D01*
X207740Y146823D02*
Y150189D01*
X207937Y146823D02*
Y150189D01*
X208134Y146823D02*
Y150189D01*
X208331Y146823D02*
Y150189D01*
X208528Y146823D02*
Y150189D01*
X208724Y146823D02*
Y150189D01*
X208921Y146823D02*
Y150189D01*
X209118Y146823D02*
Y150189D01*
X209315Y146823D02*
Y150189D01*
X209512Y146823D02*
Y150189D01*
X209709Y146823D02*
Y150189D01*
X209906Y146823D02*
Y150189D01*
X210102Y146823D02*
Y150189D01*
X210299Y146823D02*
Y150189D01*
X210496Y146823D02*
Y150189D01*
X210693Y146823D02*
Y150189D01*
X210890Y146823D02*
Y150189D01*
X211087Y146823D02*
Y150189D01*
X211283Y146823D02*
Y150189D01*
X211480Y146823D02*
Y150189D01*
X211677Y146823D02*
Y150189D01*
X211874Y146823D02*
Y150189D01*
X212071Y146823D02*
Y150189D01*
X212268Y146823D02*
Y150189D01*
X212465Y146823D02*
Y150189D01*
X212661Y146823D02*
Y150189D01*
X212858Y146823D02*
Y150189D01*
X213055Y146823D02*
Y150189D01*
X213252Y146823D02*
Y150189D01*
X213449Y146823D02*
Y150189D01*
X213646Y146823D02*
Y150189D01*
X213843Y146823D02*
Y150189D01*
X214039Y146823D02*
Y150189D01*
X214236Y146823D02*
Y150189D01*
X214433Y146823D02*
Y150189D01*
X214630Y146823D02*
Y150189D01*
X214827Y146823D02*
Y150189D01*
X215024Y146823D02*
Y150189D01*
X215220Y146823D02*
Y150189D01*
X242854Y160925D02*
X225098D01*
Y145256*
X242854*
Y160925*
X225118Y145256D02*
Y160925D01*
X225315Y145256D02*
Y160925D01*
X225512Y145256D02*
Y160925D01*
X225709Y145256D02*
Y160925D01*
X225906Y145256D02*
Y160925D01*
X226102Y145256D02*
Y160925D01*
X226299Y145256D02*
Y160925D01*
X226496Y145256D02*
Y160925D01*
X226693Y145256D02*
Y160925D01*
X226890Y145256D02*
Y160925D01*
X227087Y145256D02*
Y160925D01*
X227283Y145256D02*
Y160925D01*
X227480Y145256D02*
Y160925D01*
X227677Y145256D02*
Y160925D01*
X227874Y145256D02*
Y160925D01*
X228071Y145256D02*
Y160925D01*
X228268Y145256D02*
Y160925D01*
X228465Y145256D02*
Y160925D01*
X228661Y145256D02*
Y160925D01*
X228858Y145256D02*
Y160925D01*
X229055Y145256D02*
Y160925D01*
X229252Y145256D02*
Y160925D01*
X229449Y145256D02*
Y160925D01*
X229646Y145256D02*
Y160925D01*
X229843Y145256D02*
Y160925D01*
X230039Y145256D02*
Y160925D01*
X230236Y145256D02*
Y160925D01*
X230433Y145256D02*
Y160925D01*
X230630Y145256D02*
Y160925D01*
X230827Y145256D02*
Y160925D01*
X231024Y145256D02*
Y160925D01*
X231220Y145256D02*
Y160925D01*
X231417Y145256D02*
Y160925D01*
X231614Y145256D02*
Y160925D01*
X231811Y145256D02*
Y160925D01*
X232008Y145256D02*
Y160925D01*
X232205Y145256D02*
Y160925D01*
X232402Y145256D02*
Y160925D01*
X232598Y145256D02*
Y160925D01*
X232795Y145256D02*
Y160925D01*
X232992Y145256D02*
Y160925D01*
X233189Y145256D02*
Y160925D01*
X233386Y145256D02*
Y160925D01*
X233583Y145256D02*
Y160925D01*
X233780Y145256D02*
Y160925D01*
X233976Y145256D02*
Y160925D01*
X234173Y145256D02*
Y160925D01*
X234370Y145256D02*
Y160925D01*
X234567Y145256D02*
Y160925D01*
X234764Y145256D02*
Y160925D01*
X234961Y145256D02*
Y160925D01*
X235157Y145256D02*
Y160925D01*
X235354Y145256D02*
Y160925D01*
X235551Y145256D02*
Y160925D01*
X235748Y145256D02*
Y160925D01*
X235945Y145256D02*
Y160925D01*
X236142Y145256D02*
Y160925D01*
X236339Y145256D02*
Y160925D01*
X236535Y145256D02*
Y160925D01*
X236732Y145256D02*
Y160925D01*
X236929Y145256D02*
Y160925D01*
X237126Y145256D02*
Y160925D01*
X237323Y145256D02*
Y160925D01*
X237520Y145256D02*
Y160925D01*
X237717Y145256D02*
Y160925D01*
X237913Y145256D02*
Y160925D01*
X238110Y145256D02*
Y160925D01*
X238307Y145256D02*
Y160925D01*
X238504Y145256D02*
Y160925D01*
X238701Y145256D02*
Y160925D01*
X238898Y145256D02*
Y160925D01*
X239094Y145256D02*
Y160925D01*
X239291Y145256D02*
Y160925D01*
X239488Y145256D02*
Y160925D01*
X239685Y145256D02*
Y160925D01*
X239882Y145256D02*
Y160925D01*
X240079Y145256D02*
Y160925D01*
X240276Y145256D02*
Y160925D01*
X240472Y145256D02*
Y160925D01*
X240669Y145256D02*
Y160925D01*
X240866Y145256D02*
Y160925D01*
X241063Y145256D02*
Y160925D01*
X241260Y145256D02*
Y160925D01*
X241457Y145256D02*
Y160925D01*
X241654Y145256D02*
Y160925D01*
X241850Y145256D02*
Y160925D01*
X242047Y145256D02*
Y160925D01*
X242244Y145256D02*
Y160925D01*
X242441Y145256D02*
Y160925D01*
X242638Y145256D02*
Y160925D01*
X242835Y145256D02*
Y160925D01*
X244803Y150295D02*
X223150D01*
Y146929*
X244803*
Y150295*
X223150Y146929D02*
Y150295D01*
X223346Y146929D02*
Y150295D01*
X223543Y146929D02*
Y150295D01*
X223740Y146929D02*
Y150295D01*
X223937Y146929D02*
Y150295D01*
X224134Y146929D02*
Y150295D01*
X224331Y146929D02*
Y150295D01*
X224528Y146929D02*
Y150295D01*
X224724Y146929D02*
Y150295D01*
X224921Y146929D02*
Y150295D01*
X225118Y146929D02*
Y150295D01*
X225315Y146929D02*
Y150295D01*
X225512Y146929D02*
Y150295D01*
X225709Y146929D02*
Y150295D01*
X225906Y146929D02*
Y150295D01*
X226102Y146929D02*
Y150295D01*
X226299Y146929D02*
Y150295D01*
X226496Y146929D02*
Y150295D01*
X226693Y146929D02*
Y150295D01*
X226890Y146929D02*
Y150295D01*
X227087Y146929D02*
Y150295D01*
X227283Y146929D02*
Y150295D01*
X227480Y146929D02*
Y150295D01*
X227677Y146929D02*
Y150295D01*
X227874Y146929D02*
Y150295D01*
X228071Y146929D02*
Y150295D01*
X228268Y146929D02*
Y150295D01*
X228465Y146929D02*
Y150295D01*
X228661Y146929D02*
Y150295D01*
X228858Y146929D02*
Y150295D01*
X229055Y146929D02*
Y150295D01*
X229252Y146929D02*
Y150295D01*
X229449Y146929D02*
Y150295D01*
X229646Y146929D02*
Y150295D01*
X229843Y146929D02*
Y150295D01*
X230039Y146929D02*
Y150295D01*
X230236Y146929D02*
Y150295D01*
X230433Y146929D02*
Y150295D01*
X230630Y146929D02*
Y150295D01*
X230827Y146929D02*
Y150295D01*
X231024Y146929D02*
Y150295D01*
X231220Y146929D02*
Y150295D01*
X231417Y146929D02*
Y150295D01*
X231614Y146929D02*
Y150295D01*
X231811Y146929D02*
Y150295D01*
X232008Y146929D02*
Y150295D01*
X232205Y146929D02*
Y150295D01*
X232402Y146929D02*
Y150295D01*
X232598Y146929D02*
Y150295D01*
X232795Y146929D02*
Y150295D01*
X232992Y146929D02*
Y150295D01*
X233189Y146929D02*
Y150295D01*
X233386Y146929D02*
Y150295D01*
X233583Y146929D02*
Y150295D01*
X233780Y146929D02*
Y150295D01*
X233976Y146929D02*
Y150295D01*
X234173Y146929D02*
Y150295D01*
X234370Y146929D02*
Y150295D01*
X234567Y146929D02*
Y150295D01*
X234764Y146929D02*
Y150295D01*
X234961Y146929D02*
Y150295D01*
X235157Y146929D02*
Y150295D01*
X235354Y146929D02*
Y150295D01*
X235551Y146929D02*
Y150295D01*
X235748Y146929D02*
Y150295D01*
X235945Y146929D02*
Y150295D01*
X236142Y146929D02*
Y150295D01*
X236339Y146929D02*
Y150295D01*
X236535Y146929D02*
Y150295D01*
X236732Y146929D02*
Y150295D01*
X236929Y146929D02*
Y150295D01*
X237126Y146929D02*
Y150295D01*
X237323Y146929D02*
Y150295D01*
X237520Y146929D02*
Y150295D01*
X237717Y146929D02*
Y150295D01*
X237913Y146929D02*
Y150295D01*
X238110Y146929D02*
Y150295D01*
X238307Y146929D02*
Y150295D01*
X238504Y146929D02*
Y150295D01*
X238701Y146929D02*
Y150295D01*
X238898Y146929D02*
Y150295D01*
X239094Y146929D02*
Y150295D01*
X239291Y146929D02*
Y150295D01*
X239488Y146929D02*
Y150295D01*
X239685Y146929D02*
Y150295D01*
X239882Y146929D02*
Y150295D01*
X240079Y146929D02*
Y150295D01*
X240276Y146929D02*
Y150295D01*
X240472Y146929D02*
Y150295D01*
X240669Y146929D02*
Y150295D01*
X240866Y146929D02*
Y150295D01*
X241063Y146929D02*
Y150295D01*
X241260Y146929D02*
Y150295D01*
X241457Y146929D02*
Y150295D01*
X241654Y146929D02*
Y150295D01*
X241850Y146929D02*
Y150295D01*
X242047Y146929D02*
Y150295D01*
X242244Y146929D02*
Y150295D01*
X242441Y146929D02*
Y150295D01*
X242638Y146929D02*
Y150295D01*
X242835Y146929D02*
Y150295D01*
X243031Y146929D02*
Y150295D01*
X243228Y146929D02*
Y150295D01*
X243425Y146929D02*
Y150295D01*
X243622Y146929D02*
Y150295D01*
X243819Y146929D02*
Y150295D01*
X244016Y146929D02*
Y150295D01*
X244213Y146929D02*
Y150295D01*
X244409Y146929D02*
Y150295D01*
X244606Y146929D02*
Y150295D01*
X283996Y143287D02*
Y125531D01*
X299665*
Y143287*
X283996*
X284094Y125531D02*
Y143287D01*
X284291Y125531D02*
Y143287D01*
X284488Y125531D02*
Y143287D01*
X284685Y125531D02*
Y143287D01*
X284882Y125531D02*
Y143287D01*
X285079Y125531D02*
Y143287D01*
X285276Y125531D02*
Y143287D01*
X285472Y125531D02*
Y143287D01*
X285669Y125531D02*
Y143287D01*
X285866Y125531D02*
Y143287D01*
X286063Y125531D02*
Y143287D01*
X286260Y125531D02*
Y143287D01*
X286457Y125531D02*
Y143287D01*
X286654Y125531D02*
Y143287D01*
X286850Y125531D02*
Y143287D01*
X287047Y125531D02*
Y143287D01*
X287244Y125531D02*
Y143287D01*
X287441Y125531D02*
Y143287D01*
X287638Y125531D02*
Y143287D01*
X287835Y125531D02*
Y143287D01*
X288031Y125531D02*
Y143287D01*
X288228Y125531D02*
Y143287D01*
X288425Y125531D02*
Y143287D01*
X288622Y125531D02*
Y143287D01*
X288819Y125531D02*
Y143287D01*
X289016Y125531D02*
Y143287D01*
X289213Y125531D02*
Y143287D01*
X289409Y125531D02*
Y143287D01*
X289606Y125531D02*
Y143287D01*
X289803Y125531D02*
Y143287D01*
X290000Y125531D02*
Y143287D01*
X290197Y125531D02*
Y143287D01*
X290394Y125531D02*
Y143287D01*
X290591Y125531D02*
Y143287D01*
X290787Y125531D02*
Y143287D01*
X290984Y125531D02*
Y143287D01*
X291181Y125531D02*
Y143287D01*
X291378Y125531D02*
Y143287D01*
X291575Y125531D02*
Y143287D01*
X291772Y125531D02*
Y143287D01*
X291969Y125531D02*
Y143287D01*
X292165Y125531D02*
Y143287D01*
X292362Y125531D02*
Y143287D01*
X292559Y125531D02*
Y143287D01*
X292756Y125531D02*
Y143287D01*
X292953Y125531D02*
Y143287D01*
X293150Y125531D02*
Y143287D01*
X293346Y125531D02*
Y143287D01*
X293543Y125531D02*
Y143287D01*
X293740Y125531D02*
Y143287D01*
X293937Y125531D02*
Y143287D01*
X294134Y125531D02*
Y143287D01*
X294331Y125531D02*
Y143287D01*
X294528Y125531D02*
Y143287D01*
X294724Y125531D02*
Y143287D01*
X294921Y125531D02*
Y143287D01*
X295118Y125531D02*
Y143287D01*
X295315Y125531D02*
Y143287D01*
X295512Y125531D02*
Y143287D01*
X295709Y125531D02*
Y143287D01*
X295906Y125531D02*
Y143287D01*
X296102Y125531D02*
Y143287D01*
X296299Y125531D02*
Y143287D01*
X296496Y125531D02*
Y143287D01*
X296693Y125531D02*
Y143287D01*
X296890Y125531D02*
Y143287D01*
X297087Y125531D02*
Y143287D01*
X297283Y125531D02*
Y143287D01*
X297480Y125531D02*
Y143287D01*
X297677Y125531D02*
Y143287D01*
X297874Y125531D02*
Y143287D01*
X298071Y125531D02*
Y143287D01*
X298268Y125531D02*
Y143287D01*
X298465Y125531D02*
Y143287D01*
X298661Y125531D02*
Y143287D01*
X298858Y125531D02*
Y143287D01*
X299055Y125531D02*
Y143287D01*
X299252Y125531D02*
Y143287D01*
X299449Y125531D02*
Y143287D01*
X299646Y125531D02*
Y143287D01*
X294626Y145236D02*
Y123583D01*
X297992*
Y145236*
X294626*
X294724Y123583D02*
Y145236D01*
X294921Y123583D02*
Y145236D01*
X295118Y123583D02*
Y145236D01*
X295315Y123583D02*
Y145236D01*
X295512Y123583D02*
Y145236D01*
X295709Y123583D02*
Y145236D01*
X295906Y123583D02*
Y145236D01*
X296102Y123583D02*
Y145236D01*
X296299Y123583D02*
Y145236D01*
X296496Y123583D02*
Y145236D01*
X296693Y123583D02*
Y145236D01*
X296890Y123583D02*
Y145236D01*
X297087Y123583D02*
Y145236D01*
X297283Y123583D02*
Y145236D01*
X297480Y123583D02*
Y145236D01*
X297677Y123583D02*
Y145236D01*
X297874Y123583D02*
Y145236D01*
X312303Y143169D02*
Y125413D01*
X327972*
Y143169*
X312303*
X312402Y125413D02*
Y143169D01*
X312598Y125413D02*
Y143169D01*
X312795Y125413D02*
Y143169D01*
X312992Y125413D02*
Y143169D01*
X313189Y125413D02*
Y143169D01*
X313386Y125413D02*
Y143169D01*
X313583Y125413D02*
Y143169D01*
X313780Y125413D02*
Y143169D01*
X313976Y125413D02*
Y143169D01*
X314173Y125413D02*
Y143169D01*
X314370Y125413D02*
Y143169D01*
X314567Y125413D02*
Y143169D01*
X314764Y125413D02*
Y143169D01*
X314961Y125413D02*
Y143169D01*
X315157Y125413D02*
Y143169D01*
X315354Y125413D02*
Y143169D01*
X315551Y125413D02*
Y143169D01*
X315748Y125413D02*
Y143169D01*
X315945Y125413D02*
Y143169D01*
X316142Y125413D02*
Y143169D01*
X316339Y125413D02*
Y143169D01*
X316535Y125413D02*
Y143169D01*
X316732Y125413D02*
Y143169D01*
X316929Y125413D02*
Y143169D01*
X317126Y125413D02*
Y143169D01*
X317323Y125413D02*
Y143169D01*
X317520Y125413D02*
Y143169D01*
X317717Y125413D02*
Y143169D01*
X317913Y125413D02*
Y143169D01*
X318110Y125413D02*
Y143169D01*
X318307Y125413D02*
Y143169D01*
X318504Y125413D02*
Y143169D01*
X318701Y125413D02*
Y143169D01*
X318898Y125413D02*
Y143169D01*
X319094Y125413D02*
Y143169D01*
X319291Y125413D02*
Y143169D01*
X319488Y125413D02*
Y143169D01*
X319685Y125413D02*
Y143169D01*
X319882Y125413D02*
Y143169D01*
X320079Y125413D02*
Y143169D01*
X320276Y125413D02*
Y143169D01*
X320472Y125413D02*
Y143169D01*
X320669Y125413D02*
Y143169D01*
X320866Y125413D02*
Y143169D01*
X321063Y125413D02*
Y143169D01*
X321260Y125413D02*
Y143169D01*
X321457Y125413D02*
Y143169D01*
X321654Y125413D02*
Y143169D01*
X321850Y125413D02*
Y143169D01*
X322047Y125413D02*
Y143169D01*
X322244Y125413D02*
Y143169D01*
X322441Y125413D02*
Y143169D01*
X322638Y125413D02*
Y143169D01*
X322835Y125413D02*
Y143169D01*
X323031Y125413D02*
Y143169D01*
X323228Y125413D02*
Y143169D01*
X323425Y125413D02*
Y143169D01*
X323622Y125413D02*
Y143169D01*
X323819Y125413D02*
Y143169D01*
X324016Y125413D02*
Y143169D01*
X324213Y125413D02*
Y143169D01*
X324409Y125413D02*
Y143169D01*
X324606Y125413D02*
Y143169D01*
X324803Y125413D02*
Y143169D01*
X325000Y125413D02*
Y143169D01*
X325197Y125413D02*
Y143169D01*
X325394Y125413D02*
Y143169D01*
X325591Y125413D02*
Y143169D01*
X325787Y125413D02*
Y143169D01*
X325984Y125413D02*
Y143169D01*
X326181Y125413D02*
Y143169D01*
X326378Y125413D02*
Y143169D01*
X326575Y125413D02*
Y143169D01*
X326772Y125413D02*
Y143169D01*
X326969Y125413D02*
Y143169D01*
X327165Y125413D02*
Y143169D01*
X327362Y125413D02*
Y143169D01*
X327559Y125413D02*
Y143169D01*
X327756Y125413D02*
Y143169D01*
X327953Y125413D02*
Y143169D01*
X322933Y145118D02*
Y123465D01*
X326299*
Y145118*
X322933*
X323031Y123465D02*
Y145118D01*
X323228Y123465D02*
Y145118D01*
X323425Y123465D02*
Y145118D01*
X323622Y123465D02*
Y145118D01*
X323819Y123465D02*
Y145118D01*
X324016Y123465D02*
Y145118D01*
X324213Y123465D02*
Y145118D01*
X324409Y123465D02*
Y145118D01*
X324606Y123465D02*
Y145118D01*
X324803Y123465D02*
Y145118D01*
X325000Y123465D02*
Y145118D01*
X325197Y123465D02*
Y145118D01*
X325394Y123465D02*
Y145118D01*
X325591Y123465D02*
Y145118D01*
X325787Y123465D02*
Y145118D01*
X325984Y123465D02*
Y145118D01*
X326181Y123465D02*
Y145118D01*
X100000Y100000D02*
X178740D01*
Y119685*
X190551*
Y100000*
X269291*
Y119685*
X281102*
Y100000*
X359843*
Y265354*
X281102*
Y243701*
X269291*
Y285039*
X190551*
Y277165*
X178740*
Y296850*
X100000*
Y100000*
X178740Y257480D02*
X190551D01*
Y139370*
X178740*
Y257480*
X269291Y141339D02*
X281102D01*
Y222047*
X269291*
Y141339*
X288976Y243819D02*
X351969D01*
Y163268*
X288976*
Y243819*
G54D35*
G54D79*
X147638Y127165D03*
Y130315D03*
X167717Y128780D03*
X164567D03*
X156102Y128740D03*
X152953D03*
X238114Y127571D03*
Y130720D03*
X246480Y131094D03*
X243331D03*
X256311Y131075D03*
X253161D03*
X326772Y107874D03*
Y104724D03*
X328543Y116535D03*
Y119685D03*
X340531Y143378D03*
Y140228D03*
G54D120*
X153878Y142992D03*
X135886D03*
X123209D03*
X105217D03*
X114567Y126969D03*
Y107677D03*
X205512Y126969D03*
Y107677D03*
G54D121*
X144882Y171260D03*
X114213D03*
G54D122*
X148130Y118504D03*
X153051D03*
X157972D03*
X162894D03*
X238358Y118516D03*
X243280D03*
X248201D03*
X253122D03*
G54D123*
X172933Y107776D03*
X138091D03*
X263161Y107787D03*
X228319D03*
G54D124*
X119449Y195039D03*
X129449D03*
X139449D03*
X149449D03*
X159449D03*
Y288543D03*
X119449D03*
X209902Y176280D03*
X219902D03*
X229902D03*
X239902D03*
X249902D03*
Y269783D03*
X209902D03*
X300551Y156772D03*
X310551D03*
X320551D03*
X330551D03*
X340551D03*
Y250276D03*
X300551D03*
G54D125*
X197091Y139283D03*
X202091D03*
X207091D03*
X212091D03*
Y160917D03*
X197091D03*
X226476Y139390D03*
X231476D03*
X236476D03*
X241476D03*
Y161024D03*
X226476D03*
G54D126*
X225984Y274409D03*
X317677Y254724D03*
G54D127*
X341772Y115413D03*
Y120335D03*
Y125256D03*
Y130177D03*
G54D128*
X352500Y140217D03*
Y105374D03*
G54D129*
X305531Y126909D03*
Y131909D03*
Y136909D03*
Y141909D03*
X283898D03*
Y126909D03*
X333839Y126791D03*
Y131791D03*
Y136791D03*
Y141791D03*
X312205D03*
Y126791D03*
G54D130*
X133465Y289724D03*
G54D131*
X288425Y111417D03*
X312992D03*
X0Y0D02*
M02*
