*
*
G04 PADS 9.5 Build Number: 522968 generated Gerber (RS-274-X) file*
G04 PC Version=2.1*
*
%IN "Plasma_Gen_Transformer_"*%
*
%MOIN*%
*
%FSLAX35Y35*%
*
*
*
*
G04 PC Standard Apertures*
*
*
G04 Thermal Relief Aperture macro.*
%AMTER*
1,1,$1,0,0*
1,0,$1-$2,0,0*
21,0,$3,$4,0,0,45*
21,0,$3,$4,0,0,135*
%
*
*
G04 Annular Aperture macro.*
%AMANN*
1,1,$1,0,0*
1,0,$2,0,0*
%
*
*
G04 Odd Aperture macro.*
%AMODD*
1,1,$1,0,0*
1,0,$1-0.005,0,0*
%
*
*
G04 PC Custom Aperture Macros*
*
*
*
*
*
*
G04 PC Aperture Table*
*
%ADD010C,0.00004*%
%ADD011C,0.03543*%
%ADD019O,0.08661X0.05118*%
%ADD020C,0.07874*%
%ADD023C,0.05906*%
%ADD024C,0.11811*%
%ADD025C,0.00394*%
%ADD026O,0.04724X0.05906*%
%ADD028C,0.00787*%
%ADD030C,0.02362*%
%ADD031C,0.01181*%
%ADD032R,0.05906X0.05906*%
*
*
*
*
G04 PC Circuitry*
G04 Layer Name Plasma_Gen_Transformer_ - circuitry*
%LPD*%
*
*
G04 PC Custom Flashes*
G04 Layer Name Plasma_Gen_Transformer_ - flashes*
%LPD*%
*
*
G04 PC Circuitry*
G04 Layer Name Plasma_Gen_Transformer_ - circuitry*
%LPD*%
*
G54D10*
G54D11*
G01X111457Y176850D03*
Y171929D03*
G54D19*
X106693Y228839D03*
Y207382D03*
G54D20*
X192520Y109843D03*
Y259449D03*
X109843D03*
Y109843D03*
G54D23*
X170827Y250512D03*
X160827Y260512D03*
Y250512D03*
X150827Y260512D03*
Y250512D03*
X140827Y260512D03*
Y250512D03*
X130827Y260512D03*
Y250512D03*
X164961Y137402D03*
X155118D03*
X147244D03*
X137402D03*
G54D24*
X125315Y126732D03*
X177047D03*
G54D25*
X118209Y225394D02*
X118363Y225406D01*
X118513Y225442*
X118656Y225501*
X118656D02*
X118787Y225582D01*
X118905Y225682*
X119005Y225799*
X119086Y225931*
X119145Y226074*
X119181Y226224*
X119193Y226378*
Y233465*
X119181Y233619*
X119145Y233769*
X119086Y233911*
X119005Y234043*
X118905Y234161*
X118787Y234261*
X118656Y234342*
X118656D02*
X118513Y234401D01*
X118363Y234437*
X118209Y234449*
X115846*
X115692Y234437*
X115542Y234401*
X115400Y234342*
X115268Y234261*
X115150Y234161*
X115050Y234043*
X114969Y233911*
X114910Y233769*
X114874Y233619*
X114862Y233465*
Y226378*
X114874Y226224*
X114910Y226074*
X114969Y225931*
X115050Y225799*
X115150Y225682*
X115268Y225582*
X115400Y225501*
X115542Y225442*
X115692Y225406*
X115846Y225394*
X118209*
X114961Y225952D02*
Y233890D01*
X115157Y225676D02*
Y234167D01*
X115354Y225529D02*
Y234314D01*
X115551Y225440D02*
Y234403D01*
X115748Y225401D02*
Y234441D01*
X115945Y225394D02*
Y234449D01*
X116142Y225394D02*
Y234449D01*
X116339Y225394D02*
Y234449D01*
X116535Y225394D02*
Y234449D01*
X116732Y225394D02*
Y234449D01*
X116929Y225394D02*
Y234449D01*
X117126Y225394D02*
Y234449D01*
X117323Y225394D02*
Y234449D01*
X117520Y225394D02*
Y234449D01*
X117717Y225394D02*
Y234449D01*
X117913Y225394D02*
Y234449D01*
X118110Y225394D02*
Y234449D01*
X118307Y225401D02*
Y234441D01*
X118504Y225440D02*
Y234403D01*
X118701Y225529D02*
Y234314D01*
X118898Y225676D02*
Y234167D01*
X119094Y225952D02*
Y233890D01*
X118209Y201772D02*
X118363Y201784D01*
X118513Y201820*
X118656Y201879*
X118656D02*
X118787Y201960D01*
X118905Y202060*
X119005Y202177*
X119086Y202309*
X119145Y202452*
X119181Y202602*
X119193Y202756*
Y209843*
X119181Y209996*
X119145Y210147*
X119086Y210289*
X119005Y210421*
X118905Y210538*
X118787Y210639*
X118656Y210719*
X118656D02*
X118513Y210779D01*
X118363Y210815*
X118209Y210827*
X115846*
X115692Y210815*
X115542Y210779*
X115400Y210719*
X115268Y210639*
X115150Y210538*
X115050Y210421*
X114969Y210289*
X114910Y210147*
X114874Y209996*
X114862Y209843*
Y202756*
X114874Y202602*
X114910Y202452*
X114969Y202309*
X115050Y202177*
X115150Y202060*
X115268Y201960*
X115400Y201879*
X115542Y201820*
X115692Y201784*
X115846Y201772*
X118209*
X114961Y202330D02*
Y210268D01*
X115157Y202054D02*
Y210544D01*
X115354Y201907D02*
Y210692D01*
X115551Y201818D02*
Y210781D01*
X115748Y201779D02*
Y210819D01*
X115945Y201772D02*
Y210827D01*
X116142Y201772D02*
Y210827D01*
X116339Y201772D02*
Y210827D01*
X116535Y201772D02*
Y210827D01*
X116732Y201772D02*
Y210827D01*
X116929Y201772D02*
Y210827D01*
X117126Y201772D02*
Y210827D01*
X117323Y201772D02*
Y210827D01*
X117520Y201772D02*
Y210827D01*
X117717Y201772D02*
Y210827D01*
X117913Y201772D02*
Y210827D01*
X118110Y201772D02*
Y210827D01*
X118307Y201779D02*
Y210819D01*
X118504Y201818D02*
Y210781D01*
X118701Y201907D02*
Y210692D01*
X118898Y202054D02*
Y210544D01*
X119094Y202330D02*
Y210268D01*
X197244Y109843D02*
G75*
G03X197244I-4724J0D01*
G01Y259449D02*
G03X197244I-4724J0D01*
G01X183937Y126732D02*
G03X183937I-6890J0D01*
G01X168898Y137402D02*
G03X168898I-3937J0D01*
G01X174764Y250512D02*
G03X174764I-3937J0D01*
G01X164764D02*
G03X164764I-3937J0D01*
G01Y260512D02*
G03X164764I-3937J0D01*
G01X154764D02*
G03X154764I-3937J0D01*
G01X114567Y109843D02*
G03X114567I-4724J0D01*
G01Y259449D02*
G03X114567I-4724J0D01*
G01X132205Y126732D02*
G03X132205I-6890J0D01*
G01X141339Y137402D02*
G03X141339I-3937J0D01*
G01X201378Y101181D02*
Y268110D01*
G03X201181Y268307I-197J0*
G01X101181*
G03X100984Y268110I0J-197*
G01Y228856*
G03X100985Y228839I197J0*
X100984Y228821I196J-18*
G01Y207400*
G03X100985Y207382I197J-0*
X100984Y207364I196J-18*
G01Y101181*
G03X101181Y100984I197J0*
G01X201181*
G03X201378Y101181I0J197*
G01X153740Y141224D02*
Y172458D01*
G03X153682Y172597I-197J-0*
G01X144852Y181427*
X144449Y182402D02*
G03X144852Y181427I1378J-0D01*
G01X144449Y182402D02*
Y248197D01*
G03X144089Y248307I-197J0*
G01X137415Y248548D02*
G03X144089Y248307I3412J1964D01*
G01X137415Y248548D02*
G03X137047Y248449I-171J-99D01*
G01Y183093*
G03X137105Y182954I197J0*
G01X148218Y171841*
X148622Y170866D02*
G03X148218Y171841I-1378J0D01*
G01X148622Y170866D02*
Y141224D01*
G03X148744Y141042I197J-0*
G01X150994Y138602D02*
G03X148744Y141042I-3750J-1200D01*
G01X150994Y138602D02*
G03X151369I187J60D01*
G01X153618Y141042D02*
G03X151369Y138602I1500J-3640D01*
G01X153618Y141042D02*
G03X153740Y141224I-75J182D01*
G01X197244Y109843D02*
G03X197244I-4724J0D01*
G01Y259449D02*
G03X197244I-4724J0D01*
G01X183937Y126732D02*
G03X183937I-6890J0D01*
G01X168898Y137402D02*
G03X168898I-3937J0D01*
G01X174764Y250512D02*
G03X174764I-3937J0D01*
G01Y263465D02*
Y257559D01*
X173780Y256575D02*
G03X174764Y257559I-0J984D01*
G01X173780Y256575D02*
X167874D01*
X166890Y257559D02*
G03X167874Y256575I984J0D01*
G01X166890Y257559D02*
Y263465D01*
X167874Y264449D02*
G03X166890Y263465I0J-984D01*
G01X167874Y264449D02*
X173780D01*
X174764Y263465D02*
G03X173780Y264449I-984J-0D01*
G01X151369Y136201D02*
G03X156618Y141042I3749J1201D01*
G01X151369Y136201D02*
G03X150994I-188J-60D01*
G01X145744Y141042D02*
G03X150994Y136201I1500J-3640D01*
G01X145744Y141042D02*
G03X145866Y141224I-75J182D01*
G01Y170214*
G03X145808Y170353I-197J-0*
G01X134695Y181467*
X134291Y182441D02*
G03X134695Y181467I1378J-0D01*
G01X134291Y182441D02*
Y247980D01*
G03X133939Y248100I-197J-0*
G01Y252923D02*
G03Y248100I-3112J-2411D01*
G01Y252923D02*
G03X134291Y253044I155J121D01*
G01Y255017*
G03X134234Y255156I-197J-0*
G01X132555Y256835*
G03X132340Y256877I-139J-139*
G01X134461Y258998D02*
G03X132340Y256877I-3634J1514D01*
G01X134461Y258998D02*
G03X134504Y258784I182J-75D01*
G01X136644Y256644*
X137047Y255669D02*
G03X136644Y256644I-1378J0D01*
G01X137047Y255669D02*
Y252574D01*
G03X137415Y252476I197J0*
G01X144089Y252716D02*
G03X137415Y252476I-3262J-2204D01*
G01X144089Y252716D02*
G03X144449Y252826I163J110D01*
G01Y254859*
G03X144391Y254999I-197J0*
G01X142555Y256835*
G03X142340Y256877I-139J-139*
G01X144461Y258998D02*
G03X142340Y256877I-3634J1514D01*
G01X144461Y258998D02*
G03X144504Y258784I182J-75D01*
G01X146801Y256486*
X147205Y255512D02*
G03X146801Y256486I-1378J-0D01*
G01X147205Y255512D02*
Y252826D01*
G03X147565Y252716I197J0*
G01Y248307D02*
G03Y252716I3262J2205D01*
G01Y248307D02*
G03X147205Y248197I-163J-110D01*
G01Y183054*
G03X147262Y182915I197J-0*
G01X156092Y174085*
X156496Y173110D02*
G03X156092Y174085I-1378J0D01*
G01X156496Y173110D02*
Y141224D01*
G03X156618Y141042I197J-0*
G01X164764Y250512D02*
G03X164764I-3937J0D01*
G01Y260512D02*
G03X164764I-3937J0D01*
G01X154764D02*
G03X154764I-3937J0D01*
G01X114567Y109843D02*
G03X114567I-4724J0D01*
G01X112980Y174554D02*
G03X109933I-1523J2296D01*
G01X112980D02*
G03Y174226I109J-164D01*
G01X109933D02*
G03X112980I1524J-2297D01*
G01X109933D02*
G03Y174554I-109J164D01*
G01X120374Y209843D02*
Y208661D01*
Y207480*
Y202756*
X118209Y200591D02*
G03X120374Y202756I-0J2165D01*
G01X118209Y200591D02*
X115846D01*
X113681Y202756D02*
G03X115846Y200591I2165J-0D01*
G01X113681Y202756D02*
Y209843D01*
X115846Y212008D02*
G03X113681Y209843I0J-2165D01*
G01X115846Y212008D02*
X118209D01*
X120374Y209843D02*
G03X118209Y212008I-2165J-0D01*
G01X120374Y233465D02*
Y228740D01*
Y227559*
Y226378*
X118209Y224213D02*
G03X120374Y226378I-0J2165D01*
G01X118209Y224213D02*
X115846D01*
X113681Y226378D02*
G03X115846Y224213I2165J-0D01*
G01X113681Y226378D02*
Y233465D01*
X115846Y235630D02*
G03X113681Y233465I0J-2165D01*
G01X115846Y235630D02*
X118209D01*
X120374Y233465D02*
G03X118209Y235630I-2165J-0D01*
G01X108465Y203839D02*
G03Y210925I-0J3543D01*
G01Y203839D02*
X104921D01*
X101378Y207365D02*
G03X104921Y203839I3543J17D01*
G01X101378Y207365D02*
G03X101377Y207382I-197J-1D01*
X101378Y207399I-196J18*
G01X104921Y210925D02*
G03X101378Y207399I0J-3543D01*
G01X104921Y210925D02*
X108465D01*
Y225295D02*
G03Y232382I-0J3544D01*
G01Y225295D02*
X104921D01*
X101378Y228822D02*
G03X104921Y225295I3543J17D01*
G01X101378Y228822D02*
G03X101377Y228839I-197J-1D01*
X101378Y228855I-196J17*
G01X104921Y232382D02*
G03X101378Y228855I0J-3543D01*
G01X104921Y232382D02*
X108465D01*
X114567Y259449D02*
G03X114567I-4724J0D01*
G01X132205Y126732D02*
G03X132205I-6890J0D01*
G01X141339Y137402D02*
G03X141339I-3937J0D01*
G01X147934Y172125D02*
X153740D01*
X148284Y171770D02*
X153740D01*
X148508Y171416D02*
X153740D01*
X148608Y171062D02*
X153740D01*
X148622Y170707D02*
X153740D01*
X148622Y170353D02*
X153740D01*
X148622Y169999D02*
X153740D01*
X148622Y169644D02*
X153740D01*
X148622Y169290D02*
X153740D01*
X148622Y168936D02*
X153740D01*
X148622Y168581D02*
X153740D01*
X148622Y168227D02*
X153740D01*
X148622Y167873D02*
X153740D01*
X148622Y167518D02*
X153740D01*
X148622Y167164D02*
X153740D01*
X148622Y166810D02*
X153740D01*
X148622Y166455D02*
X153740D01*
X148622Y166101D02*
X153740D01*
X148622Y165747D02*
X153740D01*
X148622Y165392D02*
X153740D01*
X148622Y165038D02*
X153740D01*
X148622Y164684D02*
X153740D01*
X148622Y164329D02*
X153740D01*
X148622Y163975D02*
X153740D01*
X148622Y163621D02*
X153740D01*
X148622Y163266D02*
X153740D01*
X148622Y162912D02*
X153740D01*
X148622Y162558D02*
X153740D01*
X148622Y162203D02*
X153740D01*
X148622Y161849D02*
X153740D01*
X148622Y161495D02*
X153740D01*
X148622Y161140D02*
X153740D01*
X148622Y160786D02*
X153740D01*
X148622Y160432D02*
X153740D01*
X148622Y160077D02*
X153740D01*
X148622Y159723D02*
X153740D01*
X148622Y159369D02*
X153740D01*
X148622Y159014D02*
X153740D01*
X148622Y158660D02*
X153740D01*
X148622Y158306D02*
X153740D01*
X148622Y157951D02*
X153740D01*
X148622Y157597D02*
X153740D01*
X148622Y157243D02*
X153740D01*
X148622Y156888D02*
X153740D01*
X148622Y156534D02*
X153740D01*
X148622Y156180D02*
X153740D01*
X148622Y155825D02*
X153740D01*
X148622Y155471D02*
X153740D01*
X148622Y155117D02*
X153740D01*
X148622Y154762D02*
X153740D01*
X148622Y154408D02*
X153740D01*
X148622Y154054D02*
X153740D01*
X148622Y153699D02*
X153740D01*
X148622Y153345D02*
X153740D01*
X148622Y152991D02*
X153740D01*
X148622Y152636D02*
X153740D01*
X148622Y152282D02*
X153740D01*
X148622Y151928D02*
X153740D01*
X148622Y151573D02*
X153740D01*
X148622Y151219D02*
X153740D01*
X148622Y150865D02*
X153740D01*
X148622Y150510D02*
X153740D01*
X148622Y150156D02*
X153740D01*
X148622Y149802D02*
X153740D01*
X148622Y149448D02*
X153740D01*
X148622Y149093D02*
X153740D01*
X148622Y148739D02*
X153740D01*
X148622Y148385D02*
X153740D01*
X148622Y148030D02*
X153740D01*
X148622Y147676D02*
X153740D01*
X148622Y147322D02*
X153740D01*
X148622Y146967D02*
X153740D01*
X148622Y146613D02*
X153740D01*
X148622Y146259D02*
X153740D01*
X148622Y145904D02*
X153740D01*
X148622Y145550D02*
X153740D01*
X148622Y145196D02*
X153740D01*
X148622Y144841D02*
X153740D01*
X148622Y144487D02*
X153740D01*
X148622Y144133D02*
X153740D01*
X148622Y143778D02*
X153740D01*
X148622Y143424D02*
X153740D01*
X148622Y143070D02*
X153740D01*
X148622Y142715D02*
X153740D01*
X148622Y142361D02*
X153740D01*
X148622Y142007D02*
X153740D01*
X148622Y141652D02*
X153740D01*
X148622Y141298D02*
X153740D01*
X147580Y172479D02*
X153739D01*
X147226Y172833D02*
X153446D01*
X148963Y140944D02*
X153399D01*
X146871Y173188D02*
X153092D01*
X149555Y140589D02*
X152807D01*
X146517Y173542D02*
X152738D01*
X149978Y140235D02*
X152385D01*
X146163Y173896D02*
X152383D01*
X150303Y139881D02*
X152060D01*
X145808Y174251D02*
X152029D01*
X150559Y139526D02*
X151804D01*
X145454Y174605D02*
X151675D01*
X150761Y139172D02*
X151602D01*
X150918Y138818D02*
X151445D01*
X145100Y174959D02*
X151320D01*
X144745Y175314D02*
X150966D01*
X144391Y175668D02*
X150612D01*
X144037Y176022D02*
X150257D01*
X143682Y176377D02*
X149903D01*
X143328Y176731D02*
X149549D01*
X142974Y177085D02*
X149194D01*
X142619Y177440D02*
X148840D01*
X142265Y177794D02*
X148486D01*
X141911Y178148D02*
X148131D01*
X141556Y178503D02*
X147777D01*
X141202Y178857D02*
X147423D01*
X140848Y179211D02*
X147068D01*
X140493Y179566D02*
X146714D01*
X140139Y179920D02*
X146360D01*
X139785Y180274D02*
X146005D01*
X139430Y180629D02*
X145651D01*
X139076Y180983D02*
X145297D01*
X138722Y181337D02*
X144942D01*
X138367Y181692D02*
X144646D01*
X138013Y182046D02*
X144495D01*
X143818Y247951D02*
X144449D01*
X143473Y247597D02*
X144449D01*
X143021Y247243D02*
X144449D01*
X142367Y246888D02*
X144449D01*
X137047Y246534D02*
X144449D01*
X137047Y246180D02*
X144449D01*
X137047Y245825D02*
X144449D01*
X137047Y245471D02*
X144449D01*
X137047Y245117D02*
X144449D01*
X137047Y244762D02*
X144449D01*
X137047Y244408D02*
X144449D01*
X137047Y244054D02*
X144449D01*
X137047Y243699D02*
X144449D01*
X137047Y243345D02*
X144449D01*
X137047Y242991D02*
X144449D01*
X137047Y242636D02*
X144449D01*
X137047Y242282D02*
X144449D01*
X137047Y241928D02*
X144449D01*
X137047Y241573D02*
X144449D01*
X137047Y241219D02*
X144449D01*
X137047Y240865D02*
X144449D01*
X137047Y240510D02*
X144449D01*
X137047Y240156D02*
X144449D01*
X137047Y239802D02*
X144449D01*
X137047Y239448D02*
X144449D01*
X137047Y239093D02*
X144449D01*
X137047Y238739D02*
X144449D01*
X137047Y238385D02*
X144449D01*
X137047Y238030D02*
X144449D01*
X137047Y237676D02*
X144449D01*
X137047Y237322D02*
X144449D01*
X137047Y236967D02*
X144449D01*
X137047Y236613D02*
X144449D01*
X137047Y236259D02*
X144449D01*
X137047Y235904D02*
X144449D01*
X137047Y235550D02*
X144449D01*
X137047Y235196D02*
X144449D01*
X137047Y234841D02*
X144449D01*
X137047Y234487D02*
X144449D01*
X137047Y234133D02*
X144449D01*
X137047Y233778D02*
X144449D01*
X137047Y233424D02*
X144449D01*
X137047Y233070D02*
X144449D01*
X137047Y232715D02*
X144449D01*
X137047Y232361D02*
X144449D01*
X137047Y232007D02*
X144449D01*
X137047Y231652D02*
X144449D01*
X137047Y231298D02*
X144449D01*
X137047Y230944D02*
X144449D01*
X137047Y230589D02*
X144449D01*
X137047Y230235D02*
X144449D01*
X137047Y229881D02*
X144449D01*
X137047Y229526D02*
X144449D01*
X137047Y229172D02*
X144449D01*
X137047Y228818D02*
X144449D01*
X137047Y228463D02*
X144449D01*
X137047Y228109D02*
X144449D01*
X137047Y227755D02*
X144449D01*
X137047Y227400D02*
X144449D01*
X137047Y227046D02*
X144449D01*
X137047Y226692D02*
X144449D01*
X137047Y226337D02*
X144449D01*
X137047Y225983D02*
X144449D01*
X137047Y225629D02*
X144449D01*
X137047Y225274D02*
X144449D01*
X137047Y224920D02*
X144449D01*
X137047Y224566D02*
X144449D01*
X137047Y224211D02*
X144449D01*
X137047Y223857D02*
X144449D01*
X137047Y223503D02*
X144449D01*
X137047Y223148D02*
X144449D01*
X137047Y222794D02*
X144449D01*
X137047Y222440D02*
X144449D01*
X137047Y222085D02*
X144449D01*
X137047Y221731D02*
X144449D01*
X137047Y221377D02*
X144449D01*
X137047Y221022D02*
X144449D01*
X137047Y220668D02*
X144449D01*
X137047Y220314D02*
X144449D01*
X137047Y219959D02*
X144449D01*
X137047Y219605D02*
X144449D01*
X137047Y219251D02*
X144449D01*
X137047Y218896D02*
X144449D01*
X137047Y218542D02*
X144449D01*
X137047Y218188D02*
X144449D01*
X137047Y217833D02*
X144449D01*
X137047Y217479D02*
X144449D01*
X137047Y217125D02*
X144449D01*
X137047Y216770D02*
X144449D01*
X137047Y216416D02*
X144449D01*
X137047Y216062D02*
X144449D01*
X137047Y215707D02*
X144449D01*
X137047Y215353D02*
X144449D01*
X137047Y214999D02*
X144449D01*
X137047Y214644D02*
X144449D01*
X137047Y214290D02*
X144449D01*
X137047Y213936D02*
X144449D01*
X137047Y213581D02*
X144449D01*
X137047Y213227D02*
X144449D01*
X137047Y212873D02*
X144449D01*
X137047Y212518D02*
X144449D01*
X137047Y212164D02*
X144449D01*
X137047Y211810D02*
X144449D01*
X137047Y211455D02*
X144449D01*
X137047Y211101D02*
X144449D01*
X137047Y210747D02*
X144449D01*
X137047Y210392D02*
X144449D01*
X137047Y210038D02*
X144449D01*
X137047Y209684D02*
X144449D01*
X137047Y209329D02*
X144449D01*
X137047Y208975D02*
X144449D01*
X137047Y208621D02*
X144449D01*
X137047Y208266D02*
X144449D01*
X137047Y207912D02*
X144449D01*
X137047Y207558D02*
X144449D01*
X137047Y207203D02*
X144449D01*
X137047Y206849D02*
X144449D01*
X137047Y206495D02*
X144449D01*
X137047Y206140D02*
X144449D01*
X137047Y205786D02*
X144449D01*
X137047Y205432D02*
X144449D01*
X137047Y205077D02*
X144449D01*
X137047Y204723D02*
X144449D01*
X137047Y204369D02*
X144449D01*
X137047Y204014D02*
X144449D01*
X137047Y203660D02*
X144449D01*
X137047Y203306D02*
X144449D01*
X137047Y202951D02*
X144449D01*
X137047Y202597D02*
X144449D01*
X137047Y202243D02*
X144449D01*
X137047Y201888D02*
X144449D01*
X137047Y201534D02*
X144449D01*
X137047Y201180D02*
X144449D01*
X137047Y200825D02*
X144449D01*
X137047Y200471D02*
X144449D01*
X137047Y200117D02*
X144449D01*
X137047Y199762D02*
X144449D01*
X137047Y199408D02*
X144449D01*
X137047Y199054D02*
X144449D01*
X137047Y198699D02*
X144449D01*
X137047Y198345D02*
X144449D01*
X137047Y197991D02*
X144449D01*
X137047Y197636D02*
X144449D01*
X137047Y197282D02*
X144449D01*
X137047Y196928D02*
X144449D01*
X137047Y196573D02*
X144449D01*
X137047Y196219D02*
X144449D01*
X137047Y195865D02*
X144449D01*
X137047Y195510D02*
X144449D01*
X137047Y195156D02*
X144449D01*
X137047Y194802D02*
X144449D01*
X137047Y194448D02*
X144449D01*
X137047Y194093D02*
X144449D01*
X137047Y193739D02*
X144449D01*
X137047Y193385D02*
X144449D01*
X137047Y193030D02*
X144449D01*
X137047Y192676D02*
X144449D01*
X137047Y192322D02*
X144449D01*
X137047Y191967D02*
X144449D01*
X137047Y191613D02*
X144449D01*
X137047Y191259D02*
X144449D01*
X137047Y190904D02*
X144449D01*
X137047Y190550D02*
X144449D01*
X137047Y190196D02*
X144449D01*
X137047Y189841D02*
X144449D01*
X137047Y189487D02*
X144449D01*
X137047Y189133D02*
X144449D01*
X137047Y188778D02*
X144449D01*
X137047Y188424D02*
X144449D01*
X137047Y188070D02*
X144449D01*
X137047Y187715D02*
X144449D01*
X137047Y187361D02*
X144449D01*
X137047Y187007D02*
X144449D01*
X137047Y186652D02*
X144449D01*
X137047Y186298D02*
X144449D01*
X137047Y185944D02*
X144449D01*
X137047Y185589D02*
X144449D01*
X137047Y185235D02*
X144449D01*
X137047Y184881D02*
X144449D01*
X137047Y184526D02*
X144449D01*
X137047Y184172D02*
X144449D01*
X137047Y183818D02*
X144449D01*
X137047Y183463D02*
X144449D01*
X137047Y183109D02*
X144449D01*
X137304Y182755D02*
X144449D01*
X137659Y182400D02*
X144449D01*
X144088Y248306D02*
X144416D01*
X137047Y246888D02*
X139287D01*
X137047Y247243D02*
X138633D01*
X137047Y247597D02*
X138180D01*
X137047Y247951D02*
X137836D01*
X137047Y248306D02*
X137566D01*
X100984Y267794D02*
X201378D01*
X100984Y267440D02*
X201378D01*
X100984Y267085D02*
X201378D01*
X100984Y266731D02*
X201378D01*
X100984Y266377D02*
X201378D01*
X100984Y266022D02*
X201378D01*
X100984Y265668D02*
X201378D01*
X100984Y265314D02*
X201378D01*
X100984Y264959D02*
X201378D01*
X100984Y264605D02*
X201378D01*
X174372Y264251D02*
X201378D01*
X194113Y263896D02*
X201378D01*
X194879Y263542D02*
X201378D01*
X195408Y263188D02*
X201378D01*
X195816Y262833D02*
X201378D01*
X196144Y262479D02*
X201378D01*
X196413Y262125D02*
X201378D01*
X196634Y261770D02*
X201378D01*
X196815Y261416D02*
X201378D01*
X196960Y261062D02*
X201378D01*
X197073Y260707D02*
X201378D01*
X197157Y260353D02*
X201378D01*
X197212Y259999D02*
X201378D01*
X197240Y259644D02*
X201378D01*
X197241Y259290D02*
X201378D01*
X197216Y258936D02*
X201378D01*
X197164Y258581D02*
X201378D01*
X197083Y258227D02*
X201378D01*
X196973Y257873D02*
X201378D01*
X196832Y257518D02*
X201378D01*
X196655Y257164D02*
X201378D01*
X196438Y256810D02*
X201378D01*
X196175Y256455D02*
X201378D01*
X195853Y256101D02*
X201378D01*
X195455Y255747D02*
X201378D01*
X194942Y255392D02*
X201378D01*
X194212Y255038D02*
X201378D01*
X147205Y254684D02*
X201378D01*
X171789Y254329D02*
X201378D01*
X172699Y253975D02*
X201378D01*
X173242Y253621D02*
X201378D01*
X173640Y253266D02*
X201378D01*
X173947Y252912D02*
X201378D01*
X174190Y252558D02*
X201378D01*
X174382Y252203D02*
X201378D01*
X174530Y251849D02*
X201378D01*
X174639Y251495D02*
X201378D01*
X174713Y251140D02*
X201378D01*
X174754Y250786D02*
X201378D01*
X174763Y250432D02*
X201378D01*
X174740Y250077D02*
X201378D01*
X174684Y249723D02*
X201378D01*
X174594Y249369D02*
X201378D01*
X174468Y249014D02*
X201378D01*
X174301Y248660D02*
X201378D01*
X174088Y248306D02*
X201378D01*
X173818Y247951D02*
X201378D01*
X173473Y247597D02*
X201378D01*
X173021Y247243D02*
X201378D01*
X172367Y246888D02*
X201378D01*
X147205Y246534D02*
X201378D01*
X147205Y246180D02*
X201378D01*
X147205Y245825D02*
X201378D01*
X147205Y245471D02*
X201378D01*
X147205Y245117D02*
X201378D01*
X147205Y244762D02*
X201378D01*
X147205Y244408D02*
X201378D01*
X147205Y244054D02*
X201378D01*
X147205Y243699D02*
X201378D01*
X147205Y243345D02*
X201378D01*
X147205Y242991D02*
X201378D01*
X147205Y242636D02*
X201378D01*
X147205Y242282D02*
X201378D01*
X147205Y241928D02*
X201378D01*
X147205Y241573D02*
X201378D01*
X147205Y241219D02*
X201378D01*
X147205Y240865D02*
X201378D01*
X147205Y240510D02*
X201378D01*
X147205Y240156D02*
X201378D01*
X147205Y239802D02*
X201378D01*
X147205Y239448D02*
X201378D01*
X147205Y239093D02*
X201378D01*
X147205Y238739D02*
X201378D01*
X147205Y238385D02*
X201378D01*
X147205Y238030D02*
X201378D01*
X147205Y237676D02*
X201378D01*
X147205Y237322D02*
X201378D01*
X147205Y236967D02*
X201378D01*
X147205Y236613D02*
X201378D01*
X147205Y236259D02*
X201378D01*
X147205Y235904D02*
X201378D01*
X147205Y235550D02*
X201378D01*
X147205Y235196D02*
X201378D01*
X147205Y234841D02*
X201378D01*
X147205Y234487D02*
X201378D01*
X147205Y234133D02*
X201378D01*
X147205Y233778D02*
X201378D01*
X147205Y233424D02*
X201378D01*
X147205Y233070D02*
X201378D01*
X147205Y232715D02*
X201378D01*
X147205Y232361D02*
X201378D01*
X147205Y232007D02*
X201378D01*
X147205Y231652D02*
X201378D01*
X147205Y231298D02*
X201378D01*
X147205Y230944D02*
X201378D01*
X147205Y230589D02*
X201378D01*
X147205Y230235D02*
X201378D01*
X147205Y229881D02*
X201378D01*
X147205Y229526D02*
X201378D01*
X147205Y229172D02*
X201378D01*
X147205Y228818D02*
X201378D01*
X147205Y228463D02*
X201378D01*
X147205Y228109D02*
X201378D01*
X147205Y227755D02*
X201378D01*
X147205Y227400D02*
X201378D01*
X147205Y227046D02*
X201378D01*
X147205Y226692D02*
X201378D01*
X147205Y226337D02*
X201378D01*
X147205Y225983D02*
X201378D01*
X147205Y225629D02*
X201378D01*
X147205Y225274D02*
X201378D01*
X147205Y224920D02*
X201378D01*
X147205Y224566D02*
X201378D01*
X147205Y224211D02*
X201378D01*
X147205Y223857D02*
X201378D01*
X147205Y223503D02*
X201378D01*
X147205Y223148D02*
X201378D01*
X147205Y222794D02*
X201378D01*
X147205Y222440D02*
X201378D01*
X147205Y222085D02*
X201378D01*
X147205Y221731D02*
X201378D01*
X147205Y221377D02*
X201378D01*
X147205Y221022D02*
X201378D01*
X147205Y220668D02*
X201378D01*
X147205Y220314D02*
X201378D01*
X147205Y219959D02*
X201378D01*
X147205Y219605D02*
X201378D01*
X147205Y219251D02*
X201378D01*
X147205Y218896D02*
X201378D01*
X147205Y218542D02*
X201378D01*
X147205Y218188D02*
X201378D01*
X147205Y217833D02*
X201378D01*
X147205Y217479D02*
X201378D01*
X147205Y217125D02*
X201378D01*
X147205Y216770D02*
X201378D01*
X147205Y216416D02*
X201378D01*
X147205Y216062D02*
X201378D01*
X147205Y215707D02*
X201378D01*
X147205Y215353D02*
X201378D01*
X147205Y214999D02*
X201378D01*
X147205Y214644D02*
X201378D01*
X147205Y214290D02*
X201378D01*
X147205Y213936D02*
X201378D01*
X147205Y213581D02*
X201378D01*
X147205Y213227D02*
X201378D01*
X147205Y212873D02*
X201378D01*
X147205Y212518D02*
X201378D01*
X147205Y212164D02*
X201378D01*
X147205Y211810D02*
X201378D01*
X147205Y211455D02*
X201378D01*
X147205Y211101D02*
X201378D01*
X147205Y210747D02*
X201378D01*
X147205Y210392D02*
X201378D01*
X147205Y210038D02*
X201378D01*
X147205Y209684D02*
X201378D01*
X147205Y209329D02*
X201378D01*
X147205Y208975D02*
X201378D01*
X147205Y208621D02*
X201378D01*
X147205Y208266D02*
X201378D01*
X147205Y207912D02*
X201378D01*
X147205Y207558D02*
X201378D01*
X147205Y207203D02*
X201378D01*
X147205Y206849D02*
X201378D01*
X147205Y206495D02*
X201378D01*
X147205Y206140D02*
X201378D01*
X147205Y205786D02*
X201378D01*
X147205Y205432D02*
X201378D01*
X147205Y205077D02*
X201378D01*
X147205Y204723D02*
X201378D01*
X147205Y204369D02*
X201378D01*
X147205Y204014D02*
X201378D01*
X147205Y203660D02*
X201378D01*
X147205Y203306D02*
X201378D01*
X147205Y202951D02*
X201378D01*
X147205Y202597D02*
X201378D01*
X147205Y202243D02*
X201378D01*
X147205Y201888D02*
X201378D01*
X147205Y201534D02*
X201378D01*
X147205Y201180D02*
X201378D01*
X147205Y200825D02*
X201378D01*
X147205Y200471D02*
X201378D01*
X147205Y200117D02*
X201378D01*
X147205Y199762D02*
X201378D01*
X147205Y199408D02*
X201378D01*
X147205Y199054D02*
X201378D01*
X147205Y198699D02*
X201378D01*
X147205Y198345D02*
X201378D01*
X147205Y197991D02*
X201378D01*
X147205Y197636D02*
X201378D01*
X147205Y197282D02*
X201378D01*
X147205Y196928D02*
X201378D01*
X147205Y196573D02*
X201378D01*
X147205Y196219D02*
X201378D01*
X147205Y195865D02*
X201378D01*
X147205Y195510D02*
X201378D01*
X147205Y195156D02*
X201378D01*
X147205Y194802D02*
X201378D01*
X147205Y194448D02*
X201378D01*
X147205Y194093D02*
X201378D01*
X147205Y193739D02*
X201378D01*
X147205Y193385D02*
X201378D01*
X147205Y193030D02*
X201378D01*
X147205Y192676D02*
X201378D01*
X147205Y192322D02*
X201378D01*
X147205Y191967D02*
X201378D01*
X147205Y191613D02*
X201378D01*
X147205Y191259D02*
X201378D01*
X147205Y190904D02*
X201378D01*
X147205Y190550D02*
X201378D01*
X147205Y190196D02*
X201378D01*
X147205Y189841D02*
X201378D01*
X147205Y189487D02*
X201378D01*
X147205Y189133D02*
X201378D01*
X147205Y188778D02*
X201378D01*
X147205Y188424D02*
X201378D01*
X147205Y188070D02*
X201378D01*
X147205Y187715D02*
X201378D01*
X147205Y187361D02*
X201378D01*
X147205Y187007D02*
X201378D01*
X147205Y186652D02*
X201378D01*
X147205Y186298D02*
X201378D01*
X147205Y185944D02*
X201378D01*
X147205Y185589D02*
X201378D01*
X147205Y185235D02*
X201378D01*
X147205Y184881D02*
X201378D01*
X147205Y184526D02*
X201378D01*
X147205Y184172D02*
X201378D01*
X147205Y183818D02*
X201378D01*
X147205Y183463D02*
X201378D01*
X147205Y183109D02*
X201378D01*
X147423Y182755D02*
X201378D01*
X147777Y182400D02*
X201378D01*
X148131Y182046D02*
X201378D01*
X148485Y181692D02*
X201378D01*
X148840Y181337D02*
X201378D01*
X149194Y180983D02*
X201378D01*
X149548Y180629D02*
X201378D01*
X149903Y180274D02*
X201378D01*
X150257Y179920D02*
X201378D01*
X150611Y179566D02*
X201378D01*
X150966Y179211D02*
X201378D01*
X151320Y178857D02*
X201378D01*
X151674Y178503D02*
X201378D01*
X152029Y178148D02*
X201378D01*
X152383Y177794D02*
X201378D01*
X152737Y177440D02*
X201378D01*
X153092Y177085D02*
X201378D01*
X153446Y176731D02*
X201378D01*
X153800Y176377D02*
X201378D01*
X154155Y176022D02*
X201378D01*
X154509Y175668D02*
X201378D01*
X154863Y175314D02*
X201378D01*
X155218Y174959D02*
X201378D01*
X155572Y174605D02*
X201378D01*
X155926Y174251D02*
X201378D01*
X156250Y173896D02*
X201378D01*
X156427Y173542D02*
X201378D01*
X156494Y173188D02*
X201378D01*
X156496Y172833D02*
X201378D01*
X156496Y172479D02*
X201378D01*
X156496Y172125D02*
X201378D01*
X156496Y171770D02*
X201378D01*
X156496Y171416D02*
X201378D01*
X156496Y171062D02*
X201378D01*
X156496Y170707D02*
X201378D01*
X156496Y170353D02*
X201378D01*
X156496Y169999D02*
X201378D01*
X156496Y169644D02*
X201378D01*
X156496Y169290D02*
X201378D01*
X156496Y168936D02*
X201378D01*
X156496Y168581D02*
X201378D01*
X156496Y168227D02*
X201378D01*
X156496Y167873D02*
X201378D01*
X156496Y167518D02*
X201378D01*
X156496Y167164D02*
X201378D01*
X156496Y166810D02*
X201378D01*
X156496Y166455D02*
X201378D01*
X156496Y166101D02*
X201378D01*
X156496Y165747D02*
X201378D01*
X156496Y165392D02*
X201378D01*
X156496Y165038D02*
X201378D01*
X156496Y164684D02*
X201378D01*
X156496Y164329D02*
X201378D01*
X156496Y163975D02*
X201378D01*
X156496Y163621D02*
X201378D01*
X156496Y163266D02*
X201378D01*
X156496Y162912D02*
X201378D01*
X156496Y162558D02*
X201378D01*
X156496Y162203D02*
X201378D01*
X156496Y161849D02*
X201378D01*
X156496Y161495D02*
X201378D01*
X156496Y161140D02*
X201378D01*
X156496Y160786D02*
X201378D01*
X156496Y160432D02*
X201378D01*
X156496Y160077D02*
X201378D01*
X156496Y159723D02*
X201378D01*
X156496Y159369D02*
X201378D01*
X156496Y159014D02*
X201378D01*
X156496Y158660D02*
X201378D01*
X156496Y158306D02*
X201378D01*
X156496Y157951D02*
X201378D01*
X156496Y157597D02*
X201378D01*
X156496Y157243D02*
X201378D01*
X156496Y156888D02*
X201378D01*
X156496Y156534D02*
X201378D01*
X156496Y156180D02*
X201378D01*
X156496Y155825D02*
X201378D01*
X156496Y155471D02*
X201378D01*
X156496Y155117D02*
X201378D01*
X156496Y154762D02*
X201378D01*
X156496Y154408D02*
X201378D01*
X156496Y154054D02*
X201378D01*
X156496Y153699D02*
X201378D01*
X156496Y153345D02*
X201378D01*
X156496Y152991D02*
X201378D01*
X156496Y152636D02*
X201378D01*
X156496Y152282D02*
X201378D01*
X156496Y151928D02*
X201378D01*
X156496Y151573D02*
X201378D01*
X156496Y151219D02*
X201378D01*
X156496Y150865D02*
X201378D01*
X156496Y150510D02*
X201378D01*
X156496Y150156D02*
X201378D01*
X156496Y149802D02*
X201378D01*
X156496Y149448D02*
X201378D01*
X156496Y149093D02*
X201378D01*
X156496Y148739D02*
X201378D01*
X156496Y148385D02*
X201378D01*
X156496Y148030D02*
X201378D01*
X156496Y147676D02*
X201378D01*
X156496Y147322D02*
X201378D01*
X156496Y146967D02*
X201378D01*
X156496Y146613D02*
X201378D01*
X156496Y146259D02*
X201378D01*
X156496Y145904D02*
X201378D01*
X156496Y145550D02*
X201378D01*
X156496Y145196D02*
X201378D01*
X156496Y144841D02*
X201378D01*
X156496Y144487D02*
X201378D01*
X156496Y144133D02*
X201378D01*
X156496Y143778D02*
X201378D01*
X156496Y143424D02*
X201378D01*
X156496Y143070D02*
X201378D01*
X156496Y142715D02*
X201378D01*
X156496Y142361D02*
X201378D01*
X156496Y142007D02*
X201378D01*
X156496Y141652D02*
X201378D01*
X165525Y141298D02*
X201378D01*
X166679Y140944D02*
X201378D01*
X167271Y140589D02*
X201378D01*
X167694Y140235D02*
X201378D01*
X168019Y139881D02*
X201378D01*
X168275Y139526D02*
X201378D01*
X168477Y139172D02*
X201378D01*
X168634Y138818D02*
X201378D01*
X168752Y138463D02*
X201378D01*
X168834Y138109D02*
X201378D01*
X168882Y137755D02*
X201378D01*
X168898Y137400D02*
X201378D01*
X168882Y137046D02*
X201378D01*
X168833Y136692D02*
X201378D01*
X168751Y136337D02*
X201378D01*
X168633Y135983D02*
X201378D01*
X168476Y135629D02*
X201378D01*
X168273Y135274D02*
X201378D01*
X168017Y134920D02*
X201378D01*
X167691Y134566D02*
X201378D01*
X167268Y134211D02*
X201378D01*
X166674Y133857D02*
X201378D01*
X178325Y133503D02*
X201378D01*
X179558Y133148D02*
X201378D01*
X180322Y132794D02*
X201378D01*
X180907Y132440D02*
X201378D01*
X181385Y132085D02*
X201378D01*
X181789Y131731D02*
X201378D01*
X182136Y131377D02*
X201378D01*
X182438Y131022D02*
X201378D01*
X182702Y130668D02*
X201378D01*
X182933Y130314D02*
X201378D01*
X183135Y129959D02*
X201378D01*
X183310Y129605D02*
X201378D01*
X183460Y129251D02*
X201378D01*
X183588Y128896D02*
X201378D01*
X183695Y128542D02*
X201378D01*
X183782Y128188D02*
X201378D01*
X183848Y127833D02*
X201378D01*
X183896Y127479D02*
X201378D01*
X183926Y127125D02*
X201378D01*
X183937Y126770D02*
X201378D01*
X183930Y126416D02*
X201378D01*
X183904Y126062D02*
X201378D01*
X183860Y125707D02*
X201378D01*
X183798Y125353D02*
X201378D01*
X183715Y124999D02*
X201378D01*
X183613Y124644D02*
X201378D01*
X183490Y124290D02*
X201378D01*
X183344Y123936D02*
X201378D01*
X183174Y123581D02*
X201378D01*
X182979Y123227D02*
X201378D01*
X182755Y122873D02*
X201378D01*
X182498Y122518D02*
X201378D01*
X182205Y122164D02*
X201378D01*
X181868Y121810D02*
X201378D01*
X181477Y121455D02*
X201378D01*
X181017Y121101D02*
X201378D01*
X180459Y120747D02*
X201378D01*
X179744Y120392D02*
X201378D01*
X178677Y120038D02*
X201378D01*
X100984Y119684D02*
X201378D01*
X100984Y119329D02*
X201378D01*
X100984Y118975D02*
X201378D01*
X100984Y118621D02*
X201378D01*
X100984Y118266D02*
X201378D01*
X100984Y117912D02*
X201378D01*
X100984Y117558D02*
X201378D01*
X100984Y117203D02*
X201378D01*
X100984Y116849D02*
X201378D01*
X100984Y116495D02*
X201378D01*
X100984Y116140D02*
X201378D01*
X100984Y115786D02*
X201378D01*
X100984Y115432D02*
X201378D01*
X100984Y115077D02*
X201378D01*
X100984Y114723D02*
X201378D01*
X193874Y114369D02*
X201378D01*
X194737Y114014D02*
X201378D01*
X195303Y113660D02*
X201378D01*
X195733Y113306D02*
X201378D01*
X196077Y112951D02*
X201378D01*
X196358Y112597D02*
X201378D01*
X196589Y112243D02*
X201378D01*
X196778Y111888D02*
X201378D01*
X196931Y111534D02*
X201378D01*
X197051Y111180D02*
X201378D01*
X197141Y110825D02*
X201378D01*
X197202Y110471D02*
X201378D01*
X197236Y110117D02*
X201378D01*
X197243Y109762D02*
X201378D01*
X197224Y109408D02*
X201378D01*
X197178Y109054D02*
X201378D01*
X197104Y108699D02*
X201378D01*
X197001Y108345D02*
X201378D01*
X196866Y107991D02*
X201378D01*
X196697Y107636D02*
X201378D01*
X196490Y107282D02*
X201378D01*
X196238Y106928D02*
X201378D01*
X195931Y106573D02*
X201378D01*
X195551Y106219D02*
X201378D01*
X195069Y105865D02*
X201378D01*
X194405Y105510D02*
X201378D01*
X193118Y105156D02*
X201378D01*
X100984Y104802D02*
X201378D01*
X100984Y104448D02*
X201378D01*
X100984Y104093D02*
X201378D01*
X100984Y103739D02*
X201378D01*
X100984Y103385D02*
X201378D01*
X100984Y103030D02*
X201378D01*
X100984Y102676D02*
X201378D01*
X100984Y102322D02*
X201378D01*
X100984Y101967D02*
X201378D01*
X100984Y101613D02*
X201378D01*
X100984Y101259D02*
X201378D01*
X100988Y268148D02*
X201374D01*
X110441Y105156D02*
X191921D01*
X111197Y114369D02*
X191166D01*
X174664Y263896D02*
X190926D01*
X147205Y255038D02*
X190827D01*
X111728Y105510D02*
X190635D01*
X112060Y114014D02*
X190303D01*
X174761Y263542D02*
X190160D01*
X147205Y255392D02*
X190098D01*
X112392Y105865D02*
X189971D01*
X112626Y113660D02*
X189736D01*
X174764Y263188D02*
X189632D01*
X147185Y255747D02*
X189585D01*
X112874Y106219D02*
X189488D01*
X113056Y113306D02*
X189306D01*
X174764Y262833D02*
X189223D01*
X147072Y256101D02*
X189186D01*
X113253Y106573D02*
X189109D01*
X113400Y112951D02*
X188962D01*
X174764Y262479D02*
X188895D01*
X146831Y256455D02*
X188865D01*
X113561Y106928D02*
X188802D01*
X113681Y112597D02*
X188681D01*
X174764Y262125D02*
X188626D01*
X174418Y256810D02*
X188601D01*
X113813Y107282D02*
X188549D01*
X113912Y112243D02*
X188450D01*
X174764Y261770D02*
X188405D01*
X174681Y257164D02*
X188384D01*
X114020Y107636D02*
X188342D01*
X114101Y111888D02*
X188261D01*
X174764Y261416D02*
X188224D01*
X174763Y257518D02*
X188208D01*
X114189Y107991D02*
X188173D01*
X114254Y111534D02*
X188108D01*
X174764Y261062D02*
X188079D01*
X174764Y257873D02*
X188066D01*
X114323Y108345D02*
X188039D01*
X114374Y111180D02*
X187988D01*
X174764Y260707D02*
X187966D01*
X174764Y258227D02*
X187956D01*
X114427Y108699D02*
X187936D01*
X114464Y110825D02*
X187899D01*
X174764Y260353D02*
X187883D01*
X174764Y258581D02*
X187876D01*
X114501Y109054D02*
X187862D01*
X114525Y110471D02*
X187837D01*
X174764Y259999D02*
X187827D01*
X174764Y258936D02*
X187823D01*
X114547Y109408D02*
X187815D01*
X114559Y110117D02*
X187803D01*
X174764Y259644D02*
X187799D01*
X174764Y259290D02*
X187798D01*
X114566Y109762D02*
X187796D01*
X165507Y133503D02*
X175770D01*
X126945Y120038D02*
X175417D01*
X127826Y133148D02*
X174536D01*
X128012Y120392D02*
X174350D01*
X128590Y132794D02*
X173772D01*
X128727Y120747D02*
X173635D01*
X129174Y132440D02*
X173188D01*
X129285Y121101D02*
X173078D01*
X129653Y132085D02*
X172710D01*
X129745Y121455D02*
X172617D01*
X130057Y131731D02*
X172306D01*
X130135Y121810D02*
X172227D01*
X130404Y131377D02*
X171958D01*
X130473Y122164D02*
X171890D01*
X130706Y131022D02*
X171656D01*
X130766Y122518D02*
X171596D01*
X130970Y130668D02*
X171392D01*
X131022Y122873D02*
X171340D01*
X131201Y130314D02*
X171161D01*
X131246Y123227D02*
X171116D01*
X131402Y129959D02*
X170960D01*
X131442Y123581D02*
X170920D01*
X131577Y129605D02*
X170785D01*
X131612Y123936D02*
X170751D01*
X131728Y129251D02*
X170634D01*
X131757Y124290D02*
X170605D01*
X131856Y128896D02*
X170506D01*
X131881Y124644D02*
X170481D01*
X131963Y128542D02*
X170399D01*
X131983Y124999D02*
X170379D01*
X132049Y128188D02*
X170313D01*
X132065Y125353D02*
X170297D01*
X132116Y127833D02*
X170246D01*
X132128Y125707D02*
X170234D01*
X132164Y127479D02*
X170198D01*
X132172Y126062D02*
X170190D01*
X132194Y127125D02*
X170169D01*
X132197Y126416D02*
X170165D01*
X132205Y126770D02*
X170158D01*
X161789Y254329D02*
X169864D01*
X162367Y246888D02*
X169287D01*
X162699Y253975D02*
X168954D01*
X163021Y247243D02*
X168633D01*
X163242Y253621D02*
X168411D01*
X163473Y247597D02*
X168180D01*
X163640Y253266D02*
X168014D01*
X163818Y247951D02*
X167836D01*
X163947Y252912D02*
X167706D01*
X164088Y248306D02*
X167566D01*
X164190Y252558D02*
X167463D01*
X164301Y248660D02*
X167352D01*
X162060Y264251D02*
X167282D01*
X164382Y252203D02*
X167272D01*
X162166Y256810D02*
X167236D01*
X164468Y249014D02*
X167186D01*
X164530Y251849D02*
X167124D01*
X164594Y249369D02*
X167059D01*
X164639Y251495D02*
X167014D01*
X162838Y263896D02*
X166989D01*
X162899Y257164D02*
X166972D01*
X164684Y249723D02*
X166970D01*
X164713Y251140D02*
X166940D01*
X164740Y250077D02*
X166914D01*
X164754Y250786D02*
X166899D01*
X163340Y263542D02*
X166893D01*
X163384Y257518D02*
X166891D01*
X164763Y250432D02*
X166891D01*
X163715Y263188D02*
X166890D01*
X164007Y262833D02*
X166890D01*
X164237Y262479D02*
X166890D01*
X164418Y262125D02*
X166890D01*
X164557Y261770D02*
X166890D01*
X164659Y261416D02*
X166890D01*
X164725Y261062D02*
X166890D01*
X164759Y260707D02*
X166890D01*
X164761Y260353D02*
X166890D01*
X164730Y259999D02*
X166890D01*
X164667Y259644D02*
X166890D01*
X164569Y259290D02*
X166890D01*
X164435Y258936D02*
X166890D01*
X164258Y258581D02*
X166890D01*
X164033Y258227D02*
X166890D01*
X163748Y257873D02*
X166890D01*
X155664Y133503D02*
X164414D01*
X156496Y141298D02*
X164396D01*
X156832Y133857D02*
X163247D01*
X156837Y140944D02*
X163242D01*
X157425Y134211D02*
X162654D01*
X157429Y140589D02*
X162650D01*
X157849Y134566D02*
X162230D01*
X157852Y140235D02*
X162227D01*
X158175Y134920D02*
X161904D01*
X158177Y139881D02*
X161902D01*
X158431Y135274D02*
X161648D01*
X158433Y139526D02*
X161646D01*
X158633Y135629D02*
X161445D01*
X158635Y139172D02*
X161444D01*
X158791Y135983D02*
X161288D01*
X158792Y138818D02*
X161287D01*
X158909Y136337D02*
X161170D01*
X158909Y138463D02*
X161169D01*
X158991Y136692D02*
X161088D01*
X158991Y138109D02*
X161088D01*
X159039Y137046D02*
X161040D01*
X159039Y137755D02*
X161039D01*
X159055Y137400D02*
X161024D01*
X151789Y254329D02*
X159864D01*
X152060Y264251D02*
X159593D01*
X152166Y256810D02*
X159487D01*
X152367Y246888D02*
X159287D01*
X152699Y253975D02*
X158954D01*
X152838Y263896D02*
X158815D01*
X152899Y257164D02*
X158755D01*
X153021Y247243D02*
X158633D01*
X153242Y253621D02*
X158411D01*
X153340Y263542D02*
X158313D01*
X153384Y257518D02*
X158270D01*
X153473Y247597D02*
X158180D01*
X153640Y253266D02*
X158014D01*
X153715Y263188D02*
X157939D01*
X153748Y257873D02*
X157905D01*
X153818Y247951D02*
X157836D01*
X153947Y252912D02*
X157706D01*
X154007Y262833D02*
X157647D01*
X154033Y258227D02*
X157621D01*
X154088Y248306D02*
X157566D01*
X154190Y252558D02*
X157463D01*
X154237Y262479D02*
X157416D01*
X154258Y258581D02*
X157396D01*
X154301Y248660D02*
X157352D01*
X154382Y252203D02*
X157272D01*
X154418Y262125D02*
X157235D01*
X154435Y258936D02*
X157219D01*
X154468Y249014D02*
X157186D01*
X154530Y251849D02*
X157124D01*
X154557Y261770D02*
X157096D01*
X154569Y259290D02*
X157084D01*
X154594Y249369D02*
X157059D01*
X154639Y251495D02*
X157014D01*
X154659Y261416D02*
X156995D01*
X154667Y259644D02*
X156986D01*
X154684Y249723D02*
X156970D01*
X154713Y251140D02*
X156940D01*
X154725Y261062D02*
X156928D01*
X154730Y259999D02*
X156923D01*
X154740Y250077D02*
X156914D01*
X154754Y250786D02*
X156899D01*
X154759Y260707D02*
X156895D01*
X154761Y260353D02*
X156893D01*
X154763Y250432D02*
X156891D01*
X147790Y133503D02*
X154572D01*
X148958Y133857D02*
X153405D01*
X149551Y134211D02*
X152811D01*
X149975Y134566D02*
X152387D01*
X150301Y134920D02*
X152062D01*
X150557Y135274D02*
X151805D01*
X150759Y135629D02*
X151603D01*
X150917Y135983D02*
X151446D01*
X151165Y136337D02*
X151197D01*
X147205Y254329D02*
X149864D01*
X142060Y264251D02*
X149593D01*
X146478Y256810D02*
X149487D01*
X147205Y246888D02*
X149287D01*
X147205Y253975D02*
X148954D01*
X142838Y263896D02*
X148815D01*
X146123Y257164D02*
X148755D01*
X147205Y247243D02*
X148633D01*
X147205Y253621D02*
X148411D01*
X143340Y263542D02*
X148313D01*
X145769Y257518D02*
X148270D01*
X147205Y247597D02*
X148180D01*
X147205Y253266D02*
X148014D01*
X143715Y263188D02*
X147939D01*
X145415Y257873D02*
X147905D01*
X147205Y247951D02*
X147836D01*
X147205Y252912D02*
X147706D01*
X144007Y262833D02*
X147647D01*
X145060Y258227D02*
X147621D01*
X147237Y248306D02*
X147566D01*
X144237Y262479D02*
X147416D01*
X144706Y258581D02*
X147396D01*
X144418Y262125D02*
X147235D01*
X144447Y258936D02*
X147219D01*
X144557Y261770D02*
X147096D01*
X144569Y259290D02*
X147084D01*
X144659Y261416D02*
X146995D01*
X144667Y259644D02*
X146986D01*
X144725Y261062D02*
X146928D01*
X144730Y259999D02*
X146923D01*
X144759Y260707D02*
X146895D01*
X144761Y260353D02*
X146893D01*
X137948Y133503D02*
X146698D01*
X113424Y169999D02*
X145866D01*
X112998Y169644D02*
X145866D01*
X112251Y169290D02*
X145866D01*
X100984Y168936D02*
X145866D01*
X100984Y168581D02*
X145866D01*
X100984Y168227D02*
X145866D01*
X100984Y167873D02*
X145866D01*
X100984Y167518D02*
X145866D01*
X100984Y167164D02*
X145866D01*
X100984Y166810D02*
X145866D01*
X100984Y166455D02*
X145866D01*
X100984Y166101D02*
X145866D01*
X100984Y165747D02*
X145866D01*
X100984Y165392D02*
X145866D01*
X100984Y165038D02*
X145866D01*
X100984Y164684D02*
X145866D01*
X100984Y164329D02*
X145866D01*
X100984Y163975D02*
X145866D01*
X100984Y163621D02*
X145866D01*
X100984Y163266D02*
X145866D01*
X100984Y162912D02*
X145866D01*
X100984Y162558D02*
X145866D01*
X100984Y162203D02*
X145866D01*
X100984Y161849D02*
X145866D01*
X100984Y161495D02*
X145866D01*
X100984Y161140D02*
X145866D01*
X100984Y160786D02*
X145866D01*
X100984Y160432D02*
X145866D01*
X100984Y160077D02*
X145866D01*
X100984Y159723D02*
X145866D01*
X100984Y159369D02*
X145866D01*
X100984Y159014D02*
X145866D01*
X100984Y158660D02*
X145866D01*
X100984Y158306D02*
X145866D01*
X100984Y157951D02*
X145866D01*
X100984Y157597D02*
X145866D01*
X100984Y157243D02*
X145866D01*
X100984Y156888D02*
X145866D01*
X100984Y156534D02*
X145866D01*
X100984Y156180D02*
X145866D01*
X100984Y155825D02*
X145866D01*
X100984Y155471D02*
X145866D01*
X100984Y155117D02*
X145866D01*
X100984Y154762D02*
X145866D01*
X100984Y154408D02*
X145866D01*
X100984Y154054D02*
X145866D01*
X100984Y153699D02*
X145866D01*
X100984Y153345D02*
X145866D01*
X100984Y152991D02*
X145866D01*
X100984Y152636D02*
X145866D01*
X100984Y152282D02*
X145866D01*
X100984Y151928D02*
X145866D01*
X100984Y151573D02*
X145866D01*
X100984Y151219D02*
X145866D01*
X100984Y150865D02*
X145866D01*
X100984Y150510D02*
X145866D01*
X100984Y150156D02*
X145866D01*
X100984Y149802D02*
X145866D01*
X100984Y149448D02*
X145866D01*
X100984Y149093D02*
X145866D01*
X100984Y148739D02*
X145866D01*
X100984Y148385D02*
X145866D01*
X100984Y148030D02*
X145866D01*
X100984Y147676D02*
X145866D01*
X100984Y147322D02*
X145866D01*
X100984Y146967D02*
X145866D01*
X100984Y146613D02*
X145866D01*
X100984Y146259D02*
X145866D01*
X100984Y145904D02*
X145866D01*
X100984Y145550D02*
X145866D01*
X100984Y145196D02*
X145866D01*
X100984Y144841D02*
X145866D01*
X100984Y144487D02*
X145866D01*
X100984Y144133D02*
X145866D01*
X100984Y143778D02*
X145866D01*
X100984Y143424D02*
X145866D01*
X100984Y143070D02*
X145866D01*
X100984Y142715D02*
X145866D01*
X100984Y142361D02*
X145866D01*
X100984Y142007D02*
X145866D01*
X100984Y141652D02*
X145866D01*
X137966Y141298D02*
X145866D01*
X113717Y170353D02*
X145808D01*
X139115Y133857D02*
X145531D01*
X139120Y140944D02*
X145525D01*
X113927Y170707D02*
X145454D01*
X114073Y171062D02*
X145100D01*
X139709Y134211D02*
X144937D01*
X139712Y140589D02*
X144933D01*
X114164Y171416D02*
X144745D01*
X140132Y134566D02*
X144513D01*
X140135Y140235D02*
X144511D01*
X137047Y254684D02*
X144449D01*
X141789Y254329D02*
X144449D01*
X142699Y253975D02*
X144449D01*
X143242Y253621D02*
X144449D01*
X143640Y253266D02*
X144449D01*
X143947Y252912D02*
X144449D01*
X114208Y171770D02*
X144391D01*
X137047Y255038D02*
X144352D01*
X140458Y134920D02*
X144188D01*
X140460Y139881D02*
X144186D01*
X114206Y172125D02*
X144037D01*
X137047Y255392D02*
X143997D01*
X140714Y135274D02*
X143931D01*
X140716Y139526D02*
X143930D01*
X140917Y135629D02*
X143729D01*
X140918Y139172D02*
X143728D01*
X114157Y172479D02*
X143682D01*
X137045Y255747D02*
X143643D01*
X141074Y135983D02*
X143572D01*
X141075Y138818D02*
X143571D01*
X141192Y136337D02*
X143454D01*
X141193Y138463D02*
X143453D01*
X141274Y136692D02*
X143372D01*
X141275Y138109D02*
X143371D01*
X114060Y172833D02*
X143328D01*
X141323Y137046D02*
X143323D01*
X141323Y137755D02*
X143323D01*
X141339Y137400D02*
X143307D01*
X136978Y256101D02*
X143289D01*
X113908Y173188D02*
X142974D01*
X136801Y256455D02*
X142934D01*
X113691Y173542D02*
X142619D01*
X142166Y256810D02*
X142580D01*
X113387Y173896D02*
X142265D01*
X112950Y174251D02*
X141911D01*
X113055Y174605D02*
X141556D01*
X113461Y174959D02*
X141202D01*
X113744Y175314D02*
X140848D01*
X113946Y175668D02*
X140494D01*
X114085Y176022D02*
X140139D01*
X137047Y254329D02*
X139864D01*
X114172Y176377D02*
X139785D01*
X132060Y264251D02*
X139593D01*
X136478Y256810D02*
X139487D01*
X114210Y176731D02*
X139431D01*
X114203Y177085D02*
X139076D01*
X137047Y253975D02*
X138954D01*
X132838Y263896D02*
X138815D01*
X136123Y257164D02*
X138755D01*
X114149Y177440D02*
X138722D01*
X137047Y253621D02*
X138411D01*
X114046Y177794D02*
X138368D01*
X133340Y263542D02*
X138313D01*
X135769Y257518D02*
X138270D01*
X137047Y253266D02*
X138014D01*
X113888Y178148D02*
X138013D01*
X133715Y263188D02*
X137939D01*
X135415Y257873D02*
X137905D01*
X137047Y252912D02*
X137706D01*
X113662Y178503D02*
X137659D01*
X134007Y262833D02*
X137647D01*
X135060Y258227D02*
X137621D01*
X137048Y252558D02*
X137463D01*
X134237Y262479D02*
X137416D01*
X134706Y258581D02*
X137396D01*
X113346Y178857D02*
X137305D01*
X134418Y262125D02*
X137235D01*
X134447Y258936D02*
X137219D01*
X134557Y261770D02*
X137096D01*
X134569Y259290D02*
X137084D01*
X134659Y261416D02*
X136995D01*
X134667Y259644D02*
X136986D01*
X112878Y179211D02*
X136950D01*
X134725Y261062D02*
X136928D01*
X134730Y259999D02*
X136923D01*
X134759Y260707D02*
X136895D01*
X134761Y260353D02*
X136893D01*
X126592Y133503D02*
X136855D01*
X100984Y141298D02*
X136837D01*
X111929Y179566D02*
X136596D01*
X100984Y179920D02*
X136242D01*
X100984Y180274D02*
X135887D01*
X100984Y133857D02*
X135688D01*
X100984Y140944D02*
X135683D01*
X100984Y180629D02*
X135533D01*
X100984Y180983D02*
X135179D01*
X100984Y134211D02*
X135095D01*
X100984Y140589D02*
X135091D01*
X100984Y181337D02*
X134824D01*
X100984Y134566D02*
X134671D01*
X100984Y140235D02*
X134668D01*
X100984Y181692D02*
X134513D01*
X100984Y182046D02*
X134349D01*
X100984Y134920D02*
X134345D01*
X100984Y139881D02*
X134343D01*
X100984Y182400D02*
X134292D01*
X100984Y254684D02*
X134291D01*
X131789Y254329D02*
X134291D01*
X132699Y253975D02*
X134291D01*
X133242Y253621D02*
X134291D01*
X133640Y253266D02*
X134291D01*
X133818Y247951D02*
X134291D01*
X133473Y247597D02*
X134291D01*
X133021Y247243D02*
X134291D01*
X132367Y246888D02*
X134291D01*
X100984Y246534D02*
X134291D01*
X100984Y246180D02*
X134291D01*
X100984Y245825D02*
X134291D01*
X100984Y245471D02*
X134291D01*
X100984Y245117D02*
X134291D01*
X100984Y244762D02*
X134291D01*
X100984Y244408D02*
X134291D01*
X100984Y244054D02*
X134291D01*
X100984Y243699D02*
X134291D01*
X100984Y243345D02*
X134291D01*
X100984Y242991D02*
X134291D01*
X100984Y242636D02*
X134291D01*
X100984Y242282D02*
X134291D01*
X100984Y241928D02*
X134291D01*
X100984Y241573D02*
X134291D01*
X100984Y241219D02*
X134291D01*
X100984Y240865D02*
X134291D01*
X100984Y240510D02*
X134291D01*
X100984Y240156D02*
X134291D01*
X100984Y239802D02*
X134291D01*
X100984Y239448D02*
X134291D01*
X100984Y239093D02*
X134291D01*
X100984Y238739D02*
X134291D01*
X100984Y238385D02*
X134291D01*
X100984Y238030D02*
X134291D01*
X100984Y237676D02*
X134291D01*
X100984Y237322D02*
X134291D01*
X100984Y236967D02*
X134291D01*
X100984Y236613D02*
X134291D01*
X100984Y236259D02*
X134291D01*
X100984Y235904D02*
X134291D01*
X118792Y235550D02*
X134291D01*
X119510Y235196D02*
X134291D01*
X119880Y234841D02*
X134291D01*
X120118Y234487D02*
X134291D01*
X120268Y234133D02*
X134291D01*
X120351Y233778D02*
X134291D01*
X120374Y233424D02*
X134291D01*
X120374Y233070D02*
X134291D01*
X120374Y232715D02*
X134291D01*
X120374Y232361D02*
X134291D01*
X120374Y232007D02*
X134291D01*
X120374Y231652D02*
X134291D01*
X120374Y231298D02*
X134291D01*
X120374Y230944D02*
X134291D01*
X120374Y230589D02*
X134291D01*
X120374Y230235D02*
X134291D01*
X120374Y229881D02*
X134291D01*
X120374Y229526D02*
X134291D01*
X120374Y229172D02*
X134291D01*
X120374Y228818D02*
X134291D01*
X120374Y228463D02*
X134291D01*
X120374Y228109D02*
X134291D01*
X120374Y227755D02*
X134291D01*
X120374Y227400D02*
X134291D01*
X120374Y227046D02*
X134291D01*
X120374Y226692D02*
X134291D01*
X120374Y226337D02*
X134291D01*
X120338Y225983D02*
X134291D01*
X120240Y225629D02*
X134291D01*
X120072Y225274D02*
X134291D01*
X119810Y224920D02*
X134291D01*
X119394Y224566D02*
X134291D01*
X100984Y224211D02*
X134291D01*
X100984Y223857D02*
X134291D01*
X100984Y223503D02*
X134291D01*
X100984Y223148D02*
X134291D01*
X100984Y222794D02*
X134291D01*
X100984Y222440D02*
X134291D01*
X100984Y222085D02*
X134291D01*
X100984Y221731D02*
X134291D01*
X100984Y221377D02*
X134291D01*
X100984Y221022D02*
X134291D01*
X100984Y220668D02*
X134291D01*
X100984Y220314D02*
X134291D01*
X100984Y219959D02*
X134291D01*
X100984Y219605D02*
X134291D01*
X100984Y219251D02*
X134291D01*
X100984Y218896D02*
X134291D01*
X100984Y218542D02*
X134291D01*
X100984Y218188D02*
X134291D01*
X100984Y217833D02*
X134291D01*
X100984Y217479D02*
X134291D01*
X100984Y217125D02*
X134291D01*
X100984Y216770D02*
X134291D01*
X100984Y216416D02*
X134291D01*
X100984Y216062D02*
X134291D01*
X100984Y215707D02*
X134291D01*
X100984Y215353D02*
X134291D01*
X100984Y214999D02*
X134291D01*
X100984Y214644D02*
X134291D01*
X100984Y214290D02*
X134291D01*
X100984Y213936D02*
X134291D01*
X100984Y213581D02*
X134291D01*
X100984Y213227D02*
X134291D01*
X100984Y212873D02*
X134291D01*
X100984Y212518D02*
X134291D01*
X100984Y212164D02*
X134291D01*
X119114Y211810D02*
X134291D01*
X119653Y211455D02*
X134291D01*
X119971Y211101D02*
X134291D01*
X120176Y210747D02*
X134291D01*
X120303Y210392D02*
X134291D01*
X120365Y210038D02*
X134291D01*
X120374Y209684D02*
X134291D01*
X120374Y209329D02*
X134291D01*
X120374Y208975D02*
X134291D01*
X120374Y208621D02*
X134291D01*
X120374Y208266D02*
X134291D01*
X120374Y207912D02*
X134291D01*
X120374Y207558D02*
X134291D01*
X120374Y207203D02*
X134291D01*
X120374Y206849D02*
X134291D01*
X120374Y206495D02*
X134291D01*
X120374Y206140D02*
X134291D01*
X120374Y205786D02*
X134291D01*
X120374Y205432D02*
X134291D01*
X120374Y205077D02*
X134291D01*
X120374Y204723D02*
X134291D01*
X120374Y204369D02*
X134291D01*
X120374Y204014D02*
X134291D01*
X120374Y203660D02*
X134291D01*
X120374Y203306D02*
X134291D01*
X120374Y202951D02*
X134291D01*
X120368Y202597D02*
X134291D01*
X120312Y202243D02*
X134291D01*
X120193Y201888D02*
X134291D01*
X119996Y201534D02*
X134291D01*
X119693Y201180D02*
X134291D01*
X119190Y200825D02*
X134291D01*
X100984Y200471D02*
X134291D01*
X100984Y200117D02*
X134291D01*
X100984Y199762D02*
X134291D01*
X100984Y199408D02*
X134291D01*
X100984Y199054D02*
X134291D01*
X100984Y198699D02*
X134291D01*
X100984Y198345D02*
X134291D01*
X100984Y197991D02*
X134291D01*
X100984Y197636D02*
X134291D01*
X100984Y197282D02*
X134291D01*
X100984Y196928D02*
X134291D01*
X100984Y196573D02*
X134291D01*
X100984Y196219D02*
X134291D01*
X100984Y195865D02*
X134291D01*
X100984Y195510D02*
X134291D01*
X100984Y195156D02*
X134291D01*
X100984Y194802D02*
X134291D01*
X100984Y194448D02*
X134291D01*
X100984Y194093D02*
X134291D01*
X100984Y193739D02*
X134291D01*
X100984Y193385D02*
X134291D01*
X100984Y193030D02*
X134291D01*
X100984Y192676D02*
X134291D01*
X100984Y192322D02*
X134291D01*
X100984Y191967D02*
X134291D01*
X100984Y191613D02*
X134291D01*
X100984Y191259D02*
X134291D01*
X100984Y190904D02*
X134291D01*
X100984Y190550D02*
X134291D01*
X100984Y190196D02*
X134291D01*
X100984Y189841D02*
X134291D01*
X100984Y189487D02*
X134291D01*
X100984Y189133D02*
X134291D01*
X100984Y188778D02*
X134291D01*
X100984Y188424D02*
X134291D01*
X100984Y188070D02*
X134291D01*
X100984Y187715D02*
X134291D01*
X100984Y187361D02*
X134291D01*
X100984Y187007D02*
X134291D01*
X100984Y186652D02*
X134291D01*
X100984Y186298D02*
X134291D01*
X100984Y185944D02*
X134291D01*
X100984Y185589D02*
X134291D01*
X100984Y185235D02*
X134291D01*
X100984Y184881D02*
X134291D01*
X100984Y184526D02*
X134291D01*
X100984Y184172D02*
X134291D01*
X100984Y183818D02*
X134291D01*
X100984Y183463D02*
X134291D01*
X100984Y183109D02*
X134291D01*
X100984Y182755D02*
X134291D01*
X111535Y255038D02*
X134290D01*
X133948Y252912D02*
X134241D01*
X100984Y135274D02*
X134089D01*
X100984Y139526D02*
X134087D01*
X112264Y255392D02*
X133997D01*
X100984Y135629D02*
X133886D01*
X100984Y139172D02*
X133885D01*
X100984Y135983D02*
X133729D01*
X100984Y138818D02*
X133728D01*
X112778Y255747D02*
X133643D01*
X100984Y136337D02*
X133611D01*
X100984Y138463D02*
X133610D01*
X100984Y136692D02*
X133529D01*
X100984Y138109D02*
X133529D01*
X100984Y137046D02*
X133481D01*
X100984Y137755D02*
X133480D01*
X100984Y137400D02*
X133465D01*
X113176Y256101D02*
X133289D01*
X113498Y256455D02*
X132934D01*
X132166Y256810D02*
X132580D01*
X100984Y254329D02*
X129864D01*
X100984Y264251D02*
X129593D01*
X113761Y256810D02*
X129487D01*
X100984Y246888D02*
X129287D01*
X100984Y253975D02*
X128954D01*
X111436Y263896D02*
X128815D01*
X113978Y257164D02*
X128755D01*
X100984Y247243D02*
X128633D01*
X100984Y253621D02*
X128411D01*
X112202Y263542D02*
X128313D01*
X114155Y257518D02*
X128270D01*
X100984Y247597D02*
X128180D01*
X100984Y253266D02*
X128014D01*
X112731Y263188D02*
X127939D01*
X114296Y257873D02*
X127905D01*
X100984Y247951D02*
X127836D01*
X100984Y252912D02*
X127706D01*
X113139Y262833D02*
X127647D01*
X114406Y258227D02*
X127621D01*
X100984Y248306D02*
X127566D01*
X100984Y252558D02*
X127463D01*
X113467Y262479D02*
X127416D01*
X114487Y258581D02*
X127396D01*
X100984Y248660D02*
X127352D01*
X100984Y252203D02*
X127272D01*
X113736Y262125D02*
X127235D01*
X114539Y258936D02*
X127219D01*
X100984Y249014D02*
X127186D01*
X100984Y251849D02*
X127124D01*
X113957Y261770D02*
X127096D01*
X114564Y259290D02*
X127084D01*
X100984Y249369D02*
X127059D01*
X100984Y251495D02*
X127014D01*
X114138Y261416D02*
X126995D01*
X114563Y259644D02*
X126986D01*
X100984Y249723D02*
X126970D01*
X100984Y251140D02*
X126940D01*
X114283Y261062D02*
X126928D01*
X114535Y259999D02*
X126923D01*
X100984Y250077D02*
X126914D01*
X100984Y250786D02*
X126899D01*
X114396Y260707D02*
X126895D01*
X114480Y260353D02*
X126893D01*
X100984Y250432D02*
X126891D01*
X100984Y133503D02*
X124038D01*
X100984Y120038D02*
X123685D01*
X100984Y133148D02*
X122804D01*
X100984Y120392D02*
X122618D01*
X100984Y132794D02*
X122040D01*
X100984Y120747D02*
X121903D01*
X100984Y132440D02*
X121456D01*
X100984Y121101D02*
X121345D01*
X100984Y132085D02*
X120977D01*
X100984Y121455D02*
X120885D01*
X100984Y131731D02*
X120573D01*
X100984Y121810D02*
X120494D01*
X100984Y131377D02*
X120226D01*
X100984Y122164D02*
X120157D01*
X100984Y131022D02*
X119924D01*
X100984Y122518D02*
X119864D01*
X100984Y130668D02*
X119660D01*
X100984Y122873D02*
X119608D01*
X100984Y130314D02*
X119429D01*
X100984Y123227D02*
X119383D01*
X100984Y129959D02*
X119228D01*
X100984Y123581D02*
X119188D01*
X100984Y129605D02*
X119053D01*
X100984Y123936D02*
X119018D01*
X100984Y129251D02*
X118902D01*
X100984Y124290D02*
X118873D01*
X100984Y128896D02*
X118774D01*
X100984Y124644D02*
X118749D01*
X100984Y128542D02*
X118667D01*
X100984Y124999D02*
X118647D01*
X100984Y128188D02*
X118581D01*
X100984Y125353D02*
X118565D01*
X100984Y127833D02*
X118514D01*
X100984Y125707D02*
X118502D01*
X100984Y127479D02*
X118466D01*
X100984Y126062D02*
X118458D01*
X100984Y127125D02*
X118436D01*
X100984Y126416D02*
X118432D01*
X100984Y126770D02*
X118425D01*
X100984Y235550D02*
X115263D01*
X100984Y211810D02*
X114941D01*
X100984Y200825D02*
X114866D01*
X100984Y224566D02*
X114661D01*
X100984Y235196D02*
X114545D01*
X100984Y211455D02*
X114402D01*
X100984Y201180D02*
X114362D01*
X100984Y224920D02*
X114245D01*
X100984Y234841D02*
X114175D01*
X100984Y211101D02*
X114084D01*
X100984Y201534D02*
X114059D01*
X100984Y225274D02*
X113983D01*
X100984Y234487D02*
X113938D01*
X109575Y210747D02*
X113879D01*
X100984Y201888D02*
X113862D01*
X109965Y225629D02*
X113815D01*
X100984Y234133D02*
X113787D01*
X110333Y210392D02*
X113752D01*
X100984Y202243D02*
X113743D01*
X110562Y225983D02*
X113717D01*
X100984Y233778D02*
X113704D01*
X110810Y210038D02*
X113690D01*
X100984Y202597D02*
X113687D01*
X110974Y226337D02*
X113681D01*
X100984Y233424D02*
X113681D01*
X100984Y233070D02*
X113681D01*
X100984Y232715D02*
X113681D01*
X108850Y232361D02*
X113681D01*
X110052Y232007D02*
X113681D01*
X110618Y231652D02*
X113681D01*
X111015Y231298D02*
X113681D01*
X111315Y230944D02*
X113681D01*
X111545Y230589D02*
X113681D01*
X111721Y230235D02*
X113681D01*
X111851Y229881D02*
X113681D01*
X111941Y229526D02*
X113681D01*
X111992Y229172D02*
X113681D01*
X112008Y228818D02*
X113681D01*
X111988Y228463D02*
X113681D01*
X111932Y228109D02*
X113681D01*
X111838Y227755D02*
X113681D01*
X111703Y227400D02*
X113681D01*
X111521Y227046D02*
X113681D01*
X111283Y226692D02*
X113681D01*
X111158Y209684D02*
X113681D01*
X111425Y209329D02*
X113681D01*
X111630Y208975D02*
X113681D01*
X111784Y208621D02*
X113681D01*
X111896Y208266D02*
X113681D01*
X111968Y207912D02*
X113681D01*
X112004Y207558D02*
X113681D01*
X112003Y207203D02*
X113681D01*
X111968Y206849D02*
X113681D01*
X111895Y206495D02*
X113681D01*
X111783Y206140D02*
X113681D01*
X111628Y205786D02*
X113681D01*
X111423Y205432D02*
X113681D01*
X111156Y205077D02*
X113681D01*
X110807Y204723D02*
X113681D01*
X110329Y204369D02*
X113681D01*
X109567Y204014D02*
X113681D01*
X100984Y203660D02*
X113681D01*
X100984Y203306D02*
X113681D01*
X100984Y202951D02*
X113681D01*
X100984Y179566D02*
X110985D01*
X100984Y169290D02*
X110663D01*
X100984Y179211D02*
X110035D01*
X100984Y174251D02*
X109964D01*
X100984Y169644D02*
X109916D01*
X100984Y174605D02*
X109859D01*
X100984Y178857D02*
X109568D01*
X100984Y173896D02*
X109527D01*
X100984Y169999D02*
X109490D01*
X100984Y174959D02*
X109452D01*
X100984Y178503D02*
X109251D01*
X100984Y105156D02*
X109244D01*
X100984Y173542D02*
X109222D01*
X100984Y170353D02*
X109196D01*
X100984Y175314D02*
X109169D01*
X100984Y178148D02*
X109026D01*
X100984Y173188D02*
X109005D01*
X100984Y170707D02*
X108986D01*
X100984Y175668D02*
X108967D01*
X100984Y177794D02*
X108867D01*
X100984Y172833D02*
X108853D01*
X100984Y171062D02*
X108841D01*
X100984Y176022D02*
X108828D01*
X100984Y177440D02*
X108764D01*
X100984Y172479D02*
X108756D01*
X100984Y171416D02*
X108749D01*
X100984Y176377D02*
X108742D01*
X100984Y177085D02*
X108711D01*
X100984Y172125D02*
X108708D01*
X100984Y171770D02*
X108705D01*
X100984Y176731D02*
X108703D01*
X100984Y114369D02*
X108489D01*
X100984Y263896D02*
X108249D01*
X100984Y255038D02*
X108150D01*
X100984Y105510D02*
X107957D01*
X100984Y114014D02*
X107625D01*
X100984Y263542D02*
X107483D01*
X100984Y255392D02*
X107421D01*
X100984Y105865D02*
X107293D01*
X100984Y113660D02*
X107059D01*
X100984Y263188D02*
X106954D01*
X100984Y255747D02*
X106907D01*
X100984Y106219D02*
X106811D01*
X100984Y113306D02*
X106629D01*
X100984Y262833D02*
X106546D01*
X100984Y256101D02*
X106509D01*
X100984Y106573D02*
X106432D01*
X100984Y112951D02*
X106285D01*
X100984Y262479D02*
X106218D01*
X100984Y256455D02*
X106187D01*
X100984Y106928D02*
X106124D01*
X100984Y112597D02*
X106004D01*
X100984Y262125D02*
X105949D01*
X100984Y256810D02*
X105924D01*
X100984Y107282D02*
X105872D01*
X100984Y112243D02*
X105773D01*
X100984Y261770D02*
X105728D01*
X100984Y257164D02*
X105707D01*
X100984Y107636D02*
X105665D01*
X100984Y111888D02*
X105584D01*
X100984Y261416D02*
X105547D01*
X100984Y257518D02*
X105530D01*
X100984Y107991D02*
X105496D01*
X100984Y111534D02*
X105431D01*
X100984Y261062D02*
X105402D01*
X100984Y257873D02*
X105389D01*
X100984Y108345D02*
X105362D01*
X100984Y111180D02*
X105311D01*
X100984Y260707D02*
X105289D01*
X100984Y258227D02*
X105279D01*
X100984Y108699D02*
X105258D01*
X100984Y110825D02*
X105221D01*
X100984Y260353D02*
X105205D01*
X100984Y258581D02*
X105198D01*
X100984Y109054D02*
X105184D01*
X100984Y110471D02*
X105160D01*
X100984Y259999D02*
X105150D01*
X100984Y258936D02*
X105146D01*
X100984Y109408D02*
X105138D01*
X100984Y110117D02*
X105126D01*
X100984Y259644D02*
X105122D01*
X100984Y259290D02*
X105121D01*
X100984Y109762D02*
X105119D01*
X100984Y232361D02*
X104536D01*
X100984Y204014D02*
X103819D01*
X100984Y210747D02*
X103811D01*
X100984Y225629D02*
X103421D01*
X100984Y232007D02*
X103334D01*
X100984Y204369D02*
X103057D01*
X100984Y210392D02*
X103053D01*
X100984Y225983D02*
X102824D01*
X100984Y231652D02*
X102768D01*
X100984Y204723D02*
X102579D01*
X100984Y210038D02*
X102576D01*
X100984Y226337D02*
X102412D01*
X100984Y231298D02*
X102370D01*
X100984Y205077D02*
X102230D01*
X100984Y209684D02*
X102227D01*
X100984Y226692D02*
X102102D01*
X100984Y230944D02*
X102071D01*
X100984Y205432D02*
X101963D01*
X100984Y209329D02*
X101961D01*
X100984Y227046D02*
X101865D01*
X100984Y230589D02*
X101841D01*
X100984Y205786D02*
X101758D01*
X100984Y208975D02*
X101756D01*
X100984Y227400D02*
X101683D01*
X100984Y230235D02*
X101665D01*
X100984Y206140D02*
X101603D01*
X100984Y208621D02*
X101602D01*
X100984Y227755D02*
X101548D01*
X100984Y229881D02*
X101535D01*
X100984Y206495D02*
X101491D01*
X100984Y208266D02*
X101490D01*
X100984Y228109D02*
X101454D01*
X100984Y229526D02*
X101445D01*
X100984Y206849D02*
X101418D01*
X100984Y207912D02*
X101418D01*
X100984Y228463D02*
X101398D01*
X100984Y229172D02*
X101394D01*
X100984Y207203D02*
X101382D01*
X100984Y207558D02*
X101382D01*
X100984Y228818D02*
X101378D01*
X100000Y100000D02*
X202362D01*
Y269291*
X100000*
Y100000*
G54D26*
X117028Y228150D03*
Y208071D03*
G54D28*
X147244Y137402D02*
Y170866D01*
X135669Y182441*
Y255669*
X130827Y260512*
X155118Y137402D02*
Y173110D01*
X145827Y182402*
Y255512*
X140827Y260512*
G54D30*
X127559Y111811D03*
X107874Y127559D03*
X194488D03*
X174803Y111811D03*
X151181D03*
X139370Y151181D03*
X107874Y198425D03*
X151181Y147244D03*
X159055Y159055D03*
X151181Y186614D03*
X140866Y190000D03*
X166929Y170866D03*
Y198425D03*
X194488Y206299D03*
Y166929D03*
X151181Y229921D03*
X140394Y229961D03*
X166929Y229921D03*
X194488Y245669D03*
G54D31*
X113681Y228150D02*
X114665D01*
X117028Y224213D02*
Y225197D01*
X120374Y228150D02*
X119390D01*
X160827Y246575D02*
Y247559D01*
X164764Y250512D02*
X163780D01*
X160827Y254449D02*
Y253465D01*
X156890Y250512D02*
X157874D01*
X150827Y256575D02*
Y257559D01*
X154764Y260512D02*
X153780D01*
X150827Y264449D02*
Y263465D01*
X146890Y260512D02*
X147874D01*
X150827Y246575D02*
Y247559D01*
X154764Y250512D02*
X153780D01*
X150827Y254449D02*
Y253465D01*
X183937Y126732D02*
X182953D01*
X177047Y133622D02*
Y132638D01*
X170157Y126732D02*
X171142D01*
X177047Y119843D02*
Y120827D01*
X132205Y126732D02*
X131220D01*
X125315Y133622D02*
Y132638D01*
X118425Y126732D02*
X119409D01*
X125315Y119843D02*
Y120827D01*
X108701Y171929D02*
X109685D01*
X111457Y169173D02*
Y170157D01*
X114213Y171929D02*
X113228D01*
X106693Y203839D02*
Y204823D01*
X112008Y207382D02*
X111024D01*
X106693Y210925D02*
Y209941D01*
X101378Y207382D02*
X102362D01*
X141339Y137402D02*
X140354D01*
X137402Y141339D02*
Y140354D01*
X133465Y137402D02*
X134449D01*
X137402Y133465D02*
Y134449D01*
X160827Y256575D02*
Y257559D01*
X164764Y260512D02*
X163780D01*
X160827Y264449D02*
Y263465D01*
X156890Y260512D02*
X157874D01*
X113681Y208071D02*
X114665D01*
X120374D02*
X119390D01*
X117028Y212008D02*
Y211024D01*
X130827Y246575D02*
Y247559D01*
Y254449D02*
Y253465D01*
X126890Y250512D02*
X127874D01*
X140827Y246575D02*
Y247559D01*
Y254449D02*
Y253465D01*
X106693Y225295D02*
Y226280D01*
X112008Y228839D02*
X111024D01*
X106693Y232382D02*
Y231398D01*
X101378Y228839D02*
X102362D01*
G54D32*
X170827Y260512D03*
G74*
X0Y0D02*
M02*
