%
T1C.01181F0S0
X010787Y012756
X012756Y011181
X015118Y011181
X01748Y011181
X019449Y012756
X019449Y016693
X016693Y017087
X015906Y015906
X015118Y014724
X013937Y015118
X010787Y019843
X014087Y019
X015118Y018661
X016693Y019843
X019449Y02063
X019449Y024567
X016693Y022992
X015118Y022992
X014039Y022996
T2C.01969F0S0
X011146Y017685
X011146Y017193
T3C.02362F0S0
X011703Y022894G85X011703Y022736
X011703Y020886G85X011703Y020728
X010531Y022884G85X010807Y022884
X010531Y020738G85X010807Y020738
T4C.03937F0S0
X01374Y01374
X014724Y01374
X015512Y01374
X016496Y01374
T5C.04016F0S0
X013083Y025051
X014083Y025051
X015083Y025051
X016083Y025051
X017083Y025051
X017083Y026051
X016083Y026051
X015083Y026051
X014083Y026051
X013083Y026051
T6C.07874F0S0
X010984Y010984
X019252Y010984
X019252Y025945
X010984Y025945
T7C.09843F0S0
X012531Y012673
X017705Y012673
M01
M02
M08
M30
