*
*
G04 PADS 9.5 Build Number: 522968 generated Gerber (RS-274-X) file*
G04 PC Version=2.1*
*
%IN "Plasma_Gen_Transformer_"*%
*
%MOIN*%
*
%FSLAX35Y35*%
*
*
*
*
G04 PC Standard Apertures*
*
*
G04 Thermal Relief Aperture macro.*
%AMTER*
1,1,$1,0,0*
1,0,$1-$2,0,0*
21,0,$3,$4,0,0,45*
21,0,$3,$4,0,0,135*
%
*
*
G04 Annular Aperture macro.*
%AMANN*
1,1,$1,0,0*
1,0,$2,0,0*
%
*
*
G04 Odd Aperture macro.*
%AMODD*
1,1,$1,0,0*
1,0,$1-0.005,0,0*
%
*
*
G04 PC Custom Aperture Macros*
*
*
*
*
*
*
G04 PC Aperture Table*
*
%ADD010C,0.00004*%
%ADD025C,0.00394*%
%ADD033C,0.0374*%
%ADD041O,0.08858X0.05315*%
%ADD042C,0.08071*%
%ADD045C,0.06102*%
%ADD046C,0.12008*%
%ADD047R,0.06102X0.06102*%
*
*
*
*
G04 PC Circuitry*
G04 Layer Name Plasma_Gen_Transformer_ - circuitry*
%LPD*%
*
*
G04 PC Custom Flashes*
G04 Layer Name Plasma_Gen_Transformer_ - flashes*
%LPD*%
*
*
G04 PC Circuitry*
G04 Layer Name Plasma_Gen_Transformer_ - circuitry*
%LPD*%
*
G54D10*
G54D25*
G01X118209Y225295D02*
X118363Y225306D01*
X118514Y225339*
X118658Y225393*
X118794Y225467*
X118918Y225560*
X119027Y225669*
X119119Y225793*
X119193Y225928*
X119193D02*
X119247Y226073D01*
X119280Y226224*
X119291Y226378*
Y233465*
X119280Y233619*
X119247Y233770*
X119193Y233914*
X119193D02*
X119119Y234050D01*
X119027Y234174*
X118918Y234283*
X118794Y234375*
X118658Y234449*
X118514Y234503*
X118363Y234536*
X118209Y234547*
X115846*
X115692Y234536*
X115541Y234503*
X115397Y234449*
X115261Y234375*
X115137Y234283*
X115028Y234174*
X114936Y234050*
X114862Y233914*
X114808Y233770*
X114775Y233619*
X114764Y233465*
Y226378*
X114775Y226224*
X114808Y226073*
X114862Y225928*
X114936Y225793*
X115028Y225669*
X115137Y225560*
X115261Y225467*
X115397Y225393*
X115541Y225339*
X115692Y225306*
X115846Y225295*
X118209*
X114764Y226378D02*
Y233465D01*
X114961Y225759D02*
Y234083D01*
X115157Y225545D02*
Y234298D01*
X115354Y225416D02*
Y234426D01*
X115551Y225337D02*
Y234506D01*
X115748Y225302D02*
Y234540D01*
X115945Y225295D02*
Y234547D01*
X116142Y225295D02*
Y234547D01*
X116339Y225295D02*
Y234547D01*
X116535Y225295D02*
Y234547D01*
X116732Y225295D02*
Y234547D01*
X116929Y225295D02*
Y234547D01*
X117126Y225295D02*
Y234547D01*
X117323Y225295D02*
Y234547D01*
X117520Y225295D02*
Y234547D01*
X117717Y225295D02*
Y234547D01*
X117913Y225295D02*
Y234547D01*
X118110Y225295D02*
Y234547D01*
X118307Y225302D02*
Y234540D01*
X118504Y225337D02*
Y234506D01*
X118701Y225416D02*
Y234426D01*
X118898Y225545D02*
Y234298D01*
X119094Y225759D02*
Y234083D01*
X118209Y201673D02*
X118363Y201684D01*
X118514Y201717*
X118658Y201771*
X118794Y201845*
X118918Y201938*
X119027Y202047*
X119119Y202171*
X119193Y202306*
X119193D02*
X119247Y202451D01*
X119280Y202602*
X119291Y202756*
Y209843*
X119280Y209997*
X119247Y210148*
X119193Y210292*
X119193D02*
X119119Y210428D01*
X119027Y210552*
X118918Y210661*
X118794Y210753*
X118658Y210827*
X118514Y210881*
X118363Y210914*
X118209Y210925*
X115846*
X115692Y210914*
X115541Y210881*
X115397Y210827*
X115261Y210753*
X115137Y210661*
X115028Y210552*
X114936Y210428*
X114862Y210292*
X114808Y210148*
X114775Y209997*
X114764Y209843*
Y202756*
X114775Y202602*
X114808Y202451*
X114862Y202306*
X114936Y202171*
X115028Y202047*
X115137Y201938*
X115261Y201845*
X115397Y201771*
X115541Y201717*
X115692Y201684*
X115846Y201673*
X118209*
X114764Y202756D02*
Y209843D01*
X114961Y202137D02*
Y210461D01*
X115157Y201923D02*
Y210676D01*
X115354Y201794D02*
Y210804D01*
X115551Y201715D02*
Y210883D01*
X115748Y201680D02*
Y210918D01*
X115945Y201673D02*
Y210925D01*
X116142Y201673D02*
Y210925D01*
X116339Y201673D02*
Y210925D01*
X116535Y201673D02*
Y210925D01*
X116732Y201673D02*
Y210925D01*
X116929Y201673D02*
Y210925D01*
X117126Y201673D02*
Y210925D01*
X117323Y201673D02*
Y210925D01*
X117520Y201673D02*
Y210925D01*
X117717Y201673D02*
Y210925D01*
X117913Y201673D02*
Y210925D01*
X118110Y201673D02*
Y210925D01*
X118307Y201680D02*
Y210918D01*
X118504Y201715D02*
Y210883D01*
X118701Y201794D02*
Y210804D01*
X118898Y201923D02*
Y210676D01*
X119094Y202137D02*
Y210461D01*
X100000Y100000D02*
X202362D01*
Y269291*
X100000*
Y100000*
G54D33*
X111457Y176850D03*
Y171929D03*
G54D41*
X106693Y228839D03*
Y207382D03*
G54D42*
X192520Y109843D03*
Y259449D03*
X109843D03*
Y109843D03*
G54D45*
X170827Y250512D03*
X160827Y260512D03*
Y250512D03*
X150827Y260512D03*
Y250512D03*
X140827Y260512D03*
Y250512D03*
X130827Y260512D03*
Y250512D03*
X164961Y137402D03*
X155118D03*
X147244D03*
X137402D03*
G54D46*
X125315Y126732D03*
X177047D03*
G54D47*
X170827Y260512D03*
X0Y0D02*
M02*
