*
*
G04 PADS 9.5 Build Number: 522968 generated Gerber (RS-274-X) file*
G04 PC Version=2.1*
*
%IN "Plasma_Gen_Transformer_"*%
*
%MOIN*%
*
%FSLAX35Y35*%
*
*
*
*
G04 PC Standard Apertures*
*
*
G04 Thermal Relief Aperture macro.*
%AMTER*
1,1,$1,0,0*
1,0,$1-$2,0,0*
21,0,$3,$4,0,0,45*
21,0,$3,$4,0,0,135*
%
*
*
G04 Annular Aperture macro.*
%AMANN*
1,1,$1,0,0*
1,0,$2,0,0*
%
*
*
G04 Odd Aperture macro.*
%AMODD*
1,1,$1,0,0*
1,0,$1-0.005,0,0*
%
*
*
G04 PC Custom Aperture Macros*
*
*
*
*
*
*
G04 PC Aperture Table*
*
%ADD010C,0.00004*%
%ADD025C,0.00394*%
%ADD028C,0.00787*%
%ADD031C,0.01181*%
%ADD048C,0.01*%
%ADD049C,0.01575*%
%ADD050C,0.005*%
%ADD051C,0.00472*%
*
*
*
*
G04 PC Circuitry*
G04 Layer Name Plasma_Gen_Transformer_ - circuitry*
%LPD*%
*
*
G04 PC Custom Flashes*
G04 Layer Name Plasma_Gen_Transformer_ - flashes*
%LPD*%
*
*
G04 PC Circuitry*
G04 Layer Name Plasma_Gen_Transformer_ - circuitry*
%LPD*%
*
G54D10*
G54D25*
G01X104134Y179055D02*
Y182087D01*
X106693Y180551*
X104134Y179055*
X119626Y166024D02*
Y182756D01*
X107028*
Y166024*
X119626*
X175787Y164370D02*
X182480D01*
Y169488*
X175787*
Y164370*
X172874Y186969D02*
X170512D01*
Y183819*
X172874*
X174449Y186969D02*
X176811D01*
Y183819*
X174449*
X182402Y224843D02*
X171378D01*
Y229567*
X182402*
Y224843*
X177205Y226417D02*
Y227992D01*
X176575Y226417D02*
Y227992D01*
X178071Y227205D02*
X177205D01*
X176575D02*
X175709D01*
X125197Y221654D02*
X122835Y223228D01*
X125197Y224803*
Y221654*
Y223228D02*
X122835D01*
X125197Y223622D02*
X123425D01*
X125197Y224016D02*
X124016D01*
X125197Y224409D02*
X124606D01*
X125197Y222835D02*
X123425D01*
X125197Y222441D02*
X124016D01*
X125197Y222047D02*
X124606D01*
X140827Y196264D02*
Y206102D01*
X144768*
Y196264*
X140827*
X142795Y200709D02*
X142008Y201890D01*
X143583*
X142795Y200709*
X142008Y200512D02*
X143583D01*
X142795Y201181D02*
X142520Y201614D01*
X143071*
X142795Y201181*
X156417Y196264D02*
Y206102D01*
X160358*
Y196264*
X156417*
X158386Y200709D02*
X157598Y201890D01*
X159173*
X158386Y200709*
X157598Y200512D02*
X159173D01*
X158386Y201181D02*
X158110Y201614D01*
X158661*
X158386Y201181*
X181614Y201811D02*
Y195118D01*
X173740Y201909D02*
X177677D01*
X169803Y201811D02*
Y195118D01*
X166654Y194921D02*
X169016Y193346D01*
X166654Y191772*
Y194921*
Y193346D02*
X169016D01*
X166654Y192953D02*
X168425D01*
X166654Y192559D02*
X167835D01*
X166654Y192165D02*
X167244D01*
X166654Y193740D02*
X168425D01*
X166654Y194134D02*
X167835D01*
X166654Y194528D02*
X167244D01*
X181024Y218937D02*
X171181D01*
Y211063*
X181024*
Y218937*
X141220Y214173D02*
Y220472D01*
X144370*
Y214173*
X141220*
X156811D02*
Y220472D01*
X159961*
Y214173*
X156811*
X170512Y177953D02*
X176811D01*
Y174803*
X170512*
Y177953*
X185630Y174803D02*
X179331D01*
Y177953*
X185630*
Y174803*
X181768Y186304D02*
X181661Y186599D01*
X181446Y186895*
X181231Y187042*
X180802*
X180587Y186895*
X180372Y186599*
X180265Y186304*
X180157Y185861*
Y185123*
X180265Y184680*
X180372Y184385*
X180587Y184090*
X180802Y183942*
X181231*
X181446Y184090*
X181661Y184385*
X181768Y184680*
X182734Y186452D02*
X182949Y186599D01*
X183271Y187042*
Y183942*
X125778Y217155D02*
X123415D01*
X122972Y217262*
X122825Y217369*
X122677Y217584*
Y217799*
X122825Y218014*
X122972Y218121*
X123415Y218228*
X123711*
X125039Y216081D02*
X125187D01*
X125482Y215974*
X125630Y215866*
X125778Y215651*
Y215222*
X125630Y215007*
X125482Y214900*
X125187Y214792*
X124892*
X124596Y214900*
X124154Y215115*
X122677Y216188*
Y214685*
X149574Y205039D02*
X146732D01*
Y203751*
X149574Y202785D02*
X146732D01*
X149574D02*
Y201389D01*
X148221Y202785D02*
Y201926D01*
X146732Y202785D02*
Y201389D01*
X149574Y200422D02*
X146732D01*
X149574D02*
Y199671D01*
X149439Y199349*
X149168Y199134*
X148898Y199026*
X148492Y198919*
X147815*
X147409Y199026*
X147138Y199134*
X146868Y199349*
X146732Y199671*
Y200422*
X149033Y197953D02*
X149168Y197738D01*
X149574Y197416*
X146732*
X164968Y205354D02*
X162126D01*
Y204066*
X164968Y203099D02*
X162126D01*
X164968D02*
Y201704D01*
X163615Y203099D02*
Y202241D01*
X162126Y203099D02*
Y201704D01*
X164968Y200737D02*
X162126D01*
X164968D02*
Y199986D01*
X164833Y199664*
X164562Y199449*
X164291Y199341*
X163885Y199234*
X163209*
X162803Y199341*
X162532Y199449*
X162261Y199664*
X162126Y199986*
Y200737*
X164291Y198160D02*
X164427D01*
X164697Y198053*
X164833Y197946*
X164968Y197731*
Y197301*
X164833Y197087*
X164697Y196979*
X164427Y196872*
X164156*
X163885Y196979*
X163479Y197194*
X162126Y198268*
Y196764*
X148696Y219080D02*
X145595D01*
X148696D02*
Y218114D01*
X148548Y217792*
X148401Y217684*
X148105Y217577*
X147810*
X147515Y217684*
X147367Y217792*
X147219Y218114*
Y219080*
Y218329D02*
X145595Y217577D01*
X148105Y216611D02*
X148253Y216396D01*
X148696Y216074*
X145595*
X163971Y219578D02*
X160871D01*
X163971D02*
Y218611D01*
X163824Y218289*
X163676Y218182*
X163381Y218074*
X163086*
X162790Y218182*
X162643Y218289*
X162495Y218611*
Y219578*
Y218826D02*
X160871Y218074D01*
X163971Y216034D02*
X161905Y217108D01*
Y215497*
X163971Y216034D02*
X160871D01*
X164767Y178145D02*
Y175044D01*
Y178145D02*
X165734D01*
X166056Y177997*
X166163Y177849*
X166271Y177554*
Y177259*
X166163Y176964*
X166056Y176816*
X165734Y176668*
X164767*
X165519D02*
X166271Y175044D01*
X167344Y177406D02*
Y177554D01*
X167452Y177849*
X167559Y177997*
X167774Y178145*
X168203*
X168418Y177997*
X168525Y177849*
X168633Y177554*
Y177259*
X168525Y176964*
X168311Y176521*
X167237Y175044*
X168740*
X187445Y178027D02*
Y174926D01*
Y178027D02*
X188411D01*
X188733Y177879*
X188840Y177731*
X188948Y177436*
Y177141*
X188840Y176845*
X188733Y176698*
X188411Y176550*
X187445*
X188196D02*
X188948Y174926D01*
X190129Y178027D02*
X191310D01*
X190666Y176845*
X190988*
X191203Y176698*
X191310Y176550*
X191417Y176107*
Y175812*
X191310Y175369*
X191095Y175074*
X190773Y174926*
X190451*
X190129Y175074*
X190021Y175221*
X189914Y175517*
X100000Y100000D02*
X202362D01*
Y269291*
X100000*
Y100000*
G54D28*
X175547Y265228D02*
Y245831D01*
X126181*
Y265228*
X175547*
X119685Y232874D02*
Y203346D01*
X95669*
Y232874*
X119685*
Y203346*
X100000*
Y232874*
X119685*
X124016Y86260D02*
X178346D01*
Y142165*
X124016*
Y86260*
X122638D02*
X179724D01*
Y90197*
X122638*
Y86260*
X124005Y242259D02*
X123737Y242628D01*
X123334Y242813*
X123334D02*
X122797D01*
X122797D02*
X122394Y242628D01*
X122126Y242259*
Y241890*
X122260Y241521*
X122394Y241336*
X122663Y241152*
X123468Y240782*
X123737Y240598*
X123871Y240413*
X124005Y240044*
Y239491*
X123737Y239122*
X123334Y238937*
X122797*
X122394Y239122*
X122126Y239491*
X126152Y242813D02*
Y238937D01*
X125213Y242813D02*
X127092D01*
X128300Y240598D02*
X130716D01*
X131924Y242813D02*
Y238937D01*
X133534*
X134742Y242813D02*
Y238937D01*
X135950Y242813D02*
Y238937D01*
Y242813D02*
X137829Y238937D01*
Y242813D02*
Y238937D01*
X139037Y242813D02*
Y238937D01*
X140916Y242813D02*
X139037Y240229D01*
X139708Y241152D02*
X140916Y238937D01*
X107323Y198994D02*
Y196225D01*
X107457Y195672*
X107725Y195303*
X108128Y195118*
X108397*
X108799Y195303*
X109068Y195672*
X109202Y196225*
Y198994*
X112289Y198440D02*
X112020Y198809D01*
X111618Y198994*
X111081*
X110678Y198809*
X110410Y198440*
Y198071*
X110544Y197702*
X110678Y197517*
X110947Y197333*
X111752Y196964*
X112020Y196779*
X112155Y196594*
X112289Y196225*
Y195672*
X112020Y195303*
X111618Y195118*
X111081*
X110678Y195303*
X110410Y195672*
X113497Y198994D02*
Y195118D01*
Y198994D02*
X114705D01*
X115107Y198809*
X115242Y198625*
X115376Y198255*
Y197886*
X115242Y197517*
X115107Y197333*
X114705Y197148*
X113497D02*
X114705D01*
X115107Y196964*
X115242Y196779*
X115376Y196410*
Y195856*
X115242Y195487*
X115107Y195303*
X114705Y195118*
X113497*
X119671Y198994D02*
Y195118D01*
X120879Y198994D02*
Y195118D01*
Y198994D02*
X122758Y195118D01*
Y198994D02*
Y195118D01*
X106890Y161868D02*
Y157992D01*
Y161868D02*
X108635D01*
X106890Y160022D02*
X107963D01*
X106890Y157992D02*
X108635D01*
X109843Y161868D02*
X111722Y157992D01*
Y161868D02*
X109843Y157992D01*
X113869Y161868D02*
Y157992D01*
X112929Y161868D02*
X114809D01*
X120311Y161314D02*
Y157992D01*
X119103Y159653D02*
X121519D01*
X124472Y161868D02*
X123130D01*
X122996Y160207*
X123130Y160391*
X123533Y160576*
X123935*
X124338Y160391*
X124606Y160022*
X124741Y159469*
X124606Y159099*
X124472Y158546*
X124204Y158177*
X123801Y157992*
X123398*
X122996Y158177*
X122861Y158361*
X122727Y158730*
X125948Y161868D02*
X127022Y157992D01*
X128096Y161868D02*
X127022Y157992D01*
X125748Y150687D02*
Y146811D01*
Y150687D02*
X126956D01*
X127359Y150502*
X127493Y150317*
X127627Y149948*
Y149395*
X127493Y149026*
X127359Y148841*
X126956Y148656*
X125748*
X128835Y150687D02*
X128969Y150502D01*
X129103Y150687*
X128969Y150871*
X128835Y150687*
X128969Y149395D02*
Y146811D01*
X130311Y149395D02*
Y145519D01*
Y148841D02*
X130580Y149210D01*
X130848Y149395*
X131251*
X131519Y149210*
X131788Y148841*
X131922Y148287*
Y147918*
X131788Y147365*
X131519Y146996*
X131251Y146811*
X130848*
X130580Y146996*
X130311Y147365*
X133130Y148287D02*
X134741D01*
Y148656*
X134606Y149026*
X134472Y149210*
X134204Y149395*
X133801*
X133533Y149210*
X133264Y148841*
X133130Y148287*
Y147918*
X133264Y147365*
X133533Y146996*
X133801Y146811*
X134204*
X134472Y146996*
X134741Y147365*
X136351Y150687D02*
Y147549D01*
X136485Y146996*
X136754Y146811*
X137022*
X135948Y149395D02*
X136888D01*
X138633Y150687D02*
Y147549D01*
X138767Y146996*
X139035Y146811*
X139304*
X138230Y149395D02*
X139170D01*
X140512Y148287D02*
X142122D01*
Y148656*
X141988Y149026*
X141854Y149210*
X141586Y149395*
X141183*
X140914Y149210*
X140646Y148841*
X140512Y148287*
Y147918*
X140646Y147365*
X140914Y146996*
X141183Y146811*
X141586*
X141854Y146996*
X142122Y147365*
X136995Y191511D02*
Y188189D01*
X135787Y189850D02*
X138203D01*
X141156Y192064D02*
X139814D01*
X139680Y190404*
X139814Y190588*
X140217Y190773*
X140619*
X141022Y190588*
X141290Y190219*
X141424Y189665*
X141290Y189296*
X141156Y188743*
X140888Y188374*
X140485Y188189*
X140082*
X139680Y188374*
X139545Y188558*
X139411Y188927*
X142767Y188558D02*
X142632Y188374D01*
X142767Y188189*
X142901Y188374*
X142767Y188558*
X144914Y192064D02*
X144511Y191880D01*
X144243Y191326*
X144109Y190404*
Y189850*
X144243Y188927*
X144511Y188374*
X144914Y188189*
X145183*
X145585Y188374*
X145854Y188927*
X145988Y189850*
Y190404*
X145854Y191326*
X145585Y191880*
X145183Y192064*
X144914*
X147196D02*
X148270Y188189D01*
X149343Y192064D02*
X148270Y188189D01*
X153216Y191590D02*
Y188268D01*
X152008Y189929D02*
X154424D01*
X155900Y192143D02*
X157377D01*
X156571Y190667*
X156974*
X157242Y190482*
X157377Y190298*
X157511Y189744*
Y189375*
X157377Y188821*
X157108Y188452*
X156705Y188268*
X156303*
X155900Y188452*
X155766Y188637*
X155632Y189006*
X158853Y188637D02*
X158719Y188452D01*
X158853Y188268*
X158987Y188452*
X158853Y188637*
X160463Y192143D02*
X161940D01*
X161135Y190667*
X161537*
X161806Y190482*
X161940Y190298*
X162074Y189744*
Y189375*
X161940Y188821*
X161671Y188452*
X161269Y188268*
X160866*
X160463Y188452*
X160329Y188637*
X160195Y189006*
X163282Y192143D02*
X164356Y188268D01*
X165429Y192143D02*
X164356Y188268D01*
X199026Y237559D02*
X193858D01*
X199026D02*
Y235948D01*
X198780Y235412*
X198533Y235233*
X198041Y235054*
X197303*
X196811Y235233*
X196565Y235412*
X196319Y235948*
Y237559*
X199026Y233443D02*
X193858D01*
X197303Y229685D02*
X193858D01*
X196565D02*
X197057Y230043D01*
X197303Y230401*
Y230938*
X197057Y231296*
X196565Y231654*
X195827Y231832*
X195827D02*
X195335D01*
X195335D02*
X194596Y231654D01*
X194104Y231296*
X193858Y230938*
Y230401*
X194104Y230043*
X194596Y229685*
X196565Y226106D02*
X197057Y226285D01*
X197303Y226822*
Y227359*
X197057Y227895*
X196565Y228074*
X196073Y227895*
X195827Y227538*
X195581Y226643*
X195335Y226285*
X194843Y226106*
X194596*
X194104Y226285*
X193858Y226822*
Y227359*
X194104Y227895*
X194596Y228074*
X197303Y224495D02*
X193858D01*
X196319D02*
X197057Y223958D01*
X197303Y223601*
Y223064*
X197057Y222706*
X196319Y222527*
X193858*
X196319D02*
X197057Y221990D01*
X197303Y221632*
Y221095*
X197057Y220737*
X196319Y220558*
X193858*
X197303Y216800D02*
X193858D01*
X196565D02*
X197057Y217158D01*
X197303Y217516*
Y218053*
X197057Y218411*
X196565Y218769*
X195827Y218948*
X195335*
X194596Y218769*
X194104Y218411*
X193858Y218053*
Y217516*
X194104Y217158*
X194596Y216800*
X199026Y211074D02*
X193858D01*
X199026D02*
Y209463D01*
X198780Y208926*
X198533Y208747*
X198041Y208568*
X197303*
X196811Y208747*
X196565Y208926*
X196319Y209463*
Y211074*
X199026Y206958D02*
X198780Y206779D01*
X199026Y206600*
X199272Y206779*
X199026Y206958*
X197303Y206779D02*
X193858D01*
X197303Y204989D02*
X192136D01*
X196565D02*
X197057Y204631D01*
X197303Y204273*
Y203737*
X197057Y203379*
X196565Y203021*
X195827Y202842*
X195335*
X194596Y203021*
X194104Y203379*
X193858Y203737*
Y204273*
X194104Y204631*
X194596Y204989*
X195827Y201231D02*
Y199084D01*
X196319*
X196811Y199263*
X197057Y199442*
X197303Y199800*
Y200336*
X197057Y200694*
X196565Y201052*
X195827Y201231*
X195335*
X194596Y201052*
X194104Y200694*
X193858Y200336*
Y199800*
X194104Y199442*
X194596Y199084*
X199026Y196936D02*
X194843D01*
X194104Y196757*
X193858Y196399*
Y196042*
X197303Y197473D02*
Y196220D01*
X199026Y193894D02*
X194843D01*
X194104Y193715*
X193858Y193357*
Y192999*
X197303Y194431D02*
Y193178D01*
X195827Y191389D02*
Y189241D01*
X196319*
X196811Y189420*
X197057Y189599*
X197303Y189957*
Y190494*
X197057Y190852*
X196565Y191210*
X195827Y191389*
X195335*
X194596Y191210*
X194104Y190852*
X193858Y190494*
Y189957*
X194104Y189599*
X194596Y189241*
X199026Y181725D02*
X195089D01*
X194350Y181904*
X194104Y182083*
X193858Y182441*
Y182799*
X194104Y183157*
X194350Y183336*
X195089Y183515*
X195581*
X199026Y178862D02*
X193858D01*
X199026Y180115D02*
Y177609D01*
Y174567D02*
X193858Y175999D01*
X199026Y174567D02*
X193858Y173135D01*
X195581Y175462D02*
Y173672D01*
X197795Y168840D02*
X198287Y169019D01*
X198780Y169377*
X199026Y169735*
Y170451*
X198780Y170809*
X198287Y171167*
X197795Y171346*
X197057Y171525*
X195827*
X195089Y171346*
X194596Y171167*
X194104Y170809*
X193858Y170451*
Y169735*
X194104Y169377*
X194596Y169019*
X195089Y168840*
X195827*
Y169735D02*
Y168840D01*
X199026Y163114D02*
X193858D01*
X199026D02*
Y161503D01*
X198780Y160966*
X198533Y160787*
X198041Y160608*
X197303*
X196811Y160787*
X196565Y160966*
X196319Y161503*
Y163114*
X197795Y156314D02*
X198287Y156492D01*
X198780Y156850*
X199026Y157208*
Y157924*
X198780Y158282*
X198287Y158640*
X197795Y158819*
X197057Y158998*
X195827*
X195089Y158819*
X194596Y158640*
X194104Y158282*
X193858Y157924*
Y157208*
X194104Y156850*
X194596Y156492*
X195089Y156314*
X199026Y154703D02*
X193858D01*
X199026D02*
Y153092D01*
X198780Y152555*
X198533Y152377*
X198041Y152198*
X197549*
X197057Y152377*
X196811Y152555*
X196565Y153092*
Y154703D02*
Y153092D01*
X196319Y152555*
X196073Y152377*
X195581Y152198*
X194843*
X194350Y152377*
X194104Y152555*
X193858Y153092*
Y154703*
X199026Y146471D02*
X193858Y145039D01*
X199026Y143608D02*
X193858Y145039D01*
X198041Y141997D02*
X198287Y141639D01*
X199026Y141102*
X193858*
X194350Y139313D02*
X194104Y139492D01*
X193858Y139313*
X194104Y139134*
X194350Y139313*
X199026Y136450D02*
X198780Y136986D01*
X198041Y137344*
X196811Y137523*
X196073*
X194843Y137344*
X194104Y136986*
X193858Y136450*
Y136092*
X194104Y135555*
X194843Y135197*
X196073Y135018*
X196811*
X198041Y135197*
X198780Y135555*
X199026Y136092*
Y136450*
G54D31*
X104528Y179764D02*
Y181378D01*
X105906Y180551*
X104528Y179764*
G54D48*
X177953Y260630D02*
X183858Y256693D01*
Y264567*
X177953Y260630*
G54D49*
X179528D02*
X183071Y258268D01*
Y262992*
X182677Y262598*
X179528Y260630*
X181496D02*
X181890Y260236D01*
Y261024*
X181496Y260630*
G54D50*
X125463Y174832D02*
X123100D01*
X122657Y174939*
X122510Y175047*
X122362Y175261*
Y175476*
X122510Y175691*
X122657Y175798*
X123100Y175906*
X123396*
X125463Y173651D02*
Y172470D01*
X124281Y173114*
Y172792*
X124134Y172577*
X123986Y172470*
X123543Y172362*
X123248*
X122805Y172470*
X122510Y172684*
X122362Y173006*
Y173329*
X122510Y173651*
X122657Y173758*
X122953Y173865*
X177244Y163219D02*
Y160118D01*
Y163219D02*
X177996D01*
X178318Y163071*
X178533Y162776*
X178640Y162480*
X178747Y162037*
Y161299*
X178640Y160856*
X178533Y160561*
X178318Y160266*
X177996Y160118*
X177244*
X179714Y162628D02*
X179928Y162776D01*
X180251Y163219*
Y160118*
X175666Y233504D02*
X175558Y233799D01*
X175344Y234094*
X175129Y234242*
X174699*
X174485Y234094*
X174270Y233799*
X174162Y233504*
X174055Y233061*
Y232323*
X174162Y231880*
X174270Y231585*
X174485Y231289*
X174699Y231142*
X175129*
X175344Y231289*
X175558Y231585*
X175666Y231880*
X176739Y233504D02*
Y233652D01*
X176847Y233947*
X176954Y234094*
X177169Y234242*
X177598*
X177813Y234094*
X177921Y233947*
X178028Y233652*
Y233356*
X177921Y233061*
X177706Y232618*
X176632Y231142*
X178135*
X150838Y242825D02*
Y240463D01*
X150730Y240020*
X150623Y239872*
X150408Y239724*
X150193*
X149979Y239872*
X149871Y240020*
X149764Y240463*
Y240758*
X151804Y242234D02*
X152019Y242382D01*
X152341Y242825*
Y239724*
X150798Y149675D02*
Y147313D01*
X150691Y146870*
X150583Y146722*
X150369Y146575*
X150154*
X149939Y146722*
X149832Y146870*
X149724Y147313*
Y147608*
X152838Y149675D02*
X151764Y147608D01*
X153375*
X152838Y149675D02*
Y146575D01*
G54D51*
X187003Y200744D02*
X184788D01*
X184345Y200637*
X184050Y200422*
X183903Y200100*
Y199885*
X184050Y199563*
X184345Y199349*
X184788Y199241*
X187003*
X186265Y198168D02*
X186412D01*
X186412D02*
X186708Y198060D01*
X186855Y197953*
X187003Y197738*
Y197309*
X186855Y197094*
X186708Y196986*
X186412Y196879*
X186117*
X185822Y196986*
X185379Y197201*
X183903Y198275*
Y196772*
X183980Y216924D02*
Y213824D01*
X185268*
X186235Y216334D02*
X186450Y216481D01*
X186772Y216924*
Y213824*
X0Y0D02*
M02*
