*
*
G04 PADS 9.5 Build Number: 522968 generated Gerber (RS-274-X) file*
G04 PC Version=2.1*
*
%IN "Plasma_Gen_Transformer_"*%
*
%MOIN*%
*
%FSLAX35Y35*%
*
*
*
*
G04 PC Standard Apertures*
*
*
G04 Thermal Relief Aperture macro.*
%AMTER*
1,1,$1,0,0*
1,0,$1-$2,0,0*
21,0,$3,$4,0,0,45*
21,0,$3,$4,0,0,135*
%
*
*
G04 Annular Aperture macro.*
%AMANN*
1,1,$1,0,0*
1,0,$2,0,0*
%
*
*
G04 Odd Aperture macro.*
%AMODD*
1,1,$1,0,0*
1,0,$1-0.005,0,0*
%
*
*
G04 PC Custom Aperture Macros*
*
*
*
*
*
*
G04 PC Aperture Table*
*
%ADD010C,0.00004*%
%ADD011R,0.01969X0.01969*%
%ADD012R,0.08858X0.04724*%
%ADD014C,0.07874*%
%ADD015R,0.15748X0.15748*%
%ADD016C,0.00394*%
%ADD017C,0.02362*%
%ADD018C,0.04724*%
%ADD019C,0.00787*%
%ADD020C,0.02559*%
%ADD021C,0.01181*%
%ADD041R,0.02953X0.03937*%
%ADD042C,0.0315*%
*
*
*
*
G04 PC Circuitry*
G04 Layer Name Plasma_Gen_Transformer_ - circuitry*
%LPD*%
*
*
G04 PC Custom Flashes*
G04 Layer Name Plasma_Gen_Transformer_ - flashes*
%LPD*%
*
*
G04 PC Circuitry*
G04 Layer Name Plasma_Gen_Transformer_ - circuitry*
%LPD*%
*
G54D10*
G54D11*
G01X157598Y245472D03*
Y248622D03*
X161811Y239370D03*
Y242520D03*
X122047Y248425D03*
X125197D03*
G54D12*
X141831Y265551D03*
X160531D03*
X141831Y258858D03*
X160531D03*
G54D14*
X109843Y109843D03*
X192520D03*
X109843Y259449D03*
X192520D03*
G54D15*
X129961Y108701D03*
X172244D03*
G54D16*
X131496Y227008D02*
X149055D01*
Y242480*
X131496*
Y227008*
X131614D02*
Y242480D01*
X131811Y227008D02*
Y242480D01*
X132008Y227008D02*
Y242480D01*
X132205Y227008D02*
Y242480D01*
X132402Y227008D02*
Y242480D01*
X132598Y227008D02*
Y242480D01*
X132795Y227008D02*
Y242480D01*
X132992Y227008D02*
Y242480D01*
X133189Y227008D02*
Y242480D01*
X133386Y227008D02*
Y242480D01*
X133583Y227008D02*
Y242480D01*
X133780Y227008D02*
Y242480D01*
X133976Y227008D02*
Y242480D01*
X134173Y227008D02*
Y242480D01*
X134370Y227008D02*
Y242480D01*
X134567Y227008D02*
Y242480D01*
X134764Y227008D02*
Y242480D01*
X134961Y227008D02*
Y242480D01*
X135157Y227008D02*
Y242480D01*
X135354Y227008D02*
Y242480D01*
X135551Y227008D02*
Y242480D01*
X135748Y227008D02*
Y242480D01*
X135945Y227008D02*
Y242480D01*
X136142Y227008D02*
Y242480D01*
X136339Y227008D02*
Y242480D01*
X136535Y227008D02*
Y242480D01*
X136732Y227008D02*
Y242480D01*
X136929Y227008D02*
Y242480D01*
X137126Y227008D02*
Y242480D01*
X137323Y227008D02*
Y242480D01*
X137520Y227008D02*
Y242480D01*
X137717Y227008D02*
Y242480D01*
X137913Y227008D02*
Y242480D01*
X138110Y227008D02*
Y242480D01*
X138307Y227008D02*
Y242480D01*
X138504Y227008D02*
Y242480D01*
X138701Y227008D02*
Y242480D01*
X138898Y227008D02*
Y242480D01*
X139094Y227008D02*
Y242480D01*
X139291Y227008D02*
Y242480D01*
X139488Y227008D02*
Y242480D01*
X139685Y227008D02*
Y242480D01*
X139882Y227008D02*
Y242480D01*
X140079Y227008D02*
Y242480D01*
X140276Y227008D02*
Y242480D01*
X140472Y227008D02*
Y242480D01*
X140669Y227008D02*
Y242480D01*
X140866Y227008D02*
Y242480D01*
X141063Y227008D02*
Y242480D01*
X141260Y227008D02*
Y242480D01*
X141457Y227008D02*
Y242480D01*
X141654Y227008D02*
Y242480D01*
X141850Y227008D02*
Y242480D01*
X142047Y227008D02*
Y242480D01*
X142244Y227008D02*
Y242480D01*
X142441Y227008D02*
Y242480D01*
X142638Y227008D02*
Y242480D01*
X142835Y227008D02*
Y242480D01*
X143031Y227008D02*
Y242480D01*
X143228Y227008D02*
Y242480D01*
X143425Y227008D02*
Y242480D01*
X143622Y227008D02*
Y242480D01*
X143819Y227008D02*
Y242480D01*
X144016Y227008D02*
Y242480D01*
X144213Y227008D02*
Y242480D01*
X144409Y227008D02*
Y242480D01*
X144606Y227008D02*
Y242480D01*
X144803Y227008D02*
Y242480D01*
X145000Y227008D02*
Y242480D01*
X145197Y227008D02*
Y242480D01*
X145394Y227008D02*
Y242480D01*
X145591Y227008D02*
Y242480D01*
X145787Y227008D02*
Y242480D01*
X145984Y227008D02*
Y242480D01*
X146181Y227008D02*
Y242480D01*
X146378Y227008D02*
Y242480D01*
X146575Y227008D02*
Y242480D01*
X146772Y227008D02*
Y242480D01*
X146969Y227008D02*
Y242480D01*
X147165Y227008D02*
Y242480D01*
X147362Y227008D02*
Y242480D01*
X147559Y227008D02*
Y242480D01*
X147756Y227008D02*
Y242480D01*
X147953Y227008D02*
Y242480D01*
X148150Y227008D02*
Y242480D01*
X148346Y227008D02*
Y242480D01*
X148543Y227008D02*
Y242480D01*
X148740Y227008D02*
Y242480D01*
X148937Y227008D02*
Y242480D01*
X129547Y237638D02*
X151004D01*
Y240807*
X129547*
Y237638*
X129646D02*
Y240807D01*
X129843Y237638D02*
Y240807D01*
X130039Y237638D02*
Y240807D01*
X130236Y237638D02*
Y240807D01*
X130433Y237638D02*
Y240807D01*
X130630Y237638D02*
Y240807D01*
X130827Y237638D02*
Y240807D01*
X131024Y237638D02*
Y240807D01*
X131220Y237638D02*
Y240807D01*
X131417Y237638D02*
Y240807D01*
X131614Y237638D02*
Y240807D01*
X131811Y237638D02*
Y240807D01*
X132008Y237638D02*
Y240807D01*
X132205Y237638D02*
Y240807D01*
X132402Y237638D02*
Y240807D01*
X132598Y237638D02*
Y240807D01*
X132795Y237638D02*
Y240807D01*
X132992Y237638D02*
Y240807D01*
X133189Y237638D02*
Y240807D01*
X133386Y237638D02*
Y240807D01*
X133583Y237638D02*
Y240807D01*
X133780Y237638D02*
Y240807D01*
X133976Y237638D02*
Y240807D01*
X134173Y237638D02*
Y240807D01*
X134370Y237638D02*
Y240807D01*
X134567Y237638D02*
Y240807D01*
X134764Y237638D02*
Y240807D01*
X134961Y237638D02*
Y240807D01*
X135157Y237638D02*
Y240807D01*
X135354Y237638D02*
Y240807D01*
X135551Y237638D02*
Y240807D01*
X135748Y237638D02*
Y240807D01*
X135945Y237638D02*
Y240807D01*
X136142Y237638D02*
Y240807D01*
X136339Y237638D02*
Y240807D01*
X136535Y237638D02*
Y240807D01*
X136732Y237638D02*
Y240807D01*
X136929Y237638D02*
Y240807D01*
X137126Y237638D02*
Y240807D01*
X137323Y237638D02*
Y240807D01*
X137520Y237638D02*
Y240807D01*
X137717Y237638D02*
Y240807D01*
X137913Y237638D02*
Y240807D01*
X138110Y237638D02*
Y240807D01*
X138307Y237638D02*
Y240807D01*
X138504Y237638D02*
Y240807D01*
X138701Y237638D02*
Y240807D01*
X138898Y237638D02*
Y240807D01*
X139094Y237638D02*
Y240807D01*
X139291Y237638D02*
Y240807D01*
X139488Y237638D02*
Y240807D01*
X139685Y237638D02*
Y240807D01*
X139882Y237638D02*
Y240807D01*
X140079Y237638D02*
Y240807D01*
X140276Y237638D02*
Y240807D01*
X140472Y237638D02*
Y240807D01*
X140669Y237638D02*
Y240807D01*
X140866Y237638D02*
Y240807D01*
X141063Y237638D02*
Y240807D01*
X141260Y237638D02*
Y240807D01*
X141457Y237638D02*
Y240807D01*
X141654Y237638D02*
Y240807D01*
X141850Y237638D02*
Y240807D01*
X142047Y237638D02*
Y240807D01*
X142244Y237638D02*
Y240807D01*
X142441Y237638D02*
Y240807D01*
X142638Y237638D02*
Y240807D01*
X142835Y237638D02*
Y240807D01*
X143031Y237638D02*
Y240807D01*
X143228Y237638D02*
Y240807D01*
X143425Y237638D02*
Y240807D01*
X143622Y237638D02*
Y240807D01*
X143819Y237638D02*
Y240807D01*
X144016Y237638D02*
Y240807D01*
X144213Y237638D02*
Y240807D01*
X144409Y237638D02*
Y240807D01*
X144606Y237638D02*
Y240807D01*
X144803Y237638D02*
Y240807D01*
X145000Y237638D02*
Y240807D01*
X145197Y237638D02*
Y240807D01*
X145394Y237638D02*
Y240807D01*
X145591Y237638D02*
Y240807D01*
X145787Y237638D02*
Y240807D01*
X145984Y237638D02*
Y240807D01*
X146181Y237638D02*
Y240807D01*
X146378Y237638D02*
Y240807D01*
X146575Y237638D02*
Y240807D01*
X146772Y237638D02*
Y240807D01*
X146969Y237638D02*
Y240807D01*
X147165Y237638D02*
Y240807D01*
X147362Y237638D02*
Y240807D01*
X147559Y237638D02*
Y240807D01*
X147756Y237638D02*
Y240807D01*
X147953Y237638D02*
Y240807D01*
X148150Y237638D02*
Y240807D01*
X148346Y237638D02*
Y240807D01*
X148543Y237638D02*
Y240807D01*
X148740Y237638D02*
Y240807D01*
X148937Y237638D02*
Y240807D01*
X149134Y237638D02*
Y240807D01*
X149331Y237638D02*
Y240807D01*
X149528Y237638D02*
Y240807D01*
X149724Y237638D02*
Y240807D01*
X149921Y237638D02*
Y240807D01*
X150118Y237638D02*
Y240807D01*
X150315Y237638D02*
Y240807D01*
X150512Y237638D02*
Y240807D01*
X150709Y237638D02*
Y240807D01*
X150906Y237638D02*
Y240807D01*
X169724Y227008D02*
X187283D01*
Y242480*
X169724*
Y227008*
X169843D02*
Y242480D01*
X170039Y227008D02*
Y242480D01*
X170236Y227008D02*
Y242480D01*
X170433Y227008D02*
Y242480D01*
X170630Y227008D02*
Y242480D01*
X170827Y227008D02*
Y242480D01*
X171024Y227008D02*
Y242480D01*
X171220Y227008D02*
Y242480D01*
X171417Y227008D02*
Y242480D01*
X171614Y227008D02*
Y242480D01*
X171811Y227008D02*
Y242480D01*
X172008Y227008D02*
Y242480D01*
X172205Y227008D02*
Y242480D01*
X172402Y227008D02*
Y242480D01*
X172598Y227008D02*
Y242480D01*
X172795Y227008D02*
Y242480D01*
X172992Y227008D02*
Y242480D01*
X173189Y227008D02*
Y242480D01*
X173386Y227008D02*
Y242480D01*
X173583Y227008D02*
Y242480D01*
X173780Y227008D02*
Y242480D01*
X173976Y227008D02*
Y242480D01*
X174173Y227008D02*
Y242480D01*
X174370Y227008D02*
Y242480D01*
X174567Y227008D02*
Y242480D01*
X174764Y227008D02*
Y242480D01*
X174961Y227008D02*
Y242480D01*
X175157Y227008D02*
Y242480D01*
X175354Y227008D02*
Y242480D01*
X175551Y227008D02*
Y242480D01*
X175748Y227008D02*
Y242480D01*
X175945Y227008D02*
Y242480D01*
X176142Y227008D02*
Y242480D01*
X176339Y227008D02*
Y242480D01*
X176535Y227008D02*
Y242480D01*
X176732Y227008D02*
Y242480D01*
X176929Y227008D02*
Y242480D01*
X177126Y227008D02*
Y242480D01*
X177323Y227008D02*
Y242480D01*
X177520Y227008D02*
Y242480D01*
X177717Y227008D02*
Y242480D01*
X177913Y227008D02*
Y242480D01*
X178110Y227008D02*
Y242480D01*
X178307Y227008D02*
Y242480D01*
X178504Y227008D02*
Y242480D01*
X178701Y227008D02*
Y242480D01*
X178898Y227008D02*
Y242480D01*
X179094Y227008D02*
Y242480D01*
X179291Y227008D02*
Y242480D01*
X179488Y227008D02*
Y242480D01*
X179685Y227008D02*
Y242480D01*
X179882Y227008D02*
Y242480D01*
X180079Y227008D02*
Y242480D01*
X180276Y227008D02*
Y242480D01*
X180472Y227008D02*
Y242480D01*
X180669Y227008D02*
Y242480D01*
X180866Y227008D02*
Y242480D01*
X181063Y227008D02*
Y242480D01*
X181260Y227008D02*
Y242480D01*
X181457Y227008D02*
Y242480D01*
X181654Y227008D02*
Y242480D01*
X181850Y227008D02*
Y242480D01*
X182047Y227008D02*
Y242480D01*
X182244Y227008D02*
Y242480D01*
X182441Y227008D02*
Y242480D01*
X182638Y227008D02*
Y242480D01*
X182835Y227008D02*
Y242480D01*
X183031Y227008D02*
Y242480D01*
X183228Y227008D02*
Y242480D01*
X183425Y227008D02*
Y242480D01*
X183622Y227008D02*
Y242480D01*
X183819Y227008D02*
Y242480D01*
X184016Y227008D02*
Y242480D01*
X184213Y227008D02*
Y242480D01*
X184409Y227008D02*
Y242480D01*
X184606Y227008D02*
Y242480D01*
X184803Y227008D02*
Y242480D01*
X185000Y227008D02*
Y242480D01*
X185197Y227008D02*
Y242480D01*
X185394Y227008D02*
Y242480D01*
X185591Y227008D02*
Y242480D01*
X185787Y227008D02*
Y242480D01*
X185984Y227008D02*
Y242480D01*
X186181Y227008D02*
Y242480D01*
X186378Y227008D02*
Y242480D01*
X186575Y227008D02*
Y242480D01*
X186772Y227008D02*
Y242480D01*
X186969Y227008D02*
Y242480D01*
X187165Y227008D02*
Y242480D01*
X167776Y237638D02*
X189232D01*
Y240807*
X167776*
Y237638*
X167874D02*
Y240807D01*
X168071Y237638D02*
Y240807D01*
X168268Y237638D02*
Y240807D01*
X168465Y237638D02*
Y240807D01*
X168661Y237638D02*
Y240807D01*
X168858Y237638D02*
Y240807D01*
X169055Y237638D02*
Y240807D01*
X169252Y237638D02*
Y240807D01*
X169449Y237638D02*
Y240807D01*
X169646Y237638D02*
Y240807D01*
X169843Y237638D02*
Y240807D01*
X170039Y237638D02*
Y240807D01*
X170236Y237638D02*
Y240807D01*
X170433Y237638D02*
Y240807D01*
X170630Y237638D02*
Y240807D01*
X170827Y237638D02*
Y240807D01*
X171024Y237638D02*
Y240807D01*
X171220Y237638D02*
Y240807D01*
X171417Y237638D02*
Y240807D01*
X171614Y237638D02*
Y240807D01*
X171811Y237638D02*
Y240807D01*
X172008Y237638D02*
Y240807D01*
X172205Y237638D02*
Y240807D01*
X172402Y237638D02*
Y240807D01*
X172598Y237638D02*
Y240807D01*
X172795Y237638D02*
Y240807D01*
X172992Y237638D02*
Y240807D01*
X173189Y237638D02*
Y240807D01*
X173386Y237638D02*
Y240807D01*
X173583Y237638D02*
Y240807D01*
X173780Y237638D02*
Y240807D01*
X173976Y237638D02*
Y240807D01*
X174173Y237638D02*
Y240807D01*
X174370Y237638D02*
Y240807D01*
X174567Y237638D02*
Y240807D01*
X174764Y237638D02*
Y240807D01*
X174961Y237638D02*
Y240807D01*
X175157Y237638D02*
Y240807D01*
X175354Y237638D02*
Y240807D01*
X175551Y237638D02*
Y240807D01*
X175748Y237638D02*
Y240807D01*
X175945Y237638D02*
Y240807D01*
X176142Y237638D02*
Y240807D01*
X176339Y237638D02*
Y240807D01*
X176535Y237638D02*
Y240807D01*
X176732Y237638D02*
Y240807D01*
X176929Y237638D02*
Y240807D01*
X177126Y237638D02*
Y240807D01*
X177323Y237638D02*
Y240807D01*
X177520Y237638D02*
Y240807D01*
X177717Y237638D02*
Y240807D01*
X177913Y237638D02*
Y240807D01*
X178110Y237638D02*
Y240807D01*
X178307Y237638D02*
Y240807D01*
X178504Y237638D02*
Y240807D01*
X178701Y237638D02*
Y240807D01*
X178898Y237638D02*
Y240807D01*
X179094Y237638D02*
Y240807D01*
X179291Y237638D02*
Y240807D01*
X179488Y237638D02*
Y240807D01*
X179685Y237638D02*
Y240807D01*
X179882Y237638D02*
Y240807D01*
X180079Y237638D02*
Y240807D01*
X180276Y237638D02*
Y240807D01*
X180472Y237638D02*
Y240807D01*
X180669Y237638D02*
Y240807D01*
X180866Y237638D02*
Y240807D01*
X181063Y237638D02*
Y240807D01*
X181260Y237638D02*
Y240807D01*
X181457Y237638D02*
Y240807D01*
X181654Y237638D02*
Y240807D01*
X181850Y237638D02*
Y240807D01*
X182047Y237638D02*
Y240807D01*
X182244Y237638D02*
Y240807D01*
X182441Y237638D02*
Y240807D01*
X182638Y237638D02*
Y240807D01*
X182835Y237638D02*
Y240807D01*
X183031Y237638D02*
Y240807D01*
X183228Y237638D02*
Y240807D01*
X183425Y237638D02*
Y240807D01*
X183622Y237638D02*
Y240807D01*
X183819Y237638D02*
Y240807D01*
X184016Y237638D02*
Y240807D01*
X184213Y237638D02*
Y240807D01*
X184409Y237638D02*
Y240807D01*
X184606Y237638D02*
Y240807D01*
X184803Y237638D02*
Y240807D01*
X185000Y237638D02*
Y240807D01*
X185197Y237638D02*
Y240807D01*
X185394Y237638D02*
Y240807D01*
X185591Y237638D02*
Y240807D01*
X185787Y237638D02*
Y240807D01*
X185984Y237638D02*
Y240807D01*
X186181Y237638D02*
Y240807D01*
X186378Y237638D02*
Y240807D01*
X186575Y237638D02*
Y240807D01*
X186772Y237638D02*
Y240807D01*
X186969Y237638D02*
Y240807D01*
X187165Y237638D02*
Y240807D01*
X187362Y237638D02*
Y240807D01*
X187559Y237638D02*
Y240807D01*
X187756Y237638D02*
Y240807D01*
X187953Y237638D02*
Y240807D01*
X188150Y237638D02*
Y240807D01*
X188346Y237638D02*
Y240807D01*
X188543Y237638D02*
Y240807D01*
X188740Y237638D02*
Y240807D01*
X188937Y237638D02*
Y240807D01*
X189134Y237638D02*
Y240807D01*
X114567Y259449D02*
G75*
G03X114567I-4724J0D01*
G01X197244D02*
G03X197244I-4724J0D01*
G01X201378Y222402D02*
Y268110D01*
G03X201181Y268307I-197J0*
G01X166125*
G03X165931Y268077I0J-197*
G01X165945Y267913D02*
G03X165931Y268077I-984J0D01*
G01X165945Y267913D02*
Y263189D01*
X165505Y262369D02*
G03X165945Y263189I-544J820D01*
G01X165505Y262369D02*
G03Y262041I109J-164D01*
G01X165945Y261220D02*
G03X165505Y262041I-984J0D01*
G01X165945Y261220D02*
Y256496D01*
X164961Y255512D02*
G03X165945Y256496I-0J984D01*
G01X164961Y255512D02*
X159173D01*
G03X158976Y255315I0J-197*
G01Y250629*
G03X159075Y250459I197J0*
G01X159567Y249606D02*
G03X159075Y250459I-984J0D01*
G01X159567Y249606D02*
Y249055D01*
G03X159921Y248937I197J0*
G01X163268Y249081D02*
G03X159921Y248937I-1614J-1443D01*
G01X163268Y249081D02*
G03X163414Y249016I146J132D01*
G01X168346*
G03X168543Y249213I0J197*
G01Y250413*
X169528Y251398D02*
G03X168543Y250413I-0J-985D01*
G01X169528Y251398D02*
X172480D01*
X173333Y250904D02*
G03X172480Y251398I-853J-491D01*
G01X173333Y250904D02*
G03X173675I171J99D01*
G01X174528Y251398D02*
G03X173675Y250904I-0J-985D01*
G01X174528Y251398D02*
X177480D01*
X178333Y250904D02*
G03X177480Y251398I-853J-491D01*
G01X178333Y250904D02*
G03X178675I171J99D01*
G01X179528Y251398D02*
G03X178675Y250904I-0J-985D01*
G01X179528Y251398D02*
X182480D01*
X183333Y250904D02*
G03X182480Y251398I-853J-491D01*
G01X183333Y250904D02*
G03X183675I171J99D01*
G01X184528Y251398D02*
G03X183675Y250904I-0J-985D01*
G01X184528Y251398D02*
X187480D01*
X188465Y250413D02*
G03X187480Y251398I-985J0D01*
G01X188465Y250413D02*
Y246476D01*
X187480Y245492D02*
G03X188465Y246476I0J984D01*
G01X187480Y245492D02*
X184528D01*
X183675Y245985D02*
G03X184528Y245492I853J491D01*
G01X183675Y245985D02*
G03X183333I-171J-98D01*
G01X182480Y245492D02*
G03X183333Y245985I0J984D01*
G01X182480Y245492D02*
X179528D01*
X178675Y245985D02*
G03X179528Y245492I853J491D01*
G01X178675Y245985D02*
G03X178333I-171J-98D01*
G01X177480Y245492D02*
G03X178333Y245985I0J984D01*
G01X177480Y245492D02*
X174528D01*
X173675Y245985D02*
G03X174528Y245492I853J491D01*
G01X173675Y245985D02*
G03X173333I-171J-98D01*
G01X172480Y245492D02*
G03X173333Y245985I0J984D01*
G01X172480Y245492D02*
X169528D01*
X168606Y246132D02*
G03X169528Y245492I922J344D01*
G01X168606Y246132D02*
G03X168421Y246260I-185J-69D01*
G01X163414*
G03X163268Y246194I0J-197*
G01X163241Y246166D02*
G03X163268Y246194I-1587J1472D01*
G01X163241Y246166D02*
G03X163189Y246032I145J-134D01*
G01Y244527*
G03X163287Y244356I197J-0*
G01X163780Y243504D02*
G03X163287Y244356I-985J-0D01*
G01X163780Y243504D02*
Y241535D01*
X163648Y241043D02*
G03X163780Y241535I-853J492D01*
G01X163648Y241043D02*
G03Y240846I170J-98D01*
G01X163780Y240354D02*
G03X163648Y240846I-985J0D01*
G01X163780Y240354D02*
Y238386D01*
X162795Y237402D02*
G03X163780Y238386I0J984D01*
G01X162795Y237402D02*
X160827D01*
X159842Y238386D02*
G03X160827Y237402I985J-0D01*
G01X159842Y238386D02*
Y240354D01*
X159974Y240846D02*
G03X159842Y240354I853J-492D01*
G01X159974Y240846D02*
G03Y241043I-170J99D01*
G01X159842Y241535D02*
G03X159974Y241043I985J0D01*
G01X159842Y241535D02*
Y243504D01*
X160335Y244356D02*
G03X159842Y243504I492J-852D01*
G01X160335Y244356D02*
G03X160433Y244527I-99J171D01*
G01Y245748*
G03X160354Y245905I-197J0*
G01X159921Y246339D02*
G03X160354Y245906I1733J1299D01*
G01X159921Y246339D02*
G03X159567Y246220I-157J-119D01*
G01Y244488*
X158583Y243504D02*
G03X159567Y244488I-0J984D01*
G01X158583Y243504D02*
X156614D01*
X155630Y244488D02*
G03X156614Y243504I984J0D01*
G01X155630Y244488D02*
Y246457D01*
X155762Y246949D02*
G03X155630Y246457I852J-492D01*
G01X155762Y246949D02*
G03Y247146I-171J98D01*
G01X155630Y247638D02*
G03X155762Y247146I984J-0D01*
G01X155630Y247638D02*
Y249606D01*
X156122Y250459D02*
G03X155630Y249606I492J-853D01*
G01X156122Y250459D02*
G03X156220Y250629I-98J170D01*
G01Y255318*
G03X156037Y255514I-196J-0*
G01X155118Y256496D02*
G03X156037Y255514I984J0D01*
G01X155118Y256496D02*
Y257283D01*
G03X154921Y257480I-197J0*
G01X147441*
G03X147244Y257283I-0J-197*
G01Y256496*
X146260Y255512D02*
G03X147244Y256496I-0J984D01*
G01X146260Y255512D02*
X137402D01*
X136417Y256496D02*
G03X137402Y255512I985J0D01*
G01X136417Y256496D02*
Y261220D01*
X136857Y262041D02*
G03X136417Y261220I545J-821D01*
G01X136857Y262041D02*
G03Y262369I-108J164D01*
G01X136417Y263189D02*
G03X136857Y262369I985J-0D01*
G01X136417Y263189D02*
Y267913D01*
X136431Y268077D02*
G03X136417Y267913I971J-164D01*
G01X136431Y268077D02*
G03X136237Y268307I-194J33D01*
G01X101181*
G03X100984Y268110I0J-197*
G01Y222402*
G03X101181Y222205I197J-0*
G01X134180*
G03X134353Y222496I-0J197*
G01X134075Y223583D02*
G03X134353Y222496I2264J-0D01*
G01X134075Y223583D02*
Y223661D01*
G03X133878Y223858I-197J0*
G01X131299*
X130315Y224843D02*
G03X131299Y223858I984J-0D01*
G01X130315Y224843D02*
Y226811D01*
Y236260*
G03X130118Y236457I-197J-0*
G01X129350*
X128366Y237441D02*
G03X129350Y236457I984J-0D01*
G01X128366Y237441D02*
Y241004D01*
X129350Y241988D02*
G03X128366Y241004I0J-984D01*
G01X129350Y241988D02*
X130118D01*
G03X130315Y242185I0J197*
G01Y242677*
X131299Y243661D02*
G03X130315Y242677I0J-984D01*
G01X131299Y243661D02*
X149252D01*
X150236Y242677D02*
G03X149252Y243661I-984J0D01*
G01X150236Y242677D02*
Y242185D01*
G03X150433Y241988I197J0*
G01X151201*
X152185Y241004D02*
G03X151201Y241988I-984J-0D01*
G01X152185Y241004D02*
Y237441D01*
X151201Y236457D02*
G03X152185Y237441I-0J984D01*
G01X151201Y236457D02*
X150433D01*
G03X150236Y236260I0J-197*
G01Y228780*
Y226811*
Y224843*
X149252Y223858D02*
G03X150236Y224843I-0J985D01*
G01X149252Y223858D02*
X146299D01*
X145315Y224843D02*
G03X146299Y223858I984J-0D01*
G01X145315Y224843D02*
Y225630D01*
G03X145118Y225827I-197J-0*
G01X138799*
G03X138602Y225630I0J-197*
G01Y223583*
X138325Y222496D02*
G03X138602Y223583I-1986J1087D01*
G01X138325Y222496D02*
G03X138497Y222205I172J-94D01*
G01X173755*
G03X173911Y222521I0J197*
G01X173445Y223898D02*
G03X173911Y222521I2264J-0D01*
G01X173445Y223898D02*
Y223945D01*
G03X173120Y224095I-197J-0*
G01X172480Y223858D02*
G03X173120Y224095I0J985D01*
G01X172480Y223858D02*
X169528D01*
X168543Y224843D02*
G03X169528Y223858I985J-0D01*
G01X168543Y224843D02*
Y226811D01*
Y236260*
G03X168346Y236457I-197J-0*
G01X167579*
X166594Y237441D02*
G03X167579Y236457I985J-0D01*
G01X166594Y237441D02*
Y241004D01*
X167579Y241988D02*
G03X166594Y241004I-0J-984D01*
G01X167579Y241988D02*
X168346D01*
G03X168543Y242185I0J197*
G01Y242677*
X169528Y243661D02*
G03X168543Y242677I-0J-984D01*
G01X169528Y243661D02*
X187480D01*
X188465Y242677D02*
G03X187480Y243661I-985J0D01*
G01X188465Y242677D02*
Y242185D01*
G03X188661Y241988I196J0*
G01X189429*
X190413Y241004D02*
G03X189429Y241988I-984J-0D01*
G01X190413Y241004D02*
Y237441D01*
X189429Y236457D02*
G03X190413Y237441I0J984D01*
G01X189429Y236457D02*
X188661D01*
G03X188465Y236260I0J-197*
G01Y228780*
Y226811*
Y224843*
X187480Y223858D02*
G03X188465Y224843I0J985D01*
G01X187480Y223858D02*
X184528D01*
X183543Y224843D02*
G03X184528Y223858I985J-0D01*
G01X183543Y224843D02*
Y225630D01*
G03X183346Y225827I-197J-0*
G01X178169*
G03X177972Y225630I0J-197*
G01Y223898*
X177506Y222521D02*
G03X177972Y223898I-1797J1377D01*
G01X177506Y222521D02*
G03X177662Y222205I156J-119D01*
G01X201181*
G03X201378Y222402I0J197*
G01X155558Y262041D02*
G03Y262369I-109J164D01*
G01X155118Y263189D02*
G03X155558Y262369I984J-0D01*
G01X155118Y263189D02*
Y267913D01*
X155132Y268077D02*
G03X155118Y267913I970J-164D01*
G01X155132Y268077D02*
G03X154938Y268307I-194J33D01*
G01X147424*
G03X147230Y268077I0J-197*
G01X147244Y267913D02*
G03X147230Y268077I-984J0D01*
G01X147244Y267913D02*
Y263189D01*
X146804Y262369D02*
G03X147244Y263189I-544J820D01*
G01X146804Y262369D02*
G03Y262041I109J-164D01*
G01X147244Y261220D02*
G03X146804Y262041I-984J0D01*
G01X147244Y261220D02*
Y260433D01*
G03X147441Y260236I197J0*
G01X154921*
G03X155118Y260433I0J197*
G01Y261220*
X155558Y262041D02*
G03X155118Y261220I544J-821D01*
G01X150236Y250413D02*
Y246476D01*
X149252Y245492D02*
G03X150236Y246476I-0J984D01*
G01X149252Y245492D02*
X146299D01*
X145446Y245985D02*
G03X146299Y245492I853J491D01*
G01X145446Y245985D02*
G03X145105I-170J-98D01*
G01X144252Y245492D02*
G03X145105Y245985I-0J984D01*
G01X144252Y245492D02*
X141299D01*
X140446Y245985D02*
G03X141299Y245492I853J491D01*
G01X140446Y245985D02*
G03X140105I-170J-98D01*
G01X139252Y245492D02*
G03X140105Y245985I-0J984D01*
G01X139252Y245492D02*
X136299D01*
X135446Y245985D02*
G03X136299Y245492I853J491D01*
G01X135446Y245985D02*
G03X135105I-170J-98D01*
G01X134252Y245492D02*
G03X135105Y245985I-0J984D01*
G01X134252Y245492D02*
X131299D01*
X130315Y246476D02*
G03X131299Y245492I984J0D01*
G01X130315Y246476D02*
Y246850D01*
G03X130118Y247047I-197J0*
G01X127204*
G03X127034Y246949I-0J-197*
G01X126181Y246457D02*
G03X127033Y246949I0J984D01*
G01X126181Y246457D02*
X124213D01*
X123720Y246589D02*
G03X124213Y246457I493J852D01*
G01X123720Y246589D02*
G03X123524I-98J-171D01*
G01X123031Y246457D02*
G03X123524Y246589I0J984D01*
G01X123031Y246457D02*
X121063D01*
X120079Y247441D02*
G03X121063Y246457I984J-0D01*
G01X120079Y247441D02*
Y249409D01*
X121063Y250394D02*
G03X120079Y249409I-0J-985D01*
G01X121063Y250394D02*
X123031D01*
X123524Y250262D02*
G03X123031Y250394I-493J-853D01*
G01X123524Y250262D02*
G03X123720I98J170D01*
G01X124213Y250394D02*
G03X123720Y250262I-0J-985D01*
G01X124213Y250394D02*
X126181D01*
X127034Y249902D02*
G03X126181Y250394I-853J-493D01*
G01X127034Y249902D02*
G03X127204Y249803I170J98D01*
G01X130118*
G03X130315Y250000I0J197*
G01Y250413*
X131299Y251398D02*
G03X130315Y250413I0J-985D01*
G01X131299Y251398D02*
X134252D01*
X135105Y250904D02*
G03X134252Y251398I-853J-491D01*
G01X135105Y250904D02*
G03X135446I171J99D01*
G01X136299Y251398D02*
G03X135446Y250904I0J-985D01*
G01X136299Y251398D02*
X139252D01*
X140105Y250904D02*
G03X139252Y251398I-853J-491D01*
G01X140105Y250904D02*
G03X140446I171J99D01*
G01X141299Y251398D02*
G03X140446Y250904I0J-985D01*
G01X141299Y251398D02*
X144252D01*
X145105Y250904D02*
G03X144252Y251398I-853J-491D01*
G01X145105Y250904D02*
G03X145446I171J99D01*
G01X146299Y251398D02*
G03X145446Y250904I0J-985D01*
G01X146299Y251398D02*
X149252D01*
X150236Y250413D02*
G03X149252Y251398I-984J0D01*
G01X114567Y259449D02*
G03X114567I-4724J0D01*
G01X197244D02*
G03X197244I-4724J0D01*
G01X146733Y262125D02*
X155629D01*
X146942Y262479D02*
X155421D01*
X147076Y261770D02*
X155286D01*
X147178Y262833D02*
X155185D01*
X147224Y261416D02*
X155138D01*
X147231Y268148D02*
X155131D01*
X147244Y267794D02*
X155118D01*
X147244Y267440D02*
X155118D01*
X147244Y267085D02*
X155118D01*
X147244Y266731D02*
X155118D01*
X147244Y266377D02*
X155118D01*
X147244Y266022D02*
X155118D01*
X147244Y265668D02*
X155118D01*
X147244Y265314D02*
X155118D01*
X147244Y264959D02*
X155118D01*
X147244Y264605D02*
X155118D01*
X147244Y264251D02*
X155118D01*
X147244Y263896D02*
X155118D01*
X147244Y263542D02*
X155118D01*
X147244Y263188D02*
X155118D01*
X147244Y261062D02*
X155118D01*
X147244Y260707D02*
X155118D01*
X147261Y260353D02*
X155101D01*
X165945Y267794D02*
X201378D01*
X165945Y267440D02*
X201378D01*
X165945Y267085D02*
X201378D01*
X165945Y266731D02*
X201378D01*
X165945Y266377D02*
X201378D01*
X165945Y266022D02*
X201378D01*
X165945Y265668D02*
X201378D01*
X165945Y265314D02*
X201378D01*
X165945Y264959D02*
X201378D01*
X165945Y264605D02*
X201378D01*
X165945Y264251D02*
X201378D01*
X194113Y263896D02*
X201378D01*
X194879Y263542D02*
X201378D01*
X195408Y263188D02*
X201378D01*
X195816Y262833D02*
X201378D01*
X196144Y262479D02*
X201378D01*
X196413Y262125D02*
X201378D01*
X196634Y261770D02*
X201378D01*
X196815Y261416D02*
X201378D01*
X196960Y261062D02*
X201378D01*
X197073Y260707D02*
X201378D01*
X197157Y260353D02*
X201378D01*
X197212Y259999D02*
X201378D01*
X197240Y259644D02*
X201378D01*
X197241Y259290D02*
X201378D01*
X197216Y258936D02*
X201378D01*
X197164Y258581D02*
X201378D01*
X197083Y258227D02*
X201378D01*
X196973Y257873D02*
X201378D01*
X196832Y257518D02*
X201378D01*
X196655Y257164D02*
X201378D01*
X196438Y256810D02*
X201378D01*
X196175Y256455D02*
X201378D01*
X195853Y256101D02*
X201378D01*
X195455Y255747D02*
X201378D01*
X194942Y255392D02*
X201378D01*
X194212Y255038D02*
X201378D01*
X158976Y254684D02*
X201378D01*
X158976Y254329D02*
X201378D01*
X158976Y253975D02*
X201378D01*
X158976Y253621D02*
X201378D01*
X158976Y253266D02*
X201378D01*
X158976Y252912D02*
X201378D01*
X158976Y252558D02*
X201378D01*
X158976Y252203D02*
X201378D01*
X158976Y251849D02*
X201378D01*
X158976Y251495D02*
X201378D01*
X188144Y251140D02*
X201378D01*
X188391Y250786D02*
X201378D01*
X188464Y250432D02*
X201378D01*
X188465Y250077D02*
X201378D01*
X188465Y249723D02*
X201378D01*
X188465Y249369D02*
X201378D01*
X188465Y249014D02*
X201378D01*
X188465Y248660D02*
X201378D01*
X188465Y248306D02*
X201378D01*
X188465Y247951D02*
X201378D01*
X188465Y247597D02*
X201378D01*
X188465Y247243D02*
X201378D01*
X188465Y246888D02*
X201378D01*
X188465Y246534D02*
X201378D01*
X188419Y246180D02*
X201378D01*
X188219Y245825D02*
X201378D01*
X163189Y245471D02*
X201378D01*
X163189Y245117D02*
X201378D01*
X163189Y244762D02*
X201378D01*
X163229Y244408D02*
X201378D01*
X163612Y244054D02*
X201378D01*
X163760Y243699D02*
X201378D01*
X188203Y243345D02*
X201378D01*
X188413Y242991D02*
X201378D01*
X188465Y242636D02*
X201378D01*
X188465Y242282D02*
X201378D01*
X189769Y241928D02*
X201378D01*
X190232Y241573D02*
X201378D01*
X190390Y241219D02*
X201378D01*
X190413Y240865D02*
X201378D01*
X190413Y240510D02*
X201378D01*
X190413Y240156D02*
X201378D01*
X190413Y239802D02*
X201378D01*
X190413Y239448D02*
X201378D01*
X190413Y239093D02*
X201378D01*
X190413Y238739D02*
X201378D01*
X190413Y238385D02*
X201378D01*
X190413Y238030D02*
X201378D01*
X190413Y237676D02*
X201378D01*
X190406Y237322D02*
X201378D01*
X190292Y236967D02*
X201378D01*
X189961Y236613D02*
X201378D01*
X188465Y236259D02*
X201378D01*
X188465Y235904D02*
X201378D01*
X188465Y235550D02*
X201378D01*
X188465Y235196D02*
X201378D01*
X188465Y234841D02*
X201378D01*
X188465Y234487D02*
X201378D01*
X188465Y234133D02*
X201378D01*
X188465Y233778D02*
X201378D01*
X188465Y233424D02*
X201378D01*
X188465Y233070D02*
X201378D01*
X188465Y232715D02*
X201378D01*
X188465Y232361D02*
X201378D01*
X188465Y232007D02*
X201378D01*
X188465Y231652D02*
X201378D01*
X188465Y231298D02*
X201378D01*
X188465Y230944D02*
X201378D01*
X188465Y230589D02*
X201378D01*
X188465Y230235D02*
X201378D01*
X188465Y229881D02*
X201378D01*
X188465Y229526D02*
X201378D01*
X188465Y229172D02*
X201378D01*
X188465Y228818D02*
X201378D01*
X188465Y228463D02*
X201378D01*
X188465Y228109D02*
X201378D01*
X188465Y227755D02*
X201378D01*
X188465Y227400D02*
X201378D01*
X188465Y227046D02*
X201378D01*
X188465Y226692D02*
X201378D01*
X188465Y226337D02*
X201378D01*
X188465Y225983D02*
X201378D01*
X188465Y225629D02*
X201378D01*
X188465Y225274D02*
X201378D01*
X188465Y224920D02*
X201378D01*
X188425Y224566D02*
X201378D01*
X188236Y224211D02*
X201378D01*
X177972Y223857D02*
X201378D01*
X177938Y223503D02*
X201378D01*
X177845Y223148D02*
X201378D01*
X177685Y222794D02*
X201378D01*
X177469Y222440D02*
X201378D01*
X165932Y268148D02*
X201374D01*
X165945Y263896D02*
X190926D01*
X158976Y255038D02*
X190827D01*
X165945Y263542D02*
X190160D01*
X158992Y255392D02*
X190098D01*
X165945Y263188D02*
X189632D01*
X165599Y255747D02*
X189585D01*
X165878Y262833D02*
X189223D01*
X165862Y256101D02*
X189186D01*
X165642Y262479D02*
X188895D01*
X165944Y256455D02*
X188865D01*
X165434Y262125D02*
X188626D01*
X165945Y256810D02*
X188601D01*
X165777Y261770D02*
X188405D01*
X165945Y257164D02*
X188384D01*
X165925Y261416D02*
X188224D01*
X165945Y257518D02*
X188208D01*
X165945Y261062D02*
X188079D01*
X165945Y257873D02*
X188066D01*
X165945Y260707D02*
X187966D01*
X165945Y258227D02*
X187956D01*
X165945Y260353D02*
X187883D01*
X165945Y258581D02*
X187876D01*
X165945Y259999D02*
X187827D01*
X165945Y258936D02*
X187823D01*
X165945Y259644D02*
X187799D01*
X165945Y259290D02*
X187798D01*
X183144Y251140D02*
X183864D01*
X183219Y245825D02*
X183789D01*
X177972Y224211D02*
X183772D01*
X177972Y224566D02*
X183583D01*
X177972Y225629D02*
X183543D01*
X177972Y225274D02*
X183543D01*
X177972Y224920D02*
X183543D01*
X178144Y251140D02*
X178864D01*
X178219Y245825D02*
X178789D01*
X138304Y222440D02*
X173948D01*
X173144Y251140D02*
X173864D01*
X173219Y245825D02*
X173789D01*
X138461Y222794D02*
X173732D01*
X138560Y223148D02*
X173572D01*
X138601Y223503D02*
X173480D01*
X138602Y223857D02*
X173445D01*
X158976Y251140D02*
X168864D01*
X163780Y243345D02*
X168805D01*
X163189Y245825D02*
X168789D01*
X150007Y224211D02*
X168772D01*
X158976Y250786D02*
X168617D01*
X163780Y242991D02*
X168595D01*
X150196Y224566D02*
X168583D01*
X163255Y246180D02*
X168580D01*
X159119Y250432D02*
X168543D01*
X159447Y250077D02*
X168543D01*
X162237Y249723D02*
X168543D01*
X162955Y249369D02*
X168543D01*
X163780Y242636D02*
X168543D01*
X163780Y242282D02*
X168543D01*
X150236Y236259D02*
X168543D01*
X150236Y235904D02*
X168543D01*
X150236Y235550D02*
X168543D01*
X150236Y235196D02*
X168543D01*
X150236Y234841D02*
X168543D01*
X150236Y234487D02*
X168543D01*
X150236Y234133D02*
X168543D01*
X150236Y233778D02*
X168543D01*
X150236Y233424D02*
X168543D01*
X150236Y233070D02*
X168543D01*
X150236Y232715D02*
X168543D01*
X150236Y232361D02*
X168543D01*
X150236Y232007D02*
X168543D01*
X150236Y231652D02*
X168543D01*
X150236Y231298D02*
X168543D01*
X150236Y230944D02*
X168543D01*
X150236Y230589D02*
X168543D01*
X150236Y230235D02*
X168543D01*
X150236Y229881D02*
X168543D01*
X150236Y229526D02*
X168543D01*
X150236Y229172D02*
X168543D01*
X150236Y228818D02*
X168543D01*
X150236Y228463D02*
X168543D01*
X150236Y228109D02*
X168543D01*
X150236Y227755D02*
X168543D01*
X150236Y227400D02*
X168543D01*
X150236Y227046D02*
X168543D01*
X150236Y226692D02*
X168543D01*
X150236Y226337D02*
X168543D01*
X150236Y225983D02*
X168543D01*
X150236Y225629D02*
X168543D01*
X150236Y225274D02*
X168543D01*
X150236Y224920D02*
X168543D01*
X163780Y241928D02*
X167239D01*
X151733Y236613D02*
X167047D01*
X163780Y241573D02*
X166776D01*
X152064Y236967D02*
X166716D01*
X163727Y241219D02*
X166618D01*
X152178Y237322D02*
X166602D01*
X163638Y240865D02*
X166594D01*
X163767Y240510D02*
X166594D01*
X163780Y240156D02*
X166594D01*
X163780Y239802D02*
X166594D01*
X163780Y239448D02*
X166594D01*
X163780Y239093D02*
X166594D01*
X163780Y238739D02*
X166594D01*
X163780Y238385D02*
X166594D01*
X163713Y238030D02*
X166594D01*
X163477Y237676D02*
X166594D01*
X159560Y249723D02*
X161070D01*
X159567Y245471D02*
X160433D01*
X159567Y245117D02*
X160433D01*
X159567Y244762D02*
X160433D01*
X159567Y245825D02*
X160417D01*
X159564Y244408D02*
X160393D01*
X159567Y249369D02*
X160353D01*
X152185Y237676D02*
X160145D01*
X159567Y246180D02*
X160053D01*
X159466Y244054D02*
X160010D01*
X152185Y240865D02*
X159984D01*
X159571Y249014D02*
X159982D01*
X152185Y238030D02*
X159909D01*
X152161Y241219D02*
X159895D01*
X159172Y243699D02*
X159862D01*
X152185Y240510D02*
X159855D01*
X149975Y243345D02*
X159842D01*
X150185Y242991D02*
X159842D01*
X150236Y242636D02*
X159842D01*
X150236Y242282D02*
X159842D01*
X151540Y241928D02*
X159842D01*
X152004Y241573D02*
X159842D01*
X152185Y240156D02*
X159842D01*
X152185Y239802D02*
X159842D01*
X152185Y239448D02*
X159842D01*
X152185Y239093D02*
X159842D01*
X152185Y238739D02*
X159842D01*
X152185Y238385D02*
X159842D01*
X111535Y255038D02*
X156220D01*
X100984Y254684D02*
X156220D01*
X100984Y254329D02*
X156220D01*
X100984Y253975D02*
X156220D01*
X100984Y253621D02*
X156220D01*
X100984Y253266D02*
X156220D01*
X100984Y252912D02*
X156220D01*
X100984Y252558D02*
X156220D01*
X100984Y252203D02*
X156220D01*
X100984Y251849D02*
X156220D01*
X100984Y251495D02*
X156220D01*
X149915Y251140D02*
X156220D01*
X150163Y250786D02*
X156220D01*
X112264Y255392D02*
X156206D01*
X150236Y250432D02*
X156078D01*
X100984Y243699D02*
X156025D01*
X150236Y250077D02*
X155750D01*
X100984Y244054D02*
X155731D01*
X150236Y246888D02*
X155730D01*
X150236Y247243D02*
X155713D01*
X150236Y249723D02*
X155637D01*
X100984Y244408D02*
X155633D01*
X150236Y246534D02*
X155633D01*
X150236Y247597D02*
X155631D01*
X150236Y249369D02*
X155630D01*
X150236Y249014D02*
X155630D01*
X150236Y248660D02*
X155630D01*
X150236Y248306D02*
X155630D01*
X150236Y247951D02*
X155630D01*
X150190Y246180D02*
X155630D01*
X149990Y245825D02*
X155630D01*
X100984Y245471D02*
X155630D01*
X100984Y245117D02*
X155630D01*
X100984Y244762D02*
X155630D01*
X146898Y255747D02*
X155464D01*
X147161Y256101D02*
X155201D01*
X147243Y256455D02*
X155119D01*
X147244Y257164D02*
X155118D01*
X147244Y256810D02*
X155118D01*
X144915Y251140D02*
X145636D01*
X144990Y245825D02*
X145561D01*
X138602Y224211D02*
X145544D01*
X138602Y224566D02*
X145355D01*
X138602Y225629D02*
X145315D01*
X138602Y225274D02*
X145315D01*
X138602Y224920D02*
X145315D01*
X139915Y251140D02*
X140636D01*
X139990Y245825D02*
X140561D01*
X113736Y262125D02*
X136928D01*
X112778Y255747D02*
X136763D01*
X113467Y262479D02*
X136720D01*
X113957Y261770D02*
X136585D01*
X113176Y256101D02*
X136500D01*
X113139Y262833D02*
X136484D01*
X114138Y261416D02*
X136437D01*
X100988Y268148D02*
X136430D01*
X113498Y256455D02*
X136418D01*
X100984Y267794D02*
X136417D01*
X100984Y267440D02*
X136417D01*
X100984Y267085D02*
X136417D01*
X100984Y266731D02*
X136417D01*
X100984Y266377D02*
X136417D01*
X100984Y266022D02*
X136417D01*
X100984Y265668D02*
X136417D01*
X100984Y265314D02*
X136417D01*
X100984Y264959D02*
X136417D01*
X100984Y264605D02*
X136417D01*
X100984Y264251D02*
X136417D01*
X111436Y263896D02*
X136417D01*
X112202Y263542D02*
X136417D01*
X112731Y263188D02*
X136417D01*
X114283Y261062D02*
X136417D01*
X114396Y260707D02*
X136417D01*
X114480Y260353D02*
X136417D01*
X114535Y259999D02*
X136417D01*
X114563Y259644D02*
X136417D01*
X114564Y259290D02*
X136417D01*
X114539Y258936D02*
X136417D01*
X114487Y258581D02*
X136417D01*
X114406Y258227D02*
X136417D01*
X114296Y257873D02*
X136417D01*
X114155Y257518D02*
X136417D01*
X113978Y257164D02*
X136417D01*
X113761Y256810D02*
X136417D01*
X134915Y251140D02*
X135636D01*
X134990Y245825D02*
X135561D01*
X100984Y222440D02*
X134373D01*
X100984Y222794D02*
X134217D01*
X100984Y223148D02*
X134117D01*
X100984Y223503D02*
X134076D01*
X100984Y223857D02*
X133900D01*
X100984Y251140D02*
X130636D01*
X100984Y243345D02*
X130576D01*
X100984Y245825D02*
X130561D01*
X100984Y224211D02*
X130544D01*
X100984Y250786D02*
X130388D01*
X100984Y242991D02*
X130366D01*
X100984Y246180D02*
X130361D01*
X100984Y224566D02*
X130355D01*
X100984Y250432D02*
X130315D01*
X126904Y250077D02*
X130315D01*
X126564Y246534D02*
X130315D01*
X100984Y242636D02*
X130315D01*
X100984Y242282D02*
X130315D01*
X100984Y236259D02*
X130315D01*
X100984Y235904D02*
X130315D01*
X100984Y235550D02*
X130315D01*
X100984Y235196D02*
X130315D01*
X100984Y234841D02*
X130315D01*
X100984Y234487D02*
X130315D01*
X100984Y234133D02*
X130315D01*
X100984Y233778D02*
X130315D01*
X100984Y233424D02*
X130315D01*
X100984Y233070D02*
X130315D01*
X100984Y232715D02*
X130315D01*
X100984Y232361D02*
X130315D01*
X100984Y232007D02*
X130315D01*
X100984Y231652D02*
X130315D01*
X100984Y231298D02*
X130315D01*
X100984Y230944D02*
X130315D01*
X100984Y230589D02*
X130315D01*
X100984Y230235D02*
X130315D01*
X100984Y229881D02*
X130315D01*
X100984Y229526D02*
X130315D01*
X100984Y229172D02*
X130315D01*
X100984Y228818D02*
X130315D01*
X100984Y228463D02*
X130315D01*
X100984Y228109D02*
X130315D01*
X100984Y227755D02*
X130315D01*
X100984Y227400D02*
X130315D01*
X100984Y227046D02*
X130315D01*
X100984Y226692D02*
X130315D01*
X100984Y226337D02*
X130315D01*
X100984Y225983D02*
X130315D01*
X100984Y225629D02*
X130315D01*
X100984Y225274D02*
X130315D01*
X100984Y224920D02*
X130315D01*
X126996Y246888D02*
X130311D01*
X100984Y241928D02*
X129011D01*
X100984Y236613D02*
X128818D01*
X100984Y241573D02*
X128548D01*
X100984Y236967D02*
X128488D01*
X100984Y241219D02*
X128390D01*
X100984Y237322D02*
X128373D01*
X100984Y240865D02*
X128366D01*
X100984Y240510D02*
X128366D01*
X100984Y240156D02*
X128366D01*
X100984Y239802D02*
X128366D01*
X100984Y239448D02*
X128366D01*
X100984Y239093D02*
X128366D01*
X100984Y238739D02*
X128366D01*
X100984Y238385D02*
X128366D01*
X100984Y238030D02*
X128366D01*
X100984Y237676D02*
X128366D01*
X123414Y246534D02*
X123830D01*
X100984D02*
X120680D01*
X100984Y250077D02*
X120340D01*
X100984Y246888D02*
X120248D01*
X100984Y249723D02*
X120130D01*
X100984Y247243D02*
X120099D01*
X100984Y249369D02*
X120079D01*
X100984Y249014D02*
X120079D01*
X100984Y248660D02*
X120079D01*
X100984Y248306D02*
X120079D01*
X100984Y247951D02*
X120079D01*
X100984Y247597D02*
X120079D01*
X100984Y263896D02*
X108249D01*
X100984Y255038D02*
X108150D01*
X100984Y263542D02*
X107483D01*
X100984Y255392D02*
X107421D01*
X100984Y263188D02*
X106954D01*
X100984Y255747D02*
X106907D01*
X100984Y262833D02*
X106546D01*
X100984Y256101D02*
X106509D01*
X100984Y262479D02*
X106218D01*
X100984Y256455D02*
X106187D01*
X100984Y262125D02*
X105949D01*
X100984Y256810D02*
X105924D01*
X100984Y261770D02*
X105728D01*
X100984Y257164D02*
X105707D01*
X100984Y261416D02*
X105547D01*
X100984Y257518D02*
X105530D01*
X100984Y261062D02*
X105402D01*
X100984Y257873D02*
X105389D01*
X100984Y260707D02*
X105289D01*
X100984Y258227D02*
X105279D01*
X100984Y260353D02*
X105205D01*
X100984Y258581D02*
X105198D01*
X100984Y259999D02*
X105150D01*
X100984Y258936D02*
X105146D01*
X100984Y259644D02*
X105122D01*
X100984Y259290D02*
X105121D01*
X100000Y100000D02*
X202362D01*
Y269291*
X100000*
Y100000*
X116181Y121339D02*
X186181D01*
Y204094*
X116181*
Y121339*
G54D17*
X130866Y107520D03*
X128150D03*
X174252D03*
X171535D03*
X127559Y265354D03*
Y253543D03*
X132756Y247756D03*
X115748Y237795D03*
X137795Y252756D03*
X127559Y245669D03*
Y233858D03*
X103937Y237795D03*
Y249606D03*
X119685Y253150D03*
Y265354D03*
X135039Y262598D03*
X133858Y259055D03*
Y266142D03*
X115748Y224016D03*
X103937D03*
X126378D03*
X137795Y248425D03*
X136339Y223583D03*
X142913Y252362D03*
X185827D03*
X181102D03*
X175984D03*
X168504Y265354D03*
Y256693D03*
X156299Y229528D03*
Y238583D03*
X161654Y247638D03*
X151969Y248031D03*
Y251181D03*
X191732Y234646D03*
Y248031D03*
X163780Y266535D03*
X157480D03*
X144882D03*
X140157Y266142D03*
X179921Y256299D03*
X173622Y259055D03*
Y265748D03*
X179921D03*
X198425Y249213D03*
X198819Y224016D03*
X191339D03*
X161811D03*
X153543D03*
X142913Y248425D03*
X185827D03*
X181102D03*
X175984D03*
X175709Y223898D03*
X144764Y258898D03*
X198425Y239409D03*
G54D18*
X172244Y108701D02*
X173701D01*
X173740Y108661*
Y113740*
X184409*
X189252Y118583*
X194646*
X198425Y122362*
Y239409*
X174252Y107520D02*
X172244Y108701D01*
X174252Y107520*
G54D19*
X132756Y247756D02*
Y248425D01*
X132776Y248445*
X125197Y248425D02*
X132756D01*
X132776Y248445*
X162040Y247638D02*
X171004D01*
Y248445*
X161654Y247638D02*
X162040D01*
X161811Y242520D02*
Y247409D01*
X162040Y247638*
X160531Y258858D02*
X157598D01*
Y248622*
Y258858D02*
X144764D01*
Y258898*
X141831Y258858D02*
X144764D01*
G54D20*
X132776Y226811D02*
Y228799D01*
X132835Y228858*
X136339*
Y223583*
X171004Y226811D02*
Y229055D01*
X175709*
Y223898*
G54D21*
X186004Y245492D02*
Y246476D01*
X188465Y248445D02*
X187480D01*
X186004Y251398D02*
Y250413D01*
X163780Y239370D02*
X162795D01*
X159843D02*
X160827D01*
X161811Y237402D02*
Y238386D01*
X159567Y245472D02*
X158583D01*
X155630D02*
X156614D01*
X157598Y243504D02*
Y244488D01*
X147776Y245492D02*
Y246476D01*
X150236Y248445D02*
X149252D01*
X147776Y251398D02*
Y250413D01*
X142776Y245492D02*
Y246476D01*
Y251398D02*
Y250413D01*
X137776Y245492D02*
Y246476D01*
Y251398D02*
Y250413D01*
X122047Y246457D02*
Y247441D01*
Y250394D02*
Y249409D01*
X120079Y248425D02*
X121063D01*
X165945Y265551D02*
X164961D01*
X155118D02*
X156102D01*
X181004Y245492D02*
Y246476D01*
Y251398D02*
Y250413D01*
X176004Y245492D02*
Y246476D01*
Y251398D02*
Y250413D01*
X147244Y265551D02*
X146260D01*
X136417D02*
X137402D01*
G54D41*
X147776Y248445D03*
X142776D03*
X137776D03*
X132776D03*
Y226811D03*
X147776D03*
X186004Y248445D03*
X181004D03*
X176004D03*
X171004D03*
Y226811D03*
X186004D03*
G54D42*
X128150Y107520D02*
Y108701D01*
X129961*
X172244D02*
X174252Y107520D01*
G74*
X0Y0D02*
M02*
