*
*
G04 PADS 9.5 Build Number: 522968 generated Gerber (RS-274-X) file*
G04 PC Version=2.1*
*
%IN "Plasma_Gen_Transformer_"*%
*
%MOIN*%
*
%FSLAX35Y35*%
*
*
*
*
G04 PC Standard Apertures*
*
*
G04 Thermal Relief Aperture macro.*
%AMTER*
1,1,$1,0,0*
1,0,$1-$2,0,0*
21,0,$3,$4,0,0,45*
21,0,$3,$4,0,0,135*
%
*
*
G04 Annular Aperture macro.*
%AMANN*
1,1,$1,0,0*
1,0,$2,0,0*
%
*
*
G04 Odd Aperture macro.*
%AMODD*
1,1,$1,0,0*
1,0,$1-0.005,0,0*
%
*
*
G04 PC Custom Aperture Macros*
*
*
*
*
*
*
G04 PC Aperture Table*
*
%ADD010C,0.00004*%
%ADD011R,0.01969X0.01969*%
%ADD014C,0.07874*%
%ADD016C,0.00394*%
%ADD017C,0.02362*%
%ADD019C,0.00787*%
%ADD020C,0.02559*%
%ADD021C,0.01181*%
%ADD023R,0.02756X0.09843*%
%ADD024R,0.03937X0.11811*%
%ADD025R,0.0315X0.06299*%
%ADD026R,0.09055X0.12598*%
%ADD042C,0.0315*%
%ADD043R,0.09331X0.09567*%
%ADD044C,0.02756*%
*
*
*
*
G04 PC Circuitry*
G04 Layer Name Plasma_Gen_Transformer_ - circuitry*
%LPD*%
*
*
G04 PC Custom Flashes*
G04 Layer Name Plasma_Gen_Transformer_ - flashes*
%LPD*%
*
*
G04 PC Circuitry*
G04 Layer Name Plasma_Gen_Transformer_ - circuitry*
%LPD*%
*
G54D10*
G54D11*
G01X177047Y232598D03*
X180197D03*
G54D14*
X109843Y109843D03*
X192520D03*
X109843Y259449D03*
X192520D03*
G54D16*
X197244D02*
G75*
G03X197244I-4724J0D01*
G01X114567D02*
G03X114567I-4724J0D01*
G01X201378Y222402D02*
Y268110D01*
G03X201181Y268307I-197J0*
G01X182028*
G03X181879Y267982I0J-197*
G01X182118Y267339D02*
G03X181879Y267982I-984J-0D01*
G01X182118Y267339D02*
Y254740D01*
X181134Y253756D02*
G03X182118Y254740I-0J984D01*
G01X181134Y253756D02*
X172079D01*
X171094Y254740D02*
G03X172079Y253756I985J0D01*
G01X171094Y254740D02*
Y267339D01*
X171334Y267982D02*
G03X171094Y267339I745J-643D01*
G01X171334Y267982D02*
G03X171185Y268307I-149J128D01*
G01X142210*
G03X142068Y267973I-0J-197*
G01X142346Y267287D02*
G03X142068Y267973I-984J0D01*
G01X142346Y267287D02*
Y259704D01*
G03X142728Y259637I197J-0*
G01X146207Y257284D02*
G03X142728Y259637I-1443J1614D01*
G01X146207Y257284D02*
G03X146142Y257137I132J-147D01*
G01Y256558*
G03X146199Y256419I197J-0*
G01X147707Y254911*
X148110Y253937D02*
G03X147707Y254911I-1378J0D01*
G01X148110Y253937D02*
Y253902D01*
G03X148307Y253705I197J-0*
G01X148449*
X149181Y253378D02*
G03X148449Y253705I-732J-658D01*
G01X149181Y253378D02*
G03X149479Y253384I146J132D01*
G01X150236Y253740D02*
G03X149479Y253384I0J-984D01*
G01X150236Y253740D02*
X153386D01*
X154124Y253407D02*
G03X153386Y253740I-738J-651D01*
G01X154124Y253407D02*
G03X154419I148J130D01*
G01X155157Y253740D02*
G03X154419Y253407I0J-984D01*
G01X155157Y253740D02*
X158307D01*
X159045Y253407D02*
G03X158307Y253740I-738J-651D01*
G01X159045Y253407D02*
G03X159341I148J130D01*
G01X160079Y253740D02*
G03X159341Y253407I-0J-984D01*
G01X160079Y253740D02*
X163228D01*
X163967Y253407D02*
G03X163228Y253740I-739J-651D01*
G01X163967Y253407D02*
G03X164262I147J130D01*
G01X165000Y253740D02*
G03X164262Y253407I0J-984D01*
G01X165000Y253740D02*
X168150D01*
X169134Y252756D02*
G03X168150Y253740I-984J-0D01*
G01X169134Y252756D02*
Y249606D01*
Y246457*
Y238602*
G03X169331Y238406I197J0*
G01X171398*
X172382Y237421D02*
G03X171398Y238406I-984J0D01*
G01X172382Y237421D02*
Y234409D01*
G03X172579Y234213I197J0*
G01X175220*
G03X175360Y234272I-0J196*
G01X176063Y234567D02*
G03X175360Y234272I-0J-984D01*
G01X176063Y234567D02*
X178031D01*
X178524Y234435D02*
G03X178031Y234567I-493J-852D01*
G01X178524Y234435D02*
G03X178720I98J171D01*
G01X179213Y234567D02*
G03X178720Y234435I-0J-984D01*
G01X179213Y234567D02*
X181181D01*
X182165Y233583D02*
G03X181181Y234567I-984J-0D01*
G01X182165Y233583D02*
Y231614D01*
X181181Y230630D02*
G03X182165Y231614I0J984D01*
G01X181181Y230630D02*
X179213D01*
X178720Y230762D02*
G03X179213Y230630I493J852D01*
G01X178720Y230762D02*
G03X178524I-98J-171D01*
G01X178031Y230630D02*
G03X178524Y230762I0J984D01*
G01X178031Y230630D02*
X176063D01*
X175301Y230991D02*
G03X176063Y230630I762J623D01*
G01X175301Y230991D02*
G03X175149Y231063I-152J-125D01*
G01X172579*
G03X172382Y230866I-0J-197*
G01Y227854*
X171398Y226870D02*
G03X172382Y227854I-0J984D01*
G01X171398Y226870D02*
X169193D01*
G03X168996Y226673I-0J-197*
G01Y224724*
X168333Y223124D02*
G03X168996Y224724I-1601J1600D01*
G01X168333Y223124D02*
X168188Y222978D01*
G03X168130Y222839I139J-139*
G01Y222402*
G03X168327Y222205I197J-0*
G01X173248*
G03X173445Y222402I0J197*
G01Y223898*
X177972D02*
G03X173445I-2263J-0D01*
G01X177972D02*
Y222402D01*
G03X178169Y222205I197J-0*
G01X201181*
G03X201378Y222402I0J197*
G01X164468Y225744D02*
Y226673D01*
G03X164272Y226870I-196J0*
G01X162067*
X161083Y227854D02*
G03X162067Y226870I984J0D01*
G01X161083Y227854D02*
Y237421D01*
X162067Y238406D02*
G03X161083Y237421I-0J-985D01*
G01X162067Y238406D02*
X163819D01*
G03X164016Y238602I-0J196*
G01Y245434*
G03X163720Y245604I-197J-0*
G01X163228Y245472D02*
G03X163720Y245604I0J985D01*
G01X163228Y245472D02*
X160079D01*
X159341Y245806D02*
G03X160079Y245472I738J651D01*
G01X159341Y245806D02*
G03X159045I-148J-131D01*
G01X158307Y245472D02*
G03X159045Y245806I0J985D01*
G01X158307Y245472D02*
G03X158110Y245276I0J-196D01*
G01Y244961*
X157707Y243986D02*
G03X158110Y244961I-975J975D01*
G01X157707Y243986D02*
X154990Y241270D01*
X154016Y240866D02*
G03X154990Y241270I-0J1378D01*
G01X154016Y240866D02*
X134606D01*
X133632Y241270D02*
G03X134606Y240866I974J974D01*
G01X133632Y241270D02*
X131782Y243120D01*
X131378Y244094D02*
G03X131782Y243120I1378J0D01*
G01X131378Y244094D02*
Y245995D01*
G03X131312Y246142I-197J0*
G01X134199D02*
G03X131312I-1443J1614D01*
G01X134199D02*
G03X134134Y245995I132J-147D01*
G01Y244747*
G03X134192Y244608I197J-0*
G01X135119Y243680*
G03X135259Y243622I140J139*
G01X153363*
G03X153503Y243680I0J197*
G01X154998Y245175*
G03X154908Y245504I-139J139*
G01X154419Y245806D02*
G03X154908Y245504I738J651D01*
G01X154419Y245806D02*
G03X154124I-147J-131D01*
G01X153386Y245472D02*
G03X154124Y245806I-0J985D01*
G01X153386Y245472D02*
X150236D01*
X149504Y245799D02*
G03X150236Y245472I732J658D01*
G01X149504Y245799D02*
G03X149206Y245793I-146J-132D01*
G01X148449Y245437D02*
G03X149206Y245793I-0J984D01*
G01X148449Y245437D02*
X145299D01*
X144315Y246421D02*
G03X145299Y245437I984J0D01*
G01X144315Y246421D02*
Y252720D01*
X144802Y253570D02*
G03X144315Y252720I497J-850D01*
G01X144802Y253570D02*
G03X144842Y253879I-100J170D01*
G01X143789Y254931*
X143386Y255906D02*
G03X143789Y254931I1378J-0D01*
G01X143386Y255906D02*
Y257137D01*
G03X143320Y257284I-197J-0*
G01X142728Y258159D02*
G03X143320Y257284I2036J739D01*
G01X142728Y258159D02*
G03X142346Y258092I-185J-67D01*
G01Y254689*
X141362Y253705D02*
G03X142346Y254689I0J984D01*
G01X141362Y253705D02*
X132307D01*
X131323Y254689D02*
G03X132307Y253705I984J-0D01*
G01X131323Y254689D02*
Y267287D01*
X131601Y267973D02*
G03X131323Y267287I706J-686D01*
G01X131601Y267973D02*
G03X131460Y268307I-141J137D01*
G01X101181*
G03X100984Y268110I0J-197*
G01Y222402*
G03X101181Y222205I197J-0*
G01X133878*
G03X134075Y222402I-0J197*
G01Y223583*
X138602D02*
G03X134075I-2263J-0D01*
G01X138602D02*
Y222402D01*
G03X138799Y222205I197J-0*
G01X163405*
G03X163602Y222402I0J197*
G01Y223858*
X164265Y225459D02*
G03X163602Y223858I1601J-1601D01*
G01X164265Y225459D02*
X164411Y225604D01*
G03X164468Y225744I-139J140*
G01X197244Y259449D02*
G03X197244I-4724J0D01*
G01X147815Y237421D02*
Y227854D01*
X146831Y226870D02*
G03X147815Y227854I-0J984D01*
G01X146831Y226870D02*
X137500D01*
X136516Y227854D02*
G03X137500Y226870I984J0D01*
G01X136516Y227854D02*
Y237421D01*
X137500Y238406D02*
G03X136516Y237421I0J-985D01*
G01X137500Y238406D02*
X146831D01*
X147815Y237421D02*
G03X146831Y238406I-984J0D01*
G01X114567Y259449D02*
G03X114567I-4724J0D01*
G01X100984Y226337D02*
X164468D01*
X100984Y225983D02*
X164468D01*
X100984Y226692D02*
X164468D01*
X137308Y225629D02*
X164431D01*
X137843Y225274D02*
X164100D01*
X158110Y245117D02*
X164016D01*
X158096Y244762D02*
X164016D01*
X157995Y244408D02*
X164016D01*
X157770Y244054D02*
X164016D01*
X157420Y243699D02*
X164016D01*
X157066Y243345D02*
X164016D01*
X156711Y242991D02*
X164016D01*
X156357Y242636D02*
X164016D01*
X156003Y242282D02*
X164016D01*
X155648Y241928D02*
X164016D01*
X155294Y241573D02*
X164016D01*
X154937Y241219D02*
X164016D01*
X100984Y240865D02*
X164016D01*
X100984Y240510D02*
X164016D01*
X100984Y240156D02*
X164016D01*
X100984Y239802D02*
X164016D01*
X100984Y239448D02*
X164016D01*
X100984Y239093D02*
X164016D01*
X100984Y238739D02*
X164016D01*
X158285Y245471D02*
X164012D01*
X138165Y224920D02*
X163867D01*
X138378Y224566D02*
X163716D01*
X138513Y224211D02*
X163630D01*
X138586Y223857D02*
X163602D01*
X138602Y223503D02*
X163602D01*
X138602Y223148D02*
X163602D01*
X138602Y222794D02*
X163602D01*
X138602Y222440D02*
X163602D01*
X147033Y238385D02*
X161865D01*
X147392Y227046D02*
X161505D01*
X147604Y238030D02*
X161294D01*
X147704Y227400D02*
X161194D01*
X147781Y237676D02*
X161116D01*
X147810Y227755D02*
X161088D01*
X147815Y237322D02*
X161083D01*
X147815Y236967D02*
X161083D01*
X147815Y236613D02*
X161083D01*
X147815Y236259D02*
X161083D01*
X147815Y235904D02*
X161083D01*
X147815Y235550D02*
X161083D01*
X147815Y235196D02*
X161083D01*
X147815Y234841D02*
X161083D01*
X147815Y234487D02*
X161083D01*
X147815Y234133D02*
X161083D01*
X147815Y233778D02*
X161083D01*
X147815Y233424D02*
X161083D01*
X147815Y233070D02*
X161083D01*
X147815Y232715D02*
X161083D01*
X147815Y232361D02*
X161083D01*
X147815Y232007D02*
X161083D01*
X147815Y231652D02*
X161083D01*
X147815Y231298D02*
X161083D01*
X147815Y230944D02*
X161083D01*
X147815Y230589D02*
X161083D01*
X147815Y230235D02*
X161083D01*
X147815Y229881D02*
X161083D01*
X147815Y229526D02*
X161083D01*
X147815Y229172D02*
X161083D01*
X147815Y228818D02*
X161083D01*
X147815Y228463D02*
X161083D01*
X147815Y228109D02*
X161083D01*
X159065Y245825D02*
X159320D01*
X148706Y245471D02*
X154977D01*
X134134Y245117D02*
X154940D01*
X134134Y244762D02*
X154585D01*
X154144Y245825D02*
X154399D01*
X134391Y244408D02*
X154231D01*
X134745Y244054D02*
X153877D01*
X135100Y243699D02*
X153522D01*
X149241Y245825D02*
X149475D01*
X134134Y245471D02*
X145042D01*
X100984Y253621D02*
X144859D01*
X142040Y253975D02*
X144745D01*
X134134Y245825D02*
X144516D01*
X100984Y253266D02*
X144480D01*
X142278Y254329D02*
X144391D01*
X134241Y246180D02*
X144345D01*
X100984Y252912D02*
X144334D01*
X100984Y252558D02*
X144315D01*
X100984Y252203D02*
X144315D01*
X100984Y251849D02*
X144315D01*
X100984Y251495D02*
X144315D01*
X100984Y251140D02*
X144315D01*
X100984Y250786D02*
X144315D01*
X100984Y250432D02*
X144315D01*
X100984Y250077D02*
X144315D01*
X133661Y249723D02*
X144315D01*
X134201Y249369D02*
X144315D01*
X134518Y249014D02*
X144315D01*
X134723Y248660D02*
X144315D01*
X134850Y248306D02*
X144315D01*
X134912Y247951D02*
X144315D01*
X134915Y247597D02*
X144315D01*
X134860Y247243D02*
X144315D01*
X134740Y246888D02*
X144315D01*
X134544Y246534D02*
X144315D01*
X142346Y254684D02*
X144037D01*
X142346Y255038D02*
X143693D01*
X142346Y255392D02*
X143485D01*
X142346Y255747D02*
X143395D01*
X142346Y256810D02*
X143386D01*
X142346Y256455D02*
X143386D01*
X142346Y256101D02*
X143386D01*
X142346Y257164D02*
X143384D01*
X142346Y257518D02*
X143095D01*
X142346Y257873D02*
X142856D01*
X142400Y258227D02*
X142686D01*
X100984Y238385D02*
X137298D01*
X100984Y227046D02*
X136938D01*
X100984Y238030D02*
X136727D01*
X100984Y227400D02*
X136627D01*
X100984Y237676D02*
X136549D01*
X100984Y227755D02*
X136521D01*
X100984Y237322D02*
X136516D01*
X100984Y236967D02*
X136516D01*
X100984Y236613D02*
X136516D01*
X100984Y236259D02*
X136516D01*
X100984Y235904D02*
X136516D01*
X100984Y235550D02*
X136516D01*
X100984Y235196D02*
X136516D01*
X100984Y234841D02*
X136516D01*
X100984Y234487D02*
X136516D01*
X100984Y234133D02*
X136516D01*
X100984Y233778D02*
X136516D01*
X100984Y233424D02*
X136516D01*
X100984Y233070D02*
X136516D01*
X100984Y232715D02*
X136516D01*
X100984Y232361D02*
X136516D01*
X100984Y232007D02*
X136516D01*
X100984Y231652D02*
X136516D01*
X100984Y231298D02*
X136516D01*
X100984Y230944D02*
X136516D01*
X100984Y230589D02*
X136516D01*
X100984Y230235D02*
X136516D01*
X100984Y229881D02*
X136516D01*
X100984Y229526D02*
X136516D01*
X100984Y229172D02*
X136516D01*
X100984Y228818D02*
X136516D01*
X100984Y228463D02*
X136516D01*
X100984Y228109D02*
X136516D01*
X100984Y225629D02*
X135370D01*
X100984Y225274D02*
X134834D01*
X100984Y224920D02*
X134512D01*
X100984Y224566D02*
X134299D01*
X100984Y224211D02*
X134164D01*
X100984Y223857D02*
X134091D01*
X100984Y223503D02*
X134075D01*
X100984Y223148D02*
X134075D01*
X100984Y222794D02*
X134075D01*
X100984Y222440D02*
X134075D01*
X100984Y241219D02*
X133685D01*
X100984Y241573D02*
X133328D01*
X100984Y241928D02*
X132974D01*
X100984Y242282D02*
X132619D01*
X100984Y242636D02*
X132265D01*
X100984Y242991D02*
X131911D01*
X100984Y249723D02*
X131851D01*
X100988Y268148D02*
X131653D01*
X100984Y253975D02*
X131629D01*
X100984Y243345D02*
X131599D01*
X100984Y267794D02*
X131463D01*
X100984Y243699D02*
X131436D01*
X100984Y254329D02*
X131391D01*
X100984Y244054D02*
X131379D01*
X100984Y245825D02*
X131378D01*
X100984Y245471D02*
X131378D01*
X100984Y245117D02*
X131378D01*
X100984Y244762D02*
X131378D01*
X100984Y244408D02*
X131378D01*
X100984Y267440D02*
X131335D01*
X100984Y254684D02*
X131323D01*
X100984Y267085D02*
X131323D01*
X100984Y266731D02*
X131323D01*
X100984Y266377D02*
X131323D01*
X100984Y266022D02*
X131323D01*
X100984Y265668D02*
X131323D01*
X100984Y265314D02*
X131323D01*
X100984Y264959D02*
X131323D01*
X100984Y264605D02*
X131323D01*
X100984Y264251D02*
X131323D01*
X111436Y263896D02*
X131323D01*
X112202Y263542D02*
X131323D01*
X112731Y263188D02*
X131323D01*
X113139Y262833D02*
X131323D01*
X113467Y262479D02*
X131323D01*
X113736Y262125D02*
X131323D01*
X113957Y261770D02*
X131323D01*
X114138Y261416D02*
X131323D01*
X114283Y261062D02*
X131323D01*
X114396Y260707D02*
X131323D01*
X114480Y260353D02*
X131323D01*
X114535Y259999D02*
X131323D01*
X114563Y259644D02*
X131323D01*
X114564Y259290D02*
X131323D01*
X114539Y258936D02*
X131323D01*
X114487Y258581D02*
X131323D01*
X114406Y258227D02*
X131323D01*
X114296Y257873D02*
X131323D01*
X114155Y257518D02*
X131323D01*
X113978Y257164D02*
X131323D01*
X113761Y256810D02*
X131323D01*
X113498Y256455D02*
X131323D01*
X113176Y256101D02*
X131323D01*
X112778Y255747D02*
X131323D01*
X112264Y255392D02*
X131323D01*
X111535Y255038D02*
X131323D01*
X100984Y249369D02*
X131311D01*
X100984Y246180D02*
X131271D01*
X100984Y249014D02*
X130994D01*
X100984Y246534D02*
X130968D01*
X100984Y248660D02*
X130788D01*
X100984Y246888D02*
X130772D01*
X100984Y248306D02*
X130662D01*
X100984Y247243D02*
X130652D01*
X100984Y247951D02*
X130599D01*
X100984Y247597D02*
X130596D01*
X100984Y263896D02*
X108249D01*
X100984Y255038D02*
X108150D01*
X100984Y263542D02*
X107483D01*
X100984Y255392D02*
X107421D01*
X100984Y263188D02*
X106954D01*
X100984Y255747D02*
X106907D01*
X100984Y262833D02*
X106546D01*
X100984Y256101D02*
X106509D01*
X100984Y262479D02*
X106218D01*
X100984Y256455D02*
X106187D01*
X100984Y262125D02*
X105949D01*
X100984Y256810D02*
X105924D01*
X100984Y261770D02*
X105728D01*
X100984Y257164D02*
X105707D01*
X100984Y261416D02*
X105547D01*
X100984Y257518D02*
X105530D01*
X100984Y261062D02*
X105402D01*
X100984Y257873D02*
X105389D01*
X100984Y260707D02*
X105289D01*
X100984Y258227D02*
X105279D01*
X100984Y260353D02*
X105205D01*
X100984Y258581D02*
X105198D01*
X100984Y259999D02*
X105150D01*
X100984Y258936D02*
X105146D01*
X100984Y259644D02*
X105122D01*
X100984Y259290D02*
X105121D01*
X182006Y267794D02*
X201378D01*
X182113Y267440D02*
X201378D01*
X182118Y267085D02*
X201378D01*
X182118Y266731D02*
X201378D01*
X182118Y266377D02*
X201378D01*
X182118Y266022D02*
X201378D01*
X182118Y265668D02*
X201378D01*
X182118Y265314D02*
X201378D01*
X182118Y264959D02*
X201378D01*
X182118Y264605D02*
X201378D01*
X182118Y264251D02*
X201378D01*
X194113Y263896D02*
X201378D01*
X194879Y263542D02*
X201378D01*
X195408Y263188D02*
X201378D01*
X195816Y262833D02*
X201378D01*
X196144Y262479D02*
X201378D01*
X196413Y262125D02*
X201378D01*
X196634Y261770D02*
X201378D01*
X196815Y261416D02*
X201378D01*
X196960Y261062D02*
X201378D01*
X197073Y260707D02*
X201378D01*
X197157Y260353D02*
X201378D01*
X197212Y259999D02*
X201378D01*
X197240Y259644D02*
X201378D01*
X197241Y259290D02*
X201378D01*
X197216Y258936D02*
X201378D01*
X197164Y258581D02*
X201378D01*
X197083Y258227D02*
X201378D01*
X196973Y257873D02*
X201378D01*
X196832Y257518D02*
X201378D01*
X196655Y257164D02*
X201378D01*
X196438Y256810D02*
X201378D01*
X196175Y256455D02*
X201378D01*
X195853Y256101D02*
X201378D01*
X195455Y255747D02*
X201378D01*
X194942Y255392D02*
X201378D01*
X194212Y255038D02*
X201378D01*
X182117Y254684D02*
X201378D01*
X182028Y254329D02*
X201378D01*
X181753Y253975D02*
X201378D01*
X168620Y253621D02*
X201378D01*
X168991Y253266D02*
X201378D01*
X169121Y252912D02*
X201378D01*
X169134Y252558D02*
X201378D01*
X169134Y252203D02*
X201378D01*
X169134Y251849D02*
X201378D01*
X169134Y251495D02*
X201378D01*
X169134Y251140D02*
X201378D01*
X169134Y250786D02*
X201378D01*
X169134Y250432D02*
X201378D01*
X169134Y250077D02*
X201378D01*
X169134Y249723D02*
X201378D01*
X169134Y249369D02*
X201378D01*
X169134Y249014D02*
X201378D01*
X169134Y248660D02*
X201378D01*
X169134Y248306D02*
X201378D01*
X169134Y247951D02*
X201378D01*
X169134Y247597D02*
X201378D01*
X169134Y247243D02*
X201378D01*
X169134Y246888D02*
X201378D01*
X169134Y246534D02*
X201378D01*
X169134Y246180D02*
X201378D01*
X169134Y245825D02*
X201378D01*
X169134Y245471D02*
X201378D01*
X169134Y245117D02*
X201378D01*
X169134Y244762D02*
X201378D01*
X169134Y244408D02*
X201378D01*
X169134Y244054D02*
X201378D01*
X169134Y243699D02*
X201378D01*
X169134Y243345D02*
X201378D01*
X169134Y242991D02*
X201378D01*
X169134Y242636D02*
X201378D01*
X169134Y242282D02*
X201378D01*
X169134Y241928D02*
X201378D01*
X169134Y241573D02*
X201378D01*
X169134Y241219D02*
X201378D01*
X169134Y240865D02*
X201378D01*
X169134Y240510D02*
X201378D01*
X169134Y240156D02*
X201378D01*
X169134Y239802D02*
X201378D01*
X169134Y239448D02*
X201378D01*
X169134Y239093D02*
X201378D01*
X169134Y238739D02*
X201378D01*
X171600Y238385D02*
X201378D01*
X172171Y238030D02*
X201378D01*
X172348Y237676D02*
X201378D01*
X172382Y237322D02*
X201378D01*
X172382Y236967D02*
X201378D01*
X172382Y236613D02*
X201378D01*
X172382Y236259D02*
X201378D01*
X172382Y235904D02*
X201378D01*
X172382Y235550D02*
X201378D01*
X172382Y235196D02*
X201378D01*
X172382Y234841D02*
X201378D01*
X181570Y234487D02*
X201378D01*
X181997Y234133D02*
X201378D01*
X182146Y233778D02*
X201378D01*
X182165Y233424D02*
X201378D01*
X182165Y233070D02*
X201378D01*
X182165Y232715D02*
X201378D01*
X182165Y232361D02*
X201378D01*
X182165Y232007D02*
X201378D01*
X182165Y231652D02*
X201378D01*
X182113Y231298D02*
X201378D01*
X181902Y230944D02*
X201378D01*
X172382Y230589D02*
X201378D01*
X172382Y230235D02*
X201378D01*
X172382Y229881D02*
X201378D01*
X172382Y229526D02*
X201378D01*
X172382Y229172D02*
X201378D01*
X172382Y228818D02*
X201378D01*
X172382Y228463D02*
X201378D01*
X172382Y228109D02*
X201378D01*
X172377Y227755D02*
X201378D01*
X172271Y227400D02*
X201378D01*
X171959Y227046D02*
X201378D01*
X168997Y226692D02*
X201378D01*
X168996Y226337D02*
X201378D01*
X176590Y225983D02*
X201378D01*
X177168Y225629D02*
X201378D01*
X177506Y225274D02*
X201378D01*
X177728Y224920D02*
X201378D01*
X177872Y224566D02*
X201378D01*
X177951Y224211D02*
X201378D01*
X177972Y223857D02*
X201378D01*
X177972Y223503D02*
X201378D01*
X177972Y223148D02*
X201378D01*
X177972Y222794D02*
X201378D01*
X177972Y222440D02*
X201378D01*
X181835Y268148D02*
X201374D01*
X182118Y263896D02*
X190926D01*
X182118Y255038D02*
X190827D01*
X182118Y263542D02*
X190160D01*
X182118Y255392D02*
X190098D01*
X182118Y263188D02*
X189632D01*
X182118Y255747D02*
X189585D01*
X182118Y262833D02*
X189223D01*
X182118Y256101D02*
X189186D01*
X182118Y262479D02*
X188895D01*
X182118Y256455D02*
X188865D01*
X182118Y262125D02*
X188626D01*
X182118Y256810D02*
X188601D01*
X182118Y261770D02*
X188405D01*
X182118Y257164D02*
X188384D01*
X182118Y261416D02*
X188224D01*
X182118Y257518D02*
X188208D01*
X182118Y261062D02*
X188079D01*
X182118Y257873D02*
X188066D01*
X182118Y260707D02*
X187966D01*
X182118Y258227D02*
X187956D01*
X182118Y260353D02*
X187883D01*
X182118Y258581D02*
X187876D01*
X182118Y259999D02*
X187827D01*
X182118Y258936D02*
X187823D01*
X182118Y259644D02*
X187799D01*
X182118Y259290D02*
X187798D01*
X178420Y234487D02*
X178824D01*
X172382D02*
X175674D01*
X172398Y230944D02*
X175343D01*
X168996Y225983D02*
X174828D01*
X168996Y225629D02*
X174250D01*
X168996Y225274D02*
X173912D01*
X168996Y224920D02*
X173689D01*
X168991Y224566D02*
X173546D01*
X168937Y224211D02*
X173467D01*
X168823Y223857D02*
X173445D01*
X168638Y223503D02*
X173445D01*
X168357Y223148D02*
X173445D01*
X168130Y222794D02*
X173445D01*
X168130Y222440D02*
X173445D01*
X148110Y253975D02*
X171460D01*
X142016Y268148D02*
X171378D01*
X142206Y267794D02*
X171206D01*
X148053Y254329D02*
X171184D01*
X142335Y267440D02*
X171100D01*
X147890Y254684D02*
X171096D01*
X142346Y267085D02*
X171094D01*
X142346Y266731D02*
X171094D01*
X142346Y266377D02*
X171094D01*
X142346Y266022D02*
X171094D01*
X142346Y265668D02*
X171094D01*
X142346Y265314D02*
X171094D01*
X142346Y264959D02*
X171094D01*
X142346Y264605D02*
X171094D01*
X142346Y264251D02*
X171094D01*
X142346Y263896D02*
X171094D01*
X142346Y263542D02*
X171094D01*
X142346Y263188D02*
X171094D01*
X142346Y262833D02*
X171094D01*
X142346Y262479D02*
X171094D01*
X142346Y262125D02*
X171094D01*
X142346Y261770D02*
X171094D01*
X142346Y261416D02*
X171094D01*
X144840Y261062D02*
X171094D01*
X145953Y260707D02*
X171094D01*
X146367Y260353D02*
X171094D01*
X146628Y259999D02*
X171094D01*
X146796Y259644D02*
X171094D01*
X146893Y259290D02*
X171094D01*
X146929Y258936D02*
X171094D01*
X146906Y258581D02*
X171094D01*
X146823Y258227D02*
X171094D01*
X146671Y257873D02*
X171094D01*
X146433Y257518D02*
X171094D01*
X146144Y257164D02*
X171094D01*
X146142Y256810D02*
X171094D01*
X146171Y256455D02*
X171094D01*
X146517Y256101D02*
X171094D01*
X146871Y255747D02*
X171094D01*
X147226Y255392D02*
X171094D01*
X147580Y255038D02*
X171094D01*
X163698Y253621D02*
X164530D01*
X158777D02*
X159609D01*
X153856D02*
X154688D01*
X148847D02*
X149766D01*
X142346Y261062D02*
X144688D01*
X142346Y260707D02*
X143575D01*
X142346Y260353D02*
X143160D01*
X142346Y259999D02*
X142899D01*
X142356Y259644D02*
X142731D01*
X100000Y100000D02*
X202362D01*
Y269291*
X100000*
Y100000*
X116181Y121339D02*
X186181D01*
Y204094*
X116181*
Y121339*
G54D17*
X130866Y107520D03*
X128150D03*
X174252D03*
X171535D03*
X127559Y265354D03*
Y253543D03*
X132756Y247756D03*
X115748Y237795D03*
X137795Y252756D03*
X127559Y245669D03*
Y233858D03*
X103937Y237795D03*
Y249606D03*
X119685Y253150D03*
Y265354D03*
X135039Y262598D03*
X133858Y259055D03*
Y266142D03*
X115748Y224016D03*
X103937D03*
X126378D03*
X137795Y248425D03*
X136339Y223583D03*
X142913Y252362D03*
X185827D03*
X181102D03*
X175984D03*
X168504Y265354D03*
Y256693D03*
X156299Y229528D03*
Y238583D03*
X161654Y247638D03*
X151969Y248031D03*
Y251181D03*
X191732Y234646D03*
Y248031D03*
X163780Y266535D03*
X157480D03*
X144882D03*
X140157Y266142D03*
X179921Y256299D03*
X173622Y259055D03*
Y265748D03*
X179921D03*
X198425Y249213D03*
X198819Y224016D03*
X191339D03*
X161811D03*
X153543D03*
X142913Y248425D03*
X185827D03*
X181102D03*
X175984D03*
X175709Y223898D03*
X144764Y258898D03*
X198425Y239409D03*
G54D19*
X134606Y242244D02*
X154016D01*
X156732Y244961*
Y249606*
X134606Y242244D02*
X132756Y244094D01*
Y247756*
X161654Y247638D02*
Y249606D01*
X146874Y249571D02*
X146732D01*
Y253937*
X144764Y255906*
Y258898*
G54D20*
X136339Y212913D02*
Y223583D01*
X175709Y212913D02*
Y223898D01*
X165866Y212913D02*
Y223858D01*
X166732Y224724*
Y232638*
G54D21*
X177047Y232598D02*
X177008Y232638D01*
X166732*
X147815D02*
X146831D01*
X142165Y226870D02*
Y227854D01*
X136516Y232638D02*
X137500D01*
X142165Y238406D02*
Y237421D01*
X180197Y234567D02*
Y233583D01*
X182165Y232598D02*
X181181D01*
X180197Y230630D02*
Y231614D01*
X151811Y245472D02*
Y246457D01*
Y253740D02*
Y252756D01*
X142346Y260988D02*
X141362D01*
X136835Y253705D02*
Y254689D01*
X131323Y260988D02*
X132307D01*
X182118Y261039D02*
X181134D01*
X176606Y253756D02*
Y254740D01*
X171094Y261039D02*
X172079D01*
G54D23*
X126496Y212913D03*
X136339D03*
X165866D03*
X175709D03*
G54D24*
X165866Y111535D03*
X136339D03*
G54D25*
X146874Y249571D03*
X151811Y249606D03*
X156732D03*
X161654D03*
X166575D03*
G54D26*
X136835Y260988D03*
X176606Y261039D03*
G54D42*
X130866Y107520D02*
X136339D01*
Y111535*
X128150Y107520D02*
X130866D01*
X174252D02*
X171535D01*
X165866*
Y111535*
X166732Y232638D02*
X166575D01*
Y249606*
G54D43*
X142165Y232638D03*
X166732D03*
G54D44*
X126496Y212913D02*
Y223898D01*
X126378Y224016*
G74*
X0Y0D02*
M02*
