*
*
G04 PADS 9.5 Build Number: 522968 generated Gerber (RS-274-X) file*
G04 PC Version=2.1*
*
%IN "Plasma_Gen_Transformer_"*%
*
%MOIN*%
*
%FSLAX35Y35*%
*
*
*
*
G04 PC Standard Apertures*
*
*
G04 Thermal Relief Aperture macro.*
%AMTER*
1,1,$1,0,0*
1,0,$1-$2,0,0*
21,0,$3,$4,0,0,45*
21,0,$3,$4,0,0,135*
%
*
*
G04 Annular Aperture macro.*
%AMANN*
1,1,$1,0,0*
1,0,$2,0,0*
%
*
*
G04 Odd Aperture macro.*
%AMODD*
1,1,$1,0,0*
1,0,$1-0.005,0,0*
%
*
*
G04 PC Custom Aperture Macros*
*
*
*
*
*
*
G04 PC Aperture Table*
*
%ADD010C,0.00004*%
%ADD011R,0.01969X0.01969*%
%ADD014C,0.07874*%
%ADD016C,0.00394*%
%ADD017C,0.02362*%
%ADD019C,0.00787*%
%ADD020C,0.02559*%
%ADD021C,0.01181*%
%ADD022R,0.09567X0.09331*%
%ADD023R,0.02756X0.09843*%
%ADD024R,0.03937X0.11811*%
%ADD025R,0.0315X0.06299*%
%ADD026R,0.09055X0.12598*%
%ADD027C,0.03543*%
%ADD028C,0.01378*%
*
*
*
*
G04 PC Circuitry*
G04 Layer Name Plasma_Gen_Transformer_ - circuitry*
%LPD*%
*
*
G04 PC Custom Flashes*
G04 Layer Name Plasma_Gen_Transformer_ - flashes*
%LPD*%
*
*
G04 PC Circuitry*
G04 Layer Name Plasma_Gen_Transformer_ - circuitry*
%LPD*%
*
G54D10*
G54D11*
G01X117638Y237047D03*
Y240197D03*
G54D14*
X109843Y109843D03*
X192520D03*
X109843Y259449D03*
X192520D03*
G54D16*
X197244D02*
G75*
G03X197244I-4724J0D01*
G01X114567D02*
G03X114567I-4724J0D01*
G01X201378Y227953D02*
Y268110D01*
G03X201181Y268307I-197J0*
G01X136429*
G03X136326Y267943I0J-197*
G01X136791Y267106D02*
G03X136326Y267943I-984J0D01*
G01X136791Y267106D02*
Y257776D01*
X135807Y256791D02*
G03X136791Y257776I0J985D01*
G01X135807Y256791D02*
X126240D01*
X125256Y257776D02*
G03X126240Y256791I984J-0D01*
G01X125256Y257776D02*
Y267106D01*
X125722Y267943D02*
G03X125256Y267106I518J-837D01*
G01X125722Y267943D02*
G03X125618Y268307I-104J167D01*
G01X101181*
G03X100984Y268110I0J-197*
G01Y227953*
G03X101181Y227756I197J-0*
G01X134055*
G03X134252Y227953I0J197*
G01Y228274*
X134252D02*
G03X134194Y228413I-197J-0D01*
G01X132721Y229886*
X132087Y231417D02*
G03X132721Y229886I2165J0D01*
G01X132087Y231417D02*
Y232028D01*
G03X131890Y232224I-197J-0*
G01X126240*
X125256Y233209D02*
G03X126240Y232224I984J-0D01*
G01X125256Y233209D02*
Y235177D01*
G03X125059Y235374I-197J0*
G01X119403*
G03X119273Y235325I0J-197*
G01X118622Y235079D02*
G03X119273Y235325I0J984D01*
G01X118622Y235079D02*
X116654D01*
X115669Y236063D02*
G03X116654Y235079I985J-0D01*
G01X115669Y236063D02*
Y238031D01*
X115801Y238524D02*
G03X115669Y238031I853J-493D01*
G01X115801Y238524D02*
G03Y238720I-170J98D01*
G01X115669Y239213D02*
G03X115801Y238720I985J-0D01*
G01X115669Y239213D02*
Y241181D01*
X116654Y242165D02*
G03X115669Y241181I-0J-984D01*
G01X116654Y242165D02*
X118622D01*
X119606Y241181D02*
G03X118622Y242165I-984J0D01*
G01X119606Y241181D02*
Y239213D01*
X119575Y238967D02*
G03X119606Y239213I-953J246D01*
G01X119575Y238967D02*
G03X119766Y238720I191J-50D01*
G01X125059*
G03X125256Y238917I0J197*
G01Y242539*
X126240Y243524D02*
G03X125256Y242539I0J-985D01*
G01X126240Y243524D02*
X135807D01*
X136791Y242539D02*
G03X135807Y243524I-984J0D01*
G01X136791Y242539D02*
Y235827D01*
G03X136988Y235630I197J-0*
G01X142556*
G03X142748Y235870I0J197*
G01X142724Y236087D02*
G03X142749Y235870I985J-0D01*
G01X142724Y236087D02*
Y248685D01*
X143709Y249669D02*
G03X142724Y248685I-0J-984D01*
G01X143709Y249669D02*
X152764D01*
X153748Y248685D02*
G03X152764Y249669I-984J0D01*
G01X153748Y248685D02*
Y236087D01*
X153724Y235870D02*
G03X153748Y236087I-960J217D01*
G01X153724Y235870D02*
G03X153916Y235630I192J-43D01*
G01X154927*
G03X155066Y235688I0J197*
G01X156045Y236666*
G03X156102Y236805I-140J139*
G01Y249789*
G03X156037Y249936I-197J-0*
G01X155709Y250669D02*
G03X156037Y249936I984J0D01*
G01X155709Y250669D02*
Y256969D01*
X156693Y257953D02*
G03X155709Y256969I-0J-984D01*
G01X156693Y257953D02*
X159843D01*
X160581Y257620D02*
G03X159843Y257953I-738J-651D01*
G01X160581Y257620D02*
G03X160876I147J130D01*
G01X161614Y257953D02*
G03X160876Y257620I0J-984D01*
G01X161614Y257953D02*
X164764D01*
X165502Y257620D02*
G03X164764Y257953I-738J-651D01*
G01X165502Y257620D02*
G03X165797I148J130D01*
G01X166535Y257953D02*
G03X165797Y257620I0J-984D01*
G01X166535Y257953D02*
X169685D01*
X170423Y257620D02*
G03X169685Y257953I-738J-651D01*
G01X170423Y257620D02*
G03X170718I148J130D01*
G01X171457Y257953D02*
G03X170719Y257620I-0J-984D01*
G01X171457Y257953D02*
X174606D01*
X175338Y257627D02*
G03X174606Y257953I-732J-658D01*
G01X175338Y257627D02*
G03X175636Y257632I147J131D01*
G01X176394Y257988D02*
G03X175636Y257632I-0J-984D01*
G01X176394Y257988D02*
X179543D01*
X180528Y257004D02*
G03X179543Y257988I-985J-0D01*
G01X180528Y257004D02*
Y250705D01*
X179543Y249720D02*
G03X180528Y250705I0J985D01*
G01X179543Y249720D02*
X176394D01*
X175662Y250047D02*
G03X176394Y249720I732J658D01*
G01X175662Y250047D02*
G03X175364Y250041I-147J-132D01*
G01X174606Y249685D02*
G03X175364Y250041I0J984D01*
G01X174606Y249685D02*
X171457D01*
X170719Y250018D02*
G03X171457Y249685I738J651D01*
G01X170718Y250018D02*
G03X170423I-147J-130D01*
G01X170189Y249824D02*
G03X170423Y250018I-504J845D01*
G01X170189Y249824D02*
G03X170150Y249515I100J-170D01*
G01X171379Y248286*
G03X171518Y248228I139J139*
G01X177531*
G03X177677Y248294I-0J197*
G01Y245407D02*
G03Y248294I1614J1443D01*
G01Y245407D02*
G03X177531Y245472I-146J-131D01*
G01X170866*
X169892Y245876D02*
G03X170866Y245472I974J974D01*
G01X169892Y245876D02*
X167136Y248632D01*
X166736Y249503D02*
G03X167136Y248632I1374J103D01*
G01X166736Y249503D02*
G03X166540Y249685I-196J-15D01*
G01X166535*
X165797Y250018D02*
G03X166535Y249685I738J651D01*
G01X165797Y250018D02*
G03X165502I-147J-130D01*
G01X164764Y249685D02*
G03X165502Y250018I-0J984D01*
G01X164764Y249685D02*
X161614D01*
X160876Y250018D02*
G03X161614Y249685I738J651D01*
G01X160876Y250018D02*
G03X160581I-148J-130D01*
G01X160499Y249936D02*
G03X160581Y250018I-656J733D01*
G01X160499Y249936D02*
G03X160433Y249789I131J-147D01*
G01Y235827*
X159799Y234296D02*
G03X160433Y235827I-1531J1531D01*
G01X159799Y234296D02*
X157437Y231933D01*
X155906Y231299D02*
G03X157437Y231933I-0J2166D01*
G01X155906Y231299D02*
X137908D01*
G03X137768Y230963I-0J-197*
G01X137948Y230783*
X138583Y229252D02*
G03X137948Y230783I-2166J-0D01*
G01X138583Y229252D02*
Y227953D01*
G03X138780Y227756I197J-0*
G01X201181*
G03X201378Y227953I0J197*
G01X193520Y248736D02*
Y236138D01*
X192535Y235154D02*
G03X193520Y236138I0J984D01*
G01X192535Y235154D02*
X183480D01*
X182496Y236138D02*
G03X183480Y235154I984J-0D01*
G01X182496Y236138D02*
Y248736D01*
X183480Y249720D02*
G03X182496Y248736I0J-984D01*
G01X183480Y249720D02*
X192535D01*
X193520Y248736D02*
G03X192535Y249720I-985J0D01*
G01X197244Y259449D02*
G03X197244I-4724J0D01*
G01X114567D02*
G03X114567I-4724J0D01*
G01X136511Y267794D02*
X201378D01*
X136733Y267440D02*
X201378D01*
X136791Y267085D02*
X201378D01*
X136791Y266731D02*
X201378D01*
X136791Y266377D02*
X201378D01*
X136791Y266022D02*
X201378D01*
X136791Y265668D02*
X201378D01*
X136791Y265314D02*
X201378D01*
X136791Y264959D02*
X201378D01*
X136791Y264605D02*
X201378D01*
X136791Y264251D02*
X201378D01*
X194113Y263896D02*
X201378D01*
X194879Y263542D02*
X201378D01*
X195408Y263188D02*
X201378D01*
X195816Y262833D02*
X201378D01*
X196144Y262479D02*
X201378D01*
X196413Y262125D02*
X201378D01*
X196634Y261770D02*
X201378D01*
X196815Y261416D02*
X201378D01*
X196960Y261062D02*
X201378D01*
X197073Y260707D02*
X201378D01*
X197157Y260353D02*
X201378D01*
X197212Y259999D02*
X201378D01*
X197240Y259644D02*
X201378D01*
X197241Y259290D02*
X201378D01*
X197216Y258936D02*
X201378D01*
X197164Y258581D02*
X201378D01*
X197083Y258227D02*
X201378D01*
X196973Y257873D02*
X201378D01*
X196832Y257518D02*
X201378D01*
X196655Y257164D02*
X201378D01*
X196438Y256810D02*
X201378D01*
X196175Y256455D02*
X201378D01*
X195853Y256101D02*
X201378D01*
X195455Y255747D02*
X201378D01*
X194942Y255392D02*
X201378D01*
X194212Y255038D02*
X201378D01*
X180528Y254684D02*
X201378D01*
X180528Y254329D02*
X201378D01*
X180528Y253975D02*
X201378D01*
X180528Y253621D02*
X201378D01*
X180528Y253266D02*
X201378D01*
X180528Y252912D02*
X201378D01*
X180528Y252558D02*
X201378D01*
X180528Y252203D02*
X201378D01*
X180528Y251849D02*
X201378D01*
X180528Y251495D02*
X201378D01*
X180528Y251140D02*
X201378D01*
X180528Y250786D02*
X201378D01*
X180489Y250432D02*
X201378D01*
X180302Y250077D02*
X201378D01*
X179615Y249723D02*
X201378D01*
X193290Y249369D02*
X201378D01*
X193480Y249014D02*
X201378D01*
X193520Y248660D02*
X201378D01*
X193520Y248306D02*
X201378D01*
X193520Y247951D02*
X201378D01*
X193520Y247597D02*
X201378D01*
X193520Y247243D02*
X201378D01*
X193520Y246888D02*
X201378D01*
X193520Y246534D02*
X201378D01*
X193520Y246180D02*
X201378D01*
X193520Y245825D02*
X201378D01*
X193520Y245471D02*
X201378D01*
X193520Y245117D02*
X201378D01*
X193520Y244762D02*
X201378D01*
X193520Y244408D02*
X201378D01*
X193520Y244054D02*
X201378D01*
X193520Y243699D02*
X201378D01*
X193520Y243345D02*
X201378D01*
X193520Y242991D02*
X201378D01*
X193520Y242636D02*
X201378D01*
X193520Y242282D02*
X201378D01*
X193520Y241928D02*
X201378D01*
X193520Y241573D02*
X201378D01*
X193520Y241219D02*
X201378D01*
X193520Y240865D02*
X201378D01*
X193520Y240510D02*
X201378D01*
X193520Y240156D02*
X201378D01*
X193520Y239802D02*
X201378D01*
X193520Y239448D02*
X201378D01*
X193520Y239093D02*
X201378D01*
X193520Y238739D02*
X201378D01*
X193520Y238385D02*
X201378D01*
X193520Y238030D02*
X201378D01*
X193520Y237676D02*
X201378D01*
X193520Y237322D02*
X201378D01*
X193520Y236967D02*
X201378D01*
X193520Y236613D02*
X201378D01*
X193520Y236259D02*
X201378D01*
X193492Y235904D02*
X201378D01*
X193325Y235550D02*
X201378D01*
X192820Y235196D02*
X201378D01*
X160196Y234841D02*
X201378D01*
X159969Y234487D02*
X201378D01*
X159636Y234133D02*
X201378D01*
X159281Y233778D02*
X201378D01*
X158927Y233424D02*
X201378D01*
X158573Y233070D02*
X201378D01*
X158218Y232715D02*
X201378D01*
X157864Y232361D02*
X201378D01*
X157510Y232007D02*
X201378D01*
X157091Y231652D02*
X201378D01*
X137885Y231298D02*
X201378D01*
X137788Y230944D02*
X201378D01*
X138120Y230589D02*
X201378D01*
X138347Y230235D02*
X201378D01*
X138489Y229881D02*
X201378D01*
X138565Y229526D02*
X201378D01*
X138583Y229172D02*
X201378D01*
X138583Y228818D02*
X201378D01*
X138583Y228463D02*
X201378D01*
X138583Y228109D02*
X201378D01*
X136236Y268148D02*
X201374D01*
X136791Y263896D02*
X190926D01*
X180528Y255038D02*
X190827D01*
X136791Y263542D02*
X190160D01*
X180528Y255392D02*
X190098D01*
X136791Y263188D02*
X189632D01*
X180528Y255747D02*
X189585D01*
X136791Y262833D02*
X189223D01*
X180528Y256101D02*
X189186D01*
X136791Y262479D02*
X188895D01*
X180528Y256455D02*
X188865D01*
X136791Y262125D02*
X188626D01*
X180528Y256810D02*
X188601D01*
X136791Y261770D02*
X188405D01*
X180514Y257164D02*
X188384D01*
X136791Y261416D02*
X188224D01*
X180382Y257518D02*
X188208D01*
X136791Y261062D02*
X188079D01*
X180006Y257873D02*
X188066D01*
X136791Y260707D02*
X187966D01*
X136791Y258227D02*
X187956D01*
X136791Y260353D02*
X187883D01*
X136791Y258581D02*
X187876D01*
X136791Y259999D02*
X187827D01*
X136791Y258936D02*
X187823D01*
X136791Y259644D02*
X187799D01*
X136791Y259290D02*
X187798D01*
X160339Y235196D02*
X183196D01*
X170297Y249369D02*
X182726D01*
X160415Y235550D02*
X182691D01*
X179367Y249014D02*
X182536D01*
X160433Y235904D02*
X182524D01*
X180480Y248660D02*
X182496D01*
X180895Y248306D02*
X182496D01*
X181156Y247951D02*
X182496D01*
X181324Y247597D02*
X182496D01*
X181421Y247243D02*
X182496D01*
X181456Y246888D02*
X182496D01*
X181433Y246534D02*
X182496D01*
X181350Y246180D02*
X182496D01*
X181199Y245825D02*
X182496D01*
X180961Y245471D02*
X182496D01*
X180589Y245117D02*
X182496D01*
X179865Y244762D02*
X182496D01*
X160433Y244408D02*
X182496D01*
X160433Y244054D02*
X182496D01*
X160433Y243699D02*
X182496D01*
X160433Y243345D02*
X182496D01*
X160433Y242991D02*
X182496D01*
X160433Y242636D02*
X182496D01*
X160433Y242282D02*
X182496D01*
X160433Y241928D02*
X182496D01*
X160433Y241573D02*
X182496D01*
X160433Y241219D02*
X182496D01*
X160433Y240865D02*
X182496D01*
X160433Y240510D02*
X182496D01*
X160433Y240156D02*
X182496D01*
X160433Y239802D02*
X182496D01*
X160433Y239448D02*
X182496D01*
X160433Y239093D02*
X182496D01*
X160433Y238739D02*
X182496D01*
X160433Y238385D02*
X182496D01*
X160433Y238030D02*
X182496D01*
X160433Y237676D02*
X182496D01*
X160433Y237322D02*
X182496D01*
X160433Y236967D02*
X182496D01*
X160433Y236613D02*
X182496D01*
X160433Y236259D02*
X182496D01*
X170651Y249014D02*
X179215D01*
X160433Y244762D02*
X178717D01*
X171005Y248660D02*
X178102D01*
X160433Y245117D02*
X177994D01*
X171360Y248306D02*
X177688D01*
X160433Y245471D02*
X177553D01*
X174877Y249723D02*
X176322D01*
X174995Y257873D02*
X175931D01*
X175404Y250077D02*
X175627D01*
X170105Y249723D02*
X171186D01*
X170074Y257873D02*
X171068D01*
X170517Y250077D02*
X170625D01*
X160433Y245825D02*
X169945D01*
X160433Y246180D02*
X169588D01*
X160433Y246534D02*
X169234D01*
X160433Y246888D02*
X168879D01*
X160433Y247243D02*
X168525D01*
X160433Y247597D02*
X168171D01*
X160433Y247951D02*
X167816D01*
X160433Y248306D02*
X167462D01*
X160433Y248660D02*
X167108D01*
X160433Y249014D02*
X166866D01*
X160433Y249369D02*
X166753D01*
X165035Y249723D02*
X166264D01*
X165153Y257873D02*
X166147D01*
X165596Y250077D02*
X165703D01*
X160433Y249723D02*
X161343D01*
X160231Y257873D02*
X161225D01*
X160675Y250077D02*
X160782D01*
X136791Y257873D02*
X156304D01*
X100984Y249723D02*
X156102D01*
X153472Y249369D02*
X156102D01*
X153691Y249014D02*
X156102D01*
X153748Y248660D02*
X156102D01*
X153748Y248306D02*
X156102D01*
X153748Y247951D02*
X156102D01*
X153748Y247597D02*
X156102D01*
X153748Y247243D02*
X156102D01*
X153748Y246888D02*
X156102D01*
X153748Y246534D02*
X156102D01*
X153748Y246180D02*
X156102D01*
X153748Y245825D02*
X156102D01*
X153748Y245471D02*
X156102D01*
X153748Y245117D02*
X156102D01*
X153748Y244762D02*
X156102D01*
X153748Y244408D02*
X156102D01*
X153748Y244054D02*
X156102D01*
X153748Y243699D02*
X156102D01*
X153748Y243345D02*
X156102D01*
X153748Y242991D02*
X156102D01*
X153748Y242636D02*
X156102D01*
X153748Y242282D02*
X156102D01*
X153748Y241928D02*
X156102D01*
X153748Y241573D02*
X156102D01*
X153748Y241219D02*
X156102D01*
X153748Y240865D02*
X156102D01*
X153748Y240510D02*
X156102D01*
X153748Y240156D02*
X156102D01*
X153748Y239802D02*
X156102D01*
X153748Y239448D02*
X156102D01*
X153748Y239093D02*
X156102D01*
X153748Y238739D02*
X156102D01*
X153748Y238385D02*
X156102D01*
X153748Y238030D02*
X156102D01*
X153748Y237676D02*
X156102D01*
X153748Y237322D02*
X156102D01*
X153748Y236967D02*
X156102D01*
X153748Y236613D02*
X155992D01*
X100984Y250077D02*
X155906D01*
X136757Y257518D02*
X155877D01*
X100984Y250432D02*
X155738D01*
X136578Y257164D02*
X155728D01*
X135996Y256810D02*
X155709D01*
X113498Y256455D02*
X155709D01*
X113176Y256101D02*
X155709D01*
X112778Y255747D02*
X155709D01*
X112264Y255392D02*
X155709D01*
X111535Y255038D02*
X155709D01*
X100984Y254684D02*
X155709D01*
X100984Y254329D02*
X155709D01*
X100984Y253975D02*
X155709D01*
X100984Y253621D02*
X155709D01*
X100984Y253266D02*
X155709D01*
X100984Y252912D02*
X155709D01*
X100984Y252558D02*
X155709D01*
X100984Y252203D02*
X155709D01*
X100984Y251849D02*
X155709D01*
X100984Y251495D02*
X155709D01*
X100984Y251140D02*
X155709D01*
X100984Y250786D02*
X155709D01*
X153748Y236259D02*
X155637D01*
X153731Y235904D02*
X155283D01*
X100984Y249369D02*
X143001D01*
X100984Y249014D02*
X142781D01*
X136791Y235904D02*
X142741D01*
X100984Y248660D02*
X142724D01*
X100984Y248306D02*
X142724D01*
X100984Y247951D02*
X142724D01*
X100984Y247597D02*
X142724D01*
X100984Y247243D02*
X142724D01*
X100984Y246888D02*
X142724D01*
X100984Y246534D02*
X142724D01*
X100984Y246180D02*
X142724D01*
X100984Y245825D02*
X142724D01*
X100984Y245471D02*
X142724D01*
X100984Y245117D02*
X142724D01*
X100984Y244762D02*
X142724D01*
X100984Y244408D02*
X142724D01*
X100984Y244054D02*
X142724D01*
X100984Y243699D02*
X142724D01*
X136372Y243345D02*
X142724D01*
X136682Y242991D02*
X142724D01*
X136787Y242636D02*
X142724D01*
X136791Y242282D02*
X142724D01*
X136791Y241928D02*
X142724D01*
X136791Y241573D02*
X142724D01*
X136791Y241219D02*
X142724D01*
X136791Y240865D02*
X142724D01*
X136791Y240510D02*
X142724D01*
X136791Y240156D02*
X142724D01*
X136791Y239802D02*
X142724D01*
X136791Y239448D02*
X142724D01*
X136791Y239093D02*
X142724D01*
X136791Y238739D02*
X142724D01*
X136791Y238385D02*
X142724D01*
X136791Y238030D02*
X142724D01*
X136791Y237676D02*
X142724D01*
X136791Y237322D02*
X142724D01*
X136791Y236967D02*
X142724D01*
X136791Y236613D02*
X142724D01*
X136791Y236259D02*
X142724D01*
X100984Y228109D02*
X134252D01*
X100984Y228463D02*
X134144D01*
X100984Y228818D02*
X133789D01*
X100984Y229172D02*
X133435D01*
X100984Y229526D02*
X133081D01*
X100984Y229881D02*
X132726D01*
X100984Y230235D02*
X132438D01*
X100984Y230589D02*
X132251D01*
X100984Y230944D02*
X132139D01*
X100984Y231298D02*
X132090D01*
X100984Y232007D02*
X132087D01*
X100984Y231652D02*
X132087D01*
X113761Y256810D02*
X126051D01*
X100988Y268148D02*
X125811D01*
X100984Y232361D02*
X125740D01*
X100984Y243345D02*
X125675D01*
X100984Y267794D02*
X125536D01*
X113978Y257164D02*
X125469D01*
X100984Y232715D02*
X125389D01*
X100984Y242991D02*
X125366D01*
X100984Y267440D02*
X125314D01*
X114155Y257518D02*
X125290D01*
X100984Y233070D02*
X125266D01*
X100984Y242636D02*
X125261D01*
X100984Y267085D02*
X125256D01*
X100984Y266731D02*
X125256D01*
X100984Y266377D02*
X125256D01*
X100984Y266022D02*
X125256D01*
X100984Y265668D02*
X125256D01*
X100984Y265314D02*
X125256D01*
X100984Y264959D02*
X125256D01*
X100984Y264605D02*
X125256D01*
X100984Y264251D02*
X125256D01*
X111436Y263896D02*
X125256D01*
X112202Y263542D02*
X125256D01*
X112731Y263188D02*
X125256D01*
X113139Y262833D02*
X125256D01*
X113467Y262479D02*
X125256D01*
X113736Y262125D02*
X125256D01*
X113957Y261770D02*
X125256D01*
X114138Y261416D02*
X125256D01*
X114283Y261062D02*
X125256D01*
X114396Y260707D02*
X125256D01*
X114480Y260353D02*
X125256D01*
X114535Y259999D02*
X125256D01*
X114563Y259644D02*
X125256D01*
X114564Y259290D02*
X125256D01*
X114539Y258936D02*
X125256D01*
X114487Y258581D02*
X125256D01*
X114406Y258227D02*
X125256D01*
X114296Y257873D02*
X125256D01*
X100984Y242282D02*
X125256D01*
X119263Y241928D02*
X125256D01*
X119525Y241573D02*
X125256D01*
X119606Y241219D02*
X125256D01*
X119606Y240865D02*
X125256D01*
X119606Y240510D02*
X125256D01*
X119606Y240156D02*
X125256D01*
X119606Y239802D02*
X125256D01*
X119606Y239448D02*
X125256D01*
X119599Y239093D02*
X125256D01*
X100984Y234841D02*
X125256D01*
X100984Y234487D02*
X125256D01*
X100984Y234133D02*
X125256D01*
X100984Y233778D02*
X125256D01*
X100984Y233424D02*
X125256D01*
X119087Y235196D02*
X125255D01*
X119683Y238739D02*
X125142D01*
X100984Y235196D02*
X116188D01*
X100984Y241928D02*
X116012D01*
X100984Y235550D02*
X115814D01*
X100984Y238739D02*
X115791D01*
X100984Y241573D02*
X115751D01*
X100984Y238385D02*
X115735D01*
X100984Y235904D02*
X115682D01*
X100984Y239093D02*
X115677D01*
X100984Y241219D02*
X115670D01*
X100984Y240865D02*
X115669D01*
X100984Y240510D02*
X115669D01*
X100984Y240156D02*
X115669D01*
X100984Y239802D02*
X115669D01*
X100984Y239448D02*
X115669D01*
X100984Y238030D02*
X115669D01*
X100984Y237676D02*
X115669D01*
X100984Y237322D02*
X115669D01*
X100984Y236967D02*
X115669D01*
X100984Y236613D02*
X115669D01*
X100984Y236259D02*
X115669D01*
X100984Y263896D02*
X108249D01*
X100984Y255038D02*
X108150D01*
X100984Y263542D02*
X107483D01*
X100984Y255392D02*
X107421D01*
X100984Y263188D02*
X106954D01*
X100984Y255747D02*
X106907D01*
X100984Y262833D02*
X106546D01*
X100984Y256101D02*
X106509D01*
X100984Y262479D02*
X106218D01*
X100984Y256455D02*
X106187D01*
X100984Y262125D02*
X105949D01*
X100984Y256810D02*
X105924D01*
X100984Y261770D02*
X105728D01*
X100984Y257164D02*
X105707D01*
X100984Y261416D02*
X105547D01*
X100984Y257518D02*
X105530D01*
X100984Y261062D02*
X105402D01*
X100984Y257873D02*
X105389D01*
X100984Y260707D02*
X105289D01*
X100984Y258227D02*
X105279D01*
X100984Y260353D02*
X105205D01*
X100984Y258581D02*
X105198D01*
X100984Y259999D02*
X105150D01*
X100984Y258936D02*
X105146D01*
X100984Y259644D02*
X105122D01*
X100984Y259290D02*
X105121D01*
X100000Y100000D02*
X202362D01*
Y269291*
X100000*
Y100000*
X116181Y125591D02*
X186181D01*
Y208268*
X116181*
Y125591*
G54D17*
X136417Y217126D02*
Y229252D01*
X134252Y231417*
Y233465*
X126575Y217126D02*
X126614Y217165D01*
Y220669*
X165945Y217126D02*
X165984Y217165D01*
Y220630*
X134252Y239252D02*
Y233465D01*
X155906*
X158268Y235827*
Y253819*
X131024Y237874D02*
X130709Y236614D01*
X134252Y237402*
Y239252*
X136496Y106535D03*
Y103583D03*
X165945Y106299D03*
Y103346D03*
X175787Y217205D03*
Y219646D03*
X126614Y220669D03*
X177953Y255236D03*
X179291Y246850D03*
X165984Y220630D03*
X163189Y253819D03*
X198425Y239409D03*
G54D19*
X130197Y237047D02*
X131024Y237874D01*
X179291Y246850D02*
X170866D01*
X168110Y249606*
Y253819*
X177969Y253854D02*
Y255236D01*
X177953*
G54D20*
X175787Y217126D02*
Y217205D01*
G54D21*
X173031Y257953D02*
Y256969D01*
Y249685D02*
Y250669D01*
X115669Y240197D02*
X116654D01*
X117638Y242165D02*
Y241181D01*
X119606Y240197D02*
X118622D01*
X142724Y242386D02*
X143709D01*
X148236Y249669D02*
Y248685D01*
X153748Y242386D02*
X152764D01*
X131024Y256791D02*
Y257776D01*
X125256Y262441D02*
X126240D01*
X136791D02*
X135807D01*
X182496Y242437D02*
X183480D01*
X188008Y249720D02*
Y248736D01*
X193520Y242437D02*
X192535D01*
X188008Y235154D02*
Y236138D01*
G54D22*
X131024Y262441D03*
Y237874D03*
G54D23*
X126575Y217126D03*
X136417D03*
X165945D03*
X175787D03*
G54D24*
X165945Y115748D03*
X136417D03*
G54D25*
X177969Y253854D03*
X173031Y253819D03*
X168110D03*
X163189D03*
X158268D03*
G54D26*
X188008Y242437D03*
X148236Y242386D03*
G54D27*
X136496Y106535D02*
Y115748D01*
X136417*
X136496Y103583D02*
Y106535D01*
X165945Y115748D02*
Y106299D01*
Y103346*
G54D28*
X117638Y237047D02*
X130197D01*
G74*
X0Y0D02*
M02*
