*
*
G04 PADS 9.5 Build Number: 522968 generated Gerber (RS-274-X) file*
G04 PC Version=2.1*
*
%IN "Plasma_Gen_Transformer_"*%
*
%MOIN*%
*
%FSLAX35Y35*%
*
*
*
*
G04 PC Standard Apertures*
*
*
G04 Thermal Relief Aperture macro.*
%AMTER*
1,1,$1,0,0*
1,0,$1-$2,0,0*
21,0,$3,$4,0,0,45*
21,0,$3,$4,0,0,135*
%
*
*
G04 Annular Aperture macro.*
%AMANN*
1,1,$1,0,0*
1,0,$2,0,0*
%
*
*
G04 Odd Aperture macro.*
%AMODD*
1,1,$1,0,0*
1,0,$1-0.005,0,0*
%
*
*
G04 PC Custom Aperture Macros*
*
*
*
*
*
*
G04 PC Aperture Table*
*
%ADD010C,0.00004*%
%ADD011R,0.01969X0.01969*%
%ADD012R,0.08858X0.04724*%
%ADD013R,0.03937X0.02953*%
%ADD014C,0.07874*%
%ADD015R,0.15748X0.15748*%
%ADD016C,0.00394*%
%ADD017C,0.02362*%
%ADD018C,0.04724*%
%ADD019C,0.00787*%
%ADD020C,0.02559*%
%ADD021C,0.01181*%
*
*
*
*
G04 PC Circuitry*
G04 Layer Name Plasma_Gen_Transformer_ - circuitry*
%LPD*%
*
*
G04 PC Custom Flashes*
G04 Layer Name Plasma_Gen_Transformer_ - flashes*
%LPD*%
*
*
G04 PC Circuitry*
G04 Layer Name Plasma_Gen_Transformer_ - circuitry*
%LPD*%
*
G54D10*
G54D11*
G01X171890Y255236D03*
X175039D03*
X188189Y243701D03*
Y246850D03*
X148425Y243701D03*
Y246850D03*
G54D12*
X141831Y265551D03*
X160531D03*
X141831Y258858D03*
X160531D03*
G54D13*
X140531Y231870D03*
Y236870D03*
Y241870D03*
Y246870D03*
X118898D03*
Y231870D03*
X180020D03*
Y236870D03*
Y241870D03*
Y246870D03*
X158386D03*
Y231870D03*
G54D14*
X109843Y109843D03*
X192520D03*
X109843Y259449D03*
X192520D03*
G54D15*
X129961Y108701D03*
X172244D03*
G54D16*
X119094Y248150D02*
Y230591D01*
X134567*
Y248150*
X119094*
Y230591D02*
Y248150D01*
X119291Y230591D02*
Y248150D01*
X119488Y230591D02*
Y248150D01*
X119685Y230591D02*
Y248150D01*
X119882Y230591D02*
Y248150D01*
X120079Y230591D02*
Y248150D01*
X120276Y230591D02*
Y248150D01*
X120472Y230591D02*
Y248150D01*
X120669Y230591D02*
Y248150D01*
X120866Y230591D02*
Y248150D01*
X121063Y230591D02*
Y248150D01*
X121260Y230591D02*
Y248150D01*
X121457Y230591D02*
Y248150D01*
X121654Y230591D02*
Y248150D01*
X121850Y230591D02*
Y248150D01*
X122047Y230591D02*
Y248150D01*
X122244Y230591D02*
Y248150D01*
X122441Y230591D02*
Y248150D01*
X122638Y230591D02*
Y248150D01*
X122835Y230591D02*
Y248150D01*
X123031Y230591D02*
Y248150D01*
X123228Y230591D02*
Y248150D01*
X123425Y230591D02*
Y248150D01*
X123622Y230591D02*
Y248150D01*
X123819Y230591D02*
Y248150D01*
X124016Y230591D02*
Y248150D01*
X124213Y230591D02*
Y248150D01*
X124409Y230591D02*
Y248150D01*
X124606Y230591D02*
Y248150D01*
X124803Y230591D02*
Y248150D01*
X125000Y230591D02*
Y248150D01*
X125197Y230591D02*
Y248150D01*
X125394Y230591D02*
Y248150D01*
X125591Y230591D02*
Y248150D01*
X125787Y230591D02*
Y248150D01*
X125984Y230591D02*
Y248150D01*
X126181Y230591D02*
Y248150D01*
X126378Y230591D02*
Y248150D01*
X126575Y230591D02*
Y248150D01*
X126772Y230591D02*
Y248150D01*
X126969Y230591D02*
Y248150D01*
X127165Y230591D02*
Y248150D01*
X127362Y230591D02*
Y248150D01*
X127559Y230591D02*
Y248150D01*
X127756Y230591D02*
Y248150D01*
X127953Y230591D02*
Y248150D01*
X128150Y230591D02*
Y248150D01*
X128346Y230591D02*
Y248150D01*
X128543Y230591D02*
Y248150D01*
X128740Y230591D02*
Y248150D01*
X128937Y230591D02*
Y248150D01*
X129134Y230591D02*
Y248150D01*
X129331Y230591D02*
Y248150D01*
X129528Y230591D02*
Y248150D01*
X129724Y230591D02*
Y248150D01*
X129921Y230591D02*
Y248150D01*
X130118Y230591D02*
Y248150D01*
X130315Y230591D02*
Y248150D01*
X130512Y230591D02*
Y248150D01*
X130709Y230591D02*
Y248150D01*
X130906Y230591D02*
Y248150D01*
X131102Y230591D02*
Y248150D01*
X131299Y230591D02*
Y248150D01*
X131496Y230591D02*
Y248150D01*
X131693Y230591D02*
Y248150D01*
X131890Y230591D02*
Y248150D01*
X132087Y230591D02*
Y248150D01*
X132283Y230591D02*
Y248150D01*
X132480Y230591D02*
Y248150D01*
X132677Y230591D02*
Y248150D01*
X132874Y230591D02*
Y248150D01*
X133071Y230591D02*
Y248150D01*
X133268Y230591D02*
Y248150D01*
X133465Y230591D02*
Y248150D01*
X133661Y230591D02*
Y248150D01*
X133858Y230591D02*
Y248150D01*
X134055Y230591D02*
Y248150D01*
X134252Y230591D02*
Y248150D01*
X134449Y230591D02*
Y248150D01*
X129724Y250098D02*
Y228642D01*
X132894*
Y250098*
X129724*
Y228642D02*
Y250098D01*
X129921Y228642D02*
Y250098D01*
X130118Y228642D02*
Y250098D01*
X130315Y228642D02*
Y250098D01*
X130512Y228642D02*
Y250098D01*
X130709Y228642D02*
Y250098D01*
X130906Y228642D02*
Y250098D01*
X131102Y228642D02*
Y250098D01*
X131299Y228642D02*
Y250098D01*
X131496Y228642D02*
Y250098D01*
X131693Y228642D02*
Y250098D01*
X131890Y228642D02*
Y250098D01*
X132087Y228642D02*
Y250098D01*
X132283Y228642D02*
Y250098D01*
X132480Y228642D02*
Y250098D01*
X132677Y228642D02*
Y250098D01*
X132874Y228642D02*
Y250098D01*
X158583Y248150D02*
Y230591D01*
X174055*
Y248150*
X158583*
Y230591D02*
Y248150D01*
X158780Y230591D02*
Y248150D01*
X158976Y230591D02*
Y248150D01*
X159173Y230591D02*
Y248150D01*
X159370Y230591D02*
Y248150D01*
X159567Y230591D02*
Y248150D01*
X159764Y230591D02*
Y248150D01*
X159961Y230591D02*
Y248150D01*
X160157Y230591D02*
Y248150D01*
X160354Y230591D02*
Y248150D01*
X160551Y230591D02*
Y248150D01*
X160748Y230591D02*
Y248150D01*
X160945Y230591D02*
Y248150D01*
X161142Y230591D02*
Y248150D01*
X161339Y230591D02*
Y248150D01*
X161535Y230591D02*
Y248150D01*
X161732Y230591D02*
Y248150D01*
X161929Y230591D02*
Y248150D01*
X162126Y230591D02*
Y248150D01*
X162323Y230591D02*
Y248150D01*
X162520Y230591D02*
Y248150D01*
X162717Y230591D02*
Y248150D01*
X162913Y230591D02*
Y248150D01*
X163110Y230591D02*
Y248150D01*
X163307Y230591D02*
Y248150D01*
X163504Y230591D02*
Y248150D01*
X163701Y230591D02*
Y248150D01*
X163898Y230591D02*
Y248150D01*
X164094Y230591D02*
Y248150D01*
X164291Y230591D02*
Y248150D01*
X164488Y230591D02*
Y248150D01*
X164685Y230591D02*
Y248150D01*
X164882Y230591D02*
Y248150D01*
X165079Y230591D02*
Y248150D01*
X165276Y230591D02*
Y248150D01*
X165472Y230591D02*
Y248150D01*
X165669Y230591D02*
Y248150D01*
X165866Y230591D02*
Y248150D01*
X166063Y230591D02*
Y248150D01*
X166260Y230591D02*
Y248150D01*
X166457Y230591D02*
Y248150D01*
X166654Y230591D02*
Y248150D01*
X166850Y230591D02*
Y248150D01*
X167047Y230591D02*
Y248150D01*
X167244Y230591D02*
Y248150D01*
X167441Y230591D02*
Y248150D01*
X167638Y230591D02*
Y248150D01*
X167835Y230591D02*
Y248150D01*
X168031Y230591D02*
Y248150D01*
X168228Y230591D02*
Y248150D01*
X168425Y230591D02*
Y248150D01*
X168622Y230591D02*
Y248150D01*
X168819Y230591D02*
Y248150D01*
X169016Y230591D02*
Y248150D01*
X169213Y230591D02*
Y248150D01*
X169409Y230591D02*
Y248150D01*
X169606Y230591D02*
Y248150D01*
X169803Y230591D02*
Y248150D01*
X170000Y230591D02*
Y248150D01*
X170197Y230591D02*
Y248150D01*
X170394Y230591D02*
Y248150D01*
X170591Y230591D02*
Y248150D01*
X170787Y230591D02*
Y248150D01*
X170984Y230591D02*
Y248150D01*
X171181Y230591D02*
Y248150D01*
X171378Y230591D02*
Y248150D01*
X171575Y230591D02*
Y248150D01*
X171772Y230591D02*
Y248150D01*
X171969Y230591D02*
Y248150D01*
X172165Y230591D02*
Y248150D01*
X172362Y230591D02*
Y248150D01*
X172559Y230591D02*
Y248150D01*
X172756Y230591D02*
Y248150D01*
X172953Y230591D02*
Y248150D01*
X173150Y230591D02*
Y248150D01*
X173346Y230591D02*
Y248150D01*
X173543Y230591D02*
Y248150D01*
X173740Y230591D02*
Y248150D01*
X173937Y230591D02*
Y248150D01*
X169213Y250098D02*
Y228642D01*
X172382*
Y250098*
X169213*
Y228642D02*
Y250098D01*
X169409Y228642D02*
Y250098D01*
X169606Y228642D02*
Y250098D01*
X169803Y228642D02*
Y250098D01*
X170000Y228642D02*
Y250098D01*
X170197Y228642D02*
Y250098D01*
X170394Y228642D02*
Y250098D01*
X170591Y228642D02*
Y250098D01*
X170787Y228642D02*
Y250098D01*
X170984Y228642D02*
Y250098D01*
X171181Y228642D02*
Y250098D01*
X171378Y228642D02*
Y250098D01*
X171575Y228642D02*
Y250098D01*
X171772Y228642D02*
Y250098D01*
X171969Y228642D02*
Y250098D01*
X172165Y228642D02*
Y250098D01*
X172362Y228642D02*
Y250098D01*
X197244Y259449D02*
G75*
G03X197244I-4724J0D01*
G01X114567D02*
G03X114567I-4724J0D01*
G01X201378Y227953D02*
Y268110D01*
G03X201181Y268307I-197J0*
G01X166125*
G03X165931Y268077I0J-197*
G01X165945Y267913D02*
G03X165931Y268077I-984J0D01*
G01X165945Y267913D02*
Y263189D01*
X165505Y262369D02*
G03X165945Y263189I-544J820D01*
G01X165505Y262369D02*
G03Y262041I109J-164D01*
G01X165945Y261220D02*
G03X165505Y262041I-984J0D01*
G01X165945Y261220D02*
Y260433D01*
G03X166142Y260236I197J0*
G01X176575*
X177549Y259833D02*
G03X176575Y260236I-974J-975D01*
G01X177549Y259833D02*
X178927Y258455D01*
X179331Y257480D02*
G03X178927Y258455I-1378J0D01*
G01X179331Y257480D02*
Y256997D01*
G03X179396Y256850I197J-0*
G01X176769Y253423D02*
G03X179396Y256850I1184J1813D01*
G01X176769Y253423D02*
G03X176555Y253424I-107J-165D01*
G01X176024Y253268D02*
G03X176555Y253424I-0J984D01*
G01X176024Y253268D02*
X174055D01*
X173563Y253400D02*
G03X174055Y253268I492J852D01*
G01X173563Y253400D02*
G03X173366I-98J-171D01*
G01X172874Y253268D02*
G03X173366Y253400I0J984D01*
G01X172874Y253268D02*
X170906D01*
X169921Y254252D02*
G03X170906Y253268I985J-0D01*
G01X169921Y254252D02*
Y256220D01*
X170476Y257106D02*
G03X169921Y256220I430J-886D01*
G01X170476Y257106D02*
G03X170391Y257480I-85J177D01*
G01X166142*
G03X165945Y257283I-0J-197*
G01Y256496*
X165007Y255513D02*
G03X165945Y256496I-46J983D01*
G01X165007Y255513D02*
G03X164864Y255191I9J-197D01*
G01X161575Y252375D02*
G03X164864Y255191I1614J1444D01*
G01X161575Y252375D02*
G03X161428Y252441I-147J-131D01*
G01X153093*
G03X152954Y252383I0J-197*
G01X149841Y249270*
G03X149783Y249131I139J-139*
G01Y248869*
G03X149885Y248696I197J-0*
G01X150394Y247835D02*
G03X149885Y248696I-985J-0D01*
G01X150394Y247835D02*
Y245866D01*
X150262Y245374D02*
G03X150394Y245866I-853J492D01*
G01X150262Y245374D02*
G03Y245177I170J-98D01*
G01X150394Y244685D02*
G03X150262Y245177I-985J0D01*
G01X150394Y244685D02*
Y242717D01*
X149409Y241732D02*
G03X150394Y242717I0J985D01*
G01X149409Y241732D02*
X147441D01*
X146457Y242717D02*
G03X147441Y241732I984J-0D01*
G01X146457Y242717D02*
Y244685D01*
X146589Y245177D02*
G03X146457Y244685I852J-492D01*
G01X146589Y245177D02*
G03Y245374I-171J99D01*
G01X146579Y245390D02*
G03X146589Y245374I862J476D01*
G01X146579Y245390D02*
G03X146407Y245492I-172J-95D01*
G01X143677*
G03X143481Y245312I0J-197*
G01X142991Y244541D02*
G03X143481Y245312I-491J853D01*
G01X142991Y244541D02*
G03Y244199I98J-171D01*
G01X143484Y243346D02*
G03X142991Y244199I-984J0D01*
G01X143484Y243346D02*
Y240394D01*
X142991Y239541D02*
G03X143484Y240394I-491J853D01*
G01X142991Y239541D02*
G03Y239199I98J-171D01*
G01X143484Y238346D02*
G03X142991Y239199I-984J0D01*
G01X143484Y238346D02*
Y235394D01*
X142991Y234541D02*
G03X143484Y235394I-491J853D01*
G01X142991Y234541D02*
G03Y234199I98J-171D01*
G01X143484Y233346D02*
G03X142991Y234199I-984J0D01*
G01X143484Y233346D02*
Y230394D01*
X142500Y229409D02*
G03X143484Y230394I0J985D01*
G01X142500Y229409D02*
X138563D01*
X137579Y230394D02*
G03X138563Y229409I984J-0D01*
G01X137579Y230394D02*
Y233346D01*
X138072Y234199D02*
G03X137579Y233346I491J-853D01*
G01X138072Y234199D02*
G03Y234541I-98J171D01*
G01X137579Y235394D02*
G03X138072Y234541I984J-0D01*
G01X137579Y235394D02*
Y238346D01*
X138072Y239199D02*
G03X137579Y238346I491J-853D01*
G01X138072Y239199D02*
G03Y239541I-98J171D01*
G01X137579Y240394D02*
G03X138072Y239541I984J-0D01*
G01X137579Y240394D02*
Y243346D01*
X138072Y244199D02*
G03X137579Y243346I491J-853D01*
G01X138072Y244199D02*
G03Y244541I-98J171D01*
G01X137579Y245394D02*
G03X138072Y244541I984J-0D01*
G01X137579Y245394D02*
Y248346D01*
X138563Y249331D02*
G03X137579Y248346I-0J-985D01*
G01X138563Y249331D02*
X142500D01*
X143481Y248428D02*
G03X142500Y249331I-981J-82D01*
G01X143481Y248428D02*
G03X143677Y248248I196J17D01*
G01X146430*
G03X146598Y248343I-0J197*
G01X146932Y248677D02*
G03X146598Y248343I509J-842D01*
G01X146932Y248677D02*
G03X147028Y248846I-101J169D01*
G01Y249783*
X147431Y250758D02*
G03X147028Y249783I975J-975D01*
G01X147431Y250758D02*
X151467Y254793D01*
X152441Y255197D02*
G03X151467Y254793I-0J-1378D01*
G01X152441Y255197D02*
X155678D01*
G03X155749Y255577I0J197*
G01X155118Y256496D02*
G03X155749Y255577I984J0D01*
G01X155118Y256496D02*
Y258268D01*
G03X154921Y258465I-197J-0*
G01X147441*
G03X147244Y258268I-0J-197*
G01Y256496*
X146260Y255512D02*
G03X147244Y256496I-0J984D01*
G01X146260Y255512D02*
X137402D01*
X136417Y256496D02*
G03X137402Y255512I985J0D01*
G01X136417Y256496D02*
Y261220D01*
X136857Y262041D02*
G03X136417Y261220I545J-821D01*
G01X136857Y262041D02*
G03Y262369I-108J164D01*
G01X136417Y263189D02*
G03X136857Y262369I985J-0D01*
G01X136417Y263189D02*
Y267913D01*
X136431Y268077D02*
G03X136417Y267913I971J-164D01*
G01X136431Y268077D02*
G03X136237Y268307I-194J33D01*
G01X101181*
G03X100984Y268110I0J-197*
G01Y227953*
G03X101181Y227756I197J-0*
G01X124252*
G03X124449Y227953I-0J197*
G01Y229213*
G03X124252Y229409I-197J-0*
G01X118898*
X116929*
X115945Y230394D02*
G03X116929Y229409I984J-0D01*
G01X115945Y230394D02*
Y233346D01*
X116929Y234331D02*
G03X115945Y233346I0J-985D01*
G01X116929Y234331D02*
X117717D01*
G03X117913Y234528I-0J197*
G01Y244213*
G03X117717Y244409I-196J-0*
G01X116929*
X115945Y245394D02*
G03X116929Y244409I984J-0D01*
G01X115945Y245394D02*
Y248346D01*
X116929Y249331D02*
G03X115945Y248346I0J-985D01*
G01X116929Y249331D02*
X120866D01*
X128346*
G03X128543Y249528I0J197*
G01Y250295*
X129528Y251280D02*
G03X128543Y250295I-0J-985D01*
G01X129528Y251280D02*
X133091D01*
X134075Y250295D02*
G03X133091Y251280I-984J0D01*
G01X134075Y250295D02*
Y249528D01*
G03X134272Y249331I197J-0*
G01X134764*
X135748Y248346D02*
G03X134764Y249331I-984J0D01*
G01X135748Y248346D02*
Y230394D01*
X134764Y229409D02*
G03X135748Y230394I-0J985D01*
G01X134764Y229409D02*
X134272D01*
G03X134075Y229213I-0J-196*
G01Y228445*
X133985Y228035D02*
G03X134075Y228445I-894J410D01*
G01X133985Y228035D02*
G03X134164Y227756I179J-82D01*
G01X163622*
G03X163819Y227953I0J197*
G01Y229213*
G03X163622Y229409I-197J-0*
G01X158386*
X156417*
X155433Y230394D02*
G03X156417Y229409I984J-0D01*
G01X155433Y230394D02*
Y233346D01*
X156417Y234331D02*
G03X155433Y233346I0J-985D01*
G01X156417Y234331D02*
X157205D01*
G03X157402Y234528I-0J197*
G01Y244213*
G03X157205Y244409I-197J-0*
G01X156417*
X155433Y245394D02*
G03X156417Y244409I984J-0D01*
G01X155433Y245394D02*
Y248346D01*
X156417Y249331D02*
G03X155433Y248346I0J-985D01*
G01X156417Y249331D02*
X160354D01*
X167835*
G03X168031Y249528I-0J197*
G01Y250295*
X169016Y251280D02*
G03X168031Y250295I-0J-985D01*
G01X169016Y251280D02*
X172579D01*
X173563Y250295D02*
G03X172579Y251280I-984J0D01*
G01X173563Y250295D02*
Y249528D01*
G03X173760Y249331I197J-0*
G01X174252*
X175236Y248346D02*
G03X174252Y249331I-984J0D01*
G01X175236Y248346D02*
Y230394D01*
X174252Y229409D02*
G03X175236Y230394I-0J985D01*
G01X174252Y229409D02*
X173760D01*
G03X173563Y229213I-0J-196*
G01Y228445*
X173474Y228035D02*
G03X173563Y228445I-895J410D01*
G01X173474Y228035D02*
G03X173652Y227756I178J-82D01*
G01X201181*
G03X201378Y227953I0J197*
G01X155558Y262041D02*
G03Y262369I-109J164D01*
G01X155118Y263189D02*
G03X155558Y262369I984J-0D01*
G01X155118Y263189D02*
Y267913D01*
X155132Y268077D02*
G03X155118Y267913I970J-164D01*
G01X155132Y268077D02*
G03X154938Y268307I-194J33D01*
G01X147424*
G03X147230Y268077I0J-197*
G01X147244Y267913D02*
G03X147230Y268077I-984J0D01*
G01X147244Y267913D02*
Y263189D01*
X146804Y262369D02*
G03X147244Y263189I-544J820D01*
G01X146804Y262369D02*
G03Y262041I109J-164D01*
G01X147230Y261385D02*
G03X146804Y262041I-970J-165D01*
G01X147230Y261385D02*
G03X147424Y261220I194J32D01*
G01X154938*
G03X155132Y261385I-0J197*
G01X155558Y262041D02*
G03X155132Y261385I544J-821D01*
G01X190158Y247835D02*
Y245866D01*
X190026Y245374D02*
G03X190158Y245866I-853J492D01*
G01X190026Y245374D02*
G03Y245177I170J-98D01*
G01X190158Y244685D02*
G03X190026Y245177I-985J0D01*
G01X190158Y244685D02*
Y242717D01*
X189173Y241732D02*
G03X190158Y242717I0J985D01*
G01X189173Y241732D02*
X187205D01*
X186220Y242717D02*
G03X187205Y241732I985J-0D01*
G01X186220Y242717D02*
Y244685D01*
X186352Y245177D02*
G03X186220Y244685I853J-492D01*
G01X186352Y245177D02*
G03Y245374I-170J99D01*
G01X186343Y245390D02*
G03X186352Y245374I862J476D01*
G01X186343Y245390D02*
G03X186171Y245492I-172J-95D01*
G01X183165*
G03X182969Y245312I0J-197*
G01X182479Y244541D02*
G03X182969Y245312I-491J853D01*
G01X182479Y244541D02*
G03Y244199I98J-171D01*
G01X182972Y243346D02*
G03X182479Y244199I-984J0D01*
G01X182972Y243346D02*
Y240394D01*
X182479Y239541D02*
G03X182972Y240394I-491J853D01*
G01X182479Y239541D02*
G03Y239199I98J-171D01*
G01X182972Y238346D02*
G03X182479Y239199I-984J0D01*
G01X182972Y238346D02*
Y235394D01*
X182479Y234541D02*
G03X182972Y235394I-491J853D01*
G01X182479Y234541D02*
G03Y234199I98J-171D01*
G01X182972Y233346D02*
G03X182479Y234199I-984J0D01*
G01X182972Y233346D02*
Y230394D01*
X181988Y229409D02*
G03X182972Y230394I0J985D01*
G01X181988Y229409D02*
X178051D01*
X177067Y230394D02*
G03X178051Y229409I984J-0D01*
G01X177067Y230394D02*
Y233346D01*
X177560Y234199D02*
G03X177067Y233346I491J-853D01*
G01X177560Y234199D02*
G03Y234541I-98J171D01*
G01X177067Y235394D02*
G03X177560Y234541I984J-0D01*
G01X177067Y235394D02*
Y238346D01*
X177560Y239199D02*
G03X177067Y238346I491J-853D01*
G01X177560Y239199D02*
G03Y239541I-98J171D01*
G01X177067Y240394D02*
G03X177560Y239541I984J-0D01*
G01X177067Y240394D02*
Y243346D01*
X177560Y244199D02*
G03X177067Y243346I491J-853D01*
G01X177560Y244199D02*
G03Y244541I-98J171D01*
G01X177067Y245394D02*
G03X177560Y244541I984J-0D01*
G01X177067Y245394D02*
Y248346D01*
X178051Y249331D02*
G03X177067Y248346I0J-985D01*
G01X178051Y249331D02*
X181988D01*
X182969Y248428D02*
G03X181988Y249331I-981J-82D01*
G01X182969Y248428D02*
G03X183165Y248248I196J17D01*
G01X186193*
G03X186362Y248343I0J197*
G01X187205Y248819D02*
G03X186362Y248343I-0J-984D01*
G01X187205Y248819D02*
X189173D01*
X190158Y247835D02*
G03X189173Y248819I-985J-0D01*
G01X197244Y259449D02*
G03X197244I-4724J0D01*
G01X114567D02*
G03X114567I-4724J0D01*
G01X146733Y262125D02*
X155629D01*
X146942Y262479D02*
X155421D01*
X147076Y261770D02*
X155286D01*
X147178Y262833D02*
X155185D01*
X147224Y261416D02*
X155138D01*
X147231Y268148D02*
X155131D01*
X147244Y267794D02*
X155118D01*
X147244Y267440D02*
X155118D01*
X147244Y267085D02*
X155118D01*
X147244Y266731D02*
X155118D01*
X147244Y266377D02*
X155118D01*
X147244Y266022D02*
X155118D01*
X147244Y265668D02*
X155118D01*
X147244Y265314D02*
X155118D01*
X147244Y264959D02*
X155118D01*
X147244Y264605D02*
X155118D01*
X147244Y264251D02*
X155118D01*
X147244Y263896D02*
X155118D01*
X147244Y263542D02*
X155118D01*
X147244Y263188D02*
X155118D01*
X165945Y267794D02*
X201378D01*
X165945Y267440D02*
X201378D01*
X165945Y267085D02*
X201378D01*
X165945Y266731D02*
X201378D01*
X165945Y266377D02*
X201378D01*
X165945Y266022D02*
X201378D01*
X165945Y265668D02*
X201378D01*
X165945Y265314D02*
X201378D01*
X165945Y264959D02*
X201378D01*
X165945Y264605D02*
X201378D01*
X165945Y264251D02*
X201378D01*
X194113Y263896D02*
X201378D01*
X194879Y263542D02*
X201378D01*
X195408Y263188D02*
X201378D01*
X195816Y262833D02*
X201378D01*
X196144Y262479D02*
X201378D01*
X196413Y262125D02*
X201378D01*
X196634Y261770D02*
X201378D01*
X196815Y261416D02*
X201378D01*
X196960Y261062D02*
X201378D01*
X197073Y260707D02*
X201378D01*
X197157Y260353D02*
X201378D01*
X197212Y259999D02*
X201378D01*
X197240Y259644D02*
X201378D01*
X197241Y259290D02*
X201378D01*
X197216Y258936D02*
X201378D01*
X197164Y258581D02*
X201378D01*
X197083Y258227D02*
X201378D01*
X196973Y257873D02*
X201378D01*
X196832Y257518D02*
X201378D01*
X196655Y257164D02*
X201378D01*
X196438Y256810D02*
X201378D01*
X196175Y256455D02*
X201378D01*
X195853Y256101D02*
X201378D01*
X195455Y255747D02*
X201378D01*
X194942Y255392D02*
X201378D01*
X194212Y255038D02*
X201378D01*
X180046Y254684D02*
X201378D01*
X179919Y254329D02*
X201378D01*
X179713Y253975D02*
X201378D01*
X179395Y253621D02*
X201378D01*
X178852Y253266D02*
X201378D01*
X165155Y252912D02*
X201378D01*
X164949Y252558D02*
X201378D01*
X164631Y252203D02*
X201378D01*
X164088Y251849D02*
X201378D01*
X152066Y251495D02*
X201378D01*
X173083Y251140D02*
X201378D01*
X173432Y250786D02*
X201378D01*
X173554Y250432D02*
X201378D01*
X173563Y250077D02*
X201378D01*
X173563Y249723D02*
X201378D01*
X173644Y249369D02*
X201378D01*
X182711Y249014D02*
X201378D01*
X189709Y248660D02*
X201378D01*
X190037Y248306D02*
X201378D01*
X190151Y247951D02*
X201378D01*
X190158Y247597D02*
X201378D01*
X190158Y247243D02*
X201378D01*
X190158Y246888D02*
X201378D01*
X190158Y246534D02*
X201378D01*
X190158Y246180D02*
X201378D01*
X190157Y245825D02*
X201378D01*
X190075Y245471D02*
X201378D01*
X190058Y245117D02*
X201378D01*
X190154Y244762D02*
X201378D01*
X190158Y244408D02*
X201378D01*
X190158Y244054D02*
X201378D01*
X190158Y243699D02*
X201378D01*
X190158Y243345D02*
X201378D01*
X190158Y242991D02*
X201378D01*
X190154Y242636D02*
X201378D01*
X190056Y242282D02*
X201378D01*
X189762Y241928D02*
X201378D01*
X182972Y241573D02*
X201378D01*
X182972Y241219D02*
X201378D01*
X182972Y240865D02*
X201378D01*
X182972Y240510D02*
X201378D01*
X182943Y240156D02*
X201378D01*
X182775Y239802D02*
X201378D01*
X182396Y239448D02*
X201378D01*
X182629Y239093D02*
X201378D01*
X182891Y238739D02*
X201378D01*
X182972Y238385D02*
X201378D01*
X182972Y238030D02*
X201378D01*
X182972Y237676D02*
X201378D01*
X182972Y237322D02*
X201378D01*
X182972Y236967D02*
X201378D01*
X182972Y236613D02*
X201378D01*
X182972Y236259D02*
X201378D01*
X182972Y235904D02*
X201378D01*
X182972Y235550D02*
X201378D01*
X182952Y235196D02*
X201378D01*
X182803Y234841D02*
X201378D01*
X182419Y234487D02*
X201378D01*
X182581Y234133D02*
X201378D01*
X182873Y233778D02*
X201378D01*
X182969Y233424D02*
X201378D01*
X182972Y233070D02*
X201378D01*
X182972Y232715D02*
X201378D01*
X182972Y232361D02*
X201378D01*
X182972Y232007D02*
X201378D01*
X182972Y231652D02*
X201378D01*
X182972Y231298D02*
X201378D01*
X182972Y230944D02*
X201378D01*
X182972Y230589D02*
X201378D01*
X182960Y230235D02*
X201378D01*
X182828Y229881D02*
X201378D01*
X182453Y229526D02*
X201378D01*
X173563Y229172D02*
X201378D01*
X173563Y228818D02*
X201378D01*
X173563Y228463D02*
X201378D01*
X173504Y228109D02*
X201378D01*
X165932Y268148D02*
X201374D01*
X165945Y263896D02*
X190926D01*
X180109Y255038D02*
X190827D01*
X165945Y263542D02*
X190160D01*
X180112Y255392D02*
X190098D01*
X165945Y263188D02*
X189632D01*
X180057Y255747D02*
X189585D01*
X165878Y262833D02*
X189223D01*
X179938Y256101D02*
X189186D01*
X165642Y262479D02*
X188895D01*
X179742Y256455D02*
X188865D01*
X165434Y262125D02*
X188626D01*
X179440Y256810D02*
X188601D01*
X165777Y261770D02*
X188405D01*
X179331Y257164D02*
X188384D01*
X165925Y261416D02*
X188224D01*
X179330Y257518D02*
X188208D01*
X165945Y261062D02*
X188079D01*
X179274Y257873D02*
X188066D01*
X165945Y260707D02*
X187966D01*
X179111Y258227D02*
X187956D01*
X165962Y260353D02*
X187883D01*
X178800Y258581D02*
X187876D01*
X177348Y259999D02*
X187827D01*
X178446Y258936D02*
X187823D01*
X177737Y259644D02*
X187799D01*
X178092Y259290D02*
X187798D01*
X182921Y248660D02*
X186669D01*
X182972Y241928D02*
X186616D01*
X183026Y248306D02*
X186333D01*
X182972Y242282D02*
X186321D01*
X182933Y245117D02*
X186320D01*
X183077Y245471D02*
X186259D01*
X182972Y242636D02*
X186224D01*
X182743Y244762D02*
X186224D01*
X182384Y244408D02*
X186220D01*
X182673Y244054D02*
X186220D01*
X182907Y243699D02*
X186220D01*
X182972Y243345D02*
X186220D01*
X182972Y242991D02*
X186220D01*
X175236Y244408D02*
X177655D01*
X175236Y239448D02*
X177643D01*
X175236Y234487D02*
X177620D01*
X174717Y229526D02*
X177586D01*
X175236Y234133D02*
X177459D01*
X175236Y239093D02*
X177410D01*
X175236Y244054D02*
X177367D01*
X174975Y249014D02*
X177328D01*
X175236Y244762D02*
X177296D01*
X175236Y239802D02*
X177265D01*
X175236Y234841D02*
X177237D01*
X175092Y229881D02*
X177211D01*
X175236Y233778D02*
X177167D01*
X175236Y238739D02*
X177149D01*
X175236Y243699D02*
X177132D01*
X175185Y248660D02*
X177118D01*
X175236Y245117D02*
X177107D01*
X175236Y240156D02*
X177096D01*
X175236Y235196D02*
X177087D01*
X175223Y230235D02*
X177080D01*
X175236Y233424D02*
X177070D01*
X175236Y238385D02*
X177068D01*
X175236Y248306D02*
X177067D01*
X175236Y247951D02*
X177067D01*
X175236Y247597D02*
X177067D01*
X175236Y247243D02*
X177067D01*
X175236Y246888D02*
X177067D01*
X175236Y246534D02*
X177067D01*
X175236Y246180D02*
X177067D01*
X175236Y245825D02*
X177067D01*
X175236Y245471D02*
X177067D01*
X175236Y243345D02*
X177067D01*
X175236Y242991D02*
X177067D01*
X175236Y242636D02*
X177067D01*
X175236Y242282D02*
X177067D01*
X175236Y241928D02*
X177067D01*
X175236Y241573D02*
X177067D01*
X175236Y241219D02*
X177067D01*
X175236Y240865D02*
X177067D01*
X175236Y240510D02*
X177067D01*
X175236Y238030D02*
X177067D01*
X175236Y237676D02*
X177067D01*
X175236Y237322D02*
X177067D01*
X175236Y236967D02*
X177067D01*
X175236Y236613D02*
X177067D01*
X175236Y236259D02*
X177067D01*
X175236Y235904D02*
X177067D01*
X175236Y235550D02*
X177067D01*
X175236Y233070D02*
X177067D01*
X175236Y232715D02*
X177067D01*
X175236Y232361D02*
X177067D01*
X175236Y232007D02*
X177067D01*
X175236Y231652D02*
X177067D01*
X175236Y231298D02*
X177067D01*
X175236Y230944D02*
X177067D01*
X175236Y230589D02*
X177067D01*
X165283Y253266D02*
X177053D01*
X165945Y257164D02*
X170547D01*
X165345Y253621D02*
X170150D01*
X165945Y256810D02*
X170117D01*
X165349Y253975D02*
X169961D01*
X165944Y256455D02*
X169950D01*
X165862Y256101D02*
X169921D01*
X165599Y255747D02*
X169921D01*
X164834Y255392D02*
X169921D01*
X164979Y255038D02*
X169921D01*
X165174Y254684D02*
X169921D01*
X165293Y254329D02*
X169921D01*
X151711Y251140D02*
X168511D01*
X151357Y250786D02*
X168163D01*
X151003Y250432D02*
X168041D01*
X150648Y250077D02*
X168031D01*
X150294Y249723D02*
X168031D01*
X149940Y249369D02*
X167951D01*
X134075Y229172D02*
X163819D01*
X134075Y228818D02*
X163819D01*
X134075Y228463D02*
X163819D01*
X134016Y228109D02*
X163819D01*
X152420Y251849D02*
X162290D01*
X152774Y252203D02*
X161747D01*
X150394Y244054D02*
X157402D01*
X150394Y243699D02*
X157402D01*
X150394Y243345D02*
X157402D01*
X150394Y242991D02*
X157402D01*
X150390Y242636D02*
X157402D01*
X150293Y242282D02*
X157402D01*
X149998Y241928D02*
X157402D01*
X143484Y241573D02*
X157402D01*
X143484Y241219D02*
X157402D01*
X143484Y240865D02*
X157402D01*
X143484Y240510D02*
X157402D01*
X143455Y240156D02*
X157402D01*
X143286Y239802D02*
X157402D01*
X142908Y239448D02*
X157402D01*
X143141Y239093D02*
X157402D01*
X143403Y238739D02*
X157402D01*
X143484Y238385D02*
X157402D01*
X143484Y238030D02*
X157402D01*
X143484Y237676D02*
X157402D01*
X143484Y237322D02*
X157402D01*
X143484Y236967D02*
X157402D01*
X143484Y236613D02*
X157402D01*
X143484Y236259D02*
X157402D01*
X143484Y235904D02*
X157402D01*
X143484Y235550D02*
X157402D01*
X143464Y235196D02*
X157402D01*
X143315Y234841D02*
X157402D01*
X142931Y234487D02*
X157397D01*
X150394Y244408D02*
X157227D01*
X142965Y229526D02*
X155952D01*
X112264Y255392D02*
X155875D01*
X143092Y234133D02*
X155825D01*
X149783Y249014D02*
X155694D01*
X150391Y244762D02*
X155662D01*
X143340Y229881D02*
X155577D01*
X143385Y233778D02*
X155533D01*
X149946Y248660D02*
X155484D01*
X150294Y245117D02*
X155473D01*
X146898Y255747D02*
X155464D01*
X143471Y230235D02*
X155446D01*
X143481Y233424D02*
X155436D01*
X150274Y248306D02*
X155433D01*
X150387Y247951D02*
X155433D01*
X150394Y247597D02*
X155433D01*
X150394Y247243D02*
X155433D01*
X150394Y246888D02*
X155433D01*
X150394Y246534D02*
X155433D01*
X150394Y246180D02*
X155433D01*
X150393Y245825D02*
X155433D01*
X150311Y245471D02*
X155433D01*
X143484Y233070D02*
X155433D01*
X143484Y232715D02*
X155433D01*
X143484Y232361D02*
X155433D01*
X143484Y232007D02*
X155433D01*
X143484Y231652D02*
X155433D01*
X143484Y231298D02*
X155433D01*
X143484Y230944D02*
X155433D01*
X143484Y230589D02*
X155433D01*
X147161Y256101D02*
X155201D01*
X147243Y256455D02*
X155119D01*
X147244Y258227D02*
X155118D01*
X147244Y257873D02*
X155118D01*
X147244Y257518D02*
X155118D01*
X147244Y257164D02*
X155118D01*
X147244Y256810D02*
X155118D01*
X111535Y255038D02*
X151799D01*
X100984Y254684D02*
X151357D01*
X100984Y254329D02*
X151003D01*
X100984Y253975D02*
X150648D01*
X100984Y253621D02*
X150294D01*
X100984Y253266D02*
X149940D01*
X100984Y252912D02*
X149585D01*
X100984Y252558D02*
X149231D01*
X100984Y252203D02*
X148877D01*
X100984Y251849D02*
X148522D01*
X100984Y251495D02*
X148168D01*
X133595Y251140D02*
X147814D01*
X133944Y250786D02*
X147459D01*
X134065Y250432D02*
X147190D01*
X134075Y250077D02*
X147059D01*
X134075Y249723D02*
X147028D01*
X134155Y249369D02*
X147028D01*
X143223Y249014D02*
X147028D01*
X143433Y248660D02*
X146905D01*
X143484Y241928D02*
X146852D01*
X143538Y248306D02*
X146569D01*
X143484Y242282D02*
X146558D01*
X143445Y245117D02*
X146556D01*
X143589Y245471D02*
X146495D01*
X143484Y242636D02*
X146460D01*
X143255Y244762D02*
X146460D01*
X142896Y244408D02*
X146457D01*
X143184Y244054D02*
X146457D01*
X143419Y243699D02*
X146457D01*
X143484Y243345D02*
X146457D01*
X143484Y242991D02*
X146457D01*
X135748Y244408D02*
X138167D01*
X135748Y239448D02*
X138155D01*
X135748Y234487D02*
X138132D01*
X135229Y229526D02*
X138098D01*
X135748Y234133D02*
X137971D01*
X135748Y239093D02*
X137922D01*
X135748Y244054D02*
X137879D01*
X135487Y249014D02*
X137840D01*
X135748Y244762D02*
X137808D01*
X135748Y239802D02*
X137777D01*
X135748Y234841D02*
X137748D01*
X135604Y229881D02*
X137723D01*
X135748Y233778D02*
X137678D01*
X135748Y238739D02*
X137660D01*
X135748Y243699D02*
X137644D01*
X135697Y248660D02*
X137630D01*
X135748Y245117D02*
X137618D01*
X135748Y240156D02*
X137608D01*
X135748Y235196D02*
X137599D01*
X135735Y230235D02*
X137592D01*
X135748Y233424D02*
X137582D01*
X135748Y238385D02*
X137579D01*
X135748Y248306D02*
X137579D01*
X135748Y247951D02*
X137579D01*
X135748Y247597D02*
X137579D01*
X135748Y247243D02*
X137579D01*
X135748Y246888D02*
X137579D01*
X135748Y246534D02*
X137579D01*
X135748Y246180D02*
X137579D01*
X135748Y245825D02*
X137579D01*
X135748Y245471D02*
X137579D01*
X135748Y243345D02*
X137579D01*
X135748Y242991D02*
X137579D01*
X135748Y242636D02*
X137579D01*
X135748Y242282D02*
X137579D01*
X135748Y241928D02*
X137579D01*
X135748Y241573D02*
X137579D01*
X135748Y241219D02*
X137579D01*
X135748Y240865D02*
X137579D01*
X135748Y240510D02*
X137579D01*
X135748Y238030D02*
X137579D01*
X135748Y237676D02*
X137579D01*
X135748Y237322D02*
X137579D01*
X135748Y236967D02*
X137579D01*
X135748Y236613D02*
X137579D01*
X135748Y236259D02*
X137579D01*
X135748Y235904D02*
X137579D01*
X135748Y235550D02*
X137579D01*
X135748Y233070D02*
X137579D01*
X135748Y232715D02*
X137579D01*
X135748Y232361D02*
X137579D01*
X135748Y232007D02*
X137579D01*
X135748Y231652D02*
X137579D01*
X135748Y231298D02*
X137579D01*
X135748Y230944D02*
X137579D01*
X135748Y230589D02*
X137579D01*
X113736Y262125D02*
X136928D01*
X112778Y255747D02*
X136763D01*
X113467Y262479D02*
X136720D01*
X113957Y261770D02*
X136585D01*
X113176Y256101D02*
X136500D01*
X113139Y262833D02*
X136484D01*
X114138Y261416D02*
X136437D01*
X100988Y268148D02*
X136430D01*
X113498Y256455D02*
X136418D01*
X100984Y267794D02*
X136417D01*
X100984Y267440D02*
X136417D01*
X100984Y267085D02*
X136417D01*
X100984Y266731D02*
X136417D01*
X100984Y266377D02*
X136417D01*
X100984Y266022D02*
X136417D01*
X100984Y265668D02*
X136417D01*
X100984Y265314D02*
X136417D01*
X100984Y264959D02*
X136417D01*
X100984Y264605D02*
X136417D01*
X100984Y264251D02*
X136417D01*
X111436Y263896D02*
X136417D01*
X112202Y263542D02*
X136417D01*
X112731Y263188D02*
X136417D01*
X114283Y261062D02*
X136417D01*
X114396Y260707D02*
X136417D01*
X114480Y260353D02*
X136417D01*
X114535Y259999D02*
X136417D01*
X114563Y259644D02*
X136417D01*
X114564Y259290D02*
X136417D01*
X114539Y258936D02*
X136417D01*
X114487Y258581D02*
X136417D01*
X114406Y258227D02*
X136417D01*
X114296Y257873D02*
X136417D01*
X114155Y257518D02*
X136417D01*
X113978Y257164D02*
X136417D01*
X113761Y256810D02*
X136417D01*
X100984Y251140D02*
X129023D01*
X100984Y250786D02*
X128674D01*
X100984Y250432D02*
X128553D01*
X100984Y250077D02*
X128543D01*
X100984Y249723D02*
X128543D01*
X100984Y249369D02*
X128463D01*
X100984Y229172D02*
X124449D01*
X100984Y228818D02*
X124449D01*
X100984Y228463D02*
X124449D01*
X100984Y228109D02*
X124449D01*
X100984Y244054D02*
X117913D01*
X100984Y243699D02*
X117913D01*
X100984Y243345D02*
X117913D01*
X100984Y242991D02*
X117913D01*
X100984Y242636D02*
X117913D01*
X100984Y242282D02*
X117913D01*
X100984Y241928D02*
X117913D01*
X100984Y241573D02*
X117913D01*
X100984Y241219D02*
X117913D01*
X100984Y240865D02*
X117913D01*
X100984Y240510D02*
X117913D01*
X100984Y240156D02*
X117913D01*
X100984Y239802D02*
X117913D01*
X100984Y239448D02*
X117913D01*
X100984Y239093D02*
X117913D01*
X100984Y238739D02*
X117913D01*
X100984Y238385D02*
X117913D01*
X100984Y238030D02*
X117913D01*
X100984Y237676D02*
X117913D01*
X100984Y237322D02*
X117913D01*
X100984Y236967D02*
X117913D01*
X100984Y236613D02*
X117913D01*
X100984Y236259D02*
X117913D01*
X100984Y235904D02*
X117913D01*
X100984Y235550D02*
X117913D01*
X100984Y235196D02*
X117913D01*
X100984Y234841D02*
X117913D01*
X100984Y234487D02*
X117909D01*
X100984Y244408D02*
X117739D01*
X100984Y229526D02*
X116464D01*
X100984Y234133D02*
X116337D01*
X100984Y249014D02*
X116206D01*
X100984Y244762D02*
X116174D01*
X100984Y229881D02*
X116089D01*
X100984Y233778D02*
X116045D01*
X100984Y248660D02*
X115996D01*
X100984Y245117D02*
X115985D01*
X100984Y230235D02*
X115958D01*
X100984Y233424D02*
X115948D01*
X100984Y248306D02*
X115945D01*
X100984Y247951D02*
X115945D01*
X100984Y247597D02*
X115945D01*
X100984Y247243D02*
X115945D01*
X100984Y246888D02*
X115945D01*
X100984Y246534D02*
X115945D01*
X100984Y246180D02*
X115945D01*
X100984Y245825D02*
X115945D01*
X100984Y245471D02*
X115945D01*
X100984Y233070D02*
X115945D01*
X100984Y232715D02*
X115945D01*
X100984Y232361D02*
X115945D01*
X100984Y232007D02*
X115945D01*
X100984Y231652D02*
X115945D01*
X100984Y231298D02*
X115945D01*
X100984Y230944D02*
X115945D01*
X100984Y230589D02*
X115945D01*
X100984Y263896D02*
X108249D01*
X100984Y255038D02*
X108150D01*
X100984Y263542D02*
X107483D01*
X100984Y255392D02*
X107421D01*
X100984Y263188D02*
X106954D01*
X100984Y255747D02*
X106907D01*
X100984Y262833D02*
X106546D01*
X100984Y256101D02*
X106509D01*
X100984Y262479D02*
X106218D01*
X100984Y256455D02*
X106187D01*
X100984Y262125D02*
X105949D01*
X100984Y256810D02*
X105924D01*
X100984Y261770D02*
X105728D01*
X100984Y257164D02*
X105707D01*
X100984Y261416D02*
X105547D01*
X100984Y257518D02*
X105530D01*
X100984Y261062D02*
X105402D01*
X100984Y257873D02*
X105389D01*
X100984Y260707D02*
X105289D01*
X100984Y258227D02*
X105279D01*
X100984Y260353D02*
X105205D01*
X100984Y258581D02*
X105198D01*
X100984Y259999D02*
X105150D01*
X100984Y258936D02*
X105146D01*
X100984Y259644D02*
X105122D01*
X100984Y259290D02*
X105121D01*
X100000Y100000D02*
X202362D01*
Y269291*
X100000*
Y100000*
X116181Y125591D02*
X186181D01*
Y208268*
X116181*
Y125591*
G54D17*
X129961Y108701D02*
X131535Y103583D01*
X136496*
X118898Y231870D02*
X126614D01*
Y220669*
X160090Y231890D02*
X165984D01*
Y220630*
X158386Y231870D02*
Y231890D01*
X160090*
X136496Y106535D03*
Y103583D03*
X165945Y106299D03*
Y103346D03*
X175787Y217205D03*
Y219646D03*
X126614Y220669D03*
X198425Y239409D03*
X177953Y255236D03*
X179291Y246850D03*
X165984Y220630D03*
X163189Y253819D03*
G54D18*
X172677Y108701D02*
X173701D01*
X173740Y108661*
Y113740*
X184409*
X189252Y118583*
X194646*
X198425Y122362*
Y239409*
X172244Y108701D02*
X172677D01*
G54D19*
X165945Y106299D02*
X168346Y108701D01*
X172677*
X118898Y231870D02*
X119705Y232677D01*
X120472*
Y245295*
X118898Y246870*
X179291Y246850D02*
X180000D01*
X180020Y246870*
X160090Y231890D02*
Y244086D01*
X160630Y244626*
X148425Y246850D02*
X148406Y246870D01*
Y249783*
X152441Y253819*
X163189*
X158386Y246870D02*
X160630Y244626D01*
X180020Y246870D02*
X188169D01*
X188189Y246850*
X140531Y246870D02*
X148406D01*
X160531Y258858D02*
X176575D01*
X177953Y257480*
Y255236*
X141831Y258858D02*
Y259843D01*
X160531*
Y258858*
X175039Y255236D02*
X177953D01*
G54D20*
X175787Y217205D02*
Y219646D01*
Y227953*
X180020*
Y231870*
G54D21*
X137579D02*
X138563D01*
X140531Y229409D02*
Y230394D01*
X143484Y231870D02*
X142500D01*
X137579Y241870D02*
X138563D01*
X143484D02*
X142500D01*
X137579Y236870D02*
X138563D01*
X143484D02*
X142500D01*
X150394Y243701D02*
X149409D01*
X146457D02*
X147441D01*
X148425Y241732D02*
Y242717D01*
X147244Y265551D02*
X146260D01*
X136417D02*
X137402D01*
X190157Y243701D02*
X189173D01*
X186220D02*
X187205D01*
X188189Y241732D02*
Y242717D01*
X165945Y265551D02*
X164961D01*
X155118D02*
X156102D01*
X171890Y253268D02*
Y254252D01*
X169921Y255236D02*
X170906D01*
X177067Y231870D02*
X178051D01*
X180020Y229409D02*
Y230394D01*
X182972Y231870D02*
X181988D01*
X177067Y241870D02*
X178051D01*
X182972D02*
X181988D01*
X177067Y236870D02*
X178051D01*
X182972D02*
X181988D01*
G74*
X0Y0D02*
M02*
