*
*
G04 PADS 9.5 Build Number: 522968 generated Gerber (RS-274-X) file*
G04 PC Version=2.1*
*
%IN "Plasma_Gen_Transformer_"*%
*
%MOIN*%
*
%FSLAX35Y35*%
*
*
*
*
G04 PC Standard Apertures*
*
*
G04 Thermal Relief Aperture macro.*
%AMTER*
1,1,$1,0,0*
1,0,$1-$2,0,0*
21,0,$3,$4,0,0,45*
21,0,$3,$4,0,0,135*
%
*
*
G04 Annular Aperture macro.*
%AMANN*
1,1,$1,0,0*
1,0,$2,0,0*
%
*
*
G04 Odd Aperture macro.*
%AMODD*
1,1,$1,0,0*
1,0,$1-0.005,0,0*
%
*
*
G04 PC Custom Aperture Macros*
*
*
*
*
*
*
G04 PC Aperture Table*
*
%ADD010C,0.00004*%
%ADD016C,0.00394*%
%ADD040C,0.01*%
*
*
*
*
G04 PC Circuitry*
G04 Layer Name Plasma_Gen_Transformer_ - circuitry*
%LPD*%
*
*
G04 PC Custom Flashes*
G04 Layer Name Plasma_Gen_Transformer_ - flashes*
%LPD*%
*
*
G04 PC Circuitry*
G04 Layer Name Plasma_Gen_Transformer_ - circuitry*
%LPD*%
*
G54D10*
G54D16*
G01X100000Y100000D02*
X202362D01*
Y269291*
X100000*
Y100000*
X116181Y121339D02*
X186181D01*
Y204094*
X116181*
Y121339*
G54D40*
X105843Y105843D02*
X113843Y113843D01*
X105843D02*
X113843Y105843D01*
X188520D02*
X196520Y113843D01*
X188520D02*
X196520Y105843D01*
X105843Y255449D02*
X113843Y263449D01*
X105843D02*
X113843Y255449D01*
X188520D02*
X196520Y263449D01*
X188520D02*
X196520Y255449D01*
X126866Y107520D02*
X134866D01*
X130866Y103520D02*
Y111520D01*
X124150Y107520D02*
X132150D01*
X128150Y103520D02*
Y111520D01*
X170252Y107520D02*
X178252D01*
X174252Y103520D02*
Y111520D01*
X167535Y107520D02*
X175535D01*
X171535Y103520D02*
Y111520D01*
X123559Y265354D02*
X131559D01*
X127559Y261354D02*
Y269354D01*
X123559Y253543D02*
X131559D01*
X127559Y249543D02*
Y257543D01*
X128756Y247756D02*
X136756D01*
X132756Y243756D02*
Y251756D01*
X111748Y237795D02*
X119748D01*
X115748Y233795D02*
Y241795D01*
X133795Y252756D02*
X141795D01*
X137795Y248756D02*
Y256756D01*
X123559Y245669D02*
X131559D01*
X127559Y241669D02*
Y249669D01*
X123559Y233858D02*
X131559D01*
X127559Y229858D02*
Y237858D01*
X99937Y237795D02*
X107937D01*
X103937Y233795D02*
Y241795D01*
X99937Y249606D02*
X107937D01*
X103937Y245606D02*
Y253606D01*
X115685Y253150D02*
X123685D01*
X119685Y249150D02*
Y257150D01*
X115685Y265354D02*
X123685D01*
X119685Y261354D02*
Y269354D01*
X131039Y262598D02*
X139039D01*
X135039Y258598D02*
Y266598D01*
X129858Y259055D02*
X137858D01*
X133858Y255055D02*
Y263055D01*
X129858Y266142D02*
X137858D01*
X133858Y262142D02*
Y270142D01*
X111748Y224016D02*
X119748D01*
X115748Y220016D02*
Y228016D01*
X99937Y224016D02*
X107937D01*
X103937Y220016D02*
Y228016D01*
X122378Y224016D02*
X130378D01*
X126378Y220016D02*
Y228016D01*
X133795Y248425D02*
X141795D01*
X137795Y244425D02*
Y252425D01*
X132339Y223583D02*
X140339D01*
X136339Y219583D02*
Y227583D01*
X138913Y252362D02*
X146913D01*
X142913Y248362D02*
Y256362D01*
X181827Y252362D02*
X189827D01*
X185827Y248362D02*
Y256362D01*
X177102Y252362D02*
X185102D01*
X181102Y248362D02*
Y256362D01*
X171984Y252362D02*
X179984D01*
X175984Y248362D02*
Y256362D01*
X164504Y265354D02*
X172504D01*
X168504Y261354D02*
Y269354D01*
X164504Y256693D02*
X172504D01*
X168504Y252693D02*
Y260693D01*
X152299Y229528D02*
X160299D01*
X156299Y225528D02*
Y233528D01*
X152299Y238583D02*
X160299D01*
X156299Y234583D02*
Y242583D01*
X157654Y247638D02*
X165654D01*
X161654Y243638D02*
Y251638D01*
X147969Y248031D02*
X155969D01*
X151969Y244031D02*
Y252031D01*
X147969Y251181D02*
X155969D01*
X151969Y247181D02*
Y255181D01*
X187732Y234646D02*
X195732D01*
X191732Y230646D02*
Y238646D01*
X187732Y248031D02*
X195732D01*
X191732Y244031D02*
Y252031D01*
X159780Y266535D02*
X167780D01*
X163780Y262535D02*
Y270535D01*
X153480Y266535D02*
X161480D01*
X157480Y262535D02*
Y270535D01*
X140882Y266535D02*
X148882D01*
X144882Y262535D02*
Y270535D01*
X136157Y266142D02*
X144157D01*
X140157Y262142D02*
Y270142D01*
X175921Y256299D02*
X183921D01*
X179921Y252299D02*
Y260299D01*
X169622Y259055D02*
X177622D01*
X173622Y255055D02*
Y263055D01*
X169622Y265748D02*
X177622D01*
X173622Y261748D02*
Y269748D01*
X175921Y265748D02*
X183921D01*
X179921Y261748D02*
Y269748D01*
X194425Y249213D02*
X202425D01*
X198425Y245213D02*
Y253213D01*
X194819Y224016D02*
X202819D01*
X198819Y220016D02*
Y228016D01*
X187339Y224016D02*
X195339D01*
X191339Y220016D02*
Y228016D01*
X157811Y224016D02*
X165811D01*
X161811Y220016D02*
Y228016D01*
X149543Y224016D02*
X157543D01*
X153543Y220016D02*
Y228016D01*
X138913Y248425D02*
X146913D01*
X142913Y244425D02*
Y252425D01*
X181827Y248425D02*
X189827D01*
X185827Y244425D02*
Y252425D01*
X177102Y248425D02*
X185102D01*
X181102Y244425D02*
Y252425D01*
X171984Y248425D02*
X179984D01*
X175984Y244425D02*
Y252425D01*
X171709Y223898D02*
X179709D01*
X175709Y219898D02*
Y227898D01*
X140764Y258898D02*
X148764D01*
X144764Y254898D02*
Y262898D01*
X194425Y239409D02*
X202425D01*
X198425Y235409D02*
Y243409D01*
X296850Y172000D02*
X554850D01*
X296850Y148000D02*
X554850D01*
X296850Y124000D02*
X554850D01*
X296850Y100000D02*
X554850D01*
X296850Y172000D02*
Y100000D01*
X380850Y172000D02*
Y100000D01*
X416850Y172000D02*
Y100000D01*
X452850Y172000D02*
Y100000D01*
X506850Y172000D02*
Y100000D01*
X554850Y172000D02*
Y100000D01*
X332350Y160750D02*
X331805Y161500D01*
X330987Y161875*
X329896*
X329078Y161500*
X328532Y160750*
Y160000*
X328805Y159250*
X329078Y158875*
X329623Y158500*
X331259Y157750*
X331805Y157375*
X332078Y157000*
X332350Y156250*
Y155125*
X331805Y154375*
X330987Y154000*
X329896*
X329078Y154375*
X328532Y155125*
X334805Y161875D02*
Y154000D01*
X341078Y161875D02*
X337259Y154000D01*
Y161875D02*
X341078D01*
X337259Y154000D02*
X341078D01*
X343532Y161875D02*
Y154000D01*
Y161875D02*
X347078D01*
X343532Y158125D02*
X345714D01*
X343532Y154000D02*
X347078D01*
X390714Y161875D02*
X390169Y161500D01*
X389623Y160750*
X389350Y160000*
X389078Y158875*
Y157000*
X389350Y155875*
X389623Y155125*
X390169Y154375*
X390714Y154000*
X391805*
X392350Y154375*
X392896Y155125*
X393169Y155875*
X393441Y157000*
Y158875*
X393169Y160000*
X392896Y160750*
X392350Y161500*
X391805Y161875*
X390714*
X391532Y155500D02*
X393169Y153250D01*
X397805Y161875D02*
Y154000D01*
X395896Y161875D02*
X399714D01*
X402169D02*
X404350Y158125D01*
Y154000*
X406532Y161875D02*
X404350Y158125D01*
X428896Y160750D02*
X428350Y161500D01*
X427532Y161875*
X426441*
X425623Y161500*
X425078Y160750*
Y160000*
X425350Y159250*
X425623Y158875*
X426169Y158500*
X427805Y157750*
X428350Y157375*
X428623Y157000*
X428896Y156250*
Y155125*
X428350Y154375*
X427532Y154000*
X426441*
X425623Y154375*
X425078Y155125*
X431350Y161875D02*
X433532Y158125D01*
Y154000*
X435714Y161875D02*
X433532Y158125D01*
X438169Y161875D02*
Y154000D01*
Y161875D02*
X440350Y154000D01*
X442532Y161875D02*
X440350Y154000D01*
X442532Y161875D02*
Y154000D01*
X464350Y161875D02*
Y154000D01*
Y161875D02*
X466805D01*
X467623Y161500*
X467896Y161125*
X468169Y160375*
Y159250*
X467896Y158500*
X467623Y158125*
X466805Y157750*
X464350*
X470623Y161875D02*
Y154000D01*
X473896*
X478532Y161875D02*
X476350Y154000D01*
X478532Y161875D02*
X480714Y154000D01*
X477169Y156625D02*
X479896D01*
X485078Y161875D02*
Y154000D01*
X483169Y161875D02*
X486987D01*
X489441D02*
Y154000D01*
Y161875D02*
X492987D01*
X489441Y158125D02*
X491623D01*
X489441Y154000D02*
X492987D01*
X495441Y161875D02*
Y154000D01*
Y161875D02*
X497350D01*
X498169Y161500*
X498714Y160750*
X498987Y160000*
X499259Y158875*
Y157000*
X498987Y155875*
X498714Y155125*
X498169Y154375*
X497350Y154000*
X495441*
X523532Y161875D02*
Y154000D01*
X521623Y161875D02*
X525441D01*
X529532D02*
X528987Y161500D01*
X528441Y160750*
X528169Y160000*
X527896Y158875*
Y157000*
X528169Y155875*
X528441Y155125*
X528987Y154375*
X529532Y154000*
X530623*
X531169Y154375*
X531714Y155125*
X531987Y155875*
X532259Y157000*
Y158875*
X531987Y160000*
X531714Y160750*
X531169Y161500*
X530623Y161875*
X529532*
X534714D02*
Y154000D01*
X537987*
X304487Y137875D02*
X303669Y137500D01*
X303123Y136375*
X302850Y134500*
Y133375*
X303123Y131500*
X303669Y130375*
X304487Y130000*
X305032*
X305850Y130375*
X306396Y131500*
X306669Y133375*
Y134500*
X306396Y136375*
X305850Y137500*
X305032Y137875*
X304487*
X309396Y130750D02*
X309123Y130375D01*
X309396Y130000*
X309669Y130375*
X309396Y130750*
X312669Y137875D02*
X315669D01*
X314032Y134875*
X314850*
X315396Y134500*
X315669Y134125*
X315941Y133000*
Y132250*
X315669Y131125*
X315123Y130375*
X314305Y130000*
X313487*
X312669Y130375*
X312396Y130750*
X312123Y131500*
X396305Y137875D02*
X393578D01*
X393305Y134500*
X393578Y134875*
X394396Y135250*
X395214*
X396032Y134875*
X396578Y134125*
X396850Y133000*
X396578Y132250*
X396305Y131125*
X395759Y130375*
X394941Y130000*
X394123*
X393305Y130375*
X393032Y130750*
X392759Y131500*
X402578Y136750D02*
X402305Y137500D01*
X401487Y137875*
X400941*
X400123Y137500*
X399578Y136375*
X399305Y134500*
Y132625*
X399578Y131125*
X400123Y130375*
X400941Y130000*
X401214*
X402032Y130375*
X402578Y131125*
X402850Y132250*
Y132625*
X402578Y133750*
X402032Y134500*
X401214Y134875*
X400941*
X400123Y134500*
X399578Y133750*
X399305Y132625*
X428850Y136000D02*
X440850D01*
X434850Y130000D02*
Y142000D01*
X461487Y137875D02*
X463669Y134125D01*
Y130000*
X465850Y137875D02*
X463669Y134125D01*
X468305Y137875D02*
Y130000D01*
Y137875D02*
X471850D01*
X468305Y134125D02*
X470487D01*
X468305Y130000D02*
X471850D01*
X478123Y136750D02*
X477578Y137500D01*
X476759Y137875*
X475669*
X474850Y137500*
X474305Y136750*
Y136000*
X474578Y135250*
X474850Y134875*
X475396Y134500*
X477032Y133750*
X477578Y133375*
X477850Y133000*
X478123Y132250*
Y131125*
X477578Y130375*
X476759Y130000*
X475669*
X474850Y130375*
X474305Y131125*
X514669Y136750D02*
Y130000D01*
X512214Y133375D02*
X517123D01*
X524487Y139375D02*
X519578Y127375D01*
X526941Y133375D02*
X531850D01*
X535941Y137875D02*
X535123Y137500D01*
X534578Y136375*
X534305Y134500*
Y133375*
X534578Y131500*
X535123Y130375*
X535941Y130000*
X536487*
X537305Y130375*
X537850Y131500*
X538123Y133375*
Y134500*
X537850Y136375*
X537305Y137500*
X536487Y137875*
X535941*
X540850Y130750D02*
X540578Y130375D01*
X540850Y130000*
X541123Y130375*
X540850Y130750*
X545214Y137875D02*
X544396Y137500D01*
X543850Y136375*
X543578Y134500*
Y133375*
X543850Y131500*
X544396Y130375*
X545214Y130000*
X545759*
X546578Y130375*
X547123Y131500*
X547396Y133375*
Y134500*
X547123Y136375*
X546578Y137500*
X545759Y137875*
X545214*
X303123Y112000D02*
Y112375D01*
X303396Y113125*
X303669Y113500*
X304214Y113875*
X305305*
X305850Y113500*
X306123Y113125*
X306396Y112375*
Y111625*
X306123Y110875*
X305578Y109750*
X302850Y106000*
X306669*
X398487Y113875D02*
X395759Y108625D01*
X399850*
X398487Y113875D02*
Y106000D01*
X428850D02*
X440850Y118000D01*
X428850D02*
X440850Y106000D01*
X464487Y113875D02*
Y106000D01*
Y113875D02*
X468305Y106000D01*
Y113875D02*
Y106000D01*
X472396Y113875D02*
X471850Y113500D01*
X471305Y112750*
X471032Y112000*
X470759Y110875*
Y109000*
X471032Y107875*
X471305Y107125*
X471850Y106375*
X472396Y106000*
X473487*
X474032Y106375*
X474578Y107125*
X474850Y107875*
X475123Y109000*
Y110875*
X474850Y112000*
X474578Y112750*
X474032Y113500*
X473487Y113875*
X472396*
X514669Y112750D02*
Y106000D01*
X512214Y109375D02*
X517123D01*
X524487Y115375D02*
X519578Y103375D01*
X526941Y109375D02*
X531850D01*
X535941Y113875D02*
X535123Y113500D01*
X534578Y112375*
X534305Y110500*
Y109375*
X534578Y107500*
X535123Y106375*
X535941Y106000*
X536487*
X537305Y106375*
X537850Y107500*
X538123Y109375*
Y110500*
X537850Y112375*
X537305Y113500*
X536487Y113875*
X535941*
X540850Y106750D02*
X540578Y106375D01*
X540850Y106000*
X541123Y106375*
X540850Y106750*
X545214Y113875D02*
X544396Y113500D01*
X543850Y112375*
X543578Y110500*
Y109375*
X543850Y107500*
X544396Y106375*
X545214Y106000*
X545759*
X546578Y106375*
X547123Y107500*
X547396Y109375*
Y110500*
X547123Y112375*
X546578Y113500*
X545759Y113875*
X545214*
X0Y0D02*
M02*
