%
T1C.01181F0S0
X012815Y010752
X011575Y022402
X010394Y022402
X012638Y022402
X012756Y023386
X010394Y02378
X011575Y02378
X012756Y024567
X010394Y024961
X011969Y025315
X012756Y025354
X012756Y026535
X011969Y026535
X014488Y026654
X013386Y026614
X014016Y026614
X013504Y02626
X013386Y025906
X014476Y02589
X01378Y025276
X014291Y025236
X015197Y025118
X01378Y024843
X014291Y024843
X015197Y024803
X013276Y024776
X015354Y022402
X013634Y022358
X013087Y010752
X017154Y010752
X017425Y010752
X017571Y02239
X016181Y022402
X01563Y022953
X01563Y023858
X016165Y024764
X017598Y024843
X017598Y025236
X01685Y025669
X017362Y025906
X01685Y026535
X017362Y026575
X015748Y026654
X016378Y026654
X017992Y026575
X017992Y02563
X018583Y025236
X01811Y025236
X019843Y024921
X018583Y024843
X01811Y024843
X019173Y024803
X019843Y023941
X019173Y023465
X019134Y022402
X019882Y022402
T2C.07874F0S0
X010984Y010984
X019252Y010984
X010984Y025945
X019252Y025945
M30
