*
*
G04 PADS 9.5 Build Number: 522968 generated Gerber (RS-274-X) file*
G04 PC Version=2.1*
*
%IN "Plasma_Gen_Transformer_"*%
*
%MOIN*%
*
%FSLAX35Y35*%
*
*
*
*
G04 PC Standard Apertures*
*
*
G04 Thermal Relief Aperture macro.*
%AMTER*
1,1,$1,0,0*
1,0,$1-$2,0,0*
21,0,$3,$4,0,0,45*
21,0,$3,$4,0,0,135*
%
*
*
G04 Annular Aperture macro.*
%AMANN*
1,1,$1,0,0*
1,0,$2,0,0*
%
*
*
G04 Odd Aperture macro.*
%AMODD*
1,1,$1,0,0*
1,0,$1-0.005,0,0*
%
*
*
G04 PC Custom Aperture Macros*
*
*
*
*
*
*
G04 PC Aperture Table*
*
%ADD010C,0.00004*%
%ADD016C,0.00394*%
%ADD029R,0.02165X0.02165*%
%ADD030R,0.09055X0.04921*%
%ADD031R,0.04134X0.0315*%
%ADD032C,0.08071*%
%ADD033R,0.15945X0.15945*%
*
*
*
*
G04 PC Circuitry*
G04 Layer Name Plasma_Gen_Transformer_ - circuitry*
%LPD*%
*
*
G04 PC Custom Flashes*
G04 Layer Name Plasma_Gen_Transformer_ - flashes*
%LPD*%
*
*
G04 PC Circuitry*
G04 Layer Name Plasma_Gen_Transformer_ - circuitry*
%LPD*%
*
G54D10*
G54D16*
G01X118996Y248248D02*
Y230492D01*
X134665*
Y248248*
X118996*
X119094Y230492D02*
Y248248D01*
X119291Y230492D02*
Y248248D01*
X119488Y230492D02*
Y248248D01*
X119685Y230492D02*
Y248248D01*
X119882Y230492D02*
Y248248D01*
X120079Y230492D02*
Y248248D01*
X120276Y230492D02*
Y248248D01*
X120472Y230492D02*
Y248248D01*
X120669Y230492D02*
Y248248D01*
X120866Y230492D02*
Y248248D01*
X121063Y230492D02*
Y248248D01*
X121260Y230492D02*
Y248248D01*
X121457Y230492D02*
Y248248D01*
X121654Y230492D02*
Y248248D01*
X121850Y230492D02*
Y248248D01*
X122047Y230492D02*
Y248248D01*
X122244Y230492D02*
Y248248D01*
X122441Y230492D02*
Y248248D01*
X122638Y230492D02*
Y248248D01*
X122835Y230492D02*
Y248248D01*
X123031Y230492D02*
Y248248D01*
X123228Y230492D02*
Y248248D01*
X123425Y230492D02*
Y248248D01*
X123622Y230492D02*
Y248248D01*
X123819Y230492D02*
Y248248D01*
X124016Y230492D02*
Y248248D01*
X124213Y230492D02*
Y248248D01*
X124409Y230492D02*
Y248248D01*
X124606Y230492D02*
Y248248D01*
X124803Y230492D02*
Y248248D01*
X125000Y230492D02*
Y248248D01*
X125197Y230492D02*
Y248248D01*
X125394Y230492D02*
Y248248D01*
X125591Y230492D02*
Y248248D01*
X125787Y230492D02*
Y248248D01*
X125984Y230492D02*
Y248248D01*
X126181Y230492D02*
Y248248D01*
X126378Y230492D02*
Y248248D01*
X126575Y230492D02*
Y248248D01*
X126772Y230492D02*
Y248248D01*
X126969Y230492D02*
Y248248D01*
X127165Y230492D02*
Y248248D01*
X127362Y230492D02*
Y248248D01*
X127559Y230492D02*
Y248248D01*
X127756Y230492D02*
Y248248D01*
X127953Y230492D02*
Y248248D01*
X128150Y230492D02*
Y248248D01*
X128346Y230492D02*
Y248248D01*
X128543Y230492D02*
Y248248D01*
X128740Y230492D02*
Y248248D01*
X128937Y230492D02*
Y248248D01*
X129134Y230492D02*
Y248248D01*
X129331Y230492D02*
Y248248D01*
X129528Y230492D02*
Y248248D01*
X129724Y230492D02*
Y248248D01*
X129921Y230492D02*
Y248248D01*
X130118Y230492D02*
Y248248D01*
X130315Y230492D02*
Y248248D01*
X130512Y230492D02*
Y248248D01*
X130709Y230492D02*
Y248248D01*
X130906Y230492D02*
Y248248D01*
X131102Y230492D02*
Y248248D01*
X131299Y230492D02*
Y248248D01*
X131496Y230492D02*
Y248248D01*
X131693Y230492D02*
Y248248D01*
X131890Y230492D02*
Y248248D01*
X132087Y230492D02*
Y248248D01*
X132283Y230492D02*
Y248248D01*
X132480Y230492D02*
Y248248D01*
X132677Y230492D02*
Y248248D01*
X132874Y230492D02*
Y248248D01*
X133071Y230492D02*
Y248248D01*
X133268Y230492D02*
Y248248D01*
X133465Y230492D02*
Y248248D01*
X133661Y230492D02*
Y248248D01*
X133858Y230492D02*
Y248248D01*
X134055Y230492D02*
Y248248D01*
X134252Y230492D02*
Y248248D01*
X134449Y230492D02*
Y248248D01*
X134646Y230492D02*
Y248248D01*
X129626Y250197D02*
Y228543D01*
X132992*
Y250197*
X129626*
X129724Y228543D02*
Y250197D01*
X129921Y228543D02*
Y250197D01*
X130118Y228543D02*
Y250197D01*
X130315Y228543D02*
Y250197D01*
X130512Y228543D02*
Y250197D01*
X130709Y228543D02*
Y250197D01*
X130906Y228543D02*
Y250197D01*
X131102Y228543D02*
Y250197D01*
X131299Y228543D02*
Y250197D01*
X131496Y228543D02*
Y250197D01*
X131693Y228543D02*
Y250197D01*
X131890Y228543D02*
Y250197D01*
X132087Y228543D02*
Y250197D01*
X132283Y228543D02*
Y250197D01*
X132480Y228543D02*
Y250197D01*
X132677Y228543D02*
Y250197D01*
X132874Y228543D02*
Y250197D01*
X158484Y248248D02*
Y230492D01*
X174154*
Y248248*
X158484*
X158583Y230492D02*
Y248248D01*
X158780Y230492D02*
Y248248D01*
X158976Y230492D02*
Y248248D01*
X159173Y230492D02*
Y248248D01*
X159370Y230492D02*
Y248248D01*
X159567Y230492D02*
Y248248D01*
X159764Y230492D02*
Y248248D01*
X159961Y230492D02*
Y248248D01*
X160157Y230492D02*
Y248248D01*
X160354Y230492D02*
Y248248D01*
X160551Y230492D02*
Y248248D01*
X160748Y230492D02*
Y248248D01*
X160945Y230492D02*
Y248248D01*
X161142Y230492D02*
Y248248D01*
X161339Y230492D02*
Y248248D01*
X161535Y230492D02*
Y248248D01*
X161732Y230492D02*
Y248248D01*
X161929Y230492D02*
Y248248D01*
X162126Y230492D02*
Y248248D01*
X162323Y230492D02*
Y248248D01*
X162520Y230492D02*
Y248248D01*
X162717Y230492D02*
Y248248D01*
X162913Y230492D02*
Y248248D01*
X163110Y230492D02*
Y248248D01*
X163307Y230492D02*
Y248248D01*
X163504Y230492D02*
Y248248D01*
X163701Y230492D02*
Y248248D01*
X163898Y230492D02*
Y248248D01*
X164094Y230492D02*
Y248248D01*
X164291Y230492D02*
Y248248D01*
X164488Y230492D02*
Y248248D01*
X164685Y230492D02*
Y248248D01*
X164882Y230492D02*
Y248248D01*
X165079Y230492D02*
Y248248D01*
X165276Y230492D02*
Y248248D01*
X165472Y230492D02*
Y248248D01*
X165669Y230492D02*
Y248248D01*
X165866Y230492D02*
Y248248D01*
X166063Y230492D02*
Y248248D01*
X166260Y230492D02*
Y248248D01*
X166457Y230492D02*
Y248248D01*
X166654Y230492D02*
Y248248D01*
X166850Y230492D02*
Y248248D01*
X167047Y230492D02*
Y248248D01*
X167244Y230492D02*
Y248248D01*
X167441Y230492D02*
Y248248D01*
X167638Y230492D02*
Y248248D01*
X167835Y230492D02*
Y248248D01*
X168031Y230492D02*
Y248248D01*
X168228Y230492D02*
Y248248D01*
X168425Y230492D02*
Y248248D01*
X168622Y230492D02*
Y248248D01*
X168819Y230492D02*
Y248248D01*
X169016Y230492D02*
Y248248D01*
X169213Y230492D02*
Y248248D01*
X169409Y230492D02*
Y248248D01*
X169606Y230492D02*
Y248248D01*
X169803Y230492D02*
Y248248D01*
X170000Y230492D02*
Y248248D01*
X170197Y230492D02*
Y248248D01*
X170394Y230492D02*
Y248248D01*
X170591Y230492D02*
Y248248D01*
X170787Y230492D02*
Y248248D01*
X170984Y230492D02*
Y248248D01*
X171181Y230492D02*
Y248248D01*
X171378Y230492D02*
Y248248D01*
X171575Y230492D02*
Y248248D01*
X171772Y230492D02*
Y248248D01*
X171969Y230492D02*
Y248248D01*
X172165Y230492D02*
Y248248D01*
X172362Y230492D02*
Y248248D01*
X172559Y230492D02*
Y248248D01*
X172756Y230492D02*
Y248248D01*
X172953Y230492D02*
Y248248D01*
X173150Y230492D02*
Y248248D01*
X173346Y230492D02*
Y248248D01*
X173543Y230492D02*
Y248248D01*
X173740Y230492D02*
Y248248D01*
X173937Y230492D02*
Y248248D01*
X174134Y230492D02*
Y248248D01*
X169114Y250197D02*
Y228543D01*
X172480*
Y250197*
X169114*
X169213Y228543D02*
Y250197D01*
X169409Y228543D02*
Y250197D01*
X169606Y228543D02*
Y250197D01*
X169803Y228543D02*
Y250197D01*
X170000Y228543D02*
Y250197D01*
X170197Y228543D02*
Y250197D01*
X170394Y228543D02*
Y250197D01*
X170591Y228543D02*
Y250197D01*
X170787Y228543D02*
Y250197D01*
X170984Y228543D02*
Y250197D01*
X171181Y228543D02*
Y250197D01*
X171378Y228543D02*
Y250197D01*
X171575Y228543D02*
Y250197D01*
X171772Y228543D02*
Y250197D01*
X171969Y228543D02*
Y250197D01*
X172165Y228543D02*
Y250197D01*
X172362Y228543D02*
Y250197D01*
X100000Y100000D02*
X202362D01*
Y269291*
X100000*
Y100000*
X116181Y125591D02*
X186181D01*
Y208268*
X116181*
Y125591*
G54D29*
X171890Y255236D03*
X175039D03*
X188189Y243701D03*
Y246850D03*
X148425Y243701D03*
Y246850D03*
G54D30*
X141831Y265551D03*
X160531D03*
X141831Y258858D03*
X160531D03*
G54D31*
X140531Y231870D03*
Y236870D03*
Y241870D03*
Y246870D03*
X118898D03*
Y231870D03*
X180020D03*
Y236870D03*
Y241870D03*
Y246870D03*
X158386D03*
Y231870D03*
G54D32*
X109843Y109843D03*
X192520D03*
X109843Y259449D03*
X192520D03*
G54D33*
X129961Y108701D03*
X172244D03*
X0Y0D02*
M02*
