*
*
G04 PADS 9.5 Build Number: 522968 generated Gerber (RS-274-X) file*
G04 PC Version=2.1*
*
%IN "Plasma_Gen_Transformer_"*%
*
%MOIN*%
*
%FSLAX35Y35*%
*
*
*
*
G04 PC Standard Apertures*
*
*
G04 Thermal Relief Aperture macro.*
%AMTER*
1,1,$1,0,0*
1,0,$1-$2,0,0*
21,0,$3,$4,0,0,45*
21,0,$3,$4,0,0,135*
%
*
*
G04 Annular Aperture macro.*
%AMANN*
1,1,$1,0,0*
1,0,$2,0,0*
%
*
*
G04 Odd Aperture macro.*
%AMODD*
1,1,$1,0,0*
1,0,$1-0.005,0,0*
%
*
*
G04 PC Custom Aperture Macros*
*
*
*
*
*
*
G04 PC Aperture Table*
*
%ADD010C,0.00004*%
%ADD016C,0.00394*%
%ADD029R,0.02165X0.02165*%
%ADD030R,0.09055X0.04921*%
%ADD032C,0.08071*%
%ADD033R,0.15945X0.15945*%
%ADD045R,0.0315X0.04134*%
*
*
*
*
G04 PC Circuitry*
G04 Layer Name Plasma_Gen_Transformer_ - circuitry*
%LPD*%
*
*
G04 PC Custom Flashes*
G04 Layer Name Plasma_Gen_Transformer_ - flashes*
%LPD*%
*
*
G04 PC Circuitry*
G04 Layer Name Plasma_Gen_Transformer_ - circuitry*
%LPD*%
*
G54D10*
G54D16*
G01X131398Y226909D02*
X149154D01*
Y242579*
X131398*
Y226909*
X131417D02*
Y242579D01*
X131614Y226909D02*
Y242579D01*
X131811Y226909D02*
Y242579D01*
X132008Y226909D02*
Y242579D01*
X132205Y226909D02*
Y242579D01*
X132402Y226909D02*
Y242579D01*
X132598Y226909D02*
Y242579D01*
X132795Y226909D02*
Y242579D01*
X132992Y226909D02*
Y242579D01*
X133189Y226909D02*
Y242579D01*
X133386Y226909D02*
Y242579D01*
X133583Y226909D02*
Y242579D01*
X133780Y226909D02*
Y242579D01*
X133976Y226909D02*
Y242579D01*
X134173Y226909D02*
Y242579D01*
X134370Y226909D02*
Y242579D01*
X134567Y226909D02*
Y242579D01*
X134764Y226909D02*
Y242579D01*
X134961Y226909D02*
Y242579D01*
X135157Y226909D02*
Y242579D01*
X135354Y226909D02*
Y242579D01*
X135551Y226909D02*
Y242579D01*
X135748Y226909D02*
Y242579D01*
X135945Y226909D02*
Y242579D01*
X136142Y226909D02*
Y242579D01*
X136339Y226909D02*
Y242579D01*
X136535Y226909D02*
Y242579D01*
X136732Y226909D02*
Y242579D01*
X136929Y226909D02*
Y242579D01*
X137126Y226909D02*
Y242579D01*
X137323Y226909D02*
Y242579D01*
X137520Y226909D02*
Y242579D01*
X137717Y226909D02*
Y242579D01*
X137913Y226909D02*
Y242579D01*
X138110Y226909D02*
Y242579D01*
X138307Y226909D02*
Y242579D01*
X138504Y226909D02*
Y242579D01*
X138701Y226909D02*
Y242579D01*
X138898Y226909D02*
Y242579D01*
X139094Y226909D02*
Y242579D01*
X139291Y226909D02*
Y242579D01*
X139488Y226909D02*
Y242579D01*
X139685Y226909D02*
Y242579D01*
X139882Y226909D02*
Y242579D01*
X140079Y226909D02*
Y242579D01*
X140276Y226909D02*
Y242579D01*
X140472Y226909D02*
Y242579D01*
X140669Y226909D02*
Y242579D01*
X140866Y226909D02*
Y242579D01*
X141063Y226909D02*
Y242579D01*
X141260Y226909D02*
Y242579D01*
X141457Y226909D02*
Y242579D01*
X141654Y226909D02*
Y242579D01*
X141850Y226909D02*
Y242579D01*
X142047Y226909D02*
Y242579D01*
X142244Y226909D02*
Y242579D01*
X142441Y226909D02*
Y242579D01*
X142638Y226909D02*
Y242579D01*
X142835Y226909D02*
Y242579D01*
X143031Y226909D02*
Y242579D01*
X143228Y226909D02*
Y242579D01*
X143425Y226909D02*
Y242579D01*
X143622Y226909D02*
Y242579D01*
X143819Y226909D02*
Y242579D01*
X144016Y226909D02*
Y242579D01*
X144213Y226909D02*
Y242579D01*
X144409Y226909D02*
Y242579D01*
X144606Y226909D02*
Y242579D01*
X144803Y226909D02*
Y242579D01*
X145000Y226909D02*
Y242579D01*
X145197Y226909D02*
Y242579D01*
X145394Y226909D02*
Y242579D01*
X145591Y226909D02*
Y242579D01*
X145787Y226909D02*
Y242579D01*
X145984Y226909D02*
Y242579D01*
X146181Y226909D02*
Y242579D01*
X146378Y226909D02*
Y242579D01*
X146575Y226909D02*
Y242579D01*
X146772Y226909D02*
Y242579D01*
X146969Y226909D02*
Y242579D01*
X147165Y226909D02*
Y242579D01*
X147362Y226909D02*
Y242579D01*
X147559Y226909D02*
Y242579D01*
X147756Y226909D02*
Y242579D01*
X147953Y226909D02*
Y242579D01*
X148150Y226909D02*
Y242579D01*
X148346Y226909D02*
Y242579D01*
X148543Y226909D02*
Y242579D01*
X148740Y226909D02*
Y242579D01*
X148937Y226909D02*
Y242579D01*
X149134Y226909D02*
Y242579D01*
X129449Y237539D02*
X151102D01*
Y240906*
X129449*
Y237539*
Y240906*
X129646Y237539D02*
Y240906D01*
X129843Y237539D02*
Y240906D01*
X130039Y237539D02*
Y240906D01*
X130236Y237539D02*
Y240906D01*
X130433Y237539D02*
Y240906D01*
X130630Y237539D02*
Y240906D01*
X130827Y237539D02*
Y240906D01*
X131024Y237539D02*
Y240906D01*
X131220Y237539D02*
Y240906D01*
X131417Y237539D02*
Y240906D01*
X131614Y237539D02*
Y240906D01*
X131811Y237539D02*
Y240906D01*
X132008Y237539D02*
Y240906D01*
X132205Y237539D02*
Y240906D01*
X132402Y237539D02*
Y240906D01*
X132598Y237539D02*
Y240906D01*
X132795Y237539D02*
Y240906D01*
X132992Y237539D02*
Y240906D01*
X133189Y237539D02*
Y240906D01*
X133386Y237539D02*
Y240906D01*
X133583Y237539D02*
Y240906D01*
X133780Y237539D02*
Y240906D01*
X133976Y237539D02*
Y240906D01*
X134173Y237539D02*
Y240906D01*
X134370Y237539D02*
Y240906D01*
X134567Y237539D02*
Y240906D01*
X134764Y237539D02*
Y240906D01*
X134961Y237539D02*
Y240906D01*
X135157Y237539D02*
Y240906D01*
X135354Y237539D02*
Y240906D01*
X135551Y237539D02*
Y240906D01*
X135748Y237539D02*
Y240906D01*
X135945Y237539D02*
Y240906D01*
X136142Y237539D02*
Y240906D01*
X136339Y237539D02*
Y240906D01*
X136535Y237539D02*
Y240906D01*
X136732Y237539D02*
Y240906D01*
X136929Y237539D02*
Y240906D01*
X137126Y237539D02*
Y240906D01*
X137323Y237539D02*
Y240906D01*
X137520Y237539D02*
Y240906D01*
X137717Y237539D02*
Y240906D01*
X137913Y237539D02*
Y240906D01*
X138110Y237539D02*
Y240906D01*
X138307Y237539D02*
Y240906D01*
X138504Y237539D02*
Y240906D01*
X138701Y237539D02*
Y240906D01*
X138898Y237539D02*
Y240906D01*
X139094Y237539D02*
Y240906D01*
X139291Y237539D02*
Y240906D01*
X139488Y237539D02*
Y240906D01*
X139685Y237539D02*
Y240906D01*
X139882Y237539D02*
Y240906D01*
X140079Y237539D02*
Y240906D01*
X140276Y237539D02*
Y240906D01*
X140472Y237539D02*
Y240906D01*
X140669Y237539D02*
Y240906D01*
X140866Y237539D02*
Y240906D01*
X141063Y237539D02*
Y240906D01*
X141260Y237539D02*
Y240906D01*
X141457Y237539D02*
Y240906D01*
X141654Y237539D02*
Y240906D01*
X141850Y237539D02*
Y240906D01*
X142047Y237539D02*
Y240906D01*
X142244Y237539D02*
Y240906D01*
X142441Y237539D02*
Y240906D01*
X142638Y237539D02*
Y240906D01*
X142835Y237539D02*
Y240906D01*
X143031Y237539D02*
Y240906D01*
X143228Y237539D02*
Y240906D01*
X143425Y237539D02*
Y240906D01*
X143622Y237539D02*
Y240906D01*
X143819Y237539D02*
Y240906D01*
X144016Y237539D02*
Y240906D01*
X144213Y237539D02*
Y240906D01*
X144409Y237539D02*
Y240906D01*
X144606Y237539D02*
Y240906D01*
X144803Y237539D02*
Y240906D01*
X145000Y237539D02*
Y240906D01*
X145197Y237539D02*
Y240906D01*
X145394Y237539D02*
Y240906D01*
X145591Y237539D02*
Y240906D01*
X145787Y237539D02*
Y240906D01*
X145984Y237539D02*
Y240906D01*
X146181Y237539D02*
Y240906D01*
X146378Y237539D02*
Y240906D01*
X146575Y237539D02*
Y240906D01*
X146772Y237539D02*
Y240906D01*
X146969Y237539D02*
Y240906D01*
X147165Y237539D02*
Y240906D01*
X147362Y237539D02*
Y240906D01*
X147559Y237539D02*
Y240906D01*
X147756Y237539D02*
Y240906D01*
X147953Y237539D02*
Y240906D01*
X148150Y237539D02*
Y240906D01*
X148346Y237539D02*
Y240906D01*
X148543Y237539D02*
Y240906D01*
X148740Y237539D02*
Y240906D01*
X148937Y237539D02*
Y240906D01*
X149134Y237539D02*
Y240906D01*
X149331Y237539D02*
Y240906D01*
X149528Y237539D02*
Y240906D01*
X149724Y237539D02*
Y240906D01*
X149921Y237539D02*
Y240906D01*
X150118Y237539D02*
Y240906D01*
X150315Y237539D02*
Y240906D01*
X150512Y237539D02*
Y240906D01*
X150709Y237539D02*
Y240906D01*
X150906Y237539D02*
Y240906D01*
X169626Y226909D02*
X187382D01*
Y242579*
X169626*
Y226909*
X169646D02*
Y242579D01*
X169843Y226909D02*
Y242579D01*
X170039Y226909D02*
Y242579D01*
X170236Y226909D02*
Y242579D01*
X170433Y226909D02*
Y242579D01*
X170630Y226909D02*
Y242579D01*
X170827Y226909D02*
Y242579D01*
X171024Y226909D02*
Y242579D01*
X171220Y226909D02*
Y242579D01*
X171417Y226909D02*
Y242579D01*
X171614Y226909D02*
Y242579D01*
X171811Y226909D02*
Y242579D01*
X172008Y226909D02*
Y242579D01*
X172205Y226909D02*
Y242579D01*
X172402Y226909D02*
Y242579D01*
X172598Y226909D02*
Y242579D01*
X172795Y226909D02*
Y242579D01*
X172992Y226909D02*
Y242579D01*
X173189Y226909D02*
Y242579D01*
X173386Y226909D02*
Y242579D01*
X173583Y226909D02*
Y242579D01*
X173780Y226909D02*
Y242579D01*
X173976Y226909D02*
Y242579D01*
X174173Y226909D02*
Y242579D01*
X174370Y226909D02*
Y242579D01*
X174567Y226909D02*
Y242579D01*
X174764Y226909D02*
Y242579D01*
X174961Y226909D02*
Y242579D01*
X175157Y226909D02*
Y242579D01*
X175354Y226909D02*
Y242579D01*
X175551Y226909D02*
Y242579D01*
X175748Y226909D02*
Y242579D01*
X175945Y226909D02*
Y242579D01*
X176142Y226909D02*
Y242579D01*
X176339Y226909D02*
Y242579D01*
X176535Y226909D02*
Y242579D01*
X176732Y226909D02*
Y242579D01*
X176929Y226909D02*
Y242579D01*
X177126Y226909D02*
Y242579D01*
X177323Y226909D02*
Y242579D01*
X177520Y226909D02*
Y242579D01*
X177717Y226909D02*
Y242579D01*
X177913Y226909D02*
Y242579D01*
X178110Y226909D02*
Y242579D01*
X178307Y226909D02*
Y242579D01*
X178504Y226909D02*
Y242579D01*
X178701Y226909D02*
Y242579D01*
X178898Y226909D02*
Y242579D01*
X179094Y226909D02*
Y242579D01*
X179291Y226909D02*
Y242579D01*
X179488Y226909D02*
Y242579D01*
X179685Y226909D02*
Y242579D01*
X179882Y226909D02*
Y242579D01*
X180079Y226909D02*
Y242579D01*
X180276Y226909D02*
Y242579D01*
X180472Y226909D02*
Y242579D01*
X180669Y226909D02*
Y242579D01*
X180866Y226909D02*
Y242579D01*
X181063Y226909D02*
Y242579D01*
X181260Y226909D02*
Y242579D01*
X181457Y226909D02*
Y242579D01*
X181654Y226909D02*
Y242579D01*
X181850Y226909D02*
Y242579D01*
X182047Y226909D02*
Y242579D01*
X182244Y226909D02*
Y242579D01*
X182441Y226909D02*
Y242579D01*
X182638Y226909D02*
Y242579D01*
X182835Y226909D02*
Y242579D01*
X183031Y226909D02*
Y242579D01*
X183228Y226909D02*
Y242579D01*
X183425Y226909D02*
Y242579D01*
X183622Y226909D02*
Y242579D01*
X183819Y226909D02*
Y242579D01*
X184016Y226909D02*
Y242579D01*
X184213Y226909D02*
Y242579D01*
X184409Y226909D02*
Y242579D01*
X184606Y226909D02*
Y242579D01*
X184803Y226909D02*
Y242579D01*
X185000Y226909D02*
Y242579D01*
X185197Y226909D02*
Y242579D01*
X185394Y226909D02*
Y242579D01*
X185591Y226909D02*
Y242579D01*
X185787Y226909D02*
Y242579D01*
X185984Y226909D02*
Y242579D01*
X186181Y226909D02*
Y242579D01*
X186378Y226909D02*
Y242579D01*
X186575Y226909D02*
Y242579D01*
X186772Y226909D02*
Y242579D01*
X186969Y226909D02*
Y242579D01*
X187165Y226909D02*
Y242579D01*
X187362Y226909D02*
Y242579D01*
X167677Y237539D02*
X189331D01*
Y240906*
X167677*
Y237539*
Y240906*
X167874Y237539D02*
Y240906D01*
X168071Y237539D02*
Y240906D01*
X168268Y237539D02*
Y240906D01*
X168465Y237539D02*
Y240906D01*
X168661Y237539D02*
Y240906D01*
X168858Y237539D02*
Y240906D01*
X169055Y237539D02*
Y240906D01*
X169252Y237539D02*
Y240906D01*
X169449Y237539D02*
Y240906D01*
X169646Y237539D02*
Y240906D01*
X169843Y237539D02*
Y240906D01*
X170039Y237539D02*
Y240906D01*
X170236Y237539D02*
Y240906D01*
X170433Y237539D02*
Y240906D01*
X170630Y237539D02*
Y240906D01*
X170827Y237539D02*
Y240906D01*
X171024Y237539D02*
Y240906D01*
X171220Y237539D02*
Y240906D01*
X171417Y237539D02*
Y240906D01*
X171614Y237539D02*
Y240906D01*
X171811Y237539D02*
Y240906D01*
X172008Y237539D02*
Y240906D01*
X172205Y237539D02*
Y240906D01*
X172402Y237539D02*
Y240906D01*
X172598Y237539D02*
Y240906D01*
X172795Y237539D02*
Y240906D01*
X172992Y237539D02*
Y240906D01*
X173189Y237539D02*
Y240906D01*
X173386Y237539D02*
Y240906D01*
X173583Y237539D02*
Y240906D01*
X173780Y237539D02*
Y240906D01*
X173976Y237539D02*
Y240906D01*
X174173Y237539D02*
Y240906D01*
X174370Y237539D02*
Y240906D01*
X174567Y237539D02*
Y240906D01*
X174764Y237539D02*
Y240906D01*
X174961Y237539D02*
Y240906D01*
X175157Y237539D02*
Y240906D01*
X175354Y237539D02*
Y240906D01*
X175551Y237539D02*
Y240906D01*
X175748Y237539D02*
Y240906D01*
X175945Y237539D02*
Y240906D01*
X176142Y237539D02*
Y240906D01*
X176339Y237539D02*
Y240906D01*
X176535Y237539D02*
Y240906D01*
X176732Y237539D02*
Y240906D01*
X176929Y237539D02*
Y240906D01*
X177126Y237539D02*
Y240906D01*
X177323Y237539D02*
Y240906D01*
X177520Y237539D02*
Y240906D01*
X177717Y237539D02*
Y240906D01*
X177913Y237539D02*
Y240906D01*
X178110Y237539D02*
Y240906D01*
X178307Y237539D02*
Y240906D01*
X178504Y237539D02*
Y240906D01*
X178701Y237539D02*
Y240906D01*
X178898Y237539D02*
Y240906D01*
X179094Y237539D02*
Y240906D01*
X179291Y237539D02*
Y240906D01*
X179488Y237539D02*
Y240906D01*
X179685Y237539D02*
Y240906D01*
X179882Y237539D02*
Y240906D01*
X180079Y237539D02*
Y240906D01*
X180276Y237539D02*
Y240906D01*
X180472Y237539D02*
Y240906D01*
X180669Y237539D02*
Y240906D01*
X180866Y237539D02*
Y240906D01*
X181063Y237539D02*
Y240906D01*
X181260Y237539D02*
Y240906D01*
X181457Y237539D02*
Y240906D01*
X181654Y237539D02*
Y240906D01*
X181850Y237539D02*
Y240906D01*
X182047Y237539D02*
Y240906D01*
X182244Y237539D02*
Y240906D01*
X182441Y237539D02*
Y240906D01*
X182638Y237539D02*
Y240906D01*
X182835Y237539D02*
Y240906D01*
X183031Y237539D02*
Y240906D01*
X183228Y237539D02*
Y240906D01*
X183425Y237539D02*
Y240906D01*
X183622Y237539D02*
Y240906D01*
X183819Y237539D02*
Y240906D01*
X184016Y237539D02*
Y240906D01*
X184213Y237539D02*
Y240906D01*
X184409Y237539D02*
Y240906D01*
X184606Y237539D02*
Y240906D01*
X184803Y237539D02*
Y240906D01*
X185000Y237539D02*
Y240906D01*
X185197Y237539D02*
Y240906D01*
X185394Y237539D02*
Y240906D01*
X185591Y237539D02*
Y240906D01*
X185787Y237539D02*
Y240906D01*
X185984Y237539D02*
Y240906D01*
X186181Y237539D02*
Y240906D01*
X186378Y237539D02*
Y240906D01*
X186575Y237539D02*
Y240906D01*
X186772Y237539D02*
Y240906D01*
X186969Y237539D02*
Y240906D01*
X187165Y237539D02*
Y240906D01*
X187362Y237539D02*
Y240906D01*
X187559Y237539D02*
Y240906D01*
X187756Y237539D02*
Y240906D01*
X187953Y237539D02*
Y240906D01*
X188150Y237539D02*
Y240906D01*
X188346Y237539D02*
Y240906D01*
X188543Y237539D02*
Y240906D01*
X188740Y237539D02*
Y240906D01*
X188937Y237539D02*
Y240906D01*
X189134Y237539D02*
Y240906D01*
X100000Y100000D02*
X202362D01*
Y269291*
X100000*
Y100000*
X116181Y121339D02*
X186181D01*
Y204094*
X116181*
Y121339*
G54D29*
X157598Y245472D03*
Y248622D03*
X161811Y239370D03*
Y242520D03*
X122047Y248425D03*
X125197D03*
G54D30*
X141831Y265551D03*
X160531D03*
X141831Y258858D03*
X160531D03*
G54D32*
X109843Y109843D03*
X192520D03*
X109843Y259449D03*
X192520D03*
G54D33*
X129961Y108701D03*
X172244D03*
G54D45*
X147776Y248445D03*
X142776D03*
X137776D03*
X132776D03*
Y226811D03*
X147776D03*
X186004Y248445D03*
X181004D03*
X176004D03*
X171004D03*
Y226811D03*
X186004D03*
X0Y0D02*
M02*
