*
*
G04 PADS 9.5 Build Number: 522968 generated Gerber (RS-274-X) file*
G04 PC Version=2.1*
*
%IN "Plasma_Gen_Transformer_"*%
*
%MOIN*%
*
%FSLAX35Y35*%
*
*
*
*
G04 PC Standard Apertures*
*
*
G04 Thermal Relief Aperture macro.*
%AMTER*
1,1,$1,0,0*
1,0,$1-$2,0,0*
21,0,$3,$4,0,0,45*
21,0,$3,$4,0,0,135*
%
*
*
G04 Annular Aperture macro.*
%AMANN*
1,1,$1,0,0*
1,0,$2,0,0*
%
*
*
G04 Odd Aperture macro.*
%AMODD*
1,1,$1,0,0*
1,0,$1-0.005,0,0*
%
*
*
G04 PC Custom Aperture Macros*
*
*
*
*
*
*
G04 PC Aperture Table*
*
%ADD010C,0.00004*%
%ADD011R,0.01969X0.01969*%
%ADD012R,0.08858X0.04724*%
%ADD013R,0.03937X0.02953*%
%ADD015R,0.15748X0.15748*%
%ADD016C,0.00394*%
*
*
*
*
G04 PC Circuitry*
G04 Layer Name Plasma_Gen_Transformer_ - circuitry*
%LPD*%
*
*
G04 PC Custom Flashes*
G04 Layer Name Plasma_Gen_Transformer_ - flashes*
%LPD*%
*
*
G04 PC Circuitry*
G04 Layer Name Plasma_Gen_Transformer_ - circuitry*
%LPD*%
*
G54D10*
G54D11*
G01X171890Y255236D03*
X175039D03*
X188189Y243701D03*
Y246850D03*
X148425Y243701D03*
Y246850D03*
G54D12*
X141831Y265551D03*
X160531D03*
X141831Y258858D03*
X160531D03*
G54D13*
X140531Y231870D03*
Y236870D03*
Y241870D03*
Y246870D03*
X118898D03*
Y231870D03*
X180020D03*
Y236870D03*
Y241870D03*
Y246870D03*
X158386D03*
Y231870D03*
G54D15*
X129961Y108701D03*
X172244D03*
G54D16*
X119094Y248150D02*
Y230591D01*
X134567*
Y248150*
X119094*
Y230591D02*
Y248150D01*
X119291Y230591D02*
Y248150D01*
X119488Y230591D02*
Y248150D01*
X119685Y230591D02*
Y248150D01*
X119882Y230591D02*
Y248150D01*
X120079Y230591D02*
Y248150D01*
X120276Y230591D02*
Y248150D01*
X120472Y230591D02*
Y248150D01*
X120669Y230591D02*
Y248150D01*
X120866Y230591D02*
Y248150D01*
X121063Y230591D02*
Y248150D01*
X121260Y230591D02*
Y248150D01*
X121457Y230591D02*
Y248150D01*
X121654Y230591D02*
Y248150D01*
X121850Y230591D02*
Y248150D01*
X122047Y230591D02*
Y248150D01*
X122244Y230591D02*
Y248150D01*
X122441Y230591D02*
Y248150D01*
X122638Y230591D02*
Y248150D01*
X122835Y230591D02*
Y248150D01*
X123031Y230591D02*
Y248150D01*
X123228Y230591D02*
Y248150D01*
X123425Y230591D02*
Y248150D01*
X123622Y230591D02*
Y248150D01*
X123819Y230591D02*
Y248150D01*
X124016Y230591D02*
Y248150D01*
X124213Y230591D02*
Y248150D01*
X124409Y230591D02*
Y248150D01*
X124606Y230591D02*
Y248150D01*
X124803Y230591D02*
Y248150D01*
X125000Y230591D02*
Y248150D01*
X125197Y230591D02*
Y248150D01*
X125394Y230591D02*
Y248150D01*
X125591Y230591D02*
Y248150D01*
X125787Y230591D02*
Y248150D01*
X125984Y230591D02*
Y248150D01*
X126181Y230591D02*
Y248150D01*
X126378Y230591D02*
Y248150D01*
X126575Y230591D02*
Y248150D01*
X126772Y230591D02*
Y248150D01*
X126969Y230591D02*
Y248150D01*
X127165Y230591D02*
Y248150D01*
X127362Y230591D02*
Y248150D01*
X127559Y230591D02*
Y248150D01*
X127756Y230591D02*
Y248150D01*
X127953Y230591D02*
Y248150D01*
X128150Y230591D02*
Y248150D01*
X128346Y230591D02*
Y248150D01*
X128543Y230591D02*
Y248150D01*
X128740Y230591D02*
Y248150D01*
X128937Y230591D02*
Y248150D01*
X129134Y230591D02*
Y248150D01*
X129331Y230591D02*
Y248150D01*
X129528Y230591D02*
Y248150D01*
X129724Y230591D02*
Y248150D01*
X129921Y230591D02*
Y248150D01*
X130118Y230591D02*
Y248150D01*
X130315Y230591D02*
Y248150D01*
X130512Y230591D02*
Y248150D01*
X130709Y230591D02*
Y248150D01*
X130906Y230591D02*
Y248150D01*
X131102Y230591D02*
Y248150D01*
X131299Y230591D02*
Y248150D01*
X131496Y230591D02*
Y248150D01*
X131693Y230591D02*
Y248150D01*
X131890Y230591D02*
Y248150D01*
X132087Y230591D02*
Y248150D01*
X132283Y230591D02*
Y248150D01*
X132480Y230591D02*
Y248150D01*
X132677Y230591D02*
Y248150D01*
X132874Y230591D02*
Y248150D01*
X133071Y230591D02*
Y248150D01*
X133268Y230591D02*
Y248150D01*
X133465Y230591D02*
Y248150D01*
X133661Y230591D02*
Y248150D01*
X133858Y230591D02*
Y248150D01*
X134055Y230591D02*
Y248150D01*
X134252Y230591D02*
Y248150D01*
X134449Y230591D02*
Y248150D01*
X129724Y250098D02*
Y228642D01*
X132894*
Y250098*
X129724*
Y228642D02*
Y250098D01*
X129921Y228642D02*
Y250098D01*
X130118Y228642D02*
Y250098D01*
X130315Y228642D02*
Y250098D01*
X130512Y228642D02*
Y250098D01*
X130709Y228642D02*
Y250098D01*
X130906Y228642D02*
Y250098D01*
X131102Y228642D02*
Y250098D01*
X131299Y228642D02*
Y250098D01*
X131496Y228642D02*
Y250098D01*
X131693Y228642D02*
Y250098D01*
X131890Y228642D02*
Y250098D01*
X132087Y228642D02*
Y250098D01*
X132283Y228642D02*
Y250098D01*
X132480Y228642D02*
Y250098D01*
X132677Y228642D02*
Y250098D01*
X132874Y228642D02*
Y250098D01*
X158583Y248150D02*
Y230591D01*
X174055*
Y248150*
X158583*
Y230591D02*
Y248150D01*
X158780Y230591D02*
Y248150D01*
X158976Y230591D02*
Y248150D01*
X159173Y230591D02*
Y248150D01*
X159370Y230591D02*
Y248150D01*
X159567Y230591D02*
Y248150D01*
X159764Y230591D02*
Y248150D01*
X159961Y230591D02*
Y248150D01*
X160157Y230591D02*
Y248150D01*
X160354Y230591D02*
Y248150D01*
X160551Y230591D02*
Y248150D01*
X160748Y230591D02*
Y248150D01*
X160945Y230591D02*
Y248150D01*
X161142Y230591D02*
Y248150D01*
X161339Y230591D02*
Y248150D01*
X161535Y230591D02*
Y248150D01*
X161732Y230591D02*
Y248150D01*
X161929Y230591D02*
Y248150D01*
X162126Y230591D02*
Y248150D01*
X162323Y230591D02*
Y248150D01*
X162520Y230591D02*
Y248150D01*
X162717Y230591D02*
Y248150D01*
X162913Y230591D02*
Y248150D01*
X163110Y230591D02*
Y248150D01*
X163307Y230591D02*
Y248150D01*
X163504Y230591D02*
Y248150D01*
X163701Y230591D02*
Y248150D01*
X163898Y230591D02*
Y248150D01*
X164094Y230591D02*
Y248150D01*
X164291Y230591D02*
Y248150D01*
X164488Y230591D02*
Y248150D01*
X164685Y230591D02*
Y248150D01*
X164882Y230591D02*
Y248150D01*
X165079Y230591D02*
Y248150D01*
X165276Y230591D02*
Y248150D01*
X165472Y230591D02*
Y248150D01*
X165669Y230591D02*
Y248150D01*
X165866Y230591D02*
Y248150D01*
X166063Y230591D02*
Y248150D01*
X166260Y230591D02*
Y248150D01*
X166457Y230591D02*
Y248150D01*
X166654Y230591D02*
Y248150D01*
X166850Y230591D02*
Y248150D01*
X167047Y230591D02*
Y248150D01*
X167244Y230591D02*
Y248150D01*
X167441Y230591D02*
Y248150D01*
X167638Y230591D02*
Y248150D01*
X167835Y230591D02*
Y248150D01*
X168031Y230591D02*
Y248150D01*
X168228Y230591D02*
Y248150D01*
X168425Y230591D02*
Y248150D01*
X168622Y230591D02*
Y248150D01*
X168819Y230591D02*
Y248150D01*
X169016Y230591D02*
Y248150D01*
X169213Y230591D02*
Y248150D01*
X169409Y230591D02*
Y248150D01*
X169606Y230591D02*
Y248150D01*
X169803Y230591D02*
Y248150D01*
X170000Y230591D02*
Y248150D01*
X170197Y230591D02*
Y248150D01*
X170394Y230591D02*
Y248150D01*
X170591Y230591D02*
Y248150D01*
X170787Y230591D02*
Y248150D01*
X170984Y230591D02*
Y248150D01*
X171181Y230591D02*
Y248150D01*
X171378Y230591D02*
Y248150D01*
X171575Y230591D02*
Y248150D01*
X171772Y230591D02*
Y248150D01*
X171969Y230591D02*
Y248150D01*
X172165Y230591D02*
Y248150D01*
X172362Y230591D02*
Y248150D01*
X172559Y230591D02*
Y248150D01*
X172756Y230591D02*
Y248150D01*
X172953Y230591D02*
Y248150D01*
X173150Y230591D02*
Y248150D01*
X173346Y230591D02*
Y248150D01*
X173543Y230591D02*
Y248150D01*
X173740Y230591D02*
Y248150D01*
X173937Y230591D02*
Y248150D01*
X169213Y250098D02*
Y228642D01*
X172382*
Y250098*
X169213*
Y228642D02*
Y250098D01*
X169409Y228642D02*
Y250098D01*
X169606Y228642D02*
Y250098D01*
X169803Y228642D02*
Y250098D01*
X170000Y228642D02*
Y250098D01*
X170197Y228642D02*
Y250098D01*
X170394Y228642D02*
Y250098D01*
X170591Y228642D02*
Y250098D01*
X170787Y228642D02*
Y250098D01*
X170984Y228642D02*
Y250098D01*
X171181Y228642D02*
Y250098D01*
X171378Y228642D02*
Y250098D01*
X171575Y228642D02*
Y250098D01*
X171772Y228642D02*
Y250098D01*
X171969Y228642D02*
Y250098D01*
X172165Y228642D02*
Y250098D01*
X172362Y228642D02*
Y250098D01*
X100000Y100000D02*
X202362D01*
Y269291*
X100000*
Y100000*
X116181Y125591D02*
X186181D01*
Y208268*
X116181*
Y125591*
X0Y0D02*
M02*
