*
*
G04 PADS 9.5 Build Number: 522968 generated Gerber (RS-274-X) file*
G04 PC Version=2.1*
*
%IN "Plasma_Gen_Transformer_"*%
*
%MOIN*%
*
%FSLAX35Y35*%
*
*
*
*
G04 PC Standard Apertures*
*
*
G04 Thermal Relief Aperture macro.*
%AMTER*
1,1,$1,0,0*
1,0,$1-$2,0,0*
21,0,$3,$4,0,0,45*
21,0,$3,$4,0,0,135*
%
*
*
G04 Annular Aperture macro.*
%AMANN*
1,1,$1,0,0*
1,0,$2,0,0*
%
*
*
G04 Odd Aperture macro.*
%AMODD*
1,1,$1,0,0*
1,0,$1-0.005,0,0*
%
*
*
G04 PC Custom Aperture Macros*
*
*
*
*
*
*
G04 PC Aperture Table*
*
%ADD010C,0.00004*%
%ADD016C,0.00394*%
%ADD039C,0.00591*%
*
*
*
*
G04 PC Circuitry*
G04 Layer Name Plasma_Gen_Transformer_ - circuitry*
%LPD*%
*
*
G04 PC Custom Flashes*
G04 Layer Name Plasma_Gen_Transformer_ - flashes*
%LPD*%
*
*
G04 PC Circuitry*
G04 Layer Name Plasma_Gen_Transformer_ - circuitry*
%LPD*%
*
G54D10*
G54D16*
G01X177835Y231024D02*
X175472D01*
Y234173*
X177835*
X179409Y231024D02*
X181772D01*
Y234173*
X179409*
X139488Y241693D02*
X169409D01*
Y223583*
X139488*
Y241693*
X186142Y204055D02*
Y121378D01*
X116063*
Y204055*
X186142*
X140972Y252756D02*
X172480D01*
Y268504*
X140972*
Y252756*
X180183Y236730D02*
X180272Y236976D01*
X180451Y237222*
X180630Y237345*
X180988*
X181167Y237222*
X181346Y236976*
X181435Y236730*
X181525Y236361*
Y235746*
X181435Y235376*
X181346Y235130*
X181167Y234884*
X180988Y234761*
X180630*
X180451Y234884*
X180272Y235130*
X180183Y235376*
X179288Y236730D02*
Y236853D01*
X179198Y237099*
X179109Y237222*
X178930Y237345*
X178572*
X178393Y237222*
X178304Y237099*
X178214Y236853*
Y236607*
X178304Y236361*
X178482Y235992*
X179377Y234761*
X178125*
X148933Y246102D02*
X149023Y246348D01*
X149202Y246594*
X149381Y246718*
X149739*
X149918Y246594*
X150097Y246348*
X150186Y246102*
X150276Y245733*
Y245118*
X150186Y244749*
X150097Y244503*
X149918Y244257*
X149739Y244134*
X149381*
X149202Y244257*
X149023Y244503*
X148933Y244749*
X148128Y246225D02*
X147949Y246348D01*
X147681Y246718*
Y244134*
X153862Y210458D02*
Y207874D01*
X154488Y210458D02*
X153236D01*
X152430D02*
X151178Y207874D01*
Y210458D02*
X152430Y207874D01*
X150372Y209966D02*
X150193Y210089D01*
X149925Y210458*
Y207874*
X125877Y262032D02*
Y260064D01*
X125966Y259695*
X126056Y259572*
X126235Y259449*
X126414*
X126593Y259572*
X126682Y259695*
X126772Y260064*
Y260310*
X125072Y261540D02*
X124893Y261663D01*
X124624Y262032*
Y259449*
X100000Y100000D02*
X202362D01*
Y269291*
X100000*
Y100000*
X116181Y121339D02*
X186181D01*
Y204094*
X116181*
Y121339*
G54D39*
X156417Y228701D02*
Y236575D01*
Y232638D02*
X160354D01*
X156417Y226732D02*
X160354D01*
X152482Y228702D02*
G75*
G03X152475Y236578I-2797J3936D01*
G01X154449Y232638D02*
X150512D01*
X158386Y224764D02*
Y228701D01*
G74*
X0Y0D02*
M02*
