0
SECTION
2
HEADER
999
*** POWERPCB  HEADER ***
9
$EXTMIN
10
-1.05
20
-0.05
9
$EXTMAX
10
24.05
20
53
9
$FILLMODE
70
0
9
$GRIDMODE
70
1
9
$GRIDUNIT
10
1
20
1
9
$INSBASE
10
-457.2
20
-457.2
9
$LIMCHECK
70
0
9
$PLINEWID
40
0.01
9
$SNAPMODE
70
1
9
$SNAPUNIT
10
0.1
20
0.1
9
$TEXTSIZE
40
2.54
9
$TEXTSTYLE
7
W0$254
9
$USERI1
70
101
9
$USERI2
70
1
9
$USERI5
70
150
9
$VIEWCTR
10
10.4552873333
20
36.1552826667
0
ENDSEC
0
SECTION
2
TABLES
999
*** POWERPCB  LTYPE ***
0
TABLE
2
LTYPE
70
1
0
LTYPE
2
CONTINUOUS
70
64
3
---
72
65
73
0
40
0
0
LTYPE
2
TRMIDX_4
70
64
3
---
72
65
73
2
40
2
49
1
49
1
0
ENDTAB
999
*** POWERPCB  LAYER ***
0
TABLE
2
LAYER
70
29
0
LAYER
2
DBLAYERS
70
1
62
-254
6
CONTINUOUS
0
LAYER
2
BOARD_OUTLINE_00
70
0
62
254
6
CONTINUOUS
0
LAYER
2
LABEL_INFO
70
1
62
-254
6
CONTINUOUS
0
LAYER
2
LABEL_ATTRIBUTE
70
1
62
-254
6
CONTINUOUS
0
LAYER
2
PART_NAME_02
70
0
62
254
6
CONTINUOUS
0
LAYER
2
PART_TYPE_BOT
70
1
62
-250
6
CONTINUOUS
0
LAYER
2
PART_INFO
70
1
62
-254
6
CONTINUOUS
0
LAYER
2
PART_PTS
70
1
62
-254
6
CONTINUOUS
0
LAYER
2
PART_TYPE_02
70
1
62
-250
6
CONTINUOUS
0
LAYER
2
SYM_NAME
70
1
62
-254
6
CONTINUOUS
0
LAYER
2
SYM_PART_NAME_01
70
1
62
-254
6
CONTINUOUS
0
LAYER
2
SYM_TERMINAL
70
1
62
-254
6
CONTINUOUS
0
LAYER
2
PKG_INFO
70
1
62
-254
6
CONTINUOUS
0
LAYER
2
SYM_PART_TYPE_01
70
1
62
-254
6
CONTINUOUS
0
LAYER
2
PART_BOT_2DLINE_01
70
1
62
-250
6
CONTINUOUS
0
LAYER
2
PART_BOT_2DLINE_115
70
1
62
-250
6
CONTINUOUS
0
LAYER
2
DRIL_NPLTE_THRU_01
70
1
62
-96
6
CONTINUOUS
0
LAYER
2
DRIL_NPLTE_THRU_02
70
0
62
2
6
CONTINUOUS
0
LAYER
2
PADS_INNER
70
0
62
34
6
CONTINUOUS
0
LAYER
2
PADS_BOT
70
0
62
34
6
CONTINUOUS
0
LAYER
2
PADS_TOP
70
1
62
-3
6
CONTINUOUS
0
LAYER
2
PART_BOT_2DLINE_00
70
0
62
2
6
CONTINUOUS
0
LAYER
2
PART_BOT_COPPER_01
70
1
62
-250
6
CONTINUOUS
0
LAYER
2
DRIL_PLTE_THRU_01
70
1
62
-96
6
CONTINUOUS
0
LAYER
2
DRIL_PLTE_THRU_02
70
0
62
2
6
CONTINUOUS
0
LAYER
2
PART_BOT_2DLINE_127
70
1
62
-250
6
CONTINUOUS
0
LAYER
2
PADS_XR_123
70
1
62
-250
6
CONTINUOUS
0
LAYER
2
PCB_PARAMS
70
1
62
-254
6
CONTINUOUS
0
LAYER
2
DRIL_SYMBOL
70
0
62
254
6
CONTINUOUS
0
ENDTAB
999
*** POWERPCB  TEXT STYLE ***
0
TABLE
2
STYLE
70
8
0
STYLE
2
W0$1
70
64
40
0
41
0.75
42
0
50
0
71
0
3
simplex
0
STYLE
2
W0$02
70
64
40
0
41
0.75
42
0
50
0
71
0
3
simplex
0
STYLE
2
W0$127
70
64
40
0
41
0.75
42
0
50
0
71
0
3
simplex
0
STYLE
2
W0$1R2
70
64
40
0
41
0.75
42
0
50
0
71
0
3
simplex
0
STYLE
2
W0$02R0
70
64
40
0
41
0.75
42
0
50
0
71
0
3
simplex
0
STYLE
2
W0$127R0
70
64
40
0
41
0.75
42
0
50
0
71
0
3
simplex
0
STYLE
2
W0$1R0
70
64
40
0
41
0.75
42
0
50
0
71
0
3
simplex
0
STYLE
2
W0$254
70
64
40
0
41
0.75
42
0
50
0
71
0
3
simplex
0
ENDTAB
0
ENDSEC
0
SECTION
2
BLOCKS
999
*** POWERPCB  DBLAYER ***
0
BLOCK
2
DBLAYERS
8
0
10
0
20
0
3
DBLAYERS
70
64
0
TEXT
8
DBLAYERS
10
0
20
-3.048
40
1.778
1
__It__Is__Job__Name__:=Plasma_Gen_Transformer_SCH_V2.0_20180324.pcb
999
 *  1.Number             2.Type                  3.RouteColor
999
 *  4.ViaColor           5.PadColor              6.CopperColor
999
 *  7.2DLineColor        8.TextColor             9.ErrorColor
999
 * 10.TopComponentColor 11.BottomComponentColor 12.RoutingDirection
999
 * 13.LayerThickness    14.CopperThickness      15.Dielectric
999
 * 16.IsRouteable       17.IsVisible            18.IsSelectable
999
 * 19.IsPrepreg         20.AssSilkScreen        21.AssPasteMask
999
 * 22.AssSolderMask     23.AssAssembly
0
TEXT
8
DBLAYERS
10
0
20
-6.096
40
1.778
1
Bottom:=2 1 22 22 22 22 8 8 22 0 14 1 0 51435 3.2999999523 1 1 1 0 129 122 128 130 0 0 1 8 0 12 23 
0
ENDBLK
999
*** POWERPCB  BOARD ***
0
BLOCK
2
BOARD_3
8
0
10
0
20
0
3
BOARD_3
70
64
0
POLYLINE
8
BOARD_OUTLINE_00
66
1
40
0.1
41
0.1
70
1
0
VERTEX
8
BOARD_OUTLINE_00
10
2
20
0.3
42
0.4142135624
0
VERTEX
8
BOARD_OUTLINE_00
10
2.3
20
0
0
VERTEX
8
BOARD_OUTLINE_00
10
20.7
20
0
42
0.4142135624
0
VERTEX
8
BOARD_OUTLINE_00
10
21
20
0.3
0
VERTEX
8
BOARD_OUTLINE_00
10
21
20
3
42
-0.4142135624
0
VERTEX
8
BOARD_OUTLINE_00
10
22
20
4
0
VERTEX
8
BOARD_OUTLINE_00
10
23.5
20
4
42
0.4142135624
0
VERTEX
8
BOARD_OUTLINE_00
10
24
20
4.5
0
VERTEX
8
BOARD_OUTLINE_00
10
24
20
29.5
42
0.4142135624
0
VERTEX
8
BOARD_OUTLINE_00
10
23.5
20
30
0
VERTEX
8
BOARD_OUTLINE_00
10
22
20
30
42
-0.4142135624
0
VERTEX
8
BOARD_OUTLINE_00
10
21
20
31
0
VERTEX
8
BOARD_OUTLINE_00
10
21
20
51.5
42
0.4142135624
0
VERTEX
8
BOARD_OUTLINE_00
10
20.5
20
52
0
VERTEX
8
BOARD_OUTLINE_00
10
2.5
20
52
42
0.4142135624
0
VERTEX
8
BOARD_OUTLINE_00
10
2
20
51.5
0
VERTEX
8
BOARD_OUTLINE_00
10
2
20
31
42
-0.4142135624
0
VERTEX
8
BOARD_OUTLINE_00
10
1
20
30
0
VERTEX
8
BOARD_OUTLINE_00
10
-0.5
20
30
42
0.4142135624
0
VERTEX
8
BOARD_OUTLINE_00
10
-1
20
29.5
0
VERTEX
8
BOARD_OUTLINE_00
10
-1
20
4.5
42
0.4142135624
0
VERTEX
8
BOARD_OUTLINE_00
10
-0.5
20
4
0
VERTEX
8
BOARD_OUTLINE_00
10
1
20
4
42
-0.4142135624
0
VERTEX
8
BOARD_OUTLINE_00
10
2
20
3
0
SEQEND
0
INSERT
2
SMOOTH_0$1
8
BOARD_OUTLINE_00
10
2
20
0.3
0
INSERT
2
SMOOTH_0$1
8
BOARD_OUTLINE_00
10
2.3
20
0
0
ENDBLK
999
*** POWERPCB  2DLINE ***
999
*** POWERPCB  COMPONENT ***
0
BLOCK
2
PART_BOT_1
8
0
10
0
20
0
3
PART_BOT_1
70
64
0
INSERT
2
SYM_BOT_4
8
0
10
0
20
0
0
INSERT
2
PKG_0
8
0
10
0
20
0
41
-1
0
TEXT
8
LABEL_INFO
10
0.09
20
1.17
40
0.7
1
2 0 1 1 0 1
72
1
73
1
11
0.09
21
1.17
41
0.75
7
W0$1
0
TEXT
8
LABEL_ATTRIBUTE
10
0.09
20
1.17
40
0.7
1
Ref.Des.
72
1
73
1
11
0.09
21
1.17
41
0.75
7
W0$1
0
TEXT
8
PART_NAME_02
10
0.09
20
1.17
40
0.7
1
C3
72
1
73
2
11
0.09
21
1.17
41
0.75
7
W0$1
0
TEXT
8
PART_TYPE_BOT
10
0.09
20
0.17
40
0.7
1
C-1005
72
1
73
2
11
0.09
21
0.17
41
0.75
7
W0$1
0
TEXT
8
PART_INFO
10
0.09
20
-0.83
40
0.7
1
000000
71
2
72
1
73
2
11
0.09
21
-0.83
41
0.75
7
W0$1
0
TEXT
8
PART_PTS
10
0.09
20
-1.83
40
0.7
1
1 2 
71
2
72
1
73
2
11
0.09
21
-1.83
41
0.75
7
W0$1
0
ENDBLK
0
BLOCK
2
PART_BOT_2
8
0
10
0
20
0
3
PART_BOT_2
70
64
0
INSERT
2
SYM_BOT_5
8
0
10
0
20
0
0
INSERT
2
PKG_1
8
0
10
0
20
0
41
-1
0
TEXT
8
LABEL_INFO
10
0
20
0
40
0.14
1
0 0 0 2 0 1
73
2
11
0
21
0
41
0.75
7
W0$02
0
TEXT
8
LABEL_ATTRIBUTE
10
0
20
0
40
0.14
1
PartType
73
2
11
0
21
0
41
0.75
7
W0$02
0
TEXT
8
PART_TYPE_02
10
0
20
0
40
0.14
1
CTT_1139P1
73
3
11
0
21
0
41
0.75
7
W0$02
0
TEXT
8
LABEL_INFO
10
-0.7
20
-2.9
40
0.7
1
0 0 0 0 0 1
41
0.75
7
W0$1
0
TEXT
8
LABEL_ATTRIBUTE
10
-0.7
20
-2.9
40
0.7
1
Ref.Des.
41
0.75
7
W0$1
0
TEXT
8
PART_NAME_02
10
-0.7
20
-2.9
40
0.7
1
SW1
41
0.75
7
W0$1
0
TEXT
8
PART_INFO
10
-0.7
20
-3.9
40
0.7
1
000000
71
2
41
0.75
7
W0$1
0
TEXT
8
PART_PTS
10
-0.7
20
-4.9
40
0.7
1
1 2 3 4 
71
2
41
0.75
7
W0$1
0
ENDBLK
0
BLOCK
2
PART_BOT_3
8
0
10
0
20
0
3
PART_BOT_3
70
64
0
INSERT
2
SYM_BOT_6
8
0
10
0
20
0
0
INSERT
2
PKG_2
8
0
10
0
20
0
41
-1
0
TEXT
8
LABEL_INFO
10
-1.049
20
0.893
40
0.889
1
0 0 0 2 0 1
73
2
11
-1.049
21
0.893
41
0.75
7
W0$127
0
TEXT
8
LABEL_ATTRIBUTE
10
-1.049
20
0.893
40
0.889
1
PartType
73
2
11
-1.049
21
0.893
41
0.75
7
W0$127
0
TEXT
8
PART_TYPE_02
10
-1.049
20
0.893
40
0.889
1
NVMFS5C450NL
73
3
11
-1.049
21
0.893
41
0.75
7
W0$127
0
TEXT
8
LABEL_INFO
10
-1.5599993333
20
-3.94
40
0.7
1
0 324000000 0 0 0 1
50
180
41
0.75
7
W0$1
0
TEXT
8
LABEL_ATTRIBUTE
10
-1.5599993333
20
-3.94
40
0.7
1
Ref.Des.
50
180
41
0.75
7
W0$1
0
TEXT
8
PART_NAME_02
10
-1.5599993333
20
-3.94
40
0.7
1
Q1
50
180
41
0.75
7
W0$1
0
TEXT
8
PART_INFO
10
-1.5599993333
20
-4.94
40
0.7
1
000000
71
2
50
180
41
0.75
7
W0$1
0
TEXT
8
PART_PTS
10
-1.5599993333
20
-5.94
40
0.7
1
1 2 3 4 5 6 
71
2
50
180
41
0.75
7
W0$1
0
ENDBLK
0
BLOCK
2
PART_BOT_4
8
0
10
0
20
0
3
PART_BOT_4
70
64
0
INSERT
2
SYM_BOT_6
8
0
10
0
20
0
0
INSERT
2
PKG_2
8
0
10
0
20
0
41
-1
0
TEXT
8
LABEL_INFO
10
-1.049
20
0.893
40
0.889
1
0 0 0 2 0 1
73
2
11
-1.049
21
0.893
41
0.75
7
W0$127
0
TEXT
8
LABEL_ATTRIBUTE
10
-1.049
20
0.893
40
0.889
1
PartType
73
2
11
-1.049
21
0.893
41
0.75
7
W0$127
0
TEXT
8
PART_TYPE_02
10
-1.049
20
0.893
40
0.889
1
NVMFS5C450NL
73
3
11
-1.049
21
0.893
41
0.75
7
W0$127
0
TEXT
8
LABEL_INFO
10
-0.7199993333
20
-4.06
40
0.7
1
0 324000000 0 0 0 1
50
180
41
0.75
7
W0$1
0
TEXT
8
LABEL_ATTRIBUTE
10
-0.7199993333
20
-4.06
40
0.7
1
Ref.Des.
50
180
41
0.75
7
W0$1
0
TEXT
8
PART_NAME_02
10
-0.7199993333
20
-4.06
40
0.7
1
Q2
50
180
41
0.75
7
W0$1
0
TEXT
8
PART_INFO
10
-0.7199993333
20
-5.06
40
0.7
1
000000
71
2
50
180
41
0.75
7
W0$1
0
TEXT
8
PART_PTS
10
-0.7199993333
20
-6.06
40
0.7
1
1 2 3 4 5 6 
71
2
50
180
41
0.75
7
W0$1
0
ENDBLK
0
BLOCK
2
PART_BOT_6
8
0
10
0
20
0
3
PART_BOT_6
70
64
0
INSERT
2
SYM_BOT_8
8
0
10
0
20
0
0
INSERT
2
PKG_4
8
0
10
0
20
0
41
-1
0
TEXT
8
LABEL_INFO
10
0.05
20
-1.08
40
0.7
1
0 324000000 1 1 0 1
72
1
73
1
11
0.05
21
-1.08
50
180
41
0.75
7
W0$1
0
TEXT
8
LABEL_ATTRIBUTE
10
0.05
20
-1.08
40
0.7
1
Ref.Des.
72
1
73
1
11
0.05
21
-1.08
50
180
41
0.75
7
W0$1
0
TEXT
8
PART_NAME_02
10
0.05
20
-1.08
40
0.7
1
R2
72
1
73
2
11
0.05
21
-1.08
50
180
41
0.75
7
W0$1
0
TEXT
8
LABEL_INFO
10
0.01
20
0.1
40
0.28
1
0 0 1 1 0 1
72
1
73
1
11
0.01
21
0.1
41
0.75
7
W0$02
0
TEXT
8
LABEL_ATTRIBUTE
10
0.01
20
0.1
40
0.28
1
PartType
72
1
73
1
11
0.01
21
0.1
41
0.75
7
W0$02
0
TEXT
8
PART_TYPE_02
10
0.01
20
0.1
40
0.28
1
R-1005
72
1
73
2
11
0.01
21
0.1
41
0.75
7
W0$02
0
TEXT
8
PART_INFO
10
0.01
20
-0.3
40
0.28
1
000000
71
2
72
1
73
2
11
0.01
21
-0.3
41
0.75
7
W0$02
0
TEXT
8
PART_PTS
10
0.01
20
-0.7
40
0.28
1
1 2 
71
2
72
1
73
2
11
0.01
21
-0.7
41
0.75
7
W0$02
0
ENDBLK
0
BLOCK
2
PART_BOT_7
8
0
10
0
20
0
3
PART_BOT_7
70
64
0
INSERT
2
SYM_BOT_8
8
0
10
0
20
0
0
INSERT
2
PKG_4
8
0
10
0
20
0
41
-1
0
TEXT
8
LABEL_INFO
10
0.17
20
-0.96
40
0.7
1
0 324000000 1 1 0 1
72
1
73
1
11
0.17
21
-0.96
50
180
41
0.75
7
W0$1
0
TEXT
8
LABEL_ATTRIBUTE
10
0.17
20
-0.96
40
0.7
1
Ref.Des.
72
1
73
1
11
0.17
21
-0.96
50
180
41
0.75
7
W0$1
0
TEXT
8
PART_NAME_02
10
0.17
20
-0.96
40
0.7
1
R1
72
1
73
2
11
0.17
21
-0.96
50
180
41
0.75
7
W0$1
0
TEXT
8
LABEL_INFO
10
0.01
20
0.1
40
0.28
1
0 0 1 1 0 1
72
1
73
1
11
0.01
21
0.1
41
0.75
7
W0$02
0
TEXT
8
LABEL_ATTRIBUTE
10
0.01
20
0.1
40
0.28
1
PartType
72
1
73
1
11
0.01
21
0.1
41
0.75
7
W0$02
0
TEXT
8
PART_TYPE_02
10
0.01
20
0.1
40
0.28
1
R-1005
72
1
73
2
11
0.01
21
0.1
41
0.75
7
W0$02
0
TEXT
8
PART_INFO
10
0.01
20
-0.3
40
0.28
1
000000
71
2
72
1
73
2
11
0.01
21
-0.3
41
0.75
7
W0$02
0
TEXT
8
PART_PTS
10
0.01
20
-0.7
40
0.28
1
1 2 
71
2
72
1
73
2
11
0.01
21
-0.7
41
0.75
7
W0$02
0
ENDBLK
0
BLOCK
2
PART_BOT_9
8
0
10
0
20
0
3
PART_BOT_9
70
64
0
INSERT
2
SYM_BOT_11
8
0
10
0
20
0
0
INSERT
2
PKG_7
8
0
10
0
20
0
41
-1
0
TEXT
8
LABEL_INFO
10
-1.27
20
0.508
40
0.889
1
0 0 0 2 0 1
73
2
11
-1.27
21
0.508
41
0.75
7
W0$127
0
TEXT
8
LABEL_ATTRIBUTE
10
-1.27
20
0.508
40
0.889
1
PartType
73
2
11
-1.27
21
0.508
41
0.75
7
W0$127
0
TEXT
8
PART_TYPE_02
10
-1.27
20
0.508
40
0.889
1
PAD_4X4
73
3
11
-1.27
21
0.508
41
0.75
7
W0$127
0
TEXT
8
LABEL_INFO
10
4.225942
20
-1.5091706667
40
0.7
1
0 0 0 0 0 1
41
0.75
7
W0$1
0
TEXT
8
LABEL_ATTRIBUTE
10
4.225942
20
-1.5091706667
40
0.7
1
Ref.Des.
41
0.75
7
W0$1
0
TEXT
8
PART_NAME_02
10
4.225942
20
-1.5091706667
40
0.7
1
P1
41
0.75
7
W0$1
0
TEXT
8
PART_INFO
10
4.225942
20
-2.5091706667
40
0.7
1
000000
71
2
41
0.75
7
W0$1
0
TEXT
8
PART_PTS
10
4.225942
20
-3.5091706667
40
0.7
1
1 
71
2
41
0.75
7
W0$1
0
ENDBLK
0
BLOCK
2
PART_BOT_10
8
0
10
0
20
0
3
PART_BOT_10
70
64
0
INSERT
2
SYM_BOT_11
8
0
10
0
20
0
0
INSERT
2
PKG_7
8
0
10
0
20
0
41
-1
0
TEXT
8
LABEL_INFO
10
-1.27
20
0.508
40
0.889
1
0 0 0 2 0 1
73
2
11
-1.27
21
0.508
41
0.75
7
W0$127
0
TEXT
8
LABEL_ATTRIBUTE
10
-1.27
20
0.508
40
0.889
1
PartType
73
2
11
-1.27
21
0.508
41
0.75
7
W0$127
0
TEXT
8
PART_TYPE_02
10
-1.27
20
0.508
40
0.889
1
PAD_4X4
73
3
11
-1.27
21
0.508
41
0.75
7
W0$127
0
TEXT
8
LABEL_INFO
10
-4.756242
20
-1.637514
40
0.7
1
0 0 0 0 0 1
41
0.75
7
W0$1
0
TEXT
8
LABEL_ATTRIBUTE
10
-4.756242
20
-1.637514
40
0.7
1
Ref.Des.
41
0.75
7
W0$1
0
TEXT
8
PART_NAME_02
10
-4.756242
20
-1.637514
40
0.7
1
P6
41
0.75
7
W0$1
0
TEXT
8
PART_INFO
10
-4.756242
20
-2.637514
40
0.7
1
000000
71
2
41
0.75
7
W0$1
0
TEXT
8
PART_PTS
10
-4.756242
20
-3.637514
40
0.7
1
1 
71
2
41
0.75
7
W0$1
0
ENDBLK
0
BLOCK
2
SYM_BOT_4
8
0
10
0
20
0
3
SYM_BOT_4
70
64
0
TEXT
8
SYM_NAME
10
0
20
0
40
1.778
1
C-1005
41
0.75
0
TEXT
8
SYM_PART_NAME_01
10
2.15
20
0.1
40
0.7
1
 
72
1
73
1
11
2.15
21
0.1
41
0.75
7
W0$1R2
0
INSERT
2
PART_BODY_BOT_4
8
0
10
0
20
0
0
INSERT
2
STK_BOT_296
8
0
10
-0.4
20
0
0
TEXT
8
SYM_TERMINAL
10
0
20
-3.048
40
1.778
1
1
0
INSERT
2
STK_BOT_296
8
0
10
0.4
20
0
0
TEXT
8
SYM_TERMINAL
10
0
20
-6.096
40
1.778
1
2
0
ENDBLK
0
BLOCK
2
PKG_0
8
0
10
0
20
0
3
PKG_0
70
64
0
TEXT
8
PKG_INFO
10
0
20
0
40
1.778
1
*SYM:= 4
0
TEXT
8
PKG_INFO
10
0
20
-3.048
40
1.778
1
*PKG:= 0 C-1005 UND
0
TEXT
8
PKG_INFO
10
0
20
-6.096
40
1.778
1
*GATE:=0
0
TEXT
8
PKG_INFO
10
0
20
-9.144
40
1.778
1
*GATEPIN:= 0 1 1 1
0
TEXT
8
PKG_INFO
10
0
20
-12.192
40
1.778
1
*GATEPIN:= 0 1 2 2
0
ENDBLK
0
BLOCK
2
SYM_BOT_5
8
0
10
0
20
0
3
SYM_BOT_5
70
64
0
TEXT
8
SYM_NAME
10
0
20
0
40
1.778
1
CTT_1139P1
41
0.75
0
TEXT
8
SYM_PART_NAME_01
10
0
20
0
40
0.14
1
 
41
0.75
7
W0$02R0
0
TEXT
8
SYM_PART_TYPE_01
10
0
20
0
40
0.14
1
 
73
2
11
0
21
0
41
0.75
7
W0$02R0
0
INSERT
2
PART_BODY_BOT_5
8
0
10
0
20
0
0
INSERT
2
STK_BOT_303
8
0
10
-2.375
20
0.85
0
TEXT
8
SYM_TERMINAL
10
0
20
-3.048
40
1.778
1
1
0
INSERT
2
STK_BOT_303
8
0
10
2.375
20
0.85
0
TEXT
8
SYM_TERMINAL
10
0
20
-6.096
40
1.778
1
2
0
INSERT
2
STK_BOT_303
8
0
10
-2.375
20
-0.85
0
TEXT
8
SYM_TERMINAL
10
0
20
-9.144
40
1.778
1
3
0
INSERT
2
STK_BOT_303
8
0
10
2.375
20
-0.85
0
TEXT
8
SYM_TERMINAL
10
0
20
-12.192
40
1.778
1
4
0
ENDBLK
0
BLOCK
2
PKG_1
8
0
10
0
20
0
3
PKG_1
70
64
0
TEXT
8
PKG_INFO
10
0
20
0
40
1.778
1
*SYM:= 5
0
TEXT
8
PKG_INFO
10
0
20
-3.048
40
1.778
1
*PKG:= 0 CTT_1139P1 UND
0
TEXT
8
PKG_INFO
10
0
20
-6.096
40
1.778
1
*GATE:=0
0
TEXT
8
PKG_INFO
10
0
20
-9.144
40
1.778
1
*GATEPIN:= 0 9 1 <>
0
TEXT
8
PKG_INFO
10
0
20
-12.192
40
1.778
1
*GATEPIN:= 0 9 2 <>
0
TEXT
8
PKG_INFO
10
0
20
-15.24
40
1.778
1
*GATEPIN:= 0 9 3 <>
0
TEXT
8
PKG_INFO
10
0
20
-18.288
40
1.778
1
*GATEPIN:= 0 9 4 <>
0
ENDBLK
0
BLOCK
2
SYM_BOT_6
8
0
10
0
20
0
3
SYM_BOT_6
70
64
0
TEXT
8
SYM_NAME
10
0
20
0
40
1.778
1
NVMFS5C450NL
41
0.75
0
TEXT
8
SYM_PART_NAME_01
10
2.961
20
1.245
40
0.889
1
 
41
0.75
7
W0$127R0
0
TEXT
8
SYM_PART_TYPE_01
10
-1.049
20
0.893
40
0.889
1
 
73
2
11
-1.049
21
0.893
41
0.75
7
W0$127R0
0
INSERT
2
PART_BODY_BOT_6
8
0
10
0
20
0
0
INSERT
2
STK_BOT_521
8
0
10
-1.905
20
-2.795
0
TEXT
8
SYM_TERMINAL
10
0
20
-3.048
40
1.778
1
1
0
INSERT
2
STK_BOT_521
8
0
10
-0.635
20
-2.795
0
TEXT
8
SYM_TERMINAL
10
0
20
-6.096
40
1.778
1
2
0
INSERT
2
STK_BOT_521
8
0
10
0.635
20
-2.795
0
TEXT
8
SYM_TERMINAL
10
0
20
-9.144
40
1.778
1
3
0
INSERT
2
STK_BOT_521
8
0
10
1.905
20
-2.795
0
TEXT
8
SYM_TERMINAL
10
0
20
-12.192
40
1.778
1
4
0
INSERT
2
STK_BOT_521
8
0
10
1.905
20
2.7
0
TEXT
8
SYM_TERMINAL
10
0
20
-15.24
40
1.778
1
5
0
INSERT
2
STK_BOT_521
8
0
10
-1.905
20
2.7
0
TEXT
8
SYM_TERMINAL
10
0
20
-18.288
40
1.778
1
6
0
ENDBLK
0
BLOCK
2
PKG_2
8
0
10
0
20
0
3
PKG_2
70
64
0
TEXT
8
PKG_INFO
10
0
20
0
40
1.778
1
*SYM:= 6
0
TEXT
8
PKG_INFO
10
0
20
-3.048
40
1.778
1
*PKG:= 0 NVMFS5C450NL UND
0
TEXT
8
PKG_INFO
10
0
20
-6.096
40
1.778
1
*GATE:=0
0
TEXT
8
PKG_INFO
10
0
20
-9.144
40
1.778
1
*GATEPIN:= 0 9 1 S
0
TEXT
8
PKG_INFO
10
0
20
-12.192
40
1.778
1
*GATEPIN:= 0 9 2 S
0
TEXT
8
PKG_INFO
10
0
20
-15.24
40
1.778
1
*GATEPIN:= 0 9 3 S
0
TEXT
8
PKG_INFO
10
0
20
-18.288
40
1.778
1
*GATEPIN:= 0 9 4 G
0
TEXT
8
PKG_INFO
10
0
20
-21.336
40
1.778
1
*GATEPIN:= 0 9 5 D
0
TEXT
8
PKG_INFO
10
0
20
-24.384
40
1.778
1
*GATEPIN:= 0 9 6 D
0
ENDBLK
0
BLOCK
2
SYM_BOT_8
8
0
10
0
20
0
3
SYM_BOT_8
70
64
0
TEXT
8
SYM_NAME
10
0
20
0
40
1.778
1
R-1005
41
0.75
0
TEXT
8
SYM_PART_TYPE_01
10
0.01
20
0.1
40
0.28
1
 
72
1
73
1
11
0.01
21
0.1
41
0.75
7
W0$02R0
0
TEXT
8
SYM_PART_NAME_01
10
0.15
20
0.9
40
0.7
1
 
72
1
73
1
11
0.15
21
0.9
41
0.75
7
W0$1R0
0
INSERT
2
PART_BODY_BOT_8
8
0
10
0
20
0
0
INSERT
2
STK_BOT_302
8
0
10
-0.4
20
0
0
TEXT
8
SYM_TERMINAL
10
0
20
-3.048
40
1.778
1
1
0
INSERT
2
STK_BOT_302
8
0
10
0.4
20
0
0
TEXT
8
SYM_TERMINAL
10
0
20
-6.096
40
1.778
1
2
0
ENDBLK
0
BLOCK
2
PKG_4
8
0
10
0
20
0
3
PKG_4
70
64
0
TEXT
8
PKG_INFO
10
0
20
0
40
1.778
1
*SYM:= 8
0
TEXT
8
PKG_INFO
10
0
20
-3.048
40
1.778
1
*PKG:= 0 R-1005 UND
0
TEXT
8
PKG_INFO
10
0
20
-6.096
40
1.778
1
*GATE:=0
0
TEXT
8
PKG_INFO
10
0
20
-9.144
40
1.778
1
*GATEPIN:= 0 1 1 1
0
TEXT
8
PKG_INFO
10
0
20
-12.192
40
1.778
1
*GATEPIN:= 0 1 2 2
0
ENDBLK
0
BLOCK
2
SYM_BOT_11
8
0
10
0
20
0
3
SYM_BOT_11
70
64
0
TEXT
8
SYM_NAME
10
0
20
0
40
1.778
1
PAD_4X4
41
0.75
0
TEXT
8
SYM_PART_TYPE_01
10
-1.27
20
0.508
40
0.889
1
 
73
2
11
-1.27
21
0.508
41
0.75
7
W0$127R0
0
TEXT
8
SYM_PART_NAME_01
10
-1.3
20
2.5
40
0.889
1
 
41
0.75
7
W0$127R0
0
INSERT
2
PART_BODY_BOT_11
8
0
10
0
20
0
0
INSERT
2
STK_BOT_556
8
0
10
0
20
0
0
TEXT
8
SYM_TERMINAL
10
0
20
-3.048
40
1.778
1
1
0
ENDBLK
0
BLOCK
2
PKG_7
8
0
10
0
20
0
3
PKG_7
70
64
0
TEXT
8
PKG_INFO
10
0
20
0
40
1.778
1
*SYM:= 11
0
TEXT
8
PKG_INFO
10
0
20
-3.048
40
1.778
1
*PKG:= 0 PAD_4X4 POT
0
TEXT
8
PKG_INFO
10
0
20
-6.096
40
1.778
1
*GATE:=0
0
TEXT
8
PKG_INFO
10
0
20
-9.144
40
1.778
1
*GATEPIN:= 0 9 1 <>
0
ENDBLK
0
BLOCK
2
PART_BODY_BOT_4
8
0
10
0
20
0
3
PART_BODY_BOT_4
70
64
0
POLYLINE
8
PART_BOT_2DLINE_01
66
1
40
0.1
41
0.1
39
-0.55
0
VERTEX
8
PART_BOT_2DLINE_01
10
-0.2
20
0.4
0
VERTEX
8
PART_BOT_2DLINE_01
10
-0.8
20
0.4
0
VERTEX
8
PART_BOT_2DLINE_01
10
-0.8
20
-0.4
0
VERTEX
8
PART_BOT_2DLINE_01
10
-0.2
20
-0.4
0
SEQEND
0
INSERT
2
SMOOTH_0$1
8
PART_BOT_2DLINE_01
10
-0.2
20
0.4
0
INSERT
2
SMOOTH_0$1
8
PART_BOT_2DLINE_01
10
-0.8
20
0.4
0
INSERT
2
SMOOTH_0$1
8
PART_BOT_2DLINE_01
10
-0.8
20
-0.4
0
INSERT
2
SMOOTH_0$1
8
PART_BOT_2DLINE_01
10
-0.2
20
-0.4
0
POLYLINE
8
PART_BOT_2DLINE_01
66
1
40
0.1
41
0.1
39
-0.55
0
VERTEX
8
PART_BOT_2DLINE_01
10
0.2
20
0.4
0
VERTEX
8
PART_BOT_2DLINE_01
10
0.8
20
0.4
0
VERTEX
8
PART_BOT_2DLINE_01
10
0.8
20
-0.4
0
VERTEX
8
PART_BOT_2DLINE_01
10
0.2
20
-0.4
0
SEQEND
0
INSERT
2
SMOOTH_0$1
8
PART_BOT_2DLINE_01
10
0.2
20
0.4
0
INSERT
2
SMOOTH_0$1
8
PART_BOT_2DLINE_01
10
0.8
20
0.4
0
INSERT
2
SMOOTH_0$1
8
PART_BOT_2DLINE_01
10
0.8
20
-0.4
0
INSERT
2
SMOOTH_0$1
8
PART_BOT_2DLINE_01
10
0.2
20
-0.4
0
POLYLINE
8
PART_BOT_2DLINE_115
66
1
40
0.1
41
0.1
39
-0.55
70
1
0
VERTEX
8
PART_BOT_2DLINE_115
10
-0.5
20
0.25
0
VERTEX
8
PART_BOT_2DLINE_115
10
0.5
20
0.25
0
VERTEX
8
PART_BOT_2DLINE_115
10
0.5
20
-0.25
0
VERTEX
8
PART_BOT_2DLINE_115
10
-0.5
20
-0.25
0
SEQEND
0
INSERT
2
SMOOTH_0$1
8
PART_BOT_2DLINE_115
10
-0.5
20
0.25
0
INSERT
2
SMOOTH_0$1
8
PART_BOT_2DLINE_115
10
0.5
20
0.25
0
INSERT
2
SMOOTH_0$1
8
PART_BOT_2DLINE_115
10
0.5
20
-0.25
0
INSERT
2
SMOOTH_0$1
8
PART_BOT_2DLINE_115
10
-0.5
20
-0.25
0
ENDBLK
0
BLOCK
2
STK_BOT_296
8
0
10
0
20
0
3
STK_BOT_296
70
64
0
INSERT
2
DRIL_HOLE_0
8
DRIL_NPLTE_THRU_01
10
0
20
0
0
INSERT
2
DRIL_HOLE_0
8
DRIL_NPLTE_THRU_02
10
0
20
0
0
INSERT
2
PAD_0
8
PADS_INNER
10
0
20
0
0
INSERT
2
PAD_1
8
PADS_BOT
10
0
20
0
0
INSERT
2
PAD_0
8
PADS_TOP
10
0
20
0
0
ENDBLK
0
BLOCK
2
PART_BODY_BOT_5
8
0
10
0
20
0
3
PART_BODY_BOT_5
70
64
0
POLYLINE
8
PART_BOT_2DLINE_00
66
1
40
0.1
41
0.1
39
-1.6
70
1
0
VERTEX
8
PART_BOT_2DLINE_00
10
-2.35
20
-1.75
0
VERTEX
8
PART_BOT_2DLINE_00
10
2.35
20
-1.75
0
VERTEX
8
PART_BOT_2DLINE_00
10
2.35
20
1.75
0
VERTEX
8
PART_BOT_2DLINE_00
10
-2.35
20
1.75
0
SEQEND
0
INSERT
2
SMOOTH_0$1
8
PART_BOT_2DLINE_00
10
-2.35
20
-1.75
0
INSERT
2
SMOOTH_0$1
8
PART_BOT_2DLINE_00
10
2.35
20
-1.75
0
INSERT
2
SMOOTH_0$1
8
PART_BOT_2DLINE_00
10
2.35
20
1.75
0
INSERT
2
SMOOTH_0$1
8
PART_BOT_2DLINE_00
10
-2.35
20
1.75
0
POLYLINE
8
PART_BOT_2DLINE_00
66
1
40
0.1
41
0.1
39
-1.6
70
1
0
VERTEX
8
PART_BOT_2DLINE_00
10
-1.3
20
2.75
0
VERTEX
8
PART_BOT_2DLINE_00
10
1.3
20
2.75
0
VERTEX
8
PART_BOT_2DLINE_00
10
1.3
20
1.75
0
VERTEX
8
PART_BOT_2DLINE_00
10
-1.3
20
1.75
0
SEQEND
0
INSERT
2
SMOOTH_0$1
8
PART_BOT_2DLINE_00
10
-1.3
20
2.75
0
INSERT
2
SMOOTH_0$1
8
PART_BOT_2DLINE_00
10
1.3
20
2.75
0
INSERT
2
SMOOTH_0$1
8
PART_BOT_2DLINE_00
10
1.3
20
1.75
0
INSERT
2
SMOOTH_0$1
8
PART_BOT_2DLINE_00
10
-1.3
20
1.75
0
ENDBLK
0
BLOCK
2
STK_BOT_303
8
0
10
0
20
0
3
STK_BOT_303
70
64
0
INSERT
2
DRIL_HOLE_0
8
DRIL_NPLTE_THRU_01
10
0
20
0
0
INSERT
2
DRIL_HOLE_0
8
DRIL_NPLTE_THRU_02
10
0
20
0
0
INSERT
2
PAD_0
8
PADS_INNER
10
0
20
0
0
INSERT
2
PAD_2
8
PADS_BOT
10
0
20
0
0
INSERT
2
PAD_0
8
PADS_TOP
10
0
20
0
0
ENDBLK
0
BLOCK
2
PART_BODY_BOT_6
8
0
10
0
20
0
3
PART_BODY_BOT_6
70
64
0
POLYLINE
8
PART_BOT_COPPER_01
6
TRMIDX_4
66
1
40
0.1
41
0.1
39
-2.38
70
1
0
VERTEX
8
PART_BOT_COPPER_01
10
-2.28
20
-1.33
0
VERTEX
8
PART_BOT_COPPER_01
10
2.28
20
-1.33
0
VERTEX
8
PART_BOT_COPPER_01
10
2.28
20
2.7
0
VERTEX
8
PART_BOT_COPPER_01
10
-2.28
20
2.7
0
SEQEND
0
INSERT
2
SMOOTH_0$1
8
PART_BOT_COPPER_01
10
-2.28
20
-1.33
0
INSERT
2
SMOOTH_0$1
8
PART_BOT_COPPER_01
10
2.28
20
-1.33
0
INSERT
2
SMOOTH_0$1
8
PART_BOT_COPPER_01
10
2.28
20
2.7
0
INSERT
2
SMOOTH_0$1
8
PART_BOT_COPPER_01
10
-2.28
20
2.7
0
POLYLINE
8
PART_BOT_COPPER_01
6
TRMIDX_4
66
1
40
0.1
41
0.1
39
-2.38
70
1
0
VERTEX
8
PART_BOT_COPPER_01
10
-2.775
20
-0.905
0
VERTEX
8
PART_BOT_COPPER_01
10
2.775
20
-0.905
0
VERTEX
8
PART_BOT_COPPER_01
10
2.775
20
0
0
VERTEX
8
PART_BOT_COPPER_01
10
-2.775
20
0
0
SEQEND
0
INSERT
2
SMOOTH_0$1
8
PART_BOT_COPPER_01
10
-2.775
20
-0.905
0
INSERT
2
SMOOTH_0$1
8
PART_BOT_COPPER_01
10
2.775
20
-0.905
0
INSERT
2
SMOOTH_0$1
8
PART_BOT_COPPER_01
10
2.775
20
0
0
INSERT
2
SMOOTH_0$1
8
PART_BOT_COPPER_01
10
-2.775
20
0
0
POLYLINE
8
PART_BOT_2DLINE_00
66
1
40
0.1
41
0.1
39
-2.38
70
1
0
VERTEX
8
PART_BOT_2DLINE_00
10
-2.553
20
-3.095
0
VERTEX
8
PART_BOT_2DLINE_00
10
2.547
20
-3.095
0
VERTEX
8
PART_BOT_2DLINE_00
10
2.547
20
3.005
0
VERTEX
8
PART_BOT_2DLINE_00
10
-2.553
20
3.005
0
SEQEND
0
INSERT
2
SMOOTH_0$1
8
PART_BOT_2DLINE_00
10
-2.553
20
-3.095
0
INSERT
2
SMOOTH_0$1
8
PART_BOT_2DLINE_00
10
2.547
20
-3.095
0
INSERT
2
SMOOTH_0$1
8
PART_BOT_2DLINE_00
10
2.547
20
3.005
0
INSERT
2
SMOOTH_0$1
8
PART_BOT_2DLINE_00
10
-2.553
20
3.005
0
ENDBLK
0
BLOCK
2
STK_BOT_521
8
0
10
0
20
0
3
STK_BOT_521
70
64
0
INSERT
2
DRIL_HOLE_0
8
DRIL_PLTE_THRU_01
10
0
20
0
0
INSERT
2
DRIL_HOLE_0
8
DRIL_PLTE_THRU_02
10
0
20
0
0
INSERT
2
PAD_0
8
PADS_INNER
10
0
20
0
0
INSERT
2
PAD_3
8
PADS_BOT
10
0
20
0
50
90
0
INSERT
2
PAD_0
8
PADS_TOP
10
0
20
0
0
ENDBLK
0
BLOCK
2
PART_BODY_BOT_8
8
0
10
0
20
0
3
PART_BODY_BOT_8
70
64
0
POLYLINE
8
PART_BOT_2DLINE_01
66
1
40
0.1
41
0.1
39
-0.4
70
1
0
VERTEX
8
PART_BOT_2DLINE_01
10
-0.8
20
0.4
0
VERTEX
8
PART_BOT_2DLINE_01
10
0.8
20
0.4
0
VERTEX
8
PART_BOT_2DLINE_01
10
0.8
20
-0.4
0
VERTEX
8
PART_BOT_2DLINE_01
10
-0.8
20
-0.4
0
SEQEND
0
INSERT
2
SMOOTH_0$1
8
PART_BOT_2DLINE_01
10
-0.8
20
0.4
0
INSERT
2
SMOOTH_0$1
8
PART_BOT_2DLINE_01
10
0.8
20
0.4
0
INSERT
2
SMOOTH_0$1
8
PART_BOT_2DLINE_01
10
0.8
20
-0.4
0
INSERT
2
SMOOTH_0$1
8
PART_BOT_2DLINE_01
10
-0.8
20
-0.4
0
POLYLINE
8
PART_BOT_2DLINE_127
66
1
40
0.1
41
0.1
39
-0.4
70
1
0
VERTEX
8
PART_BOT_2DLINE_127
10
-0.675
20
0.275
0
VERTEX
8
PART_BOT_2DLINE_127
10
0.675
20
0.275
0
VERTEX
8
PART_BOT_2DLINE_127
10
0.675
20
-0.275
0
VERTEX
8
PART_BOT_2DLINE_127
10
-0.675
20
-0.275
0
SEQEND
0
INSERT
2
SMOOTH_0$1
8
PART_BOT_2DLINE_127
10
-0.675
20
0.275
0
INSERT
2
SMOOTH_0$1
8
PART_BOT_2DLINE_127
10
0.675
20
0.275
0
INSERT
2
SMOOTH_0$1
8
PART_BOT_2DLINE_127
10
0.675
20
-0.275
0
INSERT
2
SMOOTH_0$1
8
PART_BOT_2DLINE_127
10
-0.675
20
-0.275
0
POLYLINE
8
PART_BOT_2DLINE_115
66
1
40
0.1
41
0.1
39
-0.4
70
1
0
VERTEX
8
PART_BOT_2DLINE_115
10
-0.5
20
-0.25
0
VERTEX
8
PART_BOT_2DLINE_115
10
0.5
20
-0.25
0
VERTEX
8
PART_BOT_2DLINE_115
10
0.5
20
0.25
0
VERTEX
8
PART_BOT_2DLINE_115
10
-0.5
20
0.25
0
SEQEND
0
INSERT
2
SMOOTH_0$1
8
PART_BOT_2DLINE_115
10
-0.5
20
-0.25
0
INSERT
2
SMOOTH_0$1
8
PART_BOT_2DLINE_115
10
0.5
20
-0.25
0
INSERT
2
SMOOTH_0$1
8
PART_BOT_2DLINE_115
10
0.5
20
0.25
0
INSERT
2
SMOOTH_0$1
8
PART_BOT_2DLINE_115
10
-0.5
20
0.25
0
ENDBLK
0
BLOCK
2
STK_BOT_302
8
0
10
0
20
0
3
STK_BOT_302
70
64
0
INSERT
2
DRIL_HOLE_0
8
DRIL_NPLTE_THRU_01
10
0
20
0
0
INSERT
2
DRIL_HOLE_0
8
DRIL_NPLTE_THRU_02
10
0
20
0
0
INSERT
2
PAD_1
8
PADS_XR_123
10
0
20
0
0
INSERT
2
PAD_0
8
PADS_INNER
10
0
20
0
0
INSERT
2
PAD_1
8
PADS_BOT
10
0
20
0
0
INSERT
2
PAD_0
8
PADS_TOP
10
0
20
0
0
ENDBLK
0
BLOCK
2
PART_BODY_BOT_11
8
0
10
0
20
0
3
PART_BODY_BOT_11
70
64
0
POLYLINE
8
PART_BOT_2DLINE_00
66
1
40
0.15
41
0.15
70
1
0
VERTEX
8
PART_BOT_2DLINE_00
10
-2.1
20
2.1
0
VERTEX
8
PART_BOT_2DLINE_00
10
2.1
20
2.1
0
VERTEX
8
PART_BOT_2DLINE_00
10
2.1
20
-2.1
0
VERTEX
8
PART_BOT_2DLINE_00
10
-2.1
20
-2.1
0
SEQEND
0
INSERT
2
SMOOTH_0$15
8
PART_BOT_2DLINE_00
10
-2.1
20
2.1
0
INSERT
2
SMOOTH_0$15
8
PART_BOT_2DLINE_00
10
2.1
20
2.1
0
INSERT
2
SMOOTH_0$15
8
PART_BOT_2DLINE_00
10
2.1
20
-2.1
0
INSERT
2
SMOOTH_0$15
8
PART_BOT_2DLINE_00
10
-2.1
20
-2.1
0
ENDBLK
0
BLOCK
2
STK_BOT_556
8
0
10
0
20
0
3
STK_BOT_556
70
64
0
INSERT
2
DRIL_HOLE_0
8
DRIL_PLTE_THRU_01
10
0
20
0
0
INSERT
2
DRIL_HOLE_0
8
DRIL_PLTE_THRU_02
10
0
20
0
0
INSERT
2
PAD_0
8
PADS_INNER
10
0
20
0
0
INSERT
2
PAD_4
8
PADS_BOT
10
0
20
0
0
INSERT
2
PAD_0
8
PADS_TOP
10
0
20
0
0
ENDBLK
999
*** POWERPCB  PCB PARAMETER ***
0
BLOCK
2
PCB_PARAMS
8
0
10
0
20
0
3
PCB_PARAMS
70
64
999
 *  1.Job name           2.Backupfile name       3.CursorType
999
 *  4.TearDropFlag       5.HighlighNetsFlag      6.HatchDisplayFlag
999
 *  7.PadsFlag           8.TracksFlag            9.ViasFlag
999
 * 10.CopperFlag        11.LinesFlag            12.TextFlag
999
 * 13.TopComponentFlag  14.BottomComponentFlag  16.ObjectSnapFlags
0
TEXT
8
PCB_PARAMS
10
0
20
-3.048
40
1.778
1
A:=Plasma_Gen_Transformer_SCH_V2.0_20180324.pcb <> 3 0 1 1 1 0 0 0 1 1 1 1 32 508 0
999
 *  1.RefDesHeight       2.RefDesWidth           3.DefaultWidth
999
 *  4.VGX                5.VGY                   6.OVR
999
 *  7.HatchGrid          8.ObjectSnapRadius
0
TEXT
8
PCB_PARAMS
10
0
20
-6.096
40
1.778
1
B:=2.54 0.254 0.1 0.1 0.1 0 0.09 1
999
 *  1.ScaleFactor        2.NetAttributeFlags     3.BackupInterval
999
 *  4.WorkingLevel       5.HatchMode             6.HatchDirection
999
 *  7.ConnectionColor    8.BackgroundColor       9.ForegroundColor
999
 * 10.BoardOutlineColor
0
TEXT
8
PCB_PARAMS
10
0
20
-9.144
40
1.778
1
C:=10.2001848221 10002 20 0 0 0 0 0 8 8
999
 * MitreAngle0 - MitreAngle6
0
TEXT
8
PCB_PARAMS
10
0
20
-12.192
40
1.778
1
D:=324000000 324000000 324000000 324000000 324000000 324000000 162000000
999
 * Hatch & Keepout Parameters
0
TEXT
8
PCB_PARAMS
10
0
20
-15.24
40
1.778
1
E:=0.5 0 0 2 0 1
999
 * Fanout Parameters
0
TEXT
8
PCB_PARAMS
10
0
20
-18.288
40
1.778
1
F:=0.1 0.1 6.35 1 2 0 1 1 0 0 1 1 1 1
999
 * Pad Entry Parameters
0
TEXT
8
PCB_PARAMS
10
0
20
-21.336
40
1.778
1
P:= 1 1 1 1
999
 * DFF Parameters
0
TEXT
8
PCB_PARAMS
10
0
20
-24.384
40
1.778
1
Q:=89.9999 3967 114300 114300 114300 5 4 114300 114300 114300 114300 1 114300 1 114300 1 114300 0
0
ENDBLK
0
BLOCK
2
DRIL_SYMBOL_0
8
0
10
0
20
0
3
DRIL_SYMBOL_0
70
64
0
ENDBLK
999
*** POWERPCB  SMOOTH CIRCLE ***
0
BLOCK
2
SMOOTH_0$1
8
0
10
0
20
0
3
SMOOTH_0$1
70
64
0
POLYLINE
8
0
66
1
40
0.05
41
0.05
70
1
0
VERTEX
8
0
10
-0.025
20
0
42
1
0
VERTEX
8
0
10
0.025
20
0
42
1
0
SEQEND
0
ENDBLK
0
BLOCK
2
SMOOTH_0$15
8
0
10
0
20
0
3
SMOOTH_0$15
70
64
0
POLYLINE
8
0
66
1
40
0.075
41
0.075
70
1
0
VERTEX
8
0
10
-0.0375
20
0
42
1
0
VERTEX
8
0
10
0.0375
20
0
42
1
0
SEQEND
0
ENDBLK
0
BLOCK
2
PAD_0
8
0
10
0
20
0
3
PAD_0
70
64
0
POLYLINE
8
0
70
1
66
1
0
VERTEX
8
0
10
0
20
0
42
1
0
VERTEX
8
0
10
0
20
0
42
1
0
SEQEND
0
ENDBLK
0
BLOCK
2
PAD_1
8
0
10
0
20
0
3
PAD_1
70
64
0
POLYLINE
8
0
66
1
40
0.5
41
0.5
0
VERTEX
8
0
10
-0.25
20
0
0
VERTEX
8
0
10
0.25
20
0
0
SEQEND
0
ENDBLK
0
BLOCK
2
PAD_2
8
0
10
0
20
0
3
PAD_2
70
64
0
POLYLINE
8
0
66
1
40
1.2
41
1.2
0
VERTEX
8
0
10
-1.125
20
0
0
VERTEX
8
0
10
1.125
20
0
0
SEQEND
0
ENDBLK
0
BLOCK
2
PAD_3
8
0
10
0
20
0
3
PAD_3
70
64
0
POLYLINE
8
0
66
1
40
0.75
41
0.75
0
VERTEX
8
0
10
-0.5
20
0
0
VERTEX
8
0
10
0.5
20
0
0
SEQEND
0
ENDBLK
0
BLOCK
2
PAD_4
8
0
10
0
20
0
3
PAD_4
70
64
0
POLYLINE
8
0
66
1
40
4
41
4
0
VERTEX
8
0
10
-2
20
0
0
VERTEX
8
0
10
2
20
0
0
SEQEND
0
ENDBLK
999
*** POWERPCB  DRILL HOLE ***
0
BLOCK
2
DRIL_HOLE_0
8
0
10
0
20
0
3
DRIL_HOLE_0
70
64
0
POLYLINE
8
0
66
1
70
1
0
VERTEX
8
0
10
0
20
0
42
1
0
VERTEX
8
0
10
0
20
0
42
1
0
SEQEND
0
INSERT
2
DRIL_SYMBOL_0
8
0
10
0
20
0
0
ENDBLK
0
ENDSEC
0
SECTION
2
ENTITIES
999
*** POWERPCB  DBLAYER ***
0
INSERT
2
DBLAYERS
8
0
10
0
20
0
999
*** POWERPCB  BOARD ***
0
INSERT
2
BOARD_3
8
0
10
0
20
0
999
*** POWERPCB  2DLINE ***
999
*** POWERPCB  FREE TEXT ***
999
*** POWERPCB  COMPONENT ***
0
INSERT
2
PART_BOT_1
8
0
10
16.52
20
46.5
41
-1
0
INSERT
2
PART_BOT_2
8
0
10
11.5
20
50.2
41
-1
0
INSERT
2
PART_BOT_3
8
0
10
17.2
20
37.5
50
-180
41
-1
0
INSERT
2
PART_BOT_4
8
0
10
6.1
20
37.5
50
-180
41
-1
0
INSERT
2
PART_BOT_6
8
0
10
7.59
20
42.6
50
-180
41
-1
0
INSERT
2
PART_BOT_7
8
0
10
18.7
20
42.6
50
-180
41
-1
0
INSERT
2
PART_BOT_9
8
0
10
18.55
20
2.31
41
-1
0
INSERT
2
PART_BOT_10
8
0
10
4.45
20
2.34
41
-1
999
*** POWERPCB  PCB PARAMETER ***
0
INSERT
2
PCB_PARAMS
8
0
10
0
20
0
0
ENDSEC
0
EOF
