*
*
G04 PADS 9.5 Build Number: 522968 generated Gerber (RS-274-X) file*
G04 PC Version=2.1*
*
%IN "MPD-MAIN_PCB_V1.0_20190"*%
*
%MOIN*%
*
%FSLAX35Y35*%
*
*
*
*
G04 PC Standard Apertures*
*
*
G04 Thermal Relief Aperture macro.*
%AMTER*
1,1,$1,0,0*
1,0,$1-$2,0,0*
21,0,$3,$4,0,0,45*
21,0,$3,$4,0,0,135*
%
*
*
G04 Annular Aperture macro.*
%AMANN*
1,1,$1,0,0*
1,0,$2,0,0*
%
*
*
G04 Odd Aperture macro.*
%AMODD*
1,1,$1,0,0*
1,0,$1-0.005,0,0*
%
*
*
G04 PC Custom Aperture Macros*
*
*
*
*
*
*
G04 PC Aperture Table*
*
%ADD010C,0.001*%
%ADD013C,0.07874*%
%ADD018R,0.05906X0.05906*%
%ADD019C,0.06*%
%ADD023O,0.17717X0.07874*%
%ADD024O,0.16535X0.07874*%
%ADD025O,0.07874X0.16535*%
%ADD033C,0.015*%
%ADD037C,0.01*%
%ADD042C,0.02953*%
%ADD043C,0.04724*%
%ADD085C,0.00004*%
*
*
*
*
G04 PC Circuitry*
G04 Layer Name MPD-MAIN_PCB_V1.0_20190 - circuitry*
%LPD*%
*
*
G04 PC Custom Flashes*
G04 Layer Name MPD-MAIN_PCB_V1.0_20190 - flashes*
%LPD*%
*
*
G04 PC Circuitry*
G04 Layer Name MPD-MAIN_PCB_V1.0_20190 - circuitry*
%LPD*%
*
G54D10*
G01X273396Y395315D02*
G75*
G03X273396I-4134J0D01*
G01Y202402D02*
G03X273396I-4134J0D01*
G01X115915Y395315D02*
G03X115915I-4133J0D01*
G01Y202402D02*
G03X115915I-4133J0D01*
G54D13*
G01X111782Y395315D03*
X269262D03*
X111782Y202402D03*
X269262D03*
G54D18*
X241732Y387402D03*
X161024D03*
X100000Y281102D03*
X265354Y228937D03*
X100000Y351969D03*
X265354Y268307D03*
Y308661D03*
G54D19*
X231890Y387402D03*
X222047D03*
X212205D03*
X202362D03*
X192520D03*
X151181D03*
X141339D03*
X100000Y271260D03*
Y261417D03*
Y251575D03*
Y241732D03*
Y231890D03*
X265354Y238780D03*
X100000Y342126D03*
Y332283D03*
Y322441D03*
Y312598D03*
X265354Y278150D03*
Y318504D03*
Y328346D03*
Y338189D03*
G54D23*
X121654Y139764D03*
G54D24*
Y116142D03*
G54D25*
X140157Y127953D03*
G54D33*
X262044Y341499D02*
X263233Y340310D01*
X262044Y334879D02*
X263233Y336068D01*
X268664Y334879D02*
X267476Y336068D01*
X268664Y341499D02*
X267476Y340310D01*
X262044Y281460D02*
X263233Y280271D01*
X262044Y274840D02*
X263233Y276028D01*
X268664Y274840D02*
X267476Y276028D01*
X268664Y281460D02*
X267476Y280271D01*
X103310Y309288D02*
X102121Y310477D01*
X103310Y315908D02*
X102121Y314720D01*
X96690Y315908D02*
X97879Y314720D01*
X96690Y309288D02*
X97879Y310477D01*
X103310Y228580D02*
X102121Y229768D01*
X103310Y235200D02*
X102121Y234011D01*
X96690Y235200D02*
X97879Y234011D01*
X96690Y228580D02*
X97879Y229768D01*
X103310Y248265D02*
X102121Y249453D01*
X103310Y254885D02*
X102121Y253696D01*
X96690Y254885D02*
X97879Y253696D01*
X96690Y248265D02*
X97879Y249453D01*
X138029Y384092D02*
X139217Y385280D01*
X144649Y384092D02*
X143460Y385280D01*
X144649Y390712D02*
X143460Y389523D01*
X138029Y390712D02*
X139217Y389523D01*
X136185Y136256D02*
X137374Y135067D01*
X144130Y136256D02*
X142941Y135067D01*
X144130Y119649D02*
X142941Y120838D01*
X136185Y119649D02*
X137374Y120838D01*
X113350Y112169D02*
X114539Y113358D01*
X113350Y120114D02*
X114539Y118926D01*
X129957Y120114D02*
X128768Y118926D01*
X129957Y112169D02*
X128768Y113358D01*
G54D37*
X277636Y202402D02*
G03X277636I-8374J0D01*
G01Y395315D02*
G03X277636I-8374J0D01*
G01X259850Y381890D02*
G03X259850I-3157J0D01*
G01X240953Y211811D02*
G03X240953I-3158J0D01*
G01X240165Y233858D02*
G03X240165I-3157J0D01*
G01X245677Y269291D02*
G03X245677I-3157J0D01*
G01X238591Y254331D02*
G03X238591I-3158J0D01*
G01X226878Y225984D02*
G03X226878I-4043J0D01*
G01X172055Y258268D02*
G03X172055I-3157J0D01*
G01X165362Y234646D02*
G03X165362I-3157J0D01*
G01X120156Y202402D02*
G03X120156I-8374J0D01*
G01X125992Y225197D02*
G03X125992I-3157J0D01*
G01X131504Y360630D02*
G03X131504I-3158J0D01*
G01X135441Y370079D02*
G03X135441I-3158J0D01*
G01X120156Y395315D02*
G03X120156I-8374J0D01*
G01X148827Y188189D02*
G03X148827I-3158J0D01*
G01X150402Y248425D02*
G03X150402I-3158J0D01*
G01X154339Y314173D02*
G03X154339I-3158J0D01*
G01X147252Y262205D02*
G03X147252I-3158J0D01*
G01X220480Y276378D02*
G03X220480I-3157J0D01*
G01X211819Y202362D02*
G03X211819I-3158J0D01*
G01X207882Y225197D02*
G03X207882I-3158J0D01*
G01X220480Y336220D02*
G03X220480I-3157J0D01*
G01X189772Y234646D02*
G03X189772I-3158J0D01*
G01X190953Y253543D02*
G03X190953I-3158J0D01*
G01X196071Y280315D02*
G03X196071I-3158J0D01*
G01X195283Y299213D02*
G03X195283I-3157J0D01*
G01X200795Y307874D02*
G03X200795I-3157J0D01*
G01X279421Y194488D02*
Y403150D01*
G03X277165Y405405I-2256J-0*
G01X103937*
G03X101681Y403150I0J-2255*
G01Y371654*
X96063Y366035D02*
G03X101681Y371654I-0J5619D01*
G01X96063Y366035D02*
X84252D01*
G03X81996Y363780I-0J-2255*
G01Y218110*
G03X84252Y215854I2256J0*
G01X96063*
X101681Y210236D02*
G03X96063Y215854I-5618J0D01*
G01X101681Y210236D02*
Y103937D01*
G03X103937Y101681I2256J0*
G01X143307*
G03X145563Y103937I0J2256*
G01Y119966*
G03X144662Y120265I-500J-0*
G01X134539Y123622D02*
G03X144662Y120265I5618J0D01*
G01X134539Y123622D02*
Y132283D01*
X144662Y135641D02*
G03X134539Y132283I-4505J-3358D01*
G01X144662Y135641D02*
G03X145563Y135940I401J299D01*
G01Y172835*
X164961Y192232D02*
G03X145563Y172835I-0J-19397D01*
G01X164961Y192232D02*
X277165D01*
G03X279421Y194488I0J2256*
G01X277636Y202402D02*
G03X277636I-8374J0D01*
G01X267307Y234525D02*
G03X263401I-1953J4255D01*
G01X267307D02*
G03X267516Y233571I209J-454D01*
G01X268307*
X269988Y231890D02*
G03X268307Y233571I-1681J-0D01*
G01X269988Y231890D02*
Y225984D01*
X268307Y224303D02*
G03X269988Y225984I0J1681D01*
G01X268307Y224303D02*
X262402D01*
X260720Y225984D02*
G03X262402Y224303I1682J0D01*
G01X260720Y225984D02*
Y231890D01*
X262402Y233571D02*
G03X260720Y231890I-0J-1681D01*
G01X262402Y233571D02*
X263193D01*
G03X263401Y234525I-0J500*
G01X267307Y273895D02*
G03X263401I-1953J4255D01*
G01X267307D02*
G03X267516Y272941I209J-454D01*
G01X268307*
X269988Y271260D02*
G03X268307Y272941I-1681J-0D01*
G01X269988Y271260D02*
Y265354D01*
X268307Y263673D02*
G03X269988Y265354I0J1681D01*
G01X268307Y263673D02*
X262402D01*
X260720Y265354D02*
G03X262402Y263673I1682J0D01*
G01X260720Y265354D02*
Y271260D01*
X262402Y272941D02*
G03X260720Y271260I-0J-1681D01*
G01X262402Y272941D02*
X263193D01*
G03X263401Y273895I-0J500*
G01X266818Y333743D02*
G03X263890I-1464J4446D01*
G01X266818D02*
G03Y332793I157J-475D01*
G01Y323900D02*
G03Y332793I-1464J4446D01*
G01Y323900D02*
G03Y322950I157J-475D01*
G01X267307Y314250D02*
G03X266818Y322950I-1953J4254D01*
G01X267307Y314250D02*
G03X267516Y313295I209J-455D01*
G01X268307*
X269988Y311614D02*
G03X268307Y313295I-1681J0D01*
G01X269988Y311614D02*
Y305709D01*
X268307Y304028D02*
G03X269988Y305709I0J1681D01*
G01X268307Y304028D02*
X262402D01*
X260720Y305709D02*
G03X262402Y304028I1682J-0D01*
G01X260720Y305709D02*
Y311614D01*
X262402Y313295D02*
G03X260720Y311614I-0J-1681D01*
G01X262402Y313295D02*
X263193D01*
G03X263401Y314250I-0J500*
G01X263890Y322950D02*
G03X263401Y314250I1464J-4446D01*
G01X263890Y322950D02*
G03Y323900I-156J475D01*
G01Y332793D02*
G03Y323900I1464J-4447D01*
G01Y332793D02*
G03Y333743I-156J475D01*
G01X277636Y395315D02*
G03X277636I-8374J0D01*
G01X250397Y243577D02*
G03X253970Y246436I3146J-270D01*
G01X250397Y243577D02*
G03X249967Y244116I-498J43D01*
G01X253540Y246974D02*
G03X249967Y244116I-3146J270D01*
G01X253540Y246974D02*
G03X253970Y246436I498J-43D01*
G01X259850Y381890D02*
G03X259850I-3157J0D01*
G01X240953Y211811D02*
G03X240953I-3158J0D01*
G01X240165Y233858D02*
G03X240165I-3157J0D01*
G01X245677Y269291D02*
G03X245677I-3157J0D01*
G01X238591Y254331D02*
G03X238591I-3158J0D01*
G01X226878Y225984D02*
G03X226878I-4043J0D01*
G01X223085Y244667D02*
G03X218211Y246422I-1825J2577D01*
G01X223085Y244667D02*
G03X222891Y244129I289J-408D01*
G01X218018Y245884D02*
G03X222891Y244129I1825J-2577D01*
G01X218017Y245884D02*
G03X218211Y246422I-288J408D01*
G01X230198Y291180D02*
G03X224920I-2639J1733D01*
G01X230198D02*
G03Y290631I418J-274D01*
G01X224920D02*
G03X230198I2639J-1733D01*
G01X224920D02*
G03Y291180I-418J275D01*
G01X234243Y314609D02*
G03X239133Y318121I3001J982D01*
G01X234243Y314609D02*
G03X233780Y314954I-475J-155D01*
G01X233447Y321241D02*
G03X233780Y314954I411J-3131D01*
G01X233447Y321241D02*
G03X233877Y321671I-65J496D01*
G01X239101Y318896D02*
G03X233877Y321671I-2093J2364D01*
G01X239101Y318896D02*
G03X239133Y318121I331J-375D01*
G01X246500Y333939D02*
G03X244589Y338717I744J3069D01*
G01X246500Y333939D02*
G03X245962Y333724I-118J-486D01*
G01X240652D02*
G03X245962I2655J1709D01*
G01X240652D02*
G03X240114Y333939I-420J-271D01*
G01X238308Y334034D02*
G03X240114Y333939I1062J2974D01*
G01X238308Y334034D02*
G03X237662Y333712I-169J-470D01*
G01X235708Y337619D02*
G03X237662Y333712I-1062J-2973D01*
G01X235708Y337619D02*
G03X236354Y337942I168J471D01*
G01X242025Y338717D02*
G03X236354Y337942I-2655J-1709D01*
G01X242025Y338717D02*
G03X242563Y338502I420J271D01*
G01X244051D02*
G03X242563I-744J-3069D01*
G01X244051D02*
G03X244589Y338717I118J486D01*
G01X246366Y390354D02*
Y384449D01*
X244685Y382768D02*
G03X246366Y384449I0J1681D01*
G01X244685Y382768D02*
X238780D01*
X237098Y384449D02*
G03X238780Y382768I1682J-0D01*
G01X237098Y384449D02*
Y385240D01*
G03X236144Y385449I-500J-0*
G01X227443Y385938D02*
G03X236144Y385449I4447J1464D01*
G01X227443Y385938D02*
G03X226494I-474J-157D01*
G01X217601D02*
G03X226494I4446J1464D01*
G01X217601D02*
G03X216651I-475J-157D01*
G01X207758D02*
G03X216651I4447J1464D01*
G01X207758D02*
G03X206809I-475J-157D01*
G01X197916D02*
G03X206809I4446J1464D01*
G01X197916D02*
G03X196966I-475J-157D01*
G01Y388865D02*
G03Y385938I-4446J-1463D01*
G01Y388865D02*
G03X197916I475J157D01*
G01X206809D02*
G03X197916I-4447J-1463D01*
G01X206809D02*
G03X207758I474J157D01*
G01X216651D02*
G03X207758I-4446J-1463D01*
G01X216651D02*
G03X217601I475J157D01*
G01X226494D02*
G03X217601I-4447J-1463D01*
G01X226494D02*
G03X227443I475J157D01*
G01X236144Y389355D02*
G03X227443Y388865I-4254J-1953D01*
G01X236144Y389355D02*
G03X237098Y389563I454J208D01*
G01Y390354*
X238780Y392035D02*
G03X237098Y390354I-0J-1681D01*
G01X238780Y392035D02*
X244685D01*
X246366Y390354D02*
G03X244685Y392035I-1681J0D01*
G01X177948Y326862D02*
G03X176383I-783J3059D01*
G01X177948D02*
G03Y325894I124J-484D01*
G01X176383D02*
G03X177948I782J-3059D01*
G01X176383D02*
G03Y326862I-124J484D01*
G01X178001Y349142D02*
G03X173180I-2410J2039D01*
G01X178001D02*
G03Y348496I382J-323D01*
G01Y344417D02*
G03Y348496I-2410J2040D01*
G01Y344417D02*
G03Y343772I382J-323D01*
G01X173180D02*
G03X178001I2411J-2040D01*
G01X173180D02*
G03Y344417I-382J322D01*
G01Y348496D02*
G03Y344417I2411J-2039D01*
G01Y348496D02*
G03Y349142I-382J323D01*
G01X172055Y258268D02*
G03X172055I-3157J0D01*
G01X165362Y234646D02*
G03X165362I-3157J0D01*
G01X159224Y292910D02*
G03X154162I-2531J3153D01*
G01X159224D02*
G03Y292130I313J-390D01*
G01Y285823D02*
G03Y292130I-2531J3153D01*
G01Y285823D02*
G03Y285043I313J-390D01*
G01X154162D02*
G03X159224I2531J-3153D01*
G01X154162D02*
G03Y285823I-313J390D01*
G01Y292130D02*
G03Y285823I2531J-3154D01*
G01Y292130D02*
G03Y292910I-313J390D01*
G01X165658Y390354D02*
Y384449D01*
X163976Y382768D02*
G03X165658Y384449I0J1681D01*
G01X163976Y382768D02*
X158071D01*
X156390Y384449D02*
G03X158071Y382768I1681J-0D01*
G01X156390Y384449D02*
Y385240D01*
G03X155435Y385449I-500J-0*
G01X146735Y385938D02*
G03X155435Y385449I4446J1464D01*
G01X146735Y385938D02*
G03X145785I-475J-157D01*
G01Y388865D02*
G03Y385938I-4446J-1463D01*
G01Y388865D02*
G03X146735I475J157D01*
G01X155435Y389355D02*
G03X146735Y388865I-4254J-1953D01*
G01X155435Y389355D02*
G03X156390Y389563I455J208D01*
G01Y390354*
X158071Y392035D02*
G03X156390Y390354I-0J-1681D01*
G01X158071Y392035D02*
X163976D01*
X165658Y390354D02*
G03X163976Y392035I-1682J0D01*
G01X125984Y110524D02*
G03Y121760I0J5618D01*
G01Y110524D02*
X117323D01*
Y121760D02*
G03Y110524I-0J-5618D01*
G01Y121760D02*
X125984D01*
X126575Y134146D02*
G03Y145382I-0J5618D01*
G01Y134146D02*
X116732D01*
Y145382D02*
G03Y134146I0J-5618D01*
G01Y145382D02*
X126575D01*
X128898Y185386D02*
G03X123070I-2914J2803D01*
G01X128898D02*
G03Y184693I361J-347D01*
G01X123070D02*
G03X128898I2914J-2803D01*
G01X123070D02*
G03Y185386I-360J346D01*
G01X120156Y202402D02*
G03X120156I-8374J0D01*
G01X125992Y225197D02*
G03X125992I-3157J0D01*
G01X131504Y360630D02*
G03X131504I-3158J0D01*
G01X135441Y370079D02*
G03X135441I-3158J0D01*
G01X101464Y266814D02*
G03X101953Y275514I-1464J4446D01*
G01X101464Y266814D02*
G03Y265864I156J-475D01*
G01Y256971D02*
G03Y265864I-1464J4446D01*
G01Y256971D02*
G03Y256021I156J-475D01*
G01Y247128D02*
G03Y256021I-1464J4447D01*
G01Y247128D02*
G03Y246179I156J-474D01*
G01Y237286D02*
G03Y246179I-1464J4446D01*
G01Y237286D02*
G03Y236336I156J-475D01*
G01X98536D02*
G03X101464I1464J-4446D01*
G01X98536D02*
G03Y237286I-156J475D01*
G01Y246179D02*
G03Y237286I1464J-4447D01*
G01Y246179D02*
G03Y247128I-156J475D01*
G01Y256021D02*
G03Y247128I1464J-4446D01*
G01Y256021D02*
G03Y256971I-156J475D01*
G01Y265864D02*
G03Y256971I1464J-4447D01*
G01Y265864D02*
G03Y266814I-156J475D01*
G01X98047Y275514D02*
G03X98536Y266814I1953J-4254D01*
G01X98047Y275514D02*
G03X97838Y276468I-209J454D01*
G01X97047*
X95366Y278150D02*
G03X97047Y276468I1681J-0D01*
G01X95366Y278150D02*
Y284055D01*
X97047Y285736D02*
G03X95366Y284055I0J-1681D01*
G01X97047Y285736D02*
X102953D01*
X104634Y284055D02*
G03X102953Y285736I-1681J0D01*
G01X104634Y284055D02*
Y278150D01*
X102953Y276468D02*
G03X104634Y278150I-0J1682D01*
G01X102953Y276468D02*
X102162D01*
G03X101953Y275514I-0J-500*
G01X101464Y337680D02*
G03X101953Y346380I-1464J4446D01*
G01X101464Y337680D02*
G03Y336730I156J-475D01*
G01Y327837D02*
G03Y336730I-1464J4446D01*
G01Y327837D02*
G03Y326887I156J-475D01*
G01Y317995D02*
G03Y326887I-1464J4446D01*
G01Y317995D02*
G03Y317045I156J-475D01*
G01X98536D02*
G03X101464I1464J-4447D01*
G01X98536D02*
G03Y317995I-156J475D01*
G01Y326887D02*
G03Y317995I1464J-4446D01*
G01Y326887D02*
G03Y327837I-156J475D01*
G01Y336730D02*
G03Y327837I1464J-4447D01*
G01Y336730D02*
G03Y337680I-156J475D01*
G01X98047Y346380D02*
G03X98536Y337680I1953J-4254D01*
G01X98047Y346380D02*
G03X97838Y347335I-209J455D01*
G01X97047*
X95366Y349016D02*
G03X97047Y347335I1681J-0D01*
G01X95366Y349016D02*
Y354921D01*
X97047Y356602D02*
G03X95366Y354921I0J-1681D01*
G01X97047Y356602D02*
X102953D01*
X104634Y354921D02*
G03X102953Y356602I-1681J0D01*
G01X104634Y354921D02*
Y349016D01*
X102953Y347335D02*
G03X104634Y349016I-0J1681D01*
G01X102953Y347335D02*
X102162D01*
G03X101953Y346380I-0J-500*
G01X120156Y395315D02*
G03X120156I-8374J0D01*
G01X148827Y188189D02*
G03X148827I-3158J0D01*
G01X150402Y248425D02*
G03X150402I-3158J0D01*
G01X154339Y314173D02*
G03X154339I-3158J0D01*
G01X147252Y262205D02*
G03X147252I-3158J0D01*
G01X153167Y330728D02*
G03X149625Y334270I-411J3130D01*
G01X153167Y330728D02*
G03X152737Y330297I66J-496D01*
G01X149195Y333839D02*
G03X152737Y330297I411J-3130D01*
G01X149195Y333839D02*
G03X149625Y334270I-65J496D01*
G01X140916Y336320D02*
G03X138878Y340721I816J3050D01*
G01X140916Y336320D02*
G03X140334Y336051I-130J-483D01*
G01X138297Y340452D02*
G03X140334Y336051I-817J-3050D01*
G01X138297Y340452D02*
G03X138878Y340721I129J483D01*
G01X220480Y276378D02*
G03X220480I-3157J0D01*
G01X218418Y297534D02*
G03X223032Y300281I3157J-54D01*
G01X218418Y297534D02*
G03X218149Y297986I-500J9D01*
G01X218117Y303571D02*
G03X218149Y297986I1489J-2784D01*
G01X218117Y303571D02*
G03X218375Y304088I-236J441D01*
G01X222986Y301783D02*
G03X218375Y304088I-1490J2784D01*
G01X222986Y301783D02*
G03X222727Y301266I236J-441D01*
G01X222763Y300733D02*
G03X222727Y301266I-3157J54D01*
G01X222763Y300733D02*
G03X223032Y300281I500J-8D01*
G01X211819Y202362D02*
G03X211819I-3158J0D01*
G01X205240Y212424D02*
G03X205998Y212592I1059J-2975D01*
G01X205240Y212424D02*
G03X205559Y212779I-167J471D01*
X205998Y212592I392J311*
G01X205783Y213561D02*
G03X205025Y213392I-1059J2974D01*
G01X205783Y213561D02*
G03X205464Y213205I168J-471D01*
X205025Y213392I-391J-310*
G01X207882Y225197D02*
G03X207882I-3158J0D01*
G01X203819Y256314D02*
G03X203341Y257163I2480J1954D01*
G01X203819Y256314D02*
G03X202958Y255829I-393J-310D01*
G01X202480Y256679D02*
G03X202958Y255829I-2480J-1955D01*
G01X202480Y256679D02*
G03X203341Y257163I393J309D01*
G01X214585Y308680D02*
G03X211043Y312223I-412J3131D01*
G01X214585Y308680D02*
G03X214154Y308250I65J-495D01*
G01X210612Y311792D02*
G03X214154Y308250I412J-3131D01*
G01X210612Y311792D02*
G03X211043Y312223I-65J496D01*
G01X220480Y336220D02*
G03X220480I-3157J0D01*
G01X189772Y234646D02*
G03X189772I-3158J0D01*
G01X190953Y253543D02*
G03X190953I-3158J0D01*
G01X194969Y269966D02*
G03X195548Y274021I2669J1688D01*
G01X194969Y269966D02*
G03X194216Y270074I-423J-267D01*
G01X194795Y274128D02*
G03X194216Y270074I-2669J-1687D01*
G01X194795Y274128D02*
G03X195548Y274021I422J268D01*
G01X196071Y280315D02*
G03X196071I-3158J0D01*
G01X195283Y299213D02*
G03X195283I-3157J0D01*
G01X200795Y307874D02*
G03X200795I-3157J0D01*
G01X193696Y326862D02*
G03X192131I-783J3059D01*
G01X193696D02*
G03Y325894I124J-484D01*
G01Y319776D02*
G03Y325894I-783J3059D01*
G01Y319776D02*
G03Y318807I124J-485D01*
G01X192131D02*
G03X193696I782J-3059D01*
G01X192131D02*
G03Y319776I-124J484D01*
G01Y325894D02*
G03Y319776I782J-3059D01*
G01Y325894D02*
G03Y326862I-124J484D01*
G01X272813Y402899D02*
X279421D01*
X274307Y401999D02*
X279421D01*
X275318Y401099D02*
X279421D01*
X276064Y400199D02*
X279421D01*
X276628Y399299D02*
X279421D01*
X277047Y398399D02*
X279421D01*
X277346Y397499D02*
X279421D01*
X277537Y396599D02*
X279421D01*
X277627Y395699D02*
X279421D01*
X277620Y394799D02*
X279421D01*
X277515Y393899D02*
X279421D01*
X277309Y392999D02*
X279421D01*
X276994Y392099D02*
X279421D01*
X276554Y391199D02*
X279421D01*
X275967Y390299D02*
X279421D01*
X275188Y389399D02*
X279421D01*
X274126Y388499D02*
X279421D01*
X272515Y387599D02*
X279421D01*
X246366Y386699D02*
X279421D01*
X246366Y385799D02*
X279421D01*
X257650Y384899D02*
X279421D01*
X259043Y383999D02*
X279421D01*
X259610Y383099D02*
X279421D01*
X259835Y382199D02*
X279421D01*
X259795Y381299D02*
X279421D01*
X259476Y380399D02*
X279421D01*
X258755Y379499D02*
X279421D01*
X101681Y378599D02*
X279421D01*
X101681Y377699D02*
X279421D01*
X101681Y376799D02*
X279421D01*
X101681Y375899D02*
X279421D01*
X101681Y374999D02*
X279421D01*
X101681Y374099D02*
X279421D01*
X132769Y373199D02*
X279421D01*
X134529Y372299D02*
X279421D01*
X135152Y371399D02*
X279421D01*
X135413Y370499D02*
X279421D01*
X135404Y369599D02*
X279421D01*
X135123Y368699D02*
X279421D01*
X134468Y367799D02*
X279421D01*
X99055Y366899D02*
X279421D01*
X83847Y365999D02*
X279421D01*
X82422Y365099D02*
X279421D01*
X82035Y364199D02*
X279421D01*
X130034Y363299D02*
X279421D01*
X130962Y362399D02*
X279421D01*
X131382Y361499D02*
X279421D01*
X131504Y360599D02*
X279421D01*
X131364Y359699D02*
X279421D01*
X130919Y358799D02*
X279421D01*
X129931Y357899D02*
X279421D01*
X81996Y356999D02*
X279421D01*
X104153Y356099D02*
X279421D01*
X104611Y355199D02*
X279421D01*
X176091Y354299D02*
X279421D01*
X177838Y353399D02*
X279421D01*
X178460Y352499D02*
X279421D01*
X178720Y351599D02*
X279421D01*
X178711Y350699D02*
X279421D01*
X178429Y349799D02*
X279421D01*
X177889Y348899D02*
X279421D01*
X178346Y347999D02*
X279421D01*
X178682Y347099D02*
X279421D01*
X178737Y346199D02*
X279421D01*
X178528Y345299D02*
X279421D01*
X177986Y344399D02*
X279421D01*
X178208Y343499D02*
X279421D01*
X266925Y342599D02*
X279421D01*
X268452Y341699D02*
X279421D01*
X269241Y340799D02*
X279421D01*
X269712Y339899D02*
X279421D01*
X269965Y338999D02*
X279421D01*
X270035Y338099D02*
X279421D01*
X269930Y337199D02*
X279421D01*
X269637Y336299D02*
X279421D01*
X269113Y335399D02*
X279421D01*
X268234Y334499D02*
X279421D01*
X266600Y333599D02*
X279421D01*
X267078Y332699D02*
X279421D01*
X268516Y331799D02*
X279421D01*
X269278Y330899D02*
X279421D01*
X269734Y329999D02*
X279421D01*
X269975Y329099D02*
X279421D01*
X270033Y328199D02*
X279421D01*
X269917Y327299D02*
X279421D01*
X269611Y326399D02*
X279421D01*
X269070Y325499D02*
X279421D01*
X268159Y324599D02*
X279421D01*
X266556Y323699D02*
X279421D01*
X267217Y322799D02*
X279421D01*
X268577Y321899D02*
X279421D01*
X269315Y320999D02*
X279421D01*
X269755Y320099D02*
X279421D01*
X269984Y319199D02*
X279421D01*
X270031Y318299D02*
X279421D01*
X269903Y317399D02*
X279421D01*
X269584Y316499D02*
X279421D01*
X269025Y315599D02*
X279421D01*
X268081Y314699D02*
X279421D01*
X267016Y313799D02*
X279421D01*
X269392Y312899D02*
X279421D01*
X269944Y311999D02*
X279421D01*
X269988Y311099D02*
X279421D01*
X269988Y310199D02*
X279421D01*
X269988Y309299D02*
X279421D01*
X269988Y308399D02*
X279421D01*
X269988Y307499D02*
X279421D01*
X269988Y306599D02*
X279421D01*
X269988Y305699D02*
X279421D01*
X269721Y304799D02*
X279421D01*
X224582Y303899D02*
X279421D01*
X224237Y302999D02*
X279421D01*
X223465Y302099D02*
X279421D01*
X222737Y301199D02*
X279421D01*
X223002Y300299D02*
X279421D01*
X224083Y299399D02*
X279421D01*
X224564Y298499D02*
X279421D01*
X224730Y297599D02*
X279421D01*
X224634Y296699D02*
X279421D01*
X228842Y295799D02*
X279421D01*
X230014Y294899D02*
X279421D01*
X230524Y293999D02*
X279421D01*
X230711Y293099D02*
X279421D01*
X230635Y292199D02*
X279421D01*
X230272Y291299D02*
X279421D01*
X230337Y290399D02*
X279421D01*
X230659Y289499D02*
X279421D01*
X230702Y288599D02*
X279421D01*
X230480Y287699D02*
X279421D01*
X229918Y286799D02*
X279421D01*
X228547Y285899D02*
X279421D01*
X159278Y284999D02*
X279421D01*
X160080Y284099D02*
X279421D01*
X194199Y283199D02*
X279421D01*
X267522Y282299D02*
X279421D01*
X268724Y281399D02*
X279421D01*
X269403Y280499D02*
X279421D01*
X269806Y279599D02*
X279421D01*
X270003Y278699D02*
X279421D01*
X270022Y277799D02*
X279421D01*
X269865Y276899D02*
X279421D01*
X269512Y275999D02*
X279421D01*
X268905Y275099D02*
X279421D01*
X267865Y274199D02*
X279421D01*
X267037Y273299D02*
X279421D01*
X269544Y272399D02*
X279421D01*
X269971Y271499D02*
X279421D01*
X269988Y270599D02*
X279421D01*
X269988Y269699D02*
X279421D01*
X269988Y268799D02*
X279421D01*
X269988Y267899D02*
X279421D01*
X269988Y266999D02*
X279421D01*
X269988Y266099D02*
X279421D01*
X269981Y265199D02*
X279421D01*
X269615Y264299D02*
X279421D01*
X147018Y263399D02*
X279421D01*
X147238Y262499D02*
X279421D01*
X147193Y261599D02*
X279421D01*
X208314Y260699D02*
X279421D01*
X209061Y259799D02*
X279421D01*
X209393Y258899D02*
X279421D01*
X209445Y257999D02*
X279421D01*
X236952Y257099D02*
X279421D01*
X237979Y256199D02*
X279421D01*
X238439Y255299D02*
X279421D01*
X238590Y254399D02*
X279421D01*
X238479Y253499D02*
X279421D01*
X238073Y252599D02*
X279421D01*
X237177Y251699D02*
X279421D01*
X189356Y250799D02*
X279421D01*
X252103Y249899D02*
X279421D01*
X253019Y248999D02*
X279421D01*
X253433Y248099D02*
X279421D01*
X253551Y247199D02*
X279421D01*
X254553Y246299D02*
X279421D01*
X255909Y245399D02*
X279421D01*
X256467Y244499D02*
X279421D01*
X256687Y243599D02*
X279421D01*
X267914Y242699D02*
X279421D01*
X268932Y241799D02*
X279421D01*
X269528Y240899D02*
X279421D01*
X269874Y239999D02*
X279421D01*
X270025Y239099D02*
X279421D01*
X269999Y238199D02*
X279421D01*
X269795Y237299D02*
X279421D01*
X269385Y236399D02*
X279421D01*
X268693Y235499D02*
X279421D01*
X267460Y234599D02*
X279421D01*
X267182Y233699D02*
X279421D01*
X269721Y232799D02*
X279421D01*
X269988Y231899D02*
X279421D01*
X269988Y230999D02*
X279421D01*
X269988Y230099D02*
X279421D01*
X269988Y229199D02*
X279421D01*
X269988Y228299D02*
X279421D01*
X269988Y227399D02*
X279421D01*
X269988Y226499D02*
X279421D01*
X269943Y225599D02*
X279421D01*
X269390Y224699D02*
X279421D01*
X226236Y223799D02*
X279421D01*
X225448Y222899D02*
X279421D01*
X223516Y221999D02*
X279421D01*
X81996Y221099D02*
X279421D01*
X81996Y220199D02*
X279421D01*
X206252Y219299D02*
X279421D01*
X207274Y218399D02*
X279421D01*
X207731Y217499D02*
X279421D01*
X207881Y216599D02*
X279421D01*
X207769Y215699D02*
X279421D01*
X238817Y214799D02*
X279421D01*
X240164Y213899D02*
X279421D01*
X240721Y212999D02*
X279421D01*
X240940Y212099D02*
X279421D01*
X240893Y211199D02*
X279421D01*
X272048Y210299D02*
X279421D01*
X273862Y209399D02*
X279421D01*
X275002Y208499D02*
X279421D01*
X275828Y207599D02*
X279421D01*
X276449Y206699D02*
X279421D01*
X276916Y205799D02*
X279421D01*
X277255Y204899D02*
X279421D01*
X277482Y203999D02*
X279421D01*
X277607Y203099D02*
X279421D01*
X277633Y202199D02*
X279421D01*
X277563Y201299D02*
X279421D01*
X277393Y200399D02*
X279421D01*
X277117Y199499D02*
X279421D01*
X276723Y198599D02*
X279421D01*
X276191Y197699D02*
X279421D01*
X275485Y196799D02*
X279421D01*
X274538Y195899D02*
X279421D01*
X273176Y194999D02*
X279421D01*
X270351Y194099D02*
X279387D01*
X101777Y403799D02*
X279326D01*
X101681Y193199D02*
X279016D01*
X102297Y404699D02*
X278805D01*
X101681Y192299D02*
X277709D01*
X112871Y194099D02*
X268173D01*
X240567Y210299D02*
X266476D01*
X246366Y387599D02*
X266009D01*
X115333Y402899D02*
X265711D01*
X115696Y194999D02*
X265348D01*
X239833Y209399D02*
X264661D01*
X246366Y388499D02*
X264397D01*
X116827Y401999D02*
X264217D01*
X239013Y323699D02*
X264153D01*
X245877Y333599D02*
X264109D01*
X117058Y195899D02*
X263986D01*
X178627Y342599D02*
X263784D01*
X239844Y313799D02*
X263693D01*
X218021Y273299D02*
X263672D01*
X244886Y332699D02*
X263631D01*
X240161Y233699D02*
X263527D01*
X209310Y208499D02*
X263522D01*
X239765Y322799D02*
X263492D01*
X246366Y389399D02*
X263335D01*
X240077Y234599D02*
X263249D01*
X117837Y401099D02*
X263206D01*
X195370Y282299D02*
X263187D01*
X118005Y196799D02*
X263038D01*
X219608Y274199D02*
X262844D01*
X256642Y242699D02*
X262794D01*
X208858Y207599D02*
X262696D01*
X240273Y314699D02*
X262628D01*
X246366Y390299D02*
X262557D01*
X195532Y324599D02*
X262549D01*
X249161Y334499D02*
X262474D01*
X118584Y400199D02*
X262459D01*
X118710Y197699D02*
X262333D01*
X178748Y341699D02*
X262257D01*
X236011Y331799D02*
X262193D01*
X240100Y321899D02*
X262131D01*
X207851Y206699D02*
X262074D01*
X239706Y235499D02*
X262015D01*
X195879Y281399D02*
X261984D01*
X246139Y391199D02*
X261969D01*
X119147Y399299D02*
X261896D01*
X220210Y275099D02*
X261804D01*
X119242Y198599D02*
X261801D01*
X256317Y241799D02*
X261777D01*
X240402Y315599D02*
X261684D01*
X194608Y325499D02*
X261639D01*
X119436Y205799D02*
X261608D01*
X249961Y335399D02*
X261596D01*
X119513Y392099D02*
X261530D01*
X119567Y398399D02*
X261476D01*
X178607Y340799D02*
X261468D01*
X195916Y330899D02*
X261430D01*
X209992Y199499D02*
X261407D01*
X240155Y320999D02*
X261393D01*
X238883Y236399D02*
X261324D01*
X226668Y224699D02*
X261318D01*
X238894Y312899D02*
X261317D01*
X196066Y280499D02*
X261305D01*
X210542Y204899D02*
X261269D01*
X119829Y392999D02*
X261215D01*
X220457Y275999D02*
X261197D01*
X255585Y240899D02*
X261180D01*
X119866Y397499D02*
X261178D01*
X243080Y272399D02*
X261165D01*
X211134Y200399D02*
X261131D01*
X240268Y316499D02*
X261124D01*
X193321Y326399D02*
X261098D01*
X146458Y264299D02*
X261093D01*
X250321Y336299D02*
X261072D01*
X211362Y203999D02*
X261042D01*
X120035Y393899D02*
X261008D01*
X248514Y339899D02*
X260997D01*
X224645Y304799D02*
X260988D01*
X239982Y232799D02*
X260987D01*
X120057Y396599D02*
X260987D01*
X196070Y329999D02*
X260974D01*
X211634Y201299D02*
X260961D01*
X239944Y320099D02*
X260953D01*
X211732Y203099D02*
X260917D01*
X188326Y237299D02*
X260914D01*
X120140Y394799D02*
X260904D01*
X195989Y279599D02*
X260903D01*
X120147Y395699D02*
X260897D01*
X211815Y202199D02*
X260890D01*
X220437Y276899D02*
X260843D01*
X104348Y239999D02*
X260835D01*
X239833Y317399D02*
X260806D01*
X194672Y327299D02*
X260792D01*
X250396Y337199D02*
X260779D01*
X226860Y225599D02*
X260765D01*
X217325Y311999D02*
X260765D01*
X249695Y338999D02*
X260744D01*
X244777Y271499D02*
X260738D01*
X195962Y329099D02*
X260734D01*
X145097Y265199D02*
X260728D01*
X239400Y319199D02*
X260725D01*
X224444Y305699D02*
X260720D01*
X239484Y231899D02*
X260720D01*
X217249Y311099D02*
X260720D01*
X216888Y310199D02*
X260720D01*
X216086Y309299D02*
X260720D01*
X214198Y308399D02*
X260720D01*
X222668Y307499D02*
X260720D01*
X223913Y306599D02*
X260720D01*
X245394Y270599D02*
X260720D01*
X245651Y269699D02*
X260720D01*
X245639Y268799D02*
X260720D01*
X245353Y267899D02*
X260720D01*
X244691Y266999D02*
X260720D01*
X101182Y266099D02*
X260720D01*
X238347Y230999D02*
X260720D01*
X104325Y230099D02*
X260720D01*
X225287Y229199D02*
X260720D01*
X226150Y228299D02*
X260720D01*
X226623Y227399D02*
X260720D01*
X226845Y226499D02*
X260720D01*
X103070Y238199D02*
X260709D01*
X219464Y278699D02*
X260706D01*
X220143Y277799D02*
X260686D01*
X103870Y239099D02*
X260684D01*
X238985Y318299D02*
X260678D01*
X195560Y328199D02*
X260676D01*
X250207Y338099D02*
X260674D01*
X246366Y384899D02*
X255736D01*
X101681Y379499D02*
X254631D01*
X246305Y383999D02*
X254343D01*
X101681Y380399D02*
X253910D01*
X245687Y383099D02*
X253776D01*
X101681Y381299D02*
X253591D01*
X101681Y382199D02*
X253551D01*
X221884Y240899D02*
X251501D01*
X222616Y241799D02*
X250769D01*
X222941Y242699D02*
X250445D01*
X222987Y243599D02*
X250399D01*
X222935Y244499D02*
X248834D01*
X222970Y249899D02*
X248684D01*
X223822Y245399D02*
X247832D01*
X223885Y248999D02*
X247769D01*
X224272Y246299D02*
X247381D01*
X224299Y248099D02*
X247354D01*
X224417Y247199D02*
X247237D01*
X240640Y339899D02*
X245974D01*
X241821Y338999D02*
X244793D01*
X200706Y272399D02*
X241959D01*
X237131Y332699D02*
X241728D01*
X237625Y333599D02*
X240737D01*
X101938Y266999D02*
X240349D01*
X200791Y271499D02*
X240262D01*
X103258Y267899D02*
X239686D01*
X200614Y270599D02*
X239646D01*
X198987Y268799D02*
X239401D01*
X200117Y269699D02*
X239389D01*
X178161Y339899D02*
X238100D01*
X233733Y383099D02*
X237778D01*
X234627Y391199D02*
X237326D01*
X235104Y383999D02*
X237160D01*
X235567Y390299D02*
X237098D01*
X235846Y384899D02*
X237098D01*
X236123Y389399D02*
X237071D01*
X218823Y338999D02*
X236919D01*
X207361Y214799D02*
X236774D01*
X219861Y338099D02*
X236407D01*
X209456Y209399D02*
X235758D01*
X104596Y230999D02*
X235669D01*
X217137Y312899D02*
X235594D01*
X206461Y213899D02*
X235426D01*
X189240Y236399D02*
X235133D01*
X209340Y210299D02*
X235024D01*
X195950Y323699D02*
X235002D01*
X100955Y212999D02*
X234870D01*
X208927Y211199D02*
X234698D01*
X208016Y212099D02*
X234651D01*
X216627Y313799D02*
X234644D01*
X188171Y231899D02*
X234532D01*
X189654Y235499D02*
X234310D01*
X196071Y322799D02*
X234251D01*
X215450Y314699D02*
X234204D01*
X189175Y232799D02*
X234033D01*
X189771Y234599D02*
X233938D01*
X195929Y321899D02*
X233916D01*
X209232Y257099D02*
X233914D01*
X189626Y233699D02*
X233854D01*
X200903Y251699D02*
X233689D01*
X195452Y331799D02*
X233280D01*
X208684Y256199D02*
X232887D01*
X202335Y252599D02*
X232793D01*
X220325Y337199D02*
X232788D01*
X195482Y320999D02*
X232583D01*
X207374Y255299D02*
X232428D01*
X202910Y253499D02*
X232387D01*
X203141Y254399D02*
X232276D01*
X194415Y332699D02*
X232160D01*
X220479Y336299D02*
X231955D01*
X196067Y315599D02*
X231945D01*
X219082Y333599D02*
X231667D01*
X220372Y335399D02*
X231579D01*
X219970Y334499D02*
X231492D01*
X194490Y320099D02*
X231406D01*
X195980Y316499D02*
X231143D01*
X193329Y319199D02*
X230894D01*
X195605Y317399D02*
X230782D01*
X194775Y318299D02*
X230706D01*
X223891Y383099D02*
X230046D01*
X224785Y391199D02*
X229152D01*
X225262Y383999D02*
X228675D01*
X225724Y390299D02*
X228213D01*
X226003Y384899D02*
X227934D01*
X226281Y389399D02*
X227656D01*
X226445Y385799D02*
X227492D01*
X159315Y285899D02*
X226571D01*
X224247Y295799D02*
X226277D01*
X160100Y286799D02*
X225200D01*
X223393Y294899D02*
X225104D01*
X160003Y291299D02*
X224846D01*
X160478Y290399D02*
X224781D01*
X160529Y287699D02*
X224638D01*
X160170Y293999D02*
X224594D01*
X159153Y292199D02*
X224484D01*
X160702Y289499D02*
X224459D01*
X160719Y288599D02*
X224416D01*
X159443Y293099D02*
X224407D01*
X81996Y221999D02*
X222154D01*
X103830Y229199D02*
X220382D01*
X213959Y307499D02*
X220324D01*
X206890Y222899D02*
X220222D01*
X214048Y383099D02*
X220204D01*
X160565Y294899D02*
X219757D01*
X150037Y249899D02*
X219550D01*
X205315Y228299D02*
X219519D01*
X207555Y223799D02*
X219433D01*
X214942Y391199D02*
X219310D01*
X213414Y306599D02*
X219079D01*
X206988Y227399D02*
X219047D01*
X207842Y224699D02*
X219001D01*
X160728Y295799D02*
X218902D01*
X215419Y383999D02*
X218833D01*
X207601Y226499D02*
X218824D01*
X207856Y225599D02*
X218810D01*
X150349Y248999D02*
X218635D01*
X212115Y305699D02*
X218548D01*
X194036Y296699D02*
X218516D01*
X194840Y297599D02*
X218415D01*
X215882Y390299D02*
X218370D01*
X81996Y303899D02*
X218368D01*
X198353Y304799D02*
X218347D01*
X149578Y246299D02*
X218228D01*
X150385Y248099D02*
X218220D01*
X150154Y247199D02*
X218103D01*
X216161Y384899D02*
X218091D01*
X216438Y389399D02*
X217814D01*
X104606Y240899D02*
X217801D01*
X216603Y385799D02*
X217649D01*
X148144Y245399D02*
X217477D01*
X195202Y298499D02*
X217431D01*
X81996Y302999D02*
X217352D01*
X104681Y241799D02*
X217069D01*
X103776Y244499D02*
X216918D01*
X195278Y299399D02*
X216771D01*
X104580Y242699D02*
X216744D01*
X193407Y302099D02*
X216734D01*
X104293Y243599D02*
X216699D01*
X200333Y273299D02*
X216624D01*
X195091Y300299D02*
X216487D01*
X194581Y301199D02*
X216476D01*
X177171Y338999D02*
X215822D01*
X155903Y333599D02*
X215563D01*
X195626Y278699D02*
X215182D01*
X199506Y274199D02*
X215038D01*
X144623Y338099D02*
X214785D01*
X155848Y334499D02*
X214676D01*
X194821Y277799D02*
X214503D01*
X193831Y275099D02*
X214436D01*
X144025Y337199D02*
X214321D01*
X155512Y335399D02*
X214274D01*
X104076Y276899D02*
X214209D01*
X101663Y275999D02*
X214188D01*
X154759Y336299D02*
X214166D01*
X195891Y314699D02*
X212896D01*
X195397Y313799D02*
X211720D01*
X194274Y312899D02*
X211209D01*
X153470Y311999D02*
X210955D01*
X204206Y383099D02*
X210361D01*
X199926Y305699D02*
X209932D01*
X205100Y391199D02*
X209467D01*
X151900Y311099D02*
X209016D01*
X205577Y383999D02*
X208990D01*
X200526Y306599D02*
X208633D01*
X206039Y390299D02*
X208528D01*
X199775Y310199D02*
X208266D01*
X206318Y384899D02*
X208249D01*
X200773Y307499D02*
X208088D01*
X206596Y389399D02*
X207971D01*
X200456Y309299D02*
X207931D01*
X200751Y308399D02*
X207877D01*
X206760Y385799D02*
X207807D01*
X119636Y199499D02*
X207331D01*
X119775Y204899D02*
X206781D01*
X119913Y200399D02*
X206189D01*
X120002Y203999D02*
X205961D01*
X120083Y201299D02*
X205688D01*
X120127Y203099D02*
X205591D01*
X120153Y202199D02*
X205508D01*
X203105Y255299D02*
X205225D01*
X118969Y206699D02*
X204748D01*
X101363Y212099D02*
X204582D01*
X170913Y260699D02*
X204284D01*
X123425Y228299D02*
X204134D01*
X202966Y256199D02*
X203914D01*
X118348Y207599D02*
X203741D01*
X101598Y211199D02*
X203671D01*
X171659Y259799D02*
X203538D01*
X202081Y257099D02*
X203360D01*
X117522Y208499D02*
X203288D01*
X114567Y210299D02*
X203258D01*
X171991Y258899D02*
X203205D01*
X81996Y219299D02*
X203197D01*
X172044Y257999D02*
X203153D01*
X116382Y209399D02*
X203142D01*
X100323Y213899D02*
X202987D01*
X125000Y222899D02*
X202559D01*
X125098Y227399D02*
X202461D01*
X81996Y218399D02*
X202175D01*
X99341Y214799D02*
X202087D01*
X125666Y223799D02*
X201893D01*
X125711Y226499D02*
X201848D01*
X82081Y217499D02*
X201717D01*
X97376Y215699D02*
X201680D01*
X125953Y224699D02*
X201606D01*
X125966Y225599D02*
X201593D01*
X82577Y216599D02*
X201568D01*
X194363Y383099D02*
X200519D01*
X195257Y391199D02*
X199625D01*
X195734Y383999D02*
X199148D01*
X190358Y251699D02*
X199097D01*
X196197Y390299D02*
X198685D01*
X196475Y384899D02*
X198406D01*
X196753Y389399D02*
X198128D01*
X196918Y385799D02*
X197964D01*
X171831Y257099D02*
X197919D01*
X190808Y252599D02*
X197665D01*
X189504Y256199D02*
X197208D01*
X190952Y253499D02*
X197090D01*
X81996Y304799D02*
X196922D01*
X190420Y255299D02*
X196895D01*
X190835Y254399D02*
X196859D01*
X103982Y268799D02*
X196289D01*
X194749Y274199D02*
X195769D01*
X104019Y310199D02*
X195501D01*
X81996Y305699D02*
X195349D01*
X193691Y269699D02*
X195158D01*
X103320Y309299D02*
X194820D01*
X81996Y306599D02*
X194749D01*
X102068Y308399D02*
X194524D01*
X81996Y307499D02*
X194503D01*
X177573Y326399D02*
X192506D01*
X103376Y319199D02*
X192498D01*
X160519Y283199D02*
X191627D01*
X154070Y312899D02*
X191553D01*
X178667Y332699D02*
X191411D01*
X178742Y320099D02*
X191337D01*
X178860Y325499D02*
X191218D01*
X178924Y327299D02*
X191155D01*
X102181Y318299D02*
X191052D01*
X104597Y277799D02*
X191006D01*
X81996Y302099D02*
X190845D01*
X164978Y383099D02*
X190676D01*
X104413Y269699D02*
X190561D01*
X160716Y282299D02*
X190457D01*
X154316Y313799D02*
X190429D01*
X102679Y275099D02*
X190421D01*
X179704Y331799D02*
X190375D01*
X179734Y320999D02*
X190345D01*
X179784Y324599D02*
X190295D01*
X179812Y328199D02*
X190267D01*
X101135Y317399D02*
X190222D01*
X160686Y296699D02*
X190215D01*
X159176Y278699D02*
X190201D01*
X160706Y281399D02*
X189948D01*
X154295Y314699D02*
X189935D01*
X180168Y330899D02*
X189911D01*
X180181Y321899D02*
X189898D01*
X180202Y323699D02*
X189876D01*
X180214Y329099D02*
X189865D01*
X153317Y316499D02*
X189846D01*
X160025Y279599D02*
X189838D01*
X165430Y391199D02*
X189782D01*
X160489Y280499D02*
X189761D01*
X153999Y315599D02*
X189759D01*
X180322Y329999D02*
X189757D01*
X180323Y322799D02*
X189756D01*
X81996Y301199D02*
X189671D01*
X104634Y270599D02*
X189562D01*
X103644Y274199D02*
X189503D01*
X160433Y297599D02*
X189412D01*
X165596Y383999D02*
X189305D01*
X81996Y300299D02*
X189161D01*
X104675Y271499D02*
X189112D01*
X104214Y273299D02*
X189087D01*
X159920Y298499D02*
X189050D01*
X158978Y299399D02*
X188974D01*
X104540Y272399D02*
X188969D01*
X165658Y390299D02*
X188843D01*
X165658Y384899D02*
X188564D01*
X165658Y389399D02*
X188286D01*
X165658Y385799D02*
X188122D01*
X165658Y388499D02*
X187969D01*
X165658Y386699D02*
X187892D01*
X165658Y387599D02*
X187843D01*
X149326Y250799D02*
X186234D01*
X171283Y256199D02*
X186087D01*
X104679Y251699D02*
X185233D01*
X169972Y255299D02*
X185171D01*
X163762Y231899D02*
X185057D01*
X163917Y237299D02*
X184902D01*
X104568Y252599D02*
X184782D01*
X103733Y254399D02*
X184756D01*
X104268Y253499D02*
X184638D01*
X164766Y232799D02*
X184053D01*
X164831Y236399D02*
X183988D01*
X165217Y233699D02*
X183602D01*
X165245Y235499D02*
X183574D01*
X165362Y234599D02*
X183457D01*
X102500Y326399D02*
X176758D01*
X155693Y332699D02*
X175663D01*
X104053Y320099D02*
X175589D01*
X103544Y325499D02*
X175470D01*
X101124Y327299D02*
X175407D01*
X104634Y354299D02*
X175090D01*
X155149Y331799D02*
X174627D01*
X104453Y320999D02*
X174596D01*
X104154Y324599D02*
X174547D01*
X151522Y328199D02*
X174519D01*
X153856Y330899D02*
X174163D01*
X104650Y321899D02*
X174150D01*
X104509Y323699D02*
X174128D01*
X152323Y329099D02*
X174117D01*
X144868Y338999D02*
X174010D01*
X152683Y329999D02*
X174009D01*
X104667Y322799D02*
X174008D01*
X104634Y353399D02*
X173343D01*
X104630Y348899D02*
X173292D01*
X104092Y344399D02*
X173195D01*
X144845Y339899D02*
X173020D01*
X104475Y343499D02*
X172973D01*
X104291Y347999D02*
X172835D01*
X104634Y349799D02*
X172752D01*
X104634Y352499D02*
X172721D01*
X103442Y345299D02*
X172653D01*
X144548Y340799D02*
X172574D01*
X104657Y342599D02*
X172554D01*
X101737Y347099D02*
X172499D01*
X104634Y350699D02*
X172470D01*
X104634Y351599D02*
X172461D01*
X102308Y346199D02*
X172444D01*
X143865Y341699D02*
X172433D01*
X102836Y255299D02*
X167823D01*
X146870Y260699D02*
X166883D01*
X101218Y256199D02*
X166512D01*
X146139Y259799D02*
X166136D01*
X101806Y257099D02*
X165965D01*
X103946Y258899D02*
X165804D01*
X103198Y257999D02*
X165752D01*
X104681Y231899D02*
X160648D01*
X101502Y237299D02*
X160493D01*
X104592Y232799D02*
X159644D01*
X101337Y236399D02*
X159579D01*
X128443Y191399D02*
X159335D01*
X104317Y233699D02*
X159193D01*
X102981Y235499D02*
X159165D01*
X103818Y234599D02*
X159048D01*
X153024Y383099D02*
X157069D01*
X147822Y190499D02*
X156945D01*
X153919Y391199D02*
X156617D01*
X154396Y383999D02*
X156451D01*
X154858Y390299D02*
X156390D01*
X155137Y384899D02*
X156390D01*
X155415Y389399D02*
X156362D01*
X148495Y189599D02*
X155202D01*
X81996Y299399D02*
X154408D01*
X81996Y292199D02*
X154233D01*
X104634Y278699D02*
X154210D01*
X104344Y284999D02*
X154108D01*
X81996Y285899D02*
X154071D01*
X81996Y293099D02*
X153943D01*
X148785Y188699D02*
X153798D01*
X81996Y298499D02*
X153466D01*
X81996Y291299D02*
X153383D01*
X104634Y279599D02*
X153361D01*
X104633Y284099D02*
X153306D01*
X81996Y286799D02*
X153286D01*
X81996Y293999D02*
X153216D01*
X81996Y297599D02*
X152953D01*
X81996Y290399D02*
X152908D01*
X104634Y280499D02*
X152896D01*
X104634Y283199D02*
X152867D01*
X81996Y287699D02*
X152857D01*
X81996Y294899D02*
X152821D01*
X81996Y296699D02*
X152700D01*
X81996Y289499D02*
X152683D01*
X104634Y281399D02*
X152680D01*
X104634Y282299D02*
X152670D01*
X81996Y288599D02*
X152667D01*
X81996Y295799D02*
X152658D01*
X148803Y187799D02*
X152618D01*
X148551Y186899D02*
X151601D01*
X142465Y336299D02*
X150752D01*
X147944Y185999D02*
X150714D01*
X104434Y311099D02*
X150462D01*
X139921Y335399D02*
X150000D01*
X146317Y185099D02*
X149932D01*
X138723Y334499D02*
X149664D01*
X143182Y383099D02*
X149338D01*
X129303Y184199D02*
X149240D01*
X102589Y316499D02*
X149045D01*
X104643Y311999D02*
X148892D01*
X129774Y183299D02*
X148627D01*
X144076Y391199D02*
X148443D01*
X103593Y315599D02*
X148364D01*
X104493Y333599D02*
X148334D01*
X104671Y312899D02*
X148292D01*
X129995Y182399D02*
X148085D01*
X104184Y314699D02*
X148068D01*
X104525Y313799D02*
X148046D01*
X144553Y383999D02*
X147967D01*
X102286Y328199D02*
X147691D01*
X130009Y181499D02*
X147605D01*
X145015Y390299D02*
X147504D01*
X145294Y384899D02*
X147225D01*
X129816Y180599D02*
X147185D01*
X104663Y332699D02*
X147155D01*
X145572Y389399D02*
X146947D01*
X103431Y329099D02*
X146890D01*
X129382Y179699D02*
X146818D01*
X145737Y385799D02*
X146783D01*
X104656Y331799D02*
X146643D01*
X104086Y329999D02*
X146530D01*
X128591Y178799D02*
X146503D01*
X104472Y330899D02*
X146455D01*
X102910Y245399D02*
X146344D01*
X126632Y177899D02*
X146236D01*
X101681Y176999D02*
X146015D01*
X101681Y176099D02*
X145840D01*
X101681Y175199D02*
X145708D01*
X101681Y174299D02*
X145618D01*
X101681Y173399D02*
X145571D01*
X101681Y172499D02*
X145563D01*
X101681Y171599D02*
X145563D01*
X101681Y170699D02*
X145563D01*
X101681Y169799D02*
X145563D01*
X101681Y168899D02*
X145563D01*
X101681Y167999D02*
X145563D01*
X101681Y167099D02*
X145563D01*
X101681Y166199D02*
X145563D01*
X101681Y165299D02*
X145563D01*
X101681Y164399D02*
X145563D01*
X101681Y163499D02*
X145563D01*
X101681Y162599D02*
X145563D01*
X101681Y161699D02*
X145563D01*
X101681Y160799D02*
X145563D01*
X101681Y159899D02*
X145563D01*
X101681Y158999D02*
X145563D01*
X101681Y158099D02*
X145563D01*
X101681Y157199D02*
X145563D01*
X101681Y156299D02*
X145563D01*
X101681Y155399D02*
X145563D01*
X101681Y154499D02*
X145563D01*
X101681Y153599D02*
X145563D01*
X101681Y152699D02*
X145563D01*
X101681Y151799D02*
X145563D01*
X101681Y150899D02*
X145563D01*
X101681Y149999D02*
X145563D01*
X101681Y149099D02*
X145563D01*
X101681Y148199D02*
X145563D01*
X101681Y147299D02*
X145563D01*
X101681Y146399D02*
X145563D01*
X101681Y145499D02*
X145563D01*
X129436Y144599D02*
X145563D01*
X130585Y143699D02*
X145563D01*
X131303Y142799D02*
X145563D01*
X131771Y141899D02*
X145563D01*
X132056Y140999D02*
X145563D01*
X132183Y140099D02*
X145563D01*
X132164Y139199D02*
X145563D01*
X131999Y138299D02*
X145563D01*
X142481Y137399D02*
X145563D01*
X143872Y136499D02*
X145563D01*
X143862Y119399D02*
X145563D01*
X142463Y118499D02*
X145563D01*
X131410Y117599D02*
X145563D01*
X131575Y116699D02*
X145563D01*
X131592Y115799D02*
X145563D01*
X131463Y114899D02*
X145563D01*
X131178Y113999D02*
X145563D01*
X130707Y113099D02*
X145563D01*
X129986Y112199D02*
X145563D01*
X128832Y111299D02*
X145563D01*
X101681Y110399D02*
X145563D01*
X101681Y109499D02*
X145563D01*
X101681Y108599D02*
X145563D01*
X101681Y107699D02*
X145563D01*
X101681Y106799D02*
X145563D01*
X101681Y105899D02*
X145563D01*
X101681Y104999D02*
X145563D01*
X101681Y104099D02*
X145563D01*
X101805Y103199D02*
X145439D01*
X144690Y120299D02*
X145436D01*
X144697Y135599D02*
X145429D01*
X104616Y250799D02*
X145162D01*
X128762Y185099D02*
X145021D01*
X101268Y246299D02*
X144910D01*
X102386Y102299D02*
X144858D01*
X104371Y249899D02*
X144451D01*
X101662Y247199D02*
X144335D01*
X103909Y248999D02*
X144139D01*
X103135Y248099D02*
X144104D01*
X129303Y190499D02*
X143516D01*
X129383Y185999D02*
X143395D01*
X102759Y265199D02*
X143091D01*
X129774Y189599D02*
X142844D01*
X129816Y186899D02*
X142787D01*
X129995Y188699D02*
X142553D01*
X130009Y187799D02*
X142536D01*
X104392Y259799D02*
X142050D01*
X103689Y264299D02*
X141731D01*
X104626Y260699D02*
X141319D01*
X104241Y263399D02*
X141171D01*
X140594Y336299D02*
X141000D01*
X104678Y261599D02*
X140996D01*
X104555Y262499D02*
X140951D01*
X104662Y341699D02*
X139600D01*
X101681Y383099D02*
X139495D01*
X104489Y340799D02*
X138916D01*
X119074Y391199D02*
X138601D01*
X101681Y383999D02*
X138124D01*
X131084Y118499D02*
X137852D01*
X131671Y137399D02*
X137834D01*
X118487Y390299D02*
X137662D01*
X101681Y384899D02*
X137383D01*
X117708Y389399D02*
X137105D01*
X101681Y385799D02*
X136940D01*
X116646Y388499D02*
X136788D01*
X101681Y386699D02*
X136711D01*
X115035Y387599D02*
X136662D01*
X130562Y119399D02*
X136453D01*
X131147Y136499D02*
X136443D01*
X104124Y334499D02*
X136238D01*
X129764Y120299D02*
X135628D01*
X130345Y135599D02*
X135622D01*
X104117Y339899D02*
X135548D01*
X128432Y121199D02*
X135089D01*
X129005Y134699D02*
X135085D01*
X103494Y335399D02*
X135039D01*
X103483Y338999D02*
X134757D01*
X101681Y122099D02*
X134750D01*
X101681Y133799D02*
X134748D01*
X101681Y122999D02*
X134574D01*
X101681Y132899D02*
X134573D01*
X101681Y131999D02*
X134539D01*
X101681Y131099D02*
X134539D01*
X101681Y130199D02*
X134539D01*
X101681Y129299D02*
X134539D01*
X101681Y128399D02*
X134539D01*
X101681Y127499D02*
X134539D01*
X101681Y126599D02*
X134539D01*
X101681Y125699D02*
X134539D01*
X101681Y124799D02*
X134539D01*
X101681Y123899D02*
X134539D01*
X102406Y336299D02*
X134522D01*
X102386Y338099D02*
X134401D01*
X101120Y337199D02*
X134329D01*
X101681Y373199D02*
X131798D01*
X100150Y367799D02*
X130099D01*
X101681Y372299D02*
X130038D01*
X100841Y368699D02*
X129444D01*
X101675Y371399D02*
X129415D01*
X101292Y369599D02*
X129163D01*
X101561Y370499D02*
X129154D01*
X81996Y357899D02*
X126762D01*
X81996Y363299D02*
X126659D01*
X81996Y358799D02*
X125774D01*
X81996Y362399D02*
X125731D01*
X101681Y177899D02*
X125336D01*
X81996Y359699D02*
X125329D01*
X81996Y361499D02*
X125311D01*
X81996Y360599D02*
X125189D01*
X101681Y191399D02*
X123525D01*
X101681Y178799D02*
X123378D01*
X101681Y185099D02*
X123206D01*
X101681Y190499D02*
X122666D01*
X101681Y184199D02*
X122665D01*
X101681Y179699D02*
X122586D01*
X101681Y185999D02*
X122586D01*
X103003Y228299D02*
X122244D01*
X101681Y189599D02*
X122195D01*
X101681Y183299D02*
X122194D01*
X101681Y180599D02*
X122153D01*
X101681Y186899D02*
X122152D01*
X101681Y188699D02*
X121973D01*
X101681Y182399D02*
X121973D01*
X101681Y181499D02*
X121960D01*
X101681Y187799D02*
X121960D01*
X81996Y222899D02*
X120669D01*
X101320Y227399D02*
X120572D01*
X81996Y223799D02*
X120004D01*
X81996Y226499D02*
X119958D01*
X81996Y224699D02*
X119717D01*
X81996Y225599D02*
X119703D01*
X101681Y121199D02*
X114875D01*
X101681Y111299D02*
X114475D01*
X101681Y134699D02*
X114302D01*
X101681Y144599D02*
X113871D01*
X101681Y120299D02*
X113544D01*
X101681Y112199D02*
X113321D01*
X101681Y135599D02*
X112962D01*
X101681Y119399D02*
X112745D01*
X101681Y143699D02*
X112722D01*
X101681Y113099D02*
X112600D01*
X101681Y118499D02*
X112223D01*
X101681Y136499D02*
X112160D01*
X101681Y113999D02*
X112129D01*
X101681Y142799D02*
X112004D01*
X101681Y117599D02*
X111897D01*
X101681Y114899D02*
X111844D01*
X101681Y116699D02*
X111732D01*
X101681Y115799D02*
X111715D01*
X101681Y137399D02*
X111636D01*
X101681Y141899D02*
X111536D01*
X101681Y138299D02*
X111309D01*
X101681Y140999D02*
X111252D01*
X101681Y139199D02*
X111143D01*
X101681Y140099D02*
X111124D01*
X101681Y194099D02*
X110692D01*
X101681Y210299D02*
X108996D01*
X101681Y387599D02*
X108528D01*
X101681Y402899D02*
X108230D01*
X101681Y194999D02*
X107867D01*
X101681Y209399D02*
X107181D01*
X101681Y388499D02*
X106917D01*
X101681Y401999D02*
X106737D01*
X101681Y195899D02*
X106506D01*
X101681Y208499D02*
X106041D01*
X101681Y389399D02*
X105855D01*
X101681Y401099D02*
X105726D01*
X101681Y196799D02*
X105558D01*
X101681Y207599D02*
X105215D01*
X101681Y390299D02*
X105076D01*
X101681Y400199D02*
X104979D01*
X101681Y197699D02*
X104853D01*
X101681Y206699D02*
X104594D01*
X101681Y391199D02*
X104489D01*
X101681Y399299D02*
X104416D01*
X101681Y198599D02*
X104321D01*
X101681Y205799D02*
X104128D01*
X101681Y392099D02*
X104050D01*
X101681Y398399D02*
X103996D01*
X101681Y199499D02*
X103927D01*
X101681Y204899D02*
X103789D01*
X101681Y392999D02*
X103734D01*
X101681Y397499D02*
X103697D01*
X101681Y200399D02*
X103651D01*
X101681Y203999D02*
X103561D01*
X101681Y393899D02*
X103528D01*
X101681Y396599D02*
X103507D01*
X101681Y201299D02*
X103480D01*
X101681Y203099D02*
X103437D01*
X101681Y394799D02*
X103423D01*
X101681Y395699D02*
X103416D01*
X101681Y202199D02*
X103410D01*
X81996Y337199D02*
X98880D01*
X81996Y327299D02*
X98876D01*
X81996Y317399D02*
X98865D01*
X81996Y266099D02*
X98818D01*
X81996Y256199D02*
X98782D01*
X81996Y246299D02*
X98732D01*
X81996Y227399D02*
X98680D01*
X81996Y236399D02*
X98663D01*
X81996Y237299D02*
X98498D01*
X81996Y247199D02*
X98338D01*
X81996Y275999D02*
X98337D01*
X81996Y347099D02*
X98263D01*
X81996Y257099D02*
X98194D01*
X81996Y266999D02*
X98062D01*
X81996Y308399D02*
X97932D01*
X81996Y318299D02*
X97819D01*
X81996Y328199D02*
X97714D01*
X81996Y346199D02*
X97692D01*
X81996Y338099D02*
X97614D01*
X81996Y336299D02*
X97594D01*
X81996Y326399D02*
X97500D01*
X81996Y316499D02*
X97411D01*
X81996Y275099D02*
X97321D01*
X81996Y265199D02*
X97241D01*
X81996Y255299D02*
X97164D01*
X81996Y245399D02*
X97090D01*
X81996Y235499D02*
X97019D01*
X81996Y228299D02*
X96997D01*
X81996Y238199D02*
X96930D01*
X81996Y248099D02*
X96865D01*
X81996Y257999D02*
X96802D01*
X81996Y267899D02*
X96742D01*
X81996Y309299D02*
X96680D01*
X81996Y319199D02*
X96624D01*
X81996Y329099D02*
X96569D01*
X81996Y345299D02*
X96558D01*
X81996Y338999D02*
X96517D01*
X81996Y335399D02*
X96506D01*
X81996Y325499D02*
X96456D01*
X81996Y315599D02*
X96407D01*
X81996Y274199D02*
X96356D01*
X81996Y264299D02*
X96311D01*
X81996Y254399D02*
X96267D01*
X81996Y244499D02*
X96224D01*
X81996Y234599D02*
X96182D01*
X81996Y229199D02*
X96170D01*
X81996Y239099D02*
X96130D01*
X81996Y248999D02*
X96091D01*
X81996Y258899D02*
X96054D01*
X81996Y268799D02*
X96018D01*
X81996Y310199D02*
X95981D01*
X81996Y320099D02*
X95947D01*
X81996Y276899D02*
X95924D01*
X81996Y329999D02*
X95914D01*
X81996Y344399D02*
X95908D01*
X81996Y339899D02*
X95883D01*
X81996Y334499D02*
X95876D01*
X81996Y356099D02*
X95847D01*
X81996Y324599D02*
X95846D01*
X81996Y314699D02*
X95816D01*
X81996Y273299D02*
X95786D01*
X81996Y263399D02*
X95759D01*
X81996Y253499D02*
X95732D01*
X81996Y347999D02*
X95709D01*
X81996Y243599D02*
X95707D01*
X81996Y233699D02*
X95683D01*
X81996Y230099D02*
X95675D01*
X81996Y284999D02*
X95656D01*
X81996Y239999D02*
X95652D01*
X81996Y249899D02*
X95629D01*
X81996Y259799D02*
X95608D01*
X81996Y269699D02*
X95587D01*
X81996Y311099D02*
X95566D01*
X81996Y320999D02*
X95547D01*
X81996Y330899D02*
X95528D01*
X81996Y343499D02*
X95525D01*
X81996Y340799D02*
X95511D01*
X81996Y333599D02*
X95507D01*
X81996Y323699D02*
X95491D01*
X81996Y313799D02*
X95475D01*
X81996Y272399D02*
X95460D01*
X81996Y262499D02*
X95445D01*
X81996Y252599D02*
X95432D01*
X81996Y242699D02*
X95420D01*
X81996Y232799D02*
X95408D01*
X81996Y230999D02*
X95404D01*
X81996Y277799D02*
X95403D01*
X81996Y240899D02*
X95394D01*
X81996Y355199D02*
X95389D01*
X81996Y250799D02*
X95384D01*
X81996Y260699D02*
X95374D01*
X81996Y348899D02*
X95370D01*
X81996Y284099D02*
X95367D01*
X81996Y354299D02*
X95366D01*
X81996Y353399D02*
X95366D01*
X81996Y352499D02*
X95366D01*
X81996Y351599D02*
X95366D01*
X81996Y350699D02*
X95366D01*
X81996Y349799D02*
X95366D01*
X81996Y283199D02*
X95366D01*
X81996Y282299D02*
X95366D01*
X81996Y281399D02*
X95366D01*
X81996Y280499D02*
X95366D01*
X81996Y279599D02*
X95366D01*
X81996Y278699D02*
X95366D01*
X81996Y270599D02*
X95366D01*
X81996Y311999D02*
X95357D01*
X81996Y321899D02*
X95350D01*
X81996Y331799D02*
X95344D01*
X81996Y342599D02*
X95343D01*
X81996Y341699D02*
X95338D01*
X81996Y332699D02*
X95337D01*
X81996Y322799D02*
X95333D01*
X81996Y312899D02*
X95329D01*
X81996Y271499D02*
X95325D01*
X81996Y261599D02*
X95322D01*
X81996Y251699D02*
X95321D01*
X81996Y241799D02*
X95319D01*
X81996Y231899D02*
X95319D01*
X281102Y403150D02*
G03X277165Y407087I-3937J-0D01*
G01X103937*
G03X100000Y403150I0J-3937*
G01Y371654*
X96063Y367717D02*
G03X100000Y371654I-0J3937D01*
G01X96063Y367717D02*
X84252D01*
G03X80315Y363780I-0J-3937*
G01Y218110*
G03X84252Y214173I3937J0*
G01X96063*
X100000Y210236D02*
G03X96063Y214173I-3937J0D01*
G01X100000Y210236D02*
Y103937D01*
G03X103937Y100000I3937J0*
G01X143307*
G03X147244Y103937I0J3937*
G01Y172835*
X164961Y190551D02*
G03X147244Y172835I-0J-17716D01*
G01X164961Y190551D02*
X277165D01*
G03X281102Y194488I0J3937*
G01Y403150*
G54D42*
X103937Y103937D03*
X143307D03*
X103937Y147244D03*
X143307D03*
X103937Y171654D03*
Y180315D03*
X140945Y175197D03*
X103937Y188189D03*
X145669D03*
X122047Y200000D03*
X162992Y194488D03*
X190551D03*
X222047D03*
X257480D03*
X208661Y202362D03*
X206299Y209449D03*
X204724Y216535D03*
X219291D03*
X237008Y218898D03*
X237795Y211811D03*
X122835Y225197D03*
X204724D03*
X120866Y238583D03*
X162205Y234646D03*
X186614D03*
X207087Y232283D03*
X237008Y233858D03*
X113780Y248425D03*
X147244D03*
X221260Y247244D03*
X219843Y243307D03*
X250394Y247244D03*
X253543Y243307D03*
X129528Y255118D03*
X121654Y261417D03*
X168898Y258268D03*
X187795Y253543D03*
X200000Y254724D03*
X206299Y258268D03*
X235433Y254331D03*
X239370Y251969D03*
X242520Y253543D03*
X121654Y270866D03*
X144094Y262205D03*
X187402Y263386D03*
X222047Y268504D03*
X242520Y269291D03*
X176378Y280315D03*
X197638Y271654D03*
X192913Y280315D03*
X192126Y272441D03*
X217323Y276378D03*
X227559Y288898D03*
X240945Y288976D03*
X192126Y299213D03*
X209449Y292126D03*
X219606Y300787D03*
X221575Y297480D03*
X227559Y292913D03*
X126772Y310236D03*
X140157Y303937D03*
X143307D03*
X146457D03*
X197638Y307874D03*
X192913D03*
X211024Y308661D03*
X221496Y304567D03*
X140157Y319685D03*
Y316535D03*
X143307Y319685D03*
Y316535D03*
X151181Y314173D03*
X167717D03*
X177953Y315748D03*
X192913D03*
X209449Y317323D03*
X214173Y311811D03*
X233858Y318110D03*
X237008Y321260D03*
X237244Y315591D03*
X254331Y317323D03*
Y311811D03*
X149606Y330709D03*
X177165Y329921D03*
Y322835D03*
X192913Y329921D03*
Y322835D03*
X127559Y332283D03*
Y340157D03*
X137480Y337402D03*
X141732Y339370D03*
X152756Y333858D03*
X151969Y340157D03*
X192126Y337008D03*
X207874Y336220D03*
X217323D03*
X223622Y337008D03*
X234646Y334646D03*
X239370Y337008D03*
X243307Y335433D03*
X247244Y337008D03*
X253543D03*
X175591Y351181D03*
Y346457D03*
Y341732D03*
X116535Y355906D03*
X128346Y360630D03*
X159055Y357480D03*
X186220D03*
X200984D03*
X215945D03*
X230906Y357677D03*
X245866D03*
X132283Y370079D03*
X277165Y371654D03*
X103937Y383465D03*
X256693Y381890D03*
X277165Y387402D03*
X123622Y403150D03*
X162992D03*
X198425D03*
X241732D03*
X257480D03*
G54D43*
X125984Y181890D03*
Y188189D03*
X222835Y225984D03*
X156693Y281890D03*
Y288976D03*
Y296063D03*
G54D85*
G74*
X0Y0D02*
M02*
