*
*
G04 PADS 9.5 Build Number: 522968 generated Gerber (RS-274-X) file*
G04 PC Version=2.1*
*
%IN "MPD-MAIN_PCB_V1.0_20190"*%
*
%MOIN*%
*
%FSLAX35Y35*%
*
*
*
*
G04 PC Standard Apertures*
*
*
G04 Thermal Relief Aperture macro.*
%AMTER*
1,1,$1,0,0*
1,0,$1-$2,0,0*
21,0,$3,$4,0,0,45*
21,0,$3,$4,0,0,135*
%
*
*
G04 Annular Aperture macro.*
%AMANN*
1,1,$1,0,0*
1,0,$2,0,0*
%
*
*
G04 Odd Aperture macro.*
%AMODD*
1,1,$1,0,0*
1,0,$1-0.005,0,0*
%
*
*
G04 PC Custom Aperture Macros*
*
*
*
*
*
*
G04 PC Aperture Table*
*
%ADD010C,0.001*%
%ADD013C,0.07874*%
%ADD018R,0.05906X0.05906*%
%ADD019C,0.06*%
%ADD023O,0.17717X0.07874*%
%ADD024O,0.16535X0.07874*%
%ADD025O,0.07874X0.16535*%
%ADD033C,0.015*%
%ADD037C,0.01*%
%ADD042C,0.02953*%
%ADD043C,0.04724*%
%ADD085C,0.00004*%
*
*
*
*
G04 PC Circuitry*
G04 Layer Name MPD-MAIN_PCB_V1.0_20190 - circuitry*
%LPD*%
*
*
G04 PC Custom Flashes*
G04 Layer Name MPD-MAIN_PCB_V1.0_20190 - flashes*
%LPD*%
*
*
G04 PC Circuitry*
G04 Layer Name MPD-MAIN_PCB_V1.0_20190 - circuitry*
%LPD*%
*
G54D10*
G01X273396Y395315D02*
G75*
G03X273396I-4134J0D01*
G01Y202402D02*
G03X273396I-4134J0D01*
G01X115915Y395315D02*
G03X115915I-4133J0D01*
G01Y202402D02*
G03X115915I-4133J0D01*
G54D13*
G01X111782Y395315D03*
X269262D03*
X111782Y202402D03*
X269262D03*
G54D18*
X241732Y387402D03*
X161024D03*
X100000Y281102D03*
X265354Y228937D03*
X100000Y351969D03*
X265354Y268307D03*
Y308661D03*
G54D19*
X231890Y387402D03*
X222047D03*
X212205D03*
X202362D03*
X192520D03*
X151181D03*
X141339D03*
X100000Y271260D03*
Y261417D03*
Y251575D03*
Y241732D03*
Y231890D03*
X265354Y238780D03*
X100000Y342126D03*
Y332283D03*
Y322441D03*
Y312598D03*
X265354Y278150D03*
Y318504D03*
Y328346D03*
Y338189D03*
G54D23*
X121654Y139764D03*
G54D24*
Y116142D03*
G54D25*
X140157Y127953D03*
G54D33*
X104141Y347827D02*
X102088Y349881D01*
X95859Y347827D02*
X97912Y349881D01*
X95859Y356110D02*
X97912Y354056D01*
X104141Y356110D02*
X102088Y354056D01*
X237591Y383260D02*
X239644Y385314D01*
X237591Y391543D02*
X239644Y389489D01*
X245874Y391543D02*
X243820Y389489D01*
X245874Y383260D02*
X243820Y385314D01*
G54D37*
X244102Y288976D02*
G03X244102I-3157J0D01*
G01X223000Y243307D02*
G03X223000I-3157J0D01*
G01X225205Y268504D02*
G03X225205I-3158J0D01*
G01X246465Y335433D02*
G03X246465I-3158J0D01*
G01X249024Y357677D02*
G03X249024I-3158J0D01*
G01X237803Y334646D02*
G03X237803I-3157J0D01*
G01X220480Y276378D02*
G03X220480I-3157J0D01*
G01X226780Y337008D02*
G03X226780I-3158J0D01*
G01X210244Y232283D02*
G03X210244I-3157J0D01*
G01X209457Y258268D02*
G03X209457I-3158J0D01*
G01X212606Y292126D02*
G03X212606I-3157J0D01*
G01X211032Y336220D02*
G03X211032I-3158J0D01*
G01X200795Y271654D02*
G03X200795I-3157J0D01*
G01X190953Y253543D02*
G03X190953I-3158J0D01*
G01X190559Y263386D02*
G03X190559I-3157J0D01*
G01X195283Y299213D02*
G03X195283I-3157J0D01*
G01Y337008D02*
G03X195283I-3157J0D01*
G01X147252Y262205D02*
G03X147252I-3158J0D01*
G01X154339Y314173D02*
G03X154339I-3158J0D01*
G01X132685Y255118D02*
G03X132685I-3157J0D01*
G01X129929Y310236D02*
G03X129929I-3157J0D01*
G01X130717Y332283D02*
G03X130717I-3158J0D01*
G01Y340157D02*
G03X130717I-3158J0D01*
G01X259579Y377186D02*
Y384389D01*
G03X259432Y384742I-500J-0*
G01X249546Y394629*
G03X249192Y394776I-354J-353*
G01X237816*
G03X237462Y394629I-0J-500*
G01X236080Y393246*
G03X235933Y392893I353J-353*
G01Y389892*
G03X235995Y389652I500J0*
G01X236144Y389355D02*
G03X235995Y389652I-4254J-1953D01*
G01X236144Y389355D02*
G03X237098Y389563I454J208D01*
G01Y390354*
X238780Y392035D02*
G03X237098Y390354I-0J-1681D01*
G01X238780Y392035D02*
X244685D01*
X246366Y390354D02*
G03X244685Y392035I-1681J0D01*
G01X246366Y390354D02*
Y384449D01*
X244685Y382768D02*
G03X246366Y384449I0J1681D01*
G01X244685Y382768D02*
X238780D01*
X237098Y384449D02*
G03X238780Y382768I1682J-0D01*
G01X237098Y384449D02*
Y385240D01*
G03X236144Y385449I-500J-0*
G01X235995Y385151D02*
G03X236144Y385449I-4105J2251D01*
G01X235995Y385151D02*
G03X235933Y384911I438J-240D01*
G01Y356880*
X233672Y354618*
X231748*
G03X231633Y354605I0J-500*
G01X230178D02*
G03X231633I728J3072D01*
G01X230178D02*
G03X230063Y354618I-115J-487D01*
G01X217385*
G03X217188Y354578I-0J-500*
G01X214702D02*
G03X217188I1243J2902D01*
G01X214702D02*
G03X214505Y354618I-197J-460D01*
G01X202424*
G03X202227Y354578I0J-500*
G01X199741D02*
G03X202227I1243J2902D01*
G01X199741D02*
G03X199544Y354618I-197J-460D01*
G01X187660*
G03X187463Y354578I0J-500*
G01X184978D02*
G03X187463I1242J2902D01*
G01X184978D02*
G03X184781Y354618I-197J-460D01*
G01X170887*
G03X170533Y354472I-0J-500*
G01X169150Y353089*
G03X169004Y352735I354J-354*
G01Y334666*
G03X169150Y334313I500J0*
G01X170533Y332930*
G03X170887Y332783I354J353*
G01X175726*
G03X175922Y332824I-0J500*
G01X178408D02*
G03X175922I-1243J-2903D01*
G01X178408D02*
G03X178605Y332783I197J459D01*
G01X179892*
X182154Y330522*
Y233328*
G03X182300Y232974I500J-0*
G01X192974Y222300*
G03X193328Y222154I354J354*
G01X202096*
G03X202455Y223001I-0J500*
G01X206994D02*
G03X202455I-2270J2196D01*
G01X206994D02*
G03X207353Y222154I359J-347D01*
G01X237381*
G03X237735Y222300I0J500*
G01X252109Y236675*
G03X252256Y237028I-353J353*
G01Y240116*
G03X252000Y240552I-500J0*
G01X250397Y243577D02*
G03X252000Y240552I3146J-270D01*
G01X250397Y243577D02*
G03X249967Y244116I-498J43D01*
G01X251570Y250174D02*
G03X249967Y244116I-1176J-2930D01*
G01X251570Y250174D02*
G03X252256Y250638I186J464D01*
G01Y309213*
G03X252108Y309568I-500J0*
G01Y314054D02*
G03Y309569I2223J-2243D01*
G01Y314054D02*
G03X252256Y314409I-352J355D01*
G01Y314725*
G03X252108Y315080I-500J0*
G01Y319565D02*
G03Y315080I2223J-2242D01*
G01Y319565D02*
G03X252256Y319920I-352J355D01*
G01Y333817*
G03X252000Y334253I-500J-0*
G01Y339763D02*
G03Y334253I1543J-2755D01*
G01Y339763D02*
G03X252256Y340199I-244J436D01*
G01Y373042*
X254517Y375303*
X257696*
G03X258050Y375450I0J500*
G01X259432Y376832*
G03X259579Y377186I-353J354*
G01X161705Y241359D02*
Y348405D01*
G03X161558Y348758I-500J-0*
G01X136160Y374157*
G03X135806Y374303I-354J-354*
G01X129942*
G03X129588Y374157I-0J-500*
G01X128206Y372774*
G03X128059Y372420I353J-354*
G01Y364281*
G03X128530Y363782I500J0*
G01X125592Y359087D02*
G03X128530Y363782I2754J1543D01*
G01X125592Y359087D02*
G03X125155Y359343I-437J-244D01*
G01X118715*
G03X118417Y358441I0J-500*
G01X114654D02*
G03X118417I1881J-2535D01*
G01X114654D02*
G03X114356Y359343I-298J402D01*
G01X94509*
G03X94155Y359196I-0J-500*
G01X92772Y357813*
G03X92626Y357460I354J-353*
G01Y349627*
G03X92772Y349273I500J-0*
G01X94155Y347891*
G03X94509Y347744I354J353*
G01X95007*
G03X95475Y348421I0J500*
G01X95366Y349016D02*
G03X95475Y348421I1681J-0D01*
G01X95366Y349016D02*
Y354921D01*
X97047Y356602D02*
G03X95366Y354921I0J-1681D01*
G01X97047Y356602D02*
X102953D01*
X104634Y354921D02*
G03X102953Y356602I-1681J0D01*
G01X104634Y354921D02*
Y349016D01*
X104525Y348421D02*
G03X104634Y349016I-1572J595D01*
G01X104525Y348421D02*
G03X104993Y347744I468J-177D01*
G01X117924*
X120185Y345483*
Y274393*
G03X120817Y273911I500J0*
G01Y267821D02*
G03Y273911I837J3045D01*
G01Y267821D02*
G03X120185Y267339I-132J-482D01*
G01Y264944*
G03X120817Y264462I500J0*
G01Y258373D02*
G03Y264462I837J3044D01*
G01Y258373D02*
G03X120185Y257890I-132J-483D01*
G01Y242236*
G03X120710Y241736I500J-0*
G01Y235429D02*
G03Y241736I156J3154D01*
G01Y235429D02*
G03X120185Y234930I-25J-499D01*
G01Y228156*
G03X120979Y227751I500J-0*
G01Y222642D02*
G03Y227751I1856J2555D01*
G01Y222642D02*
G03X120185Y222238I-294J-404D01*
G01Y203394*
G03X120871Y202930I500J0*
G01Y197070D02*
G03Y202930I1176J2930D01*
G01Y197070D02*
G03X120185Y196606I-186J-464D01*
G01Y180335*
G03X120331Y179982I500J0*
G01X121714Y178599*
G03X122068Y178453I354J354*
G01X135413*
G03X135766Y178599I-0J500*
G01X137149Y179982*
G03X137295Y180335I-354J353*
G01Y237215*
X139557Y239476*
X159822*
G03X160176Y239623I0J500*
G01X161558Y241006*
G03X161705Y241359I-353J353*
G01X242398Y250388D02*
G03X239922Y255339I122J3155D01*
G01X242398Y250388D02*
G03X241967Y250173I-19J-499D01*
G01X236406Y250880D02*
G03X241967Y250173I2964J1089D01*
G01X236406Y250880D02*
G03X235868Y251203I-469J-172D01*
G01X238397Y255419D02*
G03X235868Y251203I-2964J-1088D01*
G01X238397Y255419D02*
G03X238935Y255096I470J172D01*
G01X239492Y255124D02*
G03X238935Y255096I-122J-3155D01*
G01X239492Y255124D02*
G03X239922Y255339I19J499D01*
G01X244102Y288976D02*
G03X244102I-3157J0D01*
G01X223000Y243307D02*
G03X223000I-3157J0D01*
G01X225205Y268504D02*
G03X225205I-3158J0D01*
G01X230198Y291180D02*
G03X224920I-2639J1733D01*
G01X230198D02*
G03Y290631I418J-274D01*
G01X224920D02*
G03X230198I2639J-1733D01*
G01X224920D02*
G03Y291180I-418J275D01*
G01X234243Y314609D02*
G03X239133Y318121I3001J982D01*
G01X234243Y314609D02*
G03X233780Y314954I-475J-155D01*
G01X233447Y321241D02*
G03X233780Y314954I411J-3131D01*
G01X233447Y321241D02*
G03X233877Y321671I-65J496D01*
G01X239101Y318896D02*
G03X233877Y321671I-2093J2364D01*
G01X239101Y318896D02*
G03X239133Y318121I331J-375D01*
G01X246465Y335433D02*
G03X246465I-3158J0D01*
G01X249024Y357677D02*
G03X249024I-3158J0D01*
G01X237803Y334646D02*
G03X237803I-3157J0D01*
G01X220480Y276378D02*
G03X220480I-3157J0D01*
G01X218418Y297534D02*
G03X223032Y300281I3157J-54D01*
G01X218418Y297534D02*
G03X218149Y297986I-500J9D01*
G01X218117Y303571D02*
G03X218149Y297986I1489J-2784D01*
G01X218117Y303571D02*
G03X218375Y304088I-236J441D01*
G01X222986Y301783D02*
G03X218375Y304088I-1490J2784D01*
G01X222986Y301783D02*
G03X222727Y301266I236J-441D01*
G01X222763Y300733D02*
G03X222727Y301266I-3157J54D01*
G01X222763Y300733D02*
G03X223032Y300281I500J-8D01*
G01X226780Y337008D02*
G03X226780I-3158J0D01*
G01X210244Y232283D02*
G03X210244I-3157J0D01*
G01X209457Y258268D02*
G03X209457I-3158J0D01*
G01X212606Y292126D02*
G03X212606I-3157J0D01*
G01X214585Y308680D02*
G03X212429Y314443I-412J3131D01*
G01X214585Y308680D02*
G03X214154Y308250I65J-495D01*
G01X210612Y311792D02*
G03X214154Y308250I412J-3131D01*
G01X210612Y311792D02*
G03X211043Y312223I-65J496D01*
G01X211839Y313937D02*
G03X211043Y312223I2334J-2126D01*
G01X211839Y313937D02*
G03X211953Y314401I-369J337D01*
X212429Y314443I200J459*
G01X211783Y315196D02*
G03X211193Y314691I-2334J2127D01*
G01X211783Y315196D02*
G03X211669Y314733I370J-336D01*
X211193Y314691I-199J-459*
G01X211032Y336220D02*
G03X211032I-3158J0D01*
G01X200795Y271654D02*
G03X200795I-3157J0D01*
G01X190953Y253543D02*
G03X190953I-3158J0D01*
G01X190559Y263386D02*
G03X190559I-3157J0D01*
G01X195283Y299213D02*
G03X195283I-3157J0D01*
G01X195599Y305463D02*
G03Y310285I2039J2411D01*
G01Y305463D02*
G03X194953I-323J-381D01*
G01Y310285D02*
G03Y305463I-2040J-2411D01*
G01Y310285D02*
G03X195599I323J381D01*
G01X195283Y337008D02*
G03X195283I-3157J0D01*
G01X147252Y262205D02*
G03X147252I-3158J0D01*
G01X145097Y301087D02*
G03Y306787I1360J2850D01*
G01Y301087D02*
G03X144667I-215J-451D01*
G01X141948D02*
G03X144667I1359J2850D01*
G01X141948D02*
G03X141517I-216J-451D01*
G01Y306787D02*
G03Y301087I-1360J-2850D01*
G01Y306787D02*
G03X141948I215J451D01*
G01X144667D02*
G03X141948I-1360J-2850D01*
G01X144667D02*
G03X145097I215J451D01*
G01X154339Y314173D02*
G03X154339I-3158J0D01*
G01X146157Y318326D02*
G03X141948Y322535I-2850J1359D01*
G01X146157Y318326D02*
G03Y317895I451J-216D01*
G01X141948Y313686D02*
G03X146157Y317895I1359J2849D01*
G01X141948Y313686D02*
G03X141517I-216J-452D01*
G01X137308Y317895D02*
G03X141517Y313686I2849J-1360D01*
G01X137308Y317895D02*
G03Y318326I-452J215D01*
G01X141517Y322535D02*
G03X137308Y318326I-1360J-2850D01*
G01X141517Y322535D02*
G03X141948I215J451D01*
G01X153167Y330728D02*
G03X153973Y336772I-411J3130D01*
G01X153167Y330728D02*
G03X152737Y330297I66J-496D01*
G01X149195Y333839D02*
G03X152737Y330297I411J-3130D01*
G01X149195Y333839D02*
G03X149625Y334270I-65J496D01*
G01X150859Y336383D02*
G03X149625Y334270I1897J-2525D01*
G01X150859Y336383D02*
G03X150752Y337244I-300J399D01*
G01X153865Y337633D02*
G03X150752Y337244I-1896J2524D01*
G01X153865Y337633D02*
G03X153973Y336772I300J-400D01*
G01X140916Y336320D02*
G03X138878Y340721I816J3050D01*
G01X140916Y336320D02*
G03X140334Y336051I-130J-483D01*
G01X138297Y340452D02*
G03X140334Y336051I-817J-3050D01*
G01X138297Y340452D02*
G03X138878Y340721I129J483D01*
G01X132685Y255118D02*
G03X132685I-3157J0D01*
G01X129929Y310236D02*
G03X129929I-3157J0D01*
G01X130717Y332283D02*
G03X130717I-3158J0D01*
G01Y340157D02*
G03X130717I-3158J0D01*
G01X246340Y384152D02*
X259579D01*
X245866Y383252D02*
X259579D01*
X235933Y382352D02*
X259579D01*
X235933Y381452D02*
X259579D01*
X235933Y380552D02*
X259579D01*
X235933Y379652D02*
X259579D01*
X235933Y378752D02*
X259579D01*
X235933Y377852D02*
X259579D01*
X235933Y376952D02*
X259521D01*
X246366Y385052D02*
X259123D01*
X235933Y376052D02*
X258652D01*
X246366Y385952D02*
X258223D01*
X246366Y386852D02*
X257323D01*
X246366Y387752D02*
X256423D01*
X246366Y388652D02*
X255523D01*
X246366Y389552D02*
X254623D01*
X235933Y375152D02*
X254366D01*
X246363Y390452D02*
X253723D01*
X235933Y374252D02*
X253466D01*
X246038Y391352D02*
X252823D01*
X235933Y373352D02*
X252566D01*
X235933Y372452D02*
X252256D01*
X235933Y371552D02*
X252256D01*
X235933Y370652D02*
X252256D01*
X235933Y369752D02*
X252256D01*
X235933Y368852D02*
X252256D01*
X235933Y367952D02*
X252256D01*
X235933Y367052D02*
X252256D01*
X235933Y366152D02*
X252256D01*
X235933Y365252D02*
X252256D01*
X235933Y364352D02*
X252256D01*
X235933Y363452D02*
X252256D01*
X235933Y362552D02*
X252256D01*
X235933Y361652D02*
X252256D01*
X246583Y360752D02*
X252256D01*
X248155Y359852D02*
X252256D01*
X248755Y358952D02*
X252256D01*
X249001Y358052D02*
X252256D01*
X248980Y357152D02*
X252256D01*
X248684Y356252D02*
X252256D01*
X248003Y355352D02*
X252256D01*
X216840Y354452D02*
X252256D01*
X169614Y353552D02*
X252256D01*
X169004Y352652D02*
X252256D01*
X169004Y351752D02*
X252256D01*
X169004Y350852D02*
X252256D01*
X169004Y349952D02*
X252256D01*
X169004Y349052D02*
X252256D01*
X169004Y348152D02*
X252256D01*
X169004Y347252D02*
X252256D01*
X169004Y346352D02*
X252256D01*
X169004Y345452D02*
X252256D01*
X169004Y344552D02*
X252256D01*
X169004Y343652D02*
X252256D01*
X169004Y342752D02*
X252256D01*
X169004Y341852D02*
X252256D01*
X169004Y340952D02*
X252256D01*
X245980Y333752D02*
X252256D01*
X245126Y332852D02*
X252256D01*
X236293Y331952D02*
X252256D01*
X181623Y331052D02*
X252256D01*
X182154Y330152D02*
X252256D01*
X182154Y329252D02*
X252256D01*
X182154Y328352D02*
X252256D01*
X182154Y327452D02*
X252256D01*
X182154Y326552D02*
X252256D01*
X182154Y325652D02*
X252256D01*
X182154Y324752D02*
X252256D01*
X238810Y323852D02*
X252256D01*
X239674Y322952D02*
X252256D01*
X240064Y322052D02*
X252256D01*
X240164Y321152D02*
X252256D01*
X240000Y320252D02*
X252256D01*
X214311Y308552D02*
X252256D01*
X222167Y307652D02*
X252256D01*
X223775Y306752D02*
X252256D01*
X224380Y305852D02*
X252256D01*
X224630Y304952D02*
X252256D01*
X224611Y304052D02*
X252256D01*
X224319Y303152D02*
X252256D01*
X223644Y302252D02*
X252256D01*
X222722Y301352D02*
X252256D01*
X222844Y300452D02*
X252256D01*
X223957Y299552D02*
X252256D01*
X224507Y298652D02*
X252256D01*
X224721Y297752D02*
X252256D01*
X224669Y296852D02*
X252256D01*
X228417Y295952D02*
X252256D01*
X229882Y295052D02*
X252256D01*
X230463Y294152D02*
X252256D01*
X230698Y293252D02*
X252256D01*
X230666Y292352D02*
X252256D01*
X242904Y291452D02*
X252256D01*
X243681Y290552D02*
X252256D01*
X244029Y289652D02*
X252256D01*
X244094Y288752D02*
X252256D01*
X243895Y287852D02*
X252256D01*
X243368Y286952D02*
X252256D01*
X242136Y286052D02*
X252256D01*
X182154Y285152D02*
X252256D01*
X182154Y284252D02*
X252256D01*
X182154Y283352D02*
X252256D01*
X182154Y282452D02*
X252256D01*
X182154Y281552D02*
X252256D01*
X182154Y280652D02*
X252256D01*
X182154Y279752D02*
X252256D01*
X219284Y278852D02*
X252256D01*
X220060Y277952D02*
X252256D01*
X220408Y277052D02*
X252256D01*
X220472Y276152D02*
X252256D01*
X220273Y275252D02*
X252256D01*
X219745Y274352D02*
X252256D01*
X218510Y273452D02*
X252256D01*
X200665Y272552D02*
X252256D01*
X222288Y271652D02*
X252256D01*
X224264Y270752D02*
X252256D01*
X224902Y269852D02*
X252256D01*
X225173Y268952D02*
X252256D01*
X225172Y268052D02*
X252256D01*
X224901Y267152D02*
X252256D01*
X224261Y266252D02*
X252256D01*
X222238Y265352D02*
X252256D01*
X190374Y264452D02*
X252256D01*
X190555Y263552D02*
X252256D01*
X190473Y262652D02*
X252256D01*
X190104Y261752D02*
X252256D01*
X208113Y260852D02*
X252256D01*
X208970Y259952D02*
X252256D01*
X209358Y259052D02*
X252256D01*
X209455Y258152D02*
X252256D01*
X236631Y257252D02*
X252256D01*
X243962Y256352D02*
X252256D01*
X245035Y255452D02*
X252256D01*
X245512Y254552D02*
X252256D01*
X245675Y253652D02*
X252256D01*
X245576Y252752D02*
X252256D01*
X245186Y251852D02*
X252256D01*
X244324Y250952D02*
X252256D01*
X182154Y239252D02*
X252256D01*
X182154Y238352D02*
X252256D01*
X182154Y237452D02*
X252256D01*
X219972Y240152D02*
X252255D01*
X240314Y314852D02*
X252239D01*
X224460Y340052D02*
X252234D01*
X216272Y309452D02*
X252195D01*
X239943Y313952D02*
X252010D01*
X182154Y236552D02*
X251987D01*
X235933Y392252D02*
X251923D01*
X239524Y319352D02*
X251912D01*
X240397Y315752D02*
X251592D01*
X216974Y310352D02*
X251530D01*
X246367Y334652D02*
X251441D01*
X239122Y313052D02*
X251427D01*
X238937Y318452D02*
X251382D01*
X222053Y241052D02*
X251333D01*
X240218Y316652D02*
X251245D01*
X225940Y339152D02*
X251226D01*
X217281Y311252D02*
X251223D01*
X217312Y312152D02*
X251192D01*
X239718Y317552D02*
X251182D01*
X182154Y235652D02*
X251087D01*
X236006Y393152D02*
X251023D01*
X246462Y335552D02*
X250741D01*
X222695Y241952D02*
X250691D01*
X244729Y338252D02*
X250641D01*
X246296Y336452D02*
X250435D01*
X222967Y242852D02*
X250419D01*
X245814Y337352D02*
X250405D01*
X222968Y243752D02*
X250381D01*
X209055Y234752D02*
X250187D01*
X236885Y394052D02*
X250123D01*
X209827Y233852D02*
X249287D01*
X241880Y250052D02*
X248950D01*
X222699Y244652D02*
X248590D01*
X210172Y232952D02*
X248387D01*
X240798Y249152D02*
X247878D01*
X222063Y245552D02*
X247728D01*
X210236Y232052D02*
X247487D01*
X182154Y248252D02*
X247401D01*
X220122Y246452D02*
X247337D01*
X182154Y247352D02*
X247238D01*
X210035Y231152D02*
X246587D01*
X209504Y230252D02*
X245687D01*
X235933Y360752D02*
X245149D01*
X208260Y229352D02*
X244787D01*
X186822Y228452D02*
X243887D01*
X234406Y355352D02*
X243730D01*
X235933Y359852D02*
X243577D01*
X235306Y356252D02*
X243048D01*
X206827Y227552D02*
X242987D01*
X235933Y358952D02*
X242978D01*
X235933Y357152D02*
X242753D01*
X235933Y358052D02*
X242731D01*
X207526Y226652D02*
X242087D01*
X226524Y338252D02*
X241885D01*
X237244Y332852D02*
X241488D01*
X207833Y225752D02*
X241187D01*
X237859Y256352D02*
X241078D01*
X236272Y337352D02*
X240800D01*
X237674Y333752D02*
X240634D01*
X237235Y336452D02*
X240319D01*
X207863Y224852D02*
X240287D01*
X237803Y334652D02*
X240248D01*
X237670Y335552D02*
X240152D01*
X238385Y255452D02*
X240005D01*
X228928Y286052D02*
X239754D01*
X207626Y223952D02*
X239387D01*
X230358Y291452D02*
X238985D01*
X230046Y286952D02*
X238522D01*
X207042Y223052D02*
X238487D01*
X230248Y290552D02*
X238209D01*
X230538Y287852D02*
X237994D01*
X182154Y249152D02*
X237942D01*
X230625Y289652D02*
X237861D01*
X230713Y288752D02*
X237795D01*
X235933Y383252D02*
X237599D01*
X235933Y391352D02*
X237427D01*
X235933Y384152D02*
X237125D01*
X235933Y390452D02*
X237101D01*
X235953Y385052D02*
X237098D01*
X236048Y389552D02*
X237098D01*
X182154Y250052D02*
X236861D01*
X189600Y250952D02*
X236373D01*
X217077Y313052D02*
X235366D01*
X182154Y323852D02*
X235205D01*
X216494Y313952D02*
X234545D01*
X182154Y322952D02*
X234342D01*
X209289Y257252D02*
X234235D01*
X215022Y314852D02*
X234070D01*
X182154Y322052D02*
X233951D01*
X190462Y251852D02*
X233477D01*
X226761Y337352D02*
X233020D01*
X182154Y321152D02*
X233012D01*
X208809Y256352D02*
X233008D01*
X180723Y331952D02*
X232998D01*
X190852Y252752D02*
X232698D01*
X207728Y255452D02*
X232481D01*
X190951Y253652D02*
X232349D01*
X190787Y254552D02*
X232283D01*
X226730Y336452D02*
X232056D01*
X178340Y332852D02*
X232047D01*
X212188Y315752D02*
X231758D01*
X226424Y335552D02*
X231621D01*
X209843Y333752D02*
X231617D01*
X210627Y320252D02*
X231538D01*
X225725Y334652D02*
X231488D01*
X212534Y316652D02*
X231058D01*
X211868Y319352D02*
X230955D01*
X212598Y317552D02*
X230750D01*
X212397Y318452D02*
X230719D01*
X224338Y295952D02*
X226702D01*
X182154Y286052D02*
X226190D01*
X223593Y295052D02*
X225236D01*
X182154Y286952D02*
X225072D01*
X212186Y290552D02*
X224870D01*
X212534Y291452D02*
X224760D01*
X211870Y294152D02*
X224655D01*
X182154Y287852D02*
X224580D01*
X211411Y289652D02*
X224493D01*
X212598Y292352D02*
X224452D01*
X212399Y293252D02*
X224420D01*
X182154Y288752D02*
X224405D01*
X192964Y340052D02*
X222784D01*
X189872Y265352D02*
X221856D01*
X200795Y271652D02*
X221806D01*
X210615Y334652D02*
X221519D01*
X209046Y339152D02*
X221304D01*
X214016Y307652D02*
X220825D01*
X210960Y335552D02*
X220820D01*
X210291Y338252D02*
X220720D01*
X211023Y336452D02*
X220514D01*
X210822Y337352D02*
X220483D01*
X188726Y266252D02*
X219834D01*
X200664Y270752D02*
X219830D01*
X182154Y240152D02*
X219713D01*
X182154Y246452D02*
X219563D01*
X210635Y295052D02*
X219556D01*
X213539Y306752D02*
X219217D01*
X182154Y267152D02*
X219194D01*
X200231Y269852D02*
X219192D01*
X182154Y268052D02*
X218922D01*
X199273Y268952D02*
X218922D01*
X182154Y295952D02*
X218812D01*
X212465Y305852D02*
X218612D01*
X194223Y296852D02*
X218480D01*
X182154Y304052D02*
X218379D01*
X194925Y297752D02*
X218372D01*
X198835Y304952D02*
X218362D01*
X182154Y241052D02*
X217632D01*
X182154Y245552D02*
X217622D01*
X182154Y303152D02*
X217514D01*
X195233Y298652D02*
X217280D01*
X182154Y241952D02*
X216990D01*
X182154Y244652D02*
X216986D01*
X192981Y302252D02*
X216809D01*
X182154Y242852D02*
X216718D01*
X182154Y243752D02*
X216717D01*
X195265Y299552D02*
X216700D01*
X194448Y301352D02*
X216500D01*
X195030Y300452D02*
X216467D01*
X200233Y273452D02*
X216135D01*
X182154Y278852D02*
X215361D01*
X201879Y354452D02*
X215050D01*
X199277Y274352D02*
X214901D01*
X182154Y277952D02*
X214586D01*
X182154Y275252D02*
X214373D01*
X182154Y277052D02*
X214238D01*
X182154Y276152D02*
X214173D01*
X211653Y314852D02*
X213324D01*
X182154Y313952D02*
X211852D01*
X182154Y313052D02*
X211270D01*
X182154Y312152D02*
X211028D01*
X200063Y305852D02*
X209582D01*
X182154Y311252D02*
X209219D01*
X200589Y306752D02*
X208509D01*
X199594Y310352D02*
X208357D01*
X182154Y320252D02*
X208270D01*
X182154Y295052D02*
X208263D01*
X200787Y307652D02*
X208032D01*
X200373Y309452D02*
X207967D01*
X200722Y308552D02*
X207868D01*
X182154Y289652D02*
X207487D01*
X182154Y314852D02*
X207483D01*
X182154Y319352D02*
X207030D01*
X182154Y294152D02*
X207027D01*
X182154Y290552D02*
X206711D01*
X182154Y315752D02*
X206710D01*
X194444Y339152D02*
X206702D01*
X182154Y318452D02*
X206500D01*
X182154Y293252D02*
X206499D01*
X182154Y291452D02*
X206364D01*
X182154Y316652D02*
X206363D01*
X182154Y317552D02*
X206300D01*
X182154Y292352D02*
X206299D01*
X185922Y229352D02*
X205913D01*
X169711Y333752D02*
X205905D01*
X195028Y338252D02*
X205457D01*
X194229Y334652D02*
X205133D01*
X182154Y234752D02*
X205118D01*
X195265Y337352D02*
X204926D01*
X190310Y255452D02*
X204870D01*
X194928Y335552D02*
X204788D01*
X195234Y336452D02*
X204725D01*
X185022Y230252D02*
X204669D01*
X189286Y260852D02*
X204485D01*
X182154Y233852D02*
X204346D01*
X184122Y231152D02*
X204139D01*
X182322Y232952D02*
X204001D01*
X183222Y232052D02*
X203938D01*
X189237Y256352D02*
X203789D01*
X182154Y259952D02*
X203629D01*
X182154Y257252D02*
X203309D01*
X182154Y259052D02*
X203241D01*
X182154Y258152D02*
X203144D01*
X187722Y227552D02*
X202622D01*
X192222Y223052D02*
X202407D01*
X188622Y226652D02*
X201922D01*
X191322Y223952D02*
X201823D01*
X189522Y225752D02*
X201616D01*
X190422Y224852D02*
X201586D01*
X187115Y354452D02*
X200090D01*
X194110Y304952D02*
X196441D01*
X182154Y268952D02*
X196003D01*
X182154Y274352D02*
X195999D01*
X194870Y310352D02*
X195681D01*
X182154Y269852D02*
X195045D01*
X182154Y273452D02*
X195043D01*
X182154Y270752D02*
X194612D01*
X182154Y272552D02*
X194611D01*
X182154Y271652D02*
X194480D01*
X182154Y304952D02*
X191716D01*
X169004Y340052D02*
X191288D01*
X182154Y302252D02*
X191271D01*
X182154Y310352D02*
X190957D01*
X182154Y305852D02*
X190488D01*
X182154Y309452D02*
X190179D01*
X182154Y296852D02*
X190029D01*
X169004Y334652D02*
X190023D01*
X182154Y306752D02*
X189962D01*
X182154Y308552D02*
X189830D01*
X169004Y339152D02*
X189808D01*
X182154Y301352D02*
X189804D01*
X182154Y307652D02*
X189764D01*
X182154Y297752D02*
X189326D01*
X169004Y335552D02*
X189324D01*
X169004Y338252D02*
X189224D01*
X182154Y300452D02*
X189222D01*
X182154Y298652D02*
X189019D01*
X169004Y336452D02*
X189018D01*
X169004Y337352D02*
X188987D01*
X182154Y299552D02*
X188987D01*
X182154Y256352D02*
X186353D01*
X182154Y266252D02*
X186077D01*
X182154Y250952D02*
X185991D01*
X182154Y260852D02*
X185517D01*
X170514Y354452D02*
X185326D01*
X182154Y255452D02*
X185280D01*
X182154Y251852D02*
X185129D01*
X182154Y265352D02*
X184931D01*
X182154Y254552D02*
X184803D01*
X182154Y252752D02*
X184738D01*
X182154Y261752D02*
X184700D01*
X182154Y253652D02*
X184640D01*
X182154Y264452D02*
X184430D01*
X182154Y262652D02*
X184330D01*
X182154Y263552D02*
X184248D01*
X170634Y332852D02*
X175991D01*
X118016Y347651D02*
X161705D01*
X118916Y346751D02*
X161705D01*
X119816Y345851D02*
X161705D01*
X120185Y344951D02*
X161705D01*
X120185Y344051D02*
X161705D01*
X152971Y343151D02*
X161705D01*
X154332Y342251D02*
X161705D01*
X154892Y341351D02*
X161705D01*
X155112Y340451D02*
X161705D01*
X155067Y339551D02*
X161705D01*
X154744Y338651D02*
X161705D01*
X154013Y337751D02*
X161705D01*
X153843Y336851D02*
X161705D01*
X155120Y335951D02*
X161705D01*
X155679Y335051D02*
X161705D01*
X155900Y334151D02*
X161705D01*
X155855Y333251D02*
X161705D01*
X155531Y332351D02*
X161705D01*
X154800Y331451D02*
X161705D01*
X152848Y330551D02*
X161705D01*
X152582Y329651D02*
X161705D01*
X152084Y328751D02*
X161705D01*
X150950Y327851D02*
X161705D01*
X120185Y326951D02*
X161705D01*
X120185Y326051D02*
X161705D01*
X120185Y325151D02*
X161705D01*
X120185Y324251D02*
X161705D01*
X120185Y323351D02*
X161705D01*
X144829Y322451D02*
X161705D01*
X145854Y321551D02*
X161705D01*
X146313Y320651D02*
X161705D01*
X146464Y319751D02*
X161705D01*
X146353Y318851D02*
X161705D01*
X146134Y317951D02*
X161705D01*
X152479Y317051D02*
X161705D01*
X153642Y316151D02*
X161705D01*
X154149Y315251D02*
X161705D01*
X154334Y314351D02*
X161705D01*
X154255Y313451D02*
X161705D01*
X153890Y312551D02*
X161705D01*
X153081Y311651D02*
X161705D01*
X129887Y310751D02*
X161705D01*
X129906Y309851D02*
X161705D01*
X129656Y308951D02*
X161705D01*
X129051Y308051D02*
X161705D01*
X127445Y307151D02*
X161705D01*
X148605Y306251D02*
X161705D01*
X149280Y305351D02*
X161705D01*
X149572Y304451D02*
X161705D01*
X149591Y303551D02*
X161705D01*
X149341Y302651D02*
X161705D01*
X148736Y301751D02*
X161705D01*
X147127Y300851D02*
X161705D01*
X120185Y299951D02*
X161705D01*
X120185Y299051D02*
X161705D01*
X120185Y298151D02*
X161705D01*
X120185Y297251D02*
X161705D01*
X120185Y296351D02*
X161705D01*
X120185Y295451D02*
X161705D01*
X120185Y294551D02*
X161705D01*
X120185Y293651D02*
X161705D01*
X120185Y292751D02*
X161705D01*
X120185Y291851D02*
X161705D01*
X120185Y290951D02*
X161705D01*
X120185Y290051D02*
X161705D01*
X120185Y289151D02*
X161705D01*
X120185Y288251D02*
X161705D01*
X120185Y287351D02*
X161705D01*
X120185Y286451D02*
X161705D01*
X120185Y285551D02*
X161705D01*
X120185Y284651D02*
X161705D01*
X120185Y283751D02*
X161705D01*
X120185Y282851D02*
X161705D01*
X120185Y281951D02*
X161705D01*
X120185Y281051D02*
X161705D01*
X120185Y280151D02*
X161705D01*
X120185Y279251D02*
X161705D01*
X120185Y278351D02*
X161705D01*
X120185Y277451D02*
X161705D01*
X120185Y276551D02*
X161705D01*
X120185Y275651D02*
X161705D01*
X120185Y274751D02*
X161705D01*
X122682Y273851D02*
X161705D01*
X124024Y272951D02*
X161705D01*
X124580Y272051D02*
X161705D01*
X124798Y271151D02*
X161705D01*
X124751Y270251D02*
X161705D01*
X124424Y269351D02*
X161705D01*
X123688Y268451D02*
X161705D01*
X120232Y267551D02*
X161705D01*
X120185Y266651D02*
X161705D01*
X120185Y265751D02*
X161705D01*
X145816Y264851D02*
X161705D01*
X146725Y263951D02*
X161705D01*
X147136Y263051D02*
X161705D01*
X147252Y262151D02*
X161705D01*
X147105Y261251D02*
X161705D01*
X146651Y260351D02*
X161705D01*
X145640Y259451D02*
X161705D01*
X122979Y258551D02*
X161705D01*
X131412Y257651D02*
X161705D01*
X132230Y256751D02*
X161705D01*
X132599Y255851D02*
X161705D01*
X132681Y254951D02*
X161705D01*
X132499Y254051D02*
X161705D01*
X131998Y253151D02*
X161705D01*
X130851Y252251D02*
X161705D01*
X120185Y251351D02*
X161705D01*
X120185Y250451D02*
X161705D01*
X120185Y249551D02*
X161705D01*
X120185Y248651D02*
X161705D01*
X120185Y247751D02*
X161705D01*
X120185Y246851D02*
X161705D01*
X120185Y245951D02*
X161705D01*
X120185Y245051D02*
X161705D01*
X120185Y244151D02*
X161705D01*
X120185Y243251D02*
X161705D01*
X120185Y242351D02*
X161705D01*
X122185Y241451D02*
X161705D01*
X104568Y348551D02*
X161683D01*
X123335Y240551D02*
X161104D01*
X104634Y349451D02*
X160865D01*
X123837Y239651D02*
X160204D01*
X104634Y350351D02*
X159965D01*
X104634Y351251D02*
X159065D01*
X104634Y352151D02*
X158165D01*
X117886Y353051D02*
X157265D01*
X119016Y353951D02*
X156365D01*
X119512Y354851D02*
X155465D01*
X119689Y355751D02*
X154565D01*
X119604Y356651D02*
X153665D01*
X129048Y357551D02*
X152765D01*
X130632Y358451D02*
X151865D01*
X143637Y336851D02*
X151054D01*
X128562Y343151D02*
X150966D01*
X131234Y359351D02*
X150965D01*
X140285Y335951D02*
X150392D01*
X131481Y360251D02*
X150065D01*
X144443Y337751D02*
X149924D01*
X146422Y317051D02*
X149883D01*
X139589Y335051D02*
X149833D01*
X143024Y342251D02*
X149605D01*
X130105Y334151D02*
X149595D01*
X129594Y311651D02*
X149281D01*
X144807Y338651D02*
X149193D01*
X131461Y361151D02*
X149165D01*
X144191Y341351D02*
X149045D01*
X144885Y339551D02*
X148870D01*
X144699Y340451D02*
X148825D01*
X146441Y316151D02*
X148720D01*
X128919Y312551D02*
X148472D01*
X131166Y362051D02*
X148265D01*
X120185Y327851D02*
X148262D01*
X146192Y315251D02*
X148213D01*
X143984Y313451D02*
X148107D01*
X145587Y314351D02*
X148029D01*
X130565Y333251D02*
X147734D01*
X130487Y362951D02*
X147365D01*
X120185Y328751D02*
X147129D01*
X130716Y332351D02*
X146910D01*
X129303Y329651D02*
X146631D01*
X130605Y331451D02*
X146537D01*
X128304Y363851D02*
X146465D01*
X130199Y330551D02*
X146453D01*
X143977Y300851D02*
X145787D01*
X128059Y364751D02*
X145565D01*
X128059Y365651D02*
X144665D01*
X128059Y366551D02*
X143765D01*
X128059Y367451D02*
X142865D01*
X140828Y300851D02*
X142637D01*
X140835Y313451D02*
X142630D01*
X124124Y259451D02*
X142549D01*
X120194Y264851D02*
X142373D01*
X128059Y368351D02*
X141965D01*
X124626Y260351D02*
X141538D01*
X123537Y263951D02*
X141464D01*
X124807Y261251D02*
X141084D01*
X128059Y369251D02*
X141065D01*
X124355Y263051D02*
X141053D01*
X124725Y262151D02*
X140937D01*
X129922Y342251D02*
X140441D01*
X128059Y370151D02*
X140165D01*
X120185Y300851D02*
X139487D01*
X120185Y313451D02*
X139480D01*
X130482Y341351D02*
X139274D01*
X128059Y371051D02*
X139265D01*
X124019Y238751D02*
X138832D01*
X120185Y322451D02*
X138635D01*
X138298Y340451D02*
X138555D01*
X128059Y371951D02*
X138365D01*
X120185Y306251D02*
X138010D01*
X123938Y237851D02*
X137932D01*
X120185Y301751D02*
X137879D01*
X120185Y314351D02*
X137877D01*
X120185Y321551D02*
X137611D01*
X128283Y372851D02*
X137465D01*
X120185Y305351D02*
X137335D01*
X120185Y317951D02*
X137330D01*
X123570Y236951D02*
X137295D01*
X122754Y236051D02*
X137295D01*
X120237Y235151D02*
X137295D01*
X120185Y234251D02*
X137295D01*
X120185Y233351D02*
X137295D01*
X120185Y232451D02*
X137295D01*
X120185Y231551D02*
X137295D01*
X120185Y230651D02*
X137295D01*
X120185Y229751D02*
X137295D01*
X120185Y228851D02*
X137295D01*
X124378Y227951D02*
X137295D01*
X125390Y227051D02*
X137295D01*
X125844Y226151D02*
X137295D01*
X125992Y225251D02*
X137295D01*
X125877Y224351D02*
X137295D01*
X125466Y223451D02*
X137295D01*
X124558Y222551D02*
X137295D01*
X120185Y221651D02*
X137295D01*
X120185Y220751D02*
X137295D01*
X120185Y219851D02*
X137295D01*
X120185Y218951D02*
X137295D01*
X120185Y218051D02*
X137295D01*
X120185Y217151D02*
X137295D01*
X120185Y216251D02*
X137295D01*
X120185Y215351D02*
X137295D01*
X120185Y214451D02*
X137295D01*
X120185Y213551D02*
X137295D01*
X120185Y212651D02*
X137295D01*
X120185Y211751D02*
X137295D01*
X120185Y210851D02*
X137295D01*
X120185Y209951D02*
X137295D01*
X120185Y209051D02*
X137295D01*
X120185Y208151D02*
X137295D01*
X120185Y207251D02*
X137295D01*
X120185Y206351D02*
X137295D01*
X120185Y205451D02*
X137295D01*
X120185Y204551D02*
X137295D01*
X120185Y203651D02*
X137295D01*
X123596Y202751D02*
X137295D01*
X124605Y201851D02*
X137295D01*
X125058Y200951D02*
X137295D01*
X125204Y200051D02*
X137295D01*
X125089Y199151D02*
X137295D01*
X124676Y198251D02*
X137295D01*
X123766Y197351D02*
X137295D01*
X120185Y196451D02*
X137295D01*
X120185Y195551D02*
X137295D01*
X120185Y194651D02*
X137295D01*
X120185Y193751D02*
X137295D01*
X120185Y192851D02*
X137295D01*
X120185Y191951D02*
X137295D01*
X120185Y191051D02*
X137295D01*
X120185Y190151D02*
X137295D01*
X120185Y189251D02*
X137295D01*
X120185Y188351D02*
X137295D01*
X120185Y187451D02*
X137295D01*
X120185Y186551D02*
X137295D01*
X120185Y185651D02*
X137295D01*
X120185Y184751D02*
X137295D01*
X120185Y183851D02*
X137295D01*
X120185Y182951D02*
X137295D01*
X120185Y182051D02*
X137295D01*
X120185Y181151D02*
X137295D01*
X120192Y180251D02*
X137288D01*
X120185Y302651D02*
X137274D01*
X120185Y315251D02*
X137273D01*
X120185Y320651D02*
X137152D01*
X120185Y318851D02*
X137112D01*
X120185Y317051D02*
X137042D01*
X120185Y304451D02*
X137042D01*
X120185Y303551D02*
X137024D01*
X120185Y316151D02*
X137023D01*
X120185Y319751D02*
X137001D01*
X130703Y340451D02*
X136663D01*
X129183Y373751D02*
X136565D01*
X120962Y179351D02*
X136518D01*
X129078Y335051D02*
X135372D01*
X130658Y339551D02*
X135168D01*
X120185Y335951D02*
X134676D01*
X130334Y338651D02*
X134581D01*
X120185Y336851D02*
X134371D01*
X129604Y337751D02*
X134342D01*
X120185Y252251D02*
X128204D01*
X119230Y357551D02*
X127644D01*
X120185Y257651D02*
X127643D01*
X120185Y253151D02*
X127057D01*
X120185Y256751D02*
X126825D01*
X120185Y343151D02*
X126556D01*
X120185Y254051D02*
X126556D01*
X120185Y255851D02*
X126456D01*
X120185Y254951D02*
X126374D01*
X120185Y307151D02*
X126098D01*
X118404Y358451D02*
X126061D01*
X120185Y335051D02*
X126040D01*
X120185Y329651D02*
X125815D01*
X120185Y337751D02*
X125514D01*
X120185Y342251D02*
X125196D01*
X120185Y334151D02*
X125013D01*
X120185Y330551D02*
X124919D01*
X120185Y338651D02*
X124784D01*
X120185Y341351D02*
X124636D01*
X120185Y312551D02*
X124625D01*
X120185Y333251D02*
X124554D01*
X120185Y331451D02*
X124513D01*
X120185Y308051D02*
X124492D01*
X120185Y339551D02*
X124460D01*
X120185Y340451D02*
X124415D01*
X120185Y332351D02*
X124402D01*
X120185Y311651D02*
X123949D01*
X120185Y308951D02*
X123887D01*
X120185Y310751D02*
X123656D01*
X120185Y309851D02*
X123638D01*
X120229Y227951D02*
X121291D01*
X120296Y222551D02*
X121111D01*
X104634Y353051D02*
X115185D01*
X93411Y358451D02*
X114667D01*
X104634Y353951D02*
X114055D01*
X92634Y357551D02*
X113841D01*
X104634Y354851D02*
X113559D01*
X92626Y356651D02*
X113467D01*
X104415Y355751D02*
X113382D01*
X92626D02*
X95585D01*
X93494Y348551D02*
X95432D01*
X92626Y354851D02*
X95366D01*
X92626Y353951D02*
X95366D01*
X92626Y353051D02*
X95366D01*
X92626Y352151D02*
X95366D01*
X92626Y351251D02*
X95366D01*
X92626Y350351D02*
X95366D01*
X92658Y349451D02*
X95366D01*
X281102Y403150D02*
G03X277165Y407087I-3937J-0D01*
G01X103937*
G03X100000Y403150I0J-3937*
G01Y371654*
X96063Y367717D02*
G03X100000Y371654I-0J3937D01*
G01X96063Y367717D02*
X84252D01*
G03X80315Y363780I-0J-3937*
G01Y218110*
G03X84252Y214173I3937J0*
G01X96063*
X100000Y210236D02*
G03X96063Y214173I-3937J0D01*
G01X100000Y210236D02*
Y103937D01*
G03X103937Y100000I3937J0*
G01X143307*
G03X147244Y103937I0J3937*
G01Y172835*
X164961Y190551D02*
G03X147244Y172835I-0J-17716D01*
G01X164961Y190551D02*
X277165D01*
G03X281102Y194488I0J3937*
G01Y403150*
G54D42*
X103937Y103937D03*
X143307D03*
X103937Y147244D03*
X143307D03*
X103937Y171654D03*
Y180315D03*
X140945Y175197D03*
X103937Y188189D03*
X145669D03*
X122047Y200000D03*
X162992Y194488D03*
X190551D03*
X222047D03*
X257480D03*
X208661Y202362D03*
X206299Y209449D03*
X204724Y216535D03*
X219291D03*
X237008Y218898D03*
X237795Y211811D03*
X122835Y225197D03*
X204724D03*
X120866Y238583D03*
X162205Y234646D03*
X186614D03*
X207087Y232283D03*
X237008Y233858D03*
X113780Y248425D03*
X147244D03*
X221260Y247244D03*
X219843Y243307D03*
X250394Y247244D03*
X253543Y243307D03*
X129528Y255118D03*
X121654Y261417D03*
X168898Y258268D03*
X187795Y253543D03*
X200000Y254724D03*
X206299Y258268D03*
X235433Y254331D03*
X239370Y251969D03*
X242520Y253543D03*
X121654Y270866D03*
X144094Y262205D03*
X187402Y263386D03*
X222047Y268504D03*
X242520Y269291D03*
X176378Y280315D03*
X197638Y271654D03*
X192913Y280315D03*
X192126Y272441D03*
X217323Y276378D03*
X227559Y288898D03*
X240945Y288976D03*
X192126Y299213D03*
X209449Y292126D03*
X219606Y300787D03*
X221575Y297480D03*
X227559Y292913D03*
X126772Y310236D03*
X140157Y303937D03*
X143307D03*
X146457D03*
X197638Y307874D03*
X192913D03*
X211024Y308661D03*
X221496Y304567D03*
X140157Y319685D03*
Y316535D03*
X143307Y319685D03*
Y316535D03*
X151181Y314173D03*
X167717D03*
X177953Y315748D03*
X192913D03*
X209449Y317323D03*
X214173Y311811D03*
X233858Y318110D03*
X237008Y321260D03*
X237244Y315591D03*
X254331Y317323D03*
Y311811D03*
X149606Y330709D03*
X177165Y329921D03*
Y322835D03*
X192913Y329921D03*
Y322835D03*
X127559Y332283D03*
Y340157D03*
X137480Y337402D03*
X141732Y339370D03*
X152756Y333858D03*
X151969Y340157D03*
X192126Y337008D03*
X207874Y336220D03*
X217323D03*
X223622Y337008D03*
X234646Y334646D03*
X239370Y337008D03*
X243307Y335433D03*
X247244Y337008D03*
X253543D03*
X175591Y351181D03*
Y346457D03*
Y341732D03*
X116535Y355906D03*
X128346Y360630D03*
X159055Y357480D03*
X186220D03*
X200984D03*
X215945D03*
X230906Y357677D03*
X245866D03*
X132283Y370079D03*
X277165Y371654D03*
X103937Y383465D03*
X256693Y381890D03*
X277165Y387402D03*
X123622Y403150D03*
X162992D03*
X198425D03*
X241732D03*
X257480D03*
G54D43*
X125984Y181890D03*
Y188189D03*
X222835Y225984D03*
X156693Y281890D03*
Y288976D03*
Y296063D03*
G54D85*
G74*
X0Y0D02*
M02*
