*
*
G04 PADS 9.5 Build Number: 522968 generated Gerber (RS-274-X) file*
G04 PC Version=2.1*
*
%IN "MPD-MAIN_PCB_V1.0_20190"*%
*
%MOIN*%
*
%FSLAX35Y35*%
*
*
*
*
G04 PC Standard Apertures*
*
*
G04 Thermal Relief Aperture macro.*
%AMTER*
1,1,$1,0,0*
1,0,$1-$2,0,0*
21,0,$3,$4,0,0,45*
21,0,$3,$4,0,0,135*
%
*
*
G04 Annular Aperture macro.*
%AMANN*
1,1,$1,0,0*
1,0,$2,0,0*
%
*
*
G04 Odd Aperture macro.*
%AMODD*
1,1,$1,0,0*
1,0,$1-0.005,0,0*
%
*
*
G04 PC Custom Aperture Macros*
*
*
*
*
*
*
G04 PC Aperture Table*
*
%ADD010C,0.001*%
%ADD037C,0.01*%
*
*
*
*
G04 PC Circuitry*
G04 Layer Name MPD-MAIN_PCB_V1.0_20190 - circuitry*
%LPD*%
*
*
G04 PC Custom Flashes*
G04 Layer Name MPD-MAIN_PCB_V1.0_20190 - flashes*
%LPD*%
*
*
G04 PC Circuitry*
G04 Layer Name MPD-MAIN_PCB_V1.0_20190 - circuitry*
%LPD*%
*
G54D10*
G01X273396Y395315D02*
G75*
G03X273396I-4134J0D01*
G01Y202402D02*
G03X273396I-4134J0D01*
G01X115915Y395315D02*
G03X115915I-4133J0D01*
G01Y202402D02*
G03X115915I-4133J0D01*
G01X100000Y100000D02*
X100003D01*
X100000Y407087D02*
X100003D01*
X100000D02*
X100003D01*
X281102D02*
X281105D01*
X100000Y100000D02*
X100003D01*
X147244D02*
X147247D01*
G54D37*
X122181Y135764D02*
X130181Y143764D01*
X122181D02*
X130181Y135764D01*
X113126D02*
X121126Y143764D01*
X113126D02*
X121126Y135764D01*
X126181Y137402D02*
G03Y142126I0J2362D01*
G01X117126*
G03Y137402I-0J-2362*
G01X126181*
X122181Y112142D02*
X130181Y120142D01*
X122181D02*
X130181Y112142D01*
X113126D02*
X121126Y120142D01*
X113126D02*
X121126Y112142D01*
X126181Y113780D02*
G03Y118504I0J2362D01*
G01X117126*
G03Y113780I-0J-2362*
G01X126181*
X136157Y119425D02*
X144157Y127425D01*
X136157D02*
X144157Y119425D01*
X136157Y128480D02*
X144157Y136480D01*
X136157D02*
X144157Y128480D01*
X137795Y123425D02*
G03X142520I2362J0D01*
G01Y132480*
G03X137795I-2363J0*
G01Y123425*
X111782Y391315D02*
X115782Y395315D01*
X111782Y399315*
X107782Y395315*
X111782Y391315*
Y395315D02*
Y399315D01*
X269262Y391315D02*
X273262Y395315D01*
X269262Y399315*
X265262Y395315*
X269262Y391315*
Y395315D02*
Y399315D01*
X237732Y383402D02*
X245732D01*
X237732Y391402*
X245732*
X237732Y383402*
X227890D02*
X235890Y391402D01*
Y383402*
X227890Y391402*
Y383402*
X218047D02*
X226047Y391402D01*
Y383402*
X218047Y391402*
Y383402*
X208205D02*
X216205Y391402D01*
Y383402*
X208205Y391402*
Y383402*
X198362D02*
X206362Y391402D01*
Y383402*
X198362Y391402*
Y383402*
X188520D02*
X196520Y391402D01*
Y383402*
X188520Y391402*
Y383402*
X157024D02*
X165024D01*
X157024Y391402*
X165024*
X157024Y383402*
X147181D02*
X155181Y391402D01*
Y383402*
X147181Y391402*
Y383402*
X137339D02*
X145339Y391402D01*
Y383402*
X137339Y391402*
Y383402*
X111782Y198402D02*
X115782Y202402D01*
X111782Y206402*
X107782Y202402*
X111782Y198402*
Y202402D02*
Y206402D01*
X269262Y198402D02*
X273262Y202402D01*
X269262Y206402*
X265262Y202402*
X269262Y198402*
Y202402D02*
Y206402D01*
X96000Y277102D02*
X104000D01*
X96000Y285102*
X104000*
X96000Y277102*
Y267260D02*
X104000Y275260D01*
Y267260*
X96000Y275260*
Y267260*
Y257417D02*
X104000Y265417D01*
Y257417*
X96000Y265417*
Y257417*
Y247575D02*
X104000Y255575D01*
Y247575*
X96000Y255575*
Y247575*
Y237732D02*
X104000Y245732D01*
Y237732*
X96000Y245732*
Y237732*
Y227890D02*
X104000Y235890D01*
Y227890*
X96000Y235890*
Y227890*
X261354Y224937D02*
X269354D01*
X261354Y232937*
X269354*
X261354Y224937*
Y234780D02*
X269354Y242780D01*
Y234780*
X261354Y242780*
Y234780*
X96000Y347969D02*
X104000D01*
X96000Y355969*
X104000*
X96000Y347969*
Y338126D02*
X104000Y346126D01*
Y338126*
X96000Y346126*
Y338126*
Y328283D02*
X104000Y336283D01*
Y328283*
X96000Y336283*
Y328283*
Y318441D02*
X104000Y326441D01*
Y318441*
X96000Y326441*
Y318441*
Y308598D02*
X104000Y316598D01*
Y308598*
X96000Y316598*
Y308598*
X261354Y264307D02*
X269354D01*
X261354Y272307*
X269354*
X261354Y264307*
Y274150D02*
X269354Y282150D01*
Y274150*
X261354Y282150*
Y274150*
Y304661D02*
X269354D01*
X261354Y312661*
X269354*
X261354Y304661*
Y314504D02*
X269354Y322504D01*
Y314504*
X261354Y322504*
Y314504*
Y324346D02*
X269354Y332346D01*
Y324346*
X261354Y332346*
Y324346*
Y334189D02*
X269354Y342189D01*
Y334189*
X261354Y342189*
Y334189*
X99937Y103937D02*
X107937D01*
X103937Y99937D02*
Y107937D01*
X139307Y103937D02*
X147307D01*
X143307Y99937D02*
Y107937D01*
X99937Y147244D02*
X107937D01*
X103937Y143244D02*
Y151244D01*
X139307Y147244D02*
X147307D01*
X143307Y143244D02*
Y151244D01*
X99937Y171654D02*
X107937D01*
X103937Y167654D02*
Y175654D01*
X99937Y180315D02*
X107937D01*
X103937Y176315D02*
Y184315D01*
X136945Y175197D02*
X144945D01*
X140945Y171197D02*
Y179197D01*
X99937Y188189D02*
X107937D01*
X103937Y184189D02*
Y192189D01*
X121984Y177890D02*
X129984D01*
Y185890*
X121984*
Y177890*
X125984Y181890D02*
Y185890D01*
X121984Y184189D02*
X129984D01*
Y192189*
X121984*
Y184189*
X125984Y188189D02*
Y192189D01*
X141669Y188189D02*
X149669D01*
X145669Y184189D02*
Y192189D01*
X118047Y200000D02*
X126047D01*
X122047Y196000D02*
Y204000D01*
X158992Y194488D02*
X166992D01*
X162992Y190488D02*
Y198488D01*
X186551Y194488D02*
X194551D01*
X190551Y190488D02*
Y198488D01*
X218047Y194488D02*
X226047D01*
X222047Y190488D02*
Y198488D01*
X253480Y194488D02*
X261480D01*
X257480Y190488D02*
Y198488D01*
X204661Y202362D02*
X212661D01*
X208661Y198362D02*
Y206362D01*
X202299Y209449D02*
X210299D01*
X206299Y205449D02*
Y213449D01*
X200724Y216535D02*
X208724D01*
X204724Y212535D02*
Y220535D01*
X215291Y216535D02*
X223291D01*
X219291Y212535D02*
Y220535D01*
X233008Y218898D02*
X241008D01*
X237008Y214898D02*
Y222898D01*
X233795Y211811D02*
X241795D01*
X237795Y207811D02*
Y215811D01*
X118835Y225197D02*
X126835D01*
X122835Y221197D02*
Y229197D01*
X200724Y225197D02*
X208724D01*
X204724Y221197D02*
Y229197D01*
X218047Y221984D02*
X226047D01*
Y229984*
X218047*
Y221984*
X222047Y225984D02*
Y229984D01*
X116866Y238583D02*
X124866D01*
X120866Y234583D02*
Y242583D01*
X158205Y234646D02*
X166205D01*
X162205Y230646D02*
Y238646D01*
X182614Y234646D02*
X190614D01*
X186614Y230646D02*
Y238646D01*
X203087Y232283D02*
X211087D01*
X207087Y228283D02*
Y236283D01*
X233008Y233858D02*
X241008D01*
X237008Y229858D02*
Y237858D01*
X109780Y248425D02*
X117780D01*
X113780Y244425D02*
Y252425D01*
X143244Y248425D02*
X151244D01*
X147244Y244425D02*
Y252425D01*
X217260Y247244D02*
X225260D01*
X221260Y243244D02*
Y251244D01*
X215843Y243307D02*
X223843D01*
X219843Y239307D02*
Y247307D01*
X246394Y247244D02*
X254394D01*
X250394Y243244D02*
Y251244D01*
X249543Y243307D02*
X257543D01*
X253543Y239307D02*
Y247307D01*
X125528Y255118D02*
X133528D01*
X129528Y251118D02*
Y259118D01*
X117654Y261417D02*
X125654D01*
X121654Y257417D02*
Y265417D01*
X164898Y258268D02*
X172898D01*
X168898Y254268D02*
Y262268D01*
X183795Y253543D02*
X191795D01*
X187795Y249543D02*
Y257543D01*
X196000Y254724D02*
X204000D01*
X200000Y250724D02*
Y258724D01*
X202299Y258268D02*
X210299D01*
X206299Y254268D02*
Y262268D01*
X231433Y254331D02*
X239433D01*
X235433Y250331D02*
Y258331D01*
X235370Y251969D02*
X243370D01*
X239370Y247969D02*
Y255969D01*
X238520Y253543D02*
X246520D01*
X242520Y249543D02*
Y257543D01*
X117654Y270866D02*
X125654D01*
X121654Y266866D02*
Y274866D01*
X140094Y262205D02*
X148094D01*
X144094Y258205D02*
Y266205D01*
X183402Y263386D02*
X191402D01*
X187402Y259386D02*
Y267386D01*
X218047Y268504D02*
X226047D01*
X222047Y264504D02*
Y272504D01*
X238520Y269291D02*
X246520D01*
X242520Y265291D02*
Y273291D01*
X172378Y280315D02*
X180378D01*
X176378Y276315D02*
Y284315D01*
X193638Y271654D02*
X201638D01*
X197638Y267654D02*
Y275654D01*
X188913Y280315D02*
X196913D01*
X192913Y276315D02*
Y284315D01*
X188126Y272441D02*
X196126D01*
X192126Y268441D02*
Y276441D01*
X213323Y276378D02*
X221323D01*
X217323Y272378D02*
Y280378D01*
X152693Y277890D02*
X160693D01*
Y285890*
X152693*
Y277890*
X156693Y281890D02*
Y285890D01*
X152693Y284976D02*
X160693D01*
Y292976*
X152693*
Y284976*
X156693Y288976D02*
Y292976D01*
X223559Y288898D02*
X231559D01*
X227559Y284898D02*
Y292898D01*
X236945Y288976D02*
X244945D01*
X240945Y284976D02*
Y292976D01*
X152693Y292063D02*
X160693D01*
Y300063*
X152693*
Y292063*
X156693Y296063D02*
Y300063D01*
X188126Y299213D02*
X196126D01*
X192126Y295213D02*
Y303213D01*
X205449Y292126D02*
X213449D01*
X209449Y288126D02*
Y296126D01*
X215606Y300787D02*
X223606D01*
X219606Y296787D02*
Y304787D01*
X217575Y297480D02*
X225575D01*
X221575Y293480D02*
Y301480D01*
X223559Y292913D02*
X231559D01*
X227559Y288913D02*
Y296913D01*
X122772Y310236D02*
X130772D01*
X126772Y306236D02*
Y314236D01*
X136157Y303937D02*
X144157D01*
X140157Y299937D02*
Y307937D01*
X139307Y303937D02*
X147307D01*
X143307Y299937D02*
Y307937D01*
X142457Y303937D02*
X150457D01*
X146457Y299937D02*
Y307937D01*
X193638Y307874D02*
X201638D01*
X197638Y303874D02*
Y311874D01*
X188913Y307874D02*
X196913D01*
X192913Y303874D02*
Y311874D01*
X207024Y308661D02*
X215024D01*
X211024Y304661D02*
Y312661D01*
X217496Y304567D02*
X225496D01*
X221496Y300567D02*
Y308567D01*
X136157Y319685D02*
X144157D01*
X140157Y315685D02*
Y323685D01*
X136157Y316535D02*
X144157D01*
X140157Y312535D02*
Y320535D01*
X139307Y319685D02*
X147307D01*
X143307Y315685D02*
Y323685D01*
X139307Y316535D02*
X147307D01*
X143307Y312535D02*
Y320535D01*
X147181Y314173D02*
X155181D01*
X151181Y310173D02*
Y318173D01*
X163717Y314173D02*
X171717D01*
X167717Y310173D02*
Y318173D01*
X173953Y315748D02*
X181953D01*
X177953Y311748D02*
Y319748D01*
X188913Y315748D02*
X196913D01*
X192913Y311748D02*
Y319748D01*
X205449Y317323D02*
X213449D01*
X209449Y313323D02*
Y321323D01*
X210173Y311811D02*
X218173D01*
X214173Y307811D02*
Y315811D01*
X229858Y318110D02*
X237858D01*
X233858Y314110D02*
Y322110D01*
X233008Y321260D02*
X241008D01*
X237008Y317260D02*
Y325260D01*
X233244Y315591D02*
X241244D01*
X237244Y311591D02*
Y319591D01*
X250331Y317323D02*
X258331D01*
X254331Y313323D02*
Y321323D01*
X250331Y311811D02*
X258331D01*
X254331Y307811D02*
Y315811D01*
X145606Y330709D02*
X153606D01*
X149606Y326709D02*
Y334709D01*
X173165Y329921D02*
X181165D01*
X177165Y325921D02*
Y333921D01*
X173165Y322835D02*
X181165D01*
X177165Y318835D02*
Y326835D01*
X188913Y329921D02*
X196913D01*
X192913Y325921D02*
Y333921D01*
X188913Y322835D02*
X196913D01*
X192913Y318835D02*
Y326835D01*
X123559Y332283D02*
X131559D01*
X127559Y328283D02*
Y336283D01*
X123559Y340157D02*
X131559D01*
X127559Y336157D02*
Y344157D01*
X133480Y337402D02*
X141480D01*
X137480Y333402D02*
Y341402D01*
X137732Y339370D02*
X145732D01*
X141732Y335370D02*
Y343370D01*
X148756Y333858D02*
X156756D01*
X152756Y329858D02*
Y337858D01*
X147969Y340157D02*
X155969D01*
X151969Y336157D02*
Y344157D01*
X188126Y337008D02*
X196126D01*
X192126Y333008D02*
Y341008D01*
X203874Y336220D02*
X211874D01*
X207874Y332220D02*
Y340220D01*
X213323Y336220D02*
X221323D01*
X217323Y332220D02*
Y340220D01*
X219622Y337008D02*
X227622D01*
X223622Y333008D02*
Y341008D01*
X230646Y334646D02*
X238646D01*
X234646Y330646D02*
Y338646D01*
X235370Y337008D02*
X243370D01*
X239370Y333008D02*
Y341008D01*
X239307Y335433D02*
X247307D01*
X243307Y331433D02*
Y339433D01*
X243244Y337008D02*
X251244D01*
X247244Y333008D02*
Y341008D01*
X249543Y337008D02*
X257543D01*
X253543Y333008D02*
Y341008D01*
X171591Y351181D02*
X179591D01*
X175591Y347181D02*
Y355181D01*
X171591Y346457D02*
X179591D01*
X175591Y342457D02*
Y350457D01*
X171591Y341732D02*
X179591D01*
X175591Y337732D02*
Y345732D01*
X112535Y355906D02*
X120535D01*
X116535Y351906D02*
Y359906D01*
X124346Y360630D02*
X132346D01*
X128346Y356630D02*
Y364630D01*
X155055Y357480D02*
X163055D01*
X159055Y353480D02*
Y361480D01*
X182220Y357480D02*
X190220D01*
X186220Y353480D02*
Y361480D01*
X196984Y357480D02*
X204984D01*
X200984Y353480D02*
Y361480D01*
X211945Y357480D02*
X219945D01*
X215945Y353480D02*
Y361480D01*
X226906Y357677D02*
X234906D01*
X230906Y353677D02*
Y361677D01*
X241866Y357677D02*
X249866D01*
X245866Y353677D02*
Y361677D01*
X128283Y370079D02*
X136283D01*
X132283Y366079D02*
Y374079D01*
X273165Y371654D02*
X281165D01*
X277165Y367654D02*
Y375654D01*
X99937Y383465D02*
X107937D01*
X103937Y379465D02*
Y387465D01*
X252693Y381890D02*
X260693D01*
X256693Y377890D02*
Y385890D01*
X273165Y387402D02*
X281165D01*
X277165Y383402D02*
Y391402D01*
X119622Y403150D02*
X127622D01*
X123622Y399150D02*
Y407150D01*
X158992Y403150D02*
X166992D01*
X162992Y399150D02*
Y407150D01*
X194425Y403150D02*
X202425D01*
X198425Y399150D02*
Y407150D01*
X237732Y403150D02*
X245732D01*
X241732Y399150D02*
Y407150D01*
X253480Y403150D02*
X261480D01*
X257480Y399150D02*
Y407150D01*
X281102Y403150D02*
G03X277165Y407087I-3937J-0D01*
G01X103937*
G03X100000Y403150I0J-3937*
G01Y371654*
X96063Y367717D02*
G03X100000Y371654I-0J3937D01*
G01X96063Y367717D02*
X84252D01*
G03X80315Y363780I-0J-3937*
G01Y218110*
G03X84252Y214173I3937J0*
G01X96063*
X100000Y210236D02*
G03X96063Y214173I-3937J0D01*
G01X100000Y210236D02*
Y103937D01*
G03X103937Y100000I3937J0*
G01X143307*
G03X147244Y103937I0J3937*
G01Y172835*
X164961Y190551D02*
G03X147244Y172835I-0J-17716D01*
G01X164961Y190551D02*
X277165D01*
G03X281102Y194488I0J3937*
G01Y403150*
X336220Y268000D02*
X594220D01*
X336220Y244000D02*
X594220D01*
X336220Y220000D02*
X594220D01*
X336220Y196000D02*
X594220D01*
X336220Y172000D02*
X594220D01*
X336220Y148000D02*
X594220D01*
X336220Y124000D02*
X594220D01*
X336220Y100000D02*
X594220D01*
X336220Y268000D02*
Y100000D01*
X420220Y268000D02*
Y100000D01*
X456220Y268000D02*
Y100000D01*
X492220Y268000D02*
Y100000D01*
X546220Y268000D02*
Y100000D01*
X594220Y268000D02*
Y100000D01*
X371720Y256750D02*
X371175Y257500D01*
X370357Y257875*
X369266*
X368448Y257500*
X367902Y256750*
Y256000*
X368175Y255250*
X368448Y254875*
X368993Y254500*
X370630Y253750*
X371175Y253375*
X371448Y253000*
X371720Y252250*
Y251125*
X371175Y250375*
X370357Y250000*
X369266*
X368448Y250375*
X367902Y251125*
X374175Y257875D02*
Y250000D01*
X380448Y257875D02*
X376630Y250000D01*
Y257875D02*
X380448D01*
X376630Y250000D02*
X380448D01*
X382902Y257875D02*
Y250000D01*
Y257875D02*
X386448D01*
X382902Y254125D02*
X385084D01*
X382902Y250000D02*
X386448D01*
X430084Y257875D02*
X429539Y257500D01*
X428993Y256750*
X428720Y256000*
X428448Y254875*
Y253000*
X428720Y251875*
X428993Y251125*
X429539Y250375*
X430084Y250000*
X431175*
X431720Y250375*
X432266Y251125*
X432539Y251875*
X432811Y253000*
Y254875*
X432539Y256000*
X432266Y256750*
X431720Y257500*
X431175Y257875*
X430084*
X430902Y251500D02*
X432539Y249250D01*
X437175Y257875D02*
Y250000D01*
X435266Y257875D02*
X439084D01*
X441539D02*
X443720Y254125D01*
Y250000*
X445902Y257875D02*
X443720Y254125D01*
X468266Y256750D02*
X467720Y257500D01*
X466902Y257875*
X465811*
X464993Y257500*
X464448Y256750*
Y256000*
X464720Y255250*
X464993Y254875*
X465539Y254500*
X467175Y253750*
X467720Y253375*
X467993Y253000*
X468266Y252250*
Y251125*
X467720Y250375*
X466902Y250000*
X465811*
X464993Y250375*
X464448Y251125*
X470720Y257875D02*
X472902Y254125D01*
Y250000*
X475084Y257875D02*
X472902Y254125D01*
X477539Y257875D02*
Y250000D01*
Y257875D02*
X479720Y250000D01*
X481902Y257875D02*
X479720Y250000D01*
X481902Y257875D02*
Y250000D01*
X503720Y257875D02*
Y250000D01*
Y257875D02*
X506175D01*
X506993Y257500*
X507266Y257125*
X507539Y256375*
Y255250*
X507266Y254500*
X506993Y254125*
X506175Y253750*
X503720*
X509993Y257875D02*
Y250000D01*
X513266*
X517902Y257875D02*
X515720Y250000D01*
X517902Y257875D02*
X520084Y250000D01*
X516539Y252625D02*
X519266D01*
X524448Y257875D02*
Y250000D01*
X522539Y257875D02*
X526357D01*
X528811D02*
Y250000D01*
Y257875D02*
X532357D01*
X528811Y254125D02*
X530993D01*
X528811Y250000D02*
X532357D01*
X534811Y257875D02*
Y250000D01*
Y257875D02*
X536720D01*
X537539Y257500*
X538084Y256750*
X538357Y256000*
X538630Y254875*
Y253000*
X538357Y251875*
X538084Y251125*
X537539Y250375*
X536720Y250000*
X534811*
X562902Y257875D02*
Y250000D01*
X560993Y257875D02*
X564811D01*
X568902D02*
X568357Y257500D01*
X567811Y256750*
X567539Y256000*
X567266Y254875*
Y253000*
X567539Y251875*
X567811Y251125*
X568357Y250375*
X568902Y250000*
X569993*
X570539Y250375*
X571084Y251125*
X571357Y251875*
X571630Y253000*
Y254875*
X571357Y256000*
X571084Y256750*
X570539Y257500*
X569993Y257875*
X568902*
X574084D02*
Y250000D01*
X577357*
X343857Y233875D02*
X343039Y233500D01*
X342493Y232375*
X342220Y230500*
Y229375*
X342493Y227500*
X343039Y226375*
X343857Y226000*
X344402*
X345220Y226375*
X345766Y227500*
X346039Y229375*
Y230500*
X345766Y232375*
X345220Y233500*
X344402Y233875*
X343857*
X348766Y226750D02*
X348493Y226375D01*
X348766Y226000*
X349039Y226375*
X348766Y226750*
X352039Y233875D02*
X355039D01*
X353402Y230875*
X354220*
X354766Y230500*
X355039Y230125*
X355311Y229000*
Y228250*
X355039Y227125*
X354493Y226375*
X353675Y226000*
X352857*
X352039Y226375*
X351766Y226750*
X351493Y227500*
X361311Y233875D02*
X358584D01*
X358311Y230500*
X358584Y230875*
X359402Y231250*
X360220*
X361039Y230875*
X361584Y230125*
X361857Y229000*
X361584Y228250*
X361311Y227125*
X360766Y226375*
X359948Y226000*
X359130*
X358311Y226375*
X358039Y226750*
X357766Y227500*
X430220Y232375D02*
X430766Y232750D01*
X431584Y233875*
Y226000*
X434311Y232000D02*
Y232375D01*
X434584Y233125*
X434857Y233500*
X435402Y233875*
X436493*
X437039Y233500*
X437311Y233125*
X437584Y232375*
Y231625*
X437311Y230875*
X436766Y229750*
X434039Y226000*
X437857*
X440857Y233875D02*
X443857D01*
X442220Y230875*
X443039*
X443584Y230500*
X443857Y230125*
X444130Y229000*
Y228250*
X443857Y227125*
X443311Y226375*
X442493Y226000*
X441675*
X440857Y226375*
X440584Y226750*
X440311Y227500*
X468220Y232000D02*
X480220D01*
X474220Y226000D02*
Y238000D01*
X500857Y233875D02*
X503039Y230125D01*
Y226000*
X505220Y233875D02*
X503039Y230125D01*
X507675Y233875D02*
Y226000D01*
Y233875D02*
X511220D01*
X507675Y230125D02*
X509857D01*
X507675Y226000D02*
X511220D01*
X517493Y232750D02*
X516948Y233500D01*
X516130Y233875*
X515039*
X514220Y233500*
X513675Y232750*
Y232000*
X513948Y231250*
X514220Y230875*
X514766Y230500*
X516402Y229750*
X516948Y229375*
X517220Y229000*
X517493Y228250*
Y227125*
X516948Y226375*
X516130Y226000*
X515039*
X514220Y226375*
X513675Y227125*
X554039Y232750D02*
Y226000D01*
X551584Y229375D02*
X556493D01*
X563857Y235375D02*
X558948Y223375D01*
X566311Y229375D02*
X571220D01*
X575311Y233875D02*
X574493Y233500D01*
X573948Y232375*
X573675Y230500*
Y229375*
X573948Y227500*
X574493Y226375*
X575311Y226000*
X575857*
X576675Y226375*
X577220Y227500*
X577493Y229375*
Y230500*
X577220Y232375*
X576675Y233500*
X575857Y233875*
X575311*
X580220Y226750D02*
X579948Y226375D01*
X580220Y226000*
X580493Y226375*
X580220Y226750*
X584584Y233875D02*
X583766Y233500D01*
X583220Y232375*
X582948Y230500*
Y229375*
X583220Y227500*
X583766Y226375*
X584584Y226000*
X585130*
X585948Y226375*
X586493Y227500*
X586766Y229375*
Y230500*
X586493Y232375*
X585948Y233500*
X585130Y233875*
X584584*
X342220Y208375D02*
X342766Y208750D01*
X343584Y209875*
Y202000*
X346311Y202750D02*
X346039Y202375D01*
X346311Y202000*
X346584Y202375*
X346311Y202750*
X349311Y208000D02*
Y208375D01*
X349584Y209125*
X349857Y209500*
X350402Y209875*
X351493*
X352039Y209500*
X352311Y209125*
X352584Y208375*
Y207625*
X352311Y206875*
X351766Y205750*
X349039Y202000*
X352857*
X361584Y207250D02*
X364584Y202000D01*
Y207250D02*
X361584Y202000D01*
X373857Y209875D02*
X376857D01*
X375220Y206875*
X376039*
X376584Y206500*
X376857Y206125*
X377130Y205000*
Y204250*
X376857Y203125*
X376311Y202375*
X375493Y202000*
X374675*
X373857Y202375*
X373584Y202750*
X373311Y203500*
X379857Y202750D02*
X379584Y202375D01*
X379857Y202000*
X380130Y202375*
X379857Y202750*
X386130Y209875D02*
X383402D01*
X383130Y206500*
X383402Y206875*
X384220Y207250*
X385039*
X385857Y206875*
X386402Y206125*
X386675Y205000*
X386402Y204250*
X386130Y203125*
X385584Y202375*
X384766Y202000*
X383948*
X383130Y202375*
X382857Y202750*
X382584Y203500*
X435811Y209875D02*
X438811D01*
X437175Y206875*
X437993*
X438539Y206500*
X438811Y206125*
X439084Y205000*
Y204250*
X438811Y203125*
X438266Y202375*
X437448Y202000*
X436630*
X435811Y202375*
X435539Y202750*
X435266Y203500*
X468220Y202000D02*
X480220Y214000D01*
X468220D02*
X480220Y202000D01*
X500857Y209875D02*
X503039Y206125D01*
Y202000*
X505220Y209875D02*
X503039Y206125D01*
X507675Y209875D02*
Y202000D01*
Y209875D02*
X511220D01*
X507675Y206125D02*
X509857D01*
X507675Y202000D02*
X511220D01*
X517493Y208750D02*
X516948Y209500D01*
X516130Y209875*
X515039*
X514220Y209500*
X513675Y208750*
Y208000*
X513948Y207250*
X514220Y206875*
X514766Y206500*
X516402Y205750*
X516948Y205375*
X517220Y205000*
X517493Y204250*
Y203125*
X516948Y202375*
X516130Y202000*
X515039*
X514220Y202375*
X513675Y203125*
X554039Y208750D02*
Y202000D01*
X551584Y205375D02*
X556493D01*
X563857Y211375D02*
X558948Y199375D01*
X566311Y205375D02*
X571220D01*
X575311Y209875D02*
X574493Y209500D01*
X573948Y208375*
X573675Y206500*
Y205375*
X573948Y203500*
X574493Y202375*
X575311Y202000*
X575857*
X576675Y202375*
X577220Y203500*
X577493Y205375*
Y206500*
X577220Y208375*
X576675Y209500*
X575857Y209875*
X575311*
X580220Y202750D02*
X579948Y202375D01*
X580220Y202000*
X580493Y202375*
X580220Y202750*
X584584Y209875D02*
X583766Y209500D01*
X583220Y208375*
X582948Y206500*
Y205375*
X583220Y203500*
X583766Y202375*
X584584Y202000*
X585130*
X585948Y202375*
X586493Y203500*
X586766Y205375*
Y206500*
X586493Y208375*
X585948Y209500*
X585130Y209875*
X584584*
X343857Y185875D02*
X343039Y185500D01*
X342493Y184375*
X342220Y182500*
Y181375*
X342493Y179500*
X343039Y178375*
X343857Y178000*
X344402*
X345220Y178375*
X345766Y179500*
X346039Y181375*
Y182500*
X345766Y184375*
X345220Y185500*
X344402Y185875*
X343857*
X348766Y178750D02*
X348493Y178375D01*
X348766Y178000*
X349039Y178375*
X348766Y178750*
X354766Y184750D02*
X354493Y185500D01*
X353675Y185875*
X353130*
X352311Y185500*
X351766Y184375*
X351493Y182500*
Y180625*
X351766Y179125*
X352311Y178375*
X353130Y178000*
X353402*
X354220Y178375*
X354766Y179125*
X355039Y180250*
Y180625*
X354766Y181750*
X354220Y182500*
X353402Y182875*
X353130*
X352311Y182500*
X351766Y181750*
X351493Y180625*
X438675Y184750D02*
X438402Y185500D01*
X437584Y185875*
X437039*
X436220Y185500*
X435675Y184375*
X435402Y182500*
Y180625*
X435675Y179125*
X436220Y178375*
X437039Y178000*
X437311*
X438130Y178375*
X438675Y179125*
X438948Y180250*
Y180625*
X438675Y181750*
X438130Y182500*
X437311Y182875*
X437039*
X436220Y182500*
X435675Y181750*
X435402Y180625*
X468220Y178000D02*
X480220D01*
Y190000*
X468220*
Y178000*
X474220Y184000D02*
Y190000D01*
X500857Y185875D02*
X503039Y182125D01*
Y178000*
X505220Y185875D02*
X503039Y182125D01*
X507675Y185875D02*
Y178000D01*
Y185875D02*
X511220D01*
X507675Y182125D02*
X509857D01*
X507675Y178000D02*
X511220D01*
X517493Y184750D02*
X516948Y185500D01*
X516130Y185875*
X515039*
X514220Y185500*
X513675Y184750*
Y184000*
X513948Y183250*
X514220Y182875*
X514766Y182500*
X516402Y181750*
X516948Y181375*
X517220Y181000*
X517493Y180250*
Y179125*
X516948Y178375*
X516130Y178000*
X515039*
X514220Y178375*
X513675Y179125*
X554039Y184750D02*
Y178000D01*
X551584Y181375D02*
X556493D01*
X563857Y187375D02*
X558948Y175375D01*
X566311Y181375D02*
X571220D01*
X575311Y185875D02*
X574493Y185500D01*
X573948Y184375*
X573675Y182500*
Y181375*
X573948Y179500*
X574493Y178375*
X575311Y178000*
X575857*
X576675Y178375*
X577220Y179500*
X577493Y181375*
Y182500*
X577220Y184375*
X576675Y185500*
X575857Y185875*
X575311*
X580220Y178750D02*
X579948Y178375D01*
X580220Y178000*
X580493Y178375*
X580220Y178750*
X584584Y185875D02*
X583766Y185500D01*
X583220Y184375*
X582948Y182500*
Y181375*
X583220Y179500*
X583766Y178375*
X584584Y178000*
X585130*
X585948Y178375*
X586493Y179500*
X586766Y181375*
Y182500*
X586493Y184375*
X585948Y185500*
X585130Y185875*
X584584*
X342493Y160000D02*
Y160375D01*
X342766Y161125*
X343039Y161500*
X343584Y161875*
X344675*
X345220Y161500*
X345493Y161125*
X345766Y160375*
Y159625*
X345493Y158875*
X344948Y157750*
X342220Y154000*
X346039*
X437857Y161875D02*
X435130Y156625D01*
X439220*
X437857Y161875D02*
Y154000D01*
X474220D02*
X480220Y160000D01*
X474220Y166000*
X468220Y160000*
X474220Y154000*
Y160000D02*
Y166000D01*
X503857Y161875D02*
Y154000D01*
Y161875D02*
X507675Y154000D01*
Y161875D02*
Y154000D01*
X511766Y161875D02*
X511220Y161500D01*
X510675Y160750*
X510402Y160000*
X510130Y158875*
Y157000*
X510402Y155875*
X510675Y155125*
X511220Y154375*
X511766Y154000*
X512857*
X513402Y154375*
X513948Y155125*
X514220Y155875*
X514493Y157000*
Y158875*
X514220Y160000*
X513948Y160750*
X513402Y161500*
X512857Y161875*
X511766*
X554039Y160750D02*
Y154000D01*
X551584Y157375D02*
X556493D01*
X563857Y163375D02*
X558948Y151375D01*
X566311Y157375D02*
X571220D01*
X575311Y161875D02*
X574493Y161500D01*
X573948Y160375*
X573675Y158500*
Y157375*
X573948Y155500*
X574493Y154375*
X575311Y154000*
X575857*
X576675Y154375*
X577220Y155500*
X577493Y157375*
Y158500*
X577220Y160375*
X576675Y161500*
X575857Y161875*
X575311*
X580220Y154750D02*
X579948Y154375D01*
X580220Y154000*
X580493Y154375*
X580220Y154750*
X584584Y161875D02*
X583766Y161500D01*
X583220Y160375*
X582948Y158500*
Y157375*
X583220Y155500*
X583766Y154375*
X584584Y154000*
X585130*
X585948Y154375*
X586493Y155500*
X586766Y157375*
Y158500*
X586493Y160375*
X585948Y161500*
X585130Y161875*
X584584*
X343857Y137875D02*
X343039Y137500D01*
X342493Y136375*
X342220Y134500*
Y133375*
X342493Y131500*
X343039Y130375*
X343857Y130000*
X344402*
X345220Y130375*
X345766Y131500*
X346039Y133375*
Y134500*
X345766Y136375*
X345220Y137500*
X344402Y137875*
X343857*
X348766Y130750D02*
X348493Y130375D01*
X348766Y130000*
X349039Y130375*
X348766Y130750*
X355039Y135250D02*
X354766Y134125D01*
X354220Y133375*
X353402Y133000*
X353130*
X352311Y133375*
X351766Y134125*
X351493Y135250*
Y135625*
X351766Y136750*
X352311Y137500*
X353130Y137875*
X353402*
X354220Y137500*
X354766Y136750*
X355039Y135250*
Y133375*
X354766Y131500*
X354220Y130375*
X353402Y130000*
X352857*
X352039Y130375*
X351766Y131125*
X439084Y137875D02*
X436357Y130000D01*
X435266Y137875D02*
X439084D01*
X468220Y130000D02*
X480220D01*
X468220Y142000*
X480220*
X468220Y130000*
X500857Y137875D02*
X503039Y134125D01*
Y130000*
X505220Y137875D02*
X503039Y134125D01*
X507675Y137875D02*
Y130000D01*
Y137875D02*
X511220D01*
X507675Y134125D02*
X509857D01*
X507675Y130000D02*
X511220D01*
X517493Y136750D02*
X516948Y137500D01*
X516130Y137875*
X515039*
X514220Y137500*
X513675Y136750*
Y136000*
X513948Y135250*
X514220Y134875*
X514766Y134500*
X516402Y133750*
X516948Y133375*
X517220Y133000*
X517493Y132250*
Y131125*
X516948Y130375*
X516130Y130000*
X515039*
X514220Y130375*
X513675Y131125*
X554039Y136750D02*
Y130000D01*
X551584Y133375D02*
X556493D01*
X563857Y139375D02*
X558948Y127375D01*
X566311Y133375D02*
X571220D01*
X575311Y137875D02*
X574493Y137500D01*
X573948Y136375*
X573675Y134500*
Y133375*
X573948Y131500*
X574493Y130375*
X575311Y130000*
X575857*
X576675Y130375*
X577220Y131500*
X577493Y133375*
Y134500*
X577220Y136375*
X576675Y137500*
X575857Y137875*
X575311*
X580220Y130750D02*
X579948Y130375D01*
X580220Y130000*
X580493Y130375*
X580220Y130750*
X584584Y137875D02*
X583766Y137500D01*
X583220Y136375*
X582948Y134500*
Y133375*
X583220Y131500*
X583766Y130375*
X584584Y130000*
X585130*
X585948Y130375*
X586493Y131500*
X586766Y133375*
Y134500*
X586493Y136375*
X585948Y137500*
X585130Y137875*
X584584*
X343857Y113875D02*
X343039Y113500D01*
X342493Y112375*
X342220Y110500*
Y109375*
X342493Y107500*
X343039Y106375*
X343857Y106000*
X344402*
X345220Y106375*
X345766Y107500*
X346039Y109375*
Y110500*
X345766Y112375*
X345220Y113500*
X344402Y113875*
X343857*
X348766Y106750D02*
X348493Y106375D01*
X348766Y106000*
X349039Y106375*
X348766Y106750*
X352857Y113875D02*
X352039Y113500D01*
X351766Y112750*
Y112000*
X352039Y111250*
X352584Y110875*
X353675Y110500*
X354493Y110125*
X355039Y109375*
X355311Y108625*
Y107500*
X355039Y106750*
X354766Y106375*
X353948Y106000*
X352857*
X352039Y106375*
X351766Y106750*
X351493Y107500*
Y108625*
X351766Y109375*
X352311Y110125*
X353130Y110500*
X354220Y110875*
X354766Y111250*
X355039Y112000*
Y112750*
X354766Y113500*
X353948Y113875*
X352857*
X359130D02*
X358311Y113500D01*
X358039Y112750*
Y112000*
X358311Y111250*
X358857Y110875*
X359948Y110500*
X360766Y110125*
X361311Y109375*
X361584Y108625*
Y107500*
X361311Y106750*
X361039Y106375*
X360220Y106000*
X359130*
X358311Y106375*
X358039Y106750*
X357766Y107500*
Y108625*
X358039Y109375*
X358584Y110125*
X359402Y110500*
X360493Y110875*
X361039Y111250*
X361311Y112000*
Y112750*
X361039Y113500*
X360220Y113875*
X359130*
X367584Y111250D02*
X367311Y110125D01*
X366766Y109375*
X365948Y109000*
X365675*
X364857Y109375*
X364311Y110125*
X364039Y111250*
Y111625*
X364311Y112750*
X364857Y113500*
X365675Y113875*
X365948*
X366766Y113500*
X367311Y112750*
X367584Y111250*
Y109375*
X367311Y107500*
X366766Y106375*
X365948Y106000*
X365402*
X364584Y106375*
X364311Y107125*
X433630Y112000D02*
Y112375D01*
X433902Y113125*
X434175Y113500*
X434720Y113875*
X435811*
X436357Y113500*
X436630Y113125*
X436902Y112375*
Y111625*
X436630Y110875*
X436084Y109750*
X433357Y106000*
X437175*
X439630Y112375D02*
X440175Y112750D01*
X440993Y113875*
Y106000*
X468220D02*
X480220Y118000D01*
Y106000*
X468220Y118000*
Y106000*
X500857Y113875D02*
X503039Y110125D01*
Y106000*
X505220Y113875D02*
X503039Y110125D01*
X507675Y113875D02*
Y106000D01*
Y113875D02*
X511220D01*
X507675Y110125D02*
X509857D01*
X507675Y106000D02*
X511220D01*
X517493Y112750D02*
X516948Y113500D01*
X516130Y113875*
X515039*
X514220Y113500*
X513675Y112750*
Y112000*
X513948Y111250*
X514220Y110875*
X514766Y110500*
X516402Y109750*
X516948Y109375*
X517220Y109000*
X517493Y108250*
Y107125*
X516948Y106375*
X516130Y106000*
X515039*
X514220Y106375*
X513675Y107125*
X554039Y112750D02*
Y106000D01*
X551584Y109375D02*
X556493D01*
X563857Y115375D02*
X558948Y103375D01*
X566311Y109375D02*
X571220D01*
X575311Y113875D02*
X574493Y113500D01*
X573948Y112375*
X573675Y110500*
Y109375*
X573948Y107500*
X574493Y106375*
X575311Y106000*
X575857*
X576675Y106375*
X577220Y107500*
X577493Y109375*
Y110500*
X577220Y112375*
X576675Y113500*
X575857Y113875*
X575311*
X580220Y106750D02*
X579948Y106375D01*
X580220Y106000*
X580493Y106375*
X580220Y106750*
X584584Y113875D02*
X583766Y113500D01*
X583220Y112375*
X582948Y110500*
Y109375*
X583220Y107500*
X583766Y106375*
X584584Y106000*
X585130*
X585948Y106375*
X586493Y107500*
X586766Y109375*
Y110500*
X586493Y112375*
X585948Y113500*
X585130Y113875*
X584584*
G74*
X0Y0D02*
M02*
