%
T1C.01378F095S3
X010394Y010394
X010394Y014724
X010394Y017165
X010394Y018031
X010394Y018819
X012205Y02
X012283Y02252
X012087Y023858
X011378Y024843
X012165Y026142
X012165Y027087
X011654Y035591
X010394Y038346
X012362Y040315
X013228Y037008
X012835Y036063
X012756Y034016
X014173Y033937
X013748Y03374
X012756Y033228
X014961Y033071
X014016Y031969
X014331Y031969
X014016Y031654
X014331Y031654
X012677Y031024
X014331Y030394
X014016Y030394
X014646Y030394
X014409Y02622
X012953Y025512
X014724Y024843
X014567Y018819
X014094Y01752
X014331Y014724
X014331Y010394
X016299Y019449
X019055Y019449
X018661Y023465
X01622Y023465
X01878Y025354
X01689Y025827
X01874Y026339
X019764Y027165
X019213Y027244
X017638Y028031
X019291Y028031
X019213Y029921
X019764Y030787
X019291Y030787
X015118Y031417
X016772Y031417
X017795Y031575
X019291Y031575
X017717Y032283
X019291Y032283
X019291Y032992
X017717Y032992
X015276Y033386
X019213Y033701
X015197Y034016
X017559Y034173
X017559Y034646
X017559Y035118
X018622Y035748
X015906Y035748
X016299Y040315
X019843Y040315
X020098Y035748
X021594Y035748
X022362Y033701
X020787Y033622
X021732Y033622
X020945Y031732
X021417Y031181
X021102Y030866
X02215Y030457
X021961Y030079
X022157Y029748
X020945Y029213
X021732Y027638
X022205Y02685
X02063Y025827
X02Y025472
X022126Y024724
X021984Y024331
X020709Y023228
X020472Y02252
X021929Y021654
X020472Y021654
X02063Y020945
X020866Y020236
X022205Y019449
X02378Y021181
X023701Y02189
X023701Y023386
X023937Y025197
X024252Y025354
X023543Y025433
X024252Y026929
X022756Y02889
X024094Y028898
X022756Y029291
X023724Y031559
X023386Y031811
X023701Y032126
X023465Y033465
X024331Y033543
X024724Y033701
X023937Y033701
X024587Y035768
X023091Y035768
X024173Y040315
X025748Y040315
X027717Y03874
X025669Y038189
X027717Y037165
X025354Y033701
X025433Y031732
X025433Y031181
X025039Y024724
X025354Y024331
X025748Y019449
T2C.02362F197S55
X012598Y018189
X012598Y018819
X015669Y028189
X015669Y028898
X015669Y029606
X022283Y022598
T3C.035F197S55
X01Y023189
X01Y024173
X01Y025157
X01Y026142
X01Y027126
X01Y03126
X01Y032244
X01Y033228
X01Y034213
X014134Y03874
X015118Y03874
X019252Y03874
X020236Y03874
X02122Y03874
X022205Y03874
X026535Y023878
X026535Y027815
X026535Y03185
X026535Y032835
X026535Y033819
X023189Y03874
T4C.03543F197S55
X01Y02811
X01Y035197
X016102Y03874
X024173Y03874
X026535Y030866
X026535Y026831
X026535Y022894
T5C.04724F139S55
X012618Y013976G85X011713Y013976
X012618Y011614G85X011713Y011614
X014016Y012343G85X014016Y013248
T6C.07874F081S55
X011178Y02024
X011178Y039531
X026926Y039531
X026926Y02024
M30
