*
*
G04 PADS 9.5 Build Number: 522968 generated Gerber (RS-274-X) file*
G04 PC Version=2.1*
*
%IN "MPD-MAIN_PCB_V1.0_20190"*%
*
%MOIN*%
*
%FSLAX35Y35*%
*
*
*
*
G04 PC Standard Apertures*
*
*
G04 Thermal Relief Aperture macro.*
%AMTER*
1,1,$1,0,0*
1,0,$1-$2,0,0*
21,0,$3,$4,0,0,45*
21,0,$3,$4,0,0,135*
%
*
*
G04 Annular Aperture macro.*
%AMANN*
1,1,$1,0,0*
1,0,$2,0,0*
%
*
*
G04 Odd Aperture macro.*
%AMODD*
1,1,$1,0,0*
1,0,$1-0.005,0,0*
%
*
*
G04 PC Custom Aperture Macros*
*
*
*
*
*
*
G04 PC Aperture Table*
*
%ADD010C,0.001*%
%ADD036C,0.00394*%
%ADD037C,0.01*%
%ADD038C,0.01969*%
%ADD073C,0.00787*%
%ADD074C,0.00984*%
%ADD075C,0.012*%
%ADD076C,0.006*%
%ADD077C,0.005*%
%ADD078C,0.007*%
%ADD079C,0.008*%
%ADD080C,0.00472*%
%ADD081C,0.00591*%
%ADD085C,0.00004*%
*
*
*
*
G04 PC Circuitry*
G04 Layer Name MPD-MAIN_PCB_V1.0_20190 - circuitry*
%LPD*%
*
*
G04 PC Custom Flashes*
G04 Layer Name MPD-MAIN_PCB_V1.0_20190 - flashes*
%LPD*%
*
*
G04 PC Circuitry*
G04 Layer Name MPD-MAIN_PCB_V1.0_20190 - circuitry*
%LPD*%
*
G54D10*
G01X273396Y395315D02*
G75*
G03X273396I-4134J0D01*
G01Y202402D02*
G03X273396I-4134J0D01*
G01X115915Y395315D02*
G03X115915I-4133J0D01*
G01Y202402D02*
G03X115915I-4133J0D01*
G54D36*
G01X233465Y205906D02*
Y194094D01*
X229528*
Y205906*
X233465*
X171260Y336417D02*
Y329724D01*
X163386Y336516D02*
X167323D01*
X159449Y336417D02*
Y329724D01*
X156299Y329528D02*
X158661Y327953D01*
X156299Y326378*
Y329528*
Y327953D02*
X158661D01*
X156299Y327559D02*
X158071D01*
X156299Y327165D02*
X157480D01*
X156299Y326772D02*
X156890D01*
X156299Y328346D02*
X158071D01*
X156299Y328740D02*
X157480D01*
X156299Y329134D02*
X156890D01*
X171063Y351969D02*
X161220D01*
Y344094*
X171063*
Y351969*
X164961Y299606D02*
Y311417D01*
X168898*
Y299606*
X164961*
Y284646D02*
Y296457D01*
X168898*
Y284646*
X164961*
X215157Y237402D02*
X208465D01*
X215256Y245276D02*
Y241339D01*
X215157Y249213D02*
X208465D01*
X208268Y252362D02*
X206693Y250000D01*
X205118Y252362*
X208268*
X206693D02*
Y250000D01*
X206299Y252362D02*
Y250591D01*
X205906Y252362D02*
Y251181D01*
X205512Y252362D02*
Y251772D01*
X207087Y252362D02*
Y250591D01*
X207480Y252362D02*
Y251181D01*
X207874Y252362D02*
Y251772D01*
X200984Y372638D02*
G03X199803Y371457I0J-1181D01*
G01X200984Y372638D02*
X222638D01*
X223819Y371457D02*
G03X222638Y372638I-1181J-0D01*
G01X223819Y371457D02*
Y359252D01*
X222638Y358071D02*
G03X223819Y359252I-0J1181D01*
G01X222638Y358071D02*
X200984D01*
X199803Y359252D02*
G03X200984Y358071I1181J-0D01*
G01X199803Y359252D02*
Y371457D01*
X226772Y401624D02*
Y404724D01*
X225483*
X224517Y401624D02*
Y404724D01*
Y401624D02*
X223121D01*
X224517Y403100D02*
X223658D01*
X224517Y404724D02*
X223121D01*
X222155Y401624D02*
Y404724D01*
Y401624D02*
X221403D01*
X221081Y401772*
X220866Y402067*
X220759Y402362*
X220651Y402805*
Y403543*
X220759Y403986*
X220866Y404281*
X221081Y404577*
X221403Y404724*
X222155*
X217215Y401624D02*
Y404724D01*
Y401624D02*
X216249D01*
X215927Y401772*
X215820Y401919*
X215712Y402215*
Y402657*
X215820Y402953*
X215927Y403100*
X216249Y403248*
X217215*
X213135Y402362D02*
X213243Y402067D01*
X213457Y401772*
X213672Y401624*
X214102*
X214316Y401772*
X214531Y402067*
X214639Y402362*
X214746Y402805*
Y403543*
X214639Y403986*
X214531Y404281*
X214316Y404577*
X214102Y404724*
X213672*
X213457Y404577*
X213243Y404281*
X213135Y403986*
X212169Y401624D02*
Y404724D01*
Y401624D02*
X211203D01*
X210880Y401772*
X210773Y401919*
X210666Y402215*
Y402510*
X210773Y402805*
X210880Y402953*
X211203Y403100*
X212169D02*
X211203D01*
X210880Y403248*
X210773Y403396*
X210666Y403691*
Y404134*
X210773Y404429*
X210880Y404577*
X211203Y404724*
X212169*
X157480Y401624D02*
Y404724D01*
Y401624D02*
X156514D01*
X156192Y401772*
X156084Y401919*
X155977Y402215*
Y402510*
X156084Y402805*
X156192Y402953*
X156514Y403100*
X157480*
X156729D02*
X155977Y404724D01*
X153508Y402067D02*
X153722Y401772D01*
X154044Y401624*
X154474*
X154796Y401772*
X155011Y402067*
Y402362*
X154903Y402657*
X154796Y402805*
X154581Y402953*
X153937Y403248*
X153722Y403396*
X153615Y403543*
X153508Y403839*
Y404281*
X153722Y404577*
X154044Y404724*
X154474*
X154796Y404577*
X155011Y404281*
X152541Y403396D02*
X150608D01*
X149535Y402362D02*
Y402215D01*
X149427Y401919*
X149320Y401772*
X149105Y401624*
X148676*
X148461Y401772*
X148354Y401919*
X148246Y402215*
Y402510*
X148354Y402805*
X148568Y403248*
X149642Y404724*
X148139*
X146958Y401624D02*
X145777D01*
X146421Y402805*
X146099*
X145884Y402953*
X145777Y403100*
X145669Y403543*
Y403839*
X145777Y404281*
X145991Y404577*
X146314Y404724*
X146636*
X146958Y404577*
X147065Y404429*
X147173Y404134*
X144596Y402362D02*
Y402215D01*
X144488Y401919*
X144381Y401772*
X144166Y401624*
X143737*
X143522Y401772*
X143414Y401919*
X143307Y402215*
Y402510*
X143414Y402805*
X143629Y403248*
X144703Y404724*
X143200*
X85778Y337795D02*
X82677D01*
X85778Y336292D02*
X83711Y337795D01*
X84449Y337258D02*
X82677Y336292D01*
X85778Y335326D02*
X82677D01*
X85778D02*
Y333930D01*
X84301Y335326D02*
Y334467D01*
X82677Y335326D02*
Y333930D01*
X85778Y332963D02*
X84301Y332105D01*
X82677*
X85778Y331246D02*
X84301Y332105D01*
X85778Y327810D02*
X82677D01*
X85778D02*
Y326843D01*
X85630Y326521*
X85482Y326414*
X85187Y326306*
X84744*
X84449Y326414*
X84301Y326521*
X84154Y326843*
Y327810*
X85039Y323729D02*
X85335Y323837D01*
X85630Y324052*
X85778Y324266*
Y324696*
X85630Y324911*
X85335Y325125*
X85039Y325233*
X84596Y325340*
X83858*
X83415Y325233*
X83120Y325125*
X82825Y324911*
X82677Y324696*
Y324266*
X82825Y324052*
X83120Y323837*
X83415Y323729*
X85778Y322763D02*
X82677D01*
X85778D02*
Y321797D01*
X85630Y321475*
X85482Y321367*
X85187Y321260*
X84892*
X84596Y321367*
X84449Y321475*
X84301Y321797*
Y322763D02*
Y321797D01*
X84154Y321475*
X84006Y321367*
X83711Y321260*
X83268*
X82972Y321367*
X82825Y321475*
X82677Y321797*
Y322763*
X85778Y266965D02*
X82677D01*
X85778Y267717D02*
Y266213D01*
Y265247D02*
X82677D01*
X85778D02*
Y264281D01*
X85630Y263958*
X85482Y263851*
X85187Y263744*
X84892*
X84596Y263851*
X84449Y263958*
X84301Y264281*
Y265247*
Y264495D02*
X82677Y263744D01*
X85778Y261918D02*
X82677Y262777D01*
X85778Y261918D02*
X82677Y261059D01*
X83711Y262455D02*
Y261382D01*
X85778Y260093D02*
X82677D01*
X85778D02*
X82677Y258590D01*
X85778D02*
X82677D01*
X85335Y256120D02*
X85630Y256335D01*
X85778Y256657*
Y257087*
X85630Y257409*
X85335Y257623*
X85039*
X84744Y257516*
X84596Y257409*
X84449Y257194*
X84154Y256550*
X84006Y256335*
X83858Y256228*
X83563Y256120*
X83120*
X82825Y256335*
X82677Y256657*
Y257087*
X82825Y257409*
X83120Y257623*
X85778Y252684D02*
X82677D01*
X85778D02*
Y251718D01*
X85630Y251396*
X85482Y251288*
X85187Y251181*
X84744*
X84449Y251288*
X84301Y251396*
X84154Y251718*
Y252684*
X85039Y248604D02*
X85335Y248712D01*
X85630Y248926*
X85778Y249141*
Y249571*
X85630Y249785*
X85335Y250000*
X85039Y250107*
X84596Y250215*
X83858*
X83415Y250107*
X83120Y250000*
X82825Y249785*
X82677Y249571*
Y249141*
X82825Y248926*
X83120Y248712*
X83415Y248604*
X85778Y247638D02*
X82677D01*
X85778D02*
Y246671D01*
X85630Y246349*
X85482Y246242*
X85187Y246135*
X84892*
X84596Y246242*
X84449Y246349*
X84301Y246671*
Y247638D02*
Y246671D01*
X84154Y246349*
X84006Y246242*
X83711Y246135*
X83268*
X82972Y246242*
X82825Y246349*
X82677Y246671*
Y247638*
X257480Y292864D02*
Y289764D01*
Y292864D02*
X258876D01*
X257480Y291388D02*
X258339D01*
X260487Y292864D02*
X260272Y292717D01*
X260057Y292421*
X259950Y292126*
X259843Y291683*
Y290945*
X259950Y290502*
X260057Y290207*
X260272Y289911*
X260487Y289764*
X260916*
X261131Y289911*
X261346Y290207*
X261453Y290502*
X261560Y290945*
Y291683*
X261453Y292126*
X261346Y292421*
X261131Y292717*
X260916Y292864*
X260487*
X263171D02*
X262956Y292717D01*
X262742Y292421*
X262634Y292126*
X262527Y291683*
Y290945*
X262634Y290502*
X262742Y290207*
X262956Y289911*
X263171Y289764*
X263601*
X263815Y289911*
X264030Y290207*
X264137Y290502*
X264245Y290945*
Y291683*
X264137Y292126*
X264030Y292421*
X263815Y292717*
X263601Y292864*
X263171*
X265963D02*
Y289764D01*
X265211Y292864D02*
X266714D01*
X271654Y292421D02*
X271439Y292717D01*
X271117Y292864*
X270687*
X270365Y292717*
X270150Y292421*
Y292126*
X270258Y291831*
X270365Y291683*
X270580Y291535*
X271224Y291240*
X271439Y291093*
X271546Y290945*
X271654Y290650*
Y290207*
X271439Y289911*
X271117Y289764*
X270687*
X270365Y289911*
X270150Y290207*
X274553Y293455D02*
X272620Y288730D01*
X275519Y292864D02*
X276056Y289764D01*
X276593Y292864D02*
X276056Y289764D01*
X276593Y292864D02*
X277130Y289764D01*
X277666Y292864D02*
X277130Y289764D01*
X267645Y253839D02*
X267430Y254134D01*
X267108Y254281*
X266679*
X266356Y254134*
X266142Y253839*
Y253543*
X266249Y253248*
X266356Y253100*
X266571Y252953*
X267215Y252657*
X267430Y252510*
X267538Y252362*
X267645Y252067*
Y251624*
X267430Y251329*
X267108Y251181*
X266679*
X266356Y251329*
X266142Y251624*
X270544Y254872D02*
X268611Y250148D01*
X271510Y254281D02*
X272369Y251181D01*
X273228Y254281D02*
X272369Y251181D01*
G54D37*
X252362Y222047D02*
Y237795D01*
X246850*
Y222047*
X252362*
Y232283D02*
X246850D01*
X135630Y316339D02*
Y304134D01*
X147835*
Y316339*
X135630*
X151181Y306496D02*
X153150Y305512D01*
Y307480*
X151181Y306496*
X251575Y400197D02*
X182677D01*
Y380512*
X245669*
X251575Y386417*
Y400197*
X249606Y392323D02*
X251575D01*
Y396260*
X249606*
Y398228*
X184646Y392323D02*
X182677D01*
Y396260*
X249606Y398228D02*
X184646D01*
Y396260*
Y392323D02*
Y382480D01*
X244685*
X249606Y387402*
Y392323*
X182677Y396260D02*
X184646D01*
X130709Y298425D02*
X152756D01*
Y276378*
X130709*
Y298425*
X103937Y123268D02*
Y139764D01*
X109843*
Y143701*
X133465*
Y139764*
X139370*
Y85827*
X103937*
Y131969*
X148803Y234662D02*
Y235062D01*
X149203Y234862*
X148803Y234662*
X170866Y400197D02*
X131496D01*
Y380512*
X164961*
X170866Y386417*
Y400197*
X168898Y392323D02*
X170866D01*
Y396260*
X168898*
Y398228*
X133465Y392323D02*
X131496D01*
Y396260*
X168898Y398228D02*
X133465D01*
Y396260*
Y392323D02*
Y382480D01*
X163976*
X168898Y387402*
Y392323*
X133465Y396260D02*
X131496D01*
X87205Y290945D02*
Y222047D01*
X106890*
Y285039*
X100984Y290945*
X87205*
X95079Y288976D02*
Y290945D01*
X91142*
Y288976*
X89173*
X95079Y224016D02*
Y222047D01*
X91142*
X89173Y288976D02*
Y224016D01*
X91142*
X95079D02*
X104921D01*
Y284055*
X100000Y288976*
X95079*
X91142Y222047D02*
Y224016D01*
X278150Y219094D02*
Y248622D01*
X258465*
Y225000*
X264370Y219094*
X278150*
X270276Y221063D02*
Y219094D01*
X274213*
Y221063*
X276181*
X270276Y246654D02*
Y248622D01*
X274213*
Y246654*
X276181Y221063D02*
Y246654D01*
X274213*
X270276D02*
X260433D01*
Y225984*
X265354Y221063*
X270276*
X87205Y361811D02*
Y302756D01*
X106890*
Y355906*
X100984Y361811*
X87205*
X95079Y359843D02*
Y361811D01*
X91142*
Y359843*
X89173*
X95079Y304724D02*
Y302756D01*
X91142*
X89173Y359843D02*
Y304724D01*
X91142*
X95079D02*
X104921D01*
Y354921*
X100000Y359843*
X95079*
X91142Y302756D02*
Y304724D01*
X278150Y258465D02*
Y287992D01*
X258465*
Y264370*
X264370Y258465*
X278150*
X270276Y260433D02*
Y258465D01*
X274213*
Y260433*
X276181*
X270276Y286024D02*
Y287992D01*
X274213*
Y286024*
X276181Y260433D02*
Y286024D01*
X274213*
X270276D02*
X260433D01*
Y265354*
X265354Y260433*
X270276*
X278150Y298819D02*
Y348031D01*
X258465*
Y304724*
X264370Y298819*
X278150*
X270276Y300787D02*
Y298819D01*
X274213*
Y300787*
X276181*
X270276Y346063D02*
Y348031D01*
X274213*
X276181Y300787D02*
Y346063D01*
X274213*
X270276D02*
X260433D01*
Y305709*
X265354Y300787*
X270276*
X274213Y346063D02*
Y348031D01*
X259354Y381654D02*
X272354D01*
Y377654*
X259354Y361654D02*
X272354D01*
Y365654*
X122272Y157917D02*
Y151417D01*
X131272*
Y157917*
X122272Y164917D02*
Y171417D01*
X131272*
Y164917*
X122272Y161417D02*
X131272D01*
X136755Y339354D02*
X136355D01*
X136555Y339754*
X136755Y339354*
X281102Y403150D02*
G03X277165Y407087I-3937J-0D01*
G01X103937*
G03X100000Y403150I0J-3937*
G01Y371654*
X96063Y367717D02*
G03X100000Y371654I-0J3937D01*
G01X96063Y367717D02*
X84252D01*
G03X80315Y363780I-0J-3937*
G01Y218110*
G03X84252Y214173I3937J0*
G01X96063*
X100000Y210236D02*
G03X96063Y214173I-3937J0D01*
G01X100000Y210236D02*
Y103937D01*
G03X103937Y100000I3937J0*
G01X143307*
G03X147244Y103937I0J3937*
G01Y172835*
X164961Y190551D02*
G03X147244Y172835I-0J-17716D01*
G01X164961Y190551D02*
X277165D01*
G03X281102Y194488I0J3937*
G01Y403150*
G54D38*
X241535Y319291D02*
G03X241535I-984J0D01*
G54D73*
G01X249606Y231890D02*
X248031Y228346D01*
X251181*
X249606Y231890*
X248425Y228740D02*
X250787D01*
X249606Y231102*
X248425Y228740*
X249213Y229134D02*
X250000D01*
X249606Y229921*
X249213Y229134*
X207874Y322835D02*
X244094D01*
Y286614*
X207874*
Y322835*
X134974Y228399D02*
G03X134968Y221999I2395J-3202D01*
G01X131771Y221997D02*
Y228397D01*
X134974Y215013D02*
G03X134968Y208613I2395J-3202D01*
G01X131771Y208611D02*
Y215011D01*
X130381Y235381D02*
G03X130386Y241781I-2396J3202D01*
G01X133583Y241783D02*
Y235383D01*
X134974Y203202D02*
G03X134968Y196802I2395J-3202D01*
G01X131771Y196800D02*
Y203200D01*
X171654Y247441D02*
X168110D01*
Y248425*
X165748*
Y247441*
X162205*
Y259646*
X171654*
Y247441*
X115157Y174213D02*
X108465D01*
Y169094*
X115157*
Y174213*
X113386Y169291D02*
Y174016D01*
Y171654D02*
X110236Y170079D01*
Y173228*
X113386Y171654*
X112598D02*
X110630Y170866D01*
Y172441*
X112598Y171654*
X111811D02*
X111024Y171260D01*
Y172047*
X111811Y171654*
X126969Y285827D02*
X112402D01*
Y277953*
X126969*
Y285827*
X117323Y279528D02*
Y284252D01*
X122047Y279528D02*
Y284252D01*
X117323Y281890*
X122047Y279528*
X121654Y280315D02*
Y283465D01*
X118504Y281890*
X121654Y280315*
X121260Y281102D02*
Y282677D01*
X119685Y281890*
X121260Y281102*
X120866Y281496D02*
Y282283D01*
X120472Y281890*
X120866Y281496*
X161417Y376033D02*
Y370866D01*
Y376033D02*
X162849Y370866D01*
X164281Y376033D02*
X162849Y370866D01*
X164281Y376033D02*
Y370866D01*
X165891Y376033D02*
Y370866D01*
Y376033D02*
X167502D01*
X168039Y375787*
X168218Y375541*
X168397Y375049*
Y374311*
X168218Y373819*
X168039Y373573*
X167502Y373327*
X165891*
X170007Y376033D02*
Y370866D01*
Y376033D02*
X171260D01*
X171797Y375787*
X172155Y375295*
X172334Y374803*
X172513Y374065*
Y372835*
X172334Y372096*
X172155Y371604*
X171797Y371112*
X171260Y370866*
X170007*
X178239Y376033D02*
X179671Y370866D01*
X181102Y376033D02*
X179671Y370866D01*
X182892Y374803D02*
Y375049D01*
X183071Y375541*
X183250Y375787*
X183608Y376033*
X184324*
X184681Y375787*
X184860Y375541*
X185039Y375049*
Y374557*
X184860Y374065*
X184503Y373327*
X182713Y370866*
X185218*
X187008Y371358D02*
X186829Y371112D01*
X187008Y370866*
X187187Y371112*
X187008Y371358*
X189871Y376033D02*
X189334Y375787D01*
X188976Y375049*
X188797Y373819*
Y373081*
X188976Y371850*
X189334Y371112*
X189871Y370866*
X190229*
X190766Y371112*
X191124Y371850*
X191303Y373081*
Y373819*
X191124Y375049*
X190766Y375787*
X190229Y376033*
X189871*
G54D74*
X243799Y329134D02*
G03X243799I-492J0D01*
G54D75*
G01X162410Y237792D02*
Y196854D01*
X161425Y237823D02*
Y196854D01*
X133594Y352961D02*
X154594D01*
X133594Y351977D02*
X154594D01*
G54D76*
X150103Y234862D02*
X148403Y235562D01*
Y234162*
X150103Y234862*
X120298Y227072D02*
Y223697D01*
X119071Y225384D02*
X121525D01*
X120298Y213686D02*
Y210311D01*
X119071Y211999D02*
X121525D01*
X145056Y236708D02*
Y240083D01*
X146283Y238395D02*
X143829D01*
X120298Y201875D02*
Y198500D01*
X119071Y200188D02*
X121525D01*
X119685Y322835D02*
Y325984D01*
X125591Y321654D02*
X113780D01*
Y327165*
X125591*
Y321654*
X120472Y324409D02*
X118898D01*
X137008Y322835D02*
Y325984D01*
X142913Y321654D02*
X131102D01*
Y327165*
X142913*
Y321654*
X137795Y324409D02*
X136220D01*
X185039Y300787D02*
Y297638D01*
X179134Y301969D02*
X190945D01*
Y296457*
X179134*
Y301969*
X184252Y299213D02*
X185827D01*
X185039Y292520D02*
Y289370D01*
X179134Y293701D02*
X190945D01*
Y288189*
X179134*
Y293701*
X184252Y290945D02*
X185827D01*
X185039Y306299D02*
Y309449D01*
X190945Y305118D02*
X179134D01*
Y310630*
X190945*
Y305118*
X185827Y307874D02*
X184252D01*
X197638Y223622D02*
Y226772D01*
X203543Y222441D02*
X191732D01*
Y227953*
X203543*
Y222441*
X198425Y225197D02*
X196850D01*
X197638Y214961D02*
Y218110D01*
X203543Y213780D02*
X191732D01*
Y219291*
X203543*
Y213780*
X198425Y216535D02*
X196850D01*
X197638Y203937D02*
Y200787D01*
X191732Y205118D02*
X203543D01*
Y199606*
X191732*
Y205118*
X196850Y202362D02*
X198425D01*
X137008Y267717D02*
Y270866D01*
X142913Y266535D02*
X131102D01*
Y272047*
X142913*
Y266535*
X137795Y269291D02*
X136220D01*
X197638Y211024D02*
Y207874D01*
X191732Y212205D02*
X203543D01*
Y206693*
X191732*
Y212205*
X196850Y209449D02*
X198425D01*
X185039Y321260D02*
Y324409D01*
X190945Y320079D02*
X179134D01*
Y325591*
X190945*
Y320079*
X185827Y322835D02*
X184252D01*
X233858Y261417D02*
X237008D01*
X232677Y255512D02*
Y267323D01*
X238189*
Y255512*
X232677*
X235433Y260630D02*
Y262205D01*
X248031Y261417D02*
X251181D01*
X246850Y255512D02*
Y267323D01*
X252362*
Y255512*
X246850*
X249606Y260630D02*
Y262205D01*
X185039Y328346D02*
Y331496D01*
X190945Y327165D02*
X179134D01*
Y332677*
X190945*
Y327165*
X185827Y329921D02*
X184252D01*
X137008Y260630D02*
Y263780D01*
X142913Y259449D02*
X131102D01*
Y264961*
X142913*
Y259449*
X137795Y262205D02*
X136220D01*
X231890Y224409D02*
Y227559D01*
X237795Y223228D02*
X225984D01*
Y228740*
X237795*
Y223228*
X232677Y225984D02*
X231102D01*
X229134Y213386D02*
Y210236D01*
X223228Y214567D02*
X235039D01*
Y209055*
X223228*
Y214567*
X228346Y211811D02*
X229921D01*
X243307Y370079D02*
Y373228D01*
X249213Y368898D02*
X237402D01*
Y374409*
X249213*
Y368898*
X244094Y371654D02*
X242520D01*
X229134Y217323D02*
Y220472D01*
X235039Y216142D02*
X223228D01*
Y221654*
X235039*
Y216142*
X229921Y218898D02*
X228346D01*
X222835Y261417D02*
X219685D01*
X224016Y267323D02*
Y255512D01*
X218504*
Y267323*
X224016*
X221260Y262205D02*
Y260630D01*
X229134Y241732D02*
Y238583D01*
X223228Y242913D02*
X235039D01*
Y237402*
X223228*
Y242913*
X228346Y240157D02*
X229921D01*
X200787Y344882D02*
X203937D01*
X199606Y338976D02*
Y350787D01*
X205118*
Y338976*
X199606*
X202362Y344094D02*
Y345669D01*
X193701Y344882D02*
X196850D01*
X192520Y338976D02*
Y350787D01*
X198031*
Y338976*
X192520*
X195276Y344094D02*
Y345669D01*
X137795Y186614D02*
Y189764D01*
X143701Y185433D02*
X131890D01*
Y190945*
X143701*
Y185433*
X138583Y188189D02*
X137008D01*
X119685Y362205D02*
Y359055D01*
X113780Y363386D02*
X125591D01*
Y357874*
X113780*
Y363386*
X118898Y360630D02*
X120472D01*
X229921Y261417D02*
X226772D01*
X231102Y267323D02*
Y255512D01*
X225591*
Y267323*
X231102*
X228346Y262205D02*
Y260630D01*
X137008Y250000D02*
Y246850D01*
X131102Y251181D02*
X142913D01*
Y245669*
X131102*
Y251181*
X136220Y248425D02*
X137795D01*
X229134Y234646D02*
Y231496D01*
X223228Y235827D02*
X235039D01*
Y230315*
X223228*
Y235827*
X228346Y233071D02*
X229921D01*
X120276Y366142D02*
Y369291D01*
X119094Y366142D02*
Y369291D01*
X125591Y364961D02*
X113780D01*
Y370472*
X125591*
Y364961*
X215748Y344291D02*
X218898D01*
X215748Y345472D02*
X218898D01*
X214567Y338976D02*
Y350787D01*
X220079*
Y338976*
X214567*
X185630Y314173D02*
Y317323D01*
X184449Y314173D02*
Y317323D01*
X190945Y312992D02*
X179134D01*
Y318504*
X190945*
Y312992*
X230709Y344291D02*
X233858D01*
X230709Y345472D02*
X233858D01*
X229528Y338976D02*
Y350787D01*
X235039*
Y338976*
X229528*
X245669Y344291D02*
X248819D01*
X245669Y345472D02*
X248819D01*
X244488Y338976D02*
Y350787D01*
X250000*
Y338976*
X244488*
X185630Y278740D02*
Y281890D01*
X184449Y278740D02*
Y281890D01*
X190945Y277559D02*
X179134D01*
Y283071*
X190945*
Y277559*
X244094Y262008D02*
X240945D01*
X244094Y260827D02*
X240945D01*
X245276Y267323D02*
Y255512D01*
X239764*
Y267323*
X245276*
X208661Y344291D02*
X211811D01*
X208661Y345472D02*
X211811D01*
X207480Y338976D02*
Y350787D01*
X212992*
Y338976*
X207480*
X237795Y344291D02*
X240945D01*
X237795Y345472D02*
X240945D01*
X236614Y338976D02*
Y350787D01*
X242126*
Y338976*
X236614*
X163976Y319685D02*
Y316535D01*
X165157Y319685D02*
Y316535D01*
X158661Y320866D02*
X170472D01*
Y315354*
X158661*
Y320866*
X228543Y248819D02*
Y245669D01*
X229724Y248819D02*
Y245669D01*
X223228Y250000D02*
X235039D01*
Y244488*
X223228*
Y250000*
X119094Y311811D02*
Y308661D01*
X120276Y311811D02*
Y308661D01*
X113780Y312992D02*
X125591D01*
Y307480*
X113780*
Y312992*
X119094Y318898D02*
Y315748D01*
X120276Y318898D02*
Y315748D01*
X113780Y320079D02*
X125591D01*
Y314567*
X113780*
Y320079*
X243110Y245669D02*
Y248819D01*
X241929Y245669D02*
Y248819D01*
X248425Y244488D02*
X236614D01*
Y250000*
X248425*
Y244488*
X197047Y233858D02*
Y230709D01*
X198228Y233858D02*
Y230709D01*
X191732Y235039D02*
X203543D01*
Y229528*
X191732*
Y235039*
X167520Y355906D02*
Y359055D01*
X166339Y355906D02*
Y359055D01*
X172835Y354724D02*
X161024D01*
Y360236*
X172835*
Y354724*
X120276Y338583D02*
Y341732D01*
X119094Y338583D02*
Y341732D01*
X125591Y337402D02*
X113780D01*
Y342913*
X125591*
Y337402*
X112402Y178740D02*
Y181890D01*
X111220Y178740D02*
Y181890D01*
X117717Y177559D02*
X105906D01*
Y183071*
X117717*
Y177559*
X112402Y186614D02*
Y189764D01*
X111220Y186614D02*
Y189764D01*
X117717Y185433D02*
X105906D01*
Y190945*
X117717*
Y185433*
X120276Y330709D02*
Y333858D01*
X119094Y330709D02*
Y333858D01*
X125591Y329528D02*
X113780D01*
Y335039*
X125591*
Y329528*
X165551Y279528D02*
Y276378D01*
X166732Y279528D02*
Y276378D01*
X160236Y280709D02*
X172047D01*
Y275197*
X160236*
Y280709*
X121850Y246850D02*
Y250000D01*
X120669Y246850D02*
Y250000D01*
X127165Y245669D02*
X115354D01*
Y251181*
X127165*
Y245669*
X211220Y226772D02*
Y223622D01*
X212402Y226772D02*
Y223622D01*
X205906Y227953D02*
X217717D01*
Y222441*
X205906*
Y227953*
X211220Y218110D02*
Y214961D01*
X212402Y218110D02*
Y214961D01*
X205906Y219291D02*
X217717D01*
Y213780*
X205906*
Y219291*
X137205Y181890D02*
Y178740D01*
X138386Y181890D02*
Y178740D01*
X131890Y183071D02*
X143701D01*
Y177559*
X131890*
Y183071*
X185039Y270866D02*
Y274016D01*
X190945Y269685D02*
X179134D01*
Y275197*
X190945*
Y269685*
X185827Y272441D02*
X184252D01*
X196850Y251575D02*
X193701D01*
X198031Y257480D02*
Y245669D01*
X192520*
Y257480*
X198031*
X195276Y252362D02*
Y250787D01*
X137598Y253543D02*
Y256693D01*
X136417Y253543D02*
Y256693D01*
X142913Y252362D02*
X131102D01*
Y257874*
X142913*
Y252362*
X243898Y362205D02*
Y365354D01*
X242717Y362205D02*
Y365354D01*
X249213Y361024D02*
X237402D01*
Y366535*
X249213*
Y361024*
X136555Y340654D02*
X135855Y338954D01*
X137255*
X136555Y340654*
G54D77*
X148103Y233662D02*
Y236062D01*
X150903Y234862*
X148103Y233662*
X137755Y338654D02*
X135355D01*
X136555Y341454*
X137755Y338654*
G54D78*
X160717Y238323D02*
Y196323D01*
X174717*
Y238323*
X169217*
Y236323*
X166217*
Y238323*
X160717*
X133094Y351268D02*
X155094D01*
Y365268*
X133094*
Y359768*
X135094*
Y356768*
X133094*
Y351268*
G54D79*
X123071Y230197D02*
X143071D01*
Y220197*
X123071*
Y230197*
X122071*
Y220197*
X123071*
Y230197*
X122571Y220197D02*
Y230197D01*
X123071Y216811D02*
X143071D01*
Y206811*
X123071*
Y216811*
X122071*
Y206811*
X123071*
Y216811*
X122571Y206811D02*
Y216811D01*
X142283Y233583D02*
X122283D01*
Y243583*
X142283*
Y233583*
X143283*
Y243583*
X142283*
Y233583*
X142783Y243583D02*
Y233583D01*
X123071Y205000D02*
X143071D01*
Y195000*
X123071*
Y205000*
X122071*
Y195000*
X123071*
Y205000*
X122571Y195000D02*
Y205000D01*
G54D80*
X248031Y220423D02*
Y217323D01*
Y220423D02*
X248783D01*
X249105Y220276*
X249320Y219980*
X249427Y219685*
X249535Y219242*
Y218504*
X249427Y218061*
X249320Y217766*
X249105Y217470*
X248783Y217323*
X248031*
X251790Y219980D02*
X251682Y220276D01*
X251360Y220423*
X251145*
X250823Y220276*
X250608Y219833*
X250501Y219094*
Y218356*
X250608Y217766*
X250823Y217470*
X251145Y217323*
X251253*
X251575Y217470*
X251790Y217766*
X251897Y218209*
Y218356*
X251790Y218799*
X251575Y219094*
X251253Y219242*
X251145*
X250823Y219094*
X250608Y218799*
X250501Y218356*
X237470Y206531D02*
X237255Y206383D01*
X237040Y206088*
X236933Y205792*
X236825Y205349*
Y204611*
X236933Y204168*
X237040Y203873*
X237255Y203578*
X237470Y203430*
X237899*
X238114Y203578*
X238329Y203873*
X238436Y204168*
X238543Y204611*
Y205349*
X238436Y205792*
X238329Y206088*
X238114Y206383*
X237899Y206531*
X237470*
X237792Y204021D02*
X238436Y203135D01*
X239724Y206531D02*
X240906D01*
X240261Y205349*
X240583*
X240798Y205202*
X240906Y205054*
X241013Y204611*
Y204316*
X240906Y203873*
X240691Y203578*
X240369Y203430*
X240047*
X239724Y203578*
X239617Y203725*
X239510Y204021*
X149606Y321998D02*
Y319783D01*
X149714Y319341*
X149928Y319045*
X150251Y318898*
X150465*
X150787Y319045*
X151002Y319341*
X151110Y319783*
Y321998*
X153150D02*
X152076Y319931D01*
X153686*
X153150Y321998D02*
Y318898D01*
X173336Y338263D02*
Y336048D01*
X173443Y335605*
X173658Y335310*
X173980Y335162*
X174195*
X174517Y335310*
X174732Y335605*
X174839Y336048*
Y338263*
X177201D02*
X176127D01*
X176020Y336934*
X176127Y337082*
X176450Y337229*
X176772*
X177094Y337082*
X177309Y336786*
X177416Y336344*
X177309Y336048*
X177201Y335605*
X176986Y335310*
X176664Y335162*
X176342*
X176020Y335310*
X175913Y335458*
X175805Y335753*
X177695Y350074D02*
Y346973D01*
X178984*
X181024Y350074D02*
X179950Y348007D01*
X181560*
X181024Y350074D02*
Y346973D01*
X229885Y376378D02*
X229993Y376083D01*
X230208Y375787*
X230422Y375640*
X230852*
X231067Y375787*
X231281Y376083*
X231389Y376378*
X231496Y376821*
Y377559*
X231389Y378002*
X231281Y378297*
X231067Y378593*
X230852Y378740*
X230422*
X230208Y378593*
X229993Y378297*
X229885Y378002*
X228919Y375640D02*
Y378740D01*
Y375640D02*
X227416Y378740D01*
Y375640D02*
Y378740D01*
X226450Y376230D02*
X226235Y376083D01*
X225913Y375640*
Y378740*
X224302Y375640D02*
X224624Y375787D01*
X224839Y376230*
X224946Y376969*
Y377411*
X224839Y378150*
X224624Y378593*
X224302Y378740*
X224087*
X223765Y378593*
X223550Y378150*
X223443Y377411*
Y376969*
X223550Y376230*
X223765Y375787*
X224087Y375640*
X224302*
X221403D02*
X222477Y377707D01*
X220866*
X221403Y375640D02*
Y378740D01*
X125197Y296014D02*
Y292913D01*
X126485*
X127666Y296014D02*
X128848D01*
X128203Y294833*
X128525*
X128740Y294685*
X128848Y294537*
X128955Y294094*
Y293799*
X128848Y293356*
X128633Y293061*
X128311Y292913*
X127989*
X127666Y293061*
X127559Y293209*
X127452Y293504*
X160000Y313302D02*
X159785Y313155D01*
X159571Y312859*
X159463Y312564*
X159356Y312121*
Y311383*
X159463Y310940*
X159571Y310645*
X159785Y310349*
X160000Y310202*
X160429*
X160644Y310349*
X160859Y310645*
X160966Y310940*
X161074Y311383*
Y312121*
X160966Y312564*
X160859Y312859*
X160644Y313155*
X160429Y313302*
X160000*
X160322Y310792D02*
X160966Y309906D01*
X162040Y312712D02*
X162255Y312859D01*
X162577Y313302*
Y310202*
X160304Y299129D02*
X160089Y298981D01*
X159875Y298686*
X159767Y298391*
X159660Y297948*
Y297210*
X159767Y296767*
X159875Y296471*
X160089Y296176*
X160304Y296029*
X160734*
X160948Y296176*
X161163Y296471*
X161271Y296767*
X161378Y297210*
Y297948*
X161271Y298391*
X161163Y298686*
X160948Y298981*
X160734Y299129*
X160304*
X160626Y296619D02*
X161271Y295733D01*
X162452Y298391D02*
Y298538D01*
X162559Y298834*
X162666Y298981*
X162881Y299129*
X163311*
X163525Y298981*
X163633Y298834*
X163740Y298538*
Y298243*
X163633Y297948*
X163418Y297505*
X162344Y296029*
X163848*
X247652Y330940D02*
Y328725D01*
X247759Y328282*
X247974Y327987*
X248296Y327840*
X248511*
X248833Y327987*
X249048Y328282*
X249155Y328725*
Y330940*
X250122Y330349D02*
X250336Y330497D01*
X250659Y330940*
Y327840*
X108661Y149557D02*
Y146457D01*
Y149557D02*
X109413D01*
X109735Y149409*
X109950Y149114*
X110057Y148819*
X110165Y148376*
Y147638*
X110057Y147195*
X109950Y146900*
X109735Y146604*
X109413Y146457*
X108661*
X112742Y148819D02*
X112634Y149114D01*
X112419Y149409*
X112205Y149557*
X111775*
X111560Y149409*
X111346Y149114*
X111238Y148819*
X111131Y148376*
Y147638*
X111238Y147195*
X111346Y146900*
X111560Y146604*
X111775Y146457*
X112205*
X112419Y146604*
X112634Y146900*
X112742Y147195*
X113708Y148967D02*
X113923Y149114D01*
X114245Y149557*
Y146457*
X155118Y243258D02*
Y241043D01*
X155225Y240600*
X155440Y240305*
X155762Y240157*
X155977*
X156299Y240305*
X156514Y240600*
X156621Y241043*
Y243258*
X157802D02*
X158984D01*
X158339Y242077*
X158661*
X158876Y241929*
X158984Y241781*
X159091Y241339*
Y241043*
X158984Y240600*
X158769Y240305*
X158447Y240157*
X158125*
X157802Y240305*
X157695Y240453*
X157588Y240748*
X147195Y227595D02*
X144094D01*
X147195Y228346D02*
Y226843D01*
X146457Y224266D02*
X146752Y224374D01*
X147047Y224588*
X147195Y224803*
Y225233*
X147047Y225447*
X146752Y225662*
X146457Y225770*
X146014Y225877*
X145276*
X144833Y225770*
X144537Y225662*
X144242Y225447*
X144094Y225233*
Y224803*
X144242Y224588*
X144537Y224374*
X144833Y224266*
X146604Y223300D02*
X146752Y223085D01*
X147195Y222763*
X144094*
X147195Y214209D02*
X144094D01*
X147195Y214961D02*
Y213457D01*
X146457Y210880D02*
X146752Y210988D01*
X147047Y211203*
X147195Y211417*
Y211847*
X147047Y212062*
X146752Y212276*
X146457Y212384*
X146014Y212491*
X145276*
X144833Y212384*
X144537Y212276*
X144242Y212062*
X144094Y211847*
Y211417*
X144242Y211203*
X144537Y210988*
X144833Y210880*
X146457Y209807D02*
X146604D01*
X146900Y209699*
X147047Y209592*
X147195Y209377*
Y208948*
X147047Y208733*
X146900Y208626*
X146604Y208518*
X146309*
X146014Y208626*
X145571Y208840*
X144094Y209914*
Y208411*
X115797Y236185D02*
X118898D01*
X115797Y235433D02*
Y236936D01*
X116535Y239513D02*
X116240Y239406D01*
X115945Y239191*
X115797Y238976*
Y238547*
X115945Y238332*
X116240Y238117*
X116535Y238010*
X116978Y237903*
X117717*
X118159Y238010*
X118455Y238117*
X118750Y238332*
X118898Y238547*
Y238976*
X118750Y239191*
X118455Y239406*
X118159Y239513*
X115797Y240694D02*
Y241875D01*
X116978Y241231*
Y241553*
X117126Y241768*
X117274Y241875*
X117717Y241983*
X118012*
X118455Y241875*
X118750Y241661*
X118898Y241339*
Y241016*
X118750Y240694*
X118602Y240587*
X118307Y240480*
X147195Y203185D02*
X144094D01*
X147195Y203937D02*
Y202434D01*
X146457Y199857D02*
X146752Y199964D01*
X147047Y200179*
X147195Y200394*
Y200823*
X147047Y201038*
X146752Y201253*
X146457Y201360*
X146014Y201467*
X145276*
X144833Y201360*
X144537Y201253*
X144242Y201038*
X144094Y200823*
Y200394*
X144242Y200179*
X144537Y199964*
X144833Y199857*
X147195Y197817D02*
X145128Y198890D01*
Y197280*
X147195Y197817D02*
X144094D01*
X151933Y376378D02*
X152040Y376083D01*
X152255Y375787*
X152470Y375640*
X152899*
X153114Y375787*
X153329Y376083*
X153436Y376378*
X153543Y376821*
Y377559*
X153436Y378002*
X153329Y378297*
X153114Y378593*
X152899Y378740*
X152470*
X152255Y378593*
X152040Y378297*
X151933Y378002*
X150322Y375640D02*
X150537Y375787D01*
X150752Y376083*
X150859Y376378*
X150966Y376821*
Y377559*
X150859Y378002*
X150752Y378297*
X150537Y378593*
X150322Y378740*
X149893*
X149678Y378593*
X149463Y378297*
X149356Y378002*
X149248Y377559*
Y376821*
X149356Y376378*
X149463Y376083*
X149678Y375787*
X149893Y375640*
X150322*
X148282D02*
Y378740D01*
Y375640D02*
X147423Y378740D01*
X146564Y375640D02*
X147423Y378740D01*
X146564Y375640D02*
Y378740D01*
X145598Y376230D02*
X145383Y376083D01*
X145061Y375640*
Y378740*
X111024Y271618D02*
X111319Y271725D01*
X111614Y271940*
X111762Y272155*
Y272584*
X111614Y272799*
X111319Y273014*
X111024Y273121*
X110581Y273228*
X109843*
X109400Y273121*
X109104Y273014*
X108809Y272799*
X108661Y272584*
Y272155*
X108809Y271940*
X109104Y271725*
X109400Y271618*
X111762Y270651D02*
X108661D01*
X111762D02*
X108661Y269148D01*
X111762D02*
X108661D01*
X111171Y268182D02*
X111319Y267967D01*
X111762Y267645*
X108661*
X111762Y266034D02*
X111614Y266356D01*
X111171Y266571*
X110433Y266679*
X109990*
X109252Y266571*
X108809Y266356*
X108661Y266034*
Y265820*
X108809Y265497*
X109252Y265283*
X109990Y265175*
X110433*
X111171Y265283*
X111614Y265497*
X111762Y265820*
Y266034*
X111024Y264102D02*
X111171D01*
X111467Y263994*
X111614Y263887*
X111762Y263672*
Y263243*
X111614Y263028*
X111467Y262921*
X111171Y262813*
X110876*
X110581Y262921*
X110138Y263135*
X108661Y264209*
Y262706*
X255118Y221296D02*
X254823Y221188D01*
X254528Y220974*
X254380Y220759*
Y220329*
X254528Y220115*
X254823Y219900*
X255118Y219792*
X255561Y219685*
X256299*
X256742Y219792*
X257037Y219900*
X257333Y220115*
X257480Y220329*
Y220759*
X257333Y220974*
X257037Y221188*
X256742Y221296*
X254380Y222262D02*
X257480D01*
X254380D02*
X257480Y223765D01*
X254380D02*
X257480D01*
X254970Y224732D02*
X254823Y224946D01*
X254380Y225268*
X257480*
X254380Y226879D02*
X254528Y226557D01*
X254970Y226342*
X255709Y226235*
X256152*
X256890Y226342*
X257333Y226557*
X257480Y226879*
Y227094*
X257333Y227416*
X256890Y227631*
X256152Y227738*
X255709*
X254970Y227631*
X254528Y227416*
X254380Y227094*
Y226879*
X254970Y228704D02*
X254823Y228919D01*
X254380Y229241*
X257480*
X129872Y327559D02*
X126772D01*
X129872D02*
Y326593D01*
X129724Y326271*
X129577Y326163*
X129281Y326056*
X128986*
X128691Y326163*
X128543Y326271*
X128396Y326593*
Y327559*
Y326807D02*
X126772Y326056D01*
X129281Y325089D02*
X129429Y324875D01*
X129872Y324553*
X126772*
X129872Y322942D02*
X129724Y323264D01*
X129281Y323479*
X128543Y323586*
X128100*
X127362Y323479*
X126919Y323264*
X126772Y322942*
Y322727*
X126919Y322405*
X127362Y322190*
X128100Y322083*
X128543*
X129281Y322190*
X129724Y322405*
X129872Y322727*
Y322942*
X147195Y327559D02*
X144094D01*
X147195D02*
Y326593D01*
X147047Y326271*
X146900Y326163*
X146604Y326056*
X146309*
X146014Y326163*
X145866Y326271*
X145719Y326593*
Y327559*
Y326807D02*
X144094Y326056D01*
X146604Y325089D02*
X146752Y324875D01*
X147195Y324553*
X144094*
X146604Y323586D02*
X146752Y323372D01*
X147195Y323049*
X144094*
X192126Y304675D02*
Y301575D01*
Y304675D02*
X193092D01*
X193414Y304528*
X193522Y304380*
X193629Y304085*
Y303789*
X193522Y303494*
X193414Y303346*
X193092Y303199*
X192126*
X192878D02*
X193629Y301575D01*
X194596Y304085D02*
X194810Y304232D01*
X195132Y304675*
Y301575*
X196206Y303937D02*
Y304085D01*
X196314Y304380*
X196421Y304528*
X196636Y304675*
X197065*
X197280Y304528*
X197387Y304380*
X197495Y304085*
Y303789*
X197387Y303494*
X197173Y303051*
X196099Y301575*
X197602*
X192126Y293652D02*
Y290551D01*
Y293652D02*
X193092D01*
X193414Y293504*
X193522Y293356*
X193629Y293061*
Y292766*
X193522Y292470*
X193414Y292323*
X193092Y292175*
X192126*
X192878D02*
X193629Y290551D01*
X194596Y293061D02*
X194810Y293209D01*
X195132Y293652*
Y290551*
X196314Y293652D02*
X197495D01*
X196850Y292470*
X197173*
X197387Y292323*
X197495Y292175*
X197602Y291732*
Y291437*
X197495Y290994*
X197280Y290699*
X196958Y290551*
X196636*
X196314Y290699*
X196206Y290846*
X196099Y291142*
X192126Y313337D02*
Y310236D01*
Y313337D02*
X193092D01*
X193414Y313189*
X193522Y313041*
X193629Y312746*
Y312451*
X193522Y312156*
X193414Y312008*
X193092Y311860*
X192126*
X192878D02*
X193629Y310236D01*
X194596Y312746D02*
X194810Y312894D01*
X195132Y313337*
Y310236*
X197173Y313337D02*
X196099Y311270D01*
X197709*
X197173Y313337D02*
Y310236D01*
X190502Y227559D02*
X187402D01*
X190502D02*
Y226593D01*
X190354Y226271*
X190207Y226163*
X189911Y226056*
X189616*
X189321Y226163*
X189173Y226271*
X189026Y226593*
Y227559*
Y226807D02*
X187402Y226056D01*
X189911Y225089D02*
X190059Y224875D01*
X190502Y224553*
X187402*
X190502Y222190D02*
Y223264D01*
X189173Y223372*
X189321Y223264*
X189469Y222942*
Y222620*
X189321Y222298*
X189026Y222083*
X188583Y221976*
X188287Y222083*
X187844Y222190*
X187549Y222405*
X187402Y222727*
Y223049*
X187549Y223372*
X187697Y223479*
X187992Y223586*
X190502Y219685D02*
X187402D01*
X190502D02*
Y218719D01*
X190354Y218397*
X190207Y218289*
X189911Y218182*
X189616*
X189321Y218289*
X189173Y218397*
X189026Y218719*
Y219685*
Y218933D02*
X187402Y218182D01*
X189911Y217215D02*
X190059Y217001D01*
X190502Y216679*
X187402*
X190059Y214424D02*
X190354Y214531D01*
X190502Y214853*
Y215068*
X190354Y215390*
X189911Y215605*
X189173Y215712*
X188435*
X187844Y215605*
X187549Y215390*
X187402Y215068*
Y214961*
X187549Y214639*
X187844Y214424*
X188287Y214316*
X188435*
X188878Y214424*
X189173Y214639*
X189321Y214961*
Y215068*
X189173Y215390*
X188878Y215605*
X188435Y215712*
X190502Y204724D02*
X187402D01*
X190502D02*
Y203758D01*
X190354Y203436*
X190207Y203329*
X189911Y203221*
X189616*
X189321Y203329*
X189173Y203436*
X189026Y203758*
Y204724*
Y203973D02*
X187402Y203221D01*
X189911Y202255D02*
X190059Y202040D01*
X190502Y201718*
X187402*
X190502Y199248D02*
X187402Y200322D01*
X190502Y200752D02*
Y199248D01*
X144094Y272392D02*
Y269291D01*
Y272392D02*
X145061D01*
X145383Y272244*
X145490Y272096*
X145598Y271801*
Y271506*
X145490Y271211*
X145383Y271063*
X145061Y270915*
X144094*
X144846D02*
X145598Y269291D01*
X146564Y271801D02*
X146779Y271949D01*
X147101Y272392*
Y269291*
X148604Y272392D02*
X148282Y272244D01*
X148175Y271949*
Y271654*
X148282Y271358*
X148497Y271211*
X148926Y271063*
X149248Y270915*
X149463Y270620*
X149571Y270325*
Y269882*
X149463Y269587*
X149356Y269439*
X149034Y269291*
X148604*
X148282Y269439*
X148175Y269587*
X148067Y269882*
Y270325*
X148175Y270620*
X148389Y270915*
X148712Y271063*
X149141Y271211*
X149356Y271358*
X149463Y271654*
Y271949*
X149356Y272244*
X149034Y272392*
X148604*
X190502Y212598D02*
X187402D01*
X190502D02*
Y211632D01*
X190354Y211310*
X190207Y211203*
X189911Y211095*
X189616*
X189321Y211203*
X189173Y211310*
X189026Y211632*
Y212598*
Y211847D02*
X187402Y211095D01*
X189911Y210129D02*
X190059Y209914D01*
X190502Y209592*
X187402*
X189469Y207230D02*
X189026Y207337D01*
X188730Y207552*
X188583Y207874*
Y207981*
X188730Y208304*
X189026Y208518*
X189469Y208626*
X189616*
X190059Y208518*
X190354Y208304*
X190502Y207981*
Y207874*
X190354Y207552*
X190059Y207337*
X189469Y207230*
X188730*
X187992Y207337*
X187549Y207552*
X187402Y207874*
Y208089*
X187549Y208411*
X187844Y208518*
X192126Y327510D02*
Y324409D01*
Y327510D02*
X193092D01*
X193414Y327362*
X193522Y327215*
X193629Y326919*
Y326624*
X193522Y326329*
X193414Y326181*
X193092Y326033*
X192126*
X192878D02*
X193629Y324409D01*
X194703Y326772D02*
Y326919D01*
X194810Y327215*
X194918Y327362*
X195132Y327510*
X195562*
X195777Y327362*
X195884Y327215*
X195991Y326919*
Y326624*
X195884Y326329*
X195669Y325886*
X194596Y324409*
X196099*
X197709Y327510D02*
X197387Y327362D01*
X197173Y326919*
X197065Y326181*
Y325738*
X197173Y325000*
X197387Y324557*
X197709Y324409*
X197924*
X198246Y324557*
X198461Y325000*
X198568Y325738*
Y326181*
X198461Y326919*
X198246Y327362*
X197924Y327510*
X197709*
X233071Y272392D02*
Y269291D01*
Y272392D02*
X234037D01*
X234359Y272244*
X234467Y272096*
X234574Y271801*
Y271506*
X234467Y271211*
X234359Y271063*
X234037Y270915*
X233071*
X233822D02*
X234574Y269291D01*
X235648Y271654D02*
Y271801D01*
X235755Y272096*
X235863Y272244*
X236077Y272392*
X236507*
X236722Y272244*
X236829Y272096*
X236936Y271801*
Y271506*
X236829Y271211*
X236614Y270768*
X235540Y269291*
X237044*
X239084Y272392D02*
X238010Y270325D01*
X239621*
X239084Y272392D02*
Y269291D01*
X245669Y271604D02*
Y268504D01*
Y271604D02*
X246636D01*
X246958Y271457*
X247065Y271309*
X247173Y271014*
Y270719*
X247065Y270423*
X246958Y270276*
X246636Y270128*
X245669*
X246421D02*
X247173Y268504D01*
X248246Y270866D02*
Y271014D01*
X248354Y271309*
X248461Y271457*
X248676Y271604*
X249105*
X249320Y271457*
X249427Y271309*
X249535Y271014*
Y270719*
X249427Y270423*
X249213Y269980*
X248139Y268504*
X249642*
X252004Y271604D02*
X250931D01*
X250823Y270276*
X250931Y270423*
X251253Y270571*
X251575*
X251897Y270423*
X252112Y270128*
X252219Y269685*
X252112Y269390*
X252004Y268947*
X251790Y268652*
X251467Y268504*
X251145*
X250823Y268652*
X250716Y268799*
X250608Y269094*
X192126Y334596D02*
Y331496D01*
Y334596D02*
X193092D01*
X193414Y334449*
X193522Y334301*
X193629Y334006*
Y333711*
X193522Y333415*
X193414Y333268*
X193092Y333120*
X192126*
X192878D02*
X193629Y331496D01*
X194703Y333858D02*
Y334006D01*
X194810Y334301*
X194918Y334449*
X195132Y334596*
X195562*
X195777Y334449*
X195884Y334301*
X195991Y334006*
Y333711*
X195884Y333415*
X195669Y332972*
X194596Y331496*
X196099*
X198354Y334154D02*
X198246Y334449D01*
X197924Y334596*
X197709*
X197387Y334449*
X197173Y334006*
X197065Y333268*
Y332530*
X197173Y331939*
X197387Y331644*
X197709Y331496*
X197817*
X198139Y331644*
X198354Y331939*
X198461Y332382*
Y332530*
X198354Y332972*
X198139Y333268*
X197817Y333415*
X197709*
X197387Y333268*
X197173Y332972*
X197065Y332530*
X144094Y267667D02*
Y264567D01*
Y267667D02*
X145061D01*
X145383Y267520*
X145490Y267372*
X145598Y267077*
Y266781*
X145490Y266486*
X145383Y266339*
X145061Y266191*
X144094*
X144846D02*
X145598Y264567D01*
X146671Y266929D02*
Y267077D01*
X146779Y267372*
X146886Y267520*
X147101Y267667*
X147530*
X147745Y267520*
X147853Y267372*
X147960Y267077*
Y266781*
X147853Y266486*
X147638Y266043*
X146564Y264567*
X148067*
X150537Y267667D02*
X149463Y264567D01*
X149034Y267667D02*
X150537D01*
X239370Y227510D02*
Y224409D01*
Y227510D02*
X240336D01*
X240659Y227362*
X240766Y227215*
X240873Y226919*
Y226624*
X240766Y226329*
X240659Y226181*
X240336Y226033*
X239370*
X240122D02*
X240873Y224409D01*
X242054Y227510D02*
X243236D01*
X242591Y226329*
X242913*
X243128Y226181*
X243236Y226033*
X243343Y225591*
Y225295*
X243236Y224852*
X243021Y224557*
X242699Y224409*
X242377*
X242054Y224557*
X241947Y224705*
X241840Y225000*
X244953Y227510D02*
X244631Y227362D01*
X244417Y226919*
X244309Y226181*
Y225738*
X244417Y225000*
X244631Y224557*
X244953Y224409*
X245168*
X245490Y224557*
X245705Y225000*
X245812Y225738*
Y226181*
X245705Y226919*
X245490Y227362*
X245168Y227510*
X244953*
X240157Y213337D02*
Y210236D01*
Y213337D02*
X241124D01*
X241446Y213189*
X241553Y213041*
X241661Y212746*
Y212451*
X241553Y212156*
X241446Y212008*
X241124Y211860*
X240157*
X240909D02*
X241661Y210236D01*
X242842Y213337D02*
X244023D01*
X243379Y212156*
X243701*
X243916Y212008*
X244023Y211860*
X244130Y211417*
Y211122*
X244023Y210679*
X243808Y210384*
X243486Y210236*
X243164*
X242842Y210384*
X242734Y210531*
X242627Y210827*
X245097Y212746D02*
X245311Y212894D01*
X245634Y213337*
X245634D02*
Y210236D01*
X229921Y373179D02*
Y370079D01*
Y373179D02*
X230888D01*
X231210Y373031*
X231317Y372884*
X231424Y372589*
Y372293*
X231317Y371998*
X231210Y371850*
X230888Y371703*
X229921*
X230673D02*
X231424Y370079D01*
X232606Y373179D02*
X233787D01*
X233142Y371998*
X233465*
X233679Y371850*
X233787Y371703*
X233894Y371260*
Y370965*
X233787Y370522*
X233572Y370226*
X233250Y370079*
X232928*
X232606Y370226*
X232498Y370374*
X232391Y370669*
X234968Y372441D02*
Y372589D01*
X235075Y372884*
X235183Y373031*
X235397Y373179*
X235827*
X236042Y373031*
X236149Y372884*
X236256Y372589*
Y372293*
X236149Y371998*
X235934Y371555*
X234860Y370079*
X236364*
X239370Y220423D02*
Y217323D01*
Y220423D02*
X240336D01*
X240659Y220276*
X240766Y220128*
X240873Y219833*
Y219537*
X240766Y219242*
X240659Y219094*
X240336Y218947*
X239370*
X240122D02*
X240873Y217323D01*
X242054Y220423D02*
X243236D01*
X242591Y219242*
X242913*
X243128Y219094*
X243236Y218947*
X243343Y218504*
Y218209*
X243236Y217766*
X243021Y217470*
X242699Y217323*
X242377*
X242054Y217470*
X241947Y217618*
X241840Y217913*
X245383Y220423D02*
X244309Y218356D01*
X245920*
X245383Y220423D02*
Y217323D01*
X217323Y273967D02*
Y270866D01*
Y273967D02*
X218289D01*
X218611Y273819*
X218719Y273671*
X218826Y273376*
Y273081*
X218719Y272785*
X218611Y272638*
X218289Y272490*
X217323*
X218074D02*
X218826Y270866D01*
X220007Y273967D02*
X221188D01*
X220544Y272785*
X220866*
X221081Y272638*
X221188Y272490*
X221296Y272047*
Y271752*
X221188Y271309*
X220974Y271014*
X220651Y270866*
X220329*
X220007Y271014*
X219900Y271161*
X219792Y271457*
X223658Y273967D02*
X222584D01*
X222477Y272638*
X222584Y272785*
X222906Y272933*
X223228*
X223550Y272785*
X223765Y272490*
X223873Y272047*
X223765Y271752*
X223658Y271309*
X223443Y271014*
X223121Y270866*
X222799*
X222477Y271014*
X222369Y271161*
X222262Y271457*
X236220Y241683D02*
Y238583D01*
Y241683D02*
X237187D01*
X237509Y241535*
X237616Y241388*
X237724Y241093*
Y240797*
X237616Y240502*
X237509Y240354*
X237187Y240207*
X236220*
X236972D02*
X237724Y238583D01*
X238905Y241683D02*
X240086D01*
X239442Y240502*
X239764*
X239979Y240354*
X240086Y240207*
X240193Y239764*
Y239469*
X240086Y239026*
X239871Y238730*
X239549Y238583*
X239227*
X238905Y238730*
X238797Y238878*
X238690Y239173*
X242448Y241240D02*
X242341Y241535D01*
X242019Y241683*
X241804*
X241482Y241535*
X241267Y241093*
X241160Y240354*
Y239616*
X241267Y239026*
X241482Y238730*
X241804Y238583*
X241911*
X242233Y238730*
X242448Y239026*
X242555Y239469*
Y239616*
X242448Y240059*
X242233Y240354*
X241911Y240502*
X241804*
X241482Y240354*
X241267Y240059*
X241160Y239616*
X200000Y355069D02*
Y351969D01*
Y355069D02*
X200966D01*
X201288Y354921*
X201396Y354774*
X201503Y354478*
Y354183*
X201396Y353888*
X201288Y353740*
X200966Y353593*
X200000*
X200752D02*
X201503Y351969D01*
X203543Y355069D02*
X202470Y353002D01*
X204080*
X203543Y355069D02*
Y351969D01*
X205691Y355069D02*
X205369Y354921D01*
X205154Y354478*
X205047Y353740*
Y353297*
X205154Y352559*
X205369Y352116*
X205691Y351969*
X205906*
X206228Y352116*
X206442Y352559*
X206550Y353297*
Y353740*
X206442Y354478*
X206228Y354921*
X205906Y355069*
X205691*
X192126D02*
Y351969D01*
Y355069D02*
X193092D01*
X193414Y354921*
X193522Y354774*
X193629Y354478*
Y354183*
X193522Y353888*
X193414Y353740*
X193092Y353593*
X192126*
X192878D02*
X193629Y351969D01*
X195669Y355069D02*
X194596Y353002D01*
X196206*
X195669Y355069D02*
Y351969D01*
X197173Y354478D02*
X197387Y354626D01*
X197709Y355069*
Y351969*
X144882Y193652D02*
Y190551D01*
Y193652D02*
X145848D01*
X146170Y193504*
X146278Y193356*
X146385Y193061*
Y192766*
X146278Y192470*
X146170Y192323*
X145848Y192175*
X144882*
X145634D02*
X146385Y190551D01*
X148855Y193652D02*
X147781Y190551D01*
X147351Y193652D02*
X148855D01*
X108661Y362943D02*
Y359843D01*
Y362943D02*
X109628D01*
X109950Y362795*
X110057Y362648*
X110165Y362352*
Y362057*
X110057Y361762*
X109950Y361614*
X109628Y361467*
X108661*
X109413D02*
X110165Y359843D01*
X111668Y362943D02*
X111346Y362795D01*
X111238Y362500*
Y362205*
X111346Y361909*
X111560Y361762*
X111990Y361614*
X112312Y361467*
X112527Y361171*
X112634Y360876*
Y360433*
X112527Y360138*
X112419Y359990*
X112097Y359843*
X111668*
X111346Y359990*
X111238Y360138*
X111131Y360433*
Y360876*
X111238Y361171*
X111453Y361467*
X111775Y361614*
X112205Y361762*
X112419Y361909*
X112527Y362205*
Y362500*
X112419Y362795*
X112097Y362943*
X111668*
X226378Y272392D02*
Y269291D01*
Y272392D02*
X227344D01*
X227666Y272244*
X227774Y272096*
X227881Y271801*
Y271506*
X227774Y271211*
X227666Y271063*
X227344Y270915*
X226378*
X227130D02*
X227881Y269291D01*
X230243Y271358D02*
X230136Y270915D01*
X229921Y270620*
X229599Y270472*
X229492*
X229170Y270620*
X228955Y270915*
X228848Y271358*
Y271506*
X228955Y271949*
X229170Y272244*
X229492Y272392*
X229599*
X229921Y272244*
X230136Y271949*
X230243Y271358*
Y270620*
X230136Y269882*
X229921Y269439*
X229599Y269291*
X229384*
X229062Y269439*
X228955Y269734*
X144094Y253494D02*
Y250394D01*
Y253494D02*
X145061D01*
X145383Y253346*
X145490Y253199*
X145598Y252904*
Y252608*
X145490Y252313*
X145383Y252165*
X145061Y252018*
X144094*
X144846D02*
X145598Y250394D01*
X147638Y253494D02*
X146564Y251427D01*
X148175*
X147638Y253494D02*
Y250394D01*
X239370Y234596D02*
Y231496D01*
Y234596D02*
X240336D01*
X240659Y234449*
X240766Y234301*
X240873Y234006*
Y233711*
X240766Y233415*
X240659Y233268*
X240336Y233120*
X239370*
X240122D02*
X240873Y231496D01*
X243236Y234596D02*
X242162D01*
X242054Y233268*
X242162Y233415*
X242484Y233563*
X242806*
X243128Y233415*
X243343Y233120*
X243450Y232677*
X243343Y232382*
X243236Y231939*
X243021Y231644*
X242699Y231496*
X242377*
X242054Y231644*
X241947Y231791*
X241840Y232087*
X109961Y368233D02*
X109853Y368529D01*
X109639Y368824*
X109424Y368971*
X108994*
X108780Y368824*
X108565Y368529*
X108457Y368233*
X108350Y367790*
Y367052*
X108457Y366609*
X108565Y366314*
X108780Y366019*
X108994Y365871*
X109424*
X109639Y366019*
X109853Y366314*
X109961Y366609*
X112215Y368529D02*
X112108Y368824D01*
X111786Y368971*
X111571*
X111249Y368824*
X111034Y368381*
X110927Y367643*
Y366905*
X111034Y366314*
X111249Y366019*
X111571Y365871*
X111679*
X112001Y366019*
X112215Y366314*
X112323Y366757*
Y366905*
X112215Y367347*
X112001Y367643*
X111679Y367790*
X111571*
X111249Y367643*
X111034Y367347*
X110927Y366905*
X216535Y355069D02*
Y351969D01*
Y355069D02*
X217502D01*
X217824Y354921*
X217931Y354774*
X218039Y354478*
Y354183*
X217931Y353888*
X217824Y353740*
X217502Y353593*
X216535D02*
X217502D01*
X217824Y353445*
X217931Y353297*
X218039Y353002*
Y352559*
X217931Y352264*
X217824Y352116*
X217502Y351969*
X216535*
X220616Y354331D02*
X220508Y354626D01*
X220293Y354921*
X220079Y355069*
X219649*
X219435Y354921*
X219435D02*
X219220Y354626D01*
X219112Y354331*
X219005Y353888*
Y353150*
X219112Y352707*
X219220Y352411*
X219435Y352116*
X219435D02*
X219649Y351969D01*
X220079*
X220293Y352116*
X220508Y352411*
X220616Y352707*
X221582Y354478D02*
X221797Y354626D01*
X222119Y355069*
Y351969*
X192126Y320423D02*
Y317323D01*
Y320423D02*
X193092D01*
X193414Y320276*
X193522Y320128*
X193629Y319833*
Y319537*
X193522Y319242*
X193414Y319094*
X193092Y318947*
X192126D02*
X193092D01*
X193414Y318799*
X193522Y318652*
X193629Y318356*
Y317913*
X193522Y317618*
X193414Y317470*
X193092Y317323*
X192126*
X196206Y319685D02*
X196099Y319980D01*
X195884Y320276*
X195669Y320423*
X195240*
X195025Y320276*
X194810Y319980*
X194703Y319685*
X194596Y319242*
Y318504*
X194703Y318061*
X194810Y317766*
X195025Y317470*
X195240Y317323*
X195669*
X195884Y317470*
X196099Y317766*
X196206Y318061*
X197280Y319685D02*
Y319833D01*
X197387Y320128*
X197495Y320276*
X197709Y320423*
X198139*
X198354Y320276*
X198461Y320128*
X198568Y319833*
Y319537*
X198461Y319242*
X198246Y318799*
X197173Y317323*
X198676*
X229134Y355069D02*
Y351969D01*
Y355069D02*
X230100D01*
X230422Y354921*
X230530Y354774*
X230637Y354478*
Y354183*
X230530Y353888*
X230422Y353740*
X230100Y353593*
X229134D02*
X230100D01*
X230422Y353445*
X230530Y353297*
X230637Y353002*
Y352559*
X230530Y352264*
X230422Y352116*
X230100Y351969*
X229134*
X233214Y354331D02*
X233107Y354626D01*
X232892Y354921*
X232677Y355069*
X232248*
X232033Y354921*
X231818Y354626*
X231711Y354331*
X231603Y353888*
Y353150*
X231711Y352707*
X231818Y352411*
X232033Y352116*
X232248Y351969*
X232677*
X232892Y352116*
X233107Y352411*
X233214Y352707*
X234395Y355069D02*
X235576D01*
X234932Y353888*
X235254*
X235469Y353740*
X235576Y353593*
X235684Y353150*
Y352854*
X235576Y352411*
X235361Y352116*
X235039Y351969*
X234717*
X234395Y352116*
X234288Y352264*
X234180Y352559*
X245669Y355069D02*
Y351969D01*
Y355069D02*
X246636D01*
X246958Y354921*
X247065Y354774*
X247173Y354478*
Y354183*
X247065Y353888*
X246958Y353740*
X246636Y353593*
X245669D02*
X246636D01*
X246958Y353445*
X247065Y353297*
X247173Y353002*
Y352559*
X247065Y352264*
X246958Y352116*
X246636Y351969*
X245669*
X249749Y354331D02*
X249642Y354626D01*
X249427Y354921*
X249213Y355069*
X248783*
X248568Y354921*
X248354Y354626*
X248246Y354331*
X248139Y353888*
Y353150*
X248246Y352707*
X248354Y352411*
X248568Y352116*
X248783Y351969*
X249213*
X249427Y352116*
X249642Y352411*
X249749Y352707*
X251790Y355069D02*
X250716Y353002D01*
X252326*
X251790Y355069D02*
Y351969D01*
X192126Y285778D02*
Y282677D01*
Y285778D02*
X193092D01*
X193414Y285630*
X193522Y285482*
X193629Y285187*
Y284892*
X193522Y284596*
X193414Y284449*
X193092Y284301*
X192126D02*
X193092D01*
X193414Y284154*
X193522Y284006*
X193629Y283711*
Y283268*
X193522Y282972*
X193414Y282825*
X193092Y282677*
X192126*
X196206Y285039D02*
X196099Y285335D01*
X195884Y285630*
X195669Y285778*
X195240*
X195025Y285630*
X194810Y285335*
X194703Y285039*
X194596Y284596*
Y283858*
X194703Y283415*
X194810Y283120*
X195025Y282825*
X195240Y282677*
X195669*
X195884Y282825*
X196099Y283120*
X196206Y283415*
X198568Y285778D02*
X197495D01*
X197387Y284449*
X197495Y284596*
X197817Y284744*
X198139*
X198461Y284596*
X198676Y284301*
X198783Y283858*
X198676Y283563*
X198568Y283120*
X198354Y282825*
X198031Y282677*
X197709*
X197387Y282825*
X197280Y282972*
X197173Y283268*
X240157Y275541D02*
Y272441D01*
Y275541D02*
X241124D01*
X241446Y275394*
X241553Y275246*
X241661Y274951*
Y274656*
X241553Y274360*
X241446Y274213*
X241124Y274065*
X240157D02*
X241124D01*
X241446Y273917*
X241553Y273770*
X241661Y273474*
Y273031*
X241553Y272736*
X241446Y272589*
X241124Y272441*
X240157*
X244238Y274803D02*
X244130Y275098D01*
X243916Y275394*
X243701Y275541*
X243271*
X243057Y275394*
X242842Y275098*
X242734Y274803*
X242627Y274360*
Y273622*
X242734Y273179*
X242842Y272884*
X243057Y272589*
X243271Y272441*
X243701*
X243916Y272589*
X244130Y272884*
X244238Y273179*
X246492Y275098D02*
X246385Y275394D01*
X246063Y275541*
X245848*
X245526Y275394*
X245311Y274951*
X245204Y274213*
Y273474*
X245311Y272884*
X245526Y272589*
X245848Y272441*
X245956*
X246278Y272589*
X246492Y272884*
X246600Y273327*
Y273474*
X246492Y273917*
X246278Y274213*
X245956Y274360*
X245848*
X245526Y274213*
X245311Y273917*
X245204Y273474*
X207874Y355069D02*
Y351969D01*
Y355069D02*
X208840D01*
X209162Y354921*
X209270Y354774*
X209377Y354478*
Y354183*
X209270Y353888*
X209162Y353740*
X208840Y353593*
X207874D02*
X208840D01*
X209162Y353445*
X209270Y353297*
X209377Y353002*
Y352559*
X209270Y352264*
X209162Y352116*
X208840Y351969*
X207874*
X211954Y354331D02*
X211847Y354626D01*
X211632Y354921*
X211417Y355069*
X210988*
X210773Y354921*
X210558Y354626*
X210451Y354331*
X210344Y353888*
Y353150*
X210451Y352707*
X210558Y352411*
X210773Y352116*
X210988Y351969*
X211417*
X211632Y352116*
X211847Y352411*
X211954Y352707*
X214424Y355069D02*
X213350Y351969D01*
X212921Y355069D02*
X214424D01*
X237008D02*
Y351969D01*
Y355069D02*
X237974D01*
X238296Y354921*
X238404Y354774*
X238511Y354478*
Y354183*
X238404Y353888*
X238296Y353740*
X237974Y353593*
X237008D02*
X237974D01*
X238296Y353445*
X238404Y353297*
X238511Y353002*
Y352559*
X238404Y352264*
X238296Y352116*
X237974Y351969*
X237008*
X241088Y354331D02*
X240981Y354626D01*
X240766Y354921*
X240551Y355069*
X240122*
X239907Y354921*
X239692Y354626*
X239585Y354331*
X239477Y353888*
Y353150*
X239585Y352707*
X239692Y352411*
X239907Y352116*
X240122Y351969*
X240551*
X240766Y352116*
X240981Y352411*
X241088Y352707*
X242591Y355069D02*
X242269Y354921D01*
X242162Y354626*
Y354331*
X242269Y354035*
X242484Y353888*
X242913Y353740*
X243236Y353593*
X243450Y353297*
X243558Y353002*
Y352559*
X243450Y352264*
X243343Y352116*
X243021Y351969*
X242591*
X242269Y352116*
X242162Y352264*
X242054Y352559*
Y353002*
X242162Y353297*
X242377Y353593*
X242699Y353740*
X243128Y353888*
X243343Y354035*
X243450Y354331*
Y354626*
X243343Y354921*
X243021Y355069*
X242591*
X173264Y318898D02*
X173157Y319193D01*
X172942Y319488*
X172727Y319636*
X172298*
X172083Y319488*
X171868Y319193*
X171761Y318898*
X171654Y318455*
Y317717*
X171761Y317274*
X171868Y316978*
X172083Y316683*
X172298Y316535*
X172727*
X172942Y316683*
X173157Y316978*
X173264Y317274*
X174230Y319045D02*
X174445Y319193D01*
X174767Y319636*
Y316535*
X225233Y253543D02*
X225125Y253839D01*
X224911Y254134*
X224696Y254281*
X224266*
X224052Y254134*
X223837Y253839*
X223729Y253543*
X223622Y253100*
Y252362*
X223729Y251919*
X223837Y251624*
X224052Y251329*
X224266Y251181*
X224696*
X224911Y251329*
X225125Y251624*
X225233Y251919*
X226199Y253691D02*
X226414Y253839D01*
X226736Y254281*
Y251181*
X228346Y254281D02*
X228024Y254134D01*
X227810Y253691*
X227702Y252953*
Y252510*
X227810Y251772*
X228024Y251329*
X228346Y251181*
X228561*
X228883Y251329*
X229098Y251772*
X229205Y252510*
Y252953*
X229098Y253691*
X228883Y254134*
X228561Y254281*
X228346*
X128382Y307874D02*
X128275Y308169D01*
X128060Y308465*
X127845Y308612*
X127416*
X127201Y308465*
X126986Y308169*
X126879Y307874*
X126772Y307431*
Y306693*
X126879Y306250*
X126986Y305955*
X127201Y305659*
X127416Y305512*
X127845*
X128060Y305659*
X128275Y305955*
X128382Y306250*
X129349Y308022D02*
X129563Y308169D01*
X129885Y308612*
Y305512*
X130852Y308022D02*
X131067Y308169D01*
X131389Y308612*
Y305512*
X128382Y318110D02*
X128275Y318406D01*
X128060Y318701*
X127845Y318848*
X127416*
X127201Y318701*
X126986Y318406*
X126879Y318110*
X126772Y317667*
Y316929*
X126879Y316486*
X126986Y316191*
X127201Y315896*
X127416Y315748*
X127845*
X128060Y315896*
X128275Y316191*
X128382Y316486*
X129349Y318258D02*
X129563Y318406D01*
X129885Y318848*
Y315748*
X131926Y318848D02*
X130852Y316781D01*
X132462*
X131926Y318848D02*
Y315748D01*
X251217Y251181D02*
X251110Y251476D01*
X250895Y251772*
X250680Y251919*
X250251*
X250036Y251772*
X249821Y251476*
X249714Y251181*
X249606Y250738*
Y250000*
X249714Y249557*
X249821Y249262*
X250036Y248967*
X250251Y248819*
X250680*
X250895Y248967*
X251110Y249262*
X251217Y249557*
X252183Y251329D02*
X252398Y251476D01*
X252720Y251919*
Y248819*
X255082Y251919D02*
X254009D01*
X253901Y250591*
X254009Y250738*
X254331Y250886*
X254653*
X254975Y250738*
X255190Y250443*
X255297Y250000*
X255190Y249705*
X255082Y249262*
X254868Y248967*
X254545Y248819*
X254223*
X253901Y248967*
X253794Y249114*
X253686Y249409*
X193737Y238583D02*
X193629Y238878D01*
X193414Y239173*
X193200Y239321*
X192770*
X192555Y239173*
X192341Y238878*
X192233Y238583*
X192126Y238140*
Y237402*
X192233Y236959*
X192341Y236663*
X192555Y236368*
X192770Y236220*
X193200*
X193414Y236368*
X193629Y236663*
X193737Y236959*
X194703Y238730D02*
X194918Y238878D01*
X195240Y239321*
Y236220*
X197495Y238878D02*
X197387Y239173D01*
X197065Y239321*
X196850*
X196528Y239173*
X196314Y238730*
X196206Y237992*
Y237254*
X196314Y236663*
X196528Y236368*
X196850Y236220*
X196958*
X197280Y236368*
X197495Y236663*
X197602Y237106*
Y237254*
X197495Y237697*
X197280Y237992*
X196958Y238140*
X196850*
X196528Y237992*
X196314Y237697*
X196206Y237254*
X175626Y358268D02*
X175519Y358563D01*
X175304Y358858*
X175089Y359006*
X174660*
X174445Y358858*
X174230Y358563*
X174123Y358268*
X174016Y357825*
Y357087*
X174123Y356644*
X174230Y356348*
X174445Y356053*
X174660Y355906*
X175089*
X175304Y356053*
X175519Y356348*
X175626Y356644*
X176700Y358268D02*
Y358415D01*
X176807Y358711*
X176915Y358858*
X177130Y359006*
X177559*
X177774Y358858*
X177881Y358711*
X177989Y358415*
Y358120*
X177881Y357825*
X177666Y357382*
X176593Y355906*
X178096*
X131532Y340945D02*
X131424Y341240D01*
X131210Y341535*
X130995Y341683*
X130565*
X130565D02*
X130351Y341535D01*
X130136Y341240*
X130029Y340945*
X129921Y340502*
Y339764*
X130029Y339321*
X130136Y339026*
X130351Y338730*
X130565Y338583*
X130565D02*
X130995D01*
X131210Y338730*
X131424Y339026*
X131532Y339321*
X132713Y341683D02*
X133894D01*
X133250Y340502*
X133572*
X133787Y340354*
X133894Y340207*
X134001Y339764*
Y339469*
X133894Y339026*
X133679Y338730*
X133357Y338583*
X133035*
X132713Y338730*
X132606Y338878*
X132498Y339173*
X120902Y180315D02*
X120795Y180610D01*
X120580Y180906*
X120365Y181053*
X119936*
X119721Y180906*
X119506Y180610*
X119399Y180315*
X119291Y179872*
Y179134*
X119399Y178691*
X119506Y178396*
X119721Y178100*
X119936Y177953*
X120365*
X120580Y178100*
X120795Y178396*
X120902Y178691*
X122942Y181053D02*
X121868Y178986D01*
X123479*
X122942Y181053D02*
Y177953D01*
X120508Y190551D02*
X120401Y190846D01*
X120186Y191142*
X119971Y191289*
X119542*
X119327Y191142*
X119112Y190846*
X119005Y190551*
X118898Y190108*
Y189370*
X119005Y188927*
X119112Y188632*
X119327Y188337*
X119542Y188189*
X119971*
X120186Y188337*
X120401Y188632*
X120508Y188927*
X122870Y191289D02*
X121797D01*
X121689Y189961*
X121797Y190108*
X122119Y190256*
X122441*
X122763Y190108*
X122978Y189813*
X123085Y189370*
X122978Y189075*
X122870Y188632*
X122656Y188337*
X122334Y188189*
X122011*
X121689Y188337*
X121582Y188484*
X121475Y188780*
X131532Y333071D02*
X131424Y333366D01*
X131210Y333661*
X130995Y333809*
X130565*
X130565D02*
X130351Y333661D01*
X130136Y333366*
X130029Y333071*
X129921Y332628*
Y331890*
X130029Y331447*
X130136Y331152*
X130351Y330856*
X130565Y330709*
X130565D02*
X130995D01*
X131210Y330856*
X131424Y331152*
X131532Y331447*
X134001Y333809D02*
X132928Y330709D01*
X132498Y333809D02*
X134001D01*
X174839Y277953D02*
X174732Y278248D01*
X174517Y278543*
X174302Y278691*
X173873*
X173658Y278543*
X173443Y278248*
X173336Y277953*
X173228Y277510*
Y276772*
X173336Y276329*
X173443Y276033*
X173658Y275738*
X173873Y275591*
X174302*
X174517Y275738*
X174732Y276033*
X174839Y276329*
X176342Y278691D02*
X176020Y278543D01*
X175913Y278248*
Y277953*
X176020Y277657*
X176235Y277510*
X176664Y277362*
X176986Y277215*
X177201Y276919*
X177309Y276624*
Y276181*
X177201Y275886*
X177094Y275738*
X176772Y275591*
X176342*
X176020Y275738*
X175913Y275886*
X175805Y276181*
Y276624*
X175913Y276919*
X176127Y277215*
X176450Y277362*
X176879Y277510*
X177094Y277657*
X177201Y277953*
Y278248*
X177094Y278543*
X176772Y278691*
X176342*
X117359Y254331D02*
X117251Y254626D01*
X117037Y254921*
X116822Y255069*
X116392*
X116178Y254921*
X115963Y254626*
X115855Y254331*
X115748Y253888*
Y253150*
X115855Y252707*
X115963Y252411*
X116178Y252116*
X116392Y251969*
X116392D02*
X116822D01*
X116822D02*
X117037Y252116D01*
X117251Y252411*
X117359Y252707*
X119721Y254035D02*
X119613Y253593D01*
X119399Y253297*
X119077Y253150*
X118969*
X118647Y253297*
X118432Y253593*
X118325Y254035*
Y254183*
X118432Y254626*
X118647Y254921*
X118969Y255069*
X119077*
X119399Y254921*
X119613Y254626*
X119721Y254035*
Y253297*
X119613Y252559*
X119399Y252116*
X119077Y251969*
X119077D02*
X118862D01*
X118862D02*
X118540Y252116D01*
X118432Y252411*
X215784Y231496D02*
X215676Y231791D01*
X215462Y232087*
X215247Y232234*
X214817*
X214603Y232087*
X214388Y231791*
X214281Y231496*
X214173Y231053*
Y230315*
X214281Y229872*
X214388Y229577*
X214603Y229281*
X214817Y229134*
X215247*
X215462Y229281*
X215676Y229577*
X215784Y229872*
X216750Y231644D02*
X216965Y231791D01*
X217287Y232234*
Y229134*
X218361Y231496D02*
Y231644D01*
X218468Y231939*
X218576Y232087*
X218790Y232234*
X219220*
X219435Y232087*
X219435D02*
X219542Y231939D01*
X219649Y231644*
Y231348*
X219542Y231053*
X219327Y230610*
X218253Y229134*
X219757*
X215784Y212598D02*
X215676Y212894D01*
X215462Y213189*
X215247Y213337*
X214817*
X214603Y213189*
X214388Y212894*
X214281Y212598*
X214173Y212156*
Y211417*
X214281Y210974*
X214388Y210679*
X214603Y210384*
X214817Y210236*
X215247*
X215462Y210384*
X215676Y210679*
X215784Y210974*
X216750Y212746D02*
X216965Y212894D01*
X217287Y213337*
Y210236*
X218468Y213337D02*
X219649D01*
X219005Y212156*
X219327*
X219542Y212008*
X219649Y211860*
X219757Y211417*
Y211122*
X219649Y210679*
X219435Y210384*
X219435D02*
X219112Y210236D01*
X218790*
X218468Y210384*
X218361Y210531*
X218253Y210827*
X111417Y355082D02*
X111713Y355190D01*
X112008Y355404*
X112156Y355619*
Y356049*
X112008Y356263*
X111713Y356478*
X111417Y356586*
X110974Y356693*
X110236*
X109793Y356586*
X109498Y356478*
X109203Y356263*
X109055Y356049*
Y355619*
X109203Y355404*
X109498Y355190*
X109793Y355082*
X112156Y354116D02*
X109055D01*
X112156D02*
X109055Y352613D01*
X112156D02*
X109055D01*
X111565Y351646D02*
X111713Y351432D01*
X112156Y351110*
X109055*
X112156Y349499D02*
X112008Y349821D01*
X111565Y350036*
X110827Y350143*
X110384*
X109646Y350036*
X109203Y349821*
X109055Y349499*
Y349284*
X109203Y348962*
X109646Y348747*
X110384Y348640*
X110827*
X111565Y348747*
X112008Y348962*
X112156Y349284*
Y349499*
Y347459D02*
Y346278D01*
X110974Y346922*
Y346600*
X110827Y346385*
X110679Y346278*
X110236Y346170*
X109941*
X109498Y346278*
X109203Y346492*
X109055Y346815*
Y347137*
X109203Y347459*
X109350Y347566*
X109646Y347674*
X254331Y263028D02*
X254035Y262921D01*
X253740Y262706*
X253593Y262491*
Y262062*
X253740Y261847*
X254035Y261632*
X254331Y261525*
X254774Y261417*
X255512*
X255955Y261525*
X256250Y261632*
X256545Y261847*
X256693Y262062*
Y262491*
X256545Y262706*
X256250Y262921*
X255955Y263028*
X253593Y263994D02*
X256693D01*
X253593D02*
X256693Y265497D01*
X253593D02*
X256693D01*
X254183Y266464D02*
X254035Y266679D01*
X253593Y267001*
X256693*
X253593Y268611D02*
X253740Y268289D01*
X254183Y268074*
X254921Y267967*
X255364*
X256102Y268074*
X256545Y268289*
X256693Y268611*
Y268826*
X256545Y269148*
X256102Y269363*
X255364Y269470*
X254921*
X254183Y269363*
X253740Y269148*
X253593Y268826*
Y268611*
Y271832D02*
Y270759D01*
X254921Y270651*
X254774Y270759*
X254626Y271081*
Y271403*
X254774Y271725*
X255069Y271940*
X255512Y272047*
X255807Y271940*
X256250Y271832*
X256250D02*
X256545Y271618D01*
X256693Y271296*
Y270974*
X256545Y270651*
X256398Y270544*
X256102Y270437*
X164567Y266273D02*
Y263930D01*
X164681Y263461*
X164908Y263148*
X165249Y262992*
X165476*
X165817Y263148*
X166044Y263461*
X166158Y263930*
Y266273*
X167749D02*
X167408Y266117D01*
X167294Y265805*
Y265492*
X167408Y265180*
X167635Y265023*
X168090Y264867*
X168431Y264711*
X168658Y264398*
X168771Y264086*
Y263617*
X168658Y263305*
X168544Y263148*
X168203Y262992*
X167749*
X167408Y263148*
X167294Y263305*
X167181Y263617*
Y264086*
X167294Y264398*
X167521Y264711*
X167862Y264867*
X168317Y265023*
X168544Y265180*
X168658Y265492*
Y265805*
X168544Y266117*
X168203Y266273*
X167749*
X109843Y166880D02*
Y163780D01*
Y166880D02*
X110594D01*
X110916Y166732*
X111131Y166437*
X111238Y166142*
X111346Y165699*
Y164961*
X111238Y164518*
X111131Y164222*
X110916Y163927*
X110594Y163780*
X109843*
X113815Y166880D02*
X112742Y163780D01*
X112312Y166880D02*
X113815D01*
X145705Y185039D02*
X145598Y185335D01*
X145383Y185630*
X145168Y185778*
X144739*
X144524Y185630*
X144309Y185335*
X144202Y185039*
X144094Y184596*
Y183858*
X144202Y183415*
X144309Y183120*
X144524Y182825*
X144739Y182677*
X145168*
X145383Y182825*
X145598Y183120*
X145705Y183415*
X146671Y185187D02*
X146886Y185335D01*
X147208Y185778*
Y182677*
X149678Y185778D02*
X148604Y182677D01*
X148175Y185778D02*
X149678D01*
X192126Y277116D02*
Y274016D01*
Y277116D02*
X193092D01*
X193414Y276969*
X193522Y276821*
X193629Y276526*
Y276230*
X193522Y275935*
X193414Y275787*
X193092Y275640*
X192126*
X192878D02*
X193629Y274016D01*
X194810Y277116D02*
X195991D01*
X195347Y275935*
X195669*
X195884Y275787*
X195991Y275640*
X196099Y275197*
Y274902*
X195991Y274459*
X195777Y274163*
X195455Y274016*
X195132*
X194810Y274163*
X194703Y274311*
X194596Y274606*
X198461Y276083D02*
X198354Y275640D01*
X198139Y275344*
X197817Y275197*
X197709*
X197387Y275344*
X197173Y275640*
X197065Y276083*
Y276230*
X197173Y276673*
X197387Y276969*
X197709Y277116*
X197817*
X198139Y276969*
X198354Y276673*
X198461Y276083*
Y275344*
X198354Y274606*
X198139Y274163*
X197817Y274016*
X197602*
X197280Y274163*
X197173Y274459*
X192913Y261368D02*
Y258268D01*
Y261368D02*
X193880D01*
X194202Y261220*
X194309Y261073*
X194417Y260778*
Y260482*
X194309Y260187*
X194202Y260039*
X193880Y259892*
X192913*
X193665D02*
X194417Y258268D01*
X196457Y261368D02*
X195383Y259301D01*
X196994*
X196457Y261368D02*
Y258268D01*
X198067Y260630D02*
Y260778D01*
X198175Y261073*
X198282Y261220*
X198497Y261368*
X198926*
X199141Y261220*
X199248Y261073*
X199356Y260778*
Y260482*
X199248Y260187*
X199034Y259744*
X197960Y258268*
X199463*
X210161Y254562D02*
Y252347D01*
X210268Y251905*
X210483Y251609*
X210805Y251462*
X211020*
X211342Y251609*
X211557Y251905*
X211664Y252347*
Y254562*
X212738Y253824D02*
Y253971D01*
X212845Y254267*
X212953Y254414*
X213168Y254562*
X213168D02*
X213597D01*
X213812Y254414*
X213919Y254267*
X214026Y253971*
Y253676*
X213919Y253381*
X213704Y252938*
X212631Y251462*
X214134*
X145705Y257480D02*
X145598Y257776D01*
X145383Y258071*
X145168Y258219*
X144739*
X144524Y258071*
X144309Y257776*
X144202Y257480*
X144094Y257037*
Y256299*
X144202Y255856*
X144309Y255561*
X144524Y255266*
X144739Y255118*
X145168*
X145383Y255266*
X145598Y255561*
X145705Y255856*
X146671Y257628D02*
X146886Y257776D01*
X147208Y258219*
Y255118*
X148712Y258219D02*
X148389Y258071D01*
X148282Y257776*
Y257480*
X148389Y257185*
X148604Y257037*
X149034Y256890*
X149356Y256742*
X149571Y256447*
X149678Y256152*
Y255709*
X149571Y255413*
X149463Y255266*
X149141Y255118*
X148712*
X148389Y255266*
X148282Y255413*
X148175Y255709*
Y256152*
X148282Y256447*
X148497Y256742*
X148819Y256890*
X149248Y257037*
X149463Y257185*
X149571Y257480*
Y257776*
X149463Y258071*
X149141Y258219*
X148712*
X253593Y322334D02*
X255955D01*
X256398Y322226*
X256545Y322119*
X256693Y321904*
Y321689*
X256545Y321475*
X256398Y321367*
X255955Y321260*
X255659*
X253593Y324052D02*
X256693D01*
X253593Y323300D02*
Y324803D01*
Y326628D02*
X256693Y325770D01*
X253593Y326628D02*
X256693Y327487D01*
X255659Y326092D02*
Y327165D01*
X254331Y330064D02*
X254035Y329957D01*
X253740Y329742*
X253593Y329528*
Y329098*
X253740Y328883*
X254035Y328669*
X254331Y328561*
X254774Y328454*
X255512*
X255955Y328561*
X256250Y328669*
X256545Y328883*
X256693Y329098*
Y329528*
X256545Y329742*
X256250Y329957*
X255955Y330064*
X255512*
Y329528D02*
Y330064D01*
X254183Y331031D02*
X254035Y331246D01*
X253593Y331568*
X256693*
X203078Y375886D02*
X202863Y376181D01*
X202541Y376329*
X202112*
X201790Y376181*
X201575Y375886*
Y375591*
X201682Y375295*
X201790Y375148*
X202004Y375000*
X202649Y374705*
X202863Y374557*
X202971Y374409*
X203078Y374114*
Y373671*
X202863Y373376*
X202541Y373228*
X202112*
X201790Y373376*
X201575Y373671*
X204044Y376329D02*
X204581Y373228D01*
X205118Y376329D02*
X204581Y373228D01*
X205118Y376329D02*
X205655Y373228D01*
X206192Y376329D02*
X205655Y373228D01*
X207158Y375738D02*
X207373Y375886D01*
X207695Y376329*
Y373228*
X233107Y363780D02*
X232999Y364075D01*
X232785Y364370*
X232570Y364518*
X232140*
X231926Y364370*
X231711Y364075*
X231603Y363780*
X231496Y363337*
Y362598*
X231603Y362156*
X231711Y361860*
X231926Y361565*
X232140Y361417*
X232570*
X232785Y361565*
X232999Y361860*
X233107Y362156*
X234073Y363927D02*
X234288Y364075D01*
X234610Y364518*
Y361417*
X236972Y363484D02*
X236865Y363041D01*
X236650Y362746*
X236328Y362598*
X236220*
X235898Y362746*
X235684Y363041*
X235576Y363484*
Y363632*
X235684Y364075*
X235898Y364370*
X236220Y364518*
X236328*
X236650Y364370*
X236865Y364075*
X236972Y363484*
Y362746*
X236865Y362008*
X236650Y361565*
X236328Y361417*
X236113*
X235791Y361565*
X235684Y361860*
X260630Y387352D02*
Y385138D01*
X260737Y384695*
X260952Y384400*
X261274Y384252*
X261489*
X261811Y384400*
X262026Y384695*
X262133Y385138*
Y387352*
X264388Y386909D02*
X264281Y387205D01*
X263958Y387352*
X263744*
X263422Y387205*
X263207Y386762*
X263099Y386024*
X263099D02*
Y385285D01*
X263099D02*
X263207Y384695D01*
X263422Y384400*
X263744Y384252*
X263851*
X264173Y384400*
X264388Y384695*
X264495Y385138*
Y385285*
X264388Y385728*
X264173Y386024*
X263851Y386171*
X263744*
X263422Y386024*
X263207Y385728*
X263099Y385285*
X133858Y171211D02*
Y168110D01*
X135147*
X136220Y170472D02*
Y170620D01*
X136328Y170915*
X136435Y171063*
X136650Y171211*
X137079*
X137294Y171063*
X137402Y170915*
X137509Y170620*
Y170325*
X137402Y170030*
X137187Y169587*
X136113Y168110*
X137616*
X116707Y291019D02*
Y287918D01*
Y291019D02*
X117459D01*
X117781Y290871*
X117996Y290576*
X118103Y290281*
X118210Y289838*
Y289099*
X118103Y288656*
X117996Y288361*
X117781Y288066*
X117459Y287918*
X116707*
X119177Y290428D02*
X119392Y290576D01*
X119714Y291019*
Y287918*
X139370Y369029D02*
Y366686D01*
X139484Y366217*
X139711Y365904*
X140052Y365748*
X140279*
X140620Y365904*
X140847Y366217*
X140961Y366686*
Y369029*
X143575D02*
X142438Y365748D01*
X141984Y369029D02*
X143575D01*
G54D81*
X162357Y369181D02*
X162088Y368812D01*
X161820Y368258*
X161552Y367520*
X161417Y366597*
Y365859*
X161552Y364936*
X161820Y364198*
X162088Y363644*
X162357Y363275*
X163699Y367520D02*
Y367704D01*
X163833Y368073*
X163967Y368258*
X164236Y368442*
X164773*
X165041Y368258*
X165175Y368073*
X165310Y367704*
Y367335*
X165175Y366966*
X164907Y366412*
X163565Y364567*
X165444*
X167457Y368442D02*
X167054Y368258D01*
X166786Y367704*
X166652Y366781*
Y366228*
X166786Y365305*
X167054Y364751*
X167457Y364567*
X167725*
X168128Y364751*
X168397Y365305*
X168531Y366228*
Y366781*
X168397Y367704*
X168128Y368258*
X167725Y368442*
X167457*
X169739Y367704D02*
X170007Y367889D01*
X170410Y368442*
Y364567*
X173363Y367151D02*
X173228Y366597D01*
X172960Y366228*
X172557Y366043*
X172423*
X172020Y366228*
X171752Y366597*
X171618Y367151*
Y367335*
X171752Y367889*
X172020Y368258*
X172423Y368442*
X172557*
X172960Y368258*
X173228Y367889*
X173363Y367151*
Y366228*
X173228Y365305*
X172960Y364751*
X172557Y364567*
X172289*
X171886Y364751*
X171752Y365121*
X174705Y364936D02*
X174571Y364751D01*
X174705Y364567*
X174839Y364751*
X174705Y364936*
X176852Y368442D02*
X176450Y368258D01*
X176181Y367704*
X176047Y366781*
Y366228*
X176181Y365305*
X176450Y364751*
X176852Y364567*
X177121*
X177523Y364751*
X177792Y365305*
X177926Y366228*
Y366781*
X177792Y367704*
X177523Y368258*
X177121Y368442*
X176852*
X180879Y367151D02*
X180744Y366597D01*
X180476Y366228*
X180073Y366043*
X179939*
X179537Y366228*
X179268Y366597*
X179134Y367151*
Y367335*
X179268Y367889*
X179537Y368258*
X179939Y368442*
X180073*
X180476Y368258*
X180744Y367889*
X180879Y367151*
Y366228*
X180744Y365305*
X180476Y364751*
X180073Y364567*
X179805*
X179402Y364751*
X179268Y365121*
X182221Y364936D02*
X182087Y364751D01*
X182221Y364567*
X182355Y364751*
X182221Y364936*
X183697Y367520D02*
Y367704D01*
X183831Y368073*
X183966Y368258*
X184234Y368442*
X184771*
X185039Y368258*
X185174Y368073*
X185308Y367704*
Y367335*
X185174Y366966*
X184905Y366412*
X183563Y364567*
X185442*
X186784Y367520D02*
Y367704D01*
X186918Y368073*
X187053Y368258*
X187321Y368442*
X187858*
X188126Y368258*
X188261Y368073*
X188395Y367704*
Y367335*
X188261Y366966*
X187992Y366412*
X186650Y364567*
X188529*
X189737Y369181D02*
X190005Y368812D01*
X190274Y368258*
X190542Y367520*
X190676Y366597*
Y365859*
X190542Y364936*
X190274Y364198*
X190005Y363644*
X189737Y363275*
G54D85*
G74*
X0Y0D02*
M02*
